<?xml version="1.0" encoding="UTF-8" standalone="no"?>
<!DOCTYPE svg PUBLIC "-//W3C//DTD SVG 1.1//EN" "http://www.w3.org/Graphics/SVG/1.1/DTD/svg11.dtd">
<!-- Generated by Microsoft Visio, SVG Export InversionEffecient.svg Page-1 -->
<svg xmlns="http://www.w3.org/2000/svg" xmlns:xlink="http://www.w3.org/1999/xlink" xmlns:ev="http://www.w3.org/2001/xml-events"
		xmlns:v="http://schemas.microsoft.com/visio/2003/SVGExtensions/" width="5.375in" height="1.14306in"
		viewBox="0 0 387 82.3002" xml:space="preserve" color-interpolation-filters="sRGB" class="st11">
	<v:documentProperties v:langID="1033" v:viewMarkup="false"/>

	<style type="text/css">
	<![CDATA[
		.st1 {stroke:none;stroke-linecap:round;stroke-linejoin:round;stroke-width:0.75}
		.st2 {fill:#000000;font-family:Arial;font-size:0.833336em}
		.st3 {fill:none;stroke:#000000;stroke-linecap:round;stroke-linejoin:round;stroke-width:0.72}
		.st4 {stroke:#000000;stroke-linecap:round;stroke-linejoin:round;stroke-width:0.748474}
		.st5 {stroke:#000000;stroke-linecap:round;stroke-linejoin:round;stroke-width:0.748902}
		.st6 {fill:#000000;stroke:#000000;stroke-linecap:round;stroke-linejoin:round;stroke-width:0.24}
		.st7 {fill:#ffffff;stroke:none;stroke-linecap:round;stroke-linejoin:round;stroke-width:0.75}
		.st8 {marker-end:url(#mrkr4-93);stroke:#000000;stroke-linecap:round;stroke-linejoin:round;stroke-width:0.72}
		.st9 {fill:#000000;fill-opacity:1;stroke:#000000;stroke-opacity:1;stroke-width:0.28571428571429}
		.st10 {stroke:#000000;stroke-linecap:round;stroke-linejoin:round;stroke-width:0.72}
		.st11 {fill:none;fill-rule:evenodd;font-size:12px;overflow:visible;stroke-linecap:square;stroke-miterlimit:3}
	]]>
	</style>

	<defs id="Markers">
		<g id="lend4">
			<path d="M 2 1 L 0 0 L 2 -1 L 2 1 " style="stroke:none"/>
		</g>
		<marker id="mrkr4-93" class="st9" v:arrowType="4" v:arrowSize="1" v:setback="6.5" refX="-6.5" orient="auto"
				markerUnits="strokeWidth" overflow="visible">
			<use xlink:href="#lend4" transform="scale(-3.5,-3.5) "/>
		</marker>
	</defs>
	<g v:mID="0" v:index="1" v:groupContext="foregroundPage">
		<title>Page-1</title>
		<v:pageProperties v:drawingScale="1" v:pageScale="1" v:drawingUnits="19" v:shadowOffsetX="9" v:shadowOffsetY="-9"/>
		<v:layer v:name="Connector" v:index="0"/>
		<g id="shape1-1" v:mID="1" v:groupContext="shape" transform="translate(81.7383,-15.0002)">
			<title>Sheet.1</title>
			<desc>B∙C</desc>
			<v:textBlock v:margins="rect(0,0,0,0)"/>
			<v:textRect cx="15.75" cy="77.8002" width="31.5" height="9"/>
			<path d="M31.5 73.3 L0 73.3 L0 82.3 L31.5 82.3 L31.5 73.3" class="st1"/>
			<text x="7.41" y="80.8" class="st2" v:langID="1033"><v:paragraph v:horizAlign="1"/><v:tabList/>B∙C</text>		</g>
		<g id="shape2-5" v:mID="2" v:groupContext="shape" transform="translate(85.1133,-70.1252)">
			<title>Sheet.2</title>
			<desc>A∙B</desc>
			<v:textBlock v:margins="rect(0,0,0,0)"/>
			<v:textRect cx="15.75" cy="77.8002" width="31.5" height="9"/>
			<path d="M31.5 73.3 L0 73.3 L0 82.3 L31.5 82.3 L31.5 73.3" class="st1"/>
			<text x="7.69" y="80.8" class="st2" v:langID="1033"><v:paragraph v:horizAlign="1"/><v:tabList/>A∙B</text>		</g>
		<g id="shape3-9" v:mID="3" v:groupContext="shape" transform="translate(120.375,-40.8752)">
			<title>Sheet.3</title>
			<desc>F = A∙B + B∙C</desc>
			<v:textBlock v:margins="rect(0,0,0,0)"/>
			<v:textRect cx="37.125" cy="77.8002" width="74.25" height="9"/>
			<path d="M74.25 73.3 L0 73.3 L0 82.3 L74.25 82.3 L74.25 73.3" class="st1"/>
			<text x="6.28" y="80.8" class="st2" v:langID="1033"><v:paragraph v:horizAlign="1"/><v:tabList/>F = A∙B + B∙C</text>		</g>
		<g id="shape4-13" v:mID="4" v:groupContext="shape" transform="translate(55.1602,-51.0002)">
			<title>Sheet.4</title>
			<path d="M0 64.3 L0 82.3 L10.12 82.3 A10.125 9 -180 0 0 20.25 73.3 A10.125 9 -180 0 0 10.12 64.3 L0 64.3 Z" class="st3"/>
		</g>
		<g id="shape5-15" v:mID="5" v:groupContext="shape" transform="translate(75.4102,-33.0002)">
			<title>Sheet.5</title>
			<path d="M0 82.3 L11.25 82.3" class="st4"/>
		</g>
		<g id="shape6-18" v:mID="6" v:groupContext="shape" transform="translate(10.125,-64.5002)">
			<title>Sheet.6</title>
			<path d="M45.04 82.3 L0 82.3" class="st4"/>
		</g>
		<g id="shape7-21" v:mID="7" v:groupContext="shape" transform="translate(48.4102,-37.5002)">
			<title>Sheet.7</title>
			<path d="M0 64.25 L0 82.3" class="st4"/>
		</g>
		<g id="shape8-24" v:mID="8" v:groupContext="shape" transform="translate(55.1602,-24.0002)">
			<title>Sheet.8</title>
			<path d="M0 64.3 L0 82.3 L10.12 82.3 A10.125 9 -180 0 0 20.25 73.3 A10.125 9 -180 0 0 10.12 64.3 L0 64.3 Z" class="st3"/>
		</g>
		<g id="group9-26" transform="translate(93.5508,-37.5002)" v:mID="9" v:groupContext="group">
			<title>Sheet.9</title>
			<g id="shape10-27" v:mID="10" v:groupContext="shape">
				<title>Sheet.10</title>
				<path d="M2.1 73.3 L2.02 74.79 L1.85 77.48 L1.51 79.61 L1.01 81.09 L0 82.3 L8.57 82.3 L11.84 81.84 L13.27 81.37 L14.45
							 80.82 L16.04 79.8 L17.05 78.77 L18.39 76.73 L20.24 73.3" class="st5"/>
			</g>
			<g id="shape11-30" v:mID="11" v:groupContext="shape" transform="translate(0.00754234,-9.00045)">
				<title>Sheet.11</title>
				<path d="M2.1 82.3 L2.02 80.82 L1.85 78.22 L1.51 76.08 L1.01 74.6 L0 73.3 L8.57 73.3 L11.84 73.76 L13.27 74.32 L14.45
							 74.88 L16.04 75.9 L17.05 76.92 L18.39 78.96 L20.24 82.3" class="st5"/>
			</g>
		</g>
		<g id="shape12-33" v:mID="12" v:groupContext="shape" transform="translate(10.125,-55.5002)">
			<title>Sheet.12</title>
			<path d="M45.04 82.3 L0 82.3" class="st4"/>
		</g>
		<g id="shape13-36" v:mID="13" v:groupContext="shape" transform="translate(48.4102,-37.5002)">
			<title>Sheet.13</title>
			<path d="M6.75 82.3 L0 82.3" class="st4"/>
		</g>
		<g id="shape14-39" v:mID="14" v:groupContext="shape" transform="translate(46.1602,-28.5002)">
			<title>Sheet.14</title>
			<path d="M9 82.3 L0 82.3" class="st4"/>
		</g>
		<g id="shape15-42" v:mID="15" v:groupContext="shape" transform="translate(86.6602,-51.0002)">
			<title>Sheet.15</title>
			<path d="M0 73.25 L0 82.3" class="st4"/>
		</g>
		<g id="shape16-45" v:mID="16" v:groupContext="shape" transform="translate(86.8008,-51.0002)">
			<title>Sheet.16</title>
			<path d="M0 82.3 L8.44 82.3" class="st4"/>
		</g>
		<g id="shape17-48" v:mID="17" v:groupContext="shape" transform="translate(86.6602,-33.0002)">
			<title>Sheet.17</title>
			<path d="M0 73.25 L0 82.3" class="st4"/>
		</g>
		<g id="shape18-51" v:mID="18" v:groupContext="shape" transform="translate(86.8008,-42.0002)">
			<title>Sheet.18</title>
			<path d="M0 82.3 L8.44 82.3" class="st4"/>
		</g>
		<g id="shape19-54" v:mID="19" v:groupContext="shape" transform="translate(113.801,-46.5002)">
			<title>Sheet.19</title>
			<path d="M0 82.3 L8.44 82.3" class="st4"/>
		</g>
		<g id="shape20-57" v:mID="20" v:groupContext="shape" transform="translate(47.4019,-54.4919)">
			<title>Circle.363</title>
			<v:userDefs>
				<v:ud v:nameU="visVersion" v:val="VT0(11):26"/>
			</v:userDefs>
			<path d="M0 81.29 A1.00825 1.00825 0 1 1 2.02 81.29 A1.00825 1.00825 0 1 1 -0 81.29 Z" class="st6"/>
		</g>
		<g id="shape21-59" v:mID="21" v:groupContext="shape" transform="translate(75.375,-60.0002)">
			<title>Sheet.21</title>
			<path d="M0 82.3 L11.29 82.3" class="st4"/>
		</g>
		<g id="group22-62" transform="translate(37.125,-22.3174)" v:mID="22" v:groupContext="group">
			<title>Sheet.22</title>
			<g id="shape23-63" v:mID="23" v:groupContext="shape">
				<title>Sheet.23</title>
				<path d="M0 69.93 L0 82.3 L10.3 76.05 L0 69.93 L0 69.93 Z" class="st7"/>
			</g>
			<g id="shape24-65" v:mID="24" v:groupContext="shape">
				<title>Sheet.24</title>
				<path d="M0 69.93 L0 82.3 L10.3 76.05 L0 69.93 L0 69.93" class="st5"/>
			</g>
			<g id="shape25-68" v:mID="25" v:groupContext="shape" transform="translate(10.2977,-4.71674)">
				<title>Sheet.25</title>
				<path d="M0 80.77 L0 80.52 L0.13 80.13 L0.26 79.88 L0.51 79.75 L0.64 79.5 L1.03 79.37 L1.29 79.24 L1.54 79.24 L1.93
							 79.24 L2.19 79.37 L2.45 79.5 L2.7 79.75 L2.83 79.88 L2.96 80.13 L3.09 80.52 L3.09 80.77 L3.09 80.77
							 L3.09 81.15 L2.96 81.41 L2.83 81.66 L2.7 81.92 L2.45 82.05 L2.19 82.17 L1.93 82.3 L1.54 82.3 L1.29 82.3
							 L1.03 82.17 L0.64 82.05 L0.51 81.92 L0.26 81.66 L0.13 81.41 L0 81.15 L0 80.77 L0 80.77 Z" class="st7"/>
			</g>
			<g id="shape26-70" v:mID="26" v:groupContext="shape" transform="translate(10.2977,-4.71674)">
				<title>Sheet.26</title>
				<path d="M0 80.77 L0 80.52 L0.13 80.13 L0.26 79.88 L0.51 79.75 L0.64 79.5 L1.03 79.37 L1.29 79.24 L1.54 79.24 L1.93
							 79.24 L2.19 79.37 L2.45 79.5 L2.7 79.75 L2.83 79.88 L2.96 80.13 L3.09 80.52 L3.09 80.77 L3.09 80.77
							 L3.09 81.15 L2.96 81.41 L2.83 81.66 L2.7 81.92 L2.45 82.05 L2.19 82.17 L1.93 82.3 L1.54 82.3 L1.29 82.3
							 L1.03 82.17 L0.64 82.05 L0.51 81.92 L0.26 81.66 L0.13 81.41 L0 81.15 L0 80.77" class="st5"/>
			</g>
		</g>
		<g id="shape27-73" v:mID="27" v:groupContext="shape" transform="translate(28.125,-28.5002)">
			<title>Sheet.27</title>
			<path d="M9 82.3 L0 82.3" class="st4"/>
		</g>
		<g id="shape28-76" v:mID="28" v:groupContext="shape" transform="translate(0,-60.0002)">
			<title>Sheet.28</title>
			<desc>A</desc>
			<v:textBlock v:margins="rect(0,0,0,0)"/>
			<v:textRect cx="4.5" cy="77.8002" width="9" height="9"/>
			<path d="M9 73.3 L0 73.3 L0 82.3 L9 82.3 L9 73.3" class="st1"/>
			<text x="1.16" y="80.8" class="st2" v:langID="1033"><v:paragraph v:horizAlign="1"/><v:tabList/>A</text>		</g>
		<g id="shape29-80" v:mID="29" v:groupContext="shape" transform="translate(0,-48.7502)">
			<title>Sheet.29</title>
			<desc>B</desc>
			<v:textBlock v:margins="rect(0,0,0,0)"/>
			<v:textRect cx="4.5" cy="77.8002" width="9" height="9"/>
			<path d="M9 73.3 L0 73.3 L0 82.3 L9 82.3 L9 73.3" class="st1"/>
			<text x="1.16" y="80.8" class="st2" v:langID="1033"><v:paragraph v:horizAlign="1"/><v:tabList/>B</text>		</g>
		<g id="shape30-84" v:mID="30" v:groupContext="shape" transform="translate(0,-22.8752)">
			<title>Sheet.30</title>
			<desc>C</desc>
			<v:textBlock v:margins="rect(0,0,0,0)"/>
			<v:textRect cx="4.5" cy="77.8002" width="9" height="9"/>
			<path d="M9 73.3 L0 73.3 L0 82.3 L9 82.3 L9 73.3" class="st1"/>
			<text x="0.89" y="80.8" class="st2" v:langID="1033"><v:paragraph v:horizAlign="1"/><v:tabList/>C</text>		</g>
		<g id="shape31-88" v:mID="31" v:groupContext="shape" v:layerMember="0"
				transform="translate(58.1128,140.145) rotate(-160.017)">
			<title>Line-curve connector.375</title>
			<v:userDefs>
				<v:ud v:nameU="AntiScale" v:val="VT0(1):26"/>
				<v:ud v:nameU="Scale" v:val="VT0(1):26"/>
				<v:ud v:nameU="visVersion" v:val="VT0(11):26"/>
			</v:userDefs>
			<path d="M0 82.3 L3.12 81.33 L5.92 80.79 L8.4 80.68 L8.74 80.8" class="st8"/>
		</g>
		<g id="shape32-94" v:mID="32" v:groupContext="shape" v:layerMember="0"
				transform="translate(56.9878,-69.6702) rotate(-19.9831) scale(-1,1)">
			<title>Line-curve connector.376</title>
			<v:userDefs>
				<v:ud v:nameU="AntiScale" v:val="VT0(1):26"/>
				<v:ud v:nameU="Scale" v:val="VT0(1):26"/>
				<v:ud v:nameU="visVersion" v:val="VT0(11):26"/>
			</v:userDefs>
			<path d="M0 82.3 L3.12 81.33 L5.92 80.79 L8.4 80.68 L8.74 80.8" class="st8"/>
		</g>
		<g id="shape33-99" v:mID="33" v:groupContext="shape" transform="translate(277.313,-15.0002)">
			<title>Sheet.33</title>
			<desc>B∙C</desc>
			<v:textBlock v:margins="rect(0,0,0,0)"/>
			<v:textRect cx="15.75" cy="77.8002" width="31.5" height="9"/>
			<path d="M31.5 73.3 L0 73.3 L0 82.3 L31.5 82.3 L31.5 73.3" class="st1"/>
			<text x="7.41" y="80.8" class="st2" v:langID="1033"><v:paragraph v:horizAlign="1"/><v:tabList/>B∙C</text>		</g>
		<g id="shape34-103" v:mID="34" v:groupContext="shape" transform="translate(277.102,-70.1252)">
			<title>Sheet.34</title>
			<desc>A∙B</desc>
			<v:textBlock v:margins="rect(0,0,0,0)"/>
			<v:textRect cx="15.75" cy="77.8002" width="31.5" height="9"/>
			<path d="M31.5 73.3 L0 73.3 L0 82.3 L31.5 82.3 L31.5 73.3" class="st1"/>
			<text x="7.69" y="80.8" class="st2" v:langID="1033"><v:paragraph v:horizAlign="1"/><v:tabList/>A∙B</text>		</g>
		<g id="shape35-107" v:mID="35" v:groupContext="shape" transform="translate(312.75,-42.0002)">
			<title>Sheet.35</title>
			<desc>F = A∙B + B∙C</desc>
			<v:textBlock v:margins="rect(0,0,0,0)"/>
			<v:textRect cx="37.125" cy="77.8002" width="74.25" height="9"/>
			<path d="M74.25 73.3 L0 73.3 L0 82.3 L74.25 82.3 L74.25 73.3" class="st1"/>
			<text x="6.28" y="80.8" class="st2" v:langID="1033"><v:paragraph v:horizAlign="1"/><v:tabList/>F = A∙B + B∙C</text>		</g>
		<g id="shape36-111" v:mID="36" v:groupContext="shape" transform="translate(247.148,-51.0002)">
			<title>Sheet.36</title>
			<path d="M0 64.3 L0 82.3 L10.12 82.3 A10.125 9 -180 0 0 20.25 73.3 A10.125 9 -180 0 0 10.12 64.3 L0 64.3 Z" class="st3"/>
		</g>
		<g id="shape37-113" v:mID="37" v:groupContext="shape" transform="translate(272.25,-33.0002)">
			<title>Sheet.37</title>
			<path d="M0 82.3 L6.4 82.3" class="st4"/>
		</g>
		<g id="shape38-116" v:mID="38" v:groupContext="shape" transform="translate(229.5,-64.5002)">
			<title>Sheet.38</title>
			<path d="M17.65 82.3 L0 82.3" class="st4"/>
		</g>
		<g id="shape39-119" v:mID="39" v:groupContext="shape" transform="translate(240.398,-37.5002)">
			<title>Sheet.39</title>
			<path d="M0 64.25 L0 82.3" class="st4"/>
		</g>
		<g id="shape40-122" v:mID="40" v:groupContext="shape" transform="translate(247.148,-24.0002)">
			<title>Sheet.40</title>
			<path d="M0 64.3 L0 82.3 L10.12 82.3 A10.125 9 -180 0 0 20.25 73.3 A10.125 9 -180 0 0 10.12 64.3 L0 64.3 Z" class="st3"/>
		</g>
		<g id="group41-124" transform="translate(285.539,-37.5002)" v:mID="41" v:groupContext="group">
			<title>Sheet.41</title>
			<g id="shape42-125" v:mID="42" v:groupContext="shape">
				<title>Sheet.42</title>
				<path d="M2.1 73.3 L2.02 74.79 L1.85 77.48 L1.51 79.61 L1.01 81.09 L0 82.3 L8.57 82.3 L11.84 81.84 L13.27 81.37 L14.45
							 80.82 L16.04 79.8 L17.05 78.77 L18.39 76.73 L20.24 73.3" class="st5"/>
			</g>
			<g id="shape43-128" v:mID="43" v:groupContext="shape" transform="translate(0.00754234,-9.00045)">
				<title>Sheet.43</title>
				<path d="M2.1 82.3 L2.02 80.82 L1.85 78.22 L1.51 76.08 L1.01 74.6 L0 73.3 L8.57 73.3 L11.84 73.76 L13.27 74.32 L14.45
							 74.88 L16.04 75.9 L17.05 76.92 L18.39 78.96 L20.24 82.3" class="st5"/>
			</g>
		</g>
		<g id="shape44-131" v:mID="44" v:groupContext="shape" transform="translate(229.5,-55.5002)">
			<title>Sheet.44</title>
			<path d="M17.65 82.3 L0 82.3" class="st4"/>
		</g>
		<g id="shape45-134" v:mID="45" v:groupContext="shape" transform="translate(240.398,-37.5002)">
			<title>Sheet.45</title>
			<path d="M6.75 82.3 L0 82.3" class="st4"/>
		</g>
		<g id="shape46-137" v:mID="46" v:groupContext="shape" transform="translate(229.5,-28.5002)">
			<title>Sheet.46</title>
			<path d="M17.65 82.3 L0 82.3" class="st4"/>
		</g>
		<g id="shape47-140" v:mID="47" v:groupContext="shape" transform="translate(278.648,-51.0002)">
			<title>Sheet.47</title>
			<path d="M0 73.25 L0 82.3" class="st4"/>
		</g>
		<g id="shape48-143" v:mID="48" v:groupContext="shape" transform="translate(278.789,-51.0002)">
			<title>Sheet.48</title>
			<path d="M0 82.3 L3.59 82.3" class="st4"/>
		</g>
		<g id="shape49-146" v:mID="49" v:groupContext="shape" transform="translate(278.648,-33.0002)">
			<title>Sheet.49</title>
			<path d="M0 73.25 L0 82.3" class="st4"/>
		</g>
		<g id="shape50-149" v:mID="50" v:groupContext="shape" transform="translate(278.789,-42.0002)">
			<title>Sheet.50</title>
			<path d="M0 82.3 L3.59 82.3" class="st4"/>
		</g>
		<g id="shape51-152" v:mID="51" v:groupContext="shape" transform="translate(305.789,-46.5002)">
			<title>Sheet.51</title>
			<path d="M0 82.3 L8.44 82.3" class="st4"/>
		</g>
		<g id="shape52-155" v:mID="52" v:groupContext="shape" transform="translate(239.39,-54.4919)">
			<title>Circle.396</title>
			<v:userDefs>
				<v:ud v:nameU="visVersion" v:val="VT0(11):26"/>
			</v:userDefs>
			<path d="M0 81.29 A1.00825 1.00825 0 1 1 2.02 81.29 A1.00825 1.00825 0 1 1 -0 81.29 Z" class="st6"/>
		</g>
		<g id="shape53-157" v:mID="53" v:groupContext="shape" transform="translate(271.898,-60.0002)">
			<title>Sheet.53</title>
			<path d="M0 82.3 L6.75 82.3" class="st4"/>
		</g>
		<g id="shape54-160" v:mID="54" v:groupContext="shape" transform="translate(218.25,-60.0002)">
			<title>Sheet.54</title>
			<desc>A</desc>
			<v:textBlock v:margins="rect(0,0,0,0)"/>
			<v:textRect cx="4.5" cy="77.8002" width="9" height="9"/>
			<path d="M9 73.3 L0 73.3 L0 82.3 L9 82.3 L9 73.3" class="st1"/>
			<text x="1.16" y="80.8" class="st2" v:langID="1033"><v:paragraph v:horizAlign="1"/><v:tabList/>A</text>		</g>
		<g id="shape55-164" v:mID="55" v:groupContext="shape" transform="translate(218.25,-48.7502)">
			<title>Sheet.55</title>
			<desc>B</desc>
			<v:textBlock v:margins="rect(0,0,0,0)"/>
			<v:textRect cx="4.5" cy="77.8002" width="9" height="9"/>
			<path d="M9 73.3 L0 73.3 L0 82.3 L9 82.3 L9 73.3" class="st1"/>
			<text x="1.16" y="80.8" class="st2" v:langID="1033"><v:paragraph v:horizAlign="1"/><v:tabList/>B</text>		</g>
		<g id="shape56-168" v:mID="56" v:groupContext="shape" transform="translate(218.25,-22.8752)">
			<title>Sheet.56</title>
			<desc>C</desc>
			<v:textBlock v:margins="rect(0,0,0,0)"/>
			<v:textRect cx="4.5" cy="77.8002" width="9" height="9"/>
			<path d="M9 73.3 L0 73.3 L0 82.3 L9 82.3 L9 73.3" class="st1"/>
			<text x="0.89" y="80.8" class="st2" v:langID="1033"><v:paragraph v:horizAlign="1"/><v:tabList/>C</text>		</g>
		<g id="shape57-172" v:mID="57" v:groupContext="shape" transform="translate(267.398,-57.7502)">
			<title>Circle.407</title>
			<v:userDefs>
				<v:ud v:nameU="visVersion" v:val="VT0(11):26"/>
			</v:userDefs>
			<path d="M0 80.05 A2.25 2.25 0 0 1 4.5 80.05 A2.25 2.25 0 1 1 0 80.05 Z" class="st3"/>
		</g>
		<g id="shape58-174" v:mID="58" v:groupContext="shape" v:layerMember="0"
				transform="translate(250.101,140.145) rotate(-160.017)">
			<title>Line-curve connector.408</title>
			<v:userDefs>
				<v:ud v:nameU="AntiScale" v:val="VT0(1):26"/>
				<v:ud v:nameU="Scale" v:val="VT0(1):26"/>
				<v:ud v:nameU="visVersion" v:val="VT0(11):26"/>
			</v:userDefs>
			<path d="M0 82.3 L3.12 81.33 L5.92 80.79 L8.4 80.68 L8.74 80.8" class="st8"/>
		</g>
		<g id="shape59-179" v:mID="59" v:groupContext="shape" v:layerMember="0"
				transform="translate(248.976,-69.6702) rotate(-19.9831) scale(-1,1)">
			<title>Line-curve connector.409</title>
			<v:userDefs>
				<v:ud v:nameU="AntiScale" v:val="VT0(1):26"/>
				<v:ud v:nameU="Scale" v:val="VT0(1):26"/>
				<v:ud v:nameU="visVersion" v:val="VT0(11):26"/>
			</v:userDefs>
			<path d="M0 82.3 L3.12 81.33 L5.92 80.79 L8.4 80.68 L8.74 80.8" class="st8"/>
		</g>
		<g id="shape60-184" v:mID="60" v:groupContext="shape" transform="translate(282.938,-48.7502)">
			<title>Circle.410</title>
			<v:userDefs>
				<v:ud v:nameU="visVersion" v:val="VT0(11):26"/>
			</v:userDefs>
			<path d="M0 80.05 A2.25 2.25 0 0 1 4.5 80.05 A2.25 2.25 0 1 1 0 80.05 Z" class="st3"/>
		</g>
		<g id="shape61-186" v:mID="61" v:groupContext="shape" transform="translate(282.938,-39.7502)">
			<title>Circle.411</title>
			<v:userDefs>
				<v:ud v:nameU="visVersion" v:val="VT0(11):26"/>
			</v:userDefs>
			<path d="M0 80.05 A2.25 2.25 0 0 1 4.5 80.05 A2.25 2.25 0 1 1 0 80.05 Z" class="st3"/>
		</g>
		<g id="group62-188" transform="translate(19.0898,-22.3174)" v:mID="62" v:groupContext="group">
			<title>Sheet.62</title>
			<g id="shape63-189" v:mID="63" v:groupContext="shape">
				<title>Sheet.63</title>
				<path d="M0 69.93 L0 82.3 L10.3 76.05 L0 69.93 L0 69.93 Z" class="st7"/>
			</g>
			<g id="shape64-191" v:mID="64" v:groupContext="shape">
				<title>Sheet.64</title>
				<path d="M0 69.93 L0 82.3 L10.3 76.05 L0 69.93 L0 69.93" class="st5"/>
			</g>
			<g id="shape65-194" v:mID="65" v:groupContext="shape" transform="translate(10.2977,-4.71674)">
				<title>Sheet.65</title>
				<path d="M0 80.77 L0 80.52 L0.13 80.13 L0.26 79.88 L0.51 79.75 L0.64 79.5 L1.03 79.37 L1.29 79.24 L1.54 79.24 L1.93
							 79.24 L2.19 79.37 L2.45 79.5 L2.7 79.75 L2.83 79.88 L2.96 80.13 L3.09 80.52 L3.09 80.77 L3.09 80.77
							 L3.09 81.15 L2.96 81.41 L2.83 81.66 L2.7 81.92 L2.45 82.05 L2.19 82.17 L1.93 82.3 L1.54 82.3 L1.29 82.3
							 L1.03 82.17 L0.64 82.05 L0.51 81.92 L0.26 81.66 L0.13 81.41 L0 81.15 L0 80.77 L0 80.77 Z" class="st7"/>
			</g>
			<g id="shape66-196" v:mID="66" v:groupContext="shape" transform="translate(10.2977,-4.71674)">
				<title>Sheet.66</title>
				<path d="M0 80.77 L0 80.52 L0.13 80.13 L0.26 79.88 L0.51 79.75 L0.64 79.5 L1.03 79.37 L1.29 79.24 L1.54 79.24 L1.93
							 79.24 L2.19 79.37 L2.45 79.5 L2.7 79.75 L2.83 79.88 L2.96 80.13 L3.09 80.52 L3.09 80.77 L3.09 80.77
							 L3.09 81.15 L2.96 81.41 L2.83 81.66 L2.7 81.92 L2.45 82.05 L2.19 82.17 L1.93 82.3 L1.54 82.3 L1.29 82.3
							 L1.03 82.17 L0.64 82.05 L0.51 81.92 L0.26 81.66 L0.13 81.41 L0 81.15 L0 80.77" class="st5"/>
			</g>
		</g>
		<g id="shape67-199" v:mID="67" v:groupContext="shape" transform="translate(10.125,-28.5002)">
			<title>Sheet.67</title>
			<path d="M9 82.3 L0 82.3" class="st4"/>
		</g>
		<g id="shape68-202" v:mID="68" v:groupContext="shape" transform="translate(267.469,-30.7502)">
			<title>Circle.398</title>
			<v:userDefs>
				<v:ud v:nameU="visVersion" v:val="VT0(11):26"/>
			</v:userDefs>
			<path d="M0 80.05 A2.25 2.25 0 0 1 4.5 80.05 A2.25 2.25 0 1 1 0 80.05 Z" class="st3"/>
		</g>
		<g id="shape69-204" v:mID="69" v:groupContext="shape" transform="translate(25.875,-1.50018)">
			<title>Sheet.69</title>
			<desc>22 Transistors</desc>
			<v:textBlock v:margins="rect(0,0,0,0)"/>
			<v:textRect cx="37.125" cy="77.8002" width="74.25" height="9"/>
			<path d="M74.25 73.3 L0 73.3 L0 82.3 L74.25 82.3 L74.25 73.3" class="st1"/>
			<text x="5.45" y="80.8" class="st2" v:langID="1033"><v:paragraph v:horizAlign="1"/><v:tabList/>22 Transistors</text>		</g>
		<g id="shape70-208" v:mID="70" v:groupContext="shape" transform="translate(226.125,-1.50018)">
			<title>Sheet.70</title>
			<desc>12 Transistors</desc>
			<v:textBlock v:margins="rect(0,0,0,0)"/>
			<v:textRect cx="37.125" cy="77.8002" width="74.25" height="9"/>
			<path d="M74.25 73.3 L0 73.3 L0 82.3 L74.25 82.3 L74.25 73.3" class="st1"/>
			<text x="5.45" y="80.8" class="st2" v:langID="1033"><v:paragraph v:horizAlign="1"/><v:tabList/>12 Transistors</text>		</g>
		<g id="shape71-212" v:mID="71" v:groupContext="shape" transform="translate(285.188,-81.0939)">
			<title>Sheet.71</title>
			<path d="M0 82.3 L15.19 82.3" class="st10"/>
		</g>
		<g id="shape72-215" v:mID="72" v:groupContext="shape" transform="translate(284.625,-26.2502)">
			<title>Sheet.72</title>
			<path d="M0 82.3 L16.87 82.3" class="st10"/>
		</g>
	</g>
</svg>
