<?xml version="1.0" encoding="UTF-8" standalone="no"?>
<!DOCTYPE svg PUBLIC "-//W3C//DTD SVG 1.1//EN" "http://www.w3.org/Graphics/SVG/1.1/DTD/svg11.dtd">
<!-- Generated by Microsoft Visio, SVG Export circuit.svg Page-1 -->
<svg xmlns="http://www.w3.org/2000/svg" xmlns:xlink="http://www.w3.org/1999/xlink" xmlns:ev="http://www.w3.org/2001/xml-events"
		xmlns:v="http://schemas.microsoft.com/visio/2003/SVGExtensions/" width="2.42625in" height="1.66417in"
		viewBox="0 0 174.69 119.82" xml:space="preserve" color-interpolation-filters="sRGB" class="st5">
	<v:documentProperties v:langID="1033" v:viewMarkup="false">
		<v:userDefs>
			<v:ud v:nameU="msvConvertTheme"/>
		</v:userDefs>
	</v:documentProperties>

	<style type="text/css">
	<![CDATA[
		.st1 {stroke:#000000;stroke-linecap:round;stroke-linejoin:round;stroke-width:0.72}
		.st2 {fill:none;stroke:none;stroke-linecap:round;stroke-linejoin:round;stroke-width:0.72}
		.st3 {fill:#000000;font-family:Arial;font-size:0.833336em}
		.st4 {fill:#ffffff;stroke:#000000;stroke-linecap:round;stroke-linejoin:round;stroke-width:0.72}
		.st5 {fill:none;fill-rule:evenodd;font-size:12px;overflow:visible;stroke-linecap:square;stroke-miterlimit:3}
	]]>
	</style>

	<g v:mID="0" v:index="1" v:groupContext="foregroundPage">
		<title>Page-1</title>
		<v:pageProperties v:drawingScale="1" v:pageScale="1" v:drawingUnits="19" v:shadowOffsetX="9" v:shadowOffsetY="-9"/>
		<g id="shape250-1" v:mID="250" v:groupContext="shape" transform="translate(125.52,-76.2003)">
			<title>Sheet.250</title>
			<path d="M0 119.82 L15.6 119.82" class="st1"/>
		</g>
		<g id="shape252-4" v:mID="252" v:groupContext="shape" transform="translate(98.22,-48.9003)">
			<title>Sheet.252</title>
			<path d="M35.1 92.52 L35.1 100.32 L0 112.02 L0 119.82 L7.8 119.82" class="st1"/>
		</g>
		<g id="shape253-7" v:mID="253" v:groupContext="shape" transform="translate(125.52,-45.0003)">
			<title>Sheet.253</title>
			<path d="M0 119.82 L15.6 119.82" class="st1"/>
		</g>
		<g id="shape254-10" v:mID="254" v:groupContext="shape" transform="translate(98.22,-45.0003)">
			<title>Sheet.254</title>
			<path d="M35.1 119.82 L35.1 112.02 L0 100.32 L0 92.52" class="st1"/>
		</g>
		<g id="shape255-13" v:mID="255" v:groupContext="shape" transform="translate(94.32,-41.1003)">
			<title>Sheet.255</title>
			<path d="M19.5 119.82 L3.9 119.82 L0 119.82" class="st1"/>
		</g>
		<g id="shape256-16" v:mID="256" v:groupContext="shape" transform="translate(141.12,-72.3003)">
			<title>Sheet.256</title>
			<desc>Q</desc>
			<v:textBlock v:margins="rect(4,4,4,4)"/>
			<v:textRect cx="6.3375" cy="115.92" width="12.68" height="7.8"/>
			<rect x="0" y="112.02" width="12.675" height="7.8" class="st2"/>
			<text x="4" y="118.92" class="st3" v:langID="1033"><v:paragraph/><v:tabList/>Q</text>		</g>
		<g id="shape257-19" v:mID="257" v:groupContext="shape" transform="translate(142.47,-40.3503)">
			<title>Sheet.257</title>
			<desc>QN</desc>
			<v:textBlock v:margins="rect(4,4,4,4)"/>
			<v:textRect cx="15.75" cy="115.32" width="31.5" height="9"/>
			<rect x="0" y="110.82" width="31.5" height="9" class="st2"/>
			<text x="4" y="118.32" class="st3" v:langID="1033"><v:paragraph/><v:tabList/>QN</text>		</g>
		<g id="shape258-22" v:mID="258" v:groupContext="shape" transform="translate(98.22,-72.3003)">
			<title>Sheet.258</title>
			<path d="M0 119.82 L4.87 119.82" class="st1"/>
		</g>
		<g id="shape261-25" v:mID="261" v:groupContext="shape" transform="translate(132.832,-75.7128)">
			<title>Circle.261</title>
			<path d="M0 119.33 a0.4875 0.4875 0 1 1 0.975 0 a0.4875 0.4875 0 1 1 -0.975 0 Z" class="st4"/>
		</g>
		<g id="shape262-27" v:mID="262" v:groupContext="shape" transform="translate(132.832,-44.5128)">
			<title>Circle.262</title>
			<path d="M0 119.33 a0.4875 0.4875 0 1 1 0.975 0 a0.4875 0.4875 0 1 1 -0.975 0 Z" class="st4"/>
		</g>
		<g id="group247-29" transform="translate(102.12,-37.2003)" v:mID="247" v:groupContext="group">
			<title>Sheet.247</title>
			<g id="shape249-30" v:mID="249" v:groupContext="shape" transform="translate(19.5,-5.85)">
				<title>Circle.249</title>
				<path d="M0 117.87 A1.95 1.95 0 0 1 3.9 117.87 A1.95 1.95 0 0 1 0 117.87 Z" class="st4"/>
			</g>
			<g id="shape260-32" v:mID="260" v:groupContext="shape">
				<title>Sheet.260</title>
				<path d="M0 104.22 L11.92 104.22 A7.58333 7.8 0 0 1 19.5 112.02 A6.5 7.8 0 0 1 13 119.82 L0 119.82 L0 104.22 Z"
						class="st4"/>
			</g>
		</g>
		<g id="group248-34" transform="translate(102.12,-68.4003)" v:mID="248" v:groupContext="group">
			<title>Sheet.248</title>
			<g id="shape259-35" v:mID="259" v:groupContext="shape" transform="translate(19.5,-5.85)">
				<title>Circle.249</title>
				<path d="M0 117.87 A1.95 1.95 0 0 1 3.9 117.87 A1.95 1.95 0 0 1 0 117.87 Z" class="st4"/>
			</g>
			<g id="shape264-37" v:mID="264" v:groupContext="shape">
				<title>Sheet.264</title>
				<path d="M0 104.22 L11.92 104.22 A7.58333 7.8 0 0 1 19.5 112.02 A6.5 7.8 0 0 1 13 119.82 L0 119.82 L0 104.22 Z"
						class="st4"/>
			</g>
		</g>
		<g id="shape98-39" v:mID="98" v:groupContext="shape" transform="translate(80.67,-111.3)">
			<title>Sheet.98</title>
			<path d="M0 119.82 L9.75 119.82" class="st1"/>
		</g>
		<g id="shape263-42" v:mID="263" v:groupContext="shape" transform="translate(47.52,-115.2)">
			<title>Sheet.263</title>
			<path d="M11.7 119.82 L0 119.82" class="st1"/>
		</g>
		<g id="shape265-45" v:mID="265" v:groupContext="shape" transform="translate(55.32,-84.0003)">
			<title>Sheet.265</title>
			<path d="M35.1 92.52 L35.1 100.32 L0 112.02 L0 119.82 L5.85 119.82" class="st1"/>
		</g>
		<g id="shape266-48" v:mID="266" v:groupContext="shape" transform="translate(82.62,-80.1003)">
			<title>Sheet.266</title>
			<path d="M0 119.82 L19.5 119.82" class="st1"/>
		</g>
		<g id="shape267-51" v:mID="267" v:groupContext="shape" transform="translate(55.32,-80.1003)">
			<title>Sheet.267</title>
			<path d="M39 119.82 L39 112.02 L0 100.32 L0 92.52" class="st1"/>
		</g>
		<g id="shape268-54" v:mID="268" v:groupContext="shape" transform="translate(59.22,163.44) rotate(180)">
			<title>Sheet.268</title>
			<path d="M0 119.82 L19.5 119.82" class="st1"/>
		</g>
		<g id="shape269-57" v:mID="269" v:groupContext="shape" transform="translate(55.32,-107.4)">
			<title>Sheet.269</title>
			<path d="M0 119.82 L3.9 119.82" class="st1"/>
		</g>
		<g id="shape271-60" v:mID="271" v:groupContext="shape" transform="translate(93.8325,-79.6128)">
			<title>Circle.271</title>
			<path d="M0 119.33 a0.4875 0.4875 0 1 1 0.975 0 a0.4875 0.4875 0 1 1 -0.975 0 Z" class="st4"/>
		</g>
		<g id="group272-62" transform="translate(59.22,-72.3003)" v:mID="272" v:groupContext="group">
			<title>Sheet.272</title>
			<g id="shape273-63" v:mID="273" v:groupContext="shape" transform="translate(19.5,-5.85)">
				<title>Circle.249</title>
				<path d="M0 117.87 A1.95 1.95 0 0 1 3.9 117.87 A1.95 1.95 0 0 1 0 117.87 Z" class="st4"/>
			</g>
			<g id="shape274-65" v:mID="274" v:groupContext="shape">
				<title>Sheet.274</title>
				<path d="M0 104.22 L11.92 104.22 A7.58333 7.8 0 0 1 19.5 112.02 A6.5 7.8 0 0 1 13 119.82 L0 119.82 L0 104.22 Z"
						class="st4"/>
			</g>
		</g>
		<g id="group275-67" transform="translate(59.22,-103.5)" v:mID="275" v:groupContext="group">
			<title>Sheet.275</title>
			<g id="shape276-68" v:mID="276" v:groupContext="shape" transform="translate(19.5,-5.85)">
				<title>Circle.249</title>
				<path d="M0 117.87 A1.95 1.95 0 0 1 3.9 117.87 A1.95 1.95 0 0 1 0 117.87 Z" class="st4"/>
			</g>
			<g id="shape277-70" v:mID="277" v:groupContext="shape">
				<title>Sheet.277</title>
				<path d="M0 104.22 L11.92 104.22 A7.58333 7.8 0 0 1 19.5 112.02 A6.5 7.8 0 0 1 13 119.82 L0 119.82 L0 104.22 Z"
						class="st4"/>
			</g>
		</g>
		<g id="shape251-72" v:mID="251" v:groupContext="shape" transform="translate(82.62,-41.1003)">
			<title>Sheet.251</title>
			<path d="M0 119.82 L11.7 119.82" class="st1"/>
		</g>
		<g id="shape270-75" v:mID="270" v:groupContext="shape" transform="translate(60.195,202.44) rotate(180)">
			<title>Sheet.270</title>
			<path d="M0 119.82 L32.17 119.82" class="st1"/>
		</g>
		<g id="shape278-78" v:mID="278" v:groupContext="shape" transform="translate(55.32,-13.8003)">
			<title>Sheet.278</title>
			<path d="M35.1 92.52 L35.1 100.32 L0 112.02 L0 119.82 L7.8 119.82" class="st1"/>
		</g>
		<g id="shape280-81" v:mID="280" v:groupContext="shape" transform="translate(28.02,-6.00033)">
			<title>Sheet.280</title>
			<path d="M31.2 119.82 L20.8 119.82 L0 119.82" class="st1"/>
		</g>
		<g id="shape282-84" v:mID="282" v:groupContext="shape" transform="translate(89.9325,-40.6128)">
			<title>Circle.282</title>
			<path d="M0 119.33 a0.4875 0.4875 0 1 1 0.975 0 a0.4875 0.4875 0 1 1 -0.975 0 Z" class="st4"/>
		</g>
		<g id="group283-86" transform="translate(59.22,-2.10033)" v:mID="283" v:groupContext="group">
			<title>Sheet.283</title>
			<g id="shape284-87" v:mID="284" v:groupContext="shape" transform="translate(19.5,-5.85)">
				<title>Circle.249</title>
				<path d="M0 117.87 A1.95 1.95 0 0 1 3.9 117.87 A1.95 1.95 0 0 1 0 117.87 Z" class="st4"/>
			</g>
			<g id="shape285-89" v:mID="285" v:groupContext="shape">
				<title>Sheet.285</title>
				<path d="M0 104.22 L11.92 104.22 A7.58333 7.8 0 0 1 19.5 112.02 A6.5 7.8 0 0 1 13 119.82 L0 119.82 L0 104.22 Z"
						class="st4"/>
			</g>
		</g>
		<g id="group286-91" transform="translate(59.22,-33.3003)" v:mID="286" v:groupContext="group">
			<title>Sheet.286</title>
			<g id="shape287-92" v:mID="287" v:groupContext="shape" transform="translate(19.5,-5.85)">
				<title>Circle.249</title>
				<path d="M0 117.87 A1.95 1.95 0 0 1 3.9 117.87 A1.95 1.95 0 0 1 0 117.87 Z" class="st4"/>
			</g>
			<g id="shape288-94" v:mID="288" v:groupContext="shape">
				<title>Sheet.288</title>
				<path d="M0 104.22 L11.92 104.22 A7.58333 7.8 0 0 1 19.5 112.02 A6.5 7.8 0 0 1 13 119.82 L0 119.82 L0 104.22 Z"
						class="st4"/>
			</g>
		</g>
		<g id="shape279-96" v:mID="279" v:groupContext="shape" transform="translate(82.62,-9.90033)">
			<title>Sheet.279</title>
			<path d="M0 119.82 L7.8 119.82" class="st1"/>
		</g>
		<g id="shape281-99" v:mID="281" v:groupContext="shape" transform="translate(-80.1003,82.62) rotate(-90)">
			<title>Sheet.281</title>
			<path d="M0 119.82 L39 119.82" class="st1"/>
		</g>
		<g id="shape289-102" v:mID="289" v:groupContext="shape" transform="translate(39.2325,-36.7128)">
			<title>Circle.289</title>
			<path d="M0 119.33 a0.4875 0.4875 0 1 1 0.975 0 a0.4875 0.4875 0 1 1 -0.975 0 Z" class="st4"/>
		</g>
		<g id="shape290-104" v:mID="290" v:groupContext="shape" transform="translate(47.52,-9.90033)">
			<title>Sheet.290</title>
			<path d="M42.9 119.82 L42.9 112.02 L0 100.32 L0 14.52" class="st1"/>
		</g>
		<g id="shape291-107" v:mID="291" v:groupContext="shape" transform="translate(0.72,-33.3003)">
			<title>Sheet.291</title>
			<desc>CLK</desc>
			<v:textBlock v:margins="rect(4,4,4,4)"/>
			<v:textRect cx="14.1375" cy="115.92" width="28.28" height="7.8"/>
			<rect x="0" y="112.02" width="28.275" height="7.8" class="st2"/>
			<text x="4.82" y="118.92" class="st3" v:langID="1033"><v:paragraph v:horizAlign="2"/><v:tabList/>CLK</text>		</g>
		<g id="shape292-110" v:mID="292" v:groupContext="shape" transform="translate(16.32,-2.10033)">
			<title>Sheet.292</title>
			<desc>D</desc>
			<v:textBlock v:margins="rect(4,4,4,4)"/>
			<v:textRect cx="6.3375" cy="115.92" width="12.68" height="7.8"/>
			<rect x="0" y="112.02" width="12.675" height="7.8" class="st2"/>
			<text x="4" y="118.92" class="st3" v:langID="1033"><v:paragraph v:horizAlign="2"/><v:tabList/>D</text>		</g>
		<g id="shape320-113" v:mID="320" v:groupContext="shape" transform="translate(55.32,-45.0003)">
			<title>Sheet.320</title>
			<path d="M35.1 84.72 L35.1 88.62 L0 112.02 L0 119.82 L3.9 119.82" class="st1"/>
		</g>
		<g id="shape321-116" v:mID="321" v:groupContext="shape" transform="translate(89.9325,-79.6128)">
			<title>Circle.321</title>
			<path d="M0 119.33 a0.4875 0.4875 0 1 1 0.975 0 a0.4875 0.4875 0 1 1 -0.975 0 Z" class="st4"/>
		</g>
	</g>
</svg>
