<?xml version="1.0" encoding="UTF-8" standalone="no"?>
<!DOCTYPE svg PUBLIC "-//W3C//DTD SVG 1.1//EN" "http://www.w3.org/Graphics/SVG/1.1/DTD/svg11.dtd">
<!-- Generated by Microsoft Visio, SVG Export Comp_BitFlow.svg Page-1 -->
<svg xmlns="http://www.w3.org/2000/svg" xmlns:xlink="http://www.w3.org/1999/xlink" xmlns:ev="http://www.w3.org/2001/xml-events"
		xmlns:v="http://schemas.microsoft.com/visio/2003/SVGExtensions/" width="3.01in" height="0.975278in"
		viewBox="0 0 216.72 70.22" xml:space="preserve" color-interpolation-filters="sRGB" class="st10">
	<v:documentProperties v:langID="1033" v:viewMarkup="false"/>

	<style type="text/css">
	<![CDATA[
		.st1 {fill:#ffffff;stroke:#000000;stroke-dasharray:0,1.2;stroke-linecap:round;stroke-linejoin:round;stroke-width:0.24}
		.st2 {fill:none;stroke:none;stroke-linecap:round;stroke-linejoin:round;stroke-width:0.72}
		.st3 {fill:#000000;font-family:Times New Roman;font-size:1.00001em}
		.st4 {fill:#000000;font-family:Calibri;font-size:1.00001em}
		.st5 {marker-end:url(#mrkr4-14);stroke:#000000;stroke-linecap:round;stroke-linejoin:round;stroke-width:0.24}
		.st6 {fill:#000000;fill-opacity:1;stroke:#000000;stroke-opacity:1;stroke-width:0.08695652173913}
		.st7 {fill:#000000;font-family:Times New Roman;font-size:0.666664em;font-weight:bold}
		.st8 {marker-end:url(#mrkr4-34);stroke:#000000;stroke-linecap:round;stroke-linejoin:round;stroke-width:0.24}
		.st9 {fill:#000000;fill-opacity:1;stroke:#000000;stroke-opacity:1;stroke-width:0.14285714285714}
		.st10 {fill:none;fill-rule:evenodd;font-size:12px;overflow:visible;stroke-linecap:square;stroke-miterlimit:3}
	]]>
	</style>

	<defs id="Markers">
		<g id="lend4">
			<path d="M 2 1 L 0 0 L 2 -1 L 2 1 " style="stroke:none"/>
		</g>
		<marker id="mrkr4-14" class="st6" v:arrowType="4" v:arrowSize="2" v:setback="23" refX="-23" orient="auto"
				markerUnits="strokeWidth" overflow="visible">
			<use xlink:href="#lend4" transform="scale(-11.5,-11.5) "/>
		</marker>
		<marker id="mrkr4-34" class="st9" v:arrowType="4" v:arrowSize="0" v:setback="14" refX="-14" orient="auto"
				markerUnits="strokeWidth" overflow="visible">
			<use xlink:href="#lend4" transform="scale(-7,-7) "/>
		</marker>
	</defs>
	<g v:mID="0" v:index="1" v:groupContext="foregroundPage">
		<title>Page-1</title>
		<v:pageProperties v:drawingScale="1" v:pageScale="1" v:drawingUnits="19" v:shadowOffsetX="9" v:shadowOffsetY="-9"/>
		<g id="shape1-1" v:mID="1" v:groupContext="shape" transform="translate(157.86,-2.36)">
			<title>Rectangle.72</title>
			<path d="M0 70.22 L18 70.22 L18 25.22 L0 25.22 L0 70.22 Z" class="st1"/>
		</g>
		<g id="shape2-3" v:mID="2" v:groupContext="shape" transform="translate(0.36,-27.36)">
			<title>Sheet.2</title>
			<desc>A[7:0]</desc>
			<v:textBlock v:margins="rect(4,4,4,4)"/>
			<v:textRect cx="20.25" cy="60.22" width="40.5" height="20"/>
			<rect x="0" y="50.22" width="40.5" height="20" class="st2"/>
			<text x="4.51" y="63.82" class="st3" v:langID="1033"><v:paragraph v:horizAlign="2"/><v:tabList/>A[7:0]</text>		</g>
		<g id="shape3-6" v:mID="3" v:groupContext="shape" transform="translate(67.86,-29.36)">
			<title>Sheet.3</title>
			<desc>1</desc>
			<v:textBlock v:margins="rect(4,4,4,4)"/>
			<v:textRect cx="9" cy="61.22" width="18" height="18"/>
			<rect x="0" y="52.22" width="18" height="18" class="st2"/>
			<text x="7.92" y="64.82" class="st4" v:langID="1033"><v:paragraph v:horizAlign="2"/><v:tabList/>1</text>		</g>
		<g id="shape4-9" v:mID="4" v:groupContext="shape" transform="translate(45.36,-38.36)">
			<title>Sheet.4</title>
			<path d="M0 70.22 L12.48 70.22" class="st5"/>
		</g>
		<g id="shape5-15" v:mID="5" v:groupContext="shape" transform="translate(45.36,-11.36)">
			<title>Sheet.5</title>
			<path d="M0 70.22 L12.48 70.22" class="st5"/>
		</g>
		<g id="shape6-20" v:mID="6" v:groupContext="shape" transform="translate(64.485,-51.86)">
			<title>Sheet.6</title>
			<desc>bit 7</desc>
			<v:textBlock v:margins="rect(4,4,4,4)"/>
			<v:textRect cx="12.375" cy="61.22" width="24.75" height="18"/>
			<rect x="0" y="52.22" width="24.75" height="18" class="st2"/>
			<text x="4.71" y="63.62" class="st7" v:langID="1033"><v:paragraph v:horizAlign="1"/><v:tabList/>bit 7</text>		</g>
		<g id="shape7-23" v:mID="7" v:groupContext="shape" transform="translate(189.36,-51.86)">
			<title>Sheet.7</title>
			<desc>bit 0</desc>
			<v:textBlock v:margins="rect(4,4,4,4)"/>
			<v:textRect cx="13.5" cy="61.22" width="27" height="18"/>
			<rect x="0" y="52.22" width="27" height="18" class="st2"/>
			<text x="5.83" y="63.62" class="st7" v:langID="1033"><v:paragraph v:horizAlign="1"/><v:tabList/>bit 0</text>		</g>
		<g id="shape8-26" v:mID="8" v:groupContext="shape" transform="translate(153.36,-51.86)">
			<title>Sheet.8</title>
			<desc>bit 2</desc>
			<v:textBlock v:margins="rect(4,4,4,4)"/>
			<v:textRect cx="13.5" cy="61.22" width="27" height="18"/>
			<rect x="0" y="52.22" width="27" height="18" class="st2"/>
			<text x="5.83" y="63.62" class="st7" v:langID="1033"><v:paragraph v:horizAlign="1"/><v:tabList/>bit 2</text>		</g>
		<g id="shape9-29" v:mID="9" v:groupContext="shape" transform="translate(147.08,13.86) rotate(90)">
			<title>Sheet.9</title>
			<path d="M0 70.22 L5.64 70.22" class="st8"/>
		</g>
		<g id="shape10-35" v:mID="10" v:groupContext="shape" transform="translate(237.08,16.11) rotate(90)">
			<title>Sheet.10</title>
			<path d="M0 70.22 L5.64 70.22" class="st8"/>
		</g>
		<g id="shape11-40" v:mID="11" v:groupContext="shape" transform="translate(273.08,16.11) rotate(90)">
			<title>Sheet.11</title>
			<path d="M0 70.22 L5.64 70.22" class="st8"/>
		</g>
		<g id="shape12-45" v:mID="12" v:groupContext="shape" transform="translate(85.86,-29.36)">
			<title>Sheet.12</title>
			<desc>0</desc>
			<v:textBlock v:margins="rect(4,4,4,4)"/>
			<v:textRect cx="9" cy="61.22" width="18" height="18"/>
			<rect x="0" y="52.22" width="18" height="18" class="st2"/>
			<text x="7.92" y="64.82" class="st4" v:langID="1033"><v:paragraph v:horizAlign="2"/><v:tabList/>0</text>		</g>
		<g id="shape13-48" v:mID="13" v:groupContext="shape" transform="translate(121.86,-29.36)">
			<title>Sheet.13</title>
			<desc>1</desc>
			<v:textBlock v:margins="rect(4,4,4,4)"/>
			<v:textRect cx="9" cy="61.22" width="18" height="18"/>
			<rect x="0" y="52.22" width="18" height="18" class="st2"/>
			<text x="7.92" y="64.82" class="st4" v:langID="1033"><v:paragraph v:horizAlign="2"/><v:tabList/>1</text>		</g>
		<g id="shape14-51" v:mID="14" v:groupContext="shape" transform="translate(139.86,-29.36)">
			<title>Sheet.14</title>
			<desc>1</desc>
			<v:textBlock v:margins="rect(4,4,4,4)"/>
			<v:textRect cx="9" cy="61.22" width="18" height="18"/>
			<rect x="0" y="52.22" width="18" height="18" class="st2"/>
			<text x="7.92" y="64.82" class="st4" v:langID="1033"><v:paragraph v:horizAlign="2"/><v:tabList/>1</text>		</g>
		<g id="shape15-54" v:mID="15" v:groupContext="shape" transform="translate(157.86,-29.36)">
			<title>Sheet.15</title>
			<desc>1</desc>
			<v:textBlock v:margins="rect(4,4,4,4)"/>
			<v:textRect cx="9" cy="61.22" width="18" height="18"/>
			<rect x="0" y="52.22" width="18" height="18" class="st2"/>
			<text x="7.92" y="64.82" class="st4" v:langID="1033"><v:paragraph v:horizAlign="2"/><v:tabList/>1</text>		</g>
		<g id="shape16-57" v:mID="16" v:groupContext="shape" transform="translate(175.86,-29.36)">
			<title>Sheet.16</title>
			<desc>1</desc>
			<v:textBlock v:margins="rect(4,4,4,4)"/>
			<v:textRect cx="9" cy="61.22" width="18" height="18"/>
			<rect x="0" y="52.22" width="18" height="18" class="st2"/>
			<text x="7.92" y="64.82" class="st4" v:langID="1033"><v:paragraph v:horizAlign="2"/><v:tabList/>1</text>		</g>
		<g id="shape17-60" v:mID="17" v:groupContext="shape" transform="translate(193.86,-29.36)">
			<title>Sheet.17</title>
			<desc>1</desc>
			<v:textBlock v:margins="rect(4,4,4,4)"/>
			<v:textRect cx="9" cy="61.22" width="18" height="18"/>
			<rect x="0" y="52.22" width="18" height="18" class="st2"/>
			<text x="7.92" y="64.82" class="st4" v:langID="1033"><v:paragraph v:horizAlign="2"/><v:tabList/>1</text>		</g>
		<g id="shape18-63" v:mID="18" v:groupContext="shape" transform="translate(67.86,-2.36)">
			<title>Sheet.18</title>
			<desc>1</desc>
			<v:textBlock v:margins="rect(4,4,4,4)"/>
			<v:textRect cx="9" cy="61.22" width="18" height="18"/>
			<rect x="0" y="52.22" width="18" height="18" class="st2"/>
			<text x="7.92" y="64.82" class="st4" v:langID="1033"><v:paragraph v:horizAlign="2"/><v:tabList/>1</text>		</g>
		<g id="shape19-66" v:mID="19" v:groupContext="shape" transform="translate(85.86,-2.36)">
			<title>Sheet.19</title>
			<desc>0</desc>
			<v:textBlock v:margins="rect(4,4,4,4)"/>
			<v:textRect cx="9" cy="61.22" width="18" height="18"/>
			<rect x="0" y="52.22" width="18" height="18" class="st2"/>
			<text x="7.92" y="64.82" class="st4" v:langID="1033"><v:paragraph v:horizAlign="2"/><v:tabList/>0</text>		</g>
		<g id="shape20-69" v:mID="20" v:groupContext="shape" transform="translate(121.86,-2.36)">
			<title>Sheet.20</title>
			<desc>1</desc>
			<v:textBlock v:margins="rect(4,4,4,4)"/>
			<v:textRect cx="9" cy="61.22" width="18" height="18"/>
			<rect x="0" y="52.22" width="18" height="18" class="st2"/>
			<text x="7.92" y="64.82" class="st4" v:langID="1033"><v:paragraph v:horizAlign="2"/><v:tabList/>1</text>		</g>
		<g id="shape21-72" v:mID="21" v:groupContext="shape" transform="translate(139.86,-2.36)">
			<title>Sheet.21</title>
			<desc>1</desc>
			<v:textBlock v:margins="rect(4,4,4,4)"/>
			<v:textRect cx="9" cy="61.22" width="18" height="18"/>
			<rect x="0" y="52.22" width="18" height="18" class="st2"/>
			<text x="7.92" y="64.82" class="st4" v:langID="1033"><v:paragraph v:horizAlign="2"/><v:tabList/>1</text>		</g>
		<g id="shape22-75" v:mID="22" v:groupContext="shape" transform="translate(157.86,-2.36)">
			<title>Sheet.22</title>
			<desc>0</desc>
			<v:textBlock v:margins="rect(4,4,4,4)"/>
			<v:textRect cx="9" cy="61.22" width="18" height="18"/>
			<rect x="0" y="52.22" width="18" height="18" class="st2"/>
			<text x="7.92" y="64.82" class="st4" v:langID="1033"><v:paragraph v:horizAlign="2"/><v:tabList/>0</text>		</g>
		<g id="shape23-78" v:mID="23" v:groupContext="shape" transform="translate(175.86,-2.36)">
			<title>Sheet.23</title>
			<desc>1</desc>
			<v:textBlock v:margins="rect(4,4,4,4)"/>
			<v:textRect cx="9" cy="61.22" width="18" height="18"/>
			<rect x="0" y="52.22" width="18" height="18" class="st2"/>
			<text x="7.92" y="64.82" class="st4" v:langID="1033"><v:paragraph v:horizAlign="2"/><v:tabList/>1</text>		</g>
		<g id="shape24-81" v:mID="24" v:groupContext="shape" transform="translate(193.86,-2.36)">
			<title>Sheet.24</title>
			<desc>1</desc>
			<v:textBlock v:margins="rect(4,4,4,4)"/>
			<v:textRect cx="9" cy="61.22" width="18" height="18"/>
			<rect x="0" y="52.22" width="18" height="18" class="st2"/>
			<text x="7.92" y="64.82" class="st4" v:langID="1033"><v:paragraph v:horizAlign="2"/><v:tabList/>1</text>		</g>
		<g id="shape25-84" v:mID="25" v:groupContext="shape" transform="translate(0.36,-0.36)">
			<title>Sheet.25</title>
			<desc>B[7:0]</desc>
			<v:textBlock v:margins="rect(4,4,4,4)"/>
			<v:textRect cx="20.25" cy="60.22" width="40.5" height="20"/>
			<rect x="0" y="50.22" width="40.5" height="20" class="st2"/>
			<text x="5.17" y="63.82" class="st3" v:langID="1033"><v:paragraph v:horizAlign="2"/><v:tabList/>B[7:0]</text>		</g>
		<g id="shape26-87" v:mID="26" v:groupContext="shape" transform="translate(103.86,-2.36)">
			<title>Sheet.26</title>
			<desc>0</desc>
			<v:textBlock v:margins="rect(4,4,4,4)"/>
			<v:textRect cx="9" cy="61.22" width="18" height="18"/>
			<rect x="0" y="52.22" width="18" height="18" class="st2"/>
			<text x="7.92" y="64.82" class="st4" v:langID="1033"><v:paragraph v:horizAlign="2"/><v:tabList/>0</text>		</g>
		<g id="shape27-90" v:mID="27" v:groupContext="shape" transform="translate(103.86,-29.36)">
			<title>Sheet.27</title>
			<desc>0</desc>
			<v:textBlock v:margins="rect(4,4,4,4)"/>
			<v:textRect cx="9" cy="61.22" width="18" height="18"/>
			<rect x="0" y="52.22" width="18" height="18" class="st2"/>
			<text x="7.92" y="64.82" class="st4" v:langID="1033"><v:paragraph v:horizAlign="2"/><v:tabList/>0</text>		</g>
	</g>
</svg>
