<?xml version="1.0" encoding="UTF-8" standalone="no"?>
<!DOCTYPE svg PUBLIC "-//W3C//DTD SVG 1.1//EN" "http://www.w3.org/Graphics/SVG/1.1/DTD/svg11.dtd">
<!-- Generated by Microsoft Visio, SVG Export TransSys.svg Page-1 -->
<svg xmlns="http://www.w3.org/2000/svg" xmlns:xlink="http://www.w3.org/1999/xlink" xmlns:ev="http://www.w3.org/2001/xml-events"
		xmlns:v="http://schemas.microsoft.com/visio/2003/SVGExtensions/" width="6.26409in" height="2.63542in"
		viewBox="0 0 451.014 189.75" xml:space="preserve" color-interpolation-filters="sRGB" class="st19">
	<v:documentProperties v:langID="1033" v:viewMarkup="false"/>

	<style type="text/css">
	<![CDATA[
		.st1 {fill:none;stroke:#000000;stroke-linecap:round;stroke-linejoin:round;stroke-width:0.75}
		.st2 {fill:none;stroke:#000000;stroke-linecap:round;stroke-linejoin:round;stroke-width:0.72}
		.st3 {stroke:#000000;stroke-linecap:round;stroke-linejoin:round;stroke-width:0.72}
		.st4 {fill:#000000;font-family:Arial;font-size:0.833336em;font-style:italic}
		.st5 {fill:#000000;font-family:Arial;font-size:0.666664em}
		.st6 {stroke:#000000;stroke-linecap:round;stroke-linejoin:round;stroke-width:0.74268}
		.st7 {stroke:none;stroke-linecap:round;stroke-linejoin:round;stroke-width:0.75}
		.st8 {fill:#000000;stroke:#000000;stroke-linecap:round;stroke-linejoin:round;stroke-width:0.24}
		.st9 {stroke:#000000;stroke-linecap:round;stroke-linejoin:round;stroke-width:0.75}
		.st10 {fill:none;stroke:none;stroke-linecap:round;stroke-linejoin:round;stroke-width:0.75}
		.st11 {fill:#000000;font-family:Calibri;font-size:1.00001em}
		.st12 {fill:#7030a0;font-family:Calibri;font-size:1.00001em}
		.st13 {fill:#00b050;font-family:Arial;font-size:0.833336em;font-style:italic;font-weight:bold}
		.st14 {fill:#ffffff;stroke:#ff0000;stroke-linecap:round;stroke-linejoin:round;stroke-width:0.75}
		.st15 {stroke:#00b0f0;stroke-linecap:round;stroke-linejoin:round;stroke-width:0.74268}
		.st16 {fill:#00b050;font-family:Calibri;font-size:1.00001em;font-style:italic;font-weight:bold}
		.st17 {fill:#4bacc6;font-family:Calibri;font-size:1.00001em}
		.st18 {fill:#ff0000;font-family:Calibri;font-size:1.00001em}
		.st19 {fill:none;fill-rule:evenodd;font-size:12px;overflow:visible;stroke-linecap:square;stroke-miterlimit:3}
	]]>
	</style>

	<g v:mID="0" v:index="1" v:groupContext="foregroundPage">
		<title>Page-1</title>
		<v:pageProperties v:drawingScale="1" v:pageScale="1" v:drawingUnits="19" v:shadowOffsetX="9" v:shadowOffsetY="-9"/>
		<g id="shape1-1" v:mID="1" v:groupContext="shape" transform="translate(9.375,-0.375)">
			<title>Sheet.1</title>
			<rect x="0" y="0.750001" width="423" height="189" class="st1"/>
		</g>
		<g id="shape2-3" v:mID="2" v:groupContext="shape" transform="translate(117.107,-56.6594)">
			<title>Sheet.2</title>
			<path d="M27 106.17 L27 174.31 L0 189.75 L0 90.75 L27 106.17 Z" class="st2"/>
		</g>
		<g id="shape3-5" v:mID="3" v:groupContext="shape" transform="translate(117.107,237.341) rotate(180)">
			<title>Sheet.3</title>
			<path d="M0 189.75 L116.73 189.75" class="st3"/>
		</g>
		<g id="shape4-8" v:mID="4" v:groupContext="shape" transform="translate(83.3571,-47.6594)">
			<title>Sheet.4</title>
			<path d="M42.75 176.25 L42.75 189.75 L0 189.75" class="st3"/>
		</g>
		<g id="shape5-11" v:mID="5" v:groupContext="shape" transform="translate(83.3571,-34.1594)">
			<title>Sheet.5</title>
			<path d="M51.75 157.11 L51.75 189.75 L0 189.75" class="st3"/>
		</g>
		<g id="shape6-14" v:mID="6" v:groupContext="shape" transform="translate(144.107,-106.159)">
			<title>Sheet.6</title>
			<path d="M108.27 189.75 L21.14 189.75 L0 189.75" class="st3"/>
		</g>
		<g id="shape7-17" v:mID="7" v:groupContext="shape" transform="translate(108.375,-139.875)">
			<title>Sheet.7</title>
			<desc>I3</desc>
			<v:textBlock v:margins="rect(0,0,0,0)"/>
			<v:textRect cx="9" cy="186.375" width="18" height="6.75"/>
			<text x="9.66" y="189.38" class="st4" v:langID="1033"><v:paragraph v:horizAlign="2"/><v:tabList/>I3</text>		</g>
		<g id="shape8-19" v:mID="8" v:groupContext="shape" transform="translate(126.375,-67.875)">
			<title>Sheet.8</title>
			<desc>S0</desc>
			<v:textBlock v:margins="rect(0,0,0,0)"/>
			<v:textRect cx="7.875" cy="186.375" width="15.75" height="6.75"/>
			<text x="2.98" y="188.77" class="st5" v:langID="1033"><v:paragraph v:horizAlign="1"/><v:tabList/>S0</text>		</g>
		<g id="shape9-21" v:mID="9" v:groupContext="shape" transform="translate(117.375,-63.375)">
			<title>Sheet.9</title>
			<desc>S1</desc>
			<v:textBlock v:margins="rect(0,0,0,0)"/>
			<v:textRect cx="7.875" cy="186.375" width="15.75" height="6.75"/>
			<text x="2.98" y="188.77" class="st5" v:langID="1033"><v:paragraph v:horizAlign="1"/><v:tabList/>S1</text>		</g>
		<g id="shape10-23" v:mID="10" v:groupContext="shape" transform="translate(117.107,259.841) rotate(180)">
			<title>Sheet.10</title>
			<path d="M0 189.75 L116.73 189.75" class="st3"/>
		</g>
		<g id="shape11-26" v:mID="11" v:groupContext="shape" transform="translate(108.375,-117.375)">
			<title>Sheet.11</title>
			<desc>I2</desc>
			<v:textBlock v:margins="rect(0,0,0,0)"/>
			<v:textRect cx="9" cy="186.375" width="18" height="6.75"/>
			<text x="9.66" y="189.38" class="st4" v:langID="1033"><v:paragraph v:horizAlign="2"/><v:tabList/>I2</text>		</g>
		<g id="shape12-28" v:mID="12" v:groupContext="shape" transform="translate(117.107,282.341) rotate(180)">
			<title>Sheet.12</title>
			<path d="M0 189.75 L116.73 189.75" class="st3"/>
		</g>
		<g id="shape13-31" v:mID="13" v:groupContext="shape" transform="translate(108.375,-94.875)">
			<title>Sheet.13</title>
			<desc>I1</desc>
			<v:textBlock v:margins="rect(0,0,0,0)"/>
			<v:textRect cx="9" cy="186.375" width="18" height="6.75"/>
			<text x="9.66" y="189.38" class="st4" v:langID="1033"><v:paragraph v:horizAlign="2"/><v:tabList/>I1</text>		</g>
		<g id="shape14-33" v:mID="14" v:groupContext="shape" transform="translate(117.107,304.841) rotate(180)">
			<title>Sheet.14</title>
			<path d="M0 189.75 L116.73 189.75" class="st3"/>
		</g>
		<g id="shape15-36" v:mID="15" v:groupContext="shape" transform="translate(108.375,-72.375)">
			<title>Sheet.15</title>
			<desc>I0</desc>
			<v:textBlock v:margins="rect(0,0,0,0)"/>
			<v:textRect cx="9" cy="186.375" width="18" height="6.75"/>
			<text x="9.66" y="189.38" class="st4" v:langID="1033"><v:paragraph v:horizAlign="2"/><v:tabList/>I0</text>		</g>
		<g id="shape16-38" v:mID="16" v:groupContext="shape" transform="translate(288.107,-61.1594)">
			<title>Sheet.16</title>
			<path d="M0 189.75 L42.75 189.75 L42.75 99.75 L0 99.75 L0 189.75 L0 189.75" class="st6"/>
		</g>
		<g id="shape17-41" v:mID="17" v:groupContext="shape" transform="translate(252.107,-133.159)">
			<title>Sheet.17</title>
			<path d="M36 189.75 L0 189.75" class="st6"/>
		</g>
		<g id="shape18-44" v:mID="18" v:groupContext="shape" transform="translate(290.357,-101.659)">
			<title>Sheet.18</title>
			<desc>I1</desc>
			<v:textBlock v:margins="rect(0,0,0,0)"/>
			<v:textRect cx="9" cy="185.25" width="18" height="9"/>
			<path d="M18 180.75 L0 180.75 L0 189.75 L18 189.75 L18 180.75" class="st7"/>
			<text x="0" y="188.25" class="st4" v:langID="1033"><v:paragraph/><v:tabList/>I1</text>		</g>
		<g id="shape19-48" v:mID="19" v:groupContext="shape" transform="translate(290.357,-88.1594)">
			<title>Sheet.19</title>
			<desc>I0</desc>
			<v:textBlock v:margins="rect(0,0,0,0)"/>
			<v:textRect cx="9" cy="185.25" width="18" height="9"/>
			<path d="M18 180.75 L0 180.75 L0 189.75 L18 189.75 L18 180.75" class="st7"/>
			<text x="0" y="188.25" class="st4" v:langID="1033"><v:paragraph/><v:tabList/>I0</text>		</g>
		<g id="shape20-52" v:mID="20" v:groupContext="shape" transform="translate(310.607,-137.659)">
			<title>Sheet.20</title>
			<desc>Y3</desc>
			<v:textBlock v:margins="rect(0,0,0,0)"/>
			<v:textRect cx="9" cy="185.25" width="18" height="9"/>
			<path d="M18 180.75 L0 180.75 L0 189.75 L18 189.75 L18 180.75" class="st7"/>
			<text x="5.77" y="188.25" class="st4" v:langID="1033"><v:paragraph v:horizAlign="2"/><v:tabList/>Y3</text>		</g>
		<g id="shape21-56" v:mID="21" v:groupContext="shape" transform="translate(310.607,-115.159)">
			<title>Sheet.21</title>
			<desc>Y2</desc>
			<v:textBlock v:margins="rect(0,0,0,0)"/>
			<v:textRect cx="9" cy="185.25" width="18" height="9"/>
			<path d="M18 180.75 L0 180.75 L0 189.75 L18 189.75 L18 180.75" class="st7"/>
			<text x="5.77" y="188.25" class="st4" v:langID="1033"><v:paragraph v:horizAlign="2"/><v:tabList/>Y2</text>		</g>
		<g id="shape22-60" v:mID="22" v:groupContext="shape" transform="translate(265.875,-106.159)">
			<title>Sheet.22</title>
			<path d="M22.23 189.75 L0 189.75" class="st6"/>
		</g>
		<g id="shape23-63" v:mID="23" v:groupContext="shape" transform="translate(330.857,-97.1594)">
			<title>Sheet.23</title>
			<path d="M38.52 189.75 L0 189.75" class="st6"/>
		</g>
		<g id="shape24-66" v:mID="24" v:groupContext="shape" transform="translate(330.857,-142.159)">
			<title>Sheet.24</title>
			<path d="M38.52 189.75 L0 189.75" class="st6"/>
		</g>
		<g id="shape25-69" v:mID="25" v:groupContext="shape" transform="translate(330.857,-119.659)">
			<title>Sheet.25</title>
			<path d="M38.52 189.75 L0 189.75" class="st6"/>
		</g>
		<g id="shape26-72" v:mID="26" v:groupContext="shape" transform="translate(290.357,-128.681)">
			<title>Sheet.26</title>
			<desc>EN</desc>
			<v:textBlock v:margins="rect(0,0,0,0)"/>
			<v:textRect cx="9" cy="185.25" width="18" height="9"/>
			<path d="M18 180.75 L0 180.75 L0 189.75 L18 189.75 L18 180.75" class="st7"/>
			<text x="0" y="188.25" class="st4" v:langID="1033"><v:paragraph/><v:tabList/>EN</text>		</g>
		<g id="shape27-76" v:mID="27" v:groupContext="shape" transform="translate(310.875,-92.625)">
			<title>Sheet.27</title>
			<desc>Y1</desc>
			<v:textBlock v:margins="rect(0,0,0,0)"/>
			<v:textRect cx="9" cy="185.25" width="18" height="9"/>
			<path d="M18 180.75 L0 180.75 L0 189.75 L18 189.75 L18 180.75" class="st7"/>
			<text x="5.77" y="188.25" class="st4" v:langID="1033"><v:paragraph v:horizAlign="2"/><v:tabList/>Y1</text>		</g>
		<g id="shape28-80" v:mID="28" v:groupContext="shape" transform="translate(330.857,-74.6594)">
			<title>Sheet.28</title>
			<path d="M38.52 189.75 L0 189.75" class="st6"/>
		</g>
		<g id="shape29-83" v:mID="29" v:groupContext="shape" transform="translate(310.875,-70.125)">
			<title>Sheet.29</title>
			<desc>Y0</desc>
			<v:textBlock v:margins="rect(0,0,0,0)"/>
			<v:textRect cx="9" cy="185.25" width="18" height="9"/>
			<path d="M18 180.75 L0 180.75 L0 189.75 L18 189.75 L18 180.75" class="st7"/>
			<text x="5.77" y="188.25" class="st4" v:langID="1033"><v:paragraph v:horizAlign="2"/><v:tabList/>Y0</text>		</g>
		<g id="shape30-87" v:mID="30" v:groupContext="shape" transform="translate(150.857,331.841) rotate(180)">
			<title>Sheet.30</title>
			<path d="M0 189.75 L24.75 189.75" class="st3"/>
		</g>
		<g id="shape31-90" v:mID="31" v:groupContext="shape" transform="translate(157.607,345.341) rotate(180)">
			<title>Sheet.31</title>
			<path d="M0 189.75 L22.5 189.75" class="st3"/>
		</g>
		<g id="shape32-93" v:mID="32" v:groupContext="shape" transform="translate(340.871,100.565) rotate(90.3593)">
			<title>Sheet.32</title>
			<path d="M0 189.75 L42.72 189.75" class="st3"/>
		</g>
		<g id="shape33-96" v:mID="33" v:groupContext="shape" transform="translate(347.357,117.375) rotate(90)">
			<title>Sheet.33</title>
			<path d="M0 189.75 L38.22 189.75" class="st3"/>
		</g>
		<g id="shape34-99" v:mID="34" v:groupContext="shape" transform="translate(166.875,289.125) rotate(180)">
			<title>Sheet.34</title>
			<path d="M0 189.75 L15.75 189.75" class="st3"/>
		</g>
		<g id="shape35-102" v:mID="35" v:groupContext="shape" transform="translate(167.17,307.125) rotate(180)">
			<title>Sheet.35</title>
			<path d="M0 189.75 L9.56 189.75" class="st3"/>
		</g>
		<g id="shape36-105" v:mID="36" v:groupContext="shape" transform="translate(134.263,-33.3156)">
			<title>Circle.12</title>
			<v:userDefs>
				<v:ud v:nameU="visVersion" v:val="VT0(11):26"/>
			</v:userDefs>
			<path d="M0 188.91 a0.84375 0.84375 0 0 1 1.6875 0 a0.84375 0.84375 0 1 1 -1.6875 0 Z" class="st8"/>
		</g>
		<g id="shape37-107" v:mID="37" v:groupContext="shape" transform="translate(125.263,-46.8156)">
			<title>Circle.40</title>
			<v:userDefs>
				<v:ud v:nameU="visVersion" v:val="VT0(11):26"/>
			</v:userDefs>
			<path d="M0 188.91 a0.84375 0.84375 0 0 1 1.6875 0 a0.84375 0.84375 0 1 1 -1.6875 0 Z" class="st8"/>
		</g>
		<g id="shape38-109" v:mID="38" v:groupContext="shape" transform="translate(276.857,-92.6594)">
			<title>Sheet.38</title>
			<path d="M11.25 189.75 L0 189.75" class="st6"/>
		</g>
		<g id="shape39-112" v:mID="39" v:groupContext="shape" transform="translate(442.125,56.625) rotate(90)">
			<title>Sheet.39</title>
			<path d="M0 189.75 L26.97 189.75" class="st3"/>
		</g>
		<g id="shape40-115" v:mID="40" v:groupContext="shape" transform="translate(455.625,83.5906) rotate(90)">
			<title>Sheet.40</title>
			<path d="M0 189.75 L15.78 189.75" class="st3"/>
		</g>
		<g id="shape41-118" v:mID="41" v:groupContext="shape" transform="translate(265.875,289.125) rotate(180)">
			<title>Sheet.41</title>
			<path d="M0 189.75 L99 189.75" class="st9"/>
		</g>
		<g id="shape42-121" v:mID="42" v:groupContext="shape" transform="translate(166.875,-72.375)">
			<title>Sheet.42</title>
			<path d="M0 189.75 L109.69 189.75" class="st9"/>
		</g>
		<g id="shape43-124" v:mID="43" v:groupContext="shape" transform="translate(466.587,99.8466) rotate(90.8322)">
			<title>Sheet.43</title>
			<path d="M0 189.75 L20.29 189.75" class="st9"/>
		</g>
		<g id="shape44-127" v:mID="44" v:groupContext="shape" transform="translate(283.607,-146.875)">
			<title>Sheet.44</title>
			<desc>demux</desc>
			<v:textBlock v:margins="rect(4,4,4,4)"/>
			<v:textRect cx="25.875" cy="179.75" width="51.76" height="20"/>
			<rect x="0" y="169.75" width="51.75" height="20" class="st10"/>
			<text x="9.19" y="183.35" class="st11" v:langID="1033"><v:paragraph v:horizAlign="1"/><v:tabList/>demux</text>		</g>
		<g id="shape45-130" v:mID="45" v:groupContext="shape" transform="translate(104.732,-151.375)">
			<title>Sheet.45</title>
			<desc>mux</desc>
			<v:textBlock v:margins="rect(4,4,4,4)"/>
			<v:textRect cx="25.875" cy="179.75" width="51.76" height="20"/>
			<rect x="0" y="169.75" width="51.75" height="20" class="st10"/>
			<text x="15.33" y="183.35" class="st11" v:langID="1033"><v:paragraph v:horizAlign="1"/><v:tabList/>mux</text>		</g>
		<g id="shape46-133" v:mID="46" v:groupContext="shape" transform="translate(192.75,-169.375)">
			<title>Sheet.46</title>
			<desc>wrapper</desc>
			<v:textBlock v:margins="rect(4,4,4,4)"/>
			<v:textRect cx="25.875" cy="179.75" width="51.76" height="20"/>
			<rect x="0" y="169.75" width="51.75" height="20" class="st10"/>
			<text x="5.24" y="183.35" class="st11" v:langID="1033"><v:paragraph v:horizAlign="1"/><v:tabList/>wrapper</text>		</g>
		<g id="shape47-136" v:mID="47" v:groupContext="shape" transform="translate(197.675,-102.875)">
			<title>Sheet.47</title>
			<desc>sdata</desc>
			<v:textBlock v:margins="rect(4,4,4,4)"/>
			<v:textRect cx="18" cy="179.75" width="36" height="20"/>
			<rect x="0" y="169.75" width="36" height="20" class="st10"/>
			<text x="4.74" y="183.35" class="st12" v:langID="1033"><v:paragraph v:horizAlign="1"/><v:tabList/>sdata</text>		</g>
		<g id="shape48-139" v:mID="48" v:groupContext="shape" transform="translate(7.27005,-144.375)">
			<title>Sheet.48</title>
			<desc>I3</desc>
			<v:textBlock v:margins="rect(0,0,0,0)"/>
			<v:textRect cx="8.92747" cy="186.375" width="17.86" height="6.75"/>
			<text x="9.51" y="189.38" class="st13" v:langID="1033"><v:paragraph v:horizAlign="2"/><v:tabList/>I3</text>		</g>
		<g id="shape49-141" v:mID="49" v:groupContext="shape" transform="translate(7.27005,-121.875)">
			<title>Sheet.49</title>
			<desc>I2</desc>
			<v:textBlock v:margins="rect(0,0,0,0)"/>
			<v:textRect cx="8.92747" cy="186.375" width="17.86" height="6.75"/>
			<text x="9.51" y="189.38" class="st13" v:langID="1033"><v:paragraph v:horizAlign="2"/><v:tabList/>I2</text>		</g>
		<g id="shape50-143" v:mID="50" v:groupContext="shape" transform="translate(7.27005,-99.375)">
			<title>Sheet.50</title>
			<desc>I1</desc>
			<v:textBlock v:margins="rect(0,0,0,0)"/>
			<v:textRect cx="8.92747" cy="186.375" width="17.86" height="6.75"/>
			<text x="9.51" y="189.38" class="st13" v:langID="1033"><v:paragraph v:horizAlign="2"/><v:tabList/>I1</text>		</g>
		<g id="shape51-145" v:mID="51" v:groupContext="shape" transform="translate(7.27005,-76.875)">
			<title>Sheet.51</title>
			<desc>I0</desc>
			<v:textBlock v:margins="rect(0,0,0,0)"/>
			<v:textRect cx="8.92747" cy="186.375" width="17.86" height="6.75"/>
			<text x="9.51" y="189.38" class="st13" v:langID="1033"><v:paragraph v:horizAlign="2"/><v:tabList/>I0</text>		</g>
		<g id="shape52-147" v:mID="52" v:groupContext="shape" transform="translate(335.625,-142.125)">
			<title>Sheet.52</title>
			<desc>t3</desc>
			<v:textBlock v:margins="rect(4,4,4,4)"/>
			<v:textRect cx="12.375" cy="185.25" width="24.76" height="9"/>
			<path d="M24.75 180.75 L0 180.75 L0 189.75 L24.75 189.75 L24.75 180.75" class="st7"/>
			<text x="7.32" y="188.85" class="st12" v:langID="1033"><v:paragraph v:horizAlign="1"/><v:tabList/>t3</text>		</g>
		<g id="shape53-151" v:mID="53" v:groupContext="shape" transform="translate(335.625,-119.625)">
			<title>Sheet.53</title>
			<desc>t2</desc>
			<v:textBlock v:margins="rect(4,4,4,4)"/>
			<v:textRect cx="12.375" cy="185.25" width="24.76" height="9"/>
			<path d="M24.75 180.75 L0 180.75 L0 189.75 L24.75 189.75 L24.75 180.75" class="st7"/>
			<text x="7.32" y="188.85" class="st12" v:langID="1033"><v:paragraph v:horizAlign="1"/><v:tabList/>t2</text>		</g>
		<g id="shape54-155" v:mID="54" v:groupContext="shape" transform="translate(335.625,-97.125)">
			<title>Sheet.54</title>
			<desc>t1</desc>
			<v:textBlock v:margins="rect(4,4,4,4)"/>
			<v:textRect cx="12.375" cy="185.25" width="24.76" height="9"/>
			<path d="M24.75 180.75 L0 180.75 L0 189.75 L24.75 189.75 L24.75 180.75" class="st7"/>
			<text x="7.32" y="188.85" class="st12" v:langID="1033"><v:paragraph v:horizAlign="1"/><v:tabList/>t1</text>		</g>
		<g id="shape55-159" v:mID="55" v:groupContext="shape" transform="translate(335.625,-74.625)">
			<title>Sheet.55</title>
			<desc>t0</desc>
			<v:textBlock v:margins="rect(4,4,4,4)"/>
			<v:textRect cx="12.375" cy="185.25" width="24.76" height="9"/>
			<path d="M24.75 180.75 L0 180.75 L0 189.75 L24.75 189.75 L24.75 180.75" class="st7"/>
			<text x="7.32" y="188.85" class="st12" v:langID="1033"><v:paragraph v:horizAlign="1"/><v:tabList/>t0</text>		</g>
		<g id="shape56-163" v:mID="56" v:groupContext="shape" transform="translate(85.875,-43.375)">
			<title>Sheet.56</title>
			<desc>S1</desc>
			<v:textBlock v:margins="rect(4,4,4,4)"/>
			<v:textRect cx="18" cy="179.75" width="36" height="20"/>
			<rect x="0" y="169.75" width="36" height="20" class="st10"/>
			<text x="12.2" y="183.35" class="st12" v:langID="1033"><v:paragraph v:horizAlign="1"/><v:tabList/>S1</text>		</g>
		<g id="shape57-166" v:mID="57" v:groupContext="shape" transform="translate(85.875,-28.625)">
			<title>Sheet.57</title>
			<desc>S0</desc>
			<v:textBlock v:margins="rect(4,4,4,4)"/>
			<v:textRect cx="18" cy="179.75" width="36" height="20"/>
			<rect x="0" y="169.75" width="36" height="20" class="st10"/>
			<text x="12.2" y="183.35" class="st12" v:langID="1033"><v:paragraph v:horizAlign="1"/><v:tabList/>S0</text>		</g>
		<g id="shape58-169" v:mID="58" v:groupContext="shape" transform="translate(124.125,-102.784)">
			<title>Sheet.58</title>
			<desc>Y</desc>
			<v:textBlock v:margins="rect(0,0,0,0)"/>
			<v:textRect cx="9" cy="186.375" width="18" height="6.75"/>
			<text x="11.33" y="189.38" class="st4" v:langID="1033"><v:paragraph v:horizAlign="2"/><v:tabList/>Y</text>		</g>
		<g id="shape59-171" v:mID="59" v:groupContext="shape" transform="translate(29.625,-18.375)">
			<title>Sheet.59</title>
			<rect x="0" y="149.25" width="54" height="40.5" class="st14"/>
		</g>
		<g id="shape60-173" v:mID="60" v:groupContext="shape" transform="translate(369.375,-18.375)">
			<title>Sheet.60</title>
			<path d="M0 189.75 L42.75 189.75 L42.75 54.75 L0 54.75 L0 189.75 L0 189.75" class="st15"/>
		</g>
		<g id="shape61-176" v:mID="61" v:groupContext="shape" transform="translate(364.875,-138.75)">
			<title>Sheet.61</title>
			<desc>I3</desc>
			<v:textBlock v:margins="rect(0,0,0,0)"/>
			<v:textRect cx="9" cy="185.25" width="18" height="9"/>
			<path d="M18 180.75 L0 180.75 L0 189.75 L18 189.75 L18 180.75" class="st7"/>
			<text x="9.66" y="188.25" class="st4" v:langID="1033"><v:paragraph v:horizAlign="2"/><v:tabList/>I3</text>		</g>
		<g id="shape62-180" v:mID="62" v:groupContext="shape" transform="translate(364.875,-116.25)">
			<title>Sheet.62</title>
			<desc>I2</desc>
			<v:textBlock v:margins="rect(0,0,0,0)"/>
			<v:textRect cx="9" cy="185.25" width="18" height="9"/>
			<path d="M18 180.75 L0 180.75 L0 189.75 L18 189.75 L18 180.75" class="st7"/>
			<text x="9.66" y="188.25" class="st4" v:langID="1033"><v:paragraph v:horizAlign="2"/><v:tabList/>I2</text>		</g>
		<g id="shape63-184" v:mID="63" v:groupContext="shape" transform="translate(364.875,-91.5)">
			<title>Sheet.63</title>
			<desc>I1</desc>
			<v:textBlock v:margins="rect(0,0,0,0)"/>
			<v:textRect cx="9" cy="185.25" width="18" height="9"/>
			<path d="M18 180.75 L0 180.75 L0 189.75 L18 189.75 L18 180.75" class="st7"/>
			<text x="9.66" y="188.25" class="st4" v:langID="1033"><v:paragraph v:horizAlign="2"/><v:tabList/>I1</text>		</g>
		<g id="shape64-188" v:mID="64" v:groupContext="shape" transform="translate(364.875,-69)">
			<title>Sheet.64</title>
			<desc>I0</desc>
			<v:textBlock v:margins="rect(0,0,0,0)"/>
			<v:textRect cx="9" cy="185.25" width="18" height="9"/>
			<path d="M18 180.75 L0 180.75 L0 189.75 L18 189.75 L18 180.75" class="st7"/>
			<text x="9.66" y="188.25" class="st4" v:langID="1033"><v:paragraph v:horizAlign="2"/><v:tabList/>I0</text>		</g>
		<g id="shape65-192" v:mID="65" v:groupContext="shape" transform="translate(391.875,-138.75)">
			<title>Sheet.65</title>
			<desc>O3</desc>
			<v:textBlock v:margins="rect(0,0,0,0)"/>
			<v:textRect cx="9" cy="185.25" width="18" height="9"/>
			<path d="M18 180.75 L0 180.75 L0 189.75 L18 189.75 L18 180.75" class="st7"/>
			<text x="4.66" y="188.25" class="st4" v:langID="1033"><v:paragraph v:horizAlign="2"/><v:tabList/>O3</text>		</g>
		<g id="shape66-196" v:mID="66" v:groupContext="shape" transform="translate(391.875,-116.25)">
			<title>Sheet.66</title>
			<desc>O2</desc>
			<v:textBlock v:margins="rect(0,0,0,0)"/>
			<v:textRect cx="9" cy="185.25" width="18" height="9"/>
			<path d="M18 180.75 L0 180.75 L0 189.75 L18 189.75 L18 180.75" class="st7"/>
			<text x="4.66" y="188.25" class="st4" v:langID="1033"><v:paragraph v:horizAlign="2"/><v:tabList/>O2</text>		</g>
		<g id="shape67-200" v:mID="67" v:groupContext="shape" transform="translate(391.875,-91.5)">
			<title>Sheet.67</title>
			<desc>O1</desc>
			<v:textBlock v:margins="rect(0,0,0,0)"/>
			<v:textRect cx="9" cy="185.25" width="18" height="9"/>
			<path d="M18 180.75 L0 180.75 L0 189.75 L18 189.75 L18 180.75" class="st7"/>
			<text x="4.66" y="188.25" class="st4" v:langID="1033"><v:paragraph v:horizAlign="2"/><v:tabList/>O1</text>		</g>
		<g id="shape68-204" v:mID="68" v:groupContext="shape" transform="translate(391.875,-69)">
			<title>Sheet.68</title>
			<desc>O0</desc>
			<v:textBlock v:margins="rect(0,0,0,0)"/>
			<v:textRect cx="9" cy="185.25" width="18" height="9"/>
			<path d="M18 180.75 L0 180.75 L0 189.75 L18 189.75 L18 180.75" class="st7"/>
			<text x="4.66" y="188.25" class="st4" v:langID="1033"><v:paragraph v:horizAlign="2"/><v:tabList/>O0</text>		</g>
		<g id="shape69-208" v:mID="69" v:groupContext="shape" transform="translate(412.125,-97.1594)">
			<title>Sheet.69</title>
			<path d="M38.52 189.75 L0 189.75" class="st6"/>
		</g>
		<g id="shape70-211" v:mID="70" v:groupContext="shape" transform="translate(412.125,-142.159)">
			<title>Sheet.70</title>
			<path d="M38.52 189.75 L0 189.75" class="st6"/>
		</g>
		<g id="shape71-214" v:mID="71" v:groupContext="shape" transform="translate(412.125,-119.659)">
			<title>Sheet.71</title>
			<path d="M38.52 189.75 L0 189.75" class="st6"/>
		</g>
		<g id="shape72-217" v:mID="72" v:groupContext="shape" transform="translate(412.125,-74.6594)">
			<title>Sheet.72</title>
			<path d="M38.52 189.75 L0 189.75" class="st6"/>
		</g>
		<g id="shape73-220" v:mID="73" v:groupContext="shape" transform="translate(412.125,-142.125)">
			<title>Sheet.73</title>
			<desc>Y3</desc>
			<v:textBlock v:margins="rect(0,0,0,0)"/>
			<v:textRect cx="9" cy="185.25" width="18" height="9"/>
			<path d="M18 180.75 L0 180.75 L0 189.75 L18 189.75 L18 180.75" class="st7"/>
			<text x="5.77" y="188.25" class="st13" v:langID="1033"><v:paragraph v:horizAlign="2"/><v:tabList/>Y3</text>		</g>
		<g id="shape74-224" v:mID="74" v:groupContext="shape" transform="translate(412.125,-119.625)">
			<title>Sheet.74</title>
			<desc>Y2</desc>
			<v:textBlock v:margins="rect(0,0,0,0)"/>
			<v:textRect cx="9" cy="185.25" width="18" height="9"/>
			<path d="M18 180.75 L0 180.75 L0 189.75 L18 189.75 L18 180.75" class="st7"/>
			<text x="5.77" y="188.25" class="st13" v:langID="1033"><v:paragraph v:horizAlign="2"/><v:tabList/>Y2</text>		</g>
		<g id="shape75-228" v:mID="75" v:groupContext="shape" transform="translate(412.125,-97.125)">
			<title>Sheet.75</title>
			<desc>Y1</desc>
			<v:textBlock v:margins="rect(0,0,0,0)"/>
			<v:textRect cx="9" cy="185.25" width="18" height="9"/>
			<path d="M18 180.75 L0 180.75 L0 189.75 L18 189.75 L18 180.75" class="st7"/>
			<text x="5.77" y="188.25" class="st13" v:langID="1033"><v:paragraph v:horizAlign="2"/><v:tabList/>Y1</text>		</g>
		<g id="shape76-232" v:mID="76" v:groupContext="shape" transform="translate(412.125,-74.625)">
			<title>Sheet.76</title>
			<desc>Y0</desc>
			<v:textBlock v:margins="rect(0,0,0,0)"/>
			<v:textRect cx="9" cy="185.25" width="18" height="9"/>
			<path d="M18 180.75 L0 180.75 L0 189.75 L18 189.75 L18 180.75" class="st7"/>
			<text x="5.77" y="188.25" class="st13" v:langID="1033"><v:paragraph v:horizAlign="2"/><v:tabList/>Y0</text>		</g>
		<g id="shape77-236" v:mID="77" v:groupContext="shape" transform="translate(0.375,-37.625)">
			<title>Sheet.77</title>
			<desc>clk</desc>
			<v:textBlock v:margins="rect(4,4,4,4)"/>
			<v:textRect cx="18" cy="179.75" width="36" height="20"/>
			<rect x="0" y="169.75" width="36" height="20" class="st10"/>
			<text x="11.18" y="183.35" class="st16" v:langID="1033"><v:paragraph v:horizAlign="1"/><v:tabList/>clk</text>		</g>
		<g id="shape79-239" v:mID="79" v:groupContext="shape" transform="translate(29.625,338.625) rotate(180)">
			<title>Sheet.79</title>
			<path d="M0 189.75 L29.25 189.75" class="st3"/>
		</g>
		<g id="shape80-242" v:mID="80" v:groupContext="shape" transform="translate(27.375,-37.5)">
			<title>Sheet.80</title>
			<desc>Clk</desc>
			<v:textBlock v:margins="rect(0,0,0,0)"/>
			<v:textRect cx="9" cy="186.375" width="18" height="6.75"/>
			<text x="3.56" y="189.38" class="st4" v:langID="1033"><v:paragraph v:horizAlign="2"/><v:tabList/>Clk</text>		</g>
		<g id="shape81-244" v:mID="81" v:groupContext="shape" transform="translate(63.375,-43.125)">
			<title>Sheet.81</title>
			<desc>Y1</desc>
			<v:textBlock v:margins="rect(0,0,0,0)"/>
			<v:textRect cx="9" cy="185.25" width="18" height="9"/>
			<path d="M18 180.75 L0 180.75 L0 189.75 L18 189.75 L18 180.75" class="st7"/>
			<text x="5.77" y="188.25" class="st4" v:langID="1033"><v:paragraph v:horizAlign="2"/><v:tabList/>Y1</text>		</g>
		<g id="shape82-248" v:mID="82" v:groupContext="shape" transform="translate(63.375,-29.625)">
			<title>Sheet.82</title>
			<desc>Y0</desc>
			<v:textBlock v:margins="rect(0,0,0,0)"/>
			<v:textRect cx="9" cy="185.25" width="18" height="9"/>
			<path d="M18 180.75 L0 180.75 L0 189.75 L18 189.75 L18 180.75" class="st7"/>
			<text x="5.77" y="188.25" class="st4" v:langID="1033"><v:paragraph v:horizAlign="2"/><v:tabList/>Y0</text>		</g>
		<g id="shape83-252" v:mID="83" v:groupContext="shape" transform="translate(62.625,56.625) rotate(-90)">
			<title>Sheet.83</title>
			<path d="M0 189.75 L38.25 189.75" class="st9"/>
		</g>
		<g id="shape84-255" v:mID="84" v:groupContext="shape" transform="translate(252.107,-171.375)">
			<title>Sheet.84</title>
			<path d="M0 189.75 L198.27 189.75" class="st9"/>
		</g>
		<g id="shape85-258" v:mID="85" v:groupContext="shape" transform="translate(251.531,-132.281)">
			<title>Circle.85</title>
			<v:userDefs>
				<v:ud v:nameU="visVersion" v:val="VT0(11):26"/>
			</v:userDefs>
			<path d="M0 188.91 a0.84375 0.84375 0 0 1 1.6875 0 a0.84375 0.84375 0 1 1 -1.6875 0 Z" class="st8"/>
		</g>
		<g id="shape86-260" v:mID="86" v:groupContext="shape" transform="translate(396.375,-171.375)">
			<title>Sheet.86</title>
			<desc>TDATA</desc>
			<v:textBlock v:margins="rect(0,0,0,0)"/>
			<v:textRect cx="18" cy="185.25" width="36" height="9"/>
			<path d="M36 180.75 L0 180.75 L0 189.75 L36 189.75 L36 180.75" class="st7"/>
			<text x="2.12" y="188.25" class="st13" v:langID="1033"><v:paragraph v:horizAlign="2"/><v:tabList/>TDATA</text>		</g>
		<g id="shape87-264" v:mID="87" v:groupContext="shape" transform="translate(364.875,-151.375)">
			<title>Sheet.87</title>
			<desc>latch</desc>
			<v:textBlock v:margins="rect(4,4,4,4)"/>
			<v:textRect cx="25.875" cy="179.75" width="51.76" height="20"/>
			<rect x="0" y="169.75" width="51.75" height="20" class="st10"/>
			<text x="13.92" y="183.35" class="st17" v:langID="1033"><v:paragraph v:horizAlign="1"/><v:tabList/>latch</text>		</g>
		<g id="shape88-267" v:mID="88" v:groupContext="shape" transform="translate(150.857,-47.6594)">
			<title>Sheet.88</title>
			<path d="M0 189.75 L218.52 189.75" class="st9"/>
		</g>
		<g id="shape89-270" v:mID="89" v:groupContext="shape" transform="translate(157.607,-34.1594)">
			<title>Sheet.89</title>
			<path d="M0 189.75 L211.77 189.75" class="st9"/>
		</g>
		<g id="shape90-273" v:mID="90" v:groupContext="shape" transform="translate(371.625,-43.125)">
			<title>Sheet.90</title>
			<desc>S1</desc>
			<v:textBlock v:margins="rect(0,0,0,0)"/>
			<v:textRect cx="9" cy="185.25" width="18" height="9"/>
			<path d="M18 180.75 L0 180.75 L0 189.75 L18 189.75 L18 180.75" class="st7"/>
			<text x="0" y="188.25" class="st4" v:langID="1033"><v:paragraph/><v:tabList/>S1</text>		</g>
		<g id="shape91-277" v:mID="91" v:groupContext="shape" transform="translate(371.625,-29.625)">
			<title>Sheet.91</title>
			<desc>S0</desc>
			<v:textBlock v:margins="rect(0,0,0,0)"/>
			<v:textRect cx="9" cy="185.25" width="18" height="9"/>
			<path d="M18 180.75 L0 180.75 L0 189.75 L18 189.75 L18 180.75" class="st7"/>
			<text x="0" y="188.25" class="st4" v:langID="1033"><v:paragraph/><v:tabList/>S0</text>		</g>
		<g id="shape92-281" v:mID="92" v:groupContext="shape" transform="translate(31.875,-0.375)">
			<title>Sheet.92</title>
			<desc>Counter</desc>
			<v:textBlock v:margins="rect(4,4,4,4)"/>
			<v:textRect cx="25.875" cy="179.75" width="51.76" height="20"/>
			<rect x="0" y="169.75" width="51.75" height="20" class="st10"/>
			<text x="6.12" y="183.35" class="st18" v:langID="1033"><v:paragraph v:horizAlign="1"/><v:tabList/>Counter</text>		</g>
	</g>
</svg>
