<?xml version="1.0" encoding="UTF-8" standalone="no"?>
<!DOCTYPE svg PUBLIC "-//W3C//DTD SVG 1.1//EN" "http://www.w3.org/Graphics/SVG/1.1/DTD/svg11.dtd">
<!-- Generated by Microsoft Visio, SVG Export block.svg Page-1 -->
<svg xmlns="http://www.w3.org/2000/svg" xmlns:xlink="http://www.w3.org/1999/xlink" xmlns:ev="http://www.w3.org/2001/xml-events"
		xmlns:v="http://schemas.microsoft.com/visio/2003/SVGExtensions/" width="1.35258in" height="1.3325in"
		viewBox="0 0 97.3855 95.94" xml:space="preserve" color-interpolation-filters="sRGB" class="st7">
	<v:documentProperties v:langID="1033" v:viewMarkup="false">
		<v:userDefs>
			<v:ud v:nameU="msvConvertTheme"/>
		</v:userDefs>
	</v:documentProperties>

	<style type="text/css">
	<![CDATA[
		.st1 {fill:#cedbee;stroke:none;stroke-linecap:round;stroke-linejoin:round;stroke-width:0.72}
		.st2 {stroke:#000000;stroke-linecap:round;stroke-linejoin:round;stroke-width:2.16553}
		.st3 {stroke:#000000;stroke-linecap:round;stroke-linejoin:round;stroke-width:0.746735}
		.st4 {stroke:none;stroke-linecap:round;stroke-linejoin:round;stroke-width:0.75}
		.st5 {fill:#000000;font-family:Arial;font-size:0.833336em}
		.st6 {stroke:#000000;stroke-linecap:round;stroke-linejoin:round;stroke-width:0.72}
		.st7 {fill:none;fill-rule:evenodd;font-size:12px;overflow:visible;stroke-linecap:square;stroke-miterlimit:3}
	]]>
	</style>

	<g v:mID="0" v:index="1" v:groupContext="foregroundPage">
		<title>Page-1</title>
		<v:pageProperties v:drawingScale="1" v:pageScale="1" v:drawingUnits="19" v:shadowOffsetX="9" v:shadowOffsetY="-9"/>
		<g id="shape46-1" v:mID="46" v:groupContext="shape" transform="translate(42.6655,-0.72)">
			<title>Sheet.46</title>
			<rect x="0" y="1.44" width="45" height="94.5" class="st1"/>
		</g>
		<g id="shape55-3" v:mID="55" v:groupContext="shape" transform="translate(2.16553,-32.3841)">
			<title>Sheet.55</title>
			<path d="M0 48.85 L26.89 48.85 L26.89 95.94" class="st2"/>
		</g>
		<g id="shape56-6" v:mID="56" v:groupContext="shape" transform="translate(29.1655,-72.7405)">
			<title>Sheet.56</title>
			<path d="M4.48 95.94 L0 91.46" class="st3"/>
		</g>
		<g id="shape58-9" v:mID="58" v:groupContext="shape" transform="translate(29.1655,-59.2405)">
			<title>Sheet.58</title>
			<path d="M4.48 95.94 L0 91.46" class="st3"/>
		</g>
		<g id="shape60-12" v:mID="60" v:groupContext="shape" transform="translate(29.1655,-45.72)">
			<title>Sheet.60</title>
			<path d="M4.48 95.94 L0 91.46" class="st3"/>
		</g>
		<g id="shape62-15" v:mID="62" v:groupContext="shape" transform="translate(29.1655,-32.2405)">
			<title>Sheet.62</title>
			<path d="M4.48 95.94 L0 91.46" class="st3"/>
		</g>
		<g id="shape47-18" v:mID="47" v:groupContext="shape" transform="translate(66.2905,-83.97)">
			<title>Sheet.47</title>
			<desc>A</desc>
			<v:textBlock v:margins="rect(0,0,0,0)"/>
			<v:textRect cx="9" cy="91.44" width="18" height="9"/>
			<path d="M18 86.94 L0 86.94 L0 95.94 L18 95.94 L18 86.94" class="st4"/>
			<text x="11.33" y="94.44" class="st5" v:langID="1033"><v:paragraph v:horizAlign="2"/><v:tabList/>A</text>		</g>
		<g id="shape48-22" v:mID="48" v:groupContext="shape" transform="translate(96.6655,103.41) rotate(180)">
			<title>Sheet.48</title>
			<path d="M0 95.94 L9 95.94" class="st6"/>
		</g>
		<g id="shape49-25" v:mID="49" v:groupContext="shape" transform="translate(96.6655,116.91) rotate(180)">
			<title>Sheet.49</title>
			<path d="M0 95.94 L9 95.94" class="st6"/>
		</g>
		<g id="shape50-28" v:mID="50" v:groupContext="shape" transform="translate(96.6655,130.41) rotate(180)">
			<title>Sheet.50</title>
			<path d="M0 95.94 L9 95.94" class="st6"/>
		</g>
		<g id="shape51-31" v:mID="51" v:groupContext="shape" transform="translate(96.6655,143.91) rotate(180)">
			<title>Sheet.51</title>
			<path d="M0 95.94 L9 95.94" class="st6"/>
		</g>
		<g id="shape53-34" v:mID="53" v:groupContext="shape" transform="translate(96.6655,157.41) rotate(180)">
			<title>Sheet.53</title>
			<path d="M0 95.94 L9 95.94" class="st6"/>
		</g>
		<g id="shape63-37" v:mID="63" v:groupContext="shape" transform="translate(96.6655,170.91) rotate(180)">
			<title>Sheet.63</title>
			<path d="M0 95.94 L9 95.94" class="st6"/>
		</g>
		<g id="shape64-40" v:mID="64" v:groupContext="shape" transform="translate(96.6655,184.41) rotate(180)">
			<title>Sheet.64</title>
			<path d="M0 95.94 L9 95.94" class="st6"/>
		</g>
		<g id="shape66-43" v:mID="66" v:groupContext="shape" transform="translate(66.2905,-70.47)">
			<title>Sheet.66</title>
			<desc>B</desc>
			<v:textBlock v:margins="rect(0,0,0,0)"/>
			<v:textRect cx="9" cy="91.44" width="18" height="9"/>
			<path d="M18 86.94 L0 86.94 L0 95.94 L18 95.94 L18 86.94" class="st4"/>
			<text x="11.33" y="94.44" class="st5" v:langID="1033"><v:paragraph v:horizAlign="2"/><v:tabList/>B</text>		</g>
		<g id="shape67-47" v:mID="67" v:groupContext="shape" transform="translate(66.2905,-56.97)">
			<title>Sheet.67</title>
			<desc>C</desc>
			<v:textBlock v:margins="rect(0,0,0,0)"/>
			<v:textRect cx="9" cy="91.44" width="18" height="9"/>
			<path d="M18 86.94 L0 86.94 L0 95.94 L18 95.94 L18 86.94" class="st4"/>
			<text x="10.78" y="94.44" class="st5" v:langID="1033"><v:paragraph v:horizAlign="2"/><v:tabList/>C</text>		</g>
		<g id="shape68-51" v:mID="68" v:groupContext="shape" transform="translate(66.2905,-43.47)">
			<title>Sheet.68</title>
			<desc>D</desc>
			<v:textBlock v:margins="rect(0,0,0,0)"/>
			<v:textRect cx="9" cy="91.44" width="18" height="9"/>
			<path d="M18 86.94 L0 86.94 L0 95.94 L18 95.94 L18 86.94" class="st4"/>
			<text x="10.78" y="94.44" class="st5" v:langID="1033"><v:paragraph v:horizAlign="2"/><v:tabList/>D</text>		</g>
		<g id="shape69-55" v:mID="69" v:groupContext="shape" transform="translate(66.2905,-29.97)">
			<title>Sheet.69</title>
			<desc>E</desc>
			<v:textBlock v:margins="rect(0,0,0,0)"/>
			<v:textRect cx="9" cy="91.44" width="18" height="9"/>
			<path d="M18 86.94 L0 86.94 L0 95.94 L18 95.94 L18 86.94" class="st4"/>
			<text x="11.33" y="94.44" class="st5" v:langID="1033"><v:paragraph v:horizAlign="2"/><v:tabList/>E</text>		</g>
		<g id="shape70-59" v:mID="70" v:groupContext="shape" transform="translate(66.2905,-16.47)">
			<title>Sheet.70</title>
			<desc>F</desc>
			<v:textBlock v:margins="rect(0,0,0,0)"/>
			<v:textRect cx="9" cy="91.44" width="18" height="9"/>
			<path d="M18 86.94 L0 86.94 L0 95.94 L18 95.94 L18 86.94" class="st4"/>
			<text x="11.89" y="94.44" class="st5" v:langID="1033"><v:paragraph v:horizAlign="2"/><v:tabList/>F</text>		</g>
		<g id="shape71-63" v:mID="71" v:groupContext="shape" transform="translate(66.2905,-2.97)">
			<title>Sheet.71</title>
			<desc>G</desc>
			<v:textBlock v:margins="rect(0,0,0,0)"/>
			<v:textRect cx="9" cy="91.44" width="18" height="9"/>
			<path d="M18 86.94 L0 86.94 L0 95.94 L18 95.94 L18 86.94" class="st4"/>
			<text x="10.22" y="94.44" class="st5" v:langID="1033"><v:paragraph v:horizAlign="2"/><v:tabList/>G</text>		</g>
		<g id="shape65-67" v:mID="65" v:groupContext="shape" transform="translate(44.9155,-68.22)">
			<title>Sheet.65</title>
			<desc>B3</desc>
			<v:textBlock v:margins="rect(0,0,0,0)"/>
			<v:textRect cx="9" cy="91.44" width="18" height="9"/>
			<path d="M18 86.94 L0 86.94 L0 95.94 L18 95.94 L18 86.94" class="st4"/>
			<text x="0" y="94.44" class="st5" v:langID="1033"><v:paragraph/><v:tabList/>B3</text>		</g>
		<g id="shape54-71" v:mID="54" v:groupContext="shape" transform="translate(42.6655,159.66) rotate(180)">
			<title>Sheet.54</title>
			<path d="M0 95.94 L13.5 95.94" class="st6"/>
		</g>
		<g id="shape57-74" v:mID="57" v:groupContext="shape" transform="translate(42.6655,146.321) rotate(180)">
			<title>Sheet.57</title>
			<path d="M0 95.94 L13.5 95.94" class="st6"/>
		</g>
		<g id="shape59-77" v:mID="59" v:groupContext="shape" transform="translate(42.6655,132.499) rotate(180)">
			<title>Sheet.59</title>
			<path d="M0 95.94 L13.5 95.94" class="st6"/>
		</g>
		<g id="shape61-80" v:mID="61" v:groupContext="shape" transform="translate(42.6655,119.16) rotate(180)">
			<title>Sheet.61</title>
			<path d="M0 95.94 L13.5 95.94" class="st6"/>
		</g>
		<g id="shape72-83" v:mID="72" v:groupContext="shape" transform="translate(44.9155,-54.72)">
			<title>Sheet.72</title>
			<desc>B2</desc>
			<v:textBlock v:margins="rect(0,0,0,0)"/>
			<v:textRect cx="9" cy="91.44" width="18" height="9"/>
			<path d="M18 86.94 L0 86.94 L0 95.94 L18 95.94 L18 86.94" class="st4"/>
			<text x="0" y="94.44" class="st5" v:langID="1033"><v:paragraph/><v:tabList/>B2</text>		</g>
		<g id="shape73-87" v:mID="73" v:groupContext="shape" transform="translate(44.9155,-41.22)">
			<title>Sheet.73</title>
			<desc>B1</desc>
			<v:textBlock v:margins="rect(0,0,0,0)"/>
			<v:textRect cx="9" cy="91.44" width="18" height="9"/>
			<path d="M18 86.94 L0 86.94 L0 95.94 L18 95.94 L18 86.94" class="st4"/>
			<text x="0" y="94.44" class="st5" v:langID="1033"><v:paragraph/><v:tabList/>B1</text>		</g>
		<g id="shape74-91" v:mID="74" v:groupContext="shape" transform="translate(44.9155,-27.72)">
			<title>Sheet.74</title>
			<desc>B0</desc>
			<v:textBlock v:margins="rect(0,0,0,0)"/>
			<v:textRect cx="9" cy="91.44" width="18" height="9"/>
			<path d="M18 86.94 L0 86.94 L0 95.94 L18 95.94 L18 86.94" class="st4"/>
			<text x="0" y="94.44" class="st5" v:langID="1033"><v:paragraph/><v:tabList/>B0</text>		</g>
		<g id="shape75-95" v:mID="75" v:groupContext="shape" transform="translate(2.16553,-81.72)">
			<title>Sheet.75</title>
			<desc>B(3:0)</desc>
			<v:textBlock v:margins="rect(0,0,0,0)"/>
			<v:textRect cx="15.75" cy="91.44" width="31.5" height="9"/>
			<path d="M31.5 86.94 L0 86.94 L0 95.94 L31.5 95.94 L31.5 86.94" class="st4"/>
			<text x="0" y="94.44" class="st5" v:langID="1033"><v:paragraph/><v:tabList/>B(3:0)</text>		</g>
	</g>
</svg>
