<?xml version="1.0" encoding="UTF-8" standalone="no"?>
<!DOCTYPE svg PUBLIC "-//W3C//DTD SVG 1.1//EN" "http://www.w3.org/Graphics/SVG/1.1/DTD/svg11.dtd">
<!-- Generated by Microsoft Visio, SVG Export CurrentFlowInCircuit.svg Page-1 -->
<svg xmlns="http://www.w3.org/2000/svg" xmlns:xlink="http://www.w3.org/1999/xlink" xmlns:ev="http://www.w3.org/2001/xml-events"
		xmlns:v="http://schemas.microsoft.com/visio/2003/SVGExtensions/" width="3.06898in" height="1.44525in"
		viewBox="0 0 220.967 104.058" xml:space="preserve" color-interpolation-filters="sRGB" class="st15">
	<v:documentProperties v:langID="1033" v:viewMarkup="false"/>

	<style type="text/css">
	<![CDATA[
		.st1 {marker-end:url(#mrkr4-6);stroke:#000000;stroke-dasharray:5.25,3.75;stroke-width:0.75}
		.st2 {fill:#000000;fill-opacity:1;stroke:#000000;stroke-opacity:1;stroke-width:0.22935779816514}
		.st3 {fill:none;stroke:none;stroke-width:0.25}
		.st4 {fill:#000000;font-family:Calibri;font-size:1.00001em}
		.st5 {font-size:1em}
		.st6 {visibility:visible}
		.st7 {fill:#5b9bd5;fill-opacity:0.22;filter:url(#filter_2);stroke:#5b9bd5;stroke-opacity:0.22}
		.st8 {fill:#d8d8d8;stroke:#000000;stroke-width:0.75}
		.st9 {fill:none;filter:url(#filter_2);stroke:#5b9bd5;stroke-opacity:0.22}
		.st10 {fill:none;stroke:#000000;stroke-width:0.75}
		.st11 {fill:#000000;font-family:Times New Roman;font-size:1.00001em}
		.st12 {fill:#000000;font-family:Calibri;font-size:1.16666em}
		.st13 {fill:#000000;font-family:Calibri;font-size:1.5em}
		.st14 {stroke:#000000;stroke-linecap:round;stroke-linejoin:round;stroke-width:1}
		.st15 {fill:none;fill-rule:evenodd;font-size:12px;overflow:visible;stroke-linecap:square;stroke-miterlimit:3}
	]]>
	</style>

	<defs id="Markers">
		<g id="lend4">
			<path d="M 2 1 L 0 0 L 2 -1 L 2 1 " style="stroke:none"/>
		</g>
		<marker id="mrkr4-6" class="st2" v:arrowType="4" v:arrowSize="2" v:setback="8.24" refX="-8.24" orient="auto"
				markerUnits="strokeWidth" overflow="visible">
			<use xlink:href="#lend4" transform="scale(-4.36,-4.36) "/>
		</marker>
	</defs>
	<defs id="Filters">
		<filter id="filter_2">
			<feGaussianBlur stdDeviation="2"/>
		</filter>
	</defs>
	<g v:mID="0" v:index="1" v:groupContext="foregroundPage">
		<title>Page-1</title>
		<v:pageProperties v:drawingScale="1" v:pageScale="1" v:drawingUnits="19" v:shadowOffsetX="9" v:shadowOffsetY="-9"/>
		<g id="shape1-1" v:mID="1" v:groupContext="shape" transform="translate(7.5294,-8.99572)">
			<title>Sheet.1</title>
			<path d="M4.5 29.31 C12.35 16.63 24.28 16.34 35.61 16.31 C49.59 16.26 62.66 16.6 75.11 18 C88.96 19.56 102.05 22.44 108.99
						 30.37 C114.98 37.2 116.4 47.79 116.88 58.85 C117.53 73.8 116.46 89.61 101.19 97.21 C93.98 100.8 83.61 102.56
						 74.9 103.39 C63.23 104.5 54.55 103.95 44.35 103.71 C30.36 103.38 13.5 103.64 6.19 99.92 C5.59 99.59 4.7
						 99.26 3.78 98.76 L3.57 98.46" class="st1"/>
		</g>
		<g id="shape2-7" v:mID="2" v:groupContext="shape" transform="translate(132.404,-6.52505)">
			<title>Sheet.2</title>
			<desc>Current must flow from the power supply through the load and ...</desc>
			<v:textBlock v:margins="rect(4,4,4,4)"/>
			<v:textRect cx="44.1563" cy="60.1827" width="88.32" height="87.75"/>
			<rect x="0" y="16.3077" width="88.3125" height="87.75" class="st3"/>
			<text x="4" y="20.58" class="st4" v:langID="1033"><v:paragraph/><v:tabList/>Current must <tspan x="4" dy="1.2em"
						class="st5">flow from the </tspan><tspan x="4" dy="1.2em" class="st5">power supply </tspan><tspan x="4"
						dy="1.2em" class="st5">through the </tspan><tspan x="4" dy="1.2em" class="st5">load and back </tspan><tspan
						x="4" dy="1.2em" class="st5">to the power </tspan><tspan x="4" dy="1.2em" class="st5">supply</tspan></text>		</g>
		<g id="shape3-16" v:mID="3" v:groupContext="shape" transform="translate(89.6544,-35.7751)">
			<title>Rectangle.138</title>
			<v:userDefs>
				<v:ud v:nameU="visVersion" v:val="VT0(15):26"/>
			</v:userDefs>
			<g id="shadow3-17" v:groupContext="shadow" v:shadowOffsetX="0.345598" v:shadowOffsetY="-1.97279" v:shadowType="1"
					transform="matrix(1,0,0,1,0.345598,1.97279)" class="st6">
				<rect x="0" y="77.0577" width="15.75" height="27" class="st7"/>
			</g>
			<rect x="0" y="77.0577" width="15.75" height="27" class="st8"/>
		</g>
		<g id="shape4-21" v:mID="4" v:groupContext="shape" transform="translate(3.0294,-36.9001)">
			<title>Circle.139</title>
			<v:userDefs>
				<v:ud v:nameU="visVersion" v:val="VT0(15):26"/>
			</v:userDefs>
			<g id="shadow4-22" v:groupContext="shadow" v:shadowOffsetX="0.345598" v:shadowOffsetY="-1.97279" v:shadowType="1"
					transform="matrix(1,0,0,1,0.345598,1.97279)" class="st6">
				<path d="M0 90.56 A13.5 13.5 0 0 1 27 90.56 A13.5 13.5 0 1 1 0 90.56 Z" class="st9"/>
			</g>
			<path d="M0 90.56 A13.5 13.5 0 0 1 27 90.56 A13.5 13.5 0 1 1 0 90.56 Z" class="st10"/>
		</g>
		<g id="shape5-26" v:mID="5" v:groupContext="shape" transform="translate(24.9669,-42.7501)">
			<title>Sheet.5</title>
			<desc>V</desc>
			<v:textBlock v:margins="rect(4,4,4,4)"/>
			<v:textRect cx="13.5" cy="95.0577" width="27" height="18"/>
			<rect x="0" y="86.0577" width="27" height="18" class="st3"/>
			<text x="9.17" y="98.66" class="st11" v:langID="1033"><v:paragraph v:horizAlign="1"/><v:tabList/>V</text>		</g>
		<g id="shape6-29" v:mID="6" v:groupContext="shape" transform="translate(3.0294,-49.2751)">
			<title>Sheet.6</title>
			<desc>+</desc>
			<v:textBlock v:margins="rect(4,4,4,4)"/>
			<v:textRect cx="13.5" cy="95.0577" width="27" height="18"/>
			<rect x="0" y="86.0577" width="27" height="18" class="st3"/>
			<text x="10.01" y="99.26" class="st12" v:langID="1033"><v:paragraph v:horizAlign="1"/><v:tabList/>+</text>		</g>
		<g id="shape7-32" v:mID="7" v:groupContext="shape" transform="translate(3.0294,-38.4751)">
			<title>Sheet.7</title>
			<desc>-</desc>
			<v:textBlock v:margins="rect(4,4,4,4)"/>
			<v:textRect cx="13.5" cy="98.6577" width="27" height="10.8"/>
			<rect x="0" y="93.2577" width="27" height="10.8" class="st3"/>
			<text x="10.74" y="104.06" class="st13" v:langID="1033"><v:paragraph v:horizAlign="1"/><v:tabList/>-</text>		</g>
		<g id="shape8-35" v:mID="8" v:groupContext="shape" transform="translate(-87.5283,40.1576) rotate(-90)">
			<title>Sheet.8</title>
			<path d="M0 104.06 L13.05 104.06" class="st14"/>
		</g>
		<g id="shape9-38" v:mID="9" v:groupContext="shape" transform="translate(120.587,67.1576) rotate(90)">
			<title>Sheet.9</title>
			<path d="M0 104.06 L14.4 104.06" class="st14"/>
		</g>
		<g id="shape10-41" v:mID="10" v:groupContext="shape" transform="translate(47.7037,131.165) rotate(180)">
			<title>Sheet.10</title>
			<path d="M0 104.06 L31.17 104.06" class="st14"/>
		</g>
		<g id="shape11-44" v:mID="11" v:groupContext="shape" transform="translate(97.5294,185.615) rotate(180)">
			<title>Sheet.11</title>
			<path d="M0 104.06 L81 104.06" class="st14"/>
		</g>
		<g id="shape12-47" v:mID="12" v:groupContext="shape" transform="translate(48.0294,-75.2626)">
			<title>Circle.147</title>
			<v:userDefs>
				<v:ud v:nameU="visVersion" v:val="VT0(15):26"/>
			</v:userDefs>
			<g id="shadow12-48" v:groupContext="shadow" v:shadowOffsetX="0.345598" v:shadowOffsetY="-1.97279" v:shadowType="1"
					transform="matrix(1,0,0,1,0.345598,1.97279)" class="st6">
				<path d="M0 102.37 A1.6875 1.6875 0 0 1 3.37 102.37 A1.6875 1.6875 0 1 1 0 102.37 Z" class="st9"/>
			</g>
			<path d="M0 102.37 A1.6875 1.6875 0 0 1 3.37 102.37 A1.6875 1.6875 0 1 1 0 102.37 Z" class="st10"/>
		</g>
		<g id="shape13-52" v:mID="13" v:groupContext="shape" transform="translate(66.0294,-75.2626)">
			<title>Circle.148</title>
			<v:userDefs>
				<v:ud v:nameU="visVersion" v:val="VT0(15):26"/>
			</v:userDefs>
			<g id="shadow13-53" v:groupContext="shadow" v:shadowOffsetX="0.345598" v:shadowOffsetY="-1.97279" v:shadowType="1"
					transform="matrix(1,0,0,1,0.345598,1.97279)" class="st6">
				<path d="M0 102.37 A1.6875 1.6875 0 0 1 3.37 102.37 A1.6875 1.6875 0 1 1 0 102.37 Z" class="st9"/>
			</g>
			<path d="M0 102.37 A1.6875 1.6875 0 0 1 3.37 102.37 A1.6875 1.6875 0 1 1 0 102.37 Z" class="st10"/>
		</g>
		<g id="shape14-57" v:mID="14" v:groupContext="shape" transform="translate(97.5294,131.165) rotate(180)">
			<title>Sheet.14</title>
			<path d="M0 104.06 L28.13 104.06" class="st14"/>
		</g>
		<g id="shape15-60" v:mID="15" v:groupContext="shape" transform="translate(-6.52827,41.2826) rotate(-90)">
			<title>Sheet.15</title>
			<path d="M0 104.06 L14.17 104.06" class="st14"/>
		</g>
		<g id="shape16-63" v:mID="16" v:groupContext="shape" transform="translate(-6.52827,81.5576) rotate(-90)">
			<title>Sheet.16</title>
			<path d="M0 104.06 L13.27 104.06" class="st14"/>
		</g>
		<g id="group17-66" transform="translate(86.2991,-71.4275) rotate(20)" v:mID="17" v:groupContext="group">
			<title>Sheet.17</title>
			<g id="shape18-67" v:mID="18" v:groupContext="shape" transform="translate(72.4098,180.942) rotate(146.565)">
				<title>Sheet.18</title>
				<path d="M0 104.06 L18.06 104.06" class="st14"/>
			</g>
			<g id="shape19-70" v:mID="19" v:groupContext="shape" transform="translate(118.946,100.339) rotate(93.4349)">
				<title>Sheet.19</title>
				<path d="M0 104.06 L3.56 104.06" class="st14"/>
			</g>
			<g id="shape20-73" v:mID="20" v:groupContext="shape" transform="translate(67.1145,7.61395) rotate(31.8519)">
				<title>Sheet.20</title>
				<path d="M0 104.06 L3.13 104.06" class="st14"/>
			</g>
		</g>
		<g id="shape21-76" v:mID="21" v:groupContext="shape" transform="translate(100.342,-42.7501)">
			<title>Sheet.21</title>
			<desc>R</desc>
			<v:textBlock v:margins="rect(4,4,4,4)"/>
			<v:textRect cx="13.5" cy="95.0577" width="27" height="18"/>
			<rect x="0" y="86.0577" width="27" height="18" class="st3"/>
			<text x="9.5" y="98.66" class="st11" v:langID="1033"><v:paragraph v:horizAlign="1"/><v:tabList/>R</text>		</g>
		<g id="shape22-79" v:mID="22" v:groupContext="shape" transform="translate(21.4592,-81.0001)">
			<title>Sheet.22</title>
			<desc>I</desc>
			<v:textBlock v:margins="rect(4,4,4,4)"/>
			<v:textRect cx="13.5" cy="95.0577" width="27" height="18"/>
			<rect x="0" y="86.0577" width="27" height="18" class="st3"/>
			<text x="11.5" y="98.66" class="st11" v:langID="1033"><v:paragraph v:horizAlign="1"/><v:tabList/>I</text>		</g>
	</g>
</svg>
