<?xml version="1.0" encoding="UTF-8" standalone="no"?>
<!DOCTYPE svg PUBLIC "-//W3C//DTD SVG 1.1//EN" "http://www.w3.org/Graphics/SVG/1.1/DTD/svg11.dtd">
<!-- Generated by Microsoft Visio, SVG Export BasicCells.svg Page-1 -->
<svg xmlns="http://www.w3.org/2000/svg" xmlns:xlink="http://www.w3.org/1999/xlink" xmlns:ev="http://www.w3.org/2001/xml-events"
		xmlns:v="http://schemas.microsoft.com/visio/2003/SVGExtensions/" width="5.885in" height="3.33313in"
		viewBox="0 0 423.72 239.985" xml:space="preserve" color-interpolation-filters="sRGB" class="st12">
	<v:documentProperties v:langID="1033" v:viewMarkup="false"/>

	<style type="text/css">
	<![CDATA[
		.st1 {fill:#fddeb0;stroke:#000000;stroke-linecap:round;stroke-linejoin:round;stroke-width:0.72}
		.st2 {stroke:#000000;stroke-linecap:round;stroke-linejoin:round;stroke-width:0.72}
		.st3 {stroke:#000000;stroke-dasharray:0,3.6;stroke-linecap:round;stroke-linejoin:round;stroke-width:0.72}
		.st4 {fill:#ffffff;stroke:#000000;stroke-linecap:round;stroke-linejoin:round;stroke-width:0.24}
		.st5 {fill:none;stroke:none;stroke-linecap:round;stroke-linejoin:round;stroke-width:0.72}
		.st6 {fill:#000000;font-family:Arial;font-size:0.666664em}
		.st7 {fill:#000000;font-family:Arial;font-size:0.833336em}
		.st8 {font-size:1em}
		.st9 {fill:#d5e1fb;stroke:#000000;stroke-linecap:round;stroke-linejoin:round;stroke-width:0.72}
		.st10 {fill:#ffffff;stroke:#000000;stroke-linecap:round;stroke-linejoin:round;stroke-width:0.72}
		.st11 {fill:#dbeef3;stroke:#000000;stroke-linecap:round;stroke-linejoin:round;stroke-width:0.72}
		.st12 {fill:none;fill-rule:evenodd;font-size:12px;overflow:visible;stroke-linecap:square;stroke-miterlimit:3}
	]]>
	</style>

	<g v:mID="0" v:index="1" v:groupContext="foregroundPage">
		<title>Page-1</title>
		<v:pageProperties v:drawingScale="1" v:pageScale="1" v:drawingUnits="19" v:shadowOffsetX="9" v:shadowOffsetY="-9"/>
		<g id="group153-1" transform="translate(0.36,-16.8753)" v:mID="153" v:groupContext="group">
			<title>Sheet.153</title>
			<g id="shape102-2" v:mID="102" v:groupContext="shape" transform="translate(58.5,-200.25)">
				<title>Sheet.102</title>
				<path d="M0 221.99 L13.75 221.99 A8.75 9 0 0 1 22.5 230.99 A7.5 9 0 0 1 15 239.99 L0 239.99 L0 221.99 Z"
						class="st1"/>
			</g>
			<g id="shape103-4" v:mID="103" v:groupContext="shape" transform="translate(99,293.221) rotate(180)">
				<title>Sheet.103</title>
				<path d="M0 239.99 L54 239.99" class="st2"/>
			</g>
			<g id="shape104-7" v:mID="104" v:groupContext="shape" transform="translate(58.5,275.221) rotate(180)">
				<title>Sheet.104</title>
				<path d="M0 239.99 L13.5 239.99" class="st2"/>
			</g>
			<g id="shape105-10" v:mID="105" v:groupContext="shape" transform="translate(81,-195.75)">
				<title>Sheet.105</title>
				<path d="M0 226.49 L4.5 226.49 L4.5 239.99 L18 239.99" class="st2"/>
			</g>
			<g id="shape106-13" v:mID="106" v:groupContext="shape" transform="translate(117,-191.25)">
				<title>Sheet.106</title>
				<path d="M0 239.99 L18 239.99" class="st2"/>
			</g>
			<g id="shape107-16" v:mID="107" v:groupContext="shape" transform="translate(49.5,-191.25)">
				<title>Sheet.107</title>
				<path d="M76.5 239.99 L76.5 208.49 L0 208.49 L0 217.49 L9 217.49" class="st2"/>
			</g>
			<g id="shape108-19" v:mID="108" v:groupContext="shape" transform="translate(94.5,279.721) scale(1,-1)">
				<title>Sheet.108</title>
				<path d="M0 221.99 L0.91 224.41 L1.52 227.04 L1.82 229.67 L1.82 232.3 L1.52 234.93 L0.91 237.46 L0 239.99 L9.83 239.99
							 L12.06 239.48 L14.18 238.67 L16.31 237.56 L18.13 236.24 L19.86 234.63 L21.28 232.91 L22.59 230.99 L21.28
							 228.96 L19.86 227.24 L18.13 225.63 L16.31 224.31 L14.18 223.3 L12.06 222.49 L9.83 221.99 L0 221.99 Z"
						class="st1"/>
			</g>
			<g id="shape109-21" v:mID="109" v:groupContext="shape" transform="translate(125.438,-190.688)">
				<title>Circle.122</title>
				<path d="M0 239.42 a0.5625 0.5625 0 0 1 1.125 0 a0.5625 0.5625 0 1 1 -1.125 0 Z" class="st1"/>
			</g>
			<g id="shape110-23" v:mID="110" v:groupContext="shape" transform="translate(117,-189)">
				<title>Circle.123</title>
				<path d="M0 237.74 A2.25 2.25 0 0 1 4.5 237.74 A2.25 2.25 0 1 1 0 237.74 Z" class="st1"/>
			</g>
			<g id="shape111-25" v:mID="111" v:groupContext="shape" transform="translate(54,-211.5)">
				<title>Circle.124</title>
				<path d="M0 237.74 A2.25 2.25 0 0 1 4.5 237.74 A2.25 2.25 0 1 1 0 237.74 Z" class="st1"/>
			</g>
			<g id="shape112-27" v:mID="112" v:groupContext="shape" transform="translate(54,-202.5)">
				<title>Circle.125</title>
				<path d="M0 237.74 A2.25 2.25 0 0 1 4.5 237.74 A2.25 2.25 0 1 1 0 237.74 Z" class="st1"/>
			</g>
			<g id="shape113-29" v:mID="113" v:groupContext="shape" transform="translate(20.25,-128.25)">
				<title>Sheet.113</title>
				<path d="M0 239.99 L42.75 239.99 L42.75 226.49 L56.25 226.49 L56.25 239.99 L96.75 239.99 L96.75 226.49 L132.75 226.49"
						class="st2"/>
			</g>
			<g id="shape114-32" v:mID="114" v:groupContext="shape" transform="translate(153,-128.25)">
				<title>Sheet.114</title>
				<path d="M0 226.49 L0 239.99 L22.5 239.99" class="st2"/>
			</g>
			<g id="shape115-35" v:mID="115" v:groupContext="shape" transform="translate(275.985,89.2353) rotate(90)">
				<title>Sheet.115</title>
				<path d="M0 239.99 L69.75 239.99" class="st3"/>
			</g>
			<g id="shape116-38" v:mID="116" v:groupContext="shape" transform="translate(302.985,102.735) rotate(90)">
				<title>Sheet.116</title>
				<path d="M0 239.99 L56.25 239.99" class="st3"/>
			</g>
			<g id="shape117-41" v:mID="117" v:groupContext="shape" transform="translate(356.985,102.735) rotate(90)">
				<title>Sheet.117</title>
				<path d="M0 239.99 L56.25 239.99" class="st3"/>
			</g>
			<g id="shape118-44" v:mID="118" v:groupContext="shape" transform="translate(329.985,89.2353) rotate(90)">
				<title>Sheet.118</title>
				<path d="M0 239.99 L69.75 239.99" class="st3"/>
			</g>
			<g id="shape119-47" v:mID="119" v:groupContext="shape" transform="translate(379.485,89.2353) rotate(90)">
				<title>Sheet.119</title>
				<path d="M0 239.99 L69.75 239.99" class="st3"/>
			</g>
			<g id="shape120-50" v:mID="120" v:groupContext="shape" transform="translate(392.985,89.2353) rotate(90)">
				<title>Sheet.120</title>
				<path d="M0 239.99 L69.75 239.99" class="st3"/>
			</g>
			<g id="group121-53" transform="translate(30.375,-69.75)" v:mID="121" v:groupContext="group">
				<title>Sheet.121</title>
				<g id="shape122-54" v:mID="122" v:groupContext="shape">
					<title>Circle.96</title>
					<path d="M0 234.36 A5.625 5.625 0 0 1 11.25 234.36 A5.625 5.625 0 1 1 0 234.36 Z" class="st4"/>
				</g>
				<g id="shape123-56" v:mID="123" v:groupContext="shape">
					<title>Sheet.123</title>
					<desc>1</desc>
					<v:textBlock v:margins="rect(4,4,4,4)"/>
					<v:textRect cx="4.21875" cy="234.36" width="8.44" height="11.25"/>
					<rect x="0" y="228.735" width="8.4375" height="11.25" class="st5"/>
					<text x="4" y="236.76" class="st6" v:langID="1033"><v:paragraph v:horizAlign="1"/><v:tabList/>1</text>				</g>
			</g>
			<g id="group124-59" transform="translate(57.375,-69.75)" v:mID="124" v:groupContext="group">
				<title>Sheet.124</title>
				<g id="shape125-60" v:mID="125" v:groupContext="shape">
					<title>Circle.96</title>
					<path d="M0 234.36 A5.625 5.625 0 0 1 11.25 234.36 A5.625 5.625 0 1 1 0 234.36 Z" class="st4"/>
				</g>
				<g id="shape126-62" v:mID="126" v:groupContext="shape">
					<title>Sheet.126</title>
					<desc>2</desc>
					<v:textBlock v:margins="rect(4,4,4,4)"/>
					<v:textRect cx="4.21875" cy="234.36" width="8.44" height="11.25"/>
					<rect x="0" y="228.735" width="8.4375" height="11.25" class="st5"/>
					<text x="4" y="236.76" class="st6" v:langID="1033"><v:paragraph v:horizAlign="1"/><v:tabList/>2</text>				</g>
			</g>
			<g id="shape127-65" v:mID="127" v:groupContext="shape" transform="translate(84.375,-69.75)">
				<title>Circle.143</title>
				<path d="M0 234.36 A5.625 5.625 0 0 1 11.25 234.36 A5.625 5.625 0 1 1 0 234.36 Z" class="st4"/>
			</g>
			<g id="shape128-67" v:mID="128" v:groupContext="shape" transform="translate(84.375,-69.75)">
				<title>Sheet.128</title>
				<desc>3</desc>
				<v:textBlock v:margins="rect(4,4,4,4)"/>
				<v:textRect cx="4.21875" cy="234.36" width="8.44" height="11.25"/>
				<rect x="0" y="228.735" width="8.4375" height="11.25" class="st5"/>
				<text x="4" y="236.76" class="st6" v:langID="1033"><v:paragraph v:horizAlign="1"/><v:tabList/>3</text>			</g>
			<g id="shape129-70" v:mID="129" v:groupContext="shape" transform="translate(111.375,-69.75)">
				<title>Circle.145</title>
				<path d="M0 234.36 A5.625 5.625 0 0 1 11.25 234.36 A5.625 5.625 0 1 1 0 234.36 Z" class="st4"/>
			</g>
			<g id="shape130-72" v:mID="130" v:groupContext="shape" transform="translate(111.375,-69.75)">
				<title>Sheet.130</title>
				<desc>4</desc>
				<v:textBlock v:margins="rect(4,4,4,4)"/>
				<v:textRect cx="4.21875" cy="234.36" width="8.44" height="11.25"/>
				<rect x="0" y="228.735" width="8.4375" height="11.25" class="st5"/>
				<text x="4" y="236.76" class="st6" v:langID="1033"><v:paragraph v:horizAlign="1"/><v:tabList/>4</text>			</g>
			<g id="shape131-75" v:mID="131" v:groupContext="shape" transform="translate(133.875,-69.75)">
				<title>Circle.147</title>
				<path d="M0 234.36 A5.625 5.625 0 0 1 11.25 234.36 A5.625 5.625 0 1 1 0 234.36 Z" class="st4"/>
			</g>
			<g id="shape132-77" v:mID="132" v:groupContext="shape" transform="translate(133.875,-69.75)">
				<title>Sheet.132</title>
				<desc>5</desc>
				<v:textBlock v:margins="rect(4,4,4,4)"/>
				<v:textRect cx="4.21875" cy="234.36" width="8.44" height="11.25"/>
				<rect x="0" y="228.735" width="8.4375" height="11.25" class="st5"/>
				<text x="4" y="236.76" class="st6" v:langID="1033"><v:paragraph v:horizAlign="1"/><v:tabList/>5</text>			</g>
			<g id="shape133-80" v:mID="133" v:groupContext="shape" transform="translate(147.375,-69.75)">
				<title>Circle.149</title>
				<path d="M0 234.36 A5.625 5.625 0 0 1 11.25 234.36 A5.625 5.625 0 1 1 0 234.36 Z" class="st4"/>
			</g>
			<g id="shape134-82" v:mID="134" v:groupContext="shape" transform="translate(147.375,-69.75)">
				<title>Sheet.134</title>
				<desc>6</desc>
				<v:textBlock v:margins="rect(4,4,4,4)"/>
				<v:textRect cx="4.21875" cy="234.36" width="8.44" height="11.25"/>
				<rect x="0" y="228.735" width="8.4375" height="11.25" class="st5"/>
				<text x="4" y="236.76" class="st6" v:langID="1033"><v:paragraph v:horizAlign="1"/><v:tabList/>6</text>			</g>
			<g id="shape135-85" v:mID="135" v:groupContext="shape" transform="translate(2.25,-146.25)">
				<title>Sheet.135</title>
				<desc>R</desc>
				<v:textBlock v:margins="rect(4,4,4,4)"/>
				<v:textRect cx="7.3125" cy="230.985" width="14.63" height="18"/>
				<rect x="0" y="221.985" width="14.625" height="18" class="st5"/>
				<text x="4" y="233.99" class="st7" v:langID="1033"><v:paragraph v:horizAlign="1"/><v:tabList/>R</text>			</g>
			<g id="shape136-88" v:mID="136" v:groupContext="shape" transform="translate(2.25,-128.25)">
				<title>Sheet.136</title>
				<desc>S</desc>
				<v:textBlock v:margins="rect(4,4,4,4)"/>
				<v:textRect cx="7.3125" cy="233.235" width="14.63" height="13.5"/>
				<rect x="0" y="226.485" width="14.625" height="13.5" class="st5"/>
				<text x="4" y="236.24" class="st7" v:langID="1033"><v:paragraph v:horizAlign="1"/><v:tabList/>S</text>			</g>
			<g id="shape137-91" v:mID="137" v:groupContext="shape" transform="translate(2.25,-92.25)">
				<title>Sheet.137</title>
				<desc>Q</desc>
				<v:textBlock v:margins="rect(4,4,4,4)"/>
				<v:textRect cx="7.3125" cy="233.235" width="14.63" height="13.5"/>
				<rect x="0" y="226.485" width="14.625" height="13.5" class="st5"/>
				<text x="4" y="236.24" class="st7" v:langID="1033"><v:paragraph v:horizAlign="1"/><v:tabList/>Q</text>			</g>
			<g id="group138-94" transform="translate(20.25,315.721) scale(1,-1)" v:mID="138" v:groupContext="group">
				<title>Sheet.138</title>
				<g id="shape139-95" v:mID="139" v:groupContext="shape">
					<title>Sheet.139</title>
					<path d="M0 226.49 L15.75 226.49 L15.75 239.99" class="st2"/>
				</g>
				<g id="shape140-98" v:mID="140" v:groupContext="shape" transform="translate(15.75,2.84217E-014)">
					<title>Sheet.140</title>
					<path d="M0 239.99 L13.5 239.99" class="st2"/>
				</g>
				<g id="shape141-101" v:mID="141" v:groupContext="shape" transform="translate(29.25,2.84217E-014)">
					<title>Sheet.141</title>
					<path d="M0 239.99 L0 226.49 L40.5 226.49 L40.5 239.99 L54 239.99 L54 226.49 L90 226.49 L90 239.99 L103.5 239.99
								 L126 239.99" class="st2"/>
				</g>
			</g>
			<g id="group142-104" transform="translate(22.5,374.221) scale(1,-1)" v:mID="142" v:groupContext="group">
				<title>Sheet.142</title>
				<g id="shape143-105" v:mID="143" v:groupContext="shape" transform="translate(0,-13.5)">
					<title>Sheet.143</title>
					<path d="M0 239.99 L13.5 239.99" class="st2"/>
				</g>
				<g id="shape144-108" v:mID="144" v:groupContext="shape">
					<title>Sheet.144</title>
					<path d="M0 239.99 L13.5 239.99" class="st2"/>
				</g>
				<g id="shape145-111" v:mID="145" v:groupContext="shape" transform="translate(253.485,226.485) rotate(90)">
					<title>Sheet.145</title>
					<path d="M0 239.99 L13.5 239.99" class="st2"/>
				</g>
				<g id="shape146-114" v:mID="146" v:groupContext="shape" transform="translate(13.5,2.84217E-014)">
					<title>Sheet.146</title>
					<path d="M0 239.99 L13.5 239.99 L27 239.99 L27 226.49 L54 226.49 L54 239.99 L81 239.99 L81 226.49 L117 226.49
								 L117 239.99 L139.5 239.99" class="st2"/>
				</g>
				<g id="shape147-117" v:mID="147" v:groupContext="shape">
					<title>Sheet.147</title>
					<path d="M0 226.49 L2.25 239.99 L4.5 226.49 L6.75 239.99 L9 226.49 L11.25 239.99 L13.5 226.49" class="st2"/>
				</g>
				<g id="shape148-120" v:mID="148" v:groupContext="shape">
					<title>Sheet.148</title>
					<path d="M0 239.99 L2.25 226.49 L4.5 239.99 L6.75 226.49 L9 239.99 L11.25 226.49 L13.5 239.99" class="st2"/>
				</g>
			</g>
			<g id="shape149-123" v:mID="149" v:groupContext="shape" transform="translate(30.375,-195.75)">
				<title>Sheet.149</title>
				<desc>R</desc>
				<v:textBlock v:margins="rect(4,4,4,4)"/>
				<v:textRect cx="7.3125" cy="230.985" width="14.63" height="18"/>
				<rect x="0" y="221.985" width="14.625" height="18" class="st5"/>
				<text x="4" y="233.99" class="st7" v:langID="1033"><v:paragraph v:horizAlign="1"/><v:tabList/>R</text>			</g>
			<g id="shape150-126" v:mID="150" v:groupContext="shape" transform="translate(30.375,-177.75)">
				<title>Sheet.150</title>
				<desc>S</desc>
				<v:textBlock v:margins="rect(4,4,4,4)"/>
				<v:textRect cx="7.3125" cy="230.985" width="14.63" height="18"/>
				<rect x="0" y="221.985" width="14.625" height="18" class="st5"/>
				<text x="4" y="233.99" class="st7" v:langID="1033"><v:paragraph v:horizAlign="1"/><v:tabList/>S</text>			</g>
			<g id="shape151-129" v:mID="151" v:groupContext="shape" transform="translate(135,-186.75)">
				<title>Sheet.151</title>
				<desc>Q</desc>
				<v:textBlock v:margins="rect(4,4,4,4)"/>
				<v:textRect cx="7.3125" cy="235.485" width="14.63" height="9"/>
				<rect x="0" y="230.985" width="14.625" height="9" class="st5"/>
				<text x="4" y="238.49" class="st7" v:langID="1033"><v:paragraph v:horizAlign="1"/><v:tabList/>Q</text>			</g>
			<g id="shape152-132" v:mID="152" v:groupContext="shape">
				<title>Sheet.152</title>
				<desc>1. Q is undefined until R is asserted 2. Q → &#39;0&#39; when S is as...</desc>
				<v:textBlock v:margins="rect(4,4,4,4)"/>
				<v:textRect cx="101.25" cy="220.86" width="202.5" height="38.25"/>
				<rect x="0" y="201.735" width="202.5" height="38.25" class="st5"/>
				<text x="4" y="193.86" class="st7" v:langID="1033"><v:paragraph/><v:tabList/>1. Q is undefined until R is asserted<v:newlineChar/><tspan
							x="4" dy="1.2em" class="st8">2</tspan>. Q → &#39;0&#39; when S is asserted<v:newlineChar/><tspan x="4"
							dy="1.2em" class="st8">3</tspan>. Q → &#39;1&#39; when R is asserted<v:newlineChar/><tspan x="4"
							dy="1.2em" class="st8">4</tspan>. Q → &#39;0&#39; when S is asserted<v:newlineChar/><tspan x="4"
							dy="1.2em" class="st8">5</tspan>. Q stays at &#39;0&#39; when S &#38; R asserted<v:newlineChar/><tspan
							x="4" dy="1.2em" class="st8">6</tspan>. Q → &#39;1&#39; R when asserted, S de-asserted  </text>			</g>
		</g>
		<g id="group154-140" transform="translate(220.86,-16.8753)" v:mID="154" v:groupContext="group">
			<title>Sheet.154</title>
			<g id="shape1-141" v:mID="1" v:groupContext="shape" transform="translate(57.375,-200.25)">
				<title>Sheet.1</title>
				<path d="M0 221.99 L13.75 221.99 A8.75 9 0 0 1 22.5 230.99 A7.5 9 0 0 1 15 239.99 L0 239.99 L0 221.99 Z"
						class="st9"/>
			</g>
			<g id="shape2-143" v:mID="2" v:groupContext="shape" transform="translate(97.875,293.221) rotate(180)">
				<title>Sheet.2</title>
				<path d="M0 239.99 L54 239.99" class="st2"/>
			</g>
			<g id="shape3-146" v:mID="3" v:groupContext="shape" transform="translate(57.375,275.221) rotate(180)">
				<title>Sheet.3</title>
				<path d="M0 239.99 L13.5 239.99" class="st2"/>
			</g>
			<g id="shape4-149" v:mID="4" v:groupContext="shape" transform="translate(82.4063,-195.75)">
				<title>Sheet.4</title>
				<path d="M0 226.49 L4.5 226.49 L4.5 239.99 L18 239.99" class="st2"/>
			</g>
			<g id="shape5-152" v:mID="5" v:groupContext="shape" transform="translate(115.875,-191.25)">
				<title>Sheet.5</title>
				<path d="M0 239.99 L18 239.99" class="st2"/>
			</g>
			<g id="shape6-155" v:mID="6" v:groupContext="shape" transform="translate(52.875,-191.25)">
				<title>Sheet.6</title>
				<path d="M72 239.99 L72 208.49 L0 208.49 L0 217.49 L4.5 217.49" class="st2"/>
			</g>
			<g id="shape7-158" v:mID="7" v:groupContext="shape" transform="translate(93.375,279.721) scale(1,-1)">
				<title>Sheet.7</title>
				<path d="M0 221.99 L0.91 224.41 L1.52 227.04 L1.82 229.67 L1.82 232.3 L1.52 234.93 L0.91 237.46 L0 239.99 L9.83 239.99
							 L12.06 239.48 L14.18 238.67 L16.31 237.56 L18.13 236.24 L19.86 234.63 L21.28 232.91 L22.59 230.99 L21.28
							 228.96 L19.86 227.24 L18.13 225.63 L16.31 224.31 L14.18 223.3 L12.06 222.49 L9.83 221.99 L0 221.99 Z"
						class="st9"/>
			</g>
			<g id="shape8-160" v:mID="8" v:groupContext="shape" transform="translate(124.313,-190.688)">
				<title>Circle.79</title>
				<path d="M0 239.42 a0.5625 0.5625 0 0 1 1.125 0 a0.5625 0.5625 0 1 1 -1.125 0 Z" class="st10"/>
			</g>
			<g id="shape9-162" v:mID="9" v:groupContext="shape" transform="translate(29.25,-195.75)">
				<title>Sheet.9</title>
				<desc>R</desc>
				<v:textBlock v:margins="rect(4,4,4,4)"/>
				<v:textRect cx="7.3125" cy="230.985" width="14.63" height="18"/>
				<rect x="0" y="221.985" width="14.625" height="18" class="st5"/>
				<text x="4" y="233.99" class="st7" v:langID="1033"><v:paragraph v:horizAlign="1"/><v:tabList/>R</text>			</g>
			<g id="shape10-165" v:mID="10" v:groupContext="shape" transform="translate(29.25,-177.75)">
				<title>Sheet.10</title>
				<desc>S</desc>
				<v:textBlock v:margins="rect(4,4,4,4)"/>
				<v:textRect cx="7.3125" cy="230.985" width="14.63" height="18"/>
				<rect x="0" y="221.985" width="14.625" height="18" class="st5"/>
				<text x="4" y="233.99" class="st7" v:langID="1033"><v:paragraph v:horizAlign="1"/><v:tabList/>S</text>			</g>
			<g id="shape11-168" v:mID="11" v:groupContext="shape" transform="translate(133.875,-186.75)">
				<title>Sheet.11</title>
				<desc>Q</desc>
				<v:textBlock v:margins="rect(4,4,4,4)"/>
				<v:textRect cx="7.3125" cy="235.485" width="14.63" height="9"/>
				<rect x="0" y="230.985" width="14.625" height="9" class="st5"/>
				<text x="4" y="238.49" class="st7" v:langID="1033"><v:paragraph v:horizAlign="1"/><v:tabList/>Q</text>			</g>
			<g id="shape12-171" v:mID="12" v:groupContext="shape" transform="translate(18,-150.75)">
				<title>Sheet.12</title>
				<path d="M0 226.49 L15.75 226.49 L15.75 239.99" class="st2"/>
			</g>
			<g id="shape13-174" v:mID="13" v:groupContext="shape" transform="translate(33.75,-150.75)">
				<title>Sheet.13</title>
				<path d="M0 239.99 L13.5 239.99" class="st2"/>
			</g>
			<g id="shape14-177" v:mID="14" v:groupContext="shape" transform="translate(47.25,-150.75)">
				<title>Sheet.14</title>
				<path d="M0 239.99 L0 226.49 L40.5 226.49 L40.5 239.99 L54 239.99 L54 226.49 L90 226.49 L90 239.99 L103.5 239.99
							 L126 239.99" class="st2"/>
			</g>
			<g id="shape17-180" v:mID="17" v:groupContext="shape" transform="translate(273.735,89.2353) rotate(90)">
				<title>Sheet.17</title>
				<path d="M0 239.99 L69.75 239.99" class="st3"/>
			</g>
			<g id="shape18-183" v:mID="18" v:groupContext="shape" transform="translate(300.735,102.735) rotate(90)">
				<title>Sheet.18</title>
				<path d="M0 239.99 L56.25 239.99" class="st3"/>
			</g>
			<g id="shape19-186" v:mID="19" v:groupContext="shape" transform="translate(354.735,102.735) rotate(90)">
				<title>Sheet.19</title>
				<path d="M0 239.99 L56.25 239.99" class="st3"/>
			</g>
			<g id="shape20-189" v:mID="20" v:groupContext="shape" transform="translate(327.735,89.2353) rotate(90)">
				<title>Sheet.20</title>
				<path d="M0 239.99 L69.75 239.99" class="st3"/>
			</g>
			<g id="shape21-192" v:mID="21" v:groupContext="shape" transform="translate(377.235,89.2353) rotate(90)">
				<title>Sheet.21</title>
				<path d="M0 239.99 L69.75 239.99" class="st3"/>
			</g>
			<g id="shape22-195" v:mID="22" v:groupContext="shape" transform="translate(390.735,89.2353) rotate(90)">
				<title>Sheet.22</title>
				<path d="M0 239.99 L69.75 239.99" class="st3"/>
			</g>
			<g id="group23-198" transform="translate(28.125,-69.75)" v:mID="23" v:groupContext="group">
				<title>Sheet.23</title>
				<g id="shape24-199" v:mID="24" v:groupContext="shape">
					<title>Circle.96</title>
					<path d="M0 234.36 A5.625 5.625 0 0 1 11.25 234.36 A5.625 5.625 0 1 1 0 234.36 Z" class="st4"/>
				</g>
				<g id="shape25-201" v:mID="25" v:groupContext="shape">
					<title>Sheet.25</title>
					<desc>1</desc>
					<v:textBlock v:margins="rect(4,4,4,4)"/>
					<v:textRect cx="4.21875" cy="234.36" width="8.44" height="11.25"/>
					<rect x="0" y="228.735" width="8.4375" height="11.25" class="st5"/>
					<text x="4" y="236.76" class="st6" v:langID="1033"><v:paragraph v:horizAlign="1"/><v:tabList/>1</text>				</g>
			</g>
			<g id="group26-204" transform="translate(55.125,-69.75)" v:mID="26" v:groupContext="group">
				<title>Sheet.26</title>
				<g id="shape27-205" v:mID="27" v:groupContext="shape">
					<title>Circle.96</title>
					<path d="M0 234.36 A5.625 5.625 0 0 1 11.25 234.36 A5.625 5.625 0 1 1 0 234.36 Z" class="st4"/>
				</g>
				<g id="shape28-207" v:mID="28" v:groupContext="shape">
					<title>Sheet.28</title>
					<desc>2</desc>
					<v:textBlock v:margins="rect(4,4,4,4)"/>
					<v:textRect cx="4.21875" cy="234.36" width="8.44" height="11.25"/>
					<rect x="0" y="228.735" width="8.4375" height="11.25" class="st5"/>
					<text x="4" y="236.76" class="st6" v:langID="1033"><v:paragraph v:horizAlign="1"/><v:tabList/>2</text>				</g>
			</g>
			<g id="shape29-210" v:mID="29" v:groupContext="shape" transform="translate(82.125,-69.75)">
				<title>Circle.96</title>
				<path d="M0 234.36 A5.625 5.625 0 0 1 11.25 234.36 A5.625 5.625 0 1 1 0 234.36 Z" class="st4"/>
			</g>
			<g id="shape30-212" v:mID="30" v:groupContext="shape" transform="translate(82.125,-69.75)">
				<title>Sheet.30</title>
				<desc>3</desc>
				<v:textBlock v:margins="rect(4,4,4,4)"/>
				<v:textRect cx="4.21875" cy="234.36" width="8.44" height="11.25"/>
				<rect x="0" y="228.735" width="8.4375" height="11.25" class="st5"/>
				<text x="4" y="236.76" class="st6" v:langID="1033"><v:paragraph v:horizAlign="1"/><v:tabList/>3</text>			</g>
			<g id="shape31-215" v:mID="31" v:groupContext="shape" transform="translate(109.125,-69.75)">
				<title>Circle.102</title>
				<path d="M0 234.36 A5.625 5.625 0 0 1 11.25 234.36 A5.625 5.625 0 1 1 0 234.36 Z" class="st4"/>
			</g>
			<g id="shape32-217" v:mID="32" v:groupContext="shape" transform="translate(109.125,-69.75)">
				<title>Sheet.32</title>
				<desc>4</desc>
				<v:textBlock v:margins="rect(4,4,4,4)"/>
				<v:textRect cx="4.21875" cy="234.36" width="8.44" height="11.25"/>
				<rect x="0" y="228.735" width="8.4375" height="11.25" class="st5"/>
				<text x="4" y="236.76" class="st6" v:langID="1033"><v:paragraph v:horizAlign="1"/><v:tabList/>4</text>			</g>
			<g id="shape33-220" v:mID="33" v:groupContext="shape" transform="translate(131.625,-69.75)">
				<title>Circle.106</title>
				<path d="M0 234.36 A5.625 5.625 0 0 1 11.25 234.36 A5.625 5.625 0 1 1 0 234.36 Z" class="st4"/>
			</g>
			<g id="shape34-222" v:mID="34" v:groupContext="shape" transform="translate(131.625,-69.75)">
				<title>Sheet.34</title>
				<desc>5</desc>
				<v:textBlock v:margins="rect(4,4,4,4)"/>
				<v:textRect cx="4.21875" cy="234.36" width="8.44" height="11.25"/>
				<rect x="0" y="228.735" width="8.4375" height="11.25" class="st5"/>
				<text x="4" y="236.76" class="st6" v:langID="1033"><v:paragraph v:horizAlign="1"/><v:tabList/>5</text>			</g>
			<g id="shape35-225" v:mID="35" v:groupContext="shape" transform="translate(145.125,-69.75)">
				<title>Circle.108</title>
				<path d="M0 234.36 A5.625 5.625 0 0 1 11.25 234.36 A5.625 5.625 0 1 1 0 234.36 Z" class="st4"/>
			</g>
			<g id="shape36-227" v:mID="36" v:groupContext="shape" transform="translate(145.125,-69.75)">
				<title>Sheet.36</title>
				<desc>6</desc>
				<v:textBlock v:margins="rect(4,4,4,4)"/>
				<v:textRect cx="4.21875" cy="234.36" width="8.44" height="11.25"/>
				<rect x="0" y="228.735" width="8.4375" height="11.25" class="st5"/>
				<text x="4" y="236.76" class="st6" v:langID="1033"><v:paragraph v:horizAlign="1"/><v:tabList/>6</text>			</g>
			<g id="shape37-230" v:mID="37" v:groupContext="shape" transform="translate(20.25,-105.75)">
				<title>Sheet.37</title>
				<path d="M0 239.99 L13.5 239.99" class="st2"/>
			</g>
			<g id="shape38-233" v:mID="38" v:groupContext="shape" transform="translate(20.25,-92.25)">
				<title>Sheet.38</title>
				<path d="M0 239.99 L13.5 239.99" class="st2"/>
			</g>
			<g id="shape39-236" v:mID="39" v:groupContext="shape" transform="translate(273.735,134.235) rotate(90)">
				<title>Sheet.39</title>
				<path d="M0 239.99 L13.5 239.99" class="st2"/>
			</g>
			<g id="shape40-239" v:mID="40" v:groupContext="shape" transform="translate(33.75,-92.25)">
				<title>Sheet.40</title>
				<path d="M0 239.99 L13.5 239.99 L27 239.99 L27 226.49 L54 226.49 L54 239.99 L81 239.99 L81 226.49 L117 226.49 L117
							 239.99 L139.5 239.99" class="st2"/>
			</g>
			<g id="shape41-242" v:mID="41" v:groupContext="shape" transform="translate(0,-146.25)">
				<title>Sheet.41</title>
				<desc>R</desc>
				<v:textBlock v:margins="rect(4,4,4,4)"/>
				<v:textRect cx="7.3125" cy="230.985" width="14.63" height="18"/>
				<rect x="0" y="221.985" width="14.625" height="18" class="st5"/>
				<text x="4" y="233.99" class="st7" v:langID="1033"><v:paragraph v:horizAlign="1"/><v:tabList/>R</text>			</g>
			<g id="shape42-245" v:mID="42" v:groupContext="shape" transform="translate(0,-128.25)">
				<title>Sheet.42</title>
				<desc>S</desc>
				<v:textBlock v:margins="rect(4,4,4,4)"/>
				<v:textRect cx="7.3125" cy="233.235" width="14.63" height="13.5"/>
				<rect x="0" y="226.485" width="14.625" height="13.5" class="st5"/>
				<text x="4" y="236.24" class="st7" v:langID="1033"><v:paragraph v:horizAlign="1"/><v:tabList/>S</text>			</g>
			<g id="shape43-248" v:mID="43" v:groupContext="shape" transform="translate(0,-92.25)">
				<title>Sheet.43</title>
				<desc>Q</desc>
				<v:textBlock v:margins="rect(4,4,4,4)"/>
				<v:textRect cx="7.3125" cy="233.235" width="14.63" height="13.5"/>
				<rect x="0" y="226.485" width="14.625" height="13.5" class="st5"/>
				<text x="4" y="236.24" class="st7" v:langID="1033"><v:paragraph v:horizAlign="1"/><v:tabList/>Q</text>			</g>
			<g id="shape84-251" v:mID="84" v:groupContext="shape" transform="translate(20.25,-92.25)">
				<title>Sheet.84</title>
				<path d="M0 226.49 L2.25 239.99 L4.5 226.49 L6.75 239.99 L9 226.49 L11.25 239.99 L13.5 226.49" class="st2"/>
			</g>
			<g id="shape85-254" v:mID="85" v:groupContext="shape" transform="translate(20.25,-92.25)">
				<title>Sheet.85</title>
				<path d="M0 239.99 L2.25 226.49 L4.5 239.99 L6.75 226.49 L9 239.99 L11.25 226.49 L13.5 239.99" class="st2"/>
			</g>
			<g id="shape86-257" v:mID="86" v:groupContext="shape">
				<title>Sheet.86</title>
				<desc>1. Q is undefined until R is asserted 2. Q → ‘1’ when S is as...</desc>
				<v:textBlock v:margins="rect(4,4,4,4)"/>
				<v:textRect cx="101.25" cy="220.86" width="202.5" height="38.25"/>
				<rect x="0" y="201.735" width="202.5" height="38.25" class="st5"/>
				<text x="4" y="193.86" class="st7" v:langID="1033"><v:paragraph/><v:tabList/>1. Q is undefined until R is asserted<v:newlineChar/><tspan
							x="4" dy="1.2em" class="st8">2</tspan>. Q → ‘1’ when S is asserted<v:newlineChar/><tspan x="4"
							dy="1.2em" class="st8">3</tspan>. Q → &#39;0&#39; when R is asserted<v:newlineChar/><tspan x="4"
							dy="1.2em" class="st8">4</tspan>. Q → &#39;1&#39; when S is asserted<v:newlineChar/><tspan x="4"
							dy="1.2em" class="st8">5</tspan>. Q stays at &#39;1&#39; when S &#38; R asserted<v:newlineChar/><tspan
							x="4" dy="1.2em" class="st8">6</tspan>. Q → &#39;0&#39; when R asserted, S de-asserted  </text>			</g>
			<g id="shape98-265" v:mID="98" v:groupContext="shape" transform="translate(90,-193.184)">
				<title>Circle.98</title>
				<path d="M0 237.74 A2.25 2.25 0 0 1 4.5 237.74 A2.25 2.25 0 1 1 0 237.74 Z" class="st11"/>
			</g>
			<g id="shape99-267" v:mID="99" v:groupContext="shape" transform="translate(90,-184.746)">
				<title>Circle.99</title>
				<path d="M0 237.74 A2.25 2.25 0 0 1 4.5 237.74 A2.25 2.25 0 1 1 0 237.74 Z" class="st11"/>
			</g>
			<g id="shape100-269" v:mID="100" v:groupContext="shape" transform="translate(79.875,-207)">
				<title>Circle.100</title>
				<path d="M0 237.74 A2.25 2.25 0 0 1 4.5 237.74 A2.25 2.25 0 1 1 0 237.74 Z" class="st11"/>
			</g>
			<g id="group101-271" transform="translate(18,338.221) scale(1,-1)" v:mID="101" v:groupContext="group">
				<title>Sheet.101</title>
				<g id="shape15-272" v:mID="15" v:groupContext="shape">
					<title>Sheet.15</title>
					<path d="M0 239.99 L42.75 239.99 L42.75 226.49 L56.25 226.49 L56.25 239.99 L96.75 239.99 L96.75 226.49 L132.75
								 226.49" class="st2"/>
				</g>
				<g id="shape16-275" v:mID="16" v:groupContext="shape" transform="translate(132.75,2.84217E-014)">
					<title>Sheet.16</title>
					<path d="M0 226.49 L0 239.99 L22.5 239.99" class="st2"/>
				</g>
			</g>
		</g>
	</g>
</svg>
