<?xml version="1.0" encoding="UTF-8" standalone="no"?>
<!DOCTYPE svg PUBLIC "-//W3C//DTD SVG 1.1//EN" "http://www.w3.org/Graphics/SVG/1.1/DTD/svg11.dtd">
<!-- Generated by Microsoft Visio, SVG Export SeqTiming.svg Page-1 -->
<svg xmlns="http://www.w3.org/2000/svg" xmlns:xlink="http://www.w3.org/1999/xlink" xmlns:ev="http://www.w3.org/2001/xml-events"
		xmlns:v="http://schemas.microsoft.com/visio/2003/SVGExtensions/" width="3.51in" height="1.93646in"
		viewBox="0 0 252.72 139.425" xml:space="preserve" color-interpolation-filters="sRGB" class="st9">
	<v:documentProperties v:langID="1033" v:viewMarkup="false"/>

	<style type="text/css">
	<![CDATA[
		.st1 {stroke:#000000;stroke-linecap:round;stroke-linejoin:round;stroke-width:0.72}
		.st2 {fill:none;stroke:none;stroke-linecap:round;stroke-linejoin:round;stroke-width:0.72}
		.st3 {fill:#000000;font-family:Arial;font-size:0.833336em}
		.st4 {baseline-shift:-32.4947%;font-size:0.649894em}
		.st5 {stroke:#000000;stroke-dasharray:0,2.16;stroke-linecap:round;stroke-linejoin:round;stroke-width:0.72}
		.st6 {fill:#abe0ae;fill-opacity:0.75;stroke:#000000;stroke-linecap:round;stroke-linejoin:round;stroke-width:0.72}
		.st7 {fill:#000000;font-family:Arial;font-size:0.75em;font-weight:bold}
		.st8 {stroke:#ffffff;stroke-linecap:round;stroke-linejoin:round;stroke-width:0.72}
		.st9 {fill:none;fill-rule:evenodd;font-size:12px;overflow:visible;stroke-linecap:square;stroke-miterlimit:3}
	]]>
	</style>

	<g v:mID="0" v:index="1" v:groupContext="foregroundPage">
		<title>Page-1</title>
		<v:pageProperties v:drawingScale="1" v:pageScale="1" v:drawingUnits="19" v:shadowOffsetX="9" v:shadowOffsetY="-9"/>
		<g id="shape1-1" v:mID="1" v:groupContext="shape" transform="translate(65.61,-128.925)">
			<title>Sheet.1</title>
			<path d="M0 139.43 L18 139.43 L18 130.43 L36 130.43 L36 139.43" class="st1"/>
		</g>
		<g id="shape2-4" v:mID="2" v:groupContext="shape" transform="translate(101.61,-128.925)">
			<title>Sheet.2</title>
			<path d="M0 139.43 L18 139.43 L18 130.43 L36 130.43 L36 139.43" class="st1"/>
		</g>
		<g id="shape3-7" v:mID="3" v:groupContext="shape" transform="translate(137.61,-128.925)">
			<title>Sheet.3</title>
			<path d="M0 139.43 L18 139.43 L18 130.43 L36 130.43 L36 139.43" class="st1"/>
		</g>
		<g id="shape4-10" v:mID="4" v:groupContext="shape" transform="translate(173.61,-128.925)">
			<title>Sheet.4</title>
			<path d="M0 139.43 L18 139.43 L18 130.43 L36 130.43 L36 139.43" class="st1"/>
		</g>
		<g id="shape5-13" v:mID="5" v:groupContext="shape" transform="translate(209.61,-128.925)">
			<title>Sheet.5</title>
			<path d="M0 139.43 L18 139.43 L18 130.43 L36 130.43 L36 139.43" class="st1"/>
		</g>
		<g id="shape6-16" v:mID="6" v:groupContext="shape" transform="translate(7.11,-128.925)">
			<title>Sheet.6</title>
			<desc>Clk</desc>
			<v:textBlock v:margins="rect(4,4,4,4)"/>
			<v:textRect cx="11.25" cy="134.925" width="22.5" height="9"/>
			<rect x="0" y="130.425" width="22.5" height="9" class="st2"/>
			<text x="4.06" y="137.93" class="st3" v:langID="1033"><v:paragraph v:horizAlign="2"/><v:tabList/>Clk</text>		</g>
		<g id="shape7-19" v:mID="7" v:groupContext="shape" transform="translate(4.86,-110.925)">
			<title>Sheet.7</title>
			<desc>Rst</desc>
			<v:textBlock v:margins="rect(4,4,4,4)"/>
			<v:textRect cx="12.375" cy="134.925" width="24.75" height="9"/>
			<rect x="0" y="130.425" width="24.75" height="9" class="st2"/>
			<text x="5.75" y="137.93" class="st3" v:langID="1033"><v:paragraph v:horizAlign="2"/><v:tabList/>Rst</text>		</g>
		<g id="shape8-22" v:mID="8" v:groupContext="shape" transform="translate(29.61,-110.925)">
			<title>Sheet.8</title>
			<path d="M0 139.43 L4.5 139.43 L4.5 130.43 L13.5 130.43 L13.5 139.43 L216 139.43" class="st1"/>
		</g>
		<g id="shape9-25" v:mID="9" v:groupContext="shape" transform="translate(29.61,-92.9251)">
			<title>Sheet.9</title>
			<path d="M0 139.43 L36 139.43 L36 130.43 L108 130.43 L108 139.43 L180 139.43 L180 130.43 L216 130.43" class="st1"/>
		</g>
		<g id="shape10-28" v:mID="10" v:groupContext="shape" transform="translate(29.61,-74.9251)">
			<title>Sheet.10</title>
			<path d="M0 139.43 L108 139.43 L108 130.43 L144 130.43 L144 139.43 L216 139.43" class="st1"/>
		</g>
		<g id="shape11-31" v:mID="11" v:groupContext="shape" transform="translate(34.11,-56.9251)">
			<title>Sheet.11</title>
			<path d="M0 139.43 L54 139.43 L54 130.43 L90 130.43 L90 139.43 L211.5 139.43" class="st1"/>
		</g>
		<g id="shape12-34" v:mID="12" v:groupContext="shape" transform="translate(34.11,-38.9251)">
			<title>Sheet.12</title>
			<path d="M0 139.43 L198 139.43 L198 130.43 L211.5 130.43" class="st1"/>
		</g>
		<g id="shape13-37" v:mID="13" v:groupContext="shape" transform="translate(34.11,-20.9251)">
			<title>Sheet.13</title>
			<path d="M0 139.43 L126 139.43 L126 130.43 L180 130.43 L180 139.43 L211.5 139.43" class="st1"/>
		</g>
		<g id="shape14-40" v:mID="14" v:groupContext="shape" transform="translate(11.61,-92.9251)">
			<title>Sheet.14</title>
			<desc>I0</desc>
			<v:textBlock v:margins="rect(4,4,4,4)"/>
			<v:textRect cx="9" cy="134.925" width="18" height="9"/>
			<rect x="0" y="130.425" width="18" height="9" class="st2"/>
			<text x="7.61" y="137.93" class="st3" v:langID="1033"><v:paragraph v:horizAlign="2"/><v:tabList/>I<tspan dy="-0.287em"
						class="st4" v:baseFontSize="10">0</tspan></text>		</g>
		<g id="shape15-44" v:mID="15" v:groupContext="shape" transform="translate(11.61,-74.9251)">
			<title>Sheet.15</title>
			<desc>I1</desc>
			<v:textBlock v:margins="rect(4,4,4,4)"/>
			<v:textRect cx="9" cy="134.925" width="18" height="9"/>
			<rect x="0" y="130.425" width="18" height="9" class="st2"/>
			<text x="7.61" y="137.93" class="st3" v:langID="1033"><v:paragraph v:horizAlign="2"/><v:tabList/>I<tspan dy="-0.287em"
						class="st4" v:baseFontSize="10">1</tspan></text>		</g>
		<g id="shape16-48" v:mID="16" v:groupContext="shape" transform="translate(7.11,-19.8001)">
			<title>Sheet.16</title>
			<desc>Y2</desc>
			<v:textBlock v:margins="rect(4,4,4,4)"/>
			<v:textRect cx="11.25" cy="134.925" width="22.5" height="9"/>
			<rect x="0" y="130.425" width="22.5" height="9" class="st2"/>
			<text x="6.27" y="137.93" class="st3" v:langID="1033"><v:paragraph v:horizAlign="2"/><v:tabList/>Y2</text>		</g>
		<g id="shape17-51" v:mID="17" v:groupContext="shape" transform="translate(7.11,-55.8001)">
			<title>Sheet.17</title>
			<desc>Y0</desc>
			<v:textBlock v:margins="rect(4,4,4,4)"/>
			<v:textRect cx="11.25" cy="134.925" width="22.5" height="9"/>
			<rect x="0" y="130.425" width="22.5" height="9" class="st2"/>
			<text x="8.22" y="137.93" class="st3" v:langID="1033"><v:paragraph v:horizAlign="2"/><v:tabList/>Y<tspan dy="-0.287em"
						class="st4" v:baseFontSize="10">0</tspan></text>		</g>
		<g id="shape18-55" v:mID="18" v:groupContext="shape" transform="translate(7.11,-37.8001)">
			<title>Sheet.18</title>
			<desc>Y1</desc>
			<v:textBlock v:margins="rect(4,4,4,4)"/>
			<v:textRect cx="11.25" cy="134.925" width="22.5" height="9"/>
			<rect x="0" y="130.425" width="22.5" height="9" class="st2"/>
			<text x="8.22" y="137.93" class="st3" v:langID="1033"><v:paragraph v:horizAlign="2"/><v:tabList/>Y<tspan dy="-0.287em"
						class="st4" v:baseFontSize="10">1</tspan></text>		</g>
		<g id="shape19-59" v:mID="19" v:groupContext="shape" transform="translate(0.36,-1.80011)">
			<title>Sheet.19</title>
			<desc>State</desc>
			<v:textBlock v:margins="rect(4,4,4,0)"/>
			<v:textRect cx="14.625" cy="134.925" width="29.25" height="9"/>
			<rect x="0" y="130.425" width="29.25" height="9" class="st2"/>
			<text x="1.9" y="137.93" class="st3" v:langID="1033"><v:paragraph v:horizAlign="2"/><v:tabList/>State</text>		</g>
		<g id="shape20-62" v:mID="20" v:groupContext="shape" transform="translate(295.035,10.4999) rotate(90)">
			<title>Sheet.20</title>
			<path d="M0 139.43 L117 139.43" class="st5"/>
		</g>
		<g id="shape21-65" v:mID="21" v:groupContext="shape" transform="translate(49.86,-0.67511)">
			<title>Sheet.21</title>
			<path d="M0 133.69 L2.25 128.18 L33.75 128.18 L36 133.8 L33.75 139.43 L2.25 139.43 L0 133.69 Z" class="st6"/>
		</g>
		<g id="shape22-67" v:mID="22" v:groupContext="shape" transform="translate(85.86,-0.67511)">
			<title>Sheet.22</title>
			<path d="M0 133.69 L2.25 128.18 L33.75 128.18 L36 133.8 L33.75 139.43 L2.25 139.43 L0 133.69 Z" class="st6"/>
		</g>
		<g id="shape23-69" v:mID="23" v:groupContext="shape" transform="translate(121.86,-0.67511)">
			<title>Sheet.23</title>
			<path d="M0 133.69 L2.25 128.18 L33.75 128.18 L36 133.8 L33.75 139.43 L2.25 139.43 L0 133.69 Z" class="st6"/>
		</g>
		<g id="shape24-71" v:mID="24" v:groupContext="shape" transform="translate(157.86,-0.67511)">
			<title>Sheet.24</title>
			<path d="M0 133.69 L2.25 128.18 L33.75 128.18 L36 133.8 L33.75 139.43 L2.25 139.43 L0 133.69 Z" class="st6"/>
		</g>
		<g id="shape25-73" v:mID="25" v:groupContext="shape" transform="translate(193.86,-0.67511)">
			<title>Sheet.25</title>
			<path d="M0 133.69 L2.25 128.18 L33.75 128.18 L36 133.8 L33.75 139.43 L2.25 139.43 L0 133.69 Z" class="st6"/>
		</g>
		<g id="shape26-75" v:mID="26" v:groupContext="shape" transform="translate(29.61,-0.67511)">
			<title>Sheet.26</title>
			<path d="M0 139.43 L0 128.18 L18.22 128.18 L20.25 133.8 L18.22 139.43 L0 139.43 Z" class="st6"/>
		</g>
		<g id="shape27-77" v:mID="27" v:groupContext="shape" transform="translate(252.36,-0.67511) scale(-1,1)">
			<title>Sheet.27</title>
			<path d="M0 139.43 L0 128.18 L20.25 128.18 L22.5 133.8 L20.25 139.43 L0 139.43 Z" class="st6"/>
		</g>
		<g id="shape28-79" v:mID="28" v:groupContext="shape" transform="translate(27.36,-0.67511)">
			<title>Sheet.28</title>
			<desc>000</desc>
			<v:textBlock v:margins="rect(4,0,4,0)"/>
			<v:textRect cx="9" cy="133.8" width="18" height="11.25"/>
			<rect x="0" y="128.175" width="18" height="11.25" class="st2"/>
			<text x="2.98" y="136.95" class="st7" v:langID="1033"><v:paragraph v:spLine="-1.4" v:horizAlign="2"/><v:tabList/>000</text>		</g>
		<g id="shape29-82" v:mID="29" v:groupContext="shape" transform="translate(50.985,-0.67511)">
			<title>Sheet.29</title>
			<desc>001</desc>
			<v:textBlock v:margins="rect(4,0,4,0)"/>
			<v:textRect cx="16.3125" cy="133.8" width="32.63" height="11.25"/>
			<rect x="0" y="128.175" width="32.625" height="11.25" class="st2"/>
			<text x="8.8" y="136.95" class="st7" v:langID="1033"><v:paragraph v:spLine="-1.4" v:horizAlign="1"/><v:tabList/>001</text>		</g>
		<g id="shape30-85" v:mID="30" v:groupContext="shape" transform="translate(87.5475,-0.67511)">
			<title>Sheet.30</title>
			<desc>011</desc>
			<v:textBlock v:margins="rect(4,0,4,0)"/>
			<v:textRect cx="16.3125" cy="133.8" width="32.63" height="11.25"/>
			<rect x="0" y="128.175" width="32.625" height="11.25" class="st2"/>
			<text x="8.8" y="136.95" class="st7" v:langID="1033"><v:paragraph v:spLine="-1.4" v:horizAlign="1"/><v:tabList/>011</text>		</g>
		<g id="shape31-88" v:mID="31" v:groupContext="shape" transform="translate(122.985,-0.67511)">
			<title>Sheet.31</title>
			<desc>010</desc>
			<v:textBlock v:margins="rect(4,0,4,0)"/>
			<v:textRect cx="16.3125" cy="133.8" width="32.63" height="11.25"/>
			<rect x="0" y="128.175" width="32.625" height="11.25" class="st2"/>
			<text x="8.8" y="136.95" class="st7" v:langID="1033"><v:paragraph v:spLine="-1.4" v:horizAlign="1"/><v:tabList/>010</text>		</g>
		<g id="shape32-91" v:mID="32" v:groupContext="shape" transform="translate(159.547,-0.67511)">
			<title>Sheet.32</title>
			<desc>010</desc>
			<v:textBlock v:margins="rect(4,0,4,0)"/>
			<v:textRect cx="16.3125" cy="133.8" width="32.63" height="11.25"/>
			<rect x="0" y="128.175" width="32.625" height="11.25" class="st2"/>
			<text x="8.8" y="136.95" class="st7" v:langID="1033"><v:paragraph v:spLine="-1.4" v:horizAlign="1"/><v:tabList/>010</text>		</g>
		<g id="shape33-94" v:mID="33" v:groupContext="shape" transform="translate(195.547,-0.67511)">
			<title>Sheet.33</title>
			<desc>110</desc>
			<v:textBlock v:margins="rect(4,0,4,0)"/>
			<v:textRect cx="16.3125" cy="133.8" width="32.63" height="11.25"/>
			<rect x="0" y="128.175" width="32.625" height="11.25" class="st2"/>
			<text x="8.8" y="136.95" class="st7" v:langID="1033"><v:paragraph v:spLine="-1.4" v:horizAlign="1"/><v:tabList/>110</text>		</g>
		<g id="shape34-97" v:mID="34" v:groupContext="shape" transform="translate(233.797,-0.67511)">
			<title>Sheet.34</title>
			<desc>100</desc>
			<v:textBlock v:margins="rect(4,0,4,0)"/>
			<v:textRect cx="8.15625" cy="133.8" width="16.32" height="11.25"/>
			<rect x="0" y="128.175" width="16.3125" height="11.25" class="st2"/>
			<text x="0" y="136.95" class="st7" v:langID="1033"><v:paragraph v:spLine="-1.4"/><v:tabList/>100</text>		</g>
		<g id="shape35-100" v:mID="35" v:groupContext="shape" transform="translate(259.035,10.4999) rotate(90)">
			<title>Sheet.35</title>
			<path d="M0 139.43 L117 139.43" class="st5"/>
		</g>
		<g id="shape36-103" v:mID="36" v:groupContext="shape" transform="translate(223.035,10.4999) rotate(90)">
			<title>Sheet.36</title>
			<path d="M0 139.43 L117 139.43" class="st5"/>
		</g>
		<g id="shape37-106" v:mID="37" v:groupContext="shape" transform="translate(187.035,10.4999) rotate(90)">
			<title>Sheet.37</title>
			<path d="M0 139.43 L117 139.43" class="st5"/>
		</g>
		<g id="shape38-109" v:mID="38" v:groupContext="shape" transform="translate(331.035,10.4999) rotate(90)">
			<title>Sheet.38</title>
			<path d="M0 139.43 L117 139.43" class="st5"/>
		</g>
		<g id="shape39-112" v:mID="39" v:groupContext="shape" transform="translate(367.035,10.4999) rotate(90)">
			<title>Sheet.39</title>
			<path d="M0 139.43 L117 139.43" class="st5"/>
		</g>
		<g id="shape40-115" v:mID="40" v:groupContext="shape" transform="translate(29.61,-128.925)">
			<title>Sheet.40</title>
			<path d="M0 139.43 L18 139.43 L18 130.43 L36 130.43 L36 139.43" class="st1"/>
		</g>
		<g id="shape41-118" v:mID="41" v:groupContext="shape" transform="translate(169.035,127.5) rotate(90)">
			<title>Sheet.41</title>
			<path d="M0 139.43 L11.25 139.43" class="st8"/>
		</g>
		<g id="shape42-121" v:mID="42" v:groupContext="shape" transform="translate(391.785,127.5) rotate(90)">
			<title>Sheet.42</title>
			<path d="M0 139.43 L11.25 139.43" class="st8"/>
		</g>
	</g>
</svg>
