<?xml version="1.0" encoding="UTF-8" standalone="no"?>
<!DOCTYPE svg PUBLIC "-//W3C//DTD SVG 1.1//EN" "http://www.w3.org/Graphics/SVG/1.1/DTD/svg11.dtd">
<!-- Generated by Microsoft Visio, SVG Export SOP .svg Page-1 -->
<svg xmlns="http://www.w3.org/2000/svg" xmlns:xlink="http://www.w3.org/1999/xlink" xmlns:ev="http://www.w3.org/2001/xml-events"
		xmlns:v="http://schemas.microsoft.com/visio/2003/SVGExtensions/" width="6.48094in" height="1.75438in"
		viewBox="0 0 466.627 126.315" xml:space="preserve" color-interpolation-filters="sRGB" class="st13">
	<v:documentProperties v:langID="1033" v:viewMarkup="false">
		<v:userDefs>
			<v:ud v:nameU="msvConvertTheme"/>
		</v:userDefs>
	</v:documentProperties>

	<style type="text/css">
	<![CDATA[
		.st1 {marker-end:url(#mrkr4-6);stroke:#000000;stroke-linecap:round;stroke-linejoin:round;stroke-width:0.72}
		.st2 {fill:#000000;fill-opacity:1;stroke:#000000;stroke-opacity:1;stroke-width:0.22222222222222}
		.st3 {stroke:#000000;stroke-linecap:round;stroke-linejoin:round;stroke-width:0.72}
		.st4 {fill:none;stroke:none;stroke-linecap:round;stroke-linejoin:round;stroke-width:0.72}
		.st5 {fill:#000000;font-family:Arial;font-size:0.833336em}
		.st6 {fill:#1a1a1a;stroke:#000000;stroke-linecap:round;stroke-linejoin:round;stroke-width:0.72}
		.st7 {fill:none;stroke:#000000;stroke-linecap:round;stroke-linejoin:round;stroke-width:0.72}
		.st8 {fill:#ffffff;stroke:none;stroke-linecap:round;stroke-linejoin:round;stroke-width:0.75}
		.st9 {stroke:#000000;stroke-linecap:round;stroke-linejoin:round;stroke-width:0.748902}
		.st10 {stroke:#000000;stroke-linecap:round;stroke-linejoin:round;stroke-width:0.746481}
		.st11 {fill:#000000;font-family:Arial;font-size:0.75em}
		.st12 {fill:#1a1a1a;stroke:#000000;stroke-linecap:round;stroke-linejoin:round;stroke-width:0.24}
		.st13 {fill:none;fill-rule:evenodd;font-size:12px;overflow:visible;stroke-linecap:square;stroke-miterlimit:3}
	]]>
	</style>

	<defs id="Markers">
		<g id="lend4">
			<path d="M 2 1 L 0 0 L 2 -1 L 2 1 " style="stroke:none"/>
		</g>
		<marker id="mrkr4-6" class="st2" v:arrowType="4" v:arrowSize="2" v:setback="9" refX="-9" orient="auto"
				markerUnits="strokeWidth" overflow="visible">
			<use xlink:href="#lend4" transform="scale(-4.5,-4.5) "/>
		</marker>
	</defs>
	<g v:mID="0" v:index="1" v:groupContext="foregroundPage">
		<title>Page-1</title>
		<v:pageProperties v:drawingScale="1" v:pageScale="1" v:drawingUnits="19" v:shadowOffsetX="9" v:shadowOffsetY="-9"/>
		<g id="shape230-1" v:mID="230" v:groupContext="shape" transform="translate(63.72,-22.095)">
			<title>Sheet.230</title>
			<path d="M0 58.81 L18.22 58.81 L182.25 58.81 L182.25 119.83" class="st1"/>
		</g>
		<g id="shape231-7" v:mID="231" v:groupContext="shape" transform="translate(63.72,-22.095)">
			<title>Sheet.231</title>
			<path d="M0 85.81 L128.25 85.81 L128.25 118.21 L128.25 119.83" class="st1"/>
		</g>
		<g id="shape232-12" v:mID="232" v:groupContext="shape" transform="translate(63.72,-22.095)">
			<title>Sheet.232</title>
			<path d="M0 112.81 L74.25 112.81 L74.25 119.83" class="st1"/>
		</g>
		<g id="shape246-17" v:mID="246" v:groupContext="shape" transform="translate(375.907,194.535) rotate(180)">
			<title>Sheet.246</title>
			<path d="M0 126.31 L56.25 126.31" class="st3"/>
		</g>
		<g id="shape247-20" v:mID="247" v:groupContext="shape" transform="translate(375.907,167.535) rotate(180)">
			<title>Sheet.247</title>
			<path d="M0 126.31 L63 126.31" class="st3"/>
		</g>
		<g id="shape251-23" v:mID="251" v:groupContext="shape" transform="translate(375.907,215.16) rotate(180)">
			<title>Sheet.251</title>
			<path d="M0 126.31 L11.25 126.31" class="st3"/>
		</g>
		<g id="shape252-26" v:mID="252" v:groupContext="shape" transform="translate(375.907,160.785) rotate(180)">
			<title>Sheet.252</title>
			<path d="M0 126.31 L63 126.31" class="st3"/>
		</g>
		<g id="shape254-29" v:mID="254" v:groupContext="shape" transform="translate(375.907,187.785) rotate(180)">
			<title>Sheet.254</title>
			<path d="M0 126.31 L49.5 126.31" class="st3"/>
		</g>
		<g id="shape264-32" v:mID="264" v:groupContext="shape" transform="translate(375.907,208.035) rotate(180)">
			<title>Sheet.264</title>
			<path d="M0 126.31 L18 126.31" class="st3"/>
		</g>
		<g id="shape266-35" v:mID="266" v:groupContext="shape" transform="translate(375.907,181.035) rotate(180)">
			<title>Sheet.266</title>
			<path d="M0 126.31 L42.75 126.31" class="st3"/>
		</g>
		<g id="shape267-38" v:mID="267" v:groupContext="shape" transform="translate(375.907,154.004) rotate(180)">
			<title>Sheet.267</title>
			<path d="M0 126.31 L63 126.31" class="st3"/>
		</g>
		<g id="shape275-41" v:mID="275" v:groupContext="shape" transform="translate(454.435,187.797) rotate(-179.899)">
			<title>Sheet.275</title>
			<path d="M0 126.31 L6.75 126.31" class="st3"/>
		</g>
		<g id="shape280-44" v:mID="280" v:groupContext="shape" transform="translate(95.22,-0.72)">
			<title>Sheet.280</title>
			<desc>Y =</desc>
			<v:textBlock v:margins="rect(4,4,4,4)"/>
			<v:textRect cx="23.625" cy="117.315" width="47.25" height="18"/>
			<rect x="0" y="108.315" width="47.25" height="18" class="st4"/>
			<text x="4" y="120.32" class="st5" v:langID="1033"><v:paragraph/><v:tabList/>Y =</text>		</g>
		<g id="group281-47" transform="translate(225.72,-5.22)" v:mID="281" v:groupContext="group">
			<title>Sheet.281</title>
			<g id="shape282-48" v:mID="282" v:groupContext="shape">
				<title>Sheet.282</title>
				<desc>A</desc>
				<v:textBlock v:margins="rect(4,4,4,4)"/>
				<v:textRect cx="6.75" cy="121.815" width="13.5" height="9"/>
				<rect x="0" y="117.315" width="13.5" height="9" class="st4"/>
				<text x="4" y="124.82" class="st5" v:langID="1033"><v:paragraph v:horizAlign="1"/><v:tabList/>A</text>			</g>
			<g id="shape283-51" v:mID="283" v:groupContext="shape" transform="translate(13.5,1.42109E-014)">
				<title>Sheet.283</title>
				<desc>B</desc>
				<v:textBlock v:margins="rect(4,4,4,4)"/>
				<v:textRect cx="6.75" cy="121.815" width="13.5" height="9"/>
				<rect x="0" y="117.315" width="13.5" height="9" class="st4"/>
				<text x="4" y="124.82" class="st5" v:langID="1033"><v:paragraph v:horizAlign="1"/><v:tabList/>B</text>			</g>
			<g id="shape284-54" v:mID="284" v:groupContext="shape" transform="translate(27,1.42109E-014)">
				<title>Sheet.284</title>
				<desc>C</desc>
				<v:textBlock v:margins="rect(4,4,4,4)"/>
				<v:textRect cx="6.75" cy="121.815" width="13.5" height="9"/>
				<rect x="0" y="117.315" width="13.5" height="9" class="st4"/>
				<text x="4" y="124.82" class="st5" v:langID="1033"><v:paragraph v:horizAlign="1"/><v:tabList/>C</text>			</g>
			<g id="shape285-57" v:mID="285" v:groupContext="shape" transform="translate(13.5,-4.5)">
				<title>Circle</title>
				<path d="M0 125.75 a0.5625 0.5625 0 0 1 1.125 0 a0.5625 0.5625 0 1 1 -1.125 0 Z" class="st6"/>
			</g>
			<g id="shape286-59" v:mID="286" v:groupContext="shape" transform="translate(27,-4.5)">
				<title>Circle.262</title>
				<path d="M0 125.75 a0.5625 0.5625 0 0 1 1.125 0 a0.5625 0.5625 0 1 1 -1.125 0 Z" class="st6"/>
			</g>
			<g id="shape287-61" v:mID="287" v:groupContext="shape" transform="translate(4.5,-11.25)">
				<title>Sheet.287</title>
				<path d="M0 126.31 L5.62 126.31" class="st3"/>
			</g>
			<g id="shape288-64" v:mID="288" v:groupContext="shape" transform="translate(18,-11.25)">
				<title>Sheet.288</title>
				<path d="M0 126.31 L5.62 126.31" class="st3"/>
			</g>
		</g>
		<g id="group289-67" transform="translate(171.72,-5.22)" v:mID="289" v:groupContext="group">
			<title>Sheet.289</title>
			<g id="shape290-68" v:mID="290" v:groupContext="shape">
				<title>Sheet.290</title>
				<desc>A</desc>
				<v:textBlock v:margins="rect(4,4,4,4)"/>
				<v:textRect cx="6.75" cy="121.815" width="13.5" height="9"/>
				<rect x="0" y="117.315" width="13.5" height="9" class="st4"/>
				<text x="4" y="124.82" class="st5" v:langID="1033"><v:paragraph v:horizAlign="1"/><v:tabList/>A</text>			</g>
			<g id="shape291-71" v:mID="291" v:groupContext="shape" transform="translate(13.5,1.42109E-014)">
				<title>Sheet.291</title>
				<desc>B</desc>
				<v:textBlock v:margins="rect(4,4,4,4)"/>
				<v:textRect cx="6.75" cy="121.815" width="13.5" height="9"/>
				<rect x="0" y="117.315" width="13.5" height="9" class="st4"/>
				<text x="4" y="124.82" class="st5" v:langID="1033"><v:paragraph v:horizAlign="1"/><v:tabList/>B</text>			</g>
			<g id="shape292-74" v:mID="292" v:groupContext="shape" transform="translate(27,1.42109E-014)">
				<title>Sheet.292</title>
				<desc>C</desc>
				<v:textBlock v:margins="rect(4,4,4,4)"/>
				<v:textRect cx="6.75" cy="121.815" width="13.5" height="9"/>
				<rect x="0" y="117.315" width="13.5" height="9" class="st4"/>
				<text x="4" y="124.82" class="st5" v:langID="1033"><v:paragraph v:horizAlign="1"/><v:tabList/>C</text>			</g>
			<g id="shape293-77" v:mID="293" v:groupContext="shape" transform="translate(13.5,-4.5)">
				<title>Circle.269</title>
				<path d="M0 125.75 a0.5625 0.5625 0 0 1 1.125 0 a0.5625 0.5625 0 1 1 -1.125 0 Z" class="st6"/>
			</g>
			<g id="shape294-79" v:mID="294" v:groupContext="shape" transform="translate(27,-4.5)">
				<title>Circle.270</title>
				<path d="M0 125.75 a0.5625 0.5625 0 0 1 1.125 0 a0.5625 0.5625 0 1 1 -1.125 0 Z" class="st6"/>
			</g>
			<g id="shape295-81" v:mID="295" v:groupContext="shape" transform="translate(4.5,-11.25)">
				<title>Sheet.295</title>
				<path d="M0 126.31 L5.62 126.31" class="st3"/>
			</g>
		</g>
		<g id="group296-84" transform="translate(117.72,-5.22)" v:mID="296" v:groupContext="group">
			<title>Sheet.296</title>
			<g id="shape297-85" v:mID="297" v:groupContext="shape">
				<title>Sheet.297</title>
				<desc>A</desc>
				<v:textBlock v:margins="rect(4,4,4,4)"/>
				<v:textRect cx="6.75" cy="121.815" width="13.5" height="9"/>
				<rect x="0" y="117.315" width="13.5" height="9" class="st4"/>
				<text x="4" y="124.82" class="st5" v:langID="1033"><v:paragraph v:horizAlign="1"/><v:tabList/>A</text>			</g>
			<g id="shape298-88" v:mID="298" v:groupContext="shape" transform="translate(13.5,1.42109E-014)">
				<title>Sheet.298</title>
				<desc>B</desc>
				<v:textBlock v:margins="rect(4,4,4,4)"/>
				<v:textRect cx="6.75" cy="121.815" width="13.5" height="9"/>
				<rect x="0" y="117.315" width="13.5" height="9" class="st4"/>
				<text x="4" y="124.82" class="st5" v:langID="1033"><v:paragraph v:horizAlign="1"/><v:tabList/>B</text>			</g>
			<g id="shape299-91" v:mID="299" v:groupContext="shape" transform="translate(27,1.42109E-014)">
				<title>Sheet.299</title>
				<desc>C</desc>
				<v:textBlock v:margins="rect(4,4,4,4)"/>
				<v:textRect cx="6.75" cy="121.815" width="13.5" height="9"/>
				<rect x="0" y="117.315" width="13.5" height="9" class="st4"/>
				<text x="4" y="124.82" class="st5" v:langID="1033"><v:paragraph v:horizAlign="1"/><v:tabList/>C</text>			</g>
			<g id="shape300-94" v:mID="300" v:groupContext="shape" transform="translate(13.5,-4.5)">
				<title>Circle.276</title>
				<path d="M0 125.75 a0.5625 0.5625 0 0 1 1.125 0 a0.5625 0.5625 0 1 1 -1.125 0 Z" class="st6"/>
			</g>
			<g id="shape301-96" v:mID="301" v:groupContext="shape" transform="translate(27.5625,-4.5)">
				<title>Circle.277</title>
				<path d="M0 125.75 a0.5625 0.5625 0 0 1 1.125 0 a0.5625 0.5625 0 1 1 -1.125 0 Z" class="st6"/>
			</g>
			<g id="shape302-98" v:mID="302" v:groupContext="shape" transform="translate(18,-11.25)">
				<title>Sheet.302</title>
				<path d="M0 126.31 L4.5 126.31" class="st3"/>
			</g>
		</g>
		<g id="shape303-101" v:mID="303" v:groupContext="shape" transform="translate(158.22,-5.22)">
			<title>Sheet.303</title>
			<desc>+</desc>
			<v:textBlock v:margins="rect(4,4,4,4)"/>
			<v:textRect cx="12.375" cy="121.815" width="24.75" height="9"/>
			<rect x="0" y="117.315" width="24.75" height="9" class="st4"/>
			<text x="4" y="124.82" class="st5" v:langID="1033"><v:paragraph/><v:tabList/>+</text>		</g>
		<g id="shape304-104" v:mID="304" v:groupContext="shape" transform="translate(212.22,-5.22)">
			<title>Sheet.304</title>
			<desc>+</desc>
			<v:textBlock v:margins="rect(4,4,4,4)"/>
			<v:textRect cx="12.375" cy="121.815" width="24.75" height="9"/>
			<rect x="0" y="117.315" width="24.75" height="9" class="st4"/>
			<text x="4" y="124.82" class="st5" v:langID="1033"><v:paragraph/><v:tabList/>+</text>		</g>
		<g id="shape305-107" v:mID="305" v:groupContext="shape" transform="translate(0.72,-98.595)">
			<title>Sheet.305</title>
			<desc>0</desc>
			<v:textBlock v:margins="rect(4,4,4,4)"/>
			<v:textRect cx="6.75" cy="121.815" width="13.5" height="9"/>
			<rect x="0" y="117.315" width="13.5" height="9" class="st4"/>
			<text x="4" y="124.82" class="st5" v:langID="1033"><v:paragraph v:horizAlign="1"/><v:tabList/>0</text>		</g>
		<g id="shape306-110" v:mID="306" v:groupContext="shape" transform="translate(16.47,-98.595)">
			<title>Sheet.306</title>
			<desc>0</desc>
			<v:textBlock v:margins="rect(4,4,4,4)"/>
			<v:textRect cx="6.75" cy="121.815" width="13.5" height="9"/>
			<rect x="0" y="117.315" width="13.5" height="9" class="st4"/>
			<text x="4" y="124.82" class="st5" v:langID="1033"><v:paragraph v:horizAlign="1"/><v:tabList/>0</text>		</g>
		<g id="shape307-113" v:mID="307" v:groupContext="shape" transform="translate(32.22,-98.595)">
			<title>Sheet.307</title>
			<desc>0</desc>
			<v:textBlock v:margins="rect(4,4,4,4)"/>
			<v:textRect cx="6.75" cy="121.815" width="13.5" height="9"/>
			<rect x="0" y="117.315" width="13.5" height="9" class="st4"/>
			<text x="4" y="124.82" class="st5" v:langID="1033"><v:paragraph v:horizAlign="1"/><v:tabList/>0</text>		</g>
		<g id="shape308-116" v:mID="308" v:groupContext="shape" transform="translate(0.72,-85.095)">
			<title>Sheet.308</title>
			<desc>0</desc>
			<v:textBlock v:margins="rect(4,4,4,4)"/>
			<v:textRect cx="6.75" cy="121.815" width="13.5" height="9"/>
			<rect x="0" y="117.315" width="13.5" height="9" class="st4"/>
			<text x="4" y="124.82" class="st5" v:langID="1033"><v:paragraph v:horizAlign="1"/><v:tabList/>0</text>		</g>
		<g id="shape309-119" v:mID="309" v:groupContext="shape" transform="translate(16.47,-85.095)">
			<title>Sheet.309</title>
			<desc>0</desc>
			<v:textBlock v:margins="rect(4,4,4,4)"/>
			<v:textRect cx="6.75" cy="121.815" width="13.5" height="9"/>
			<rect x="0" y="117.315" width="13.5" height="9" class="st4"/>
			<text x="4" y="124.82" class="st5" v:langID="1033"><v:paragraph v:horizAlign="1"/><v:tabList/>0</text>		</g>
		<g id="shape310-122" v:mID="310" v:groupContext="shape" transform="translate(32.22,-85.095)">
			<title>Sheet.310</title>
			<desc>1</desc>
			<v:textBlock v:margins="rect(4,4,4,4)"/>
			<v:textRect cx="6.75" cy="121.815" width="13.5" height="9"/>
			<rect x="0" y="117.315" width="13.5" height="9" class="st4"/>
			<text x="4" y="124.82" class="st5" v:langID="1033"><v:paragraph v:horizAlign="1"/><v:tabList/>1</text>		</g>
		<g id="shape311-125" v:mID="311" v:groupContext="shape" transform="translate(0.72,-71.595)">
			<title>Sheet.311</title>
			<desc>0</desc>
			<v:textBlock v:margins="rect(4,4,4,4)"/>
			<v:textRect cx="6.75" cy="121.815" width="13.5" height="9"/>
			<rect x="0" y="117.315" width="13.5" height="9" class="st4"/>
			<text x="4" y="124.82" class="st5" v:langID="1033"><v:paragraph v:horizAlign="1"/><v:tabList/>0</text>		</g>
		<g id="shape312-128" v:mID="312" v:groupContext="shape" transform="translate(16.47,-71.595)">
			<title>Sheet.312</title>
			<desc>1</desc>
			<v:textBlock v:margins="rect(4,4,4,4)"/>
			<v:textRect cx="6.75" cy="121.815" width="13.5" height="9"/>
			<rect x="0" y="117.315" width="13.5" height="9" class="st4"/>
			<text x="4" y="124.82" class="st5" v:langID="1033"><v:paragraph v:horizAlign="1"/><v:tabList/>1</text>		</g>
		<g id="shape313-131" v:mID="313" v:groupContext="shape" transform="translate(32.22,-71.595)">
			<title>Sheet.313</title>
			<desc>0</desc>
			<v:textBlock v:margins="rect(4,4,4,4)"/>
			<v:textRect cx="6.75" cy="121.815" width="13.5" height="9"/>
			<rect x="0" y="117.315" width="13.5" height="9" class="st4"/>
			<text x="4" y="124.82" class="st5" v:langID="1033"><v:paragraph v:horizAlign="1"/><v:tabList/>0</text>		</g>
		<g id="shape314-134" v:mID="314" v:groupContext="shape" transform="translate(0.72,-58.095)">
			<title>Sheet.314</title>
			<desc>0</desc>
			<v:textBlock v:margins="rect(4,4,4,4)"/>
			<v:textRect cx="6.75" cy="121.815" width="13.5" height="9"/>
			<rect x="0" y="117.315" width="13.5" height="9" class="st4"/>
			<text x="4" y="124.82" class="st5" v:langID="1033"><v:paragraph v:horizAlign="1"/><v:tabList/>0</text>		</g>
		<g id="shape315-137" v:mID="315" v:groupContext="shape" transform="translate(16.47,-58.095)">
			<title>Sheet.315</title>
			<desc>1</desc>
			<v:textBlock v:margins="rect(4,4,4,4)"/>
			<v:textRect cx="6.75" cy="121.815" width="13.5" height="9"/>
			<rect x="0" y="117.315" width="13.5" height="9" class="st4"/>
			<text x="4" y="124.82" class="st5" v:langID="1033"><v:paragraph v:horizAlign="1"/><v:tabList/>1</text>		</g>
		<g id="shape316-140" v:mID="316" v:groupContext="shape" transform="translate(32.22,-58.095)">
			<title>Sheet.316</title>
			<desc>1</desc>
			<v:textBlock v:margins="rect(4,4,4,4)"/>
			<v:textRect cx="6.75" cy="121.815" width="13.5" height="9"/>
			<rect x="0" y="117.315" width="13.5" height="9" class="st4"/>
			<text x="4" y="124.82" class="st5" v:langID="1033"><v:paragraph v:horizAlign="1"/><v:tabList/>1</text>		</g>
		<g id="shape317-143" v:mID="317" v:groupContext="shape" transform="translate(0.72,-44.595)">
			<title>Sheet.317</title>
			<desc>1</desc>
			<v:textBlock v:margins="rect(4,4,4,4)"/>
			<v:textRect cx="6.75" cy="121.815" width="13.5" height="9"/>
			<rect x="0" y="117.315" width="13.5" height="9" class="st4"/>
			<text x="4" y="124.82" class="st5" v:langID="1033"><v:paragraph v:horizAlign="1"/><v:tabList/>1</text>		</g>
		<g id="shape318-146" v:mID="318" v:groupContext="shape" transform="translate(16.47,-44.595)">
			<title>Sheet.318</title>
			<desc>0</desc>
			<v:textBlock v:margins="rect(4,4,4,4)"/>
			<v:textRect cx="6.75" cy="121.815" width="13.5" height="9"/>
			<rect x="0" y="117.315" width="13.5" height="9" class="st4"/>
			<text x="4" y="124.82" class="st5" v:langID="1033"><v:paragraph v:horizAlign="1"/><v:tabList/>0</text>		</g>
		<g id="shape319-149" v:mID="319" v:groupContext="shape" transform="translate(32.22,-44.595)">
			<title>Sheet.319</title>
			<desc>0</desc>
			<v:textBlock v:margins="rect(4,4,4,4)"/>
			<v:textRect cx="6.75" cy="121.815" width="13.5" height="9"/>
			<rect x="0" y="117.315" width="13.5" height="9" class="st4"/>
			<text x="4" y="124.82" class="st5" v:langID="1033"><v:paragraph v:horizAlign="1"/><v:tabList/>0</text>		</g>
		<g id="shape320-152" v:mID="320" v:groupContext="shape" transform="translate(0.72,-31.095)">
			<title>Sheet.320</title>
			<desc>1</desc>
			<v:textBlock v:margins="rect(4,4,4,4)"/>
			<v:textRect cx="6.75" cy="121.815" width="13.5" height="9"/>
			<rect x="0" y="117.315" width="13.5" height="9" class="st4"/>
			<text x="4" y="124.82" class="st5" v:langID="1033"><v:paragraph v:horizAlign="1"/><v:tabList/>1</text>		</g>
		<g id="shape321-155" v:mID="321" v:groupContext="shape" transform="translate(16.47,-31.095)">
			<title>Sheet.321</title>
			<desc>0</desc>
			<v:textBlock v:margins="rect(4,4,4,4)"/>
			<v:textRect cx="6.75" cy="121.815" width="13.5" height="9"/>
			<rect x="0" y="117.315" width="13.5" height="9" class="st4"/>
			<text x="4" y="124.82" class="st5" v:langID="1033"><v:paragraph v:horizAlign="1"/><v:tabList/>0</text>		</g>
		<g id="shape322-158" v:mID="322" v:groupContext="shape" transform="translate(32.22,-31.095)">
			<title>Sheet.322</title>
			<desc>1</desc>
			<v:textBlock v:margins="rect(4,4,4,4)"/>
			<v:textRect cx="6.75" cy="121.815" width="13.5" height="9"/>
			<rect x="0" y="117.315" width="13.5" height="9" class="st4"/>
			<text x="4" y="124.82" class="st5" v:langID="1033"><v:paragraph v:horizAlign="1"/><v:tabList/>1</text>		</g>
		<g id="shape323-161" v:mID="323" v:groupContext="shape" transform="translate(0.72,-17.595)">
			<title>Sheet.323</title>
			<desc>1</desc>
			<v:textBlock v:margins="rect(4,4,4,4)"/>
			<v:textRect cx="6.75" cy="121.815" width="13.5" height="9"/>
			<rect x="0" y="117.315" width="13.5" height="9" class="st4"/>
			<text x="4" y="124.82" class="st5" v:langID="1033"><v:paragraph v:horizAlign="1"/><v:tabList/>1</text>		</g>
		<g id="shape324-164" v:mID="324" v:groupContext="shape" transform="translate(16.47,-17.595)">
			<title>Sheet.324</title>
			<desc>1</desc>
			<v:textBlock v:margins="rect(4,4,4,4)"/>
			<v:textRect cx="6.75" cy="121.815" width="13.5" height="9"/>
			<rect x="0" y="117.315" width="13.5" height="9" class="st4"/>
			<text x="4" y="124.82" class="st5" v:langID="1033"><v:paragraph v:horizAlign="1"/><v:tabList/>1</text>		</g>
		<g id="shape325-167" v:mID="325" v:groupContext="shape" transform="translate(32.22,-17.595)">
			<title>Sheet.325</title>
			<desc>0</desc>
			<v:textBlock v:margins="rect(4,4,4,4)"/>
			<v:textRect cx="6.75" cy="121.815" width="13.5" height="9"/>
			<rect x="0" y="117.315" width="13.5" height="9" class="st4"/>
			<text x="4" y="124.82" class="st5" v:langID="1033"><v:paragraph v:horizAlign="1"/><v:tabList/>0</text>		</g>
		<g id="shape326-170" v:mID="326" v:groupContext="shape" transform="translate(0.72,-4.095)">
			<title>Sheet.326</title>
			<desc>1</desc>
			<v:textBlock v:margins="rect(4,4,4,4)"/>
			<v:textRect cx="6.75" cy="121.815" width="13.5" height="9"/>
			<rect x="0" y="117.315" width="13.5" height="9" class="st4"/>
			<text x="4" y="124.82" class="st5" v:langID="1033"><v:paragraph v:horizAlign="1"/><v:tabList/>1</text>		</g>
		<g id="shape327-173" v:mID="327" v:groupContext="shape" transform="translate(16.47,-4.095)">
			<title>Sheet.327</title>
			<desc>1</desc>
			<v:textBlock v:margins="rect(4,4,4,4)"/>
			<v:textRect cx="6.75" cy="121.815" width="13.5" height="9"/>
			<rect x="0" y="117.315" width="13.5" height="9" class="st4"/>
			<text x="4" y="124.82" class="st5" v:langID="1033"><v:paragraph v:horizAlign="1"/><v:tabList/>1</text>		</g>
		<g id="shape328-176" v:mID="328" v:groupContext="shape" transform="translate(32.22,-4.095)">
			<title>Sheet.328</title>
			<desc>1</desc>
			<v:textBlock v:margins="rect(4,4,4,4)"/>
			<v:textRect cx="6.75" cy="121.815" width="13.5" height="9"/>
			<rect x="0" y="117.315" width="13.5" height="9" class="st4"/>
			<text x="4" y="124.82" class="st5" v:langID="1033"><v:paragraph v:horizAlign="1"/><v:tabList/>1</text>		</g>
		<g id="shape329-179" v:mID="329" v:groupContext="shape" transform="translate(0.72,-114.345)">
			<title>Sheet.329</title>
			<desc>A</desc>
			<v:textBlock v:margins="rect(4,4,4,4)"/>
			<v:textRect cx="6.75" cy="121.815" width="13.5" height="9"/>
			<rect x="0" y="117.315" width="13.5" height="9" class="st4"/>
			<text x="4" y="124.82" class="st5" v:langID="1033"><v:paragraph v:horizAlign="1"/><v:tabList/>A</text>		</g>
		<g id="shape330-182" v:mID="330" v:groupContext="shape" transform="translate(16.47,-114.345)">
			<title>Sheet.330</title>
			<desc>B</desc>
			<v:textBlock v:margins="rect(4,4,4,4)"/>
			<v:textRect cx="6.75" cy="121.815" width="13.5" height="9"/>
			<rect x="0" y="117.315" width="13.5" height="9" class="st4"/>
			<text x="4" y="124.82" class="st5" v:langID="1033"><v:paragraph v:horizAlign="1"/><v:tabList/>B</text>		</g>
		<g id="shape331-185" v:mID="331" v:groupContext="shape" transform="translate(32.22,-114.345)">
			<title>Sheet.331</title>
			<desc>C</desc>
			<v:textBlock v:margins="rect(4,4,4,4)"/>
			<v:textRect cx="6.75" cy="121.815" width="13.5" height="9"/>
			<rect x="0" y="117.315" width="13.5" height="9" class="st4"/>
			<text x="4" y="124.82" class="st5" v:langID="1033"><v:paragraph v:horizAlign="1"/><v:tabList/>C</text>		</g>
		<g id="shape332-188" v:mID="332" v:groupContext="shape" transform="translate(50.22,-114.345)">
			<title>Sheet.332</title>
			<desc>Y</desc>
			<v:textBlock v:margins="rect(4,4,4,4)"/>
			<v:textRect cx="6.75" cy="121.815" width="13.5" height="9"/>
			<rect x="0" y="117.315" width="13.5" height="9" class="st4"/>
			<text x="4" y="124.82" class="st5" v:langID="1033"><v:paragraph v:horizAlign="1"/><v:tabList/>Y</text>		</g>
		<g id="shape333-191" v:mID="333" v:groupContext="shape" transform="translate(5.22,-112.095)">
			<title>Sheet.333</title>
			<path d="M0 126.31 L56.25 126.31" class="st3"/>
		</g>
		<g id="shape334-194" v:mID="334" v:groupContext="shape" transform="translate(174.285,0.72) rotate(90)">
			<title>Sheet.334</title>
			<path d="M0 126.31 L121.5 126.31" class="st3"/>
		</g>
		<g id="shape335-197" v:mID="335" v:groupContext="shape" transform="translate(50.22,-98.595)">
			<title>Sheet.335</title>
			<desc>0</desc>
			<v:textBlock v:margins="rect(4,4,4,4)"/>
			<v:textRect cx="6.75" cy="121.815" width="13.5" height="9"/>
			<rect x="0" y="117.315" width="13.5" height="9" class="st4"/>
			<text x="4" y="124.82" class="st5" v:langID="1033"><v:paragraph v:horizAlign="1"/><v:tabList/>0</text>		</g>
		<g id="shape336-200" v:mID="336" v:groupContext="shape" transform="translate(50.22,-85.095)">
			<title>Sheet.336</title>
			<desc>1</desc>
			<v:textBlock v:margins="rect(4,4,4,4)"/>
			<v:textRect cx="6.75" cy="121.815" width="13.5" height="9"/>
			<rect x="0" y="117.315" width="13.5" height="9" class="st4"/>
			<text x="4" y="124.82" class="st5" v:langID="1033"><v:paragraph v:horizAlign="1"/><v:tabList/>1</text>		</g>
		<g id="shape337-203" v:mID="337" v:groupContext="shape" transform="translate(50.22,-71.595)">
			<title>Sheet.337</title>
			<desc>0</desc>
			<v:textBlock v:margins="rect(4,4,4,4)"/>
			<v:textRect cx="6.75" cy="121.815" width="13.5" height="9"/>
			<rect x="0" y="117.315" width="13.5" height="9" class="st4"/>
			<text x="4" y="124.82" class="st5" v:langID="1033"><v:paragraph v:horizAlign="1"/><v:tabList/>0</text>		</g>
		<g id="shape338-206" v:mID="338" v:groupContext="shape" transform="translate(50.22,-58.095)">
			<title>Sheet.338</title>
			<desc>1</desc>
			<v:textBlock v:margins="rect(4,4,4,4)"/>
			<v:textRect cx="6.75" cy="121.815" width="13.5" height="9"/>
			<rect x="0" y="117.315" width="13.5" height="9" class="st4"/>
			<text x="4" y="124.82" class="st5" v:langID="1033"><v:paragraph v:horizAlign="1"/><v:tabList/>1</text>		</g>
		<g id="shape339-209" v:mID="339" v:groupContext="shape" transform="translate(50.22,-44.595)">
			<title>Sheet.339</title>
			<desc>0</desc>
			<v:textBlock v:margins="rect(4,4,4,4)"/>
			<v:textRect cx="6.75" cy="121.815" width="13.5" height="9"/>
			<rect x="0" y="117.315" width="13.5" height="9" class="st4"/>
			<text x="4" y="124.82" class="st5" v:langID="1033"><v:paragraph v:horizAlign="1"/><v:tabList/>0</text>		</g>
		<g id="shape340-212" v:mID="340" v:groupContext="shape" transform="translate(50.22,-31.095)">
			<title>Sheet.340</title>
			<desc>1</desc>
			<v:textBlock v:margins="rect(4,4,4,4)"/>
			<v:textRect cx="6.75" cy="121.815" width="13.5" height="9"/>
			<rect x="0" y="117.315" width="13.5" height="9" class="st4"/>
			<text x="4" y="124.82" class="st5" v:langID="1033"><v:paragraph v:horizAlign="1"/><v:tabList/>1</text>		</g>
		<g id="shape341-215" v:mID="341" v:groupContext="shape" transform="translate(50.22,-17.595)">
			<title>Sheet.341</title>
			<desc>0</desc>
			<v:textBlock v:margins="rect(4,4,4,4)"/>
			<v:textRect cx="6.75" cy="121.815" width="13.5" height="9"/>
			<rect x="0" y="117.315" width="13.5" height="9" class="st4"/>
			<text x="4" y="124.82" class="st5" v:langID="1033"><v:paragraph v:horizAlign="1"/><v:tabList/>0</text>		</g>
		<g id="shape342-218" v:mID="342" v:groupContext="shape" transform="translate(50.22,-4.095)">
			<title>Sheet.342</title>
			<desc>0</desc>
			<v:textBlock v:margins="rect(4,4,4,4)"/>
			<v:textRect cx="6.75" cy="121.815" width="13.5" height="9"/>
			<rect x="0" y="117.315" width="13.5" height="9" class="st4"/>
			<text x="4" y="124.82" class="st5" v:langID="1033"><v:paragraph v:horizAlign="1"/><v:tabList/>0</text>		</g>
		<g id="shape79-221" v:mID="79" v:groupContext="shape" transform="translate(375.907,-80.595)">
			<title>Sheet.79</title>
			<path d="M0 103.81 L0 126.31 L12.37 126.31 A12.375 11.25 -180 0 0 24.75 115.06 A12.375 11.25 -180 0 0 12.37 103.81 L0
						 103.81 Z" class="st7"/>
		</g>
		<g id="group200-223" transform="translate(344.407,-87.345)" v:mID="200" v:groupContext="group">
			<title>Sheet.200</title>
			<g id="shape201-224" v:mID="201" v:groupContext="shape">
				<title>Sheet.201</title>
				<path d="M0 117.31 L0 126.31 L6.92 121.77 L0 117.31 L0 117.31 Z" class="st8"/>
			</g>
			<g id="shape202-226" v:mID="202" v:groupContext="shape">
				<title>Sheet.202</title>
				<path d="M0 117.31 L0 126.31 L6.92 121.77 L0 117.31 L0 117.31" class="st9"/>
			</g>
			<g id="shape203-229" v:mID="203" v:groupContext="shape" transform="translate(6.92308,-3.43299)">
				<title>Sheet.203</title>
				<path d="M0 125.2 L0 125.02 L0.09 124.74 L0.17 124.55 L0.35 124.46 L0.43 124.27 L0.69 124.18 L0.87 124.09 L1.04 124.09
							 L1.3 124.09 L1.47 124.18 L1.64 124.27 L1.82 124.46 L1.9 124.55 L1.99 124.74 L2.08 125.02 L2.08 125.2
							 L2.08 125.2 L2.08 125.48 L1.99 125.67 L1.9 125.85 L1.82 126.04 L1.64 126.13 L1.47 126.22 L1.3 126.31
							 L1.04 126.31 L0.87 126.31 L0.69 126.22 L0.43 126.13 L0.35 126.04 L0.17 125.85 L0.09 125.67 L0 125.48
							 L0 125.2 L0 125.2 Z" class="st8"/>
			</g>
			<g id="shape204-231" v:mID="204" v:groupContext="shape" transform="translate(6.92308,-3.43299)">
				<title>Sheet.204</title>
				<path d="M0 125.2 L0 125.02 L0.09 124.74 L0.17 124.55 L0.35 124.46 L0.43 124.27 L0.69 124.18 L0.87 124.09 L1.04 124.09
							 L1.3 124.09 L1.47 124.18 L1.64 124.27 L1.82 124.46 L1.9 124.55 L1.99 124.74 L2.08 125.02 L2.08 125.2
							 L2.08 125.2 L2.08 125.48 L1.99 125.67 L1.9 125.85 L1.82 126.04 L1.64 126.13 L1.47 126.22 L1.3 126.31
							 L1.04 126.31 L0.87 126.31 L0.69 126.22 L0.43 126.13 L0.35 126.04 L0.17 125.85 L0.09 125.67 L0 125.48
							 L0 125.2" class="st9"/>
			</g>
		</g>
		<g id="shape88-234" v:mID="88" v:groupContext="shape" transform="translate(375.907,-53.595)">
			<title>Sheet.88</title>
			<path d="M0 103.81 L0 126.31 L12.37 126.31 A12.375 11.25 -180 0 0 24.75 115.06 A12.375 11.25 -180 0 0 12.37 103.81 L0
						 103.81 Z" class="st7"/>
		</g>
		<g id="shape95-236" v:mID="95" v:groupContext="shape" transform="translate(375.907,-26.595)">
			<title>Sheet.95</title>
			<path d="M0 103.81 L0 126.31 L12.37 126.31 A12.375 11.25 -180 0 0 24.75 115.06 A12.375 11.25 -180 0 0 12.37 103.81 L0
						 103.81 Z" class="st7"/>
		</g>
		<g id="shape205-238" v:mID="205" v:groupContext="shape" transform="translate(375.907,221.535) rotate(180)">
			<title>Sheet.205</title>
			<path d="M0 126.31 L56.25 126.31" class="st3"/>
		</g>
		<g id="shape206-241" v:mID="206" v:groupContext="shape" transform="translate(420.907,-53.595)">
			<title>Sheet.206</title>
			<path d="M0.19 103.81 L8.23 103.81 L10.35 104.19 L11.57 104.44 L13.05 104.81 L14.85 105.5 L16.46 106.19 L18.13 106.94
						 L19.8 107.94 L21.41 109 L23.01 110.25 L24.69 111.82 L26.23 113.81 L27 115.06 L26.23 116.25 L24.69 118.19
						 L23.01 119.88 L21.41 121.07 L19.67 122.13 L18.13 123.07 L16.46 123.82 L14.85 124.5 L13.11 125.19 L11.57
						 125.56 L9.9 125.94 L8.23 126.19 L6.69 126.31 L0 126.31 L1.35 124.19 L2.19 122.13 L2.7 120.69 L3.15 119.32
						 L3.54 117.94 L3.66 116.5 L3.79 115.06 L3.66 113.63 L3.6 112.32 L3.28 110.88 L2.83 109.44 L2.31 108 L1.67
						 106.63 L0.9 105.13 L0.19 103.81 L0.19 103.81" class="st10"/>
		</g>
		<g id="shape207-244" v:mID="207" v:groupContext="shape" transform="translate(424.7,187.785) rotate(180)">
			<title>Sheet.207</title>
			<path d="M0 126.31 L24.04 126.31" class="st3"/>
		</g>
		<g id="shape209-247" v:mID="209" v:groupContext="shape" transform="translate(423.157,194.535) rotate(180)">
			<title>Sheet.209</title>
			<path d="M0 126.31 L11.25 126.31" class="st3"/>
		</g>
		<g id="shape208-250" v:mID="208" v:groupContext="shape" transform="translate(423.157,181.035) rotate(180)">
			<title>Sheet.208</title>
			<path d="M0 126.31 L11.25 126.31" class="st3"/>
		</g>
		<g id="shape210-253" v:mID="210" v:groupContext="shape" transform="translate(411.907,160.785) rotate(180)">
			<title>Sheet.210</title>
			<path d="M0 126.31 L11.25 126.31" class="st3"/>
		</g>
		<g id="shape211-256" v:mID="211" v:groupContext="shape" transform="translate(411.907,214.785) rotate(180)">
			<title>Sheet.211</title>
			<path d="M0 126.31 L11.25 126.31" class="st3"/>
		</g>
		<g id="shape212-259" v:mID="212" v:groupContext="shape" transform="translate(538.222,68.22) rotate(90)">
			<title>Sheet.212</title>
			<path d="M0 126.31 L20.25 126.31" class="st3"/>
		</g>
		<g id="shape213-262" v:mID="213" v:groupContext="shape" transform="translate(538.222,34.47) rotate(90)">
			<title>Sheet.213</title>
			<path d="M0 126.31 L20.25 126.31" class="st3"/>
		</g>
		<g id="shape214-265" v:mID="214" v:groupContext="shape" transform="translate(299.97,-96.345)">
			<title>Sheet.214</title>
			<desc>A</desc>
			<v:textBlock v:margins="rect(4,4,4,4)"/>
			<v:textRect cx="5.625" cy="121.815" width="11.25" height="9"/>
			<rect x="0" y="117.315" width="11.25" height="9" class="st4"/>
			<text x="4" y="124.52" class="st11" v:langID="1033"><v:paragraph v:horizAlign="1"/><v:tabList/>A</text>		</g>
		<g id="shape215-268" v:mID="215" v:groupContext="shape" transform="translate(299.97,-87.345)">
			<title>Sheet.215</title>
			<desc>B</desc>
			<v:textBlock v:margins="rect(4,4,4,4)"/>
			<v:textRect cx="5.625" cy="121.815" width="11.25" height="9"/>
			<rect x="0" y="117.315" width="11.25" height="9" class="st4"/>
			<text x="4" y="124.52" class="st11" v:langID="1033"><v:paragraph v:horizAlign="1"/><v:tabList/>B</text>		</g>
		<g id="shape216-271" v:mID="216" v:groupContext="shape" transform="translate(299.97,-78.345)">
			<title>Sheet.216</title>
			<desc>C</desc>
			<v:textBlock v:margins="rect(4,4,4,4)"/>
			<v:textRect cx="5.625" cy="121.815" width="11.25" height="9"/>
			<rect x="0" y="117.315" width="11.25" height="9" class="st4"/>
			<text x="4" y="124.52" class="st11" v:langID="1033"><v:paragraph v:horizAlign="1"/><v:tabList/>C</text>		</g>
		<g id="shape217-274" v:mID="217" v:groupContext="shape" transform="translate(490.972,34.47) rotate(90)">
			<title>Sheet.217</title>
			<path d="M0 126.31 L54.38 126.31" class="st3"/>
		</g>
		<g id="group218-277" transform="translate(337.657,-67.095)" v:mID="218" v:groupContext="group">
			<title>Sheet.218</title>
			<g id="shape219-278" v:mID="219" v:groupContext="shape">
				<title>Sheet.219</title>
				<path d="M0 117.31 L0 126.31 L6.92 121.77 L0 117.31 L0 117.31 Z" class="st8"/>
			</g>
			<g id="shape220-280" v:mID="220" v:groupContext="shape">
				<title>Sheet.220</title>
				<path d="M0 117.31 L0 126.31 L6.92 121.77 L0 117.31 L0 117.31" class="st9"/>
			</g>
			<g id="shape221-283" v:mID="221" v:groupContext="shape" transform="translate(6.92308,-3.43299)">
				<title>Sheet.221</title>
				<path d="M0 125.2 L0 125.02 L0.09 124.74 L0.17 124.55 L0.35 124.46 L0.43 124.27 L0.69 124.18 L0.87 124.09 L1.04 124.09
							 L1.3 124.09 L1.47 124.18 L1.64 124.27 L1.82 124.46 L1.9 124.55 L1.99 124.74 L2.08 125.02 L2.08 125.2
							 L2.08 125.2 L2.08 125.48 L1.99 125.67 L1.9 125.85 L1.82 126.04 L1.64 126.13 L1.47 126.22 L1.3 126.31
							 L1.04 126.31 L0.87 126.31 L0.69 126.22 L0.43 126.13 L0.35 126.04 L0.17 125.85 L0.09 125.67 L0 125.48
							 L0 125.2 L0 125.2 Z" class="st8"/>
			</g>
			<g id="shape222-285" v:mID="222" v:groupContext="shape" transform="translate(6.92308,-3.43299)">
				<title>Sheet.222</title>
				<path d="M0 125.2 L0 125.02 L0.09 124.74 L0.17 124.55 L0.35 124.46 L0.43 124.27 L0.69 124.18 L0.87 124.09 L1.04 124.09
							 L1.3 124.09 L1.47 124.18 L1.64 124.27 L1.82 124.46 L1.9 124.55 L1.99 124.74 L2.08 125.02 L2.08 125.2
							 L2.08 125.2 L2.08 125.48 L1.99 125.67 L1.9 125.85 L1.82 126.04 L1.64 126.13 L1.47 126.22 L1.3 126.31
							 L1.04 126.31 L0.87 126.31 L0.69 126.22 L0.43 126.13 L0.35 126.04 L0.17 125.85 L0.09 125.67 L0 125.48
							 L0 125.2" class="st9"/>
			</g>
		</g>
		<g id="shape224-288" v:mID="224" v:groupContext="shape" transform="translate(206.843,54.72) rotate(-90)">
			<title>Sheet.224</title>
			<path d="M0 126.31 L27.03 126.31" class="st3"/>
		</g>
		<g id="shape223-291" v:mID="223" v:groupContext="shape" transform="translate(200.093,61.47) rotate(-90)">
			<title>Sheet.223</title>
			<path d="M0 126.31 L27.03 126.31" class="st3"/>
		</g>
		<g id="shape225-294" v:mID="225" v:groupContext="shape" transform="translate(193.343,95.22) rotate(-90)">
			<title>Sheet.225</title>
			<path d="M0 126.31 L54 126.31" class="st3"/>
		</g>
		<g id="shape226-297" v:mID="226" v:groupContext="shape" transform="translate(484.222,54.72) rotate(90)">
			<title>Sheet.226</title>
			<path d="M0 126.31 L27 126.31" class="st3"/>
		</g>
		<g id="shape227-300" v:mID="227" v:groupContext="shape" transform="translate(357.064,-70.7512)">
			<title>Circle.227</title>
			<path d="M0 125.47 a0.84375 0.84375 0 0 1 1.6875 0 a0.84375 0.84375 0 1 1 -1.6875 0 Z" class="st12"/>
		</g>
		<g id="shape228-302" v:mID="228" v:groupContext="shape" transform="translate(332.314,-97.7826)">
			<title>Circle.228</title>
			<path d="M0 125.47 a0.84375 0.84375 0 0 1 1.6875 0 a0.84375 0.84375 0 1 1 -1.6875 0 Z" class="st12"/>
		</g>
		<g id="shape229-304" v:mID="229" v:groupContext="shape" transform="translate(325.564,-91.0326)">
			<title>Circle.229</title>
			<path d="M0 125.47 a0.84375 0.84375 0 0 1 1.6875 0 a0.84375 0.84375 0 1 1 -1.6875 0 Z" class="st12"/>
		</g>
		<g id="shape233-306" v:mID="233" v:groupContext="shape" transform="translate(318.814,-84.2512)">
			<title>Circle.233</title>
			<path d="M0 125.47 a0.84375 0.84375 0 0 1 1.6875 0 a0.84375 0.84375 0 1 1 -1.6875 0 Z" class="st12"/>
		</g>
		<g id="shape234-308" v:mID="234" v:groupContext="shape" transform="translate(318.814,-57.2512)">
			<title>Circle.234</title>
			<path d="M0 125.47 a0.84375 0.84375 0 0 1 1.6875 0 a0.84375 0.84375 0 1 1 -1.6875 0 Z" class="st12"/>
		</g>
		<g id="shape235-310" v:mID="235" v:groupContext="shape" transform="translate(363.814,-91.0012)">
			<title>Circle.235</title>
			<path d="M0 125.47 a0.84375 0.84375 0 0 1 1.6875 0 a0.84375 0.84375 0 1 1 -1.6875 0 Z" class="st12"/>
		</g>
		<g id="shape236-312" v:mID="236" v:groupContext="shape" transform="translate(454.657,-60.345)">
			<title>Sheet.236</title>
			<desc>F</desc>
			<v:textBlock v:margins="rect(4,4,4,4)"/>
			<v:textRect cx="5.625" cy="121.815" width="11.25" height="9"/>
			<rect x="0" y="117.315" width="11.25" height="9" class="st4"/>
			<text x="4" y="124.52" class="st11" v:langID="1033"><v:paragraph v:horizAlign="1"/><v:tabList/>F</text>		</g>
	</g>
</svg>
