<?xml version="1.0" encoding="UTF-8" standalone="no"?>
<!DOCTYPE svg PUBLIC "-//W3C//DTD SVG 1.1//EN" "http://www.w3.org/Graphics/SVG/1.1/DTD/svg11.dtd">
<!-- Generated by Microsoft Visio, SVG Export BitSlice.svg Page-1 -->
<svg xmlns="http://www.w3.org/2000/svg" xmlns:xlink="http://www.w3.org/1999/xlink" xmlns:ev="http://www.w3.org/2001/xml-events"
		xmlns:v="http://schemas.microsoft.com/visio/2003/SVGExtensions/" width="2.8125in" height="4.15271in"
		viewBox="0 0 202.5 298.995" xml:space="preserve" color-interpolation-filters="sRGB" class="st15">
	<v:documentProperties v:langID="1033" v:viewMarkup="false"/>

	<style type="text/css">
	<![CDATA[
		.st1 {fill:#fddeb0;stroke:none;stroke-linecap:round;stroke-linejoin:round;stroke-width:0.24}
		.st2 {stroke:none;stroke-linecap:round;stroke-linejoin:round;stroke-width:0.75}
		.st3 {fill:#000000;font-family:Arial;font-size:0.833336em}
		.st4 {font-size:1em}
		.st5 {marker-end:url(#mrkr4-33);stroke:#000000;stroke-linecap:round;stroke-linejoin:round;stroke-width:1.2}
		.st6 {fill:#000000;fill-opacity:1;stroke:#000000;stroke-opacity:1;stroke-width:0.32258064516129}
		.st7 {stroke:#000000;stroke-linecap:round;stroke-linejoin:round;stroke-width:0.72}
		.st8 {marker-end:url(#mrkr4-62);stroke:#000000;stroke-linecap:round;stroke-linejoin:round;stroke-width:0.72}
		.st9 {fill:#000000;fill-opacity:1;stroke:#000000;stroke-opacity:1;stroke-width:0.22222222222222}
		.st10 {marker-end:url(#mrkr4-150);marker-start:url(#mrkr4-148);stroke:#000000;stroke-linecap:round;stroke-linejoin:round;stroke-width:0.72}
		.st11 {fill:#000000;fill-opacity:1;stroke:#000000;stroke-opacity:1;stroke-width:0.28571428571429}
		.st12 {marker-end:url(#mrkr4-244);stroke:#666666;stroke-linecap:round;stroke-linejoin:round;stroke-width:2.16}
		.st13 {fill:#666666;fill-opacity:1;stroke:#666666;stroke-opacity:1;stroke-width:0.54545454545455}
		.st14 {fill:#b7ccf7;stroke:none;stroke-linecap:round;stroke-linejoin:round;stroke-width:0.24}
		.st15 {fill:none;fill-rule:evenodd;font-size:12px;overflow:visible;stroke-linecap:square;stroke-miterlimit:3}
	]]>
	</style>

	<defs id="Markers">
		<g id="lend4">
			<path d="M 2 1 L 0 0 L 2 -1 L 2 1 " style="stroke:none"/>
		</g>
		<marker id="mrkr4-33" class="st6" v:arrowType="4" v:arrowSize="2" v:setback="6.2" refX="-6.2" orient="auto"
				markerUnits="strokeWidth" overflow="visible">
			<use xlink:href="#lend4" transform="scale(-3.1,-3.1) "/>
		</marker>
		<marker id="mrkr4-62" class="st9" v:arrowType="4" v:arrowSize="2" v:setback="9" refX="-9" orient="auto"
				markerUnits="strokeWidth" overflow="visible">
			<use xlink:href="#lend4" transform="scale(-4.5,-4.5) "/>
		</marker>
		<marker id="mrkr4-148" class="st11" v:arrowType="4" v:arrowSize="1" v:setback="0" refX="0" orient="auto"
				markerUnits="strokeWidth" overflow="visible">
			<use xlink:href="#lend4" transform="scale(3.5) "/>
		</marker>
		<marker id="mrkr4-150" class="st11" v:arrowType="4" v:arrowSize="1" v:setback="7" refX="-7" orient="auto"
				markerUnits="strokeWidth" overflow="visible">
			<use xlink:href="#lend4" transform="scale(-3.5,-3.5) "/>
		</marker>
		<marker id="mrkr4-244" class="st13" v:arrowType="4" v:arrowSize="1" v:setback="3.5" refX="-3.5" orient="auto"
				markerUnits="strokeWidth" overflow="visible">
			<use xlink:href="#lend4" transform="scale(-1.8333333333333,-1.8333333333333) "/>
		</marker>
	</defs>
	<g v:mID="0" v:index="1" v:groupContext="foregroundPage">
		<title>Page-1</title>
		<v:pageProperties v:drawingScale="1" v:pageScale="1" v:drawingUnits="19" v:shadowOffsetX="9" v:shadowOffsetY="-9"/>
		<v:layer v:name="Connector" v:index="0"/>
		<g id="shape1-1" v:mID="1" v:groupContext="shape" transform="translate(62.8317,-234.495)">
			<title>Rectangle.248</title>
			<v:userDefs>
				<v:ud v:nameU="visVersion" v:val="VT0(11):26"/>
			</v:userDefs>
			<rect x="0" y="235.995" width="54" height="63" class="st1"/>
		</g>
		<g id="shape2-3" v:mID="2" v:groupContext="shape" transform="translate(72,-252.047)">
			<title>Sheet.2</title>
			<desc>Logic Circuit</desc>
			<v:textBlock v:margins="rect(0,0,0,0)"/>
			<v:textRect cx="18.2417" cy="282.797" width="36.49" height="32.3948"/>
			<path d="M36.48 266.6 L0 266.6 L0 298.99 L36.48 298.99 L36.48 266.6" class="st2"/>
			<text x="6.29" y="279.8" class="st3" v:langID="1033"><v:paragraph v:horizAlign="1"/><v:tabList/>Logic<v:newlineChar/><tspan
						x="4.07" dy="1.2em" class="st4">Circuit</tspan></text>		</g>
		<g id="shape3-8" v:mID="3" v:groupContext="shape" transform="translate(54,-196.245)">
			<title>Sheet.3</title>
			<desc>A circuit can be decomposed into Smaller “bit slice” blocks t...</desc>
			<v:textBlock v:margins="rect(0,0,0,0)"/>
			<v:textRect cx="74.25" cy="293.012" width="148.5" height="11.9664"/>
			<path d="M148.5 287.03 L0 287.03 L0 298.99 L148.5 298.99 L148.5 287.03" class="st2"/>
			<text x="0.6" y="284.01" class="st3" v:langID="1033"><v:paragraph v:horizAlign="1"/><v:tabList/>A circuit can be decomposed into<v:newlineChar/><tspan
						x="14.79" dy="1.2em" class="st4">Smaller </tspan>“bit slice” blocks to <tspan x="12.55" dy="1.2em"
						class="st4">facilitate the design process </tspan> </text>		</g>
		<g id="shape4-14" v:mID="4" v:groupContext="shape" transform="translate(94.5,-51.5285)">
			<title>Sheet.4</title>
			<desc>Usually some “internal” signals must be passed between bit sl...</desc>
			<v:textBlock v:margins="rect(0,0,0,0)"/>
			<v:textRect cx="54" cy="293.012" width="108" height="11.9664"/>
			<path d="M108 287.03 L0 287.03 L0 298.99 L108 298.99 L108 287.03" class="st2"/>
			<text x="2.87" y="284.01" class="st3" v:langID="1033"><v:paragraph v:horizAlign="1"/><v:tabList/>Usually some “internal” <tspan
						x="1.75" dy="1.2em" class="st4">signals must be passed </tspan><tspan x="14.53" dy="1.2em" class="st4">between bit slices </tspan> </text>		</g>
		<g id="shape5-20" v:mID="5" v:groupContext="shape" transform="translate(0,-281.745)">
			<title>Sheet.5</title>
			<desc>A [7:0]</desc>
			<v:textBlock v:margins="rect(0,0,0,0)"/>
			<v:textRect cx="18" cy="294.495" width="36" height="9"/>
			<path d="M36 289.99 L0 289.99 L0 298.99 L36 298.99 L36 289.99" class="st2"/>
			<text x="7.09" y="297.49" class="st3" v:langID="1033"><v:paragraph v:horizAlign="2"/><v:tabList/>A [7:0]</text>		</g>
		<g id="shape6-24" v:mID="6" v:groupContext="shape" transform="translate(0,-241.245)">
			<title>Sheet.6</title>
			<desc>C</desc>
			<v:textBlock v:margins="rect(0,0,0,0)"/>
			<v:textRect cx="18" cy="294.495" width="36" height="9"/>
			<path d="M36 289.99 L0 289.99 L0 298.99 L36 298.99 L36 289.99" class="st2"/>
			<text x="28.78" y="297.49" class="st3" v:langID="1033"><v:paragraph v:horizAlign="2"/><v:tabList/>C</text>		</g>
		<g id="shape7-28" v:mID="7" v:groupContext="shape" transform="translate(40.5,-286.245)">
			<title>Sheet.7</title>
			<path d="M0 298.99 L7.5 298.99 L15.06 298.99" class="st5"/>
		</g>
		<g id="shape8-34" v:mID="8" v:groupContext="shape" transform="translate(-222.429,-116.465) rotate(-63.4349)">
			<title>Sheet.8</title>
			<path d="M0 298.99 L10.06 298.99" class="st7"/>
		</g>
		<g id="shape9-37" v:mID="9" v:groupContext="shape" transform="translate(39.375,-288.495)">
			<title>Sheet.9</title>
			<desc>8</desc>
			<v:textBlock v:margins="rect(0,0,0,0)"/>
			<v:textRect cx="4.5" cy="294.495" width="9" height="9"/>
			<path d="M9 289.99 L0 289.99 L0 298.99 L9 298.99 L9 289.99" class="st2"/>
			<text x="3.44" y="297.49" class="st3" v:langID="1033"><v:paragraph v:horizAlign="2"/><v:tabList/>8</text>		</g>
		<g id="shape10-41" v:mID="10" v:groupContext="shape" transform="translate(0,-259.245)">
			<title>Sheet.10</title>
			<desc>B [7:0]</desc>
			<v:textBlock v:margins="rect(0,0,0,0)"/>
			<v:textRect cx="18" cy="294.495" width="36" height="9"/>
			<path d="M36 289.99 L0 289.99 L0 298.99 L36 298.99 L36 289.99" class="st2"/>
			<text x="7.09" y="297.49" class="st3" v:langID="1033"><v:paragraph v:horizAlign="2"/><v:tabList/>B [7:0]</text>		</g>
		<g id="shape11-45" v:mID="11" v:groupContext="shape" transform="translate(40.5,-263.745)">
			<title>Sheet.11</title>
			<path d="M0 298.99 L7.5 298.99 L15.06 298.99" class="st5"/>
		</g>
		<g id="shape12-50" v:mID="12" v:groupContext="shape" transform="translate(-222.429,-93.9646) rotate(-63.4349)">
			<title>Sheet.12</title>
			<path d="M0 298.99 L10.06 298.99" class="st7"/>
		</g>
		<g id="shape13-53" v:mID="13" v:groupContext="shape" transform="translate(39.375,-265.995)">
			<title>Sheet.13</title>
			<desc>8</desc>
			<v:textBlock v:margins="rect(0,0,0,0)"/>
			<v:textRect cx="4.5" cy="294.495" width="9" height="9"/>
			<path d="M9 289.99 L0 289.99 L0 298.99 L9 298.99 L9 289.99" class="st2"/>
			<text x="3.44" y="297.49" class="st3" v:langID="1033"><v:paragraph v:horizAlign="2"/><v:tabList/>8</text>		</g>
		<g id="shape14-57" v:mID="14" v:groupContext="shape" transform="translate(40.5,-245.745)">
			<title>Sheet.14</title>
			<path d="M0 298.99 L7.5 298.99 L16.02 298.99" class="st8"/>
		</g>
		<g id="shape15-63" v:mID="15" v:groupContext="shape" transform="translate(144,-272.745)">
			<title>Sheet.15</title>
			<desc>Z [7:0]</desc>
			<v:textBlock v:margins="rect(0,0,0,0)"/>
			<v:textRect cx="18" cy="294.495" width="36" height="9"/>
			<path d="M36 289.99 L0 289.99 L0 298.99 L36 298.99 L36 289.99" class="st2"/>
			<text x="0" y="297.49" class="st3" v:langID="1033"><v:paragraph/><v:tabList/>Z [7:0]</text>		</g>
		<g id="shape16-67" v:mID="16" v:groupContext="shape" transform="translate(117,-277.245)">
			<title>Sheet.16</title>
			<path d="M0 298.99 L7.5 298.99 L15.06 298.99" class="st5"/>
		</g>
		<g id="shape17-72" v:mID="17" v:groupContext="shape" transform="translate(-154.831,-86.0959) rotate(-67.4636)">
			<title>Sheet.17</title>
			<path d="M0 298.99 L12.18 298.99" class="st7"/>
		</g>
		<g id="shape18-75" v:mID="18" v:groupContext="shape" transform="translate(115.875,-279.495)">
			<title>Sheet.18</title>
			<desc>8</desc>
			<v:textBlock v:margins="rect(0,0,0,0)"/>
			<v:textRect cx="4.5" cy="294.495" width="9" height="9"/>
			<path d="M9 289.99 L0 289.99 L0 298.99 L9 298.99 L9 289.99" class="st2"/>
			<text x="3.44" y="297.49" class="st3" v:langID="1033"><v:paragraph v:horizAlign="2"/><v:tabList/>8</text>		</g>
		<g id="shape19-79" v:mID="19" v:groupContext="shape" transform="translate(117,-259.245)">
			<title>Sheet.19</title>
			<path d="M0 298.99 L7.5 298.99 L16.02 298.99" class="st8"/>
		</g>
		<g id="shape20-84" v:mID="20" v:groupContext="shape" transform="translate(117,-241.245)">
			<title>Sheet.20</title>
			<path d="M0 298.99 L7.5 298.99 L16.02 298.99" class="st8"/>
		</g>
		<g id="shape21-89" v:mID="21" v:groupContext="shape" transform="translate(144,-254.745)">
			<title>Sheet.21</title>
			<desc>X</desc>
			<v:textBlock v:margins="rect(0,0,0,0)"/>
			<v:textRect cx="6.75" cy="294.495" width="13.5" height="9"/>
			<path d="M13.5 289.99 L0 289.99 L0 298.99 L13.5 298.99 L13.5 289.99" class="st2"/>
			<text x="0" y="297.49" class="st3" v:langID="1033"><v:paragraph/><v:tabList/>X</text>		</g>
		<g id="shape22-93" v:mID="22" v:groupContext="shape" transform="translate(144,-236.745)">
			<title>Sheet.22</title>
			<desc>Y</desc>
			<v:textBlock v:margins="rect(0,0,0,0)"/>
			<v:textRect cx="6.75" cy="294.495" width="13.5" height="9"/>
			<path d="M13.5 289.99 L0 289.99 L0 298.99 L13.5 298.99 L13.5 289.99" class="st2"/>
			<text x="0" y="297.49" class="st3" v:langID="1033"><v:paragraph/><v:tabList/>Y</text>		</g>
		<g id="shape23-97" v:mID="23" v:groupContext="shape" transform="translate(28.3361,-155.745)">
			<title>Sheet.23</title>
			<desc>A(0)</desc>
			<v:textBlock v:margins="rect(0,0,0,0)"/>
			<v:textRect cx="11.25" cy="294.495" width="22.5" height="9"/>
			<path d="M22.5 289.99 L0 289.99 L0 298.99 L22.5 298.99 L22.5 289.99" class="st2"/>
			<text x="3.61" y="297.49" class="st3" v:langID="1033"><v:paragraph v:horizAlign="2"/><v:tabList/>A(0)</text>		</g>
		<g id="shape24-101" v:mID="24" v:groupContext="shape" transform="translate(28.3361,-142.245)">
			<title>Sheet.24</title>
			<desc>B(0)</desc>
			<v:textBlock v:margins="rect(0,0,0,0)"/>
			<v:textRect cx="11.25" cy="294.495" width="22.5" height="9"/>
			<path d="M22.5 289.99 L0 289.99 L0 298.99 L22.5 298.99 L22.5 289.99" class="st2"/>
			<text x="3.61" y="297.49" class="st3" v:langID="1033"><v:paragraph v:horizAlign="2"/><v:tabList/>B(0)</text>		</g>
		<g id="shape25-105" v:mID="25" v:groupContext="shape" transform="translate(28.3361,-128.745)">
			<title>Sheet.25</title>
			<desc>C</desc>
			<v:textBlock v:margins="rect(0,0,0,0)"/>
			<v:textRect cx="11.25" cy="294.495" width="22.5" height="9"/>
			<path d="M22.5 289.99 L0 289.99 L0 298.99 L22.5 298.99 L22.5 289.99" class="st2"/>
			<text x="15.28" y="297.49" class="st3" v:langID="1033"><v:paragraph v:horizAlign="2"/><v:tabList/>C</text>		</g>
		<g id="shape26-109" v:mID="26" v:groupContext="shape" transform="translate(56.0817,-160.245)">
			<title>Sheet.26</title>
			<path d="M0 298.99 L4.5 298.99 L7.02 298.99" class="st8"/>
		</g>
		<g id="shape27-114" v:mID="27" v:groupContext="shape" transform="translate(56.0817,-146.745)">
			<title>Sheet.27</title>
			<path d="M0 298.99 L4.5 298.99 L7.02 298.99" class="st8"/>
		</g>
		<g id="shape28-119" v:mID="28" v:groupContext="shape" transform="translate(56.0817,-133.245)">
			<title>Sheet.28</title>
			<path d="M0 298.99 L4.5 298.99 L7.02 298.99" class="st8"/>
		</g>
		<g id="shape29-124" v:mID="29" v:groupContext="shape" transform="translate(95.8361,-155.745)">
			<title>Sheet.29</title>
			<path d="M0 298.99 L4.5 298.99 L7.02 298.99" class="st8"/>
		</g>
		<g id="shape30-129" v:mID="30" v:groupContext="shape" transform="translate(113.836,-151.245)">
			<title>Sheet.30</title>
			<desc>Z(0)</desc>
			<v:textBlock v:margins="rect(0,0,0,0)"/>
			<v:textRect cx="11.25" cy="294.495" width="22.5" height="9"/>
			<path d="M22.5 289.99 L0 289.99 L0 298.99 L22.5 298.99 L22.5 289.99" class="st2"/>
			<text x="0" y="297.49" class="st3" v:langID="1033"><v:paragraph/><v:tabList/>Z(0)</text>		</g>
		<g id="shape31-133" v:mID="31" v:groupContext="shape" transform="translate(95.8361,-137.745)">
			<title>Sheet.31</title>
			<path d="M0 298.99 L4.5 298.99 L7.02 298.99" class="st8"/>
		</g>
		<g id="shape32-138" v:mID="32" v:groupContext="shape" transform="translate(113.836,-133.245)">
			<title>Sheet.32</title>
			<desc>X</desc>
			<v:textBlock v:margins="rect(0,0,0,0)"/>
			<v:textRect cx="11.25" cy="294.495" width="22.5" height="9"/>
			<path d="M22.5 289.99 L0 289.99 L0 298.99 L22.5 298.99 L22.5 289.99" class="st2"/>
			<text x="0" y="297.49" class="st3" v:langID="1033"><v:paragraph/><v:tabList/>X</text>		</g>
		<g id="shape33-142" v:mID="33" v:groupContext="shape" transform="translate(82.3361,-110.745)">
			<title>Sheet.33</title>
			<path d="M0 280.99 L0 285.49 L0 293.95" class="st10"/>
		</g>
		<g id="shape34-151" v:mID="34" v:groupContext="shape" transform="translate(28.3361,-74.7449)">
			<title>Sheet.34</title>
			<desc>C</desc>
			<v:textBlock v:margins="rect(0,0,0,0)"/>
			<v:textRect cx="11.25" cy="294.495" width="22.5" height="9"/>
			<path d="M22.5 289.99 L0 289.99 L0 298.99 L22.5 298.99 L22.5 289.99" class="st2"/>
			<text x="15.28" y="297.49" class="st3" v:langID="1033"><v:paragraph v:horizAlign="2"/><v:tabList/>C</text>		</g>
		<g id="shape35-155" v:mID="35" v:groupContext="shape" transform="translate(56.0817,-106.245)">
			<title>Sheet.35</title>
			<path d="M0 298.99 L4.5 298.99 L7.02 298.99" class="st8"/>
		</g>
		<g id="shape36-160" v:mID="36" v:groupContext="shape" transform="translate(56.0817,-92.7449)">
			<title>Sheet.36</title>
			<path d="M0 298.99 L4.5 298.99 L7.02 298.99" class="st8"/>
		</g>
		<g id="shape37-165" v:mID="37" v:groupContext="shape" transform="translate(56.0817,-79.2449)">
			<title>Sheet.37</title>
			<path d="M0 298.99 L4.5 298.99 L7.02 298.99" class="st8"/>
		</g>
		<g id="shape38-170" v:mID="38" v:groupContext="shape" transform="translate(95.8361,-101.745)">
			<title>Sheet.38</title>
			<path d="M0 298.99 L4.5 298.99 L7.02 298.99" class="st8"/>
		</g>
		<g id="shape39-175" v:mID="39" v:groupContext="shape" transform="translate(113.836,-97.2449)">
			<title>Sheet.39</title>
			<desc>Z(1)</desc>
			<v:textBlock v:margins="rect(0,0,0,0)"/>
			<v:textRect cx="11.25" cy="294.495" width="22.5" height="9"/>
			<path d="M22.5 289.99 L0 289.99 L0 298.99 L22.5 298.99 L22.5 289.99" class="st2"/>
			<text x="0" y="297.49" class="st3" v:langID="1033"><v:paragraph/><v:tabList/>Z(1)</text>		</g>
		<g id="shape40-179" v:mID="40" v:groupContext="shape" transform="translate(82.3361,-47.7449)">
			<title>Sheet.40</title>
			<path d="M0 280.99 L0 285.49 L0 293.95" class="st10"/>
		</g>
		<g id="shape41-186" v:mID="41" v:groupContext="shape" transform="translate(28.3361,-101.745)">
			<title>Sheet.41</title>
			<desc>A(1)</desc>
			<v:textBlock v:margins="rect(0,0,0,0)"/>
			<v:textRect cx="11.25" cy="294.495" width="22.5" height="9"/>
			<path d="M22.5 289.99 L0 289.99 L0 298.99 L22.5 298.99 L22.5 289.99" class="st2"/>
			<text x="3.61" y="297.49" class="st3" v:langID="1033"><v:paragraph v:horizAlign="2"/><v:tabList/>A(1)</text>		</g>
		<g id="shape42-190" v:mID="42" v:groupContext="shape" transform="translate(28.3361,-88.2449)">
			<title>Sheet.42</title>
			<desc>B(1)</desc>
			<v:textBlock v:margins="rect(0,0,0,0)"/>
			<v:textRect cx="11.25" cy="294.495" width="22.5" height="9"/>
			<path d="M22.5 289.99 L0 289.99 L0 298.99 L22.5 298.99 L22.5 289.99" class="st2"/>
			<text x="3.61" y="297.49" class="st3" v:langID="1033"><v:paragraph v:horizAlign="2"/><v:tabList/>B(1)</text>		</g>
		<g id="shape43-194" v:mID="43" v:groupContext="shape" transform="translate(28.3361,-2.74486)">
			<title>Sheet.43</title>
			<desc>C</desc>
			<v:textBlock v:margins="rect(0,0,0,0)"/>
			<v:textRect cx="11.25" cy="294.495" width="22.5" height="9"/>
			<path d="M22.5 289.99 L0 289.99 L0 298.99 L22.5 298.99 L22.5 289.99" class="st2"/>
			<text x="15.28" y="297.49" class="st3" v:langID="1033"><v:paragraph v:horizAlign="2"/><v:tabList/>C</text>		</g>
		<g id="shape44-198" v:mID="44" v:groupContext="shape" transform="translate(56.0817,-34.2449)">
			<title>Sheet.44</title>
			<path d="M0 298.99 L4.5 298.99 L7.02 298.99" class="st8"/>
		</g>
		<g id="shape45-203" v:mID="45" v:groupContext="shape" transform="translate(56.0817,-20.7449)">
			<title>Sheet.45</title>
			<path d="M0 298.99 L4.5 298.99 L7.02 298.99" class="st8"/>
		</g>
		<g id="shape46-208" v:mID="46" v:groupContext="shape" transform="translate(56.0817,-7.24486)">
			<title>Sheet.46</title>
			<path d="M0 298.99 L4.5 298.99 L7.02 298.99" class="st8"/>
		</g>
		<g id="shape47-213" v:mID="47" v:groupContext="shape" transform="translate(95.8361,-29.7449)">
			<title>Sheet.47</title>
			<path d="M0 298.99 L4.5 298.99 L7.02 298.99" class="st8"/>
		</g>
		<g id="shape48-218" v:mID="48" v:groupContext="shape" transform="translate(113.836,-25.2449)">
			<title>Sheet.48</title>
			<desc>Z(7)</desc>
			<v:textBlock v:margins="rect(0,0,0,0)"/>
			<v:textRect cx="11.25" cy="294.495" width="22.5" height="9"/>
			<path d="M22.5 289.99 L0 289.99 L0 298.99 L22.5 298.99 L22.5 289.99" class="st2"/>
			<text x="0" y="297.49" class="st3" v:langID="1033"><v:paragraph/><v:tabList/>Z(7)</text>		</g>
		<g id="shape49-222" v:mID="49" v:groupContext="shape" transform="translate(95.8361,-11.7449)">
			<title>Sheet.49</title>
			<path d="M0 298.99 L4.5 298.99 L7.02 298.99" class="st8"/>
		</g>
		<g id="shape50-227" v:mID="50" v:groupContext="shape" transform="translate(113.836,-7.24486)">
			<title>Sheet.50</title>
			<desc>Y</desc>
			<v:textBlock v:margins="rect(0,0,0,0)"/>
			<v:textRect cx="11.25" cy="294.495" width="22.5" height="9"/>
			<path d="M22.5 289.99 L0 289.99 L0 298.99 L22.5 298.99 L22.5 289.99" class="st2"/>
			<text x="0" y="297.49" class="st3" v:langID="1033"><v:paragraph/><v:tabList/>Y</text>		</g>
		<g id="shape51-231" v:mID="51" v:groupContext="shape" transform="translate(28.3361,-29.7449)">
			<title>Sheet.51</title>
			<desc>A(7)</desc>
			<v:textBlock v:margins="rect(0,0,0,0)"/>
			<v:textRect cx="11.25" cy="294.495" width="22.5" height="9"/>
			<path d="M22.5 289.99 L0 289.99 L0 298.99 L22.5 298.99 L22.5 289.99" class="st2"/>
			<text x="3.61" y="297.49" class="st3" v:langID="1033"><v:paragraph v:horizAlign="2"/><v:tabList/>A(7)</text>		</g>
		<g id="shape52-235" v:mID="52" v:groupContext="shape" transform="translate(28.3361,-16.2449)">
			<title>Sheet.52</title>
			<desc>B(7)</desc>
			<v:textBlock v:margins="rect(0,0,0,0)"/>
			<v:textRect cx="11.25" cy="294.495" width="22.5" height="9"/>
			<path d="M22.5 289.99 L0 289.99 L0 298.99 L22.5 298.99 L22.5 289.99" class="st2"/>
			<text x="3.61" y="297.49" class="st3" v:langID="1033"><v:paragraph v:horizAlign="2"/><v:tabList/>B(7)</text>		</g>
		<g id="shape53-239" v:mID="53" v:groupContext="shape" v:layerMember="0"
				transform="translate(356.39,32.555) rotate(82.9987)">
			<title>Line-curve connector</title>
			<v:userDefs>
				<v:ud v:nameU="AntiScale" v:val="VT0(1):26"/>
				<v:ud v:nameU="Scale" v:val="VT0(1):26"/>
				<v:ud v:nameU="visVersion" v:val="VT0(11):26"/>
			</v:userDefs>
			<path d="M0 298.99 L2.48 309.84 L6.35 317.77 L11.6 322.8 L18.24 324.91 L26.27 324.11 L35.68 320.4 L46.48 313.77 L58.67
						 304.24 L58.94 304" class="st12"/>
		</g>
		<g id="shape54-245" v:mID="54" v:groupContext="shape" transform="translate(95.9063,-83.7449)">
			<title>Sheet.54</title>
			<path d="M0 298.99 L4.5 298.99 L7.02 298.99" class="st8"/>
		</g>
		<g id="shape55-250" v:mID="55" v:groupContext="shape" transform="translate(113.906,-79.2449)">
			<title>Sheet.55</title>
			<desc>X</desc>
			<v:textBlock v:margins="rect(0,0,0,0)"/>
			<v:textRect cx="11.25" cy="294.495" width="22.5" height="9"/>
			<path d="M22.5 289.99 L0 289.99 L0 298.99 L22.5 298.99 L22.5 289.99" class="st2"/>
			<text x="0" y="297.49" class="st3" v:langID="1033"><v:paragraph/><v:tabList/>X</text>		</g>
		<g id="shape56-254" v:mID="56" v:groupContext="shape" transform="translate(69.5817,-128.745)">
			<title>Rectangle.5</title>
			<v:userDefs>
				<v:ud v:nameU="visVersion" v:val="VT0(11):26"/>
			</v:userDefs>
			<rect x="0" y="262.995" width="27" height="36" class="st14"/>
		</g>
		<g id="shape57-256" v:mID="57" v:groupContext="shape" transform="translate(69.5817,-74.7449)">
			<title>Rectangle.4</title>
			<v:userDefs>
				<v:ud v:nameU="visVersion" v:val="VT0(11):26"/>
			</v:userDefs>
			<rect x="0" y="262.995" width="27" height="36" class="st14"/>
		</g>
		<g id="shape58-258" v:mID="58" v:groupContext="shape" transform="translate(69.5817,-2.74486)">
			<title>Rectangle.32</title>
			<v:userDefs>
				<v:ud v:nameU="visVersion" v:val="VT0(11):26"/>
			</v:userDefs>
			<rect x="0" y="262.995" width="27" height="36" class="st14"/>
		</g>
	</g>
</svg>
