<?xml version="1.0" encoding="UTF-8" standalone="no"?>
<!DOCTYPE svg PUBLIC "-//W3C//DTD SVG 1.1//EN" "http://www.w3.org/Graphics/SVG/1.1/DTD/svg11.dtd">
<!-- Generated by Microsoft Visio, SVG Export parallel circuit.svg Page-1 -->
<svg xmlns="http://www.w3.org/2000/svg" xmlns:xlink="http://www.w3.org/1999/xlink" xmlns:ev="http://www.w3.org/2001/xml-events"
		xmlns:v="http://schemas.microsoft.com/visio/2003/SVGExtensions/" width="1.8325in" height="1.18229in"
		viewBox="0 0 131.94 85.1251" xml:space="preserve" color-interpolation-filters="sRGB" class="st8">
	<v:documentProperties v:langID="1033" v:viewMarkup="false">
		<v:userDefs>
			<v:ud v:nameU="msvConvertTheme"/>
		</v:userDefs>
	</v:documentProperties>

	<style type="text/css">
	<![CDATA[
		.st1 {stroke:#000000;stroke-linecap:round;stroke-linejoin:round;stroke-width:0.72}
		.st2 {fill:#ffffff;stroke:#000000;stroke-linecap:round;stroke-linejoin:round;stroke-width:0.72}
		.st3 {fill:#000000;stroke:#000000;stroke-linecap:round;stroke-linejoin:round;stroke-width:0.72}
		.st4 {fill:none;stroke:none;stroke-linecap:round;stroke-linejoin:round;stroke-width:0.72}
		.st5 {fill:#000000;font-family:Arial;font-size:0.833336em}
		.st6 {marker-end:url(#mrkr4-85);stroke:#000000;stroke-linecap:round;stroke-linejoin:round;stroke-width:0.72}
		.st7 {fill:#000000;fill-opacity:1;stroke:#000000;stroke-opacity:1;stroke-width:0.28571428571429}
		.st8 {fill:none;fill-rule:evenodd;font-size:12px;overflow:visible;stroke-linecap:square;stroke-miterlimit:3}
	]]>
	</style>

	<defs id="Markers">
		<g id="lend4">
			<path d="M 2 1 L 0 0 L 2 -1 L 2 1 " style="stroke:none"/>
		</g>
		<marker id="mrkr4-85" class="st7" v:arrowType="4" v:arrowSize="1" v:setback="7" refX="-7" orient="auto"
				markerUnits="strokeWidth" overflow="visible">
			<use xlink:href="#lend4" transform="scale(-3.5,-3.5) "/>
		</marker>
	</defs>
	<g v:mID="0" v:index="1" v:groupContext="foregroundPage">
		<title>Page-1</title>
		<v:pageProperties v:drawingScale="1" v:pageScale="1" v:drawingUnits="19" v:shadowOffsetX="9" v:shadowOffsetY="-9"/>
		<g id="group178-1" transform="translate(60.345,-15.0002)" v:mID="178" v:groupContext="group">
			<title>Sheet.178</title>
			<g id="shape349-2" v:mID="349" v:groupContext="shape" transform="translate(-23.5439,4.36834) rotate(-18.4349)">
				<title>Sheet.349</title>
				<path d="M0 85.13 L3.56 85.13" class="st1"/>
			</g>
			<g id="shape351-5" v:mID="351" v:groupContext="shape" transform="translate(26.9189,0.993339) rotate(18.4349)">
				<title>Sheet.351</title>
				<path d="M0 85.13 L7.12 85.13" class="st1"/>
			</g>
			<g id="shape352-8" v:mID="352" v:groupContext="shape" transform="translate(-26.9189,0.993339) rotate(-18.4349)">
				<title>Sheet.352</title>
				<path d="M0 85.13 L7.12 85.13" class="st1"/>
			</g>
			<g id="shape353-11" v:mID="353" v:groupContext="shape" transform="translate(26.9189,-3.50666) rotate(18.4349)">
				<title>Sheet.353</title>
				<path d="M0 85.13 L7.12 85.13" class="st1"/>
			</g>
			<g id="shape354-14" v:mID="354" v:groupContext="shape" transform="translate(-26.9189,-3.50666) rotate(-18.4349)">
				<title>Sheet.354</title>
				<path d="M0 85.13 L7.12 85.13" class="st1"/>
			</g>
			<g id="shape355-17" v:mID="355" v:groupContext="shape" transform="translate(26.9189,-8.00666) rotate(18.4349)">
				<title>Sheet.355</title>
				<path d="M0 85.13 L7.12 85.13" class="st1"/>
			</g>
			<g id="shape356-20" v:mID="356" v:groupContext="shape" transform="translate(-26.9189,-8.00666) rotate(-18.4349)">
				<title>Sheet.356</title>
				<path d="M0 85.13 L3.56 85.13" class="st1"/>
			</g>
		</g>
		<g id="shape357-23" v:mID="357" v:groupContext="shape" transform="translate(-21.4051,19.4999) rotate(-90)">
			<title>Sheet.357</title>
			<path d="M0 85.13 L7.87 85.13" class="st1"/>
		</g>
		<g id="shape358-26" v:mID="358" v:groupContext="shape" transform="translate(74.97,-55.5002)">
			<title>Circle.358</title>
			<path d="M0 82.88 A2.25 2.25 0 0 1 4.5 82.88 A2.25 2.25 0 1 1 0 82.88 Z" class="st2"/>
		</g>
		<g id="shape359-28" v:mID="359" v:groupContext="shape" transform="translate(24.091,95.4758) rotate(-131.31)">
			<title>Sheet.359</title>
			<path d="M0 85.13 L13.61 85.13" class="st1"/>
		</g>
		<g id="shape360-31" v:mID="360" v:groupContext="shape" transform="translate(130.595,113.002) rotate(150)">
			<title>Sheet.360</title>
			<path d="M0 85.13 L4 85.13" class="st1"/>
		</g>
		<g id="shape361-34" v:mID="361" v:groupContext="shape" transform="translate(8.64464,2.78465) rotate(-63.1113)">
			<title>Sheet.361</title>
			<path d="M0 85.13 L4.23 85.13" class="st1"/>
		</g>
		<g id="shape362-37" v:mID="362" v:groupContext="shape" transform="translate(74.97,-39.7502)">
			<title>Circle.362</title>
			<path d="M0 82.88 A2.25 2.25 0 0 1 4.5 82.88 A2.25 2.25 0 1 1 0 82.88 Z" class="st2"/>
		</g>
		<g id="shape363-39" v:mID="363" v:groupContext="shape" transform="translate(-21.4051,56.6249) rotate(-90)">
			<title>Sheet.363</title>
			<path d="M0 85.13 L6.75 85.13" class="st1"/>
		</g>
		<g id="shape365-42" v:mID="365" v:groupContext="shape" transform="translate(62.595,-63.3752)">
			<title>Circle.365</title>
			<path d="M0 84 A1.125 1.125 0 0 1 2.25 84 A1.125 1.125 0 1 1 0 84 Z" class="st3"/>
		</g>
		<g id="shape366-44" v:mID="366" v:groupContext="shape" transform="translate(90.72,-33.5627)">
			<title>Circle.366</title>
			<path d="M0 83.44 A1.6875 1.6875 0 0 1 3.37 83.44 A1.6875 1.6875 0 1 1 0 83.44 Z" class="st2"/>
		</g>
		<g id="shape367-46" v:mID="367" v:groupContext="shape" transform="translate(70.47,96.75) rotate(180)">
			<title>Sheet.367</title>
			<path d="M0 85.13 L13.5 85.13" class="st1"/>
		</g>
		<g id="shape368-49" v:mID="368" v:groupContext="shape" transform="translate(52.47,-55.5002) scale(-1,1)">
			<title>Circle.368</title>
			<path d="M0 82.88 A2.25 2.25 0 0 1 4.5 82.88 A2.25 2.25 0 1 1 0 82.88 Z" class="st2"/>
		</g>
		<g id="shape369-51" v:mID="369" v:groupContext="shape" transform="translate(52.47,-39.7502) scale(-1,1)">
			<title>Circle.369</title>
			<path d="M0 82.88 A2.25 2.25 0 0 1 4.5 82.88 A2.25 2.25 0 1 1 0 82.88 Z" class="st2"/>
		</g>
		<g id="shape370-53" v:mID="370" v:groupContext="shape" transform="translate(-34.9051,25.1249) rotate(-90)">
			<title>Sheet.370</title>
			<path d="M0 85.13 L4.5 85.13" class="st1"/>
		</g>
		<g id="shape372-56" v:mID="372" v:groupContext="shape" transform="translate(59.22,-10.5002)">
			<title>Sheet.372</title>
			<path d="M0 85.13 L9 85.13" class="st1"/>
		</g>
		<g id="shape373-59" v:mID="373" v:groupContext="shape" transform="translate(-7.10836,128.594) rotate(-123.69)">
			<title>Sheet.373</title>
			<path d="M0 85.13 L8.11 85.13" class="st1"/>
		</g>
		<g id="shape374-62" v:mID="374" v:groupContext="shape" transform="translate(-7.10836,34.156) rotate(-56.3099)">
			<title>Sheet.374</title>
			<path d="M0 85.13 L8.11 85.13" class="st1"/>
		</g>
		<g id="shape375-65" v:mID="375" v:groupContext="shape" transform="translate(48.5775,-74.6252)">
			<title>Sheet.375</title>
			<desc>Vdd</desc>
			<v:textBlock v:margins="rect(4,4,4,4)" v:tabSpace="42.5197"/>
			<v:textRect cx="16.83" cy="80.6251" width="33.66" height="9"/>
			<rect x="0" y="76.1251" width="33.66" height="9" class="st4"/>
			<text x="4" y="83.63" class="st5" v:langID="1033"><v:paragraph/><v:tabList/>Vdd</text>		</g>
		<g id="shape376-68" v:mID="376" v:groupContext="shape" transform="translate(29.97,-1.50018)">
			<title>Sheet.376</title>
			<desc>GND</desc>
			<v:textBlock v:margins="rect(4,4,4,4)" v:tabSpace="42.5197"/>
			<v:textRect cx="16.875" cy="80.6251" width="33.75" height="9"/>
			<rect x="0" y="76.1251" width="33.75" height="9" class="st4"/>
			<text x="4" y="83.63" class="st5" v:langID="1033"><v:paragraph/><v:tabList/>GND</text>		</g>
		<g id="shape377-71" v:mID="377" v:groupContext="shape" transform="translate(93.5325,-30.7502)">
			<title>Sheet.377</title>
			<desc>F</desc>
			<v:textBlock v:margins="rect(4,4,4,4)" v:tabSpace="42.5197"/>
			<v:textRect cx="15.1875" cy="81.7501" width="30.38" height="6.75"/>
			<rect x="0" y="78.3751" width="30.375" height="6.75" class="st4"/>
			<text x="4" y="84.75" class="st5" v:langID="1033"><v:paragraph/><v:tabList/>F</text>		</g>
		<g id="shape378-74" v:mID="378" v:groupContext="shape" transform="translate(0.72,-46.5002)">
			<title>Sheet.378</title>
			<desc>SW1</desc>
			<v:textBlock v:margins="rect(4,4,4,4)" v:tabSpace="42.5197"/>
			<v:textRect cx="16.875" cy="81.1876" width="33.75" height="7.875"/>
			<rect x="0" y="77.2501" width="33.75" height="7.875" class="st4"/>
			<text x="4" y="84.19" class="st5" v:langID="1033"><v:paragraph/><v:tabList/>SW1</text>		</g>
		<g id="shape379-77" v:mID="379" v:groupContext="shape" transform="translate(99.72,-47.0627)">
			<title>Sheet.379</title>
			<desc>SW2</desc>
			<v:textBlock v:margins="rect(4,4,4,4)" v:tabSpace="42.5197"/>
			<v:textRect cx="15.75" cy="81.1876" width="31.5" height="7.875"/>
			<rect x="0" y="77.2501" width="31.5" height="7.875" class="st4"/>
			<text x="4" y="84.19" class="st5" v:langID="1033"><v:paragraph/><v:tabList/>SW2</text>		</g>
		<g id="shape380-80" v:mID="380" v:groupContext="shape" transform="translate(99.72,-51.0002) scale(-1,1)">
			<title>Sheet.380</title>
			<path d="M0 85.13 L6.21 85.13" class="st6"/>
		</g>
		<g id="shape381-86" v:mID="381" v:groupContext="shape" transform="translate(104.037,95.5529) rotate(-48.6901) scale(1,-1)">
			<title>Sheet.381</title>
			<path d="M0 85.13 L13.61 85.13" class="st1"/>
		</g>
		<g id="shape382-89" v:mID="382" v:groupContext="shape" transform="translate(-2.46755,113.08) rotate(30) scale(1,-1)">
			<title>Sheet.382</title>
			<path d="M0 85.13 L4 85.13" class="st1"/>
		</g>
		<g id="shape383-92" v:mID="383" v:groupContext="shape" transform="translate(119.483,2.86177) rotate(63.1113) scale(-1,1)">
			<title>Sheet.383</title>
			<path d="M0 85.13 L4.23 85.13" class="st1"/>
		</g>
		<g id="shape384-95" v:mID="384" v:groupContext="shape" transform="translate(27.72,-51.0002)">
			<title>Sheet.384</title>
			<path d="M0 85.13 L6.21 85.13" class="st6"/>
		</g>
		<g id="shape385-100" v:mID="385" v:groupContext="shape" transform="translate(-7.90509,25.1249) rotate(-90)">
			<title>Sheet.385</title>
			<path d="M0 85.13 L4.5 85.13" class="st1"/>
		</g>
		<g id="shape386-103" v:mID="386" v:groupContext="shape" transform="translate(77.22,105.75) rotate(180)">
			<title>Sheet.386</title>
			<path d="M0 85.13 L27 85.13" class="st1"/>
		</g>
		<g id="shape387-106" v:mID="387" v:groupContext="shape" transform="translate(62.595,133.875) scale(1,-1)">
			<title>Circle.387</title>
			<path d="M0 84 A1.125 1.125 0 0 1 2.25 84 A1.125 1.125 0 1 1 0 84 Z" class="st3"/>
		</g>
		<g id="shape388-108" v:mID="388" v:groupContext="shape" transform="translate(-34.9051,45.3749) rotate(-90) scale(-1,1)">
			<title>Sheet.388</title>
			<path d="M0 85.13 L4.5 85.13" class="st1"/>
		</g>
		<g id="shape389-111" v:mID="389" v:groupContext="shape" transform="translate(-7.90509,45.3749) rotate(-90) scale(-1,1)">
			<title>Sheet.389</title>
			<path d="M0 85.13 L4.5 85.13" class="st1"/>
		</g>
		<g id="shape390-114" v:mID="390" v:groupContext="shape" transform="translate(90.72,-35.2502) scale(-1,1)">
			<title>Sheet.390</title>
			<path d="M0 85.13 L40.5 85.13" class="st1"/>
		</g>
		<g id="shape391-117" v:mID="391" v:groupContext="shape" transform="translate(-21.3376,74.6249) rotate(-90)">
			<title>Sheet.391</title>
			<path d="M0 85.13 L4.52 85.13" class="st1"/>
		</g>
		<g id="shape364-120" v:mID="364" v:groupContext="shape" transform="translate(76.095,133.875) scale(1,-1)">
			<title>Circle.364</title>
			<path d="M0 84 A1.125 1.125 0 0 1 2.25 84 A1.125 1.125 0 1 1 0 84 Z" class="st3"/>
		</g>
	</g>
</svg>
