<?xml version="1.0" encoding="UTF-8" standalone="no"?>
<!DOCTYPE svg PUBLIC "-//W3C//DTD SVG 1.1//EN" "http://www.w3.org/Graphics/SVG/1.1/DTD/svg11.dtd">
<!-- Generated by Microsoft Visio, SVG Export SerialAdder_SM7.svg Page-1 -->
<svg xmlns="http://www.w3.org/2000/svg" xmlns:xlink="http://www.w3.org/1999/xlink" xmlns:ev="http://www.w3.org/2001/xml-events"
		xmlns:v="http://schemas.microsoft.com/visio/2003/SVGExtensions/" width="4.1875in" height="3.89244in"
		viewBox="0 0 301.5 280.256" xml:space="preserve" color-interpolation-filters="sRGB" class="st19">
	<v:documentProperties v:langID="1033" v:viewMarkup="false"/>

	<style type="text/css">
	<![CDATA[
		.st1 {fill:#abe0ae;stroke:#000000;stroke-linecap:round;stroke-linejoin:round;stroke-width:0.24}
		.st2 {fill:#000000;font-family:Arial;font-size:0.833336em}
		.st3 {marker-start:url(#mrkr4-9);stroke:#4d4d4d;stroke-linecap:round;stroke-linejoin:round;stroke-width:1.2}
		.st4 {fill:#4d4d4d;fill-opacity:1;stroke:#4d4d4d;stroke-opacity:1;stroke-width:0.4}
		.st5 {font-size:1em}
		.st6 {marker-end:url(#mrkr5-23);stroke:#000000;stroke-linecap:round;stroke-linejoin:round;stroke-width:0.75}
		.st7 {fill:#000000;fill-opacity:1;stroke:#000000;stroke-opacity:1;stroke-width:0.22935779816514}
		.st8 {fill:none;stroke:none;stroke-linecap:round;stroke-linejoin:round;stroke-width:0.75}
		.st9 {fill:#000000;font-family:Arial Unicode MS;font-size:0.833336em}
		.st10 {fill:none;stroke:none;stroke-linecap:round;stroke-linejoin:round;stroke-width:0.72}
		.st11 {marker-start:url(#mrkr5-59);stroke:#000000;stroke-linecap:round;stroke-linejoin:round;stroke-width:0.75}
		.st12 {stroke:#000000;stroke-linecap:round;stroke-linejoin:round;stroke-width:0.75}
		.st13 {marker-end:url(#mrkr5-145);stroke:#c05046;stroke-linecap:round;stroke-linejoin:round;stroke-width:0.75}
		.st14 {fill:#c05046;fill-opacity:1;stroke:#c05046;stroke-opacity:1;stroke-width:0.22935779816514}
		.st15 {marker-start:url(#mrkr5-151);stroke:#c05046;stroke-linecap:round;stroke-linejoin:round;stroke-width:0.75}
		.st16 {fill:#c05046;font-family:Arial;font-size:0.833336em}
		.st17 {fill:#c05046;font-family:Arial Unicode MS;font-size:0.833336em}
		.st18 {stroke:#c05046;stroke-linecap:round;stroke-linejoin:round;stroke-width:0.75}
		.st19 {fill:none;fill-rule:evenodd;font-size:12px;overflow:visible;stroke-linecap:square;stroke-miterlimit:3}
	]]>
	</style>

	<defs id="Markers">
		<g id="lend4">
			<path d="M 2 1 L 0 0 L 2 -1 L 2 1 " style="stroke:none"/>
		</g>
		<marker id="mrkr4-9" class="st4" v:arrowType="4" v:arrowSize="1" v:setback="4.7" refX="4.7" orient="auto"
				markerUnits="strokeWidth" overflow="visible">
			<use xlink:href="#lend4" transform="scale(2.5) "/>
		</marker>
		<g id="lend5">
			<path d="M 2 1 L 0 0 L 1.98117 -0.993387 C 1.67173 -0.364515 1.67301 0.372641 1.98465 1.00043 " style="stroke:none"/>
		</g>
		<marker id="mrkr5-23" class="st7" v:arrowType="5" v:arrowSize="2" v:setback="7.15" refX="-7.15" orient="auto"
				markerUnits="strokeWidth" overflow="visible">
			<use xlink:href="#lend5" transform="scale(-4.36,-4.36) "/>
		</marker>
		<marker id="mrkr5-59" class="st7" v:arrowType="5" v:arrowSize="2" v:setback="7.15" refX="7.15" orient="auto"
				markerUnits="strokeWidth" overflow="visible">
			<use xlink:href="#lend5" transform="scale(4.36) "/>
		</marker>
		<marker id="mrkr5-145" class="st14" v:arrowType="5" v:arrowSize="2" v:setback="7.15" refX="-7.15" orient="auto"
				markerUnits="strokeWidth" overflow="visible">
			<use xlink:href="#lend5" transform="scale(-4.36,-4.36) "/>
		</marker>
		<marker id="mrkr5-151" class="st14" v:arrowType="5" v:arrowSize="2" v:setback="7.15" refX="7.15" orient="auto"
				markerUnits="strokeWidth" overflow="visible">
			<use xlink:href="#lend5" transform="scale(4.36) "/>
		</marker>
	</defs>
	<g v:mID="0" v:index="1" v:groupContext="foregroundPage">
		<title>Page-1</title>
		<v:pageProperties v:drawingScale="1" v:pageScale="1" v:drawingUnits="19" v:shadowOffsetX="9" v:shadowOffsetY="-9"/>
		<g id="shape1-1" v:mID="1" v:groupContext="shape" transform="translate(132.817,-206.379)">
			<title>Sheet.1</title>
			<desc>S0</desc>
			<v:textBlock v:margins="rect(4,4,4,4)"/>
			<v:textRect cx="20.5774" cy="260.479" width="41.16" height="39.5527"/>
			<path d="M0 260.42 L0.24 257.43 L0.96 254.56 L2.03 251.82 L3.59 249.31 L5.5 246.92 L7.78 244.89 L10.29 243.21 L13.04
						 242.02 L16.03 241.06 L19.02 240.7 L22.13 240.7 L25.24 241.06 L28.11 242.02 L30.87 243.21 L33.5 244.89 L35.77
						 246.92 L37.69 249.31 L39.12 251.82 L40.32 254.56 L41.04 257.43 L41.15 260.42 L41.04 263.41 L40.32 266.27
						 L39.12 269.02 L37.69 271.65 L35.77 273.92 L33.5 275.95 L30.87 277.63 L28.11 278.94 L25.24 279.78 L22.13
						 280.26 L19.02 280.26 L16.03 279.78 L13.04 278.94 L10.29 277.63 L7.78 275.95 L5.5 273.92 L3.59 271.65 L2.03
						 269.02 L0.96 266.27 L0.24 263.41 L0 260.42 Z" class="st1"/>
			<text x="14.46" y="263.48" class="st2" v:langID="1033"><v:paragraph v:horizAlign="1"/><v:tabList/>S0</text>		</g>
		<g id="shape2-4" v:mID="2" v:groupContext="shape" transform="translate(-125.452,83.9113) rotate(-100.095)">
			<title>Sheet.2</title>
			<path d="M5.64 280.26 L6 280.26 L19.43 280.26" class="st3"/>
		</g>
		<g id="shape3-10" v:mID="3" v:groupContext="shape" transform="translate(124.59,-262.344)">
			<title>Sheet.3</title>
			<desc>Rst</desc>
			<v:textBlock v:margins="rect(0,0,0,0)"/>
			<v:textRect cx="16.875" cy="271.3" width="33.75" height="17.9123"/>
			<text x="9.37" y="274.3" class="st2" v:langID="1033"><v:paragraph v:horizAlign="1"/><v:tabList/>Rst</text>		</g>
		<g id="shape4-12" v:mID="4" v:groupContext="shape" transform="translate(101.25,-234.405)">
			<title>Sheet.4</title>
			<desc>F=0 Cout=0</desc>
			<v:textBlock v:margins="rect(0,0,0,0)"/>
			<v:textRect cx="16.875" cy="271.3" width="33.75" height="17.9123"/>
			<text x="16.24" y="268.3" class="st2" v:langID="1033"><v:paragraph v:horizAlign="2"/><v:tabList/>F=0<v:newlineChar/><tspan
						x="1.23" dy="1.2em" class="st5">Cout</tspan>=0</text>		</g>
		<g id="shape5-15" v:mID="5" v:groupContext="shape" transform="translate(35.6726,-115.541)">
			<title>Sheet.5</title>
			<desc>S1</desc>
			<v:textBlock v:margins="rect(4,4,4,4)"/>
			<v:textRect cx="20.5774" cy="260.479" width="41.16" height="39.5527"/>
			<path d="M0 260.42 L0.24 257.43 L0.96 254.56 L2.03 251.82 L3.59 249.31 L5.5 246.92 L7.78 244.89 L10.29 243.21 L13.04
						 242.02 L16.03 241.06 L19.02 240.7 L22.13 240.7 L25.24 241.06 L28.11 242.02 L30.87 243.21 L33.5 244.89 L35.77
						 246.92 L37.69 249.31 L39.12 251.82 L40.32 254.56 L41.04 257.43 L41.15 260.42 L41.04 263.41 L40.32 266.27
						 L39.12 269.02 L37.69 271.65 L35.77 273.92 L33.5 275.95 L30.87 277.63 L28.11 278.94 L25.24 279.78 L22.13
						 280.26 L19.02 280.26 L16.03 279.78 L13.04 278.94 L10.29 277.63 L7.78 275.95 L5.5 273.92 L3.59 271.65 L2.03
						 269.02 L0.96 266.27 L0.24 263.41 L0 260.42 Z" class="st1"/>
			<text x="14.46" y="263.48" class="st2" v:langID="1033"><v:paragraph v:horizAlign="1"/><v:tabList/>S1</text>		</g>
		<g id="shape6-18" v:mID="6" v:groupContext="shape" transform="translate(320.668,244.155) rotate(134.926)">
			<title>Sheet.6</title>
			<path d="M0 264.98 C12.7 275.66 28.85 279.72 44.06 280.26 C61.45 280.87 77.62 276.87 93.2 267.95 L93.51 267.77"
					class="st6"/>
		</g>
		<g id="shape7-24" v:mID="7" v:groupContext="shape" transform="translate(0,-110.236)">
			<title>Sheet.7</title>
			<desc>F=1 Cout=0</desc>
			<v:textBlock v:margins="rect(0,0,0,0)"/>
			<v:textRect cx="16.875" cy="271.3" width="33.75" height="17.9123"/>
			<text x="16.24" y="268.3" class="st2" v:langID="1033"><v:paragraph v:horizAlign="2"/><v:tabList/>F=1<v:newlineChar/><tspan
						x="1.23" dy="1.2em" class="st5">Cout</tspan>=0</text>		</g>
		<g id="shape8-27" v:mID="8" v:groupContext="shape" transform="translate(-16.3416,210.473) rotate(-129.97)">
			<title>Sheet.8</title>
			<path d="M0 248.17 C-9.14 252.06 -14.48 266.89 -10.81 274.29 C-3.07 289.88 44.74 272.46 24.48 251.87 L24.2 251.64"
					class="st6"/>
		</g>
		<g id="group9-32" transform="translate(-121.944,-108.358) rotate(-45)" v:mID="9" v:groupContext="group">
			<title>Sheet.9</title>
			<g id="shape10-33" v:mID="10" v:groupContext="shape">
				<title>Sheet.10</title>
				<desc>A</desc>
				<v:textBlock v:margins="rect(0,0,0,0)"/>
				<v:textRect cx="4.5" cy="274.658" width="9.01" height="11.1952"/>
				<text x="-0" y="277.66" class="st2" v:langID="1033"><v:paragraph/><v:tabList/>A</text>			</g>
			<g id="shape11-35" v:mID="11" v:groupContext="shape" transform="translate(6.75,-4.5)">
				<title>Sheet.11</title>
				<desc>⊕</desc>
				<v:textBlock v:margins="rect(0,0,0,0)"/>
				<v:textRect cx="4.5" cy="278.006" width="9" height="4.5"/>
				<rect x="0" y="275.756" width="9" height="4.5" class="st8"/>
				<text x="0.5" y="281.01" class="st9" v:langID="1033"><v:paragraph v:horizAlign="1"/><v:tabList/>⊕</text>			</g>
			<g id="shape12-38" v:mID="12" v:groupContext="shape" transform="translate(15.75,-0.0548405)">
				<title>Sheet.12</title>
				<desc>B</desc>
				<v:textBlock v:margins="rect(0,0,0,0)"/>
				<v:textRect cx="4.5" cy="274.658" width="9" height="11.1952"/>
				<rect x="0" y="269.061" width="9" height="11.1952" class="st10"/>
				<text x="0" y="277.66" class="st2" v:langID="1033"><v:paragraph/><v:tabList/>B</text>			</g>
		</g>
		<g id="shape13-41" v:mID="13" v:groupContext="shape" transform="translate(223.548,-114.648)">
			<title>Sheet.13</title>
			<desc>S2</desc>
			<v:textBlock v:margins="rect(4,4,4,4)"/>
			<v:textRect cx="20.5774" cy="260.479" width="41.16" height="39.5527"/>
			<path d="M0 260.42 L0.24 257.43 L0.96 254.56 L2.03 251.82 L3.59 249.31 L5.5 246.92 L7.78 244.89 L10.29 243.21 L13.04
						 242.02 L16.03 241.06 L19.02 240.7 L22.13 240.7 L25.24 241.06 L28.11 242.02 L30.87 243.21 L33.5 244.89 L35.77
						 246.92 L37.69 249.31 L39.12 251.82 L40.32 254.56 L41.04 257.43 L41.15 260.42 L41.04 263.41 L40.32 266.27
						 L39.12 269.02 L37.69 271.65 L35.77 273.92 L33.5 275.95 L30.87 277.63 L28.11 278.94 L25.24 279.78 L22.13
						 280.26 L19.02 280.26 L16.03 279.78 L13.04 278.94 L10.29 277.63 L7.78 275.95 L5.5 273.92 L3.59 271.65 L2.03
						 269.02 L0.96 266.27 L0.24 263.41 L0 260.42 Z" class="st1"/>
			<text x="14.46" y="263.48" class="st2" v:langID="1033"><v:paragraph v:horizAlign="1"/><v:tabList/>S2</text>		</g>
		<g id="shape14-44" v:mID="14" v:groupContext="shape" transform="translate(267.75,-107.986)">
			<title>Sheet.14</title>
			<desc>F=0 Cout=1</desc>
			<v:textBlock v:margins="rect(0,0,0,0)"/>
			<v:textRect cx="16.875" cy="271.3" width="33.75" height="17.9123"/>
			<text x="0" y="268.3" class="st2" v:langID="1033"><v:paragraph/><v:tabList/>F=0<v:newlineChar/><tspan x="0" dy="1.2em"
						class="st5">Cout</tspan>=1</text>		</g>
		<g id="shape15-47" v:mID="15" v:groupContext="shape" transform="translate(-14.3622,244.735) rotate(45.0741) scale(1,-1)">
			<title>Sheet.15</title>
			<path d="M0 264.98 C12.7 275.66 28.85 279.72 44.06 280.26 C61.45 280.87 77.62 276.87 93.2 267.95 L93.51 267.77"
					class="st6"/>
		</g>
		<g id="shape16-52" v:mID="16" v:groupContext="shape" transform="translate(416.572,-113.197) rotate(45)">
			<title>Sheet.16</title>
			<desc>A∙B</desc>
			<v:textBlock v:margins="rect(0,0,0,0)"/>
			<v:textRect cx="8.4375" cy="271.3" width="16.88" height="17.9123"/>
			<text x="0" y="274.3" class="st2" v:langID="1033"><v:paragraph/><v:tabList/>A∙B</text>		</g>
		<g id="shape17-54" v:mID="17" v:groupContext="shape" transform="translate(-41.2703,-115.05) rotate(-44.9259) scale(-1,1)">
			<title>Sheet.17</title>
			<path d="M4.27 268.22 L4.56 268.44 C16.44 276.55 30.62 279.78 44.06 280.26 C63.28 280.93 81 275.98 98.09 264.98"
					class="st11"/>
		</g>
		<g id="shape18-60" v:mID="18" v:groupContext="shape" transform="translate(221.913,414.452) rotate(-179.651)">
			<title>Sheet.18</title>
			<path d="M4.99 270.64 L5.33 270.78 C23.4 277.31 45.23 279.89 65.91 280.26 C94.65 280.77 121.17 277.02 146.72 268.69"
					class="st11"/>
		</g>
		<g id="shape19-65" v:mID="19" v:groupContext="shape" transform="translate(211.465,316.296) rotate(140.03)">
			<title>Sheet.19</title>
			<path d="M0 248.17 C-9.14 252.06 -14.48 266.89 -10.81 274.29 C-3.07 289.88 44.74 272.46 24.48 251.87 L24.2 251.64"
					class="st6"/>
		</g>
		<g id="group20-70" transform="translate(-224.013,-19.1108) rotate(-60)" v:mID="20" v:groupContext="group">
			<title>Sheet.20</title>
			<g id="shape21-71" v:mID="21" v:groupContext="shape">
				<title>Sheet.21</title>
				<desc>A</desc>
				<v:textBlock v:margins="rect(0,0,0,0)"/>
				<v:textRect cx="4.5" cy="274.658" width="9.01" height="11.1952"/>
				<text x="-0" y="277.66" class="st2" v:langID="1033"><v:paragraph/><v:tabList/>A</text>			</g>
			<g id="shape22-73" v:mID="22" v:groupContext="shape" transform="translate(6.75,-4.5)">
				<title>Sheet.22</title>
				<desc>⊕</desc>
				<v:textBlock v:margins="rect(0,0,0,0)"/>
				<v:textRect cx="4.5" cy="278.006" width="9" height="4.5"/>
				<rect x="0" y="275.756" width="9" height="4.5" class="st8"/>
				<text x="0.5" y="281.01" class="st9" v:langID="1033"><v:paragraph v:horizAlign="1"/><v:tabList/>⊕</text>			</g>
			<g id="shape23-76" v:mID="23" v:groupContext="shape" transform="translate(15.75,-0.0548405)">
				<title>Sheet.23</title>
				<desc>B</desc>
				<v:textBlock v:margins="rect(0,0,0,0)"/>
				<v:textRect cx="4.5" cy="274.658" width="9" height="11.1952"/>
				<rect x="0" y="269.061" width="9" height="11.1952" class="st10"/>
				<text x="-0" y="277.66" class="st2" v:langID="1033"><v:paragraph/><v:tabList/>B</text>			</g>
		</g>
		<g id="group24-79" transform="translate(-144.207,120.456) rotate(-90)" v:mID="24" v:groupContext="group">
			<title>Sheet.24</title>
			<g id="shape25-80" v:mID="25" v:groupContext="shape" transform="translate(198.171,70.1526) rotate(45)">
				<title>Sheet.25</title>
				<desc>A∙B</desc>
				<v:textBlock v:margins="rect(0,0,0,0)"/>
				<v:textRect cx="8.4375" cy="271.3" width="16.88" height="17.9123"/>
				<text x="-0" y="274.3" class="st2" v:langID="1033"><v:paragraph/><v:tabList/>A∙B</text>			</g>
			<g id="shape26-82" v:mID="26" v:groupContext="shape" transform="translate(208.141,59.5638) rotate(45)">
				<title>Sheet.26</title>
				<path d="M0 280.26 L6.5 280.26" class="st12"/>
			</g>
			<g id="shape27-85" v:mID="27" v:groupContext="shape" transform="translate(214.858,66.2814) rotate(45)">
				<title>Sheet.27</title>
				<path d="M0 280.26 L6.13 280.26" class="st12"/>
			</g>
		</g>
		<g id="shape28-88" v:mID="28" v:groupContext="shape" transform="translate(148.5,-143.942)">
			<title>Sheet.28</title>
			<desc>A∙B</desc>
			<v:textBlock v:margins="rect(0,0,0,0)"/>
			<v:textRect cx="8.4375" cy="271.3" width="16.88" height="17.9123"/>
			<text x="0" y="274.3" class="st2" v:langID="1033"><v:paragraph/><v:tabList/>A∙B</text>		</g>
		<g id="group29-90" transform="translate(183.451,-246.768)" v:mID="29" v:groupContext="group">
			<title>Sheet.29</title>
			<g id="shape30-91" v:mID="30" v:groupContext="shape" transform="translate(198.171,70.1526) rotate(45)">
				<title>Sheet.30</title>
				<desc>A∙B</desc>
				<v:textBlock v:margins="rect(0,0,0,0)"/>
				<v:textRect cx="8.4375" cy="271.3" width="16.88" height="17.9123"/>
				<text x="-0" y="274.3" class="st2" v:langID="1033"><v:paragraph/><v:tabList/>A∙B</text>			</g>
			<g id="shape31-93" v:mID="31" v:groupContext="shape" transform="translate(208.141,59.5638) rotate(45)">
				<title>Sheet.31</title>
				<path d="M0 280.26 L6.5 280.26" class="st12"/>
			</g>
			<g id="shape32-96" v:mID="32" v:groupContext="shape" transform="translate(214.858,66.2814) rotate(45)">
				<title>Sheet.32</title>
				<path d="M0 280.26 L6.13 280.26" class="st12"/>
			</g>
		</g>
		<g id="shape33-99" v:mID="33" v:groupContext="shape" transform="translate(132.423,-24.6485)">
			<title>Sheet.33</title>
			<desc>S3</desc>
			<v:textBlock v:margins="rect(4,4,4,4)"/>
			<v:textRect cx="20.5774" cy="260.479" width="41.16" height="39.5527"/>
			<path d="M0 260.42 L0.24 257.43 L0.96 254.56 L2.03 251.82 L3.59 249.31 L5.5 246.92 L7.78 244.89 L10.29 243.21 L13.04
						 242.02 L16.03 241.06 L19.02 240.7 L22.13 240.7 L25.24 241.06 L28.11 242.02 L30.87 243.21 L33.5 244.89 L35.77
						 246.92 L37.69 249.31 L39.12 251.82 L40.32 254.56 L41.04 257.43 L41.15 260.42 L41.04 263.41 L40.32 266.27
						 L39.12 269.02 L37.69 271.65 L35.77 273.92 L33.5 275.95 L30.87 277.63 L28.11 278.94 L25.24 279.78 L22.13
						 280.26 L19.02 280.26 L16.03 279.78 L13.04 278.94 L10.29 277.63 L7.78 275.95 L5.5 273.92 L3.59 271.65 L2.03
						 269.02 L0.96 266.27 L0.24 263.41 L0 260.42 Z" class="st1"/>
			<text x="14.46" y="263.48" class="st2" v:langID="1033"><v:paragraph v:horizAlign="1"/><v:tabList/>S3</text>		</g>
		<g id="shape34-102" v:mID="34" v:groupContext="shape" transform="translate(55.4421,-22.0049) rotate(-44.9259) scale(-1,1)">
			<title>Sheet.34</title>
			<path d="M0 264.98 C12.7 275.66 28.85 279.72 44.06 280.26 C61.45 280.87 77.62 276.87 93.2 267.95 L93.51 267.77"
					class="st6"/>
		</g>
		<g id="shape35-107" v:mID="35" v:groupContext="shape" transform="translate(222.152,-119.922) rotate(-0.348593) scale(-1,1)">
			<title>Sheet.35</title>
			<path d="M0 268.69 C19 276.77 43.15 279.85 65.91 280.26 C92.61 280.73 117.39 277.53 141.26 270.39 L141.6 270.28"
					class="st6"/>
		</g>
		<g id="group36-112" transform="translate(-45.1708,-24.1698) rotate(-45)" v:mID="36" v:groupContext="group">
			<title>Sheet.36</title>
			<g id="shape37-113" v:mID="37" v:groupContext="shape" transform="translate(198.171,70.1526) rotate(45)">
				<title>Sheet.37</title>
				<desc>A∙B</desc>
				<v:textBlock v:margins="rect(0,0,0,0)"/>
				<v:textRect cx="8.4375" cy="271.3" width="16.88" height="17.9123"/>
				<text x="0" y="274.3" class="st2" v:langID="1033"><v:paragraph/><v:tabList/>A∙B</text>			</g>
			<g id="shape38-115" v:mID="38" v:groupContext="shape" transform="translate(208.141,59.5638) rotate(45)">
				<title>Sheet.38</title>
				<path d="M0 280.26 L6.5 280.26" class="st12"/>
			</g>
			<g id="shape39-118" v:mID="39" v:groupContext="shape" transform="translate(214.858,66.2814) rotate(45)">
				<title>Sheet.39</title>
				<path d="M0 280.26 L6.13 280.26" class="st12"/>
			</g>
		</g>
		<g id="shape40-121" v:mID="40" v:groupContext="shape" transform="translate(174.299,-13.4862)">
			<title>Sheet.40</title>
			<desc>F=1 Cout=1</desc>
			<v:textBlock v:margins="rect(0,0,0,0)"/>
			<v:textRect cx="16.875" cy="271.3" width="33.75" height="17.9123"/>
			<text x="0" y="268.3" class="st2" v:langID="1033"><v:paragraph/><v:tabList/>F=1<v:newlineChar/><tspan x="0" dy="1.2em"
						class="st5">Cout</tspan>=1</text>		</g>
		<g id="shape41-124" v:mID="41" v:groupContext="shape" transform="translate(74.389,302.204) rotate(-129.97)">
			<title>Sheet.41</title>
			<path d="M0 248.17 C-9.14 252.06 -14.48 266.89 -10.81 274.29 C-3.07 289.88 44.74 272.46 24.48 251.87 L24.2 251.64"
					class="st6"/>
		</g>
		<g id="shape42-129" v:mID="42" v:groupContext="shape" transform="translate(21.4951,13.4857) rotate(-45)">
			<title>Sheet.42</title>
			<desc>A∙B</desc>
			<v:textBlock v:margins="rect(0,0,0,0)"/>
			<v:textRect cx="8.4375" cy="271.3" width="16.88" height="17.9123"/>
			<text x="0" y="274.3" class="st2" v:langID="1033"><v:paragraph/><v:tabList/>A∙B</text>		</g>
		<g id="group43-131" transform="translate(405.569,-137.156) rotate(30)" v:mID="43" v:groupContext="group">
			<title>Sheet.43</title>
			<g id="shape44-132" v:mID="44" v:groupContext="shape">
				<title>Sheet.44</title>
				<desc>A</desc>
				<v:textBlock v:margins="rect(0,0,0,0)"/>
				<v:textRect cx="4.5" cy="274.658" width="9.01" height="11.1952"/>
				<text x="-0" y="277.66" class="st2" v:langID="1033"><v:paragraph/><v:tabList/>A</text>			</g>
			<g id="shape45-134" v:mID="45" v:groupContext="shape" transform="translate(6.75,-4.5)">
				<title>Sheet.45</title>
				<desc>⊕</desc>
				<v:textBlock v:margins="rect(0,0,0,0)"/>
				<v:textRect cx="4.5" cy="278.006" width="9" height="4.5"/>
				<rect x="0" y="275.756" width="9" height="4.5" class="st8"/>
				<text x="0.5" y="281.01" class="st9" v:langID="1033"><v:paragraph v:horizAlign="1"/><v:tabList/>⊕</text>			</g>
			<g id="shape46-137" v:mID="46" v:groupContext="shape" transform="translate(15.75,-0.0548405)">
				<title>Sheet.46</title>
				<desc>B</desc>
				<v:textBlock v:margins="rect(0,0,0,0)"/>
				<v:textRect cx="4.5" cy="274.658" width="9" height="11.1952"/>
				<rect x="0" y="269.061" width="9" height="11.1952" class="st10"/>
				<text x="-0" y="277.66" class="st2" v:langID="1033"><v:paragraph/><v:tabList/>B</text>			</g>
		</g>
		<g id="shape47-140" v:mID="47" v:groupContext="shape" transform="translate(320.668,45.7211) rotate(45.0741) scale(-1,1)">
			<title>Sheet.47</title>
			<path d="M0 264.98 C12.7 275.66 28.85 279.72 44.06 280.26 C61.45 280.87 77.62 276.87 93.2 267.95 L93.51 267.77"
					class="st13"/>
		</g>
		<g id="shape48-146" v:mID="48" v:groupContext="shape" transform="translate(442.929,315.723) rotate(126.588)">
			<title>Sheet.48</title>
			<path d="M4.79 273.1 L5.11 273.26 C15.91 278.05 28.63 279.97 40.72 280.26 C58.48 280.68 74.87 277.58 90.66 270.69"
					class="st15"/>
		</g>
		<g id="shape49-152" v:mID="49" v:groupContext="shape" transform="translate(322.856,79.3382) rotate(50.0303)">
			<title>Sheet.49</title>
			<path d="M0 248.17 C-9.14 252.06 -14.48 266.89 -10.81 274.29 C-3.07 289.88 44.74 272.46 24.48 251.87 L24.2 251.64"
					class="st13"/>
		</g>
		<g id="shape50-157" v:mID="50" v:groupContext="shape" transform="translate(-136.872,114.965) rotate(-60)">
			<title>Sheet.50</title>
			<desc>A∙B</desc>
			<v:textBlock v:margins="rect(0,0,0,0)"/>
			<v:textRect cx="8.4375" cy="271.3" width="16.88" height="17.9123"/>
			<text x="0" y="274.3" class="st16" v:langID="1033"><v:paragraph/><v:tabList/>A∙B</text>		</g>
		<g id="group51-159" transform="translate(-64.2633,64.8544) rotate(-60)" v:mID="51" v:groupContext="group">
			<title>Sheet.51</title>
			<g id="shape52-160" v:mID="52" v:groupContext="shape">
				<title>Sheet.52</title>
				<desc>A</desc>
				<v:textBlock v:margins="rect(0,0,0,0)"/>
				<v:textRect cx="4.5" cy="274.658" width="9.01" height="11.1952"/>
				<text x="-0" y="277.66" class="st16" v:langID="1033"><v:paragraph/><v:tabList/>A</text>			</g>
			<g id="shape53-162" v:mID="53" v:groupContext="shape" transform="translate(6.75,-4.5)">
				<title>Sheet.53</title>
				<desc>⊕</desc>
				<v:textBlock v:margins="rect(0,0,0,0)"/>
				<v:textRect cx="4.5" cy="278.006" width="9" height="4.5"/>
				<rect x="0" y="275.756" width="9" height="4.5" class="st8"/>
				<text x="0.5" y="281.01" class="st17" v:langID="1033"><v:paragraph v:horizAlign="1"/><v:tabList/>⊕</text>			</g>
			<g id="shape54-165" v:mID="54" v:groupContext="shape" transform="translate(15.75,-0.0548405)">
				<title>Sheet.54</title>
				<desc>B</desc>
				<v:textBlock v:margins="rect(0,0,0,0)"/>
				<v:textRect cx="4.5" cy="274.658" width="9" height="11.1952"/>
				<rect x="0" y="269.061" width="9" height="11.1952" class="st10"/>
				<text x="-0" y="277.66" class="st16" v:langID="1033"><v:paragraph/><v:tabList/>B</text>			</g>
		</g>
		<g id="group55-168" transform="translate(81.1517,-62.9743)" v:mID="55" v:groupContext="group">
			<title>Sheet.55</title>
			<g id="shape56-169" v:mID="56" v:groupContext="shape" transform="translate(198.171,70.1526) rotate(45)">
				<title>Sheet.56</title>
				<desc>A∙B</desc>
				<v:textBlock v:margins="rect(0,0,0,0)"/>
				<v:textRect cx="8.4375" cy="271.3" width="16.88" height="17.9123"/>
				<text x="-0" y="274.3" class="st16" v:langID="1033"><v:paragraph/><v:tabList/>A∙B</text>			</g>
			<g id="shape57-171" v:mID="57" v:groupContext="shape" transform="translate(208.141,59.5638) rotate(45)">
				<title>Sheet.57</title>
				<path d="M0 280.26 L6.5 280.26" class="st18"/>
			</g>
			<g id="shape58-174" v:mID="58" v:groupContext="shape" transform="translate(214.858,66.2814) rotate(45)">
				<title>Sheet.58</title>
				<path d="M0 280.26 L6.13 280.26" class="st18"/>
			</g>
		</g>
	</g>
</svg>
