<?xml version="1.0" encoding="UTF-8" standalone="no"?>
<!DOCTYPE svg PUBLIC "-//W3C//DTD SVG 1.1//EN" "http://www.w3.org/Graphics/SVG/1.1/DTD/svg11.dtd">
<!-- Generated by Microsoft Visio, SVG Export TruthTableToKmap.svg Page-1 -->
<svg xmlns="http://www.w3.org/2000/svg" xmlns:xlink="http://www.w3.org/1999/xlink" xmlns:ev="http://www.w3.org/2001/xml-events"
		xmlns:v="http://schemas.microsoft.com/visio/2003/SVGExtensions/" width="3.86604in" height="1.71334in"
		viewBox="0 0 278.355 123.36" xml:space="preserve" color-interpolation-filters="sRGB" class="st10">
	<v:documentProperties v:langID="1033" v:viewMarkup="false"/>

	<style type="text/css">
	<![CDATA[
		.st1 {fill:#f4bdbe;stroke:#000000;stroke-linecap:round;stroke-linejoin:round;stroke-width:0.24}
		.st2 {stroke:none;stroke-linecap:round;stroke-linejoin:round;stroke-width:0.75}
		.st3 {fill:#000000;font-family:Arial;font-size:0.916672em}
		.st4 {fill:#ffffff;stroke:#000000;stroke-linecap:round;stroke-linejoin:round;stroke-width:0.72}
		.st5 {fill:#000000;font-family:Arial;font-size:1.00001em}
		.st6 {fill:#f4bdbe;stroke:#000000;stroke-linecap:round;stroke-linejoin:round;stroke-width:0.72}
		.st7 {fill:none;stroke:none;stroke-linecap:round;stroke-linejoin:round;stroke-width:0.72}
		.st8 {fill:#000000;font-family:Arial;font-size:0.833336em}
		.st9 {stroke:#000000;stroke-linecap:round;stroke-linejoin:round;stroke-width:0.72}
		.st10 {fill:none;fill-rule:evenodd;font-size:12px;overflow:visible;stroke-linecap:square;stroke-miterlimit:3}
	]]>
	</style>

	<g v:mID="0" v:index="1" v:groupContext="foregroundPage">
		<title>Page-1</title>
		<v:pageProperties v:drawingScale="1" v:pageScale="1" v:drawingUnits="19" v:shadowOffsetX="9" v:shadowOffsetY="-9"/>
		<g id="shape1-1" v:mID="1" v:groupContext="shape" transform="translate(1.245,-27.2101)">
			<title>Rectangle.254</title>
			<v:userDefs>
				<v:ud v:nameU="visVersion" v:val="VT0(11):26"/>
			</v:userDefs>
			<rect x="0" y="110.985" width="63" height="12.375" class="st1"/>
		</g>
		<g id="shape2-3" v:mID="2" v:groupContext="shape" transform="translate(115.995,-60.9601)">
			<title>Sheet.2</title>
			<desc>0</desc>
			<v:textBlock v:margins="rect(0,0,0,0)"/>
			<v:textRect cx="9" cy="114.36" width="18" height="18"/>
			<path d="M18 105.36 L0 105.36 L0 123.36 L18 123.36 L18 105.36" class="st2"/>
			<text x="5.94" y="117.66" class="st3" v:langID="1033"><v:paragraph v:horizAlign="1"/><v:tabList/>0</text>		</g>
		<g id="shape3-7" v:mID="3" v:groupContext="shape" transform="translate(140.441,-87.9601)">
			<title>Sheet.3</title>
			<desc>0 0</desc>
			<v:textBlock v:margins="rect(0,0,0,0)"/>
			<v:textRect cx="11.5536" cy="116.61" width="23.11" height="13.5"/>
			<path d="M23.11 109.86 L0 109.86 L0 123.36 L23.11 123.36 L23.11 109.86" class="st2"/>
			<text x="5.44" y="119.91" class="st3" v:langID="1033"><v:paragraph v:horizAlign="1"/><v:tabList/>0 0</text>		</g>
		<g id="shape4-11" v:mID="4" v:groupContext="shape" transform="translate(174.495,-87.9601)">
			<title>Sheet.4</title>
			<desc>0 1</desc>
			<v:textBlock v:margins="rect(0,0,0,0)"/>
			<v:textRect cx="11.5536" cy="116.61" width="23.11" height="13.5"/>
			<path d="M23.11 109.86 L0 109.86 L0 123.36 L23.11 123.36 L23.11 109.86" class="st2"/>
			<text x="5.44" y="119.91" class="st3" v:langID="1033"><v:paragraph v:horizAlign="1"/><v:tabList/>0 1</text>		</g>
		<g id="shape5-15" v:mID="5" v:groupContext="shape" transform="translate(210.495,-87.9601)">
			<title>Sheet.5</title>
			<desc>1 1</desc>
			<v:textBlock v:margins="rect(0,0,0,0)"/>
			<v:textRect cx="11.5536" cy="116.61" width="23.11" height="13.5"/>
			<path d="M23.11 109.86 L0 109.86 L0 123.36 L23.11 123.36 L23.11 109.86" class="st2"/>
			<text x="5.44" y="119.91" class="st3" v:langID="1033"><v:paragraph v:horizAlign="1"/><v:tabList/>1 1</text>		</g>
		<g id="shape6-19" v:mID="6" v:groupContext="shape" transform="translate(246.495,-87.9601)">
			<title>Sheet.6</title>
			<desc>1 0</desc>
			<v:textBlock v:margins="rect(0,0,0,0)"/>
			<v:textRect cx="11.5536" cy="116.61" width="23.11" height="13.5"/>
			<path d="M23.11 109.86 L0 109.86 L0 123.36 L23.11 123.36 L23.11 109.86" class="st2"/>
			<text x="5.44" y="119.91" class="st3" v:langID="1033"><v:paragraph v:horizAlign="1"/><v:tabList/>1 0</text>		</g>
		<g id="shape7-23" v:mID="7" v:groupContext="shape" transform="translate(133.995,-51.9601)">
			<title>Rectangle.330</title>
			<desc>0</desc>
			<v:userDefs>
				<v:ud v:nameU="visVersion" v:val="VT0(11):26"/>
			</v:userDefs>
			<v:textBlock v:margins="rect(4,4,4,4)"/>
			<v:textRect cx="18" cy="105.36" width="36" height="36"/>
			<rect x="0" y="87.3602" width="36" height="36" class="st4"/>
			<text x="14.66" y="108.96" class="st5" v:langID="1033"><v:paragraph v:horizAlign="1"/><v:tabList/>0</text>		</g>
		<g id="shape8-26" v:mID="8" v:groupContext="shape" transform="translate(133.995,-15.9601)">
			<title>Rectangle.331</title>
			<desc>0</desc>
			<v:userDefs>
				<v:ud v:nameU="visVersion" v:val="VT0(11):26"/>
			</v:userDefs>
			<v:textBlock v:margins="rect(4,4,4,4)"/>
			<v:textRect cx="18" cy="105.36" width="36" height="36"/>
			<rect x="0" y="87.3602" width="36" height="36" class="st4"/>
			<text x="14.66" y="108.96" class="st5" v:langID="1033"><v:paragraph v:horizAlign="1"/><v:tabList/>0</text>		</g>
		<g id="shape9-29" v:mID="9" v:groupContext="shape" transform="translate(169.995,-51.9601)">
			<title>Rectangle.332</title>
			<desc>1</desc>
			<v:userDefs>
				<v:ud v:nameU="visVersion" v:val="VT0(11):26"/>
			</v:userDefs>
			<v:textBlock v:margins="rect(4,4,4,4)"/>
			<v:textRect cx="18" cy="105.36" width="36" height="36"/>
			<rect x="0" y="87.3602" width="36" height="36" class="st4"/>
			<text x="14.66" y="108.96" class="st5" v:langID="1033"><v:paragraph v:horizAlign="1"/><v:tabList/>1</text>		</g>
		<g id="shape10-32" v:mID="10" v:groupContext="shape" transform="translate(169.995,-15.9601)">
			<title>Rectangle.333</title>
			<desc>1</desc>
			<v:userDefs>
				<v:ud v:nameU="visVersion" v:val="VT0(11):26"/>
			</v:userDefs>
			<v:textBlock v:margins="rect(4,4,4,4)"/>
			<v:textRect cx="18" cy="105.36" width="36" height="36"/>
			<rect x="0" y="87.3602" width="36" height="36" class="st6"/>
			<text x="14.66" y="108.96" class="st5" v:langID="1033"><v:paragraph v:horizAlign="1"/><v:tabList/>1</text>		</g>
		<g id="shape11-35" v:mID="11" v:groupContext="shape" transform="translate(205.995,-51.9601)">
			<title>Rectangle.334</title>
			<desc>1</desc>
			<v:userDefs>
				<v:ud v:nameU="visVersion" v:val="VT0(11):26"/>
			</v:userDefs>
			<v:textBlock v:margins="rect(4,4,4,4)"/>
			<v:textRect cx="18" cy="105.36" width="36" height="36"/>
			<rect x="0" y="87.3602" width="36" height="36" class="st4"/>
			<text x="14.66" y="108.96" class="st5" v:langID="1033"><v:paragraph v:horizAlign="1"/><v:tabList/>1</text>		</g>
		<g id="shape12-38" v:mID="12" v:groupContext="shape" transform="translate(205.995,-15.9601)">
			<title>Rectangle.335</title>
			<desc>0</desc>
			<v:userDefs>
				<v:ud v:nameU="visVersion" v:val="VT0(11):26"/>
			</v:userDefs>
			<v:textBlock v:margins="rect(4,4,4,4)"/>
			<v:textRect cx="18" cy="105.36" width="36" height="36"/>
			<rect x="0" y="87.3602" width="36" height="36" class="st4"/>
			<text x="14.66" y="108.96" class="st5" v:langID="1033"><v:paragraph v:horizAlign="1"/><v:tabList/>0</text>		</g>
		<g id="shape13-41" v:mID="13" v:groupContext="shape" transform="translate(241.995,-51.9601)">
			<title>Rectangle.336</title>
			<desc>0</desc>
			<v:userDefs>
				<v:ud v:nameU="visVersion" v:val="VT0(11):26"/>
			</v:userDefs>
			<v:textBlock v:margins="rect(4,4,4,4)"/>
			<v:textRect cx="18" cy="105.36" width="36" height="36"/>
			<rect x="0" y="87.3602" width="36" height="36" class="st4"/>
			<text x="14.66" y="108.96" class="st5" v:langID="1033"><v:paragraph v:horizAlign="1"/><v:tabList/>0</text>		</g>
		<g id="shape14-44" v:mID="14" v:groupContext="shape" transform="translate(241.995,-15.9601)">
			<title>Rectangle.337</title>
			<desc>0</desc>
			<v:userDefs>
				<v:ud v:nameU="visVersion" v:val="VT0(11):26"/>
			</v:userDefs>
			<v:textBlock v:margins="rect(4,4,4,4)"/>
			<v:textRect cx="18" cy="105.36" width="36" height="36"/>
			<rect x="0" y="87.3602" width="36" height="36" class="st4"/>
			<text x="14.66" y="108.96" class="st5" v:langID="1033"><v:paragraph v:horizAlign="1"/><v:tabList/>0</text>		</g>
		<g id="group15-47" transform="translate(0.36,-1.50018)" v:mID="15" v:groupContext="group">
			<title>Sheet.15</title>
			<g id="shape16-48" v:mID="16" v:groupContext="shape" transform="translate(0,-94.5)">
				<title>Sheet.16</title>
				<desc>0</desc>
				<v:textBlock v:margins="rect(4,4,4,4)"/>
				<v:textRect cx="6.75" cy="118.86" width="13.5" height="9"/>
				<rect x="0" y="114.36" width="13.5" height="9" class="st7"/>
				<text x="4" y="121.86" class="st8" v:langID="1033"><v:paragraph v:horizAlign="1"/><v:tabList/>0</text>			</g>
			<g id="shape17-51" v:mID="17" v:groupContext="shape" transform="translate(15.75,-94.5)">
				<title>Sheet.17</title>
				<desc>0</desc>
				<v:textBlock v:margins="rect(4,4,4,4)"/>
				<v:textRect cx="6.75" cy="118.86" width="13.5" height="9"/>
				<rect x="0" y="114.36" width="13.5" height="9" class="st7"/>
				<text x="4" y="121.86" class="st8" v:langID="1033"><v:paragraph v:horizAlign="1"/><v:tabList/>0</text>			</g>
			<g id="shape18-54" v:mID="18" v:groupContext="shape" transform="translate(31.5,-94.5)">
				<title>Sheet.18</title>
				<desc>0</desc>
				<v:textBlock v:margins="rect(4,4,4,4)"/>
				<v:textRect cx="6.75" cy="118.86" width="13.5" height="9"/>
				<rect x="0" y="114.36" width="13.5" height="9" class="st7"/>
				<text x="4" y="121.86" class="st8" v:langID="1033"><v:paragraph v:horizAlign="1"/><v:tabList/>0</text>			</g>
			<g id="shape19-57" v:mID="19" v:groupContext="shape" transform="translate(0,-81)">
				<title>Sheet.19</title>
				<desc>0</desc>
				<v:textBlock v:margins="rect(4,4,4,4)"/>
				<v:textRect cx="6.75" cy="118.86" width="13.5" height="9"/>
				<rect x="0" y="114.36" width="13.5" height="9" class="st7"/>
				<text x="4" y="121.86" class="st8" v:langID="1033"><v:paragraph v:horizAlign="1"/><v:tabList/>0</text>			</g>
			<g id="shape20-60" v:mID="20" v:groupContext="shape" transform="translate(15.75,-81)">
				<title>Sheet.20</title>
				<desc>0</desc>
				<v:textBlock v:margins="rect(4,4,4,4)"/>
				<v:textRect cx="6.75" cy="118.86" width="13.5" height="9"/>
				<rect x="0" y="114.36" width="13.5" height="9" class="st7"/>
				<text x="4" y="121.86" class="st8" v:langID="1033"><v:paragraph v:horizAlign="1"/><v:tabList/>0</text>			</g>
			<g id="shape21-63" v:mID="21" v:groupContext="shape" transform="translate(31.5,-81)">
				<title>Sheet.21</title>
				<desc>1</desc>
				<v:textBlock v:margins="rect(4,4,4,4)"/>
				<v:textRect cx="6.75" cy="118.86" width="13.5" height="9"/>
				<rect x="0" y="114.36" width="13.5" height="9" class="st7"/>
				<text x="4" y="121.86" class="st8" v:langID="1033"><v:paragraph v:horizAlign="1"/><v:tabList/>1</text>			</g>
			<g id="shape22-66" v:mID="22" v:groupContext="shape" transform="translate(0,-67.5)">
				<title>Sheet.22</title>
				<desc>0</desc>
				<v:textBlock v:margins="rect(4,4,4,4)"/>
				<v:textRect cx="6.75" cy="118.86" width="13.5" height="9"/>
				<rect x="0" y="114.36" width="13.5" height="9" class="st7"/>
				<text x="4" y="121.86" class="st8" v:langID="1033"><v:paragraph v:horizAlign="1"/><v:tabList/>0</text>			</g>
			<g id="shape23-69" v:mID="23" v:groupContext="shape" transform="translate(15.75,-67.5)">
				<title>Sheet.23</title>
				<desc>1</desc>
				<v:textBlock v:margins="rect(4,4,4,4)"/>
				<v:textRect cx="6.75" cy="118.86" width="13.5" height="9"/>
				<rect x="0" y="114.36" width="13.5" height="9" class="st7"/>
				<text x="4" y="121.86" class="st8" v:langID="1033"><v:paragraph v:horizAlign="1"/><v:tabList/>1</text>			</g>
			<g id="shape24-72" v:mID="24" v:groupContext="shape" transform="translate(31.5,-67.5)">
				<title>Sheet.24</title>
				<desc>0</desc>
				<v:textBlock v:margins="rect(4,4,4,4)"/>
				<v:textRect cx="6.75" cy="118.86" width="13.5" height="9"/>
				<rect x="0" y="114.36" width="13.5" height="9" class="st7"/>
				<text x="4" y="121.86" class="st8" v:langID="1033"><v:paragraph v:horizAlign="1"/><v:tabList/>0</text>			</g>
			<g id="shape25-75" v:mID="25" v:groupContext="shape" transform="translate(0,-54)">
				<title>Sheet.25</title>
				<desc>0</desc>
				<v:textBlock v:margins="rect(4,4,4,4)"/>
				<v:textRect cx="6.75" cy="118.86" width="13.5" height="9"/>
				<rect x="0" y="114.36" width="13.5" height="9" class="st7"/>
				<text x="4" y="121.86" class="st8" v:langID="1033"><v:paragraph v:horizAlign="1"/><v:tabList/>0</text>			</g>
			<g id="shape26-78" v:mID="26" v:groupContext="shape" transform="translate(15.75,-54)">
				<title>Sheet.26</title>
				<desc>1</desc>
				<v:textBlock v:margins="rect(4,4,4,4)"/>
				<v:textRect cx="6.75" cy="118.86" width="13.5" height="9"/>
				<rect x="0" y="114.36" width="13.5" height="9" class="st7"/>
				<text x="4" y="121.86" class="st8" v:langID="1033"><v:paragraph v:horizAlign="1"/><v:tabList/>1</text>			</g>
			<g id="shape27-81" v:mID="27" v:groupContext="shape" transform="translate(31.5,-54)">
				<title>Sheet.27</title>
				<desc>1</desc>
				<v:textBlock v:margins="rect(4,4,4,4)"/>
				<v:textRect cx="6.75" cy="118.86" width="13.5" height="9"/>
				<rect x="0" y="114.36" width="13.5" height="9" class="st7"/>
				<text x="4" y="121.86" class="st8" v:langID="1033"><v:paragraph v:horizAlign="1"/><v:tabList/>1</text>			</g>
			<g id="shape28-84" v:mID="28" v:groupContext="shape" transform="translate(0,-40.5)">
				<title>Sheet.28</title>
				<desc>1</desc>
				<v:textBlock v:margins="rect(4,4,4,4)"/>
				<v:textRect cx="6.75" cy="118.86" width="13.5" height="9"/>
				<rect x="0" y="114.36" width="13.5" height="9" class="st7"/>
				<text x="4" y="121.86" class="st8" v:langID="1033"><v:paragraph v:horizAlign="1"/><v:tabList/>1</text>			</g>
			<g id="shape29-87" v:mID="29" v:groupContext="shape" transform="translate(15.75,-40.5)">
				<title>Sheet.29</title>
				<desc>0</desc>
				<v:textBlock v:margins="rect(4,4,4,4)"/>
				<v:textRect cx="6.75" cy="118.86" width="13.5" height="9"/>
				<rect x="0" y="114.36" width="13.5" height="9" class="st7"/>
				<text x="4" y="121.86" class="st8" v:langID="1033"><v:paragraph v:horizAlign="1"/><v:tabList/>0</text>			</g>
			<g id="shape30-90" v:mID="30" v:groupContext="shape" transform="translate(31.5,-40.5)">
				<title>Sheet.30</title>
				<desc>0</desc>
				<v:textBlock v:margins="rect(4,4,4,4)"/>
				<v:textRect cx="6.75" cy="118.86" width="13.5" height="9"/>
				<rect x="0" y="114.36" width="13.5" height="9" class="st7"/>
				<text x="4" y="121.86" class="st8" v:langID="1033"><v:paragraph v:horizAlign="1"/><v:tabList/>0</text>			</g>
			<g id="shape31-93" v:mID="31" v:groupContext="shape" transform="translate(0,-27)">
				<title>Sheet.31</title>
				<desc>1</desc>
				<v:textBlock v:margins="rect(4,4,4,4)"/>
				<v:textRect cx="6.75" cy="118.86" width="13.5" height="9"/>
				<rect x="0" y="114.36" width="13.5" height="9" class="st7"/>
				<text x="4" y="121.86" class="st8" v:langID="1033"><v:paragraph v:horizAlign="1"/><v:tabList/>1</text>			</g>
			<g id="shape32-96" v:mID="32" v:groupContext="shape" transform="translate(15.75,-27)">
				<title>Sheet.32</title>
				<desc>0</desc>
				<v:textBlock v:margins="rect(4,4,4,4)"/>
				<v:textRect cx="6.75" cy="118.86" width="13.5" height="9"/>
				<rect x="0" y="114.36" width="13.5" height="9" class="st7"/>
				<text x="4" y="121.86" class="st8" v:langID="1033"><v:paragraph v:horizAlign="1"/><v:tabList/>0</text>			</g>
			<g id="shape33-99" v:mID="33" v:groupContext="shape" transform="translate(31.5,-27)">
				<title>Sheet.33</title>
				<desc>1</desc>
				<v:textBlock v:margins="rect(4,4,4,4)"/>
				<v:textRect cx="6.75" cy="118.86" width="13.5" height="9"/>
				<rect x="0" y="114.36" width="13.5" height="9" class="st7"/>
				<text x="4" y="121.86" class="st8" v:langID="1033"><v:paragraph v:horizAlign="1"/><v:tabList/>1</text>			</g>
			<g id="shape34-102" v:mID="34" v:groupContext="shape" transform="translate(0,-13.5)">
				<title>Sheet.34</title>
				<desc>1</desc>
				<v:textBlock v:margins="rect(4,4,4,4)"/>
				<v:textRect cx="6.75" cy="118.86" width="13.5" height="9"/>
				<rect x="0" y="114.36" width="13.5" height="9" class="st7"/>
				<text x="4" y="121.86" class="st8" v:langID="1033"><v:paragraph v:horizAlign="1"/><v:tabList/>1</text>			</g>
			<g id="shape35-105" v:mID="35" v:groupContext="shape" transform="translate(15.75,-13.5)">
				<title>Sheet.35</title>
				<desc>1</desc>
				<v:textBlock v:margins="rect(4,4,4,4)"/>
				<v:textRect cx="6.75" cy="118.86" width="13.5" height="9"/>
				<rect x="0" y="114.36" width="13.5" height="9" class="st7"/>
				<text x="4" y="121.86" class="st8" v:langID="1033"><v:paragraph v:horizAlign="1"/><v:tabList/>1</text>			</g>
			<g id="shape36-108" v:mID="36" v:groupContext="shape" transform="translate(31.5,-13.5)">
				<title>Sheet.36</title>
				<desc>0</desc>
				<v:textBlock v:margins="rect(4,4,4,4)"/>
				<v:textRect cx="6.75" cy="118.86" width="13.5" height="9"/>
				<rect x="0" y="114.36" width="13.5" height="9" class="st7"/>
				<text x="4" y="121.86" class="st8" v:langID="1033"><v:paragraph v:horizAlign="1"/><v:tabList/>0</text>			</g>
			<g id="shape37-111" v:mID="37" v:groupContext="shape">
				<title>Sheet.37</title>
				<desc>1</desc>
				<v:textBlock v:margins="rect(4,4,4,4)"/>
				<v:textRect cx="6.75" cy="118.86" width="13.5" height="9"/>
				<rect x="0" y="114.36" width="13.5" height="9" class="st7"/>
				<text x="4" y="121.86" class="st8" v:langID="1033"><v:paragraph v:horizAlign="1"/><v:tabList/>1</text>			</g>
			<g id="shape38-114" v:mID="38" v:groupContext="shape" transform="translate(15.75,0)">
				<title>Sheet.38</title>
				<desc>1</desc>
				<v:textBlock v:margins="rect(4,4,4,4)"/>
				<v:textRect cx="6.75" cy="118.86" width="13.5" height="9"/>
				<rect x="0" y="114.36" width="13.5" height="9" class="st7"/>
				<text x="4" y="121.86" class="st8" v:langID="1033"><v:paragraph v:horizAlign="1"/><v:tabList/>1</text>			</g>
			<g id="shape39-117" v:mID="39" v:groupContext="shape" transform="translate(31.5,0)">
				<title>Sheet.39</title>
				<desc>1</desc>
				<v:textBlock v:margins="rect(4,4,4,4)"/>
				<v:textRect cx="6.75" cy="118.86" width="13.5" height="9"/>
				<rect x="0" y="114.36" width="13.5" height="9" class="st7"/>
				<text x="4" y="121.86" class="st8" v:langID="1033"><v:paragraph v:horizAlign="1"/><v:tabList/>1</text>			</g>
			<g id="shape40-120" v:mID="40" v:groupContext="shape" transform="translate(0,-110.25)">
				<title>Sheet.40</title>
				<desc>A</desc>
				<v:textBlock v:margins="rect(4,4,4,4)"/>
				<v:textRect cx="6.75" cy="118.86" width="13.5" height="9"/>
				<rect x="0" y="114.36" width="13.5" height="9" class="st7"/>
				<text x="4" y="121.86" class="st8" v:langID="1033"><v:paragraph v:horizAlign="1"/><v:tabList/>A</text>			</g>
			<g id="shape41-123" v:mID="41" v:groupContext="shape" transform="translate(15.75,-110.25)">
				<title>Sheet.41</title>
				<desc>B</desc>
				<v:textBlock v:margins="rect(4,4,4,4)"/>
				<v:textRect cx="6.75" cy="118.86" width="13.5" height="9"/>
				<rect x="0" y="114.36" width="13.5" height="9" class="st7"/>
				<text x="4" y="121.86" class="st8" v:langID="1033"><v:paragraph v:horizAlign="1"/><v:tabList/>B</text>			</g>
			<g id="shape42-126" v:mID="42" v:groupContext="shape" transform="translate(31.5,-110.25)">
				<title>Sheet.42</title>
				<desc>C</desc>
				<v:textBlock v:margins="rect(4,4,4,4)"/>
				<v:textRect cx="6.75" cy="118.86" width="13.5" height="9"/>
				<rect x="0" y="114.36" width="13.5" height="9" class="st7"/>
				<text x="4" y="121.86" class="st8" v:langID="1033"><v:paragraph v:horizAlign="1"/><v:tabList/>C</text>			</g>
			<g id="shape43-129" v:mID="43" v:groupContext="shape" transform="translate(49.5,-110.25)">
				<title>Sheet.43</title>
				<desc>Y</desc>
				<v:textBlock v:margins="rect(4,4,4,4)"/>
				<v:textRect cx="6.75" cy="118.86" width="13.5" height="9"/>
				<rect x="0" y="114.36" width="13.5" height="9" class="st7"/>
				<text x="4" y="121.86" class="st8" v:langID="1033"><v:paragraph v:horizAlign="1"/><v:tabList/>Y</text>			</g>
			<g id="shape44-132" v:mID="44" v:groupContext="shape" transform="translate(4.5,-108)">
				<title>Sheet.44</title>
				<path d="M0 123.36 L56.25 123.36" class="st9"/>
			</g>
			<g id="shape45-135" v:mID="45" v:groupContext="shape" transform="translate(170.61,1.86018) rotate(90)">
				<title>Sheet.45</title>
				<path d="M0 123.36 L121.5 123.36" class="st9"/>
			</g>
			<g id="shape46-138" v:mID="46" v:groupContext="shape" transform="translate(49.5,-94.5)">
				<title>Sheet.46</title>
				<desc>0</desc>
				<v:textBlock v:margins="rect(4,4,4,4)"/>
				<v:textRect cx="6.75" cy="118.86" width="13.5" height="9"/>
				<rect x="0" y="114.36" width="13.5" height="9" class="st7"/>
				<text x="4" y="121.86" class="st8" v:langID="1033"><v:paragraph v:horizAlign="1"/><v:tabList/>0</text>			</g>
			<g id="shape47-141" v:mID="47" v:groupContext="shape" transform="translate(49.5,-81)">
				<title>Sheet.47</title>
				<desc>1</desc>
				<v:textBlock v:margins="rect(4,4,4,4)"/>
				<v:textRect cx="6.75" cy="118.86" width="13.5" height="9"/>
				<rect x="0" y="114.36" width="13.5" height="9" class="st7"/>
				<text x="4" y="121.86" class="st8" v:langID="1033"><v:paragraph v:horizAlign="1"/><v:tabList/>1</text>			</g>
			<g id="shape48-144" v:mID="48" v:groupContext="shape" transform="translate(49.5,-67.5)">
				<title>Sheet.48</title>
				<desc>0</desc>
				<v:textBlock v:margins="rect(4,4,4,4)"/>
				<v:textRect cx="6.75" cy="118.86" width="13.5" height="9"/>
				<rect x="0" y="114.36" width="13.5" height="9" class="st7"/>
				<text x="4" y="121.86" class="st8" v:langID="1033"><v:paragraph v:horizAlign="1"/><v:tabList/>0</text>			</g>
			<g id="shape49-147" v:mID="49" v:groupContext="shape" transform="translate(49.5,-54)">
				<title>Sheet.49</title>
				<desc>1</desc>
				<v:textBlock v:margins="rect(4,4,4,4)"/>
				<v:textRect cx="6.75" cy="118.86" width="13.5" height="9"/>
				<rect x="0" y="114.36" width="13.5" height="9" class="st7"/>
				<text x="4" y="121.86" class="st8" v:langID="1033"><v:paragraph v:horizAlign="1"/><v:tabList/>1</text>			</g>
			<g id="shape50-150" v:mID="50" v:groupContext="shape" transform="translate(49.5,-40.5)">
				<title>Sheet.50</title>
				<desc>0</desc>
				<v:textBlock v:margins="rect(4,4,4,4)"/>
				<v:textRect cx="6.75" cy="118.86" width="13.5" height="9"/>
				<rect x="0" y="114.36" width="13.5" height="9" class="st7"/>
				<text x="4" y="121.86" class="st8" v:langID="1033"><v:paragraph v:horizAlign="1"/><v:tabList/>0</text>			</g>
			<g id="shape51-153" v:mID="51" v:groupContext="shape" transform="translate(49.5,-27)">
				<title>Sheet.51</title>
				<desc>1</desc>
				<v:textBlock v:margins="rect(4,4,4,4)"/>
				<v:textRect cx="6.75" cy="118.86" width="13.5" height="9"/>
				<rect x="0" y="114.36" width="13.5" height="9" class="st7"/>
				<text x="4" y="121.86" class="st8" v:langID="1033"><v:paragraph v:horizAlign="1"/><v:tabList/>1</text>			</g>
			<g id="shape52-156" v:mID="52" v:groupContext="shape" transform="translate(49.5,-13.5)">
				<title>Sheet.52</title>
				<desc>0</desc>
				<v:textBlock v:margins="rect(4,4,4,4)"/>
				<v:textRect cx="6.75" cy="118.86" width="13.5" height="9"/>
				<rect x="0" y="114.36" width="13.5" height="9" class="st7"/>
				<text x="4" y="121.86" class="st8" v:langID="1033"><v:paragraph v:horizAlign="1"/><v:tabList/>0</text>			</g>
			<g id="shape53-159" v:mID="53" v:groupContext="shape" transform="translate(49.5,0)">
				<title>Sheet.53</title>
				<desc>0</desc>
				<v:textBlock v:margins="rect(4,4,4,4)"/>
				<v:textRect cx="6.75" cy="118.86" width="13.5" height="9"/>
				<rect x="0" y="114.36" width="13.5" height="9" class="st7"/>
				<text x="4" y="121.86" class="st8" v:langID="1033"><v:paragraph v:horizAlign="1"/><v:tabList/>0</text>			</g>
		</g>
		<g id="shape54-162" v:mID="54" v:groupContext="shape" transform="translate(104.745,-85.7101)">
			<title>Sheet.54</title>
			<desc>A</desc>
			<v:textBlock v:margins="rect(4,4,4,4)"/>
			<v:textRect cx="9" cy="116.61" width="18" height="13.5"/>
			<rect x="0" y="109.86" width="18" height="13.5" class="st7"/>
			<text x="5" y="120.21" class="st5" v:langID="1033"><v:paragraph v:horizAlign="1"/><v:tabList/>A</text>		</g>
		<g id="shape55-165" v:mID="55" v:groupContext="shape" transform="translate(118.245,-101.46)">
			<title>Sheet.55</title>
			<desc>B C</desc>
			<v:textBlock v:margins="rect(4,4,4,4)"/>
			<v:textRect cx="18" cy="116.61" width="36" height="13.5"/>
			<rect x="0" y="109.86" width="36" height="13.5" class="st7"/>
			<text x="8" y="120.21" class="st5" v:langID="1033"><v:paragraph v:horizAlign="1"/><v:tabList/>B C</text>		</g>
		<g id="shape56-168" v:mID="56" v:groupContext="shape" transform="translate(46.7662,122.629) rotate(-135)">
			<title>Sheet.56</title>
			<path d="M0 123.36 L25.46 123.36" class="st9"/>
		</g>
		<g id="shape57-171" v:mID="57" v:groupContext="shape" transform="translate(115.995,-24.9601)">
			<title>Sheet.57</title>
			<desc>1</desc>
			<v:textBlock v:margins="rect(0,0,0,0)"/>
			<v:textRect cx="9" cy="114.36" width="18" height="18"/>
			<path d="M18 105.36 L0 105.36 L0 123.36 L18 123.36 L18 105.36" class="st2"/>
			<text x="5.94" y="117.66" class="st3" v:langID="1033"><v:paragraph v:horizAlign="1"/><v:tabList/>1</text>		</g>
	</g>
</svg>
