<?xml version="1.0" encoding="UTF-8" standalone="no"?>
<!DOCTYPE svg PUBLIC "-//W3C//DTD SVG 1.1//EN" "http://www.w3.org/Graphics/SVG/1.1/DTD/svg11.dtd">
<!-- Generated by Microsoft Visio, SVG Export BinaryWheel.svg Page-1 -->
<svg xmlns="http://www.w3.org/2000/svg" xmlns:xlink="http://www.w3.org/1999/xlink" xmlns:ev="http://www.w3.org/2001/xml-events"
		xmlns:v="http://schemas.microsoft.com/visio/2003/SVGExtensions/" width="6.27168in" height="3.45834in"
		viewBox="0 0 451.561 249" xml:space="preserve" color-interpolation-filters="sRGB" class="st15">
	<v:documentProperties v:langID="1033" v:viewMarkup="false"/>

	<style type="text/css">
	<![CDATA[
		.st1 {fill:#ffffff;stroke:#000000;stroke-linecap:round;stroke-linejoin:round;stroke-width:0.72}
		.st2 {fill:none;stroke:none;stroke-linecap:round;stroke-linejoin:round;stroke-width:0.72}
		.st3 {fill:#000000;font-family:Arial;font-size:0.666664em}
		.st4 {stroke:#000000;stroke-linecap:round;stroke-linejoin:round;stroke-width:0.72}
		.st5 {marker-end:url(#mrkr4-92);stroke:#000000;stroke-linecap:round;stroke-linejoin:round;stroke-width:0.72}
		.st6 {fill:#000000;fill-opacity:1;stroke:#000000;stroke-opacity:1;stroke-width:0.22222222222222}
		.st7 {fill:#000000;font-family:Arial;font-size:0.833336em}
		.st8 {font-size:1em}
		.st9 {marker-end:url(#mrkr5-103);stroke:#666666;stroke-linecap:round;stroke-linejoin:round;stroke-width:2.16}
		.st10 {fill:#666666;fill-opacity:1;stroke:#666666;stroke-opacity:1;stroke-width:0.46153846153846}
		.st11 {fill:#000000;font-family:Arial;font-size:0.833336em;font-weight:bold}
		.st12 {marker-end:url(#mrkr4-129);stroke:#000000;stroke-linecap:round;stroke-linejoin:round;stroke-width:0.72}
		.st13 {fill:#000000;fill-opacity:1;stroke:#000000;stroke-opacity:1;stroke-width:0.28571428571429}
		.st14 {fill:#000000;font-family:Arial;font-size:1.00001em;font-style:italic;font-weight:bold}
		.st15 {fill:none;fill-rule:evenodd;font-size:12px;overflow:visible;stroke-linecap:square;stroke-miterlimit:3}
	]]>
	</style>

	<defs id="Markers">
		<g id="lend4">
			<path d="M 2 1 L 0 0 L 2 -1 L 2 1 " style="stroke:none"/>
		</g>
		<marker id="mrkr4-92" class="st6" v:arrowType="4" v:arrowSize="2" v:setback="8.5" refX="-8.5" orient="auto"
				markerUnits="strokeWidth" overflow="visible">
			<use xlink:href="#lend4" transform="scale(-4.5,-4.5) "/>
		</marker>
		<g id="lend5">
			<path d="M 2 1 L 0 0 L 1.98117 -0.993387 C 1.67173 -0.364515 1.67301 0.372641 1.98465 1.00043 " style="stroke:none"/>
		</g>
		<marker id="mrkr5-103" class="st10" v:arrowType="5" v:arrowSize="2" v:setback="0" refX="-0" orient="auto"
				markerUnits="strokeWidth" overflow="visible">
			<use xlink:href="#lend5" transform="scale(-2.1666666666667,-2.1666666666667) "/>
		</marker>
		<marker id="mrkr4-129" class="st13" v:arrowType="4" v:arrowSize="1" v:setback="6.5" refX="-6.5" orient="auto"
				markerUnits="strokeWidth" overflow="visible">
			<use xlink:href="#lend4" transform="scale(-3.5,-3.5) "/>
		</marker>
	</defs>
	<g v:mID="0" v:index="1" v:groupContext="foregroundPage">
		<title>Page-1</title>
		<v:pageProperties v:drawingScale="1" v:pageScale="1" v:drawingUnits="19" v:shadowOffsetX="9" v:shadowOffsetY="-9"/>
		<g id="shape1-1" v:mID="1" v:groupContext="shape" transform="translate(31.1886,-53.6141)">
			<title>Circle</title>
			<path d="M0 175.31 A73.6915 73.6915 0 0 1 147.38 175.31 A73.6915 73.6915 0 1 1 0 175.31 Z" class="st1"/>
		</g>
		<g id="shape2-3" v:mID="2" v:groupContext="shape" transform="translate(81.875,-208.875)">
			<title>Sheet.2</title>
			<desc>00000000</desc>
			<v:textBlock v:margins="rect(4,4,4,4)"/>
			<v:textRect cx="22.7358" cy="246.767" width="45.48" height="4.46615"/>
			<rect x="0" y="244.534" width="45.4717" height="4.46615" class="st2"/>
			<text x="4.94" y="249.17" class="st3" v:langID="1033"><v:paragraph v:horizAlign="1"/><v:tabList/>00000000</text>		</g>
		<g id="shape3-6" v:mID="3" v:groupContext="shape" transform="translate(118.82,-203.25)">
			<title>Sheet.3</title>
			<desc>00000001</desc>
			<v:textBlock v:margins="rect(4,4,4,4)"/>
			<v:textRect cx="23.7151" cy="246.767" width="47.44" height="4.46615"/>
			<rect x="0" y="244.534" width="47.4301" height="4.46615" class="st2"/>
			<text x="5.92" y="249.17" class="st3" v:langID="1033"><v:paragraph v:horizAlign="1"/><v:tabList/>00000001</text>		</g>
		<g id="shape4-9" v:mID="4" v:groupContext="shape" transform="translate(138.376,-192)">
			<title>Sheet.4</title>
			<desc>00000010</desc>
			<v:textBlock v:margins="rect(4,4,4,4)"/>
			<v:textRect cx="22.3744" cy="245.625" width="44.75" height="6.75"/>
			<rect x="0" y="242.25" width="44.7488" height="6.75" class="st2"/>
			<text x="4.58" y="248.03" class="st3" v:langID="1033"><v:paragraph v:horizAlign="1"/><v:tabList/>00000010</text>		</g>
		<g id="shape5-12" v:mID="5" v:groupContext="shape" transform="translate(353.88,45.7701) rotate(90)">
			<title>Sheet.5</title>
			<path d="M0 249 L4.47 249" class="st4"/>
		</g>
		<g id="shape6-15" v:mID="6" v:groupContext="shape" transform="translate(364.31,108.395) rotate(104.036)">
			<title>Sheet.6</title>
			<path d="M0 249 L4.6 249" class="st4"/>
		</g>
		<g id="shape7-18" v:mID="7" v:groupContext="shape" transform="translate(362.205,164.942) rotate(116.565)">
			<title>Sheet.7</title>
			<path d="M0 249 L4.99 249" class="st4"/>
		</g>
		<g id="shape8-21" v:mID="8" v:groupContext="shape" transform="translate(351.723,211.293) rotate(126.87)">
			<title>Sheet.8</title>
			<path d="M0 249 L4.97 249" class="st4"/>
		</g>
		<g id="shape9-24" v:mID="9" v:groupContext="shape" transform="translate(151.15,-183)">
			<title>Sheet.9</title>
			<desc>00000011</desc>
			<v:textBlock v:margins="rect(4,4,4,4)"/>
			<v:textRect cx="21.85" cy="246.205" width="43.7" height="5.59115"/>
			<rect x="0" y="243.409" width="43.6999" height="5.59115" class="st2"/>
			<text x="4.05" y="248.6" class="st3" v:langID="1033"><v:paragraph v:horizAlign="1"/><v:tabList/>00000011</text>		</g>
		<g id="shape10-27" v:mID="10" v:groupContext="shape" transform="translate(328.581,-12.3883) rotate(75.9638)">
			<title>Sheet.10</title>
			<path d="M0 249 L4.6 249" class="st4"/>
		</g>
		<g id="shape11-30" v:mID="11" v:groupContext="shape" transform="translate(290.534,-62.5331) rotate(62.203)">
			<title>Sheet.11</title>
			<path d="M0 249 L4.55 249" class="st4"/>
		</g>
		<g id="shape12-33" v:mID="12" v:groupContext="shape" transform="translate(44.75,-201)">
			<title>Sheet.12</title>
			<desc>11111111</desc>
			<v:textBlock v:margins="rect(4,4,4,4)"/>
			<v:textRect cx="22.8076" cy="245.642" width="45.62" height="6.71615"/>
			<rect x="0" y="242.284" width="45.6151" height="6.71615" class="st2"/>
			<text x="5.01" y="248.04" class="st3" v:langID="1033"><v:paragraph v:horizAlign="1"/><v:tabList/>11111111</text>		</g>
		<g id="shape13-36" v:mID="13" v:groupContext="shape" transform="translate(26.75,-192)">
			<title>Sheet.13</title>
			<desc>11111110</desc>
			<v:textBlock v:margins="rect(4,4,4,4)"/>
			<v:textRect cx="23.4335" cy="245.063" width="46.87" height="7.875"/>
			<rect x="0" y="241.125" width="46.8671" height="7.875" class="st2"/>
			<text x="5.64" y="247.46" class="st3" v:langID="1033"><v:paragraph v:horizAlign="1"/><v:tabList/>11111110</text>		</g>
		<g id="shape14-39" v:mID="14" v:groupContext="shape" transform="translate(12.3979,-183)">
			<title>Sheet.14</title>
			<desc>11111110</desc>
			<v:textBlock v:margins="rect(4,4,4,4)"/>
			<v:textRect cx="21.801" cy="245.625" width="43.61" height="6.75"/>
			<rect x="0" y="242.25" width="43.6021" height="6.75" class="st2"/>
			<text x="4" y="248.03" class="st3" v:langID="1033"><v:paragraph v:horizAlign="1"/><v:tabList/>11111110</text>		</g>
		<g id="shape15-42" v:mID="15" v:groupContext="shape" transform="translate(232.939,-113.552) rotate(45)">
			<title>Sheet.15</title>
			<path d="M0 249 L4.74 249" class="st4"/>
		</g>
		<g id="shape16-45" v:mID="16" v:groupContext="shape" transform="translate(77.5663,452.284) scale(1,-1)">
			<title>Sheet.16</title>
			<desc>10000000</desc>
			<v:textBlock v:margins="rect(4,4,4,4)"/>
			<v:textRect cx="27.9337" cy="245.642" width="55.87" height="6.71615"/>
			<rect x="0" y="242.284" width="55.8674" height="6.71615" class="st2"/>
			<text x="10.14" y="-243.24" transform="scale(1,-1)" class="st3" v:langID="1033"><v:paragraph v:horizAlign="1"/><v:tabList/>10000000</text>		</g>
		<g id="shape17-48" v:mID="17" v:groupContext="shape" transform="translate(118.703,448.416) scale(1,-1)">
			<title>Sheet.17</title>
			<desc>01111111</desc>
			<v:textBlock v:margins="rect(4,4,4,4)"/>
			<v:textRect cx="23.7589" cy="246.767" width="47.52" height="4.46615"/>
			<rect x="0" y="244.534" width="47.5177" height="4.46615" class="st2"/>
			<text x="5.96" y="-244.37" transform="scale(1,-1)" class="st3" v:langID="1033"><v:paragraph v:horizAlign="1"/><v:tabList/>01111111</text>		</g>
		<g id="shape18-51" v:mID="18" v:groupContext="shape" transform="translate(139.542,438.331) scale(1,-1)">
			<title>Sheet.18</title>
			<desc>01111110</desc>
			<v:textBlock v:margins="rect(4,4,4,4)"/>
			<v:textRect cx="23.7087" cy="245.554" width="47.42" height="6.89147"/>
			<rect x="0" y="242.109" width="47.4173" height="6.89147" class="st2"/>
			<text x="5.91" y="-243.15" transform="scale(1,-1)" class="st3" v:langID="1033"><v:paragraph v:horizAlign="1"/><v:tabList/>01111110</text>		</g>
		<g id="shape19-54" v:mID="19" v:groupContext="shape" transform="translate(353.88,197.619) rotate(90) scale(-1,1)">
			<title>Sheet.19</title>
			<path d="M0 249 L4.47 249" class="st4"/>
		</g>
		<g id="shape20-57" v:mID="20" v:groupContext="shape" transform="translate(364.31,134.995) rotate(75.9638) scale(-1,1)">
			<title>Sheet.20</title>
			<path d="M0 249 L4.6 249" class="st4"/>
		</g>
		<g id="shape21-60" v:mID="21" v:groupContext="shape" transform="translate(362.205,78.4471) rotate(63.4349) scale(-1,1)">
			<title>Sheet.21</title>
			<path d="M0 249 L4.99 249" class="st4"/>
		</g>
		<g id="shape22-63" v:mID="22" v:groupContext="shape" transform="translate(351.723,32.0962) rotate(53.1301) scale(-1,1)">
			<title>Sheet.22</title>
			<path d="M0 249 L4.97 249" class="st4"/>
		</g>
		<g id="shape23-66" v:mID="23" v:groupContext="shape" transform="translate(150.626,428.629) scale(1,-1)">
			<title>Sheet.23</title>
			<desc>01111101</desc>
			<v:textBlock v:margins="rect(4,4,4,4)"/>
			<v:textRect cx="23.5619" cy="245.412" width="47.13" height="7.17554"/>
			<rect x="0" y="241.825" width="47.1238" height="7.17554" class="st2"/>
			<text x="5.77" y="-243.01" transform="scale(1,-1)" class="st3" v:langID="1033"><v:paragraph v:horizAlign="1"/><v:tabList/>01111101</text>		</g>
		<g id="shape24-69" v:mID="24" v:groupContext="shape" transform="translate(328.581,255.777) rotate(-75.9638) scale(1,-1)">
			<title>Sheet.24</title>
			<path d="M0 249 L4.6 249" class="st4"/>
		</g>
		<g id="shape25-72" v:mID="25" v:groupContext="shape" transform="translate(290.534,305.922) rotate(-62.203) scale(1,-1)">
			<title>Sheet.25</title>
			<path d="M0 249 L4.55 249" class="st4"/>
		</g>
		<g id="shape26-75" v:mID="26" v:groupContext="shape" transform="translate(44.9545,448.416) scale(1,-1)">
			<title>Sheet.26</title>
			<desc>10000001</desc>
			<v:textBlock v:margins="rect(4,4,4,4)"/>
			<v:textRect cx="23.9443" cy="246.767" width="47.89" height="4.46615"/>
			<rect x="0" y="244.534" width="47.8886" height="4.46615" class="st2"/>
			<text x="6.15" y="-244.37" transform="scale(1,-1)" class="st3" v:langID="1033"><v:paragraph v:horizAlign="1"/><v:tabList/>10000001</text>		</g>
		<g id="shape27-78" v:mID="27" v:groupContext="shape" transform="translate(23.568,438.715) scale(1,-1)">
			<title>Sheet.27</title>
			<desc>10000010</desc>
			<v:textBlock v:margins="rect(4,4,4,4)"/>
			<v:textRect cx="24.0326" cy="246.767" width="48.07" height="4.46615"/>
			<rect x="0" y="244.534" width="48.0651" height="4.46615" class="st2"/>
			<text x="6.24" y="-244.37" transform="scale(1,-1)" class="st3" v:langID="1033"><v:paragraph v:horizAlign="1"/><v:tabList/>10000010</text>		</g>
		<g id="shape28-81" v:mID="28" v:groupContext="shape" transform="translate(11,428.629) scale(1,-1)">
			<title>Sheet.28</title>
			<desc>10000011</desc>
			<v:textBlock v:margins="rect(4,4,4,4)"/>
			<v:textRect cx="24.051" cy="246.767" width="48.11" height="4.46615"/>
			<rect x="0" y="244.534" width="48.1021" height="4.46615" class="st2"/>
			<text x="6.25" y="-244.37" transform="scale(1,-1)" class="st3" v:langID="1033"><v:paragraph v:horizAlign="1"/><v:tabList/>10000011</text>		</g>
		<g id="shape29-84" v:mID="29" v:groupContext="shape" transform="translate(232.939,356.941) rotate(-45) scale(1,-1)">
			<title>Sheet.29</title>
			<path d="M0 249 L4.74 249" class="st4"/>
		</g>
		<g id="shape30-87" v:mID="30" v:groupContext="shape" transform="translate(89.2486,-187.599)">
			<title>Sheet.30</title>
			<path d="M-0 244.53 A6.69922 4.46615 -180 0 0 6.7 249 A8.9323 8.9323 -87.06 0 0 13.28 246.11 L13.41 245.77" class="st5"/>
		</g>
		<g id="shape31-93" v:mID="31" v:groupContext="shape" transform="translate(49.25,-158.618)">
			<title>Sheet.31</title>
			<desc>Count value &#34;rolls over&#34; from all 1&#39;s to all 0&#39;s</desc>
			<v:textBlock v:margins="rect(4,4,4,4)"/>
			<v:textRect cx="41.625" cy="242.434" width="83.25" height="13.1326"/>
			<rect x="0" y="235.868" width="83.25" height="13.1326" class="st2"/>
			<text x="14.94" y="233.43" class="st7" v:langID="1033"><v:paragraph v:horizAlign="1"/><v:tabList/>Count value <tspan
						x="6.4" dy="1.2em" class="st8">&#34;</tspan>rolls over&#34; from <tspan x="9.42" dy="1.2em" class="st8">all </tspan>1&#39;s to all 0&#39;s</text>		</g>
		<g id="shape32-98" v:mID="32" v:groupContext="shape" transform="translate(125.117,-137.354)">
			<title>Sheet.32</title>
			<path d="M0 195.41 L4.61 197.36 L9.07 199.73 L14.1 202.66 L18 205.46 L21.49 208.25 L24.42 210.76 L26.94 213.27 L29.45
						 216.06 L31.96 219.13 L34.47 222.62 L36.71 226.11 L38.94 230.02 L40.61 233.37 L41.73 236.02 L43.13 239.79
						 L43.82 241.74 L44.4 243.57 L45.08 246.21 L45.64 249" class="st9"/>
		</g>
		<g id="shape33-104" v:mID="33" v:groupContext="shape" transform="translate(65.0986,-122.284)">
			<title>Sheet.33</title>
			<desc>Numbers get larger in a clockwise direction</desc>
			<v:textBlock v:margins="rect(4,4,4,4)"/>
			<v:textRect cx="55.0757" cy="246.767" width="110.16" height="4.46615"/>
			<rect x="0" y="244.534" width="110.151" height="4.46615" class="st2"/>
			<text x="7" y="243.77" class="st7" v:langID="1033"><v:paragraph v:horizAlign="1"/><v:tabList/>Numbers get larger in <tspan
						x="9.22" dy="1.2em" class="st8">a clockwise direction</tspan></text>		</g>
		<g id="shape34-108" v:mID="34" v:groupContext="shape" transform="translate(106.625,-228)">
			<title>Sheet.34</title>
			<desc>Smallest Postive Number (zero)</desc>
			<v:textBlock v:margins="rect(4,4,4,4)"/>
			<v:textRect cx="43.875" cy="240" width="87.75" height="18"/>
			<rect x="0" y="231" width="87.75" height="18" class="st2"/>
			<text x="4.13" y="237" class="st11" v:langID="1033"><v:paragraph v:horizAlign="1"/><v:tabList/>Smallest Postive <tspan
						x="9.98" dy="1.2em" class="st8">Number </tspan>(zero)</text>		</g>
		<g id="shape35-112" v:mID="35" v:groupContext="shape" transform="translate(123.5,-3.00037)">
			<title>Sheet.35</title>
			<desc>Largest Postive Number</desc>
			<v:textBlock v:margins="rect(4,4,4,4)"/>
			<v:textRect cx="41.625" cy="240" width="83.25" height="18"/>
			<rect x="0" y="231" width="83.25" height="18" class="st2"/>
			<text x="4.39" y="237" class="st11" v:langID="1033"><v:paragraph v:horizAlign="1"/><v:tabList/>Largest Postive <tspan
						x="22.73" dy="1.2em" class="st8">Number</tspan></text>		</g>
		<g id="shape36-116" v:mID="36" v:groupContext="shape" transform="translate(8.75,-7.50037)">
			<title>Sheet.36</title>
			<desc>Smallest Negative Number</desc>
			<v:textBlock v:margins="rect(4,4,4,4)"/>
			<v:textRect cx="47.25" cy="240" width="94.5" height="18"/>
			<rect x="0" y="231" width="94.5" height="18" class="st2"/>
			<text x="4.45" y="237" class="st11" v:langID="1033"><v:paragraph v:horizAlign="1"/><v:tabList/>Smallest Negative <tspan
						x="28.36" dy="1.2em" class="st8">Number</tspan></text>		</g>
		<g id="shape37-120" v:mID="37" v:groupContext="shape" transform="translate(2,-223.5)">
			<title>Sheet.37</title>
			<desc>Largest Negative Number</desc>
			<v:textBlock v:margins="rect(4,4,4,4)"/>
			<v:textRect cx="44.4129" cy="240" width="88.83" height="18"/>
			<rect x="0" y="231" width="88.8257" height="18" class="st2"/>
			<text x="4.12" y="237" class="st11" v:langID="1033"><v:paragraph v:horizAlign="1"/><v:tabList/>Largest Negative <tspan
						x="25.52" dy="1.2em" class="st8">Number</tspan></text>		</g>
		<g id="shape38-124" v:mID="38" v:groupContext="shape" transform="translate(-123.146,-75.43) rotate(-69.444) scale(-1,1)">
			<title>Line-curve connector</title>
			<path d="M0 249 L2.06 245.83 L5.21 244.37 L9.46 244.62 L14.8 246.58 L15.12 246.76" class="st12"/>
		</g>
		<g id="shape39-130" v:mID="39" v:groupContext="shape" transform="translate(171.65,-175.95) rotate(36.8699)">
			<title>Line-curve connector.39</title>
			<path d="M0 249 L-2.81 252.11 L-2.57 254.05 L0.72 254.83 L7.05 254.45 L16.43 252.9 L28.85 250.18 L29.2 250.1"
					class="st12"/>
		</g>
		<g id="shape40-135" v:mID="40" v:groupContext="shape" transform="translate(75.1246,442.313) rotate(-148.392)">
			<title>Line-curve connector.40</title>
			<path d="M0 249 L-2.98 252.66 L-2.75 255.16 L0.7 256.48 L7.35 256.64 L17.22 255.63 L30.3 253.45 L46.6 250.1 L46.95 250.02"
					class="st12"/>
		</g>
		<g id="shape41-140" v:mID="41" v:groupContext="shape" transform="translate(342.566,288.391) rotate(-75.9638) scale(1,-1)">
			<title>Line-curve connector.41</title>
			<path d="M0 249 L1.69 246.46 L4.58 245.27 L8.66 245.45 L13.93 247 L14.26 247.14" class="st12"/>
		</g>
		<g id="shape42-145" v:mID="42" v:groupContext="shape" transform="translate(260.689,-53.6141)">
			<title>Circle.43</title>
			<path d="M0 175.31 A73.6915 73.6915 0 0 1 147.38 175.31 A73.6915 73.6915 0 1 1 0 175.31 Z" class="st1"/>
		</g>
		<g id="shape43-147" v:mID="43" v:groupContext="shape" transform="translate(311.375,-208.875)">
			<title>Sheet.43</title>
			<desc>00000000</desc>
			<v:textBlock v:margins="rect(4,4,4,4)"/>
			<v:textRect cx="22.7358" cy="246.767" width="45.48" height="4.46615"/>
			<rect x="0" y="244.534" width="45.4717" height="4.46615" class="st2"/>
			<text x="4.94" y="249.17" class="st3" v:langID="1033"><v:paragraph v:horizAlign="1"/><v:tabList/>00000000</text>		</g>
		<g id="shape44-150" v:mID="44" v:groupContext="shape" transform="translate(348.32,-203.25)">
			<title>Sheet.44</title>
			<desc>00000001</desc>
			<v:textBlock v:margins="rect(4,4,4,4)"/>
			<v:textRect cx="23.7151" cy="246.767" width="47.44" height="4.46615"/>
			<rect x="0" y="244.534" width="47.4301" height="4.46615" class="st2"/>
			<text x="5.92" y="249.17" class="st3" v:langID="1033"><v:paragraph v:horizAlign="1"/><v:tabList/>00000001</text>		</g>
		<g id="shape45-153" v:mID="45" v:groupContext="shape" transform="translate(367.876,-192)">
			<title>Sheet.45</title>
			<desc>00000010</desc>
			<v:textBlock v:margins="rect(4,4,4,4)"/>
			<v:textRect cx="22.3744" cy="245.625" width="44.75" height="6.75"/>
			<rect x="0" y="242.25" width="44.7488" height="6.75" class="st2"/>
			<text x="4.58" y="248.03" class="st3" v:langID="1033"><v:paragraph v:horizAlign="1"/><v:tabList/>00000010</text>		</g>
		<g id="shape46-156" v:mID="46" v:groupContext="shape" transform="translate(583.38,45.7701) rotate(90)">
			<title>Sheet.46</title>
			<path d="M0 249 L4.47 249" class="st4"/>
		</g>
		<g id="shape47-159" v:mID="47" v:groupContext="shape" transform="translate(593.81,108.395) rotate(104.036)">
			<title>Sheet.47</title>
			<path d="M0 249 L4.6 249" class="st4"/>
		</g>
		<g id="shape48-162" v:mID="48" v:groupContext="shape" transform="translate(591.705,164.942) rotate(116.565)">
			<title>Sheet.48</title>
			<path d="M0 249 L4.99 249" class="st4"/>
		</g>
		<g id="shape49-165" v:mID="49" v:groupContext="shape" transform="translate(581.223,211.293) rotate(126.87)">
			<title>Sheet.49</title>
			<path d="M0 249 L4.97 249" class="st4"/>
		</g>
		<g id="shape50-168" v:mID="50" v:groupContext="shape" transform="translate(380.65,-183)">
			<title>Sheet.50</title>
			<desc>00000011</desc>
			<v:textBlock v:margins="rect(4,4,4,4)"/>
			<v:textRect cx="21.85" cy="246.205" width="43.7" height="5.59115"/>
			<rect x="0" y="243.409" width="43.6999" height="5.59115" class="st2"/>
			<text x="4.05" y="248.6" class="st3" v:langID="1033"><v:paragraph v:horizAlign="1"/><v:tabList/>00000011</text>		</g>
		<g id="shape51-171" v:mID="51" v:groupContext="shape" transform="translate(558.081,-12.3883) rotate(75.9638)">
			<title>Sheet.51</title>
			<path d="M0 249 L4.6 249" class="st4"/>
		</g>
		<g id="shape52-174" v:mID="52" v:groupContext="shape" transform="translate(520.034,-62.5331) rotate(62.203)">
			<title>Sheet.52</title>
			<path d="M0 249 L4.55 249" class="st4"/>
		</g>
		<g id="shape53-177" v:mID="53" v:groupContext="shape" transform="translate(274.25,-201)">
			<title>Sheet.53</title>
			<desc>11111111</desc>
			<v:textBlock v:margins="rect(4,4,4,4)"/>
			<v:textRect cx="22.8076" cy="245.642" width="45.62" height="6.71615"/>
			<rect x="0" y="242.284" width="45.6151" height="6.71615" class="st2"/>
			<text x="5.01" y="248.04" class="st3" v:langID="1033"><v:paragraph v:horizAlign="1"/><v:tabList/>11111111</text>		</g>
		<g id="shape54-180" v:mID="54" v:groupContext="shape" transform="translate(256.25,-192)">
			<title>Sheet.54</title>
			<desc>11111110</desc>
			<v:textBlock v:margins="rect(4,4,4,4)"/>
			<v:textRect cx="23.4335" cy="245.063" width="46.87" height="7.875"/>
			<rect x="0" y="241.125" width="46.8671" height="7.875" class="st2"/>
			<text x="5.64" y="247.46" class="st3" v:langID="1033"><v:paragraph v:horizAlign="1"/><v:tabList/>11111110</text>		</g>
		<g id="shape55-183" v:mID="55" v:groupContext="shape" transform="translate(241.898,-183)">
			<title>Sheet.55</title>
			<desc>11111110</desc>
			<v:textBlock v:margins="rect(4,4,4,4)"/>
			<v:textRect cx="21.801" cy="245.625" width="43.61" height="6.75"/>
			<rect x="0" y="242.25" width="43.6021" height="6.75" class="st2"/>
			<text x="4" y="248.03" class="st3" v:langID="1033"><v:paragraph v:horizAlign="1"/><v:tabList/>11111110</text>		</g>
		<g id="shape56-186" v:mID="56" v:groupContext="shape" transform="translate(462.439,-113.552) rotate(45)">
			<title>Sheet.56</title>
			<path d="M0 249 L4.74 249" class="st4"/>
		</g>
		<g id="shape57-189" v:mID="57" v:groupContext="shape" transform="translate(307.066,452.284) scale(1,-1)">
			<title>Sheet.57</title>
			<desc>10000000</desc>
			<v:textBlock v:margins="rect(4,4,4,4)"/>
			<v:textRect cx="27.9337" cy="245.642" width="55.87" height="6.71615"/>
			<rect x="0" y="242.284" width="55.8674" height="6.71615" class="st2"/>
			<text x="10.14" y="-243.24" transform="scale(1,-1)" class="st3" v:langID="1033"><v:paragraph v:horizAlign="1"/><v:tabList/>10000000</text>		</g>
		<g id="shape58-192" v:mID="58" v:groupContext="shape" transform="translate(348.203,448.416) scale(1,-1)">
			<title>Sheet.58</title>
			<desc>01111111</desc>
			<v:textBlock v:margins="rect(4,4,4,4)"/>
			<v:textRect cx="23.7589" cy="246.767" width="47.52" height="4.46615"/>
			<rect x="0" y="244.534" width="47.5177" height="4.46615" class="st2"/>
			<text x="5.96" y="-244.37" transform="scale(1,-1)" class="st3" v:langID="1033"><v:paragraph v:horizAlign="1"/><v:tabList/>01111111</text>		</g>
		<g id="shape59-195" v:mID="59" v:groupContext="shape" transform="translate(369.042,438.331) scale(1,-1)">
			<title>Sheet.59</title>
			<desc>01111110</desc>
			<v:textBlock v:margins="rect(4,4,4,4)"/>
			<v:textRect cx="23.7087" cy="245.554" width="47.42" height="6.89147"/>
			<rect x="0" y="242.109" width="47.4173" height="6.89147" class="st2"/>
			<text x="5.91" y="-243.15" transform="scale(1,-1)" class="st3" v:langID="1033"><v:paragraph v:horizAlign="1"/><v:tabList/>01111110</text>		</g>
		<g id="shape60-198" v:mID="60" v:groupContext="shape" transform="translate(583.38,197.619) rotate(90) scale(-1,1)">
			<title>Sheet.60</title>
			<path d="M0 249 L4.47 249" class="st4"/>
		</g>
		<g id="shape61-201" v:mID="61" v:groupContext="shape" transform="translate(593.81,134.995) rotate(75.9638) scale(-1,1)">
			<title>Sheet.61</title>
			<path d="M0 249 L4.6 249" class="st4"/>
		</g>
		<g id="shape62-204" v:mID="62" v:groupContext="shape" transform="translate(591.705,78.4471) rotate(63.4349) scale(-1,1)">
			<title>Sheet.62</title>
			<path d="M0 249 L4.99 249" class="st4"/>
		</g>
		<g id="shape63-207" v:mID="63" v:groupContext="shape" transform="translate(581.223,32.0962) rotate(53.1301) scale(-1,1)">
			<title>Sheet.63</title>
			<path d="M0 249 L4.97 249" class="st4"/>
		</g>
		<g id="shape64-210" v:mID="64" v:groupContext="shape" transform="translate(380.126,428.629) scale(1,-1)">
			<title>Sheet.64</title>
			<desc>01111101</desc>
			<v:textBlock v:margins="rect(4,4,4,4)"/>
			<v:textRect cx="23.5619" cy="245.412" width="47.13" height="7.17554"/>
			<rect x="0" y="241.825" width="47.1238" height="7.17554" class="st2"/>
			<text x="5.77" y="-243.01" transform="scale(1,-1)" class="st3" v:langID="1033"><v:paragraph v:horizAlign="1"/><v:tabList/>01111101</text>		</g>
		<g id="shape65-213" v:mID="65" v:groupContext="shape" transform="translate(558.081,255.777) rotate(-75.9638) scale(1,-1)">
			<title>Sheet.65</title>
			<path d="M0 249 L4.6 249" class="st4"/>
		</g>
		<g id="shape66-216" v:mID="66" v:groupContext="shape" transform="translate(520.034,305.922) rotate(-62.203) scale(1,-1)">
			<title>Sheet.66</title>
			<path d="M0 249 L4.55 249" class="st4"/>
		</g>
		<g id="shape67-219" v:mID="67" v:groupContext="shape" transform="translate(274.455,448.416) scale(1,-1)">
			<title>Sheet.67</title>
			<desc>10000001</desc>
			<v:textBlock v:margins="rect(4,4,4,4)"/>
			<v:textRect cx="23.9443" cy="246.767" width="47.89" height="4.46615"/>
			<rect x="0" y="244.534" width="47.8886" height="4.46615" class="st2"/>
			<text x="6.15" y="-244.37" transform="scale(1,-1)" class="st3" v:langID="1033"><v:paragraph v:horizAlign="1"/><v:tabList/>10000001</text>		</g>
		<g id="shape68-222" v:mID="68" v:groupContext="shape" transform="translate(253.068,438.715) scale(1,-1)">
			<title>Sheet.68</title>
			<desc>10000010</desc>
			<v:textBlock v:margins="rect(4,4,4,4)"/>
			<v:textRect cx="24.0326" cy="246.767" width="48.07" height="4.46615"/>
			<rect x="0" y="244.534" width="48.0651" height="4.46615" class="st2"/>
			<text x="6.24" y="-244.37" transform="scale(1,-1)" class="st3" v:langID="1033"><v:paragraph v:horizAlign="1"/><v:tabList/>10000010</text>		</g>
		<g id="shape69-225" v:mID="69" v:groupContext="shape" transform="translate(240.5,428.629) scale(1,-1)">
			<title>Sheet.69</title>
			<desc>10000011</desc>
			<v:textBlock v:margins="rect(4,4,4,4)"/>
			<v:textRect cx="24.051" cy="246.767" width="48.11" height="4.46615"/>
			<rect x="0" y="244.534" width="48.1021" height="4.46615" class="st2"/>
			<text x="6.25" y="-244.37" transform="scale(1,-1)" class="st3" v:langID="1033"><v:paragraph v:horizAlign="1"/><v:tabList/>10000011</text>		</g>
		<g id="shape70-228" v:mID="70" v:groupContext="shape" transform="translate(462.439,356.941) rotate(-45) scale(1,-1)">
			<title>Sheet.70</title>
			<path d="M0 249 L4.74 249" class="st4"/>
		</g>
		<g id="shape71-231" v:mID="71" v:groupContext="shape" transform="translate(318.749,-187.599)">
			<title>Sheet.71</title>
			<path d="M-0 244.53 A6.69922 4.46615 -180 0 0 6.7 249 A8.9323 8.9323 -87.06 0 0 13.28 246.11 L13.41 245.77" class="st5"/>
		</g>
		<g id="shape72-236" v:mID="72" v:groupContext="shape" transform="translate(278.75,-158.618)">
			<title>Sheet.72</title>
			<desc>Count value &#34;rolls over&#34; from all 1&#39;s to all 0&#39;s</desc>
			<v:textBlock v:margins="rect(4,4,4,4)"/>
			<v:textRect cx="41.625" cy="242.434" width="83.25" height="13.1326"/>
			<rect x="0" y="235.868" width="83.25" height="13.1326" class="st2"/>
			<text x="14.94" y="233.43" class="st7" v:langID="1033"><v:paragraph v:horizAlign="1"/><v:tabList/>Count value <tspan
						x="6.4" dy="1.2em" class="st8">&#34;</tspan>rolls over&#34; from <tspan x="9.42" dy="1.2em" class="st8">all </tspan>1&#39;s to all 0&#39;s</text>		</g>
		<g id="shape73-241" v:mID="73" v:groupContext="shape" transform="translate(354.617,-137.354)">
			<title>Sheet.73</title>
			<path d="M0 195.41 L4.61 197.36 L9.07 199.73 L14.1 202.66 L18 205.46 L21.49 208.25 L24.42 210.76 L26.94 213.27 L29.45
						 216.06 L31.96 219.13 L34.47 222.62 L36.71 226.11 L38.94 230.02 L40.61 233.37 L41.73 236.02 L43.13 239.79
						 L43.82 241.74 L44.4 243.57 L45.08 246.21 L45.64 249" class="st9"/>
		</g>
		<g id="shape74-246" v:mID="74" v:groupContext="shape" transform="translate(294.599,-122.284)">
			<title>Sheet.74</title>
			<desc>Numbers get larger in a clockwise direction</desc>
			<v:textBlock v:margins="rect(4,4,4,4)"/>
			<v:textRect cx="55.0757" cy="246.767" width="110.16" height="4.46615"/>
			<rect x="0" y="244.534" width="110.151" height="4.46615" class="st2"/>
			<text x="7" y="243.77" class="st7" v:langID="1033"><v:paragraph v:horizAlign="1"/><v:tabList/>Numbers get larger in <tspan
						x="9.22" dy="1.2em" class="st8">a clockwise direction</tspan></text>		</g>
		<g id="shape75-250" v:mID="75" v:groupContext="shape" transform="translate(336.125,-228)">
			<title>Sheet.75</title>
			<desc>Smallest Postive Number (zero)</desc>
			<v:textBlock v:margins="rect(4,4,4,4)"/>
			<v:textRect cx="43.875" cy="240" width="87.75" height="18"/>
			<rect x="0" y="231" width="87.75" height="18" class="st2"/>
			<text x="4.13" y="237" class="st11" v:langID="1033"><v:paragraph v:horizAlign="1"/><v:tabList/>Smallest Postive <tspan
						x="9.98" dy="1.2em" class="st8">Number </tspan>(zero)</text>		</g>
		<g id="shape76-254" v:mID="76" v:groupContext="shape" transform="translate(353,-3.00037)">
			<title>Sheet.76</title>
			<desc>Largest Postive Number</desc>
			<v:textBlock v:margins="rect(4,4,4,4)"/>
			<v:textRect cx="41.625" cy="240" width="83.25" height="18"/>
			<rect x="0" y="231" width="83.25" height="18" class="st2"/>
			<text x="4.39" y="237" class="st11" v:langID="1033"><v:paragraph v:horizAlign="1"/><v:tabList/>Largest Postive <tspan
						x="22.73" dy="1.2em" class="st8">Number</tspan></text>		</g>
		<g id="shape77-258" v:mID="77" v:groupContext="shape" transform="translate(242.849,-7.50037)">
			<title>Sheet.77</title>
			<desc>Largest Negative Number</desc>
			<v:textBlock v:margins="rect(4,4,4,4)"/>
			<v:textRect cx="44.9507" cy="240" width="89.91" height="18"/>
			<rect x="0" y="231" width="89.9014" height="18" class="st2"/>
			<text x="4.66" y="237" class="st11" v:langID="1033"><v:paragraph v:horizAlign="1"/><v:tabList/>Largest Negative <tspan
						x="26.06" dy="1.2em" class="st8">Number</tspan></text>		</g>
		<g id="shape78-262" v:mID="78" v:groupContext="shape" transform="translate(229.25,-223.5)">
			<title>Sheet.78</title>
			<desc>Smallest Negative Number</desc>
			<v:textBlock v:margins="rect(4,4,4,4)"/>
			<v:textRect cx="45.5379" cy="240" width="91.08" height="18"/>
			<rect x="0" y="231" width="91.0757" height="18" class="st2"/>
			<text x="24.97" y="237" class="st11" v:langID="1033"><v:paragraph v:horizAlign="1"/><v:tabList/>Smallest <tspan
						x="4.41" dy="1.2em" class="st8">Negative Number</tspan></text>		</g>
		<g id="shape79-266" v:mID="79" v:groupContext="shape" transform="translate(106.354,-75.43) rotate(-69.444) scale(-1,1)">
			<title>Line-curve connector.79</title>
			<path d="M0 249 L1.53 247.24 L4.43 246.43 L8.71 246.56 L14.37 247.65 L14.71 247.75" class="st12"/>
		</g>
		<g id="shape80-271" v:mID="80" v:groupContext="shape" transform="translate(323.976,-207.941) rotate(21.8014)">
			<title>Line-curve connector.80</title>
			<path d="M0 249 L-3.64 251.97 L-4 254 L-1.07 255.08 L5.15 255.2 L14.65 254.39 L27.44 252.62 L43.51 249.91 L43.86 249.84"
					class="st12"/>
		</g>
		<g id="shape81-276" v:mID="81" v:groupContext="shape" transform="translate(301.036,440.777) rotate(-147.724)">
			<title>Line-curve connector.81</title>
			<path d="M0 249 L-1.83 251.91 L-0.87 253.9 L2.86 254.96 L9.38 255.1 L18.68 254.31 L30.76 252.6 L45.62 249.96 L45.97 249.89"
					class="st12"/>
		</g>
		<g id="shape82-281" v:mID="82" v:groupContext="shape" transform="translate(569.92,296.405) rotate(-74.0546) scale(1,-1)">
			<title>Line-curve connector.83</title>
			<path d="M0 249 L1.56 246.75 L4.04 245.66 L7.45 245.72 L11.78 246.95 L12.11 247.1" class="st12"/>
		</g>
		<g id="shape83-286" v:mID="83" v:groupContext="shape" transform="translate(53.75,-79.5004)">
			<title>Sheet.83</title>
			<desc>SIGNED MAGNITUDE</desc>
			<v:textBlock v:margins="rect(4,4,4,4)"/>
			<v:textRect cx="51.75" cy="240" width="103.5" height="18"/>
			<rect x="0" y="231" width="103.5" height="18" class="st2"/>
			<text x="28.75" y="236.4" class="st14" v:langID="1033"><v:paragraph v:horizAlign="1"/><v:tabList/>SIGNED <tspan
						x="15.42" dy="1.2em" class="st8">MAGNITUDE</tspan></text>		</g>
		<g id="shape84-290" v:mID="84" v:groupContext="shape" transform="translate(287.75,-75.0004)">
			<title>Sheet.84</title>
			<desc>2&#39;s COMPLIMENT</desc>
			<v:textBlock v:margins="rect(4,4,4,4)"/>
			<v:textRect cx="51.75" cy="235.5" width="103.5" height="27"/>
			<rect x="0" y="222" width="103.5" height="27" class="st2"/>
			<text x="43.65" y="231.9" class="st14" v:langID="1033"><v:paragraph v:horizAlign="1"/><v:tabList/>2&#39;s<v:newlineChar/><tspan
						x="11.42" dy="1.2em" class="st8">COMPLIMENT</tspan></text>		</g>
	</g>
</svg>
