<?xml version="1.0" encoding="UTF-8" standalone="no"?>
<!DOCTYPE svg PUBLIC "-//W3C//DTD SVG 1.1//EN" "http://www.w3.org/Graphics/SVG/1.1/DTD/svg11.dtd">
<!-- Generated by Microsoft Visio, SVG Export LogicPrecedence .svg Page-1 -->
<svg xmlns="http://www.w3.org/2000/svg" xmlns:xlink="http://www.w3.org/1999/xlink" xmlns:ev="http://www.w3.org/2001/xml-events"
		xmlns:v="http://schemas.microsoft.com/visio/2003/SVGExtensions/" width="3.32813in" height="0.697918in"
		viewBox="0 0 239.625 50.2501" xml:space="preserve" color-interpolation-filters="sRGB" class="st7">
	<v:documentProperties v:langID="1033" v:viewMarkup="false"/>

	<style type="text/css">
	<![CDATA[
		.st1 {fill:none;stroke:#000000;stroke-linecap:round;stroke-linejoin:round;stroke-width:0.72}
		.st2 {stroke:#000000;stroke-linecap:round;stroke-linejoin:round;stroke-width:0.748474}
		.st3 {stroke:#000000;stroke-linecap:round;stroke-linejoin:round;stroke-width:0.748902}
		.st4 {fill:#000000;stroke:#000000;stroke-linecap:round;stroke-linejoin:round;stroke-width:0.24}
		.st5 {stroke:none;stroke-linecap:round;stroke-linejoin:round;stroke-width:0.75}
		.st6 {fill:#000000;font-family:Arial;font-size:0.833336em}
		.st7 {fill:none;fill-rule:evenodd;font-size:12px;overflow:visible;stroke-linecap:square;stroke-miterlimit:3}
	]]>
	</style>

	<g v:mID="0" v:index="1" v:groupContext="foregroundPage">
		<title>Page-1</title>
		<v:pageProperties v:drawingScale="1" v:pageScale="1" v:drawingUnits="19" v:shadowOffsetX="9" v:shadowOffsetY="-9"/>
		<g id="shape1-1" v:mID="1" v:groupContext="shape" transform="translate(28.125,-29.6252)">
			<title>Sheet.1</title>
			<path d="M0 32.25 L0 50.25 L10.12 50.25 A10.125 9 -180 0 0 20.25 41.25 A10.125 9 -180 0 0 10.12 32.25 L0 32.25 Z"
					class="st1"/>
		</g>
		<g id="shape2-3" v:mID="2" v:groupContext="shape" transform="translate(48.375,-11.6252)">
			<title>Sheet.2</title>
			<path d="M0 50.25 L4.5 50.25" class="st2"/>
		</g>
		<g id="shape3-6" v:mID="3" v:groupContext="shape" transform="translate(10.125,-43.1252)">
			<title>Sheet.3</title>
			<path d="M18 50.25 L0 50.25" class="st2"/>
		</g>
		<g id="shape4-9" v:mID="4" v:groupContext="shape" transform="translate(21.375,-16.1252)">
			<title>Sheet.4</title>
			<path d="M0 32.2 L0 50.25" class="st2"/>
		</g>
		<g id="shape5-12" v:mID="5" v:groupContext="shape" transform="translate(28.125,-2.62518)">
			<title>Sheet.5</title>
			<path d="M0 32.25 L0 50.25 L10.12 50.25 A10.125 9 -180 0 0 20.25 41.25 A10.125 9 -180 0 0 10.12 32.25 L0 32.25 Z"
					class="st1"/>
		</g>
		<g id="group6-14" transform="translate(59.625,-16.1252)" v:mID="6" v:groupContext="group">
			<title>Sheet.6</title>
			<g id="shape7-15" v:mID="7" v:groupContext="shape">
				<title>Sheet.7</title>
				<path d="M2.1 41.25 L2.02 42.74 L1.85 45.43 L1.51 47.56 L1.01 49.04 L0 50.25 L8.57 50.25 L11.84 49.79 L13.27 49.32
							 L14.45 48.77 L16.04 47.75 L17.05 46.72 L18.39 44.68 L20.24 41.25" class="st3"/>
			</g>
			<g id="shape8-18" v:mID="8" v:groupContext="shape" transform="translate(0.00754234,-9.00045)">
				<title>Sheet.8</title>
				<path d="M2.1 50.25 L2.02 48.77 L1.85 46.17 L1.51 44.03 L1.01 42.55 L0 41.25 L8.57 41.25 L11.84 41.71 L13.27 42.27
							 L14.45 42.83 L16.04 43.85 L17.05 44.87 L18.39 46.91 L20.24 50.25" class="st3"/>
			</g>
		</g>
		<g id="shape9-21" v:mID="9" v:groupContext="shape" transform="translate(10.125,-34.1252)">
			<title>Sheet.9</title>
			<path d="M18 50.25 L0 50.25" class="st2"/>
		</g>
		<g id="shape10-24" v:mID="10" v:groupContext="shape" transform="translate(21.375,-16.1252)">
			<title>Sheet.10</title>
			<path d="M6.75 50.25 L0 50.25" class="st2"/>
		</g>
		<g id="shape11-27" v:mID="11" v:groupContext="shape" transform="translate(10.125,-7.12518)">
			<title>Sheet.11</title>
			<path d="M18 50.25 L0 50.25" class="st2"/>
		</g>
		<g id="shape12-30" v:mID="12" v:groupContext="shape" transform="translate(48.375,-38.6252)">
			<title>Sheet.12</title>
			<path d="M0 50.25 L4.5 50.25" class="st2"/>
		</g>
		<g id="shape13-33" v:mID="13" v:groupContext="shape" transform="translate(52.875,-29.6252)">
			<title>Sheet.13</title>
			<path d="M0 41.2 L0 50.25" class="st2"/>
		</g>
		<g id="shape14-36" v:mID="14" v:groupContext="shape" transform="translate(52.875,-29.6252)">
			<title>Sheet.14</title>
			<path d="M0 50.25 L8.44 50.25" class="st2"/>
		</g>
		<g id="shape15-39" v:mID="15" v:groupContext="shape" transform="translate(52.875,-11.6252)">
			<title>Sheet.15</title>
			<path d="M0 41.2 L0 50.25" class="st2"/>
		</g>
		<g id="shape16-42" v:mID="16" v:groupContext="shape" transform="translate(52.875,-20.6252)">
			<title>Sheet.16</title>
			<path d="M0 50.25 L8.44 50.25" class="st2"/>
		</g>
		<g id="shape17-45" v:mID="17" v:groupContext="shape" transform="translate(79.875,-25.1252)">
			<title>Sheet.17</title>
			<path d="M0 50.25 L8.44 50.25" class="st2"/>
		</g>
		<g id="shape18-48" v:mID="18" v:groupContext="shape" transform="translate(20.3667,-33.1169)">
			<title>Circle.84</title>
			<v:userDefs>
				<v:ud v:nameU="visVersion" v:val="VT0(11):26"/>
			</v:userDefs>
			<path d="M0 49.24 A1.00825 1.00825 0 1 1 2.02 49.24 A1.00825 1.00825 0 1 1 -0 49.24 Z" class="st4"/>
		</g>
		<g id="shape19-50" v:mID="19" v:groupContext="shape" transform="translate(0,-39.7502)">
			<title>Sheet.19</title>
			<desc>A</desc>
			<v:textBlock v:margins="rect(0,0,0,0)"/>
			<v:textRect cx="4.5" cy="45.7501" width="9" height="9"/>
			<path d="M9 41.25 L0 41.25 L0 50.25 L9 50.25 L9 41.25" class="st5"/>
			<text x="1.16" y="48.75" class="st6" v:langID="1033"><v:paragraph v:horizAlign="1"/><v:tabList/>A</text>		</g>
		<g id="shape20-54" v:mID="20" v:groupContext="shape" transform="translate(0,-28.5002)">
			<title>Sheet.20</title>
			<desc>B</desc>
			<v:textBlock v:margins="rect(0,0,0,0)"/>
			<v:textRect cx="4.5" cy="45.7501" width="9" height="9"/>
			<path d="M9 41.25 L0 41.25 L0 50.25 L9 50.25 L9 41.25" class="st5"/>
			<text x="1.16" y="48.75" class="st6" v:langID="1033"><v:paragraph v:horizAlign="1"/><v:tabList/>B</text>		</g>
		<g id="shape21-58" v:mID="21" v:groupContext="shape" transform="translate(0,-1.50018)">
			<title>Sheet.21</title>
			<desc>C</desc>
			<v:textBlock v:margins="rect(0,0,0,0)"/>
			<v:textRect cx="4.5" cy="45.7501" width="9" height="9"/>
			<path d="M9 41.25 L0 41.25 L0 50.25 L9 50.25 L9 41.25" class="st5"/>
			<text x="0.89" y="48.75" class="st6" v:langID="1033"><v:paragraph v:horizAlign="1"/><v:tabList/>C</text>		</g>
		<g id="shape22-62" v:mID="22" v:groupContext="shape" transform="translate(90,-20.6252)">
			<title>Sheet.22</title>
			<desc>F</desc>
			<v:textBlock v:margins="rect(0,0,0,0)"/>
			<v:textRect cx="4.5" cy="45.7501" width="9" height="9"/>
			<path d="M9 41.25 L0 41.25 L0 50.25 L9 50.25 L9 41.25" class="st5"/>
			<text x="1.45" y="48.75" class="st6" v:langID="1033"><v:paragraph v:horizAlign="1"/><v:tabList/>F</text>		</g>
		<g id="group23-66" transform="translate(150.75,-16.1252)" v:mID="23" v:groupContext="group">
			<title>Sheet.23</title>
			<g id="shape24-67" v:mID="24" v:groupContext="shape">
				<title>Sheet.24</title>
				<path d="M2.1 41.25 L2.02 42.74 L1.85 45.43 L1.51 47.56 L1.01 49.04 L0 50.25 L8.57 50.25 L11.84 49.79 L13.27 49.32
							 L14.45 48.77 L16.04 47.75 L17.05 46.72 L18.39 44.68 L20.24 41.25" class="st3"/>
			</g>
			<g id="shape25-70" v:mID="25" v:groupContext="shape" transform="translate(0.00754234,-9.00045)">
				<title>Sheet.25</title>
				<path d="M2.1 50.25 L2.02 48.77 L1.85 46.17 L1.51 44.03 L1.01 42.55 L0 41.25 L8.57 41.25 L11.84 41.71 L13.27 42.27
							 L14.45 42.83 L16.04 43.85 L17.05 44.87 L18.39 46.91 L20.24 50.25" class="st3"/>
			</g>
		</g>
		<g id="shape26-73" v:mID="26" v:groupContext="shape" transform="translate(189,-11.6252)">
			<title>Sheet.26</title>
			<path d="M0 23.25 L0 50.25 L14.62 50.25 A14.625 13.5 -180 0 0 29.25 36.75 A14.625 13.5 -180 0 0 14.62 23.25 L0 23.25 Z"
					class="st1"/>
		</g>
		<g id="shape27-75" v:mID="27" v:groupContext="shape" transform="translate(171,-25.1252)">
			<title>Sheet.27</title>
			<path d="M18 50.25 L0 50.25" class="st2"/>
		</g>
		<g id="shape28-78" v:mID="28" v:groupContext="shape" transform="translate(135,-29.6252)">
			<title>Sheet.28</title>
			<path d="M17.44 50.25 L0 50.25" class="st2"/>
		</g>
		<g id="shape29-81" v:mID="29" v:groupContext="shape" transform="translate(135,-20.6252)">
			<title>Sheet.29</title>
			<path d="M17.44 50.25 L0 50.25" class="st2"/>
		</g>
		<g id="shape30-84" v:mID="30" v:groupContext="shape" transform="translate(135,-43.1252)">
			<title>Sheet.30</title>
			<path d="M45 50.25 L0 50.25" class="st2"/>
		</g>
		<g id="shape31-87" v:mID="31" v:groupContext="shape" transform="translate(180,-34.1252)">
			<title>Sheet.31</title>
			<path d="M9 50.25 L0 50.25" class="st2"/>
		</g>
		<g id="shape32-90" v:mID="32" v:groupContext="shape" transform="translate(180,-34.1252)">
			<title>Sheet.32</title>
			<path d="M0 50.25 L0 41.25" class="st2"/>
		</g>
		<g id="shape33-93" v:mID="33" v:groupContext="shape" transform="translate(180,-16.1252)">
			<title>Sheet.33</title>
			<path d="M9 50.25 L0 50.25" class="st2"/>
		</g>
		<g id="shape34-96" v:mID="34" v:groupContext="shape" transform="translate(180,-7.12518)">
			<title>Sheet.34</title>
			<path d="M0 50.25 L0 41.25" class="st2"/>
		</g>
		<g id="shape35-99" v:mID="35" v:groupContext="shape" transform="translate(144,-7.12518)">
			<title>Sheet.35</title>
			<path d="M36 50.25 L0 50.25" class="st2"/>
		</g>
		<g id="shape36-102" v:mID="36" v:groupContext="shape" transform="translate(144,-7.12518)">
			<title>Sheet.36</title>
			<path d="M0 50.25 L0 27.75" class="st2"/>
		</g>
		<g id="shape37-105" v:mID="37" v:groupContext="shape" transform="translate(142.992,-28.6169)">
			<title>Circle.160</title>
			<v:userDefs>
				<v:ud v:nameU="visVersion" v:val="VT0(11):26"/>
			</v:userDefs>
			<path d="M0 49.24 A1.00825 1.00825 0 1 1 2.02 49.24 A1.00825 1.00825 0 1 1 -0 49.24 Z" class="st4"/>
		</g>
		<g id="shape38-107" v:mID="38" v:groupContext="shape" transform="translate(218.25,-25.1252)">
			<title>Sheet.38</title>
			<path d="M11.25 50.25 L0 50.25" class="st2"/>
		</g>
		<g id="shape39-110" v:mID="39" v:groupContext="shape" transform="translate(230.625,-20.6252)">
			<title>Sheet.39</title>
			<desc>F</desc>
			<v:textBlock v:margins="rect(0,0,0,0)"/>
			<v:textRect cx="4.5" cy="45.7501" width="9" height="9"/>
			<path d="M9 41.25 L0 41.25 L0 50.25 L9 50.25 L9 41.25" class="st5"/>
			<text x="1.45" y="48.75" class="st6" v:langID="1033"><v:paragraph v:horizAlign="1"/><v:tabList/>F</text>		</g>
		<g id="shape40-114" v:mID="40" v:groupContext="shape" transform="translate(124.875,-38.6252)">
			<title>Sheet.40</title>
			<desc>A</desc>
			<v:textBlock v:margins="rect(0,0,0,0)"/>
			<v:textRect cx="4.5" cy="45.7501" width="9" height="9"/>
			<path d="M9 41.25 L0 41.25 L0 50.25 L9 50.25 L9 41.25" class="st5"/>
			<text x="1.16" y="48.75" class="st6" v:langID="1033"><v:paragraph v:horizAlign="1"/><v:tabList/>A</text>		</g>
		<g id="shape41-118" v:mID="41" v:groupContext="shape" transform="translate(124.875,-25.1252)">
			<title>Sheet.41</title>
			<desc>B</desc>
			<v:textBlock v:margins="rect(0,0,0,0)"/>
			<v:textRect cx="4.5" cy="45.7501" width="9" height="9"/>
			<path d="M9 41.25 L0 41.25 L0 50.25 L9 50.25 L9 41.25" class="st5"/>
			<text x="1.16" y="48.75" class="st6" v:langID="1033"><v:paragraph v:horizAlign="1"/><v:tabList/>B</text>		</g>
		<g id="shape42-122" v:mID="42" v:groupContext="shape" transform="translate(124.875,-15.0002)">
			<title>Sheet.42</title>
			<desc>C</desc>
			<v:textBlock v:margins="rect(0,0,0,0)"/>
			<v:textRect cx="4.5" cy="45.7501" width="9" height="9"/>
			<path d="M9 41.25 L0 41.25 L0 50.25 L9 50.25 L9 41.25" class="st5"/>
			<text x="0.89" y="48.75" class="st6" v:langID="1033"><v:paragraph v:horizAlign="1"/><v:tabList/>C</text>		</g>
	</g>
</svg>
