<?xml version="1.0" encoding="UTF-8" standalone="no"?>
<!DOCTYPE svg PUBLIC "-//W3C//DTD SVG 1.1//EN" "http://www.w3.org/Graphics/SVG/1.1/DTD/svg11.dtd">
<!-- Generated by Microsoft Visio, SVG Export ClkDivider.svg Page-1 -->
<svg xmlns="http://www.w3.org/2000/svg" xmlns:xlink="http://www.w3.org/1999/xlink" xmlns:ev="http://www.w3.org/2001/xml-events"
		xmlns:v="http://schemas.microsoft.com/visio/2003/SVGExtensions/" width="4.82292in" height="1.18134in"
		viewBox="0 0 347.25 85.0562" xml:space="preserve" color-interpolation-filters="sRGB" class="st16">
	<v:documentProperties v:langID="1033" v:viewMarkup="false"/>

	<style type="text/css">
	<![CDATA[
		.st1 {fill:#d5e1fb;stroke:#000000;stroke-linecap:round;stroke-linejoin:round;stroke-width:0.24}
		.st2 {stroke:#000000;stroke-linecap:round;stroke-linejoin:round;stroke-width:0.72}
		.st3 {fill:none;stroke:none;stroke-linecap:round;stroke-linejoin:round;stroke-width:0.72}
		.st4 {fill:#000000;font-family:Arial;font-size:0.833336em}
		.st5 {fill:#ffffff;stroke:#000000;stroke-linecap:round;stroke-linejoin:round;stroke-width:0.72}
		.st6 {stroke:#000000;stroke-linecap:round;stroke-linejoin:round;stroke-width:0.75}
		.st7 {stroke:#000000;stroke-dasharray:0,2.16;stroke-linecap:round;stroke-linejoin:round;stroke-width:0.72}
		.st8 {marker-end:url(#mrkr5-127);stroke:#0070c0;stroke-dasharray:0.25,0.5;stroke-linecap:round;stroke-linejoin:round;stroke-width:0.25}
		.st9 {fill:#0070c0;fill-opacity:1;stroke:#0070c0;stroke-opacity:1;stroke-width:0.090252707581227}
		.st10 {fill:none;stroke:none;stroke-linecap:round;stroke-linejoin:round;stroke-width:0.75}
		.st11 {fill:#0070c0;font-family:Calibri;font-size:0.499992em}
		.st12 {font-size:1em}
		.st13 {marker-end:url(#mrkr5-137);stroke:#923931;stroke-dasharray:1.75,1.25;stroke-linecap:round;stroke-linejoin:round;stroke-width:0.25}
		.st14 {fill:#923931;fill-opacity:1;stroke:#923931;stroke-opacity:1;stroke-width:0.090252707581227}
		.st15 {fill:#923931;font-family:Calibri;font-size:0.499992em}
		.st16 {fill:none;fill-rule:evenodd;font-size:12px;overflow:visible;stroke-linecap:square;stroke-miterlimit:3}
	]]>
	</style>

	<defs id="Markers">
		<g id="lend5">
			<path d="M 2 1 L 0 0 L 1.98117 -0.993387 C 1.67173 -0.364515 1.67301 0.372641 1.98465 1.00043 " style="stroke:none"/>
		</g>
		<marker id="mrkr5-127" class="st9" v:arrowType="5" v:arrowSize="2" v:setback="17.95" refX="-17.95" orient="auto"
				markerUnits="strokeWidth" overflow="visible">
			<use xlink:href="#lend5" transform="scale(-11.08,-11.08) "/>
		</marker>
		<marker id="mrkr5-137" class="st14" v:arrowType="5" v:arrowSize="2" v:setback="17.95" refX="-17.95" orient="auto"
				markerUnits="strokeWidth" overflow="visible">
			<use xlink:href="#lend5" transform="scale(-11.08,-11.08) "/>
		</marker>
	</defs>
	<g v:mID="0" v:index="1" v:groupContext="foregroundPage">
		<title>Page-1</title>
		<v:pageProperties v:drawingScale="1" v:pageScale="1" v:drawingUnits="19" v:shadowOffsetX="9" v:shadowOffsetY="-9"/>
		<g id="shape1-1" v:mID="1" v:groupContext="shape" transform="translate(47.625,-9.375)">
			<title>Rectangle</title>
			<rect x="0" y="26.5562" width="40.5" height="58.5" class="st1"/>
		</g>
		<g id="shape2-3" v:mID="2" v:groupContext="shape" transform="translate(38.625,-36.375)">
			<title>Sheet.2</title>
			<path d="M0 85.06 L9 85.06" class="st2"/>
		</g>
		<g id="shape3-6" v:mID="3" v:groupContext="shape" transform="translate(38.625,-59.6649)">
			<title>Sheet.3</title>
			<path d="M0 85.06 L9 85.06" class="st2"/>
		</g>
		<g id="shape4-9" v:mID="4" v:groupContext="shape" transform="translate(38.625,-0.375)">
			<title>Sheet.4</title>
			<path d="M0 85.06 L29.25 85.06" class="st2"/>
		</g>
		<g id="shape6-12" v:mID="6" v:groupContext="shape" transform="translate(88.125,-58.875)">
			<title>Sheet.6</title>
			<path d="M0 85.06 L9 85.06" class="st2"/>
		</g>
		<g id="shape7-15" v:mID="7" v:groupContext="shape" transform="translate(45.375,-52.125)">
			<title>Sheet.7</title>
			<desc>D</desc>
			<v:textBlock v:margins="rect(4,4,4,4)"/>
			<v:textRect cx="9" cy="78.3062" width="18" height="13.5"/>
			<rect x="0" y="71.5562" width="18" height="13.5" class="st3"/>
			<text x="5.39" y="81.31" class="st4" v:langID="1033"><v:paragraph v:horizAlign="1"/><v:tabList/>D</text>		</g>
		<g id="shape8-18" v:mID="8" v:groupContext="shape" transform="translate(72.375,-52.125)">
			<title>Sheet.8</title>
			<desc>Q</desc>
			<v:textBlock v:margins="rect(4,4,4,4)"/>
			<v:textRect cx="9" cy="78.3062" width="18" height="13.5"/>
			<rect x="0" y="71.5562" width="18" height="13.5" class="st3"/>
			<text x="5.11" y="81.31" class="st4" v:langID="1033"><v:paragraph v:horizAlign="1"/><v:tabList/>Q</text>		</g>
		<g id="shape9-21" v:mID="9" v:groupContext="shape" transform="translate(49.875,-29.625)">
			<title>Sheet.9</title>
			<desc>Clk</desc>
			<v:textBlock v:margins="rect(4,4,4,4)"/>
			<v:textRect cx="14.625" cy="78.3062" width="29.25" height="13.5"/>
			<rect x="0" y="71.5562" width="29.25" height="13.5" class="st3"/>
			<text x="7.4" y="81.31" class="st4" v:langID="1033"><v:paragraph v:horizAlign="1"/><v:tabList/>Clk</text>		</g>
		<g id="shape10-24" v:mID="10" v:groupContext="shape" transform="translate(56.625,-9.375)">
			<title>Sheet.10</title>
			<desc>Rst</desc>
			<v:textBlock v:margins="rect(4,4,4,4)"/>
			<v:textRect cx="11.8125" cy="80.5562" width="23.63" height="9"/>
			<rect x="0" y="76.0562" width="23.625" height="9" class="st3"/>
			<text x="4.31" y="83.56" class="st4" v:langID="1033"><v:paragraph v:horizAlign="1"/><v:tabList/>Rst</text>		</g>
		<g id="shape11-27" v:mID="11" v:groupContext="shape" transform="translate(47.625,-31.875)">
			<title>Sheet.11</title>
			<path d="M0 85.06 L6.75 80.56 L0 76.06" class="st2"/>
		</g>
		<g id="shape12-30" v:mID="12" v:groupContext="shape" transform="translate(29.625,-59.6649)">
			<title>Sheet.12</title>
			<path d="M0 85.06 L9 85.06" class="st2"/>
		</g>
		<g id="shape13-33" v:mID="13" v:groupContext="shape" transform="translate(17.551,103.697) scale(1,-1)">
			<title>Sheet.13</title>
			<path d="M0 71.56 L0 85.06 L11.72 78.22 L0 71.56 ZM11.72 78.22 L12.08 79.3 L12.98 79.84 L13.89 79.84 L14.79 79.3 L15.15
						 78.22 L14.79 77.32 L13.89 76.6 L12.98 76.6 L12.08 77.32 L11.72 78.22 Z" class="st5"/>
		</g>
		<g id="shape14-35" v:mID="14" v:groupContext="shape" transform="translate(97.125,-58.875)">
			<title>Sheet.14</title>
			<path d="M0 85.06 L33.75 85.06" class="st6"/>
		</g>
		<g id="shape15-38" v:mID="15" v:groupContext="shape" transform="translate(0.375,-58.875)">
			<title>Sheet.15</title>
			<path d="M103.5 85.06 L103.5 61.49 L0 61.49" class="st6"/>
		</g>
		<g id="shape16-41" v:mID="16" v:groupContext="shape" transform="translate(0.375,-59.9462)">
			<title>Sheet.16</title>
			<path d="M0 62.56 L0 85.06 L17.18 85.06" class="st6"/>
		</g>
		<g id="shape17-44" v:mID="17" v:groupContext="shape" transform="translate(38.625,133.737) rotate(180)">
			<title>Sheet.17</title>
			<path d="M0 85.06 L24.75 85.06" class="st6"/>
		</g>
		<g id="shape18-47" v:mID="18" v:groupContext="shape" transform="translate(101.625,-57.1337)">
			<title>Sheet.18</title>
			<desc>clkdiv</desc>
			<v:textBlock v:margins="rect(4,4,4,4)"/>
			<v:textRect cx="18" cy="78.3062" width="36" height="13.5"/>
			<rect x="0" y="71.5562" width="36" height="13.5" class="st3"/>
			<text x="5.5" y="81.31" class="st4" v:langID="1033"><v:paragraph v:horizAlign="1"/><v:tabList/>clkdiv</text>		</g>
		<g id="shape20-50" v:mID="20" v:groupContext="shape" transform="translate(4.875,-35.1962)">
			<title>Sheet.20</title>
			<desc>clk</desc>
			<v:textBlock v:margins="rect(4,4,4,4)"/>
			<v:textRect cx="18" cy="78.3062" width="36" height="13.5"/>
			<rect x="0" y="71.5562" width="36" height="13.5" class="st3"/>
			<text x="11.89" y="81.31" class="st4" v:langID="1033"><v:paragraph v:horizAlign="1"/><v:tabList/>clk</text>		</g>
		<g id="shape21-53" v:mID="21" v:groupContext="shape" transform="translate(22.875,-57.6962)">
			<title>Sheet.21</title>
			<desc>din</desc>
			<v:textBlock v:margins="rect(4,4,4,4)"/>
			<v:textRect cx="18" cy="78.3062" width="36" height="13.5"/>
			<rect x="0" y="71.5562" width="36" height="13.5" class="st3"/>
			<text x="11.33" y="81.31" class="st4" v:langID="1033"><v:paragraph v:horizAlign="1"/><v:tabList/>din</text>		</g>
		<g id="shape51-56" v:mID="51" v:groupContext="shape" transform="translate(177.163,-65.2577)">
			<title>Sheet.51</title>
			<path d="M0 85.06 L12.04 85.06 L12.04 70.6 L24.08 70.6 L24.08 85.06" class="st2"/>
		</g>
		<g id="shape52-59" v:mID="52" v:groupContext="shape" transform="translate(148.875,-21.8806)">
			<title>Sheet.52</title>
			<desc>din</desc>
			<v:textBlock v:margins="rect(4,4,4,4)"/>
			<v:textRect cx="14.1442" cy="77.8267" width="28.29" height="14.459"/>
			<rect x="0" y="70.5972" width="28.2885" height="14.459" class="st3"/>
			<text x="10.94" y="80.83" class="st4" v:langID="1033"><v:paragraph v:horizAlign="2"/><v:tabList/>din</text>		</g>
		<g id="shape53-62" v:mID="53" v:groupContext="shape" transform="translate(141.163,-43.5691)">
			<title>Sheet.53</title>
			<desc>clkdiv</desc>
			<v:textBlock v:margins="rect(4,4,4,4)"/>
			<v:textRect cx="18" cy="77.8267" width="36" height="14.459"/>
			<rect x="0" y="70.5972" width="36" height="14.459" class="st3"/>
			<text x="6.99" y="80.83" class="st4" v:langID="1033"><v:paragraph v:horizAlign="2"/><v:tabList/>clkdiv</text>		</g>
		<g id="shape54-65" v:mID="54" v:groupContext="shape" transform="translate(201.24,-65.2577)">
			<title>Sheet.54</title>
			<path d="M0 85.06 L12.04 85.06 L12.04 70.6 L24.08 70.6 L24.08 85.06" class="st2"/>
		</g>
		<g id="shape55-68" v:mID="55" v:groupContext="shape" transform="translate(225.317,-65.2577)">
			<title>Sheet.55</title>
			<path d="M0 85.06 L12.04 85.06 L12.04 70.6 L24.08 70.6 L24.08 85.06" class="st2"/>
		</g>
		<g id="shape56-71" v:mID="56" v:groupContext="shape" transform="translate(249.394,-65.2577)">
			<title>Sheet.56</title>
			<path d="M0 85.06 L12.04 85.06 L12.04 70.6 L24.08 70.6 L24.08 85.06" class="st2"/>
		</g>
		<g id="shape57-74" v:mID="57" v:groupContext="shape" transform="translate(273.471,-65.2577)">
			<title>Sheet.57</title>
			<path d="M0 85.06 L12.04 85.06 L12.04 70.6 L24.08 70.6 L24.08 85.06" class="st2"/>
		</g>
		<g id="shape60-77" v:mID="60" v:groupContext="shape" transform="translate(297.548,-65.2577)">
			<title>Sheet.60</title>
			<path d="M0 85.06 L12.04 85.06 L12.04 70.6 L24.08 70.6 L24.08 85.06" class="st2"/>
		</g>
		<g id="shape63-80" v:mID="63" v:groupContext="shape" transform="translate(148.875,-65.2577)">
			<title>Sheet.63</title>
			<desc>clk</desc>
			<v:textBlock v:margins="rect(4,4,4,4)"/>
			<v:textRect cx="14.1442" cy="77.8267" width="28.29" height="14.459"/>
			<rect x="0" y="70.5972" width="28.2885" height="14.459" class="st3"/>
			<text x="12.07" y="80.83" class="st4" v:langID="1033"><v:paragraph v:horizAlign="2"/><v:tabList/>clk</text>		</g>
		<g id="shape65-83" v:mID="65" v:groupContext="shape" transform="translate(322.412,0.36) rotate(90)">
			<title>Sheet.65</title>
			<path d="M0 85.06 L66.73 85.06" class="st7"/>
		</g>
		<g id="shape66-86" v:mID="66" v:groupContext="shape" transform="translate(346.489,0.36) rotate(90)">
			<title>Sheet.66</title>
			<path d="M0 85.06 L66.73 85.06" class="st7"/>
		</g>
		<g id="shape67-89" v:mID="67" v:groupContext="shape" transform="translate(370.566,0.36) rotate(90)">
			<title>Sheet.67</title>
			<path d="M0 85.06 L66.73 85.06" class="st7"/>
		</g>
		<g id="shape68-92" v:mID="68" v:groupContext="shape" transform="translate(394.643,0.36) rotate(90)">
			<title>Sheet.68</title>
			<path d="M0 85.06 L66.73 85.06" class="st7"/>
		</g>
		<g id="shape69-95" v:mID="69" v:groupContext="shape" transform="translate(298.335,0.36) rotate(90)">
			<title>Sheet.69</title>
			<path d="M0 85.06 L66.73 85.06" class="st7"/>
		</g>
		<g id="shape70-98" v:mID="70" v:groupContext="shape" transform="translate(189,-40.9872)">
			<title>Sheet.70</title>
			<path d="M0 85.06 L24.09 85.06 L24.09 70.6 L48.19 70.6 L48.19 85.06" class="st2"/>
		</g>
		<g id="shape71-101" v:mID="71" v:groupContext="shape" transform="translate(237.281,-40.9872)">
			<title>Sheet.71</title>
			<path d="M0 85.06 L24.09 85.06 L24.09 70.6 L48.19 70.6 L48.19 85.06" class="st2"/>
		</g>
		<g id="shape72-104" v:mID="72" v:groupContext="shape" transform="translate(285.469,-40.9872)">
			<title>Sheet.72</title>
			<path d="M0 85.06 L24.09 85.06 L24.09 70.6 L48.19 70.6 L48.19 85.06" class="st2"/>
		</g>
		<g id="shape76-107" v:mID="76" v:groupContext="shape" transform="translate(321.673,-65.2577)">
			<title>Sheet.76</title>
			<path d="M0 85.06 L12.04 85.06 L12.04 70.6 L24.08 70.6 L24.08 85.06" class="st2"/>
		</g>
		<g id="shape77-110" v:mID="77" v:groupContext="shape" transform="translate(418.712,1.12608) rotate(90)">
			<title>Sheet.77</title>
			<path d="M0 85.06 L66.73 85.06" class="st7"/>
		</g>
		<g id="shape78-113" v:mID="78" v:groupContext="shape" transform="translate(192.187,135.082) scale(1,-1)">
			<title>Sheet.78</title>
			<path d="M0 85.06 L24.09 85.06 L24.09 70.6 L48.19 70.6 L48.19 85.06" class="st2"/>
		</g>
		<g id="shape79-116" v:mID="79" v:groupContext="shape" transform="translate(240.375,135.082) scale(1,-1)">
			<title>Sheet.79</title>
			<path d="M0 85.06 L24.09 85.06 L24.09 70.6 L48.19 70.6 L48.19 85.06" class="st2"/>
		</g>
		<g id="shape80-119" v:mID="80" v:groupContext="shape" transform="translate(288.562,135.082) scale(1,-1)">
			<title>Sheet.80</title>
			<path d="M0 85.06 L24.09 85.06 L24.09 70.6 L48.19 70.6 L48.19 85.06" class="st2"/>
		</g>
		<g id="shape81-122" v:mID="81" v:groupContext="shape" transform="translate(292.308,25.4809) rotate(82.1709)">
			<title>Sheet.81</title>
			<path d="M0 79.86 C0.24 79.13 0.79 78.67 1.36 78.25 C3.59 76.63 6.08 75.77 8.15 76.35 C10.59 77.03 12.44 79.69 14.17
						 82.14 C15.06 83.42 15.91 84.64 17.18 84.97 C18.22 85.25 19.54 84.93 20.64 84.25 L20.8 83.92" class="st8"/>
		</g>
		<g id="shape82-128" v:mID="82" v:groupContext="shape" transform="translate(190.899,-9.88368)">
			<title>Sheet.82</title>
			<desc>Inverter delay</desc>
			<v:textBlock v:margins="rect(4,4,4,4)"/>
			<v:textRect cx="14.1442" cy="81.8859" width="28.29" height="6.34046"/>
			<rect x="0" y="78.7157" width="28.2885" height="6.34046" class="st10"/>
			<text x="4.38" y="80.39" class="st11" v:langID="1033"><v:paragraph v:spLine="-1" v:horizAlign="1"/><v:tabList/>Inverter <tspan
						x="7.59" dy="1em" class="st12">delay</tspan></text>		</g>
		<g id="shape87-132" v:mID="87" v:groupContext="shape" transform="translate(152.302,65.0908) rotate(-90.4081)">
			<title>Sheet.87</title>
			<path d="M0 85.06 C0.65 84.43 1.3 84.09 1.98 83.78 C7.53 81.17 14.38 79.63 19.74 82.15 L20.03 82.37" class="st13"/>
		</g>
		<g id="shape88-138" v:mID="88" v:groupContext="shape" transform="translate(215.356,-6.35572)">
			<title>Sheet.88</title>
			<desc>Samples din on rising edge of clock</desc>
			<v:textBlock v:margins="rect(4,4,4,4)"/>
			<v:textRect cx="21.2692" cy="81.8859" width="42.54" height="6.34046"/>
			<rect x="0" y="78.7157" width="42.5385" height="6.34046" class="st10"/>
			<text x="6.61" y="77.39" class="st15" v:langID="1033"><v:paragraph v:spLine="-1" v:horizAlign="1"/><v:tabList/>Samples din <tspan
						x="4.2" dy="1em" class="st12">on rising edge </tspan><tspan x="11.92" dy="1em" class="st12">of clock</tspan></text>		</g>
		<g id="shape89-143" v:mID="89" v:groupContext="shape" transform="translate(274.431,0.36) rotate(90)">
			<title>Sheet.89</title>
			<path d="M0 85.06 L66.73 85.06" class="st7"/>
		</g>
		<g id="shape91-146" v:mID="91" v:groupContext="shape" transform="translate(189.375,114.666) rotate(180)">
			<title>Sheet.91</title>
			<path d="M0 85.06 L12.21 85.06" class="st6"/>
		</g>
		<g id="shape92-149" v:mID="92" v:groupContext="shape" transform="translate(274.431,29.61) rotate(90)">
			<title>Sheet.92</title>
			<path d="M0 85.06 L14.46 85.06" class="st6"/>
		</g>
		<g id="shape93-152" v:mID="93" v:groupContext="shape" transform="translate(277.244,50.026) rotate(90)">
			<title>Sheet.93</title>
			<path d="M0 85.06 L14.46 85.06" class="st6"/>
		</g>
		<g id="shape94-155" v:mID="94" v:groupContext="shape" transform="translate(192.187,149.541) rotate(180)">
			<title>Sheet.94</title>
			<path d="M0 85.06 L15.02 85.06" class="st6"/>
		</g>
		<g id="shape98-158" v:mID="98" v:groupContext="shape" transform="translate(333.656,-40.9872)">
			<title>Sheet.98</title>
			<path d="M0 85.06 L13.22 85.06" class="st6"/>
		</g>
		<g id="shape99-161" v:mID="99" v:groupContext="shape" transform="translate(336.75,-35.0302)">
			<title>Sheet.99</title>
			<path d="M0 85.06 L10.12 85.06" class="st6"/>
		</g>
		<g id="shape100-164" v:mID="100" v:groupContext="shape" transform="translate(-17.1812,84.6812) rotate(-90)">
			<title>Sheet.100</title>
			<path d="M0 85.06 L9 85.06" class="st6"/>
		</g>
	</g>
</svg>
