<?xml version="1.0" encoding="UTF-8" standalone="no"?>
<!DOCTYPE svg PUBLIC "-//W3C//DTD SVG 1.1//EN" "http://www.w3.org/Graphics/SVG/1.1/DTD/svg11.dtd">
<!-- Generated by Microsoft Visio, SVG Export bin2ssd.svg Page-1 -->
<svg xmlns="http://www.w3.org/2000/svg" xmlns:xlink="http://www.w3.org/1999/xlink" xmlns:ev="http://www.w3.org/2001/xml-events"
		xmlns:v="http://schemas.microsoft.com/visio/2003/SVGExtensions/" width="5.01in" height="2.41292in"
		viewBox="0 0 360.72 173.73" xml:space="preserve" color-interpolation-filters="sRGB" class="st12">
	<v:documentProperties v:langID="1033" v:viewMarkup="false"/>

	<style type="text/css">
	<![CDATA[
		.st1 {fill:#cedbee;stroke:none;stroke-linecap:round;stroke-linejoin:round;stroke-width:0.72}
		.st2 {stroke:#000000;stroke-linecap:round;stroke-linejoin:round;stroke-width:2.16553}
		.st3 {stroke:#000000;stroke-linecap:round;stroke-linejoin:round;stroke-width:0.746735}
		.st4 {stroke:none;stroke-linecap:round;stroke-linejoin:round;stroke-width:0.75}
		.st5 {fill:#000000;font-family:Arial;font-size:0.833336em}
		.st6 {stroke:#000000;stroke-linecap:round;stroke-linejoin:round;stroke-width:0.72}
		.st7 {fill:none;stroke:none;stroke-linecap:round;stroke-linejoin:round;stroke-width:0.72}
		.st8 {font-size:1em}
		.st9 {fill:#e9e9eb;stroke:#000000;stroke-dasharray:0,0.72;stroke-linecap:round;stroke-linejoin:round;stroke-width:0.24}
		.st10 {fill:#e2494e;stroke:#000000;stroke-dasharray:0,0.72;stroke-linecap:round;stroke-linejoin:round;stroke-width:0.24}
		.st11 {fill:#e9e9eb;stroke:#000000;stroke-dasharray:0,2.16;stroke-linecap:round;stroke-linejoin:round;stroke-width:0.72}
		.st12 {fill:none;fill-rule:evenodd;font-size:12px;overflow:visible;stroke-linecap:square;stroke-miterlimit:3}
	]]>
	</style>

	<g v:mID="0" v:index="1" v:groupContext="foregroundPage">
		<title>Page-1</title>
		<v:pageProperties v:drawingScale="1" v:pageScale="1" v:drawingUnits="19" v:shadowOffsetX="9" v:shadowOffsetY="-9"/>
		<g id="shape1-1" v:mID="1" v:groupContext="shape" transform="translate(306.36,-49.86)">
			<title>Sheet.1</title>
			<rect x="0" y="79.23" width="45" height="94.5" class="st1"/>
		</g>
		<g id="shape2-3" v:mID="2" v:groupContext="shape" transform="translate(265.86,-81.5241)">
			<title>Sheet.2</title>
			<path d="M0 126.64 L26.89 126.64 L26.89 173.73" class="st2"/>
		</g>
		<g id="shape3-6" v:mID="3" v:groupContext="shape" transform="translate(292.86,-121.881)">
			<title>Sheet.3</title>
			<path d="M4.48 173.73 L0 169.25" class="st3"/>
		</g>
		<g id="shape4-9" v:mID="4" v:groupContext="shape" transform="translate(292.86,-108.381)">
			<title>Sheet.4</title>
			<path d="M4.48 173.73 L0 169.25" class="st3"/>
		</g>
		<g id="shape5-12" v:mID="5" v:groupContext="shape" transform="translate(292.86,-94.86)">
			<title>Sheet.5</title>
			<path d="M4.48 173.73 L0 169.25" class="st3"/>
		</g>
		<g id="shape6-15" v:mID="6" v:groupContext="shape" transform="translate(292.86,-81.3805)">
			<title>Sheet.6</title>
			<path d="M4.48 173.73 L0 169.25" class="st3"/>
		</g>
		<g id="shape7-18" v:mID="7" v:groupContext="shape" transform="translate(329.985,-133.11)">
			<title>Sheet.7</title>
			<desc>A</desc>
			<v:textBlock v:margins="rect(0,0,0,0)"/>
			<v:textRect cx="9" cy="169.23" width="18" height="9"/>
			<path d="M18 164.73 L0 164.73 L0 173.73 L18 173.73 L18 164.73" class="st4"/>
			<text x="11.33" y="172.23" class="st5" v:langID="1033"><v:paragraph v:horizAlign="2"/><v:tabList/>A</text>		</g>
		<g id="shape8-22" v:mID="8" v:groupContext="shape" transform="translate(360.36,209.85) rotate(180)">
			<title>Sheet.8</title>
			<path d="M0 173.73 L9 173.73" class="st6"/>
		</g>
		<g id="shape9-25" v:mID="9" v:groupContext="shape" transform="translate(360.36,223.35) rotate(180)">
			<title>Sheet.9</title>
			<path d="M0 173.73 L9 173.73" class="st6"/>
		</g>
		<g id="shape10-28" v:mID="10" v:groupContext="shape" transform="translate(360.36,236.85) rotate(180)">
			<title>Sheet.10</title>
			<path d="M0 173.73 L9 173.73" class="st6"/>
		</g>
		<g id="shape11-31" v:mID="11" v:groupContext="shape" transform="translate(360.36,250.35) rotate(180)">
			<title>Sheet.11</title>
			<path d="M0 173.73 L9 173.73" class="st6"/>
		</g>
		<g id="shape12-34" v:mID="12" v:groupContext="shape" transform="translate(360.36,263.85) rotate(180)">
			<title>Sheet.12</title>
			<path d="M0 173.73 L9 173.73" class="st6"/>
		</g>
		<g id="shape13-37" v:mID="13" v:groupContext="shape" transform="translate(360.36,277.35) rotate(180)">
			<title>Sheet.13</title>
			<path d="M0 173.73 L9 173.73" class="st6"/>
		</g>
		<g id="shape14-40" v:mID="14" v:groupContext="shape" transform="translate(360.36,290.85) rotate(180)">
			<title>Sheet.14</title>
			<path d="M0 173.73 L9 173.73" class="st6"/>
		</g>
		<g id="shape15-43" v:mID="15" v:groupContext="shape" transform="translate(329.985,-119.61)">
			<title>Sheet.15</title>
			<desc>B</desc>
			<v:textBlock v:margins="rect(0,0,0,0)"/>
			<v:textRect cx="9" cy="169.23" width="18" height="9"/>
			<path d="M18 164.73 L0 164.73 L0 173.73 L18 173.73 L18 164.73" class="st4"/>
			<text x="11.33" y="172.23" class="st5" v:langID="1033"><v:paragraph v:horizAlign="2"/><v:tabList/>B</text>		</g>
		<g id="shape16-47" v:mID="16" v:groupContext="shape" transform="translate(329.985,-106.11)">
			<title>Sheet.16</title>
			<desc>C</desc>
			<v:textBlock v:margins="rect(0,0,0,0)"/>
			<v:textRect cx="9" cy="169.23" width="18" height="9"/>
			<path d="M18 164.73 L0 164.73 L0 173.73 L18 173.73 L18 164.73" class="st4"/>
			<text x="10.78" y="172.23" class="st5" v:langID="1033"><v:paragraph v:horizAlign="2"/><v:tabList/>C</text>		</g>
		<g id="shape17-51" v:mID="17" v:groupContext="shape" transform="translate(329.985,-92.61)">
			<title>Sheet.17</title>
			<desc>D</desc>
			<v:textBlock v:margins="rect(0,0,0,0)"/>
			<v:textRect cx="9" cy="169.23" width="18" height="9"/>
			<path d="M18 164.73 L0 164.73 L0 173.73 L18 173.73 L18 164.73" class="st4"/>
			<text x="10.78" y="172.23" class="st5" v:langID="1033"><v:paragraph v:horizAlign="2"/><v:tabList/>D</text>		</g>
		<g id="shape18-55" v:mID="18" v:groupContext="shape" transform="translate(329.985,-79.11)">
			<title>Sheet.18</title>
			<desc>E</desc>
			<v:textBlock v:margins="rect(0,0,0,0)"/>
			<v:textRect cx="9" cy="169.23" width="18" height="9"/>
			<path d="M18 164.73 L0 164.73 L0 173.73 L18 173.73 L18 164.73" class="st4"/>
			<text x="11.33" y="172.23" class="st5" v:langID="1033"><v:paragraph v:horizAlign="2"/><v:tabList/>E</text>		</g>
		<g id="shape19-59" v:mID="19" v:groupContext="shape" transform="translate(329.985,-65.61)">
			<title>Sheet.19</title>
			<desc>F</desc>
			<v:textBlock v:margins="rect(0,0,0,0)"/>
			<v:textRect cx="9" cy="169.23" width="18" height="9"/>
			<path d="M18 164.73 L0 164.73 L0 173.73 L18 173.73 L18 164.73" class="st4"/>
			<text x="11.89" y="172.23" class="st5" v:langID="1033"><v:paragraph v:horizAlign="2"/><v:tabList/>F</text>		</g>
		<g id="shape20-63" v:mID="20" v:groupContext="shape" transform="translate(329.985,-52.11)">
			<title>Sheet.20</title>
			<desc>G</desc>
			<v:textBlock v:margins="rect(0,0,0,0)"/>
			<v:textRect cx="9" cy="169.23" width="18" height="9"/>
			<path d="M18 164.73 L0 164.73 L0 173.73 L18 173.73 L18 164.73" class="st4"/>
			<text x="10.22" y="172.23" class="st5" v:langID="1033"><v:paragraph v:horizAlign="2"/><v:tabList/>G</text>		</g>
		<g id="shape21-67" v:mID="21" v:groupContext="shape" transform="translate(308.61,-117.36)">
			<title>Sheet.21</title>
			<desc>B3</desc>
			<v:textBlock v:margins="rect(0,0,0,0)"/>
			<v:textRect cx="9" cy="169.23" width="18" height="9"/>
			<path d="M18 164.73 L0 164.73 L0 173.73 L18 173.73 L18 164.73" class="st4"/>
			<text x="0" y="172.23" class="st5" v:langID="1033"><v:paragraph/><v:tabList/>B3</text>		</g>
		<g id="shape22-71" v:mID="22" v:groupContext="shape" transform="translate(306.36,266.1) rotate(180)">
			<title>Sheet.22</title>
			<path d="M0 173.73 L13.5 173.73" class="st6"/>
		</g>
		<g id="shape23-74" v:mID="23" v:groupContext="shape" transform="translate(306.36,252.761) rotate(180)">
			<title>Sheet.23</title>
			<path d="M0 173.73 L13.5 173.73" class="st6"/>
		</g>
		<g id="shape24-77" v:mID="24" v:groupContext="shape" transform="translate(306.36,238.939) rotate(180)">
			<title>Sheet.24</title>
			<path d="M0 173.73 L13.5 173.73" class="st6"/>
		</g>
		<g id="shape25-80" v:mID="25" v:groupContext="shape" transform="translate(306.36,225.6) rotate(180)">
			<title>Sheet.25</title>
			<path d="M0 173.73 L13.5 173.73" class="st6"/>
		</g>
		<g id="shape26-83" v:mID="26" v:groupContext="shape" transform="translate(308.61,-103.86)">
			<title>Sheet.26</title>
			<desc>B2</desc>
			<v:textBlock v:margins="rect(0,0,0,0)"/>
			<v:textRect cx="9" cy="169.23" width="18" height="9"/>
			<path d="M18 164.73 L0 164.73 L0 173.73 L18 173.73 L18 164.73" class="st4"/>
			<text x="0" y="172.23" class="st5" v:langID="1033"><v:paragraph/><v:tabList/>B2</text>		</g>
		<g id="shape27-87" v:mID="27" v:groupContext="shape" transform="translate(308.61,-90.36)">
			<title>Sheet.27</title>
			<desc>B1</desc>
			<v:textBlock v:margins="rect(0,0,0,0)"/>
			<v:textRect cx="9" cy="169.23" width="18" height="9"/>
			<path d="M18 164.73 L0 164.73 L0 173.73 L18 173.73 L18 164.73" class="st4"/>
			<text x="0" y="172.23" class="st5" v:langID="1033"><v:paragraph/><v:tabList/>B1</text>		</g>
		<g id="shape28-91" v:mID="28" v:groupContext="shape" transform="translate(308.61,-76.86)">
			<title>Sheet.28</title>
			<desc>B0</desc>
			<v:textBlock v:margins="rect(0,0,0,0)"/>
			<v:textRect cx="9" cy="169.23" width="18" height="9"/>
			<path d="M18 164.73 L0 164.73 L0 173.73 L18 173.73 L18 164.73" class="st4"/>
			<text x="0" y="172.23" class="st5" v:langID="1033"><v:paragraph/><v:tabList/>B0</text>		</g>
		<g id="shape29-95" v:mID="29" v:groupContext="shape" transform="translate(265.86,-130.86)">
			<title>Sheet.29</title>
			<desc>B(3:0)</desc>
			<v:textBlock v:margins="rect(0,0,0,0)"/>
			<v:textRect cx="15.75" cy="169.23" width="31.5" height="9"/>
			<path d="M31.5 164.73 L0 164.73 L0 173.73 L31.5 173.73 L31.5 164.73" class="st4"/>
			<text x="0" y="172.23" class="st5" v:langID="1033"><v:paragraph/><v:tabList/>B(3:0)</text>		</g>
		<g id="shape30-99" v:mID="30" v:groupContext="shape" transform="translate(0.36,-0.36)">
			<title>Sheet.30</title>
			<desc>An un-illuminated seven-segment display, and nine illuminatio...</desc>
			<v:textBlock v:margins="rect(4,4,4,4)"/>
			<v:textRect cx="121.5" cy="153.48" width="243" height="40.5"/>
			<path d="M0 172.08 L226.89 173.73 L243 133.23 L0 133.23 L0 172.08 Z" class="st7"/>
			<text x="4" y="150.48" class="st5" v:langID="1033"><v:paragraph/><v:tabList/>An un-illuminated seven-segment display, and nine <tspan
						x="4" dy="1.2em" class="st8">illumination patterns corresponding to decimal digits</tspan></text>		</g>
		<g id="group31-103" transform="translate(13.86,-44.3843)" v:mID="31" v:groupContext="group">
			<title>Sheet.31</title>
			<g id="shape32-104" v:mID="32" v:groupContext="shape" transform="translate(105.914,-126.12)">
				<title>Sheet.32</title>
				<path d="M15.59 170.62 L15.13 173.73 L0 173.73 L0.46 170.62 L15.59 170.62 Z" class="st9"/>
			</g>
			<g id="shape33-106" v:mID="33" v:groupContext="shape" transform="translate(-68.9558,60.8116) rotate(-90)">
				<title>Sheet.33</title>
				<path d="M16.31 170.45 L16.31 173.73 L0 172.09 L0 168.81 L16.31 170.45 Z" class="st9"/>
			</g>
			<g id="shape34-108" v:mID="34" v:groupContext="shape" transform="translate(-70.7798,79.4486) rotate(-90)">
				<title>Sheet.34</title>
				<path d="M16.31 170.45 L16.31 173.73 L0 172.09 L0 168.81 L16.31 170.45 Z" class="st9"/>
			</g>
			<g id="shape35-110" v:mID="35" v:groupContext="shape" transform="translate(104.273,-110.201)">
				<title>Sheet.35</title>
				<path d="M15.59 170.62 L15.13 173.73 L0 173.73 L0.46 170.62 L15.59 170.62 Z" class="st9"/>
			</g>
			<g id="shape36-112" v:mID="36" v:groupContext="shape" transform="translate(102.631,-94.2814)">
				<title>Sheet.36</title>
				<path d="M15.59 170.62 L15.13 173.73 L0 173.73 L0.46 170.62 L15.59 170.62 Z" class="st9"/>
			</g>
			<g id="shape37-114" v:mID="37" v:groupContext="shape" transform="translate(-47.1138,60.8116) rotate(-90)">
				<title>Sheet.37</title>
				<path d="M16.31 170.45 L16.31 173.73 L0 172.09 L0 168.81 L16.31 170.45 Z" class="st10"/>
			</g>
			<g id="shape38-116" v:mID="38" v:groupContext="shape" transform="translate(-48.9377,79.4486) rotate(-90)">
				<title>Sheet.38</title>
				<path d="M16.31 170.45 L16.31 173.73 L0 172.09 L0 168.81 L16.31 170.45 Z" class="st10"/>
			</g>
			<g id="shape39-118" v:mID="39" v:groupContext="shape" transform="translate(149.481,-124.985)">
				<title>Sheet.39</title>
				<path d="M15.59 170.62 L15.13 173.73 L0 173.73 L0.46 170.62 L15.59 170.62 Z" class="st10"/>
			</g>
			<g id="shape40-120" v:mID="40" v:groupContext="shape" transform="translate(-25.3889,61.9462) rotate(-90)">
				<title>Sheet.40</title>
				<path d="M16.31 170.45 L16.31 173.73 L0 172.09 L0 168.81 L16.31 170.45 Z" class="st9"/>
			</g>
			<g id="shape41-122" v:mID="41" v:groupContext="shape" transform="translate(-27.2129,80.5831) rotate(-90)">
				<title>Sheet.41</title>
				<path d="M16.31 170.45 L16.31 173.73 L0 172.09 L0 168.81 L16.31 170.45 Z" class="st10"/>
			</g>
			<g id="shape42-124" v:mID="42" v:groupContext="shape" transform="translate(147.839,-109.066)">
				<title>Sheet.42</title>
				<path d="M15.59 170.62 L15.13 173.73 L0 173.73 L0.46 170.62 L15.59 170.62 Z" class="st10"/>
			</g>
			<g id="shape43-126" v:mID="43" v:groupContext="shape" transform="translate(146.198,-93.1469)">
				<title>Sheet.43</title>
				<path d="M15.59 170.62 L15.13 173.73 L0 173.73 L0.46 170.62 L15.59 170.62 Z" class="st10"/>
			</g>
			<g id="shape44-128" v:mID="44" v:groupContext="shape" transform="translate(-3.54688,61.9462) rotate(-90)">
				<title>Sheet.44</title>
				<path d="M16.31 170.45 L16.31 173.73 L0 172.09 L0 168.81 L16.31 170.45 Z" class="st10"/>
			</g>
			<g id="shape45-130" v:mID="45" v:groupContext="shape" transform="translate(-5.37085,80.5831) rotate(-90)">
				<title>Sheet.45</title>
				<path d="M16.31 170.45 L16.31 173.73 L0 172.09 L0 168.81 L16.31 170.45 Z" class="st9"/>
			</g>
			<g id="shape46-132" v:mID="46" v:groupContext="shape" transform="translate(193.048,-124.985)">
				<title>Sheet.46</title>
				<path d="M15.59 170.62 L15.13 173.73 L0 173.73 L0.46 170.62 L15.59 170.62 Z" class="st10"/>
			</g>
			<g id="shape47-134" v:mID="47" v:groupContext="shape" transform="translate(18.1779,61.9462) rotate(-90)">
				<title>Sheet.47</title>
				<path d="M16.31 170.45 L16.31 173.73 L0 172.09 L0 168.81 L16.31 170.45 Z" class="st9"/>
			</g>
			<g id="shape48-136" v:mID="48" v:groupContext="shape" transform="translate(16.354,80.5831) rotate(-90)">
				<title>Sheet.48</title>
				<path d="M16.31 170.45 L16.31 173.73 L0 172.09 L0 168.81 L16.31 170.45 Z" class="st9"/>
			</g>
			<g id="shape49-138" v:mID="49" v:groupContext="shape" transform="translate(191.406,-109.066)">
				<title>Sheet.49</title>
				<path d="M15.59 170.62 L15.13 173.73 L0 173.73 L0.46 170.62 L15.59 170.62 Z" class="st10"/>
			</g>
			<g id="shape50-140" v:mID="50" v:groupContext="shape" transform="translate(189.765,-93.1469)">
				<title>Sheet.50</title>
				<path d="M15.59 170.62 L15.13 173.73 L0 173.73 L0.46 170.62 L15.59 170.62 Z" class="st10"/>
			</g>
			<g id="shape51-142" v:mID="51" v:groupContext="shape" transform="translate(40.02,61.9462) rotate(-90)">
				<title>Sheet.51</title>
				<path d="M16.31 170.45 L16.31 173.73 L0 172.09 L0 168.81 L16.31 170.45 Z" class="st10"/>
			</g>
			<g id="shape52-144" v:mID="52" v:groupContext="shape" transform="translate(38.196,80.5831) rotate(-90)">
				<title>Sheet.52</title>
				<path d="M16.31 170.45 L16.31 173.73 L0 172.09 L0 168.81 L16.31 170.45 Z" class="st10"/>
			</g>
			<g id="shape53-146" v:mID="53" v:groupContext="shape" transform="translate(105.914,-76.5395)">
				<title>Sheet.53</title>
				<path d="M15.59 170.62 L15.13 173.73 L0 173.73 L0.46 170.62 L15.59 170.62 Z" class="st9"/>
			</g>
			<g id="shape54-148" v:mID="54" v:groupContext="shape" transform="translate(-68.9558,110.392) rotate(-90)">
				<title>Sheet.54</title>
				<path d="M16.31 170.45 L16.31 173.73 L0 172.09 L0 168.81 L16.31 170.45 Z" class="st10"/>
			</g>
			<g id="shape55-150" v:mID="55" v:groupContext="shape" transform="translate(-70.7798,129.029) rotate(-90)">
				<title>Sheet.55</title>
				<path d="M16.31 170.45 L16.31 173.73 L0 172.09 L0 168.81 L16.31 170.45 Z" class="st9"/>
			</g>
			<g id="shape56-152" v:mID="56" v:groupContext="shape" transform="translate(104.273,-60.6205)">
				<title>Sheet.56</title>
				<path d="M15.59 170.62 L15.13 173.73 L0 173.73 L0.46 170.62 L15.59 170.62 Z" class="st10"/>
			</g>
			<g id="shape57-154" v:mID="57" v:groupContext="shape" transform="translate(102.631,-44.7014)">
				<title>Sheet.57</title>
				<path d="M15.59 170.62 L15.13 173.73 L0 173.73 L0.46 170.62 L15.59 170.62 Z" class="st9"/>
			</g>
			<g id="shape58-156" v:mID="58" v:groupContext="shape" transform="translate(-47.1138,110.392) rotate(-90)">
				<title>Sheet.58</title>
				<path d="M16.31 170.45 L16.31 173.73 L0 172.09 L0 168.81 L16.31 170.45 Z" class="st10"/>
			</g>
			<g id="shape59-158" v:mID="59" v:groupContext="shape" transform="translate(-48.9377,129.029) rotate(-90)">
				<title>Sheet.59</title>
				<path d="M16.31 170.45 L16.31 173.73 L0 172.09 L0 168.81 L16.31 170.45 Z" class="st10"/>
			</g>
			<g id="shape60-160" v:mID="60" v:groupContext="shape" transform="translate(149.481,-75.405)">
				<title>Sheet.60</title>
				<path d="M15.59 170.62 L15.13 173.73 L0 173.73 L0.46 170.62 L15.59 170.62 Z" class="st10"/>
			</g>
			<g id="shape61-162" v:mID="61" v:groupContext="shape" transform="translate(-25.3889,111.526) rotate(-90)">
				<title>Sheet.61</title>
				<path d="M16.31 170.45 L16.31 173.73 L0 172.09 L0 168.81 L16.31 170.45 Z" class="st10"/>
			</g>
			<g id="shape62-164" v:mID="62" v:groupContext="shape" transform="translate(-27.2129,130.163) rotate(-90)">
				<title>Sheet.62</title>
				<path d="M16.31 170.45 L16.31 173.73 L0 172.09 L0 168.81 L16.31 170.45 Z" class="st9"/>
			</g>
			<g id="shape63-166" v:mID="63" v:groupContext="shape" transform="translate(147.839,-59.4859)">
				<title>Sheet.63</title>
				<path d="M15.59 170.62 L15.13 173.73 L0 173.73 L0.46 170.62 L15.59 170.62 Z" class="st10"/>
			</g>
			<g id="shape64-168" v:mID="64" v:groupContext="shape" transform="translate(146.198,-43.5669)">
				<title>Sheet.64</title>
				<path d="M15.59 170.62 L15.13 173.73 L0 173.73 L0.46 170.62 L15.59 170.62 Z" class="st10"/>
			</g>
			<g id="shape65-170" v:mID="65" v:groupContext="shape" transform="translate(-3.54688,111.526) rotate(-90)">
				<title>Sheet.65</title>
				<path d="M16.31 170.45 L16.31 173.73 L0 172.09 L0 168.81 L16.31 170.45 Z" class="st9"/>
			</g>
			<g id="shape66-172" v:mID="66" v:groupContext="shape" transform="translate(-5.37085,130.163) rotate(-90)">
				<title>Sheet.66</title>
				<path d="M16.31 170.45 L16.31 173.73 L0 172.09 L0 168.81 L16.31 170.45 Z" class="st10"/>
			</g>
			<g id="shape67-174" v:mID="67" v:groupContext="shape" transform="translate(193.048,-75.405)">
				<title>Sheet.67</title>
				<path d="M15.59 170.62 L15.13 173.73 L0 173.73 L0.46 170.62 L15.59 170.62 Z" class="st10"/>
			</g>
			<g id="shape68-176" v:mID="68" v:groupContext="shape" transform="translate(18.1779,111.526) rotate(-90)">
				<title>Sheet.68</title>
				<path d="M16.31 170.45 L16.31 173.73 L0 172.09 L0 168.81 L16.31 170.45 Z" class="st10"/>
			</g>
			<g id="shape69-178" v:mID="69" v:groupContext="shape" transform="translate(16.354,130.163) rotate(-90)">
				<title>Sheet.69</title>
				<path d="M16.31 170.45 L16.31 173.73 L0 172.09 L0 168.81 L16.31 170.45 Z" class="st10"/>
			</g>
			<g id="shape70-180" v:mID="70" v:groupContext="shape" transform="translate(191.406,-59.4859)">
				<title>Sheet.70</title>
				<path d="M15.59 170.62 L15.13 173.73 L0 173.73 L0.46 170.62 L15.59 170.62 Z" class="st10"/>
			</g>
			<g id="shape71-182" v:mID="71" v:groupContext="shape" transform="translate(189.765,-43.5669)">
				<title>Sheet.71</title>
				<path d="M15.59 170.62 L15.13 173.73 L0 173.73 L0.46 170.62 L15.59 170.62 Z" class="st10"/>
			</g>
			<g id="shape72-184" v:mID="72" v:groupContext="shape" transform="translate(40.02,111.526) rotate(-90)">
				<title>Sheet.72</title>
				<path d="M16.31 170.45 L16.31 173.73 L0 172.09 L0 168.81 L16.31 170.45 Z" class="st9"/>
			</g>
			<g id="shape73-186" v:mID="73" v:groupContext="shape" transform="translate(38.196,130.163) rotate(-90)">
				<title>Sheet.73</title>
				<path d="M16.31 170.45 L16.31 173.73 L0 172.09 L0 168.81 L16.31 170.45 Z" class="st10"/>
			</g>
			<g id="shape74-188" v:mID="74" v:groupContext="shape" transform="translate(105.914,-32.9727)">
				<title>Sheet.74</title>
				<path d="M15.59 170.62 L15.13 173.73 L0 173.73 L0.46 170.62 L15.59 170.62 Z" class="st10"/>
			</g>
			<g id="shape75-190" v:mID="75" v:groupContext="shape" transform="translate(-68.9558,153.959) rotate(-90)">
				<title>Sheet.75</title>
				<path d="M16.31 170.45 L16.31 173.73 L0 172.09 L0 168.81 L16.31 170.45 Z" class="st9"/>
			</g>
			<g id="shape76-192" v:mID="76" v:groupContext="shape" transform="translate(-70.7798,172.595) rotate(-90)">
				<title>Sheet.76</title>
				<path d="M16.31 170.45 L16.31 173.73 L0 172.09 L0 168.81 L16.31 170.45 Z" class="st9"/>
			</g>
			<g id="shape77-194" v:mID="77" v:groupContext="shape" transform="translate(104.273,-17.0536)">
				<title>Sheet.77</title>
				<path d="M15.59 170.62 L15.13 173.73 L0 173.73 L0.46 170.62 L15.59 170.62 Z" class="st9"/>
			</g>
			<g id="shape78-196" v:mID="78" v:groupContext="shape" transform="translate(102.631,-1.13455)">
				<title>Sheet.78</title>
				<path d="M15.59 170.62 L15.13 173.73 L0 173.73 L0.46 170.62 L15.59 170.62 Z" class="st9"/>
			</g>
			<g id="shape79-198" v:mID="79" v:groupContext="shape" transform="translate(-47.1138,153.959) rotate(-90)">
				<title>Sheet.79</title>
				<path d="M16.31 170.45 L16.31 173.73 L0 172.09 L0 168.81 L16.31 170.45 Z" class="st10"/>
			</g>
			<g id="shape80-200" v:mID="80" v:groupContext="shape" transform="translate(-48.9377,172.595) rotate(-90)">
				<title>Sheet.80</title>
				<path d="M16.31 170.45 L16.31 173.73 L0 172.09 L0 168.81 L16.31 170.45 Z" class="st10"/>
			</g>
			<g id="shape81-202" v:mID="81" v:groupContext="shape" transform="translate(149.481,-31.8381)">
				<title>Sheet.81</title>
				<path d="M15.59 170.62 L15.13 173.73 L0 173.73 L0.46 170.62 L15.59 170.62 Z" class="st10"/>
			</g>
			<g id="shape82-204" v:mID="82" v:groupContext="shape" transform="translate(-25.3889,155.093) rotate(-90)">
				<title>Sheet.82</title>
				<path d="M16.31 170.45 L16.31 173.73 L0 172.09 L0 168.81 L16.31 170.45 Z" class="st10"/>
			</g>
			<g id="shape83-206" v:mID="83" v:groupContext="shape" transform="translate(-27.2129,173.73) rotate(-90)">
				<title>Sheet.83</title>
				<path d="M16.31 170.45 L16.31 173.73 L0 172.09 L0 168.81 L16.31 170.45 Z" class="st10"/>
			</g>
			<g id="shape84-208" v:mID="84" v:groupContext="shape" transform="translate(147.839,-15.9191)">
				<title>Sheet.84</title>
				<path d="M15.59 170.62 L15.13 173.73 L0 173.73 L0.46 170.62 L15.59 170.62 Z" class="st10"/>
			</g>
			<g id="shape85-210" v:mID="85" v:groupContext="shape" transform="translate(146.198,-2.84217E-014)">
				<title>Sheet.85</title>
				<path d="M15.59 170.62 L15.13 173.73 L0 173.73 L0.46 170.62 L15.59 170.62 Z" class="st10"/>
			</g>
			<g id="shape86-212" v:mID="86" v:groupContext="shape" transform="translate(-3.54688,155.093) rotate(-90)">
				<title>Sheet.86</title>
				<path d="M16.31 170.45 L16.31 173.73 L0 172.09 L0 168.81 L16.31 170.45 Z" class="st10"/>
			</g>
			<g id="shape87-214" v:mID="87" v:groupContext="shape" transform="translate(-5.37085,173.73) rotate(-90)">
				<title>Sheet.87</title>
				<path d="M16.31 170.45 L16.31 173.73 L0 172.09 L0 168.81 L16.31 170.45 Z" class="st10"/>
			</g>
			<g id="shape88-216" v:mID="88" v:groupContext="shape" transform="translate(193.048,-31.8381)">
				<title>Sheet.88</title>
				<path d="M15.59 170.62 L15.13 173.73 L0 173.73 L0.46 170.62 L15.59 170.62 Z" class="st10"/>
			</g>
			<g id="shape89-218" v:mID="89" v:groupContext="shape" transform="translate(18.1779,155.093) rotate(-90)">
				<title>Sheet.89</title>
				<path d="M16.31 170.45 L16.31 173.73 L0 172.09 L0 168.81 L16.31 170.45 Z" class="st10"/>
			</g>
			<g id="shape90-220" v:mID="90" v:groupContext="shape" transform="translate(16.354,173.73) rotate(-90)">
				<title>Sheet.90</title>
				<path d="M16.31 170.45 L16.31 173.73 L0 172.09 L0 168.81 L16.31 170.45 Z" class="st9"/>
			</g>
			<g id="shape91-222" v:mID="91" v:groupContext="shape" transform="translate(191.406,-15.9191)">
				<title>Sheet.91</title>
				<path d="M15.59 170.62 L15.13 173.73 L0 173.73 L0.46 170.62 L15.59 170.62 Z" class="st10"/>
			</g>
			<g id="shape92-224" v:mID="92" v:groupContext="shape" transform="translate(189.765,-2.84217E-014)">
				<title>Sheet.92</title>
				<path d="M15.59 170.62 L15.13 173.73 L0 173.73 L0.46 170.62 L15.59 170.62 Z" class="st10"/>
			</g>
			<g id="shape93-226" v:mID="93" v:groupContext="shape" transform="translate(40.02,155.093) rotate(-90)">
				<title>Sheet.93</title>
				<path d="M16.31 170.45 L16.31 173.73 L0 172.09 L0 168.81 L16.31 170.45 Z" class="st10"/>
			</g>
			<g id="shape94-228" v:mID="94" v:groupContext="shape" transform="translate(38.196,173.73) rotate(-90)">
				<title>Sheet.94</title>
				<path d="M16.31 170.45 L16.31 173.73 L0 172.09 L0 168.81 L16.31 170.45 Z" class="st10"/>
			</g>
			<g id="shape95-230" v:mID="95" v:groupContext="shape" transform="translate(18.9704,-98.044)">
				<title>Sheet.95</title>
				<path d="M37.5 166.26 L36.39 173.73 L0 173.73 L1.12 166.26 L37.5 166.26 Z" class="st11"/>
			</g>
			<g id="shape96-232" v:mID="96" v:groupContext="shape" transform="translate(-157.501,107.432) rotate(-90)">
				<title>Sheet.96</title>
				<path d="M39.22 165.83 L39.22 173.73 L0 169.78 L0 161.89 L39.22 165.83 Z" class="st11"/>
			</g>
			<g id="shape97-234" v:mID="97" v:groupContext="shape" transform="translate(-161.887,152.249) rotate(-90)">
				<title>Sheet.97</title>
				<path d="M39.22 165.83 L39.22 173.73 L0 169.78 L0 161.89 L39.22 165.83 Z" class="st11"/>
			</g>
			<g id="shape98-236" v:mID="98" v:groupContext="shape" transform="translate(15.0228,-59.7624)">
				<title>Sheet.98</title>
				<path d="M37.5 166.26 L36.39 173.73 L0 173.73 L1.12 166.26 L37.5 166.26 Z" class="st11"/>
			</g>
			<g id="shape99-238" v:mID="99" v:groupContext="shape" transform="translate(11.0752,-21.4809)">
				<title>Sheet.99</title>
				<path d="M37.5 166.26 L36.39 173.73 L0 173.73 L1.12 166.26 L37.5 166.26 Z" class="st11"/>
			</g>
			<g id="shape100-240" v:mID="100" v:groupContext="shape" transform="translate(-104.976,107.432) rotate(-90)">
				<title>Sheet.100</title>
				<path d="M39.22 165.83 L39.22 173.73 L0 169.78 L0 161.89 L39.22 165.83 Z" class="st11"/>
			</g>
			<g id="shape101-242" v:mID="101" v:groupContext="shape" transform="translate(-109.362,152.249) rotate(-90)">
				<title>Sheet.101</title>
				<path d="M39.22 165.83 L39.22 173.73 L0 169.78 L0 161.89 L39.22 165.83 Z" class="st11"/>
			</g>
		</g>
		<g id="shape102-244" v:mID="102" v:groupContext="shape" transform="translate(45.36,-151.11)">
			<title>Sheet.102</title>
			<desc>A</desc>
			<v:textBlock v:margins="rect(4,4,4,4)"/>
			<v:textRect cx="6.75" cy="166.98" width="13.5" height="13.5"/>
			<path d="M0 173.18 L12.61 173.73 L13.5 160.23 L0 160.23 L0 173.18 Z" class="st7"/>
			<text x="4" y="169.98" class="st5" v:langID="1033"><v:paragraph/><v:tabList/>A</text>		</g>
		<g id="shape103-247" v:mID="103" v:groupContext="shape" transform="translate(81.36,-119.61)">
			<title>Sheet.103</title>
			<desc>B</desc>
			<v:textBlock v:margins="rect(4,4,4,4)"/>
			<v:textRect cx="6.75" cy="166.98" width="13.5" height="13.5"/>
			<path d="M0 173.18 L12.61 173.73 L13.5 160.23 L0 160.23 L0 173.18 Z" class="st7"/>
			<text x="4" y="169.98" class="st5" v:langID="1033"><v:paragraph/><v:tabList/>B</text>		</g>
		<g id="shape104-250" v:mID="104" v:groupContext="shape" transform="translate(76.86,-79.11)">
			<title>Sheet.104</title>
			<desc>C</desc>
			<v:textBlock v:margins="rect(4,4,4,4)"/>
			<v:textRect cx="6.75" cy="166.98" width="13.5" height="13.5"/>
			<path d="M0 173.18 L12.61 173.73 L13.5 160.23 L0 160.23 L0 173.18 Z" class="st7"/>
			<text x="4" y="169.98" class="st5" v:langID="1033"><v:paragraph/><v:tabList/>C</text>		</g>
		<g id="shape105-253" v:mID="105" v:groupContext="shape" transform="translate(36.36,-52.11)">
			<title>Sheet.105</title>
			<desc>D</desc>
			<v:textBlock v:margins="rect(4,4,4,4)"/>
			<v:textRect cx="6.75" cy="166.98" width="13.5" height="13.5"/>
			<path d="M0 173.18 L12.61 173.73 L13.5 160.23 L0 160.23 L0 173.18 Z" class="st7"/>
			<text x="4" y="169.98" class="st5" v:langID="1033"><v:paragraph/><v:tabList/>D</text>		</g>
		<g id="shape106-256" v:mID="106" v:groupContext="shape" transform="translate(0.36,-79.11)">
			<title>Sheet.106</title>
			<desc>E</desc>
			<v:textBlock v:margins="rect(4,4,4,4)"/>
			<v:textRect cx="6.75" cy="166.98" width="13.5" height="13.5"/>
			<path d="M0 173.18 L12.61 173.73 L13.5 160.23 L0 160.23 L0 173.18 Z" class="st7"/>
			<text x="4" y="169.98" class="st5" v:langID="1033"><v:paragraph/><v:tabList/>E</text>		</g>
		<g id="shape107-259" v:mID="107" v:groupContext="shape" transform="translate(4.86,-119.61)">
			<title>Sheet.107</title>
			<desc>F</desc>
			<v:textBlock v:margins="rect(4,4,4,4)"/>
			<v:textRect cx="6.75" cy="166.98" width="13.5" height="13.5"/>
			<path d="M0 173.18 L12.61 173.73 L13.5 160.23 L0 160.23 L0 173.18 Z" class="st7"/>
			<text x="4" y="169.98" class="st5" v:langID="1033"><v:paragraph/><v:tabList/>F</text>		</g>
		<g id="shape108-262" v:mID="108" v:groupContext="shape" transform="translate(40.86,-110.61)">
			<title>Sheet.108</title>
			<desc>G</desc>
			<v:textBlock v:margins="rect(4,4,4,4)"/>
			<v:textRect cx="6.75" cy="166.98" width="13.5" height="13.5"/>
			<path d="M0 173.18 L12.61 173.73 L13.5 160.23 L0 160.23 L0 173.18 Z" class="st7"/>
			<text x="4" y="169.98" class="st5" v:langID="1033"><v:paragraph/><v:tabList/>G</text>		</g>
	</g>
</svg>
