<?xml version="1.0" encoding="UTF-8" standalone="no"?>
<!DOCTYPE svg PUBLIC "-//W3C//DTD SVG 1.1//EN" "http://www.w3.org/Graphics/SVG/1.1/DTD/svg11.dtd">
<!-- Generated by Microsoft Visio, SVG Export AdderAsSubtractor.svg Page-1 -->
<svg xmlns="http://www.w3.org/2000/svg" xmlns:xlink="http://www.w3.org/1999/xlink" xmlns:ev="http://www.w3.org/2001/xml-events"
		xmlns:v="http://schemas.microsoft.com/visio/2003/SVGExtensions/" width="5.87667in" height="1.88646in"
		viewBox="0 0 423.12 135.825" xml:space="preserve" color-interpolation-filters="sRGB" class="st12">
	<v:documentProperties v:langID="1033" v:viewMarkup="false"/>

	<style type="text/css">
	<![CDATA[
		.st1 {fill:#fddeb0;stroke:none;stroke-linecap:round;stroke-linejoin:round;stroke-width:0.24}
		.st2 {stroke:none;stroke-linecap:round;stroke-linejoin:round;stroke-width:0.75}
		.st3 {fill:#000000;font-family:Arial;font-size:0.75em}
		.st4 {stroke:#000000;stroke-linecap:round;stroke-linejoin:round;stroke-width:0.72}
		.st5 {stroke:#000000;stroke-linecap:round;stroke-linejoin:round;stroke-width:2.16}
		.st6 {stroke:#000000;stroke-linecap:round;stroke-linejoin:round;stroke-width:1.2}
		.st7 {fill:#000000;font-family:Arial;font-size:0.916672em}
		.st8 {marker-end:url(#mrkr4-431);stroke:#000000;stroke-linecap:round;stroke-linejoin:round;stroke-width:1.2}
		.st9 {fill:#000000;fill-opacity:1;stroke:#000000;stroke-opacity:1;stroke-width:0.32258064516129}
		.st10 {marker-end:url(#mrkr4-441);stroke:#000000;stroke-linecap:round;stroke-linejoin:round;stroke-width:0.72}
		.st11 {fill:#000000;fill-opacity:1;stroke:#000000;stroke-opacity:1;stroke-width:0.22222222222222}
		.st12 {fill:none;fill-rule:evenodd;font-size:12px;overflow:visible;stroke-linecap:square;stroke-miterlimit:3}
	]]>
	</style>

	<defs id="Markers">
		<g id="lend4">
			<path d="M 2 1 L 0 0 L 2 -1 L 2 1 " style="stroke:none"/>
		</g>
		<marker id="mrkr4-431" class="st9" v:arrowType="4" v:arrowSize="2" v:setback="6.2" refX="-6.2" orient="auto"
				markerUnits="strokeWidth" overflow="visible">
			<use xlink:href="#lend4" transform="scale(-3.1,-3.1) "/>
		</marker>
		<marker id="mrkr4-441" class="st11" v:arrowType="4" v:arrowSize="2" v:setback="9" refX="-9" orient="auto"
				markerUnits="strokeWidth" overflow="visible">
			<use xlink:href="#lend4" transform="scale(-4.5,-4.5) "/>
		</marker>
	</defs>
	<g v:mID="0" v:index="1" v:groupContext="foregroundPage">
		<title>Page-1</title>
		<v:pageProperties v:drawingScale="1" v:pageScale="1" v:drawingUnits="19" v:shadowOffsetX="9" v:shadowOffsetY="-9"/>
		<g id="shape1-1" v:mID="1" v:groupContext="shape" transform="translate(0.12,-29.1)">
			<title>Rectangle</title>
			<v:userDefs>
				<v:ud v:nameU="visVersion" v:val="VT0(11):26"/>
			</v:userDefs>
			<rect x="0" y="90.8251" width="387" height="45" class="st1"/>
		</g>
		<g id="shape2-3" v:mID="2" v:groupContext="shape" transform="translate(9.12,-62.85)">
			<title>Sheet.2</title>
			<desc>B(7)</desc>
			<v:textBlock v:margins="rect(0,0,0,0)"/>
			<v:textRect cx="9" cy="133.575" width="18" height="4.5"/>
			<path d="M18 131.33 L0 131.33 L0 135.83 L18 135.83 L18 131.33" class="st2"/>
			<text x="0" y="136.27" class="st3" v:langID="1033"><v:paragraph/><v:tabList/>B(7)</text>		</g>
		<g id="shape3-7" v:mID="3" v:groupContext="shape" transform="translate(31.62,-62.85)">
			<title>Sheet.3</title>
			<desc>B(6)</desc>
			<v:textBlock v:margins="rect(0,0,0,0)"/>
			<v:textRect cx="9" cy="133.575" width="18" height="4.5"/>
			<path d="M18 131.33 L0 131.33 L0 135.83 L18 135.83 L18 131.33" class="st2"/>
			<text x="0" y="136.27" class="st3" v:langID="1033"><v:paragraph/><v:tabList/>B(6)</text>		</g>
		<g id="shape4-11" v:mID="4" v:groupContext="shape" transform="translate(54.12,-62.85)">
			<title>Sheet.4</title>
			<desc>B(5)</desc>
			<v:textBlock v:margins="rect(0,0,0,0)"/>
			<v:textRect cx="9" cy="133.575" width="18" height="4.5"/>
			<path d="M18 131.33 L0 131.33 L0 135.83 L18 135.83 L18 131.33" class="st2"/>
			<text x="0" y="136.27" class="st3" v:langID="1033"><v:paragraph/><v:tabList/>B(5)</text>		</g>
		<g id="shape5-15" v:mID="5" v:groupContext="shape" transform="translate(76.62,-62.85)">
			<title>Sheet.5</title>
			<desc>B(4)</desc>
			<v:textBlock v:margins="rect(0,0,0,0)"/>
			<v:textRect cx="9" cy="133.575" width="18" height="4.5"/>
			<path d="M18 131.33 L0 131.33 L0 135.83 L18 135.83 L18 131.33" class="st2"/>
			<text x="0" y="136.27" class="st3" v:langID="1033"><v:paragraph/><v:tabList/>B(4)</text>		</g>
		<g id="shape6-19" v:mID="6" v:groupContext="shape" transform="translate(99.12,-62.85)">
			<title>Sheet.6</title>
			<desc>B(3)</desc>
			<v:textBlock v:margins="rect(0,0,0,0)"/>
			<v:textRect cx="9" cy="133.575" width="18" height="4.5"/>
			<path d="M18 131.33 L0 131.33 L0 135.83 L18 135.83 L18 131.33" class="st2"/>
			<text x="0" y="136.27" class="st3" v:langID="1033"><v:paragraph/><v:tabList/>B(3)</text>		</g>
		<g id="shape7-23" v:mID="7" v:groupContext="shape" transform="translate(121.62,-62.85)">
			<title>Sheet.7</title>
			<desc>B(2)</desc>
			<v:textBlock v:margins="rect(0,0,0,0)"/>
			<v:textRect cx="9" cy="133.575" width="18" height="4.5"/>
			<path d="M18 131.33 L0 131.33 L0 135.83 L18 135.83 L18 131.33" class="st2"/>
			<text x="0" y="136.27" class="st3" v:langID="1033"><v:paragraph/><v:tabList/>B(2)</text>		</g>
		<g id="shape8-27" v:mID="8" v:groupContext="shape" transform="translate(144.12,-62.85)">
			<title>Sheet.8</title>
			<desc>B(1)</desc>
			<v:textBlock v:margins="rect(0,0,0,0)"/>
			<v:textRect cx="9" cy="133.575" width="18" height="4.5"/>
			<path d="M18 131.33 L0 131.33 L0 135.83 L18 135.83 L18 131.33" class="st2"/>
			<text x="0" y="136.27" class="st3" v:langID="1033"><v:paragraph/><v:tabList/>B(1)</text>		</g>
		<g id="shape9-31" v:mID="9" v:groupContext="shape" transform="translate(166.62,-62.85)">
			<title>Sheet.9</title>
			<desc>B(0)</desc>
			<v:textBlock v:margins="rect(0,0,0,0)"/>
			<v:textRect cx="9" cy="133.575" width="18" height="4.5"/>
			<path d="M18 131.33 L0 131.33 L0 135.83 L18 135.83 L18 131.33" class="st2"/>
			<text x="0" y="136.27" class="st3" v:langID="1033"><v:paragraph/><v:tabList/>B(0)</text>		</g>
		<g id="shape10-35" v:mID="10" v:groupContext="shape" transform="translate(204.87,-62.85)">
			<title>Sheet.10</title>
			<desc>A(7)</desc>
			<v:textBlock v:margins="rect(0,0,0,0)"/>
			<v:textRect cx="9" cy="133.575" width="18" height="4.5"/>
			<path d="M18 131.33 L0 131.33 L0 135.83 L18 135.83 L18 131.33" class="st2"/>
			<text x="0" y="136.27" class="st3" v:langID="1033"><v:paragraph/><v:tabList/>A(7)</text>		</g>
		<g id="shape11-39" v:mID="11" v:groupContext="shape" transform="translate(227.37,-62.85)">
			<title>Sheet.11</title>
			<desc>A(6)</desc>
			<v:textBlock v:margins="rect(0,0,0,0)"/>
			<v:textRect cx="9" cy="133.575" width="18" height="4.5"/>
			<path d="M18 131.33 L0 131.33 L0 135.83 L18 135.83 L18 131.33" class="st2"/>
			<text x="0" y="136.27" class="st3" v:langID="1033"><v:paragraph/><v:tabList/>A(6)</text>		</g>
		<g id="shape12-43" v:mID="12" v:groupContext="shape" transform="translate(249.87,-62.85)">
			<title>Sheet.12</title>
			<desc>A(5)</desc>
			<v:textBlock v:margins="rect(0,0,0,0)"/>
			<v:textRect cx="9" cy="133.575" width="18" height="4.5"/>
			<path d="M18 131.33 L0 131.33 L0 135.83 L18 135.83 L18 131.33" class="st2"/>
			<text x="0" y="136.27" class="st3" v:langID="1033"><v:paragraph/><v:tabList/>A(5)</text>		</g>
		<g id="shape13-47" v:mID="13" v:groupContext="shape" transform="translate(272.37,-62.85)">
			<title>Sheet.13</title>
			<desc>A(4)</desc>
			<v:textBlock v:margins="rect(0,0,0,0)"/>
			<v:textRect cx="9" cy="133.575" width="18" height="4.5"/>
			<path d="M18 131.33 L0 131.33 L0 135.83 L18 135.83 L18 131.33" class="st2"/>
			<text x="0" y="136.27" class="st3" v:langID="1033"><v:paragraph/><v:tabList/>A(4)</text>		</g>
		<g id="shape14-51" v:mID="14" v:groupContext="shape" transform="translate(294.87,-62.85)">
			<title>Sheet.14</title>
			<desc>A(3)</desc>
			<v:textBlock v:margins="rect(0,0,0,0)"/>
			<v:textRect cx="9" cy="133.575" width="18" height="4.5"/>
			<path d="M18 131.33 L0 131.33 L0 135.83 L18 135.83 L18 131.33" class="st2"/>
			<text x="0" y="136.27" class="st3" v:langID="1033"><v:paragraph/><v:tabList/>A(3)</text>		</g>
		<g id="shape15-55" v:mID="15" v:groupContext="shape" transform="translate(317.37,-62.85)">
			<title>Sheet.15</title>
			<desc>A(2)</desc>
			<v:textBlock v:margins="rect(0,0,0,0)"/>
			<v:textRect cx="9" cy="133.575" width="18" height="4.5"/>
			<path d="M18 131.33 L0 131.33 L0 135.83 L18 135.83 L18 131.33" class="st2"/>
			<text x="0" y="136.27" class="st3" v:langID="1033"><v:paragraph/><v:tabList/>A(2)</text>		</g>
		<g id="shape16-59" v:mID="16" v:groupContext="shape" transform="translate(339.87,-62.85)">
			<title>Sheet.16</title>
			<desc>A(1)</desc>
			<v:textBlock v:margins="rect(0,0,0,0)"/>
			<v:textRect cx="9" cy="133.575" width="18" height="4.5"/>
			<path d="M18 131.33 L0 131.33 L0 135.83 L18 135.83 L18 131.33" class="st2"/>
			<text x="0" y="136.27" class="st3" v:langID="1033"><v:paragraph/><v:tabList/>A(1)</text>		</g>
		<g id="shape17-63" v:mID="17" v:groupContext="shape" transform="translate(362.37,-62.85)">
			<title>Sheet.17</title>
			<desc>A(0)</desc>
			<v:textBlock v:margins="rect(0,0,0,0)"/>
			<v:textRect cx="9" cy="133.575" width="18" height="4.5"/>
			<path d="M18 131.33 L0 131.33 L0 135.83 L18 135.83 L18 131.33" class="st2"/>
			<text x="0" y="136.27" class="st3" v:langID="1033"><v:paragraph/><v:tabList/>A(0)</text>		</g>
		<g id="shape18-67" v:mID="18" v:groupContext="shape" transform="translate(369.12,-48.225)">
			<title>Sheet.18</title>
			<desc>Cin</desc>
			<v:textBlock v:margins="rect(0,0,0,0)"/>
			<v:textRect cx="9" cy="133.575" width="18" height="4.5"/>
			<path d="M18 131.33 L0 131.33 L0 135.83 L18 135.83 L18 131.33" class="st2"/>
			<text x="0" y="136.27" class="st3" v:langID="1033"><v:paragraph/><v:tabList/>Cin</text>		</g>
		<g id="group19-71" transform="translate(475.695,30.225) rotate(90)" v:mID="19" v:groupContext="group">
			<title>Sheet.19</title>
			<g id="group20-72" transform="translate(6.75,0)" v:mID="20" v:groupContext="group">
				<title>Sheet.20</title>
				<g id="shape21-73" v:mID="21" v:groupContext="shape" transform="translate(0,-6.75)">
					<title>Sheet.21</title>
					<path d="M2.06 135.83 L2.06 134.38 L1.8 132.69 L1.54 131.49 L0.82 130.17 L0 129.08 L7.2 129.08 L9.25 129.32 L10.8
								 129.8 L12.34 130.52 L13 131.07 L13.82 131.78 L14.91 133.41 L16.45 135.83" class="st4"/>
				</g>
				<g id="shape22-76" v:mID="22" v:groupContext="shape" transform="translate(0,264.9) scale(1,-1)">
					<title>Sheet.22</title>
					<path d="M2.06 135.83 L2.06 134.38 L1.8 132.69 L1.54 131.49 L0.82 130.17 L0 129.08 L7.2 129.08 L9.25 129.32 L10.8
								 129.8 L12.34 130.52 L13 131.07 L13.82 131.78 L14.91 133.41 L16.45 135.83" class="st4"/>
				</g>
			</g>
			<g id="shape23-79" v:mID="23" v:groupContext="shape" transform="translate(3.375,0)">
				<title>Sheet.23</title>
				<path d="M0 122.33 A8.74972 3.828 90 0 1 3.37 129.08 A6.75 3.375 90 0 1 -0 135.83" class="st4"/>
			</g>
			<g id="shape24-82" v:mID="24" v:groupContext="shape" transform="translate(-0.00208923,-10.125) rotate(-0.000881311)">
				<title>Sheet.24</title>
				<path d="M0 135.83 L6.05 135.83" class="st4"/>
			</g>
			<g id="shape25-85" v:mID="25" v:groupContext="shape" transform="translate(6.35134,268.273) rotate(179.978)">
				<title>Sheet.25</title>
				<path d="M0 135.83 L6.3 135.83" class="st4"/>
			</g>
			<g id="shape26-88" v:mID="26" v:groupContext="shape" transform="translate(23.2031,-6.75)">
				<title>Sheet.26</title>
				<path d="M0 135.83 L3.8 135.83" class="st4"/>
			</g>
		</g>
		<g id="shape27-91" v:mID="27" v:groupContext="shape" transform="translate(233.295,61.725) rotate(-90)">
			<title>Sheet.27</title>
			<path d="M0 135.83 L4.5 135.83" class="st4"/>
		</g>
		<g id="shape28-94" v:mID="28" v:groupContext="shape" transform="translate(210.795,61.725) rotate(-90)">
			<title>Sheet.28</title>
			<path d="M0 135.83 L4.5 135.83" class="st4"/>
		</g>
		<g id="shape29-97" v:mID="29" v:groupContext="shape" transform="translate(188.295,61.725) rotate(-90)">
			<title>Sheet.29</title>
			<path d="M0 135.83 L4.5 135.83" class="st4"/>
		</g>
		<g id="shape30-100" v:mID="30" v:groupContext="shape" transform="translate(165.795,61.725) rotate(-90)">
			<title>Sheet.30</title>
			<path d="M0 135.83 L4.5 135.83" class="st4"/>
		</g>
		<g id="shape31-103" v:mID="31" v:groupContext="shape" transform="translate(143.295,61.725) rotate(-90)">
			<title>Sheet.31</title>
			<path d="M0 135.83 L4.5 135.83" class="st4"/>
		</g>
		<g id="shape32-106" v:mID="32" v:groupContext="shape" transform="translate(120.795,61.725) rotate(-90)">
			<title>Sheet.32</title>
			<path d="M0 135.83 L4.5 135.83" class="st4"/>
		</g>
		<g id="shape33-109" v:mID="33" v:groupContext="shape" transform="translate(98.2949,61.725) rotate(-90)">
			<title>Sheet.33</title>
			<path d="M0 135.83 L4.5 135.83" class="st4"/>
		</g>
		<g id="shape34-112" v:mID="34" v:groupContext="shape" transform="translate(75.7949,61.725) rotate(-90)">
			<title>Sheet.34</title>
			<path d="M0 135.83 L4.5 135.83" class="st4"/>
		</g>
		<g id="shape35-115" v:mID="35" v:groupContext="shape" transform="translate(79.1699,30.225) rotate(-90)">
			<title>Sheet.35</title>
			<path d="M0 135.83 L4.5 135.83" class="st4"/>
		</g>
		<g id="group36-118" transform="translate(498.195,30.225) rotate(90)" v:mID="36" v:groupContext="group">
			<title>Sheet.36</title>
			<g id="group37-119" transform="translate(6.75,0)" v:mID="37" v:groupContext="group">
				<title>Sheet.37</title>
				<g id="shape38-120" v:mID="38" v:groupContext="shape" transform="translate(0,-6.75)">
					<title>Sheet.38</title>
					<path d="M2.06 135.83 L2.06 134.38 L1.8 132.69 L1.54 131.49 L0.82 130.17 L0 129.08 L7.2 129.08 L9.25 129.32 L10.8
								 129.8 L12.34 130.52 L13 131.07 L13.82 131.78 L14.91 133.41 L16.45 135.83" class="st4"/>
				</g>
				<g id="shape39-123" v:mID="39" v:groupContext="shape" transform="translate(0,264.9) scale(1,-1)">
					<title>Sheet.39</title>
					<path d="M2.06 135.83 L2.06 134.38 L1.8 132.69 L1.54 131.49 L0.82 130.17 L0 129.08 L7.2 129.08 L9.25 129.32 L10.8
								 129.8 L12.34 130.52 L13 131.07 L13.82 131.78 L14.91 133.41 L16.45 135.83" class="st4"/>
				</g>
			</g>
			<g id="shape40-126" v:mID="40" v:groupContext="shape" transform="translate(3.375,0)">
				<title>Sheet.40</title>
				<path d="M0 122.33 A8.74972 3.828 90 0 1 3.37 129.08 A6.75 3.375 90 0 1 -0 135.83" class="st4"/>
			</g>
			<g id="shape41-129" v:mID="41" v:groupContext="shape" transform="translate(-0.00208923,-10.125) rotate(-0.000881311)">
				<title>Sheet.41</title>
				<path d="M0 135.83 L6.05 135.83" class="st4"/>
			</g>
			<g id="shape42-132" v:mID="42" v:groupContext="shape" transform="translate(6.35134,268.273) rotate(179.978)">
				<title>Sheet.42</title>
				<path d="M0 135.83 L6.3 135.83" class="st4"/>
			</g>
			<g id="shape43-135" v:mID="43" v:groupContext="shape" transform="translate(23.2031,-6.75)">
				<title>Sheet.43</title>
				<path d="M0 135.83 L3.8 135.83" class="st4"/>
			</g>
		</g>
		<g id="group44-138" transform="translate(430.695,30.225) rotate(90)" v:mID="44" v:groupContext="group">
			<title>Sheet.44</title>
			<g id="group45-139" transform="translate(6.75,0)" v:mID="45" v:groupContext="group">
				<title>Sheet.45</title>
				<g id="shape46-140" v:mID="46" v:groupContext="shape" transform="translate(0,-6.75)">
					<title>Sheet.46</title>
					<path d="M2.06 135.83 L2.06 134.38 L1.8 132.69 L1.54 131.49 L0.82 130.17 L0 129.08 L7.2 129.08 L9.25 129.32 L10.8
								 129.8 L12.34 130.52 L13 131.07 L13.82 131.78 L14.91 133.41 L16.45 135.83" class="st4"/>
				</g>
				<g id="shape47-143" v:mID="47" v:groupContext="shape" transform="translate(0,264.9) scale(1,-1)">
					<title>Sheet.47</title>
					<path d="M2.06 135.83 L2.06 134.38 L1.8 132.69 L1.54 131.49 L0.82 130.17 L0 129.08 L7.2 129.08 L9.25 129.32 L10.8
								 129.8 L12.34 130.52 L13 131.07 L13.82 131.78 L14.91 133.41 L16.45 135.83" class="st4"/>
				</g>
			</g>
			<g id="shape48-146" v:mID="48" v:groupContext="shape" transform="translate(3.375,0)">
				<title>Sheet.48</title>
				<path d="M0 122.33 A8.74972 3.828 90 0 1 3.37 129.08 A6.75 3.375 90 0 1 -0 135.83" class="st4"/>
			</g>
			<g id="shape49-149" v:mID="49" v:groupContext="shape" transform="translate(-0.00208923,-10.125) rotate(-0.000881311)">
				<title>Sheet.49</title>
				<path d="M0 135.83 L6.05 135.83" class="st4"/>
			</g>
			<g id="shape50-152" v:mID="50" v:groupContext="shape" transform="translate(6.35134,268.273) rotate(179.978)">
				<title>Sheet.50</title>
				<path d="M0 135.83 L6.3 135.83" class="st4"/>
			</g>
			<g id="shape51-155" v:mID="51" v:groupContext="shape" transform="translate(23.2031,-6.75)">
				<title>Sheet.51</title>
				<path d="M0 135.83 L3.8 135.83" class="st4"/>
			</g>
		</g>
		<g id="group52-158" transform="translate(453.195,30.225) rotate(90)" v:mID="52" v:groupContext="group">
			<title>Sheet.52</title>
			<g id="group53-159" transform="translate(6.75,0)" v:mID="53" v:groupContext="group">
				<title>Sheet.53</title>
				<g id="shape54-160" v:mID="54" v:groupContext="shape" transform="translate(0,-6.75)">
					<title>Sheet.54</title>
					<path d="M2.06 135.83 L2.06 134.38 L1.8 132.69 L1.54 131.49 L0.82 130.17 L0 129.08 L7.2 129.08 L9.25 129.32 L10.8
								 129.8 L12.34 130.52 L13 131.07 L13.82 131.78 L14.91 133.41 L16.45 135.83" class="st4"/>
				</g>
				<g id="shape55-163" v:mID="55" v:groupContext="shape" transform="translate(0,264.9) scale(1,-1)">
					<title>Sheet.55</title>
					<path d="M2.06 135.83 L2.06 134.38 L1.8 132.69 L1.54 131.49 L0.82 130.17 L0 129.08 L7.2 129.08 L9.25 129.32 L10.8
								 129.8 L12.34 130.52 L13 131.07 L13.82 131.78 L14.91 133.41 L16.45 135.83" class="st4"/>
				</g>
			</g>
			<g id="shape56-166" v:mID="56" v:groupContext="shape" transform="translate(3.375,0)">
				<title>Sheet.56</title>
				<path d="M0 122.33 A8.74972 3.828 90 0 1 3.37 129.08 A6.75 3.375 90 0 1 -0 135.83" class="st4"/>
			</g>
			<g id="shape57-169" v:mID="57" v:groupContext="shape" transform="translate(-0.00208923,-10.125) rotate(-0.000881311)">
				<title>Sheet.57</title>
				<path d="M0 135.83 L6.05 135.83" class="st4"/>
			</g>
			<g id="shape58-172" v:mID="58" v:groupContext="shape" transform="translate(6.35134,268.273) rotate(179.978)">
				<title>Sheet.58</title>
				<path d="M0 135.83 L6.3 135.83" class="st4"/>
			</g>
			<g id="shape59-175" v:mID="59" v:groupContext="shape" transform="translate(23.2031,-6.75)">
				<title>Sheet.59</title>
				<path d="M0 135.83 L3.8 135.83" class="st4"/>
			</g>
		</g>
		<g id="group60-178" transform="translate(385.695,30.225) rotate(90)" v:mID="60" v:groupContext="group">
			<title>Sheet.60</title>
			<g id="group61-179" transform="translate(6.75,0)" v:mID="61" v:groupContext="group">
				<title>Sheet.61</title>
				<g id="shape62-180" v:mID="62" v:groupContext="shape" transform="translate(0,-6.75)">
					<title>Sheet.62</title>
					<path d="M2.06 135.83 L2.06 134.38 L1.8 132.69 L1.54 131.49 L0.82 130.17 L0 129.08 L7.2 129.08 L9.25 129.32 L10.8
								 129.8 L12.34 130.52 L13 131.07 L13.82 131.78 L14.91 133.41 L16.45 135.83" class="st4"/>
				</g>
				<g id="shape63-183" v:mID="63" v:groupContext="shape" transform="translate(0,264.9) scale(1,-1)">
					<title>Sheet.63</title>
					<path d="M2.06 135.83 L2.06 134.38 L1.8 132.69 L1.54 131.49 L0.82 130.17 L0 129.08 L7.2 129.08 L9.25 129.32 L10.8
								 129.8 L12.34 130.52 L13 131.07 L13.82 131.78 L14.91 133.41 L16.45 135.83" class="st4"/>
				</g>
			</g>
			<g id="shape64-186" v:mID="64" v:groupContext="shape" transform="translate(3.375,0)">
				<title>Sheet.64</title>
				<path d="M0 122.33 A8.74972 3.828 90 0 1 3.37 129.08 A6.75 3.375 90 0 1 -0 135.83" class="st4"/>
			</g>
			<g id="shape65-189" v:mID="65" v:groupContext="shape" transform="translate(-0.00208923,-10.125) rotate(-0.000881311)">
				<title>Sheet.65</title>
				<path d="M0 135.83 L6.05 135.83" class="st4"/>
			</g>
			<g id="shape66-192" v:mID="66" v:groupContext="shape" transform="translate(6.35134,268.273) rotate(179.978)">
				<title>Sheet.66</title>
				<path d="M0 135.83 L6.3 135.83" class="st4"/>
			</g>
			<g id="shape67-195" v:mID="67" v:groupContext="shape" transform="translate(23.2031,-6.75)">
				<title>Sheet.67</title>
				<path d="M0 135.83 L3.8 135.83" class="st4"/>
			</g>
		</g>
		<g id="group68-198" transform="translate(408.195,30.225) rotate(90)" v:mID="68" v:groupContext="group">
			<title>Sheet.68</title>
			<g id="group69-199" transform="translate(6.75,0)" v:mID="69" v:groupContext="group">
				<title>Sheet.69</title>
				<g id="shape70-200" v:mID="70" v:groupContext="shape" transform="translate(0,-6.75)">
					<title>Sheet.70</title>
					<path d="M2.06 135.83 L2.06 134.38 L1.8 132.69 L1.54 131.49 L0.82 130.17 L0 129.08 L7.2 129.08 L9.25 129.32 L10.8
								 129.8 L12.34 130.52 L13 131.07 L13.82 131.78 L14.91 133.41 L16.45 135.83" class="st4"/>
				</g>
				<g id="shape71-203" v:mID="71" v:groupContext="shape" transform="translate(0,264.9) scale(1,-1)">
					<title>Sheet.71</title>
					<path d="M2.06 135.83 L2.06 134.38 L1.8 132.69 L1.54 131.49 L0.82 130.17 L0 129.08 L7.2 129.08 L9.25 129.32 L10.8
								 129.8 L12.34 130.52 L13 131.07 L13.82 131.78 L14.91 133.41 L16.45 135.83" class="st4"/>
				</g>
			</g>
			<g id="shape72-206" v:mID="72" v:groupContext="shape" transform="translate(3.375,0)">
				<title>Sheet.72</title>
				<path d="M0 122.33 A8.74972 3.828 90 0 1 3.37 129.08 A6.75 3.375 90 0 1 -0 135.83" class="st4"/>
			</g>
			<g id="shape73-209" v:mID="73" v:groupContext="shape" transform="translate(-0.00208923,-10.125) rotate(-0.000881311)">
				<title>Sheet.73</title>
				<path d="M0 135.83 L6.05 135.83" class="st4"/>
			</g>
			<g id="shape74-212" v:mID="74" v:groupContext="shape" transform="translate(6.35134,268.273) rotate(179.978)">
				<title>Sheet.74</title>
				<path d="M0 135.83 L6.3 135.83" class="st4"/>
			</g>
			<g id="shape75-215" v:mID="75" v:groupContext="shape" transform="translate(23.2031,-6.75)">
				<title>Sheet.75</title>
				<path d="M0 135.83 L3.8 135.83" class="st4"/>
			</g>
		</g>
		<g id="group76-218" transform="translate(340.695,30.225) rotate(90)" v:mID="76" v:groupContext="group">
			<title>Sheet.76</title>
			<g id="group77-219" transform="translate(6.75,0)" v:mID="77" v:groupContext="group">
				<title>Sheet.77</title>
				<g id="shape78-220" v:mID="78" v:groupContext="shape" transform="translate(0,-6.75)">
					<title>Sheet.78</title>
					<path d="M2.06 135.83 L2.06 134.38 L1.8 132.69 L1.54 131.49 L0.82 130.17 L0 129.08 L7.2 129.08 L9.25 129.32 L10.8
								 129.8 L12.34 130.52 L13 131.07 L13.82 131.78 L14.91 133.41 L16.45 135.83" class="st4"/>
				</g>
				<g id="shape79-223" v:mID="79" v:groupContext="shape" transform="translate(0,264.9) scale(1,-1)">
					<title>Sheet.79</title>
					<path d="M2.06 135.83 L2.06 134.38 L1.8 132.69 L1.54 131.49 L0.82 130.17 L0 129.08 L7.2 129.08 L9.25 129.32 L10.8
								 129.8 L12.34 130.52 L13 131.07 L13.82 131.78 L14.91 133.41 L16.45 135.83" class="st4"/>
				</g>
			</g>
			<g id="shape80-226" v:mID="80" v:groupContext="shape" transform="translate(3.375,0)">
				<title>Sheet.80</title>
				<path d="M0 122.33 A8.74972 3.828 90 0 1 3.37 129.08 A6.75 3.375 90 0 1 -0 135.83" class="st4"/>
			</g>
			<g id="shape81-229" v:mID="81" v:groupContext="shape" transform="translate(-0.00208923,-10.125) rotate(-0.000881311)">
				<title>Sheet.81</title>
				<path d="M0 135.83 L6.05 135.83" class="st4"/>
			</g>
			<g id="shape82-232" v:mID="82" v:groupContext="shape" transform="translate(6.35134,268.273) rotate(179.978)">
				<title>Sheet.82</title>
				<path d="M0 135.83 L6.3 135.83" class="st4"/>
			</g>
			<g id="shape83-235" v:mID="83" v:groupContext="shape" transform="translate(23.2031,-6.75)">
				<title>Sheet.83</title>
				<path d="M0 135.83 L3.8 135.83" class="st4"/>
			</g>
		</g>
		<g id="group84-238" transform="translate(363.195,30.225) rotate(90)" v:mID="84" v:groupContext="group">
			<title>Sheet.84</title>
			<g id="group85-239" transform="translate(6.75,0)" v:mID="85" v:groupContext="group">
				<title>Sheet.85</title>
				<g id="shape86-240" v:mID="86" v:groupContext="shape" transform="translate(0,-6.75)">
					<title>Sheet.86</title>
					<path d="M2.06 135.83 L2.06 134.38 L1.8 132.69 L1.54 131.49 L0.82 130.17 L0 129.08 L7.2 129.08 L9.25 129.32 L10.8
								 129.8 L12.34 130.52 L13 131.07 L13.82 131.78 L14.91 133.41 L16.45 135.83" class="st4"/>
				</g>
				<g id="shape87-243" v:mID="87" v:groupContext="shape" transform="translate(0,264.9) scale(1,-1)">
					<title>Sheet.87</title>
					<path d="M2.06 135.83 L2.06 134.38 L1.8 132.69 L1.54 131.49 L0.82 130.17 L0 129.08 L7.2 129.08 L9.25 129.32 L10.8
								 129.8 L12.34 130.52 L13 131.07 L13.82 131.78 L14.91 133.41 L16.45 135.83" class="st4"/>
				</g>
			</g>
			<g id="shape88-246" v:mID="88" v:groupContext="shape" transform="translate(3.375,0)">
				<title>Sheet.88</title>
				<path d="M0 122.33 A8.74972 3.828 90 0 1 3.37 129.08 A6.75 3.375 90 0 1 -0 135.83" class="st4"/>
			</g>
			<g id="shape89-249" v:mID="89" v:groupContext="shape" transform="translate(-0.00208923,-10.125) rotate(-0.000881311)">
				<title>Sheet.89</title>
				<path d="M0 135.83 L6.05 135.83" class="st4"/>
			</g>
			<g id="shape90-252" v:mID="90" v:groupContext="shape" transform="translate(6.35134,268.273) rotate(179.978)">
				<title>Sheet.90</title>
				<path d="M0 135.83 L6.3 135.83" class="st4"/>
			</g>
			<g id="shape91-255" v:mID="91" v:groupContext="shape" transform="translate(23.2031,-6.75)">
				<title>Sheet.91</title>
				<path d="M0 135.83 L3.8 135.83" class="st4"/>
			</g>
		</g>
		<g id="shape92-258" v:mID="92" v:groupContext="shape" transform="translate(214.995,-110.1)">
			<title>Sheet.92</title>
			<path d="M0 135.83 L198 135.83" class="st4"/>
		</g>
		<g id="shape93-261" v:mID="93" v:groupContext="shape" transform="translate(101.67,30.225) rotate(-90)">
			<title>Sheet.93</title>
			<path d="M0 135.83 L4.5 135.83" class="st4"/>
		</g>
		<g id="shape94-264" v:mID="94" v:groupContext="shape" transform="translate(237.214,-110.1)">
			<title>Sheet.94</title>
			<path d="M0 135.83 L0.56 135.83" class="st5"/>
		</g>
		<g id="shape95-267" v:mID="95" v:groupContext="shape" transform="translate(124.17,30.225) rotate(-90)">
			<title>Sheet.95</title>
			<path d="M0 135.83 L4.5 135.83" class="st4"/>
		</g>
		<g id="shape96-270" v:mID="96" v:groupContext="shape" transform="translate(259.714,-110.1)">
			<title>Sheet.96</title>
			<path d="M0 135.83 L0.56 135.83" class="st5"/>
		</g>
		<g id="shape97-273" v:mID="97" v:groupContext="shape" transform="translate(146.67,30.225) rotate(-90)">
			<title>Sheet.97</title>
			<path d="M0 135.83 L4.5 135.83" class="st4"/>
		</g>
		<g id="shape98-276" v:mID="98" v:groupContext="shape" transform="translate(282.214,-110.1)">
			<title>Sheet.98</title>
			<path d="M0 135.83 L0.56 135.83" class="st5"/>
		</g>
		<g id="shape99-279" v:mID="99" v:groupContext="shape" transform="translate(169.17,30.225) rotate(-90)">
			<title>Sheet.99</title>
			<path d="M0 135.83 L4.5 135.83" class="st4"/>
		</g>
		<g id="shape100-282" v:mID="100" v:groupContext="shape" transform="translate(304.714,-110.1)">
			<title>Sheet.100</title>
			<path d="M0 135.83 L0.56 135.83" class="st5"/>
		</g>
		<g id="shape101-285" v:mID="101" v:groupContext="shape" transform="translate(191.67,30.225) rotate(-90)">
			<title>Sheet.101</title>
			<path d="M0 135.83 L4.5 135.83" class="st4"/>
		</g>
		<g id="shape102-288" v:mID="102" v:groupContext="shape" transform="translate(327.214,-110.1)">
			<title>Sheet.102</title>
			<path d="M0 135.83 L0.56 135.83" class="st5"/>
		</g>
		<g id="shape103-291" v:mID="103" v:groupContext="shape" transform="translate(214.17,30.225) rotate(-90)">
			<title>Sheet.103</title>
			<path d="M0 135.83 L4.5 135.83" class="st4"/>
		</g>
		<g id="shape104-294" v:mID="104" v:groupContext="shape" transform="translate(349.714,-110.1)">
			<title>Sheet.104</title>
			<path d="M0 135.83 L0.56 135.83" class="st5"/>
		</g>
		<g id="shape105-297" v:mID="105" v:groupContext="shape" transform="translate(236.67,30.225) rotate(-90)">
			<title>Sheet.105</title>
			<path d="M0 135.83 L4.5 135.83" class="st4"/>
		</g>
		<g id="shape106-300" v:mID="106" v:groupContext="shape" transform="translate(372.214,-110.1)">
			<title>Sheet.106</title>
			<path d="M0 135.83 L0.56 135.83" class="st5"/>
		</g>
		<g id="shape107-303" v:mID="107" v:groupContext="shape" transform="translate(262.546,84.878) rotate(-90.2755)">
			<title>Sheet.107</title>
			<path d="M0 135.83 L58.5 135.83" class="st4"/>
		</g>
		<g id="shape108-306" v:mID="108" v:groupContext="shape" transform="translate(397.808,-110.1)">
			<title>Sheet.108</title>
			<path d="M0 135.83 L0.56 135.83" class="st5"/>
		</g>
		<g id="shape109-309" v:mID="109" v:groupContext="shape" transform="translate(398.37,220.05) rotate(180)">
			<title>Sheet.109</title>
			<path d="M0 135.83 L11.25 135.83" class="st4"/>
		</g>
		<g id="shape110-312" v:mID="110" v:groupContext="shape" transform="translate(202.62,-120.225)">
			<title>Sheet.110</title>
			<path d="M0 135.83 L166.5 135.83" class="st6"/>
		</g>
		<g id="shape111-315" v:mID="111" v:groupContext="shape" transform="translate(72.4199,30.225) rotate(-90)">
			<title>Sheet.111</title>
			<path d="M0 135.83 L14.62 135.83" class="st4"/>
		</g>
		<g id="shape112-318" v:mID="112" v:groupContext="shape" transform="translate(112.202,113.893) rotate(-135)">
			<title>Sheet.112</title>
			<path d="M0 135.83 L3.18 135.83" class="st4"/>
		</g>
		<g id="shape113-321" v:mID="113" v:groupContext="shape" transform="translate(94.9199,30.225) rotate(-90)">
			<title>Sheet.113</title>
			<path d="M0 135.83 L14.62 135.83" class="st4"/>
		</g>
		<g id="shape114-324" v:mID="114" v:groupContext="shape" transform="translate(134.702,113.893) rotate(-135)">
			<title>Sheet.114</title>
			<path d="M0 135.83 L3.18 135.83" class="st4"/>
		</g>
		<g id="shape115-327" v:mID="115" v:groupContext="shape" transform="translate(117.42,30.225) rotate(-90)">
			<title>Sheet.115</title>
			<path d="M0 135.83 L14.62 135.83" class="st4"/>
		</g>
		<g id="shape116-330" v:mID="116" v:groupContext="shape" transform="translate(157.202,113.893) rotate(-135)">
			<title>Sheet.116</title>
			<path d="M0 135.83 L3.18 135.83" class="st4"/>
		</g>
		<g id="shape117-333" v:mID="117" v:groupContext="shape" transform="translate(139.92,30.225) rotate(-90)">
			<title>Sheet.117</title>
			<path d="M0 135.83 L14.62 135.83" class="st4"/>
		</g>
		<g id="shape118-336" v:mID="118" v:groupContext="shape" transform="translate(179.702,113.893) rotate(-135)">
			<title>Sheet.118</title>
			<path d="M0 135.83 L3.18 135.83" class="st4"/>
		</g>
		<g id="shape119-339" v:mID="119" v:groupContext="shape" transform="translate(162.42,30.225) rotate(-90)">
			<title>Sheet.119</title>
			<path d="M0 135.83 L14.62 135.83" class="st4"/>
		</g>
		<g id="shape120-342" v:mID="120" v:groupContext="shape" transform="translate(202.202,113.893) rotate(-135)">
			<title>Sheet.120</title>
			<path d="M0 135.83 L3.18 135.83" class="st4"/>
		</g>
		<g id="shape121-345" v:mID="121" v:groupContext="shape" transform="translate(184.92,30.225) rotate(-90)">
			<title>Sheet.121</title>
			<path d="M0 135.83 L14.62 135.83" class="st4"/>
		</g>
		<g id="shape122-348" v:mID="122" v:groupContext="shape" transform="translate(224.702,113.893) rotate(-135)">
			<title>Sheet.122</title>
			<path d="M0 135.83 L3.18 135.83" class="st4"/>
		</g>
		<g id="shape123-351" v:mID="123" v:groupContext="shape" transform="translate(207.42,30.225) rotate(-90)">
			<title>Sheet.123</title>
			<path d="M0 135.83 L14.62 135.83" class="st4"/>
		</g>
		<g id="shape124-354" v:mID="124" v:groupContext="shape" transform="translate(247.202,113.893) rotate(-135)">
			<title>Sheet.124</title>
			<path d="M0 135.83 L3.18 135.83" class="st4"/>
		</g>
		<g id="shape125-357" v:mID="125" v:groupContext="shape" transform="translate(229.92,30.225) rotate(-90)">
			<title>Sheet.125</title>
			<path d="M0 135.83 L14.62 135.83" class="st4"/>
		</g>
		<g id="shape126-360" v:mID="126" v:groupContext="shape" transform="translate(269.702,113.893) rotate(-135)">
			<title>Sheet.126</title>
			<path d="M0 135.83 L3.18 135.83" class="st4"/>
		</g>
		<g id="shape127-363" v:mID="127" v:groupContext="shape" transform="translate(9.12,-120.225)">
			<title>Sheet.127</title>
			<path d="M0 135.83 L166.5 135.83" class="st6"/>
		</g>
		<g id="shape128-366" v:mID="128" v:groupContext="shape" transform="translate(-121.08,61.725) rotate(-90)">
			<title>Sheet.128</title>
			<path d="M0 135.83 L46.12 135.83" class="st4"/>
		</g>
		<g id="shape129-369" v:mID="129" v:groupContext="shape" transform="translate(-81.2978,113.893) rotate(-135)">
			<title>Sheet.129</title>
			<path d="M0 135.83 L3.18 135.83" class="st4"/>
		</g>
		<g id="shape130-372" v:mID="130" v:groupContext="shape" transform="translate(-98.5801,61.725) rotate(-90)">
			<title>Sheet.130</title>
			<path d="M0 135.83 L46.12 135.83" class="st4"/>
		</g>
		<g id="shape131-375" v:mID="131" v:groupContext="shape" transform="translate(-58.7978,113.893) rotate(-135)">
			<title>Sheet.131</title>
			<path d="M0 135.83 L3.18 135.83" class="st4"/>
		</g>
		<g id="shape132-378" v:mID="132" v:groupContext="shape" transform="translate(-76.0801,61.725) rotate(-90)">
			<title>Sheet.132</title>
			<path d="M0 135.83 L46.12 135.83" class="st4"/>
		</g>
		<g id="shape133-381" v:mID="133" v:groupContext="shape" transform="translate(-36.2978,113.893) rotate(-135)">
			<title>Sheet.133</title>
			<path d="M0 135.83 L3.18 135.83" class="st4"/>
		</g>
		<g id="shape134-384" v:mID="134" v:groupContext="shape" transform="translate(-53.5801,61.725) rotate(-90)">
			<title>Sheet.134</title>
			<path d="M0 135.83 L46.12 135.83" class="st4"/>
		</g>
		<g id="shape135-387" v:mID="135" v:groupContext="shape" transform="translate(-13.7978,113.893) rotate(-135)">
			<title>Sheet.135</title>
			<path d="M0 135.83 L3.18 135.83" class="st4"/>
		</g>
		<g id="shape136-390" v:mID="136" v:groupContext="shape" transform="translate(-31.0801,61.725) rotate(-90)">
			<title>Sheet.136</title>
			<path d="M0 135.83 L46.12 135.83" class="st4"/>
		</g>
		<g id="shape137-393" v:mID="137" v:groupContext="shape" transform="translate(8.70217,113.893) rotate(-135)">
			<title>Sheet.137</title>
			<path d="M0 135.83 L3.18 135.83" class="st4"/>
		</g>
		<g id="shape138-396" v:mID="138" v:groupContext="shape" transform="translate(-8.58007,61.725) rotate(-90)">
			<title>Sheet.138</title>
			<path d="M0 135.83 L46.12 135.83" class="st4"/>
		</g>
		<g id="shape139-399" v:mID="139" v:groupContext="shape" transform="translate(31.2022,113.893) rotate(-135)">
			<title>Sheet.139</title>
			<path d="M0 135.83 L3.18 135.83" class="st4"/>
		</g>
		<g id="shape140-402" v:mID="140" v:groupContext="shape" transform="translate(13.9199,61.725) rotate(-90)">
			<title>Sheet.140</title>
			<path d="M0 135.83 L46.12 135.83" class="st4"/>
		</g>
		<g id="shape141-405" v:mID="141" v:groupContext="shape" transform="translate(53.7022,113.893) rotate(-135)">
			<title>Sheet.141</title>
			<path d="M0 135.83 L3.18 135.83" class="st4"/>
		</g>
		<g id="shape142-408" v:mID="142" v:groupContext="shape" transform="translate(36.4199,61.725) rotate(-90)">
			<title>Sheet.142</title>
			<path d="M0 135.83 L46.12 135.83" class="st4"/>
		</g>
		<g id="shape143-411" v:mID="143" v:groupContext="shape" transform="translate(76.2022,113.893) rotate(-135)">
			<title>Sheet.143</title>
			<path d="M0 135.83 L3.18 135.83" class="st4"/>
		</g>
		<g id="shape144-414" v:mID="144" v:groupContext="shape" transform="translate(67.62,-124.725)">
			<title>Sheet.144</title>
			<desc>B[7..0]</desc>
			<v:textBlock v:margins="rect(0,0,0,0)"/>
			<v:textRect cx="22.5" cy="131.325" width="45" height="9"/>
			<path d="M45 126.83 L0 126.83 L0 135.83 L45 135.83 L45 126.83" class="st2"/>
			<text x="13.2" y="134.63" class="st7" v:langID="1033"><v:paragraph v:horizAlign="2"/><v:tabList/>B[7..0]</text>		</g>
		<g id="shape145-418" v:mID="145" v:groupContext="shape" transform="translate(261.12,-124.725)">
			<title>Sheet.145</title>
			<desc>A[7..0]</desc>
			<v:textBlock v:margins="rect(0,0,0,0)"/>
			<v:textRect cx="22.5" cy="131.325" width="45" height="9"/>
			<path d="M45 126.83 L0 126.83 L0 135.83 L45 135.83 L45 126.83" class="st2"/>
			<text x="13.2" y="134.63" class="st7" v:langID="1033"><v:paragraph v:horizAlign="2"/><v:tabList/>A[7..0]</text>		</g>
		<g id="shape146-422" v:mID="146" v:groupContext="shape" transform="translate(382.62,-108.975)">
			<title>Sheet.146</title>
			<desc>Sub</desc>
			<v:textBlock v:margins="rect(0,0,0,0)"/>
			<v:textRect cx="20.25" cy="128.513" width="40.5" height="14.625"/>
			<path d="M40.5 121.2 L0 121.2 L0 135.83 L40.5 135.83 L40.5 121.2" class="st2"/>
			<text x="20.93" y="131.81" class="st7" v:langID="1033"><v:paragraph v:horizAlign="2"/><v:tabList/>Sub</text>		</g>
		<g id="shape147-426" v:mID="147" v:groupContext="shape" transform="translate(329.445,106.725) rotate(90)">
			<title>Sheet.147</title>
			<path d="M0 135.83 L8.31 135.83" class="st8"/>
		</g>
		<g id="shape148-432" v:mID="148" v:groupContext="shape" transform="translate(166.62,-2.10004)">
			<title>Sheet.148</title>
			<desc>Sum[7..0]</desc>
			<v:textBlock v:margins="rect(0,0,0,0)"/>
			<v:textRect cx="27" cy="131.325" width="54" height="9"/>
			<path d="M54 126.83 L0 126.83 L0 135.83 L54 135.83 L54 126.83" class="st2"/>
			<text x="6.92" y="134.63" class="st7" v:langID="1033"><v:paragraph v:horizAlign="2"/><v:tabList/>Sum[7..0]</text>		</g>
		<g id="shape149-436" v:mID="149" v:groupContext="shape" transform="translate(167.445,106.725) rotate(90)">
			<title>Sheet.149</title>
			<path d="M0 135.83 L9.27 135.83" class="st10"/>
		</g>
		<g id="shape150-442" v:mID="150" v:groupContext="shape" transform="translate(4.62,-2.10004)">
			<title>Sheet.150</title>
			<desc>Cout</desc>
			<v:textBlock v:margins="rect(0,0,0,0)"/>
			<v:textRect cx="27" cy="131.325" width="54" height="9"/>
			<path d="M54 126.83 L0 126.83 L0 135.83 L54 135.83 L54 126.83" class="st2"/>
			<text x="15.38" y="134.63" class="st7" v:langID="1033"><v:paragraph v:horizAlign="1"/><v:tabList/>Cout</text>		</g>
		<g id="shape151-446" v:mID="151" v:groupContext="shape" transform="translate(103.62,-35.85)">
			<title>Sheet.151</title>
			<desc>Binary Adder</desc>
			<v:textBlock v:margins="rect(0,0,0,0)"/>
			<v:textRect cx="90" cy="131.325" width="180" height="9"/>
			<path d="M180 126.83 L0 126.83 L0 135.83 L180 135.83 L180 126.83" class="st2"/>
			<text x="58.21" y="134.63" class="st7" v:langID="1033"><v:paragraph v:horizAlign="1"/><v:tabList/>Binary Adder</text>		</g>
	</g>
</svg>
