<?xml version="1.0" encoding="UTF-8" standalone="no"?>
<!DOCTYPE svg PUBLIC "-//W3C//DTD SVG 1.1//EN" "http://www.w3.org/Graphics/SVG/1.1/DTD/svg11.dtd">
<!-- Generated by Microsoft Visio, SVG Export circuit.svg Page-1 -->
<svg xmlns="http://www.w3.org/2000/svg" xmlns:xlink="http://www.w3.org/1999/xlink" xmlns:ev="http://www.w3.org/2001/xml-events"
		xmlns:v="http://schemas.microsoft.com/visio/2003/SVGExtensions/" width="2.135in" height="0.791668in"
		viewBox="0 0 153.72 57.0001" xml:space="preserve" color-interpolation-filters="sRGB" class="st10">
	<v:documentProperties v:langID="1033" v:viewMarkup="false"/>

	<style type="text/css">
	<![CDATA[
		.st1 {stroke:#000000;stroke-linecap:round;stroke-linejoin:round;stroke-width:0.72}
		.st2 {fill:#fddeb0;stroke:#000000;stroke-linecap:round;stroke-linejoin:round;stroke-width:0.72}
		.st3 {fill:none;stroke:none;stroke-linecap:round;stroke-linejoin:round;stroke-width:0.72}
		.st4 {fill:#000000;font-family:Arial;font-size:0.833336em}
		.st5 {fill:#d5e1fb;stroke:#000000;stroke-linecap:round;stroke-linejoin:round;stroke-width:0.72}
		.st6 {fill:#000000;stroke:#000000;stroke-linecap:round;stroke-linejoin:round;stroke-width:0.72}
		.st7 {fill:#000000;font-family:Arial;font-size:0.666664em}
		.st8 {fill:none;stroke:none;stroke-linecap:round;stroke-linejoin:round;stroke-width:0.75}
		.st9 {fill:#ff0000;font-family:Calibri;font-size:0.75em}
		.st10 {fill:none;fill-rule:evenodd;font-size:12px;overflow:visible;stroke-linecap:square;stroke-miterlimit:3}
	]]>
	</style>

	<g v:mID="0" v:index="1" v:groupContext="foregroundPage">
		<title>Page-1</title>
		<v:pageProperties v:drawingScale="1" v:pageScale="1" v:drawingUnits="19" v:shadowOffsetX="9" v:shadowOffsetY="-9"/>
		<g id="shape1-1" v:mID="1" v:groupContext="shape" transform="translate(67.8218,99) rotate(-179.962)">
			<title>Sheet.1</title>
			<path d="M0 57 L15.75 57" class="st1"/>
		</g>
		<g id="shape2-4" v:mID="2" v:groupContext="shape" transform="translate(106.064,76.5) scale(1,-1)">
			<title>Sheet.2</title>
			<path d="M0 39 L0.91 41.43 L1.52 44.06 L1.82 46.69 L1.82 49.31 L1.52 51.94 L0.91 54.47 L0 57 L9.83 57 L12.06 56.49 L14.18
						 55.69 L16.31 54.57 L18.13 53.26 L19.86 51.64 L21.28 49.92 L22.59 48 L21.28 45.98 L19.86 44.26 L18.13 42.64
						 L16.31 41.33 L14.18 40.31 L12.06 39.51 L9.83 39 L0 39 Z" class="st2"/>
		</g>
		<g id="shape3-6" v:mID="3" v:groupContext="shape" transform="translate(67.86,-37.5002)">
			<title>Sheet.3</title>
			<path d="M0 39 L13.75 39 A8.75 9 0 0 1 22.5 48 A7.5 9 0 0 1 15 57 L0 57 L0 39 Z" class="st2"/>
		</g>
		<g id="shape4-8" v:mID="4" v:groupContext="shape" transform="translate(0.36,-45.3752)">
			<title>Sheet.4</title>
			<desc>A</desc>
			<v:textBlock v:margins="rect(4,4,4,4)"/>
			<v:textRect cx="9" cy="51.3751" width="18" height="11.25"/>
			<rect x="0" y="45.7501" width="18" height="11.25" class="st3"/>
			<text x="5.67" y="54.38" class="st4" v:langID="1033"><v:paragraph v:horizAlign="1"/><v:tabList/>A</text>		</g>
		<g id="shape5-11" v:mID="5" v:groupContext="shape" transform="translate(67.86,-1.50018)">
			<title>Sheet.5</title>
			<path d="M0 39 L13.75 39 A8.75 9 0 0 1 22.5 48 A7.5 9 0 0 1 15 57 L0 57 L0 39 Z" class="st2"/>
		</g>
		<g id="shape6-13" v:mID="6" v:groupContext="shape" transform="translate(38.61,-9.93768)">
			<title>Sheet.6</title>
			<path d="M0 57 L0 46.88 L9 51.94 L0 57 Z" class="st5"/>
		</g>
		<g id="shape7-15" v:mID="7" v:groupContext="shape" transform="translate(47.61,-12.7502)">
			<title>Sheet.7</title>
			<path d="M0 54.72 L0.12 54 L0.48 53.4 L0.96 52.92 L1.56 52.56 L2.28 52.5 L3 52.56 L3.6 52.92 L4.08 53.4 L4.44 54 L4.5
						 54.72 L4.44 55.44 L4.08 56.04 L3.6 56.52 L3 56.88 L2.28 57 L1.56 56.88 L0.96 56.52 L0.48 56.04 L0.12 55.44
						 L0 54.72 Z" class="st5"/>
		</g>
		<g id="shape8-17" v:mID="8" v:groupContext="shape" transform="translate(35.4482,99.1622) rotate(-176.82)">
			<title>Sheet.8</title>
			<path d="M0 57 L4.51 57" class="st1"/>
		</g>
		<g id="shape9-20" v:mID="9" v:groupContext="shape" transform="translate(67.86,63) rotate(180)">
			<title>Sheet.9</title>
			<path d="M0 57 L49.5 57" class="st1"/>
		</g>
		<g id="shape10-23" v:mID="10" v:groupContext="shape" transform="translate(67.86,108) rotate(180)">
			<title>Sheet.10</title>
			<path d="M0 57 L49.5 57" class="st1"/>
		</g>
		<g id="shape11-26" v:mID="11" v:groupContext="shape" transform="translate(67.86,72) rotate(180)">
			<title>Sheet.11</title>
			<path d="M0 57 L49.5 57" class="st1"/>
		</g>
		<g id="shape12-29" v:mID="12" v:groupContext="shape" transform="translate(99.36,67.5) rotate(180)">
			<title>Sheet.12</title>
			<path d="M0 57 L9 57" class="st1"/>
		</g>
		<g id="shape13-32" v:mID="13" v:groupContext="shape" transform="translate(99.36,103.5) rotate(180)">
			<title>Sheet.13</title>
			<path d="M0 57 L9 57" class="st1"/>
		</g>
		<g id="shape14-35" v:mID="14" v:groupContext="shape" transform="translate(42.3599,23.9999) rotate(-90)">
			<title>Sheet.14</title>
			<path d="M0 57 L13.5 57" class="st1"/>
		</g>
		<g id="shape15-38" v:mID="15" v:groupContext="shape" transform="translate(42.3604,46.2612) rotate(-89.76)">
			<title>Sheet.15</title>
			<path d="M0 57 L13.83 57" class="st1"/>
		</g>
		<g id="shape16-41" v:mID="16" v:groupContext="shape" transform="translate(107.172,81.0402) rotate(-179.71)">
			<title>Sheet.16</title>
			<path d="M0 57 L8.1 57" class="st1"/>
		</g>
		<g id="shape17-44" v:mID="17" v:groupContext="shape" transform="translate(107.168,89.7186) rotate(-179.647)">
			<title>Sheet.17</title>
			<path d="M0 57 L8.1 57" class="st1"/>
		</g>
		<g id="shape18-47" v:mID="18" v:groupContext="shape" transform="translate(137.938,85.4991) rotate(179.67)">
			<title>Sheet.18</title>
			<path d="M0 57 L8.99 57" class="st1"/>
		</g>
		<g id="shape19-50" v:mID="19" v:groupContext="shape" transform="translate(0.36,-35.2502)">
			<title>Sheet.19</title>
			<desc>B</desc>
			<v:textBlock v:margins="rect(4,4,4,4)"/>
			<v:textRect cx="9" cy="51.3751" width="18" height="11.25"/>
			<rect x="0" y="45.7501" width="18" height="11.25" class="st3"/>
			<text x="5.67" y="54.38" class="st4" v:langID="1033"><v:paragraph v:horizAlign="1"/><v:tabList/>B</text>		</g>
		<g id="shape20-53" v:mID="20" v:groupContext="shape" transform="translate(0.36,-1.50018)">
			<title>Sheet.20</title>
			<desc>C</desc>
			<v:textBlock v:margins="rect(4,4,4,4)"/>
			<v:textRect cx="9" cy="52.5001" width="18" height="9"/>
			<rect x="0" y="48.0001" width="18" height="9" class="st3"/>
			<text x="5.39" y="55.5" class="st4" v:langID="1033"><v:paragraph v:horizAlign="1"/><v:tabList/>C</text>		</g>
		<g id="shape21-56" v:mID="21" v:groupContext="shape" transform="translate(-22.8901,41.9999) rotate(-90)">
			<title>Sheet.21</title>
			<path d="M0 57 L27 57" class="st1"/>
		</g>
		<g id="shape22-59" v:mID="22" v:groupContext="shape" transform="translate(33.2662,-41.1564)">
			<title>Sheet.22</title>
			<path d="M0 56.15 L0.04 55.88 L0.18 55.65 L0.36 55.47 L0.58 55.34 L0.85 55.31 L1.12 55.34 L1.35 55.47 L1.53 55.65 L1.66
						 55.88 L1.69 56.15 L1.66 56.42 L1.53 56.64 L1.35 56.82 L1.12 56.96 L0.85 57 L0.58 56.96 L0.36 56.82 L0.18
						 56.64 L0.04 56.42 L0 56.15 Z" class="st6"/>
		</g>
		<g id="shape23-61" v:mID="23" v:groupContext="shape" transform="translate(135.36,-24.0002)">
			<title>Sheet.23</title>
			<desc>X</desc>
			<v:textBlock v:margins="rect(4,4,4,4)"/>
			<v:textRect cx="9" cy="52.5001" width="18" height="9"/>
			<rect x="0" y="48.0001" width="18" height="9" class="st3"/>
			<text x="5.67" y="55.5" class="st4" v:langID="1033"><v:paragraph v:horizAlign="1"/><v:tabList/>X</text>		</g>
		<g id="shape24-64" v:mID="24" v:groupContext="shape" transform="translate(90.36,-46.5002)">
			<title>Sheet.24</title>
			<desc>N1</desc>
			<v:textBlock v:margins="rect(4,0,4,0)"/>
			<v:textRect cx="9" cy="52.5001" width="18" height="9"/>
			<rect x="0" y="48.0001" width="18" height="9" class="st3"/>
			<text x="3.89" y="54.9" class="st7" v:langID="1033"><v:paragraph v:horizAlign="1"/><v:tabList/>N1</text>		</g>
		<g id="shape25-67" v:mID="25" v:groupContext="shape" transform="translate(90.36,-1.50018)">
			<title>Sheet.25</title>
			<desc>N3</desc>
			<v:textBlock v:margins="rect(4,0,4,0)"/>
			<v:textRect cx="9" cy="52.5001" width="18" height="9"/>
			<rect x="0" y="48.0001" width="18" height="9" class="st3"/>
			<text x="3.89" y="54.9" class="st7" v:langID="1033"><v:paragraph v:horizAlign="1"/><v:tabList/>N3</text>		</g>
		<g id="shape26-70" v:mID="26" v:groupContext="shape" transform="translate(52.11,-14.5113)">
			<title>Sheet.26</title>
			<desc>N2</desc>
			<v:textBlock v:margins="rect(4,0,4,0)"/>
			<v:textRect cx="9" cy="52.5001" width="18" height="9"/>
			<rect x="0" y="48.0001" width="18" height="9" class="st3"/>
			<text x="3.89" y="54.9" class="st7" v:langID="1033"><v:paragraph v:horizAlign="1"/><v:tabList/>N2</text>		</g>
		<g id="shape27-73" v:mID="27" v:groupContext="shape" transform="translate(31.86,-21.2613)">
			<title>Sheet.27</title>
			<desc>1ns</desc>
			<v:textBlock v:margins="rect(4,4,4,4)"/>
			<v:textRect cx="11.25" cy="53.2665" width="22.5" height="7.46711"/>
			<rect x="0" y="49.533" width="22.5" height="7.46711" class="st8"/>
			<text x="4.84" y="55.97" class="st9" v:langID="2052"><v:paragraph v:horizAlign="1"/><v:tabList/>1ns</text>		</g>
		<g id="shape29-76" v:mID="29" v:groupContext="shape" transform="translate(67.86,-42.7666)">
			<title>Sheet.29</title>
			<desc>1ns</desc>
			<v:textBlock v:margins="rect(4,4,4,4)"/>
			<v:textRect cx="11.25" cy="53.2665" width="22.5" height="7.46711"/>
			<rect x="0" y="49.533" width="22.5" height="7.46711" class="st8"/>
			<text x="4.84" y="55.97" class="st9" v:langID="2052"><v:paragraph v:horizAlign="1"/><v:tabList/>1ns</text>		</g>
		<g id="shape30-79" v:mID="30" v:groupContext="shape" transform="translate(67.86,-6.76663)">
			<title>Sheet.30</title>
			<desc>1ns</desc>
			<v:textBlock v:margins="rect(4,4,4,4)"/>
			<v:textRect cx="11.25" cy="53.2665" width="22.5" height="7.46711"/>
			<rect x="0" y="49.533" width="22.5" height="7.46711" class="st8"/>
			<text x="4.84" y="55.97" class="st9" v:langID="2052"><v:paragraph v:horizAlign="1"/><v:tabList/>1ns</text>		</g>
		<g id="shape31-82" v:mID="31" v:groupContext="shape" transform="translate(106.064,-24.7666)">
			<title>Sheet.31</title>
			<desc>1ns</desc>
			<v:textBlock v:margins="rect(4,4,4,4)"/>
			<v:textRect cx="11.25" cy="53.2665" width="22.5" height="7.46711"/>
			<rect x="0" y="49.533" width="22.5" height="7.46711" class="st8"/>
			<text x="4.84" y="55.97" class="st9" v:langID="2052"><v:paragraph v:horizAlign="1"/><v:tabList/>1ns</text>		</g>
	</g>
</svg>
