<?xml version="1.0" encoding="UTF-8" standalone="no"?>
<!DOCTYPE svg PUBLIC "-//W3C//DTD SVG 1.1//EN" "http://www.w3.org/Graphics/SVG/1.1/DTD/svg11.dtd">
<!-- Generated by Microsoft Visio, SVG Export DecimalCounter.svg Page-1 -->
<svg xmlns="http://www.w3.org/2000/svg" xmlns:xlink="http://www.w3.org/1999/xlink" xmlns:ev="http://www.w3.org/2001/xml-events"
		xmlns:v="http://schemas.microsoft.com/visio/2003/SVGExtensions/" width="2.79625in" height="4.93748in"
		viewBox="0 0 201.33 355.499" xml:space="preserve" color-interpolation-filters="sRGB" class="st10">
	<v:documentProperties v:langID="1033" v:viewMarkup="false"/>

	<style type="text/css">
	<![CDATA[
		.st1 {stroke:#000000;stroke-linecap:round;stroke-linejoin:round;stroke-width:0.72}
		.st2 {fill:#a6ffa6;stroke:#000000;stroke-linecap:round;stroke-linejoin:round;stroke-width:0.24}
		.st3 {stroke:none;stroke-linecap:round;stroke-linejoin:round;stroke-width:0.75}
		.st4 {fill:#000000;font-family:Arial;font-size:0.75em}
		.st5 {fill:none;stroke:#000000;stroke-linecap:round;stroke-linejoin:round;stroke-width:0.24}
		.st6 {fill:#ffffff;stroke:#000000;stroke-linecap:round;stroke-linejoin:round;stroke-width:0.72}
		.st7 {fill:#000000;stroke:#000000;stroke-linecap:round;stroke-linejoin:round;stroke-width:0.24}
		.st8 {stroke:#000000;stroke-linecap:round;stroke-linejoin:round;stroke-width:2.16}
		.st9 {fill:#000000;font-family:Arial;font-size:0.666664em}
		.st10 {fill:none;fill-rule:evenodd;font-size:12px;overflow:visible;stroke-linecap:square;stroke-miterlimit:3}
	]]>
	</style>

	<g v:mID="0" v:index="1" v:groupContext="foregroundPage">
		<title>Page-1</title>
		<v:pageProperties v:drawingScale="1" v:pageScale="1" v:drawingUnits="19" v:shadowOffsetX="9" v:shadowOffsetY="-9"/>
		<g id="shape1364-1" v:mID="1364" v:groupContext="shape" transform="translate(164.25,431.878) rotate(180)">
			<title>Sheet.1364</title>
			<path d="M0 355.5 L31.5 355.5" class="st1"/>
		</g>
		<g id="shape1365-4" v:mID="1365" v:groupContext="shape" transform="translate(110.25,377.878) rotate(180)">
			<title>Sheet.1365</title>
			<path d="M0 355.5 L81 355.5" class="st1"/>
		</g>
		<g id="shape1366-7" v:mID="1366" v:groupContext="shape" transform="translate(112.5,416.128) rotate(180)">
			<title>Sheet.1366</title>
			<path d="M0 355.5 L83.25 355.5" class="st1"/>
		</g>
		<g id="shape1367-10" v:mID="1367" v:groupContext="shape" transform="translate(173.25,404.878) rotate(180)">
			<title>Sheet.1367</title>
			<path d="M0 355.5 L22.5 355.5" class="st1"/>
		</g>
		<g id="shape1368-13" v:mID="1368" v:groupContext="shape" transform="translate(173.25,418.378) rotate(180)">
			<title>Sheet.1368</title>
			<path d="M0 355.5 L40.5 355.5" class="st1"/>
		</g>
		<g id="shape1369-16" v:mID="1369" v:groupContext="shape" transform="translate(173.25,377.878) rotate(180)">
			<title>Sheet.1369</title>
			<path d="M0 355.5 L42.75 355.5" class="st1"/>
		</g>
		<g id="shape1370-19" v:mID="1370" v:groupContext="shape" transform="translate(173.25,391.378) rotate(180)">
			<title>Sheet.1370</title>
			<path d="M0 355.5 L40.5 355.5" class="st1"/>
		</g>
		<g id="shape1371-22" v:mID="1371" v:groupContext="shape" transform="translate(155.321,-270.12) scale(-1,1)">
			<title>Rectangle.59</title>
			<v:userDefs>
				<v:ud v:nameU="visVersion" v:val="VT0(11):26"/>
			</v:userDefs>
			<rect x="0" y="283.499" width="45.0709" height="72" class="st2"/>
		</g>
		<g id="shape1372-24" v:mID="1372" v:groupContext="shape" transform="translate(127.125,-328.62)">
			<title>Sheet.1372</title>
			<desc>B0</desc>
			<v:textBlock v:margins="rect(0,0,0,0)" v:tabSpace="42.5197"/>
			<v:textRect cx="12.9375" cy="350.999" width="25.88" height="9"/>
			<path d="M25.87 346.5 L0 346.5 L0 355.5 L25.87 355.5 L25.87 346.5" class="st3"/>
			<text x="14.87" y="353.7" class="st4" v:langID="1033"><v:paragraph v:horizAlign="2"/><v:tabList/>B0</text>		</g>
		<g id="shape1373-28" v:mID="1373" v:groupContext="shape" transform="translate(128.25,-315.12)">
			<title>Sheet.1373</title>
			<desc>B1</desc>
			<v:textBlock v:margins="rect(0,0,0,0)" v:tabSpace="42.5197"/>
			<v:textRect cx="12.375" cy="350.999" width="24.75" height="9"/>
			<path d="M24.75 346.5 L0 346.5 L0 355.5 L24.75 355.5 L24.75 346.5" class="st3"/>
			<text x="13.74" y="353.7" class="st4" v:langID="1033"><v:paragraph v:horizAlign="2"/><v:tabList/>B1</text>		</g>
		<g id="shape1374-32" v:mID="1374" v:groupContext="shape" transform="translate(127.125,-301.62)">
			<title>Sheet.1374</title>
			<desc>B2</desc>
			<v:textBlock v:margins="rect(0,0,0,0)" v:tabSpace="42.5197"/>
			<v:textRect cx="12.9375" cy="350.999" width="25.88" height="9"/>
			<path d="M25.87 346.5 L0 346.5 L0 355.5 L25.87 355.5 L25.87 346.5" class="st3"/>
			<text x="14.87" y="353.7" class="st4" v:langID="1033"><v:paragraph v:horizAlign="2"/><v:tabList/>B2</text>		</g>
		<g id="shape1375-36" v:mID="1375" v:groupContext="shape" transform="translate(128.25,-288.12)">
			<title>Sheet.1375</title>
			<desc>B3</desc>
			<v:textBlock v:margins="rect(0,0,0,0)" v:tabSpace="42.5197"/>
			<v:textRect cx="12.375" cy="350.999" width="24.75" height="9"/>
			<path d="M24.75 346.5 L0 346.5 L0 355.5 L24.75 355.5 L24.75 346.5" class="st3"/>
			<text x="13.74" y="353.7" class="st4" v:langID="1033"><v:paragraph v:horizAlign="2"/><v:tabList/>B3</text>		</g>
		<g id="shape1376-40" v:mID="1376" v:groupContext="shape" transform="translate(465.749,56.1288) rotate(90)">
			<title>Triangle</title>
			<path d="M9.7 355.5 L4.5 348.75 L-0.7 355.5 L9.7 355.5 Z" class="st5"/>
		</g>
		<g id="shape1377-42" v:mID="1377" v:groupContext="shape" transform="translate(113.063,-328.62)">
			<title>Sheet.1377</title>
			<desc>CEN</desc>
			<v:textBlock v:margins="rect(0,0,0,0)" v:tabSpace="42.5197"/>
			<v:textRect cx="12.9375" cy="350.999" width="25.88" height="9"/>
			<path d="M25.87 346.5 L0 346.5 L0 355.5 L25.87 355.5 L25.87 346.5" class="st3"/>
			<text x="0" y="353.7" class="st4" v:langID="1033"><v:paragraph/><v:tabList/>CEN</text>		</g>
		<g id="shape1378-46" v:mID="1378" v:groupContext="shape" transform="translate(114.75,-274.62)">
			<title>Sheet.1378</title>
			<desc>TC_1001</desc>
			<v:textBlock v:margins="rect(0,0,0,0)" v:tabSpace="42.5197"/>
			<v:textRect cx="19.125" cy="350.999" width="38.25" height="9"/>
			<path d="M38.25 346.5 L0 346.5 L0 355.5 L38.25 355.5 L38.25 346.5" class="st3"/>
			<text x="1.23" y="353.7" class="st4" v:langID="1033"><v:paragraph v:horizAlign="2"/><v:tabList/>TC_1001</text>		</g>
		<g id="shape1379-50" v:mID="1379" v:groupContext="shape" transform="translate(164.25,521.878) rotate(180)">
			<title>Sheet.1379</title>
			<path d="M0 355.5 L31.5 355.5" class="st1"/>
		</g>
		<g id="shape1380-53" v:mID="1380" v:groupContext="shape" transform="translate(111.375,476.878) rotate(180)">
			<title>Sheet.1380</title>
			<path d="M0 355.5 L14.62 355.5" class="st1"/>
		</g>
		<g id="shape1381-56" v:mID="1381" v:groupContext="shape" transform="translate(112.5,506.128) rotate(180)">
			<title>Sheet.1381</title>
			<path d="M0 355.5 L11.25 355.5" class="st1"/>
		</g>
		<g id="shape1382-59" v:mID="1382" v:groupContext="shape" transform="translate(173.25,494.878) rotate(180)">
			<title>Sheet.1382</title>
			<path d="M0 355.5 L22.5 355.5" class="st1"/>
		</g>
		<g id="shape1383-62" v:mID="1383" v:groupContext="shape" transform="translate(173.25,508.378) rotate(180)">
			<title>Sheet.1383</title>
			<path d="M0 355.5 L40.5 355.5" class="st1"/>
		</g>
		<g id="shape1384-65" v:mID="1384" v:groupContext="shape" transform="translate(173.25,467.878) rotate(180)">
			<title>Sheet.1384</title>
			<path d="M0 355.5 L42.75 355.5" class="st1"/>
		</g>
		<g id="shape1385-68" v:mID="1385" v:groupContext="shape" transform="translate(173.25,481.378) rotate(180)">
			<title>Sheet.1385</title>
			<path d="M0 355.5 L40.5 355.5" class="st1"/>
		</g>
		<g id="shape1386-71" v:mID="1386" v:groupContext="shape" transform="translate(155.321,-180.12) scale(-1,1)">
			<title>Rectangle.80</title>
			<v:userDefs>
				<v:ud v:nameU="visVersion" v:val="VT0(11):26"/>
			</v:userDefs>
			<rect x="0" y="283.499" width="45.0709" height="72" class="st2"/>
		</g>
		<g id="shape1387-73" v:mID="1387" v:groupContext="shape" transform="translate(127.125,-238.62)">
			<title>Sheet.1387</title>
			<desc>B0</desc>
			<v:textBlock v:margins="rect(0,0,0,0)" v:tabSpace="42.5197"/>
			<v:textRect cx="12.9375" cy="350.999" width="25.88" height="9"/>
			<path d="M25.87 346.5 L0 346.5 L0 355.5 L25.87 355.5 L25.87 346.5" class="st3"/>
			<text x="14.87" y="353.7" class="st4" v:langID="1033"><v:paragraph v:horizAlign="2"/><v:tabList/>B0</text>		</g>
		<g id="shape1388-77" v:mID="1388" v:groupContext="shape" transform="translate(128.25,-225.12)">
			<title>Sheet.1388</title>
			<desc>B1</desc>
			<v:textBlock v:margins="rect(0,0,0,0)" v:tabSpace="42.5197"/>
			<v:textRect cx="12.375" cy="350.999" width="24.75" height="9"/>
			<path d="M24.75 346.5 L0 346.5 L0 355.5 L24.75 355.5 L24.75 346.5" class="st3"/>
			<text x="13.74" y="353.7" class="st4" v:langID="1033"><v:paragraph v:horizAlign="2"/><v:tabList/>B1</text>		</g>
		<g id="shape1389-81" v:mID="1389" v:groupContext="shape" transform="translate(127.125,-211.62)">
			<title>Sheet.1389</title>
			<desc>B2</desc>
			<v:textBlock v:margins="rect(0,0,0,0)" v:tabSpace="42.5197"/>
			<v:textRect cx="12.9375" cy="350.999" width="25.88" height="9"/>
			<path d="M25.87 346.5 L0 346.5 L0 355.5 L25.87 355.5 L25.87 346.5" class="st3"/>
			<text x="14.87" y="353.7" class="st4" v:langID="1033"><v:paragraph v:horizAlign="2"/><v:tabList/>B2</text>		</g>
		<g id="shape1390-85" v:mID="1390" v:groupContext="shape" transform="translate(128.25,-198.12)">
			<title>Sheet.1390</title>
			<desc>B3</desc>
			<v:textBlock v:margins="rect(0,0,0,0)" v:tabSpace="42.5197"/>
			<v:textRect cx="12.375" cy="350.999" width="24.75" height="9"/>
			<path d="M24.75 346.5 L0 346.5 L0 355.5 L24.75 355.5 L24.75 346.5" class="st3"/>
			<text x="13.74" y="353.7" class="st4" v:langID="1033"><v:paragraph v:horizAlign="2"/><v:tabList/>B3</text>		</g>
		<g id="shape1391-89" v:mID="1391" v:groupContext="shape" transform="translate(465.749,146.129) rotate(90)">
			<title>Triangle.85</title>
			<path d="M9.7 355.5 L4.5 348.75 L-0.7 355.5 L9.7 355.5 Z" class="st5"/>
		</g>
		<g id="shape1392-91" v:mID="1392" v:groupContext="shape" transform="translate(113.625,-229.62)">
			<title>Sheet.1392</title>
			<desc>CEN</desc>
			<v:textBlock v:margins="rect(0,0,0,0)" v:tabSpace="42.5197"/>
			<v:textRect cx="12.9375" cy="350.999" width="25.88" height="9"/>
			<path d="M25.87 346.5 L0 346.5 L0 355.5 L25.87 355.5 L25.87 346.5" class="st3"/>
			<text x="0" y="353.7" class="st4" v:langID="1033"><v:paragraph/><v:tabList/>CEN</text>		</g>
		<g id="shape1393-95" v:mID="1393" v:groupContext="shape" transform="translate(114.75,-184.62)">
			<title>Sheet.1393</title>
			<desc>TC_1001</desc>
			<v:textBlock v:margins="rect(0,0,0,0)" v:tabSpace="42.5197"/>
			<v:textRect cx="19.125" cy="350.999" width="38.25" height="9"/>
			<path d="M38.25 346.5 L0 346.5 L0 355.5 L38.25 355.5 L38.25 346.5" class="st3"/>
			<text x="1.23" y="353.7" class="st4" v:langID="1033"><v:paragraph v:horizAlign="2"/><v:tabList/>TC_1001</text>		</g>
		<g id="shape1394-99" v:mID="1394" v:groupContext="shape" transform="translate(164.25,611.878) rotate(180)">
			<title>Sheet.1394</title>
			<path d="M0 355.5 L31.5 355.5" class="st1"/>
		</g>
		<g id="shape1395-102" v:mID="1395" v:groupContext="shape" transform="translate(111.375,566.878) rotate(180)">
			<title>Sheet.1395</title>
			<path d="M0 355.5 L14.62 355.5" class="st1"/>
		</g>
		<g id="shape1396-105" v:mID="1396" v:groupContext="shape" transform="translate(112.5,596.128) rotate(180)">
			<title>Sheet.1396</title>
			<path d="M0 355.5 L11.25 355.5" class="st1"/>
		</g>
		<g id="shape1397-108" v:mID="1397" v:groupContext="shape" transform="translate(173.25,584.878) rotate(180)">
			<title>Sheet.1397</title>
			<path d="M0 355.5 L22.5 355.5" class="st1"/>
		</g>
		<g id="shape1398-111" v:mID="1398" v:groupContext="shape" transform="translate(173.25,598.378) rotate(180)">
			<title>Sheet.1398</title>
			<path d="M0 355.5 L40.5 355.5" class="st1"/>
		</g>
		<g id="shape1399-114" v:mID="1399" v:groupContext="shape" transform="translate(173.25,557.878) rotate(180)">
			<title>Sheet.1399</title>
			<path d="M0 355.5 L42.75 355.5" class="st1"/>
		</g>
		<g id="shape1400-117" v:mID="1400" v:groupContext="shape" transform="translate(173.25,571.378) rotate(180)">
			<title>Sheet.1400</title>
			<path d="M0 355.5 L40.5 355.5" class="st1"/>
		</g>
		<g id="shape1401-120" v:mID="1401" v:groupContext="shape" transform="translate(155.321,-90.12) scale(-1,1)">
			<title>Rectangle.97</title>
			<v:userDefs>
				<v:ud v:nameU="visVersion" v:val="VT0(11):26"/>
			</v:userDefs>
			<rect x="0" y="283.499" width="45.0709" height="72" class="st2"/>
		</g>
		<g id="shape1402-122" v:mID="1402" v:groupContext="shape" transform="translate(127.125,-148.62)">
			<title>Sheet.1402</title>
			<desc>B0</desc>
			<v:textBlock v:margins="rect(0,0,0,0)" v:tabSpace="42.5197"/>
			<v:textRect cx="12.9375" cy="350.999" width="25.88" height="9"/>
			<path d="M25.87 346.5 L0 346.5 L0 355.5 L25.87 355.5 L25.87 346.5" class="st3"/>
			<text x="14.87" y="353.7" class="st4" v:langID="1033"><v:paragraph v:horizAlign="2"/><v:tabList/>B0</text>		</g>
		<g id="shape1403-126" v:mID="1403" v:groupContext="shape" transform="translate(128.25,-135.12)">
			<title>Sheet.1403</title>
			<desc>B1</desc>
			<v:textBlock v:margins="rect(0,0,0,0)" v:tabSpace="42.5197"/>
			<v:textRect cx="12.375" cy="350.999" width="24.75" height="9"/>
			<path d="M24.75 346.5 L0 346.5 L0 355.5 L24.75 355.5 L24.75 346.5" class="st3"/>
			<text x="13.74" y="353.7" class="st4" v:langID="1033"><v:paragraph v:horizAlign="2"/><v:tabList/>B1</text>		</g>
		<g id="shape1404-130" v:mID="1404" v:groupContext="shape" transform="translate(127.125,-121.62)">
			<title>Sheet.1404</title>
			<desc>B2</desc>
			<v:textBlock v:margins="rect(0,0,0,0)" v:tabSpace="42.5197"/>
			<v:textRect cx="12.9375" cy="350.999" width="25.88" height="9"/>
			<path d="M25.87 346.5 L0 346.5 L0 355.5 L25.87 355.5 L25.87 346.5" class="st3"/>
			<text x="14.87" y="353.7" class="st4" v:langID="1033"><v:paragraph v:horizAlign="2"/><v:tabList/>B2</text>		</g>
		<g id="shape1405-134" v:mID="1405" v:groupContext="shape" transform="translate(128.25,-108.12)">
			<title>Sheet.1405</title>
			<desc>B3</desc>
			<v:textBlock v:margins="rect(0,0,0,0)" v:tabSpace="42.5197"/>
			<v:textRect cx="12.375" cy="350.999" width="24.75" height="9"/>
			<path d="M24.75 346.5 L0 346.5 L0 355.5 L24.75 355.5 L24.75 346.5" class="st3"/>
			<text x="13.74" y="353.7" class="st4" v:langID="1033"><v:paragraph v:horizAlign="2"/><v:tabList/>B3</text>		</g>
		<g id="shape1406-138" v:mID="1406" v:groupContext="shape" transform="translate(465.749,236.129) rotate(90)">
			<title>Triangle.102</title>
			<path d="M9.7 355.5 L4.5 348.75 L-0.7 355.5 L9.7 355.5 Z" class="st5"/>
		</g>
		<g id="shape1407-140" v:mID="1407" v:groupContext="shape" transform="translate(113.063,-137.37)">
			<title>Sheet.1407</title>
			<desc>CEN</desc>
			<v:textBlock v:margins="rect(0,0,0,0)" v:tabSpace="42.5197"/>
			<v:textRect cx="12.9375" cy="350.999" width="25.88" height="9"/>
			<path d="M25.87 346.5 L0 346.5 L0 355.5 L25.87 355.5 L25.87 346.5" class="st3"/>
			<text x="0" y="353.7" class="st4" v:langID="1033"><v:paragraph/><v:tabList/>CEN</text>		</g>
		<g id="shape1408-144" v:mID="1408" v:groupContext="shape" transform="translate(114.75,-94.62)">
			<title>Sheet.1408</title>
			<desc>TC_1001</desc>
			<v:textBlock v:margins="rect(0,0,0,0)" v:tabSpace="42.5197"/>
			<v:textRect cx="19.125" cy="350.999" width="38.25" height="9"/>
			<path d="M38.25 346.5 L0 346.5 L0 355.5 L38.25 355.5 L38.25 346.5" class="st3"/>
			<text x="1.23" y="353.7" class="st4" v:langID="1033"><v:paragraph v:horizAlign="2"/><v:tabList/>TC_1001</text>		</g>
		<g id="shape1409-148" v:mID="1409" v:groupContext="shape" transform="translate(173.25,701.878) rotate(180)">
			<title>Sheet.1409</title>
			<path d="M0 355.5 L40.5 355.5" class="st1"/>
		</g>
		<g id="shape1410-151" v:mID="1410" v:groupContext="shape" transform="translate(111.375,656.878) rotate(180)">
			<title>Sheet.1410</title>
			<path d="M0 355.5 L14.62 355.5" class="st1"/>
		</g>
		<g id="shape1411-154" v:mID="1411" v:groupContext="shape" transform="translate(112.5,686.128) rotate(180)">
			<title>Sheet.1411</title>
			<path d="M0 355.5 L11.25 355.5" class="st1"/>
		</g>
		<g id="shape1412-157" v:mID="1412" v:groupContext="shape" transform="translate(173.25,674.878) rotate(180)">
			<title>Sheet.1412</title>
			<path d="M0 355.5 L22.5 355.5" class="st1"/>
		</g>
		<g id="shape1413-160" v:mID="1413" v:groupContext="shape" transform="translate(173.25,688.378) rotate(180)">
			<title>Sheet.1413</title>
			<path d="M0 355.5 L40.5 355.5" class="st1"/>
		</g>
		<g id="shape1414-163" v:mID="1414" v:groupContext="shape" transform="translate(173.25,647.878) rotate(180)">
			<title>Sheet.1414</title>
			<path d="M0 355.5 L42.75 355.5" class="st1"/>
		</g>
		<g id="shape1415-166" v:mID="1415" v:groupContext="shape" transform="translate(173.25,661.378) rotate(180)">
			<title>Sheet.1415</title>
			<path d="M0 355.5 L40.5 355.5" class="st1"/>
		</g>
		<g id="shape1416-169" v:mID="1416" v:groupContext="shape" transform="translate(155.321,-0.12) scale(-1,1)">
			<title>Rectangle.1416</title>
			<v:userDefs>
				<v:ud v:nameU="visVersion" v:val="VT0(11):26"/>
			</v:userDefs>
			<rect x="0" y="283.499" width="45.0709" height="72" class="st2"/>
		</g>
		<g id="shape1417-171" v:mID="1417" v:groupContext="shape" transform="translate(127.125,-58.62)">
			<title>Sheet.1417</title>
			<desc>B0</desc>
			<v:textBlock v:margins="rect(0,0,0,0)" v:tabSpace="42.5197"/>
			<v:textRect cx="12.9375" cy="350.999" width="25.88" height="9"/>
			<path d="M25.87 346.5 L0 346.5 L0 355.5 L25.87 355.5 L25.87 346.5" class="st3"/>
			<text x="14.87" y="353.7" class="st4" v:langID="1033"><v:paragraph v:horizAlign="2"/><v:tabList/>B0</text>		</g>
		<g id="shape1418-175" v:mID="1418" v:groupContext="shape" transform="translate(128.25,-45.12)">
			<title>Sheet.1418</title>
			<desc>B1</desc>
			<v:textBlock v:margins="rect(0,0,0,0)" v:tabSpace="42.5197"/>
			<v:textRect cx="12.375" cy="350.999" width="24.75" height="9"/>
			<path d="M24.75 346.5 L0 346.5 L0 355.5 L24.75 355.5 L24.75 346.5" class="st3"/>
			<text x="13.74" y="353.7" class="st4" v:langID="1033"><v:paragraph v:horizAlign="2"/><v:tabList/>B1</text>		</g>
		<g id="shape1419-179" v:mID="1419" v:groupContext="shape" transform="translate(127.125,-31.62)">
			<title>Sheet.1419</title>
			<desc>B2</desc>
			<v:textBlock v:margins="rect(0,0,0,0)" v:tabSpace="42.5197"/>
			<v:textRect cx="12.9375" cy="350.999" width="25.88" height="9"/>
			<path d="M25.87 346.5 L0 346.5 L0 355.5 L25.87 355.5 L25.87 346.5" class="st3"/>
			<text x="14.87" y="353.7" class="st4" v:langID="1033"><v:paragraph v:horizAlign="2"/><v:tabList/>B2</text>		</g>
		<g id="shape1420-183" v:mID="1420" v:groupContext="shape" transform="translate(128.25,-18.12)">
			<title>Sheet.1420</title>
			<desc>B3</desc>
			<v:textBlock v:margins="rect(0,0,0,0)" v:tabSpace="42.5197"/>
			<v:textRect cx="12.375" cy="350.999" width="24.75" height="9"/>
			<path d="M24.75 346.5 L0 346.5 L0 355.5 L24.75 355.5 L24.75 346.5" class="st3"/>
			<text x="13.74" y="353.7" class="st4" v:langID="1033"><v:paragraph v:horizAlign="2"/><v:tabList/>B3</text>		</g>
		<g id="shape1421-187" v:mID="1421" v:groupContext="shape" transform="translate(465.749,326.129) rotate(90)">
			<title>Triangle.117</title>
			<path d="M9.7 355.5 L4.5 348.75 L-0.7 355.5 L9.7 355.5 Z" class="st5"/>
		</g>
		<g id="shape1422-189" v:mID="1422" v:groupContext="shape" transform="translate(113.063,-49.62)">
			<title>Sheet.1422</title>
			<desc>CEN</desc>
			<v:textBlock v:margins="rect(0,0,0,0)" v:tabSpace="42.5197"/>
			<v:textRect cx="12.9375" cy="350.999" width="25.88" height="9"/>
			<path d="M25.87 346.5 L0 346.5 L0 355.5 L25.87 355.5 L25.87 346.5" class="st3"/>
			<text x="0" y="353.7" class="st4" v:langID="1033"><v:paragraph/><v:tabList/>CEN</text>		</g>
		<g id="shape1423-193" v:mID="1423" v:groupContext="shape" transform="translate(114.75,-4.62)">
			<title>Sheet.1423</title>
			<desc>TC_1001</desc>
			<v:textBlock v:margins="rect(0,0,0,0)" v:tabSpace="42.5197"/>
			<v:textRect cx="19.125" cy="350.999" width="38.25" height="9"/>
			<path d="M38.25 346.5 L0 346.5 L0 355.5 L38.25 355.5 L38.25 346.5" class="st3"/>
			<text x="1.23" y="353.7" class="st4" v:langID="1033"><v:paragraph v:horizAlign="2"/><v:tabList/>TC_1001</text>		</g>
		<g id="shape1424-197" v:mID="1424" v:groupContext="shape" transform="translate(96.75,566.878) rotate(180)">
			<title>Sheet.1424</title>
			<path d="M0 355.5 L14.62 355.5" class="st1"/>
		</g>
		<g id="shape1425-200" v:mID="1425" v:groupContext="shape" transform="translate(96.75,476.878) rotate(180)">
			<title>Sheet.1425</title>
			<path d="M0 355.5 L14.62 355.5" class="st1"/>
		</g>
		<g id="shape1426-203" v:mID="1426" v:groupContext="shape" transform="translate(74.6121,-225.12)">
			<title>Sheet.1426</title>
			<path d="M0 355.5 L10.29 355.5 A7.71429 9 -180 0 0 18 346.5 A7.71429 9 -180 0 0 10.29 337.5 L0 337.5 L0 355.5 Z"
					class="st6"/>
		</g>
		<g id="shape1427-205" v:mID="1427" v:groupContext="shape" transform="translate(74.6121,-135.12)">
			<title>Sheet.1427</title>
			<path d="M0 355.5 L10.29 355.5 A7.71429 9 -180 0 0 18 346.5 A7.71429 9 -180 0 0 10.29 337.5 L0 337.5 L0 355.5 Z"
					class="st6"/>
		</g>
		<g id="shape1428-207" v:mID="1428" v:groupContext="shape" transform="translate(96.75,656.878) rotate(180)">
			<title>Sheet.1428</title>
			<path d="M0 355.5 L14.62 355.5" class="st1"/>
		</g>
		<g id="shape1429-210" v:mID="1429" v:groupContext="shape" transform="translate(74.6121,-45.12)">
			<title>Sheet.1429</title>
			<path d="M0 355.5 L10.29 355.5 A7.71429 9 -180 0 0 18 346.5 A7.71429 9 -180 0 0 10.29 337.5 L0 337.5 L0 355.5 Z"
					class="st6"/>
		</g>
		<g id="shape1430-212" v:mID="1430" v:groupContext="shape" transform="translate(74.6121,472.378) rotate(180)">
			<title>Sheet.1430</title>
			<path d="M0 355.5 L27 355.5" class="st1"/>
		</g>
		<g id="shape1431-215" v:mID="1431" v:groupContext="shape" transform="translate(74.6121,481.378) rotate(180)">
			<title>Sheet.1431</title>
			<path d="M0 355.5 L36 355.5" class="st1"/>
		</g>
		<g id="shape1432-218" v:mID="1432" v:groupContext="shape" transform="translate(74.6121,557.878) rotate(180)">
			<title>Sheet.1432</title>
			<path d="M0 355.5 L18 355.5" class="st1"/>
		</g>
		<g id="shape1433-221" v:mID="1433" v:groupContext="shape" transform="translate(74.6121,566.878) rotate(180)">
			<title>Sheet.1433</title>
			<path d="M0 355.5 L27 355.5" class="st1"/>
		</g>
		<g id="shape1434-224" v:mID="1434" v:groupContext="shape" transform="translate(74.6121,575.878) rotate(180)">
			<title>Sheet.1434</title>
			<path d="M0 355.5 L36 355.5" class="st1"/>
		</g>
		<g id="shape1435-227" v:mID="1435" v:groupContext="shape" transform="translate(-280.887,224.879) rotate(-90)">
			<title>Sheet.1435</title>
			<path d="M0 355.5 L27 355.5" class="st1"/>
		</g>
		<g id="shape1436-230" v:mID="1436" v:groupContext="shape" transform="translate(-280.887,319.379) rotate(-90)">
			<title>Sheet.1436</title>
			<path d="M0 355.5 L36 355.5" class="st1"/>
		</g>
		<g id="shape1437-233" v:mID="1437" v:groupContext="shape" transform="translate(74.6121,661.378) rotate(180)">
			<title>Sheet.1437</title>
			<path d="M0 355.5 L27 355.5" class="st1"/>
		</g>
		<g id="shape1438-236" v:mID="1438" v:groupContext="shape" transform="translate(74.6121,670.378) rotate(180)">
			<title>Sheet.1438</title>
			<path d="M0 355.5 L36 355.5" class="st1"/>
		</g>
		<g id="shape1439-239" v:mID="1439" v:groupContext="shape" transform="translate(74.6121,643.378) rotate(180)">
			<title>Sheet.1439</title>
			<path d="M0 355.5 L9 355.5" class="st1"/>
		</g>
		<g id="shape1440-242" v:mID="1440" v:groupContext="shape" transform="translate(-316.887,314.879) rotate(-90)">
			<title>Sheet.1440</title>
			<path d="M0 355.5 L292.5 355.5" class="st1"/>
		</g>
		<g id="shape1441-245" v:mID="1441" v:groupContext="shape" transform="translate(164.25,449.878) rotate(180)">
			<title>Sheet.1441</title>
			<path d="M0 355.5 L116.64 355.5" class="st1"/>
		</g>
		<g id="shape1442-248" v:mID="1442" v:groupContext="shape" transform="translate(519.749,76.3788) rotate(90)">
			<title>Sheet.1442</title>
			<path d="M0 355.5 L18 355.5" class="st1"/>
		</g>
		<g id="shape1443-251" v:mID="1443" v:groupContext="shape" transform="translate(403.111,94.3788) rotate(90)">
			<title>Sheet.1443</title>
			<path d="M0 355.5 L211.5 355.5" class="st1"/>
		</g>
		<g id="shape1444-254" v:mID="1444" v:groupContext="shape" transform="translate(164.25,539.878) rotate(180)">
			<title>Sheet.1444</title>
			<path d="M0 355.5 L107.64 355.5" class="st1"/>
		</g>
		<g id="shape1445-257" v:mID="1445" v:groupContext="shape" transform="translate(519.749,166.379) rotate(90)">
			<title>Sheet.1445</title>
			<path d="M0 355.5 L18 355.5" class="st1"/>
		</g>
		<g id="shape1446-260" v:mID="1446" v:groupContext="shape" transform="translate(412.111,184.379) rotate(90)">
			<title>Sheet.1446</title>
			<path d="M0 355.5 L112.5 355.5" class="st1"/>
		</g>
		<g id="shape1447-263" v:mID="1447" v:groupContext="shape" transform="translate(164.25,629.878) rotate(180)">
			<title>Sheet.1447</title>
			<path d="M0 355.5 L98.64 355.5" class="st1"/>
		</g>
		<g id="shape1448-266" v:mID="1448" v:groupContext="shape" transform="translate(519.749,256.379) rotate(90)">
			<title>Sheet.1448</title>
			<path d="M0 355.5 L18 355.5" class="st1"/>
		</g>
		<g id="shape1449-269" v:mID="1449" v:groupContext="shape" transform="translate(421.111,274.379) rotate(90)">
			<title>Sheet.1449</title>
			<path d="M0 355.5 L13.5 355.5" class="st1"/>
		</g>
		<g id="shape1450-272" v:mID="1450" v:groupContext="shape" transform="translate(74.6121,652.378) rotate(180)">
			<title>Sheet.1450</title>
			<path d="M0 355.5 L18 355.5" class="st1"/>
		</g>
		<g id="shape1451-275" v:mID="1451" v:groupContext="shape" transform="translate(55.8879,-152.396)">
			<title>Circle.147</title>
			<v:userDefs>
				<v:ud v:nameU="visVersion" v:val="VT0(11):26"/>
			</v:userDefs>
			<path d="M0 354.77 a0.724163 0.724163 0 0 1 1.44833 0 a0.724163 0.724163 0 1 1 -1.44833 0 Z" class="st7"/>
		</g>
		<g id="shape1452-277" v:mID="1452" v:groupContext="shape" transform="translate(46.8879,-143.396)">
			<title>Circle.148</title>
			<v:userDefs>
				<v:ud v:nameU="visVersion" v:val="VT0(11):26"/>
			</v:userDefs>
			<path d="M0 354.77 a0.724163 0.724163 0 0 1 1.44833 0 a0.724163 0.724163 0 1 1 -1.44833 0 Z" class="st7"/>
		</g>
		<g id="shape1453-279" v:mID="1453" v:groupContext="shape" transform="translate(37.8879,-134.396)">
			<title>Circle.149</title>
			<v:userDefs>
				<v:ud v:nameU="visVersion" v:val="VT0(11):26"/>
			</v:userDefs>
			<path d="M0 354.77 a0.724163 0.724163 0 0 1 1.44833 0 a0.724163 0.724163 0 1 1 -1.44833 0 Z" class="st7"/>
		</g>
		<g id="shape1454-281" v:mID="1454" v:groupContext="shape" transform="translate(46.8879,-237.896)">
			<title>Circle.150</title>
			<v:userDefs>
				<v:ud v:nameU="visVersion" v:val="VT0(11):26"/>
			</v:userDefs>
			<path d="M0 354.77 a0.724163 0.724163 0 0 1 1.44833 0 a0.724163 0.724163 0 1 1 -1.44833 0 Z" class="st7"/>
		</g>
		<g id="shape1455-283" v:mID="1455" v:groupContext="shape" transform="translate(37.8879,-228.896)">
			<title>Circle.151</title>
			<v:userDefs>
				<v:ud v:nameU="visVersion" v:val="VT0(11):26"/>
			</v:userDefs>
			<path d="M0 354.77 a0.724163 0.724163 0 0 1 1.44833 0 a0.724163 0.724163 0 1 1 -1.44833 0 Z" class="st7"/>
		</g>
		<g id="shape1456-285" v:mID="1456" v:groupContext="shape" transform="translate(456.749,60.6288) rotate(90)">
			<title>Sheet.1456</title>
			<path d="M0 355.5 L270 355.5" class="st1"/>
		</g>
		<g id="shape1457-288" v:mID="1457" v:groupContext="shape" transform="translate(100.526,-294.146)">
			<title>Circle.153</title>
			<v:userDefs>
				<v:ud v:nameU="visVersion" v:val="VT0(11):26"/>
			</v:userDefs>
			<path d="M0 354.77 a0.724163 0.724163 0 0 1 1.44833 0 a0.724163 0.724163 0 1 1 -1.44833 0 Z" class="st7"/>
		</g>
		<g id="shape1458-290" v:mID="1458" v:groupContext="shape" transform="translate(100.526,-204.146)">
			<title>Circle.154</title>
			<v:userDefs>
				<v:ud v:nameU="visVersion" v:val="VT0(11):26"/>
			</v:userDefs>
			<path d="M0 354.77 a0.724163 0.724163 0 0 1 1.44833 0 a0.724163 0.724163 0 1 1 -1.44833 0 Z" class="st7"/>
		</g>
		<g id="shape1459-292" v:mID="1459" v:groupContext="shape" transform="translate(100.526,-114.87)">
			<title>Circle.155</title>
			<v:userDefs>
				<v:ud v:nameU="visVersion" v:val="VT0(11):26"/>
			</v:userDefs>
			<path d="M0 354.77 a0.724163 0.724163 0 0 1 1.44833 0 a0.724163 0.724163 0 1 1 -1.44833 0 Z" class="st7"/>
		</g>
		<g id="shape1460-294" v:mID="1460" v:groupContext="shape" transform="translate(0,-328.62)">
			<title>Sheet.1460</title>
			<desc>CEN</desc>
			<v:textBlock v:margins="rect(0,0,0,0)" v:tabSpace="42.5197"/>
			<v:textRect cx="12.9375" cy="350.999" width="25.88" height="9"/>
			<path d="M25.87 346.5 L0 346.5 L0 355.5 L25.87 355.5 L25.87 346.5" class="st3"/>
			<text x="6.87" y="353.7" class="st4" v:langID="1033"><v:paragraph v:horizAlign="2"/><v:tabList/>CEN</text>		</g>
		<g id="shape1461-298" v:mID="1461" v:groupContext="shape" transform="translate(0.5625,-290.37)">
			<title>Sheet.1461</title>
			<desc>CLK</desc>
			<v:textBlock v:margins="rect(0,0,0,0)" v:tabSpace="42.5197"/>
			<v:textRect cx="12.9375" cy="350.999" width="25.88" height="9"/>
			<path d="M25.87 346.5 L0 346.5 L0 355.5 L25.87 355.5 L25.87 346.5" class="st3"/>
			<text x="8.37" y="353.7" class="st4" v:langID="1033"><v:paragraph v:horizAlign="2"/><v:tabList/>CLK</text>		</g>
		<g id="shape1462-302" v:mID="1462" v:groupContext="shape" transform="translate(37.8879,-332.396)">
			<title>Circle.158</title>
			<v:userDefs>
				<v:ud v:nameU="visVersion" v:val="VT0(11):26"/>
			</v:userDefs>
			<path d="M0 354.77 a0.724163 0.724163 0 0 1 1.44833 0 a0.724163 0.724163 0 1 1 -1.44833 0 Z" class="st7"/>
		</g>
		<g id="shape1463-304" v:mID="1463" v:groupContext="shape" transform="translate(200.25,368.878) rotate(180)">
			<title>Sheet.1463</title>
			<path d="M0 355.5 L27 355.5" class="st8"/>
		</g>
		<g id="shape1464-307" v:mID="1464" v:groupContext="shape" transform="translate(528.749,13.3788) rotate(90)">
			<title>Sheet.1464</title>
			<path d="M0 355.5 L319.5 355.5" class="st8"/>
		</g>
		<g id="shape1465-310" v:mID="1465" v:groupContext="shape" transform="translate(424.626,270.379) rotate(135)">
			<title>Sheet.1465</title>
			<path d="M0 355.5 L4.77 355.5" class="st1"/>
		</g>
		<g id="shape1466-313" v:mID="1466" v:groupContext="shape" transform="translate(424.626,283.879) rotate(135)">
			<title>Sheet.1466</title>
			<path d="M0 355.5 L4.77 355.5" class="st1"/>
		</g>
		<g id="shape1467-316" v:mID="1467" v:groupContext="shape" transform="translate(424.626,297.379) rotate(135)">
			<title>Sheet.1467</title>
			<path d="M0 355.5 L4.77 355.5" class="st1"/>
		</g>
		<g id="shape1468-319" v:mID="1468" v:groupContext="shape" transform="translate(424.626,310.879) rotate(135)">
			<title>Sheet.1468</title>
			<path d="M0 355.5 L4.77 355.5" class="st1"/>
		</g>
		<g id="shape1469-322" v:mID="1469" v:groupContext="shape" transform="translate(424.772,360.379) rotate(135)">
			<title>Sheet.1469</title>
			<path d="M0 355.5 L4.77 355.5" class="st1"/>
		</g>
		<g id="shape1470-325" v:mID="1470" v:groupContext="shape" transform="translate(424.772,373.879) rotate(135)">
			<title>Sheet.1470</title>
			<path d="M0 355.5 L4.77 355.5" class="st1"/>
		</g>
		<g id="shape1471-328" v:mID="1471" v:groupContext="shape" transform="translate(424.772,387.379) rotate(135)">
			<title>Sheet.1471</title>
			<path d="M0 355.5 L4.77 355.5" class="st1"/>
		</g>
		<g id="shape1472-331" v:mID="1472" v:groupContext="shape" transform="translate(424.772,400.879) rotate(135)">
			<title>Sheet.1472</title>
			<path d="M0 355.5 L4.77 355.5" class="st1"/>
		</g>
		<g id="shape1473-334" v:mID="1473" v:groupContext="shape" transform="translate(424.772,450.379) rotate(135)">
			<title>Sheet.1473</title>
			<path d="M0 355.5 L4.77 355.5" class="st1"/>
		</g>
		<g id="shape1474-337" v:mID="1474" v:groupContext="shape" transform="translate(424.772,463.879) rotate(135)">
			<title>Sheet.1474</title>
			<path d="M0 355.5 L4.77 355.5" class="st1"/>
		</g>
		<g id="shape1475-340" v:mID="1475" v:groupContext="shape" transform="translate(424.772,477.379) rotate(135)">
			<title>Sheet.1475</title>
			<path d="M0 355.5 L4.77 355.5" class="st1"/>
		</g>
		<g id="shape1476-343" v:mID="1476" v:groupContext="shape" transform="translate(424.772,490.879) rotate(135)">
			<title>Sheet.1476</title>
			<path d="M0 355.5 L4.77 355.5" class="st1"/>
		</g>
		<g id="shape1477-346" v:mID="1477" v:groupContext="shape" transform="translate(424.772,540.379) rotate(135)">
			<title>Sheet.1477</title>
			<path d="M0 355.5 L4.77 355.5" class="st1"/>
		</g>
		<g id="shape1478-349" v:mID="1478" v:groupContext="shape" transform="translate(424.772,553.879) rotate(135)">
			<title>Sheet.1478</title>
			<path d="M0 355.5 L4.77 355.5" class="st1"/>
		</g>
		<g id="shape1479-352" v:mID="1479" v:groupContext="shape" transform="translate(424.772,567.379) rotate(135)">
			<title>Sheet.1479</title>
			<path d="M0 355.5 L4.77 355.5" class="st1"/>
		</g>
		<g id="shape1480-355" v:mID="1480" v:groupContext="shape" transform="translate(424.772,580.879) rotate(135)">
			<title>Sheet.1480</title>
			<path d="M0 355.5 L4.77 355.5" class="st1"/>
		</g>
		<g id="shape1481-358" v:mID="1481" v:groupContext="shape" transform="translate(504.718,168.676) rotate(116.565)">
			<title>Sheet.1481</title>
			<path d="M0 355.5 L7.55 355.5" class="st1"/>
		</g>
		<g id="shape1482-361" v:mID="1482" v:groupContext="shape" transform="translate(177.75,-343.245)">
			<title>Sheet.1482</title>
			<desc>16</desc>
			<v:textBlock v:margins="rect(0,0,0,0)" v:tabSpace="42.5197"/>
			<v:textRect cx="6.75" cy="349.372" width="13.5" height="12.2538"/>
			<path d="M13.5 343.24 L0 343.24 L0 355.5 L13.5 355.5 L13.5 343.24" class="st3"/>
			<text x="4.6" y="351.77" class="st9" v:langID="1033"><v:paragraph v:horizAlign="2"/><v:tabList/>16</text>		</g>
	</g>
</svg>
