<?xml version="1.0" encoding="UTF-8" standalone="no"?>
<!DOCTYPE svg PUBLIC "-//W3C//DTD SVG 1.1//EN" "http://www.w3.org/Graphics/SVG/1.1/DTD/svg11.dtd">
<!-- Generated by Microsoft Visio, SVG Export CondInv.svg Page-1 -->
<svg xmlns="http://www.w3.org/2000/svg" xmlns:xlink="http://www.w3.org/1999/xlink" xmlns:ev="http://www.w3.org/2001/xml-events"
		xmlns:v="http://schemas.microsoft.com/visio/2003/SVGExtensions/" width="2.08812in" height="0.588336in"
		viewBox="0 0 150.345 42.3602" xml:space="preserve" color-interpolation-filters="sRGB" class="st4">
	<v:documentProperties v:langID="1033" v:viewMarkup="false"/>

	<style type="text/css">
	<![CDATA[
		.st1 {stroke:#000000;stroke-linecap:round;stroke-linejoin:round;stroke-width:0.72}
		.st2 {fill:none;stroke:none;stroke-linecap:round;stroke-linejoin:round;stroke-width:0.72}
		.st3 {fill:#000000;font-family:Arial;font-size:0.833336em}
		.st4 {fill:none;fill-rule:evenodd;font-size:12px;overflow:visible;stroke-linecap:square;stroke-miterlimit:3}
	]]>
	</style>

	<g v:mID="0" v:index="1" v:groupContext="foregroundPage">
		<title>Page-1</title>
		<v:pageProperties v:drawingScale="1" v:pageScale="1" v:drawingUnits="19" v:shadowOffsetX="9" v:shadowOffsetY="-9"/>
		<g id="group1-1" transform="translate(38.61,-2.62518)" v:mID="1" v:groupContext="group">
			<title>Sheet.1</title>
			<g id="shape2-2" v:mID="2" v:groupContext="shape" transform="translate(0,-9)">
				<title>Sheet.2</title>
				<path d="M2.74 42.36 L2.74 40.43 L2.4 38.18 L2.06 36.57 L1.09 34.82 L0 33.36 L9.6 33.36 L12.34 33.68 L14.4 34.32
							 L16.45 35.29 L17.33 36.02 L18.43 36.96 L19.88 39.15 L21.94 42.36" class="st1"/>
			</g>
			<g id="shape3-5" v:mID="3" v:groupContext="shape" transform="translate(0,75.7204) scale(1,-1)">
				<title>Sheet.3</title>
				<path d="M2.74 42.36 L2.74 40.43 L2.4 38.18 L2.06 36.57 L1.09 34.82 L0 33.36 L9.6 33.36 L12.34 33.68 L14.4 34.32
							 L16.45 35.29 L17.33 36.02 L18.43 36.96 L19.88 39.15 L21.94 42.36" class="st1"/>
			</g>
		</g>
		<g id="shape4-8" v:mID="4" v:groupContext="shape" transform="translate(34.11,-2.62518)">
			<title>Sheet.4</title>
			<path d="M0 24.36 A11.6663 5.104 90 0 1 4.5 33.36 A9 4.5 90 0 1 0 42.36" class="st1"/>
		</g>
		<g id="shape5-11" v:mID="5" v:groupContext="shape" transform="translate(29.6093,-16.1252) rotate(-0.000881311)">
			<title>Sheet.5</title>
			<path d="M0 42.36 L8.07 42.36" class="st1"/>
		</g>
		<g id="shape6-14" v:mID="6" v:groupContext="shape" transform="translate(38.0245,77.5919) rotate(179.978)">
			<title>Sheet.6</title>
			<path d="M0 42.36 L8.4 42.36" class="st1"/>
		</g>
		<g id="shape7-17" v:mID="7" v:groupContext="shape" transform="translate(60.5475,-11.6252)">
			<title>Sheet.7</title>
			<path d="M0 42.36 L5.06 42.36" class="st1"/>
		</g>
		<g id="shape8-20" v:mID="8" v:groupContext="shape" transform="translate(0.36,46.129) scale(1,-1)">
			<title>Sheet.8</title>
			<desc>Control</desc>
			<v:textBlock v:margins="rect(4,4,4,4)"/>
			<v:textRect cx="20.25" cy="35.6271" width="40.5" height="13.4661"/>
			<rect x="0" y="28.894" width="40.5" height="13.4661" class="st2"/>
			<text x="4.13" y="-32.63" transform="scale(1,-1)" class="st3" v:langID="1033"><v:paragraph v:horizAlign="1"/><v:tabList/>Control</text>		</g>
		<g id="shape9-23" v:mID="9" v:groupContext="shape" transform="translate(20.61,-16.1252)">
			<title>Sheet.9</title>
			<path d="M9 42.36 L0 42.36 L0 33.36" class="st1"/>
		</g>
		<g id="shape10-26" v:mID="10" v:groupContext="shape" transform="translate(29.6141,77.5943) rotate(179.994)">
			<title>Sheet.10</title>
			<path d="M0 42.36 L9 42.36" class="st1"/>
		</g>
		<g id="shape11-29" v:mID="11" v:groupContext="shape" transform="translate(4.86,73.0952) scale(1,-1)">
			<title>Sheet.11</title>
			<desc>A</desc>
			<v:textBlock v:margins="rect(4,4,4,4)"/>
			<v:textRect cx="6.75" cy="37.8602" width="13.5" height="9"/>
			<rect x="0" y="33.3602" width="13.5" height="9" class="st2"/>
			<text x="4" y="-34.86" transform="scale(1,-1)" class="st3" v:langID="1033"><v:paragraph v:horizAlign="2"/><v:tabList/>A</text>		</g>
		<g id="shape12-32" v:mID="12" v:groupContext="shape" transform="translate(66.735,68.5952) scale(1,-1)">
			<title>Sheet.12</title>
			<desc>Y</desc>
			<v:textBlock v:margins="rect(4,4,4,4)"/>
			<v:textRect cx="6.75" cy="37.8602" width="13.5" height="9"/>
			<rect x="0" y="33.3602" width="13.5" height="9" class="st2"/>
			<text x="4" y="-34.86" transform="scale(1,-1)" class="st3" v:langID="1033"><v:paragraph/><v:tabList/>Y</text>		</g>
		<g id="shape13-35" v:mID="13" v:groupContext="shape" transform="translate(88.11,42.7202) scale(1,-1)">
			<title>Sheet.13</title>
			<desc>Control</desc>
			<v:textBlock v:margins="rect(4,4,4,4)"/>
			<v:textRect cx="27" cy="35.6102" width="54" height="13.5"/>
			<rect x="0" y="28.8602" width="54" height="13.5" class="st2"/>
			<text x="10.88" y="-32.61" transform="scale(1,-1)" class="st3" v:langID="1033"><v:paragraph v:horizAlign="1"/><v:tabList/>Control</text>		</g>
		<g id="shape14-38" v:mID="14" v:groupContext="shape" transform="translate(136.485,42.7202) scale(1,-1)">
			<title>Sheet.14</title>
			<desc>Y</desc>
			<v:textBlock v:margins="rect(4,4,4,4)"/>
			<v:textRect cx="6.75" cy="35.6102" width="13.5" height="13.5"/>
			<rect x="0" y="28.8602" width="13.5" height="13.5" class="st2"/>
			<text x="4" y="-32.61" transform="scale(1,-1)" class="st3" v:langID="1033"><v:paragraph/><v:tabList/>Y</text>		</g>
		<g id="shape15-41" v:mID="15" v:groupContext="shape" transform="translate(147.735,56.2202) rotate(180)">
			<title>Sheet.15</title>
			<path d="M0 42.36 L47.25 42.36" class="st1"/>
		</g>
		<g id="shape16-44" v:mID="16" v:groupContext="shape" transform="translate(92.9998,40.86) rotate(-90)">
			<title>Sheet.16</title>
			<path d="M0 42.36 L38.25 42.36" class="st1"/>
		</g>
		<g id="shape17-47" v:mID="17" v:groupContext="shape" transform="translate(110.61,60.7202) scale(1,-1)">
			<title>Sheet.17</title>
			<desc>0</desc>
			<v:textBlock v:margins="rect(4,4,4,4)"/>
			<v:textRect cx="6.75" cy="37.8602" width="13.5" height="9"/>
			<rect x="0" y="33.3602" width="13.5" height="9" class="st2"/>
			<text x="4" y="-34.86" transform="scale(1,-1)" class="st3" v:langID="1033"><v:paragraph/><v:tabList/>0</text>		</g>
		<g id="shape18-50" v:mID="18" v:groupContext="shape" transform="translate(110.61,74.2202) scale(1,-1)">
			<title>Sheet.18</title>
			<desc>1</desc>
			<v:textBlock v:margins="rect(4,4,4,4)"/>
			<v:textRect cx="6.75" cy="37.8602" width="13.5" height="9"/>
			<rect x="0" y="33.3602" width="13.5" height="9" class="st2"/>
			<text x="4" y="-34.86" transform="scale(1,-1)" class="st3" v:langID="1033"><v:paragraph/><v:tabList/>1</text>		</g>
		<g id="shape19-53" v:mID="19" v:groupContext="shape" transform="translate(136.485,60.7202) scale(1,-1)">
			<title>Sheet.19</title>
			<desc>A</desc>
			<v:textBlock v:margins="rect(4,4,4,4)"/>
			<v:textRect cx="6.75" cy="37.8602" width="13.5" height="9"/>
			<rect x="0" y="33.3602" width="13.5" height="9" class="st2"/>
			<text x="4" y="-34.86" transform="scale(1,-1)" class="st3" v:langID="1033"><v:paragraph/><v:tabList/>A</text>		</g>
		<g id="shape20-56" v:mID="20" v:groupContext="shape" transform="translate(136.485,74.2202) scale(1,-1)">
			<title>Sheet.20</title>
			<desc>A</desc>
			<v:textBlock v:margins="rect(4,4,4,4)"/>
			<v:textRect cx="6.75" cy="37.8602" width="13.5" height="9"/>
			<rect x="0" y="33.3602" width="13.5" height="9" class="st2"/>
			<text x="4" y="-34.86" transform="scale(1,-1)" class="st3" v:langID="1033"><v:paragraph/><v:tabList/>A</text>		</g>
		<g id="shape21-59" v:mID="21" v:groupContext="shape" transform="translate(147.735,72.8139) rotate(180)">
			<title>Sheet.21</title>
			<path d="M0 42.36 L7.87 42.36" class="st1"/>
		</g>
	</g>
</svg>
