<?xml version="1.0" encoding="UTF-8" standalone="no"?>
<!DOCTYPE svg PUBLIC "-//W3C//DTD SVG 1.1//EN" "http://www.w3.org/Graphics/SVG/1.1/DTD/svg11.dtd">
<!-- Generated by Microsoft Visio, SVG Export ClkDividerDiagram.svg Page-1 -->
<svg xmlns="http://www.w3.org/2000/svg" xmlns:xlink="http://www.w3.org/1999/xlink" xmlns:ev="http://www.w3.org/2001/xml-events"
		xmlns:v="http://schemas.microsoft.com/visio/2003/SVGExtensions/" width="6.9399in" height="2.36921in"
		viewBox="0 0 499.673 170.583" xml:space="preserve" color-interpolation-filters="sRGB" class="st10">
	<v:documentProperties v:langID="1033" v:viewMarkup="false"/>

	<style type="text/css">
	<![CDATA[
		.st1 {fill:#d5e1fb;stroke:#000000;stroke-linecap:round;stroke-linejoin:round;stroke-width:0.24}
		.st2 {stroke:#000000;stroke-linecap:round;stroke-linejoin:round;stroke-width:0.72}
		.st3 {fill:none;stroke:none;stroke-linecap:round;stroke-linejoin:round;stroke-width:0.72}
		.st4 {fill:#000000;font-family:Arial;font-size:0.833336em}
		.st5 {fill:#ffffff;stroke:#000000;stroke-linecap:round;stroke-linejoin:round;stroke-width:0.72}
		.st6 {stroke:#000000;stroke-linecap:round;stroke-linejoin:round;stroke-width:0.75}
		.st7 {stroke:#000000;stroke-dasharray:0.75,1.5;stroke-linecap:round;stroke-linejoin:round;stroke-width:0.75}
		.st8 {fill:#000000;font-family:Arial;font-size:0.666664em}
		.st9 {fill:#923931;font-size:1em}
		.st10 {fill:none;fill-rule:evenodd;font-size:12px;overflow:visible;stroke-linecap:square;stroke-miterlimit:3}
	]]>
	</style>

	<g v:mID="0" v:index="1" v:groupContext="foregroundPage">
		<title>Page-1</title>
		<v:pageProperties v:drawingScale="1" v:pageScale="1" v:drawingUnits="19" v:shadowOffsetX="9" v:shadowOffsetY="-9"/>
		<g id="shape1-1" v:mID="1" v:groupContext="shape" transform="translate(47.625,-15.0388)">
			<title>Rectangle</title>
			<rect x="0" y="112.083" width="40.5" height="58.5" class="st1"/>
		</g>
		<g id="shape2-3" v:mID="2" v:groupContext="shape" transform="translate(38.625,-42.0388)">
			<title>Sheet.2</title>
			<path d="M0 170.58 L9 170.58" class="st2"/>
		</g>
		<g id="shape3-6" v:mID="3" v:groupContext="shape" transform="translate(38.625,-65.3287)">
			<title>Sheet.3</title>
			<path d="M0 170.58 L9 170.58" class="st2"/>
		</g>
		<g id="shape4-9" v:mID="4" v:groupContext="shape" transform="translate(38.625,-6.03882)">
			<title>Sheet.4</title>
			<path d="M0 170.58 L238.5 170.58" class="st2"/>
		</g>
		<g id="shape5-12" v:mID="5" v:groupContext="shape" transform="translate(88.125,-64.5388)">
			<title>Sheet.5</title>
			<path d="M0 170.58 L9 170.58" class="st2"/>
		</g>
		<g id="shape6-15" v:mID="6" v:groupContext="shape" transform="translate(45.375,-57.7888)">
			<title>Sheet.6</title>
			<desc>D</desc>
			<v:textBlock v:margins="rect(4,4,4,4)"/>
			<v:textRect cx="9" cy="163.833" width="18" height="13.5"/>
			<rect x="0" y="157.083" width="18" height="13.5" class="st3"/>
			<text x="5.39" y="166.83" class="st4" v:langID="1033"><v:paragraph v:horizAlign="1"/><v:tabList/>D</text>		</g>
		<g id="shape7-18" v:mID="7" v:groupContext="shape" transform="translate(72.375,-57.7888)">
			<title>Sheet.7</title>
			<desc>Q</desc>
			<v:textBlock v:margins="rect(4,4,4,4)"/>
			<v:textRect cx="9" cy="163.833" width="18" height="13.5"/>
			<rect x="0" y="157.083" width="18" height="13.5" class="st3"/>
			<text x="5.11" y="166.83" class="st4" v:langID="1033"><v:paragraph v:horizAlign="1"/><v:tabList/>Q</text>		</g>
		<g id="shape8-21" v:mID="8" v:groupContext="shape" transform="translate(49.875,-35.2888)">
			<title>Sheet.8</title>
			<desc>Clk</desc>
			<v:textBlock v:margins="rect(4,4,4,4)"/>
			<v:textRect cx="14.625" cy="163.833" width="29.25" height="13.5"/>
			<rect x="0" y="157.083" width="29.25" height="13.5" class="st3"/>
			<text x="7.4" y="166.83" class="st4" v:langID="1033"><v:paragraph v:horizAlign="1"/><v:tabList/>Clk</text>		</g>
		<g id="shape9-24" v:mID="9" v:groupContext="shape" transform="translate(56.625,-15.0388)">
			<title>Sheet.9</title>
			<desc>Rst</desc>
			<v:textBlock v:margins="rect(4,4,4,4)"/>
			<v:textRect cx="11.8125" cy="166.083" width="23.63" height="9"/>
			<rect x="0" y="161.583" width="23.625" height="9" class="st3"/>
			<text x="4.31" y="169.08" class="st4" v:langID="1033"><v:paragraph v:horizAlign="1"/><v:tabList/>Rst</text>		</g>
		<g id="shape10-27" v:mID="10" v:groupContext="shape" transform="translate(47.625,-37.5388)">
			<title>Sheet.10</title>
			<path d="M0 170.58 L6.75 166.08 L0 161.58" class="st2"/>
		</g>
		<g id="shape11-30" v:mID="11" v:groupContext="shape" transform="translate(29.625,-65.3287)">
			<title>Sheet.11</title>
			<path d="M0 170.58 L9 170.58" class="st2"/>
		</g>
		<g id="shape12-33" v:mID="12" v:groupContext="shape" transform="translate(17.551,269.087) scale(1,-1)">
			<title>Sheet.12</title>
			<path d="M0 157.08 L0 170.58 L11.72 163.74 L0 157.08 ZM11.72 163.74 L12.08 164.82 L12.98 165.36 L13.89 165.36 L14.79
						 164.82 L15.15 163.74 L14.79 162.84 L13.89 162.12 L12.98 162.12 L12.08 162.84 L11.72 163.74 Z" class="st5"/>
		</g>
		<g id="shape13-35" v:mID="13" v:groupContext="shape" transform="translate(0.375,-64.5388)">
			<title>Sheet.13</title>
			<path d="M103.5 170.58 L103.5 156.01 L0 156.01" class="st6"/>
		</g>
		<g id="shape14-38" v:mID="14" v:groupContext="shape" transform="translate(0.375,-65.61)">
			<title>Sheet.14</title>
			<path d="M0 157.08 L0 170.58 L17.18 170.58" class="st6"/>
		</g>
		<g id="shape15-41" v:mID="15" v:groupContext="shape" transform="translate(38.625,299.127) rotate(180)">
			<title>Sheet.15</title>
			<path d="M0 170.58 L24.75 170.58" class="st6"/>
		</g>
		<g id="shape16-44" v:mID="16" v:groupContext="shape" transform="translate(-102.708,164.544) rotate(-90)">
			<title>Sheet.16</title>
			<path d="M0 170.58 L9 170.58" class="st6"/>
		</g>
		<g id="shape17-47" v:mID="17" v:groupContext="shape" transform="translate(128.625,-37.5388)">
			<title>Rectangle.21</title>
			<rect x="0" y="112.083" width="40.5" height="58.5" class="st1"/>
		</g>
		<g id="shape18-49" v:mID="18" v:groupContext="shape" transform="translate(119.625,-64.5388)">
			<title>Sheet.18</title>
			<path d="M0 170.58 L9 170.58" class="st2"/>
		</g>
		<g id="shape19-52" v:mID="19" v:groupContext="shape" transform="translate(119.625,-87.8287)">
			<title>Sheet.19</title>
			<path d="M0 170.58 L9 170.58" class="st2"/>
		</g>
		<g id="shape20-55" v:mID="20" v:groupContext="shape" transform="translate(169.125,-87.0388)">
			<title>Sheet.20</title>
			<path d="M0 170.58 L9 170.58" class="st2"/>
		</g>
		<g id="shape21-58" v:mID="21" v:groupContext="shape" transform="translate(126.375,-80.2888)">
			<title>Sheet.21</title>
			<desc>D</desc>
			<v:textBlock v:margins="rect(4,4,4,4)"/>
			<v:textRect cx="9" cy="163.833" width="18" height="13.5"/>
			<rect x="0" y="157.083" width="18" height="13.5" class="st3"/>
			<text x="5.39" y="166.83" class="st4" v:langID="1033"><v:paragraph v:horizAlign="1"/><v:tabList/>D</text>		</g>
		<g id="shape22-61" v:mID="22" v:groupContext="shape" transform="translate(153.375,-80.2888)">
			<title>Sheet.22</title>
			<desc>Q</desc>
			<v:textBlock v:margins="rect(4,4,4,4)"/>
			<v:textRect cx="9" cy="163.833" width="18" height="13.5"/>
			<rect x="0" y="157.083" width="18" height="13.5" class="st3"/>
			<text x="5.11" y="166.83" class="st4" v:langID="1033"><v:paragraph v:horizAlign="1"/><v:tabList/>Q</text>		</g>
		<g id="shape23-64" v:mID="23" v:groupContext="shape" transform="translate(130.875,-57.7888)">
			<title>Sheet.23</title>
			<desc>Clk</desc>
			<v:textBlock v:margins="rect(4,4,4,4)"/>
			<v:textRect cx="14.625" cy="163.833" width="29.25" height="13.5"/>
			<rect x="0" y="157.083" width="29.25" height="13.5" class="st3"/>
			<text x="7.4" y="166.83" class="st4" v:langID="1033"><v:paragraph v:horizAlign="1"/><v:tabList/>Clk</text>		</g>
		<g id="shape24-67" v:mID="24" v:groupContext="shape" transform="translate(137.625,-37.5388)">
			<title>Sheet.24</title>
			<desc>Rst</desc>
			<v:textBlock v:margins="rect(4,4,4,4)"/>
			<v:textRect cx="11.8125" cy="166.083" width="23.63" height="9"/>
			<rect x="0" y="161.583" width="23.625" height="9" class="st3"/>
			<text x="4.31" y="169.08" class="st4" v:langID="1033"><v:paragraph v:horizAlign="1"/><v:tabList/>Rst</text>		</g>
		<g id="shape25-70" v:mID="25" v:groupContext="shape" transform="translate(128.625,-60.0388)">
			<title>Sheet.25</title>
			<path d="M0 170.58 L6.75 166.08 L0 161.58" class="st2"/>
		</g>
		<g id="shape26-73" v:mID="26" v:groupContext="shape" transform="translate(110.625,-87.8287)">
			<title>Sheet.26</title>
			<path d="M0 170.58 L9 170.58" class="st2"/>
		</g>
		<g id="shape27-76" v:mID="27" v:groupContext="shape" transform="translate(98.551,246.587) scale(1,-1)">
			<title>Sheet.27</title>
			<path d="M0 157.08 L0 170.58 L11.72 163.74 L0 157.08 ZM11.72 163.74 L12.08 164.82 L12.98 165.36 L13.89 165.36 L14.79
						 164.82 L15.15 163.74 L14.79 162.84 L13.89 162.12 L12.98 162.12 L12.08 162.84 L11.72 163.74 Z" class="st5"/>
		</g>
		<g id="shape28-78" v:mID="28" v:groupContext="shape" transform="translate(81.375,-87.0388)">
			<title>Sheet.28</title>
			<path d="M103.5 170.58 L103.5 154.89 L0 154.89" class="st6"/>
		</g>
		<g id="shape29-81" v:mID="29" v:groupContext="shape" transform="translate(81.375,-88.11)">
			<title>Sheet.29</title>
			<path d="M0 156.01 L0 170.58 L17.18 170.58" class="st6"/>
		</g>
		<g id="shape30-84" v:mID="30" v:groupContext="shape" transform="translate(119.625,276.627) rotate(180)">
			<title>Sheet.30</title>
			<path d="M0 170.58 L24.75 170.58" class="st6"/>
		</g>
		<g id="shape31-87" v:mID="31" v:groupContext="shape" transform="translate(-21.7081,164.544) rotate(-90)">
			<title>Sheet.31</title>
			<path d="M0 170.58 L31.5 170.58" class="st6"/>
		</g>
		<g id="shape32-90" v:mID="32" v:groupContext="shape" transform="translate(210.75,-60.0388)">
			<title>Rectangle.103</title>
			<rect x="0" y="112.083" width="40.5" height="58.5" class="st1"/>
		</g>
		<g id="shape33-92" v:mID="33" v:groupContext="shape" transform="translate(201.75,-87.0388)">
			<title>Sheet.33</title>
			<path d="M0 170.58 L9 170.58" class="st2"/>
		</g>
		<g id="shape34-95" v:mID="34" v:groupContext="shape" transform="translate(201.75,-110.329)">
			<title>Sheet.34</title>
			<path d="M0 170.58 L9 170.58" class="st2"/>
		</g>
		<g id="shape35-98" v:mID="35" v:groupContext="shape" transform="translate(208.5,-102.789)">
			<title>Sheet.35</title>
			<desc>D</desc>
			<v:textBlock v:margins="rect(4,4,4,4)"/>
			<v:textRect cx="9" cy="163.833" width="18" height="13.5"/>
			<rect x="0" y="157.083" width="18" height="13.5" class="st3"/>
			<text x="5.39" y="166.83" class="st4" v:langID="1033"><v:paragraph v:horizAlign="1"/><v:tabList/>D</text>		</g>
		<g id="shape36-101" v:mID="36" v:groupContext="shape" transform="translate(235.5,-102.789)">
			<title>Sheet.36</title>
			<desc>Q</desc>
			<v:textBlock v:margins="rect(4,4,4,4)"/>
			<v:textRect cx="9" cy="163.833" width="18" height="13.5"/>
			<rect x="0" y="157.083" width="18" height="13.5" class="st3"/>
			<text x="5.11" y="166.83" class="st4" v:langID="1033"><v:paragraph v:horizAlign="1"/><v:tabList/>Q</text>		</g>
		<g id="shape37-104" v:mID="37" v:groupContext="shape" transform="translate(213,-80.2888)">
			<title>Sheet.37</title>
			<desc>Clk</desc>
			<v:textBlock v:margins="rect(4,4,4,4)"/>
			<v:textRect cx="14.625" cy="163.833" width="29.25" height="13.5"/>
			<rect x="0" y="157.083" width="29.25" height="13.5" class="st3"/>
			<text x="7.4" y="166.83" class="st4" v:langID="1033"><v:paragraph v:horizAlign="1"/><v:tabList/>Clk</text>		</g>
		<g id="shape38-107" v:mID="38" v:groupContext="shape" transform="translate(219.75,-60.0388)">
			<title>Sheet.38</title>
			<desc>Rst</desc>
			<v:textBlock v:margins="rect(4,4,4,4)"/>
			<v:textRect cx="11.8125" cy="166.083" width="23.63" height="9"/>
			<rect x="0" y="161.583" width="23.625" height="9" class="st3"/>
			<text x="4.31" y="169.08" class="st4" v:langID="1033"><v:paragraph v:horizAlign="1"/><v:tabList/>Rst</text>		</g>
		<g id="shape39-110" v:mID="39" v:groupContext="shape" transform="translate(210.75,-82.5388)">
			<title>Sheet.39</title>
			<path d="M0 170.58 L6.75 166.08 L0 161.58" class="st2"/>
		</g>
		<g id="shape40-113" v:mID="40" v:groupContext="shape" transform="translate(192.75,-110.329)">
			<title>Sheet.40</title>
			<path d="M0 170.58 L9 170.58" class="st2"/>
		</g>
		<g id="shape41-116" v:mID="41" v:groupContext="shape" transform="translate(180.676,224.087) scale(1,-1)">
			<title>Sheet.41</title>
			<path d="M0 157.08 L0 170.58 L11.72 163.74 L0 157.08 ZM11.72 163.74 L12.08 164.82 L12.98 165.36 L13.89 165.36 L14.79
						 164.82 L15.15 163.74 L14.79 162.84 L13.89 162.12 L12.98 162.12 L12.08 162.84 L11.72 163.74 Z" class="st5"/>
		</g>
		<g id="shape42-118" v:mID="42" v:groupContext="shape" transform="translate(163.5,-109.539)">
			<title>Sheet.42</title>
			<path d="M103.5 170.58 L103.5 156.01 L0 156.01" class="st6"/>
		</g>
		<g id="shape43-121" v:mID="43" v:groupContext="shape" transform="translate(163.5,-110.61)">
			<title>Sheet.43</title>
			<path d="M0 157.08 L0 170.58 L17.18 170.58" class="st6"/>
		</g>
		<g id="shape44-124" v:mID="44" v:groupContext="shape" transform="translate(201.75,254.127) rotate(180)">
			<title>Sheet.44</title>
			<path d="M0 170.58 L24.75 170.58" class="st6"/>
		</g>
		<g id="shape45-127" v:mID="45" v:groupContext="shape" transform="translate(60.4169,164.544) rotate(-90)">
			<title>Sheet.45</title>
			<path d="M0 170.58 L54 170.58" class="st6"/>
		</g>
		<g id="shape46-130" v:mID="46" v:groupContext="shape" transform="translate(337.875,-82.5119)">
			<title>Rectangle.135</title>
			<rect x="0" y="112.083" width="40.5" height="58.5" class="st1"/>
		</g>
		<g id="shape47-132" v:mID="47" v:groupContext="shape" transform="translate(328.875,-109.512)">
			<title>Sheet.47</title>
			<path d="M0 170.58 L9 170.58" class="st2"/>
		</g>
		<g id="shape48-135" v:mID="48" v:groupContext="shape" transform="translate(328.875,-132.802)">
			<title>Sheet.48</title>
			<path d="M0 170.58 L9 170.58" class="st2"/>
		</g>
		<g id="shape49-138" v:mID="49" v:groupContext="shape" transform="translate(378.375,-132.012)">
			<title>Sheet.49</title>
			<path d="M0 170.58 L9 170.58" class="st2"/>
		</g>
		<g id="shape50-141" v:mID="50" v:groupContext="shape" transform="translate(335.625,-125.262)">
			<title>Sheet.50</title>
			<desc>D</desc>
			<v:textBlock v:margins="rect(4,4,4,4)"/>
			<v:textRect cx="9" cy="163.833" width="18" height="13.5"/>
			<rect x="0" y="157.083" width="18" height="13.5" class="st3"/>
			<text x="5.39" y="166.83" class="st4" v:langID="1033"><v:paragraph v:horizAlign="1"/><v:tabList/>D</text>		</g>
		<g id="shape51-144" v:mID="51" v:groupContext="shape" transform="translate(362.625,-125.262)">
			<title>Sheet.51</title>
			<desc>Q</desc>
			<v:textBlock v:margins="rect(4,4,4,4)"/>
			<v:textRect cx="9" cy="163.833" width="18" height="13.5"/>
			<rect x="0" y="157.083" width="18" height="13.5" class="st3"/>
			<text x="5.11" y="166.83" class="st4" v:langID="1033"><v:paragraph v:horizAlign="1"/><v:tabList/>Q</text>		</g>
		<g id="shape52-147" v:mID="52" v:groupContext="shape" transform="translate(340.125,-102.762)">
			<title>Sheet.52</title>
			<desc>Clk</desc>
			<v:textBlock v:margins="rect(4,4,4,4)"/>
			<v:textRect cx="14.625" cy="163.833" width="29.25" height="13.5"/>
			<rect x="0" y="157.083" width="29.25" height="13.5" class="st3"/>
			<text x="7.4" y="166.83" class="st4" v:langID="1033"><v:paragraph v:horizAlign="1"/><v:tabList/>Clk</text>		</g>
		<g id="shape53-150" v:mID="53" v:groupContext="shape" transform="translate(346.875,-82.5119)">
			<title>Sheet.53</title>
			<desc>Rst</desc>
			<v:textBlock v:margins="rect(4,4,4,4)"/>
			<v:textRect cx="11.8125" cy="166.083" width="23.63" height="9"/>
			<rect x="0" y="161.583" width="23.625" height="9" class="st3"/>
			<text x="4.31" y="169.08" class="st4" v:langID="1033"><v:paragraph v:horizAlign="1"/><v:tabList/>Rst</text>		</g>
		<g id="shape54-153" v:mID="54" v:groupContext="shape" transform="translate(337.875,-105.012)">
			<title>Sheet.54</title>
			<path d="M0 170.58 L6.75 166.08 L0 161.58" class="st2"/>
		</g>
		<g id="shape55-156" v:mID="55" v:groupContext="shape" transform="translate(319.875,-132.802)">
			<title>Sheet.55</title>
			<path d="M0 170.58 L9 170.58" class="st2"/>
		</g>
		<g id="shape56-159" v:mID="56" v:groupContext="shape" transform="translate(307.801,201.614) scale(1,-1)">
			<title>Sheet.56</title>
			<path d="M0 157.08 L0 170.58 L11.72 163.74 L0 157.08 ZM11.72 163.74 L12.08 164.82 L12.98 165.36 L13.89 165.36 L14.79
						 164.82 L15.15 163.74 L14.79 162.84 L13.89 162.12 L12.98 162.12 L12.08 162.84 L11.72 163.74 Z" class="st5"/>
		</g>
		<g id="shape57-161" v:mID="57" v:groupContext="shape" transform="translate(290.625,-132.012)">
			<title>Sheet.57</title>
			<path d="M103.5 170.58 L103.5 156.01 L0 156.01" class="st6"/>
		</g>
		<g id="shape58-164" v:mID="58" v:groupContext="shape" transform="translate(290.625,-133.083)">
			<title>Sheet.58</title>
			<path d="M0 157.08 L0 170.58 L17.18 170.58" class="st6"/>
		</g>
		<g id="shape59-167" v:mID="59" v:groupContext="shape" transform="translate(328.875,231.654) rotate(180)">
			<title>Sheet.59</title>
			<path d="M0 170.58 L24.75 170.58" class="st6"/>
		</g>
		<g id="shape60-170" v:mID="60" v:groupContext="shape" transform="translate(187.542,164.544) rotate(-90)">
			<title>Sheet.60</title>
			<path d="M0 170.58 L76.47 170.58" class="st6"/>
		</g>
		<g id="shape61-173" v:mID="61" v:groupContext="shape" transform="translate(418.875,-105.012)">
			<title>Rectangle.151</title>
			<rect x="0" y="112.083" width="40.5" height="58.5" class="st1"/>
		</g>
		<g id="shape62-175" v:mID="62" v:groupContext="shape" transform="translate(409.875,-132.012)">
			<title>Sheet.62</title>
			<path d="M0 170.58 L9 170.58" class="st2"/>
		</g>
		<g id="shape63-178" v:mID="63" v:groupContext="shape" transform="translate(409.875,-155.302)">
			<title>Sheet.63</title>
			<path d="M0 170.58 L9 170.58" class="st2"/>
		</g>
		<g id="shape64-181" v:mID="64" v:groupContext="shape" transform="translate(459.375,-154.512)">
			<title>Sheet.64</title>
			<path d="M0 170.58 L9 170.58" class="st2"/>
		</g>
		<g id="shape65-184" v:mID="65" v:groupContext="shape" transform="translate(416.625,-147.762)">
			<title>Sheet.65</title>
			<desc>D</desc>
			<v:textBlock v:margins="rect(4,4,4,4)"/>
			<v:textRect cx="9" cy="163.833" width="18" height="13.5"/>
			<rect x="0" y="157.083" width="18" height="13.5" class="st3"/>
			<text x="5.39" y="166.83" class="st4" v:langID="1033"><v:paragraph v:horizAlign="1"/><v:tabList/>D</text>		</g>
		<g id="shape66-187" v:mID="66" v:groupContext="shape" transform="translate(443.625,-147.762)">
			<title>Sheet.66</title>
			<desc>Q</desc>
			<v:textBlock v:margins="rect(4,4,4,4)"/>
			<v:textRect cx="9" cy="163.833" width="18" height="13.5"/>
			<rect x="0" y="157.083" width="18" height="13.5" class="st3"/>
			<text x="5.11" y="166.83" class="st4" v:langID="1033"><v:paragraph v:horizAlign="1"/><v:tabList/>Q</text>		</g>
		<g id="shape67-190" v:mID="67" v:groupContext="shape" transform="translate(421.125,-125.262)">
			<title>Sheet.67</title>
			<desc>Clk</desc>
			<v:textBlock v:margins="rect(4,4,4,4)"/>
			<v:textRect cx="14.625" cy="163.833" width="29.25" height="13.5"/>
			<rect x="0" y="157.083" width="29.25" height="13.5" class="st3"/>
			<text x="7.4" y="166.83" class="st4" v:langID="1033"><v:paragraph v:horizAlign="1"/><v:tabList/>Clk</text>		</g>
		<g id="shape68-193" v:mID="68" v:groupContext="shape" transform="translate(427.875,-105.012)">
			<title>Sheet.68</title>
			<desc>Rst</desc>
			<v:textBlock v:margins="rect(4,4,4,4)"/>
			<v:textRect cx="11.8125" cy="166.083" width="23.63" height="9"/>
			<rect x="0" y="161.583" width="23.625" height="9" class="st3"/>
			<text x="4.31" y="169.08" class="st4" v:langID="1033"><v:paragraph v:horizAlign="1"/><v:tabList/>Rst</text>		</g>
		<g id="shape69-196" v:mID="69" v:groupContext="shape" transform="translate(418.875,-127.512)">
			<title>Sheet.69</title>
			<path d="M0 170.58 L6.75 166.08 L0 161.58" class="st2"/>
		</g>
		<g id="shape70-199" v:mID="70" v:groupContext="shape" transform="translate(400.875,-155.302)">
			<title>Sheet.70</title>
			<path d="M0 170.58 L9 170.58" class="st2"/>
		</g>
		<g id="shape71-202" v:mID="71" v:groupContext="shape" transform="translate(388.801,179.114) scale(1,-1)">
			<title>Sheet.71</title>
			<path d="M0 157.08 L0 170.58 L11.72 163.74 L0 157.08 ZM11.72 163.74 L12.08 164.82 L12.98 165.36 L13.89 165.36 L14.79
						 164.82 L15.15 163.74 L14.79 162.84 L13.89 162.12 L12.98 162.12 L12.08 162.84 L11.72 163.74 Z" class="st5"/>
		</g>
		<g id="shape72-204" v:mID="72" v:groupContext="shape" transform="translate(371.625,-154.512)">
			<title>Sheet.72</title>
			<path d="M103.5 170.58 L103.5 154.89 L0 154.89" class="st6"/>
		</g>
		<g id="shape73-207" v:mID="73" v:groupContext="shape" transform="translate(371.625,-155.583)">
			<title>Sheet.73</title>
			<path d="M0 156.01 L0 170.58 L17.18 170.58" class="st6"/>
		</g>
		<g id="shape74-210" v:mID="74" v:groupContext="shape" transform="translate(409.875,209.154) rotate(180)">
			<title>Sheet.74</title>
			<path d="M0 170.58 L24.75 170.58" class="st6"/>
		</g>
		<g id="shape75-213" v:mID="75" v:groupContext="shape" transform="translate(268.542,164.598) rotate(-90)">
			<title>Sheet.75</title>
			<path d="M0 170.58 L99.03 170.58" class="st6"/>
		</g>
		<g id="shape76-216" v:mID="76" v:groupContext="shape" transform="translate(277.125,231.681) rotate(180)">
			<title>Sheet.76</title>
			<path d="M0 170.58 L24.75 170.58" class="st6"/>
		</g>
		<g id="shape77-219" v:mID="77" v:groupContext="shape" transform="translate(303,231.654) rotate(180)">
			<title>Sheet.77</title>
			<path d="M0 170.58 L24.75 170.58" class="st7"/>
		</g>
		<g id="shape78-222" v:mID="78" v:groupContext="shape" transform="translate(493.125,186.654) rotate(180)">
			<title>Sheet.78</title>
			<path d="M0 170.58 L24.75 170.58" class="st6"/>
		</g>
		<g id="shape80-225" v:mID="80" v:groupContext="shape" transform="translate(87,-47.0415)">
			<title>Sheet.80</title>
			<desc>clkdiv[0] 50MHz</desc>
			<v:textBlock v:margins="rect(4,4,4,4)"/>
			<v:textRect cx="20.8125" cy="163.833" width="41.63" height="13.5"/>
			<rect x="0" y="157.083" width="41.625" height="13.5" class="st3"/>
			<text x="6.36" y="161.43" class="st8" v:langID="1033"><v:paragraph v:horizAlign="1"/><v:tabList/>clkdiv[0]<v:newlineChar/><tspan
						x="8.14" dy="1.2em" class="st9">50</tspan><tspan class="st9">MHz</tspan></text>		</g>
		<g id="shape86-230" v:mID="86" v:groupContext="shape" transform="translate(301.875,335.127) rotate(180)">
			<title>Sheet.86</title>
			<path d="M0 170.58 L24.75 170.58" class="st7"/>
		</g>
		<g id="shape87-233" v:mID="87" v:groupContext="shape" transform="translate(304.193,-6.03881) rotate(0.0228434)">
			<title>Sheet.87</title>
			<path d="M0 170.58 L135 170.58" class="st2"/>
		</g>
		<g id="shape88-236" v:mID="88" v:groupContext="shape" transform="translate(9.375,-0.36)">
			<title>Sheet.88</title>
			<desc>rst</desc>
			<v:textBlock v:margins="rect(4,4,4,4)"/>
			<v:textRect cx="20.25" cy="163.833" width="40.5" height="13.5"/>
			<rect x="0" y="157.083" width="40.5" height="13.5" class="st3"/>
			<text x="15.81" y="166.23" class="st8" v:langID="1033"><v:paragraph v:horizAlign="1"/><v:tabList/>rst</text>		</g>
		<g id="shape89-239" v:mID="89" v:groupContext="shape" transform="translate(169.688,-69.5415)">
			<title>Sheet.89</title>
			<desc>clkdiv[1] 25MHz</desc>
			<v:textBlock v:margins="rect(4,4,4,4)"/>
			<v:textRect cx="20.8125" cy="163.833" width="41.63" height="13.5"/>
			<rect x="0" y="157.083" width="41.625" height="13.5" class="st3"/>
			<text x="6.36" y="161.43" class="st8" v:langID="1033"><v:paragraph v:horizAlign="1"/><v:tabList/>clkdiv[1]<v:newlineChar/><tspan
						x="8.14" dy="1.2em" class="st9">25</tspan><tspan class="st9">MHz</tspan></text>		</g>
		<g id="shape92-244" v:mID="92" v:groupContext="shape" transform="translate(246.75,-92.0415)">
			<title>Sheet.92</title>
			<desc>clkdiv[2] 12.5MHz</desc>
			<v:textBlock v:margins="rect(4,4,4,4)"/>
			<v:textRect cx="20.8125" cy="163.833" width="41.63" height="13.5"/>
			<rect x="0" y="157.083" width="41.625" height="13.5" class="st3"/>
			<text x="6.36" y="161.43" class="st8" v:langID="1033"><v:paragraph v:horizAlign="1"/><v:tabList/>clkdiv[2]<v:newlineChar/><tspan
						x="4.81" dy="1.2em" class="st9">12</tspan><tspan class="st9">.</tspan><tspan class="st9">5</tspan><tspan
						class="st9">MHz</tspan></text>		</g>
		<g id="shape93-251" v:mID="93" v:groupContext="shape" transform="translate(1.5,-24.5415)">
			<title>Sheet.93</title>
			<desc>clkdiv[0] 100MHz</desc>
			<v:textBlock v:margins="rect(4,4,4,4)"/>
			<v:textRect cx="20.8125" cy="163.833" width="41.63" height="13.5"/>
			<rect x="0" y="157.083" width="41.625" height="13.5" class="st3"/>
			<text x="6.36" y="161.43" class="st8" v:langID="1033"><v:paragraph v:horizAlign="1"/><v:tabList/>clkdiv[0]<v:newlineChar/><tspan
						x="5.92" dy="1.2em" class="st9">100</tspan><tspan class="st9">MHz</tspan></text>		</g>
		<g id="shape94-256" v:mID="94" v:groupContext="shape" transform="translate(296.25,-92.0415)">
			<title>Sheet.94</title>
			<desc>clkdiv[24] 2.98Hz</desc>
			<v:textBlock v:margins="rect(4,4,4,4)"/>
			<v:textRect cx="20.8125" cy="163.833" width="41.63" height="13.5"/>
			<rect x="0" y="157.083" width="41.625" height="13.5" class="st3"/>
			<text x="4.14" y="161.43" class="st8" v:langID="1033"><v:paragraph v:horizAlign="1"/><v:tabList/>clkdiv[24]<v:newlineChar/><tspan
						x="8.14" dy="1.2em" class="st9">2</tspan><tspan class="st9">.</tspan><tspan class="st9">98</tspan><tspan
						class="st9">Hz</tspan></text>		</g>
		<g id="shape95-263" v:mID="95" v:groupContext="shape" transform="translate(457.688,-137.042)">
			<title>Sheet.95</title>
			<desc>clkdiv[26] 0.745Hz</desc>
			<v:textBlock v:margins="rect(4,4,4,4)"/>
			<v:textRect cx="20.8125" cy="163.833" width="41.63" height="13.5"/>
			<rect x="0" y="157.083" width="41.625" height="13.5" class="st3"/>
			<text x="4.14" y="161.43" class="st8" v:langID="1033"><v:paragraph v:horizAlign="1"/><v:tabList/>clkdiv[26]<v:newlineChar/><tspan
						x="5.91" dy="1.2em" class="st9">0</tspan><tspan class="st9">.</tspan><tspan class="st9">745</tspan><tspan
						class="st9">Hz</tspan></text>		</g>
		<g id="shape96-270" v:mID="96" v:groupContext="shape" transform="translate(378.938,-115.667)">
			<title>Sheet.96</title>
			<desc>clkdiv[25] 1.49Hz</desc>
			<v:textBlock v:margins="rect(4,4,4,4)"/>
			<v:textRect cx="20.8125" cy="163.833" width="41.63" height="13.5"/>
			<rect x="0" y="157.083" width="41.625" height="13.5" class="st3"/>
			<text x="4.14" y="161.43" class="st8" v:langID="1033"><v:paragraph v:horizAlign="1"/><v:tabList/>clkdiv[25]<v:newlineChar/><tspan
						x="8.14" dy="1.2em" class="st9">1</tspan><tspan class="st9">.</tspan><tspan class="st9">49</tspan><tspan
						class="st9">Hz</tspan></text>		</g>
		<g id="shape97-277" v:mID="97" v:groupContext="shape" transform="translate(16.6875,-51.5415)">
			<title>Sheet.97</title>
			<desc>din[0]</desc>
			<v:textBlock v:margins="rect(4,4,4,4)"/>
			<v:textRect cx="20.8125" cy="163.833" width="41.63" height="13.5"/>
			<rect x="0" y="157.083" width="41.625" height="13.5" class="st3"/>
			<text x="11.03" y="166.23" class="st8" v:langID="1033"><v:paragraph v:horizAlign="1"/><v:tabList/>din[0]</text>		</g>
		<g id="shape98-280" v:mID="98" v:groupContext="shape" transform="translate(97.6875,-74.0415)">
			<title>Sheet.98</title>
			<desc>din[1]</desc>
			<v:textBlock v:margins="rect(4,4,4,4)"/>
			<v:textRect cx="20.8125" cy="163.833" width="41.63" height="13.5"/>
			<rect x="0" y="157.083" width="41.625" height="13.5" class="st3"/>
			<text x="11.03" y="166.23" class="st8" v:langID="1033"><v:paragraph v:horizAlign="1"/><v:tabList/>din[1]</text>		</g>
		<g id="shape99-283" v:mID="99" v:groupContext="shape" transform="translate(179.25,-96.5415)">
			<title>Sheet.99</title>
			<desc>din[2]</desc>
			<v:textBlock v:margins="rect(4,4,4,4)"/>
			<v:textRect cx="20.8125" cy="163.833" width="41.63" height="13.5"/>
			<rect x="0" y="157.083" width="41.625" height="13.5" class="st3"/>
			<text x="11.03" y="166.23" class="st8" v:langID="1033"><v:paragraph v:horizAlign="1"/><v:tabList/>din[2]</text>		</g>
		<g id="shape100-286" v:mID="100" v:groupContext="shape" transform="translate(304.688,-119.042)">
			<title>Sheet.100</title>
			<desc>din[25]</desc>
			<v:textBlock v:margins="rect(4,4,4,4)"/>
			<v:textRect cx="20.8125" cy="163.833" width="41.63" height="13.5"/>
			<rect x="0" y="157.083" width="41.625" height="13.5" class="st3"/>
			<text x="8.8" y="166.23" class="st8" v:langID="1033"><v:paragraph v:horizAlign="1"/><v:tabList/>din[25]</text>		</g>
		<g id="shape101-289" v:mID="101" v:groupContext="shape" transform="translate(386.25,-141.542)">
			<title>Sheet.101</title>
			<desc>din[26]</desc>
			<v:textBlock v:margins="rect(4,4,4,4)"/>
			<v:textRect cx="20.8125" cy="163.833" width="41.63" height="13.5"/>
			<rect x="0" y="157.083" width="41.625" height="13.5" class="st3"/>
			<text x="8.8" y="166.23" class="st8" v:langID="1033"><v:paragraph v:horizAlign="1"/><v:tabList/>din[26]</text>		</g>
	</g>
</svg>
