<?xml version="1.0" encoding="UTF-8" standalone="no"?>
<!DOCTYPE svg PUBLIC "-//W3C//DTD SVG 1.1//EN" "http://www.w3.org/Graphics/SVG/1.1/DTD/svg11.dtd">
<!-- Generated by Microsoft Visio, SVG Export 38DecoderDef.svg Page-1 -->
<svg xmlns="http://www.w3.org/2000/svg" xmlns:xlink="http://www.w3.org/1999/xlink" xmlns:ev="http://www.w3.org/2001/xml-events"
		xmlns:v="http://schemas.microsoft.com/visio/2003/SVGExtensions/" width="2.8225in" height="1.71334in"
		viewBox="0 0 203.22 123.36" xml:space="preserve" color-interpolation-filters="sRGB" class="st6">
	<v:documentProperties v:langID="1033" v:viewMarkup="false"/>

	<style type="text/css">
	<![CDATA[
		.st1 {fill:#cedbee;stroke:none;stroke-linecap:round;stroke-linejoin:round;stroke-width:0.72}
		.st2 {stroke:none;stroke-linecap:round;stroke-linejoin:round;stroke-width:0.75}
		.st3 {fill:#000000;font-family:Arial;font-size:0.833336em}
		.st4 {stroke:#000000;stroke-linecap:round;stroke-linejoin:round;stroke-width:0.72}
		.st5 {fill:none;stroke:none;stroke-linecap:round;stroke-linejoin:round;stroke-width:0.72}
		.st6 {fill:none;fill-rule:evenodd;font-size:12px;overflow:visible;stroke-linecap:square;stroke-miterlimit:3}
	]]>
	</style>

	<g v:mID="0" v:index="1" v:groupContext="foregroundPage">
		<title>Page-1</title>
		<v:pageProperties v:drawingScale="1" v:pageScale="1" v:drawingUnits="19" v:shadowOffsetX="9" v:shadowOffsetY="-9"/>
		<g id="shape1-1" v:mID="1" v:groupContext="shape" transform="translate(144.36,-6.00018)">
			<title>Sheet.1</title>
			<rect x="0" y="10.8602" width="49.5" height="112.5" class="st1"/>
		</g>
		<g id="shape2-3" v:mID="2" v:groupContext="shape" transform="translate(172.485,-105)">
			<title>Sheet.2</title>
			<desc>Y0</desc>
			<v:textBlock v:margins="rect(0,0,0,0)"/>
			<v:textRect cx="9" cy="118.86" width="18" height="9"/>
			<path d="M18 114.36 L0 114.36 L0 123.36 L18 123.36 L18 114.36" class="st2"/>
			<text x="5.77" y="121.86" class="st3" v:langID="1033"><v:paragraph v:horizAlign="2"/><v:tabList/>Y0</text>		</g>
		<g id="shape3-7" v:mID="3" v:groupContext="shape" transform="translate(202.86,137.22) rotate(180)">
			<title>Sheet.3</title>
			<path d="M0 123.36 L9 123.36" class="st4"/>
		</g>
		<g id="shape4-10" v:mID="4" v:groupContext="shape" transform="translate(202.86,150.72) rotate(180)">
			<title>Sheet.4</title>
			<path d="M0 123.36 L9 123.36" class="st4"/>
		</g>
		<g id="shape5-13" v:mID="5" v:groupContext="shape" transform="translate(202.86,164.22) rotate(180)">
			<title>Sheet.5</title>
			<path d="M0 123.36 L9 123.36" class="st4"/>
		</g>
		<g id="shape6-16" v:mID="6" v:groupContext="shape" transform="translate(202.86,177.72) rotate(180)">
			<title>Sheet.6</title>
			<path d="M0 123.36 L9 123.36" class="st4"/>
		</g>
		<g id="shape7-19" v:mID="7" v:groupContext="shape" transform="translate(202.86,191.22) rotate(180)">
			<title>Sheet.7</title>
			<path d="M0 123.36 L9 123.36" class="st4"/>
		</g>
		<g id="shape8-22" v:mID="8" v:groupContext="shape" transform="translate(202.86,204.72) rotate(180)">
			<title>Sheet.8</title>
			<path d="M0 123.36 L9 123.36" class="st4"/>
		</g>
		<g id="shape9-25" v:mID="9" v:groupContext="shape" transform="translate(202.86,218.22) rotate(180)">
			<title>Sheet.9</title>
			<path d="M0 123.36 L9 123.36" class="st4"/>
		</g>
		<g id="shape10-28" v:mID="10" v:groupContext="shape" transform="translate(202.86,231.72) rotate(180)">
			<title>Sheet.10</title>
			<path d="M0 123.36 L9 123.36" class="st4"/>
		</g>
		<g id="shape11-31" v:mID="11" v:groupContext="shape" transform="translate(172.485,-91.5002)">
			<title>Sheet.11</title>
			<desc>Y1</desc>
			<v:textBlock v:margins="rect(0,0,0,0)"/>
			<v:textRect cx="9" cy="118.86" width="18" height="9"/>
			<path d="M18 114.36 L0 114.36 L0 123.36 L18 123.36 L18 114.36" class="st2"/>
			<text x="5.77" y="121.86" class="st3" v:langID="1033"><v:paragraph v:horizAlign="2"/><v:tabList/>Y1</text>		</g>
		<g id="shape12-35" v:mID="12" v:groupContext="shape" transform="translate(172.485,-78.0002)">
			<title>Sheet.12</title>
			<desc>Y2</desc>
			<v:textBlock v:margins="rect(0,0,0,0)"/>
			<v:textRect cx="9" cy="118.86" width="18" height="9"/>
			<path d="M18 114.36 L0 114.36 L0 123.36 L18 123.36 L18 114.36" class="st2"/>
			<text x="5.77" y="121.86" class="st3" v:langID="1033"><v:paragraph v:horizAlign="2"/><v:tabList/>Y2</text>		</g>
		<g id="shape13-39" v:mID="13" v:groupContext="shape" transform="translate(172.485,-64.5002)">
			<title>Sheet.13</title>
			<desc>Y3</desc>
			<v:textBlock v:margins="rect(0,0,0,0)"/>
			<v:textRect cx="9" cy="118.86" width="18" height="9"/>
			<path d="M18 114.36 L0 114.36 L0 123.36 L18 123.36 L18 114.36" class="st2"/>
			<text x="5.77" y="121.86" class="st3" v:langID="1033"><v:paragraph v:horizAlign="2"/><v:tabList/>Y3</text>		</g>
		<g id="shape14-43" v:mID="14" v:groupContext="shape" transform="translate(172.485,-51.0002)">
			<title>Sheet.14</title>
			<desc>Y4</desc>
			<v:textBlock v:margins="rect(0,0,0,0)"/>
			<v:textRect cx="9" cy="118.86" width="18" height="9"/>
			<path d="M18 114.36 L0 114.36 L0 123.36 L18 123.36 L18 114.36" class="st2"/>
			<text x="5.77" y="121.86" class="st3" v:langID="1033"><v:paragraph v:horizAlign="2"/><v:tabList/>Y4</text>		</g>
		<g id="shape15-47" v:mID="15" v:groupContext="shape" transform="translate(172.485,-37.5002)">
			<title>Sheet.15</title>
			<desc>Y5</desc>
			<v:textBlock v:margins="rect(0,0,0,0)"/>
			<v:textRect cx="9" cy="118.86" width="18" height="9"/>
			<path d="M18 114.36 L0 114.36 L0 123.36 L18 123.36 L18 114.36" class="st2"/>
			<text x="5.77" y="121.86" class="st3" v:langID="1033"><v:paragraph v:horizAlign="2"/><v:tabList/>Y5</text>		</g>
		<g id="shape16-51" v:mID="16" v:groupContext="shape" transform="translate(172.485,-24.0002)">
			<title>Sheet.16</title>
			<desc>Y6</desc>
			<v:textBlock v:margins="rect(0,0,0,0)"/>
			<v:textRect cx="9" cy="118.86" width="18" height="9"/>
			<path d="M18 114.36 L0 114.36 L0 123.36 L18 123.36 L18 114.36" class="st2"/>
			<text x="5.77" y="121.86" class="st3" v:langID="1033"><v:paragraph v:horizAlign="2"/><v:tabList/>Y6</text>		</g>
		<g id="shape17-55" v:mID="17" v:groupContext="shape" transform="translate(172.485,-10.5002)">
			<title>Sheet.17</title>
			<desc>Y7</desc>
			<v:textBlock v:margins="rect(0,0,0,0)"/>
			<v:textRect cx="9" cy="118.86" width="18" height="9"/>
			<path d="M18 114.36 L0 114.36 L0 123.36 L18 123.36 L18 114.36" class="st2"/>
			<text x="5.77" y="121.86" class="st3" v:langID="1033"><v:paragraph v:horizAlign="2"/><v:tabList/>Y7</text>		</g>
		<g id="shape18-59" v:mID="18" v:groupContext="shape" transform="translate(147.172,-73.5002)">
			<title>Sheet.18</title>
			<desc>I0</desc>
			<v:textBlock v:margins="rect(0,0,0,0)"/>
			<v:textRect cx="9" cy="118.86" width="18" height="9"/>
			<path d="M18 114.36 L0 114.36 L0 123.36 L18 123.36 L18 114.36" class="st2"/>
			<text x="0" y="121.86" class="st3" v:langID="1033"><v:paragraph/><v:tabList/>I0</text>		</g>
		<g id="shape19-63" v:mID="19" v:groupContext="shape" transform="translate(147.172,-60.0002)">
			<title>Sheet.19</title>
			<desc>I1</desc>
			<v:textBlock v:margins="rect(0,0,0,0)"/>
			<v:textRect cx="9" cy="118.86" width="18" height="9"/>
			<path d="M18 114.36 L0 114.36 L0 123.36 L18 123.36 L18 114.36" class="st2"/>
			<text x="0" y="121.86" class="st3" v:langID="1033"><v:paragraph/><v:tabList/>I1</text>		</g>
		<g id="shape20-67" v:mID="20" v:groupContext="shape" transform="translate(147.172,-46.5002)">
			<title>Sheet.20</title>
			<desc>I2</desc>
			<v:textBlock v:margins="rect(0,0,0,0)"/>
			<v:textRect cx="9" cy="118.86" width="18" height="9"/>
			<path d="M18 114.36 L0 114.36 L0 123.36 L18 123.36 L18 114.36" class="st2"/>
			<text x="0" y="121.86" class="st3" v:langID="1033"><v:paragraph/><v:tabList/>I2</text>		</g>
		<g id="shape21-71" v:mID="21" v:groupContext="shape" transform="translate(144.36,168.72) rotate(180)">
			<title>Sheet.21</title>
			<path d="M0 123.36 L9 123.36" class="st4"/>
		</g>
		<g id="shape22-74" v:mID="22" v:groupContext="shape" transform="translate(144.36,182.22) rotate(180)">
			<title>Sheet.22</title>
			<path d="M0 123.36 L9 123.36" class="st4"/>
		</g>
		<g id="shape23-77" v:mID="23" v:groupContext="shape" transform="translate(144.36,195.72) rotate(180)">
			<title>Sheet.23</title>
			<path d="M0 123.36 L9 123.36" class="st4"/>
		</g>
		<g id="shape25-80" v:mID="25" v:groupContext="shape" transform="translate(1.86,-96.0002)">
			<title>Sheet.25</title>
			<desc>0</desc>
			<v:textBlock v:margins="rect(4,4,4,4)"/>
			<v:textRect cx="8.4375" cy="118.86" width="16.88" height="9"/>
			<rect x="0" y="114.36" width="16.875" height="9" class="st5"/>
			<text x="5.66" y="121.86" class="st3" v:langID="1033"><v:paragraph v:horizAlign="1"/><v:tabList/>0</text>		</g>
		<g id="shape26-83" v:mID="26" v:groupContext="shape" transform="translate(21.5475,-96.0002)">
			<title>Sheet.26</title>
			<desc>0</desc>
			<v:textBlock v:margins="rect(4,4,4,4)"/>
			<v:textRect cx="8.4375" cy="118.86" width="16.88" height="9"/>
			<rect x="0" y="114.36" width="16.875" height="9" class="st5"/>
			<text x="5.66" y="121.86" class="st3" v:langID="1033"><v:paragraph v:horizAlign="1"/><v:tabList/>0</text>		</g>
		<g id="shape27-86" v:mID="27" v:groupContext="shape" transform="translate(41.235,-96.0002)">
			<title>Sheet.27</title>
			<desc>0</desc>
			<v:textBlock v:margins="rect(4,4,4,4)"/>
			<v:textRect cx="8.4375" cy="118.86" width="16.88" height="9"/>
			<rect x="0" y="114.36" width="16.875" height="9" class="st5"/>
			<text x="5.66" y="121.86" class="st3" v:langID="1033"><v:paragraph v:horizAlign="1"/><v:tabList/>0</text>		</g>
		<g id="shape28-89" v:mID="28" v:groupContext="shape" transform="translate(1.86,-82.5002)">
			<title>Sheet.28</title>
			<desc>0</desc>
			<v:textBlock v:margins="rect(4,4,4,4)"/>
			<v:textRect cx="8.4375" cy="118.86" width="16.88" height="9"/>
			<rect x="0" y="114.36" width="16.875" height="9" class="st5"/>
			<text x="5.66" y="121.86" class="st3" v:langID="1033"><v:paragraph v:horizAlign="1"/><v:tabList/>0</text>		</g>
		<g id="shape29-92" v:mID="29" v:groupContext="shape" transform="translate(21.5475,-82.5002)">
			<title>Sheet.29</title>
			<desc>0</desc>
			<v:textBlock v:margins="rect(4,4,4,4)"/>
			<v:textRect cx="8.4375" cy="118.86" width="16.88" height="9"/>
			<rect x="0" y="114.36" width="16.875" height="9" class="st5"/>
			<text x="5.66" y="121.86" class="st3" v:langID="1033"><v:paragraph v:horizAlign="1"/><v:tabList/>0</text>		</g>
		<g id="shape30-95" v:mID="30" v:groupContext="shape" transform="translate(41.235,-82.5002)">
			<title>Sheet.30</title>
			<desc>1</desc>
			<v:textBlock v:margins="rect(4,4,4,4)"/>
			<v:textRect cx="8.4375" cy="118.86" width="16.88" height="9"/>
			<rect x="0" y="114.36" width="16.875" height="9" class="st5"/>
			<text x="5.66" y="121.86" class="st3" v:langID="1033"><v:paragraph v:horizAlign="1"/><v:tabList/>1</text>		</g>
		<g id="shape31-98" v:mID="31" v:groupContext="shape" transform="translate(1.86,-69.0002)">
			<title>Sheet.31</title>
			<desc>0</desc>
			<v:textBlock v:margins="rect(4,4,4,4)"/>
			<v:textRect cx="8.4375" cy="118.86" width="16.88" height="9"/>
			<rect x="0" y="114.36" width="16.875" height="9" class="st5"/>
			<text x="5.66" y="121.86" class="st3" v:langID="1033"><v:paragraph v:horizAlign="1"/><v:tabList/>0</text>		</g>
		<g id="shape32-101" v:mID="32" v:groupContext="shape" transform="translate(21.5475,-69.0002)">
			<title>Sheet.32</title>
			<desc>1</desc>
			<v:textBlock v:margins="rect(4,4,4,4)"/>
			<v:textRect cx="8.4375" cy="118.86" width="16.88" height="9"/>
			<rect x="0" y="114.36" width="16.875" height="9" class="st5"/>
			<text x="5.66" y="121.86" class="st3" v:langID="1033"><v:paragraph v:horizAlign="1"/><v:tabList/>1</text>		</g>
		<g id="shape33-104" v:mID="33" v:groupContext="shape" transform="translate(41.235,-69.0002)">
			<title>Sheet.33</title>
			<desc>0</desc>
			<v:textBlock v:margins="rect(4,4,4,4)"/>
			<v:textRect cx="8.4375" cy="118.86" width="16.88" height="9"/>
			<rect x="0" y="114.36" width="16.875" height="9" class="st5"/>
			<text x="5.66" y="121.86" class="st3" v:langID="1033"><v:paragraph v:horizAlign="1"/><v:tabList/>0</text>		</g>
		<g id="shape34-107" v:mID="34" v:groupContext="shape" transform="translate(1.86,-55.5002)">
			<title>Sheet.34</title>
			<desc>0</desc>
			<v:textBlock v:margins="rect(4,4,4,4)"/>
			<v:textRect cx="8.4375" cy="118.86" width="16.88" height="9"/>
			<rect x="0" y="114.36" width="16.875" height="9" class="st5"/>
			<text x="5.66" y="121.86" class="st3" v:langID="1033"><v:paragraph v:horizAlign="1"/><v:tabList/>0</text>		</g>
		<g id="shape35-110" v:mID="35" v:groupContext="shape" transform="translate(21.5475,-55.5002)">
			<title>Sheet.35</title>
			<desc>1</desc>
			<v:textBlock v:margins="rect(4,4,4,4)"/>
			<v:textRect cx="8.4375" cy="118.86" width="16.88" height="9"/>
			<rect x="0" y="114.36" width="16.875" height="9" class="st5"/>
			<text x="5.66" y="121.86" class="st3" v:langID="1033"><v:paragraph v:horizAlign="1"/><v:tabList/>1</text>		</g>
		<g id="shape36-113" v:mID="36" v:groupContext="shape" transform="translate(41.235,-55.5002)">
			<title>Sheet.36</title>
			<desc>1</desc>
			<v:textBlock v:margins="rect(4,4,4,4)"/>
			<v:textRect cx="8.4375" cy="118.86" width="16.88" height="9"/>
			<rect x="0" y="114.36" width="16.875" height="9" class="st5"/>
			<text x="5.66" y="121.86" class="st3" v:langID="1033"><v:paragraph v:horizAlign="1"/><v:tabList/>1</text>		</g>
		<g id="shape37-116" v:mID="37" v:groupContext="shape" transform="translate(1.86,-42.0002)">
			<title>Sheet.37</title>
			<desc>1</desc>
			<v:textBlock v:margins="rect(4,4,4,4)"/>
			<v:textRect cx="8.4375" cy="118.86" width="16.88" height="9"/>
			<rect x="0" y="114.36" width="16.875" height="9" class="st5"/>
			<text x="5.66" y="121.86" class="st3" v:langID="1033"><v:paragraph v:horizAlign="1"/><v:tabList/>1</text>		</g>
		<g id="shape38-119" v:mID="38" v:groupContext="shape" transform="translate(21.5475,-42.0002)">
			<title>Sheet.38</title>
			<desc>0</desc>
			<v:textBlock v:margins="rect(4,4,4,4)"/>
			<v:textRect cx="8.4375" cy="118.86" width="16.88" height="9"/>
			<rect x="0" y="114.36" width="16.875" height="9" class="st5"/>
			<text x="5.66" y="121.86" class="st3" v:langID="1033"><v:paragraph v:horizAlign="1"/><v:tabList/>0</text>		</g>
		<g id="shape39-122" v:mID="39" v:groupContext="shape" transform="translate(41.235,-42.0002)">
			<title>Sheet.39</title>
			<desc>0</desc>
			<v:textBlock v:margins="rect(4,4,4,4)"/>
			<v:textRect cx="8.4375" cy="118.86" width="16.88" height="9"/>
			<rect x="0" y="114.36" width="16.875" height="9" class="st5"/>
			<text x="5.66" y="121.86" class="st3" v:langID="1033"><v:paragraph v:horizAlign="1"/><v:tabList/>0</text>		</g>
		<g id="shape40-125" v:mID="40" v:groupContext="shape" transform="translate(1.86,-28.5002)">
			<title>Sheet.40</title>
			<desc>1</desc>
			<v:textBlock v:margins="rect(4,4,4,4)"/>
			<v:textRect cx="8.4375" cy="118.86" width="16.88" height="9"/>
			<rect x="0" y="114.36" width="16.875" height="9" class="st5"/>
			<text x="5.66" y="121.86" class="st3" v:langID="1033"><v:paragraph v:horizAlign="1"/><v:tabList/>1</text>		</g>
		<g id="shape41-128" v:mID="41" v:groupContext="shape" transform="translate(21.5475,-28.5002)">
			<title>Sheet.41</title>
			<desc>0</desc>
			<v:textBlock v:margins="rect(4,4,4,4)"/>
			<v:textRect cx="8.4375" cy="118.86" width="16.88" height="9"/>
			<rect x="0" y="114.36" width="16.875" height="9" class="st5"/>
			<text x="5.66" y="121.86" class="st3" v:langID="1033"><v:paragraph v:horizAlign="1"/><v:tabList/>0</text>		</g>
		<g id="shape42-131" v:mID="42" v:groupContext="shape" transform="translate(41.235,-28.5002)">
			<title>Sheet.42</title>
			<desc>1</desc>
			<v:textBlock v:margins="rect(4,4,4,4)"/>
			<v:textRect cx="8.4375" cy="118.86" width="16.88" height="9"/>
			<rect x="0" y="114.36" width="16.875" height="9" class="st5"/>
			<text x="5.66" y="121.86" class="st3" v:langID="1033"><v:paragraph v:horizAlign="1"/><v:tabList/>1</text>		</g>
		<g id="shape43-134" v:mID="43" v:groupContext="shape" transform="translate(1.86,-15.0002)">
			<title>Sheet.43</title>
			<desc>1</desc>
			<v:textBlock v:margins="rect(4,4,4,4)"/>
			<v:textRect cx="8.4375" cy="118.86" width="16.88" height="9"/>
			<rect x="0" y="114.36" width="16.875" height="9" class="st5"/>
			<text x="5.66" y="121.86" class="st3" v:langID="1033"><v:paragraph v:horizAlign="1"/><v:tabList/>1</text>		</g>
		<g id="shape44-137" v:mID="44" v:groupContext="shape" transform="translate(21.5475,-15.0002)">
			<title>Sheet.44</title>
			<desc>1</desc>
			<v:textBlock v:margins="rect(4,4,4,4)"/>
			<v:textRect cx="8.4375" cy="118.86" width="16.88" height="9"/>
			<rect x="0" y="114.36" width="16.875" height="9" class="st5"/>
			<text x="5.66" y="121.86" class="st3" v:langID="1033"><v:paragraph v:horizAlign="1"/><v:tabList/>1</text>		</g>
		<g id="shape45-140" v:mID="45" v:groupContext="shape" transform="translate(41.235,-15.0002)">
			<title>Sheet.45</title>
			<desc>0</desc>
			<v:textBlock v:margins="rect(4,4,4,4)"/>
			<v:textRect cx="8.4375" cy="118.86" width="16.88" height="9"/>
			<rect x="0" y="114.36" width="16.875" height="9" class="st5"/>
			<text x="5.66" y="121.86" class="st3" v:langID="1033"><v:paragraph v:horizAlign="1"/><v:tabList/>0</text>		</g>
		<g id="shape46-143" v:mID="46" v:groupContext="shape" transform="translate(1.86,-1.50018)">
			<title>Sheet.46</title>
			<desc>1</desc>
			<v:textBlock v:margins="rect(4,4,4,4)"/>
			<v:textRect cx="8.4375" cy="118.86" width="16.88" height="9"/>
			<rect x="0" y="114.36" width="16.875" height="9" class="st5"/>
			<text x="5.66" y="121.86" class="st3" v:langID="1033"><v:paragraph v:horizAlign="1"/><v:tabList/>1</text>		</g>
		<g id="shape47-146" v:mID="47" v:groupContext="shape" transform="translate(21.5475,-1.50018)">
			<title>Sheet.47</title>
			<desc>1</desc>
			<v:textBlock v:margins="rect(4,4,4,4)"/>
			<v:textRect cx="8.4375" cy="118.86" width="16.88" height="9"/>
			<rect x="0" y="114.36" width="16.875" height="9" class="st5"/>
			<text x="5.66" y="121.86" class="st3" v:langID="1033"><v:paragraph v:horizAlign="1"/><v:tabList/>1</text>		</g>
		<g id="shape48-149" v:mID="48" v:groupContext="shape" transform="translate(41.235,-1.50018)">
			<title>Sheet.48</title>
			<desc>1</desc>
			<v:textBlock v:margins="rect(4,4,4,4)"/>
			<v:textRect cx="8.4375" cy="118.86" width="16.88" height="9"/>
			<rect x="0" y="114.36" width="16.875" height="9" class="st5"/>
			<text x="5.66" y="121.86" class="st3" v:langID="1033"><v:paragraph v:horizAlign="1"/><v:tabList/>1</text>		</g>
		<g id="shape49-152" v:mID="49" v:groupContext="shape" transform="translate(1.86,-111.75)">
			<title>Sheet.49</title>
			<desc>I2</desc>
			<v:textBlock v:margins="rect(4,4,4,4)"/>
			<v:textRect cx="8.4375" cy="118.86" width="16.88" height="9"/>
			<rect x="0" y="114.36" width="16.875" height="9" class="st5"/>
			<text x="4.27" y="121.86" class="st3" v:langID="1033"><v:paragraph v:horizAlign="1"/><v:tabList/>I2</text>		</g>
		<g id="shape50-155" v:mID="50" v:groupContext="shape" transform="translate(21.5475,-111.75)">
			<title>Sheet.50</title>
			<desc>I1</desc>
			<v:textBlock v:margins="rect(4,4,4,4)"/>
			<v:textRect cx="8.4375" cy="118.86" width="16.88" height="9"/>
			<rect x="0" y="114.36" width="16.875" height="9" class="st5"/>
			<text x="4.27" y="121.86" class="st3" v:langID="1033"><v:paragraph v:horizAlign="1"/><v:tabList/>I1</text>		</g>
		<g id="shape51-158" v:mID="51" v:groupContext="shape" transform="translate(41.235,-111.75)">
			<title>Sheet.51</title>
			<desc>I0</desc>
			<v:textBlock v:margins="rect(4,4,4,4)"/>
			<v:textRect cx="8.4375" cy="118.86" width="16.88" height="9"/>
			<rect x="0" y="114.36" width="16.875" height="9" class="st5"/>
			<text x="4.27" y="121.86" class="st3" v:langID="1033"><v:paragraph v:horizAlign="1"/><v:tabList/>I0</text>		</g>
		<g id="shape52-161" v:mID="52" v:groupContext="shape" transform="translate(62.61,-111.75)">
			<title>Sheet.52</title>
			<desc>Y[7:0]</desc>
			<v:textBlock v:margins="rect(4,4,4,4)"/>
			<v:textRect cx="27" cy="118.86" width="54" height="9"/>
			<rect x="0" y="114.36" width="54" height="9" class="st5"/>
			<text x="13.94" y="121.86" class="st3" v:langID="1033"><v:paragraph v:horizAlign="1"/><v:tabList/>Y[7:0]</text>		</g>
		<g id="shape53-164" v:mID="53" v:groupContext="shape" transform="translate(0.36,-109.5)">
			<title>Sheet.53</title>
			<path d="M0 123.36 L112.75 123.36" class="st4"/>
		</g>
		<g id="shape54-167" v:mID="54" v:groupContext="shape" transform="translate(183.72,0.36) rotate(90)">
			<title>Sheet.54</title>
			<path d="M0 123.36 L121.5 123.36" class="st4"/>
		</g>
		<g id="shape55-170" v:mID="55" v:groupContext="shape" transform="translate(62.61,-96.0002)">
			<title>Sheet.55</title>
			<desc>00000001</desc>
			<v:textBlock v:margins="rect(4,4,4,4)"/>
			<v:textRect cx="27" cy="118.86" width="54" height="9"/>
			<rect x="0" y="114.36" width="54" height="9" class="st5"/>
			<text x="4.75" y="121.86" class="st3" v:langID="1033"><v:paragraph v:horizAlign="1"/><v:tabList/>00000001</text>		</g>
		<g id="shape56-173" v:mID="56" v:groupContext="shape" transform="translate(62.61,-82.5002)">
			<title>Sheet.56</title>
			<desc>00000010</desc>
			<v:textBlock v:margins="rect(4,4,4,4)"/>
			<v:textRect cx="27" cy="118.86" width="54" height="9"/>
			<rect x="0" y="114.36" width="54" height="9" class="st5"/>
			<text x="4.75" y="121.86" class="st3" v:langID="1033"><v:paragraph v:horizAlign="1"/><v:tabList/>00000010</text>		</g>
		<g id="shape57-176" v:mID="57" v:groupContext="shape" transform="translate(62.61,-69.0002)">
			<title>Sheet.57</title>
			<desc>00000100</desc>
			<v:textBlock v:margins="rect(4,4,4,4)"/>
			<v:textRect cx="27" cy="118.86" width="54" height="9"/>
			<rect x="0" y="114.36" width="54" height="9" class="st5"/>
			<text x="4.75" y="121.86" class="st3" v:langID="1033"><v:paragraph v:horizAlign="1"/><v:tabList/>00000100</text>		</g>
		<g id="shape58-179" v:mID="58" v:groupContext="shape" transform="translate(62.61,-55.5002)">
			<title>Sheet.58</title>
			<desc>00001000</desc>
			<v:textBlock v:margins="rect(4,4,4,4)"/>
			<v:textRect cx="27" cy="118.86" width="54" height="9"/>
			<rect x="0" y="114.36" width="54" height="9" class="st5"/>
			<text x="4.75" y="121.86" class="st3" v:langID="1033"><v:paragraph v:horizAlign="1"/><v:tabList/>00001000</text>		</g>
		<g id="shape59-182" v:mID="59" v:groupContext="shape" transform="translate(62.61,-42.0002)">
			<title>Sheet.59</title>
			<desc>00010000</desc>
			<v:textBlock v:margins="rect(4,4,4,4)"/>
			<v:textRect cx="27" cy="118.86" width="54" height="9"/>
			<rect x="0" y="114.36" width="54" height="9" class="st5"/>
			<text x="4.75" y="121.86" class="st3" v:langID="1033"><v:paragraph v:horizAlign="1"/><v:tabList/>00010000</text>		</g>
		<g id="shape60-185" v:mID="60" v:groupContext="shape" transform="translate(62.61,-28.5002)">
			<title>Sheet.60</title>
			<desc>00100000</desc>
			<v:textBlock v:margins="rect(4,4,4,4)"/>
			<v:textRect cx="27" cy="118.86" width="54" height="9"/>
			<rect x="0" y="114.36" width="54" height="9" class="st5"/>
			<text x="4.75" y="121.86" class="st3" v:langID="1033"><v:paragraph v:horizAlign="1"/><v:tabList/>00100000</text>		</g>
		<g id="shape61-188" v:mID="61" v:groupContext="shape" transform="translate(62.61,-15.0002)">
			<title>Sheet.61</title>
			<desc>01000000</desc>
			<v:textBlock v:margins="rect(4,4,4,4)"/>
			<v:textRect cx="27" cy="118.86" width="54" height="9"/>
			<rect x="0" y="114.36" width="54" height="9" class="st5"/>
			<text x="4.75" y="121.86" class="st3" v:langID="1033"><v:paragraph v:horizAlign="1"/><v:tabList/>01000000</text>		</g>
		<g id="shape62-191" v:mID="62" v:groupContext="shape" transform="translate(62.61,-1.50018)">
			<title>Sheet.62</title>
			<desc>10000000</desc>
			<v:textBlock v:margins="rect(4,4,4,4)"/>
			<v:textRect cx="27" cy="118.86" width="54" height="9"/>
			<rect x="0" y="114.36" width="54" height="9" class="st5"/>
			<text x="4.75" y="121.86" class="st3" v:langID="1033"><v:paragraph v:horizAlign="1"/><v:tabList/>10000000</text>		</g>
	</g>
</svg>
