<?xml version="1.0" encoding="UTF-8" standalone="no"?>
<!DOCTYPE svg PUBLIC "-//W3C//DTD SVG 1.1//EN" "http://www.w3.org/Graphics/SVG/1.1/DTD/svg11.dtd">
<!-- Generated by Microsoft Visio, SVG Export BinaryMultiplication.svg Page-1 -->
<svg xmlns="http://www.w3.org/2000/svg" xmlns:xlink="http://www.w3.org/1999/xlink" xmlns:ev="http://www.w3.org/2001/xml-events"
		xmlns:v="http://schemas.microsoft.com/visio/2003/SVGExtensions/" width="2.385in" height="1.21313in"
		viewBox="0 0 171.72 87.345" xml:space="preserve" color-interpolation-filters="sRGB" class="st6">
	<v:documentProperties v:langID="1033" v:viewMarkup="false"/>

	<style type="text/css">
	<![CDATA[
		.st1 {fill:none;stroke:none;stroke-linecap:round;stroke-linejoin:round;stroke-width:0.72}
		.st2 {fill:#000000;font-family:Courier New;font-size:0.916672em}
		.st3 {stroke:#000000;stroke-linecap:round;stroke-linejoin:round;stroke-width:0.72}
		.st4 {fill:#000000;font-family:Arial;font-size:0.916672em}
		.st5 {font-size:1em}
		.st6 {fill:none;fill-rule:evenodd;font-size:12px;overflow:visible;stroke-linecap:square;stroke-miterlimit:3}
	]]>
	</style>

	<g v:mID="0" v:index="1" v:groupContext="foregroundPage">
		<title>Page-1</title>
		<v:pageProperties v:drawingScale="1" v:pageScale="1" v:drawingUnits="19" v:shadowOffsetX="9" v:shadowOffsetY="-9"/>
		<g id="shape1-1" v:mID="1" v:groupContext="shape" transform="translate(0.36,-74.61)">
			<title>Sheet.1</title>
			<desc>1 0 0 1</desc>
			<v:textBlock v:margins="rect(4,4,4,4)"/>
			<v:textRect cx="49.5" cy="82.845" width="99" height="9"/>
			<rect x="0" y="78.345" width="99" height="9" class="st1"/>
			<text x="43.61" y="86.15" class="st2" v:langID="1033"><v:paragraph/><v:tabList/>1 0 0 1</text>		</g>
		<g id="shape2-4" v:mID="2" v:groupContext="shape" transform="translate(0.36,-63.36)">
			<title>Sheet.2</title>
			<desc>x 1 0 1 1</desc>
			<v:textBlock v:margins="rect(4,4,4,4)"/>
			<v:textRect cx="49.5" cy="82.845" width="99" height="9"/>
			<rect x="0" y="78.345" width="99" height="9" class="st1"/>
			<text x="30.4" y="86.15" class="st2" v:langID="1033"><v:paragraph/><v:tabList/>x 1 0 1 1</text>		</g>
		<g id="shape3-7" v:mID="3" v:groupContext="shape" transform="translate(0.36,-49.86)">
			<title>Sheet.3</title>
			<desc>1 0 0 1</desc>
			<v:textBlock v:margins="rect(4,4,4,4)"/>
			<v:textRect cx="49.5" cy="82.845" width="99" height="9"/>
			<rect x="0" y="78.345" width="99" height="9" class="st1"/>
			<text x="43.61" y="86.15" class="st2" v:langID="1033"><v:paragraph/><v:tabList/>1 0 0 1</text>		</g>
		<g id="shape4-10" v:mID="4" v:groupContext="shape" transform="translate(0.36,-38.61)">
			<title>Sheet.4</title>
			<desc>1 0 0 1</desc>
			<v:textBlock v:margins="rect(4,4,4,4)"/>
			<v:textRect cx="45" cy="82.845" width="90" height="9"/>
			<rect x="0" y="78.345" width="90" height="9" class="st1"/>
			<text x="30.4" y="86.15" class="st2" v:langID="1033"><v:paragraph/><v:tabList/>1 0 0 1</text>		</g>
		<g id="shape5-13" v:mID="5" v:groupContext="shape" transform="translate(0.36,-27.36)">
			<title>Sheet.5</title>
			<desc>0 0 0 0</desc>
			<v:textBlock v:margins="rect(4,4,4,4)"/>
			<v:textRect cx="43.875" cy="82.845" width="87.75" height="9"/>
			<rect x="0" y="78.345" width="87.75" height="9" class="st1"/>
			<text x="17.2" y="86.15" class="st2" v:langID="1033"><v:paragraph/><v:tabList/>0 0 0 0</text>		</g>
		<g id="shape6-16" v:mID="6" v:groupContext="shape" transform="translate(0.36,-16.11)">
			<title>Sheet.6</title>
			<desc>1 0 0 1</desc>
			<v:textBlock v:margins="rect(4,4,4,4)"/>
			<v:textRect cx="43.875" cy="82.845" width="87.75" height="9"/>
			<rect x="0" y="78.345" width="87.75" height="9" class="st1"/>
			<text x="4" y="86.15" class="st2" v:langID="1033"><v:paragraph/><v:tabList/>1 0 0 1</text>		</g>
		<g id="shape7-19" v:mID="7" v:groupContext="shape" transform="translate(90.36,113.58) rotate(180)">
			<title>Sheet.7</title>
			<path d="M0 87.34 L63 87.34" class="st3"/>
		</g>
		<g id="shape8-22" v:mID="8" v:groupContext="shape" transform="translate(0.36,-2.61)">
			<title>Sheet.8</title>
			<desc>1 1 0 0 0 1 1</desc>
			<v:textBlock v:margins="rect(4,4,4,4)"/>
			<v:textRect cx="54" cy="82.845" width="108" height="9"/>
			<rect x="0" y="78.345" width="108" height="9" class="st1"/>
			<text x="4" y="86.15" class="st2" v:langID="1033"><v:paragraph/><v:tabList/>1 1 0 0 0 1 1</text>		</g>
		<g id="shape9-25" v:mID="9" v:groupContext="shape" transform="translate(99.36,-58.86)">
			<title>Sheet.9</title>
			<desc>Multiplier</desc>
			<v:textBlock v:margins="rect(4,4,4,4)"/>
			<v:textRect cx="36" cy="80.595" width="72" height="13.5"/>
			<rect x="0" y="73.845" width="72" height="13.5" class="st1"/>
			<text x="4" y="83.9" class="st4" v:langID="1033"><v:paragraph/><v:tabList/>Multiplier</text>		</g>
		<g id="shape10-28" v:mID="10" v:groupContext="shape" transform="translate(99.36,-73.485)">
			<title>Sheet.10</title>
			<desc>Multiplicand</desc>
			<v:textBlock v:margins="rect(4,4,4,4)"/>
			<v:textRect cx="36" cy="80.595" width="72" height="13.5"/>
			<rect x="0" y="73.845" width="72" height="13.5" class="st1"/>
			<text x="4" y="83.9" class="st4" v:langID="1033"><v:paragraph/><v:tabList/>Multiplicand</text>		</g>
		<g id="shape11-31" v:mID="11" v:groupContext="shape" transform="translate(99.36,-29.61)">
			<title>Sheet.11</title>
			<desc>Partial Products</desc>
			<v:textBlock v:margins="rect(4,4,4,4)"/>
			<v:textRect cx="36" cy="80.595" width="72" height="13.5"/>
			<rect x="0" y="73.845" width="72" height="13.5" class="st1"/>
			<text x="4" y="77.29" class="st4" v:langID="1033"><v:paragraph/><v:tabList/>Partial<v:newlineChar/><tspan x="4"
						dy="1.2em" class="st5">Products</tspan></text>		</g>
		<g id="shape12-35" v:mID="12" v:groupContext="shape" transform="translate(99.36,-0.36)">
			<title>Sheet.12</title>
			<desc>Result</desc>
			<v:textBlock v:margins="rect(4,4,4,4)"/>
			<v:textRect cx="36" cy="80.595" width="72" height="13.5"/>
			<rect x="0" y="73.845" width="72" height="13.5" class="st1"/>
			<text x="4" y="83.9" class="st4" v:langID="1033"><v:paragraph/><v:tabList/>Result</text>		</g>
		<g id="shape13-38" v:mID="13" v:groupContext="shape" transform="translate(90.36,160.83) rotate(180)">
			<title>Sheet.13</title>
			<path d="M0 87.34 L87.75 87.34" class="st3"/>
		</g>
		<g id="shape14-41" v:mID="14" v:groupContext="shape" transform="translate(93.735,-18.36)">
			<title>Sheet.14</title>
			<path d="M-0 46.85 A2.25 2.25 180 0 1 2.25 49.1 L2.25 64.84 A2.25 2.25 -180 0 0 4.5 67.1 A2.25 2.25 -180 0 0 2.25 69.34
						 L2.25 85.09 A2.25 2.25 0 0 1 -0 87.34" class="st3"/>
		</g>
	</g>
</svg>
