<?xml version="1.0" encoding="UTF-8" standalone="no"?>
<!DOCTYPE svg PUBLIC "-//W3C//DTD SVG 1.1//EN" "http://www.w3.org/Graphics/SVG/1.1/DTD/svg11.dtd">
<!-- Generated by Microsoft Visio, SVG Export kmap.svg Page-1 -->
<svg xmlns="http://www.w3.org/2000/svg" xmlns:xlink="http://www.w3.org/1999/xlink" xmlns:ev="http://www.w3.org/2001/xml-events"
		xmlns:v="http://schemas.microsoft.com/visio/2003/SVGExtensions/" width="5.77in" height="1.58604in"
		viewBox="0 0 415.44 114.195" xml:space="preserve" color-interpolation-filters="sRGB" class="st7">
	<v:documentProperties v:langID="1033" v:viewMarkup="false">
		<v:userDefs>
			<v:ud v:nameU="msvConvertTheme"/>
		</v:userDefs>
	</v:documentProperties>

	<style type="text/css">
	<![CDATA[
		.st1 {fill:#ffffff;stroke:#000000;stroke-linecap:round;stroke-linejoin:round;stroke-width:0.72}
		.st2 {fill:#000000;font-family:Arial;font-size:0.916672em}
		.st3 {fill:none;stroke:none;stroke-linecap:round;stroke-linejoin:round;stroke-width:0.72}
		.st4 {stroke:#000000;stroke-linecap:round;stroke-linejoin:round;stroke-width:0.72}
		.st5 {fill:#000000;font-family:Arial;font-size:0.75em}
		.st6 {fill:none;stroke:#0000ff;stroke-linecap:round;stroke-linejoin:round;stroke-width:1.2}
		.st7 {fill:none;fill-rule:evenodd;font-size:12px;overflow:visible;stroke-linecap:square;stroke-miterlimit:3}
	]]>
	</style>

	<g v:mID="0" v:index="1" v:groupContext="foregroundPage">
		<title>Page-1</title>
		<v:pageProperties v:drawingScale="1" v:pageScale="1" v:drawingUnits="19" v:shadowOffsetX="9" v:shadowOffsetY="-9"/>
		<g id="shape105-1" v:mID="105" v:groupContext="shape" transform="translate(36.72,-67.6575)">
			<title>Square.105</title>
			<desc>0</desc>
			<v:userDefs>
				<v:ud v:nameU="visVersion" v:val="VT0(11):26"/>
			</v:userDefs>
			<v:textBlock v:margins="rect(4,4,4,4)" v:tabSpace="42.5197"/>
			<v:textRect cx="11.25" cy="102.945" width="22.5" height="22.5"/>
			<rect x="0" y="91.695" width="22.5" height="22.5" class="st1"/>
			<text x="8.19" y="106.25" class="st2" v:langID="1033"><v:paragraph v:horizAlign="1"/><v:tabList/>0</text>		</g>
		<g id="shape106-4" v:mID="106" v:groupContext="shape" transform="translate(59.22,-67.6575)">
			<title>Square.106</title>
			<desc>1</desc>
			<v:userDefs>
				<v:ud v:nameU="visVersion" v:val="VT0(11):26"/>
			</v:userDefs>
			<v:textBlock v:margins="rect(4,4,4,4)" v:tabSpace="42.5197"/>
			<v:textRect cx="11.25" cy="102.945" width="22.5" height="22.5"/>
			<rect x="0" y="91.695" width="22.5" height="22.5" class="st1"/>
			<text x="8.19" y="106.25" class="st2" v:langID="1033"><v:paragraph v:horizAlign="1"/><v:tabList/>1</text>		</g>
		<g id="shape107-7" v:mID="107" v:groupContext="shape" transform="translate(81.72,-67.6575)">
			<title>Square.107</title>
			<desc>0</desc>
			<v:userDefs>
				<v:ud v:nameU="visVersion" v:val="VT0(11):26"/>
			</v:userDefs>
			<v:textBlock v:margins="rect(4,4,4,4)" v:tabSpace="42.5197"/>
			<v:textRect cx="11.25" cy="102.945" width="22.5" height="22.5"/>
			<rect x="0" y="91.695" width="22.5" height="22.5" class="st1"/>
			<text x="8.19" y="106.25" class="st2" v:langID="1033"><v:paragraph v:horizAlign="1"/><v:tabList/>0</text>		</g>
		<g id="shape117-10" v:mID="117" v:groupContext="shape" transform="translate(104.22,-67.6575)">
			<title>Square.117</title>
			<desc>0</desc>
			<v:userDefs>
				<v:ud v:nameU="visVersion" v:val="VT0(11):26"/>
			</v:userDefs>
			<v:textBlock v:margins="rect(4,4,4,4)" v:tabSpace="42.5197"/>
			<v:textRect cx="11.25" cy="102.945" width="22.5" height="22.5"/>
			<rect x="0" y="91.695" width="22.5" height="22.5" class="st1"/>
			<text x="8.19" y="106.25" class="st2" v:langID="1033"><v:paragraph v:horizAlign="1"/><v:tabList/>0</text>		</g>
		<g id="shape119-13" v:mID="119" v:groupContext="shape" transform="translate(36.72,-45.1575)">
			<title>Square.119</title>
			<desc>0</desc>
			<v:userDefs>
				<v:ud v:nameU="visVersion" v:val="VT0(11):26"/>
			</v:userDefs>
			<v:textBlock v:margins="rect(4,4,4,4)" v:tabSpace="42.5197"/>
			<v:textRect cx="11.25" cy="102.945" width="22.5" height="22.5"/>
			<rect x="0" y="91.695" width="22.5" height="22.5" class="st1"/>
			<text x="8.19" y="106.25" class="st2" v:langID="1033"><v:paragraph v:horizAlign="1"/><v:tabList/>0</text>		</g>
		<g id="shape120-16" v:mID="120" v:groupContext="shape" transform="translate(59.22,-45.1575)">
			<title>Square.120</title>
			<desc>1</desc>
			<v:userDefs>
				<v:ud v:nameU="visVersion" v:val="VT0(11):26"/>
			</v:userDefs>
			<v:textBlock v:margins="rect(4,4,4,4)" v:tabSpace="42.5197"/>
			<v:textRect cx="11.25" cy="102.945" width="22.5" height="22.5"/>
			<rect x="0" y="91.695" width="22.5" height="22.5" class="st1"/>
			<text x="8.19" y="106.25" class="st2" v:langID="1033"><v:paragraph v:horizAlign="1"/><v:tabList/>1</text>		</g>
		<g id="shape121-19" v:mID="121" v:groupContext="shape" transform="translate(81.72,-45.1575)">
			<title>Square.121</title>
			<desc>1</desc>
			<v:userDefs>
				<v:ud v:nameU="visVersion" v:val="VT0(11):26"/>
			</v:userDefs>
			<v:textBlock v:margins="rect(4,4,4,4)" v:tabSpace="42.5197"/>
			<v:textRect cx="11.25" cy="102.945" width="22.5" height="22.5"/>
			<rect x="0" y="91.695" width="22.5" height="22.5" class="st1"/>
			<text x="8.19" y="106.25" class="st2" v:langID="1033"><v:paragraph v:horizAlign="1"/><v:tabList/>1</text>		</g>
		<g id="shape122-22" v:mID="122" v:groupContext="shape" transform="translate(104.22,-45.1575)">
			<title>Square.122</title>
			<desc>1</desc>
			<v:userDefs>
				<v:ud v:nameU="visVersion" v:val="VT0(11):26"/>
			</v:userDefs>
			<v:textBlock v:margins="rect(4,4,4,4)" v:tabSpace="42.5197"/>
			<v:textRect cx="11.25" cy="102.945" width="22.5" height="22.5"/>
			<rect x="0" y="91.695" width="22.5" height="22.5" class="st1"/>
			<text x="8.19" y="106.25" class="st2" v:langID="1033"><v:paragraph v:horizAlign="1"/><v:tabList/>1</text>		</g>
		<g id="shape123-25" v:mID="123" v:groupContext="shape" transform="translate(0.72,-90.72)">
			<title>Sheet.123</title>
			<desc>A B</desc>
			<v:textBlock v:margins="rect(4,4,4,4)"/>
			<v:textRect cx="13.5" cy="109.695" width="27" height="9"/>
			<rect x="0" y="105.195" width="27" height="9" class="st3"/>
			<text x="4.64" y="113" class="st2" v:langID="1033"><v:paragraph v:horizAlign="1"/><v:tabList/>A B</text>		</g>
		<g id="shape124-28" v:mID="124" v:groupContext="shape" transform="translate(23.22,-103.095)">
			<title>Sheet.124</title>
			<desc>C D</desc>
			<v:textBlock v:margins="rect(4,4,4,4)"/>
			<v:textRect cx="15.75" cy="109.695" width="31.5" height="9"/>
			<rect x="0" y="105.195" width="31.5" height="9" class="st3"/>
			<text x="6.28" y="113" class="st2" v:langID="1033"><v:paragraph v:horizAlign="1"/><v:tabList/>C D</text>		</g>
		<g id="shape125-31" v:mID="125" v:groupContext="shape" transform="translate(-44.0281,104.786) rotate(-135)">
			<title>Sheet.125</title>
			<path d="M0 114.2 L19.09 114.2" class="st4"/>
		</g>
		<g id="shape128-34" v:mID="128" v:groupContext="shape" transform="translate(36.72,-90.1575)">
			<title>Sheet.128</title>
			<desc>00</desc>
			<v:textBlock v:margins="rect(4,4,4,4)"/>
			<v:textRect cx="11.25" cy="109.695" width="22.5" height="9"/>
			<rect x="0" y="105.195" width="22.5" height="9" class="st3"/>
			<text x="6.24" y="112.4" class="st5" v:langID="1033"><v:paragraph v:horizAlign="1"/><v:tabList/>00</text>		</g>
		<g id="shape129-37" v:mID="129" v:groupContext="shape" transform="translate(56.97,-90.1575)">
			<title>Sheet.129</title>
			<desc>01</desc>
			<v:textBlock v:margins="rect(4,4,4,4)"/>
			<v:textRect cx="11.25" cy="109.695" width="22.5" height="9"/>
			<rect x="0" y="105.195" width="22.5" height="9" class="st3"/>
			<text x="6.24" y="112.4" class="st5" v:langID="1033"><v:paragraph v:horizAlign="1"/><v:tabList/>01</text>		</g>
		<g id="shape130-40" v:mID="130" v:groupContext="shape" transform="translate(81.72,-90.1575)">
			<title>Sheet.130</title>
			<desc>11</desc>
			<v:textBlock v:margins="rect(4,4,4,4)"/>
			<v:textRect cx="11.25" cy="109.695" width="22.5" height="9"/>
			<rect x="0" y="105.195" width="22.5" height="9" class="st3"/>
			<text x="6.24" y="112.4" class="st5" v:langID="1033"><v:paragraph v:horizAlign="1"/><v:tabList/>11</text>		</g>
		<g id="shape131-43" v:mID="131" v:groupContext="shape" transform="translate(104.22,-90.1575)">
			<title>Sheet.131</title>
			<desc>10</desc>
			<v:textBlock v:margins="rect(4,4,4,4)"/>
			<v:textRect cx="11.25" cy="109.695" width="22.5" height="9"/>
			<rect x="0" y="105.195" width="22.5" height="9" class="st3"/>
			<text x="6.24" y="112.4" class="st5" v:langID="1033"><v:paragraph v:horizAlign="1"/><v:tabList/>10</text>		</g>
		<g id="shape135-46" v:mID="135" v:groupContext="shape" transform="translate(36.72,-23.22)">
			<title>Square.135</title>
			<desc>0</desc>
			<v:userDefs>
				<v:ud v:nameU="visVersion" v:val="VT0(11):26"/>
			</v:userDefs>
			<v:textBlock v:margins="rect(4,4,4,4)" v:tabSpace="42.5197"/>
			<v:textRect cx="11.25" cy="102.945" width="22.5" height="22.5"/>
			<rect x="0" y="91.695" width="22.5" height="22.5" class="st1"/>
			<text x="8.19" y="106.25" class="st2" v:langID="1033"><v:paragraph v:horizAlign="1"/><v:tabList/>0</text>		</g>
		<g id="shape136-49" v:mID="136" v:groupContext="shape" transform="translate(59.22,-23.22)">
			<title>Square.136</title>
			<desc>0</desc>
			<v:userDefs>
				<v:ud v:nameU="visVersion" v:val="VT0(11):26"/>
			</v:userDefs>
			<v:textBlock v:margins="rect(4,4,4,4)" v:tabSpace="42.5197"/>
			<v:textRect cx="11.25" cy="102.945" width="22.5" height="22.5"/>
			<rect x="0" y="91.695" width="22.5" height="22.5" class="st1"/>
			<text x="8.19" y="106.25" class="st2" v:langID="1033"><v:paragraph v:horizAlign="1"/><v:tabList/>0</text>		</g>
		<g id="shape137-52" v:mID="137" v:groupContext="shape" transform="translate(81.72,-23.22)">
			<title>Square.137</title>
			<desc>1</desc>
			<v:userDefs>
				<v:ud v:nameU="visVersion" v:val="VT0(11):26"/>
			</v:userDefs>
			<v:textBlock v:margins="rect(4,4,4,4)" v:tabSpace="42.5197"/>
			<v:textRect cx="11.25" cy="102.945" width="22.5" height="22.5"/>
			<rect x="0" y="91.695" width="22.5" height="22.5" class="st1"/>
			<text x="8.19" y="106.25" class="st2" v:langID="1033"><v:paragraph v:horizAlign="1"/><v:tabList/>1</text>		</g>
		<g id="shape138-55" v:mID="138" v:groupContext="shape" transform="translate(104.22,-23.22)">
			<title>Square.138</title>
			<desc>1</desc>
			<v:userDefs>
				<v:ud v:nameU="visVersion" v:val="VT0(11):26"/>
			</v:userDefs>
			<v:textBlock v:margins="rect(4,4,4,4)" v:tabSpace="42.5197"/>
			<v:textRect cx="11.25" cy="102.945" width="22.5" height="22.5"/>
			<rect x="0" y="91.695" width="22.5" height="22.5" class="st1"/>
			<text x="8.19" y="106.25" class="st2" v:langID="1033"><v:paragraph v:horizAlign="1"/><v:tabList/>1</text>		</g>
		<g id="shape139-58" v:mID="139" v:groupContext="shape" transform="translate(36.72,-0.72)">
			<title>Square.139</title>
			<desc>0</desc>
			<v:userDefs>
				<v:ud v:nameU="visVersion" v:val="VT0(11):26"/>
			</v:userDefs>
			<v:textBlock v:margins="rect(4,4,4,4)" v:tabSpace="42.5197"/>
			<v:textRect cx="11.25" cy="102.945" width="22.5" height="22.5"/>
			<rect x="0" y="91.695" width="22.5" height="22.5" class="st1"/>
			<text x="8.19" y="106.25" class="st2" v:langID="1033"><v:paragraph v:horizAlign="1"/><v:tabList/>0</text>		</g>
		<g id="shape140-61" v:mID="140" v:groupContext="shape" transform="translate(59.22,-0.72)">
			<title>Square.140</title>
			<desc>0</desc>
			<v:userDefs>
				<v:ud v:nameU="visVersion" v:val="VT0(11):26"/>
			</v:userDefs>
			<v:textBlock v:margins="rect(4,4,4,4)" v:tabSpace="42.5197"/>
			<v:textRect cx="11.25" cy="102.945" width="22.5" height="22.5"/>
			<rect x="0" y="91.695" width="22.5" height="22.5" class="st1"/>
			<text x="8.19" y="106.25" class="st2" v:langID="1033"><v:paragraph v:horizAlign="1"/><v:tabList/>0</text>		</g>
		<g id="shape141-64" v:mID="141" v:groupContext="shape" transform="translate(81.72,-0.72)">
			<title>Square.141</title>
			<desc>0</desc>
			<v:userDefs>
				<v:ud v:nameU="visVersion" v:val="VT0(11):26"/>
			</v:userDefs>
			<v:textBlock v:margins="rect(4,4,4,4)" v:tabSpace="42.5197"/>
			<v:textRect cx="11.25" cy="102.945" width="22.5" height="22.5"/>
			<rect x="0" y="91.695" width="22.5" height="22.5" class="st1"/>
			<text x="8.19" y="106.25" class="st2" v:langID="1033"><v:paragraph v:horizAlign="1"/><v:tabList/>0</text>		</g>
		<g id="shape142-67" v:mID="142" v:groupContext="shape" transform="translate(104.22,-0.72)">
			<title>Square.142</title>
			<desc>0</desc>
			<v:userDefs>
				<v:ud v:nameU="visVersion" v:val="VT0(11):26"/>
			</v:userDefs>
			<v:textBlock v:margins="rect(4,4,4,4)" v:tabSpace="42.5197"/>
			<v:textRect cx="11.25" cy="102.945" width="22.5" height="22.5"/>
			<rect x="0" y="91.695" width="22.5" height="22.5" class="st1"/>
			<text x="8.19" y="106.25" class="st2" v:langID="1033"><v:paragraph v:horizAlign="1"/><v:tabList/>0</text>		</g>
		<g id="shape133-70" v:mID="133" v:groupContext="shape" transform="translate(86.22,-25.47)">
			<title>Rounded rectangle.133</title>
			<v:userDefs>
				<v:ud v:nameU="visVersion" v:val="VT0(11):26"/>
			</v:userDefs>
			<path d="M31.5 114.2 A4.50003 4.50003 -180 0 0 36 109.7 L36 78.2 A4.50003 4.50003 -180 0 0 31.5 73.7 L4.5 73.7 A4.50003
						 4.50003 -180 0 0 0 78.2 L0 109.7 A4.50003 4.50003 -180 0 0 4.5 114.2 L31.5 114.2 Z" class="st6"/>
		</g>
		<g id="shape132-72" v:mID="132" v:groupContext="shape" transform="translate(63.72,-47.97)">
			<title>Rounded rectangle.132</title>
			<v:userDefs>
				<v:ud v:nameU="visVersion" v:val="VT0(11):26"/>
			</v:userDefs>
			<path d="M9 114.2 A4.50003 4.50003 -180 0 0 13.5 109.7 L13.5 78.2 A4.50003 4.50003 -180 0 0 9 73.7 L4.5 73.7 A4.50003
						 4.50003 -180 0 0 0 78.2 L0 109.7 A4.50003 4.50003 -180 0 0 4.5 114.2 L9 114.2 Z" class="st6"/>
		</g>
		<g id="shape126-74" v:mID="126" v:groupContext="shape" transform="translate(16.47,-72.72)">
			<title>Sheet.126</title>
			<desc>00</desc>
			<v:textBlock v:margins="rect(4,4,4,4)"/>
			<v:textRect cx="11.25" cy="109.695" width="22.5" height="9"/>
			<rect x="0" y="105.195" width="22.5" height="9" class="st3"/>
			<text x="6.24" y="112.4" class="st5" v:langID="1033"><v:paragraph v:horizAlign="1"/><v:tabList/>00</text>		</g>
		<g id="shape127-77" v:mID="127" v:groupContext="shape" transform="translate(16.47,-50.22)">
			<title>Sheet.127</title>
			<desc>01</desc>
			<v:textBlock v:margins="rect(4,4,4,4)"/>
			<v:textRect cx="11.25" cy="109.695" width="22.5" height="9"/>
			<rect x="0" y="105.195" width="22.5" height="9" class="st3"/>
			<text x="6.24" y="112.4" class="st5" v:langID="1033"><v:paragraph v:horizAlign="1"/><v:tabList/>01</text>		</g>
		<g id="shape134-80" v:mID="134" v:groupContext="shape" transform="translate(16.47,-28.845)">
			<title>Sheet.134</title>
			<desc>11</desc>
			<v:textBlock v:margins="rect(4,4,4,4)"/>
			<v:textRect cx="11.25" cy="109.695" width="22.5" height="9"/>
			<rect x="0" y="105.195" width="22.5" height="9" class="st3"/>
			<text x="6.24" y="112.4" class="st5" v:langID="1033"><v:paragraph v:horizAlign="1"/><v:tabList/>11</text>		</g>
		<g id="shape143-83" v:mID="143" v:groupContext="shape" transform="translate(16.47,-6.345)">
			<title>Sheet.143</title>
			<desc>10</desc>
			<v:textBlock v:margins="rect(4,4,4,4)"/>
			<v:textRect cx="11.25" cy="109.695" width="22.5" height="9"/>
			<rect x="0" y="105.195" width="22.5" height="9" class="st3"/>
			<text x="6.24" y="112.4" class="st5" v:langID="1033"><v:paragraph v:horizAlign="1"/><v:tabList/>10</text>		</g>
		<g id="shape145-86" v:mID="145" v:groupContext="shape" transform="translate(180.72,-67.6575)">
			<title>Square.145</title>
			<desc>0</desc>
			<v:userDefs>
				<v:ud v:nameU="visVersion" v:val="VT0(11):26"/>
			</v:userDefs>
			<v:textBlock v:margins="rect(4,4,4,4)" v:tabSpace="42.5197"/>
			<v:textRect cx="11.25" cy="102.945" width="22.5" height="22.5"/>
			<rect x="0" y="91.695" width="22.5" height="22.5" class="st1"/>
			<text x="8.19" y="106.25" class="st2" v:langID="1033"><v:paragraph v:horizAlign="1"/><v:tabList/>0</text>		</g>
		<g id="shape146-89" v:mID="146" v:groupContext="shape" transform="translate(203.22,-67.6575)">
			<title>Square.146</title>
			<desc>1</desc>
			<v:userDefs>
				<v:ud v:nameU="visVersion" v:val="VT0(11):26"/>
			</v:userDefs>
			<v:textBlock v:margins="rect(4,4,4,4)" v:tabSpace="42.5197"/>
			<v:textRect cx="11.25" cy="102.945" width="22.5" height="22.5"/>
			<rect x="0" y="91.695" width="22.5" height="22.5" class="st1"/>
			<text x="8.19" y="106.25" class="st2" v:langID="1033"><v:paragraph v:horizAlign="1"/><v:tabList/>1</text>		</g>
		<g id="shape147-92" v:mID="147" v:groupContext="shape" transform="translate(225.72,-67.6575)">
			<title>Square.147</title>
			<desc>0</desc>
			<v:userDefs>
				<v:ud v:nameU="visVersion" v:val="VT0(11):26"/>
			</v:userDefs>
			<v:textBlock v:margins="rect(4,4,4,4)" v:tabSpace="42.5197"/>
			<v:textRect cx="11.25" cy="102.945" width="22.5" height="22.5"/>
			<rect x="0" y="91.695" width="22.5" height="22.5" class="st1"/>
			<text x="8.19" y="106.25" class="st2" v:langID="1033"><v:paragraph v:horizAlign="1"/><v:tabList/>0</text>		</g>
		<g id="shape148-95" v:mID="148" v:groupContext="shape" transform="translate(248.22,-67.6575)">
			<title>Square.148</title>
			<desc>0</desc>
			<v:userDefs>
				<v:ud v:nameU="visVersion" v:val="VT0(11):26"/>
			</v:userDefs>
			<v:textBlock v:margins="rect(4,4,4,4)" v:tabSpace="42.5197"/>
			<v:textRect cx="11.25" cy="102.945" width="22.5" height="22.5"/>
			<rect x="0" y="91.695" width="22.5" height="22.5" class="st1"/>
			<text x="8.19" y="106.25" class="st2" v:langID="1033"><v:paragraph v:horizAlign="1"/><v:tabList/>0</text>		</g>
		<g id="shape149-98" v:mID="149" v:groupContext="shape" transform="translate(180.72,-45.1575)">
			<title>Square.149</title>
			<desc>1</desc>
			<v:userDefs>
				<v:ud v:nameU="visVersion" v:val="VT0(11):26"/>
			</v:userDefs>
			<v:textBlock v:margins="rect(4,4,4,4)" v:tabSpace="42.5197"/>
			<v:textRect cx="11.25" cy="102.945" width="22.5" height="22.5"/>
			<rect x="0" y="91.695" width="22.5" height="22.5" class="st1"/>
			<text x="8.19" y="106.25" class="st2" v:langID="1033"><v:paragraph v:horizAlign="1"/><v:tabList/>1</text>		</g>
		<g id="shape150-101" v:mID="150" v:groupContext="shape" transform="translate(203.22,-45.1575)">
			<title>Square.150</title>
			<desc>1</desc>
			<v:userDefs>
				<v:ud v:nameU="visVersion" v:val="VT0(11):26"/>
			</v:userDefs>
			<v:textBlock v:margins="rect(4,4,4,4)" v:tabSpace="42.5197"/>
			<v:textRect cx="11.25" cy="102.945" width="22.5" height="22.5"/>
			<rect x="0" y="91.695" width="22.5" height="22.5" class="st1"/>
			<text x="8.19" y="106.25" class="st2" v:langID="1033"><v:paragraph v:horizAlign="1"/><v:tabList/>1</text>		</g>
		<g id="shape151-104" v:mID="151" v:groupContext="shape" transform="translate(225.72,-45.1575)">
			<title>Square.151</title>
			<desc>1</desc>
			<v:userDefs>
				<v:ud v:nameU="visVersion" v:val="VT0(11):26"/>
			</v:userDefs>
			<v:textBlock v:margins="rect(4,4,4,4)" v:tabSpace="42.5197"/>
			<v:textRect cx="11.25" cy="102.945" width="22.5" height="22.5"/>
			<rect x="0" y="91.695" width="22.5" height="22.5" class="st1"/>
			<text x="8.19" y="106.25" class="st2" v:langID="1033"><v:paragraph v:horizAlign="1"/><v:tabList/>1</text>		</g>
		<g id="shape152-107" v:mID="152" v:groupContext="shape" transform="translate(248.22,-45.1575)">
			<title>Square.152</title>
			<desc>1</desc>
			<v:userDefs>
				<v:ud v:nameU="visVersion" v:val="VT0(11):26"/>
			</v:userDefs>
			<v:textBlock v:margins="rect(4,4,4,4)" v:tabSpace="42.5197"/>
			<v:textRect cx="11.25" cy="102.945" width="22.5" height="22.5"/>
			<rect x="0" y="91.695" width="22.5" height="22.5" class="st1"/>
			<text x="8.19" y="106.25" class="st2" v:langID="1033"><v:paragraph v:horizAlign="1"/><v:tabList/>1</text>		</g>
		<g id="shape153-110" v:mID="153" v:groupContext="shape" transform="translate(144.72,-90.72)">
			<title>Sheet.153</title>
			<desc>A B</desc>
			<v:textBlock v:margins="rect(4,4,4,4)"/>
			<v:textRect cx="13.5" cy="109.695" width="27" height="9"/>
			<rect x="0" y="105.195" width="27" height="9" class="st3"/>
			<text x="4.64" y="113" class="st2" v:langID="1033"><v:paragraph v:horizAlign="1"/><v:tabList/>A B</text>		</g>
		<g id="shape154-113" v:mID="154" v:groupContext="shape" transform="translate(167.22,-103.095)">
			<title>Sheet.154</title>
			<desc>C D</desc>
			<v:textBlock v:margins="rect(4,4,4,4)"/>
			<v:textRect cx="15.75" cy="109.695" width="31.5" height="9"/>
			<rect x="0" y="105.195" width="31.5" height="9" class="st3"/>
			<text x="6.28" y="113" class="st2" v:langID="1033"><v:paragraph v:horizAlign="1"/><v:tabList/>C D</text>		</g>
		<g id="shape155-116" v:mID="155" v:groupContext="shape" transform="translate(99.9719,104.786) rotate(-135)">
			<title>Sheet.155</title>
			<path d="M0 114.2 L19.09 114.2" class="st4"/>
		</g>
		<g id="shape156-119" v:mID="156" v:groupContext="shape" transform="translate(180.72,-90.1575)">
			<title>Sheet.156</title>
			<desc>00</desc>
			<v:textBlock v:margins="rect(4,4,4,4)"/>
			<v:textRect cx="11.25" cy="109.695" width="22.5" height="9"/>
			<rect x="0" y="105.195" width="22.5" height="9" class="st3"/>
			<text x="6.24" y="112.4" class="st5" v:langID="1033"><v:paragraph v:horizAlign="1"/><v:tabList/>00</text>		</g>
		<g id="shape157-122" v:mID="157" v:groupContext="shape" transform="translate(200.97,-90.1575)">
			<title>Sheet.157</title>
			<desc>01</desc>
			<v:textBlock v:margins="rect(4,4,4,4)"/>
			<v:textRect cx="11.25" cy="109.695" width="22.5" height="9"/>
			<rect x="0" y="105.195" width="22.5" height="9" class="st3"/>
			<text x="6.24" y="112.4" class="st5" v:langID="1033"><v:paragraph v:horizAlign="1"/><v:tabList/>01</text>		</g>
		<g id="shape158-125" v:mID="158" v:groupContext="shape" transform="translate(225.72,-90.1575)">
			<title>Sheet.158</title>
			<desc>11</desc>
			<v:textBlock v:margins="rect(4,4,4,4)"/>
			<v:textRect cx="11.25" cy="109.695" width="22.5" height="9"/>
			<rect x="0" y="105.195" width="22.5" height="9" class="st3"/>
			<text x="6.24" y="112.4" class="st5" v:langID="1033"><v:paragraph v:horizAlign="1"/><v:tabList/>11</text>		</g>
		<g id="shape159-128" v:mID="159" v:groupContext="shape" transform="translate(248.22,-90.1575)">
			<title>Sheet.159</title>
			<desc>10</desc>
			<v:textBlock v:margins="rect(4,4,4,4)"/>
			<v:textRect cx="11.25" cy="109.695" width="22.5" height="9"/>
			<rect x="0" y="105.195" width="22.5" height="9" class="st3"/>
			<text x="6.24" y="112.4" class="st5" v:langID="1033"><v:paragraph v:horizAlign="1"/><v:tabList/>10</text>		</g>
		<g id="shape160-131" v:mID="160" v:groupContext="shape" transform="translate(180.72,-23.22)">
			<title>Square.160</title>
			<desc>0</desc>
			<v:userDefs>
				<v:ud v:nameU="visVersion" v:val="VT0(11):26"/>
			</v:userDefs>
			<v:textBlock v:margins="rect(4,4,4,4)" v:tabSpace="42.5197"/>
			<v:textRect cx="11.25" cy="102.945" width="22.5" height="22.5"/>
			<rect x="0" y="91.695" width="22.5" height="22.5" class="st1"/>
			<text x="8.19" y="106.25" class="st2" v:langID="1033"><v:paragraph v:horizAlign="1"/><v:tabList/>0</text>		</g>
		<g id="shape161-134" v:mID="161" v:groupContext="shape" transform="translate(203.22,-23.22)">
			<title>Square.161</title>
			<desc>0</desc>
			<v:userDefs>
				<v:ud v:nameU="visVersion" v:val="VT0(11):26"/>
			</v:userDefs>
			<v:textBlock v:margins="rect(4,4,4,4)" v:tabSpace="42.5197"/>
			<v:textRect cx="11.25" cy="102.945" width="22.5" height="22.5"/>
			<rect x="0" y="91.695" width="22.5" height="22.5" class="st1"/>
			<text x="8.19" y="106.25" class="st2" v:langID="1033"><v:paragraph v:horizAlign="1"/><v:tabList/>0</text>		</g>
		<g id="shape162-137" v:mID="162" v:groupContext="shape" transform="translate(225.72,-23.22)">
			<title>Square.162</title>
			<desc>1</desc>
			<v:userDefs>
				<v:ud v:nameU="visVersion" v:val="VT0(11):26"/>
			</v:userDefs>
			<v:textBlock v:margins="rect(4,4,4,4)" v:tabSpace="42.5197"/>
			<v:textRect cx="11.25" cy="102.945" width="22.5" height="22.5"/>
			<rect x="0" y="91.695" width="22.5" height="22.5" class="st1"/>
			<text x="8.19" y="106.25" class="st2" v:langID="1033"><v:paragraph v:horizAlign="1"/><v:tabList/>1</text>		</g>
		<g id="shape163-140" v:mID="163" v:groupContext="shape" transform="translate(248.22,-23.22)">
			<title>Square.163</title>
			<desc>0</desc>
			<v:userDefs>
				<v:ud v:nameU="visVersion" v:val="VT0(11):26"/>
			</v:userDefs>
			<v:textBlock v:margins="rect(4,4,4,4)" v:tabSpace="42.5197"/>
			<v:textRect cx="11.25" cy="102.945" width="22.5" height="22.5"/>
			<rect x="0" y="91.695" width="22.5" height="22.5" class="st1"/>
			<text x="8.19" y="106.25" class="st2" v:langID="1033"><v:paragraph v:horizAlign="1"/><v:tabList/>0</text>		</g>
		<g id="shape164-143" v:mID="164" v:groupContext="shape" transform="translate(180.72,-0.72)">
			<title>Square.164</title>
			<desc>0</desc>
			<v:userDefs>
				<v:ud v:nameU="visVersion" v:val="VT0(11):26"/>
			</v:userDefs>
			<v:textBlock v:margins="rect(4,4,4,4)" v:tabSpace="42.5197"/>
			<v:textRect cx="11.25" cy="102.945" width="22.5" height="22.5"/>
			<rect x="0" y="91.695" width="22.5" height="22.5" class="st1"/>
			<text x="8.19" y="106.25" class="st2" v:langID="1033"><v:paragraph v:horizAlign="1"/><v:tabList/>0</text>		</g>
		<g id="shape165-146" v:mID="165" v:groupContext="shape" transform="translate(203.22,-0.72)">
			<title>Square.165</title>
			<desc>0</desc>
			<v:userDefs>
				<v:ud v:nameU="visVersion" v:val="VT0(11):26"/>
			</v:userDefs>
			<v:textBlock v:margins="rect(4,4,4,4)" v:tabSpace="42.5197"/>
			<v:textRect cx="11.25" cy="102.945" width="22.5" height="22.5"/>
			<rect x="0" y="91.695" width="22.5" height="22.5" class="st1"/>
			<text x="8.19" y="106.25" class="st2" v:langID="1033"><v:paragraph v:horizAlign="1"/><v:tabList/>0</text>		</g>
		<g id="shape166-149" v:mID="166" v:groupContext="shape" transform="translate(225.72,-0.72)">
			<title>Square.166</title>
			<desc>0</desc>
			<v:userDefs>
				<v:ud v:nameU="visVersion" v:val="VT0(11):26"/>
			</v:userDefs>
			<v:textBlock v:margins="rect(4,4,4,4)" v:tabSpace="42.5197"/>
			<v:textRect cx="11.25" cy="102.945" width="22.5" height="22.5"/>
			<rect x="0" y="91.695" width="22.5" height="22.5" class="st1"/>
			<text x="8.19" y="106.25" class="st2" v:langID="1033"><v:paragraph v:horizAlign="1"/><v:tabList/>0</text>		</g>
		<g id="shape167-152" v:mID="167" v:groupContext="shape" transform="translate(248.22,-0.72)">
			<title>Square.167</title>
			<desc>0</desc>
			<v:userDefs>
				<v:ud v:nameU="visVersion" v:val="VT0(11):26"/>
			</v:userDefs>
			<v:textBlock v:margins="rect(4,4,4,4)" v:tabSpace="42.5197"/>
			<v:textRect cx="11.25" cy="102.945" width="22.5" height="22.5"/>
			<rect x="0" y="91.695" width="22.5" height="22.5" class="st1"/>
			<text x="8.19" y="106.25" class="st2" v:langID="1033"><v:paragraph v:horizAlign="1"/><v:tabList/>0</text>		</g>
		<g id="shape168-155" v:mID="168" v:groupContext="shape" transform="translate(182.97,-50.22)">
			<title>Rounded rectangle.168</title>
			<v:userDefs>
				<v:ud v:nameU="visVersion" v:val="VT0(11):26"/>
			</v:userDefs>
			<path d="M78.75 114.2 A4.50003 4.50003 -180 0 0 83.25 109.7 L83.25 105.2 A4.50003 4.50003 -180 0 0 78.75 100.7 L4.5 100.7
						 A4.50003 4.50003 -180 0 0 0 105.2 L0 109.7 A4.50003 4.50003 -180 0 0 4.5 114.2 L78.75 114.2 Z" class="st6"/>
		</g>
		<g id="shape169-157" v:mID="169" v:groupContext="shape" transform="translate(230.22,-25.47)">
			<title>Rounded rectangle.169</title>
			<v:userDefs>
				<v:ud v:nameU="visVersion" v:val="VT0(11):26"/>
			</v:userDefs>
			<path d="M9 114.2 A4.50003 4.50003 -180 0 0 13.5 109.7 L13.5 78.2 A4.50003 4.50003 -180 0 0 9 73.7 L4.5 73.7 A4.50003
						 4.50003 -180 0 0 0 78.2 L0 109.7 A4.50003 4.50003 -180 0 0 4.5 114.2 L9 114.2 Z" class="st6"/>
		</g>
		<g id="shape170-159" v:mID="170" v:groupContext="shape" transform="translate(207.72,-47.97)">
			<title>Rounded rectangle.170</title>
			<v:userDefs>
				<v:ud v:nameU="visVersion" v:val="VT0(11):26"/>
			</v:userDefs>
			<path d="M9 114.2 A4.50003 4.50003 -180 0 0 13.5 109.7 L13.5 78.2 A4.50003 4.50003 -180 0 0 9 73.7 L4.5 73.7 A4.50003
						 4.50003 -180 0 0 0 78.2 L0 109.7 A4.50003 4.50003 -180 0 0 4.5 114.2 L9 114.2 Z" class="st6"/>
		</g>
		<g id="shape171-161" v:mID="171" v:groupContext="shape" transform="translate(160.47,-72.72)">
			<title>Sheet.171</title>
			<desc>00</desc>
			<v:textBlock v:margins="rect(4,4,4,4)"/>
			<v:textRect cx="11.25" cy="109.695" width="22.5" height="9"/>
			<rect x="0" y="105.195" width="22.5" height="9" class="st3"/>
			<text x="6.24" y="112.4" class="st5" v:langID="1033"><v:paragraph v:horizAlign="1"/><v:tabList/>00</text>		</g>
		<g id="shape172-164" v:mID="172" v:groupContext="shape" transform="translate(160.47,-50.22)">
			<title>Sheet.172</title>
			<desc>01</desc>
			<v:textBlock v:margins="rect(4,4,4,4)"/>
			<v:textRect cx="11.25" cy="109.695" width="22.5" height="9"/>
			<rect x="0" y="105.195" width="22.5" height="9" class="st3"/>
			<text x="6.24" y="112.4" class="st5" v:langID="1033"><v:paragraph v:horizAlign="1"/><v:tabList/>01</text>		</g>
		<g id="shape173-167" v:mID="173" v:groupContext="shape" transform="translate(160.47,-28.845)">
			<title>Sheet.173</title>
			<desc>11</desc>
			<v:textBlock v:margins="rect(4,4,4,4)"/>
			<v:textRect cx="11.25" cy="109.695" width="22.5" height="9"/>
			<rect x="0" y="105.195" width="22.5" height="9" class="st3"/>
			<text x="6.24" y="112.4" class="st5" v:langID="1033"><v:paragraph v:horizAlign="1"/><v:tabList/>11</text>		</g>
		<g id="shape174-170" v:mID="174" v:groupContext="shape" transform="translate(160.47,-6.345)">
			<title>Sheet.174</title>
			<desc>10</desc>
			<v:textBlock v:margins="rect(4,4,4,4)"/>
			<v:textRect cx="11.25" cy="109.695" width="22.5" height="9"/>
			<rect x="0" y="105.195" width="22.5" height="9" class="st3"/>
			<text x="6.24" y="112.4" class="st5" v:langID="1033"><v:paragraph v:horizAlign="1"/><v:tabList/>10</text>		</g>
		<g id="shape175-173" v:mID="175" v:groupContext="shape" transform="translate(324.72,-67.6575)">
			<title>Square.175</title>
			<desc>1</desc>
			<v:userDefs>
				<v:ud v:nameU="visVersion" v:val="VT0(11):26"/>
			</v:userDefs>
			<v:textBlock v:margins="rect(4,4,4,4)" v:tabSpace="42.5197"/>
			<v:textRect cx="11.25" cy="102.945" width="22.5" height="22.5"/>
			<rect x="0" y="91.695" width="22.5" height="22.5" class="st1"/>
			<text x="8.19" y="106.25" class="st2" v:langID="1033"><v:paragraph v:horizAlign="1"/><v:tabList/>1</text>		</g>
		<g id="shape176-176" v:mID="176" v:groupContext="shape" transform="translate(347.22,-67.6575)">
			<title>Square.176</title>
			<desc>0</desc>
			<v:userDefs>
				<v:ud v:nameU="visVersion" v:val="VT0(11):26"/>
			</v:userDefs>
			<v:textBlock v:margins="rect(4,4,4,4)" v:tabSpace="42.5197"/>
			<v:textRect cx="11.25" cy="102.945" width="22.5" height="22.5"/>
			<rect x="0" y="91.695" width="22.5" height="22.5" class="st1"/>
			<text x="8.19" y="106.25" class="st2" v:langID="1033"><v:paragraph v:horizAlign="1"/><v:tabList/>0</text>		</g>
		<g id="shape177-179" v:mID="177" v:groupContext="shape" transform="translate(369.72,-67.6575)">
			<title>Square.177</title>
			<desc>0</desc>
			<v:userDefs>
				<v:ud v:nameU="visVersion" v:val="VT0(11):26"/>
			</v:userDefs>
			<v:textBlock v:margins="rect(4,4,4,4)" v:tabSpace="42.5197"/>
			<v:textRect cx="11.25" cy="102.945" width="22.5" height="22.5"/>
			<rect x="0" y="91.695" width="22.5" height="22.5" class="st1"/>
			<text x="8.19" y="106.25" class="st2" v:langID="1033"><v:paragraph v:horizAlign="1"/><v:tabList/>0</text>		</g>
		<g id="shape178-182" v:mID="178" v:groupContext="shape" transform="translate(392.22,-67.6575)">
			<title>Square.178</title>
			<desc>0</desc>
			<v:userDefs>
				<v:ud v:nameU="visVersion" v:val="VT0(11):26"/>
			</v:userDefs>
			<v:textBlock v:margins="rect(4,4,4,4)" v:tabSpace="42.5197"/>
			<v:textRect cx="11.25" cy="102.945" width="22.5" height="22.5"/>
			<rect x="0" y="91.695" width="22.5" height="22.5" class="st1"/>
			<text x="8.19" y="106.25" class="st2" v:langID="1033"><v:paragraph v:horizAlign="1"/><v:tabList/>0</text>		</g>
		<g id="shape179-185" v:mID="179" v:groupContext="shape" transform="translate(324.72,-45.1575)">
			<title>Square.179</title>
			<desc>1</desc>
			<v:userDefs>
				<v:ud v:nameU="visVersion" v:val="VT0(11):26"/>
			</v:userDefs>
			<v:textBlock v:margins="rect(4,4,4,4)" v:tabSpace="42.5197"/>
			<v:textRect cx="11.25" cy="102.945" width="22.5" height="22.5"/>
			<rect x="0" y="91.695" width="22.5" height="22.5" class="st1"/>
			<text x="8.19" y="106.25" class="st2" v:langID="1033"><v:paragraph v:horizAlign="1"/><v:tabList/>1</text>		</g>
		<g id="shape180-188" v:mID="180" v:groupContext="shape" transform="translate(347.22,-45.1575)">
			<title>Square.180</title>
			<desc>0</desc>
			<v:userDefs>
				<v:ud v:nameU="visVersion" v:val="VT0(11):26"/>
			</v:userDefs>
			<v:textBlock v:margins="rect(4,4,4,4)" v:tabSpace="42.5197"/>
			<v:textRect cx="11.25" cy="102.945" width="22.5" height="22.5"/>
			<rect x="0" y="91.695" width="22.5" height="22.5" class="st1"/>
			<text x="8.19" y="106.25" class="st2" v:langID="1033"><v:paragraph v:horizAlign="1"/><v:tabList/>0</text>		</g>
		<g id="shape181-191" v:mID="181" v:groupContext="shape" transform="translate(369.72,-45.1575)">
			<title>Square.181</title>
			<desc>1</desc>
			<v:userDefs>
				<v:ud v:nameU="visVersion" v:val="VT0(11):26"/>
			</v:userDefs>
			<v:textBlock v:margins="rect(4,4,4,4)" v:tabSpace="42.5197"/>
			<v:textRect cx="11.25" cy="102.945" width="22.5" height="22.5"/>
			<rect x="0" y="91.695" width="22.5" height="22.5" class="st1"/>
			<text x="8.19" y="106.25" class="st2" v:langID="1033"><v:paragraph v:horizAlign="1"/><v:tabList/>1</text>		</g>
		<g id="shape182-194" v:mID="182" v:groupContext="shape" transform="translate(392.22,-45.1575)">
			<title>Square.182</title>
			<desc>0</desc>
			<v:userDefs>
				<v:ud v:nameU="visVersion" v:val="VT0(11):26"/>
			</v:userDefs>
			<v:textBlock v:margins="rect(4,4,4,4)" v:tabSpace="42.5197"/>
			<v:textRect cx="11.25" cy="102.945" width="22.5" height="22.5"/>
			<rect x="0" y="91.695" width="22.5" height="22.5" class="st1"/>
			<text x="8.19" y="106.25" class="st2" v:langID="1033"><v:paragraph v:horizAlign="1"/><v:tabList/>0</text>		</g>
		<g id="shape183-197" v:mID="183" v:groupContext="shape" transform="translate(311.22,-103.095)">
			<title>Sheet.183</title>
			<desc>C D</desc>
			<v:textBlock v:margins="rect(4,4,4,4)"/>
			<v:textRect cx="15.75" cy="109.695" width="31.5" height="9"/>
			<rect x="0" y="105.195" width="31.5" height="9" class="st3"/>
			<text x="6.28" y="113" class="st2" v:langID="1033"><v:paragraph v:horizAlign="1"/><v:tabList/>C D</text>		</g>
		<g id="shape184-200" v:mID="184" v:groupContext="shape" transform="translate(243.972,104.786) rotate(-135)">
			<title>Sheet.184</title>
			<path d="M0 114.2 L19.09 114.2" class="st4"/>
		</g>
		<g id="shape185-203" v:mID="185" v:groupContext="shape" transform="translate(324.72,-90.1575)">
			<title>Sheet.185</title>
			<desc>00</desc>
			<v:textBlock v:margins="rect(4,4,4,4)"/>
			<v:textRect cx="11.25" cy="109.695" width="22.5" height="9"/>
			<rect x="0" y="105.195" width="22.5" height="9" class="st3"/>
			<text x="6.24" y="112.4" class="st5" v:langID="1033"><v:paragraph v:horizAlign="1"/><v:tabList/>00</text>		</g>
		<g id="shape186-206" v:mID="186" v:groupContext="shape" transform="translate(344.97,-90.1575)">
			<title>Sheet.186</title>
			<desc>01</desc>
			<v:textBlock v:margins="rect(4,4,4,4)"/>
			<v:textRect cx="11.25" cy="109.695" width="22.5" height="9"/>
			<rect x="0" y="105.195" width="22.5" height="9" class="st3"/>
			<text x="6.24" y="112.4" class="st5" v:langID="1033"><v:paragraph v:horizAlign="1"/><v:tabList/>01</text>		</g>
		<g id="shape187-209" v:mID="187" v:groupContext="shape" transform="translate(369.72,-90.1575)">
			<title>Sheet.187</title>
			<desc>11</desc>
			<v:textBlock v:margins="rect(4,4,4,4)"/>
			<v:textRect cx="11.25" cy="109.695" width="22.5" height="9"/>
			<rect x="0" y="105.195" width="22.5" height="9" class="st3"/>
			<text x="6.24" y="112.4" class="st5" v:langID="1033"><v:paragraph v:horizAlign="1"/><v:tabList/>11</text>		</g>
		<g id="shape188-212" v:mID="188" v:groupContext="shape" transform="translate(392.22,-90.1575)">
			<title>Sheet.188</title>
			<desc>10</desc>
			<v:textBlock v:margins="rect(4,4,4,4)"/>
			<v:textRect cx="11.25" cy="109.695" width="22.5" height="9"/>
			<rect x="0" y="105.195" width="22.5" height="9" class="st3"/>
			<text x="6.24" y="112.4" class="st5" v:langID="1033"><v:paragraph v:horizAlign="1"/><v:tabList/>10</text>		</g>
		<g id="shape189-215" v:mID="189" v:groupContext="shape" transform="translate(324.72,-23.22)">
			<title>Square.189</title>
			<desc>0</desc>
			<v:userDefs>
				<v:ud v:nameU="visVersion" v:val="VT0(11):26"/>
			</v:userDefs>
			<v:textBlock v:margins="rect(4,4,4,4)" v:tabSpace="42.5197"/>
			<v:textRect cx="11.25" cy="102.945" width="22.5" height="22.5"/>
			<rect x="0" y="91.695" width="22.5" height="22.5" class="st1"/>
			<text x="8.19" y="106.25" class="st2" v:langID="1033"><v:paragraph v:horizAlign="1"/><v:tabList/>0</text>		</g>
		<g id="shape190-218" v:mID="190" v:groupContext="shape" transform="translate(347.22,-23.22)">
			<title>Square.190</title>
			<desc>0</desc>
			<v:userDefs>
				<v:ud v:nameU="visVersion" v:val="VT0(11):26"/>
			</v:userDefs>
			<v:textBlock v:margins="rect(4,4,4,4)" v:tabSpace="42.5197"/>
			<v:textRect cx="11.25" cy="102.945" width="22.5" height="22.5"/>
			<rect x="0" y="91.695" width="22.5" height="22.5" class="st1"/>
			<text x="8.19" y="106.25" class="st2" v:langID="1033"><v:paragraph v:horizAlign="1"/><v:tabList/>0</text>		</g>
		<g id="shape191-221" v:mID="191" v:groupContext="shape" transform="translate(369.72,-23.22)">
			<title>Square.191</title>
			<desc>1</desc>
			<v:userDefs>
				<v:ud v:nameU="visVersion" v:val="VT0(11):26"/>
			</v:userDefs>
			<v:textBlock v:margins="rect(4,4,4,4)" v:tabSpace="42.5197"/>
			<v:textRect cx="11.25" cy="102.945" width="22.5" height="22.5"/>
			<rect x="0" y="91.695" width="22.5" height="22.5" class="st1"/>
			<text x="8.19" y="106.25" class="st2" v:langID="1033"><v:paragraph v:horizAlign="1"/><v:tabList/>1</text>		</g>
		<g id="shape192-224" v:mID="192" v:groupContext="shape" transform="translate(392.22,-23.22)">
			<title>Square.192</title>
			<desc>0</desc>
			<v:userDefs>
				<v:ud v:nameU="visVersion" v:val="VT0(11):26"/>
			</v:userDefs>
			<v:textBlock v:margins="rect(4,4,4,4)" v:tabSpace="42.5197"/>
			<v:textRect cx="11.25" cy="102.945" width="22.5" height="22.5"/>
			<rect x="0" y="91.695" width="22.5" height="22.5" class="st1"/>
			<text x="8.19" y="106.25" class="st2" v:langID="1033"><v:paragraph v:horizAlign="1"/><v:tabList/>0</text>		</g>
		<g id="shape193-227" v:mID="193" v:groupContext="shape" transform="translate(324.72,-0.72)">
			<title>Square.193</title>
			<desc>0</desc>
			<v:userDefs>
				<v:ud v:nameU="visVersion" v:val="VT0(11):26"/>
			</v:userDefs>
			<v:textBlock v:margins="rect(4,4,4,4)" v:tabSpace="42.5197"/>
			<v:textRect cx="11.25" cy="102.945" width="22.5" height="22.5"/>
			<rect x="0" y="91.695" width="22.5" height="22.5" class="st1"/>
			<text x="8.19" y="106.25" class="st2" v:langID="1033"><v:paragraph v:horizAlign="1"/><v:tabList/>0</text>		</g>
		<g id="shape194-230" v:mID="194" v:groupContext="shape" transform="translate(347.22,-0.72)">
			<title>Square.194</title>
			<desc>0</desc>
			<v:userDefs>
				<v:ud v:nameU="visVersion" v:val="VT0(11):26"/>
			</v:userDefs>
			<v:textBlock v:margins="rect(4,4,4,4)" v:tabSpace="42.5197"/>
			<v:textRect cx="11.25" cy="102.945" width="22.5" height="22.5"/>
			<rect x="0" y="91.695" width="22.5" height="22.5" class="st1"/>
			<text x="8.19" y="106.25" class="st2" v:langID="1033"><v:paragraph v:horizAlign="1"/><v:tabList/>0</text>		</g>
		<g id="shape195-233" v:mID="195" v:groupContext="shape" transform="translate(369.72,-0.72)">
			<title>Square.195</title>
			<desc>0</desc>
			<v:userDefs>
				<v:ud v:nameU="visVersion" v:val="VT0(11):26"/>
			</v:userDefs>
			<v:textBlock v:margins="rect(4,4,4,4)" v:tabSpace="42.5197"/>
			<v:textRect cx="11.25" cy="102.945" width="22.5" height="22.5"/>
			<rect x="0" y="91.695" width="22.5" height="22.5" class="st1"/>
			<text x="8.19" y="106.25" class="st2" v:langID="1033"><v:paragraph v:horizAlign="1"/><v:tabList/>0</text>		</g>
		<g id="shape196-236" v:mID="196" v:groupContext="shape" transform="translate(392.22,-0.72)">
			<title>Square.196</title>
			<desc>0</desc>
			<v:userDefs>
				<v:ud v:nameU="visVersion" v:val="VT0(11):26"/>
			</v:userDefs>
			<v:textBlock v:margins="rect(4,4,4,4)" v:tabSpace="42.5197"/>
			<v:textRect cx="11.25" cy="102.945" width="22.5" height="22.5"/>
			<rect x="0" y="91.695" width="22.5" height="22.5" class="st1"/>
			<text x="8.19" y="106.25" class="st2" v:langID="1033"><v:paragraph v:horizAlign="1"/><v:tabList/>0</text>		</g>
		<g id="shape198-239" v:mID="198" v:groupContext="shape" transform="translate(374.22,-25.47)">
			<title>Rounded rectangle.198</title>
			<v:userDefs>
				<v:ud v:nameU="visVersion" v:val="VT0(11):26"/>
			</v:userDefs>
			<path d="M9 114.2 A4.50003 4.50003 -180 0 0 13.5 109.7 L13.5 78.2 A4.50003 4.50003 -180 0 0 9 73.7 L4.5 73.7 A4.50003
						 4.50003 -180 0 0 0 78.2 L0 109.7 A4.50003 4.50003 -180 0 0 4.5 114.2 L9 114.2 Z" class="st6"/>
		</g>
		<g id="shape200-241" v:mID="200" v:groupContext="shape" transform="translate(304.47,-72.72)">
			<title>Sheet.200</title>
			<desc>00</desc>
			<v:textBlock v:margins="rect(4,4,4,4)"/>
			<v:textRect cx="11.25" cy="109.695" width="22.5" height="9"/>
			<rect x="0" y="105.195" width="22.5" height="9" class="st3"/>
			<text x="6.24" y="112.4" class="st5" v:langID="1033"><v:paragraph v:horizAlign="1"/><v:tabList/>00</text>		</g>
		<g id="shape201-244" v:mID="201" v:groupContext="shape" transform="translate(304.47,-50.22)">
			<title>Sheet.201</title>
			<desc>01</desc>
			<v:textBlock v:margins="rect(4,4,4,4)"/>
			<v:textRect cx="11.25" cy="109.695" width="22.5" height="9"/>
			<rect x="0" y="105.195" width="22.5" height="9" class="st3"/>
			<text x="6.24" y="112.4" class="st5" v:langID="1033"><v:paragraph v:horizAlign="1"/><v:tabList/>01</text>		</g>
		<g id="shape202-247" v:mID="202" v:groupContext="shape" transform="translate(304.47,-28.845)">
			<title>Sheet.202</title>
			<desc>11</desc>
			<v:textBlock v:margins="rect(4,4,4,4)"/>
			<v:textRect cx="11.25" cy="109.695" width="22.5" height="9"/>
			<rect x="0" y="105.195" width="22.5" height="9" class="st3"/>
			<text x="6.24" y="112.4" class="st5" v:langID="1033"><v:paragraph v:horizAlign="1"/><v:tabList/>11</text>		</g>
		<g id="shape203-250" v:mID="203" v:groupContext="shape" transform="translate(304.47,-6.345)">
			<title>Sheet.203</title>
			<desc>10</desc>
			<v:textBlock v:margins="rect(4,4,4,4)"/>
			<v:textRect cx="11.25" cy="109.695" width="22.5" height="9"/>
			<rect x="0" y="105.195" width="22.5" height="9" class="st3"/>
			<text x="6.24" y="112.4" class="st5" v:langID="1033"><v:paragraph v:horizAlign="1"/><v:tabList/>10</text>		</g>
		<g id="shape204-253" v:mID="204" v:groupContext="shape" transform="translate(288.72,-90.72)">
			<title>Sheet.204</title>
			<desc>A B</desc>
			<v:textBlock v:margins="rect(4,4,4,4)"/>
			<v:textRect cx="13.5" cy="109.695" width="27" height="9"/>
			<rect x="0" y="105.195" width="27" height="9" class="st3"/>
			<text x="4.64" y="113" class="st2" v:langID="1033"><v:paragraph v:horizAlign="1"/><v:tabList/>A B</text>		</g>
		<g id="shape197-256" v:mID="197" v:groupContext="shape" transform="translate(329.22,-47.97)">
			<title>Rounded rectangle.197</title>
			<v:userDefs>
				<v:ud v:nameU="visVersion" v:val="VT0(11):26"/>
			</v:userDefs>
			<path d="M9 114.2 A4.50003 4.50003 -180 0 0 13.5 109.7 L13.5 78.2 A4.50003 4.50003 -180 0 0 9 73.7 L4.5 73.7 A4.50003
						 4.50003 -180 0 0 0 78.2 L0 109.7 A4.50003 4.50003 -180 0 0 4.5 114.2 L9 114.2 Z" class="st6"/>
		</g>
	</g>
</svg>
