<?xml version="1.0" encoding="UTF-8" standalone="no"?>
<!DOCTYPE svg PUBLIC "-//W3C//DTD SVG 1.1//EN" "http://www.w3.org/Graphics/SVG/1.1/DTD/svg11.dtd">
<!-- Generated by Microsoft Visio, SVG Export CRT_Timing.svg Page-1 -->
<svg xmlns="http://www.w3.org/2000/svg" xmlns:xlink="http://www.w3.org/1999/xlink" xmlns:ev="http://www.w3.org/2001/xml-events"
		xmlns:v="http://schemas.microsoft.com/visio/2003/SVGExtensions/" width="4.46in" height="4.38835in"
		viewBox="0 0 321.12 315.961" xml:space="preserve" color-interpolation-filters="sRGB" class="st24">
	<v:documentProperties v:langID="1033" v:viewMarkup="false"/>

	<style type="text/css">
	<![CDATA[
		.st1 {fill:url(#grad12-4);stroke:#000000;stroke-linecap:round;stroke-linejoin:round;stroke-width:1.2}
		.st2 {fill:#cdcdcd;stroke:#ffffff;stroke-linecap:round;stroke-linejoin:round;stroke-width:0.24}
		.st3 {stroke:#000000;stroke-dasharray:0,3.6;stroke-linecap:round;stroke-linejoin:round;stroke-width:0.72}
		.st4 {stroke:#000000;stroke-linecap:round;stroke-linejoin:round;stroke-width:0.72}
		.st5 {fill:none;stroke:none;stroke-linecap:round;stroke-linejoin:round;stroke-width:0.72}
		.st6 {fill:#000000;font-family:Calibri;font-size:0.75em}
		.st7 {font-size:1em}
		.st8 {marker-end:url(#mrkr4-40);stroke:#000000;stroke-linecap:round;stroke-linejoin:round;stroke-width:0.72}
		.st9 {fill:#000000;fill-opacity:1;stroke:#000000;stroke-opacity:1;stroke-width:0.28571428571429}
		.st10 {marker-end:url(#mrkr4-46);stroke:#000000;stroke-linecap:round;stroke-linejoin:round;stroke-width:0.72}
		.st11 {fill:#000000;fill-opacity:1;stroke:#000000;stroke-opacity:1;stroke-width:0.33333333333333}
		.st12 {marker-end:url(#mrkr4-67);marker-start:url(#mrkr4-65);stroke:#000000;stroke-linecap:round;stroke-linejoin:round;stroke-width:0.24}
		.st13 {fill:#000000;fill-opacity:1;stroke:#000000;stroke-opacity:1;stroke-width:0.11764705882353}
		.st14 {fill:#ffffff;stroke:none;stroke-linecap:butt;stroke-width:7.2}
		.st15 {fill:#000000;font-family:Calibri;font-size:0.666664em}
		.st16 {marker-end:url(#mrkr4-67);stroke:#000000;stroke-linecap:round;stroke-linejoin:round;stroke-width:0.24}
		.st17 {stroke:#4d4d4d;stroke-linecap:round;stroke-linejoin:round;stroke-width:1.2}
		.st18 {stroke:#ff0000;stroke-linecap:round;stroke-linejoin:round;stroke-width:0.72}
		.st19 {marker-end:url(#mrkr4-141);stroke:#ff0000;stroke-linecap:round;stroke-linejoin:round;stroke-width:0.72}
		.st20 {fill:#ff0000;fill-opacity:1;stroke:#ff0000;stroke-opacity:1;stroke-width:0.28571428571429}
		.st21 {fill:#000000;font-family:Calibri;font-size:1.00001em}
		.st22 {marker-end:url(#mrkr4-208);stroke:#000000;stroke-linecap:round;stroke-linejoin:round;stroke-width:0.72}
		.st23 {marker-end:url(#mrkr4-214);stroke:#000000;stroke-linecap:round;stroke-linejoin:round;stroke-width:0.72}
		.st24 {fill:none;fill-rule:evenodd;font-size:12px;overflow:visible;stroke-linecap:square;stroke-miterlimit:3}
	]]>
	</style>

	<defs id="Patterns_And_Gradients">
		<pattern id="grad12-4" x="0" y="0" width="1" height="1" patternContentUnits="objectBoundingBox">
			<path d="M 0 0 L 0 1 L 1 1 z" style="fill:url(#grad0-5)"/>
			<path d="M 0 0 L 1 0 L 1 1 z" style="fill:url(#grad0-6)"/>
		</pattern>
		<linearGradient id="grad0-5" x1="0" y1="0" x2="1" y2="0" gradientTransform="rotate(90 0.5 0.5)">
			<stop offset="0" stop-color="#b3b3b3" stop-opacity="1"/>
			<stop offset="1" stop-color="#ffffff" stop-opacity="1"/>
		</linearGradient>
		<linearGradient id="grad0-6" x1="0" y1="0" x2="1" y2="0" gradientTransform="rotate(360 0.5 0.5)">
			<stop offset="0" stop-color="#b3b3b3" stop-opacity="1"/>
			<stop offset="1" stop-color="#ffffff" stop-opacity="1"/>
		</linearGradient>
	</defs>
	<defs id="Markers">
		<g id="lend4">
			<path d="M 2 1 L 0 0 L 2 -1 L 2 1 " style="stroke:none"/>
		</g>
		<marker id="mrkr4-40" class="st9" v:arrowType="4" v:arrowSize="1" v:setback="7" refX="-7" orient="auto"
				markerUnits="strokeWidth" overflow="visible">
			<use xlink:href="#lend4" transform="scale(-3.5,-3.5) "/>
		</marker>
		<marker id="mrkr4-46" class="st11" v:arrowType="4" v:arrowSize="0" v:setback="6" refX="-6" orient="auto"
				markerUnits="strokeWidth" overflow="visible">
			<use xlink:href="#lend4" transform="scale(-3,-3) "/>
		</marker>
		<marker id="mrkr4-65" class="st13" v:arrowType="4" v:arrowSize="1" v:setback="15.5" refX="15.5" orient="auto"
				markerUnits="strokeWidth" overflow="visible">
			<use xlink:href="#lend4" transform="scale(8.5) "/>
		</marker>
		<marker id="mrkr4-67" class="st13" v:arrowType="4" v:arrowSize="1" v:setback="17" refX="-17" orient="auto"
				markerUnits="strokeWidth" overflow="visible">
			<use xlink:href="#lend4" transform="scale(-8.5,-8.5) "/>
		</marker>
		<marker id="mrkr4-141" class="st20" v:arrowType="4" v:arrowSize="1" v:setback="7" refX="-7" orient="auto"
				markerUnits="strokeWidth" overflow="visible">
			<use xlink:href="#lend4" transform="scale(-3.5,-3.5) "/>
		</marker>
		<marker id="mrkr4-208" class="st11" v:arrowType="4" v:arrowSize="0" v:setback="5.5" refX="-5.5" orient="auto"
				markerUnits="strokeWidth" overflow="visible">
			<use xlink:href="#lend4" transform="scale(-3,-3) "/>
		</marker>
		<marker id="mrkr4-214" class="st11" v:arrowType="4" v:arrowSize="0" v:setback="0" refX="-0" orient="auto"
				markerUnits="strokeWidth" overflow="visible">
			<use xlink:href="#lend4" transform="scale(-3,-3) "/>
		</marker>
	</defs>
	<g v:mID="0" v:index="1" v:groupContext="foregroundPage">
		<title>Page-1</title>
		<v:pageProperties v:drawingScale="1" v:pageScale="1" v:drawingUnits="19" v:shadowOffsetX="9" v:shadowOffsetY="-9"/>
		<v:layer v:name="Connector" v:index="0"/>
		<g id="shape1-1" v:mID="1" v:groupContext="shape" transform="translate(70.5538,-181.76)">
			<title>Sheet.1</title>
			<path d="M3.18 182.76 L165.13 182.76 A3.17549 3.17154 0 0 1 168.31 185.93 L168.31 312.79 A3.17549 3.17154 0 0 1 165.13
						 315.96 L3.18 315.96 A3.17549 3.17154 0 0 1 0.01 312.79 L0.01 185.93 A2.76163 3.01678 0 0 1 3.18 182.76 Z"
					class="st1"/>
		</g>
		<g id="shape2-7" v:mID="2" v:groupContext="shape" transform="translate(243.36,-20.2499)">
			<title>Rectangle.258</title>
			<rect x="0" y="305.161" width="18" height="10.8" class="st2"/>
		</g>
		<g id="shape3-9" v:mID="3" v:groupContext="shape" transform="translate(54.81,-20.2499)">
			<title>Rectangle</title>
			<rect x="0" y="305.161" width="15.3" height="10.8" class="st2"/>
		</g>
		<g id="shape4-11" v:mID="4" v:groupContext="shape" transform="translate(261.36,-26.9999)">
			<title>Sheet.4</title>
			<path d="M0 221.75 L0 211.56 L0 303.23 L0 315.96" class="st3"/>
		</g>
		<g id="shape5-14" v:mID="5" v:groupContext="shape" transform="translate(40.86,-77.3349)">
			<title>Sheet.5</title>
			<path d="M0 265.5 L8.52 261.9 A2.83929 3.6 0 0 1 11.36 265.5 L19.88 312.3 A2.78263 3.42125 -180 0 0 22.71 315.9 L198.75
						 261.9 A5.67857 3.6 0 0 1 204.43 265.5 L212.95 312.3 A2.38377 3.46838 -180 0 0 215.79 315.9 L238.5 308.7"
					class="st4"/>
		</g>
		<g id="shape6-17" v:mID="6" v:groupContext="shape" transform="translate(70.56,-31.4999)">
			<title>Sheet.6</title>
			<path d="M0 160.83 L0 144.06 L0 295 L0 315.96" class="st3"/>
		</g>
		<g id="shape7-20" v:mID="7" v:groupContext="shape" transform="translate(238.86,-31.4999)">
			<title>Sheet.7</title>
			<path d="M0 163.16 L0 144.06 L0 315.96" class="st3"/>
		</g>
		<g id="shape8-23" v:mID="8" v:groupContext="shape" transform="translate(0.36,-62.9999)">
			<title>Sheet.8</title>
			<desc>Current waveform through horizontal defletion coil</desc>
			<v:textBlock v:margins="rect(4,4,4,4)"/>
			<v:textRect cx="24.75" cy="292.561" width="49.5" height="46.8"/>
			<rect x="0" y="269.161" width="49.5" height="46.8" class="st5"/>
			<text x="4" y="268.26" class="st6" v:langID="1033"><v:paragraph/><v:tabList/>Current<v:newlineChar/><tspan x="4"
						dy="1.2em" class="st7">waveform </tspan><tspan x="4" dy="1.2em" class="st7">through </tspan><tspan x="4"
						dy="1.2em" class="st7">horizontal </tspan><tspan x="4" dy="1.2em" class="st7">defletion </tspan><tspan
						x="4" dy="1.2em" class="st7">coil</tspan></text>		</g>
		<g id="shape9-31" v:mID="9" v:groupContext="shape" transform="translate(95.76,-131.4)">
			<title>Sheet.9</title>
			<desc>Stable current ramp - information is displayed during this time</desc>
			<v:textBlock v:margins="rect(4,4,4,4)"/>
			<v:textRect cx="72.9" cy="310.561" width="145.8" height="10.8"/>
			<rect x="0" y="305.161" width="145.8" height="10.8" class="st5"/>
			<text x="4" y="307.86" class="st6" v:langID="1033"><v:paragraph/><v:tabList/>Stable current ramp - information is <tspan
						x="4" dy="1.2em" class="st7">displayed during this time</tspan></text>		</g>
		<g id="shape10-35" v:mID="10" v:groupContext="shape" transform="translate(84.06,-92.2499)">
			<title>Sheet.10</title>
			<path d="M11.64 270.96 A17.3077 11.6437 -90 0 0 -0 288.27 L-0 310.92" class="st8"/>
		</g>
		<g id="shape11-41" v:mID="11" v:groupContext="shape" transform="translate(83.61,361.923) scale(1,-1)">
			<title>Sheet.11</title>
			<path d="M12.15 183.21 A12.7644 12.15 -90 0 0 -0 195.98 L-0 311.64" class="st10"/>
		</g>
		<g id="shape12-47" v:mID="12" v:groupContext="shape" transform="translate(22.86,-40.4999)">
			<title>Sheet.12</title>
			<path d="M0 315.96 L273.96 315.96" class="st8"/>
		</g>
		<g id="shape13-52" v:mID="13" v:groupContext="shape" transform="translate(261.36,-214.2)">
			<title>Sheet.13</title>
			<desc>Retrace - no information displayed during this time</desc>
			<v:textBlock v:margins="rect(4,0,4,0)"/>
			<v:textRect cx="25.3125" cy="306.061" width="50.63" height="19.8"/>
			<rect x="0" y="296.161" width="50.625" height="19.8" class="st5"/>
			<text x="0" y="287.16" class="st6" v:langID="1033"><v:paragraph/><v:tabList/>Retrace - no <tspan x="0" dy="1.2em"
						class="st7">information </tspan><tspan x="0" dy="1.2em" class="st7">displayed </tspan><tspan x="0"
						dy="1.2em" class="st7">during this </tspan><tspan x="0" dy="1.2em" class="st7">time</tspan></text>		</g>
		<g id="shape14-59" v:mID="14" v:groupContext="shape" transform="translate(71.235,-67.4999)">
			<title>Sheet.14</title>
			<path d="M3.72 315.96 L4.08 315.96 L186.04 315.96" class="st12"/>
		</g>
		<g id="shape15-68" v:mID="15" v:groupContext="shape" transform="translate(71.235,-51.7499)">
			<title>Sheet.15</title>
			<path d="M3.72 315.96 L4.08 315.96 L163.55 315.96" class="st12"/>
		</g>
		<g id="shape16-75" v:mID="16" v:groupContext="shape" transform="translate(238.86,-51.7499)">
			<title>Sheet.16</title>
			<path d="M3.72 315.96 L4.08 315.96 L18.42 315.96" class="st12"/>
		</g>
		<g id="shape17-82" v:mID="17" v:groupContext="shape" transform="translate(139.86,-68.3999)">
			<title>Sheet.17</title>
			<desc>Total horizontal time</desc>
			<v:textBlock v:margins="rect(4,4,4,4)"/>
			<v:textRect cx="52.65" cy="310.561" width="105.3" height="10.8"/>
			<rect x="0" y="305.161" width="105.3" height="10.8" class="st5"/>
			<text x="4" y="313.26" class="st6" v:langID="1033"><v:paragraph/><v:tabList/>Total horizontal time</text>		</g>
		<g id="shape18-85" v:mID="18" v:groupContext="shape" transform="translate(116.46,-52.1999)">
			<title>Sheet.18</title>
			<desc>Horizontal display time</desc>
			<v:textBlock v:margins="rect(4,4,4,4)"/>
			<v:textRect cx="67.05" cy="310.561" width="134.1" height="10.8"/>
			<rect x="0" y="305.161" width="134.1" height="10.8" class="st5"/>
			<text x="4" y="313.26" class="st6" v:langID="1033"><v:paragraph/><v:tabList/>Horizontal display time</text>		</g>
		<g id="shape19-88" v:mID="19" v:groupContext="shape" transform="translate(22.86,600.423) scale(1,-1)">
			<title>Sheet.19</title>
			<path d="M0 315.96 L27 315.96 L27 304.71 L31.5 304.71 L31.5 315.96 L216 315.96 L216 304.71 L220.5 304.71 L220.5 315.96
						 L247.5 315.96" class="st4"/>
		</g>
		<g id="shape20-91" v:mID="20" v:groupContext="shape" transform="translate(138.96,-5.39989)">
			<title>Sheet.20</title>
			<desc>Horizontal sync signal sets retrace frequency</desc>
			<v:textBlock v:margins="rect(4,4,4,4)"/>
			<v:textRect cx="55.8" cy="310.561" width="111.6" height="10.8"/>
			<rect x="0" y="305.161" width="111.6" height="10.8" class="st5"/>
			<text x="4" y="307.86" class="st6" v:langID="1033"><v:paragraph/><v:tabList/>Horizontal sync signal sets <tspan x="4"
						dy="1.2em" class="st7">retrace frequency</tspan></text>		</g>
		<g id="shape21-95" v:mID="21" v:groupContext="shape" transform="translate(49.86,-26.0999)">
			<title>Sheet.21</title>
			<path d="M0 221.75 L0 211.56 L0 303.23 L0 315.96" class="st3"/>
		</g>
		<g id="shape22-98" v:mID="22" v:groupContext="shape" transform="translate(263.91,-53.9999)">
			<title>Sheet.22</title>
			<desc>retrace time</desc>
			<v:textBlock v:margins="rect(0,4,0,4)"/>
			<v:textRect cx="16.725" cy="310.561" width="33.45" height="10.8"/>
			<rect x="0" y="305.161" width="33.45" height="10.8" class="st5"/>
			<rect v:rectContext="textBkgnd" x="5.00839" y="300.961" width="23.4333" height="19.1997" class="st14"/>
			<text x="5.01" y="308.16" class="st15" v:langID="1033"><v:paragraph v:horizAlign="1"/><v:tabList/>retrace <tspan
						x="9.28" dy="1.2em" class="st7">time</tspan></text>		</g>
		<g id="shape23-103" v:mID="23" v:groupContext="shape" transform="translate(286.56,-27.8999)">
			<title>Sheet.23</title>
			<desc>time</desc>
			<v:textBlock v:margins="rect(4,4,4,0)"/>
			<v:textRect cx="14.4" cy="309.661" width="28.81" height="12.6"/>
			<rect x="0" y="303.361" width="28.8" height="12.6" class="st5"/>
			<text x="0" y="312.36" class="st6" v:langID="1033"><v:paragraph/><v:tabList/>time</text>		</g>
		<g id="shape24-106" v:mID="24" v:groupContext="shape" transform="translate(7.56,-24.2999)">
			<title>Sheet.24</title>
			<desc>HS</desc>
			<v:textBlock v:margins="rect(4,4,4,0)"/>
			<v:textRect cx="10.8" cy="308.761" width="21.61" height="14.4"/>
			<rect x="0" y="301.561" width="21.6" height="14.4" class="st5"/>
			<text x="0" y="311.46" class="st6" v:langID="1033"><v:paragraph/><v:tabList/>HS</text>		</g>
		<g id="shape25-109" v:mID="25" v:groupContext="shape" transform="translate(254.16,-2.24989)">
			<title>Sheet.25</title>
			<desc>&#34;back porch&#34;</desc>
			<v:textBlock v:margins="rect(4,4,4,4)"/>
			<v:textRect cx="33.3" cy="312.361" width="66.6" height="7.2"/>
			<rect x="0" y="308.761" width="66.6" height="7.2" class="st5"/>
			<text x="4" y="315.06" class="st6" v:langID="1033"><v:paragraph/><v:tabList/>&#34;back porch&#34;</text>		</g>
		<g id="shape26-112" v:mID="26" v:groupContext="shape" transform="translate(65.16,-2.24989)">
			<title>Sheet.26</title>
			<desc>&#34;front porch&#34;</desc>
			<v:textBlock v:margins="rect(4,4,4,4)"/>
			<v:textRect cx="33.3" cy="312.361" width="66.6" height="7.2"/>
			<rect x="0" y="308.761" width="66.6" height="7.2" class="st5"/>
			<text x="4" y="315.06" class="st6" v:langID="1033"><v:paragraph/><v:tabList/>&#34;front porch&#34;</text>		</g>
		<g id="shape27-115" v:mID="27" v:groupContext="shape" transform="translate(62.46,611.673) scale(1,-1)">
			<title>Sheet.27</title>
			<path d="M4.5 301.56 A5.53846 4.5 -90 0 0 0 307.1 L0 311.88" class="st16"/>
		</g>
		<g id="shape28-120" v:mID="28" v:groupContext="shape" transform="translate(250.11,611.673) scale(1,-1)">
			<title>Sheet.28</title>
			<path d="M4.5 301.56 A5.53846 4.5 -90 0 0 0 307.1 L0 311.88" class="st16"/>
		</g>
		<g id="shape29-125" v:mID="29" v:groupContext="shape" transform="translate(127.26,604.923) scale(1,-1)">
			<title>Sheet.29</title>
			<path d="M11.7 301.56 A11.7 5.53846 0 0 0 -0 307.1 L-0 311.88" class="st16"/>
		</g>
		<g id="shape30-130" v:mID="30" v:groupContext="shape" transform="translate(49.86,-261.9)">
			<title>Sheet.30</title>
			<path d="M189 307.86 L205.19 308.09 A6.31343 1.125 0 0 1 211.5 309.21 A6.31343 1.125 0 0 1 205.19 310.34 L3.16 313.71
						 A3.15672 1.125 -180 0 0 0 314.84 A3.15672 1.125 -180 0 0 3.16 315.96 L20.69 315.96" class="st17"/>
		</g>
		<g id="shape31-133" v:mID="31" v:groupContext="shape" transform="translate(238.86,362.148) rotate(180)">
			<title>Sheet.31</title>
			<path d="M0 315.96 L168.19 315.96" class="st18"/>
		</g>
		<g id="shape32-136" v:mID="32" v:groupContext="shape" transform="translate(149.76,-269.775)">
			<title>Sheet.32</title>
			<path d="M0 315.96 L12.96 315.96" class="st19"/>
		</g>
		<g id="shape33-142" v:mID="33" v:groupContext="shape" transform="translate(70.56,-221.4)">
			<title>Sheet.33</title>
			<desc>Display Surface</desc>
			<v:textBlock v:margins="rect(4,4,4,4)"/>
			<v:textRect cx="84.15" cy="305.161" width="168.3" height="21.6"/>
			<rect x="0" y="294.361" width="168.3" height="21.6" class="st5"/>
			<text x="47.03" y="308.76" class="st21" v:langID="1033"><v:paragraph v:horizAlign="1"/><v:tabList/>Display Surface</text>		</g>
		<g id="shape34-145" v:mID="34" v:groupContext="shape" transform="translate(100.26,-272.25)">
			<title>Sheet.34</title>
			<desc>640 pixels per row are displayed during forward beam trace</desc>
			<v:textBlock v:margins="rect(4,4,4,4)"/>
			<v:textRect cx="68.85" cy="303.586" width="137.71" height="24.75"/>
			<rect x="0" y="291.211" width="137.7" height="24.75" class="st5"/>
			<text x="4" y="300.89" class="st6" v:langID="1033"><v:paragraph/><v:tabList/>640 pixels per row are displayed<v:newlineChar/><tspan
						x="4" dy="1.2em" class="st7">during forward beam trace</tspan></text>		</g>
		<g id="shape35-149" v:mID="35" v:groupContext="shape" transform="translate(94.86,-270)">
			<title>Sheet.35</title>
			<path d="M6.75 297.96 A6.92308 6.75 -90 0 0 -0 304.88 L-0 311.64" class="st10"/>
		</g>
		<g id="shape36-154" v:mID="36" v:groupContext="shape" transform="translate(181.26,-300.6)">
			<title>Sheet.36</title>
			<desc>pixel 0,639</desc>
			<v:textBlock v:margins="rect(4,4,4,4)"/>
			<v:textRect cx="23.85" cy="310.561" width="47.7" height="10.8"/>
			<rect x="0" y="305.161" width="47.7" height="10.8" class="st5"/>
			<text x="4" y="312.96" class="st15" v:langID="1033"><v:paragraph/><v:tabList/>pixel 0,639</text>		</g>
		<g id="shape37-157" v:mID="37" v:groupContext="shape" transform="translate(86.31,-304.2)">
			<title>Sheet.37</title>
			<desc>pixel 0,0</desc>
			<v:textBlock v:margins="rect(4,4,4,4)"/>
			<v:textRect cx="23.85" cy="312.361" width="47.7" height="7.2"/>
			<rect x="0" y="308.761" width="47.7" height="7.2" class="st5"/>
			<text x="4" y="314.76" class="st15" v:langID="1033"><v:paragraph/><v:tabList/>pixel 0,0</text>		</g>
		<g id="shape38-160" v:mID="38" v:groupContext="shape" transform="translate(70.56,-307.8)">
			<title>Sheet.38</title>
			<path d="M7.2 308.76 L7.2 315.96 L0 315.96" class="st4"/>
		</g>
		<g id="shape39-163" v:mID="39" v:groupContext="shape" transform="translate(11.9281,314.689) rotate(-165.964)">
			<title>Sheet.39</title>
			<path d="M0 315.96 L10.76 315.96" class="st16"/>
		</g>
		<g id="shape40-168" v:mID="40" v:groupContext="shape" transform="translate(238.86,-307.8) scale(-1,1)">
			<title>Sheet.40</title>
			<path d="M7.2 308.76 L7.2 315.96 L0 315.96" class="st4"/>
		</g>
		<g id="shape41-171" v:mID="41" v:groupContext="shape" transform="translate(124.544,-291.586) rotate(-18.4349)">
			<title>Sheet.41</title>
			<path d="M0 315.96 L7.3 315.96" class="st16"/>
		</g>
		<g id="shape42-176" v:mID="42" v:groupContext="shape" transform="translate(238.86,442.923) rotate(180)">
			<title>Sheet.42</title>
			<path d="M7.2 308.76 L7.2 315.96 L0 315.96" class="st4"/>
		</g>
		<g id="shape43-179" v:mID="43" v:groupContext="shape" transform="translate(70.56,442.923) scale(1,-1)">
			<title>Sheet.43</title>
			<path d="M7.2 308.76 L7.2 315.96 L0 315.96" class="st4"/>
		</g>
		<g id="shape44-182" v:mID="44" v:groupContext="shape" transform="translate(165.192,433.489) rotate(165.964)">
			<title>Sheet.44</title>
			<path d="M0 315.96 L10.76 315.96" class="st16"/>
		</g>
		<g id="shape45-187" v:mID="45" v:groupContext="shape" transform="translate(88.56,-185.4)">
			<title>Sheet.45</title>
			<desc>pixel 479,0</desc>
			<v:textBlock v:margins="rect(4,4,4,4)"/>
			<v:textRect cx="23.85" cy="312.361" width="47.7" height="7.2"/>
			<rect x="0" y="308.761" width="47.7" height="7.2" class="st5"/>
			<text x="4" y="314.76" class="st15" v:langID="1033"><v:paragraph/><v:tabList/>pixel 479,0</text>		</g>
		<g id="shape46-190" v:mID="46" v:groupContext="shape" transform="translate(166.86,-185.4)">
			<title>Sheet.46</title>
			<desc>pixel 479,639</desc>
			<v:textBlock v:margins="rect(4,4,4,4)"/>
			<v:textRect cx="29.25" cy="312.361" width="58.5" height="7.2"/>
			<rect x="0" y="308.761" width="58.5" height="7.2" class="st5"/>
			<text x="4" y="314.76" class="st15" v:langID="1033"><v:paragraph/><v:tabList/>pixel 479,639</text>		</g>
		<g id="shape47-193" v:mID="47" v:groupContext="shape" transform="translate(297.492,-179.566) rotate(14.0362)">
			<title>Sheet.47</title>
			<path d="M0 315.96 L10.76 315.96" class="st16"/>
		</g>
		<g id="shape48-198" v:mID="48" v:groupContext="shape" transform="translate(250.11,-53.5499)">
			<title>Sheet.48</title>
			<path d="M18 308.76 A18 2.76923 0 0 0 -0 311.53 L-0 311.88" class="st16"/>
		</g>
		<g id="shape49-203" v:mID="49" v:groupContext="shape" v:layerMember="0"
				transform="translate(-49.6676,167.593) rotate(-104.036)">
			<title>Line-curve connector.14</title>
			<v:userDefs>
				<v:ud v:nameU="AntiScale" v:val="VT0(1):26"/>
				<v:ud v:nameU="Scale" v:val="VT0(1):26"/>
				<v:ud v:nameU="visVersion" v:val="VT0(11):26"/>
			</v:userDefs>
			<path d="M0 315.96 L1.32 313.13 L5.27 311.61 L11.85 311.4 L21.06 312.51 L32.91 314.94 L33.26 315.03" class="st22"/>
		</g>
		<g id="shape50-209" v:mID="50" v:groupContext="shape" v:layerMember="0"
				transform="translate(-56.1563,47.9218) rotate(-82.1709) scale(-1,1)">
			<title>Line-curve connector.5</title>
			<v:userDefs>
				<v:ud v:nameU="AntiScale" v:val="VT0(1):26"/>
				<v:ud v:nameU="Scale" v:val="VT0(1):26"/>
				<v:ud v:nameU="visVersion" v:val="VT0(11):26"/>
			</v:userDefs>
			<path d="M0 315.96 L2.25 313.1 L8.07 311.18 L17.47 310.23 L30.45 310.23 L47.01 311.18 L67.14 313.1 L90.85 315.96"
					class="st23"/>
		</g>
		<g id="shape51-215" v:mID="51" v:groupContext="shape" v:layerMember="0"
				transform="translate(168.662,477.066) rotate(-26.5651) scale(1,-1)">
			<title>Line-curve connector.7</title>
			<v:userDefs>
				<v:ud v:nameU="AntiScale" v:val="VT0(1):26"/>
				<v:ud v:nameU="Scale" v:val="VT0(1):26"/>
				<v:ud v:nameU="visVersion" v:val="VT0(11):26"/>
			</v:userDefs>
			<path d="M0 315.96 L5.32 322.29 L9.89 325.88 L13.71 326.71 L16.77 324.81 L19.08 320.15 L19.17 319.8" class="st22"/>
		</g>
		<g id="shape52-220" v:mID="52" v:groupContext="shape" transform="translate(49.86,-270)">
			<title>Sheet.52</title>
			<path d="M20.25 315.96 L2.25 315.96 A2.25 1.34366 0 0 1 0 314.62 A4.5 1.34366 0 0 1 4.5 313.27 a8.18683 0.0857727 179.52
						 1 1 15.0469 -0.125173" class="st17"/>
		</g>
	</g>
</svg>
