<?xml version="1.0" encoding="UTF-8" standalone="no"?>
<!DOCTYPE svg PUBLIC "-//W3C//DTD SVG 1.1//EN" "http://www.w3.org/Graphics/SVG/1.1/DTD/svg11.dtd">
<!-- Generated by Microsoft Visio, SVG Export PushBtnCircuit.svg Page-1 -->
<svg xmlns="http://www.w3.org/2000/svg" xmlns:xlink="http://www.w3.org/1999/xlink" xmlns:ev="http://www.w3.org/2001/xml-events"
		xmlns:v="http://schemas.microsoft.com/visio/2003/SVGExtensions/" width="2.04979in" height="1.13622in"
		viewBox="0 0 147.585 81.8075" xml:space="preserve" color-interpolation-filters="sRGB" class="st7">
	<v:documentProperties v:langID="1033" v:viewMarkup="false"/>

	<style type="text/css">
	<![CDATA[
		.st1 {stroke:#000000;stroke-width:0.75}
		.st2 {fill:url(#grad0-4);stroke:#000000;stroke-width:0.75}
		.st3 {fill:#000000;font-family:Calibri;font-size:0.75em}
		.st4 {font-size:1em}
		.st5 {fill:none;stroke:none;stroke-width:0.75}
		.st6 {fill:#000000;font-family:Calibri;font-size:0.499992em}
		.st7 {fill:none;fill-rule:evenodd;font-size:12px;overflow:visible;stroke-linecap:square;stroke-miterlimit:3}
	]]>
	</style>

	<defs id="Patterns_And_Gradients">
		<linearGradient id="grad0-4" x1="0" y1="0" x2="1" y2="0" gradientTransform="rotate(60 0.5 0.5)">
			<stop offset="0" stop-color="#e9eff7" stop-opacity="1"/>
			<stop offset="0.24" stop-color="#f4f7fb" stop-opacity="1"/>
			<stop offset="0.54" stop-color="#feffff" stop-opacity="1"/>
		</linearGradient>
	</defs>
	<g v:mID="0" v:index="1" v:groupContext="foregroundPage">
		<title>Page-1</title>
		<v:pageProperties v:drawingScale="1" v:pageScale="1" v:drawingUnits="0" v:shadowOffsetX="9" v:shadowOffsetY="-9"/>
		<g id="shape1-1" v:mID="1" v:groupContext="shape" transform="translate(38.7496,-54.217)">
			<title>Sheet.1</title>
			<path d="M36.84 81.81 L0 81.81" class="st1"/>
		</g>
		<g id="shape2-6" v:mID="2" v:groupContext="shape" transform="translate(59.8348,-39.4646)">
			<title>Sheet.2</title>
			<path d="M0 67.18 L0 81.81" class="st1"/>
		</g>
		<g id="shape3-10" v:mID="3" v:groupContext="shape" transform="translate(54.4386,-7.9646)">
			<title>Sheet.3</title>
			<path d="M10.79 81.81 L0 81.81" class="st1"/>
		</g>
		<g id="shape4-14" v:mID="4" v:groupContext="shape" transform="translate(54.4386,-0.75)">
			<title>Sheet.4</title>
			<path d="M5.4 81.81 L0 74.59" class="st1"/>
		</g>
		<g id="shape5-18" v:mID="5" v:groupContext="shape" transform="translate(59.8348,-0.75)">
			<title>Sheet.5</title>
			<path d="M5.4 74.59 L0 81.81" class="st1"/>
		</g>
		<g id="shape6-22" v:mID="6" v:groupContext="shape" transform="translate(59.2952,-53.6158)">
			<title>Sheet.6</title>
			<path d="M0 81.21 L0.12 80.85 L0.48 80.61 L0.96 80.85 L1.08 81.21 L0.96 81.57 L0.48 81.81 L0.12 81.57 L0 81.21 Z"
					class="st2"/>
		</g>
		<g id="shape7-25" v:mID="7" v:groupContext="shape" transform="translate(55.3348,-16.8589)">
			<title>Sheet.7</title>
			<path d="M4.44 59.2 L8.99 61.13 L0 64.85 L8.99 68.7 L0 72.43 L8.99 76.16 L0 79.88 L4.44 81.81" class="st1"/>
		</g>
		<g id="shape8-29" v:mID="8" v:groupContext="shape" transform="translate(59.8348,-7.9646)">
			<title>Sheet.8</title>
			<path d="M0 72.81 L0 81.81" class="st1"/>
		</g>
		<g id="shape9-33" v:mID="9" v:groupContext="shape" transform="translate(35.1521,-52.4133)">
			<title>Sheet.9</title>
			<path d="M0 80 L0.24 79.16 L0.72 78.56 L1.44 78.2 L2.28 78.2 L3 78.56 L3.48 79.16 L3.6 80 L3.48 80.85 L3 81.45 L2.28
						 81.81 L1.44 81.81 L0.72 81.45 L0.24 80.85 L0 80 Z" class="st2"/>
		</g>
		<g id="shape10-36" v:mID="10" v:groupContext="shape" transform="translate(20.7623,-52.4133)">
			<title>Sheet.10</title>
			<path d="M0 80 L0.24 79.16 L0.72 78.56 L1.44 78.2 L2.28 78.2 L3 78.56 L3.48 79.16 L3.6 80 L3.48 80.85 L3 81.45 L2.28
						 81.81 L1.44 81.81 L0.72 81.45 L0.24 80.85 L0 80 Z" class="st2"/>
		</g>
		<g id="shape16-39" v:mID="16" v:groupContext="shape" transform="translate(8.17115,-54.217)">
			<title>Sheet.16</title>
			<path d="M0 81.81 L12.59 81.81" class="st1"/>
		</g>
		<g id="shape17-43" v:mID="17" v:groupContext="shape" transform="translate(20.7623,-59.6279)">
			<title>Sheet.17</title>
			<path d="M17.99 81.81 L0 81.81" class="st1"/>
		</g>
		<g id="shape18-47" v:mID="18" v:groupContext="shape" transform="translate(29.7559,-59.6279)">
			<title>Sheet.18</title>
			<path d="M0 81.81 L0 78.2" class="st1"/>
		</g>
		<g id="shape19-51" v:mID="19" v:groupContext="shape" transform="translate(20.7623,-63.2352)">
			<title>Sheet.19</title>
			<path d="M17.99 81.81 L0 81.81 L0.24 80.61 L0.96 79.4 L2.04 78.44 L3.48 77.6 L5.16 76.88 L7.08 76.52 L8.99 76.4 L11.03
						 76.52 L12.95 76.88 L14.63 77.6 L16.07 78.44 L17.15 79.4 L17.87 80.61 L17.99 81.81 Z" class="st2"/>
		</g>
		<g id="shape20-54" v:mID="20" v:groupContext="shape" transform="translate(75.5848,-49.0271)">
			<title>Sheet.20</title>
			<path d="M0 76.54 L1.92 71.12 L5.64 81.81 L9.36 71.12 L13.2 81.81 L16.92 71.12 L20.64 81.81 L22.56 76.54" class="st1"/>
		</g>
		<g id="shape21-58" v:mID="21" v:groupContext="shape" transform="translate(98.0848,-54.0896)">
			<title>Sheet.21</title>
			<path d="M15.75 81.81 L0 81.81" class="st1"/>
		</g>
		<g id="shape22-62" v:mID="22" v:groupContext="shape" transform="translate(57.2548,-58.9884)">
			<title>Sheet.22</title>
			<desc>10K立</desc>
			<v:textBlock v:margins="rect(0,0,0,0)"/>
			<v:textRect cx="28.29" cy="75.8194" width="56.59" height="11.9762"/>
			<text x="18.4" y="78.52" class="st3" v:langID="1033"><v:paragraph v:horizAlign="1"/><v:tabList/>10K立</text>		</g>
		<g id="shape23-64" v:mID="23" v:groupContext="shape" transform="translate(113.895,-52.2859)">
			<title>Sheet.23</title>
			<path d="M0 80 L0.24 79.16 L0.72 78.56 L1.44 78.2 L2.28 78.2 L3 78.56 L3.48 79.16 L3.6 80 L3.48 80.85 L3 81.45 L2.28
						 81.81 L1.44 81.81 L0.72 81.45 L0.24 80.85 L0 80 Z" class="st2"/>
		</g>
		<g id="shape24-67" v:mID="24" v:groupContext="shape" transform="translate(120.585,-47.7384)">
			<title>Sheet.24</title>
			<desc>To FPGA</desc>
			<v:textBlock v:margins="rect(0,0,0,0)"/>
			<v:textRect cx="13.5" cy="75.8194" width="27" height="11.9762"/>
			<text x="8.93" y="73.12" class="st3" v:langID="1033"><v:paragraph v:horizAlign="1"/><v:tabList/>To<v:newlineChar/><tspan
						x="3.67" dy="1.2em" class="st4">FPGA</tspan></text>		</g>
		<g id="shape25-70" v:mID="25" v:groupContext="shape" transform="translate(49.5448,-22.9884)">
			<title>Sheet.25</title>
			<desc>10K立</desc>
			<v:textBlock v:margins="rect(0,0,0,0)"/>
			<v:textRect cx="28.29" cy="75.8194" width="56.59" height="11.9762"/>
			<text x="18.4" y="78.52" class="st3" v:langID="1033"><v:paragraph v:horizAlign="1"/><v:tabList/>10K立</text>		</g>
		<g id="shape28-72" v:mID="28" v:groupContext="shape" transform="translate(8.17115,-54.5467)">
			<title>Sheet.28</title>
			<path d="M0 67.18 L0 81.81" class="st1"/>
		</g>
		<g id="shape29-76" v:mID="29" v:groupContext="shape" transform="translate(82.5575,12.306) rotate(90)">
			<title>Sheet.29</title>
			<path d="M0 67.18 L0 81.81" class="st1"/>
		</g>
		<g id="shape32-80" v:mID="32" v:groupContext="shape" transform="translate(0.75,-69.8313)">
			<title>Sheet.32</title>
			<desc>V</desc>
			<v:textBlock v:margins="rect(0,0,0,0)"/>
			<v:textRect cx="3.65625" cy="75.8194" width="7.32" height="11.9762"/>
			<text x="1.1" y="78.52" class="st3" v:langID="1033"><v:paragraph v:horizAlign="1"/><v:tabList/>V</text>		</g>
		<g id="shape33-82" v:mID="33" v:groupContext="shape" transform="translate(0.75,-67.1211)">
			<title>Sheet.33</title>
			<desc>DD</desc>
			<v:textBlock v:margins="rect(0,0,0,0)"/>
			<v:textRect cx="9" cy="75.8194" width="18" height="11.9762"/>
			<rect x="0" y="69.8313" width="18" height="11.9762" class="st5"/>
			<text x="5.31" y="77.62" class="st6" v:langID="1033"><v:paragraph v:horizAlign="1"/><v:tabList/>DD</text>		</g>
	</g>
</svg>
