<?xml version="1.0" encoding="UTF-8" standalone="no"?>
<!DOCTYPE svg PUBLIC "-//W3C//DTD SVG 1.1//EN" "http://www.w3.org/Graphics/SVG/1.1/DTD/svg11.dtd">
<!-- Generated by Microsoft Visio, SVG Export EvaluateEfficiency.svg Page-1 -->
<svg xmlns="http://www.w3.org/2000/svg" xmlns:xlink="http://www.w3.org/1999/xlink" xmlns:ev="http://www.w3.org/2001/xml-events"
		xmlns:v="http://schemas.microsoft.com/visio/2003/SVGExtensions/" width="5.97094in" height="1.025in"
		viewBox="0 0 429.907 73.7998" xml:space="preserve" color-interpolation-filters="sRGB" class="st14">
	<v:documentProperties v:langID="1033" v:viewMarkup="false"/>

	<style type="text/css">
	<![CDATA[
		.st1 {stroke:#000000;stroke-linecap:round;stroke-linejoin:round;stroke-width:0.749448}
		.st2 {stroke:none;stroke-linecap:round;stroke-linejoin:round;stroke-width:0.75}
		.st3 {fill:#000000;font-family:Arial;font-size:0.75em}
		.st4 {stroke:#000000;stroke-linecap:round;stroke-linejoin:round;stroke-width:0.74801}
		.st5 {fill:none;stroke:#000000;stroke-linecap:round;stroke-linejoin:round;stroke-width:0.72}
		.st6 {stroke:#000000;stroke-linecap:round;stroke-linejoin:round;stroke-width:0.746481}
		.st7 {fill:#1a1a1a;stroke:#000000;stroke-linecap:round;stroke-linejoin:round;stroke-width:0.24}
		.st8 {fill:none;stroke:none;stroke-linecap:round;stroke-linejoin:round;stroke-width:0.72}
		.st9 {stroke:#000000;stroke-linecap:round;stroke-linejoin:round;stroke-width:0.72}
		.st10 {fill:#ffffff;stroke:none;stroke-linecap:round;stroke-linejoin:round;stroke-width:0.75}
		.st11 {stroke:#000000;stroke-linecap:round;stroke-linejoin:round;stroke-width:0.748902}
		.st12 {fill:#ffffff;stroke:#000000;stroke-linecap:round;stroke-linejoin:round;stroke-width:0.72}
		.st13 {fill:#000000;font-family:Arial;font-size:0.833336em;font-weight:bold}
		.st14 {fill:none;fill-rule:evenodd;font-size:12px;overflow:visible;stroke-linecap:square;stroke-miterlimit:3}
	]]>
	</style>

	<g v:mID="0" v:index="1" v:groupContext="foregroundPage">
		<title>Page-1</title>
		<v:pageProperties v:drawingScale="1" v:pageScale="1" v:drawingUnits="19" v:shadowOffsetX="9" v:shadowOffsetY="-9"/>
		<g id="shape1-1" v:mID="1" v:groupContext="shape" transform="translate(230.422,-63.8998)">
			<title>Sheet.1</title>
			<path d="M6.75 73.8 L0 73.8" class="st1"/>
		</g>
		<g id="shape2-4" v:mID="2" v:groupContext="shape" transform="translate(237.172,-43.6498)">
			<title>Sheet.2</title>
			<path d="M6.74 73.8 L0 73.8" class="st1"/>
		</g>
		<g id="shape3-7" v:mID="3" v:groupContext="shape" transform="translate(237.172,-30.1498)">
			<title>Sheet.3</title>
			<path d="M6.75 73.8 L0 73.8" class="st1"/>
		</g>
		<g id="shape4-10" v:mID="4" v:groupContext="shape" transform="translate(237.172,-43.6498)">
			<title>Sheet.4</title>
			<path d="M0 73.8 L0 53.55" class="st1"/>
		</g>
		<g id="shape5-13" v:mID="5" v:groupContext="shape" transform="translate(237.172,-9.89978)">
			<title>Sheet.5</title>
			<path d="M0 73.8 L0 53.55" class="st1"/>
		</g>
		<g id="shape6-16" v:mID="6" v:groupContext="shape" transform="translate(178.672,-59.3998)">
			<title>Sheet.6</title>
			<path d="M33.72 73.8 L0 73.8" class="st1"/>
		</g>
		<g id="shape7-19" v:mID="7" v:groupContext="shape" transform="translate(178.672,-32.3998)">
			<title>Sheet.7</title>
			<path d="M33.72 73.8 L0 73.8" class="st1"/>
		</g>
		<g id="shape8-22" v:mID="8" v:groupContext="shape" transform="translate(203.422,-14.3998)">
			<title>Sheet.8</title>
			<path d="M0 19.8 L0 73.8" class="st1"/>
		</g>
		<g id="shape9-25" v:mID="9" v:groupContext="shape" transform="translate(178.672,-68.3998)">
			<title>Sheet.9</title>
			<path d="M33.72 73.8 L0 73.8" class="st1"/>
		</g>
		<g id="shape10-28" v:mID="10" v:groupContext="shape" transform="translate(203.422,-41.3998)">
			<title>Sheet.10</title>
			<path d="M8.98 73.8 L0 73.8" class="st1"/>
		</g>
		<g id="shape11-31" v:mID="11" v:groupContext="shape" transform="translate(167.422,-63.8998)">
			<title>Sheet.11</title>
			<desc>A</desc>
			<v:textBlock v:margins="rect(0,0,0,0)"/>
			<v:textRect cx="5.43421" cy="69.2998" width="10.87" height="9"/>
			<path d="M10.87 64.8 L0 64.8 L0 73.8 L10.87 73.8 L10.87 64.8" class="st2"/>
			<text x="2.43" y="72" class="st3" v:langID="1033"><v:paragraph v:horizAlign="1"/><v:tabList/>A</text>		</g>
		<g id="shape12-35" v:mID="12" v:groupContext="shape" transform="translate(11.61,-45.8998)">
			<title>Sheet.12</title>
			<path d="M17.91 73.8 L0 73.8" class="st4"/>
		</g>
		<g id="shape13-38" v:mID="13" v:groupContext="shape" transform="translate(20.61,-27.8998)">
			<title>Sheet.13</title>
			<path d="M8.98 73.8 L0 73.8" class="st4"/>
		</g>
		<g id="shape14-41" v:mID="14" v:groupContext="shape" transform="translate(20.61,-27.8998)">
			<title>Sheet.14</title>
			<path d="M0 46.8 L0 73.8" class="st4"/>
		</g>
		<g id="shape15-44" v:mID="15" v:groupContext="shape" transform="translate(11.61,-54.8998)">
			<title>Sheet.15</title>
			<path d="M17.96 73.8 L0 73.8" class="st4"/>
		</g>
		<g id="shape16-47" v:mID="16" v:groupContext="shape" transform="translate(49.86,-50.3998)">
			<title>Sheet.16</title>
			<path d="M6.75 73.8 L0 73.8" class="st4"/>
		</g>
		<g id="shape17-50" v:mID="17" v:groupContext="shape" transform="translate(29.61,-41.3998)">
			<title>Sheet.17</title>
			<path d="M0 55.8 L0 73.8 L10.12 73.8 A10.125 9 -180 0 0 20.25 64.8 A10.125 9 -180 0 0 10.12 55.8 L0 55.8 Z" class="st5"/>
		</g>
		<g id="shape18-52" v:mID="18" v:groupContext="shape" transform="translate(61.3912,-27.8998)">
			<title>Sheet.18</title>
			<path d="M0.14 55.8 L6.17 55.8 L7.76 56.1 L8.68 56.3 L9.79 56.6 L11.14 57.15 L12.34 57.7 L13.6 58.3 L14.85 59.1 L16.06
						 59.95 L17.26 60.95 L18.51 62.2 L19.67 63.8 L20.25 64.8 L19.67 65.75 L18.51 67.3 L17.26 68.65 L16.06 69.6
						 L14.75 70.45 L13.6 71.2 L12.34 71.8 L11.14 72.35 L9.84 72.9 L8.68 73.2 L7.43 73.5 L6.17 73.7 L5.01 73.8
						 L0 73.8 L1.01 72.1 L1.64 70.45 L2.02 69.3 L2.36 68.2 L2.65 67.1 L2.75 65.95 L2.84 64.8 L2.75 63.65 L2.7
						 62.6 L2.46 61.45 L2.12 60.3 L1.74 59.15 L1.25 58.05 L0.67 56.85 L0.14 55.8 L0.14 55.8" class="st6"/>
		</g>
		<g id="shape19-55" v:mID="19" v:groupContext="shape" transform="translate(29.61,-14.3998)">
			<title>Sheet.19</title>
			<path d="M0 55.8 L0 73.8 L10.12 73.8 A10.125 9 -180 0 0 20.25 64.8 A10.125 9 -180 0 0 10.12 55.8 L0 55.8 Z" class="st5"/>
		</g>
		<g id="shape20-57" v:mID="20" v:groupContext="shape" transform="translate(56.61,-41.3998)">
			<title>Sheet.20</title>
			<path d="M6.75 73.8 L0 73.8" class="st4"/>
		</g>
		<g id="shape21-60" v:mID="21" v:groupContext="shape" transform="translate(56.61,-32.3998)">
			<title>Sheet.21</title>
			<path d="M6.75 73.8 L0 73.8" class="st4"/>
		</g>
		<g id="shape22-63" v:mID="22" v:groupContext="shape" transform="translate(49.86,-23.3998)">
			<title>Sheet.22</title>
			<path d="M6.75 73.8 L0 73.8" class="st4"/>
		</g>
		<g id="shape23-66" v:mID="23" v:groupContext="shape" transform="translate(56.61,-23.3998)">
			<title>Sheet.23</title>
			<path d="M0 64.8 L0 73.8" class="st4"/>
		</g>
		<g id="shape24-69" v:mID="24" v:groupContext="shape" transform="translate(56.61,-41.3998)">
			<title>Sheet.24</title>
			<path d="M0 64.8 L0 73.8" class="st4"/>
		</g>
		<g id="shape25-72" v:mID="25" v:groupContext="shape" transform="translate(11.61,-18.8998)">
			<title>Sheet.25</title>
			<path d="M17.96 73.8 L0 73.8" class="st4"/>
		</g>
		<g id="shape26-75" v:mID="26" v:groupContext="shape" transform="translate(19.7662,-54.3373)">
			<title>Circle.352</title>
			<path d="M0 72.96 a0.84375 0.84375 0 0 1 1.6875 0 a0.84375 0.84375 0 1 1 -1.6875 0 Z" class="st7"/>
		</g>
		<g id="shape27-77" v:mID="27" v:groupContext="shape" transform="translate(0.36,-50.3998)">
			<title>Sheet.27</title>
			<desc>A</desc>
			<v:textBlock v:margins="rect(4,4,4,4)"/>
			<v:textRect cx="5.625" cy="69.2998" width="11.25" height="9"/>
			<rect x="0" y="64.7998" width="11.25" height="9" class="st8"/>
			<text x="4" y="72" class="st3" v:langID="1033"><v:paragraph v:horizAlign="1"/><v:tabList/>A</text>		</g>
		<g id="shape28-80" v:mID="28" v:groupContext="shape" transform="translate(0.36,-36.8998)">
			<title>Sheet.28</title>
			<desc>B</desc>
			<v:textBlock v:margins="rect(4,4,4,4)"/>
			<v:textRect cx="5.625" cy="69.2998" width="11.25" height="9"/>
			<rect x="0" y="64.7998" width="11.25" height="9" class="st8"/>
			<text x="4" y="72" class="st3" v:langID="1033"><v:paragraph v:horizAlign="1"/><v:tabList/>B</text>		</g>
		<g id="shape29-83" v:mID="29" v:groupContext="shape" transform="translate(0.36,-14.3998)">
			<title>Sheet.29</title>
			<desc>C</desc>
			<v:textBlock v:margins="rect(4,4,4,4)"/>
			<v:textRect cx="5.625" cy="69.2998" width="11.25" height="9"/>
			<rect x="0" y="64.7998" width="11.25" height="9" class="st8"/>
			<text x="4" y="72" class="st3" v:langID="1033"><v:paragraph v:horizAlign="1"/><v:tabList/>C</text>		</g>
		<g id="shape30-86" v:mID="30" v:groupContext="shape" transform="translate(88.5426,110.712) rotate(-179.899)">
			<title>Sheet.30</title>
			<path d="M0 73.8 L6.75 73.8" class="st9"/>
		</g>
		<g id="shape31-89" v:mID="31" v:groupContext="shape" transform="translate(210.172,-54.8998)">
			<title>Sheet.31</title>
			<path d="M0.14 55.8 L6.17 55.8 L7.76 56.1 L8.68 56.3 L9.79 56.6 L11.14 57.15 L12.34 57.7 L13.6 58.3 L14.85 59.1 L16.06
						 59.95 L17.26 60.95 L18.51 62.2 L19.67 63.8 L20.25 64.8 L19.67 65.75 L18.51 67.3 L17.26 68.65 L16.06 69.6
						 L14.75 70.45 L13.6 71.2 L12.34 71.8 L11.14 72.35 L9.84 72.9 L8.68 73.2 L7.43 73.5 L6.17 73.7 L5.01 73.8
						 L0 73.8 L1.01 72.1 L1.64 70.45 L2.02 69.3 L2.36 68.2 L2.65 67.1 L2.75 65.95 L2.84 64.8 L2.75 63.65 L2.7
						 62.6 L2.46 61.45 L2.12 60.3 L1.74 59.15 L1.25 58.05 L0.67 56.85 L0.14 55.8 L0.14 55.8" class="st6"/>
		</g>
		<g id="shape32-92" v:mID="32" v:groupContext="shape" transform="translate(210.172,-27.8998)">
			<title>Sheet.32</title>
			<path d="M0.14 55.8 L6.17 55.8 L7.76 56.1 L8.68 56.3 L9.79 56.6 L11.14 57.15 L12.34 57.7 L13.6 58.3 L14.85 59.1 L16.06
						 59.95 L17.26 60.95 L18.51 62.2 L19.67 63.8 L20.25 64.8 L19.67 65.75 L18.51 67.3 L17.26 68.65 L16.06 69.6
						 L14.75 70.45 L13.6 71.2 L12.34 71.8 L11.14 72.35 L9.84 72.9 L8.68 73.2 L7.43 73.5 L6.17 73.7 L5.01 73.8
						 L0 73.8 L1.01 72.1 L1.64 70.45 L2.02 69.3 L2.36 68.2 L2.65 67.1 L2.75 65.95 L2.84 64.8 L2.75 63.65 L2.7
						 62.6 L2.46 61.45 L2.12 60.3 L1.74 59.15 L1.25 58.05 L0.67 56.85 L0.14 55.8 L0.14 55.8" class="st6"/>
		</g>
		<g id="shape33-95" v:mID="33" v:groupContext="shape" transform="translate(243.922,-27.8998)">
			<title>Sheet.33</title>
			<path d="M0 55.8 L0 73.8 L10.12 73.8 A10.125 9 -180 0 0 20.25 64.8 A10.125 9 -180 0 0 10.12 55.8 L0 55.8 Z" class="st5"/>
		</g>
		<g id="shape34-97" v:mID="34" v:groupContext="shape" transform="translate(230.422,-36.8998)">
			<title>Sheet.34</title>
			<path d="M13.5 73.8 L0 73.8" class="st1"/>
		</g>
		<g id="shape35-100" v:mID="35" v:groupContext="shape" transform="translate(202.579,-67.556)">
			<title>Circle.196</title>
			<path d="M0 72.96 a0.84375 0.84375 0 0 1 1.6875 0 a0.84375 0.84375 0 1 1 -1.6875 0 Z" class="st7"/>
		</g>
		<g id="shape36-102" v:mID="36" v:groupContext="shape" transform="translate(387.923,-27.8998)">
			<title>Sheet.36</title>
			<path d="M0.14 55.8 L6.17 55.8 L7.76 56.1 L8.68 56.3 L9.79 56.6 L11.14 57.15 L12.34 57.7 L13.6 58.3 L14.85 59.1 L16.06
						 59.95 L17.26 60.95 L18.51 62.2 L19.67 63.8 L20.25 64.8 L19.67 65.75 L18.51 67.3 L17.26 68.65 L16.06 69.6
						 L14.75 70.45 L13.6 71.2 L12.34 71.8 L11.14 72.35 L9.84 72.9 L8.68 73.2 L7.43 73.5 L6.17 73.7 L5.01 73.8
						 L0 73.8 L1.01 72.1 L1.64 70.45 L2.02 69.3 L2.36 68.2 L2.65 67.1 L2.75 65.95 L2.84 64.8 L2.75 63.65 L2.7
						 62.6 L2.46 61.45 L2.12 60.3 L1.74 59.15 L1.25 58.05 L0.67 56.85 L0.14 55.8 L0.14 55.8" class="st6"/>
		</g>
		<g id="shape37-105" v:mID="37" v:groupContext="shape" transform="translate(354.735,-14.3998)">
			<title>Sheet.37</title>
			<path d="M0 55.8 L0 73.8 L10.12 73.8 A10.125 9 -180 0 0 20.25 64.8 A10.125 9 -180 0 0 10.12 55.8 L0 55.8 Z" class="st5"/>
		</g>
		<g id="shape38-107" v:mID="38" v:groupContext="shape" transform="translate(374.985,-23.3998)">
			<title>Sheet.38</title>
			<path d="M6.19 73.8 L0 73.8" class="st1"/>
		</g>
		<g id="shape39-110" v:mID="39" v:groupContext="shape" transform="translate(381.173,-32.3998)">
			<title>Sheet.39</title>
			<path d="M8.44 73.8 L0 73.8" class="st1"/>
		</g>
		<g id="shape40-113" v:mID="40" v:groupContext="shape" transform="translate(381.173,-23.3998)">
			<title>Sheet.40</title>
			<path d="M0 73.8 L0 64.8" class="st1"/>
		</g>
		<g id="shape41-116" v:mID="41" v:groupContext="shape" transform="translate(345.173,-41.3998)">
			<title>Sheet.41</title>
			<path d="M45 73.8 L0 73.8" class="st1"/>
		</g>
		<g id="shape42-119" v:mID="42" v:groupContext="shape" transform="translate(345.173,-27.8998)">
			<title>Sheet.42</title>
			<path d="M9.56 73.8 L0 73.8" class="st4"/>
		</g>
		<g id="shape43-122" v:mID="43" v:groupContext="shape" transform="translate(345.173,-18.8998)">
			<title>Sheet.43</title>
			<path d="M9.56 73.8 L0 73.8" class="st4"/>
		</g>
		<g id="shape44-125" v:mID="44" v:groupContext="shape" transform="translate(167.422,-54.8998)">
			<title>Sheet.44</title>
			<desc>B</desc>
			<v:textBlock v:margins="rect(0,0,0,0)"/>
			<v:textRect cx="5.43421" cy="69.2998" width="10.87" height="9"/>
			<path d="M10.87 64.8 L0 64.8 L0 73.8 L10.87 73.8 L10.87 64.8" class="st2"/>
			<text x="2.43" y="72" class="st3" v:langID="1033"><v:paragraph v:horizAlign="1"/><v:tabList/>B</text>		</g>
		<g id="shape45-129" v:mID="45" v:groupContext="shape" transform="translate(167.804,-27.8998)">
			<title>Sheet.45</title>
			<desc>C</desc>
			<v:textBlock v:margins="rect(0,0,0,0)"/>
			<v:textRect cx="5.43421" cy="69.2998" width="10.87" height="9"/>
			<path d="M10.87 64.8 L0 64.8 L0 73.8 L10.87 73.8 L10.87 64.8" class="st2"/>
			<text x="2.18" y="72" class="st3" v:langID="1033"><v:paragraph v:horizAlign="1"/><v:tabList/>C</text>		</g>
		<g id="shape46-133" v:mID="46" v:groupContext="shape" transform="translate(333.922,-36.8998)">
			<title>Sheet.46</title>
			<desc>A</desc>
			<v:textBlock v:margins="rect(0,0,0,0)"/>
			<v:textRect cx="5.43421" cy="69.2998" width="10.87" height="9"/>
			<path d="M10.87 64.8 L0 64.8 L0 73.8 L10.87 73.8 L10.87 64.8" class="st2"/>
			<text x="2.43" y="72" class="st3" v:langID="1033"><v:paragraph v:horizAlign="1"/><v:tabList/>A</text>		</g>
		<g id="shape47-137" v:mID="47" v:groupContext="shape" transform="translate(333.922,-23.3998)">
			<title>Sheet.47</title>
			<desc>B</desc>
			<v:textBlock v:margins="rect(0,0,0,0)"/>
			<v:textRect cx="5.43421" cy="69.2998" width="10.87" height="9"/>
			<path d="M10.87 64.8 L0 64.8 L0 73.8 L10.87 73.8 L10.87 64.8" class="st2"/>
			<text x="2.43" y="72" class="st3" v:langID="1033"><v:paragraph v:horizAlign="1"/><v:tabList/>B</text>		</g>
		<g id="shape48-141" v:mID="48" v:groupContext="shape" transform="translate(334.304,-14.3998)">
			<title>Sheet.48</title>
			<desc>C</desc>
			<v:textBlock v:margins="rect(0,0,0,0)"/>
			<v:textRect cx="5.43421" cy="69.2998" width="10.87" height="9"/>
			<path d="M10.87 64.8 L0 64.8 L0 73.8 L10.87 73.8 L10.87 64.8" class="st2"/>
			<text x="2.18" y="72" class="st3" v:langID="1033"><v:paragraph v:horizAlign="1"/><v:tabList/>C</text>		</g>
		<g id="shape49-145" v:mID="49" v:groupContext="shape" transform="translate(421.595,110.702) rotate(-179.94)">
			<title>Sheet.49</title>
			<path d="M0 73.8 L13.5 73.8" class="st9"/>
		</g>
		<g id="group50-148" transform="translate(16.6725,-14.3998)" v:mID="50" v:groupContext="group">
			<title>Sheet.50</title>
			<g id="shape51-149" v:mID="51" v:groupContext="shape">
				<title>Sheet.51</title>
				<path d="M0 64.8 L0 73.8 L6.92 69.25 L0 64.8 L0 64.8 Z" class="st10"/>
			</g>
			<g id="shape52-151" v:mID="52" v:groupContext="shape">
				<title>Sheet.52</title>
				<path d="M0 64.8 L0 73.8 L6.92 69.25 L0 64.8 L0 64.8" class="st11"/>
			</g>
			<g id="shape53-154" v:mID="53" v:groupContext="shape" transform="translate(6.92308,-3.43299)">
				<title>Sheet.53</title>
				<path d="M0 72.69 L0 72.5 L0.09 72.22 L0.17 72.04 L0.35 71.94 L0.43 71.76 L0.69 71.67 L0.87 71.57 L1.04 71.57 L1.3
							 71.57 L1.47 71.67 L1.64 71.76 L1.82 71.94 L1.9 72.04 L1.99 72.22 L2.08 72.5 L2.08 72.69 L2.08 72.69
							 L2.08 72.96 L1.99 73.15 L1.9 73.34 L1.82 73.52 L1.64 73.61 L1.47 73.71 L1.3 73.8 L1.04 73.8 L0.87 73.8
							 L0.69 73.71 L0.43 73.61 L0.35 73.52 L0.17 73.34 L0.09 73.15 L0 72.96 L0 72.69 L0 72.69 Z" class="st10"/>
			</g>
			<g id="shape54-156" v:mID="54" v:groupContext="shape" transform="translate(6.92308,-3.43299)">
				<title>Sheet.54</title>
				<path d="M0 72.69 L0 72.5 L0.09 72.22 L0.17 72.04 L0.35 71.94 L0.43 71.76 L0.69 71.67 L0.87 71.57 L1.04 71.57 L1.3
							 71.57 L1.47 71.67 L1.64 71.76 L1.82 71.94 L1.9 72.04 L1.99 72.22 L2.08 72.5 L2.08 72.69 L2.08 72.69
							 L2.08 72.96 L1.99 73.15 L1.9 73.34 L1.82 73.52 L1.64 73.61 L1.47 73.71 L1.3 73.8 L1.04 73.8 L0.87 73.8
							 L0.69 73.71 L0.43 73.61 L0.35 73.52 L0.17 73.34 L0.09 73.15 L0 72.96 L0 72.69" class="st11"/>
			</g>
		</g>
		<g id="shape55-159" v:mID="55" v:groupContext="shape" transform="translate(210.172,-0.89978)">
			<title>Sheet.55</title>
			<path d="M0.14 55.8 L6.17 55.8 L7.76 56.1 L8.68 56.3 L9.79 56.6 L11.14 57.15 L12.34 57.7 L13.6 58.3 L14.85 59.1 L16.06
						 59.95 L17.26 60.95 L18.51 62.2 L19.67 63.8 L20.25 64.8 L19.67 65.75 L18.51 67.3 L17.26 68.65 L16.06 69.6
						 L14.75 70.45 L13.6 71.2 L12.34 71.8 L11.14 72.35 L9.84 72.9 L8.68 73.2 L7.43 73.5 L6.17 73.7 L5.01 73.8
						 L0 73.8 L1.01 72.1 L1.64 70.45 L2.02 69.3 L2.36 68.2 L2.65 67.1 L2.75 65.95 L2.84 64.8 L2.75 63.65 L2.7
						 62.6 L2.46 61.45 L2.12 60.3 L1.74 59.15 L1.25 58.05 L0.67 56.85 L0.14 55.8 L0.14 55.8" class="st6"/>
		</g>
		<g id="shape56-162" v:mID="56" v:groupContext="shape" transform="translate(230.422,-9.89978)">
			<title>Sheet.56</title>
			<path d="M6.75 73.8 L0 73.8" class="st1"/>
		</g>
		<g id="shape57-165" v:mID="57" v:groupContext="shape" transform="translate(178.672,-5.39978)">
			<title>Sheet.57</title>
			<path d="M33.34 73.8 L0 73.8" class="st1"/>
		</g>
		<g id="shape58-168" v:mID="58" v:groupContext="shape" transform="translate(167.422,-0.89978)">
			<title>Sheet.58</title>
			<desc>D</desc>
			<v:textBlock v:margins="rect(0,0,0,0)"/>
			<v:textRect cx="5.43421" cy="69.2998" width="10.87" height="9"/>
			<path d="M10.87 64.8 L0 64.8 L0 73.8 L10.87 73.8 L10.87 64.8" class="st2"/>
			<text x="2.18" y="72" class="st3" v:langID="1033"><v:paragraph v:horizAlign="1"/><v:tabList/>D</text>		</g>
		<g id="shape59-172" v:mID="59" v:groupContext="shape" transform="translate(203.44,-14.3998)">
			<title>Sheet.59</title>
			<path d="M8.98 73.8 L0 73.8" class="st1"/>
		</g>
		<g id="shape60-175" v:mID="60" v:groupContext="shape" transform="translate(202.579,-40.556)">
			<title>Circle.150</title>
			<path d="M0 72.96 a0.84375 0.84375 0 0 1 1.6875 0 a0.84375 0.84375 0 1 1 -1.6875 0 Z" class="st7"/>
		</g>
		<g id="shape61-177" v:mID="61" v:groupContext="shape" transform="translate(230.422,-34.6498)">
			<title>Circle.364</title>
			<v:userDefs>
				<v:ud v:nameU="visVersion" v:val="VT0(11):26"/>
			</v:userDefs>
			<path d="M0 71.55 A2.25 2.25 0 0 1 4.5 71.55 A2.25 2.25 0 1 1 0 71.55 Z" class="st12"/>
		</g>
		<g id="shape62-179" v:mID="62" v:groupContext="shape" transform="translate(50.4225,-48.1498)">
			<title>Circle.152</title>
			<v:userDefs>
				<v:ud v:nameU="visVersion" v:val="VT0(11):26"/>
			</v:userDefs>
			<path d="M0 71.55 A2.25 2.25 0 0 1 4.5 71.55 A2.25 2.25 0 1 1 0 71.55 Z" class="st12"/>
		</g>
		<g id="group63-181" transform="translate(187.672,-0.89978)" v:mID="63" v:groupContext="group">
			<title>Sheet.63</title>
			<g id="shape64-182" v:mID="64" v:groupContext="shape">
				<title>Sheet.64</title>
				<path d="M0 64.8 L0 73.8 L6.92 69.25 L0 64.8 L0 64.8 Z" class="st10"/>
			</g>
			<g id="shape65-184" v:mID="65" v:groupContext="shape">
				<title>Sheet.65</title>
				<path d="M0 64.8 L0 73.8 L6.92 69.25 L0 64.8 L0 64.8" class="st11"/>
			</g>
			<g id="shape66-187" v:mID="66" v:groupContext="shape" transform="translate(6.92308,-3.43299)">
				<title>Sheet.66</title>
				<path d="M0 72.69 L0 72.5 L0.09 72.22 L0.17 72.04 L0.35 71.94 L0.43 71.76 L0.69 71.67 L0.87 71.57 L1.04 71.57 L1.3
							 71.57 L1.47 71.67 L1.64 71.76 L1.82 71.94 L1.9 72.04 L1.99 72.22 L2.08 72.5 L2.08 72.69 L2.08 72.69
							 L2.08 72.96 L1.99 73.15 L1.9 73.34 L1.82 73.52 L1.64 73.61 L1.47 73.71 L1.3 73.8 L1.04 73.8 L0.87 73.8
							 L0.69 73.71 L0.43 73.61 L0.35 73.52 L0.17 73.34 L0.09 73.15 L0 72.96 L0 72.69 L0 72.69 Z" class="st10"/>
			</g>
			<g id="shape67-189" v:mID="67" v:groupContext="shape" transform="translate(6.92308,-3.43299)">
				<title>Sheet.67</title>
				<path d="M0 72.69 L0 72.5 L0.09 72.22 L0.17 72.04 L0.35 71.94 L0.43 71.76 L0.69 71.67 L0.87 71.57 L1.04 71.57 L1.3
							 71.57 L1.47 71.67 L1.64 71.76 L1.82 71.94 L1.9 72.04 L1.99 72.22 L2.08 72.5 L2.08 72.69 L2.08 72.69
							 L2.08 72.96 L1.99 73.15 L1.9 73.34 L1.82 73.52 L1.64 73.61 L1.47 73.71 L1.3 73.8 L1.04 73.8 L0.87 73.8
							 L0.69 73.71 L0.43 73.61 L0.35 73.52 L0.17 73.34 L0.09 73.15 L0 72.96 L0 72.69" class="st11"/>
			</g>
		</g>
		<g id="group68-192" transform="translate(187.672,-27.8998)" v:mID="68" v:groupContext="group">
			<title>Sheet.68</title>
			<g id="shape69-193" v:mID="69" v:groupContext="shape">
				<title>Sheet.69</title>
				<path d="M0 64.8 L0 73.8 L6.92 69.25 L0 64.8 L0 64.8 Z" class="st10"/>
			</g>
			<g id="shape70-195" v:mID="70" v:groupContext="shape">
				<title>Sheet.70</title>
				<path d="M0 64.8 L0 73.8 L6.92 69.25 L0 64.8 L0 64.8" class="st11"/>
			</g>
			<g id="shape71-198" v:mID="71" v:groupContext="shape" transform="translate(6.92308,-3.43299)">
				<title>Sheet.71</title>
				<path d="M0 72.69 L0 72.5 L0.09 72.22 L0.17 72.04 L0.35 71.94 L0.43 71.76 L0.69 71.67 L0.87 71.57 L1.04 71.57 L1.3
							 71.57 L1.47 71.67 L1.64 71.76 L1.82 71.94 L1.9 72.04 L1.99 72.22 L2.08 72.5 L2.08 72.69 L2.08 72.69
							 L2.08 72.96 L1.99 73.15 L1.9 73.34 L1.82 73.52 L1.64 73.61 L1.47 73.71 L1.3 73.8 L1.04 73.8 L0.87 73.8
							 L0.69 73.71 L0.43 73.61 L0.35 73.52 L0.17 73.34 L0.09 73.15 L0 72.96 L0 72.69 L0 72.69 Z" class="st10"/>
			</g>
			<g id="shape72-200" v:mID="72" v:groupContext="shape" transform="translate(6.92308,-3.43299)">
				<title>Sheet.72</title>
				<path d="M0 72.69 L0 72.5 L0.09 72.22 L0.17 72.04 L0.35 71.94 L0.43 71.76 L0.69 71.67 L0.87 71.57 L1.04 71.57 L1.3
							 71.57 L1.47 71.67 L1.64 71.76 L1.82 71.94 L1.9 72.04 L1.99 72.22 L2.08 72.5 L2.08 72.69 L2.08 72.69
							 L2.08 72.96 L1.99 73.15 L1.9 73.34 L1.82 73.52 L1.64 73.61 L1.47 73.71 L1.3 73.8 L1.04 73.8 L0.87 73.8
							 L0.69 73.71 L0.43 73.61 L0.35 73.52 L0.17 73.34 L0.09 73.15 L0 72.96 L0 72.69" class="st11"/>
			</g>
		</g>
		<g id="shape73-203" v:mID="73" v:groupContext="shape" transform="translate(264.173,-36.8998)">
			<title>Sheet.73</title>
			<path d="M13.5 73.8 L0 73.8" class="st1"/>
		</g>
		<g id="group74-206" transform="translate(359.798,-36.8998)" v:mID="74" v:groupContext="group">
			<title>Sheet.74</title>
			<g id="shape75-207" v:mID="75" v:groupContext="shape">
				<title>Sheet.75</title>
				<path d="M0 64.8 L0 73.8 L6.92 69.25 L0 64.8 L0 64.8 Z" class="st10"/>
			</g>
			<g id="shape76-209" v:mID="76" v:groupContext="shape">
				<title>Sheet.76</title>
				<path d="M0 64.8 L0 73.8 L6.92 69.25 L0 64.8 L0 64.8" class="st11"/>
			</g>
			<g id="shape77-212" v:mID="77" v:groupContext="shape" transform="translate(6.92308,-3.43299)">
				<title>Sheet.77</title>
				<path d="M0 72.69 L0 72.5 L0.09 72.22 L0.17 72.04 L0.35 71.94 L0.43 71.76 L0.69 71.67 L0.87 71.57 L1.04 71.57 L1.3
							 71.57 L1.47 71.67 L1.64 71.76 L1.82 71.94 L1.9 72.04 L1.99 72.22 L2.08 72.5 L2.08 72.69 L2.08 72.69
							 L2.08 72.96 L1.99 73.15 L1.9 73.34 L1.82 73.52 L1.64 73.61 L1.47 73.71 L1.3 73.8 L1.04 73.8 L0.87 73.8
							 L0.69 73.71 L0.43 73.61 L0.35 73.52 L0.17 73.34 L0.09 73.15 L0 72.96 L0 72.69 L0 72.69 Z" class="st10"/>
			</g>
			<g id="shape78-214" v:mID="78" v:groupContext="shape" transform="translate(6.92308,-3.43299)">
				<title>Sheet.78</title>
				<path d="M0 72.69 L0 72.5 L0.09 72.22 L0.17 72.04 L0.35 71.94 L0.43 71.76 L0.69 71.67 L0.87 71.57 L1.04 71.57 L1.3
							 71.57 L1.47 71.67 L1.64 71.76 L1.82 71.94 L1.9 72.04 L1.99 72.22 L2.08 72.5 L2.08 72.69 L2.08 72.69
							 L2.08 72.96 L1.99 73.15 L1.9 73.34 L1.82 73.52 L1.64 73.61 L1.47 73.71 L1.3 73.8 L1.04 73.8 L0.87 73.8
							 L0.69 73.71 L0.43 73.61 L0.35 73.52 L0.17 73.34 L0.09 73.15 L0 72.96 L0 72.69" class="st11"/>
			</g>
		</g>
		<g id="shape79-217" v:mID="79" v:groupContext="shape" transform="translate(408.173,-34.6617)">
			<title>Circle.169</title>
			<v:userDefs>
				<v:ud v:nameU="visVersion" v:val="VT0(11):26"/>
			</v:userDefs>
			<path d="M0 71.55 A2.25 2.25 0 0 1 4.5 71.55 A2.25 2.25 0 1 1 0 71.55 Z" class="st12"/>
		</g>
		<g id="shape80-219" v:mID="80" v:groupContext="shape" transform="translate(63.9225,-9.89978)">
			<title>Sheet.80</title>
			<desc>3 / 6</desc>
			<v:textBlock v:margins="rect(4,4,4,4)"/>
			<v:textRect cx="15.75" cy="69.2998" width="31.5" height="9"/>
			<rect x="0" y="64.7998" width="31.5" height="9" class="st8"/>
			<text x="6.02" y="72.3" class="st13" v:langID="1033"><v:paragraph v:horizAlign="1"/><v:tabList/>3 / 6</text>		</g>
		<g id="shape81-222" v:mID="81" v:groupContext="shape" transform="translate(252.922,-9.89978)">
			<title>Sheet.81</title>
			<desc>4 / 9</desc>
			<v:textBlock v:margins="rect(4,4,4,4)"/>
			<v:textRect cx="15.75" cy="69.2998" width="31.5" height="9"/>
			<rect x="0" y="64.7998" width="31.5" height="9" class="st8"/>
			<text x="6.02" y="72.3" class="st13" v:langID="1033"><v:paragraph v:horizAlign="1"/><v:tabList/>4 / 9</text>		</g>
		<g id="shape82-225" v:mID="82" v:groupContext="shape" transform="translate(398.048,-9.89978)">
			<title>Sheet.82</title>
			<desc>2 / 4</desc>
			<v:textBlock v:margins="rect(4,4,4,4)"/>
			<v:textRect cx="15.75" cy="69.2998" width="31.5" height="9"/>
			<rect x="0" y="64.7998" width="31.5" height="9" class="st8"/>
			<text x="6.02" y="72.3" class="st13" v:langID="1033"><v:paragraph v:horizAlign="1"/><v:tabList/>2 / 4</text>		</g>
	</g>
</svg>
