<?xml version="1.0" encoding="UTF-8" standalone="no"?>
<!DOCTYPE svg PUBLIC "-//W3C//DTD SVG 1.1//EN" "http://www.w3.org/Graphics/SVG/1.1/DTD/svg11.dtd">
<!-- Generated by Microsoft Visio, SVG Export glitch.svg Page-1 -->
<svg xmlns="http://www.w3.org/2000/svg" xmlns:xlink="http://www.w3.org/1999/xlink" xmlns:ev="http://www.w3.org/2001/xml-events"
		xmlns:v="http://schemas.microsoft.com/visio/2003/SVGExtensions/" width="2.56688in" height="3.15928in"
		viewBox="0 0 184.815 227.468" xml:space="preserve" color-interpolation-filters="sRGB" class="st16">
	<v:documentProperties v:langID="1033" v:viewMarkup="false">
		<v:userDefs>
			<v:ud v:nameU="msvConvertTheme"/>
		</v:userDefs>
	</v:documentProperties>

	<style type="text/css">
	<![CDATA[
		.st1 {fill:#fddeb0;stroke:none;stroke-linecap:round;stroke-linejoin:round;stroke-width:0.24}
		.st2 {fill:#d5e1fb;stroke:none;stroke-linecap:round;stroke-linejoin:round;stroke-width:0.24}
		.st3 {stroke:#000000;stroke-linecap:round;stroke-linejoin:round;stroke-width:0.72}
		.st4 {fill:#fddeb0;stroke:#000000;stroke-linecap:round;stroke-linejoin:round;stroke-width:0.72}
		.st5 {fill:none;stroke:none;stroke-linecap:round;stroke-linejoin:round;stroke-width:0.72}
		.st6 {fill:#000000;font-family:Arial;font-size:0.833336em}
		.st7 {fill:#d5e1fb;stroke:#000000;stroke-linecap:round;stroke-linejoin:round;stroke-width:0.72}
		.st8 {fill:#000000;font-family:Symbol;font-size:1.16666em}
		.st9 {font-family:Arial;font-size:0.571431em}
		.st10 {fill:#000000;font-family:Symbol;font-size:1.5em}
		.st11 {font-size:0.555557em}
		.st12 {font-size:1em}
		.st13 {font-family:Symbol;font-size:1.79999em}
		.st14 {marker-end:url(#mrkr4-164);stroke:#000000;stroke-linecap:round;stroke-linejoin:round;stroke-width:0.72}
		.st15 {fill:#000000;fill-opacity:1;stroke:#000000;stroke-opacity:1;stroke-width:0.33333333333333}
		.st16 {fill:none;fill-rule:evenodd;font-size:12px;overflow:visible;stroke-linecap:square;stroke-miterlimit:3}
	]]>
	</style>

	<defs id="Markers">
		<g id="lend4">
			<path d="M 2 1 L 0 0 L 2 -1 L 2 1 " style="stroke:none"/>
		</g>
		<marker id="mrkr4-164" class="st15" v:arrowType="4" v:arrowSize="0" v:setback="6" refX="-6" orient="auto"
				markerUnits="strokeWidth" overflow="visible">
			<use xlink:href="#lend4" transform="scale(-3,-3) "/>
		</marker>
	</defs>
	<g v:mID="0" v:index="1" v:groupContext="foregroundPage">
		<title>Page-1</title>
		<v:pageProperties v:drawingScale="1" v:pageScale="1" v:drawingUnits="19" v:shadowOffsetX="9" v:shadowOffsetY="-9"/>
		<g id="shape113-1" v:mID="113" v:groupContext="shape" transform="translate(148.095,-20.8729)">
			<title>Rectangle.113</title>
			<v:userDefs>
				<v:ud v:nameU="visVersion" v:val="VT0(11):26"/>
			</v:userDefs>
			<rect x="0" y="182.468" width="4.5" height="45" class="st1"/>
		</g>
		<g id="shape112-3" v:mID="112" v:groupContext="shape" transform="translate(134.595,-20.8729)">
			<title>Rectangle.112</title>
			<v:userDefs>
				<v:ud v:nameU="visVersion" v:val="VT0(11):26"/>
			</v:userDefs>
			<rect x="0" y="209.468" width="4.5" height="18" class="st1"/>
		</g>
		<g id="shape111-5" v:mID="111" v:groupContext="shape" transform="translate(130.095,-38.8729)">
			<title>Rectangle.111</title>
			<v:userDefs>
				<v:ud v:nameU="visVersion" v:val="VT0(11):26"/>
			</v:userDefs>
			<rect x="0" y="191.468" width="4.5" height="36" class="st1"/>
		</g>
		<g id="shape263-7" v:mID="263" v:groupContext="shape" transform="translate(130.095,-74.8729)">
			<title>Rectangle.263</title>
			<v:userDefs>
				<v:ud v:nameU="visVersion" v:val="VT0(11):26"/>
			</v:userDefs>
			<rect x="0" y="182.468" width="13.5" height="45" class="st2"/>
		</g>
		<g id="shape84-9" v:mID="84" v:groupContext="shape" transform="translate(76.095,-74.8729)">
			<title>Rectangle.45</title>
			<v:userDefs>
				<v:ud v:nameU="visVersion" v:val="VT0(11):26"/>
			</v:userDefs>
			<rect x="0" y="182.468" width="13.5" height="45" class="st2"/>
		</g>
		<g id="shape36-11" v:mID="36" v:groupContext="shape" transform="translate(95.0087,245.063) rotate(-179.947)">
			<title>Sheet.36</title>
			<path d="M0 227.47 L22.5 227.47" class="st3"/>
		</g>
		<g id="shape41-14" v:mID="41" v:groupContext="shape" transform="translate(133.424,249.563) scale(1,-1)">
			<title>Sheet.41</title>
			<path d="M0 209.47 L0.91 211.89 L1.52 214.52 L1.82 217.15 L1.82 219.78 L1.52 222.41 L0.91 224.94 L0 227.47 L9.83 227.47
						 L12.06 226.96 L14.18 226.15 L16.31 225.04 L18.13 223.73 L19.86 222.11 L21.28 220.39 L22.59 218.47 L21.28
						 216.45 L19.86 214.73 L18.13 213.11 L16.31 211.79 L14.18 210.78 L12.06 209.97 L9.83 209.47 L0 209.47 Z"
					class="st4"/>
		</g>
		<g id="shape46-16" v:mID="46" v:groupContext="shape" transform="translate(95.22,-205.373)">
			<title>Sheet.46</title>
			<path d="M0 209.47 L13.75 209.47 A8.75 9 0 0 1 22.5 218.47 A7.5 9 0 0 1 15 227.47 L0 227.47 L0 209.47 Z" class="st4"/>
		</g>
		<g id="shape52-18" v:mID="52" v:groupContext="shape" transform="translate(18.72,-214.373)">
			<title>Sheet.52</title>
			<desc>A</desc>
			<v:textBlock v:margins="rect(4,4,4,4)"/>
			<v:textRect cx="9" cy="221.843" width="18" height="11.25"/>
			<rect x="0" y="216.218" width="18" height="11.25" class="st5"/>
			<text x="5.67" y="224.84" class="st6" v:langID="1033"><v:paragraph v:horizAlign="1"/><v:tabList/>A</text>		</g>
		<g id="shape53-21" v:mID="53" v:groupContext="shape" transform="translate(95.22,-169.373)">
			<title>Sheet.53</title>
			<path d="M0 209.47 L13.75 209.47 A8.75 9 0 0 1 22.5 218.47 A7.5 9 0 0 1 15 227.47 L0 227.47 L0 209.47 Z" class="st4"/>
		</g>
		<g id="shape54-23" v:mID="54" v:groupContext="shape" transform="translate(50.22,-199.748)">
			<title>Sheet.54</title>
			<path d="M0 227.47 L0 207.22 L18 217.34 L0 227.47 Z" class="st7"/>
		</g>
		<g id="shape55-25" v:mID="55" v:groupContext="shape" transform="translate(68.22,-207.623)">
			<title>Sheet.55</title>
			<path d="M0 225.19 L0.12 224.47 L0.48 223.87 L0.96 223.39 L1.56 223.03 L2.28 222.97 L3 223.03 L3.6 223.39 L4.08 223.87
						 L4.44 224.47 L4.5 225.19 L4.44 225.91 L4.08 226.51 L3.6 226.99 L3 227.35 L2.28 227.47 L1.56 227.35 L0.96
						 226.99 L0.48 226.51 L0.12 225.91 L0 225.19 Z" class="st7"/>
		</g>
		<g id="shape56-27" v:mID="56" v:groupContext="shape" transform="translate(48.1139,245.178) rotate(-179.469)">
			<title>Sheet.56</title>
			<path d="M0 227.47 L13.5 227.47" class="st3"/>
		</g>
		<g id="shape57-30" v:mID="57" v:groupContext="shape" transform="translate(95.22,236.063) rotate(180)">
			<title>Sheet.57</title>
			<path d="M0 227.47 L22.5 227.47" class="st3"/>
		</g>
		<g id="shape58-33" v:mID="58" v:groupContext="shape" transform="translate(95.22,281.063) rotate(180)">
			<title>Sheet.58</title>
			<path d="M0 227.47 L58.5 227.47" class="st3"/>
		</g>
		<g id="shape59-36" v:mID="59" v:groupContext="shape" transform="translate(95.22,272.063) rotate(180)">
			<title>Sheet.59</title>
			<path d="M0 227.47 L51.75 227.47" class="st3"/>
		</g>
		<g id="shape60-39" v:mID="60" v:groupContext="shape" transform="translate(-183.998,44.595) rotate(-90)">
			<title>Sheet.60</title>
			<path d="M0 227.47 L27 227.47" class="st3"/>
		</g>
		<g id="shape61-42" v:mID="61" v:groupContext="shape" transform="translate(126.72,240.563) rotate(180)">
			<title>Sheet.61</title>
			<path d="M0 227.47 L9 227.47" class="st3"/>
		</g>
		<g id="shape62-45" v:mID="62" v:groupContext="shape" transform="translate(126.72,276.563) rotate(180)">
			<title>Sheet.62</title>
			<path d="M0 227.47 L9 227.47" class="st3"/>
		</g>
		<g id="shape63-48" v:mID="63" v:groupContext="shape" transform="translate(-100.748,26.595) rotate(-90)">
			<title>Sheet.63</title>
			<path d="M0 227.47 L13.5 227.47" class="st3"/>
		</g>
		<g id="shape64-51" v:mID="64" v:groupContext="shape" transform="translate(-100.746,48.1423) rotate(-89.76)">
			<title>Sheet.64</title>
			<path d="M0 227.47 L13.83 227.47" class="st3"/>
		</g>
		<g id="shape65-54" v:mID="65" v:groupContext="shape" transform="translate(133.67,254.101) rotate(-179.71)">
			<title>Sheet.65</title>
			<path d="M0 227.47 L8.1 227.47" class="st3"/>
		</g>
		<g id="shape66-57" v:mID="66" v:groupContext="shape" transform="translate(133.477,262.778) rotate(-179.647)">
			<title>Sheet.66</title>
			<path d="M0 227.47 L8.1 227.47" class="st3"/>
		</g>
		<g id="shape67-60" v:mID="67" v:groupContext="shape" transform="translate(166.279,258.559) rotate(179.67)">
			<title>Sheet.67</title>
			<path d="M0 227.47 L8.99 227.47" class="st3"/>
		</g>
		<g id="shape68-63" v:mID="68" v:groupContext="shape" transform="translate(18.72,-203.123)">
			<title>Sheet.68</title>
			<desc>B</desc>
			<v:textBlock v:margins="rect(4,4,4,4)"/>
			<v:textRect cx="9" cy="221.843" width="18" height="11.25"/>
			<rect x="0" y="216.218" width="18" height="11.25" class="st5"/>
			<text x="5.67" y="224.84" class="st6" v:langID="1033"><v:paragraph v:horizAlign="1"/><v:tabList/>B</text>		</g>
		<g id="shape69-66" v:mID="69" v:groupContext="shape" transform="translate(18.72,-169.373)">
			<title>Sheet.69</title>
			<desc>C</desc>
			<v:textBlock v:margins="rect(4,4,4,4)"/>
			<v:textRect cx="9" cy="222.968" width="18" height="9"/>
			<rect x="0" y="218.468" width="18" height="9" class="st5"/>
			<text x="5.39" y="225.97" class="st6" v:langID="1033"><v:paragraph v:horizAlign="1"/><v:tabList/>C</text>		</g>
		<g id="shape70-69" v:mID="70" v:groupContext="shape" transform="translate(162.72,-191.873)">
			<title>Sheet.70</title>
			<desc>Y</desc>
			<v:textBlock v:margins="rect(4,4,4,4)"/>
			<v:textRect cx="9" cy="222.968" width="18" height="9"/>
			<rect x="0" y="218.468" width="18" height="9" class="st5"/>
			<text x="5.67" y="225.97" class="st6" v:langID="1033"><v:paragraph v:horizAlign="1"/><v:tabList/>Y</text>		</g>
		<g id="shape71-72" v:mID="71" v:groupContext="shape" transform="translate(122.22,-215.498)">
			<title>Sheet.71</title>
			<desc>N2</desc>
			<v:textBlock v:margins="rect(4,4,4,4)"/>
			<v:textRect cx="11.25" cy="221.843" width="22.5" height="11.25"/>
			<rect x="0" y="216.218" width="22.5" height="11.25" class="st5"/>
			<text x="4" y="224.84" class="st6" v:langID="1033"><v:paragraph/><v:tabList/>N2</text>		</g>
		<g id="shape72-75" v:mID="72" v:groupContext="shape" transform="translate(122.22,-164.873)">
			<title>Sheet.72</title>
			<desc>N3</desc>
			<v:textBlock v:margins="rect(4,4,4,4)"/>
			<v:textRect cx="12.375" cy="221.843" width="24.75" height="11.25"/>
			<rect x="0" y="216.218" width="24.75" height="11.25" class="st5"/>
			<text x="4" y="224.84" class="st6" v:langID="1033"><v:paragraph/><v:tabList/>N3</text>		</g>
		<g id="shape73-78" v:mID="73" v:groupContext="shape" transform="translate(22.095,-128.873)">
			<title>Sheet.73</title>
			<path d="M0 227.47 L4.5 227.47 L4.5 218.47 L162 218.47" class="st3"/>
		</g>
		<g id="shape74-81" v:mID="74" v:groupContext="shape" transform="translate(22.095,-110.873)">
			<title>Sheet.74</title>
			<path d="M0 227.47 L54 227.47 L54 218.47 L108 218.47 L108 227.47 L162 227.47" class="st3"/>
		</g>
		<g id="shape75-84" v:mID="75" v:groupContext="shape" transform="translate(22.095,-92.8729)">
			<title>Sheet.75</title>
			<path d="M0 227.47 L4.5 227.47 L4.5 218.47 L162 218.47" class="st3"/>
		</g>
		<g id="shape77-87" v:mID="77" v:groupContext="shape" transform="translate(45.72,-205.373)">
			<title>Sheet.77</title>
			<desc>t1</desc>
			<v:textBlock v:margins="rect(4,4,4,4)"/>
			<v:textRect cx="11.25" cy="221.843" width="22.5" height="11.25"/>
			<rect x="0" y="216.218" width="22.5" height="11.25" class="st5"/>
			<text x="5.95" y="226.04" class="st8" v:langID="1033"><v:paragraph v:horizAlign="1"/><v:tabList/>t<tspan class="st9">1</tspan></text>		</g>
		<g id="shape78-91" v:mID="78" v:groupContext="shape" transform="translate(92.97,-209.873)">
			<title>Sheet.78</title>
			<desc>t2</desc>
			<v:textBlock v:margins="rect(4,4,4,4)"/>
			<v:textRect cx="11.25" cy="221.843" width="22.5" height="11.25"/>
			<rect x="0" y="216.218" width="22.5" height="11.25" class="st5"/>
			<text x="4.8" y="227.24" class="st10" v:langID="1033"><v:paragraph v:horizAlign="1"/><v:tabList/>t<tspan class="st11">2</tspan></text>		</g>
		<g id="shape79-95" v:mID="79" v:groupContext="shape" transform="translate(92.97,-173.873)">
			<title>Sheet.79</title>
			<desc>t2</desc>
			<v:textBlock v:margins="rect(4,4,4,4)"/>
			<v:textRect cx="11.25" cy="221.843" width="22.5" height="11.25"/>
			<rect x="0" y="216.218" width="22.5" height="11.25" class="st5"/>
			<text x="4.8" y="227.24" class="st10" v:langID="1033"><v:paragraph v:horizAlign="1"/><v:tabList/>t<tspan class="st11">2</tspan></text>		</g>
		<g id="shape80-99" v:mID="80" v:groupContext="shape" transform="translate(131.22,-191.873)">
			<title>Sheet.80</title>
			<desc>t2</desc>
			<v:textBlock v:margins="rect(4,4,4,4)"/>
			<v:textRect cx="12.375" cy="221.843" width="24.75" height="11.25"/>
			<rect x="0" y="216.218" width="24.75" height="11.25" class="st5"/>
			<text x="5.92" y="227.24" class="st10" v:langID="1033"><v:paragraph v:horizAlign="1"/><v:tabList/>t<tspan class="st11">2</tspan></text>		</g>
		<g id="shape81-103" v:mID="81" v:groupContext="shape" transform="translate(4.095,-128.873)">
			<title>Sheet.81</title>
			<desc>A</desc>
			<v:textBlock v:margins="rect(4,4,4,4)"/>
			<v:textRect cx="9" cy="222.968" width="18" height="9"/>
			<rect x="0" y="218.468" width="18" height="9" class="st5"/>
			<text x="5.67" y="225.97" class="st6" v:langID="1033"><v:paragraph v:horizAlign="1"/><v:tabList/>A</text>		</g>
		<g id="shape82-106" v:mID="82" v:groupContext="shape" transform="translate(4.095,-110.873)">
			<title>Sheet.82</title>
			<desc>B</desc>
			<v:textBlock v:margins="rect(4,4,4,4)"/>
			<v:textRect cx="9" cy="222.968" width="18" height="9"/>
			<rect x="0" y="218.468" width="18" height="9" class="st5"/>
			<text x="5.67" y="225.97" class="st6" v:langID="1033"><v:paragraph v:horizAlign="1"/><v:tabList/>B</text>		</g>
		<g id="shape83-109" v:mID="83" v:groupContext="shape" transform="translate(4.095,-92.8729)">
			<title>Sheet.83</title>
			<desc>C</desc>
			<v:textBlock v:margins="rect(4,4,4,4)"/>
			<v:textRect cx="9" cy="222.968" width="18" height="9"/>
			<rect x="0" y="218.468" width="18" height="9" class="st5"/>
			<text x="5.39" y="225.97" class="st6" v:langID="1033"><v:paragraph v:horizAlign="1"/><v:tabList/>C</text>		</g>
		<g id="shape109-112" v:mID="109" v:groupContext="shape" transform="translate(89.595,-56.8729)">
			<title>Rectangle.109</title>
			<v:userDefs>
				<v:ud v:nameU="visVersion" v:val="VT0(11):26"/>
			</v:userDefs>
			<rect x="0" y="200.468" width="4.5" height="27" class="st1"/>
		</g>
		<g id="shape118-114" v:mID="118" v:groupContext="shape" transform="translate(82.845,-119.873)">
			<title>Sheet.118</title>
		</g>
		<g id="shape254-115" v:mID="254" v:groupContext="shape" transform="translate(0.72,-56.8729)">
			<title>Sheet.254</title>
			<desc>N2</desc>
			<v:textBlock v:margins="rect(4,4,4,4)"/>
			<v:textRect cx="10.6875" cy="222.968" width="21.38" height="9"/>
			<rect x="0" y="218.468" width="21.375" height="9" class="st5"/>
			<text x="4.3" y="225.97" class="st6" v:langID="1033"><v:paragraph v:horizAlign="1"/><v:tabList/>N2</text>		</g>
		<g id="shape255-118" v:mID="255" v:groupContext="shape" transform="translate(0.72,-38.8729)">
			<title>Sheet.255</title>
			<desc>N3</desc>
			<v:textBlock v:margins="rect(4,4,4,4)"/>
			<v:textRect cx="10.6875" cy="222.968" width="21.38" height="9"/>
			<rect x="0" y="218.468" width="21.375" height="9" class="st5"/>
			<text x="4.3" y="225.97" class="st6" v:langID="1033"><v:paragraph v:horizAlign="1"/><v:tabList/>N3</text>		</g>
		<g id="shape256-121" v:mID="256" v:groupContext="shape" transform="translate(0.72,-20.8729)">
			<title>Sheet.256</title>
			<desc>Y</desc>
			<v:textBlock v:margins="rect(4,4,4,4)"/>
			<v:textRect cx="10.6875" cy="222.968" width="21.38" height="9"/>
			<rect x="0" y="218.468" width="21.375" height="9" class="st5"/>
			<text x="7.35" y="225.97" class="st6" v:langID="1033"><v:paragraph v:horizAlign="1"/><v:tabList/>Y</text>		</g>
		<g id="shape259-124" v:mID="259" v:groupContext="shape" transform="translate(0.72,-74.8729)">
			<title>Sheet.259</title>
			<desc>N1</desc>
			<v:textBlock v:margins="rect(4,4,4,4)"/>
			<v:textRect cx="10.6875" cy="222.968" width="21.38" height="9"/>
			<rect x="0" y="218.468" width="21.375" height="9" class="st5"/>
			<text x="4.3" y="225.97" class="st6" v:langID="1033"><v:paragraph v:horizAlign="1"/><v:tabList/>N1</text>		</g>
		<g id="shape261-127" v:mID="261" v:groupContext="shape" transform="translate(72.72,-197.498)">
			<title>Sheet.261</title>
			<desc>N1</desc>
			<v:textBlock v:margins="rect(4,4,4,4)"/>
			<v:textRect cx="11.25" cy="221.843" width="22.5" height="11.25"/>
			<rect x="0" y="216.218" width="22.5" height="11.25" class="st5"/>
			<text x="4.86" y="224.84" class="st6" v:langID="1033"><v:paragraph v:horizAlign="1"/><v:tabList/>N1</text>		</g>
		<g id="shape253-130" v:mID="253" v:groupContext="shape" transform="translate(72.72,231.563) rotate(180)">
			<title>Sheet.253</title>
			<path d="M0 227.47 L36 227.47" class="st3"/>
		</g>
		<g id="shape262-133" v:mID="262" v:groupContext="shape" transform="translate(300.188,4.095) rotate(90)">
			<title>Sheet.262</title>
			<path d="M0 227.47 L4.5 227.47" class="st3"/>
		</g>
		<g id="shape108-136" v:mID="108" v:groupContext="shape" transform="translate(143.595,-56.8729)">
			<title>Rectangle.108</title>
			<v:userDefs>
				<v:ud v:nameU="visVersion" v:val="VT0(11):26"/>
			</v:userDefs>
			<rect x="0" y="200.468" width="4.5" height="27" class="st1"/>
		</g>
		<g id="shape110-138" v:mID="110" v:groupContext="shape" transform="translate(76.095,-38.8729)">
			<title>Rectangle.110</title>
			<v:userDefs>
				<v:ud v:nameU="visVersion" v:val="VT0(11):26"/>
			</v:userDefs>
			<rect x="0" y="191.468" width="4.5" height="36" class="st1"/>
		</g>
		<g id="shape257-140" v:mID="257" v:groupContext="shape" transform="translate(22.095,-56.8729)">
			<title>Sheet.257</title>
			<path d="M0 227.47 L4.5 227.47 L4.5 218.47 L72 218.47 L72 227.47 L126 227.47 L126 218.47 L162 218.47" class="st3"/>
		</g>
		<g id="shape258-143" v:mID="258" v:groupContext="shape" transform="translate(22.095,-38.8729)">
			<title>Sheet.258</title>
			<path d="M0 227.47 L58.5 227.47 L58.5 218.47 L112.5 218.47 L112.5 227.47 L162 227.47" class="st3"/>
		</g>
		<g id="shape260-146" v:mID="260" v:groupContext="shape" transform="translate(22.095,-74.8729)">
			<title>Sheet.260</title>
			<path d="M0 218.47 L67.5 218.47 L67.5 227.47 L121.5 227.47 L121.5 218.47 L162 218.47" class="st3"/>
		</g>
		<g id="shape76-149" v:mID="76" v:groupContext="shape" transform="translate(22.095,425.063) scale(1,-1)">
			<title>Sheet.76</title>
			<path d="M0 227.47 L117 227.47 L117 218.47 L130.5 218.47 L130.5 227.47 L162 227.47" class="st3"/>
		</g>
		<g id="shape114-152" v:mID="114" v:groupContext="shape" transform="translate(139.095,-7.37292)">
			<title>Rectangle.114</title>
			<v:userDefs>
				<v:ud v:nameU="visVersion" v:val="VT0(11):26"/>
			</v:userDefs>
			<rect x="0" y="218.468" width="13.5" height="9" class="st2"/>
		</g>
		<g id="shape115-154" v:mID="115" v:groupContext="shape" transform="translate(37.845,-7.37292)">
			<title>Sheet.115</title>
			<desc>Glitch is same duration as t1</desc>
			<v:textBlock v:margins="rect(4,4,4,4)"/>
			<v:textRect cx="51.75" cy="222.968" width="103.5" height="9"/>
			<rect x="0" y="218.468" width="103.5" height="9" class="st5"/>
			<text x="20.35" y="217.77" class="st6" v:langID="1033"><v:paragraph v:spLine="-0.8" v:horizAlign="1"/><v:tabList/>Glitch is same <tspan
						x="18.89" dy="1.28em" class="st12">duration as </tspan><tspan class="st13">t</tspan>1</text>		</g>
		<g id="shape116-159" v:mID="116" v:groupContext="shape" transform="translate(125.595,443.063) scale(1,-1)">
			<title>Sheet.116</title>
			<path d="M0 227.47 L4.68 227.47" class="st14"/>
		</g>
	</g>
</svg>
