<?xml version="1.0" encoding="UTF-8" standalone="no"?>
<!DOCTYPE svg PUBLIC "-//W3C//DTD SVG 1.1//EN" "http://www.w3.org/Graphics/SVG/1.1/DTD/svg11.dtd">
<!-- Generated by Microsoft Visio, SVG Export FET.svg Page-1 -->
<svg xmlns="http://www.w3.org/2000/svg" xmlns:xlink="http://www.w3.org/1999/xlink" xmlns:ev="http://www.w3.org/2001/xml-events"
		xmlns:v="http://schemas.microsoft.com/visio/2003/SVGExtensions/" width="3.98557in" height="2.45in"
		viewBox="0 0 286.961 176.4" xml:space="preserve" color-interpolation-filters="sRGB" class="st11">
	<v:documentProperties v:langID="1033" v:viewMarkup="false">
		<v:userDefs>
			<v:ud v:nameU="msvConvertTheme"/>
		</v:userDefs>
	</v:documentProperties>

	<style type="text/css">
	<![CDATA[
		.st1 {fill:#d5e1fb;fill-opacity:0.6;stroke:none;stroke-linecap:round;stroke-linejoin:round;stroke-width:0.75}
		.st2 {fill:#ffff00;fill-opacity:0.43;stroke:none;stroke-linecap:round;stroke-linejoin:round;stroke-width:0.75}
		.st3 {stroke:#000000;stroke-linecap:round;stroke-linejoin:round;stroke-width:0.748571}
		.st4 {stroke:none;stroke-linecap:round;stroke-linejoin:round;stroke-width:0.75}
		.st5 {fill:#000000;font-family:Arial;font-size:0.667007em}
		.st6 {fill:#000000;font-family:Arial;font-size:0.748055em;font-weight:bold}
		.st7 {fill:#ffffff;stroke:none;stroke-linecap:round;stroke-linejoin:round;stroke-width:0.75}
		.st8 {fill:#000000;stroke:none;stroke-linecap:round;stroke-linejoin:round;stroke-width:0.75}
		.st9 {fill:#000000;font-family:Arial;font-size:0.667007em;font-weight:bold}
		.st10 {fill:#008000;fill-opacity:0.4;stroke:none;stroke-linecap:round;stroke-linejoin:round;stroke-width:0.75}
		.st11 {fill:none;fill-rule:evenodd;font-size:12px;overflow:visible;stroke-linecap:square;stroke-miterlimit:3}
	]]>
	</style>

	<g v:mID="0" v:index="1" v:groupContext="foregroundPage">
		<title>Page-1</title>
		<v:pageProperties v:drawingScale="1" v:pageScale="1" v:drawingUnits="0" v:shadowOffsetX="9" v:shadowOffsetY="-9"/>
		<g id="shape6-1" v:mID="6" v:groupContext="shape">
			<title>Sheet.6</title>
			<path d="M286.56 95.4 L0 95.4 L0 176.4 L286.56 176.4 L286.56 95.4 Z" class="st1"/>
		</g>
		<g id="shape14-3" v:mID="14" v:groupContext="shape" transform="translate(0,-82.08)">
			<title>Sheet.14</title>
			<path d="M286.56 100.8 L0 100.8 L0 176.4 L286.56 176.4 L286.56 100.8 Z" class="st2"/>
		</g>
		<g id="shape7-5" v:mID="7" v:groupContext="shape" transform="translate(47.0262,-121.902)">
			<title>Sheet.7</title>
			<path d="M0 176.4 L17.6 176.4" class="st3"/>
		</g>
		<g id="shape8-8" v:mID="8" v:groupContext="shape" transform="translate(64.63,-111.355)">
			<title>Sheet.8</title>
			<path d="M0 155.31 L0 176.4" class="st3"/>
		</g>
		<g id="shape9-11" v:mID="9" v:groupContext="shape" transform="translate(35.7149,-122.941)">
			<title>Sheet.9</title>
			<desc>gate</desc>
			<v:textBlock v:margins="rect(0,0,0,0)"/>
			<v:textRect cx="10.6693" cy="171.596" width="21.34" height="9.60851"/>
			<path d="M21.34 166.79 L0 166.79 L0 176.4 L21.34 176.4 L21.34 166.79" class="st4"/>
			<text x="2.88" y="174" class="st5" v:langID="1033"><v:paragraph v:horizAlign="1"/><v:tabList/>gate</text>		</g>
		<g id="shape10-15" v:mID="10" v:groupContext="shape" transform="translate(2.30532,-118.236)">
			<title>Sheet.10</title>
			<desc>nFET</desc>
			<v:textBlock v:margins="rect(0,0,0,0)"/>
			<v:textRect cx="14.7685" cy="171.012" width="29.54" height="10.7756"/>
			<path d="M29.54 165.62 L0 165.62 L0 176.4 L29.54 176.4 L29.54 165.62" class="st4"/>
			<text x="3.55" y="173.71" class="st6" v:langID="1033"><v:paragraph v:horizAlign="1"/><v:tabList/>nFET</text>		</g>
		<g id="shape16-19" v:mID="16" v:groupContext="shape" transform="translate(68.1507,-97.3664)">
			<title>Sheet.16</title>
			<path d="M10.56 127.25 L10.56 141.32 L0 141.32 L0 162.41 L10.56 162.41 L10.56 176.4" class="st3"/>
		</g>
		<g id="shape17-22" v:mID="17" v:groupContext="shape" transform="translate(69.7238,-87.2593)">
			<title>Sheet.17</title>
			<desc>drain</desc>
			<v:textBlock v:margins="rect(0,0,0,0)"/>
			<v:textRect cx="11.9457" cy="171.596" width="23.9" height="9.60851"/>
			<path d="M23.89 166.79 L0 166.79 L0 176.4 L23.89 176.4 L23.89 166.79" class="st4"/>
			<text x="3.05" y="174" class="st5" v:langID="1033"><v:paragraph v:horizAlign="1"/><v:tabList/>drain</text>		</g>
		<g id="shape18-26" v:mID="18" v:groupContext="shape" transform="translate(244.712,-132.3)">
			<title>Sheet.18</title>
			<path d="M0 162.41 L0 176.4" class="st3"/>
		</g>
		<g id="shape19-29" v:mID="19" v:groupContext="shape" transform="translate(244.712,-97.1419)">
			<title>Sheet.19</title>
			<path d="M0 162.34 L0 176.4" class="st3"/>
		</g>
		<g id="shape20-32" v:mID="20" v:groupContext="shape" transform="translate(244.712,-112.926)">
			<title>Sheet.20</title>
			<path d="M0 157.03 L0 176.4" class="st3"/>
		</g>
		<g id="shape21-35" v:mID="21" v:groupContext="shape" transform="translate(243.888,-131.403)">
			<title>Sheet.21</title>
			<path d="M0 175.5 L0 175.35 L0 175.2 L0.15 175.05 L0.22 174.98 L0.37 174.83 L0.52 174.68 L0.67 174.68 L0.82 174.68 L1.05
						 174.68 L1.2 174.68 L1.35 174.83 L1.5 174.98 L1.57 175.05 L1.65 175.2 L1.72 175.35 L1.72 175.5 L1.72 175.5
						 L1.72 175.73 L1.65 175.88 L1.57 176.03 L1.5 176.18 L1.35 176.33 L1.2 176.33 L1.05 176.4 L0.82 176.4 L0.67
						 176.4 L0.52 176.33 L0.37 176.33 L0.22 176.18 L0.15 176.03 L0 175.88 L0 175.73 L0 175.5 L0 175.5 L0 175.5
						 Z" class="st7"/>
		</g>
		<g id="shape22-37" v:mID="22" v:groupContext="shape" transform="translate(243.888,-131.403)">
			<title>Sheet.22</title>
			<path d="M0 175.5 L0 175.35 L0 175.2 L0.15 175.05 L0.22 174.98 L0.37 174.83 L0.52 174.68 L0.67 174.68 L0.82 174.68 L1.05
						 174.68 L1.2 174.68 L1.35 174.83 L1.5 174.98 L1.57 175.05 L1.65 175.2 L1.72 175.35 L1.72 175.5 L1.72 175.5
						 L1.72 175.73 L1.65 175.88 L1.57 176.03 L1.5 176.18 L1.35 176.33 L1.2 176.33 L1.05 176.4 L0.82 176.4 L0.67
						 176.4 L0.52 176.33 L0.37 176.33 L0.22 176.18 L0.15 176.03 L0 175.88 L0 175.73 L0 175.5 L0 175.5"
					class="st3"/>
		</g>
		<g id="shape23-40" v:mID="23" v:groupContext="shape" transform="translate(243.888,-111.205)">
			<title>Sheet.23</title>
			<path d="M0 175.5 L0 175.35 L0 175.2 L0.15 175.05 L0.22 174.9 L0.37 174.83 L0.52 174.68 L0.67 174.68 L0.82 174.68 L1.05
						 174.68 L1.2 174.68 L1.35 174.83 L1.5 174.9 L1.57 175.05 L1.65 175.2 L1.72 175.35 L1.72 175.5 L1.72 175.5
						 L1.72 175.73 L1.65 175.88 L1.57 176.03 L1.5 176.18 L1.35 176.25 L1.2 176.33 L1.05 176.4 L0.82 176.4 L0.67
						 176.4 L0.52 176.33 L0.37 176.25 L0.22 176.18 L0.15 176.03 L0 175.88 L0 175.73 L0 175.5 L0 175.5 L0 175.5
						 Z" class="st7"/>
		</g>
		<g id="shape24-42" v:mID="24" v:groupContext="shape" transform="translate(243.888,-111.205)">
			<title>Sheet.24</title>
			<path d="M0 175.5 L0 175.35 L0 175.2 L0.15 175.05 L0.22 174.9 L0.37 174.83 L0.52 174.68 L0.67 174.68 L0.82 174.68 L1.05
						 174.68 L1.2 174.68 L1.35 174.83 L1.5 174.9 L1.57 175.05 L1.65 175.2 L1.72 175.35 L1.72 175.5 L1.72 175.5
						 L1.72 175.73 L1.65 175.88 L1.57 176.03 L1.5 176.18 L1.35 176.25 L1.2 176.33 L1.05 176.4 L0.82 176.4 L0.67
						 176.4 L0.52 176.33 L0.37 176.25 L0.22 176.18 L0.15 176.03 L0 175.88 L0 175.73 L0 175.5 L0 175.5"
					class="st3"/>
		</g>
		<g id="shape25-45" v:mID="25" v:groupContext="shape" transform="translate(234.824,-145.906)">
			<title>Sheet.25</title>
			<desc>source</desc>
			<v:textBlock v:margins="rect(0,0,0,0)"/>
			<v:textRect cx="15.5256" cy="171.596" width="31.06" height="9.60851"/>
			<path d="M31.05 166.79 L0 166.79 L0 176.4 L31.05 176.4 L31.05 166.79" class="st4"/>
			<text x="3.51" y="174" class="st5" v:langID="1033"><v:paragraph v:horizAlign="1"/><v:tabList/>source</text>		</g>
		<g id="shape26-49" v:mID="26" v:groupContext="shape" transform="translate(235.873,-87.783)">
			<title>Sheet.26</title>
			<desc>drain</desc>
			<v:textBlock v:margins="rect(0,0,0,0)"/>
			<v:textRect cx="11.9457" cy="171.596" width="23.9" height="9.60851"/>
			<path d="M23.89 166.79 L0 166.79 L0 176.4 L23.89 176.4 L23.89 166.79" class="st4"/>
			<text x="3.05" y="174" class="st5" v:langID="1033"><v:paragraph v:horizAlign="1"/><v:tabList/>drain</text>		</g>
		<g id="shape27-53" v:mID="27" v:groupContext="shape" transform="translate(221.865,-121.753)">
			<title>Sheet.27</title>
			<path d="M16.7 176.4 L0 176.4" class="st3"/>
		</g>
		<g id="shape28-56" v:mID="28" v:groupContext="shape" transform="translate(237.97,-119.135)">
			<title>Sheet.28</title>
			<path d="M0 171.31 L5.02 173.78 L0 176.4 L0 171.31 L0 171.31 L0 171.31 Z" class="st8"/>
		</g>
		<g id="shape29-58" v:mID="29" v:groupContext="shape" transform="translate(221.865,-121.753)">
			<title>Sheet.29</title>
			<path d="M0 176.4 L0 169.37" class="st3"/>
		</g>
		<g id="shape30-61" v:mID="30" v:groupContext="shape" transform="translate(214.823,-128.784)">
			<title>Sheet.30</title>
			<path d="M14.08 176.4 L0 176.4" class="st3"/>
		</g>
		<g id="shape31-64" v:mID="31" v:groupContext="shape" transform="translate(213.775,-128.327)">
			<title>Sheet.31</title>
			<desc>Vdd</desc>
			<v:textBlock v:margins="rect(0,0,0,0)"/>
			<v:textRect cx="9.90071" cy="171.596" width="19.81" height="9.60851"/>
			<path d="M19.8 166.79 L0 166.79 L0 176.4 L19.8 176.4 L19.8 166.79" class="st4"/>
			<text x="2.78" y="174" class="st5" v:langID="1033"><v:paragraph v:horizAlign="1"/><v:tabList/>Vdd</text>		</g>
		<g id="shape32-68" v:mID="32" v:groupContext="shape" transform="translate(156.169,-132.3)">
			<title>Sheet.32</title>
			<path d="M0 162.41 L0 176.4" class="st3"/>
		</g>
		<g id="shape33-71" v:mID="33" v:groupContext="shape" transform="translate(156.169,-97.1419)">
			<title>Sheet.33</title>
			<path d="M0 162.34 L0 176.4" class="st3"/>
		</g>
		<g id="shape34-74" v:mID="34" v:groupContext="shape" transform="translate(147.405,-114.721)">
			<title>Sheet.34</title>
			<path d="M8.76 158.82 L0 176.4" class="st3"/>
		</g>
		<g id="shape35-77" v:mID="35" v:groupContext="shape" transform="translate(155.27,-131.403)">
			<title>Sheet.35</title>
			<path d="M0 175.5 L0.07 175.35 L0.07 175.2 L0.22 175.05 L0.3 174.98 L0.45 174.83 L0.52 174.68 L0.75 174.68 L0.9 174.68
						 L1.05 174.68 L1.27 174.68 L1.42 174.83 L1.57 174.98 L1.65 175.05 L1.72 175.2 L1.8 175.35 L1.8 175.5 L1.8
						 175.5 L1.8 175.73 L1.72 175.88 L1.65 176.03 L1.57 176.18 L1.42 176.33 L1.27 176.33 L1.05 176.4 L0.9 176.4
						 L0.75 176.4 L0.52 176.33 L0.45 176.33 L0.3 176.18 L0.22 176.03 L0.07 175.88 L0.07 175.73 L0 175.5 L0 175.5
						 L0 175.5 Z" class="st7"/>
		</g>
		<g id="shape36-79" v:mID="36" v:groupContext="shape" transform="translate(155.27,-131.403)">
			<title>Sheet.36</title>
			<path d="M0 175.5 L0.07 175.35 L0.07 175.2 L0.22 175.05 L0.3 174.98 L0.45 174.83 L0.52 174.68 L0.75 174.68 L0.9 174.68
						 L1.05 174.68 L1.27 174.68 L1.42 174.83 L1.57 174.98 L1.65 175.05 L1.72 175.2 L1.8 175.35 L1.8 175.5 L1.8
						 175.5 L1.8 175.73 L1.72 175.88 L1.65 176.03 L1.57 176.18 L1.42 176.33 L1.27 176.33 L1.05 176.4 L0.9 176.4
						 L0.75 176.4 L0.52 176.33 L0.45 176.33 L0.3 176.18 L0.22 176.03 L0.07 175.88 L0.07 175.73 L0 175.5 L0 175.5"
					class="st3"/>
		</g>
		<g id="shape37-82" v:mID="37" v:groupContext="shape" transform="translate(155.27,-111.205)">
			<title>Sheet.37</title>
			<path d="M0 175.5 L0.07 175.35 L0.07 175.2 L0.22 175.05 L0.3 174.9 L0.45 174.83 L0.52 174.68 L0.75 174.68 L0.9 174.68
						 L1.05 174.68 L1.27 174.68 L1.42 174.83 L1.57 174.9 L1.65 175.05 L1.72 175.2 L1.8 175.35 L1.8 175.5 L1.8
						 175.5 L1.8 175.73 L1.72 175.88 L1.65 176.03 L1.57 176.18 L1.42 176.25 L1.27 176.33 L1.05 176.4 L0.9 176.4
						 L0.75 176.4 L0.52 176.33 L0.45 176.25 L0.3 176.18 L0.22 176.03 L0.07 175.88 L0.07 175.73 L0 175.5 L0 175.5
						 L0 175.5 Z" class="st7"/>
		</g>
		<g id="shape38-84" v:mID="38" v:groupContext="shape" transform="translate(155.27,-111.205)">
			<title>Sheet.38</title>
			<path d="M0 175.5 L0.07 175.35 L0.07 175.2 L0.22 175.05 L0.3 174.9 L0.45 174.83 L0.52 174.68 L0.75 174.68 L0.9 174.68
						 L1.05 174.68 L1.27 174.68 L1.42 174.83 L1.57 174.9 L1.65 175.05 L1.72 175.2 L1.8 175.35 L1.8 175.5 L1.8
						 175.5 L1.8 175.73 L1.72 175.88 L1.65 176.03 L1.57 176.18 L1.42 176.25 L1.27 176.33 L1.05 176.4 L0.9 176.4
						 L0.75 176.4 L0.52 176.33 L0.45 176.25 L0.3 176.18 L0.22 176.03 L0.07 175.88 L0.07 175.73 L0 175.5 L0 175.5"
					class="st3"/>
		</g>
		<g id="shape39-87" v:mID="39" v:groupContext="shape" transform="translate(146.281,-145.906)">
			<title>Sheet.39</title>
			<desc>source</desc>
			<v:textBlock v:margins="rect(0,0,0,0)"/>
			<v:textRect cx="15.5256" cy="171.596" width="31.06" height="9.60851"/>
			<path d="M31.05 166.79 L0 166.79 L0 176.4 L31.05 176.4 L31.05 166.79" class="st4"/>
			<text x="3.51" y="174" class="st5" v:langID="1033"><v:paragraph v:horizAlign="1"/><v:tabList/>source</text>		</g>
		<g id="shape40-91" v:mID="40" v:groupContext="shape" transform="translate(147.255,-87.783)">
			<title>Sheet.40</title>
			<desc>drain</desc>
			<v:textBlock v:margins="rect(0,0,0,0)"/>
			<v:textRect cx="11.9457" cy="171.596" width="23.9" height="9.60851"/>
			<path d="M23.89 166.79 L0 166.79 L0 176.4 L23.89 176.4 L23.89 166.79" class="st4"/>
			<text x="3.05" y="174" class="st5" v:langID="1033"><v:paragraph v:horizAlign="1"/><v:tabList/>drain</text>		</g>
		<g id="shape41-95" v:mID="41" v:groupContext="shape" transform="translate(129.801,-121.753)">
			<title>Sheet.41</title>
			<path d="M16.7 176.4 L0 176.4" class="st3"/>
		</g>
		<g id="shape42-98" v:mID="42" v:groupContext="shape" transform="translate(145.832,-119.135)">
			<title>Sheet.42</title>
			<path d="M0 171.31 L5.09 173.78 L0 176.4 L0 171.31 L0 171.31 L0 171.31 Z" class="st8"/>
		</g>
		<g id="shape43-100" v:mID="43" v:groupContext="shape" transform="translate(125.756,-111.205)">
			<title>Sheet.43</title>
			<path d="M8.17 171.16 L4.05 176.4 L0 171.16 L8.17 171.16 L8.17 171.16 L8.17 171.16 Z" class="st7"/>
		</g>
		<g id="shape44-102" v:mID="44" v:groupContext="shape" transform="translate(125.756,-111.205)">
			<title>Sheet.44</title>
			<path d="M8.17 171.16 L4.05 176.4 L0 171.16 L8.17 171.16 L8.17 171.16 L8.17 171.16" class="st3"/>
		</g>
		<g id="shape45-105" v:mID="45" v:groupContext="shape" transform="translate(129.801,-116.442)">
			<title>Sheet.45</title>
			<path d="M0 171.09 L0 176.4" class="st3"/>
		</g>
		<g id="shape46-108" v:mID="46" v:groupContext="shape" transform="translate(167.031,-116.583)">
			<title>Sheet.46</title>
			<desc>Open</desc>
			<v:textBlock v:margins="rect(0,0,0,0)"/>
			<v:textRect cx="13.474" cy="171.596" width="26.95" height="9.60851"/>
			<path d="M26.95 166.79 L0 166.79 L0 176.4 L26.95 176.4 L26.95 166.79" class="st4"/>
			<text x="3.25" y="174" class="st9" v:langID="1033"><v:paragraph v:horizAlign="1"/><v:tabList/>Open</text>		</g>
		<g id="shape47-112" v:mID="47" v:groupContext="shape" transform="translate(120.812,-101.173)">
			<title>Sheet.47</title>
			<desc>GND</desc>
			<v:textBlock v:margins="rect(0,0,0,0)"/>
			<v:textRect cx="11.9391" cy="171.596" width="23.88" height="9.60851"/>
			<path d="M23.88 166.79 L0 166.79 L0 176.4 L23.88 176.4 L23.88 166.79" class="st4"/>
			<text x="3.05" y="174" class="st5" v:langID="1033"><v:paragraph v:horizAlign="1"/><v:tabList/>GND</text>		</g>
		<g id="shape48-116" v:mID="48" v:groupContext="shape" transform="translate(201.424,-163.44)">
			<title>Sheet.48</title>
			<desc>Vgate = Vdd</desc>
			<v:textBlock v:margins="rect(0,0,0,0)"/>
			<v:textRect cx="39.6882" cy="169.92" width="79.38" height="12.96"/>
			<path d="M79.38 163.44 L0 163.44 L0 176.4 L79.38 176.4 L79.38 163.44" class="st4"/>
			<text x="13.87" y="172.61" class="st6" v:langID="1033"><v:paragraph v:horizAlign="1"/><v:tabList/>Vgate = Vdd  </text>		</g>
		<g id="shape51-120" v:mID="51" v:groupContext="shape" transform="translate(116.486,-163.44)">
			<title>Sheet.51</title>
			<desc>Vgate = GND</desc>
			<v:textBlock v:margins="rect(0,0,0,0)"/>
			<v:textRect cx="42.557" cy="170.106" width="85.12" height="12.5878"/>
			<path d="M85.11 163.81 L0 163.81 L0 176.4 L85.11 176.4 L85.11 163.81" class="st4"/>
			<text x="15.25" y="172.8" class="st6" v:langID="1033"><v:paragraph v:horizAlign="1"/><v:tabList/>Vgate = GND</text>		</g>
		<g id="shape54-124" v:mID="54" v:groupContext="shape" transform="translate(251.903,-117.705)">
			<title>Sheet.54</title>
			<desc>Closed</desc>
			<v:textBlock v:margins="rect(0,0,0,0)"/>
			<v:textRect cx="17.056" cy="171.596" width="34.12" height="9.60851"/>
			<path d="M34.11 166.79 L0 166.79 L0 176.4 L34.11 176.4 L34.11 166.79" class="st4"/>
			<text x="3.71" y="174" class="st9" v:langID="1033"><v:paragraph v:horizAlign="1"/><v:tabList/>Closed</text>		</g>
		<g id="shape55-128" v:mID="55" v:groupContext="shape" transform="translate(33.12,-163.44)">
			<title>Sheet.55</title>
			<desc>Symbol</desc>
			<v:textBlock v:margins="rect(0,0,0,0)"/>
			<v:textRect cx="41.4" cy="170.2" width="82.8" height="12.3994"/>
			<path d="M82.8 164 L0 164 L0 176.4 L82.8 176.4 L82.8 164" class="st4"/>
			<text x="25.19" y="172.89" class="st6" v:langID="1033"><v:paragraph v:horizAlign="1"/><v:tabList/>Symbol</text>		</g>
		<g id="shape56-132" v:mID="56" v:groupContext="shape" transform="translate(67.6263,-145.832)">
			<title>Sheet.56</title>
			<desc>source</desc>
			<v:textBlock v:margins="rect(0,0,0,0)"/>
			<v:textRect cx="15.5256" cy="171.596" width="31.06" height="9.60851"/>
			<path d="M31.05 166.79 L0 166.79 L0 176.4 L31.05 176.4 L31.05 166.79" class="st4"/>
			<text x="3.51" y="174" class="st5" v:langID="1033"><v:paragraph v:horizAlign="1"/><v:tabList/>source</text>		</g>
		<g id="shape57-136" v:mID="57" v:groupContext="shape" transform="translate(61.259,-35.5775)">
			<title>Sheet.57</title>
			<path d="M0 173.71 L0.07 173.48 L0.07 173.18 L0.07 172.96 L0.22 172.73 L0.3 172.51 L0.45 172.29 L0.6 172.14 L0.75 171.84
						 L0.97 171.76 L1.12 171.54 L1.42 171.46 L1.65 171.31 L1.87 171.24 L2.1 171.16 L2.4 171.16 L2.62 171.09 L2.92
						 171.16 L3.15 171.16 L3.45 171.24 L3.67 171.31 L3.9 171.46 L4.12 171.54 L4.34 171.76 L4.49 171.84 L4.64 172.14
						 L4.87 172.29 L4.94 172.51 L5.09 172.73 L5.17 172.96 L5.17 173.18 L5.24 173.48 L5.24 173.71 L5.24 173.71
						 L5.24 174.01 L5.17 174.23 L5.17 174.53 L5.09 174.75 L4.94 175.05 L4.87 175.2 L4.64 175.43 L4.49 175.58 L4.34
						 175.8 L4.12 175.95 L3.9 176.1 L3.67 176.18 L3.45 176.25 L3.15 176.33 L2.92 176.4 L2.62 176.4 L2.4 176.4
						 L2.1 176.33 L1.87 176.25 L1.65 176.18 L1.42 176.1 L1.12 175.95 L0.97 175.8 L0.75 175.58 L0.6 175.43 L0.45
						 175.2 L0.3 175.05 L0.22 174.75 L0.07 174.53 L0.07 174.23 L0.07 174.01 L0 173.71 L0 173.71" class="st3"/>
		</g>
		<g id="shape58-139" v:mID="58" v:groupContext="shape" transform="translate(49.1237,-38.2705)">
			<title>Sheet.58</title>
			<path d="M0 176.4 L12.29 176.4" class="st3"/>
		</g>
		<g id="shape59-142" v:mID="59" v:groupContext="shape" transform="translate(66.7274,-27.723)">
			<title>Sheet.59</title>
			<path d="M0 155.31 L0 176.4" class="st3"/>
		</g>
		<g id="shape60-145" v:mID="60" v:groupContext="shape" transform="translate(70.2482,-13.7345)">
			<title>Sheet.60</title>
			<path d="M10.49 127.25 L10.49 141.32 L0 141.32 L0 162.41 L10.49 162.41 L10.49 176.4" class="st3"/>
		</g>
		<g id="shape61-148" v:mID="61" v:groupContext="shape" transform="translate(71.6714,-3.47789)">
			<title>Sheet.61</title>
			<desc>drain</desc>
			<v:textBlock v:margins="rect(0,0,0,0)"/>
			<v:textRect cx="11.9457" cy="171.596" width="23.9" height="9.60851"/>
			<path d="M23.89 166.79 L0 166.79 L0 176.4 L23.89 176.4 L23.89 166.79" class="st4"/>
			<text x="3.05" y="174" class="st5" v:langID="1033"><v:paragraph v:horizAlign="1"/><v:tabList/>drain</text>		</g>
		<g id="shape62-152" v:mID="62" v:groupContext="shape" transform="translate(42.9062,-39.459)">
			<title>Sheet.62</title>
			<desc>gate</desc>
			<v:textBlock v:margins="rect(0,0,0,0)"/>
			<v:textRect cx="10.6693" cy="171.596" width="21.34" height="9.60851"/>
			<path d="M21.34 166.79 L0 166.79 L0 176.4 L21.34 176.4 L21.34 166.79" class="st4"/>
			<text x="2.88" y="174" class="st5" v:langID="1033"><v:paragraph v:horizAlign="1"/><v:tabList/>gate</text>		</g>
		<g id="shape63-156" v:mID="63" v:groupContext="shape" transform="translate(66.8772,-65.5659)">
			<title>Sheet.63</title>
			<desc>source</desc>
			<v:textBlock v:margins="rect(0,0,0,0)"/>
			<v:textRect cx="15.5256" cy="171.596" width="31.06" height="9.60851"/>
			<path d="M31.05 166.79 L0 166.79 L0 176.4 L31.05 176.4 L31.05 166.79" class="st4"/>
			<text x="3.51" y="174" class="st5" v:langID="1033"><v:paragraph v:horizAlign="1"/><v:tabList/>source</text>		</g>
		<g id="shape64-160" v:mID="64" v:groupContext="shape" transform="translate(246.435,-53.1567)">
			<title>Sheet.64</title>
			<path d="M0 162.34 L0 176.4" class="st3"/>
		</g>
		<g id="shape65-163" v:mID="65" v:groupContext="shape" transform="translate(246.435,-17.9984)">
			<title>Sheet.65</title>
			<path d="M0 162.34 L0 176.4" class="st3"/>
		</g>
		<g id="shape66-166" v:mID="66" v:groupContext="shape" transform="translate(237.671,-35.5775)">
			<title>Sheet.66</title>
			<path d="M8.76 158.82 L0 176.4" class="st3"/>
		</g>
		<g id="shape67-169" v:mID="67" v:groupContext="shape" transform="translate(245.611,-52.259)">
			<title>Sheet.67</title>
			<path d="M0 175.5 L0 175.35 L0 175.2 L0.15 175.05 L0.3 174.9 L0.37 174.83 L0.52 174.68 L0.67 174.68 L0.82 174.6 L1.05
						 174.68 L1.2 174.68 L1.35 174.83 L1.5 174.9 L1.65 175.05 L1.65 175.2 L1.72 175.35 L1.72 175.5 L1.72 175.5
						 L1.72 175.73 L1.65 175.88 L1.65 176.03 L1.5 176.18 L1.35 176.25 L1.2 176.33 L1.05 176.4 L0.82 176.4 L0.67
						 176.4 L0.52 176.33 L0.37 176.25 L0.3 176.18 L0.15 176.03 L0 175.88 L0 175.73 L0 175.5 L0 175.5 L0 175.5
						 Z" class="st7"/>
		</g>
		<g id="shape68-171" v:mID="68" v:groupContext="shape" transform="translate(245.611,-52.259)">
			<title>Sheet.68</title>
			<path d="M0 175.5 L0 175.35 L0 175.2 L0.15 175.05 L0.3 174.9 L0.37 174.83 L0.52 174.68 L0.67 174.68 L0.82 174.6 L1.05
						 174.68 L1.2 174.68 L1.35 174.83 L1.5 174.9 L1.65 175.05 L1.65 175.2 L1.72 175.35 L1.72 175.5 L1.72 175.5
						 L1.72 175.73 L1.65 175.88 L1.65 176.03 L1.5 176.18 L1.35 176.25 L1.2 176.33 L1.05 176.4 L0.82 176.4 L0.67
						 176.4 L0.52 176.33 L0.37 176.25 L0.3 176.18 L0.15 176.03 L0 175.88 L0 175.73 L0 175.5 L0 175.5"
					class="st3"/>
		</g>
		<g id="shape69-174" v:mID="69" v:groupContext="shape" transform="translate(245.611,-32.0617)">
			<title>Sheet.69</title>
			<path d="M0 175.5 L0 175.35 L0 175.13 L0.15 175.05 L0.3 174.9 L0.37 174.83 L0.52 174.68 L0.67 174.68 L0.82 174.6 L1.05
						 174.68 L1.2 174.68 L1.35 174.83 L1.5 174.9 L1.65 175.05 L1.65 175.13 L1.72 175.35 L1.72 175.5 L1.72 175.5
						 L1.72 175.65 L1.65 175.88 L1.65 176.03 L1.5 176.18 L1.35 176.25 L1.2 176.33 L1.05 176.4 L0.82 176.4 L0.67
						 176.4 L0.52 176.33 L0.37 176.25 L0.3 176.18 L0.15 176.03 L0 175.88 L0 175.65 L0 175.5 L0 175.5 L0 175.5
						 Z" class="st7"/>
		</g>
		<g id="shape70-176" v:mID="70" v:groupContext="shape" transform="translate(245.611,-32.0617)">
			<title>Sheet.70</title>
			<path d="M0 175.5 L0 175.35 L0 175.13 L0.15 175.05 L0.3 174.9 L0.37 174.83 L0.52 174.68 L0.67 174.68 L0.82 174.6 L1.05
						 174.68 L1.2 174.68 L1.35 174.83 L1.5 174.9 L1.65 175.05 L1.65 175.13 L1.72 175.35 L1.72 175.5 L1.72 175.5
						 L1.72 175.65 L1.65 175.88 L1.65 176.03 L1.5 176.18 L1.35 176.25 L1.2 176.33 L1.05 176.4 L0.82 176.4 L0.67
						 176.4 L0.52 176.33 L0.37 176.25 L0.3 176.18 L0.15 176.03 L0 175.88 L0 175.65 L0 175.5 L0 175.5"
					class="st3"/>
		</g>
		<g id="shape71-179" v:mID="71" v:groupContext="shape" transform="translate(236.547,-66.7628)">
			<title>Sheet.71</title>
			<desc>source</desc>
			<v:textBlock v:margins="rect(0,0,0,0)"/>
			<v:textRect cx="15.5256" cy="171.596" width="31.06" height="9.60851"/>
			<path d="M31.05 166.79 L0 166.79 L0 176.4 L31.05 176.4 L31.05 166.79" class="st4"/>
			<text x="3.51" y="174" class="st5" v:langID="1033"><v:paragraph v:horizAlign="1"/><v:tabList/>source</text>		</g>
		<g id="shape72-183" v:mID="72" v:groupContext="shape" transform="translate(237.596,-8.63942)">
			<title>Sheet.72</title>
			<desc>drain</desc>
			<v:textBlock v:margins="rect(0,0,0,0)"/>
			<v:textRect cx="11.9457" cy="171.596" width="23.9" height="9.60851"/>
			<path d="M23.89 166.79 L0 166.79 L0 176.4 L23.89 176.4 L23.89 166.79" class="st4"/>
			<text x="3.05" y="174" class="st5" v:langID="1033"><v:paragraph v:horizAlign="1"/><v:tabList/>drain</text>		</g>
		<g id="shape73-187" v:mID="73" v:groupContext="shape" transform="translate(220.067,-42.6092)">
			<title>Sheet.73</title>
			<path d="M16.7 176.4 L0 176.4" class="st3"/>
		</g>
		<g id="shape74-190" v:mID="74" v:groupContext="shape" transform="translate(236.173,-40.0658)">
			<title>Sheet.74</title>
			<path d="M0 171.31 L5.02 173.86 L0 176.4 L0 171.31 L0 171.31 L0 171.31 Z" class="st8"/>
		</g>
		<g id="shape75-192" v:mID="75" v:groupContext="shape" transform="translate(220.067,-42.6092)">
			<title>Sheet.75</title>
			<path d="M0 176.4 L0 169.37" class="st3"/>
		</g>
		<g id="shape76-195" v:mID="76" v:groupContext="shape" transform="translate(213.1,-49.6409)">
			<title>Sheet.76</title>
			<path d="M14.01 176.4 L0 176.4" class="st3"/>
		</g>
		<g id="shape77-198" v:mID="77" v:groupContext="shape" transform="translate(211.977,-49.1837)">
			<title>Sheet.77</title>
			<desc>Vdd</desc>
			<v:textBlock v:margins="rect(0,0,0,0)"/>
			<v:textRect cx="9.90071" cy="171.596" width="19.81" height="9.60851"/>
			<path d="M19.8 166.79 L0 166.79 L0 176.4 L19.8 176.4 L19.8 166.79" class="st4"/>
			<text x="2.78" y="174" class="st5" v:langID="1033"><v:paragraph v:horizAlign="1"/><v:tabList/>Vdd</text>		</g>
		<g id="shape78-202" v:mID="78" v:groupContext="shape" transform="translate(2.30532,-35.053)">
			<title>Sheet.78</title>
			<desc>pFET</desc>
			<v:textBlock v:margins="rect(0,0,0,0)"/>
			<v:textRect cx="14.7685" cy="171.012" width="29.54" height="10.7756"/>
			<path d="M29.54 165.62 L0 165.62 L0 176.4 L29.54 176.4 L29.54 165.62" class="st4"/>
			<text x="3.55" y="173.71" class="st6" v:langID="1033"><v:paragraph v:horizAlign="1"/><v:tabList/>pFET</text>		</g>
		<g id="shape79-206" v:mID="79" v:groupContext="shape" transform="translate(157.143,-51.511)">
			<title>Sheet.79</title>
			<path d="M0 162.34 L0 176.4" class="st3"/>
		</g>
		<g id="shape80-209" v:mID="80" v:groupContext="shape" transform="translate(157.143,-16.4275)">
			<title>Sheet.80</title>
			<path d="M0 162.34 L0 176.4" class="st3"/>
		</g>
		<g id="shape81-212" v:mID="81" v:groupContext="shape" transform="translate(157.143,-32.2113)">
			<title>Sheet.81</title>
			<path d="M0 157.1 L0 176.4" class="st3"/>
		</g>
		<g id="shape82-215" v:mID="82" v:groupContext="shape" transform="translate(156.244,-50.6133)">
			<title>Sheet.82</title>
			<path d="M0 175.5 L0.07 175.28 L0.07 175.13 L0.22 175.05 L0.3 174.9 L0.45 174.75 L0.52 174.68 L0.75 174.68 L0.9 174.6
						 L1.05 174.68 L1.27 174.68 L1.42 174.75 L1.57 174.9 L1.65 175.05 L1.72 175.13 L1.8 175.28 L1.8 175.5 L1.8
						 175.5 L1.8 175.65 L1.72 175.8 L1.65 176.03 L1.57 176.1 L1.42 176.25 L1.27 176.33 L1.05 176.4 L0.9 176.4
						 L0.75 176.4 L0.52 176.33 L0.45 176.25 L0.3 176.1 L0.22 176.03 L0.07 175.8 L0.07 175.65 L0 175.5 L0 175.5
						 L0 175.5 Z" class="st7"/>
		</g>
		<g id="shape83-217" v:mID="83" v:groupContext="shape" transform="translate(156.244,-50.6133)">
			<title>Sheet.83</title>
			<path d="M0 175.5 L0.07 175.28 L0.07 175.13 L0.22 175.05 L0.3 174.9 L0.45 174.75 L0.52 174.68 L0.75 174.68 L0.9 174.6
						 L1.05 174.68 L1.27 174.68 L1.42 174.75 L1.57 174.9 L1.65 175.05 L1.72 175.13 L1.8 175.28 L1.8 175.5 L1.8
						 175.5 L1.8 175.65 L1.72 175.8 L1.65 176.03 L1.57 176.1 L1.42 176.25 L1.27 176.33 L1.05 176.4 L0.9 176.4
						 L0.75 176.4 L0.52 176.33 L0.45 176.25 L0.3 176.1 L0.22 176.03 L0.07 175.8 L0.07 175.65 L0 175.5 L0 175.5"
					class="st3"/>
		</g>
		<g id="shape84-220" v:mID="84" v:groupContext="shape" transform="translate(156.244,-30.4908)">
			<title>Sheet.84</title>
			<path d="M0 175.58 L0.07 175.35 L0.07 175.2 L0.22 175.05 L0.3 174.98 L0.45 174.83 L0.52 174.75 L0.75 174.75 L0.9 174.68
						 L1.05 174.75 L1.27 174.75 L1.42 174.83 L1.57 174.98 L1.65 175.05 L1.72 175.2 L1.8 175.35 L1.8 175.58 L1.8
						 175.58 L1.8 175.73 L1.72 175.88 L1.65 176.1 L1.57 176.18 L1.42 176.33 L1.27 176.4 L1.05 176.4 L0.9 176.4
						 L0.75 176.4 L0.52 176.4 L0.45 176.33 L0.3 176.18 L0.22 176.1 L0.07 175.88 L0.07 175.73 L0 175.58 L0 175.58
						 L0 175.58 Z" class="st7"/>
		</g>
		<g id="shape85-222" v:mID="85" v:groupContext="shape" transform="translate(156.244,-30.4908)">
			<title>Sheet.85</title>
			<path d="M0 175.58 L0.07 175.35 L0.07 175.2 L0.22 175.05 L0.3 174.98 L0.45 174.83 L0.52 174.75 L0.75 174.75 L0.9 174.68
						 L1.05 174.75 L1.27 174.75 L1.42 174.83 L1.57 174.98 L1.65 175.05 L1.72 175.2 L1.8 175.35 L1.8 175.58 L1.8
						 175.58 L1.8 175.73 L1.72 175.88 L1.65 176.1 L1.57 176.18 L1.42 176.33 L1.27 176.4 L1.05 176.4 L0.9 176.4
						 L0.75 176.4 L0.52 176.4 L0.45 176.33 L0.3 176.18 L0.22 176.1 L0.07 175.88 L0.07 175.73 L0 175.58 L0 175.58"
					class="st3"/>
		</g>
		<g id="shape86-225" v:mID="86" v:groupContext="shape" transform="translate(146.056,-65.5659)">
			<title>Sheet.86</title>
			<desc>source</desc>
			<v:textBlock v:margins="rect(0,0,0,0)"/>
			<v:textRect cx="15.5256" cy="171.596" width="31.06" height="9.60851"/>
			<path d="M31.05 166.79 L0 166.79 L0 176.4 L31.05 176.4 L31.05 166.79" class="st4"/>
			<text x="3.51" y="174" class="st5" v:langID="1033"><v:paragraph v:horizAlign="1"/><v:tabList/>source</text>		</g>
		<g id="shape87-229" v:mID="87" v:groupContext="shape" transform="translate(148.229,-7.06852)">
			<title>Sheet.87</title>
			<desc>drain</desc>
			<v:textBlock v:margins="rect(0,0,0,0)"/>
			<v:textRect cx="11.9457" cy="171.596" width="23.9" height="9.60851"/>
			<path d="M23.89 166.79 L0 166.79 L0 176.4 L23.89 176.4 L23.89 166.79" class="st4"/>
			<text x="3.05" y="174" class="st5" v:langID="1033"><v:paragraph v:horizAlign="1"/><v:tabList/>drain</text>		</g>
		<g id="shape88-233" v:mID="88" v:groupContext="shape" transform="translate(134.296,-40.9635)">
			<title>Sheet.88</title>
			<path d="M16.7 176.4 L0 176.4" class="st3"/>
		</g>
		<g id="shape89-236" v:mID="89" v:groupContext="shape" transform="translate(150.326,-38.4201)">
			<title>Sheet.89</title>
			<path d="M0 171.31 L5.09 173.86 L0 176.4 L0 171.31 L0 171.31 L0 171.31 Z" class="st8"/>
		</g>
		<g id="shape90-238" v:mID="90" v:groupContext="shape" transform="translate(130.251,-30.4908)">
			<title>Sheet.90</title>
			<path d="M8.17 171.16 L4.05 176.4 L0 171.16 L8.17 171.16 L8.17 171.16 L8.17 171.16 Z" class="st7"/>
		</g>
		<g id="shape91-240" v:mID="91" v:groupContext="shape" transform="translate(130.251,-30.4908)">
			<title>Sheet.91</title>
			<path d="M8.17 171.16 L4.05 176.4 L0 171.16 L8.17 171.16 L8.17 171.16 L8.17 171.16" class="st3"/>
		</g>
		<g id="shape92-243" v:mID="92" v:groupContext="shape" transform="translate(124.632,-20.3838)">
			<title>Sheet.92</title>
			<desc>GND</desc>
			<v:textBlock v:margins="rect(0,0,0,0)"/>
			<v:textRect cx="11.9391" cy="171.596" width="23.88" height="9.60851"/>
			<path d="M23.88 166.79 L0 166.79 L0 176.4 L23.88 176.4 L23.88 166.79" class="st4"/>
			<text x="3.05" y="174" class="st5" v:langID="1033"><v:paragraph v:horizAlign="1"/><v:tabList/>GND</text>		</g>
		<g id="shape93-247" v:mID="93" v:groupContext="shape" transform="translate(134.296,-35.7272)">
			<title>Sheet.93</title>
			<path d="M0 171.16 L0 176.4" class="st3"/>
		</g>
		<g id="shape94-250" v:mID="94" v:groupContext="shape" transform="translate(164.934,-37.4393)">
			<title>Sheet.94</title>
			<desc>Closed</desc>
			<v:textBlock v:margins="rect(0,0,0,0)"/>
			<v:textRect cx="17.056" cy="171.596" width="34.12" height="9.60851"/>
			<path d="M34.11 166.79 L0 166.79 L0 176.4 L34.11 176.4 L34.11 166.79" class="st4"/>
			<text x="3.71" y="174" class="st9" v:langID="1033"><v:paragraph v:horizAlign="1"/><v:tabList/>Closed</text>		</g>
		<g id="shape95-254" v:mID="95" v:groupContext="shape" transform="translate(251.529,-38.0377)">
			<title>Sheet.95</title>
			<desc>Open</desc>
			<v:textBlock v:margins="rect(0,0,0,0)"/>
			<v:textRect cx="13.474" cy="171.596" width="26.95" height="9.60851"/>
			<path d="M26.95 166.79 L0 166.79 L0 176.4 L26.95 176.4 L26.95 166.79" class="st4"/>
			<text x="3.25" y="174" class="st9" v:langID="1033"><v:paragraph v:horizAlign="1"/><v:tabList/>Open</text>		</g>
		<g id="shape96-258" v:mID="96" v:groupContext="shape" transform="translate(114.969,-0.0452382)">
			<title>Sheet.96</title>
			<path d="M0 175.83 L0 2.77 L0 2.63 L0.07 2.56 L0.07 2.42 L0.15 2.35 L0.3 2.28 L0.37 2.21 L0.45 2.21 L0.6 2.21 L0.75 2.21
						 L0.82 2.21 L0.97 2.28 L1.05 2.35 L1.12 2.42 L1.12 2.56 L1.2 2.63 L1.2 2.77 L1.2 175.83 L1.2 175.9 L1.12
						 176.04 L1.12 176.12 L1.05 176.19 L0.97 176.26 L0.82 176.33 L0.75 176.33 L0.6 176.4 L0.45 176.33 L0.37 176.33
						 L0.3 176.26 L0.15 176.19 L0.07 176.12 L0.07 176.04 L0 175.9 L0 175.83 L0 175.83 L0 175.83 Z" class="st10"/>
		</g>
		<g id="shape97-260" v:mID="97" v:groupContext="shape" transform="translate(200.366,-0.0452382)">
			<title>Sheet.97</title>
			<path d="M0 175.83 L0 2.77 L0 2.63 L0.07 2.56 L0.07 2.42 L0.15 2.35 L0.3 2.28 L0.37 2.21 L0.45 2.21 L0.6 2.21 L0.75 2.21
						 L0.82 2.21 L0.97 2.28 L1.05 2.35 L1.12 2.42 L1.12 2.56 L1.2 2.63 L1.2 2.77 L1.2 175.83 L1.2 175.9 L1.12
						 176.04 L1.12 176.12 L1.05 176.19 L0.97 176.26 L0.82 176.33 L0.75 176.33 L0.6 176.4 L0.45 176.33 L0.37 176.33
						 L0.3 176.26 L0.15 176.19 L0.07 176.12 L0.07 176.04 L0 175.9 L0 175.83 L0 175.83 L0 175.83 Z" class="st10"/>
		</g>
		<g id="shape98-262" v:mID="98" v:groupContext="shape" transform="translate(0,-80.8345)">
			<title>Sheet.98</title>
			<path d="M286.37 176.4 L0.59 176.4 L0.44 176.33 L0.37 176.33 L0.29 176.25 L0.15 176.18 L0.07 176.1 L0.07 176.03 L0 175.88
						 L0 175.8 L0 175.65 L0.07 175.58 L0.07 175.43 L0.15 175.35 L0.29 175.28 L0.37 175.2 L0.44 175.2 L0.59 175.2
						 L286.37 175.2 L286.52 175.2 L286.59 175.2 L286.74 175.28 L286.81 175.35 L286.89 175.43 L286.89 175.58 L286.96
						 175.65 L286.96 175.8 L286.96 175.88 L286.89 176.03 L286.89 176.1 L286.81 176.18 L286.74 176.25 L286.59 176.33
						 L286.52 176.33 L286.37 176.4 L286.37 176.4 L286.37 176.4 Z" class="st10"/>
		</g>
		<g id="shape99-264" v:mID="99" v:groupContext="shape" transform="translate(0,-157.734)">
			<title>Sheet.99</title>
			<path d="M286.37 176.4 L0.59 176.4 L0.44 176.4 L0.37 176.4 L0.29 176.33 L0.15 176.25 L0.07 176.18 L0.07 176.03 L0 175.95
						 L0 175.8 L0 175.73 L0.07 175.58 L0.07 175.5 L0.15 175.43 L0.29 175.35 L0.37 175.28 L0.44 175.2 L0.59 175.2
						 L286.37 175.2 L286.52 175.2 L286.59 175.28 L286.74 175.35 L286.81 175.43 L286.89 175.5 L286.89 175.58 L286.96
						 175.73 L286.96 175.8 L286.96 175.95 L286.89 176.03 L286.89 176.18 L286.81 176.25 L286.74 176.33 L286.59
						 176.4 L286.52 176.4 L286.37 176.4 L286.37 176.4 L286.37 176.4 Z" class="st10"/>
		</g>
		<g id="shape100-266" v:mID="100" v:groupContext="shape" transform="translate(32.9433,-0.0452382)">
			<title>Sheet.100</title>
			<path d="M0 175.83 L0 2.77 L0 2.63 L0.07 2.56 L0.07 2.42 L0.15 2.35 L0.3 2.28 L0.37 2.21 L0.45 2.21 L0.6 2.21 L0.75 2.21
						 L0.82 2.21 L0.97 2.28 L1.05 2.35 L1.12 2.42 L1.12 2.56 L1.2 2.63 L1.2 2.77 L1.2 175.83 L1.2 175.9 L1.12
						 176.04 L1.12 176.12 L1.05 176.19 L0.97 176.26 L0.82 176.33 L0.75 176.33 L0.6 176.4 L0.45 176.33 L0.37 176.33
						 L0.3 176.26 L0.15 176.19 L0.07 176.12 L0.07 176.04 L0 175.9 L0 175.83 L0 175.83 L0 175.83 Z" class="st10"/>
		</g>
	</g>
</svg>
