<?xml version="1.0" encoding="UTF-8" standalone="no"?>
<!DOCTYPE svg PUBLIC "-//W3C//DTD SVG 1.1//EN" "http://www.w3.org/Graphics/SVG/1.1/DTD/svg11.dtd">
<!-- Generated by Microsoft Visio, SVG Export clock.svg Page-1 -->
<svg xmlns="http://www.w3.org/2000/svg" xmlns:xlink="http://www.w3.org/1999/xlink" xmlns:ev="http://www.w3.org/2001/xml-events"
		xmlns:v="http://schemas.microsoft.com/visio/2003/SVGExtensions/" width="6.52in" height="1.55125in"
		viewBox="0 0 469.44 111.69" xml:space="preserve" color-interpolation-filters="sRGB" class="st7">
	<v:documentProperties v:langID="1033" v:viewMarkup="false">
		<v:userDefs>
			<v:ud v:nameU="msvConvertTheme"/>
		</v:userDefs>
	</v:documentProperties>

	<style type="text/css">
	<![CDATA[
		.st1 {stroke:#000000;stroke-linecap:round;stroke-linejoin:round;stroke-width:0.72}
		.st2 {fill:none;stroke:none;stroke-linecap:round;stroke-linejoin:round;stroke-width:0.72}
		.st3 {fill:#000000;font-family:Arial;font-size:0.833336em}
		.st4 {marker-end:url(#mrkr4-30);stroke:#000000;stroke-linecap:round;stroke-linejoin:round;stroke-width:0.72}
		.st5 {fill:#000000;fill-opacity:1;stroke:#000000;stroke-opacity:1;stroke-width:0.22222222222222}
		.st6 {stroke:#000000;stroke-dasharray:0,2.16;stroke-linecap:round;stroke-linejoin:round;stroke-width:0.72}
		.st7 {fill:none;fill-rule:evenodd;font-size:12px;overflow:visible;stroke-linecap:square;stroke-miterlimit:3}
	]]>
	</style>

	<defs id="Markers">
		<g id="lend4">
			<path d="M 2 1 L 0 0 L 2 -1 L 2 1 " style="stroke:none"/>
		</g>
		<marker id="mrkr4-30" class="st5" v:arrowType="4" v:arrowSize="2" v:setback="9" refX="-9" orient="auto"
				markerUnits="strokeWidth" overflow="visible">
			<use xlink:href="#lend4" transform="scale(-4.5,-4.5) "/>
		</marker>
	</defs>
	<g v:mID="0" v:index="1" v:groupContext="foregroundPage">
		<title>Page-1</title>
		<v:pageProperties v:drawingScale="1" v:pageScale="1" v:drawingUnits="19" v:shadowOffsetX="9" v:shadowOffsetY="-9"/>
		<g id="shape1-1" v:mID="1" v:groupContext="shape" transform="translate(36.72,-22.4085)">
			<title>Sheet.1</title>
			<path d="M0 111.69 L63 111.69 L63 97.23 L126 97.23 L126 111.69 L162 111.69 L162 97.23 L270 97.23 L270 111.69 L342 111.69
						 L342 97.23 L432 97.23" class="st1"/>
		</g>
		<g id="shape2-4" v:mID="2" v:groupContext="shape" transform="translate(36.72,-65.7856)">
			<title>Sheet.2</title>
			<path d="M0 111.69 L36 111.69 L36 97.23 L72 97.23 L72 111.69" class="st1"/>
		</g>
		<g id="shape3-7" v:mID="3" v:groupContext="shape" transform="translate(0.72,-22.4085)">
			<title>Sheet.3</title>
			<desc>D</desc>
			<v:textBlock v:margins="rect(4,4,4,4)"/>
			<v:textRect cx="18" cy="104.46" width="36" height="14.459"/>
			<rect x="0" y="97.231" width="36" height="14.459" class="st2"/>
			<text x="24.78" y="107.46" class="st3" v:langID="1033"><v:paragraph v:horizAlign="2"/><v:tabList/>D</text>		</g>
		<g id="shape4-10" v:mID="4" v:groupContext="shape" transform="translate(0.72,-44.097)">
			<title>Sheet.4</title>
			<desc>Rst</desc>
			<v:textBlock v:margins="rect(4,4,4,4)"/>
			<v:textRect cx="18" cy="104.46" width="36" height="14.459"/>
			<rect x="0" y="97.231" width="36" height="14.459" class="st2"/>
			<text x="17" y="107.46" class="st3" v:langID="1033"><v:paragraph v:horizAlign="2"/><v:tabList/>Rst</text>		</g>
		<g id="shape5-13" v:mID="5" v:groupContext="shape" transform="translate(108.72,-65.7856)">
			<title>Sheet.5</title>
			<path d="M0 111.69 L36 111.69 L36 97.23 L72 97.23 L72 111.69" class="st1"/>
		</g>
		<g id="shape6-16" v:mID="6" v:groupContext="shape" transform="translate(180.72,-65.7856)">
			<title>Sheet.6</title>
			<path d="M0 111.69 L36 111.69 L36 97.23 L72 97.23 L72 111.69" class="st1"/>
		</g>
		<g id="shape7-19" v:mID="7" v:groupContext="shape" transform="translate(252.72,-65.7856)">
			<title>Sheet.7</title>
			<path d="M0 111.69 L36 111.69 L36 97.23 L72 97.23 L72 111.69" class="st1"/>
		</g>
		<g id="shape8-22" v:mID="8" v:groupContext="shape" transform="translate(324.72,-65.7856)">
			<title>Sheet.8</title>
			<path d="M0 111.69 L36 111.69 L36 97.23 L72 97.23 L72 111.69" class="st1"/>
		</g>
		<g id="shape9-25" v:mID="9" v:groupContext="shape" transform="translate(-38.97,42.2897) rotate(-90)">
			<title>Sheet.9</title>
			<path d="M0 111.69 L0.75 111.69" class="st4"/>
		</g>
		<g id="shape10-31" v:mID="10" v:groupContext="shape" transform="translate(-2.97,35.0602) rotate(-90) scale(-1,1)">
			<title>Sheet.10</title>
			<path d="M0 111.69 L0.75 111.69" class="st4"/>
		</g>
		<g id="shape11-36" v:mID="11" v:groupContext="shape" transform="translate(9.72,-96.511)">
			<title>Sheet.11</title>
			<desc>Rising edge</desc>
			<v:textBlock v:margins="rect(4,4,4,4)"/>
			<v:textRect cx="36" cy="104.46" width="72" height="14.459"/>
			<rect x="0" y="97.231" width="72" height="14.459" class="st2"/>
			<text x="15.19" y="107.46" class="st3" v:langID="1033"><v:paragraph v:horizAlign="2"/><v:tabList/>Rising edge</text>		</g>
		<g id="shape12-39" v:mID="12" v:groupContext="shape" transform="translate(149.666,-54.3431) rotate(50.3096)">
			<title>Sheet.12</title>
			<path d="M0 111.69 L7.61 111.69" class="st4"/>
		</g>
		<g id="shape13-44" v:mID="13" v:groupContext="shape" transform="translate(90.72,-96.511)">
			<title>Sheet.13</title>
			<desc>Falling edge</desc>
			<v:textBlock v:margins="rect(4,4,4,4)"/>
			<v:textRect cx="36" cy="104.46" width="72" height="14.459"/>
			<rect x="0" y="97.231" width="72" height="14.459" class="st2"/>
			<text x="13.52" y="107.46" class="st3" v:langID="1033"><v:paragraph v:horizAlign="2"/><v:tabList/>Falling edge</text>		</g>
		<g id="shape14-47" v:mID="14" v:groupContext="shape" transform="translate(192.166,104.062) rotate(141.226)">
			<title>Sheet.14</title>
			<path d="M0 111.69 L10.84 111.69" class="st4"/>
		</g>
		<g id="shape26-52" v:mID="26" v:groupContext="shape" transform="translate(396.72,-65.7856)">
			<title>Sheet.26</title>
			<path d="M0 111.69 L36 111.69 L36 97.23 L72 97.23 L72 111.69" class="st1"/>
		</g>
		<g id="shape27-55" v:mID="27" v:groupContext="shape" transform="translate(36.72,-44.097)">
			<title>Sheet.27</title>
			<path d="M0 111.69 L18 111.69 L18 97.23 L72 97.23 L72 111.69 L225 111.69 L225 97.23 L270 97.23 L270 111.69 L432 111.69"
					class="st1"/>
		</g>
		<g id="shape28-58" v:mID="28" v:groupContext="shape" transform="translate(36.72,-0.72)">
			<title>Sheet.28</title>
			<path d="M0 111.69 L108 111.69 L108 97.23 L225 97.23 L225 111.69 L396 111.69 L396 97.23 L432 97.23" class="st1"/>
		</g>
		<g id="shape29-61" v:mID="29" v:groupContext="shape" transform="translate(0.72,-65.7856)">
			<title>Sheet.29</title>
			<desc>Clk</desc>
			<v:textBlock v:margins="rect(4,4,4,4)"/>
			<v:textRect cx="18" cy="104.46" width="36" height="14.459"/>
			<rect x="0" y="97.231" width="36" height="14.459" class="st2"/>
			<text x="17.56" y="107.46" class="st3" v:langID="1033"><v:paragraph v:horizAlign="2"/><v:tabList/>Clk</text>		</g>
		<g id="shape30-64" v:mID="30" v:groupContext="shape" transform="translate(0.72,-0.72)">
			<title>Sheet.30</title>
			<desc>Q</desc>
			<v:textBlock v:margins="rect(4,4,4,4)"/>
			<v:textRect cx="18" cy="104.46" width="36" height="14.459"/>
			<rect x="0" y="97.231" width="36" height="14.459" class="st2"/>
			<text x="24.22" y="107.46" class="st3" v:langID="1033"><v:paragraph v:horizAlign="2"/><v:tabList/>Q</text>		</g>
		<g id="shape31-67" v:mID="31" v:groupContext="shape" transform="translate(328.41,24.2159) rotate(90)">
			<title>Sheet.31</title>
			<path d="M0 111.69 L86.75 111.69" class="st6"/>
		</g>
		<g id="shape32-70" v:mID="32" v:groupContext="shape" transform="translate(400.41,24.2159) rotate(90)">
			<title>Sheet.32</title>
			<path d="M0 111.69 L86.75 111.69" class="st6"/>
		</g>
		<g id="shape33-73" v:mID="33" v:groupContext="shape" transform="translate(472.41,24.2159) rotate(90)">
			<title>Sheet.33</title>
			<path d="M0 111.69 L86.75 111.69" class="st6"/>
		</g>
		<g id="shape34-76" v:mID="34" v:groupContext="shape" transform="translate(544.41,24.2159) rotate(90)">
			<title>Sheet.34</title>
			<path d="M0 111.69 L86.75 111.69" class="st6"/>
		</g>
		<g id="shape35-79" v:mID="35" v:groupContext="shape" transform="translate(256.41,24.2159) rotate(90)">
			<title>Sheet.35</title>
			<path d="M0 111.69 L86.75 111.69" class="st6"/>
		</g>
		<g id="shape36-82" v:mID="36" v:groupContext="shape" transform="translate(207.72,-96.511)">
			<title>Sheet.36</title>
			<desc>&#34;Active&#34; edges for a RET DFF</desc>
			<v:textBlock v:margins="rect(4,4,4,4)"/>
			<v:textRect cx="76.5" cy="104.46" width="153" height="14.459"/>
			<rect x="0" y="97.231" width="153" height="14.459" class="st2"/>
			<text x="16.86" y="107.46" class="st3" v:langID="1033"><v:paragraph v:horizAlign="2"/><v:tabList/>&#34;Active&#34; edges for a RET DFF</text>		</g>
		<g id="shape37-85" v:mID="37" v:groupContext="shape" transform="translate(268.859,124.454) rotate(174.019)">
			<title>Sheet.37</title>
			<path d="M0 111.69 L97.59 111.69" class="st4"/>
		</g>
		<g id="shape38-90" v:mID="38" v:groupContext="shape" transform="translate(293.577,118.979) rotate(161.003)">
			<title>Sheet.38</title>
			<path d="M0 111.69 L26.83 111.69" class="st4"/>
		</g>
		<g id="shape39-95" v:mID="39" v:groupContext="shape" transform="translate(352.273,-97.4307) rotate(7.22843)">
			<title>Sheet.39</title>
			<path d="M0 111.69 L79.7 111.69" class="st4"/>
		</g>
		<g id="shape40-100" v:mID="40" v:groupContext="shape" transform="translate(386.713,-87.2421) rotate(25.7325)">
			<title>Sheet.40</title>
			<path d="M0 111.69 L18.5 111.69" class="st4"/>
		</g>
		<g id="shape41-105" v:mID="41" v:groupContext="shape" transform="translate(400.41,15.179) rotate(90)">
			<title>Sheet.41</title>
			<path d="M0 111.69 L2.56 111.69" class="st4"/>
		</g>
	</g>
</svg>
