<?xml version="1.0" encoding="UTF-8" standalone="no"?>
<!DOCTYPE svg PUBLIC "-//W3C//DTD SVG 1.1//EN" "http://www.w3.org/Graphics/SVG/1.1/DTD/svg11.dtd">
<!-- Generated by Microsoft Visio, SVG Export Comp_BusCompare.svg Page-1 -->
<svg xmlns="http://www.w3.org/2000/svg" xmlns:xlink="http://www.w3.org/1999/xlink" xmlns:ev="http://www.w3.org/2001/xml-events"
		xmlns:v="http://schemas.microsoft.com/visio/2003/SVGExtensions/" width="6.8401in" height="1.75333in"
		viewBox="0 0 492.488 126.24" xml:space="preserve" color-interpolation-filters="sRGB" class="st13">
	<v:documentProperties v:langID="1033" v:viewMarkup="false"/>

	<style type="text/css">
	<![CDATA[
		.st1 {fill:#d5e1fb;stroke:none;stroke-linecap:round;stroke-linejoin:round;stroke-width:0.24}
		.st2 {marker-end:url(#mrkr4-8);stroke:#000000;stroke-linecap:round;stroke-linejoin:round;stroke-width:0.72}
		.st3 {fill:#000000;fill-opacity:1;stroke:#000000;stroke-opacity:1;stroke-width:0.22222222222222}
		.st4 {fill:#fddeb0;stroke:none;stroke-linecap:round;stroke-linejoin:round;stroke-width:0.24}
		.st5 {stroke:none;stroke-linecap:round;stroke-linejoin:round;stroke-width:0.75}
		.st6 {fill:#000000;font-family:Arial;font-size:0.833336em}
		.st7 {stroke:#000000;stroke-linecap:round;stroke-linejoin:round;stroke-width:1.2}
		.st8 {stroke:#000000;stroke-linecap:round;stroke-linejoin:round;stroke-width:0.72}
		.st9 {fill:#000000;stroke:#000000;stroke-linecap:round;stroke-linejoin:round;stroke-width:0.24}
		.st10 {fill:#000000;font-family:Arial;font-size:0.75em}
		.st11 {fill:#000000;font-family:Arial;font-size:0.916672em;font-weight:bold}
		.st12 {fill:none;stroke:#000000;stroke-linecap:round;stroke-linejoin:round;stroke-width:0.72}
		.st13 {fill:none;fill-rule:evenodd;font-size:12px;overflow:visible;stroke-linecap:square;stroke-miterlimit:3}
	]]>
	</style>

	<defs id="Markers">
		<g id="lend4">
			<path d="M 2 1 L 0 0 L 2 -1 L 2 1 " style="stroke:none"/>
		</g>
		<marker id="mrkr4-8" class="st3" v:arrowType="4" v:arrowSize="2" v:setback="9" refX="-9" orient="auto"
				markerUnits="strokeWidth" overflow="visible">
			<use xlink:href="#lend4" transform="scale(-4.5,-4.5) "/>
		</marker>
	</defs>
	<g v:mID="0" v:index="1" v:groupContext="foregroundPage">
		<title>Page-1</title>
		<v:pageProperties v:drawingScale="1" v:pageScale="1" v:drawingUnits="19" v:shadowOffsetX="9" v:shadowOffsetY="-9"/>
		<g id="shape1-1" v:mID="1" v:groupContext="shape" transform="translate(63,-0.12)">
			<title>Rectangle.166</title>
			<v:userDefs>
				<v:ud v:nameU="visVersion" v:val="VT0(11):26"/>
			</v:userDefs>
			<rect x="0" y="0.24" width="429.368" height="126" class="st1"/>
		</g>
		<g id="shape2-3" v:mID="2" v:groupContext="shape" transform="translate(72,-63.12) scale(-1,1)">
			<title>Sheet.2</title>
			<path d="M0 126.24 L7.5 126.24 L16.02 126.24" class="st2"/>
		</g>
		<g id="shape3-9" v:mID="3" v:groupContext="shape" transform="translate(72,-18.12)">
			<title>Rectangle</title>
			<v:userDefs>
				<v:ud v:nameU="visVersion" v:val="VT0(11):26"/>
			</v:userDefs>
			<rect x="0" y="72.24" width="94.5" height="54" class="st4"/>
		</g>
		<g id="shape4-11" v:mID="4" v:groupContext="shape" transform="translate(74.25,-58.62)">
			<title>Sheet.4</title>
			<desc>GTO</desc>
			<v:textBlock v:margins="rect(0,0,0,0)"/>
			<v:textRect cx="11.25" cy="121.74" width="22.5" height="9"/>
			<path d="M22.5 117.24 L0 117.24 L0 126.24 L22.5 126.24 L22.5 117.24" class="st5"/>
			<text x="0" y="124.74" class="st6" v:langID="1033"><v:paragraph/><v:tabList/>GTO</text>		</g>
		<g id="shape5-15" v:mID="5" v:groupContext="shape" transform="translate(74.25,-22.62)">
			<title>Sheet.5</title>
			<desc>LTO</desc>
			<v:textBlock v:margins="rect(0,0,0,0)"/>
			<v:textRect cx="11.25" cy="121.74" width="22.5" height="9"/>
			<path d="M22.5 117.24 L0 117.24 L0 126.24 L22.5 126.24 L22.5 117.24" class="st5"/>
			<text x="0" y="124.74" class="st6" v:langID="1033"><v:paragraph/><v:tabList/>LTO</text>		</g>
		<g id="shape6-19" v:mID="6" v:groupContext="shape" transform="translate(74.25,-40.62)">
			<title>Sheet.6</title>
			<desc>EQO</desc>
			<v:textBlock v:margins="rect(0,0,0,0)"/>
			<v:textRect cx="11.25" cy="121.74" width="22.5" height="9"/>
			<path d="M22.5 117.24 L0 117.24 L0 126.24 L22.5 126.24 L22.5 117.24" class="st5"/>
			<text x="0" y="124.74" class="st6" v:langID="1033"><v:paragraph/><v:tabList/>EQO</text>		</g>
		<g id="shape7-23" v:mID="7" v:groupContext="shape" transform="translate(72,-45.12) scale(-1,1)">
			<title>Sheet.7</title>
			<path d="M0 126.24 L7.5 126.24 L16.02 126.24" class="st2"/>
		</g>
		<g id="shape8-28" v:mID="8" v:groupContext="shape" transform="translate(72,-27.12) scale(-1,1)">
			<title>Sheet.8</title>
			<path d="M0 126.24 L7.5 126.24 L16.02 126.24" class="st2"/>
		</g>
		<g id="shape9-33" v:mID="9" v:groupContext="shape" transform="translate(180,-63.12) scale(-1,1)">
			<title>Sheet.9</title>
			<path d="M0 126.24 L4.5 126.24 L7.02 126.24" class="st2"/>
		</g>
		<g id="shape10-38" v:mID="10" v:groupContext="shape" transform="translate(180,-45.12) scale(-1,1)">
			<title>Sheet.10</title>
			<path d="M0 126.24 L4.5 126.24 L7.02 126.24" class="st2"/>
		</g>
		<g id="shape11-43" v:mID="11" v:groupContext="shape" transform="translate(180,-27.12) scale(-1,1)">
			<title>Sheet.11</title>
			<path d="M0 126.24 L4.5 126.24 L7.02 126.24" class="st2"/>
		</g>
		<g id="shape12-48" v:mID="12" v:groupContext="shape" transform="translate(141.75,-58.62)">
			<title>Sheet.12</title>
			<desc>GTI</desc>
			<v:textBlock v:margins="rect(0,0,0,0)"/>
			<v:textRect cx="11.25" cy="121.74" width="22.5" height="9"/>
			<path d="M22.5 117.24 L0 117.24 L0 126.24 L22.5 126.24 L22.5 117.24" class="st5"/>
			<text x="5.83" y="124.74" class="st6" v:langID="1033"><v:paragraph v:horizAlign="2"/><v:tabList/>GTI</text>		</g>
		<g id="shape13-52" v:mID="13" v:groupContext="shape" transform="translate(141.75,-22.62)">
			<title>Sheet.13</title>
			<desc>LTI</desc>
			<v:textBlock v:margins="rect(0,0,0,0)"/>
			<v:textRect cx="11.25" cy="121.74" width="22.5" height="9"/>
			<path d="M22.5 117.24 L0 117.24 L0 126.24 L22.5 126.24 L22.5 117.24" class="st5"/>
			<text x="8.05" y="124.74" class="st6" v:langID="1033"><v:paragraph v:horizAlign="2"/><v:tabList/>LTI</text>		</g>
		<g id="shape14-56" v:mID="14" v:groupContext="shape" transform="translate(141.75,-40.62)">
			<title>Sheet.14</title>
			<desc>EQI</desc>
			<v:textBlock v:margins="rect(0,0,0,0)"/>
			<v:textRect cx="11.25" cy="121.74" width="22.5" height="9"/>
			<path d="M22.5 117.24 L0 117.24 L0 126.24 L22.5 126.24 L22.5 117.24" class="st5"/>
			<text x="5.27" y="124.74" class="st6" v:langID="1033"><v:paragraph v:horizAlign="2"/><v:tabList/>EQI</text>		</g>
		<g id="shape15-60" v:mID="15" v:groupContext="shape" transform="translate(105.75,-59.745)">
			<title>Sheet.15</title>
			<desc>A</desc>
			<v:textBlock v:margins="rect(0,0,0,0)"/>
			<v:textRect cx="9" cy="121.74" width="18" height="9"/>
			<path d="M18 117.24 L0 117.24 L0 126.24 L18 126.24 L18 117.24" class="st5"/>
			<text x="0" y="124.74" class="st6" v:langID="1033"><v:paragraph/><v:tabList/>A</text>		</g>
		<g id="shape16-64" v:mID="16" v:groupContext="shape" transform="translate(128.25,-59.745)">
			<title>Sheet.16</title>
			<desc>B</desc>
			<v:textBlock v:margins="rect(0,0,0,0)"/>
			<v:textRect cx="9" cy="121.74" width="18" height="9"/>
			<path d="M18 117.24 L0 117.24 L0 126.24 L18 126.24 L18 117.24" class="st5"/>
			<text x="0" y="124.74" class="st6" v:langID="1033"><v:paragraph/><v:tabList/>B</text>		</g>
		<g id="shape17-68" v:mID="17" v:groupContext="shape" transform="translate(238.5,-63.12) scale(-1,1)">
			<title>Sheet.17</title>
			<path d="M0 126.24 L4.5 126.24 L7.02 126.24" class="st2"/>
		</g>
		<g id="shape18-73" v:mID="18" v:groupContext="shape" transform="translate(238.5,-18.12)">
			<title>Rectangle.104</title>
			<v:userDefs>
				<v:ud v:nameU="visVersion" v:val="VT0(11):26"/>
			</v:userDefs>
			<rect x="0" y="72.24" width="94.5" height="54" class="st4"/>
		</g>
		<g id="shape19-75" v:mID="19" v:groupContext="shape" transform="translate(240.75,-58.62)">
			<title>Sheet.19</title>
			<desc>GTO</desc>
			<v:textBlock v:margins="rect(0,0,0,0)"/>
			<v:textRect cx="11.25" cy="121.74" width="22.5" height="9"/>
			<path d="M22.5 117.24 L0 117.24 L0 126.24 L22.5 126.24 L22.5 117.24" class="st5"/>
			<text x="0" y="124.74" class="st6" v:langID="1033"><v:paragraph/><v:tabList/>GTO</text>		</g>
		<g id="shape20-79" v:mID="20" v:groupContext="shape" transform="translate(240.75,-22.62)">
			<title>Sheet.20</title>
			<desc>LTO</desc>
			<v:textBlock v:margins="rect(0,0,0,0)"/>
			<v:textRect cx="11.25" cy="121.74" width="22.5" height="9"/>
			<path d="M22.5 117.24 L0 117.24 L0 126.24 L22.5 126.24 L22.5 117.24" class="st5"/>
			<text x="0" y="124.74" class="st6" v:langID="1033"><v:paragraph/><v:tabList/>LTO</text>		</g>
		<g id="shape21-83" v:mID="21" v:groupContext="shape" transform="translate(240.75,-40.62)">
			<title>Sheet.21</title>
			<desc>EQO</desc>
			<v:textBlock v:margins="rect(0,0,0,0)"/>
			<v:textRect cx="11.25" cy="121.74" width="22.5" height="9"/>
			<path d="M22.5 117.24 L0 117.24 L0 126.24 L22.5 126.24 L22.5 117.24" class="st5"/>
			<text x="0" y="124.74" class="st6" v:langID="1033"><v:paragraph/><v:tabList/>EQO</text>		</g>
		<g id="shape22-87" v:mID="22" v:groupContext="shape" transform="translate(238.5,-45.12) scale(-1,1)">
			<title>Sheet.22</title>
			<path d="M0 126.24 L4.5 126.24 L7.02 126.24" class="st2"/>
		</g>
		<g id="shape23-92" v:mID="23" v:groupContext="shape" transform="translate(238.5,-27.12) scale(-1,1)">
			<title>Sheet.23</title>
			<path d="M0 126.24 L4.5 126.24 L7.02 126.24" class="st2"/>
		</g>
		<g id="shape24-97" v:mID="24" v:groupContext="shape" transform="translate(346.5,-63.12) scale(-1,1)">
			<title>Sheet.24</title>
			<path d="M0 126.24 L4.5 126.24 L7.02 126.24" class="st2"/>
		</g>
		<g id="shape25-102" v:mID="25" v:groupContext="shape" transform="translate(346.5,-45.12) scale(-1,1)">
			<title>Sheet.25</title>
			<path d="M0 126.24 L4.5 126.24 L7.02 126.24" class="st2"/>
		</g>
		<g id="shape26-107" v:mID="26" v:groupContext="shape" transform="translate(346.5,-27.12) scale(-1,1)">
			<title>Sheet.26</title>
			<path d="M0 126.24 L4.5 126.24 L7.02 126.24" class="st2"/>
		</g>
		<g id="shape27-112" v:mID="27" v:groupContext="shape" transform="translate(308.25,-58.62)">
			<title>Sheet.27</title>
			<desc>GTI</desc>
			<v:textBlock v:margins="rect(0,0,0,0)"/>
			<v:textRect cx="11.25" cy="121.74" width="22.5" height="9"/>
			<path d="M22.5 117.24 L0 117.24 L0 126.24 L22.5 126.24 L22.5 117.24" class="st5"/>
			<text x="5.83" y="124.74" class="st6" v:langID="1033"><v:paragraph v:horizAlign="2"/><v:tabList/>GTI</text>		</g>
		<g id="shape28-116" v:mID="28" v:groupContext="shape" transform="translate(308.25,-22.62)">
			<title>Sheet.28</title>
			<desc>LTI</desc>
			<v:textBlock v:margins="rect(0,0,0,0)"/>
			<v:textRect cx="11.25" cy="121.74" width="22.5" height="9"/>
			<path d="M22.5 117.24 L0 117.24 L0 126.24 L22.5 126.24 L22.5 117.24" class="st5"/>
			<text x="8.05" y="124.74" class="st6" v:langID="1033"><v:paragraph v:horizAlign="2"/><v:tabList/>LTI</text>		</g>
		<g id="shape29-120" v:mID="29" v:groupContext="shape" transform="translate(308.25,-40.62)">
			<title>Sheet.29</title>
			<desc>EQI</desc>
			<v:textBlock v:margins="rect(0,0,0,0)"/>
			<v:textRect cx="11.25" cy="121.74" width="22.5" height="9"/>
			<path d="M22.5 117.24 L0 117.24 L0 126.24 L22.5 126.24 L22.5 117.24" class="st5"/>
			<text x="5.27" y="124.74" class="st6" v:langID="1033"><v:paragraph v:horizAlign="2"/><v:tabList/>EQI</text>		</g>
		<g id="shape30-124" v:mID="30" v:groupContext="shape" transform="translate(272.25,-59.745)">
			<title>Sheet.30</title>
			<desc>A</desc>
			<v:textBlock v:margins="rect(0,0,0,0)"/>
			<v:textRect cx="9" cy="121.74" width="18" height="9"/>
			<path d="M18 117.24 L0 117.24 L0 126.24 L18 126.24 L18 117.24" class="st5"/>
			<text x="0" y="124.74" class="st6" v:langID="1033"><v:paragraph/><v:tabList/>A</text>		</g>
		<g id="shape31-128" v:mID="31" v:groupContext="shape" transform="translate(294.75,-59.745)">
			<title>Sheet.31</title>
			<desc>B</desc>
			<v:textBlock v:margins="rect(0,0,0,0)"/>
			<v:textRect cx="9" cy="121.74" width="18" height="9"/>
			<path d="M18 117.24 L0 117.24 L0 126.24 L18 126.24 L18 117.24" class="st5"/>
			<text x="0" y="124.74" class="st6" v:langID="1033"><v:paragraph/><v:tabList/>B</text>		</g>
		<g id="shape32-132" v:mID="32" v:groupContext="shape" transform="translate(346.5,-18.12)">
			<title>Rectangle.118</title>
			<v:userDefs>
				<v:ud v:nameU="visVersion" v:val="VT0(11):26"/>
			</v:userDefs>
			<rect x="0" y="72.24" width="94.5" height="54" class="st4"/>
		</g>
		<g id="shape33-134" v:mID="33" v:groupContext="shape" transform="translate(348.75,-58.62)">
			<title>Sheet.33</title>
			<desc>GTO</desc>
			<v:textBlock v:margins="rect(0,0,0,0)"/>
			<v:textRect cx="11.25" cy="121.74" width="22.5" height="9"/>
			<path d="M22.5 117.24 L0 117.24 L0 126.24 L22.5 126.24 L22.5 117.24" class="st5"/>
			<text x="0" y="124.74" class="st6" v:langID="1033"><v:paragraph/><v:tabList/>GTO</text>		</g>
		<g id="shape34-138" v:mID="34" v:groupContext="shape" transform="translate(348.75,-22.62)">
			<title>Sheet.34</title>
			<desc>LTO</desc>
			<v:textBlock v:margins="rect(0,0,0,0)"/>
			<v:textRect cx="11.25" cy="121.74" width="22.5" height="9"/>
			<path d="M22.5 117.24 L0 117.24 L0 126.24 L22.5 126.24 L22.5 117.24" class="st5"/>
			<text x="0" y="124.74" class="st6" v:langID="1033"><v:paragraph/><v:tabList/>LTO</text>		</g>
		<g id="shape35-142" v:mID="35" v:groupContext="shape" transform="translate(348.75,-40.62)">
			<title>Sheet.35</title>
			<desc>EQO</desc>
			<v:textBlock v:margins="rect(0,0,0,0)"/>
			<v:textRect cx="11.25" cy="121.74" width="22.5" height="9"/>
			<path d="M22.5 117.24 L0 117.24 L0 126.24 L22.5 126.24 L22.5 117.24" class="st5"/>
			<text x="0" y="124.74" class="st6" v:langID="1033"><v:paragraph/><v:tabList/>EQO</text>		</g>
		<g id="shape36-146" v:mID="36" v:groupContext="shape" transform="translate(468,-63.12) scale(-1,1)">
			<title>Sheet.36</title>
			<path d="M0 126.24 L9 126.24 L20.52 126.24" class="st2"/>
		</g>
		<g id="shape37-151" v:mID="37" v:groupContext="shape" transform="translate(463.5,-45.12) scale(-1,1)">
			<title>Sheet.37</title>
			<path d="M0 126.24 L7.5 126.24 L16.02 126.24" class="st2"/>
		</g>
		<g id="shape38-156" v:mID="38" v:groupContext="shape" transform="translate(472.5,-27.12) scale(-1,1)">
			<title>Sheet.38</title>
			<path d="M0 126.24 L10.5 126.24 L25.02 126.24" class="st2"/>
		</g>
		<g id="shape39-161" v:mID="39" v:groupContext="shape" transform="translate(416.25,-58.62)">
			<title>Sheet.39</title>
			<desc>GTI</desc>
			<v:textBlock v:margins="rect(0,0,0,0)"/>
			<v:textRect cx="11.25" cy="121.74" width="22.5" height="9"/>
			<path d="M22.5 117.24 L0 117.24 L0 126.24 L22.5 126.24 L22.5 117.24" class="st5"/>
			<text x="5.83" y="124.74" class="st6" v:langID="1033"><v:paragraph v:horizAlign="2"/><v:tabList/>GTI</text>		</g>
		<g id="shape40-165" v:mID="40" v:groupContext="shape" transform="translate(416.25,-22.62)">
			<title>Sheet.40</title>
			<desc>LTI</desc>
			<v:textBlock v:margins="rect(0,0,0,0)"/>
			<v:textRect cx="11.25" cy="121.74" width="22.5" height="9"/>
			<path d="M22.5 117.24 L0 117.24 L0 126.24 L22.5 126.24 L22.5 117.24" class="st5"/>
			<text x="8.05" y="124.74" class="st6" v:langID="1033"><v:paragraph v:horizAlign="2"/><v:tabList/>LTI</text>		</g>
		<g id="shape41-169" v:mID="41" v:groupContext="shape" transform="translate(416.25,-40.62)">
			<title>Sheet.41</title>
			<desc>EQI</desc>
			<v:textBlock v:margins="rect(0,0,0,0)"/>
			<v:textRect cx="11.25" cy="121.74" width="22.5" height="9"/>
			<path d="M22.5 117.24 L0 117.24 L0 126.24 L22.5 126.24 L22.5 117.24" class="st5"/>
			<text x="5.27" y="124.74" class="st6" v:langID="1033"><v:paragraph v:horizAlign="2"/><v:tabList/>EQI</text>		</g>
		<g id="shape42-173" v:mID="42" v:groupContext="shape" transform="translate(380.25,-59.745)">
			<title>Sheet.42</title>
			<desc>A</desc>
			<v:textBlock v:margins="rect(0,0,0,0)"/>
			<v:textRect cx="9" cy="121.74" width="18" height="9"/>
			<path d="M18 117.24 L0 117.24 L0 126.24 L18 126.24 L18 117.24" class="st5"/>
			<text x="0" y="124.74" class="st6" v:langID="1033"><v:paragraph/><v:tabList/>A</text>		</g>
		<g id="shape43-177" v:mID="43" v:groupContext="shape" transform="translate(400.5,-59.745)">
			<title>Sheet.43</title>
			<desc>B</desc>
			<v:textBlock v:margins="rect(0,0,0,0)"/>
			<v:textRect cx="10.125" cy="121.74" width="20.25" height="9"/>
			<path d="M20.25 117.24 L0 117.24 L0 126.24 L20.25 126.24 L20.25 117.24" class="st5"/>
			<text x="0" y="124.74" class="st6" v:langID="1033"><v:paragraph/><v:tabList/>B</text>		</g>
		<g id="shape44-181" v:mID="44" v:groupContext="shape" transform="translate(54,-112.901)">
			<title>Sheet.44</title>
			<path d="M0 126.24 L333 126.24" class="st7"/>
		</g>
		<g id="shape45-184" v:mID="45" v:groupContext="shape" transform="translate(54,-94.62)">
			<title>Sheet.45</title>
			<path d="M0 126.24 L355.5 126.24" class="st7"/>
		</g>
		<g id="shape46-187" v:mID="46" v:groupContext="shape" transform="translate(108,-72.12) scale(-1,1)">
			<title>Sheet.46</title>
			<path d="M0 85.74 L0 119.76" class="st2"/>
		</g>
		<g id="shape47-192" v:mID="47" v:groupContext="shape" transform="translate(130.5,-72.12) scale(-1,1)">
			<title>Sheet.47</title>
			<path d="M0 103.74 L0 119.76" class="st2"/>
		</g>
		<g id="shape48-197" v:mID="48" v:groupContext="shape" transform="translate(274.5,-72.12) scale(-1,1)">
			<title>Sheet.48</title>
			<path d="M0 85.74 L0 119.76" class="st2"/>
		</g>
		<g id="shape49-202" v:mID="49" v:groupContext="shape" transform="translate(297,-72.12) scale(-1,1)">
			<title>Sheet.49</title>
			<path d="M0 103.74 L0 119.76" class="st2"/>
		</g>
		<g id="shape50-207" v:mID="50" v:groupContext="shape" transform="translate(382.5,-72.12) scale(-1,1)">
			<title>Sheet.50</title>
			<path d="M0 85.74 L0 119.76" class="st2"/>
		</g>
		<g id="shape51-212" v:mID="51" v:groupContext="shape" transform="translate(405,-72.12) scale(-1,1)">
			<title>Sheet.51</title>
			<path d="M0 103.74 L0 119.76" class="st2"/>
		</g>
		<g id="shape52-217" v:mID="52" v:groupContext="shape" transform="translate(293.235,104.854) rotate(-135)">
			<title>Sheet.52</title>
			<path d="M0 126.24 L3.18 126.24" class="st8"/>
		</g>
		<g id="shape53-220" v:mID="53" v:groupContext="shape" transform="translate(315.735,123.135) rotate(-135)">
			<title>Sheet.53</title>
			<path d="M0 126.24 L3.18 126.24" class="st8"/>
		</g>
		<g id="shape54-223" v:mID="54" v:groupContext="shape" transform="translate(185.235,104.854) rotate(-135)">
			<title>Sheet.54</title>
			<path d="M0 126.24 L3.18 126.24" class="st8"/>
		</g>
		<g id="shape55-226" v:mID="55" v:groupContext="shape" transform="translate(207.735,123.135) rotate(-135)">
			<title>Sheet.55</title>
			<path d="M0 126.24 L3.18 126.24" class="st8"/>
		</g>
		<g id="shape56-229" v:mID="56" v:groupContext="shape" transform="translate(18.7348,104.854) rotate(-135)">
			<title>Sheet.56</title>
			<path d="M0 126.24 L3.18 126.24" class="st8"/>
		</g>
		<g id="shape57-232" v:mID="57" v:groupContext="shape" transform="translate(41.2348,123.135) rotate(-135)">
			<title>Sheet.57</title>
			<path d="M0 126.24 L3.18 126.24" class="st8"/>
		</g>
		<g id="shape58-235" v:mID="58" v:groupContext="shape" transform="translate(195.75,-45.12)">
			<title>Circle.145</title>
			<v:userDefs>
				<v:ud v:nameU="visVersion" v:val="VT0(11):26"/>
			</v:userDefs>
			<path d="M0 125.4 a0.84375 0.84375 0 0 1 1.6875 0 a0.84375 0.84375 0 1 1 -1.6875 0 Z" class="st9"/>
		</g>
		<g id="shape59-237" v:mID="59" v:groupContext="shape" transform="translate(201.656,-45.12)">
			<title>Circle.148</title>
			<v:userDefs>
				<v:ud v:nameU="visVersion" v:val="VT0(11):26"/>
			</v:userDefs>
			<path d="M0 125.4 a0.84375 0.84375 0 0 1 1.6875 0 a0.84375 0.84375 0 1 1 -1.6875 0 Z" class="st9"/>
		</g>
		<g id="shape60-239" v:mID="60" v:groupContext="shape" transform="translate(207.563,-45.12)">
			<title>Circle.149</title>
			<v:userDefs>
				<v:ud v:nameU="visVersion" v:val="VT0(11):26"/>
			</v:userDefs>
			<path d="M0 125.4 a0.84375 0.84375 0 0 1 1.6875 0 a0.84375 0.84375 0 1 1 -1.6875 0 Z" class="st9"/>
		</g>
		<g id="shape61-241" v:mID="61" v:groupContext="shape" transform="translate(112.5,-103.62)">
			<title>Sheet.61</title>
			<desc>A(7)</desc>
			<v:textBlock v:margins="rect(0,0,0,0)"/>
			<v:textRect cx="9" cy="123.99" width="18" height="4.5"/>
			<path d="M18 121.74 L0 121.74 L0 126.24 L18 126.24 L18 121.74" class="st5"/>
			<text x="0" y="126.69" class="st10" v:langID="1033"><v:paragraph/><v:tabList/>A(7)</text>		</g>
		<g id="shape62-245" v:mID="62" v:groupContext="shape" transform="translate(135,-85.62)">
			<title>Sheet.62</title>
			<desc>B(7)</desc>
			<v:textBlock v:margins="rect(0,0,0,0)"/>
			<v:textRect cx="9" cy="123.99" width="18" height="4.5"/>
			<path d="M18 121.74 L0 121.74 L0 126.24 L18 126.24 L18 121.74" class="st5"/>
			<text x="0" y="126.69" class="st10" v:langID="1033"><v:paragraph/><v:tabList/>B(7)</text>		</g>
		<g id="shape63-249" v:mID="63" v:groupContext="shape" transform="translate(279,-103.62)">
			<title>Sheet.63</title>
			<desc>A(1)</desc>
			<v:textBlock v:margins="rect(0,0,0,0)"/>
			<v:textRect cx="9" cy="123.99" width="18" height="4.5"/>
			<path d="M18 121.74 L0 121.74 L0 126.24 L18 126.24 L18 121.74" class="st5"/>
			<text x="0" y="126.69" class="st10" v:langID="1033"><v:paragraph/><v:tabList/>A(1)</text>		</g>
		<g id="shape64-253" v:mID="64" v:groupContext="shape" transform="translate(301.5,-85.62)">
			<title>Sheet.64</title>
			<desc>B(1)</desc>
			<v:textBlock v:margins="rect(0,0,0,0)"/>
			<v:textRect cx="9" cy="123.99" width="18" height="4.5"/>
			<path d="M18 121.74 L0 121.74 L0 126.24 L18 126.24 L18 121.74" class="st5"/>
			<text x="0" y="126.69" class="st10" v:langID="1033"><v:paragraph/><v:tabList/>B(1)</text>		</g>
		<g id="shape65-257" v:mID="65" v:groupContext="shape" transform="translate(387,-103.62)">
			<title>Sheet.65</title>
			<desc>A(0)</desc>
			<v:textBlock v:margins="rect(0,0,0,0)"/>
			<v:textRect cx="9" cy="123.99" width="18" height="4.5"/>
			<path d="M18 121.74 L0 121.74 L0 126.24 L18 126.24 L18 121.74" class="st5"/>
			<text x="0" y="126.69" class="st10" v:langID="1033"><v:paragraph/><v:tabList/>A(0)</text>		</g>
		<g id="shape66-261" v:mID="66" v:groupContext="shape" transform="translate(409.5,-85.62)">
			<title>Sheet.66</title>
			<desc>B(0)</desc>
			<v:textBlock v:margins="rect(0,0,0,0)"/>
			<v:textRect cx="9" cy="123.99" width="18" height="4.5"/>
			<path d="M18 121.74 L0 121.74 L0 126.24 L18 126.24 L18 121.74" class="st5"/>
			<text x="0" y="126.69" class="st10" v:langID="1033"><v:paragraph/><v:tabList/>B(0)</text>		</g>
		<g id="shape67-265" v:mID="67" v:groupContext="shape" transform="translate(0,-108.12)">
			<title>Sheet.67</title>
			<desc>A[7..0]</desc>
			<v:textBlock v:margins="rect(0,0,0,0)"/>
			<v:textRect cx="22.5" cy="121.74" width="45" height="9"/>
			<path d="M45 117.24 L0 117.24 L0 126.24 L45 126.24 L45 117.24" class="st5"/>
			<text x="11.38" y="125.04" class="st11" v:langID="1033"><v:paragraph v:horizAlign="2"/><v:tabList/>A[7..0]</text>		</g>
		<g id="shape68-269" v:mID="68" v:groupContext="shape" transform="translate(0,-90.12)">
			<title>Sheet.68</title>
			<desc>B[7..0]</desc>
			<v:textBlock v:margins="rect(0,0,0,0)"/>
			<v:textRect cx="22.5" cy="121.74" width="45" height="9"/>
			<path d="M45 117.24 L0 117.24 L0 126.24 L45 126.24 L45 117.24" class="st5"/>
			<text x="11.38" y="125.04" class="st11" v:langID="1033"><v:paragraph v:horizAlign="2"/><v:tabList/>B[7..0]</text>		</g>
		<g id="shape69-273" v:mID="69" v:groupContext="shape" transform="translate(464.625,-18.12)">
			<title>Sheet.69</title>
			<path d="M0 81.24 L9 81.24 L9 126.24" class="st8"/>
		</g>
		<g id="shape70-276" v:mID="70" v:groupContext="shape" transform="translate(466.875,-11.37)">
			<title>Sheet.70</title>
			<path d="M0 119.49 L13.5 119.49 L6.75 126.24 L0 119.49 Z" class="st12"/>
		</g>
		<g id="shape71-278" v:mID="71" v:groupContext="shape" transform="translate(337.26,81.12) rotate(-90)">
			<title>Sheet.71</title>
			<path d="M0 126.24 L36 126.24" class="st8"/>
		</g>
		<g id="shape72-281" v:mID="72" v:groupContext="shape" transform="translate(456.75,-81.12)">
			<title>Sheet.72</title>
			<path d="M0 126.24 L13.5 126.24" class="st8"/>
		</g>
		<g id="shape73-284" v:mID="73" v:groupContext="shape" transform="translate(454.5,-85.62)">
			<title>Sheet.73</title>
			<desc>Vdd</desc>
			<v:textBlock v:margins="rect(0,0,0,0)"/>
			<v:textRect cx="9" cy="123.99" width="18" height="4.5"/>
			<path d="M18 121.74 L0 121.74 L0 126.24 L18 126.24 L18 121.74" class="st5"/>
			<text x="0" y="126.69" class="st10" v:langID="1033"><v:paragraph/><v:tabList/>Vdd</text>		</g>
		<g id="shape74-288" v:mID="74" v:groupContext="shape" transform="translate(472.5,-25.995)">
			<title>Circle</title>
			<v:userDefs>
				<v:ud v:nameU="visVersion" v:val="VT0(11):26"/>
			</v:userDefs>
			<path d="M0 125.12 A1.125 1.125 0 0 1 2.25 125.12 A1.125 1.125 0 1 1 0 125.12 Z" class="st9"/>
		</g>
		<g id="shape75-290" v:mID="75" v:groupContext="shape" transform="translate(22.5,-58.62)">
			<title>Sheet.75</title>
			<desc>GT</desc>
			<v:textBlock v:margins="rect(0,0,0,0)"/>
			<v:textRect cx="11.25" cy="121.74" width="22.5" height="9"/>
			<path d="M22.5 117.24 L0 117.24 L0 126.24 L22.5 126.24 L22.5 117.24" class="st5"/>
			<text x="7.22" y="125.04" class="st11" v:langID="1033"><v:paragraph v:horizAlign="2"/><v:tabList/>GT</text>		</g>
		<g id="shape76-294" v:mID="76" v:groupContext="shape" transform="translate(22.5,-22.62)">
			<title>Sheet.76</title>
			<desc>LT</desc>
			<v:textBlock v:margins="rect(0,0,0,0)"/>
			<v:textRect cx="11.25" cy="121.74" width="22.5" height="9"/>
			<path d="M22.5 117.24 L0 117.24 L0 126.24 L22.5 126.24 L22.5 117.24" class="st5"/>
			<text x="9.06" y="125.04" class="st11" v:langID="1033"><v:paragraph v:horizAlign="2"/><v:tabList/>LT</text>		</g>
		<g id="shape77-298" v:mID="77" v:groupContext="shape" transform="translate(22.5,-40.62)">
			<title>Sheet.77</title>
			<desc>EQ</desc>
			<v:textBlock v:margins="rect(0,0,0,0)"/>
			<v:textRect cx="11.25" cy="121.74" width="22.5" height="9"/>
			<path d="M22.5 117.24 L0 117.24 L0 126.24 L22.5 126.24 L22.5 117.24" class="st5"/>
			<text x="6.61" y="125.04" class="st11" v:langID="1033"><v:paragraph v:horizAlign="2"/><v:tabList/>EQ</text>		</g>
		<g id="shape78-302" v:mID="78" v:groupContext="shape" transform="translate(99,-4.62)">
			<title>Sheet.78</title>
			<desc>Bit Slice 7</desc>
			<v:textBlock v:margins="rect(0,0,0,0)"/>
			<v:textRect cx="22.5" cy="121.74" width="45" height="9"/>
			<path d="M45 117.24 L0 117.24 L0 126.24 L45 126.24 L45 117.24" class="st5"/>
			<text x="0" y="124.44" class="st10" v:langID="1033"><v:paragraph/><v:tabList/>Bit Slice 7</text>		</g>
		<g id="shape79-306" v:mID="79" v:groupContext="shape" transform="translate(270,-4.62)">
			<title>Sheet.79</title>
			<desc>Bit Slice 1</desc>
			<v:textBlock v:margins="rect(0,0,0,0)"/>
			<v:textRect cx="22.5" cy="121.74" width="45" height="9"/>
			<path d="M45 117.24 L0 117.24 L0 126.24 L45 126.24 L45 117.24" class="st5"/>
			<text x="0" y="124.44" class="st10" v:langID="1033"><v:paragraph/><v:tabList/>Bit Slice 1</text>		</g>
		<g id="shape80-310" v:mID="80" v:groupContext="shape" transform="translate(373.5,-4.62)">
			<title>Sheet.80</title>
			<desc>Bit Slice 0</desc>
			<v:textBlock v:margins="rect(0,0,0,0)"/>
			<v:textRect cx="22.5" cy="121.74" width="45" height="9"/>
			<path d="M45 117.24 L0 117.24 L0 126.24 L45 126.24 L45 117.24" class="st5"/>
			<text x="0" y="124.44" class="st10" v:langID="1033"><v:paragraph/><v:tabList/>Bit Slice 0</text>		</g>
	</g>
</svg>
