<?xml version="1.0" encoding="UTF-8" standalone="no"?>
<!DOCTYPE svg PUBLIC "-//W3C//DTD SVG 1.1//EN" "http://www.w3.org/Graphics/SVG/1.1/DTD/svg11.dtd">
<!-- Generated by Microsoft Visio, SVG Export MinMaxTerm.svg Page-1 -->
<svg xmlns="http://www.w3.org/2000/svg" xmlns:xlink="http://www.w3.org/1999/xlink" xmlns:ev="http://www.w3.org/2001/xml-events"
		xmlns:v="http://schemas.microsoft.com/visio/2003/SVGExtensions/" width="2.65062in" height="1.71334in"
		viewBox="0 0 190.845 123.36" xml:space="preserve" color-interpolation-filters="sRGB" class="st4">
	<v:documentProperties v:langID="1033" v:viewMarkup="false"/>

	<style type="text/css">
	<![CDATA[
		.st1 {fill:none;stroke:none;stroke-linecap:round;stroke-linejoin:round;stroke-width:0.72}
		.st2 {fill:#000000;font-family:Courier New;font-size:0.833336em}
		.st3 {stroke:#000000;stroke-linecap:round;stroke-linejoin:round;stroke-width:0.72}
		.st4 {fill:none;fill-rule:evenodd;font-size:12px;overflow:visible;stroke-linecap:square;stroke-miterlimit:3}
	]]>
	</style>

	<g v:mID="0" v:index="1" v:groupContext="foregroundPage">
		<title>Page-1</title>
		<v:pageProperties v:drawingScale="1" v:pageScale="1" v:drawingUnits="19" v:shadowOffsetX="9" v:shadowOffsetY="-9"/>
		<g id="shape1-1" v:mID="1" v:groupContext="shape" transform="translate(0.36,-96.0002)">
			<title>Sheet.1</title>
			<desc>0</desc>
			<v:textBlock v:margins="rect(4,4,4,4)"/>
			<v:textRect cx="6.75" cy="118.86" width="13.5" height="9"/>
			<rect x="0" y="114.36" width="13.5" height="9" class="st1"/>
			<text x="4" y="121.86" class="st2" v:langID="1033"><v:paragraph v:horizAlign="1"/><v:tabList/>0</text>		</g>
		<g id="shape2-4" v:mID="2" v:groupContext="shape" transform="translate(16.11,-96.0002)">
			<title>Sheet.2</title>
			<desc>0</desc>
			<v:textBlock v:margins="rect(4,4,4,4)"/>
			<v:textRect cx="6.75" cy="118.86" width="13.5" height="9"/>
			<rect x="0" y="114.36" width="13.5" height="9" class="st1"/>
			<text x="4" y="121.86" class="st2" v:langID="1033"><v:paragraph v:horizAlign="1"/><v:tabList/>0</text>		</g>
		<g id="shape3-7" v:mID="3" v:groupContext="shape" transform="translate(31.86,-96.0002)">
			<title>Sheet.3</title>
			<desc>0</desc>
			<v:textBlock v:margins="rect(4,4,4,4)"/>
			<v:textRect cx="6.75" cy="118.86" width="13.5" height="9"/>
			<rect x="0" y="114.36" width="13.5" height="9" class="st1"/>
			<text x="4" y="121.86" class="st2" v:langID="1033"><v:paragraph v:horizAlign="1"/><v:tabList/>0</text>		</g>
		<g id="shape4-10" v:mID="4" v:groupContext="shape" transform="translate(0.36,-82.5002)">
			<title>Sheet.4</title>
			<desc>0</desc>
			<v:textBlock v:margins="rect(4,4,4,4)"/>
			<v:textRect cx="6.75" cy="118.86" width="13.5" height="9"/>
			<rect x="0" y="114.36" width="13.5" height="9" class="st1"/>
			<text x="4" y="121.86" class="st2" v:langID="1033"><v:paragraph v:horizAlign="1"/><v:tabList/>0</text>		</g>
		<g id="shape5-13" v:mID="5" v:groupContext="shape" transform="translate(16.11,-82.5002)">
			<title>Sheet.5</title>
			<desc>0</desc>
			<v:textBlock v:margins="rect(4,4,4,4)"/>
			<v:textRect cx="6.75" cy="118.86" width="13.5" height="9"/>
			<rect x="0" y="114.36" width="13.5" height="9" class="st1"/>
			<text x="4" y="121.86" class="st2" v:langID="1033"><v:paragraph v:horizAlign="1"/><v:tabList/>0</text>		</g>
		<g id="shape6-16" v:mID="6" v:groupContext="shape" transform="translate(31.86,-82.5002)">
			<title>Sheet.6</title>
			<desc>1</desc>
			<v:textBlock v:margins="rect(4,4,4,4)"/>
			<v:textRect cx="6.75" cy="118.86" width="13.5" height="9"/>
			<rect x="0" y="114.36" width="13.5" height="9" class="st1"/>
			<text x="4" y="121.86" class="st2" v:langID="1033"><v:paragraph v:horizAlign="1"/><v:tabList/>1</text>		</g>
		<g id="shape7-19" v:mID="7" v:groupContext="shape" transform="translate(0.36,-69.0002)">
			<title>Sheet.7</title>
			<desc>0</desc>
			<v:textBlock v:margins="rect(4,4,4,4)"/>
			<v:textRect cx="6.75" cy="118.86" width="13.5" height="9"/>
			<rect x="0" y="114.36" width="13.5" height="9" class="st1"/>
			<text x="4" y="121.86" class="st2" v:langID="1033"><v:paragraph v:horizAlign="1"/><v:tabList/>0</text>		</g>
		<g id="shape8-22" v:mID="8" v:groupContext="shape" transform="translate(16.11,-69.0002)">
			<title>Sheet.8</title>
			<desc>1</desc>
			<v:textBlock v:margins="rect(4,4,4,4)"/>
			<v:textRect cx="6.75" cy="118.86" width="13.5" height="9"/>
			<rect x="0" y="114.36" width="13.5" height="9" class="st1"/>
			<text x="4" y="121.86" class="st2" v:langID="1033"><v:paragraph v:horizAlign="1"/><v:tabList/>1</text>		</g>
		<g id="shape9-25" v:mID="9" v:groupContext="shape" transform="translate(31.86,-69.0002)">
			<title>Sheet.9</title>
			<desc>0</desc>
			<v:textBlock v:margins="rect(4,4,4,4)"/>
			<v:textRect cx="6.75" cy="118.86" width="13.5" height="9"/>
			<rect x="0" y="114.36" width="13.5" height="9" class="st1"/>
			<text x="4" y="121.86" class="st2" v:langID="1033"><v:paragraph v:horizAlign="1"/><v:tabList/>0</text>		</g>
		<g id="shape10-28" v:mID="10" v:groupContext="shape" transform="translate(0.36,-55.5002)">
			<title>Sheet.10</title>
			<desc>0</desc>
			<v:textBlock v:margins="rect(4,4,4,4)"/>
			<v:textRect cx="6.75" cy="118.86" width="13.5" height="9"/>
			<rect x="0" y="114.36" width="13.5" height="9" class="st1"/>
			<text x="4" y="121.86" class="st2" v:langID="1033"><v:paragraph v:horizAlign="1"/><v:tabList/>0</text>		</g>
		<g id="shape11-31" v:mID="11" v:groupContext="shape" transform="translate(16.11,-55.5002)">
			<title>Sheet.11</title>
			<desc>1</desc>
			<v:textBlock v:margins="rect(4,4,4,4)"/>
			<v:textRect cx="6.75" cy="118.86" width="13.5" height="9"/>
			<rect x="0" y="114.36" width="13.5" height="9" class="st1"/>
			<text x="4" y="121.86" class="st2" v:langID="1033"><v:paragraph v:horizAlign="1"/><v:tabList/>1</text>		</g>
		<g id="shape12-34" v:mID="12" v:groupContext="shape" transform="translate(31.86,-55.5002)">
			<title>Sheet.12</title>
			<desc>1</desc>
			<v:textBlock v:margins="rect(4,4,4,4)"/>
			<v:textRect cx="6.75" cy="118.86" width="13.5" height="9"/>
			<rect x="0" y="114.36" width="13.5" height="9" class="st1"/>
			<text x="4" y="121.86" class="st2" v:langID="1033"><v:paragraph v:horizAlign="1"/><v:tabList/>1</text>		</g>
		<g id="shape13-37" v:mID="13" v:groupContext="shape" transform="translate(0.36,-42.0002)">
			<title>Sheet.13</title>
			<desc>1</desc>
			<v:textBlock v:margins="rect(4,4,4,4)"/>
			<v:textRect cx="6.75" cy="118.86" width="13.5" height="9"/>
			<rect x="0" y="114.36" width="13.5" height="9" class="st1"/>
			<text x="4" y="121.86" class="st2" v:langID="1033"><v:paragraph v:horizAlign="1"/><v:tabList/>1</text>		</g>
		<g id="shape14-40" v:mID="14" v:groupContext="shape" transform="translate(16.11,-42.0002)">
			<title>Sheet.14</title>
			<desc>0</desc>
			<v:textBlock v:margins="rect(4,4,4,4)"/>
			<v:textRect cx="6.75" cy="118.86" width="13.5" height="9"/>
			<rect x="0" y="114.36" width="13.5" height="9" class="st1"/>
			<text x="4" y="121.86" class="st2" v:langID="1033"><v:paragraph v:horizAlign="1"/><v:tabList/>0</text>		</g>
		<g id="shape15-43" v:mID="15" v:groupContext="shape" transform="translate(31.86,-42.0002)">
			<title>Sheet.15</title>
			<desc>0</desc>
			<v:textBlock v:margins="rect(4,4,4,4)"/>
			<v:textRect cx="6.75" cy="118.86" width="13.5" height="9"/>
			<rect x="0" y="114.36" width="13.5" height="9" class="st1"/>
			<text x="4" y="121.86" class="st2" v:langID="1033"><v:paragraph v:horizAlign="1"/><v:tabList/>0</text>		</g>
		<g id="shape16-46" v:mID="16" v:groupContext="shape" transform="translate(0.36,-28.5002)">
			<title>Sheet.16</title>
			<desc>1</desc>
			<v:textBlock v:margins="rect(4,4,4,4)"/>
			<v:textRect cx="6.75" cy="118.86" width="13.5" height="9"/>
			<rect x="0" y="114.36" width="13.5" height="9" class="st1"/>
			<text x="4" y="121.86" class="st2" v:langID="1033"><v:paragraph v:horizAlign="1"/><v:tabList/>1</text>		</g>
		<g id="shape17-49" v:mID="17" v:groupContext="shape" transform="translate(16.11,-28.5002)">
			<title>Sheet.17</title>
			<desc>0</desc>
			<v:textBlock v:margins="rect(4,4,4,4)"/>
			<v:textRect cx="6.75" cy="118.86" width="13.5" height="9"/>
			<rect x="0" y="114.36" width="13.5" height="9" class="st1"/>
			<text x="4" y="121.86" class="st2" v:langID="1033"><v:paragraph v:horizAlign="1"/><v:tabList/>0</text>		</g>
		<g id="shape18-52" v:mID="18" v:groupContext="shape" transform="translate(31.86,-28.5002)">
			<title>Sheet.18</title>
			<desc>1</desc>
			<v:textBlock v:margins="rect(4,4,4,4)"/>
			<v:textRect cx="6.75" cy="118.86" width="13.5" height="9"/>
			<rect x="0" y="114.36" width="13.5" height="9" class="st1"/>
			<text x="4" y="121.86" class="st2" v:langID="1033"><v:paragraph v:horizAlign="1"/><v:tabList/>1</text>		</g>
		<g id="shape19-55" v:mID="19" v:groupContext="shape" transform="translate(0.36,-15.0002)">
			<title>Sheet.19</title>
			<desc>1</desc>
			<v:textBlock v:margins="rect(4,4,4,4)"/>
			<v:textRect cx="6.75" cy="118.86" width="13.5" height="9"/>
			<rect x="0" y="114.36" width="13.5" height="9" class="st1"/>
			<text x="4" y="121.86" class="st2" v:langID="1033"><v:paragraph v:horizAlign="1"/><v:tabList/>1</text>		</g>
		<g id="shape20-58" v:mID="20" v:groupContext="shape" transform="translate(16.11,-15.0002)">
			<title>Sheet.20</title>
			<desc>1</desc>
			<v:textBlock v:margins="rect(4,4,4,4)"/>
			<v:textRect cx="6.75" cy="118.86" width="13.5" height="9"/>
			<rect x="0" y="114.36" width="13.5" height="9" class="st1"/>
			<text x="4" y="121.86" class="st2" v:langID="1033"><v:paragraph v:horizAlign="1"/><v:tabList/>1</text>		</g>
		<g id="shape21-61" v:mID="21" v:groupContext="shape" transform="translate(31.86,-15.0002)">
			<title>Sheet.21</title>
			<desc>0</desc>
			<v:textBlock v:margins="rect(4,4,4,4)"/>
			<v:textRect cx="6.75" cy="118.86" width="13.5" height="9"/>
			<rect x="0" y="114.36" width="13.5" height="9" class="st1"/>
			<text x="4" y="121.86" class="st2" v:langID="1033"><v:paragraph v:horizAlign="1"/><v:tabList/>0</text>		</g>
		<g id="shape22-64" v:mID="22" v:groupContext="shape" transform="translate(0.36,-1.50018)">
			<title>Sheet.22</title>
			<desc>1</desc>
			<v:textBlock v:margins="rect(4,4,4,4)"/>
			<v:textRect cx="6.75" cy="118.86" width="13.5" height="9"/>
			<rect x="0" y="114.36" width="13.5" height="9" class="st1"/>
			<text x="4" y="121.86" class="st2" v:langID="1033"><v:paragraph v:horizAlign="1"/><v:tabList/>1</text>		</g>
		<g id="shape23-67" v:mID="23" v:groupContext="shape" transform="translate(16.11,-1.50018)">
			<title>Sheet.23</title>
			<desc>1</desc>
			<v:textBlock v:margins="rect(4,4,4,4)"/>
			<v:textRect cx="6.75" cy="118.86" width="13.5" height="9"/>
			<rect x="0" y="114.36" width="13.5" height="9" class="st1"/>
			<text x="4" y="121.86" class="st2" v:langID="1033"><v:paragraph v:horizAlign="1"/><v:tabList/>1</text>		</g>
		<g id="shape24-70" v:mID="24" v:groupContext="shape" transform="translate(31.86,-1.50018)">
			<title>Sheet.24</title>
			<desc>1</desc>
			<v:textBlock v:margins="rect(4,4,4,4)"/>
			<v:textRect cx="6.75" cy="118.86" width="13.5" height="9"/>
			<rect x="0" y="114.36" width="13.5" height="9" class="st1"/>
			<text x="4" y="121.86" class="st2" v:langID="1033"><v:paragraph v:horizAlign="1"/><v:tabList/>1</text>		</g>
		<g id="shape25-73" v:mID="25" v:groupContext="shape" transform="translate(0.36,-111.75)">
			<title>Sheet.25</title>
			<desc>A</desc>
			<v:textBlock v:margins="rect(4,4,4,4)"/>
			<v:textRect cx="6.75" cy="118.86" width="13.5" height="9"/>
			<rect x="0" y="114.36" width="13.5" height="9" class="st1"/>
			<text x="4" y="121.86" class="st2" v:langID="1033"><v:paragraph v:horizAlign="1"/><v:tabList/>A</text>		</g>
		<g id="shape26-76" v:mID="26" v:groupContext="shape" transform="translate(16.11,-111.75)">
			<title>Sheet.26</title>
			<desc>B</desc>
			<v:textBlock v:margins="rect(4,4,4,4)"/>
			<v:textRect cx="6.75" cy="118.86" width="13.5" height="9"/>
			<rect x="0" y="114.36" width="13.5" height="9" class="st1"/>
			<text x="4" y="121.86" class="st2" v:langID="1033"><v:paragraph v:horizAlign="1"/><v:tabList/>B</text>		</g>
		<g id="shape27-79" v:mID="27" v:groupContext="shape" transform="translate(31.86,-111.75)">
			<title>Sheet.27</title>
			<desc>C</desc>
			<v:textBlock v:margins="rect(4,4,4,4)"/>
			<v:textRect cx="6.75" cy="118.86" width="13.5" height="9"/>
			<rect x="0" y="114.36" width="13.5" height="9" class="st1"/>
			<text x="4" y="121.86" class="st2" v:langID="1033"><v:paragraph v:horizAlign="1"/><v:tabList/>C</text>		</g>
		<g id="shape28-82" v:mID="28" v:groupContext="shape" transform="translate(49.86,-111.75)">
			<title>Sheet.28</title>
			<desc>#</desc>
			<v:textBlock v:margins="rect(4,4,4,4)"/>
			<v:textRect cx="6.75" cy="118.86" width="13.5" height="9"/>
			<rect x="0" y="114.36" width="13.5" height="9" class="st1"/>
			<text x="4" y="121.86" class="st2" v:langID="1033"><v:paragraph v:horizAlign="1"/><v:tabList/>#</text>		</g>
		<g id="shape29-85" v:mID="29" v:groupContext="shape" transform="translate(4.86,-109.5)">
			<title>Sheet.29</title>
			<path d="M0 123.36 L185.62 123.36" class="st3"/>
		</g>
		<g id="shape30-88" v:mID="30" v:groupContext="shape" transform="translate(170.97,0.36) rotate(90)">
			<title>Sheet.30</title>
			<path d="M0 123.36 L121.5 123.36" class="st3"/>
		</g>
		<g id="shape31-91" v:mID="31" v:groupContext="shape" transform="translate(49.86,-96.0002)">
			<title>Sheet.31</title>
			<desc>0</desc>
			<v:textBlock v:margins="rect(4,4,4,4)"/>
			<v:textRect cx="6.75" cy="118.86" width="13.5" height="9"/>
			<rect x="0" y="114.36" width="13.5" height="9" class="st1"/>
			<text x="4" y="121.86" class="st2" v:langID="1033"><v:paragraph v:horizAlign="1"/><v:tabList/>0</text>		</g>
		<g id="shape32-94" v:mID="32" v:groupContext="shape" transform="translate(49.86,-82.5002)">
			<title>Sheet.32</title>
			<desc>1</desc>
			<v:textBlock v:margins="rect(4,4,4,4)"/>
			<v:textRect cx="6.75" cy="118.86" width="13.5" height="9"/>
			<rect x="0" y="114.36" width="13.5" height="9" class="st1"/>
			<text x="4" y="121.86" class="st2" v:langID="1033"><v:paragraph v:horizAlign="1"/><v:tabList/>1</text>		</g>
		<g id="shape33-97" v:mID="33" v:groupContext="shape" transform="translate(49.86,-69.0002)">
			<title>Sheet.33</title>
			<desc>2</desc>
			<v:textBlock v:margins="rect(4,4,4,4)"/>
			<v:textRect cx="6.75" cy="118.86" width="13.5" height="9"/>
			<rect x="0" y="114.36" width="13.5" height="9" class="st1"/>
			<text x="4" y="121.86" class="st2" v:langID="1033"><v:paragraph v:horizAlign="1"/><v:tabList/>2</text>		</g>
		<g id="shape34-100" v:mID="34" v:groupContext="shape" transform="translate(49.86,-55.5002)">
			<title>Sheet.34</title>
			<desc>3</desc>
			<v:textBlock v:margins="rect(4,4,4,4)"/>
			<v:textRect cx="6.75" cy="118.86" width="13.5" height="9"/>
			<rect x="0" y="114.36" width="13.5" height="9" class="st1"/>
			<text x="4" y="121.86" class="st2" v:langID="1033"><v:paragraph v:horizAlign="1"/><v:tabList/>3</text>		</g>
		<g id="shape35-103" v:mID="35" v:groupContext="shape" transform="translate(49.86,-42.0002)">
			<title>Sheet.35</title>
			<desc>4</desc>
			<v:textBlock v:margins="rect(4,4,4,4)"/>
			<v:textRect cx="6.75" cy="118.86" width="13.5" height="9"/>
			<rect x="0" y="114.36" width="13.5" height="9" class="st1"/>
			<text x="4" y="121.86" class="st2" v:langID="1033"><v:paragraph v:horizAlign="1"/><v:tabList/>4</text>		</g>
		<g id="shape36-106" v:mID="36" v:groupContext="shape" transform="translate(49.86,-28.5002)">
			<title>Sheet.36</title>
			<desc>5</desc>
			<v:textBlock v:margins="rect(4,4,4,4)"/>
			<v:textRect cx="6.75" cy="118.86" width="13.5" height="9"/>
			<rect x="0" y="114.36" width="13.5" height="9" class="st1"/>
			<text x="4" y="121.86" class="st2" v:langID="1033"><v:paragraph v:horizAlign="1"/><v:tabList/>5</text>		</g>
		<g id="shape37-109" v:mID="37" v:groupContext="shape" transform="translate(49.86,-15.0002)">
			<title>Sheet.37</title>
			<desc>6</desc>
			<v:textBlock v:margins="rect(4,4,4,4)"/>
			<v:textRect cx="6.75" cy="118.86" width="13.5" height="9"/>
			<rect x="0" y="114.36" width="13.5" height="9" class="st1"/>
			<text x="4" y="121.86" class="st2" v:langID="1033"><v:paragraph v:horizAlign="1"/><v:tabList/>6</text>		</g>
		<g id="shape38-112" v:mID="38" v:groupContext="shape" transform="translate(49.86,-1.50018)">
			<title>Sheet.38</title>
			<desc>7</desc>
			<v:textBlock v:margins="rect(4,4,4,4)"/>
			<v:textRect cx="6.75" cy="118.86" width="13.5" height="9"/>
			<rect x="0" y="114.36" width="13.5" height="9" class="st1"/>
			<text x="4" y="121.86" class="st2" v:langID="1033"><v:paragraph v:horizAlign="1"/><v:tabList/>7</text>		</g>
		<g id="shape39-115" v:mID="39" v:groupContext="shape" transform="translate(188.97,0.36) rotate(90)">
			<title>Sheet.39</title>
			<path d="M0 123.36 L121.5 123.36" class="st3"/>
		</g>
		<g id="shape40-118" v:mID="40" v:groupContext="shape" transform="translate(67.86,-96.0002)">
			<title>Sheet.40</title>
			<desc>A∙B∙C</desc>
			<v:textBlock v:margins="rect(4,4,4,4)"/>
			<v:textRect cx="25.3125" cy="118.86" width="50.63" height="9"/>
			<rect x="0" y="114.36" width="50.625" height="9" class="st1"/>
			<text x="10.31" y="121.86" class="st2" v:langID="1033"><v:paragraph v:horizAlign="1"/><v:tabList/>A∙B∙C</text>		</g>
		<g id="shape41-121" v:mID="41" v:groupContext="shape" transform="translate(67.86,-82.5002)">
			<title>Sheet.41</title>
			<desc>A∙B∙C</desc>
			<v:textBlock v:margins="rect(4,4,4,4)"/>
			<v:textRect cx="25.3125" cy="118.86" width="50.63" height="9"/>
			<rect x="0" y="114.36" width="50.625" height="9" class="st1"/>
			<text x="10.31" y="121.86" class="st2" v:langID="1033"><v:paragraph v:horizAlign="1"/><v:tabList/>A∙B∙C</text>		</g>
		<g id="shape42-124" v:mID="42" v:groupContext="shape" transform="translate(67.86,-69.0002)">
			<title>Sheet.42</title>
			<desc>A∙B∙C</desc>
			<v:textBlock v:margins="rect(4,4,4,4)"/>
			<v:textRect cx="25.3125" cy="118.86" width="50.63" height="9"/>
			<rect x="0" y="114.36" width="50.625" height="9" class="st1"/>
			<text x="10.31" y="121.86" class="st2" v:langID="1033"><v:paragraph v:horizAlign="1"/><v:tabList/>A∙B∙C</text>		</g>
		<g id="shape43-127" v:mID="43" v:groupContext="shape" transform="translate(67.86,-55.5002)">
			<title>Sheet.43</title>
			<desc>A∙B∙C</desc>
			<v:textBlock v:margins="rect(4,4,4,4)"/>
			<v:textRect cx="25.3125" cy="118.86" width="50.63" height="9"/>
			<rect x="0" y="114.36" width="50.625" height="9" class="st1"/>
			<text x="10.31" y="121.86" class="st2" v:langID="1033"><v:paragraph v:horizAlign="1"/><v:tabList/>A∙B∙C</text>		</g>
		<g id="shape44-130" v:mID="44" v:groupContext="shape" transform="translate(67.86,-42.0002)">
			<title>Sheet.44</title>
			<desc>A∙B∙C</desc>
			<v:textBlock v:margins="rect(4,4,4,4)"/>
			<v:textRect cx="25.3125" cy="118.86" width="50.63" height="9"/>
			<rect x="0" y="114.36" width="50.625" height="9" class="st1"/>
			<text x="10.31" y="121.86" class="st2" v:langID="1033"><v:paragraph v:horizAlign="1"/><v:tabList/>A∙B∙C</text>		</g>
		<g id="shape45-133" v:mID="45" v:groupContext="shape" transform="translate(67.86,-28.5002)">
			<title>Sheet.45</title>
			<desc>A∙B∙C</desc>
			<v:textBlock v:margins="rect(4,4,4,4)"/>
			<v:textRect cx="25.3125" cy="118.86" width="50.63" height="9"/>
			<rect x="0" y="114.36" width="50.625" height="9" class="st1"/>
			<text x="10.31" y="121.86" class="st2" v:langID="1033"><v:paragraph v:horizAlign="1"/><v:tabList/>A∙B∙C</text>		</g>
		<g id="shape46-136" v:mID="46" v:groupContext="shape" transform="translate(67.86,-15.0002)">
			<title>Sheet.46</title>
			<desc>A∙B∙C</desc>
			<v:textBlock v:margins="rect(4,4,4,4)"/>
			<v:textRect cx="25.3125" cy="118.86" width="50.63" height="9"/>
			<rect x="0" y="114.36" width="50.625" height="9" class="st1"/>
			<text x="10.31" y="121.86" class="st2" v:langID="1033"><v:paragraph v:horizAlign="1"/><v:tabList/>A∙B∙C</text>		</g>
		<g id="shape47-139" v:mID="47" v:groupContext="shape" transform="translate(67.86,-1.50018)">
			<title>Sheet.47</title>
			<desc>A∙B∙C</desc>
			<v:textBlock v:margins="rect(4,4,4,4)"/>
			<v:textRect cx="25.3125" cy="118.86" width="50.63" height="9"/>
			<rect x="0" y="114.36" width="50.625" height="9" class="st1"/>
			<text x="10.31" y="121.86" class="st2" v:langID="1033"><v:paragraph v:horizAlign="1"/><v:tabList/>A∙B∙C</text>		</g>
		<g id="shape48-142" v:mID="48" v:groupContext="shape" transform="translate(67.86,-111.75)">
			<title>Sheet.48</title>
			<desc>Minterm</desc>
			<v:textBlock v:margins="rect(4,4,4,4)"/>
			<v:textRect cx="25.3125" cy="118.86" width="50.63" height="9"/>
			<rect x="0" y="114.36" width="50.625" height="9" class="st1"/>
			<text x="4.31" y="121.86" class="st2" v:langID="1033"><v:paragraph v:horizAlign="1"/><v:tabList/>Minterm</text>		</g>
		<g id="shape49-145" v:mID="49" v:groupContext="shape" transform="translate(244.095,0.36) rotate(90)">
			<title>Sheet.49</title>
			<path d="M0 123.36 L121.5 123.36" class="st3"/>
		</g>
		<g id="shape50-148" v:mID="50" v:groupContext="shape" transform="translate(119.751,-96.0002)">
			<title>Sheet.50</title>
			<desc>A+B+C</desc>
			<v:textBlock v:margins="rect(4,4,4,4)"/>
			<v:textRect cx="27.2109" cy="118.86" width="54.43" height="9"/>
			<rect x="0" y="114.36" width="54.4219" height="9" class="st1"/>
			<text x="12.21" y="121.86" class="st2" v:langID="1033"><v:paragraph v:horizAlign="1"/><v:tabList/>A+B+C</text>		</g>
		<g id="shape51-151" v:mID="51" v:groupContext="shape" transform="translate(119.751,-82.5002)">
			<title>Sheet.51</title>
			<desc>A+B+C</desc>
			<v:textBlock v:margins="rect(4,4,4,4)"/>
			<v:textRect cx="27.2109" cy="118.86" width="54.43" height="9"/>
			<rect x="0" y="114.36" width="54.4219" height="9" class="st1"/>
			<text x="12.21" y="121.86" class="st2" v:langID="1033"><v:paragraph v:horizAlign="1"/><v:tabList/>A+B+C</text>		</g>
		<g id="shape52-154" v:mID="52" v:groupContext="shape" transform="translate(119.751,-69.0002)">
			<title>Sheet.52</title>
			<desc>A+B+C</desc>
			<v:textBlock v:margins="rect(4,4,4,4)"/>
			<v:textRect cx="27.2109" cy="118.86" width="54.43" height="9"/>
			<rect x="0" y="114.36" width="54.4219" height="9" class="st1"/>
			<text x="12.21" y="121.86" class="st2" v:langID="1033"><v:paragraph v:horizAlign="1"/><v:tabList/>A+B+C</text>		</g>
		<g id="shape53-157" v:mID="53" v:groupContext="shape" transform="translate(119.751,-55.5002)">
			<title>Sheet.53</title>
			<desc>A+B+C</desc>
			<v:textBlock v:margins="rect(4,4,4,4)"/>
			<v:textRect cx="27.2109" cy="118.86" width="54.43" height="9"/>
			<rect x="0" y="114.36" width="54.4219" height="9" class="st1"/>
			<text x="12.21" y="121.86" class="st2" v:langID="1033"><v:paragraph v:horizAlign="1"/><v:tabList/>A+B+C</text>		</g>
		<g id="shape54-160" v:mID="54" v:groupContext="shape" transform="translate(119.751,-42.0002)">
			<title>Sheet.54</title>
			<desc>A+B+C</desc>
			<v:textBlock v:margins="rect(4,4,4,4)"/>
			<v:textRect cx="27.2109" cy="118.86" width="54.43" height="9"/>
			<rect x="0" y="114.36" width="54.4219" height="9" class="st1"/>
			<text x="12.21" y="121.86" class="st2" v:langID="1033"><v:paragraph v:horizAlign="1"/><v:tabList/>A+B+C</text>		</g>
		<g id="shape55-163" v:mID="55" v:groupContext="shape" transform="translate(119.751,-28.5002)">
			<title>Sheet.55</title>
			<desc>A+B+C</desc>
			<v:textBlock v:margins="rect(4,4,4,4)"/>
			<v:textRect cx="27.2109" cy="118.86" width="54.43" height="9"/>
			<rect x="0" y="114.36" width="54.4219" height="9" class="st1"/>
			<text x="12.21" y="121.86" class="st2" v:langID="1033"><v:paragraph v:horizAlign="1"/><v:tabList/>A+B+C</text>		</g>
		<g id="shape56-166" v:mID="56" v:groupContext="shape" transform="translate(119.751,-15.0002)">
			<title>Sheet.56</title>
			<desc>A+B+C</desc>
			<v:textBlock v:margins="rect(4,4,4,4)"/>
			<v:textRect cx="27.2109" cy="118.86" width="54.43" height="9"/>
			<rect x="0" y="114.36" width="54.4219" height="9" class="st1"/>
			<text x="12.21" y="121.86" class="st2" v:langID="1033"><v:paragraph v:horizAlign="1"/><v:tabList/>A+B+C</text>		</g>
		<g id="shape57-169" v:mID="57" v:groupContext="shape" transform="translate(119.751,-1.50018)">
			<title>Sheet.57</title>
			<desc>A+B+C</desc>
			<v:textBlock v:margins="rect(4,4,4,4)"/>
			<v:textRect cx="27.2109" cy="118.86" width="54.43" height="9"/>
			<rect x="0" y="114.36" width="54.4219" height="9" class="st1"/>
			<text x="12.21" y="121.86" class="st2" v:langID="1033"><v:paragraph v:horizAlign="1"/><v:tabList/>A+B+C</text>		</g>
		<g id="shape58-172" v:mID="58" v:groupContext="shape" transform="translate(119.751,-111.75)">
			<title>Sheet.58</title>
			<desc>Maxterm</desc>
			<v:textBlock v:margins="rect(4,4,4,4)"/>
			<v:textRect cx="27.2109" cy="118.86" width="54.43" height="9"/>
			<rect x="0" y="114.36" width="54.4219" height="9" class="st1"/>
			<text x="6.21" y="121.86" class="st2" v:langID="1033"><v:paragraph v:horizAlign="1"/><v:tabList/>Maxterm</text>		</g>
		<g id="shape59-175" v:mID="59" v:groupContext="shape" transform="translate(174.172,-111.75)">
			<title>Sheet.59</title>
			<desc>F</desc>
			<v:textBlock v:margins="rect(4,4,4,4)"/>
			<v:textRect cx="7.59375" cy="118.86" width="15.19" height="9"/>
			<rect x="0" y="114.36" width="15.1875" height="9" class="st1"/>
			<text x="4.59" y="121.86" class="st2" v:langID="1033"><v:paragraph v:horizAlign="1"/><v:tabList/>F</text>		</g>
		<g id="shape60-178" v:mID="60" v:groupContext="shape" transform="translate(174.172,-96.0002)">
			<title>Sheet.60</title>
			<desc>0</desc>
			<v:textBlock v:margins="rect(4,4,4,4)"/>
			<v:textRect cx="7.59375" cy="118.86" width="15.19" height="9"/>
			<rect x="0" y="114.36" width="15.1875" height="9" class="st1"/>
			<text x="4.59" y="121.86" class="st2" v:langID="1033"><v:paragraph v:horizAlign="1"/><v:tabList/>0</text>		</g>
		<g id="shape61-181" v:mID="61" v:groupContext="shape" transform="translate(174.172,-82.5002)">
			<title>Sheet.61</title>
			<desc>1</desc>
			<v:textBlock v:margins="rect(4,4,4,4)"/>
			<v:textRect cx="7.59375" cy="118.86" width="15.19" height="9"/>
			<rect x="0" y="114.36" width="15.1875" height="9" class="st1"/>
			<text x="4.59" y="121.86" class="st2" v:langID="1033"><v:paragraph v:horizAlign="1"/><v:tabList/>1</text>		</g>
		<g id="shape62-184" v:mID="62" v:groupContext="shape" transform="translate(174.172,-69.0002)">
			<title>Sheet.62</title>
			<desc>0</desc>
			<v:textBlock v:margins="rect(4,4,4,4)"/>
			<v:textRect cx="7.59375" cy="118.86" width="15.19" height="9"/>
			<rect x="0" y="114.36" width="15.1875" height="9" class="st1"/>
			<text x="4.59" y="121.86" class="st2" v:langID="1033"><v:paragraph v:horizAlign="1"/><v:tabList/>0</text>		</g>
		<g id="shape63-187" v:mID="63" v:groupContext="shape" transform="translate(174.172,-55.5002)">
			<title>Sheet.63</title>
			<desc>1</desc>
			<v:textBlock v:margins="rect(4,4,4,4)"/>
			<v:textRect cx="7.59375" cy="118.86" width="15.19" height="9"/>
			<rect x="0" y="114.36" width="15.1875" height="9" class="st1"/>
			<text x="4.59" y="121.86" class="st2" v:langID="1033"><v:paragraph v:horizAlign="1"/><v:tabList/>1</text>		</g>
		<g id="shape64-190" v:mID="64" v:groupContext="shape" transform="translate(174.172,-42.0002)">
			<title>Sheet.64</title>
			<desc>0</desc>
			<v:textBlock v:margins="rect(4,4,4,4)"/>
			<v:textRect cx="7.59375" cy="118.86" width="15.19" height="9"/>
			<rect x="0" y="114.36" width="15.1875" height="9" class="st1"/>
			<text x="4.59" y="121.86" class="st2" v:langID="1033"><v:paragraph v:horizAlign="1"/><v:tabList/>0</text>		</g>
		<g id="shape65-193" v:mID="65" v:groupContext="shape" transform="translate(174.172,-28.5002)">
			<title>Sheet.65</title>
			<desc>1</desc>
			<v:textBlock v:margins="rect(4,4,4,4)"/>
			<v:textRect cx="7.59375" cy="118.86" width="15.19" height="9"/>
			<rect x="0" y="114.36" width="15.1875" height="9" class="st1"/>
			<text x="4.59" y="121.86" class="st2" v:langID="1033"><v:paragraph v:horizAlign="1"/><v:tabList/>1</text>		</g>
		<g id="shape66-196" v:mID="66" v:groupContext="shape" transform="translate(174.172,-15.0002)">
			<title>Sheet.66</title>
			<desc>0</desc>
			<v:textBlock v:margins="rect(4,4,4,4)"/>
			<v:textRect cx="7.59375" cy="118.86" width="15.19" height="9"/>
			<rect x="0" y="114.36" width="15.1875" height="9" class="st1"/>
			<text x="4.59" y="121.86" class="st2" v:langID="1033"><v:paragraph v:horizAlign="1"/><v:tabList/>0</text>		</g>
		<g id="shape67-199" v:mID="67" v:groupContext="shape" transform="translate(174.172,-1.50018)">
			<title>Sheet.67</title>
			<desc>0</desc>
			<v:textBlock v:margins="rect(4,4,4,4)"/>
			<v:textRect cx="7.59375" cy="118.86" width="15.19" height="9"/>
			<rect x="0" y="114.36" width="15.1875" height="9" class="st1"/>
			<text x="4.59" y="121.86" class="st2" v:langID="1033"><v:paragraph v:horizAlign="1"/><v:tabList/>0</text>		</g>
		<g id="shape68-202" v:mID="68" v:groupContext="shape" transform="translate(295.001,0.36) rotate(90)">
			<title>Sheet.68</title>
			<path d="M0 123.36 L121.5 123.36" class="st3"/>
		</g>
		<g id="shape69-205" v:mID="69" v:groupContext="shape" transform="translate(77.985,-105)">
			<title>Sheet.69</title>
			<path d="M0 123.36 L5.62 123.36" class="st3"/>
		</g>
		<g id="shape70-208" v:mID="70" v:groupContext="shape" transform="translate(77.985,-91.5002)">
			<title>Sheet.70</title>
			<path d="M0 123.36 L5.62 123.36" class="st3"/>
		</g>
		<g id="shape71-211" v:mID="71" v:groupContext="shape" transform="translate(77.985,-78.0002)">
			<title>Sheet.71</title>
			<path d="M0 123.36 L5.62 123.36" class="st3"/>
		</g>
		<g id="shape72-214" v:mID="72" v:groupContext="shape" transform="translate(77.985,-64.5002)">
			<title>Sheet.72</title>
			<path d="M0 123.36 L5.62 123.36" class="st3"/>
		</g>
		<g id="shape73-217" v:mID="73" v:groupContext="shape" transform="translate(90.36,-105)">
			<title>Sheet.73</title>
			<path d="M0 123.36 L5.62 123.36" class="st3"/>
		</g>
		<g id="shape74-220" v:mID="74" v:groupContext="shape" transform="translate(90.36,-91.5002)">
			<title>Sheet.74</title>
			<path d="M0 123.36 L5.62 123.36" class="st3"/>
		</g>
		<g id="shape75-223" v:mID="75" v:groupContext="shape" transform="translate(90.36,-51.0002)">
			<title>Sheet.75</title>
			<path d="M0 123.36 L5.62 123.36" class="st3"/>
		</g>
		<g id="shape76-226" v:mID="76" v:groupContext="shape" transform="translate(90.36,-37.5002)">
			<title>Sheet.76</title>
			<path d="M0 123.36 L5.62 123.36" class="st3"/>
		</g>
		<g id="shape77-229" v:mID="77" v:groupContext="shape" transform="translate(102.735,-105)">
			<title>Sheet.77</title>
			<path d="M0 123.36 L5.06 123.36" class="st3"/>
		</g>
		<g id="shape78-232" v:mID="78" v:groupContext="shape" transform="translate(102.735,-78.0002)">
			<title>Sheet.78</title>
			<path d="M0 123.36 L5.06 123.36" class="st3"/>
		</g>
		<g id="shape79-235" v:mID="79" v:groupContext="shape" transform="translate(102.735,-51.0002)">
			<title>Sheet.79</title>
			<path d="M0 123.36 L5.06 123.36" class="st3"/>
		</g>
		<g id="shape80-238" v:mID="80" v:groupContext="shape" transform="translate(102.735,-24.0002)">
			<title>Sheet.80</title>
			<path d="M0 123.36 L5.06 123.36" class="st3"/>
		</g>
		<g id="shape81-241" v:mID="81" v:groupContext="shape" transform="translate(144.079,-78.0002)">
			<title>Sheet.81</title>
			<path d="M0 123.36 L5.62 123.36" class="st3"/>
		</g>
		<g id="shape82-244" v:mID="82" v:groupContext="shape" transform="translate(144.079,-64.5002)">
			<title>Sheet.82</title>
			<path d="M0 123.36 L5.62 123.36" class="st3"/>
		</g>
		<g id="shape83-247" v:mID="83" v:groupContext="shape" transform="translate(144.079,-24.0002)">
			<title>Sheet.83</title>
			<path d="M0 123.36 L5.62 123.36" class="st3"/>
		</g>
		<g id="shape84-250" v:mID="84" v:groupContext="shape" transform="translate(131.985,-51.0002)">
			<title>Sheet.84</title>
			<path d="M0 123.36 L5.62 123.36" class="st3"/>
		</g>
		<g id="shape85-253" v:mID="85" v:groupContext="shape" transform="translate(131.985,-37.5002)">
			<title>Sheet.85</title>
			<path d="M0 123.36 L5.62 123.36" class="st3"/>
		</g>
		<g id="shape86-256" v:mID="86" v:groupContext="shape" transform="translate(131.985,-24.0002)">
			<title>Sheet.86</title>
			<path d="M0 123.36 L5.62 123.36" class="st3"/>
		</g>
		<g id="shape87-259" v:mID="87" v:groupContext="shape" transform="translate(131.985,-10.5002)">
			<title>Sheet.87</title>
			<path d="M0 123.36 L5.62 123.36" class="st3"/>
		</g>
		<g id="shape88-262" v:mID="88" v:groupContext="shape" transform="translate(156.735,-91.5002)">
			<title>Sheet.88</title>
			<path d="M0 123.36 L5.06 123.36" class="st3"/>
		</g>
		<g id="shape89-265" v:mID="89" v:groupContext="shape" transform="translate(156.735,-64.5002)">
			<title>Sheet.89</title>
			<path d="M0 123.36 L5.06 123.36" class="st3"/>
		</g>
		<g id="shape90-268" v:mID="90" v:groupContext="shape" transform="translate(156.735,-37.5002)">
			<title>Sheet.90</title>
			<path d="M0 123.36 L5.06 123.36" class="st3"/>
		</g>
		<g id="shape91-271" v:mID="91" v:groupContext="shape" transform="translate(156.735,-10.5002)">
			<title>Sheet.91</title>
			<path d="M0 123.36 L5.06 123.36" class="st3"/>
		</g>
	</g>
</svg>
