<?xml version="1.0" encoding="UTF-8" standalone="no"?>
<!DOCTYPE svg PUBLIC "-//W3C//DTD SVG 1.1//EN" "http://www.w3.org/Graphics/SVG/1.1/DTD/svg11.dtd">
<!-- Generated by Microsoft Visio, SVG Export SerialAdder_SM5.svg Page-1 -->
<svg xmlns="http://www.w3.org/2000/svg" xmlns:xlink="http://www.w3.org/1999/xlink" xmlns:ev="http://www.w3.org/2001/xml-events"
		xmlns:v="http://schemas.microsoft.com/visio/2003/SVGExtensions/" width="4.21875in" height="2.40366in"
		viewBox="0 0 303.75 173.063" xml:space="preserve" color-interpolation-filters="sRGB" class="st18">
	<v:documentProperties v:langID="1033" v:viewMarkup="false"/>

	<style type="text/css">
	<![CDATA[
		.st1 {fill:#abe0ae;stroke:#000000;stroke-linecap:round;stroke-linejoin:round;stroke-width:0.24}
		.st2 {fill:#000000;font-family:Arial;font-size:0.833336em}
		.st3 {marker-start:url(#mrkr4-9);stroke:#4d4d4d;stroke-linecap:round;stroke-linejoin:round;stroke-width:1.2}
		.st4 {fill:#4d4d4d;fill-opacity:1;stroke:#4d4d4d;stroke-opacity:1;stroke-width:0.4}
		.st5 {font-size:1em}
		.st6 {marker-end:url(#mrkr5-23);stroke:#000000;stroke-linecap:round;stroke-linejoin:round;stroke-width:0.75}
		.st7 {fill:#000000;fill-opacity:1;stroke:#000000;stroke-opacity:1;stroke-width:0.22935779816514}
		.st8 {fill:none;stroke:none;stroke-linecap:round;stroke-linejoin:round;stroke-width:0.75}
		.st9 {fill:#000000;font-family:Arial Unicode MS;font-size:0.833336em}
		.st10 {fill:none;stroke:none;stroke-linecap:round;stroke-linejoin:round;stroke-width:0.72}
		.st11 {marker-start:url(#mrkr5-59);stroke:#c05046;stroke-linecap:round;stroke-linejoin:round;stroke-width:0.75}
		.st12 {fill:#c05046;fill-opacity:1;stroke:#c05046;stroke-opacity:1;stroke-width:0.22935779816514}
		.st13 {marker-end:url(#mrkr5-70);stroke:#c05046;stroke-linecap:round;stroke-linejoin:round;stroke-width:0.75}
		.st14 {fill:#c05046;font-family:Arial;font-size:0.833336em}
		.st15 {fill:#c05046;font-family:Arial Unicode MS;font-size:0.833336em}
		.st16 {stroke:#c05046;stroke-linecap:round;stroke-linejoin:round;stroke-width:0.75}
		.st17 {stroke:#000000;stroke-linecap:round;stroke-linejoin:round;stroke-width:0.75}
		.st18 {fill:none;fill-rule:evenodd;font-size:12px;overflow:visible;stroke-linecap:square;stroke-miterlimit:3}
	]]>
	</style>

	<defs id="Markers">
		<g id="lend4">
			<path d="M 2 1 L 0 0 L 2 -1 L 2 1 " style="stroke:none"/>
		</g>
		<marker id="mrkr4-9" class="st4" v:arrowType="4" v:arrowSize="1" v:setback="4.7" refX="4.7" orient="auto"
				markerUnits="strokeWidth" overflow="visible">
			<use xlink:href="#lend4" transform="scale(2.5) "/>
		</marker>
		<g id="lend5">
			<path d="M 2 1 L 0 0 L 1.98117 -0.993387 C 1.67173 -0.364515 1.67301 0.372641 1.98465 1.00043 " style="stroke:none"/>
		</g>
		<marker id="mrkr5-23" class="st7" v:arrowType="5" v:arrowSize="2" v:setback="7.15" refX="-7.15" orient="auto"
				markerUnits="strokeWidth" overflow="visible">
			<use xlink:href="#lend5" transform="scale(-4.36,-4.36) "/>
		</marker>
		<marker id="mrkr5-59" class="st12" v:arrowType="5" v:arrowSize="2" v:setback="7.15" refX="7.15" orient="auto"
				markerUnits="strokeWidth" overflow="visible">
			<use xlink:href="#lend5" transform="scale(4.36) "/>
		</marker>
		<marker id="mrkr5-70" class="st12" v:arrowType="5" v:arrowSize="2" v:setback="7.15" refX="-7.15" orient="auto"
				markerUnits="strokeWidth" overflow="visible">
			<use xlink:href="#lend5" transform="scale(-4.36,-4.36) "/>
		</marker>
	</defs>
	<g v:mID="0" v:index="1" v:groupContext="foregroundPage">
		<title>Page-1</title>
		<v:pageProperties v:drawingScale="1" v:pageScale="1" v:drawingUnits="19" v:shadowOffsetX="9" v:shadowOffsetY="-9"/>
		<g id="shape1-1" v:mID="1" v:groupContext="shape" transform="translate(132.817,-99.1869)">
			<title>Sheet.1</title>
			<desc>S0</desc>
			<v:textBlock v:margins="rect(4,4,4,4)"/>
			<v:textRect cx="20.5774" cy="153.287" width="41.16" height="39.5527"/>
			<path d="M0 153.23 L0.24 150.24 L0.96 147.37 L2.03 144.62 L3.59 142.11 L5.5 139.72 L7.78 137.69 L10.29 136.02 L13.04
						 134.83 L16.03 133.87 L19.02 133.51 L22.13 133.51 L25.24 133.87 L28.11 134.83 L30.87 136.02 L33.5 137.69
						 L35.77 139.72 L37.69 142.11 L39.12 144.62 L40.32 147.37 L41.04 150.24 L41.15 153.23 L41.04 156.21 L40.32
						 159.08 L39.12 161.83 L37.69 164.46 L35.77 166.73 L33.5 168.76 L30.87 170.43 L28.11 171.75 L25.24 172.59
						 L22.13 173.06 L19.02 173.06 L16.03 172.59 L13.04 171.75 L10.29 170.43 L7.78 168.76 L5.5 166.73 L3.59 164.46
						 L2.03 161.83 L0.96 159.08 L0.24 156.21 L0 153.23 Z" class="st1"/>
			<text x="14.46" y="156.29" class="st2" v:langID="1033"><v:paragraph v:horizAlign="1"/><v:tabList/>S0</text>		</g>
		<g id="shape2-4" v:mID="2" v:groupContext="shape" transform="translate(-19.9191,65.1223) rotate(-100.095)">
			<title>Sheet.2</title>
			<path d="M5.64 173.06 L6 173.06 L19.43 173.06" class="st3"/>
		</g>
		<g id="shape3-10" v:mID="3" v:groupContext="shape" transform="translate(124.59,-155.151)">
			<title>Sheet.3</title>
			<desc>Rst</desc>
			<v:textBlock v:margins="rect(0,0,0,0)"/>
			<v:textRect cx="16.875" cy="164.107" width="33.75" height="17.9123"/>
			<text x="9.37" y="167.11" class="st2" v:langID="1033"><v:paragraph v:horizAlign="1"/><v:tabList/>Rst</text>		</g>
		<g id="shape4-12" v:mID="4" v:groupContext="shape" transform="translate(101.25,-127.213)">
			<title>Sheet.4</title>
			<desc>F=0 Cout=0</desc>
			<v:textBlock v:margins="rect(0,0,0,0)"/>
			<v:textRect cx="16.875" cy="164.107" width="33.75" height="17.9123"/>
			<text x="16.24" y="161.11" class="st2" v:langID="1033"><v:paragraph v:horizAlign="2"/><v:tabList/>F=0<v:newlineChar/><tspan
						x="1.23" dy="1.2em" class="st5">Cout</tspan>=0</text>		</g>
		<g id="shape5-15" v:mID="5" v:groupContext="shape" transform="translate(35.6726,-8.34882)">
			<title>Sheet.5</title>
			<desc>S1</desc>
			<v:textBlock v:margins="rect(4,4,4,4)"/>
			<v:textRect cx="20.5774" cy="153.287" width="41.16" height="39.5527"/>
			<path d="M0 153.23 L0.24 150.24 L0.96 147.37 L2.03 144.62 L3.59 142.11 L5.5 139.72 L7.78 137.69 L10.29 136.02 L13.04
						 134.83 L16.03 133.87 L19.02 133.51 L22.13 133.51 L25.24 133.87 L28.11 134.83 L30.87 136.02 L33.5 137.69
						 L35.77 139.72 L37.69 142.11 L39.12 144.62 L40.32 147.37 L41.04 150.24 L41.15 153.23 L41.04 156.21 L40.32
						 159.08 L39.12 161.83 L37.69 164.46 L35.77 166.73 L33.5 168.76 L30.87 170.43 L28.11 171.75 L25.24 172.59
						 L22.13 173.06 L19.02 173.06 L16.03 172.59 L13.04 171.75 L10.29 170.43 L7.78 168.76 L5.5 166.73 L3.59 164.46
						 L2.03 161.83 L0.96 159.08 L0.24 156.21 L0 153.23 Z" class="st1"/>
			<text x="14.46" y="156.29" class="st2" v:langID="1033"><v:paragraph v:horizAlign="1"/><v:tabList/>S1</text>		</g>
		<g id="shape6-18" v:mID="6" v:groupContext="shape" transform="translate(244.774,168.457) rotate(134.926)">
			<title>Sheet.6</title>
			<path d="M0 157.79 C12.7 168.46 28.85 172.53 44.06 173.06 C61.45 173.68 77.62 169.68 93.2 160.76 L93.51 160.57"
					class="st6"/>
		</g>
		<g id="shape7-24" v:mID="7" v:groupContext="shape" transform="translate(0,-3.04389)">
			<title>Sheet.7</title>
			<desc>F=1 Cout=0</desc>
			<v:textBlock v:margins="rect(0,0,0,0)"/>
			<v:textRect cx="16.875" cy="164.107" width="33.75" height="17.9123"/>
			<text x="16.24" y="161.11" class="st2" v:langID="1033"><v:paragraph v:horizAlign="2"/><v:tabList/>F=1<v:newlineChar/><tspan
						x="1.23" dy="1.2em" class="st5">Cout</tspan>=0</text>		</g>
		<g id="shape8-27" v:mID="8" v:groupContext="shape" transform="translate(65.8089,141.615) rotate(-129.97)">
			<title>Sheet.8</title>
			<path d="M0 140.98 C-9.14 144.87 -14.48 159.69 -10.81 167.09 C-3.07 182.69 44.74 165.27 24.48 144.68 L24.2 144.45"
					class="st6"/>
		</g>
		<g id="group12-32" transform="translate(-46.1473,-32.5612) rotate(-45)" v:mID="12" v:groupContext="group">
			<title>Sheet.12</title>
			<g id="shape13-33" v:mID="13" v:groupContext="shape">
				<title>Sheet.13</title>
				<desc>A</desc>
				<v:textBlock v:margins="rect(0,0,0,0)"/>
				<v:textRect cx="4.5" cy="167.466" width="9.01" height="11.1952"/>
				<text x="0" y="170.47" class="st2" v:langID="1033"><v:paragraph/><v:tabList/>A</text>			</g>
			<g id="shape14-35" v:mID="14" v:groupContext="shape" transform="translate(6.75,-4.5)">
				<title>Sheet.14</title>
				<desc>⊕</desc>
				<v:textBlock v:margins="rect(0,0,0,0)"/>
				<v:textRect cx="4.5" cy="170.813" width="9" height="4.5"/>
				<rect x="0" y="168.563" width="9" height="4.5" class="st8"/>
				<text x="0.5" y="173.81" class="st9" v:langID="1033"><v:paragraph v:horizAlign="1"/><v:tabList/>⊕</text>			</g>
			<g id="shape15-38" v:mID="15" v:groupContext="shape" transform="translate(15.75,-0.0548405)">
				<title>Sheet.15</title>
				<desc>B</desc>
				<v:textBlock v:margins="rect(0,0,0,0)"/>
				<v:textRect cx="4.5" cy="167.466" width="9" height="11.1952"/>
				<rect x="0" y="161.868" width="9" height="11.1952" class="st10"/>
				<text x="0" y="170.47" class="st2" v:langID="1033"><v:paragraph/><v:tabList/>B</text>			</g>
		</g>
		<g id="shape16-41" v:mID="16" v:groupContext="shape" transform="translate(223.548,-7.45615)">
			<title>Sheet.16</title>
			<desc>S2</desc>
			<v:textBlock v:margins="rect(4,4,4,4)"/>
			<v:textRect cx="20.5774" cy="153.287" width="41.16" height="39.5527"/>
			<path d="M0 153.23 L0.24 150.24 L0.96 147.37 L2.03 144.62 L3.59 142.11 L5.5 139.72 L7.78 137.69 L10.29 136.02 L13.04
						 134.83 L16.03 133.87 L19.02 133.51 L22.13 133.51 L25.24 133.87 L28.11 134.83 L30.87 136.02 L33.5 137.69
						 L35.77 139.72 L37.69 142.11 L39.12 144.62 L40.32 147.37 L41.04 150.24 L41.15 153.23 L41.04 156.21 L40.32
						 159.08 L39.12 161.83 L37.69 164.46 L35.77 166.73 L33.5 168.76 L30.87 170.43 L28.11 171.75 L25.24 172.59
						 L22.13 173.06 L19.02 173.06 L16.03 172.59 L13.04 171.75 L10.29 170.43 L7.78 168.76 L5.5 166.73 L3.59 164.46
						 L2.03 161.83 L0.96 159.08 L0.24 156.21 L0 153.23 Z" class="st1"/>
			<text x="14.46" y="156.29" class="st2" v:langID="1033"><v:paragraph v:horizAlign="1"/><v:tabList/>S2</text>		</g>
		<g id="shape17-44" v:mID="17" v:groupContext="shape" transform="translate(270,-18.2764)">
			<title>Sheet.17</title>
			<desc>F=0 Cout=1</desc>
			<v:textBlock v:margins="rect(0,0,0,0)"/>
			<v:textRect cx="16.875" cy="164.107" width="33.75" height="17.9123"/>
			<text x="0" y="161.11" class="st2" v:langID="1033"><v:paragraph/><v:tabList/>F=0<v:newlineChar/><tspan x="0" dy="1.2em"
						class="st5">Cout</tspan>=1</text>		</g>
		<g id="shape18-47" v:mID="18" v:groupContext="shape" transform="translate(61.5321,169.037) rotate(45.0741) scale(1,-1)">
			<title>Sheet.18</title>
			<path d="M0 157.79 C12.7 168.46 28.85 172.53 44.06 173.06 C61.45 173.68 77.62 169.68 93.2 160.76 L93.51 160.57"
					class="st6"/>
		</g>
		<g id="shape19-52" v:mID="19" v:groupContext="shape" transform="translate(340.776,-37.4003) rotate(45)">
			<title>Sheet.19</title>
			<desc>A∙B</desc>
			<v:textBlock v:margins="rect(0,0,0,0)"/>
			<v:textRect cx="8.4375" cy="164.107" width="16.88" height="17.9123"/>
			<text x="0" y="167.11" class="st2" v:langID="1033"><v:paragraph/><v:tabList/>A∙B</text>		</g>
		<g id="shape20-54" v:mID="20" v:groupContext="shape" transform="translate(34.428,-39.1557) rotate(-44.9259) scale(-1,1)">
			<title>Sheet.20</title>
			<path d="M4.27 161.03 L4.56 161.25 C16.44 169.36 30.62 172.59 44.06 173.06 C63.28 173.74 81 168.79 98.09 157.79"
					class="st11"/>
		</g>
		<g id="shape21-60" v:mID="21" v:groupContext="shape" transform="translate(222.565,307.261) rotate(-179.651)">
			<title>Sheet.21</title>
			<path d="M4.99 163.45 L5.33 163.58 C23.4 170.12 45.23 172.7 65.91 173.06 C94.65 173.58 121.17 169.82 146.72 161.49"
					class="st11"/>
		</g>
		<g id="shape22-65" v:mID="22" v:groupContext="shape" transform="translate(142.606,234.146) rotate(140.03)">
			<title>Sheet.22</title>
			<path d="M0 140.98 C-9.14 144.87 -14.48 159.69 -10.81 167.09 C-3.07 182.69 44.74 165.27 24.48 144.68 L24.2 144.45"
					class="st13"/>
		</g>
		<g id="group23-71" transform="translate(-131.182,34.4854) rotate(-60)" v:mID="23" v:groupContext="group">
			<title>Sheet.23</title>
			<g id="shape24-72" v:mID="24" v:groupContext="shape">
				<title>Sheet.24</title>
				<desc>A</desc>
				<v:textBlock v:margins="rect(0,0,0,0)"/>
				<v:textRect cx="4.5" cy="167.466" width="9.01" height="11.1952"/>
				<text x="0" y="170.47" class="st14" v:langID="1033"><v:paragraph/><v:tabList/>A</text>			</g>
			<g id="shape25-74" v:mID="25" v:groupContext="shape" transform="translate(6.75,-4.5)">
				<title>Sheet.25</title>
				<desc>⊕</desc>
				<v:textBlock v:margins="rect(0,0,0,0)"/>
				<v:textRect cx="4.5" cy="170.813" width="9" height="4.5"/>
				<rect x="0" y="168.563" width="9" height="4.5" class="st8"/>
				<text x="0.5" y="173.81" class="st15" v:langID="1033"><v:paragraph v:horizAlign="1"/><v:tabList/>⊕</text>			</g>
			<g id="shape26-77" v:mID="26" v:groupContext="shape" transform="translate(15.75,-0.0548405)">
				<title>Sheet.26</title>
				<desc>B</desc>
				<v:textBlock v:margins="rect(0,0,0,0)"/>
				<v:textRect cx="4.5" cy="167.466" width="9" height="11.1952"/>
				<rect x="0" y="161.868" width="9" height="11.1952" class="st10"/>
				<text x="-0" y="170.47" class="st14" v:langID="1033"><v:paragraph/><v:tabList/>B</text>			</g>
		</g>
		<g id="group27-80" transform="translate(-37.0143,120.456) rotate(-90)" v:mID="27" v:groupContext="group">
			<title>Sheet.27</title>
			<g id="shape9-81" v:mID="9" v:groupContext="shape" transform="translate(122.374,38.7567) rotate(45)">
				<title>Sheet.9</title>
				<desc>A∙B</desc>
				<v:textBlock v:margins="rect(0,0,0,0)"/>
				<v:textRect cx="8.4375" cy="164.107" width="16.88" height="17.9123"/>
				<text x="-0" y="167.11" class="st14" v:langID="1033"><v:paragraph/><v:tabList/>A∙B</text>			</g>
			<g id="shape10-83" v:mID="10" v:groupContext="shape" transform="translate(132.344,28.1679) rotate(45)">
				<title>Sheet.10</title>
				<path d="M0 173.06 L6.5 173.06" class="st16"/>
			</g>
			<g id="shape11-86" v:mID="11" v:groupContext="shape" transform="translate(139.062,34.8855) rotate(45)">
				<title>Sheet.11</title>
				<path d="M0 173.06 L6.13 173.06" class="st16"/>
			</g>
		</g>
		<g id="shape28-89" v:mID="28" v:groupContext="shape" transform="translate(148.5,-36.75)">
			<title>Sheet.28</title>
			<desc>A∙B</desc>
			<v:textBlock v:margins="rect(0,0,0,0)"/>
			<v:textRect cx="8.4375" cy="164.107" width="16.88" height="17.9123"/>
			<text x="0" y="167.11" class="st14" v:langID="1033"><v:paragraph/><v:tabList/>A∙B</text>		</g>
		<g id="group29-91" transform="translate(183.451,-139.576)" v:mID="29" v:groupContext="group">
			<title>Sheet.29</title>
			<g id="shape30-92" v:mID="30" v:groupContext="shape" transform="translate(122.374,38.7567) rotate(45)">
				<title>Sheet.30</title>
				<desc>A∙B</desc>
				<v:textBlock v:margins="rect(0,0,0,0)"/>
				<v:textRect cx="8.4375" cy="164.107" width="16.88" height="17.9123"/>
				<text x="-0" y="167.11" class="st2" v:langID="1033"><v:paragraph/><v:tabList/>A∙B</text>			</g>
			<g id="shape31-94" v:mID="31" v:groupContext="shape" transform="translate(132.344,28.1679) rotate(45)">
				<title>Sheet.31</title>
				<path d="M0 173.06 L6.5 173.06" class="st17"/>
			</g>
			<g id="shape32-97" v:mID="32" v:groupContext="shape" transform="translate(139.062,34.8855) rotate(45)">
				<title>Sheet.32</title>
				<path d="M0 173.06 L6.13 173.06" class="st17"/>
			</g>
		</g>
	</g>
</svg>
