<?xml version="1.0" encoding="UTF-8" standalone="no"?>
<!DOCTYPE svg PUBLIC "-//W3C//DTD SVG 1.1//EN" "http://www.w3.org/Graphics/SVG/1.1/DTD/svg11.dtd">
<!-- Generated by Microsoft Visio, SVG Export Connectors.svg Page-1 -->
<svg xmlns="http://www.w3.org/2000/svg" xmlns:xlink="http://www.w3.org/1999/xlink" xmlns:ev="http://www.w3.org/2001/xml-events"
		xmlns:v="http://schemas.microsoft.com/visio/2003/SVGExtensions/" width="6.79865in" height="2.52884in"
		viewBox="0 0 489.503 182.076" xml:space="preserve" color-interpolation-filters="sRGB" class="st11">
	<v:documentProperties v:langID="1033" v:viewMarkup="false"/>

	<style type="text/css">
	<![CDATA[
		.st1 {fill:#000000;font-family:Times New Roman;font-size:0.831207em}
		.st2 {fill:#000000;font-family:Times New Roman;font-size:0.831207em;font-weight:bold}
		.st3 {font-size:1em;font-weight:normal}
		.st4 {fill:#ffffff;stroke:#000000;stroke-linecap:round;stroke-linejoin:round;stroke-width:0.719593}
		.st5 {fill:#e6e6e6;stroke:#000000;stroke-linecap:round;stroke-linejoin:round;stroke-width:0.719593}
		.st6 {stroke:#000000;stroke-linecap:round;stroke-linejoin:round;stroke-width:0.719593}
		.st7 {fill:#000000;stroke:#000000;stroke-linecap:round;stroke-linejoin:round;stroke-width:0.719593}
		.st8 {stroke:#ffffff;stroke-linecap:round;stroke-linejoin:round;stroke-width:0.719593}
		.st9 {fill:#c0c0c0;stroke:#000000;stroke-linecap:round;stroke-linejoin:round;stroke-width:0.719593}
		.st10 {fill:#ffffff;stroke:#ffffff;stroke-linecap:round;stroke-linejoin:round;stroke-width:0.719593}
		.st11 {fill:none;fill-rule:evenodd;font-size:12px;overflow:visible;stroke-linecap:square;stroke-miterlimit:3}
	]]>
	</style>

	<g v:mID="0" v:index="1" v:groupContext="foregroundPage">
		<title>Page-1</title>
		<v:pageProperties v:drawingScale="1" v:pageScale="1" v:drawingUnits="0" v:shadowOffsetX="9" v:shadowOffsetY="-9"/>
		<g id="shape303-1" v:mID="303" v:groupContext="shape" transform="translate(10.8359,-103.616)">
			<title>Sheet.303</title>
			<desc>PS/2 connector</desc>
			<v:textBlock v:margins="rect(0,0,0,0)"/>
			<v:textRect cx="31.68" cy="176.092" width="63.36" height="11.9693"/>
			<text x="2.59" y="179.08" class="st1" v:langID="1033"><v:paragraph v:horizAlign="1"/><v:tabList/>PS/2 connector</text>		</g>
		<g id="shape304-3" v:mID="304" v:groupContext="shape" transform="translate(108.918,-102.534)">
			<title>Sheet.304</title>
			<desc>&#34;DB25&#34; Parallel port D-connector</desc>
			<v:textBlock v:margins="rect(0,0,0,0)"/>
			<v:textRect cx="70.8" cy="176.092" width="141.61" height="11.9693"/>
			<text x="2.88" y="179.08" class="st1" v:langID="1033"><v:paragraph v:horizAlign="1"/><v:tabList/>&#34;DB25&#34;  Parallel port D-connector</text>		</g>
		<g id="shape305-5" v:mID="305" v:groupContext="shape" transform="translate(293.698,-110.622)">
			<title>Sheet.305</title>
			<desc>&#34;DB9&#34; Serial</desc>
			<v:textBlock v:margins="rect(0,0,0,0)"/>
			<v:textRect cx="27.84" cy="176.092" width="55.68" height="11.9693"/>
			<text x="2.71" y="179.08" class="st1" v:langID="1033"><v:paragraph v:horizAlign="1"/><v:tabList/>&#34;DB9&#34; Serial</text>		</g>
		<g id="shape306-7" v:mID="306" v:groupContext="shape" transform="translate(287.278,-99.151)">
			<title>Sheet.306</title>
			<desc>port D-connector</desc>
			<v:textBlock v:margins="rect(0,0,0,0)"/>
			<v:textRect cx="34.26" cy="176.092" width="68.52" height="11.9693"/>
			<text x="0.06" y="179.08" class="st1" v:langID="1033"><v:paragraph v:horizAlign="1"/><v:tabList/>port D-connector</text>		</g>
		<g id="shape412-9" v:mID="412" v:groupContext="shape" transform="translate(297.445,-1.39112)">
			<title>Sheet.412</title>
			<desc>Headers</desc>
			<v:textBlock v:margins="rect(0,0,0,0)"/>
			<v:textRect cx="26.64" cy="176.092" width="53.28" height="11.9693"/>
			<text x="11.55" y="179.08" class="st1" v:langID="1033"><v:paragraph v:horizAlign="1"/><v:tabList/>Headers</text>		</g>
		<g id="shape468-11" v:mID="468" v:groupContext="shape" transform="translate(16.1696,-0.746586)">
			<title>Sheet.468</title>
			<desc>DIP sockets</desc>
			<v:textBlock v:margins="rect(0,0,0,0)"/>
			<v:textRect cx="37.62" cy="176.092" width="75.24" height="11.9693"/>
			<text x="13.66" y="179.08" class="st1" v:langID="1033"><v:paragraph v:horizAlign="1"/><v:tabList/>DIP sockets</text>		</g>
		<g id="shape469-13" v:mID="469" v:groupContext="shape" transform="translate(129.145,-1.39112)">
			<title>Sheet.469</title>
			<desc>Power jack</desc>
			<v:textBlock v:margins="rect(0,0,0,0)"/>
			<v:textRect cx="23.58" cy="176.092" width="47.16" height="11.9693"/>
			<text x="2.53" y="179.08" class="st1" v:langID="1033"><v:paragraph v:horizAlign="1"/><v:tabList/>Power jack</text>		</g>
		<g id="shape565-15" v:mID="565" v:groupContext="shape" transform="translate(400.197,-111.168)">
			<title>Sheet.565</title>
			<desc>&#34;DB15&#34; VGA</desc>
			<v:textBlock v:margins="rect(0,0,0,0)"/>
			<v:textRect cx="29.46" cy="176.092" width="58.92" height="11.9693"/>
			<text x="2.67" y="179.08" class="st1" v:langID="1033"><v:paragraph v:horizAlign="1"/><v:tabList/>&#34;DB15&#34; VGA</text>		</g>
		<g id="shape566-17" v:mID="566" v:groupContext="shape" transform="translate(395.497,-99.151)">
			<title>Sheet.566</title>
			<desc>D-connector</desc>
			<v:textBlock v:margins="rect(0,0,0,0)"/>
			<v:textRect cx="34.1594" cy="176.092" width="68.32" height="11.9693"/>
			<text x="10.48" y="179.08" class="st1" v:langID="1033"><v:paragraph v:horizAlign="1"/><v:tabList/>D-connector</text>		</g>
		<g id="shape583-19" v:mID="583" v:groupContext="shape" transform="translate(207.199,-1.39112)">
			<title>Sheet.583</title>
			<desc>Audio Jack</desc>
			<v:textBlock v:margins="rect(0,0,0,0)"/>
			<v:textRect cx="24.21" cy="176.092" width="48.42" height="11.9693"/>
			<text x="1.63" y="179.08" class="st1" v:langID="1033"><v:paragraph v:horizAlign="1"/><v:tabList/>Audio Jack</text>		</g>
		<g id="shape585-21" v:mID="585" v:groupContext="shape" transform="translate(382.643,-0.0255416)">
			<title>Sheet.585</title>
			<desc>BNC connector</desc>
			<v:textBlock v:margins="rect(0,0,0,0)"/>
			<v:textRect cx="53.4298" cy="176.092" width="106.86" height="11.9693"/>
			<text x="23.24" y="179.1" class="st2" v:langID="1033"><v:paragraph v:horizAlign="1"/><v:tabList/>BNC <tspan class="st3">connector</tspan></text>		</g>
		<g id="group605-24" transform="translate(282.2,-131.604)" v:mID="605" v:groupContext="group">
			<title>Sheet.605</title>
			<g id="shape385-25" v:mID="385" v:groupContext="shape" transform="translate(1.9984E-014,-9.01305)">
				<title>Sheet.385</title>
				<rect x="0" y="143.741" width="69.6806" height="38.3355" class="st4"/>
			</g>
			<g id="shape386-27" v:mID="386" v:groupContext="shape" transform="translate(11.2736,-18.0261)">
				<title>Sheet.386</title>
				<path d="M4.44 161.77 L3.36 162.01 L2.28 162.61 L1.32 163.69 L0.6 165.13 L0.12 166.81 L0 168.5 L0.12 170.9 L0.48
							 173.18 L1.2 175.23 L2.04 177.27 L3.24 178.83 L4.44 180.27 L5.88 181.24 L7.44 181.84 L8.99 182.08 L38.26
							 182.08 L39.94 181.72 L41.5 181.12 L42.94 180.03 L44.25 178.71 L45.45 177.03 L46.29 175.11 L46.89 172.94
							 L47.13 170.78 L47.25 168.5 L47.25 166.93 L46.89 165.37 L46.17 163.93 L45.21 162.85 L44.02 162.13 L42.7
							 161.77 L4.44 161.77 Z" class="st5"/>
			</g>
			<g id="shape387-29" v:mID="387" v:groupContext="shape" transform="translate(18.8293,-22.5927)">
				<title>Sheet.387</title>
				<path d="M0 180.15 L0.24 179.31 L0.72 178.59 L1.56 178.23 L2.4 178.23 L3.24 178.59 L3.72 179.31 L3.96 180.15 L3.72
							 180.99 L3.24 181.72 L2.4 182.08 L1.56 182.08 L0.72 181.72 L0.24 180.99 L0 180.15 Z" class="st4"/>
			</g>
			<g id="shape388-31" v:mID="388" v:groupContext="shape" transform="translate(27.8243,-22.5927)">
				<title>Sheet.388</title>
				<path d="M0 180.15 L0.24 179.31 L0.72 178.59 L1.56 178.23 L2.4 178.23 L3.24 178.59 L3.72 179.31 L3.96 180.15 L3.72
							 180.99 L3.24 181.72 L2.4 182.08 L1.56 182.08 L0.72 181.72 L0.24 180.99 L0 180.15 Z" class="st4"/>
			</g>
			<g id="shape389-33" v:mID="389" v:groupContext="shape" transform="translate(36.2195,-22.5927)">
				<title>Sheet.389</title>
				<path d="M0 180.15 L0.24 179.31 L0.84 178.59 L1.56 178.23 L2.52 178.23 L3.24 178.59 L3.84 179.31 L3.96 180.15 L3.84
							 180.99 L3.24 181.72 L2.52 182.08 L1.56 182.08 L0.84 181.72 L0.24 180.99 L0 180.15 Z" class="st4"/>
			</g>
			<g id="shape390-35" v:mID="390" v:groupContext="shape" transform="translate(45.2144,-22.5927)">
				<title>Sheet.390</title>
				<path d="M0 180.15 L0.24 179.31 L0.84 178.59 L1.56 178.23 L2.52 178.23 L3.24 178.59 L3.84 179.31 L3.96 180.15 L3.84
							 180.99 L3.24 181.72 L2.52 182.08 L1.56 182.08 L0.84 181.72 L0.24 180.99 L0 180.15 Z" class="st4"/>
			</g>
			<g id="shape391-37" v:mID="391" v:groupContext="shape" transform="translate(14.6317,-29.3225)">
				<title>Sheet.391</title>
				<path d="M0 180.15 L0.24 179.19 L0.72 178.59 L1.56 178.23 L2.4 178.23 L3.24 178.59 L3.72 179.19 L3.96 180.15 L3.72
							 180.99 L3.24 181.6 L2.4 182.08 L1.56 182.08 L0.72 181.6 L0.24 180.99 L0 180.15 Z" class="st4"/>
			</g>
			<g id="shape392-39" v:mID="392" v:groupContext="shape" transform="translate(23.6266,-29.3225)">
				<title>Sheet.392</title>
				<path d="M0 180.15 L0.24 179.19 L0.72 178.59 L1.56 178.23 L2.4 178.23 L3.24 178.59 L3.72 179.19 L3.96 180.15 L3.72
							 180.99 L3.24 181.6 L2.4 182.08 L1.56 182.08 L0.72 181.6 L0.24 180.99 L0 180.15 Z" class="st4"/>
			</g>
			<g id="shape393-41" v:mID="393" v:groupContext="shape" transform="translate(32.0219,-29.3225)">
				<title>Sheet.393</title>
				<path d="M0 180.15 L0.24 179.19 L0.72 178.59 L1.56 178.23 L2.4 178.23 L3.24 178.59 L3.72 179.19 L3.96 180.15 L3.72
							 180.99 L3.24 181.6 L2.4 182.08 L1.56 182.08 L0.72 181.6 L0.24 180.99 L0 180.15 Z" class="st4"/>
			</g>
			<g id="shape394-43" v:mID="394" v:groupContext="shape" transform="translate(41.0168,-29.3225)">
				<title>Sheet.394</title>
				<path d="M0 180.15 L0.24 179.19 L0.72 178.59 L1.56 178.23 L2.4 178.23 L3.24 178.59 L3.72 179.19 L3.96 180.15 L3.72
							 180.99 L3.24 181.6 L2.4 182.08 L1.56 182.08 L0.72 181.6 L0.24 180.99 L0 180.15 Z" class="st4"/>
			</g>
			<g id="shape395-45" v:mID="395" v:groupContext="shape" transform="translate(50.0117,-29.3225)">
				<title>Sheet.395</title>
				<path d="M0 180.15 L0.24 179.19 L0.72 178.59 L1.56 178.23 L2.4 178.23 L3.24 178.59 L3.72 179.19 L3.96 180.15 L3.72
							 180.99 L3.24 181.6 L2.4 182.08 L1.56 182.08 L0.72 181.6 L0.24 180.99 L0 180.15 Z" class="st4"/>
			</g>
			<g id="shape396-47" v:mID="396" v:groupContext="shape" transform="translate(16.9104,5.68434E-014)">
				<title>Sheet.396</title>
				<path d="M0 173.06 L0 182.08" class="st6"/>
			</g>
			<g id="shape397-50" v:mID="397" v:groupContext="shape" transform="translate(21.3479,-2.28331)">
				<title>Sheet.397</title>
				<path d="M0 175.35 L0 182.08" class="st6"/>
			</g>
			<g id="shape398-53" v:mID="398" v:groupContext="shape" transform="translate(25.9053,5.68434E-014)">
				<title>Sheet.398</title>
				<path d="M0 173.06 L0 182.08" class="st6"/>
			</g>
			<g id="shape399-56" v:mID="399" v:groupContext="shape" transform="translate(30.3428,-2.28331)">
				<title>Sheet.399</title>
				<path d="M0 175.35 L0 182.08" class="st6"/>
			</g>
			<g id="shape400-59" v:mID="400" v:groupContext="shape" transform="translate(34.9002,5.68434E-014)">
				<title>Sheet.400</title>
				<path d="M0 173.06 L0 182.08" class="st6"/>
			</g>
			<g id="shape401-62" v:mID="401" v:groupContext="shape" transform="translate(39.3377,-2.28331)">
				<title>Sheet.401</title>
				<path d="M0 175.35 L0 182.08" class="st6"/>
			</g>
			<g id="shape402-65" v:mID="402" v:groupContext="shape" transform="translate(43.8952,5.68434E-014)">
				<title>Sheet.402</title>
				<path d="M0 173.06 L0 182.08" class="st6"/>
			</g>
			<g id="shape403-68" v:mID="403" v:groupContext="shape" transform="translate(48.3326,-2.28331)">
				<title>Sheet.403</title>
				<path d="M0 175.35 L0 182.08" class="st6"/>
			</g>
			<g id="shape404-71" v:mID="404" v:groupContext="shape" transform="translate(52.8901,5.68434E-014)">
				<title>Sheet.404</title>
				<path d="M0 173.06 L0 182.08" class="st6"/>
			</g>
			<g id="shape405-74" v:mID="405" v:groupContext="shape" transform="translate(2.27871,-23.7945)">
				<title>Sheet.405</title>
				<path d="M0 178.83 L0.24 177.63 L0.72 176.67 L1.68 175.83 L2.76 175.47 L3.96 175.47 L5.04 175.83 L5.88 176.67 L6.48
							 177.63 L6.72 178.83 L6.48 179.91 L5.88 180.99 L5.04 181.72 L3.96 182.08 L2.76 182.08 L1.68 181.72 L0.72
							 180.99 L0.24 179.91 L0 178.83 Z" class="st4"/>
			</g>
			<g id="shape406-76" v:mID="406" v:groupContext="shape" transform="translate(3.3581,-24.2752)">
				<title>Sheet.406</title>
				<path d="M2.28 175.95 L1.56 176.19 L0.84 176.67 L0.36 177.63 L0.12 178.71 L0 179.79 L0.72 180.75 L1.68 181.48 L2.76
							 181.96 L3.96 182.08" class="st6"/>
			</g>
			<g id="shape407-79" v:mID="407" v:groupContext="shape" transform="translate(60.6856,-24.876)">
				<title>Sheet.407</title>
				<path d="M0 178.71 L0.24 177.63 L0.84 176.55 L1.68 175.83 L2.88 175.47 L3.96 175.47 L5.16 175.83 L6 176.55 L6.6 177.63
							 L6.84 178.71 L6.6 179.91 L6 180.87 L5.16 181.72 L3.96 182.08 L2.88 182.08 L1.68 181.72 L0.84 180.87
							 L0.24 179.91 L0 178.71 Z" class="st4"/>
			</g>
			<g id="shape408-81" v:mID="408" v:groupContext="shape" transform="translate(61.885,-25.3567)">
				<title>Sheet.408</title>
				<path d="M2.16 175.83 L1.44 176.07 L0.84 176.67 L0.24 177.51 L0 178.59 L0 179.79 L0.72 180.75 L1.68 181.48 L2.76
							 181.84 L3.96 182.08" class="st6"/>
			</g>
			<g id="shape409-84" v:mID="409" v:groupContext="shape" transform="translate(1.59872E-014,-9.01305)">
				<title>Sheet.409</title>
				<path d="M0 143.74 L2.28 141.46 L71.96 141.46 L71.96 175.23 L78.68 168.5 L78.68 173.06 L69.68 182.08" class="st6"/>
			</g>
			<g id="shape410-87" v:mID="410" v:groupContext="shape" transform="translate(69.6806,-47.3486)">
				<title>Sheet.410</title>
				<path d="M0 182.08 L2.28 179.79" class="st6"/>
			</g>
			<g id="shape411-90" v:mID="411" v:groupContext="shape" transform="translate(71.9593,-22.5927)">
				<title>Sheet.411</title>
				<path d="M6.72 182.08 L0 182.08" class="st6"/>
			</g>
		</g>
		<g id="group606-93" transform="translate(387.501,-131.123)" v:mID="606" v:groupContext="group">
			<title>Sheet.606</title>
			<g id="shape526-94" v:mID="526" v:groupContext="shape" transform="translate(-3.19744E-014,-9.01305)">
				<title>Sheet.526</title>
				<rect x="0" y="143.741" width="75.3174" height="38.3355" class="st4"/>
			</g>
			<g id="shape527-96" v:mID="527" v:groupContext="shape" transform="translate(10.674,-16.3437)">
				<title>Sheet.527</title>
				<path d="M5.16 155.64 L3.96 155.76 L2.88 156.48 L1.92 157.56 L1.2 158.88 L0.6 160.57 L0.12 162.49 L0 164.41 L0.12
							 167.17 L0.48 169.82 L1.2 172.46 L2.04 174.75 L3 176.91 L4.2 178.71 L5.64 180.15 L7.08 181.24 L8.64 181.84
							 L10.19 182.08 L43.3 182.08 L44.97 181.72 L46.65 180.99 L48.21 179.91 L49.53 178.47 L50.85 176.67 L51.81
							 174.51 L52.65 172.22 L53.13 169.7 L53.49 167.05 L53.49 164.41 L53.49 162.61 L53.25 160.81 L52.65 159.24
							 L51.81 157.8 L50.85 156.72 L49.65 156 L48.33 155.64 L5.16 155.64 Z" class="st5"/>
			</g>
			<g id="shape528-98" v:mID="528" v:groupContext="shape" transform="translate(24.4662,-20.9103)">
				<title>Sheet.528</title>
				<path d="M0 180.15 L0.24 179.31 L0.72 178.59 L1.56 178.23 L2.4 178.23 L3.24 178.59 L3.72 179.31 L3.96 180.15 L3.72
							 180.99 L3.24 181.72 L2.4 182.08 L1.56 182.08 L0.72 181.72 L0.24 180.99 L0 180.15 Z" class="st4"/>
			</g>
			<g id="shape529-100" v:mID="529" v:groupContext="shape" transform="translate(33.4611,-20.9103)">
				<title>Sheet.529</title>
				<path d="M0 180.15 L0.24 179.31 L0.72 178.59 L1.56 178.23 L2.4 178.23 L3.24 178.59 L3.72 179.31 L3.96 180.15 L3.72
							 180.99 L3.24 181.72 L2.4 182.08 L1.56 182.08 L0.72 181.72 L0.24 180.99 L0 180.15 Z" class="st4"/>
			</g>
			<g id="shape530-102" v:mID="530" v:groupContext="shape" transform="translate(41.9762,-20.9103)">
				<title>Sheet.530</title>
				<path d="M0 180.15 L0.12 179.31 L0.72 178.59 L1.44 178.23 L2.4 178.23 L3.12 178.59 L3.72 179.31 L3.84 180.15 L3.72
							 180.99 L3.12 181.72 L2.4 182.08 L1.44 182.08 L0.72 181.72 L0.12 180.99 L0 180.15 Z" class="st4"/>
			</g>
			<g id="shape531-104" v:mID="531" v:groupContext="shape" transform="translate(50.9711,-20.9103)">
				<title>Sheet.531</title>
				<path d="M0 180.15 L0.12 179.31 L0.72 178.59 L1.44 178.23 L2.4 178.23 L3.12 178.59 L3.72 179.31 L3.84 180.15 L3.72
							 180.99 L3.12 181.72 L2.4 182.08 L1.44 182.08 L0.72 181.72 L0.12 180.99 L0 180.15 Z" class="st4"/>
			</g>
			<g id="shape532-106" v:mID="532" v:groupContext="shape" transform="translate(20.2685,-27.64)">
				<title>Sheet.532</title>
				<path d="M0 180.15 L0.24 179.31 L0.72 178.59 L1.56 178.23 L2.4 178.23 L3.24 178.59 L3.72 179.31 L3.96 180.15 L3.72
							 180.99 L3.24 181.72 L2.4 182.08 L1.56 182.08 L0.72 181.72 L0.24 180.99 L0 180.15 Z" class="st4"/>
			</g>
			<g id="shape533-108" v:mID="533" v:groupContext="shape" transform="translate(29.2634,-27.64)">
				<title>Sheet.533</title>
				<path d="M0 180.15 L0.24 179.31 L0.72 178.59 L1.56 178.23 L2.4 178.23 L3.24 178.59 L3.72 179.31 L3.96 180.15 L3.72
							 180.99 L3.24 181.72 L2.4 182.08 L1.56 182.08 L0.72 181.72 L0.24 180.99 L0 180.15 Z" class="st4"/>
			</g>
			<g id="shape534-110" v:mID="534" v:groupContext="shape" transform="translate(37.6587,-27.64)">
				<title>Sheet.534</title>
				<path d="M0 180.15 L0.24 179.31 L0.84 178.59 L1.56 178.23 L2.4 178.23 L3.24 178.59 L3.84 179.31 L3.96 180.15 L3.84
							 180.99 L3.24 181.72 L2.4 182.08 L1.56 182.08 L0.84 181.72 L0.24 180.99 L0 180.15 Z" class="st4"/>
			</g>
			<g id="shape535-112" v:mID="535" v:groupContext="shape" transform="translate(46.6536,-27.64)">
				<title>Sheet.535</title>
				<path d="M0 180.15 L0.24 179.31 L0.84 178.59 L1.56 178.23 L2.4 178.23 L3.24 178.59 L3.84 179.31 L3.96 180.15 L3.84
							 180.99 L3.24 181.72 L2.4 182.08 L1.56 182.08 L0.84 181.72 L0.24 180.99 L0 180.15 Z" class="st4"/>
			</g>
			<g id="shape536-114" v:mID="536" v:groupContext="shape" transform="translate(55.6485,-27.64)">
				<title>Sheet.536</title>
				<path d="M0 180.15 L0.24 179.31 L0.84 178.59 L1.56 178.23 L2.4 178.23 L3.24 178.59 L3.84 179.31 L3.96 180.15 L3.84
							 180.99 L3.24 181.72 L2.4 182.08 L1.56 182.08 L0.84 181.72 L0.24 180.99 L0 180.15 Z" class="st4"/>
			</g>
			<g id="shape537-116" v:mID="537" v:groupContext="shape" transform="translate(2.27871,-21.9918)">
				<title>Sheet.537</title>
				<path d="M0 178.71 L0.24 177.51 L0.84 176.55 L1.68 175.83 L2.76 175.35 L3.96 175.35 L5.04 175.83 L6 176.55 L6.6 177.51
							 L6.72 178.71 L6.6 179.91 L6 180.87 L5.04 181.6 L3.96 182.08 L2.76 182.08 L1.68 181.6 L0.84 180.87 L0.24
							 179.91 L0 178.71 Z" class="st4"/>
			</g>
			<g id="shape538-118" v:mID="538" v:groupContext="shape" transform="translate(3.3581,-22.5927)">
				<title>Sheet.538</title>
				<path d="M2.28 175.95 L1.56 176.19 L0.84 176.79 L0.36 177.63 L0.12 178.71 L0 179.91 L0.72 180.75 L1.68 181.48 L2.76
							 181.96 L3.96 182.08" class="st6"/>
			</g>
			<g id="shape539-121" v:mID="539" v:groupContext="shape" transform="translate(66.3225,-23.1936)">
				<title>Sheet.539</title>
				<path d="M0 178.83 L0.24 177.63 L0.84 176.67 L1.68 175.83 L2.88 175.47 L3.96 175.47 L5.16 175.83 L6 176.67 L6.6 177.63
							 L6.84 178.83 L6.6 179.91 L6 180.99 L5.16 181.72 L3.96 182.08 L2.88 182.08 L1.68 181.72 L0.84 180.99
							 L0.24 179.91 L0 178.83 Z" class="st4"/>
			</g>
			<g id="shape540-123" v:mID="540" v:groupContext="shape" transform="translate(67.5218,-23.6743)">
				<title>Sheet.540</title>
				<path d="M2.28 175.83 L1.44 176.07 L0.84 176.67 L0.36 177.63 L0 178.71 L0 179.79 L0.72 180.75 L1.68 181.48 L2.76
							 181.96 L3.96 182.08" class="st6"/>
			</g>
			<g id="shape541-126" v:mID="541" v:groupContext="shape" transform="translate(-3.19744E-014,-9.01305)">
				<title>Sheet.541</title>
				<path d="M0 143.74 L2.4 141.46 L77.12 141.46 L77.12 175.35 L84.31 168.5 L84.31 173.06 L74.72 182.08" class="st6"/>
			</g>
			<g id="shape542-129" v:mID="542" v:groupContext="shape" transform="translate(75.3174,-47.3486)">
				<title>Sheet.542</title>
				<path d="M0 182.08 L2.28 179.79" class="st6"/>
			</g>
			<g id="shape543-132" v:mID="543" v:groupContext="shape" transform="translate(77.5961,-22.5927)">
				<title>Sheet.543</title>
				<path d="M6.72 182.08 L0 182.08" class="st6"/>
			</g>
			<g id="shape544-135" v:mID="544" v:groupContext="shape" transform="translate(15.831,-34.9706)">
				<title>Sheet.544</title>
				<path d="M0 180.15 L0.12 179.31 L0.72 178.59 L1.44 178.23 L2.4 178.23 L3.12 178.59 L3.72 179.31 L3.84 180.15 L3.72
							 180.99 L3.12 181.72 L2.4 182.08 L1.44 182.08 L0.72 181.72 L0.12 180.99 L0 180.15 Z" class="st4"/>
			</g>
			<g id="shape545-137" v:mID="545" v:groupContext="shape" transform="translate(24.8259,-34.9706)">
				<title>Sheet.545</title>
				<path d="M0 180.15 L0.12 179.31 L0.72 178.59 L1.44 178.23 L2.4 178.23 L3.12 178.59 L3.72 179.31 L3.84 180.15 L3.72
							 180.99 L3.12 181.72 L2.4 182.08 L1.44 182.08 L0.72 181.72 L0.12 180.99 L0 180.15 Z" class="st4"/>
			</g>
			<g id="shape546-139" v:mID="546" v:groupContext="shape" transform="translate(33.2212,-34.9706)">
				<title>Sheet.546</title>
				<path d="M0 180.15 L0.12 179.31 L0.72 178.59 L1.56 178.23 L2.4 178.23 L3.12 178.59 L3.72 179.31 L3.96 180.15 L3.72
							 180.99 L3.12 181.72 L2.4 182.08 L1.56 182.08 L0.72 181.72 L0.12 180.99 L0 180.15 Z" class="st4"/>
			</g>
			<g id="shape547-141" v:mID="547" v:groupContext="shape" transform="translate(42.2161,-34.9706)">
				<title>Sheet.547</title>
				<path d="M0 180.15 L0.12 179.31 L0.72 178.59 L1.56 178.23 L2.4 178.23 L3.12 178.59 L3.72 179.31 L3.96 180.15 L3.72
							 180.99 L3.12 181.72 L2.4 182.08 L1.56 182.08 L0.72 181.72 L0.12 180.99 L0 180.15 Z" class="st4"/>
			</g>
			<g id="shape548-143" v:mID="548" v:groupContext="shape" transform="translate(51.211,-34.9706)">
				<title>Sheet.548</title>
				<path d="M0 180.15 L0.12 179.31 L0.72 178.59 L1.56 178.23 L2.4 178.23 L3.12 178.59 L3.72 179.31 L3.96 180.15 L3.72
							 180.99 L3.12 181.72 L2.4 182.08 L1.56 182.08 L0.72 181.72 L0.12 180.99 L0 180.15 Z" class="st4"/>
			</g>
			<g id="shape549-145" v:mID="549" v:groupContext="shape" transform="translate(15.831,-20.9103)">
				<title>Sheet.549</title>
				<path d="M0 180.15 L0.12 179.31 L0.72 178.59 L1.44 178.23 L2.4 178.23 L3.12 178.59 L3.72 179.31 L3.84 180.15 L3.72
							 180.99 L3.12 181.72 L2.4 182.08 L1.44 182.08 L0.72 181.72 L0.12 180.99 L0 180.15 Z" class="st4"/>
			</g>
			<g id="shape550-147" v:mID="550" v:groupContext="shape" transform="translate(34.3006,8.52651E-014)">
				<title>Sheet.550</title>
				<path d="M0 173.06 L0 182.08" class="st6"/>
			</g>
			<g id="shape551-150" v:mID="551" v:groupContext="shape" transform="translate(37.6587,-2.28331)">
				<title>Sheet.551</title>
				<path d="M0 175.35 L0 182.08" class="st6"/>
			</g>
			<g id="shape552-153" v:mID="552" v:groupContext="shape" transform="translate(41.1367,8.52651E-014)">
				<title>Sheet.552</title>
				<path d="M0 173.06 L0 182.08" class="st6"/>
			</g>
			<g id="shape553-156" v:mID="553" v:groupContext="shape" transform="translate(44.6147,-2.28331)">
				<title>Sheet.553</title>
				<path d="M0 175.35 L0 182.08" class="st6"/>
			</g>
			<g id="shape554-159" v:mID="554" v:groupContext="shape" transform="translate(48.0928,8.52651E-014)">
				<title>Sheet.554</title>
				<path d="M0 173.06 L0 182.08" class="st6"/>
			</g>
			<g id="shape555-162" v:mID="555" v:groupContext="shape" transform="translate(51.5708,-2.28331)">
				<title>Sheet.555</title>
				<path d="M0 175.35 L0 182.08" class="st6"/>
			</g>
			<g id="shape556-165" v:mID="556" v:groupContext="shape" transform="translate(54.9289,8.52651E-014)">
				<title>Sheet.556</title>
				<path d="M0 173.06 L0 182.08" class="st6"/>
			</g>
			<g id="shape557-168" v:mID="557" v:groupContext="shape" transform="translate(58.4069,-2.28331)">
				<title>Sheet.557</title>
				<path d="M0 175.35 L0 182.08" class="st6"/>
			</g>
			<g id="shape558-171" v:mID="558" v:groupContext="shape" transform="translate(61.885,8.52651E-014)">
				<title>Sheet.558</title>
				<path d="M0 173.06 L0 182.08" class="st6"/>
			</g>
			<g id="shape559-174" v:mID="559" v:groupContext="shape" transform="translate(13.5523,8.52651E-014)">
				<title>Sheet.559</title>
				<path d="M0 173.06 L0 182.08" class="st6"/>
			</g>
			<g id="shape560-177" v:mID="560" v:groupContext="shape" transform="translate(17.0304,-2.28331)">
				<title>Sheet.560</title>
				<path d="M0 175.35 L0 182.08" class="st6"/>
			</g>
			<g id="shape561-180" v:mID="561" v:groupContext="shape" transform="translate(20.3885,8.52651E-014)">
				<title>Sheet.561</title>
				<path d="M0 173.06 L0 182.08" class="st6"/>
			</g>
			<g id="shape562-183" v:mID="562" v:groupContext="shape" transform="translate(23.8665,-2.28331)">
				<title>Sheet.562</title>
				<path d="M0 175.35 L0 182.08" class="st6"/>
			</g>
			<g id="shape563-186" v:mID="563" v:groupContext="shape" transform="translate(27.3445,8.52651E-014)">
				<title>Sheet.563</title>
				<path d="M0 173.06 L0 182.08" class="st6"/>
			</g>
			<g id="shape564-189" v:mID="564" v:groupContext="shape" transform="translate(30.8226,-2.28331)">
				<title>Sheet.564</title>
				<path d="M0 175.35 L0 182.08" class="st6"/>
			</g>
		</g>
		<g id="group607-192" transform="translate(0.359796,-21.765)" v:mID="607" v:groupContext="group">
			<title>Sheet.607</title>
			<g id="shape413-193" v:mID="413" v:groupContext="shape" transform="translate(-1.59872E-014,-36.7732)">
				<title>Sheet.413</title>
				<path d="M1.08 182.08 L94.87 182.08 L106.86 169.82 L11.99 169.82 L0 182.08 L1.08 182.08 Z" class="st5"/>
			</g>
			<g id="shape414-195" v:mID="414" v:groupContext="shape" transform="translate(30.4628,-43.8635)">
				<title>Sheet.414</title>
				<path d="M0 182.08 L3.36 178.95 L7.68 178.95 L4.44 182.08 L0 182.08 Z" class="st7"/>
			</g>
			<g id="shape415-197" v:mID="415" v:groupContext="shape" transform="translate(25.5455,-38.8162)">
				<title>Sheet.415</title>
				<path d="M0 182.08 L3.36 179.07 L7.68 179.07 L4.44 182.08 L0 182.08 Z" class="st7"/>
			</g>
			<g id="shape416-199" v:mID="416" v:groupContext="shape" transform="translate(23.3868,-43.8635)">
				<title>Sheet.416</title>
				<path d="M0 182.08 L3.24 178.95 L7.68 178.95 L4.44 182.08 L0 182.08 Z" class="st7"/>
			</g>
			<g id="shape417-201" v:mID="417" v:groupContext="shape" transform="translate(18.4695,-38.8162)">
				<title>Sheet.417</title>
				<path d="M0 182.08 L3.36 179.07 L7.68 179.07 L4.44 182.08 L0 182.08 Z" class="st7"/>
			</g>
			<g id="shape418-203" v:mID="418" v:groupContext="shape" transform="translate(16.3108,-43.8635)">
				<title>Sheet.418</title>
				<path d="M0 182.08 L3.24 178.95 L7.68 178.95 L4.44 182.08 L0 182.08 Z" class="st7"/>
			</g>
			<g id="shape419-205" v:mID="419" v:groupContext="shape" transform="translate(11.3936,-38.8162)">
				<title>Sheet.419</title>
				<path d="M0 182.08 L3.36 179.07 L7.68 179.07 L4.44 182.08 L0 182.08 Z" class="st7"/>
			</g>
			<g id="shape420-207" v:mID="420" v:groupContext="shape" transform="translate(9.23477,-43.8635)">
				<title>Sheet.420</title>
				<path d="M0 182.08 L3.24 178.95 L7.68 178.95 L4.32 182.08 L0 182.08 Z" class="st7"/>
			</g>
			<g id="shape421-209" v:mID="421" v:groupContext="shape" transform="translate(4.31756,-38.8162)">
				<title>Sheet.421</title>
				<path d="M0 182.08 L3.24 179.07 L7.68 179.07 L4.44 182.08 L0 182.08 Z" class="st7"/>
			</g>
			<g id="shape422-211" v:mID="422" v:groupContext="shape" transform="translate(58.8867,-43.8635)">
				<title>Sheet.422</title>
				<path d="M0 182.08 L3.24 178.95 L7.56 178.95 L4.32 182.08 L0 182.08 Z" class="st7"/>
			</g>
			<g id="shape423-213" v:mID="423" v:groupContext="shape" transform="translate(53.9695,-38.8162)">
				<title>Sheet.423</title>
				<path d="M0 182.08 L3.24 179.07 L7.56 179.07 L4.32 182.08 L0 182.08 Z" class="st7"/>
			</g>
			<g id="shape424-215" v:mID="424" v:groupContext="shape" transform="translate(51.8107,-43.8635)">
				<title>Sheet.424</title>
				<path d="M0 182.08 L3.24 178.95 L7.56 178.95 L4.32 182.08 L0 182.08 Z" class="st7"/>
			</g>
			<g id="shape425-217" v:mID="425" v:groupContext="shape" transform="translate(46.8935,-38.8162)">
				<title>Sheet.425</title>
				<path d="M0 182.08 L3.24 179.07 L7.56 179.07 L4.32 182.08 L0 182.08 Z" class="st7"/>
			</g>
			<g id="shape426-219" v:mID="426" v:groupContext="shape" transform="translate(44.6147,-43.8635)">
				<title>Sheet.426</title>
				<path d="M0 182.08 L3.36 178.95 L7.68 178.95 L4.44 182.08 L0 182.08 Z" class="st7"/>
			</g>
			<g id="shape427-221" v:mID="427" v:groupContext="shape" transform="translate(39.8175,-38.8162)">
				<title>Sheet.427</title>
				<path d="M0 182.08 L3.24 179.07 L7.56 179.07 L4.32 182.08 L0 182.08 Z" class="st7"/>
			</g>
			<g id="shape428-223" v:mID="428" v:groupContext="shape" transform="translate(37.5388,-43.8635)">
				<title>Sheet.428</title>
				<path d="M0 182.08 L3.36 178.95 L7.68 178.95 L4.44 182.08 L0 182.08 Z" class="st7"/>
			</g>
			<g id="shape429-225" v:mID="429" v:groupContext="shape" transform="translate(32.6215,-38.8162)">
				<title>Sheet.429</title>
				<path d="M0 182.08 L3.36 179.07 L7.68 179.07 L4.44 182.08 L0 182.08 Z" class="st7"/>
			</g>
			<g id="shape430-227" v:mID="430" v:groupContext="shape" transform="translate(87.1906,-43.8635)">
				<title>Sheet.430</title>
				<path d="M0 182.08 L3.24 178.95 L7.68 178.95 L4.32 182.08 L0 182.08 Z" class="st7"/>
			</g>
			<g id="shape431-229" v:mID="431" v:groupContext="shape" transform="translate(82.2734,-38.8162)">
				<title>Sheet.431</title>
				<path d="M0 182.08 L3.24 179.07 L7.68 179.07 L4.32 182.08 L0 182.08 Z" class="st7"/>
			</g>
			<g id="shape432-231" v:mID="432" v:groupContext="shape" transform="translate(80.1147,-43.8635)">
				<title>Sheet.432</title>
				<path d="M0 182.08 L3.24 178.95 L7.56 178.95 L4.32 182.08 L0 182.08 Z" class="st7"/>
			</g>
			<g id="shape433-233" v:mID="433" v:groupContext="shape" transform="translate(75.1974,-38.8162)">
				<title>Sheet.433</title>
				<path d="M0 182.08 L3.24 179.07 L7.68 179.07 L4.32 182.08 L0 182.08 Z" class="st7"/>
			</g>
			<g id="shape434-235" v:mID="434" v:groupContext="shape" transform="translate(73.0387,-43.8635)">
				<title>Sheet.434</title>
				<path d="M0 182.08 L3.24 178.95 L7.56 178.95 L4.32 182.08 L0 182.08 Z" class="st7"/>
			</g>
			<g id="shape435-237" v:mID="435" v:groupContext="shape" transform="translate(68.1214,-38.8162)">
				<title>Sheet.435</title>
				<path d="M0 182.08 L3.24 179.07 L7.56 179.07 L4.32 182.08 L0 182.08 Z" class="st7"/>
			</g>
			<g id="shape436-239" v:mID="436" v:groupContext="shape" transform="translate(65.9627,-43.8635)">
				<title>Sheet.436</title>
				<path d="M0 182.08 L3.24 178.95 L7.56 178.95 L4.32 182.08 L0 182.08 Z" class="st7"/>
			</g>
			<g id="shape437-241" v:mID="437" v:groupContext="shape" transform="translate(61.0454,-38.8162)">
				<title>Sheet.437</title>
				<path d="M0 182.08 L3.24 179.07 L7.56 179.07 L4.32 182.08 L0 182.08 Z" class="st7"/>
			</g>
			<g id="shape438-243" v:mID="438" v:groupContext="shape" transform="translate(89.3494,-38.8162)">
				<title>Sheet.438</title>
				<path d="M0 182.08 L3.24 179.07 L7.68 179.07 L4.32 182.08 L0 182.08 Z" class="st7"/>
			</g>
			<g id="shape439-245" v:mID="439" v:groupContext="shape" transform="translate(94.2666,-43.8635)">
				<title>Sheet.439</title>
				<path d="M0 182.08 L3.24 178.95 L7.68 178.95 L4.32 182.08 L0 182.08 Z" class="st7"/>
			</g>
			<g id="shape440-247" v:mID="440" v:groupContext="shape" transform="translate(2.39808E-014,-12.2577)">
				<title>Sheet.440</title>
				<rect x="0" y="157.561" width="94.8663" height="24.5155" class="st5"/>
			</g>
			<g id="shape441-249" v:mID="441" v:groupContext="shape" transform="translate(94.8663,-12.2577)">
				<title>Sheet.441</title>
				<path d="M0 182.08 L11.99 169.82 L11.99 145.3 L0 157.56 L0 182.08 Z" class="st5"/>
			</g>
			<g id="shape442-251" v:mID="442" v:groupContext="shape" transform="translate(5.39695,-5.04731)">
				<title>Sheet.442</title>
				<path d="M0 174.87 L0 182.08" class="st6"/>
			</g>
			<g id="shape443-254" v:mID="443" v:groupContext="shape" transform="translate(9.83443,-10.2148)">
				<title>Sheet.443</title>
				<path d="M0 180.03 L0 182.08" class="st6"/>
			</g>
			<g id="shape444-257" v:mID="444" v:groupContext="shape" transform="translate(11.9932,-5.04731)">
				<title>Sheet.444</title>
				<path d="M0 174.87 L0 182.08" class="st6"/>
			</g>
			<g id="shape445-260" v:mID="445" v:groupContext="shape" transform="translate(16.3108,-10.2148)">
				<title>Sheet.445</title>
				<path d="M0 180.03 L0 182.08" class="st6"/>
			</g>
			<g id="shape446-263" v:mID="446" v:groupContext="shape" transform="translate(18.4695,-5.04731)">
				<title>Sheet.446</title>
				<path d="M0 174.87 L0 182.08" class="st6"/>
			</g>
			<g id="shape447-266" v:mID="447" v:groupContext="shape" transform="translate(22.907,-10.2148)">
				<title>Sheet.447</title>
				<path d="M0 180.03 L0 182.08" class="st6"/>
			</g>
			<g id="shape448-269" v:mID="448" v:groupContext="shape" transform="translate(25.0658,-5.04731)">
				<title>Sheet.448</title>
				<path d="M0 174.87 L0 182.08" class="st6"/>
			</g>
			<g id="shape449-272" v:mID="449" v:groupContext="shape" transform="translate(29.3834,-10.2148)">
				<title>Sheet.449</title>
				<path d="M0 180.03 L0 182.08" class="st6"/>
			</g>
			<g id="shape450-275" v:mID="450" v:groupContext="shape" transform="translate(31.5421,-5.04731)">
				<title>Sheet.450</title>
				<path d="M0 174.87 L0 182.08" class="st6"/>
			</g>
			<g id="shape451-278" v:mID="451" v:groupContext="shape" transform="translate(35.9796,-10.2148)">
				<title>Sheet.451</title>
				<path d="M0 180.03 L0 182.08" class="st6"/>
			</g>
			<g id="shape452-281" v:mID="452" v:groupContext="shape" transform="translate(39.2178,-5.04731)">
				<title>Sheet.452</title>
				<path d="M0 174.87 L0 182.08" class="st6"/>
			</g>
			<g id="shape453-284" v:mID="453" v:groupContext="shape" transform="translate(43.5354,-10.2148)">
				<title>Sheet.453</title>
				<path d="M0 180.03 L0 182.08" class="st6"/>
			</g>
			<g id="shape454-287" v:mID="454" v:groupContext="shape" transform="translate(45.8141,-5.04731)">
				<title>Sheet.454</title>
				<path d="M0 174.87 L0 182.08" class="st6"/>
			</g>
			<g id="shape455-290" v:mID="455" v:groupContext="shape" transform="translate(50.1316,-10.2148)">
				<title>Sheet.455</title>
				<path d="M0 180.03 L0 182.08" class="st6"/>
			</g>
			<g id="shape456-293" v:mID="456" v:groupContext="shape" transform="translate(52.8901,-5.04731)">
				<title>Sheet.456</title>
				<path d="M0 174.87 L0 182.08" class="st6"/>
			</g>
			<g id="shape457-296" v:mID="457" v:groupContext="shape" transform="translate(57.2076,-10.2148)">
				<title>Sheet.457</title>
				<path d="M0 180.03 L0 182.08" class="st6"/>
			</g>
			<g id="shape458-299" v:mID="458" v:groupContext="shape" transform="translate(59.9661,-5.04731)">
				<title>Sheet.458</title>
				<path d="M0 174.87 L0 182.08" class="st6"/>
			</g>
			<g id="shape459-302" v:mID="459" v:groupContext="shape" transform="translate(64.2836,-10.2148)">
				<title>Sheet.459</title>
				<path d="M0 180.03 L0 182.08" class="st6"/>
			</g>
			<g id="shape460-305" v:mID="460" v:groupContext="shape" transform="translate(67.5218,-5.04731)">
				<title>Sheet.460</title>
				<path d="M0 174.87 L0 182.08" class="st6"/>
			</g>
			<g id="shape461-308" v:mID="461" v:groupContext="shape" transform="translate(71.9593,-10.2148)">
				<title>Sheet.461</title>
				<path d="M0 180.03 L0 182.08" class="st6"/>
			</g>
			<g id="shape462-311" v:mID="462" v:groupContext="shape" transform="translate(74.118,-5.04731)">
				<title>Sheet.462</title>
				<path d="M0 174.87 L0 182.08" class="st6"/>
			</g>
			<g id="shape463-314" v:mID="463" v:groupContext="shape" transform="translate(78.4356,-10.2148)">
				<title>Sheet.463</title>
				<path d="M0 180.03 L0 182.08" class="st6"/>
			</g>
			<g id="shape464-317" v:mID="464" v:groupContext="shape" transform="translate(81.6738,-5.04731)">
				<title>Sheet.464</title>
				<path d="M0 174.87 L0 182.08" class="st6"/>
			</g>
			<g id="shape465-320" v:mID="465" v:groupContext="shape" transform="translate(86.1113,-10.2148)">
				<title>Sheet.465</title>
				<path d="M0 180.03 L0 182.08" class="st6"/>
			</g>
			<g id="shape466-323" v:mID="466" v:groupContext="shape" transform="translate(88.27,-5.04731)">
				<title>Sheet.466</title>
				<path d="M0 174.87 L0 182.08" class="st6"/>
			</g>
			<g id="shape467-326" v:mID="467" v:groupContext="shape" transform="translate(92.5876,-10.2148)">
				<title>Sheet.467</title>
				<path d="M0 180.03 L0 182.08" class="st6"/>
			</g>
			<g id="shape470-329" v:mID="470" v:groupContext="shape" transform="translate(48.9323,-2.84217E-014)">
				<title>Sheet.470</title>
				<path d="M2.64 128 L3.6 128.24 L4.56 128.84 L5.4 129.8 L6.12 131.12 L6.84 132.81 L7.32 134.73 L7.68 136.89 L7.92
							 139.17 L8.04 141.46 L7.92 143.86 L7.68 146.14 L7.32 148.19 L6.84 150.11 L6.12 151.79 L5.4 153.23 L4.56
							 154.2 L3.6 154.8 L2.64 155.04 L2.16 155.16 L1.68 155.76 L1.32 156.84 L0.96 158.16 L0.6 159.84 L0.36
							 161.77 L0.12 163.81 L0 166.09 L0 168.5 L0 170.78 L0.24 173.06 L0.72 175.23 L1.2 177.15 L1.92 178.83
							 L2.64 180.15 L3.48 181.12 L4.44 181.72 L5.4 181.96 L5.16 181.96 L5.28 182.08 L6 182.08 L6.96 182.08
							 L8.04 182.08 L9.23 182.08 L10.19 182.08 L10.79 182.08 L11.03 181.96 L10.79 181.96 L9.83 181.72 L8.87
							 181.12 L8.04 180.15 L7.32 178.83 L6.6 177.15 L6.12 175.23 L5.64 173.06 L5.4 170.78 L5.4 168.5 L5.4 166.09
							 L5.64 163.81 L6.12 161.77 L6.6 159.84 L7.32 158.16 L8.04 156.84 L8.87 155.76 L9.83 155.16 L10.79 155.04
							 L11.27 154.8 L11.63 154.2 L12.11 153.23 L12.47 151.79 L12.83 150.11 L13.07 148.19 L13.31 146.14 L13.43
							 143.86 L13.43 141.46 L13.43 139.17 L13.19 136.89 L12.95 134.73 L12.47 132.81 L11.99 131.12 L11.39 129.8
							 L10.79 128.84 L10.07 128.24 L9.35 128 L2.64 128 Z" class="st4"/>
			</g>
			<g id="shape471-331" v:mID="471" v:groupContext="shape" transform="translate(51.5708,-54.0783)">
				<title>Sheet.471</title>
				<path d="M8.16 182.08 L0 182.08" class="st8"/>
			</g>
			<g id="shape472-334" v:mID="472" v:groupContext="shape" transform="translate(51.5708,-0.120174)">
				<title>Sheet.472</title>
				<path d="M9.47 182.08 L0 182.08" class="st8"/>
			</g>
		</g>
		<g id="group608-337" transform="translate(134.735,-23.4475)" v:mID="608" v:groupContext="group">
			<title>Sheet.608</title>
			<g id="shape576-338" v:mID="576" v:groupContext="shape" transform="translate(4.996E-014,-4.80696)">
				<title>Sheet.576</title>
				<rect x="0" y="151.432" width="21.5878" height="30.6444" class="st4"/>
			</g>
			<g id="shape577-340" v:mID="577" v:groupContext="shape" transform="translate(2.79776E-014,-35.4513)">
				<title>Sheet.577</title>
				<path d="M0 182.08 L14.39 166.81 L35.98 166.81 L21.59 182.08" class="st6"/>
			</g>
			<g id="shape578-343" v:mID="578" v:groupContext="shape" transform="translate(21.5878,-4.80696)">
				<title>Sheet.578</title>
				<path d="M0 182.08 L14.39 166.81 L14.39 136.17" class="st6"/>
			</g>
			<g id="shape579-346" v:mID="579" v:groupContext="shape" transform="translate(2.63851,-14.3007)">
				<title>Sheet.579</title>
				<path d="M0 173.42 L0.24 171.5 L0.84 169.7 L1.8 168.02 L3.12 166.69 L4.56 165.61 L6.36 165.01 L8.16 164.77 L9.95
							 165.01 L11.63 165.61 L13.19 166.69 L14.51 168.02 L15.47 169.7 L16.07 171.5 L16.19 173.42 L16.07 175.35
							 L15.47 177.15 L14.51 178.83 L13.19 180.15 L11.63 181.12 L9.95 181.84 L8.16 182.08 L6.36 181.84 L4.56
							 181.12 L3.12 180.15 L1.8 178.83 L0.84 177.15 L0.24 175.35 L0 173.42 Z" class="st5"/>
			</g>
			<g id="shape580-348" v:mID="580" v:groupContext="shape" transform="translate(8.99491,-20.7901)">
				<title>Sheet.580</title>
				<path d="M1.08 178.23 L5.88 172.22 L7.68 173.78 L8.4 174.87 L2.52 182.08 L1.8 182.08 L1.08 181.6 L0.36 180.87 L0
							 179.79 L0.36 179.07 L1.08 178.23 Z" class="st7"/>
			</g>
			<g id="shape581-350" v:mID="581" v:groupContext="shape" transform="translate(26.9847,0)">
				<title>Sheet.581</title>
				<path d="M1.8 169.7 L3.6 173.42 L0 181.12 L0.84 182.08 L2.64 181.12 L6.24 171.5 L3.6 167.78" class="st6"/>
			</g>
			<g id="shape582-353" v:mID="582" v:groupContext="shape" transform="translate(8.99491,-1.92278)">
				<title>Sheet.582</title>
				<path d="M0 179.19 L0 181.12 L0.84 182.08 L1.8 182.08 L2.64 181.12 L3.6 179.19" class="st6"/>
			</g>
		</g>
		<g id="group609-356" transform="translate(211.2,-30.7781)" v:mID="609" v:groupContext="group">
			<title>Sheet.609</title>
			<g id="shape568-357" v:mID="568" v:groupContext="shape" transform="translate(3.59712E-014,-16.584)">
				<title>Sheet.568</title>
				<path d="M0 182.08 L18.23 164.29 L40.42 164.29 L24.23 182.08 L0 182.08 Z" class="st4"/>
			</g>
			<g id="shape569-359" v:mID="569" v:groupContext="shape" transform="translate(24.2263,-2.28331)">
				<title>Sheet.569</title>
				<path d="M16.19 149.99 L16.19 164.29 L0 182.08 L0 167.78 L16.19 149.99 Z" class="st4"/>
			</g>
			<g id="shape570-361" v:mID="570" v:groupContext="shape" transform="translate(7.79377E-014,-2.28331)">
				<title>Sheet.570</title>
				<rect x="0" y="167.776" width="24.2263" height="14.3007" class="st4"/>
			</g>
			<g id="shape571-363" v:mID="571" v:groupContext="shape" transform="translate(5.51688,-4.08592)">
				<title>Sheet.571</title>
				<path d="M0 176.79 L0.24 175.35 L0.84 174.02 L1.92 172.94 L3.24 172.1 L4.68 171.62 L6.36 171.38 L8.04 171.62 L9.47
							 172.1 L10.79 172.94 L11.87 174.02 L12.47 175.35 L12.71 176.79 L12.47 178.11 L11.87 179.43 L10.79 180.51
							 L9.47 181.36 L8.04 181.96 L6.36 182.08 L4.68 181.96 L3.24 181.36 L1.92 180.51 L0.84 179.43 L0.24 178.11
							 L0 176.79 Z" class="st4"/>
			</g>
			<g id="shape572-365" v:mID="572" v:groupContext="shape" transform="translate(5.03715,-3.2447)">
				<title>Sheet.572</title>
				<path d="M0 177.27 L0.24 175.83 L0.84 174.63 L1.92 173.54 L3.24 172.82 L4.8 172.34 L6.36 172.34 L7.92 172.82 L9.23
							 173.54 L10.19 174.63 L10.91 175.83 L11.15 177.27 L10.91 178.59 L10.19 179.91 L9.23 180.99 L7.92 181.72
							 L6.36 182.08 L4.8 182.08 L3.24 181.72 L1.92 180.99 L0.84 179.91 L0.24 178.59 L0 177.27 Z" class="st4"/>
			</g>
			<g id="shape573-367" v:mID="573" v:groupContext="shape" transform="translate(6.83613,-4.80696)">
				<title>Sheet.573</title>
				<path d="M0 178.95 L0.24 177.87 L0.84 176.79 L1.8 176.07 L3 175.71 L4.32 175.71 L5.52 176.07 L6.48 176.79 L7.08 177.87
							 L7.32 178.95 L7.08 180.03 L6.48 180.99 L5.52 181.72 L4.32 182.08 L3 182.08 L1.8 181.72 L0.84 180.99
							 L0.24 180.03 L0 178.95 Z" class="st9"/>
			</g>
			<g id="shape574-369" v:mID="574" v:groupContext="shape" transform="translate(30.7026,-1.56226)">
				<title>Sheet.574</title>
				<path d="M1.68 172.22 L3.24 175.23 L0 181.24 L0.84 182.08 L2.52 181.24 L5.76 173.66 L3.24 170.66" class="st6"/>
			</g>
			<g id="shape575-372" v:mID="575" v:groupContext="shape" transform="translate(4.79728,0)">
				<title>Sheet.575</title>
				<path d="M0 179.79 L0 181.36 L0.84 182.08 L1.68 182.08 L2.52 181.36 L3.24 179.79" class="st6"/>
			</g>
		</g>
		<g id="group610-375" transform="translate(289.784,-25.1299)" v:mID="610" v:groupContext="group">
			<title>Sheet.610</title>
			<g id="shape473-376" v:mID="473" v:groupContext="shape" transform="translate(3.95776,-9.01305)">
				<title>Sheet.473</title>
				<rect x="0" y="157.441" width="1.07939" height="24.6357" class="st4"/>
			</g>
			<g id="shape474-378" v:mID="474" v:groupContext="shape" transform="translate(5.03715,-9.01305)">
				<title>Sheet.474</title>
				<path d="M0 157.44 L0.48 156.96 L0.48 181.24 L0 182.08" class="st6"/>
			</g>
			<g id="shape475-381" v:mID="475" v:groupContext="shape" transform="translate(3.95776,-33.6487)">
				<title>Sheet.475</title>
				<path d="M0 182.08 L0.48 181.6 L1.56 181.6" class="st6"/>
			</g>
			<g id="shape476-384" v:mID="476" v:groupContext="shape" transform="translate(20.0287,-9.01305)">
				<title>Sheet.476</title>
				<rect x="0" y="157.441" width="0.959457" height="24.6357" class="st4"/>
			</g>
			<g id="shape477-386" v:mID="477" v:groupContext="shape" transform="translate(20.9881,-9.01305)">
				<title>Sheet.477</title>
				<path d="M0 157.44 L0.48 156.96 L0.48 181.24 L0 182.08" class="st6"/>
			</g>
			<g id="shape478-389" v:mID="478" v:groupContext="shape" transform="translate(20.0287,-33.6487)">
				<title>Sheet.478</title>
				<path d="M0 182.08 L0.48 181.6 L1.44 181.6" class="st6"/>
			</g>
			<g id="shape479-392" v:mID="479" v:groupContext="shape" transform="translate(20.0287,-9.01305)">
				<title>Sheet.479</title>
				<rect x="0" y="157.441" width="0.959457" height="24.6357" class="st4"/>
			</g>
			<g id="shape480-394" v:mID="480" v:groupContext="shape" transform="translate(20.9881,-9.01305)">
				<title>Sheet.480</title>
				<path d="M0 157.44 L0.48 156.96 L0.48 181.24 L0 182.08" class="st6"/>
			</g>
			<g id="shape481-397" v:mID="481" v:groupContext="shape" transform="translate(20.0287,-33.6487)">
				<title>Sheet.481</title>
				<path d="M0 182.08 L0.48 181.6 L1.44 181.6" class="st6"/>
			</g>
			<g id="shape482-400" v:mID="482" v:groupContext="shape" transform="translate(11.9932,-9.01305)">
				<title>Sheet.482</title>
				<rect x="0" y="157.441" width="0.959457" height="24.6357" class="st4"/>
			</g>
			<g id="shape483-402" v:mID="483" v:groupContext="shape" transform="translate(12.9527,-9.01305)">
				<title>Sheet.483</title>
				<path d="M0 157.44 L0.48 156.96 L0.48 181.24 L0 182.08" class="st6"/>
			</g>
			<g id="shape484-405" v:mID="484" v:groupContext="shape" transform="translate(11.9932,-33.6487)">
				<title>Sheet.484</title>
				<path d="M0 182.08 L0.48 181.6 L1.44 181.6" class="st6"/>
			</g>
			<g id="shape485-408" v:mID="485" v:groupContext="shape" transform="translate(27.9442,-9.01305)">
				<title>Sheet.485</title>
				<rect x="0" y="157.441" width="1.07939" height="24.6357" class="st4"/>
			</g>
			<g id="shape486-410" v:mID="486" v:groupContext="shape" transform="translate(29.0236,-9.01305)">
				<title>Sheet.486</title>
				<path d="M0 157.44 L0.48 156.96 L0.48 181.24 L0 182.08" class="st6"/>
			</g>
			<g id="shape487-413" v:mID="487" v:groupContext="shape" transform="translate(27.9442,-33.6487)">
				<title>Sheet.487</title>
				<path d="M0 182.08 L0.48 181.6 L1.56 181.6" class="st6"/>
			</g>
			<g id="shape488-416" v:mID="488" v:groupContext="shape" transform="translate(27.9442,-9.01305)">
				<title>Sheet.488</title>
				<rect x="0" y="157.441" width="1.07939" height="24.6357" class="st4"/>
			</g>
			<g id="shape489-418" v:mID="489" v:groupContext="shape" transform="translate(29.0236,-9.01305)">
				<title>Sheet.489</title>
				<path d="M0 157.44 L0.48 156.96 L0.48 181.24 L0 182.08" class="st6"/>
			</g>
			<g id="shape490-421" v:mID="490" v:groupContext="shape" transform="translate(27.9442,-33.6487)">
				<title>Sheet.490</title>
				<path d="M0 182.08 L0.48 181.6 L1.56 181.6" class="st6"/>
			</g>
			<g id="shape491-424" v:mID="491" v:groupContext="shape" transform="translate(7.99361E-015,-14.3007)">
				<title>Sheet.491</title>
				<rect x="0" y="179.433" width="33.9408" height="2.64383" class="st4"/>
			</g>
			<g id="shape492-426" v:mID="492" v:groupContext="shape" transform="translate(0,-16.9445)">
				<title>Sheet.492</title>
				<path d="M3.96 180.27 L2.04 180.27 L0 182.08" class="st6"/>
			</g>
			<g id="shape493-429" v:mID="493" v:groupContext="shape" transform="translate(5.51688,-18.7471)">
				<title>Sheet.493</title>
				<path d="M0 182.08 L6.48 182.08" class="st6"/>
			</g>
			<g id="shape494-432" v:mID="494" v:groupContext="shape" transform="translate(14.0321,-18.7471)">
				<title>Sheet.494</title>
				<path d="M0 182.08 L6 182.08" class="st6"/>
			</g>
			<g id="shape495-435" v:mID="495" v:groupContext="shape" transform="translate(21.9476,-18.7471)">
				<title>Sheet.495</title>
				<path d="M0 182.08 L6 182.08" class="st6"/>
			</g>
			<g id="shape496-438" v:mID="496" v:groupContext="shape" transform="translate(29.5033,-16.9445)">
				<title>Sheet.496</title>
				<path d="M0 180.27 L6.48 180.27 L4.44 182.08" class="st6"/>
			</g>
			<g id="shape497-441" v:mID="497" v:groupContext="shape" transform="translate(33.9408,-14.3007)">
				<title>Sheet.497</title>
				<path d="M0 182.08 L2.04 180.27 L2.04 177.63" class="st6"/>
			</g>
			<g id="shape498-444" v:mID="498" v:groupContext="shape" transform="translate(36.5793,-9.01305)">
				<title>Sheet.498</title>
				<rect x="0" y="157.441" width="1.07939" height="24.6357" class="st4"/>
			</g>
			<g id="shape499-446" v:mID="499" v:groupContext="shape" transform="translate(37.6587,-9.01305)">
				<title>Sheet.499</title>
				<path d="M0 157.44 L0.48 156.96 L0.48 181.24 L0 182.08" class="st6"/>
			</g>
			<g id="shape500-449" v:mID="500" v:groupContext="shape" transform="translate(36.5793,-33.6487)">
				<title>Sheet.500</title>
				<path d="M0 182.08 L0.48 181.6 L1.56 181.6" class="st6"/>
			</g>
			<g id="shape501-452" v:mID="501" v:groupContext="shape" transform="translate(52.6502,-9.01305)">
				<title>Sheet.501</title>
				<rect x="0" y="157.441" width="0.959457" height="24.6357" class="st4"/>
			</g>
			<g id="shape502-454" v:mID="502" v:groupContext="shape" transform="translate(53.6097,-9.01305)">
				<title>Sheet.502</title>
				<path d="M0 157.44 L0.48 156.96 L0.48 181.24 L0 182.08" class="st6"/>
			</g>
			<g id="shape503-457" v:mID="503" v:groupContext="shape" transform="translate(52.6502,-33.6487)">
				<title>Sheet.503</title>
				<path d="M0 182.08 L0.48 181.6 L1.44 181.6" class="st6"/>
			</g>
			<g id="shape504-460" v:mID="504" v:groupContext="shape" transform="translate(52.6502,-9.01305)">
				<title>Sheet.504</title>
				<rect x="0" y="157.441" width="0.959457" height="24.6357" class="st4"/>
			</g>
			<g id="shape505-462" v:mID="505" v:groupContext="shape" transform="translate(53.6097,-9.01305)">
				<title>Sheet.505</title>
				<path d="M0 157.44 L0.48 156.96 L0.48 181.24 L0 182.08" class="st6"/>
			</g>
			<g id="shape506-465" v:mID="506" v:groupContext="shape" transform="translate(52.6502,-33.6487)">
				<title>Sheet.506</title>
				<path d="M0 182.08 L0.48 181.6 L1.44 181.6" class="st6"/>
			</g>
			<g id="shape507-468" v:mID="507" v:groupContext="shape" transform="translate(44.6147,-9.01305)">
				<title>Sheet.507</title>
				<rect x="0" y="157.441" width="0.959457" height="24.6357" class="st4"/>
			</g>
			<g id="shape508-470" v:mID="508" v:groupContext="shape" transform="translate(45.5742,-9.01305)">
				<title>Sheet.508</title>
				<path d="M0 157.44 L0.48 156.96 L0.48 181.24 L0 182.08" class="st6"/>
			</g>
			<g id="shape509-473" v:mID="509" v:groupContext="shape" transform="translate(44.6147,-33.6487)">
				<title>Sheet.509</title>
				<path d="M0 182.08 L0.48 181.6 L1.44 181.6" class="st6"/>
			</g>
			<g id="shape510-476" v:mID="510" v:groupContext="shape" transform="translate(60.5657,-9.01305)">
				<title>Sheet.510</title>
				<rect x="0" y="157.441" width="1.07939" height="24.6357" class="st4"/>
			</g>
			<g id="shape511-478" v:mID="511" v:groupContext="shape" transform="translate(61.6451,-9.01305)">
				<title>Sheet.511</title>
				<path d="M0 157.44 L0.48 156.96 L0.48 181.24 L0 182.08" class="st6"/>
			</g>
			<g id="shape512-481" v:mID="512" v:groupContext="shape" transform="translate(60.5657,-33.6487)">
				<title>Sheet.512</title>
				<path d="M0 182.08 L0.48 181.6 L1.56 181.6" class="st6"/>
			</g>
			<g id="shape513-484" v:mID="513" v:groupContext="shape" transform="translate(60.5657,-9.01305)">
				<title>Sheet.513</title>
				<rect x="0" y="157.441" width="1.07939" height="24.6357" class="st4"/>
			</g>
			<g id="shape514-486" v:mID="514" v:groupContext="shape" transform="translate(61.6451,-9.01305)">
				<title>Sheet.514</title>
				<path d="M0 157.44 L0.48 156.96 L0.48 181.24 L0 182.08" class="st6"/>
			</g>
			<g id="shape515-489" v:mID="515" v:groupContext="shape" transform="translate(60.5657,-33.6487)">
				<title>Sheet.515</title>
				<path d="M0 182.08 L0.48 181.6 L1.56 181.6" class="st6"/>
			</g>
			<g id="shape516-492" v:mID="516" v:groupContext="shape" transform="translate(32.6215,-14.3007)">
				<title>Sheet.516</title>
				<rect x="0" y="179.433" width="33.9408" height="2.64383" class="st4"/>
			</g>
			<g id="shape517-494" v:mID="517" v:groupContext="shape" transform="translate(32.6215,-16.9445)">
				<title>Sheet.517</title>
				<path d="M3.96 180.27 L2.04 180.27 L0 182.08" class="st6"/>
			</g>
			<g id="shape518-497" v:mID="518" v:groupContext="shape" transform="translate(38.1384,-18.7471)">
				<title>Sheet.518</title>
				<path d="M0 182.08 L6.48 182.08" class="st6"/>
			</g>
			<g id="shape519-500" v:mID="519" v:groupContext="shape" transform="translate(46.6536,-18.7471)">
				<title>Sheet.519</title>
				<path d="M0 182.08 L6 182.08" class="st6"/>
			</g>
			<g id="shape520-503" v:mID="520" v:groupContext="shape" transform="translate(54.5691,-18.7471)">
				<title>Sheet.520</title>
				<path d="M0 182.08 L6 182.08" class="st6"/>
			</g>
			<g id="shape521-506" v:mID="521" v:groupContext="shape" transform="translate(62.1248,-16.9445)">
				<title>Sheet.521</title>
				<path d="M0 180.27 L6.48 180.27 L4.44 182.08" class="st6"/>
			</g>
			<g id="shape522-509" v:mID="522" v:groupContext="shape" transform="translate(66.5623,-14.3007)">
				<title>Sheet.522</title>
				<path d="M0 182.08 L2.04 180.27 L2.04 177.63" class="st6"/>
			</g>
			<g id="shape523-512" v:mID="523" v:groupContext="shape" transform="translate(30.3428,0)">
				<title>Sheet.523</title>
				<path d="M1.56 143.74 L2.16 143.98 L2.76 144.46 L3.36 145.42 L3.84 146.5 L4.2 147.95 L4.44 149.63 L4.68 151.43 L4.68
							 153.35 L4.68 155.16 L4.44 156.96 L4.2 158.64 L3.84 160.08 L3.36 161.29 L2.76 162.13 L2.16 162.73 L1.56
							 162.85 L1.32 163.09 L0.96 163.57 L0.72 164.53 L0.48 165.73 L0.24 167.17 L0.12 168.74 L0 170.54 L0 172.46
							 L0.12 174.27 L0.24 176.07 L0.6 177.75 L0.96 179.19 L1.44 180.39 L1.92 181.24 L2.52 181.84 L3.12 181.96
							 L3 182.08 L3.24 182.08 L3.96 182.08 L4.68 182.08 L5.52 182.08 L6.12 182.08 L6.48 182.08 L6.36 181.96
							 L5.64 181.84 L5.16 181.24 L4.56 180.39 L4.08 179.19 L3.72 177.75 L3.36 176.07 L3.24 174.27 L3.12 172.46
							 L3.24 170.54 L3.36 168.74 L3.72 167.17 L4.08 165.73 L4.56 164.53 L5.16 163.57 L5.64 163.09 L6.36 162.85
							 L6.6 162.73 L6.96 162.13 L7.2 161.29 L7.44 160.08 L7.68 158.64 L7.8 156.96 L7.8 155.16 L7.92 153.35
							 L7.8 151.43 L7.68 149.63 L7.44 147.95 L7.2 146.5 L6.84 145.42 L6.48 144.46 L6 143.98 L5.52 143.74 L1.56
							 143.74 Z" class="st4"/>
			</g>
			<g id="shape524-514" v:mID="524" v:groupContext="shape" transform="translate(31.9019,-38.3355)">
				<title>Sheet.524</title>
				<path d="M4.8 182.08 L0 182.08" class="st8"/>
			</g>
			<g id="shape525-517" v:mID="525" v:groupContext="shape" transform="translate(31.9019,-0.120174)">
				<title>Sheet.525</title>
				<path d="M5.52 182.08 L0 182.08" class="st8"/>
			</g>
		</g>
		<g id="group611-520" transform="translate(400.094,-24.0483)" v:mID="611" v:groupContext="group">
			<title>Sheet.611</title>
			<g id="shape586-521" v:mID="586" v:groupContext="shape" transform="translate(50.6114,-13.4595)">
				<title>Sheet.586</title>
				<path d="M0 170.18 L0 167.9 L0.12 165.73 L0.36 163.69 L0.6 161.89 L0.96 160.32 L1.32 159.24 L1.8 158.64 L2.28 158.4
							 L2.64 158.64 L3.12 159.24 L3.48 160.32 L3.84 161.89 L4.08 163.69 L4.32 165.73 L4.44 167.9 L4.44 170.18
							 L4.44 172.58 L4.32 174.75 L4.08 176.79 L3.84 178.59 L3.48 180.03 L3.12 181.12 L2.64 181.84 L2.28 182.08
							 L1.8 181.84 L1.32 181.12 L0.96 180.03 L0.6 178.59 L0.36 176.79 L0.12 174.75 L0 172.58 L0 170.18 Z"
						class="st4"/>
			</g>
			<g id="shape587-523" v:mID="587" v:groupContext="shape" transform="translate(37.059,-13.4595)">
				<title>Sheet.587</title>
				<path d="M15.83 182.08 L0 182.08" class="st6"/>
			</g>
			<g id="shape588-526" v:mID="588" v:groupContext="shape" transform="translate(37.059,-37.1338)">
				<title>Sheet.588</title>
				<path d="M15.83 182.08 L0 182.08" class="st6"/>
			</g>
			<g id="shape589-529" v:mID="589" v:groupContext="shape" transform="translate(34.9002,-13.4595)">
				<title>Sheet.589</title>
				<path d="M2.16 158.4 L1.8 158.64 L1.32 159.24 L0.96 160.32 L0.6 161.89 L0.36 163.69 L0.12 165.73 L0 167.9 L0 170.18
							 L0 172.58 L0.12 174.75 L0.36 176.79 L0.6 178.59 L0.96 180.03 L1.32 181.12 L1.8 181.84 L2.16 182.08"
						class="st6"/>
			</g>
			<g id="shape590-532" v:mID="590" v:groupContext="shape" transform="translate(67.5218,-15.7428)">
				<title>Sheet.590</title>
				<path d="M0 173.06 L0 171.02 L0.12 169.1 L0.48 167.42 L0.84 165.97 L1.2 164.89 L1.68 164.29 L2.16 164.05 L2.64 164.29
							 L3.12 164.89 L3.6 165.97 L3.96 167.42 L4.2 169.1 L4.44 171.02 L4.44 173.06 L4.44 175.11 L4.2 177.03
							 L3.96 178.71 L3.6 180.15 L3.12 181.24 L2.64 181.84 L2.16 182.08 L1.68 181.84 L1.2 181.24 L0.84 180.15
							 L0.48 178.71 L0.12 177.03 L0 175.11 L0 173.06 Z" class="st4"/>
			</g>
			<g id="shape591-534" v:mID="591" v:groupContext="shape" transform="translate(2.79776E-014,-4.44644)">
				<title>Sheet.591</title>
				<rect x="0" y="150.471" width="31.4222" height="31.6058" class="st4"/>
			</g>
			<g id="shape592-536" v:mID="592" v:groupContext="shape" transform="translate(53.9695,-15.7428)">
				<title>Sheet.592</title>
				<path d="M15.71 182.08 L0 182.08" class="st6"/>
			</g>
			<g id="shape593-539" v:mID="593" v:groupContext="shape" transform="translate(31.4222,-36.0522)">
				<title>Sheet.593</title>
				<path d="M0 182.08 L8.99 175.35 L8.99 180.99" class="st6"/>
			</g>
			<g id="shape594-542" v:mID="594" v:groupContext="shape" transform="translate(31.4222,-4.44644)">
				<title>Sheet.594</title>
				<path d="M0 182.08 L8.99 175.35" class="st6"/>
			</g>
			<g id="shape595-545" v:mID="595" v:groupContext="shape" transform="translate(53.9695,-33.7689)">
				<title>Sheet.595</title>
				<path d="M15.71 182.08 L0 182.08" class="st6"/>
			</g>
			<g id="shape596-548" v:mID="596" v:groupContext="shape" transform="translate(51.6907,-15.7428)">
				<title>Sheet.596</title>
				<path d="M2.28 164.05 L1.8 164.29 L1.32 164.89 L0.84 165.97 L0.48 167.42 L0.24 169.1 L0.12 171.02 L0 173.06 L0.12
							 175.11 L0.24 177.03 L0.48 178.71 L0.84 180.15 L1.32 181.24 L1.8 181.84 L2.28 182.08" class="st6"/>
			</g>
			<g id="shape597-551" v:mID="597" v:groupContext="shape" transform="translate(8.99491,-42.7819)">
				<title>Sheet.597</title>
				<path d="M31.42 182.08 L0 182.08" class="st6"/>
			</g>
			<g id="shape598-554" v:mID="598" v:groupContext="shape" transform="translate(9.54237E-014,-36.0522)">
				<title>Sheet.598</title>
				<path d="M0 182.08 L8.99 175.35" class="st6"/>
			</g>
			<g id="shape599-557" v:mID="599" v:groupContext="shape" transform="translate(40.4171,-11.1762)">
				<title>Sheet.599</title>
				<path d="M0 182.08 L0 179.79" class="st6"/>
			</g>
			<g id="shape600-560" v:mID="600" v:groupContext="shape" transform="translate(67.5218,-24.7558)">
				<title>Sheet.600</title>
				<path d="M0 182.08 L2.16 182.08" class="st6"/>
			</g>
			<g id="shape601-563" v:mID="601" v:groupContext="shape" transform="translate(4.43749,0)">
				<title>Sheet.601</title>
				<path d="M0 177.63 L0 182.08 L2.28 182.08 L2.28 177.63" class="st6"/>
			</g>
			<g id="shape602-566" v:mID="602" v:groupContext="shape" transform="translate(22.4273,0)">
				<title>Sheet.602</title>
				<path d="M0 177.63 L0 182.08" class="st6"/>
			</g>
			<g id="shape603-569" v:mID="603" v:groupContext="shape" transform="translate(61.885,-23.6743)">
				<title>Sheet.603</title>
				<path d="M0 180.99 L0.12 180.39 L0.72 179.91 L1.44 179.91 L2.04 180.39 L2.16 180.99 L2.04 181.72 L1.44 182.08 L0.72
							 182.08 L0.12 181.72 L0 180.99 Z" class="st4"/>
			</g>
			<g id="shape604-571" v:mID="604" v:groupContext="shape" transform="translate(53.9695,-15.9831)">
				<title>Sheet.604</title>
				<rect x="0" y="164.531" width="2.03885" height="17.5454" class="st10"/>
			</g>
		</g>
		<g id="group612-573" transform="translate(22.3074,-134.488)" v:mID="612" v:groupContext="group">
			<title>Sheet.612</title>
			<g id="shape308-574" v:mID="308" v:groupContext="shape" transform="translate(7.99361E-015,-6.84992)">
				<title>Sheet.308</title>
				<rect x="0" y="147.346" width="34.0607" height="34.7303" class="st4"/>
			</g>
			<g id="shape309-576" v:mID="309" v:groupContext="shape" transform="translate(31.9019,-1.68244)">
				<title>Sheet.309</title>
				<path d="M0 176.91 L0 182.08" class="st6"/>
			</g>
			<g id="shape310-579" v:mID="310" v:groupContext="shape" transform="translate(26.7449,0)">
				<title>Sheet.310</title>
				<path d="M0 175.23 L0 182.08" class="st6"/>
			</g>
			<g id="shape311-582" v:mID="311" v:groupContext="shape" transform="translate(21.7077,0)">
				<title>Sheet.311</title>
				<path d="M0 175.23 L0 182.08" class="st6"/>
			</g>
			<g id="shape312-585" v:mID="312" v:groupContext="shape" transform="translate(16.5506,0)">
				<title>Sheet.312</title>
				<path d="M0 175.23 L0 182.08" class="st6"/>
			</g>
			<g id="shape313-588" v:mID="313" v:groupContext="shape" transform="translate(11.5135,0)">
				<title>Sheet.313</title>
				<path d="M0 175.23 L0 182.08" class="st6"/>
			</g>
			<g id="shape314-591" v:mID="314" v:groupContext="shape" transform="translate(6.3564,-1.68244)">
				<title>Sheet.314</title>
				<path d="M0 176.91 L0 182.08" class="st6"/>
			</g>
			<g id="shape315-594" v:mID="315" v:groupContext="shape" transform="translate(3.83783,-11.056)">
				<title>Sheet.315</title>
				<path d="M0 168.98 L0.12 166.45 L0.84 164.17 L1.92 162.01 L3.36 159.96 L5.16 158.4 L7.32 157.08 L9.59 156.24 L11.99
							 155.76 L14.39 155.76 L16.79 156.24 L19.07 157.08 L21.11 158.4 L22.91 159.96 L24.35 162.01 L25.43 164.17
							 L26.15 166.45 L26.39 168.98 L26.15 171.38 L25.43 173.66 L24.35 175.83 L22.91 177.87 L21.11 179.43 L19.07
							 180.75 L16.79 181.6 L14.39 182.08 L11.99 182.08 L9.59 181.6 L7.32 180.75 L5.16 179.43 L3.36 177.87 L1.92
							 175.83 L0.84 173.66 L0.12 171.38 L0 168.98 Z" class="st4"/>
			</g>
			<g id="shape316-596" v:mID="316" v:groupContext="shape" transform="translate(5.87667,-13.099)">
				<title>Sheet.316</title>
				<path d="M0 171.02 L0.24 168.86 L0.96 166.69 L1.92 164.77 L3.36 163.09 L4.92 161.77 L6.84 160.69 L8.99 160.08 L11.15
							 159.84 L13.31 160.08 L15.35 160.69 L17.27 161.77 L18.95 163.09 L20.27 164.77 L21.35 166.69 L21.95 168.86
							 L22.19 171.02 L21.95 173.06 L21.35 175.23 L20.27 177.15 L18.95 178.83 L17.27 180.15 L15.35 181.24 L13.31
							 181.84 L11.15 182.08 L8.99 181.84 L6.84 181.24 L4.92 180.15 L3.36 178.83 L1.92 177.15 L0.96 175.23 L0.24
							 173.06 L0 171.02 Z" class="st4"/>
			</g>
			<g id="shape317-598" v:mID="317" v:groupContext="shape" transform="translate(8.27532,-23.6743)">
				<title>Sheet.317</title>
				<rect x="0" y="180.154" width="1.91891" height="1.92278" class="st7"/>
			</g>
			<g id="shape318-600" v:mID="318" v:groupContext="shape" transform="translate(22.907,-23.5541)">
				<title>Sheet.318</title>
				<rect x="0" y="180.033" width="2.15878" height="2.04296" class="st7"/>
			</g>
			<g id="shape319-602" v:mID="319" v:groupContext="shape" transform="translate(15.951,-25.5971)">
				<title>Sheet.319</title>
				<rect x="0" y="177.75" width="2.15878" height="4.32626" class="st7"/>
			</g>
			<g id="shape320-604" v:mID="320" v:groupContext="shape" transform="translate(11.1537,-28.9619)">
				<title>Sheet.320</title>
				<rect x="0" y="180.154" width="1.91891" height="1.92278" class="st7"/>
			</g>
			<g id="shape321-606" v:mID="321" v:groupContext="shape" transform="translate(18.2297,-17.0647)">
				<title>Sheet.321</title>
				<rect x="0" y="180.154" width="2.03885" height="1.92278" class="st7"/>
			</g>
			<g id="shape322-608" v:mID="322" v:groupContext="shape" transform="translate(13.5523,-17.0647)">
				<title>Sheet.322</title>
				<rect x="0" y="180.154" width="1.91891" height="1.92278" class="st7"/>
			</g>
			<g id="shape323-610" v:mID="323" v:groupContext="shape" transform="translate(20.2685,-28.9619)">
				<title>Sheet.323</title>
				<rect x="0" y="180.154" width="1.91891" height="1.92278" class="st7"/>
			</g>
			<g id="shape324-612" v:mID="324" v:groupContext="shape" transform="translate(34.0607,-6.84992)">
				<title>Sheet.324</title>
				<path d="M0 147.35 L6.36 143.86 L6.36 178.59 L0 182.08" class="st6"/>
			</g>
			<g id="shape325-615" v:mID="325" v:groupContext="shape" transform="translate(7.99361E-015,-41.5802)">
				<title>Sheet.325</title>
				<path d="M0 182.08 L6.36 178.59 L40.42 178.59" class="st6"/>
			</g>
		</g>
		<g id="group613-618" transform="translate(103.262,-132.205)" v:mID="613" v:groupContext="group">
			<title>Sheet.613</title>
			<g id="shape326-619" v:mID="326" v:groupContext="shape" transform="translate(4.79616E-014,-9.01305)">
				<title>Sheet.326</title>
				<rect x="0" y="143.741" width="143.919" height="38.3355" class="st4"/>
			</g>
			<g id="shape327-621" v:mID="327" v:groupContext="shape" transform="translate(133.724,-24.7558)">
				<title>Sheet.327</title>
				<path d="M0 178.71 L0.24 177.51 L0.84 176.55 L1.8 175.71 L2.88 175.35 L3.96 175.35 L5.16 175.71 L6 176.55 L6.6 177.51
							 L6.84 178.71 L6.6 179.79 L6 180.87 L5.16 181.6 L3.96 182.08 L2.88 182.08 L1.8 181.6 L0.84 180.87 L0.24
							 179.79 L0 178.71 Z" class="st4"/>
			</g>
			<g id="shape328-623" v:mID="328" v:groupContext="shape" transform="translate(11.2736,-15.7428)">
				<title>Sheet.328</title>
				<path d="M4.68 159.6 L116.69 159.6 L117.89 159.72 L119.09 160.32 L120.05 161.17 L120.77 162.37 L121.25 163.69 L121.37
							 165.13 L121.25 167.78 L121.01 170.42 L120.41 172.82 L119.57 175.11 L118.73 177.15 L117.53 178.83 L116.33
							 180.27 L115.01 181.24 L113.58 181.84 L112.02 182.08 L9.35 182.08 L7.8 181.84 L6.48 181.24 L5.04 180.27
							 L3.84 178.83 L2.76 177.15 L1.8 175.11 L0.96 172.82 L0.48 170.42 L0.12 167.78 L0 165.13 L0 163.81 L0.24
							 162.37 L0.84 161.17 L1.56 160.32 L2.52 159.6 L3.6 159.36 L4.68 159.6 Z" class="st5"/>
			</g>
			<g id="shape329-625" v:mID="329" v:groupContext="shape" transform="translate(19.9087,-22.5927)">
				<title>Sheet.329</title>
				<path d="M0 180.15 L0.24 179.31 L0.72 178.59 L1.56 178.23 L2.4 178.23 L3.24 178.59 L3.72 179.31 L3.96 180.15 L3.72
							 180.99 L3.24 181.72 L2.4 182.08 L1.56 182.08 L0.72 181.72 L0.24 180.99 L0 180.15 Z" class="st4"/>
			</g>
			<g id="shape330-627" v:mID="330" v:groupContext="shape" transform="translate(28.9036,-22.5927)">
				<title>Sheet.330</title>
				<path d="M0 180.15 L0.24 179.31 L0.72 178.59 L1.56 178.23 L2.4 178.23 L3.24 178.59 L3.72 179.31 L3.96 180.15 L3.72
							 180.99 L3.24 181.72 L2.4 182.08 L1.56 182.08 L0.72 181.72 L0.24 180.99 L0 180.15 Z" class="st4"/>
			</g>
			<g id="shape331-629" v:mID="331" v:groupContext="shape" transform="translate(37.2989,-22.5927)">
				<title>Sheet.331</title>
				<path d="M0 180.15 L0.24 179.31 L0.84 178.59 L1.56 178.23 L2.52 178.23 L3.24 178.59 L3.84 179.31 L3.96 180.15 L3.84
							 180.99 L3.24 181.72 L2.52 182.08 L1.56 182.08 L0.84 181.72 L0.24 180.99 L0 180.15 Z" class="st4"/>
			</g>
			<g id="shape332-631" v:mID="332" v:groupContext="shape" transform="translate(46.2938,-22.5927)">
				<title>Sheet.332</title>
				<path d="M0 180.15 L0.24 179.31 L0.84 178.59 L1.56 178.23 L2.52 178.23 L3.24 178.59 L3.84 179.31 L3.96 180.15 L3.84
							 180.99 L3.24 181.72 L2.52 182.08 L1.56 182.08 L0.84 181.72 L0.24 180.99 L0 180.15 Z" class="st4"/>
			</g>
			<g id="shape333-633" v:mID="333" v:groupContext="shape" transform="translate(55.2887,-22.5927)">
				<title>Sheet.333</title>
				<path d="M0 180.15 L0.24 179.31 L0.84 178.59 L1.56 178.23 L2.52 178.23 L3.24 178.59 L3.84 179.31 L3.96 180.15 L3.84
							 180.99 L3.24 181.72 L2.52 182.08 L1.56 182.08 L0.84 181.72 L0.24 180.99 L0 180.15 Z" class="st4"/>
			</g>
			<g id="shape334-635" v:mID="334" v:groupContext="shape" transform="translate(63.8039,-22.5927)">
				<title>Sheet.334</title>
				<path d="M0 180.15 L0.12 179.31 L0.72 178.59 L1.56 178.23 L2.4 178.23 L3.12 178.59 L3.72 179.31 L3.96 180.15 L3.72
							 180.99 L3.12 181.72 L2.4 182.08 L1.56 182.08 L0.72 181.72 L0.12 180.99 L0 180.15 Z" class="st4"/>
			</g>
			<g id="shape335-637" v:mID="335" v:groupContext="shape" transform="translate(73.2785,-22.5927)">
				<title>Sheet.335</title>
				<path d="M0 180.15 L0.24 179.31 L0.84 178.59 L1.56 178.23 L2.52 178.23 L3.24 178.59 L3.84 179.31 L3.96 180.15 L3.84
							 180.99 L3.24 181.72 L2.52 182.08 L1.56 182.08 L0.84 181.72 L0.24 180.99 L0 180.15 Z" class="st4"/>
			</g>
			<g id="shape336-639" v:mID="336" v:groupContext="shape" transform="translate(82.3934,-22.5927)">
				<title>Sheet.336</title>
				<path d="M0 180.15 L0.12 179.31 L0.72 178.59 L1.44 178.23 L2.4 178.23 L3.12 178.59 L3.72 179.31 L3.84 180.15 L3.72
							 180.99 L3.12 181.72 L2.4 182.08 L1.44 182.08 L0.72 181.72 L0.12 180.99 L0 180.15 Z" class="st4"/>
			</g>
			<g id="shape337-641" v:mID="337" v:groupContext="shape" transform="translate(90.7886,-22.5927)">
				<title>Sheet.337</title>
				<path d="M0 180.15 L0.12 179.31 L0.72 178.59 L1.56 178.23 L2.4 178.23 L3.12 178.59 L3.72 179.31 L3.96 180.15 L3.72
							 180.99 L3.12 181.72 L2.4 182.08 L1.56 182.08 L0.72 181.72 L0.12 180.99 L0 180.15 Z" class="st4"/>
			</g>
			<g id="shape338-643" v:mID="338" v:groupContext="shape" transform="translate(100.383,-22.8331)">
				<title>Sheet.338</title>
				<path d="M0 180.15 L0.12 179.31 L0.72 178.59 L1.44 178.23 L2.4 178.23 L3.12 178.59 L3.72 179.31 L3.84 180.15 L3.72
							 180.99 L3.12 181.72 L2.4 182.08 L1.44 182.08 L0.72 181.72 L0.12 180.99 L0 180.15 Z" class="st4"/>
			</g>
			<g id="shape339-645" v:mID="339" v:groupContext="shape" transform="translate(109.378,-22.8331)">
				<title>Sheet.339</title>
				<path d="M0 180.15 L0.12 179.31 L0.72 178.59 L1.44 178.23 L2.4 178.23 L3.12 178.59 L3.72 179.31 L3.84 180.15 L3.72
							 180.99 L3.12 181.72 L2.4 182.08 L1.44 182.08 L0.72 181.72 L0.12 180.99 L0 180.15 Z" class="st4"/>
			</g>
			<g id="shape340-647" v:mID="340" v:groupContext="shape" transform="translate(117.773,-22.8331)">
				<title>Sheet.340</title>
				<path d="M0 180.15 L0.12 179.31 L0.72 178.59 L1.56 178.23 L2.4 178.23 L3.12 178.59 L3.72 179.31 L3.96 180.15 L3.72
							 180.99 L3.12 181.72 L2.4 182.08 L1.56 182.08 L0.72 181.72 L0.12 180.99 L0 180.15 Z" class="st4"/>
			</g>
			<g id="shape341-649" v:mID="341" v:groupContext="shape" transform="translate(15.7111,-29.3225)">
				<title>Sheet.341</title>
				<path d="M0 180.15 L0.24 179.31 L0.72 178.59 L1.56 178.23 L2.4 178.23 L3.24 178.59 L3.72 179.31 L3.96 180.15 L3.72
							 180.99 L3.24 181.72 L2.4 182.08 L1.56 182.08 L0.72 181.72 L0.24 180.99 L0 180.15 Z" class="st4"/>
			</g>
			<g id="shape342-651" v:mID="342" v:groupContext="shape" transform="translate(24.706,-29.3225)">
				<title>Sheet.342</title>
				<path d="M0 180.15 L0.24 179.31 L0.72 178.59 L1.56 178.23 L2.4 178.23 L3.24 178.59 L3.72 179.31 L3.96 180.15 L3.72
							 180.99 L3.24 181.72 L2.4 182.08 L1.56 182.08 L0.72 181.72 L0.24 180.99 L0 180.15 Z" class="st4"/>
			</g>
			<g id="shape343-653" v:mID="343" v:groupContext="shape" transform="translate(33.1013,-29.3225)">
				<title>Sheet.343</title>
				<path d="M0 180.15 L0.24 179.31 L0.72 178.59 L1.56 178.23 L2.4 178.23 L3.24 178.59 L3.72 179.31 L3.96 180.15 L3.72
							 180.99 L3.24 181.72 L2.4 182.08 L1.56 182.08 L0.72 181.72 L0.24 180.99 L0 180.15 Z" class="st4"/>
			</g>
			<g id="shape344-655" v:mID="344" v:groupContext="shape" transform="translate(42.0962,-29.3225)">
				<title>Sheet.344</title>
				<path d="M0 180.15 L0.24 179.31 L0.72 178.59 L1.56 178.23 L2.4 178.23 L3.24 178.59 L3.84 179.31 L3.96 180.15 L3.84
							 180.99 L3.24 181.72 L2.4 182.08 L1.56 182.08 L0.72 181.72 L0.24 180.99 L0 180.15 Z" class="st4"/>
			</g>
			<g id="shape345-657" v:mID="345" v:groupContext="shape" transform="translate(51.0911,-29.3225)">
				<title>Sheet.345</title>
				<path d="M0 180.15 L0.24 179.31 L0.72 178.59 L1.56 178.23 L2.4 178.23 L3.24 178.59 L3.84 179.31 L3.96 180.15 L3.84
							 180.99 L3.24 181.72 L2.4 182.08 L1.56 182.08 L0.72 181.72 L0.24 180.99 L0 180.15 Z" class="st4"/>
			</g>
			<g id="shape346-659" v:mID="346" v:groupContext="shape" transform="translate(59.6063,-29.3225)">
				<title>Sheet.346</title>
				<path d="M0 180.15 L0.12 179.31 L0.72 178.59 L1.44 178.23 L2.4 178.23 L3.12 178.59 L3.72 179.31 L3.84 180.15 L3.72
							 180.99 L3.12 181.72 L2.4 182.08 L1.44 182.08 L0.72 181.72 L0.12 180.99 L0 180.15 Z" class="st4"/>
			</g>
			<g id="shape347-661" v:mID="347" v:groupContext="shape" transform="translate(69.0809,-29.3225)">
				<title>Sheet.347</title>
				<path d="M0 180.15 L0.24 179.31 L0.84 178.59 L1.56 178.23 L2.4 178.23 L3.24 178.59 L3.84 179.31 L3.96 180.15 L3.84
							 180.99 L3.24 181.72 L2.4 182.08 L1.56 182.08 L0.84 181.72 L0.24 180.99 L0 180.15 Z" class="st4"/>
			</g>
			<g id="shape348-663" v:mID="348" v:groupContext="shape" transform="translate(78.0758,-29.3225)">
				<title>Sheet.348</title>
				<path d="M0 180.15 L0.24 179.31 L0.84 178.59 L1.56 178.23 L2.4 178.23 L3.24 178.59 L3.84 179.31 L3.96 180.15 L3.84
							 180.99 L3.24 181.72 L2.4 182.08 L1.56 182.08 L0.84 181.72 L0.24 180.99 L0 180.15 Z" class="st4"/>
			</g>
			<g id="shape349-665" v:mID="349" v:groupContext="shape" transform="translate(86.591,-29.3225)">
				<title>Sheet.349</title>
				<path d="M0 180.15 L0.12 179.31 L0.72 178.59 L1.44 178.23 L2.4 178.23 L3.12 178.59 L3.72 179.31 L3.84 180.15 L3.72
							 180.99 L3.12 181.72 L2.4 182.08 L1.44 182.08 L0.72 181.72 L0.12 180.99 L0 180.15 Z" class="st4"/>
			</g>
			<g id="shape350-667" v:mID="350" v:groupContext="shape" transform="translate(96.0656,-29.5628)">
				<title>Sheet.350</title>
				<path d="M0 180.15 L0.24 179.31 L0.84 178.59 L1.56 178.23 L2.4 178.23 L3.24 178.59 L3.84 179.31 L3.96 180.15 L3.84
							 180.99 L3.24 181.72 L2.4 182.08 L1.56 182.08 L0.84 181.72 L0.24 180.99 L0 180.15 Z" class="st4"/>
			</g>
			<g id="shape351-669" v:mID="351" v:groupContext="shape" transform="translate(105.061,-29.5628)">
				<title>Sheet.351</title>
				<path d="M0 180.15 L0.24 179.31 L0.84 178.59 L1.56 178.23 L2.4 178.23 L3.24 178.59 L3.84 179.31 L3.96 180.15 L3.84
							 180.99 L3.24 181.72 L2.4 182.08 L1.56 182.08 L0.84 181.72 L0.24 180.99 L0 180.15 Z" class="st4"/>
			</g>
			<g id="shape352-671" v:mID="352" v:groupContext="shape" transform="translate(113.576,-29.5628)">
				<title>Sheet.352</title>
				<path d="M0 180.15 L0.12 179.31 L0.72 178.59 L1.44 178.23 L2.4 178.23 L3.12 178.59 L3.72 179.31 L3.96 180.15 L3.72
							 180.99 L3.12 181.72 L2.4 182.08 L1.44 182.08 L0.72 181.72 L0.12 180.99 L0 180.15 Z" class="st4"/>
			</g>
			<g id="shape353-673" v:mID="353" v:groupContext="shape" transform="translate(121.971,-29.3225)">
				<title>Sheet.353</title>
				<path d="M0 180.15 L0.24 179.31 L0.72 178.59 L1.56 178.23 L2.4 178.23 L3.24 178.59 L3.72 179.31 L3.96 180.15 L3.72
							 180.99 L3.24 181.72 L2.4 182.08 L1.56 182.08 L0.72 181.72 L0.24 180.99 L0 180.15 Z" class="st4"/>
			</g>
			<g id="shape354-675" v:mID="354" v:groupContext="shape" transform="translate(17.9898,5.68434E-014)">
				<title>Sheet.354</title>
				<path d="M0 173.06 L0 182.08" class="st6"/>
			</g>
			<g id="shape355-678" v:mID="355" v:groupContext="shape" transform="translate(22.4273,-2.28331)">
				<title>Sheet.355</title>
				<path d="M0 175.35 L0 182.08" class="st6"/>
			</g>
			<g id="shape356-681" v:mID="356" v:groupContext="shape" transform="translate(26.9847,5.68434E-014)">
				<title>Sheet.356</title>
				<path d="M0 173.06 L0 182.08" class="st6"/>
			</g>
			<g id="shape357-684" v:mID="357" v:groupContext="shape" transform="translate(31.4222,-2.28331)">
				<title>Sheet.357</title>
				<path d="M0 175.35 L0 182.08" class="st6"/>
			</g>
			<g id="shape358-687" v:mID="358" v:groupContext="shape" transform="translate(35.9796,5.68434E-014)">
				<title>Sheet.358</title>
				<path d="M0 173.06 L0 182.08" class="st6"/>
			</g>
			<g id="shape359-690" v:mID="359" v:groupContext="shape" transform="translate(40.4171,-2.28331)">
				<title>Sheet.359</title>
				<path d="M0 175.35 L0 182.08" class="st6"/>
			</g>
			<g id="shape360-693" v:mID="360" v:groupContext="shape" transform="translate(44.9745,5.68434E-014)">
				<title>Sheet.360</title>
				<path d="M0 173.06 L0 182.08" class="st6"/>
			</g>
			<g id="shape361-696" v:mID="361" v:groupContext="shape" transform="translate(49.412,-2.28331)">
				<title>Sheet.361</title>
				<path d="M0 175.35 L0 182.08" class="st6"/>
			</g>
			<g id="shape362-699" v:mID="362" v:groupContext="shape" transform="translate(53.9695,5.68434E-014)">
				<title>Sheet.362</title>
				<path d="M0 173.06 L0 182.08" class="st6"/>
			</g>
			<g id="shape363-702" v:mID="363" v:groupContext="shape" transform="translate(58.4069,-2.28331)">
				<title>Sheet.363</title>
				<path d="M0 175.35 L0 182.08" class="st6"/>
			</g>
			<g id="shape364-705" v:mID="364" v:groupContext="shape" transform="translate(62.9644,5.68434E-014)">
				<title>Sheet.364</title>
				<path d="M0 173.06 L0 182.08" class="st6"/>
			</g>
			<g id="shape365-708" v:mID="365" v:groupContext="shape" transform="translate(67.4018,-2.28331)">
				<title>Sheet.365</title>
				<path d="M0 175.35 L0 182.08" class="st6"/>
			</g>
			<g id="shape366-711" v:mID="366" v:groupContext="shape" transform="translate(71.9593,5.68434E-014)">
				<title>Sheet.366</title>
				<path d="M0 173.06 L0 182.08" class="st6"/>
			</g>
			<g id="shape367-714" v:mID="367" v:groupContext="shape" transform="translate(76.3968,-2.28331)">
				<title>Sheet.367</title>
				<path d="M0 175.35 L0 182.08" class="st6"/>
			</g>
			<g id="shape368-717" v:mID="368" v:groupContext="shape" transform="translate(80.9542,5.68434E-014)">
				<title>Sheet.368</title>
				<path d="M0 173.06 L0 182.08" class="st6"/>
			</g>
			<g id="shape369-720" v:mID="369" v:groupContext="shape" transform="translate(85.3917,-2.28331)">
				<title>Sheet.369</title>
				<path d="M0 175.35 L0 182.08" class="st6"/>
			</g>
			<g id="shape370-723" v:mID="370" v:groupContext="shape" transform="translate(89.9491,5.68434E-014)">
				<title>Sheet.370</title>
				<path d="M0 173.06 L0 182.08" class="st6"/>
			</g>
			<g id="shape371-726" v:mID="371" v:groupContext="shape" transform="translate(94.3866,-2.28331)">
				<title>Sheet.371</title>
				<path d="M0 175.35 L0 182.08" class="st6"/>
			</g>
			<g id="shape372-729" v:mID="372" v:groupContext="shape" transform="translate(98.944,5.68434E-014)">
				<title>Sheet.372</title>
				<path d="M0 173.06 L0 182.08" class="st6"/>
			</g>
			<g id="shape373-732" v:mID="373" v:groupContext="shape" transform="translate(103.381,-2.28331)">
				<title>Sheet.373</title>
				<path d="M0 175.35 L0 182.08" class="st6"/>
			</g>
			<g id="shape374-735" v:mID="374" v:groupContext="shape" transform="translate(107.939,5.68434E-014)">
				<title>Sheet.374</title>
				<path d="M0 173.06 L0 182.08" class="st6"/>
			</g>
			<g id="shape375-738" v:mID="375" v:groupContext="shape" transform="translate(112.376,-2.28331)">
				<title>Sheet.375</title>
				<path d="M0 175.35 L0 182.08" class="st6"/>
			</g>
			<g id="shape376-741" v:mID="376" v:groupContext="shape" transform="translate(116.934,5.68434E-014)">
				<title>Sheet.376</title>
				<path d="M0 173.06 L0 182.08" class="st6"/>
			</g>
			<g id="shape377-744" v:mID="377" v:groupContext="shape" transform="translate(121.371,-2.28331)">
				<title>Sheet.377</title>
				<path d="M0 175.35 L0 182.08" class="st6"/>
			</g>
			<g id="shape378-747" v:mID="378" v:groupContext="shape" transform="translate(125.929,5.68434E-014)">
				<title>Sheet.378</title>
				<path d="M0 173.06 L0 182.08" class="st6"/>
			</g>
			<g id="shape379-750" v:mID="379" v:groupContext="shape" transform="translate(3.3581,-23.6743)">
				<title>Sheet.379</title>
				<path d="M0 178.71 L0.24 177.63 L0.72 176.55 L1.68 175.83 L2.76 175.35 L3.96 175.35 L5.04 175.83 L6 176.55 L6.48
							 177.63 L6.72 178.71 L6.48 179.91 L6 180.87 L5.04 181.72 L3.96 182.08 L2.76 182.08 L1.68 181.72 L0.72
							 180.87 L0.24 179.91 L0 178.71 Z" class="st4"/>
			</g>
			<g id="shape380-752" v:mID="380" v:groupContext="shape" transform="translate(6.39488E-014,-9.01305)">
				<title>Sheet.380</title>
				<path d="M0 143.74 L2.16 141.58 L146.2 141.58 L146.2 175.35 L152.91 168.62 L152.91 173.06 L143.92 182.08"
						class="st6"/>
			</g>
			<g id="shape381-755" v:mID="381" v:groupContext="shape" transform="translate(146.197,-22.4725)">
				<title>Sheet.381</title>
				<path d="M6.72 182.08 L0 182.08" class="st6"/>
			</g>
			<g id="shape382-758" v:mID="382" v:groupContext="shape" transform="translate(134.924,-25.3567)">
				<title>Sheet.382</title>
				<path d="M2.28 175.95 L1.44 176.19 L0.84 176.79 L0.36 177.63 L0 178.71 L0 179.91 L0.72 180.75 L1.68 181.48 L2.76
							 181.96 L3.96 182.08" class="st6"/>
			</g>
			<g id="shape383-761" v:mID="383" v:groupContext="shape" transform="translate(143.919,-47.3486)">
				<title>Sheet.383</title>
				<path d="M0 182.08 L2.28 179.91" class="st6"/>
			</g>
			<g id="shape384-764" v:mID="384" v:groupContext="shape" transform="translate(4.43749,-24.5155)">
				<title>Sheet.384</title>
				<path d="M2.28 176.19 L1.56 176.31 L0.96 176.79 L0.48 177.63 L0.12 178.47 L0 179.55 L0.12 180.39 L0.6 181.24 L1.32
							 181.84 L2.4 182.08 L3.48 182.08 L4.56 181.84" class="st6"/>
			</g>
		</g>
	</g>
</svg>
