<?xml version="1.0" encoding="UTF-8" standalone="no"?>
<!DOCTYPE svg PUBLIC "-//W3C//DTD SVG 1.1//EN" "http://www.w3.org/Graphics/SVG/1.1/DTD/svg11.dtd">
<!-- Generated by Microsoft Visio, SVG Export Wrapper.svg Page-1 -->
<svg xmlns="http://www.w3.org/2000/svg" xmlns:xlink="http://www.w3.org/1999/xlink" xmlns:ev="http://www.w3.org/2001/xml-events"
		xmlns:v="http://schemas.microsoft.com/visio/2003/SVGExtensions/" width="4.01016in" height="2.44792in"
		viewBox="0 0 288.731 176.25" xml:space="preserve" color-interpolation-filters="sRGB" class="st18">
	<v:documentProperties v:langID="1033" v:viewMarkup="false"/>

	<style type="text/css">
	<![CDATA[
		.st1 {fill:none;stroke:#000000;stroke-linecap:round;stroke-linejoin:round;stroke-width:0.75}
		.st2 {fill:none;stroke:#ff0000;stroke-linecap:round;stroke-linejoin:round;stroke-width:0.72}
		.st3 {stroke:#000000;stroke-linecap:round;stroke-linejoin:round;stroke-width:0.72}
		.st4 {fill:#000000;font-family:Arial;font-size:0.833336em;font-style:italic}
		.st5 {fill:#000000;font-family:Arial;font-size:0.666664em}
		.st6 {stroke:#00b0f0;stroke-linecap:round;stroke-linejoin:round;stroke-width:0.74268}
		.st7 {stroke:#000000;stroke-linecap:round;stroke-linejoin:round;stroke-width:0.74268}
		.st8 {stroke:none;stroke-linecap:round;stroke-linejoin:round;stroke-width:0.75}
		.st9 {fill:#000000;stroke:#000000;stroke-linecap:round;stroke-linejoin:round;stroke-width:0.24}
		.st10 {stroke:#000000;stroke-linecap:round;stroke-linejoin:round;stroke-width:0.75}
		.st11 {fill:none;stroke:none;stroke-linecap:round;stroke-linejoin:round;stroke-width:0.75}
		.st12 {fill:#00b0f0;font-family:Calibri;font-size:1.00001em}
		.st13 {fill:#ff0000;font-family:Calibri;font-size:1.00001em}
		.st14 {fill:#000000;font-family:Calibri;font-size:1.00001em}
		.st15 {fill:#7030a0;font-family:Calibri;font-size:1.00001em}
		.st16 {fill:#00b050;font-family:Arial;font-size:0.833336em;font-style:italic;font-weight:bold}
		.st17 {fill:#00b050;font-family:Calibri;font-size:1.00001em;font-style:italic;font-weight:bold}
		.st18 {fill:none;fill-rule:evenodd;font-size:12px;overflow:visible;stroke-linecap:square;stroke-miterlimit:3}
	]]>
	</style>

	<g v:mID="0" v:index="1" v:groupContext="foregroundPage">
		<title>Page-1</title>
		<v:pageProperties v:drawingScale="1" v:pageScale="1" v:drawingUnits="19" v:shadowOffsetX="9" v:shadowOffsetY="-9"/>
		<g id="shape59-1" v:mID="59" v:groupContext="shape" transform="translate(13.86,-0.375)">
			<title>Sheet.59</title>
			<rect x="0" y="0.750001" width="261" height="175.5" class="st1"/>
		</g>
		<g id="shape2-3" v:mID="2" v:groupContext="shape" transform="translate(36.0921,-43.1594)">
			<title>Sheet.2</title>
			<path d="M27 92.67 L27 160.81 L0 176.25 L0 77.25 L27 92.67 Z" class="st2"/>
		</g>
		<g id="shape3-5" v:mID="3" v:groupContext="shape" transform="translate(36.0921,223.841) rotate(180)">
			<title>Sheet.3</title>
			<path d="M0 176.25 L35.73 176.25" class="st3"/>
		</g>
		<g id="shape4-8" v:mID="4" v:groupContext="shape" transform="translate(2.34214,-34.1594)">
			<title>Sheet.4</title>
			<path d="M42.75 162.75 L42.75 176.25 L0 176.25" class="st3"/>
		</g>
		<g id="shape5-11" v:mID="5" v:groupContext="shape" transform="translate(2.34214,-20.6594)">
			<title>Sheet.5</title>
			<path d="M51.75 143.61 L51.75 176.25 L0 176.25" class="st3"/>
		</g>
		<g id="shape6-14" v:mID="6" v:groupContext="shape" transform="translate(63.0921,-92.6594)">
			<title>Sheet.6</title>
			<path d="M108.27 176.25 L21.14 176.25 L0 176.25" class="st3"/>
		</g>
		<g id="shape7-17" v:mID="7" v:groupContext="shape" transform="translate(27.36,-126.375)">
			<title>Sheet.7</title>
			<desc>I3</desc>
			<v:textBlock v:margins="rect(0,0,0,0)"/>
			<v:textRect cx="9" cy="172.875" width="18" height="6.75"/>
			<text x="9.66" y="175.88" class="st4" v:langID="1033"><v:paragraph v:horizAlign="2"/><v:tabList/>I3</text>		</g>
		<g id="shape8-19" v:mID="8" v:groupContext="shape" transform="translate(45.36,-54.375)">
			<title>Sheet.8</title>
			<desc>S0</desc>
			<v:textBlock v:margins="rect(0,0,0,0)"/>
			<v:textRect cx="7.875" cy="172.875" width="15.75" height="6.75"/>
			<text x="2.98" y="175.27" class="st5" v:langID="1033"><v:paragraph v:horizAlign="1"/><v:tabList/>S0</text>		</g>
		<g id="shape9-21" v:mID="9" v:groupContext="shape" transform="translate(36.36,-49.875)">
			<title>Sheet.9</title>
			<desc>S1</desc>
			<v:textBlock v:margins="rect(0,0,0,0)"/>
			<v:textRect cx="7.875" cy="172.875" width="15.75" height="6.75"/>
			<text x="2.98" y="175.27" class="st5" v:langID="1033"><v:paragraph v:horizAlign="1"/><v:tabList/>S1</text>		</g>
		<g id="shape10-23" v:mID="10" v:groupContext="shape" transform="translate(36.0921,246.341) rotate(180)">
			<title>Sheet.10</title>
			<path d="M0 176.25 L35.73 176.25" class="st3"/>
		</g>
		<g id="shape11-26" v:mID="11" v:groupContext="shape" transform="translate(27.36,-103.875)">
			<title>Sheet.11</title>
			<desc>I2</desc>
			<v:textBlock v:margins="rect(0,0,0,0)"/>
			<v:textRect cx="9" cy="172.875" width="18" height="6.75"/>
			<text x="9.66" y="175.88" class="st4" v:langID="1033"><v:paragraph v:horizAlign="2"/><v:tabList/>I2</text>		</g>
		<g id="shape12-28" v:mID="12" v:groupContext="shape" transform="translate(36.0921,268.841) rotate(180)">
			<title>Sheet.12</title>
			<path d="M0 176.25 L35.73 176.25" class="st3"/>
		</g>
		<g id="shape13-31" v:mID="13" v:groupContext="shape" transform="translate(27.36,-81.375)">
			<title>Sheet.13</title>
			<desc>I1</desc>
			<v:textBlock v:margins="rect(0,0,0,0)"/>
			<v:textRect cx="9" cy="172.875" width="18" height="6.75"/>
			<text x="9.66" y="175.88" class="st4" v:langID="1033"><v:paragraph v:horizAlign="2"/><v:tabList/>I1</text>		</g>
		<g id="shape14-33" v:mID="14" v:groupContext="shape" transform="translate(36.0921,291.341) rotate(180)">
			<title>Sheet.14</title>
			<path d="M0 176.25 L35.73 176.25" class="st3"/>
		</g>
		<g id="shape15-36" v:mID="15" v:groupContext="shape" transform="translate(27.36,-58.875)">
			<title>Sheet.15</title>
			<desc>I0</desc>
			<v:textBlock v:margins="rect(0,0,0,0)"/>
			<v:textRect cx="9" cy="172.875" width="18" height="6.75"/>
			<text x="9.66" y="175.88" class="st4" v:langID="1033"><v:paragraph v:horizAlign="2"/><v:tabList/>I0</text>		</g>
		<g id="shape16-38" v:mID="16" v:groupContext="shape" transform="translate(207.092,-47.6594)">
			<title>Sheet.16</title>
			<path d="M0 176.25 L42.75 176.25 L42.75 86.25 L0 86.25 L0 176.25 L0 176.25" class="st6"/>
		</g>
		<g id="shape17-41" v:mID="17" v:groupContext="shape" transform="translate(171.092,-119.659)">
			<title>Sheet.17</title>
			<path d="M36 176.25 L0 176.25" class="st7"/>
		</g>
		<g id="shape18-44" v:mID="18" v:groupContext="shape" transform="translate(209.342,-88.1594)">
			<title>Sheet.18</title>
			<desc>I1</desc>
			<v:textBlock v:margins="rect(0,0,0,0)"/>
			<v:textRect cx="9" cy="171.75" width="18" height="9"/>
			<path d="M18 167.25 L0 167.25 L0 176.25 L18 176.25 L18 167.25" class="st8"/>
			<text x="0" y="174.75" class="st4" v:langID="1033"><v:paragraph/><v:tabList/>I1</text>		</g>
		<g id="shape19-48" v:mID="19" v:groupContext="shape" transform="translate(209.342,-74.6594)">
			<title>Sheet.19</title>
			<desc>I0</desc>
			<v:textBlock v:margins="rect(0,0,0,0)"/>
			<v:textRect cx="9" cy="171.75" width="18" height="9"/>
			<path d="M18 167.25 L0 167.25 L0 176.25 L18 176.25 L18 167.25" class="st8"/>
			<text x="0" y="174.75" class="st4" v:langID="1033"><v:paragraph/><v:tabList/>I0</text>		</g>
		<g id="shape20-52" v:mID="20" v:groupContext="shape" transform="translate(229.592,-124.159)">
			<title>Sheet.20</title>
			<desc>Y3</desc>
			<v:textBlock v:margins="rect(0,0,0,0)"/>
			<v:textRect cx="9" cy="171.75" width="18" height="9"/>
			<path d="M18 167.25 L0 167.25 L0 176.25 L18 176.25 L18 167.25" class="st8"/>
			<text x="5.77" y="174.75" class="st4" v:langID="1033"><v:paragraph v:horizAlign="2"/><v:tabList/>Y3</text>		</g>
		<g id="shape21-56" v:mID="21" v:groupContext="shape" transform="translate(229.592,-101.659)">
			<title>Sheet.21</title>
			<desc>Y2</desc>
			<v:textBlock v:margins="rect(0,0,0,0)"/>
			<v:textRect cx="9" cy="171.75" width="18" height="9"/>
			<path d="M18 167.25 L0 167.25 L0 176.25 L18 176.25 L18 167.25" class="st8"/>
			<text x="5.77" y="174.75" class="st4" v:langID="1033"><v:paragraph v:horizAlign="2"/><v:tabList/>Y2</text>		</g>
		<g id="shape22-60" v:mID="22" v:groupContext="shape" transform="translate(184.86,-92.6594)">
			<title>Sheet.22</title>
			<path d="M22.23 176.25 L0 176.25" class="st7"/>
		</g>
		<g id="shape23-63" v:mID="23" v:groupContext="shape" transform="translate(249.842,-83.6594)">
			<title>Sheet.23</title>
			<path d="M38.52 176.25 L0 176.25" class="st7"/>
		</g>
		<g id="shape24-66" v:mID="24" v:groupContext="shape" transform="translate(249.842,-128.659)">
			<title>Sheet.24</title>
			<path d="M38.52 176.25 L0 176.25" class="st7"/>
		</g>
		<g id="shape25-69" v:mID="25" v:groupContext="shape" transform="translate(249.842,-106.159)">
			<title>Sheet.25</title>
			<path d="M38.52 176.25 L0 176.25" class="st7"/>
		</g>
		<g id="shape26-72" v:mID="26" v:groupContext="shape" transform="translate(209.342,-115.181)">
			<title>Sheet.26</title>
			<desc>EN</desc>
			<v:textBlock v:margins="rect(0,0,0,0)"/>
			<v:textRect cx="9" cy="171.75" width="18" height="9"/>
			<path d="M18 167.25 L0 167.25 L0 176.25 L18 176.25 L18 167.25" class="st8"/>
			<text x="0" y="174.75" class="st4" v:langID="1033"><v:paragraph/><v:tabList/>EN</text>		</g>
		<g id="shape27-76" v:mID="27" v:groupContext="shape" transform="translate(229.592,-76.9094)">
			<title>Sheet.27</title>
			<desc>Y1</desc>
			<v:textBlock v:margins="rect(0,0,0,0)"/>
			<v:textRect cx="9" cy="171.75" width="18" height="9"/>
			<path d="M18 167.25 L0 167.25 L0 176.25 L18 176.25 L18 167.25" class="st8"/>
			<text x="5.77" y="174.75" class="st4" v:langID="1033"><v:paragraph v:horizAlign="2"/><v:tabList/>Y1</text>		</g>
		<g id="shape28-80" v:mID="28" v:groupContext="shape" transform="translate(249.842,-61.1594)">
			<title>Sheet.28</title>
			<path d="M38.52 176.25 L0 176.25" class="st7"/>
		</g>
		<g id="shape29-83" v:mID="29" v:groupContext="shape" transform="translate(229.592,-54.4094)">
			<title>Sheet.29</title>
			<desc>Y0</desc>
			<v:textBlock v:margins="rect(0,0,0,0)"/>
			<v:textRect cx="9" cy="171.75" width="18" height="9"/>
			<path d="M18 167.25 L0 167.25 L0 176.25 L18 176.25 L18 167.25" class="st8"/>
			<text x="5.77" y="174.75" class="st4" v:langID="1033"><v:paragraph v:horizAlign="2"/><v:tabList/>Y0</text>		</g>
		<g id="shape30-87" v:mID="30" v:groupContext="shape" transform="translate(69.8421,318.341) rotate(180)">
			<title>Sheet.30</title>
			<path d="M0 176.25 L24.75 176.25" class="st3"/>
		</g>
		<g id="shape31-90" v:mID="31" v:groupContext="shape" transform="translate(76.5921,331.841) rotate(180)">
			<title>Sheet.31</title>
			<path d="M0 176.25 L22.5 176.25" class="st3"/>
		</g>
		<g id="shape32-93" v:mID="32" v:groupContext="shape" transform="translate(246.357,100.48) rotate(90.3593)">
			<title>Sheet.32</title>
			<path d="M0 176.25 L42.72 176.25" class="st3"/>
		</g>
		<g id="shape33-96" v:mID="33" v:groupContext="shape" transform="translate(252.842,117.375) rotate(90)">
			<title>Sheet.33</title>
			<path d="M0 176.25 L38.22 176.25" class="st3"/>
		</g>
		<g id="shape34-99" v:mID="34" v:groupContext="shape" transform="translate(85.86,275.625) rotate(180)">
			<title>Sheet.34</title>
			<path d="M0 176.25 L15.75 176.25" class="st3"/>
		</g>
		<g id="shape35-102" v:mID="35" v:groupContext="shape" transform="translate(86.1546,293.625) rotate(180)">
			<title>Sheet.35</title>
			<path d="M0 176.25 L9.56 176.25" class="st3"/>
		</g>
		<g id="shape37-105" v:mID="37" v:groupContext="shape" transform="translate(53.2484,-19.8156)">
			<title>Circle.12</title>
			<v:userDefs>
				<v:ud v:nameU="visVersion" v:val="VT0(11):26"/>
			</v:userDefs>
			<path d="M0 175.41 a0.84375 0.84375 0 0 1 1.6875 0 a0.84375 0.84375 0 1 1 -1.6875 0 Z" class="st9"/>
		</g>
		<g id="shape38-107" v:mID="38" v:groupContext="shape" transform="translate(44.2484,-33.3156)">
			<title>Circle.40</title>
			<v:userDefs>
				<v:ud v:nameU="visVersion" v:val="VT0(11):26"/>
			</v:userDefs>
			<path d="M0 175.41 a0.84375 0.84375 0 0 1 1.6875 0 a0.84375 0.84375 0 1 1 -1.6875 0 Z" class="st9"/>
		</g>
		<g id="shape41-109" v:mID="41" v:groupContext="shape" transform="translate(195.842,-79.1594)">
			<title>Sheet.41</title>
			<path d="M11.25 176.25 L0 176.25" class="st7"/>
		</g>
		<g id="shape42-112" v:mID="42" v:groupContext="shape" transform="translate(347.61,56.5906) rotate(90)">
			<title>Sheet.42</title>
			<path d="M0 176.25 L27 176.25" class="st3"/>
		</g>
		<g id="shape43-115" v:mID="43" v:groupContext="shape" transform="translate(361.11,83.5906) rotate(90)">
			<title>Sheet.43</title>
			<path d="M0 176.25 L15.78 176.25" class="st3"/>
		</g>
		<g id="shape53-118" v:mID="53" v:groupContext="shape" transform="translate(184.86,275.625) rotate(180)">
			<title>Sheet.53</title>
			<path d="M0 176.25 L99 176.25" class="st10"/>
		</g>
		<g id="shape54-121" v:mID="54" v:groupContext="shape" transform="translate(85.86,-58.875)">
			<title>Sheet.54</title>
			<path d="M0 176.25 L109.69 176.25" class="st10"/>
		</g>
		<g id="shape55-124" v:mID="55" v:groupContext="shape" transform="translate(372.074,99.6505) rotate(90.8322)">
			<title>Sheet.55</title>
			<path d="M0 176.25 L20.29 176.25" class="st10"/>
		</g>
		<g id="shape56-127" v:mID="56" v:groupContext="shape" transform="translate(202.592,-133.375)">
			<title>Sheet.56</title>
			<desc>demux</desc>
			<v:textBlock v:margins="rect(4,4,4,4)"/>
			<v:textRect cx="25.875" cy="166.25" width="51.76" height="20"/>
			<rect x="0" y="156.25" width="51.75" height="20" class="st11"/>
			<text x="9.19" y="169.85" class="st12" v:langID="1033"><v:paragraph v:horizAlign="1"/><v:tabList/>demux</text>		</g>
		<g id="shape58-130" v:mID="58" v:groupContext="shape" transform="translate(23.7171,-137.875)">
			<title>Sheet.58</title>
			<desc>mux</desc>
			<v:textBlock v:margins="rect(4,4,4,4)"/>
			<v:textRect cx="25.875" cy="166.25" width="51.76" height="20"/>
			<rect x="0" y="156.25" width="51.75" height="20" class="st11"/>
			<text x="15.33" y="169.85" class="st13" v:langID="1033"><v:paragraph v:horizAlign="1"/><v:tabList/>mux</text>		</g>
		<g id="shape60-133" v:mID="60" v:groupContext="shape" transform="translate(111.735,-155.875)">
			<title>Sheet.60</title>
			<desc>wrapper</desc>
			<v:textBlock v:margins="rect(4,4,4,4)"/>
			<v:textRect cx="25.875" cy="166.25" width="51.76" height="20"/>
			<rect x="0" y="156.25" width="51.75" height="20" class="st11"/>
			<text x="5.24" y="169.85" class="st14" v:langID="1033"><v:paragraph v:horizAlign="1"/><v:tabList/>wrapper</text>		</g>
		<g id="shape62-136" v:mID="62" v:groupContext="shape" transform="translate(116.66,-89.375)">
			<title>Sheet.62</title>
			<desc>sdata</desc>
			<v:textBlock v:margins="rect(4,4,4,4)"/>
			<v:textRect cx="18" cy="166.25" width="36" height="20"/>
			<rect x="0" y="156.25" width="36" height="20" class="st11"/>
			<text x="4.74" y="169.85" class="st15" v:langID="1033"><v:paragraph v:horizAlign="1"/><v:tabList/>sdata</text>		</g>
		<g id="shape66-139" v:mID="66" v:groupContext="shape" transform="translate(7.11,-130.875)">
			<title>Sheet.66</title>
			<desc>I3</desc>
			<v:textBlock v:margins="rect(0,0,0,0)"/>
			<v:textRect cx="9" cy="172.875" width="18" height="6.75"/>
			<text x="9.66" y="175.88" class="st16" v:langID="1033"><v:paragraph v:horizAlign="2"/><v:tabList/>I3</text>		</g>
		<g id="shape67-141" v:mID="67" v:groupContext="shape" transform="translate(7.11,-108.375)">
			<title>Sheet.67</title>
			<desc>I2</desc>
			<v:textBlock v:margins="rect(0,0,0,0)"/>
			<v:textRect cx="9" cy="172.875" width="18" height="6.75"/>
			<text x="9.66" y="175.88" class="st16" v:langID="1033"><v:paragraph v:horizAlign="2"/><v:tabList/>I2</text>		</g>
		<g id="shape68-143" v:mID="68" v:groupContext="shape" transform="translate(7.11,-85.875)">
			<title>Sheet.68</title>
			<desc>I1</desc>
			<v:textBlock v:margins="rect(0,0,0,0)"/>
			<v:textRect cx="9" cy="172.875" width="18" height="6.75"/>
			<text x="9.66" y="175.88" class="st16" v:langID="1033"><v:paragraph v:horizAlign="2"/><v:tabList/>I1</text>		</g>
		<g id="shape69-145" v:mID="69" v:groupContext="shape" transform="translate(7.11,-63.375)">
			<title>Sheet.69</title>
			<desc>I0</desc>
			<v:textBlock v:margins="rect(0,0,0,0)"/>
			<v:textRect cx="9" cy="172.875" width="18" height="6.75"/>
			<text x="9.66" y="175.88" class="st16" v:langID="1033"><v:paragraph v:horizAlign="2"/><v:tabList/>I0</text>		</g>
		<g id="shape70-147" v:mID="70" v:groupContext="shape" transform="translate(254.61,-128.625)">
			<title>Sheet.70</title>
			<desc>Y3</desc>
			<v:textBlock v:margins="rect(0,0,0,0)"/>
			<v:textRect cx="9" cy="171.75" width="18" height="9"/>
			<path d="M18 167.25 L0 167.25 L0 176.25 L18 176.25 L18 167.25" class="st8"/>
			<text x="5.77" y="174.75" class="st16" v:langID="1033"><v:paragraph v:horizAlign="2"/><v:tabList/>Y3</text>		</g>
		<g id="shape71-151" v:mID="71" v:groupContext="shape" transform="translate(254.61,-106.125)">
			<title>Sheet.71</title>
			<desc>Y2</desc>
			<v:textBlock v:margins="rect(0,0,0,0)"/>
			<v:textRect cx="9" cy="171.75" width="18" height="9"/>
			<path d="M18 167.25 L0 167.25 L0 176.25 L18 176.25 L18 167.25" class="st8"/>
			<text x="5.77" y="174.75" class="st16" v:langID="1033"><v:paragraph v:horizAlign="2"/><v:tabList/>Y2</text>		</g>
		<g id="shape72-155" v:mID="72" v:groupContext="shape" transform="translate(254.61,-83.625)">
			<title>Sheet.72</title>
			<desc>Y1</desc>
			<v:textBlock v:margins="rect(0,0,0,0)"/>
			<v:textRect cx="9" cy="171.75" width="18" height="9"/>
			<path d="M18 167.25 L0 167.25 L0 176.25 L18 176.25 L18 167.25" class="st8"/>
			<text x="5.77" y="174.75" class="st16" v:langID="1033"><v:paragraph v:horizAlign="2"/><v:tabList/>Y1</text>		</g>
		<g id="shape73-159" v:mID="73" v:groupContext="shape" transform="translate(254.61,-61.125)">
			<title>Sheet.73</title>
			<desc>Y0</desc>
			<v:textBlock v:margins="rect(0,0,0,0)"/>
			<v:textRect cx="9" cy="171.75" width="18" height="9"/>
			<path d="M18 167.25 L0 167.25 L0 176.25 L18 176.25 L18 167.25" class="st8"/>
			<text x="5.77" y="174.75" class="st16" v:langID="1033"><v:paragraph v:horizAlign="2"/><v:tabList/>Y0</text>		</g>
		<g id="shape74-163" v:mID="74" v:groupContext="shape" transform="translate(4.86,-29.875)">
			<title>Sheet.74</title>
			<desc>S1</desc>
			<v:textBlock v:margins="rect(4,4,4,4)"/>
			<v:textRect cx="18" cy="166.25" width="36" height="20"/>
			<rect x="0" y="156.25" width="36" height="20" class="st11"/>
			<text x="12.17" y="169.85" class="st17" v:langID="1033"><v:paragraph v:horizAlign="1"/><v:tabList/>S1</text>		</g>
		<g id="shape75-166" v:mID="75" v:groupContext="shape" transform="translate(4.86,-15.125)">
			<title>Sheet.75</title>
			<desc>S0</desc>
			<v:textBlock v:margins="rect(4,4,4,4)"/>
			<v:textRect cx="18" cy="166.25" width="36" height="20"/>
			<rect x="0" y="156.25" width="36" height="20" class="st11"/>
			<text x="12.17" y="169.85" class="st17" v:langID="1033"><v:paragraph v:horizAlign="1"/><v:tabList/>S0</text>		</g>
		<g id="shape76-169" v:mID="76" v:groupContext="shape" transform="translate(43.11,-89.2844)">
			<title>Sheet.76</title>
			<desc>Y</desc>
			<v:textBlock v:margins="rect(0,0,0,0)"/>
			<v:textRect cx="9" cy="172.875" width="18" height="6.75"/>
			<text x="11.33" y="175.88" class="st4" v:langID="1033"><v:paragraph v:horizAlign="2"/><v:tabList/>Y</text>		</g>
	</g>
</svg>
