<?xml version="1.0" encoding="UTF-8" standalone="no"?>
<!DOCTYPE svg PUBLIC "-//W3C//DTD SVG 1.1//EN" "http://www.w3.org/Graphics/SVG/1.1/DTD/svg11.dtd">
<!-- Generated by Microsoft Visio, SVG Export ClockDivider.svg Page-1 -->
<svg xmlns="http://www.w3.org/2000/svg" xmlns:xlink="http://www.w3.org/1999/xlink" xmlns:ev="http://www.w3.org/2001/xml-events"
		xmlns:v="http://schemas.microsoft.com/visio/2003/SVGExtensions/" width="4.41146in" height="2.44363in"
		viewBox="0 0 317.625 175.941" xml:space="preserve" color-interpolation-filters="sRGB" class="st14">
	<v:documentProperties v:langID="1033" v:viewMarkup="false"/>

	<style type="text/css">
	<![CDATA[
		.st1 {fill:#b7ccf7;stroke:none;stroke-linecap:round;stroke-linejoin:round;stroke-width:0.24}
		.st2 {fill:#000000;font-family:Arial;font-size:0.666664em}
		.st3 {stroke:#000000;stroke-linecap:round;stroke-linejoin:round;stroke-width:2.25}
		.st4 {fill:#000000;font-family:Arial;font-size:0.75em}
		.st5 {stroke:#000000;stroke-linecap:round;stroke-linejoin:round;stroke-width:0.72}
		.st6 {stroke:#000000;stroke-linecap:round;stroke-linejoin:round;stroke-width:0.75}
		.st7 {fill:#fddeb0;stroke:none;stroke-linecap:round;stroke-linejoin:round;stroke-width:0.24}
		.st8 {fill:none;stroke:none;stroke-linecap:round;stroke-linejoin:round;stroke-width:0.72}
		.st9 {fill:#000000;font-family:Arial;font-size:0.833336em}
		.st10 {fill:#ffffff;stroke:#000000;stroke-linecap:round;stroke-linejoin:round;stroke-width:0.75}
		.st11 {fill:#000000;font-family:Calibri;font-size:1.00001em}
		.st12 {fill:#d5e1fb;stroke:#000000;stroke-linecap:round;stroke-linejoin:round;stroke-width:0.24}
		.st13 {fill:#ffffff;stroke:#000000;stroke-linecap:round;stroke-linejoin:round;stroke-width:0.72}
		.st14 {fill:none;fill-rule:evenodd;font-size:12px;overflow:visible;stroke-linecap:square;stroke-miterlimit:3}
	]]>
	</style>

	<g v:mID="0" v:index="1" v:groupContext="foregroundPage">
		<title>Page-1</title>
		<v:pageProperties v:drawingScale="1" v:pageScale="1" v:drawingUnits="19" v:shadowOffsetX="9" v:shadowOffsetY="-9"/>
		<g id="shape13-1" v:mID="13" v:groupContext="shape" transform="translate(40.875,-92.5712)">
			<title>Rectangle</title>
			<desc>Counter</desc>
			<v:userDefs>
				<v:ud v:nameU="visVersion" v:val="VT0(11):26"/>
			</v:userDefs>
			<v:textBlock v:margins="rect(4,4,4,4)" v:verticalAlign="0"/>
			<v:textRect cx="22.5" cy="134.316" width="45" height="83.25"/>
			<rect x="0" y="92.6912" width="45" height="83.25" class="st1"/>
			<text x="4" y="103.89" class="st2" v:langID="1033"><v:paragraph/><v:tabList/>Counter</text>		</g>
		<g id="shape14-4" v:mID="14" v:groupContext="shape" transform="translate(85.875,-133.634)">
			<title>Sheet.14</title>
			<path d="M0 175.94 L30.75 175.94" class="st3"/>
		</g>
		<g id="shape15-7" v:mID="15" v:groupContext="shape" transform="translate(72.375,-126.419)">
			<title>Sheet.15</title>
			<desc>Q</desc>
			<v:textBlock v:margins="rect(0,0,0,0)"/>
			<v:textRect cx="6.75" cy="168.726" width="13.5" height="14.4302"/>
			<text x="3.25" y="171.43" class="st4" v:langID="1033"><v:paragraph v:horizAlign="1"/><v:tabList/>Q</text>		</g>
		<g id="shape16-9" v:mID="16" v:groupContext="shape" transform="translate(45.4882,-111.891)">
			<title>Sheet.16</title>
			<desc>clk</desc>
			<v:textBlock v:margins="rect(0,0,0,0)"/>
			<v:textRect cx="8.94341" cy="168.726" width="17.89" height="14.4302"/>
			<text x="3.44" y="171.43" class="st4" v:langID="1033"><v:paragraph v:horizAlign="1"/><v:tabList/>clk</text>		</g>
		<g id="shape17-11" v:mID="17" v:groupContext="shape" transform="translate(54.4316,-92.5712)">
			<title>Sheet.17</title>
			<desc>rst</desc>
			<v:textBlock v:margins="rect(0,0,0,0)"/>
			<v:textRect cx="8.94341" cy="172.004" width="17.89" height="7.875"/>
			<text x="3.94" y="174.7" class="st4" v:langID="1033"><v:paragraph v:horizAlign="1"/><v:tabList/>rst</text>		</g>
		<g id="shape18-13" v:mID="18" v:groupContext="shape" transform="translate(40.875,-115.071)">
			<title>Sheet.18</title>
			<path d="M0 175.94 L6.75 171.44 L0 166.94" class="st5"/>
		</g>
		<g id="shape19-16" v:mID="19" v:groupContext="shape" transform="translate(22.875,-71.9955)">
			<title>Sheet.19</title>
			<path d="M18 128.37 L0 128.37 L0 175.94" class="st6"/>
		</g>
		<g id="shape20-19" v:mID="20" v:groupContext="shape" transform="translate(117.375,-96.9639)">
			<title>Sheet.20</title>
			<rect x="0" y="130.727" width="40.5" height="45.2145" class="st7"/>
		</g>
		<g id="shape21-21" v:mID="21" v:groupContext="shape" transform="translate(114,-126.321)">
			<title>Sheet.21</title>
			<desc>A</desc>
			<v:textBlock v:margins="rect(4,4,4,4)"/>
			<v:textRect cx="9" cy="169.191" width="18" height="13.5"/>
			<rect x="0" y="162.441" width="18" height="13.5" class="st8"/>
			<text x="5.67" y="172.19" class="st9" v:langID="1033"><v:paragraph v:horizAlign="1"/><v:tabList/>A</text>		</g>
		<g id="shape22-24" v:mID="22" v:groupContext="shape" transform="translate(114,-103.821)">
			<title>Sheet.22</title>
			<desc>B</desc>
			<v:textBlock v:margins="rect(4,4,4,4)"/>
			<v:textRect cx="9" cy="169.191" width="18" height="13.5"/>
			<rect x="0" y="162.441" width="18" height="13.5" class="st8"/>
			<text x="5.67" y="172.19" class="st9" v:langID="1033"><v:paragraph v:horizAlign="1"/><v:tabList/>B</text>		</g>
		<g id="shape23-27" v:mID="23" v:groupContext="shape" transform="translate(105.125,-88.0712)">
			<title>Sheet.23</title>
			<path d="M0 175.94 L0 153.44 L12.25 153.44" class="st3"/>
		</g>
		<g id="shape24-30" v:mID="24" v:groupContext="shape" transform="translate(97.125,-74.5712)">
			<title>Sheet.24</title>
			<desc>Constant</desc>
			<v:textBlock v:margins="rect(4,4,4,4)"/>
			<v:textRect cx="27.5625" cy="169.191" width="55.13" height="13.5"/>
			<rect x="0" y="162.441" width="55.125" height="13.5" class="st10"/>
			<text x="5.65" y="172.79" class="st11" v:langID="1033"><v:paragraph v:horizAlign="1"/><v:tabList/>Constant</text>		</g>
		<g id="shape25-33" v:mID="25" v:groupContext="shape" transform="translate(143.25,-112.356)">
			<title>Sheet.25</title>
			<desc>EQ</desc>
			<v:textBlock v:margins="rect(0,0,0,0)"/>
			<v:textRect cx="6.75" cy="168.726" width="13.5" height="14.4302"/>
			<text x="0.25" y="171.43" class="st4" v:langID="1033"><v:paragraph v:horizAlign="1"/><v:tabList/>EQ</text>		</g>
		<g id="shape36-35" v:mID="36" v:groupContext="shape" transform="translate(226.5,-9.375)">
			<title>Rectangle.36</title>
			<rect x="0" y="100.62" width="40.5" height="75.3212" class="st12"/>
		</g>
		<g id="shape37-37" v:mID="37" v:groupContext="shape" transform="translate(217.5,-36.375)">
			<title>Sheet.37</title>
			<path d="M0 175.94 L9 175.94" class="st5"/>
		</g>
		<g id="shape38-40" v:mID="38" v:groupContext="shape" transform="translate(217.5,-59.6649)">
			<title>Sheet.38</title>
			<path d="M0 175.94 L9 175.94" class="st5"/>
		</g>
		<g id="shape39-43" v:mID="39" v:groupContext="shape" transform="translate(267,-58.875)">
			<title>Sheet.39</title>
			<path d="M0 175.94 L47.25 175.94" class="st5"/>
		</g>
		<g id="shape40-46" v:mID="40" v:groupContext="shape" transform="translate(224.25,-52.125)">
			<title>Sheet.40</title>
			<desc>D</desc>
			<v:textBlock v:margins="rect(4,4,4,4)"/>
			<v:textRect cx="9" cy="169.191" width="18" height="13.5"/>
			<rect x="0" y="162.441" width="18" height="13.5" class="st8"/>
			<text x="5.39" y="172.19" class="st9" v:langID="1033"><v:paragraph v:horizAlign="1"/><v:tabList/>D</text>		</g>
		<g id="shape41-49" v:mID="41" v:groupContext="shape" transform="translate(251.25,-52.125)">
			<title>Sheet.41</title>
			<desc>Q</desc>
			<v:textBlock v:margins="rect(4,4,4,4)"/>
			<v:textRect cx="9" cy="169.191" width="18" height="13.5"/>
			<rect x="0" y="162.441" width="18" height="13.5" class="st8"/>
			<text x="5.11" y="172.19" class="st9" v:langID="1033"><v:paragraph v:horizAlign="1"/><v:tabList/>Q</text>		</g>
		<g id="shape42-52" v:mID="42" v:groupContext="shape" transform="translate(228.75,-29.625)">
			<title>Sheet.42</title>
			<desc>Clk</desc>
			<v:textBlock v:margins="rect(4,4,4,4)"/>
			<v:textRect cx="14.625" cy="169.191" width="29.25" height="13.5"/>
			<rect x="0" y="162.441" width="29.25" height="13.5" class="st8"/>
			<text x="7.4" y="172.19" class="st9" v:langID="1033"><v:paragraph v:horizAlign="1"/><v:tabList/>Clk</text>		</g>
		<g id="shape43-55" v:mID="43" v:groupContext="shape" transform="translate(235.5,-9.375)">
			<title>Sheet.43</title>
			<desc>Rst</desc>
			<v:textBlock v:margins="rect(4,4,4,4)"/>
			<v:textRect cx="11.8125" cy="171.441" width="23.63" height="9"/>
			<rect x="0" y="166.941" width="23.625" height="9" class="st8"/>
			<text x="4.31" y="174.44" class="st9" v:langID="1033"><v:paragraph v:horizAlign="1"/><v:tabList/>Rst</text>		</g>
		<g id="shape44-58" v:mID="44" v:groupContext="shape" transform="translate(226.5,-31.875)">
			<title>Sheet.44</title>
			<path d="M0 175.94 L6.75 171.44 L0 166.94" class="st5"/>
		</g>
		<g id="shape45-61" v:mID="45" v:groupContext="shape" transform="translate(208.5,-59.6649)">
			<title>Sheet.45</title>
			<path d="M0 175.94 L9 175.94" class="st5"/>
		</g>
		<g id="shape46-64" v:mID="46" v:groupContext="shape" transform="translate(196.426,285.467) scale(1,-1)">
			<title>Sheet.46</title>
			<path d="M0 162.44 L0 175.94 L11.72 169.1 L0 162.44 ZM11.72 169.1 L12.08 170.18 L12.98 170.72 L13.89 170.72 L14.79 170.18
						 L15.15 169.1 L14.79 168.2 L13.89 167.48 L12.98 167.48 L12.08 168.2 L11.72 169.1 Z" class="st13"/>
		</g>
		<g id="shape47-66" v:mID="47" v:groupContext="shape" transform="translate(179.25,-59.7317)">
			<title>Sheet.47</title>
			<path d="M103.5 175.94 L103.5 138.6 L0 138.6" class="st6"/>
		</g>
		<g id="shape48-69" v:mID="48" v:groupContext="shape" transform="translate(179.25,-59.9088)">
			<title>Sheet.48</title>
			<path d="M0 138.78 L0 175.94 L17.18 175.94" class="st6"/>
		</g>
		<g id="shape49-72" v:mID="49" v:groupContext="shape" transform="translate(217.5,315.507) rotate(180)">
			<title>Sheet.49</title>
			<path d="M0 175.94 L24.75 175.94" class="st6"/>
		</g>
		<g id="shape50-75" v:mID="50" v:groupContext="shape" transform="translate(70.8088,175.566) rotate(-90)">
			<title>Sheet.50</title>
			<path d="M0 175.94 L9 175.94" class="st6"/>
		</g>
		<g id="shape54-78" v:mID="54" v:groupContext="shape" transform="translate(234.375,-71.1962)">
			<title>Sheet.54</title>
			<desc>En</desc>
			<v:textBlock v:margins="rect(4,4,4,4)"/>
			<v:textRect cx="11.8125" cy="169.191" width="23.63" height="13.5"/>
			<rect x="0" y="162.441" width="23.625" height="13.5" class="st8"/>
			<text x="5.7" y="172.19" class="st9" v:langID="1033"><v:paragraph v:horizAlign="1"/><v:tabList/>En</text>		</g>
		<g id="shape55-81" v:mID="55" v:groupContext="shape" transform="translate(157.875,-120.696)">
			<title>Sheet.55</title>
			<path d="M0 175.94 L88.87 175.94" class="st6"/>
		</g>
		<g id="shape56-84" v:mID="56" v:groupContext="shape" transform="translate(70.8088,91.245) rotate(-90)">
			<title>Sheet.56</title>
			<path d="M0 175.94 L36 175.94" class="st6"/>
		</g>
		<g id="shape57-87" v:mID="57" v:groupContext="shape" transform="translate(192.75,315.507) rotate(180)">
			<title>Sheet.57</title>
			<path d="M0 175.94 L192.37 175.94" class="st6"/>
		</g>
		<g id="shape58-90" v:mID="58" v:groupContext="shape" transform="translate(198.816,103.946) rotate(90)">
			<title>Sheet.58</title>
			<path d="M0 175.94 L35.62 175.94" class="st6"/>
		</g>
		<g id="shape59-93" v:mID="59" v:groupContext="shape" transform="translate(246.75,351.507) rotate(180)">
			<title>Sheet.59</title>
			<path d="M0 175.94 L183.37 175.94" class="st6"/>
		</g>
		<g id="shape60-96" v:mID="60" v:groupContext="shape" transform="translate(0.375,-0.375)">
			<title>Sheet.60</title>
			<path d="M63 83.74 L63 175.94 L0 175.94" class="st6"/>
		</g>
		<g id="shape61-99" v:mID="61" v:groupContext="shape" transform="translate(106.125,-142.071)">
			<title>Sheet.61</title>
			<desc>Comparator</desc>
			<v:textBlock v:margins="rect(4,4,4,4)"/>
			<v:textRect cx="31.5" cy="169.191" width="63" height="13.5"/>
			<rect x="0" y="162.441" width="63" height="13.5" class="st8"/>
			<text x="5.1" y="172.19" class="st9" v:langID="1033"><v:paragraph v:horizAlign="1"/><v:tabList/>Comparator</text>		</g>
		<g id="shape62-102" v:mID="62" v:groupContext="shape" transform="translate(0.375,-36.3212)">
			<title>Sheet.62</title>
			<desc>clk</desc>
			<v:textBlock v:margins="rect(0,0,0,0)"/>
			<v:textRect cx="8.94341" cy="168.726" width="17.89" height="14.4302"/>
			<text x="3.44" y="171.43" class="st4" v:langID="1033"><v:paragraph v:horizAlign="1"/><v:tabList/>clk</text>		</g>
		<g id="shape63-104" v:mID="63" v:groupContext="shape" transform="translate(0.375,-0.375)">
			<title>Sheet.63</title>
			<desc>rst</desc>
			<v:textBlock v:margins="rect(0,0,0,0)"/>
			<v:textRect cx="8.94341" cy="168.726" width="17.89" height="14.4302"/>
			<text x="3.94" y="171.43" class="st4" v:langID="1033"><v:paragraph v:horizAlign="1"/><v:tabList/>rst</text>		</g>
		<g id="shape64-106" v:mID="64" v:groupContext="shape" transform="translate(285.113,-55.4633)">
			<title>Sheet.64</title>
			<desc>clk_div</desc>
			<v:textBlock v:margins="rect(0,0,0,0)"/>
			<v:textRect cx="16.2559" cy="168.726" width="32.52" height="14.4302"/>
			<text x="2.5" y="171.43" class="st4" v:langID="1033"><v:paragraph v:horizAlign="1"/><v:tabList/>clk_div</text>		</g>
	</g>
</svg>
