<?xml version="1.0" encoding="UTF-8" standalone="no"?>
<!DOCTYPE svg PUBLIC "-//W3C//DTD SVG 1.1//EN" "http://www.w3.org/Graphics/SVG/1.1/DTD/svg11.dtd">
<!-- Generated by Microsoft Visio, SVG Export StateDiagram.svg Page-1 -->
<svg xmlns="http://www.w3.org/2000/svg" xmlns:xlink="http://www.w3.org/1999/xlink" xmlns:ev="http://www.w3.org/2001/xml-events"
		xmlns:v="http://schemas.microsoft.com/visio/2003/SVGExtensions/" width="2.42521in" height="1.66983in"
		viewBox="0 0 174.615 120.227" xml:space="preserve" color-interpolation-filters="sRGB" class="st18">
	<v:documentProperties v:langID="1033" v:viewMarkup="false"/>

	<style type="text/css">
	<![CDATA[
		.st1 {marker-end:url(#mrkr4-6);stroke:#9a9a9a;stroke-linecap:round;stroke-linejoin:round;stroke-width:2.16}
		.st2 {fill:#9a9a9a;fill-opacity:1;stroke:#9a9a9a;stroke-opacity:1;stroke-width:0.6}
		.st3 {marker-end:url(#mrkr4-12);stroke:#333333;stroke-linecap:round;stroke-linejoin:round;stroke-width:2.16}
		.st4 {fill:#333333;fill-opacity:1;stroke:#333333;stroke-opacity:1;stroke-width:0.54545454545455}
		.st5 {fill:#abe0ae;stroke:#000000;stroke-linecap:round;stroke-linejoin:round;stroke-width:0.24}
		.st6 {fill:none;stroke:none;stroke-linecap:round;stroke-linejoin:round;stroke-width:0.72}
		.st7 {fill:#000000;font-family:Arial;font-size:1.00001em;font-weight:bold}
		.st8 {font-size:0.916665em;font-weight:normal}
		.st9 {marker-end:url(#mrkr4-24);stroke:#333333;stroke-linecap:round;stroke-linejoin:round;stroke-width:2.16}
		.st10 {fill:#000000;font-family:Arial;font-size:0.833336em}
		.st11 {fill:#000000;font-family:Arial;font-size:0.833336em;font-weight:bold}
		.st12 {fill:#9a9a9a;stroke:none;stroke-linecap:round;stroke-linejoin:round;stroke-width:0.24}
		.st13 {fill:#f7f788;stroke:none;stroke-linecap:round;stroke-linejoin:round;stroke-width:0.24}
		.st14 {fill:#000000;font-family:Arial;font-size:0.666664em}
		.st15 {font-size:1em}
		.st16 {marker-end:url(#mrkr4-50);stroke:#f7f788;stroke-linecap:round;stroke-linejoin:round;stroke-width:2.16}
		.st17 {fill:#f7f788;fill-opacity:1;stroke:#f7f788;stroke-opacity:1;stroke-width:0.6}
		.st18 {fill:none;fill-rule:evenodd;font-size:12px;overflow:visible;stroke-linecap:square;stroke-miterlimit:3}
	]]>
	</style>

	<defs id="Markers">
		<g id="lend4">
			<path d="M 2 1 L 0 0 L 2 -1 L 2 1 " style="stroke:none"/>
		</g>
		<marker id="mrkr4-6" class="st2" v:arrowType="4" v:arrowSize="0" v:setback="3.33333" refX="-3.3333333333333" orient="auto"
				markerUnits="strokeWidth" overflow="visible">
			<use xlink:href="#lend4" transform="scale(-1.6666666666667,-1.6666666666667) "/>
		</marker>
		<marker id="mrkr4-12" class="st4" v:arrowType="4" v:arrowSize="1" v:setback="3.5" refX="-3.5" orient="auto"
				markerUnits="strokeWidth" overflow="visible">
			<use xlink:href="#lend4" transform="scale(-1.8333333333333,-1.8333333333333) "/>
		</marker>
		<marker id="mrkr4-24" class="st4" v:arrowType="4" v:arrowSize="1" v:setback="3.66667" refX="-3.6666666666667" orient="auto"
				markerUnits="strokeWidth" overflow="visible">
			<use xlink:href="#lend4" transform="scale(-1.8333333333333,-1.8333333333333) "/>
		</marker>
		<marker id="mrkr4-50" class="st17" v:arrowType="4" v:arrowSize="0" v:setback="3.33333" refX="-3.3333333333333"
				orient="auto" markerUnits="strokeWidth" overflow="visible">
			<use xlink:href="#lend4" transform="scale(-1.6666666666667,-1.6666666666667) "/>
		</marker>
	</defs>
	<g v:mID="0" v:index="1" v:groupContext="foregroundPage">
		<title>Page-1</title>
		<v:pageProperties v:drawingScale="1" v:pageScale="1" v:drawingUnits="19" v:shadowOffsetX="9" v:shadowOffsetY="-9"/>
		<g id="shape1-1" v:mID="1" v:groupContext="shape" transform="translate(122.65,-23.1762) rotate(39.8056)">
			<title>Sheet.1</title>
			<path d="M0 120.23 L5.98 120.23" class="st1"/>
		</g>
		<g id="shape2-7" v:mID="2" v:groupContext="shape" transform="translate(52.8485,-89.8548)">
			<title>Sheet.2</title>
			<path d="M23.09 108.98 C20.84 102.23 17.68 100.34 14.89 99.42 C9.63 97.7 5.65 99.41 3.19 101.36 C1.05 103.05 0.07 104.92
						 0 108.75 C-0.02 110.35 0.11 112.29 2.02 114.44 C2.7 115.2 3.6 115.99 6.7 117.36 L7.04 117.49" class="st3"/>
		</g>
		<g id="shape3-13" v:mID="3" v:groupContext="shape" transform="translate(65.37,-58.3548)">
			<title>Circle.20</title>
			<path d="M0 97.73 A22.5 22.5 0 0 1 45 97.73 A22.5 22.5 0 1 1 0 97.73 Z" class="st5"/>
		</g>
		<g id="shape4-15" v:mID="4" v:groupContext="shape" transform="translate(66.495,-76.3548)">
			<title>Sheet.4</title>
			<desc>S0 0 0 0</desc>
			<v:textBlock v:margins="rect(4,4,4,4)"/>
			<v:textRect cx="21.375" cy="115.727" width="42.75" height="9"/>
			<rect x="0" y="111.227" width="42.75" height="9" class="st6"/>
			<text x="14.04" y="112.73" class="st7" v:langID="1033"><v:paragraph v:horizAlign="1"/><v:tabList/>S0<v:newlineChar/><tspan
						x="9.14" dy="1.227em" class="st8">0 0 0</tspan></text>		</g>
		<g id="shape5-19" v:mID="5" v:groupContext="shape" transform="translate(208.097,61.8727) rotate(90)">
			<title>Sheet.5</title>
			<path d="M0 120.23 L41.58 120.23" class="st9"/>
		</g>
		<g id="shape6-25" v:mID="6" v:groupContext="shape" transform="translate(48.495,-33.6048)">
			<title>Sheet.6</title>
			<desc>A = &#39;1&#39;</desc>
			<v:textBlock v:margins="rect(4,4,4,4)"/>
			<v:textRect cx="19.125" cy="115.727" width="38.25" height="9"/>
			<rect x="0" y="111.227" width="38.25" height="9" class="st6"/>
			<text x="6.8" y="118.73" class="st10" v:langID="1033"><v:paragraph v:horizAlign="2"/><v:tabList/>A = &#39;1&#39;</text>		</g>
		<g id="shape7-28" v:mID="7" v:groupContext="shape" transform="translate(7.995,-89.8548)">
			<title>Sheet.7</title>
			<desc>A = &#39;0&#39;</desc>
			<v:textBlock v:margins="rect(4,4,4,4)"/>
			<v:textRect cx="22.5" cy="115.727" width="45" height="9"/>
			<rect x="0" y="111.227" width="45" height="9" class="st6"/>
			<text x="13.55" y="118.73" class="st10" v:langID="1033"><v:paragraph v:horizAlign="2"/><v:tabList/>A = &#39;0&#39;</text>		</g>
		<g id="shape8-31" v:mID="8" v:groupContext="shape" transform="translate(95.745,-53.8548)">
			<title>Sheet.8</title>
			<desc>Y &#60;= &#39;1&#39;</desc>
			<v:textBlock v:margins="rect(4,4,4,4)"/>
			<v:textRect cx="24.75" cy="115.727" width="49.5" height="9"/>
			<rect x="0" y="111.227" width="49.5" height="9" class="st6"/>
			<text x="11.28" y="118.73" class="st11" v:langID="1033"><v:paragraph v:horizAlign="2"/><v:tabList/>Y &#60;= &#39;1&#39;</text>		</g>
		<g id="shape9-34" v:mID="9" v:groupContext="shape" transform="translate(127.586,165.216) rotate(179.301)">
			<title>Sheet.9</title>
			<path d="M0 120.23 L15.86 120.23" class="st1"/>
		</g>
		<g id="shape10-39" v:mID="10" v:groupContext="shape" transform="translate(126.12,-67.3548)">
			<title>Rounded rectangle.435</title>
			<v:userDefs>
				<v:ud v:nameU="visVersion" v:val="VT0(11):26"/>
			</v:userDefs>
			<path d="M20.25 120.23 A4.50003 4.50003 -180 0 0 24.75 115.73 L24.75 108.98 A4.50003 4.50003 -180 0 0 20.25 104.48 L4.5
						 104.48 A4.50003 4.50003 -180 0 0 0 108.98 L0 115.73 A4.50003 4.50003 -180 0 0 4.5 120.23 L20.25 120.23 Z"
					class="st12"/>
		</g>
		<g id="shape11-41" v:mID="11" v:groupContext="shape" transform="translate(124.995,-68.4798)">
			<title>Rounded rectangle.436</title>
			<desc>State code</desc>
			<v:userDefs>
				<v:ud v:nameU="visVersion" v:val="VT0(11):26"/>
			</v:userDefs>
			<v:textBlock v:margins="rect(4,0,2,0)"/>
			<v:textRect cx="12.375" cy="112.352" width="24.75" height="15.75"/>
			<path d="M20.25 120.23 A4.50003 4.50003 -180 0 0 24.75 115.73 L24.75 108.98 A4.50003 4.50003 -180 0 0 20.25 104.48 L4.5
						 104.48 A4.50003 4.50003 -180 0 0 0 108.98 L0 115.73 A4.50003 4.50003 -180 0 0 4.5 120.23 L20.25 120.23 Z"
					class="st13"/>
			<text x="3.04" y="111.55" class="st14" v:langID="1033"><v:paragraph v:spLine="-0.9" v:horizAlign="1"/><v:tabList/>State <tspan
						x="3.7" dy="0.9em" class="st15">code</tspan></text>		</g>
		<g id="shape12-45" v:mID="12" v:groupContext="shape" transform="translate(124.995,164.1) rotate(180)">
			<title>Sheet.12</title>
			<path d="M0 120.23 L15.3 120.23" class="st16"/>
		</g>
		<g id="shape13-51" v:mID="13" v:groupContext="shape" transform="translate(164.338,133.304) rotate(157.166)">
			<title>Sheet.13</title>
			<path d="M0 120.23 L15.99 120.23" class="st1"/>
		</g>
		<g id="shape14-56" v:mID="14" v:groupContext="shape" transform="translate(117.12,-94.3548)">
			<title>Rounded rectangle.28</title>
			<v:userDefs>
				<v:ud v:nameU="visVersion" v:val="VT0(11):26"/>
			</v:userDefs>
			<path d="M37.12 120.23 A4.50003 4.50003 -180 0 0 41.63 115.73 L41.62 104.48 A4.50003 4.50003 -180 0 0 37.12 99.98 L4.5
						 99.98 A4.50003 4.50003 -180 0 0 0 104.48 L0 115.73 A4.50003 4.50003 -180 0 0 4.5 120.23 L37.12 120.23 Z"
					class="st12"/>
		</g>
		<g id="shape15-58" v:mID="15" v:groupContext="shape" transform="translate(115.995,-95.4798)">
			<title>Rounded rectangle.29</title>
			<desc>State label (optional)</desc>
			<v:userDefs>
				<v:ud v:nameU="visVersion" v:val="VT0(11):26"/>
			</v:userDefs>
			<v:textBlock v:margins="rect(4,0,4,0)"/>
			<v:textRect cx="20.8125" cy="110.102" width="41.63" height="20.25"/>
			<path d="M37.12 120.23 A4.50003 4.50003 -180 0 0 41.63 115.73 L41.62 104.48 A4.50003 4.50003 -180 0 0 37.12 99.98 L4.5
						 99.98 A4.50003 4.50003 -180 0 0 0 104.48 L0 115.73 A4.50003 4.50003 -180 0 0 4.5 120.23 L37.12 120.23 Z"
					class="st13"/>
			<text x="1.91" y="108.3" class="st14" v:langID="1033"><v:paragraph v:spLine="-0.9" v:horizAlign="1"/><v:tabList/>State label<v:newlineChar/><tspan
						x="4.14" dy="0.9em" class="st15">(</tspan>optional)</text>		</g>
		<g id="shape16-62" v:mID="16" v:groupContext="shape" transform="translate(163.775,132.179) rotate(157.166)">
			<title>Sheet.16</title>
			<path d="M0 120.23 L15.99 120.23" class="st16"/>
		</g>
		<g id="shape17-67" v:mID="17" v:groupContext="shape" transform="translate(26.4603,140.39) rotate(-116.565)">
			<title>Sheet.17</title>
			<path d="M0 120.23 L10.41 120.23" class="st1"/>
		</g>
		<g id="shape18-72" v:mID="18" v:groupContext="shape" transform="translate(129.495,-16.1673)">
			<title>Rounded rectangle.27</title>
			<v:userDefs>
				<v:ud v:nameU="visVersion" v:val="VT0(11):26"/>
			</v:userDefs>
			<path d="M40.5 120.23 A4.50003 4.50003 -180 0 0 45 115.73 L45 104.48 A4.50003 4.50003 -180 0 0 40.5 99.98 L4.5 99.98
						 A4.50003 4.50003 -180 0 0 0 104.48 L0 115.73 A4.50003 4.50003 -180 0 0 4.5 120.23 L40.5 120.23 Z"
					class="st12"/>
		</g>
		<g id="shape19-74" v:mID="19" v:groupContext="shape" transform="translate(128.37,-17.2923)">
			<title>Rounded rectangle.36</title>
			<desc>Output assignment</desc>
			<v:userDefs>
				<v:ud v:nameU="visVersion" v:val="VT0(11):26"/>
			</v:userDefs>
			<v:textBlock v:margins="rect(4,0,4,0)"/>
			<v:textRect cx="22.5" cy="110.102" width="45" height="20.25"/>
			<path d="M40.5 120.23 A4.50003 4.50003 -180 0 0 45 115.73 L45 104.48 A4.50003 4.50003 -180 0 0 40.5 99.98 L4.5 99.98
						 A4.50003 4.50003 -180 0 0 0 104.48 L0 115.73 A4.50003 4.50003 -180 0 0 4.5 120.23 L40.5 120.23 Z"
					class="st13"/>
			<text x="10.49" y="108.3" class="st14" v:langID="1033"><v:paragraph v:spLine="-0.9" v:horizAlign="1"/><v:tabList/>Output <tspan
						x="2.04" dy="0.9em" class="st15">assignment</tspan></text>		</g>
		<g id="shape20-78" v:mID="20" v:groupContext="shape" transform="translate(24.2103,138.14) rotate(-116.565)">
			<title>Sheet.20</title>
			<path d="M0 120.23 L7.89 120.23" class="st16"/>
		</g>
		<g id="shape21-83" v:mID="21" v:groupContext="shape" transform="translate(-59.5559,-11.9837) rotate(-60.9454)">
			<title>Sheet.21</title>
			<path d="M0 120.23 L4.38 120.23" class="st1"/>
		</g>
		<g id="shape22-88" v:mID="22" v:groupContext="shape" transform="translate(3.495,-49.3548)">
			<title>Rounded rectangle.30</title>
			<v:userDefs>
				<v:ud v:nameU="visVersion" v:val="VT0(11):26"/>
			</v:userDefs>
			<path d="M40.5 120.23 A4.50003 4.50003 -180 0 0 45 115.73 L45 98.85 A4.50003 4.50003 -180 0 0 40.5 94.35 L4.5 94.35 A4.50003
						 4.50003 -180 0 0 0 98.85 L0 115.73 A4.50003 4.50003 -180 0 0 4.5 120.23 L40.5 120.23 Z" class="st12"/>
		</g>
		<g id="shape23-90" v:mID="23" v:groupContext="shape" transform="translate(0.12,-50.4798)">
			<title>Rounded rectangle.31</title>
			<desc>Branch and branch conditions</desc>
			<v:userDefs>
				<v:ud v:nameU="visVersion" v:val="VT0(11):26"/>
			</v:userDefs>
			<v:textBlock v:margins="rect(4,0,2,0)"/>
			<v:textRect cx="23.625" cy="107.29" width="47.25" height="25.875"/>
			<path d="M42.75 120.23 A4.50003 4.50003 -180 0 0 47.25 115.73 L47.25 98.85 A4.50003 4.50003 -180 0 0 42.75 94.35 L4.5
						 94.35 A4.50003 4.50003 -180 0 0 0 98.85 L0 115.73 A4.50003 4.50003 -180 0 0 4.5 120.23 L42.75 120.23 Z"
					class="st13"/>
			<text x="3.17" y="102.89" class="st14" v:langID="1033"><v:paragraph v:spLine="-0.9" v:horizAlign="1"/><v:tabList/>Branch and <tspan
						x="11.39" dy="0.9em" class="st15">branch </tspan><tspan x="5.61" dy="0.9em" class="st15">conditions</tspan></text>		</g>
		<g id="shape24-95" v:mID="24" v:groupContext="shape" transform="translate(-59.9777,-13.39) rotate(-60.9454)">
			<title>Sheet.24</title>
			<path d="M0 120.23 L4.38 120.23" class="st16"/>
		</g>
		<g id="shape25-100" v:mID="25" v:groupContext="shape" transform="translate(119.003,-26.6783) rotate(39.2894)">
			<title>Sheet.25</title>
			<path d="M0 120.23 L8.79 120.23" class="st16"/>
		</g>
	</g>
</svg>
