<?xml version="1.0" encoding="UTF-8" standalone="no"?>
<!DOCTYPE svg PUBLIC "-//W3C//DTD SVG 1.1//EN" "http://www.w3.org/Graphics/SVG/1.1/DTD/svg11.dtd">
<!-- Generated by Microsoft Visio, SVG Export FET schematic.svg Page-1 -->
<svg xmlns="http://www.w3.org/2000/svg" xmlns:xlink="http://www.w3.org/1999/xlink" xmlns:ev="http://www.w3.org/2001/xml-events"
		xmlns:v="http://schemas.microsoft.com/visio/2003/SVGExtensions/" width="6.63567in" height="1.21808in"
		viewBox="0 0 477.768 87.7018" xml:space="preserve" color-interpolation-filters="sRGB" class="st11">
	<v:documentProperties v:langID="1033" v:viewMarkup="false">
		<v:userDefs>
			<v:ud v:nameU="msvConvertTheme"/>
		</v:userDefs>
	</v:documentProperties>

	<style type="text/css">
	<![CDATA[
		.st1 {stroke:#000000;stroke-linecap:round;stroke-linejoin:round;stroke-width:0.747519}
		.st2 {stroke:none;stroke-linecap:round;stroke-linejoin:round;stroke-width:0.75}
		.st3 {fill:#000000;font-family:Arial;font-size:0.75em}
		.st4 {font-size:1em}
		.st5 {fill:none;stroke:#000000;stroke-linecap:round;stroke-linejoin:round;stroke-width:0.72}
		.st6 {stroke:#000000;stroke-linecap:round;stroke-linejoin:round;stroke-width:0.72}
		.st7 {marker-end:url(#mrkr4-52);stroke:#000000;stroke-linecap:round;stroke-linejoin:round;stroke-width:0.72}
		.st8 {fill:#000000;fill-opacity:1;stroke:#000000;stroke-opacity:1;stroke-width:0.28571428571429}
		.st9 {fill:#000000;font-family:Arial;font-size:0.833336em;font-weight:bold}
		.st10 {font-size:1em;text-decoration:underline}
		.st11 {fill:none;fill-rule:evenodd;font-size:12px;overflow:visible;stroke-linecap:square;stroke-miterlimit:3}
	]]>
	</style>

	<defs id="Markers">
		<g id="lend4">
			<path d="M 2 1 L 0 0 L 2 -1 L 2 1 " style="stroke:none"/>
		</g>
		<marker id="mrkr4-52" class="st8" v:arrowType="4" v:arrowSize="1" v:setback="6.5" refX="-6.5" orient="auto"
				markerUnits="strokeWidth" overflow="visible">
			<use xlink:href="#lend4" transform="scale(-3.5,-3.5) "/>
		</marker>
	</defs>
	<g v:mID="0" v:index="1" v:groupContext="foregroundPage">
		<title>Page-1</title>
		<v:pageProperties v:drawingScale="1" v:pageScale="1" v:drawingUnits="0" v:shadowOffsetX="9" v:shadowOffsetY="-9"/>
		<g id="shape173-1" v:mID="173" v:groupContext="shape" transform="translate(315.768,-29.27)">
			<title>Sheet.173</title>
			<path d="M0 69.7 L0 87.7" class="st1"/>
		</g>
		<g id="shape174-4" v:mID="174" v:groupContext="shape" transform="translate(320.088,-15.59)">
			<title>Sheet.174</title>
			<path d="M7.34 25.89 L7.2 56.02 L-0 56.02 L-0 74.02 L7.2 74.02 L7.2 87.7" class="st1"/>
		</g>
		<g id="shape197-7" v:mID="197" v:groupContext="shape" transform="translate(296.562,-77.51)">
			<title>Sheet.197</title>
			<desc>Vdd</desc>
			<v:textBlock v:margins="rect(0,0,0,0)"/>
			<v:textRect cx="9.48631" cy="82.9101" width="18.98" height="9.58346"/>
			<path d="M18.97 78.12 L0 78.12 L0 87.7 L18.97 87.7 L18.97 78.12" class="st2"/>
			<text x="1.48" y="85.61" class="st3" v:langID="1033"><v:paragraph v:horizAlign="1"/><v:tabList/>Vdd</text>		</g>
		<g id="shape198-11" v:mID="198" v:groupContext="shape" transform="translate(326.377,-64.55)">
			<title>Sheet.198</title>
			<desc>source</desc>
			<v:textBlock v:margins="rect(0,0,0,0)"/>
			<v:textRect cx="16.7512" cy="81.7461" width="33.51" height="11.9114"/>
			<path d="M33.5 75.79 L0 75.79 L0 87.7 L33.5 87.7 L33.5 75.79" class="st2"/>
			<text x="3.24" y="84.45" class="st3" v:langID="1033"><v:paragraph v:horizAlign="1"/><v:tabList/>source</text>		</g>
		<g id="shape199-15" v:mID="199" v:groupContext="shape" transform="translate(327.385,-7.66998)">
			<title>Sheet.199</title>
			<desc>drain</desc>
			<v:textBlock v:margins="rect(0,0,0,0)"/>
			<v:textRect cx="13.5834" cy="81.7461" width="27.17" height="11.9114"/>
			<path d="M27.17 75.79 L0 75.79 L0 87.7 L27.17 87.7 L27.17 75.79" class="st2"/>
			<text x="3.58" y="84.45" class="st3" v:langID="1033"><v:paragraph v:horizAlign="1"/><v:tabList/>drain</text>		</g>
		<g id="shape204-19" v:mID="204" v:groupContext="shape" transform="translate(287.688,-38.2386)">
			<title>Sheet.204</title>
			<desc>gate</desc>
			<v:textBlock v:margins="rect(0,0,0,0)"/>
			<v:textRect cx="11.363" cy="81.7461" width="22.73" height="11.9114"/>
			<path d="M22.73 75.79 L0 75.79 L0 87.7 L22.73 87.7 L22.73 75.79" class="st2"/>
			<text x="2.6" y="84.45" class="st3" v:langID="1033"><v:paragraph v:horizAlign="1"/><v:tabList/>gate</text>		</g>
		<g id="shape220-23" v:mID="220" v:groupContext="shape" transform="translate(371.175,-49.0141)">
			<title>Sheet.220</title>
			<desc>If Vgate = Vdd then Vgs=0 and pFET is OFF</desc>
			<v:textBlock v:margins="rect(0,0,0,0)"/>
			<v:textRect cx="53.2968" cy="82.9101" width="106.6" height="9.58346"/>
			<path d="M106.59 78.12 L0 78.12 L0 87.7 L106.59 87.7 L106.59 78.12" class="st2"/>
			<text x="0" y="80.21" class="st3" v:langID="1033"><v:paragraph/><v:tabList/>If Vgate = Vdd then Vgs=0 <tspan x="0"
						dy="1.2em" class="st4">and pFET is OFF</tspan></text>		</g>
		<g id="shape28-28" v:mID="28" v:groupContext="shape" transform="translate(279.768,-76.07)">
			<title>Circle</title>
			<v:userDefs>
				<v:ud v:nameU="visVersion" v:val="VT0(11):26"/>
			</v:userDefs>
			<path d="M0 86.26 A1.44 1.44 0 1 1 2.88 86.26 A1.44 1.44 0 1 1 -0 86.26 Z" class="st5"/>
		</g>
		<g id="shape103-30" v:mID="103" v:groupContext="shape" transform="translate(282.648,-77.51)">
			<title>Sheet.103</title>
			<path d="M0 87.7 L80.64 87.7" class="st6"/>
		</g>
		<g id="shape202-33" v:mID="202" v:groupContext="shape" transform="translate(282.648,-37.91)">
			<title>Sheet.202</title>
			<path d="M0 87.7 L25.92 87.7" class="st6"/>
		</g>
		<g id="shape203-36" v:mID="203" v:groupContext="shape" transform="translate(308.568,-34.31)">
			<title>Circle.203</title>
			<v:userDefs>
				<v:ud v:nameU="visVersion" v:val="VT0(11):26"/>
			</v:userDefs>
			<path d="M0 84.1 A3.6 3.6 0 0 1 7.2 84.1 A3.6 3.6 0 0 1 0 84.1 Z" class="st5"/>
		</g>
		<g id="shape233-38" v:mID="233" v:groupContext="shape" transform="translate(279.768,-36.47)">
			<title>Circle.233</title>
			<v:userDefs>
				<v:ud v:nameU="visVersion" v:val="VT0(11):26"/>
			</v:userDefs>
			<path d="M0 86.26 A1.44 1.44 0 1 1 2.88 86.26 A1.44 1.44 0 0 1 0 86.26 Z" class="st5"/>
		</g>
		<g id="shape163-40" v:mID="163" v:groupContext="shape" transform="translate(325.848,-12.71)">
			<title>Circle.163</title>
			<v:userDefs>
				<v:ud v:nameU="visVersion" v:val="VT0(11):26"/>
			</v:userDefs>
			<path d="M0 86.26 A1.44 1.44 0 1 1 2.88 86.26 A1.44 1.44 0 0 1 0 86.26 Z" class="st5"/>
		</g>
		<g id="shape170-42" v:mID="170" v:groupContext="shape" transform="translate(371.175,-23.9258)">
			<title>Sheet.170</title>
			<desc>If Vgate = GND then Vgs=Vdd and pFET is ON</desc>
			<v:textBlock v:margins="rect(0,0,0,0)"/>
			<v:textRect cx="53.2968" cy="82.9101" width="106.6" height="9.58346"/>
			<path d="M106.59 78.12 L0 78.12 L0 87.7 L106.59 87.7 L106.59 78.12" class="st2"/>
			<text x="0" y="80.21" class="st3" v:langID="1033"><v:paragraph/><v:tabList/>If Vgate = GND then <tspan x="0" dy="1.2em"
						class="st4">Vgs</tspan>=Vdd and pFET is ON</text>		</g>
		<g id="shape171-47" v:mID="171" v:groupContext="shape" transform="translate(248.9,-51.0801) rotate(1.00094)">
			<title>Sheet.171</title>
			<path d="M0 87.7 C4.3 87.13 12.5 84.5 19.25 82.75 C39.61 77.47 46.85 80.25 50.73 83.87 L50.96 84.15" class="st7"/>
		</g>
		<g id="shape172-53" v:mID="172" v:groupContext="shape" transform="translate(265.761,113.859) rotate(-13.3925) scale(1,-1)">
			<title>Sheet.172</title>
			<path d="M0 79.41 C17.08 83.23 35.03 85.76 50.78 87.17 C56.54 87.69 62.01 88.06 66.09 87.18 C69.31 86.49 71.66 85.02
						 74.08 82.9 L74.34 82.65" class="st7"/>
		</g>
		<g id="shape196-58" v:mID="196" v:groupContext="shape" transform="translate(402.495,-68.6776)">
			<title>Sheet.196</title>
			<desc>pFET</desc>
			<v:textBlock v:margins="rect(0,0,0,0)"/>
			<v:textRect cx="16.2" cy="82.9101" width="32.4" height="9.58346"/>
			<path d="M32.4 78.12 L0 78.12 L0 87.7 L32.4 87.7 L32.4 78.12" class="st2"/>
			<text x="0" y="85.91" class="st9" v:langID="1033"><v:paragraph/><v:tabList/><tspan class="st10">pFET</tspan></text>		</g>
		<g id="shape200-63" v:mID="200" v:groupContext="shape" transform="translate(150.168,-38.1334)">
			<title>Sheet.200</title>
			<path d="M0 70.42 L0 87.7" class="st1"/>
		</g>
		<g id="shape201-66" v:mID="201" v:groupContext="shape" transform="translate(153.048,-11.8797)">
			<title>Sheet.201</title>
			<path d="M7.2 26.89 L7.2 44.17 L0 44.17 L0 61.45 L7.2 61.45 L7.2 87.7" class="st1"/>
		</g>
		<g id="shape205-69" v:mID="205" v:groupContext="shape" transform="translate(129.288,-0.608009)">
			<title>Sheet.205</title>
			<desc>GND</desc>
			<v:textBlock v:margins="rect(0,0,0,0)"/>
			<v:textRect cx="10.8" cy="82.9101" width="21.6" height="9.58346"/>
			<path d="M21.6 78.12 L0 78.12 L0 87.7 L21.6 87.7 L21.6 78.12" class="st2"/>
			<text x="0.8" y="85.61" class="st3" v:langID="1033"><v:paragraph v:horizAlign="1"/><v:tabList/>GND</text>		</g>
		<g id="shape206-73" v:mID="206" v:groupContext="shape" transform="translate(165.626,-11.2978)">
			<title>Sheet.206</title>
			<desc>source</desc>
			<v:textBlock v:margins="rect(0,0,0,0)"/>
			<v:textRect cx="16.7512" cy="81.7461" width="33.51" height="11.9114"/>
			<path d="M33.5 75.79 L0 75.79 L0 87.7 L33.5 87.7 L33.5 75.79" class="st2"/>
			<text x="3.24" y="84.45" class="st3" v:langID="1033"><v:paragraph v:horizAlign="1"/><v:tabList/>source</text>		</g>
		<g id="shape207-77" v:mID="207" v:groupContext="shape" transform="translate(162.602,-70.8621)">
			<title>Sheet.207</title>
			<desc>drain</desc>
			<v:textBlock v:margins="rect(0,0,0,0)"/>
			<v:textRect cx="13.5834" cy="81.7461" width="27.17" height="11.9114"/>
			<path d="M27.17 75.79 L0 75.79 L0 87.7 L27.17 87.7 L27.17 75.79" class="st2"/>
			<text x="3.58" y="84.45" class="st3" v:langID="1033"><v:paragraph v:horizAlign="1"/><v:tabList/>drain</text>		</g>
		<g id="shape208-81" v:mID="208" v:groupContext="shape" transform="translate(121.368,-47.1021)">
			<title>Sheet.208</title>
			<desc>gate</desc>
			<v:textBlock v:margins="rect(0,0,0,0)"/>
			<v:textRect cx="11.363" cy="81.7461" width="22.73" height="11.9114"/>
			<path d="M22.73 75.79 L0 75.79 L0 87.7 L22.73 87.7 L22.73 75.79" class="st2"/>
			<text x="2.6" y="84.45" class="st3" v:langID="1033"><v:paragraph v:horizAlign="1"/><v:tabList/>gate</text>		</g>
		<g id="shape209-85" v:mID="209" v:groupContext="shape" transform="translate(0.374908,-48.5983)">
			<title>Sheet.209</title>
			<desc>If Vgate = Vdd then Vgs=Vdd and pFET is ON</desc>
			<v:textBlock v:margins="rect(0,0,0,0)"/>
			<v:textRect cx="53.2968" cy="82.9101" width="106.6" height="9.58346"/>
			<path d="M106.59 78.12 L0 78.12 L0 87.7 L106.59 87.7 L106.59 78.12" class="st2"/>
			<text x="0" y="80.21" class="st3" v:langID="1033"><v:paragraph/><v:tabList/>If Vgate = Vdd then <tspan x="0" dy="1.2em"
						class="st4">Vgs</tspan>=Vdd and pFET is ON</text>		</g>
		<g id="shape210-90" v:mID="210" v:groupContext="shape" transform="translate(113.448,-10.4397)">
			<title>Circle.210</title>
			<v:userDefs>
				<v:ud v:nameU="visVersion" v:val="VT0(11):26"/>
			</v:userDefs>
			<path d="M0 86.26 A1.44 1.44 0 1 1 2.88 86.26 A1.44 1.44 0 1 1 -0 86.26 Z" class="st5"/>
		</g>
		<g id="shape211-92" v:mID="211" v:groupContext="shape" transform="translate(116.328,-11.8797)">
			<title>Sheet.211</title>
			<path d="M0 87.7 L78.48 87.7" class="st6"/>
		</g>
		<g id="shape212-95" v:mID="212" v:groupContext="shape" transform="translate(117.048,-46.7734)">
			<title>Sheet.212</title>
			<path d="M0 87.7 L33.12 87.7" class="st6"/>
		</g>
		<g id="shape214-98" v:mID="214" v:groupContext="shape" transform="translate(114.168,-45.3334)">
			<title>Circle.214</title>
			<v:userDefs>
				<v:ud v:nameU="visVersion" v:val="VT0(11):26"/>
			</v:userDefs>
			<path d="M0 86.26 A1.44 1.44 0 1 1 2.88 86.26 A1.44 1.44 0 0 1 0 86.26 Z" class="st5"/>
		</g>
		<g id="shape216-100" v:mID="216" v:groupContext="shape" transform="translate(200.92,-32.2617)">
			<title>Sheet.216</title>
			<desc>Vgs Voltage between gate and source</desc>
			<v:textBlock v:margins="rect(0,0,0,0)"/>
			<v:textRect cx="34.0242" cy="81.1101" width="68.05" height="13.1835"/>
			<path d="M68.05 74.52 L0 74.52 L0 87.7 L68.05 87.7 L68.05 74.52" class="st2"/>
			<text x="26.27" y="73.01" class="st3" v:langID="1033"><v:paragraph v:horizAlign="1"/><v:tabList/><tspan class="st10">Vgs</tspan><v:newlineChar/><tspan
						x="0.5" dy="1.2em" class="st4">Voltage between </tspan><tspan x="1.75" dy="1.2em" class="st4">gate and source</tspan></text>		</g>
		<g id="shape217-107" v:mID="217" v:groupContext="shape" transform="translate(0.374908,-22.2934)">
			<title>Sheet.217</title>
			<desc>If Vgate = GND then Vgs=0V and pFET is OFF</desc>
			<v:textBlock v:margins="rect(0,0,0,0)"/>
			<v:textRect cx="53.2968" cy="82.9101" width="106.6" height="9.58346"/>
			<path d="M106.59 78.12 L0 78.12 L0 87.7 L106.59 87.7 L106.59 78.12" class="st2"/>
			<text x="0" y="80.21" class="st3" v:langID="1033"><v:paragraph/><v:tabList/>If Vgate = GND then <tspan x="0" dy="1.2em"
						class="st4">Vgs</tspan>=0V and pFET is OFF</text>		</g>
		<g id="shape218-112" v:mID="218" v:groupContext="shape" transform="translate(180.701,-40.671) rotate(-28.2174) scale(-1,1)">
			<title>Sheet.218</title>
			<path d="M0 87.7 C19.68 80.96 26.74 80.42 32.23 80.13 C52.16 79.05 51.26 81.16 62.31 85.85 L62.65 85.98" class="st7"/>
		</g>
		<g id="shape219-117" v:mID="219" v:groupContext="shape"
				transform="translate(216.767,-36.3084) rotate(-4.23639) scale(-1,1)">
			<title>Sheet.219</title>
			<path d="M0 73.12 C40.21 69.08 46.17 79.31 58.43 84.84 C62.91 86.87 68.23 88.27 72.49 87.52 C76.52 86.81 79.61 84.17
						 79.03 78.04 L78.95 77.69" class="st7"/>
		</g>
		<g id="shape222-122" v:mID="222" v:groupContext="shape" transform="translate(31.6949,-68.2617)">
			<title>Sheet.222</title>
			<desc>nFET</desc>
			<v:textBlock v:margins="rect(0,0,0,0)"/>
			<v:textRect cx="16.2" cy="82.9101" width="32.4" height="9.58346"/>
			<path d="M32.4 78.12 L0 78.12 L0 87.7 L32.4 87.7 L32.4 78.12" class="st2"/>
			<text x="0" y="85.91" class="st9" v:langID="1033"><v:paragraph/><v:tabList/><tspan class="st10">nFET</tspan></text>		</g>
		<g id="shape215-127" v:mID="215" v:groupContext="shape" transform="translate(158.808,-72.6934)">
			<title>Circle.215</title>
			<v:userDefs>
				<v:ud v:nameU="visVersion" v:val="VT0(11):26"/>
			</v:userDefs>
			<path d="M0 86.26 A1.44 1.44 0 1 1 2.88 86.26 A1.44 1.44 0 0 1 0 86.26 Z" class="st5"/>
		</g>
	</g>
</svg>
