<?xml version="1.0" encoding="UTF-8" standalone="no"?>
<!DOCTYPE svg PUBLIC "-//W3C//DTD SVG 1.1//EN" "http://www.w3.org/Graphics/SVG/1.1/DTD/svg11.dtd">
<!-- Generated by Microsoft Visio, SVG Export XorTT.svg Page-1 -->
<svg xmlns="http://www.w3.org/2000/svg" xmlns:xlink="http://www.w3.org/1999/xlink" xmlns:ev="http://www.w3.org/2001/xml-events"
		xmlns:v="http://schemas.microsoft.com/visio/2003/SVGExtensions/" width="1.83625in" height="1.71334in"
		viewBox="0 0 132.21 123.36" xml:space="preserve" color-interpolation-filters="sRGB" class="st4">
	<v:documentProperties v:langID="1033" v:viewMarkup="false"/>

	<style type="text/css">
	<![CDATA[
		.st1 {fill:none;stroke:none;stroke-linecap:round;stroke-linejoin:round;stroke-width:0.72}
		.st2 {fill:#000000;font-family:Arial;font-size:0.833336em}
		.st3 {stroke:#000000;stroke-linecap:round;stroke-linejoin:round;stroke-width:0.72}
		.st4 {fill:none;fill-rule:evenodd;font-size:12px;overflow:visible;stroke-linecap:square;stroke-miterlimit:3}
	]]>
	</style>

	<g v:mID="0" v:index="1" v:groupContext="foregroundPage">
		<title>Page-1</title>
		<v:pageProperties v:drawingScale="1" v:pageScale="1" v:drawingUnits="19" v:shadowOffsetX="9" v:shadowOffsetY="-9"/>
		<g id="shape40-1" v:mID="40" v:groupContext="shape" transform="translate(0.36,-95.8652)">
			<title>Sheet.40</title>
			<desc>0</desc>
			<v:textBlock v:margins="rect(4,4,4,4)"/>
			<v:textRect cx="6.75" cy="118.86" width="13.5" height="9"/>
			<rect x="0" y="114.36" width="13.5" height="9" class="st1"/>
			<text x="4" y="121.86" class="st2" v:langID="1033"><v:paragraph v:horizAlign="1"/><v:tabList/>0</text>		</g>
		<g id="shape41-4" v:mID="41" v:groupContext="shape" transform="translate(16.11,-95.8652)">
			<title>Sheet.41</title>
			<desc>0</desc>
			<v:textBlock v:margins="rect(4,4,4,4)"/>
			<v:textRect cx="6.75" cy="118.86" width="13.5" height="9"/>
			<rect x="0" y="114.36" width="13.5" height="9" class="st1"/>
			<text x="4" y="121.86" class="st2" v:langID="1033"><v:paragraph v:horizAlign="1"/><v:tabList/>0</text>		</g>
		<g id="shape43-7" v:mID="43" v:groupContext="shape" transform="translate(0.36,-82.3652)">
			<title>Sheet.43</title>
			<desc>0</desc>
			<v:textBlock v:margins="rect(4,4,4,4)"/>
			<v:textRect cx="6.75" cy="118.86" width="13.5" height="9"/>
			<rect x="0" y="114.36" width="13.5" height="9" class="st1"/>
			<text x="4" y="121.86" class="st2" v:langID="1033"><v:paragraph v:horizAlign="1"/><v:tabList/>0</text>		</g>
		<g id="shape44-10" v:mID="44" v:groupContext="shape" transform="translate(16.11,-82.3652)">
			<title>Sheet.44</title>
			<desc>1</desc>
			<v:textBlock v:margins="rect(4,4,4,4)"/>
			<v:textRect cx="6.75" cy="118.86" width="13.5" height="9"/>
			<rect x="0" y="114.36" width="13.5" height="9" class="st1"/>
			<text x="4" y="121.86" class="st2" v:langID="1033"><v:paragraph v:horizAlign="1"/><v:tabList/>1</text>		</g>
		<g id="shape46-13" v:mID="46" v:groupContext="shape" transform="translate(0.36,-68.8652)">
			<title>Sheet.46</title>
			<desc>1</desc>
			<v:textBlock v:margins="rect(4,4,4,4)"/>
			<v:textRect cx="6.75" cy="118.86" width="13.5" height="9"/>
			<rect x="0" y="114.36" width="13.5" height="9" class="st1"/>
			<text x="4" y="121.86" class="st2" v:langID="1033"><v:paragraph v:horizAlign="1"/><v:tabList/>1</text>		</g>
		<g id="shape47-16" v:mID="47" v:groupContext="shape" transform="translate(16.11,-68.8652)">
			<title>Sheet.47</title>
			<desc>0</desc>
			<v:textBlock v:margins="rect(4,4,4,4)"/>
			<v:textRect cx="6.75" cy="118.86" width="13.5" height="9"/>
			<rect x="0" y="114.36" width="13.5" height="9" class="st1"/>
			<text x="4" y="121.86" class="st2" v:langID="1033"><v:paragraph v:horizAlign="1"/><v:tabList/>0</text>		</g>
		<g id="shape49-19" v:mID="49" v:groupContext="shape" transform="translate(0.36,-55.3652)">
			<title>Sheet.49</title>
			<desc>1</desc>
			<v:textBlock v:margins="rect(4,4,4,4)"/>
			<v:textRect cx="6.75" cy="118.86" width="13.5" height="9"/>
			<rect x="0" y="114.36" width="13.5" height="9" class="st1"/>
			<text x="4" y="121.86" class="st2" v:langID="1033"><v:paragraph v:horizAlign="1"/><v:tabList/>1</text>		</g>
		<g id="shape50-22" v:mID="50" v:groupContext="shape" transform="translate(16.11,-55.3652)">
			<title>Sheet.50</title>
			<desc>1</desc>
			<v:textBlock v:margins="rect(4,4,4,4)"/>
			<v:textRect cx="6.75" cy="118.86" width="13.5" height="9"/>
			<rect x="0" y="114.36" width="13.5" height="9" class="st1"/>
			<text x="4" y="121.86" class="st2" v:langID="1033"><v:paragraph v:horizAlign="1"/><v:tabList/>1</text>		</g>
		<g id="shape64-25" v:mID="64" v:groupContext="shape" transform="translate(0.36,-111.615)">
			<title>Sheet.64</title>
			<desc>A</desc>
			<v:textBlock v:margins="rect(4,4,4,4)"/>
			<v:textRect cx="6.75" cy="118.86" width="13.5" height="9"/>
			<rect x="0" y="114.36" width="13.5" height="9" class="st1"/>
			<text x="4" y="121.86" class="st2" v:langID="1033"><v:paragraph v:horizAlign="1"/><v:tabList/>A</text>		</g>
		<g id="shape65-28" v:mID="65" v:groupContext="shape" transform="translate(16.11,-111.615)">
			<title>Sheet.65</title>
			<desc>B</desc>
			<v:textBlock v:margins="rect(4,4,4,4)"/>
			<v:textRect cx="6.75" cy="118.86" width="13.5" height="9"/>
			<rect x="0" y="114.36" width="13.5" height="9" class="st1"/>
			<text x="4" y="121.86" class="st2" v:langID="1033"><v:paragraph v:horizAlign="1"/><v:tabList/>B</text>		</g>
		<g id="shape66-31" v:mID="66" v:groupContext="shape" transform="translate(34.11,-111.615)">
			<title>Sheet.66</title>
			<desc>F</desc>
			<v:textBlock v:margins="rect(4,4,4,4)"/>
			<v:textRect cx="6.75" cy="118.86" width="13.5" height="9"/>
			<rect x="0" y="114.36" width="13.5" height="9" class="st1"/>
			<text x="4" y="121.86" class="st2" v:langID="1033"><v:paragraph v:horizAlign="1"/><v:tabList/>F</text>		</g>
		<g id="shape67-34" v:mID="67" v:groupContext="shape" transform="translate(3.225,-109.365)">
			<title>Sheet.67</title>
			<path d="M0 123.36 L42.14 123.36" class="st3"/>
		</g>
		<g id="shape68-37" v:mID="68" v:groupContext="shape" transform="translate(155.22,0.495) rotate(90)">
			<title>Sheet.68</title>
			<path d="M0 123.36 L68.49 123.36" class="st3"/>
		</g>
		<g id="shape69-40" v:mID="69" v:groupContext="shape" transform="translate(34.11,-95.8652)">
			<title>Sheet.69</title>
			<desc>0</desc>
			<v:textBlock v:margins="rect(4,4,4,4)"/>
			<v:textRect cx="6.75" cy="118.86" width="13.5" height="9"/>
			<rect x="0" y="114.36" width="13.5" height="9" class="st1"/>
			<text x="4" y="121.86" class="st2" v:langID="1033"><v:paragraph v:horizAlign="1"/><v:tabList/>0</text>		</g>
		<g id="shape70-43" v:mID="70" v:groupContext="shape" transform="translate(34.11,-82.3652)">
			<title>Sheet.70</title>
			<desc>1</desc>
			<v:textBlock v:margins="rect(4,4,4,4)"/>
			<v:textRect cx="6.75" cy="118.86" width="13.5" height="9"/>
			<rect x="0" y="114.36" width="13.5" height="9" class="st1"/>
			<text x="4" y="121.86" class="st2" v:langID="1033"><v:paragraph v:horizAlign="1"/><v:tabList/>1</text>		</g>
		<g id="shape71-46" v:mID="71" v:groupContext="shape" transform="translate(34.11,-68.8652)">
			<title>Sheet.71</title>
			<desc>1</desc>
			<v:textBlock v:margins="rect(4,4,4,4)"/>
			<v:textRect cx="6.75" cy="118.86" width="13.5" height="9"/>
			<rect x="0" y="114.36" width="13.5" height="9" class="st1"/>
			<text x="4" y="121.86" class="st2" v:langID="1033"><v:paragraph v:horizAlign="1"/><v:tabList/>1</text>		</g>
		<g id="shape72-49" v:mID="72" v:groupContext="shape" transform="translate(34.11,-55.3652)">
			<title>Sheet.72</title>
			<desc>0</desc>
			<v:textBlock v:margins="rect(4,4,4,4)"/>
			<v:textRect cx="6.75" cy="118.86" width="13.5" height="9"/>
			<rect x="0" y="114.36" width="13.5" height="9" class="st1"/>
			<text x="4" y="121.86" class="st2" v:langID="1033"><v:paragraph v:horizAlign="1"/><v:tabList/>0</text>		</g>
		<g id="shape77-52" v:mID="77" v:groupContext="shape" transform="translate(64.35,-96.0002)">
			<title>Sheet.77</title>
			<desc>0</desc>
			<v:textBlock v:margins="rect(4,4,4,4)"/>
			<v:textRect cx="6.75" cy="118.86" width="13.5" height="9"/>
			<rect x="0" y="114.36" width="13.5" height="9" class="st1"/>
			<text x="4" y="121.86" class="st2" v:langID="1033"><v:paragraph v:horizAlign="1"/><v:tabList/>0</text>		</g>
		<g id="shape78-55" v:mID="78" v:groupContext="shape" transform="translate(80.1,-96.0002)">
			<title>Sheet.78</title>
			<desc>0</desc>
			<v:textBlock v:margins="rect(4,4,4,4)"/>
			<v:textRect cx="6.75" cy="118.86" width="13.5" height="9"/>
			<rect x="0" y="114.36" width="13.5" height="9" class="st1"/>
			<text x="4" y="121.86" class="st2" v:langID="1033"><v:paragraph v:horizAlign="1"/><v:tabList/>0</text>		</g>
		<g id="shape79-58" v:mID="79" v:groupContext="shape" transform="translate(95.85,-96.0002)">
			<title>Sheet.79</title>
			<desc>0</desc>
			<v:textBlock v:margins="rect(4,4,4,4)"/>
			<v:textRect cx="6.75" cy="118.86" width="13.5" height="9"/>
			<rect x="0" y="114.36" width="13.5" height="9" class="st1"/>
			<text x="4" y="121.86" class="st2" v:langID="1033"><v:paragraph v:horizAlign="1"/><v:tabList/>0</text>		</g>
		<g id="shape80-61" v:mID="80" v:groupContext="shape" transform="translate(64.35,-82.5002)">
			<title>Sheet.80</title>
			<desc>0</desc>
			<v:textBlock v:margins="rect(4,4,4,4)"/>
			<v:textRect cx="6.75" cy="118.86" width="13.5" height="9"/>
			<rect x="0" y="114.36" width="13.5" height="9" class="st1"/>
			<text x="4" y="121.86" class="st2" v:langID="1033"><v:paragraph v:horizAlign="1"/><v:tabList/>0</text>		</g>
		<g id="shape81-64" v:mID="81" v:groupContext="shape" transform="translate(80.1,-82.5002)">
			<title>Sheet.81</title>
			<desc>0</desc>
			<v:textBlock v:margins="rect(4,4,4,4)"/>
			<v:textRect cx="6.75" cy="118.86" width="13.5" height="9"/>
			<rect x="0" y="114.36" width="13.5" height="9" class="st1"/>
			<text x="4" y="121.86" class="st2" v:langID="1033"><v:paragraph v:horizAlign="1"/><v:tabList/>0</text>		</g>
		<g id="shape82-67" v:mID="82" v:groupContext="shape" transform="translate(95.85,-82.5002)">
			<title>Sheet.82</title>
			<desc>1</desc>
			<v:textBlock v:margins="rect(4,4,4,4)"/>
			<v:textRect cx="6.75" cy="118.86" width="13.5" height="9"/>
			<rect x="0" y="114.36" width="13.5" height="9" class="st1"/>
			<text x="4" y="121.86" class="st2" v:langID="1033"><v:paragraph v:horizAlign="1"/><v:tabList/>1</text>		</g>
		<g id="shape83-70" v:mID="83" v:groupContext="shape" transform="translate(64.35,-69.0002)">
			<title>Sheet.83</title>
			<desc>0</desc>
			<v:textBlock v:margins="rect(4,4,4,4)"/>
			<v:textRect cx="6.75" cy="118.86" width="13.5" height="9"/>
			<rect x="0" y="114.36" width="13.5" height="9" class="st1"/>
			<text x="4" y="121.86" class="st2" v:langID="1033"><v:paragraph v:horizAlign="1"/><v:tabList/>0</text>		</g>
		<g id="shape84-73" v:mID="84" v:groupContext="shape" transform="translate(80.1,-69.0002)">
			<title>Sheet.84</title>
			<desc>1</desc>
			<v:textBlock v:margins="rect(4,4,4,4)"/>
			<v:textRect cx="6.75" cy="118.86" width="13.5" height="9"/>
			<rect x="0" y="114.36" width="13.5" height="9" class="st1"/>
			<text x="4" y="121.86" class="st2" v:langID="1033"><v:paragraph v:horizAlign="1"/><v:tabList/>1</text>		</g>
		<g id="shape85-76" v:mID="85" v:groupContext="shape" transform="translate(95.85,-69.0002)">
			<title>Sheet.85</title>
			<desc>0</desc>
			<v:textBlock v:margins="rect(4,4,4,4)"/>
			<v:textRect cx="6.75" cy="118.86" width="13.5" height="9"/>
			<rect x="0" y="114.36" width="13.5" height="9" class="st1"/>
			<text x="4" y="121.86" class="st2" v:langID="1033"><v:paragraph v:horizAlign="1"/><v:tabList/>0</text>		</g>
		<g id="shape86-79" v:mID="86" v:groupContext="shape" transform="translate(64.35,-55.5002)">
			<title>Sheet.86</title>
			<desc>0</desc>
			<v:textBlock v:margins="rect(4,4,4,4)"/>
			<v:textRect cx="6.75" cy="118.86" width="13.5" height="9"/>
			<rect x="0" y="114.36" width="13.5" height="9" class="st1"/>
			<text x="4" y="121.86" class="st2" v:langID="1033"><v:paragraph v:horizAlign="1"/><v:tabList/>0</text>		</g>
		<g id="shape87-82" v:mID="87" v:groupContext="shape" transform="translate(80.1,-55.5002)">
			<title>Sheet.87</title>
			<desc>1</desc>
			<v:textBlock v:margins="rect(4,4,4,4)"/>
			<v:textRect cx="6.75" cy="118.86" width="13.5" height="9"/>
			<rect x="0" y="114.36" width="13.5" height="9" class="st1"/>
			<text x="4" y="121.86" class="st2" v:langID="1033"><v:paragraph v:horizAlign="1"/><v:tabList/>1</text>		</g>
		<g id="shape88-85" v:mID="88" v:groupContext="shape" transform="translate(95.85,-55.5002)">
			<title>Sheet.88</title>
			<desc>1</desc>
			<v:textBlock v:margins="rect(4,4,4,4)"/>
			<v:textRect cx="6.75" cy="118.86" width="13.5" height="9"/>
			<rect x="0" y="114.36" width="13.5" height="9" class="st1"/>
			<text x="4" y="121.86" class="st2" v:langID="1033"><v:paragraph v:horizAlign="1"/><v:tabList/>1</text>		</g>
		<g id="shape89-88" v:mID="89" v:groupContext="shape" transform="translate(64.35,-42.0002)">
			<title>Sheet.89</title>
			<desc>1</desc>
			<v:textBlock v:margins="rect(4,4,4,4)"/>
			<v:textRect cx="6.75" cy="118.86" width="13.5" height="9"/>
			<rect x="0" y="114.36" width="13.5" height="9" class="st1"/>
			<text x="4" y="121.86" class="st2" v:langID="1033"><v:paragraph v:horizAlign="1"/><v:tabList/>1</text>		</g>
		<g id="shape90-91" v:mID="90" v:groupContext="shape" transform="translate(80.1,-42.0002)">
			<title>Sheet.90</title>
			<desc>0</desc>
			<v:textBlock v:margins="rect(4,4,4,4)"/>
			<v:textRect cx="6.75" cy="118.86" width="13.5" height="9"/>
			<rect x="0" y="114.36" width="13.5" height="9" class="st1"/>
			<text x="4" y="121.86" class="st2" v:langID="1033"><v:paragraph v:horizAlign="1"/><v:tabList/>0</text>		</g>
		<g id="shape91-94" v:mID="91" v:groupContext="shape" transform="translate(95.85,-42.0002)">
			<title>Sheet.91</title>
			<desc>0</desc>
			<v:textBlock v:margins="rect(4,4,4,4)"/>
			<v:textRect cx="6.75" cy="118.86" width="13.5" height="9"/>
			<rect x="0" y="114.36" width="13.5" height="9" class="st1"/>
			<text x="4" y="121.86" class="st2" v:langID="1033"><v:paragraph v:horizAlign="1"/><v:tabList/>0</text>		</g>
		<g id="shape92-97" v:mID="92" v:groupContext="shape" transform="translate(64.35,-28.5002)">
			<title>Sheet.92</title>
			<desc>1</desc>
			<v:textBlock v:margins="rect(4,4,4,4)"/>
			<v:textRect cx="6.75" cy="118.86" width="13.5" height="9"/>
			<rect x="0" y="114.36" width="13.5" height="9" class="st1"/>
			<text x="4" y="121.86" class="st2" v:langID="1033"><v:paragraph v:horizAlign="1"/><v:tabList/>1</text>		</g>
		<g id="shape93-100" v:mID="93" v:groupContext="shape" transform="translate(80.1,-28.5002)">
			<title>Sheet.93</title>
			<desc>0</desc>
			<v:textBlock v:margins="rect(4,4,4,4)"/>
			<v:textRect cx="6.75" cy="118.86" width="13.5" height="9"/>
			<rect x="0" y="114.36" width="13.5" height="9" class="st1"/>
			<text x="4" y="121.86" class="st2" v:langID="1033"><v:paragraph v:horizAlign="1"/><v:tabList/>0</text>		</g>
		<g id="shape94-103" v:mID="94" v:groupContext="shape" transform="translate(95.85,-28.5002)">
			<title>Sheet.94</title>
			<desc>1</desc>
			<v:textBlock v:margins="rect(4,4,4,4)"/>
			<v:textRect cx="6.75" cy="118.86" width="13.5" height="9"/>
			<rect x="0" y="114.36" width="13.5" height="9" class="st1"/>
			<text x="4" y="121.86" class="st2" v:langID="1033"><v:paragraph v:horizAlign="1"/><v:tabList/>1</text>		</g>
		<g id="shape95-106" v:mID="95" v:groupContext="shape" transform="translate(64.35,-15.0002)">
			<title>Sheet.95</title>
			<desc>1</desc>
			<v:textBlock v:margins="rect(4,4,4,4)"/>
			<v:textRect cx="6.75" cy="118.86" width="13.5" height="9"/>
			<rect x="0" y="114.36" width="13.5" height="9" class="st1"/>
			<text x="4" y="121.86" class="st2" v:langID="1033"><v:paragraph v:horizAlign="1"/><v:tabList/>1</text>		</g>
		<g id="shape96-109" v:mID="96" v:groupContext="shape" transform="translate(80.1,-15.0002)">
			<title>Sheet.96</title>
			<desc>1</desc>
			<v:textBlock v:margins="rect(4,4,4,4)"/>
			<v:textRect cx="6.75" cy="118.86" width="13.5" height="9"/>
			<rect x="0" y="114.36" width="13.5" height="9" class="st1"/>
			<text x="4" y="121.86" class="st2" v:langID="1033"><v:paragraph v:horizAlign="1"/><v:tabList/>1</text>		</g>
		<g id="shape97-112" v:mID="97" v:groupContext="shape" transform="translate(95.85,-15.0002)">
			<title>Sheet.97</title>
			<desc>0</desc>
			<v:textBlock v:margins="rect(4,4,4,4)"/>
			<v:textRect cx="6.75" cy="118.86" width="13.5" height="9"/>
			<rect x="0" y="114.36" width="13.5" height="9" class="st1"/>
			<text x="4" y="121.86" class="st2" v:langID="1033"><v:paragraph v:horizAlign="1"/><v:tabList/>0</text>		</g>
		<g id="shape98-115" v:mID="98" v:groupContext="shape" transform="translate(64.35,-1.50018)">
			<title>Sheet.98</title>
			<desc>1</desc>
			<v:textBlock v:margins="rect(4,4,4,4)"/>
			<v:textRect cx="6.75" cy="118.86" width="13.5" height="9"/>
			<rect x="0" y="114.36" width="13.5" height="9" class="st1"/>
			<text x="4" y="121.86" class="st2" v:langID="1033"><v:paragraph v:horizAlign="1"/><v:tabList/>1</text>		</g>
		<g id="shape99-118" v:mID="99" v:groupContext="shape" transform="translate(80.1,-1.50018)">
			<title>Sheet.99</title>
			<desc>1</desc>
			<v:textBlock v:margins="rect(4,4,4,4)"/>
			<v:textRect cx="6.75" cy="118.86" width="13.5" height="9"/>
			<rect x="0" y="114.36" width="13.5" height="9" class="st1"/>
			<text x="4" y="121.86" class="st2" v:langID="1033"><v:paragraph v:horizAlign="1"/><v:tabList/>1</text>		</g>
		<g id="shape100-121" v:mID="100" v:groupContext="shape" transform="translate(95.85,-1.50018)">
			<title>Sheet.100</title>
			<desc>1</desc>
			<v:textBlock v:margins="rect(4,4,4,4)"/>
			<v:textRect cx="6.75" cy="118.86" width="13.5" height="9"/>
			<rect x="0" y="114.36" width="13.5" height="9" class="st1"/>
			<text x="4" y="121.86" class="st2" v:langID="1033"><v:paragraph v:horizAlign="1"/><v:tabList/>1</text>		</g>
		<g id="shape101-124" v:mID="101" v:groupContext="shape" transform="translate(64.35,-111.75)">
			<title>Sheet.101</title>
			<desc>A</desc>
			<v:textBlock v:margins="rect(4,4,4,4)"/>
			<v:textRect cx="6.75" cy="118.86" width="13.5" height="9"/>
			<rect x="0" y="114.36" width="13.5" height="9" class="st1"/>
			<text x="4" y="121.86" class="st2" v:langID="1033"><v:paragraph v:horizAlign="1"/><v:tabList/>A</text>		</g>
		<g id="shape102-127" v:mID="102" v:groupContext="shape" transform="translate(80.1,-111.75)">
			<title>Sheet.102</title>
			<desc>B</desc>
			<v:textBlock v:margins="rect(4,4,4,4)"/>
			<v:textRect cx="6.75" cy="118.86" width="13.5" height="9"/>
			<rect x="0" y="114.36" width="13.5" height="9" class="st1"/>
			<text x="4" y="121.86" class="st2" v:langID="1033"><v:paragraph v:horizAlign="1"/><v:tabList/>B</text>		</g>
		<g id="shape103-130" v:mID="103" v:groupContext="shape" transform="translate(95.85,-111.75)">
			<title>Sheet.103</title>
			<desc>C</desc>
			<v:textBlock v:margins="rect(4,4,4,4)"/>
			<v:textRect cx="6.75" cy="118.86" width="13.5" height="9"/>
			<rect x="0" y="114.36" width="13.5" height="9" class="st1"/>
			<text x="4" y="121.86" class="st2" v:langID="1033"><v:paragraph v:horizAlign="1"/><v:tabList/>C</text>		</g>
		<g id="shape104-133" v:mID="104" v:groupContext="shape" transform="translate(113.85,-111.75)">
			<title>Sheet.104</title>
			<desc>F’</desc>
			<v:textBlock v:margins="rect(4,4,4,4)"/>
			<v:textRect cx="9" cy="118.86" width="18" height="9"/>
			<rect x="0" y="114.36" width="18" height="9" class="st1"/>
			<text x="4.84" y="121.86" class="st2" v:langID="1033"><v:paragraph v:horizAlign="1"/><v:tabList/>F’</text>		</g>
		<g id="shape105-136" v:mID="105" v:groupContext="shape" transform="translate(64.965,-109.5)">
			<title>Sheet.105</title>
			<path d="M0 123.36 L60.14 123.36" class="st3"/>
		</g>
		<g id="shape106-139" v:mID="106" v:groupContext="shape" transform="translate(234.96,0.36) rotate(90)">
			<title>Sheet.106</title>
			<path d="M0 123.36 L121.5 123.36" class="st3"/>
		</g>
		<g id="shape107-142" v:mID="107" v:groupContext="shape" transform="translate(113.85,-96.0002)">
			<title>Sheet.107</title>
			<desc>0</desc>
			<v:textBlock v:margins="rect(4,4,4,4)"/>
			<v:textRect cx="6.75" cy="118.86" width="13.5" height="9"/>
			<rect x="0" y="114.36" width="13.5" height="9" class="st1"/>
			<text x="4" y="121.86" class="st2" v:langID="1033"><v:paragraph v:horizAlign="1"/><v:tabList/>0</text>		</g>
		<g id="shape108-145" v:mID="108" v:groupContext="shape" transform="translate(113.85,-82.5002)">
			<title>Sheet.108</title>
			<desc>1</desc>
			<v:textBlock v:margins="rect(4,4,4,4)"/>
			<v:textRect cx="6.75" cy="118.86" width="13.5" height="9"/>
			<rect x="0" y="114.36" width="13.5" height="9" class="st1"/>
			<text x="4" y="121.86" class="st2" v:langID="1033"><v:paragraph v:horizAlign="1"/><v:tabList/>1</text>		</g>
		<g id="shape109-148" v:mID="109" v:groupContext="shape" transform="translate(113.85,-69.0002)">
			<title>Sheet.109</title>
			<desc>1</desc>
			<v:textBlock v:margins="rect(4,4,4,4)"/>
			<v:textRect cx="6.75" cy="118.86" width="13.5" height="9"/>
			<rect x="0" y="114.36" width="13.5" height="9" class="st1"/>
			<text x="4" y="121.86" class="st2" v:langID="1033"><v:paragraph v:horizAlign="1"/><v:tabList/>1</text>		</g>
		<g id="shape110-151" v:mID="110" v:groupContext="shape" transform="translate(113.85,-55.5002)">
			<title>Sheet.110</title>
			<desc>0</desc>
			<v:textBlock v:margins="rect(4,4,4,4)"/>
			<v:textRect cx="6.75" cy="118.86" width="13.5" height="9"/>
			<rect x="0" y="114.36" width="13.5" height="9" class="st1"/>
			<text x="4" y="121.86" class="st2" v:langID="1033"><v:paragraph v:horizAlign="1"/><v:tabList/>0</text>		</g>
		<g id="shape111-154" v:mID="111" v:groupContext="shape" transform="translate(113.85,-42.0002)">
			<title>Sheet.111</title>
			<desc>1</desc>
			<v:textBlock v:margins="rect(4,4,4,4)"/>
			<v:textRect cx="6.75" cy="118.86" width="13.5" height="9"/>
			<rect x="0" y="114.36" width="13.5" height="9" class="st1"/>
			<text x="4" y="121.86" class="st2" v:langID="1033"><v:paragraph v:horizAlign="1"/><v:tabList/>1</text>		</g>
		<g id="shape112-157" v:mID="112" v:groupContext="shape" transform="translate(113.85,-28.5002)">
			<title>Sheet.112</title>
			<desc>0</desc>
			<v:textBlock v:margins="rect(4,4,4,4)"/>
			<v:textRect cx="6.75" cy="118.86" width="13.5" height="9"/>
			<rect x="0" y="114.36" width="13.5" height="9" class="st1"/>
			<text x="4" y="121.86" class="st2" v:langID="1033"><v:paragraph v:horizAlign="1"/><v:tabList/>0</text>		</g>
		<g id="shape113-160" v:mID="113" v:groupContext="shape" transform="translate(113.85,-15.0002)">
			<title>Sheet.113</title>
			<desc>0</desc>
			<v:textBlock v:margins="rect(4,4,4,4)"/>
			<v:textRect cx="6.75" cy="118.86" width="13.5" height="9"/>
			<rect x="0" y="114.36" width="13.5" height="9" class="st1"/>
			<text x="4" y="121.86" class="st2" v:langID="1033"><v:paragraph v:horizAlign="1"/><v:tabList/>0</text>		</g>
		<g id="shape114-163" v:mID="114" v:groupContext="shape" transform="translate(113.85,-1.50018)">
			<title>Sheet.114</title>
			<desc>1</desc>
			<v:textBlock v:margins="rect(4,4,4,4)"/>
			<v:textRect cx="6.75" cy="118.86" width="13.5" height="9"/>
			<rect x="0" y="114.36" width="13.5" height="9" class="st1"/>
			<text x="4" y="121.86" class="st2" v:langID="1033"><v:paragraph v:horizAlign="1"/><v:tabList/>1</text>		</g>
	</g>
</svg>
