<?xml version="1.0" encoding="UTF-8" standalone="no"?>
<!DOCTYPE svg PUBLIC "-//W3C//DTD SVG 1.1//EN" "http://www.w3.org/Graphics/SVG/1.1/DTD/svg11.dtd">
<!-- Generated by Microsoft Visio, SVG Export POS.svg Page-1 -->
<svg xmlns="http://www.w3.org/2000/svg" xmlns:xlink="http://www.w3.org/1999/xlink" xmlns:ev="http://www.w3.org/2001/xml-events"
		xmlns:v="http://schemas.microsoft.com/visio/2003/SVGExtensions/" width="6.7075in" height="2.01521in"
		viewBox="0 0 482.94 145.095" xml:space="preserve" color-interpolation-filters="sRGB" class="st13">
	<v:documentProperties v:langID="1033" v:viewMarkup="false">
		<v:userDefs>
			<v:ud v:nameU="msvConvertTheme"/>
		</v:userDefs>
	</v:documentProperties>

	<style type="text/css">
	<![CDATA[
		.st1 {fill:none;stroke:none;stroke-linecap:round;stroke-linejoin:round;stroke-width:0.72}
		.st2 {fill:#000000;font-family:Arial;font-size:0.833336em}
		.st3 {stroke:#000000;stroke-linecap:round;stroke-linejoin:round;stroke-width:0.72}
		.st4 {fill:#1a1a1a;stroke:#000000;stroke-linecap:round;stroke-linejoin:round;stroke-width:0.24}
		.st5 {fill:#1a1a1a;stroke:#000000;stroke-linecap:round;stroke-linejoin:round;stroke-width:0.72}
		.st6 {marker-end:url(#mrkr4-187);stroke:#000000;stroke-linecap:round;stroke-linejoin:round;stroke-width:0.72}
		.st7 {fill:#000000;fill-opacity:1;stroke:#000000;stroke-opacity:1;stroke-width:0.22222222222222}
		.st8 {stroke:#000000;stroke-linecap:round;stroke-linejoin:round;stroke-width:0.746481}
		.st9 {fill:#ffffff;stroke:none;stroke-linecap:round;stroke-linejoin:round;stroke-width:0.75}
		.st10 {stroke:#000000;stroke-linecap:round;stroke-linejoin:round;stroke-width:0.748902}
		.st11 {fill:#000000;font-family:Arial;font-size:0.75em}
		.st12 {fill:none;stroke:#000000;stroke-linecap:round;stroke-linejoin:round;stroke-width:0.72}
		.st13 {fill:none;fill-rule:evenodd;font-size:12px;overflow:visible;stroke-linecap:square;stroke-miterlimit:3}
	]]>
	</style>

	<defs id="Markers">
		<g id="lend4">
			<path d="M 2 1 L 0 0 L 2 -1 L 2 1 " style="stroke:none"/>
		</g>
		<marker id="mrkr4-187" class="st7" v:arrowType="4" v:arrowSize="2" v:setback="9" refX="-9" orient="auto"
				markerUnits="strokeWidth" overflow="visible">
			<use xlink:href="#lend4" transform="scale(-4.5,-4.5) "/>
		</marker>
	</defs>
	<g v:mID="0" v:index="1" v:groupContext="foregroundPage">
		<title>Page-1</title>
		<v:pageProperties v:drawingScale="1" v:pageScale="1" v:drawingUnits="19" v:shadowOffsetX="9" v:shadowOffsetY="-9"/>
		<g id="shape1-1" v:mID="1" v:groupContext="shape" transform="translate(0.72,-117.375)">
			<title>Sheet.1</title>
			<desc>0</desc>
			<v:textBlock v:margins="rect(4,4,4,4)"/>
			<v:textRect cx="6.75" cy="140.595" width="13.5" height="9"/>
			<rect x="0" y="136.095" width="13.5" height="9" class="st1"/>
			<text x="4" y="143.6" class="st2" v:langID="1033"><v:paragraph v:horizAlign="1"/><v:tabList/>0</text>		</g>
		<g id="shape2-4" v:mID="2" v:groupContext="shape" transform="translate(16.47,-117.375)">
			<title>Sheet.2</title>
			<desc>0</desc>
			<v:textBlock v:margins="rect(4,4,4,4)"/>
			<v:textRect cx="6.75" cy="140.595" width="13.5" height="9"/>
			<rect x="0" y="136.095" width="13.5" height="9" class="st1"/>
			<text x="4" y="143.6" class="st2" v:langID="1033"><v:paragraph v:horizAlign="1"/><v:tabList/>0</text>		</g>
		<g id="shape3-7" v:mID="3" v:groupContext="shape" transform="translate(32.22,-117.375)">
			<title>Sheet.3</title>
			<desc>0</desc>
			<v:textBlock v:margins="rect(4,4,4,4)"/>
			<v:textRect cx="6.75" cy="140.595" width="13.5" height="9"/>
			<rect x="0" y="136.095" width="13.5" height="9" class="st1"/>
			<text x="4" y="143.6" class="st2" v:langID="1033"><v:paragraph v:horizAlign="1"/><v:tabList/>0</text>		</g>
		<g id="shape4-10" v:mID="4" v:groupContext="shape" transform="translate(0.72,-103.875)">
			<title>Sheet.4</title>
			<desc>0</desc>
			<v:textBlock v:margins="rect(4,4,4,4)"/>
			<v:textRect cx="6.75" cy="140.595" width="13.5" height="9"/>
			<rect x="0" y="136.095" width="13.5" height="9" class="st1"/>
			<text x="4" y="143.6" class="st2" v:langID="1033"><v:paragraph v:horizAlign="1"/><v:tabList/>0</text>		</g>
		<g id="shape5-13" v:mID="5" v:groupContext="shape" transform="translate(16.47,-103.875)">
			<title>Sheet.5</title>
			<desc>0</desc>
			<v:textBlock v:margins="rect(4,4,4,4)"/>
			<v:textRect cx="6.75" cy="140.595" width="13.5" height="9"/>
			<rect x="0" y="136.095" width="13.5" height="9" class="st1"/>
			<text x="4" y="143.6" class="st2" v:langID="1033"><v:paragraph v:horizAlign="1"/><v:tabList/>0</text>		</g>
		<g id="shape6-16" v:mID="6" v:groupContext="shape" transform="translate(32.22,-103.875)">
			<title>Sheet.6</title>
			<desc>1</desc>
			<v:textBlock v:margins="rect(4,4,4,4)"/>
			<v:textRect cx="6.75" cy="140.595" width="13.5" height="9"/>
			<rect x="0" y="136.095" width="13.5" height="9" class="st1"/>
			<text x="4" y="143.6" class="st2" v:langID="1033"><v:paragraph v:horizAlign="1"/><v:tabList/>1</text>		</g>
		<g id="shape7-19" v:mID="7" v:groupContext="shape" transform="translate(0.72,-90.3752)">
			<title>Sheet.7</title>
			<desc>0</desc>
			<v:textBlock v:margins="rect(4,4,4,4)"/>
			<v:textRect cx="6.75" cy="140.595" width="13.5" height="9"/>
			<rect x="0" y="136.095" width="13.5" height="9" class="st1"/>
			<text x="4" y="143.6" class="st2" v:langID="1033"><v:paragraph v:horizAlign="1"/><v:tabList/>0</text>		</g>
		<g id="shape8-22" v:mID="8" v:groupContext="shape" transform="translate(16.47,-90.3752)">
			<title>Sheet.8</title>
			<desc>1</desc>
			<v:textBlock v:margins="rect(4,4,4,4)"/>
			<v:textRect cx="6.75" cy="140.595" width="13.5" height="9"/>
			<rect x="0" y="136.095" width="13.5" height="9" class="st1"/>
			<text x="4" y="143.6" class="st2" v:langID="1033"><v:paragraph v:horizAlign="1"/><v:tabList/>1</text>		</g>
		<g id="shape9-25" v:mID="9" v:groupContext="shape" transform="translate(32.22,-90.3752)">
			<title>Sheet.9</title>
			<desc>0</desc>
			<v:textBlock v:margins="rect(4,4,4,4)"/>
			<v:textRect cx="6.75" cy="140.595" width="13.5" height="9"/>
			<rect x="0" y="136.095" width="13.5" height="9" class="st1"/>
			<text x="4" y="143.6" class="st2" v:langID="1033"><v:paragraph v:horizAlign="1"/><v:tabList/>0</text>		</g>
		<g id="shape10-28" v:mID="10" v:groupContext="shape" transform="translate(0.72,-76.8752)">
			<title>Sheet.10</title>
			<desc>0</desc>
			<v:textBlock v:margins="rect(4,4,4,4)"/>
			<v:textRect cx="6.75" cy="140.595" width="13.5" height="9"/>
			<rect x="0" y="136.095" width="13.5" height="9" class="st1"/>
			<text x="4" y="143.6" class="st2" v:langID="1033"><v:paragraph v:horizAlign="1"/><v:tabList/>0</text>		</g>
		<g id="shape11-31" v:mID="11" v:groupContext="shape" transform="translate(16.47,-76.8752)">
			<title>Sheet.11</title>
			<desc>1</desc>
			<v:textBlock v:margins="rect(4,4,4,4)"/>
			<v:textRect cx="6.75" cy="140.595" width="13.5" height="9"/>
			<rect x="0" y="136.095" width="13.5" height="9" class="st1"/>
			<text x="4" y="143.6" class="st2" v:langID="1033"><v:paragraph v:horizAlign="1"/><v:tabList/>1</text>		</g>
		<g id="shape12-34" v:mID="12" v:groupContext="shape" transform="translate(32.22,-76.8752)">
			<title>Sheet.12</title>
			<desc>1</desc>
			<v:textBlock v:margins="rect(4,4,4,4)"/>
			<v:textRect cx="6.75" cy="140.595" width="13.5" height="9"/>
			<rect x="0" y="136.095" width="13.5" height="9" class="st1"/>
			<text x="4" y="143.6" class="st2" v:langID="1033"><v:paragraph v:horizAlign="1"/><v:tabList/>1</text>		</g>
		<g id="shape13-37" v:mID="13" v:groupContext="shape" transform="translate(0.72,-63.3752)">
			<title>Sheet.13</title>
			<desc>1</desc>
			<v:textBlock v:margins="rect(4,4,4,4)"/>
			<v:textRect cx="6.75" cy="140.595" width="13.5" height="9"/>
			<rect x="0" y="136.095" width="13.5" height="9" class="st1"/>
			<text x="4" y="143.6" class="st2" v:langID="1033"><v:paragraph v:horizAlign="1"/><v:tabList/>1</text>		</g>
		<g id="shape14-40" v:mID="14" v:groupContext="shape" transform="translate(16.47,-63.3752)">
			<title>Sheet.14</title>
			<desc>0</desc>
			<v:textBlock v:margins="rect(4,4,4,4)"/>
			<v:textRect cx="6.75" cy="140.595" width="13.5" height="9"/>
			<rect x="0" y="136.095" width="13.5" height="9" class="st1"/>
			<text x="4" y="143.6" class="st2" v:langID="1033"><v:paragraph v:horizAlign="1"/><v:tabList/>0</text>		</g>
		<g id="shape15-43" v:mID="15" v:groupContext="shape" transform="translate(32.22,-63.3752)">
			<title>Sheet.15</title>
			<desc>0</desc>
			<v:textBlock v:margins="rect(4,4,4,4)"/>
			<v:textRect cx="6.75" cy="140.595" width="13.5" height="9"/>
			<rect x="0" y="136.095" width="13.5" height="9" class="st1"/>
			<text x="4" y="143.6" class="st2" v:langID="1033"><v:paragraph v:horizAlign="1"/><v:tabList/>0</text>		</g>
		<g id="shape16-46" v:mID="16" v:groupContext="shape" transform="translate(0.72,-49.8752)">
			<title>Sheet.16</title>
			<desc>1</desc>
			<v:textBlock v:margins="rect(4,4,4,4)"/>
			<v:textRect cx="6.75" cy="140.595" width="13.5" height="9"/>
			<rect x="0" y="136.095" width="13.5" height="9" class="st1"/>
			<text x="4" y="143.6" class="st2" v:langID="1033"><v:paragraph v:horizAlign="1"/><v:tabList/>1</text>		</g>
		<g id="shape17-49" v:mID="17" v:groupContext="shape" transform="translate(16.47,-49.8752)">
			<title>Sheet.17</title>
			<desc>0</desc>
			<v:textBlock v:margins="rect(4,4,4,4)"/>
			<v:textRect cx="6.75" cy="140.595" width="13.5" height="9"/>
			<rect x="0" y="136.095" width="13.5" height="9" class="st1"/>
			<text x="4" y="143.6" class="st2" v:langID="1033"><v:paragraph v:horizAlign="1"/><v:tabList/>0</text>		</g>
		<g id="shape18-52" v:mID="18" v:groupContext="shape" transform="translate(32.22,-49.8752)">
			<title>Sheet.18</title>
			<desc>1</desc>
			<v:textBlock v:margins="rect(4,4,4,4)"/>
			<v:textRect cx="6.75" cy="140.595" width="13.5" height="9"/>
			<rect x="0" y="136.095" width="13.5" height="9" class="st1"/>
			<text x="4" y="143.6" class="st2" v:langID="1033"><v:paragraph v:horizAlign="1"/><v:tabList/>1</text>		</g>
		<g id="shape19-55" v:mID="19" v:groupContext="shape" transform="translate(0.72,-36.3752)">
			<title>Sheet.19</title>
			<desc>1</desc>
			<v:textBlock v:margins="rect(4,4,4,4)"/>
			<v:textRect cx="6.75" cy="140.595" width="13.5" height="9"/>
			<rect x="0" y="136.095" width="13.5" height="9" class="st1"/>
			<text x="4" y="143.6" class="st2" v:langID="1033"><v:paragraph v:horizAlign="1"/><v:tabList/>1</text>		</g>
		<g id="shape20-58" v:mID="20" v:groupContext="shape" transform="translate(16.47,-36.3752)">
			<title>Sheet.20</title>
			<desc>1</desc>
			<v:textBlock v:margins="rect(4,4,4,4)"/>
			<v:textRect cx="6.75" cy="140.595" width="13.5" height="9"/>
			<rect x="0" y="136.095" width="13.5" height="9" class="st1"/>
			<text x="4" y="143.6" class="st2" v:langID="1033"><v:paragraph v:horizAlign="1"/><v:tabList/>1</text>		</g>
		<g id="shape21-61" v:mID="21" v:groupContext="shape" transform="translate(32.22,-36.3752)">
			<title>Sheet.21</title>
			<desc>0</desc>
			<v:textBlock v:margins="rect(4,4,4,4)"/>
			<v:textRect cx="6.75" cy="140.595" width="13.5" height="9"/>
			<rect x="0" y="136.095" width="13.5" height="9" class="st1"/>
			<text x="4" y="143.6" class="st2" v:langID="1033"><v:paragraph v:horizAlign="1"/><v:tabList/>0</text>		</g>
		<g id="shape22-64" v:mID="22" v:groupContext="shape" transform="translate(0.72,-22.8752)">
			<title>Sheet.22</title>
			<desc>1</desc>
			<v:textBlock v:margins="rect(4,4,4,4)"/>
			<v:textRect cx="6.75" cy="140.595" width="13.5" height="9"/>
			<rect x="0" y="136.095" width="13.5" height="9" class="st1"/>
			<text x="4" y="143.6" class="st2" v:langID="1033"><v:paragraph v:horizAlign="1"/><v:tabList/>1</text>		</g>
		<g id="shape23-67" v:mID="23" v:groupContext="shape" transform="translate(16.47,-22.8752)">
			<title>Sheet.23</title>
			<desc>1</desc>
			<v:textBlock v:margins="rect(4,4,4,4)"/>
			<v:textRect cx="6.75" cy="140.595" width="13.5" height="9"/>
			<rect x="0" y="136.095" width="13.5" height="9" class="st1"/>
			<text x="4" y="143.6" class="st2" v:langID="1033"><v:paragraph v:horizAlign="1"/><v:tabList/>1</text>		</g>
		<g id="shape24-70" v:mID="24" v:groupContext="shape" transform="translate(32.22,-22.8752)">
			<title>Sheet.24</title>
			<desc>1</desc>
			<v:textBlock v:margins="rect(4,4,4,4)"/>
			<v:textRect cx="6.75" cy="140.595" width="13.5" height="9"/>
			<rect x="0" y="136.095" width="13.5" height="9" class="st1"/>
			<text x="4" y="143.6" class="st2" v:langID="1033"><v:paragraph v:horizAlign="1"/><v:tabList/>1</text>		</g>
		<g id="shape25-73" v:mID="25" v:groupContext="shape" transform="translate(0.72,-133.125)">
			<title>Sheet.25</title>
			<desc>A</desc>
			<v:textBlock v:margins="rect(4,4,4,4)"/>
			<v:textRect cx="6.75" cy="140.595" width="13.5" height="9"/>
			<rect x="0" y="136.095" width="13.5" height="9" class="st1"/>
			<text x="4" y="143.6" class="st2" v:langID="1033"><v:paragraph v:horizAlign="1"/><v:tabList/>A</text>		</g>
		<g id="shape26-76" v:mID="26" v:groupContext="shape" transform="translate(16.47,-133.125)">
			<title>Sheet.26</title>
			<desc>B</desc>
			<v:textBlock v:margins="rect(4,4,4,4)"/>
			<v:textRect cx="6.75" cy="140.595" width="13.5" height="9"/>
			<rect x="0" y="136.095" width="13.5" height="9" class="st1"/>
			<text x="4" y="143.6" class="st2" v:langID="1033"><v:paragraph v:horizAlign="1"/><v:tabList/>B</text>		</g>
		<g id="shape27-79" v:mID="27" v:groupContext="shape" transform="translate(32.22,-133.125)">
			<title>Sheet.27</title>
			<desc>C</desc>
			<v:textBlock v:margins="rect(4,4,4,4)"/>
			<v:textRect cx="6.75" cy="140.595" width="13.5" height="9"/>
			<rect x="0" y="136.095" width="13.5" height="9" class="st1"/>
			<text x="4" y="143.6" class="st2" v:langID="1033"><v:paragraph v:horizAlign="1"/><v:tabList/>C</text>		</g>
		<g id="shape28-82" v:mID="28" v:groupContext="shape" transform="translate(50.22,-133.125)">
			<title>Sheet.28</title>
			<desc>Y</desc>
			<v:textBlock v:margins="rect(4,4,4,4)"/>
			<v:textRect cx="6.75" cy="140.595" width="13.5" height="9"/>
			<rect x="0" y="136.095" width="13.5" height="9" class="st1"/>
			<text x="4" y="143.6" class="st2" v:langID="1033"><v:paragraph v:horizAlign="1"/><v:tabList/>Y</text>		</g>
		<g id="shape29-85" v:mID="29" v:groupContext="shape" transform="translate(5.22,-130.875)">
			<title>Sheet.29</title>
			<path d="M0 145.1 L56.25 145.1" class="st3"/>
		</g>
		<g id="shape30-88" v:mID="30" v:groupContext="shape" transform="translate(193.065,0.72) rotate(90)">
			<title>Sheet.30</title>
			<path d="M0 145.1 L121.5 145.1" class="st3"/>
		</g>
		<g id="shape31-91" v:mID="31" v:groupContext="shape" transform="translate(50.22,-117.375)">
			<title>Sheet.31</title>
			<desc>0</desc>
			<v:textBlock v:margins="rect(4,4,4,4)"/>
			<v:textRect cx="6.75" cy="140.595" width="13.5" height="9"/>
			<rect x="0" y="136.095" width="13.5" height="9" class="st1"/>
			<text x="4" y="143.6" class="st2" v:langID="1033"><v:paragraph v:horizAlign="1"/><v:tabList/>0</text>		</g>
		<g id="shape32-94" v:mID="32" v:groupContext="shape" transform="translate(50.22,-103.875)">
			<title>Sheet.32</title>
			<desc>1</desc>
			<v:textBlock v:margins="rect(4,4,4,4)"/>
			<v:textRect cx="6.75" cy="140.595" width="13.5" height="9"/>
			<rect x="0" y="136.095" width="13.5" height="9" class="st1"/>
			<text x="4" y="143.6" class="st2" v:langID="1033"><v:paragraph v:horizAlign="1"/><v:tabList/>1</text>		</g>
		<g id="shape33-97" v:mID="33" v:groupContext="shape" transform="translate(50.22,-90.3752)">
			<title>Sheet.33</title>
			<desc>0</desc>
			<v:textBlock v:margins="rect(4,4,4,4)"/>
			<v:textRect cx="6.75" cy="140.595" width="13.5" height="9"/>
			<rect x="0" y="136.095" width="13.5" height="9" class="st1"/>
			<text x="4" y="143.6" class="st2" v:langID="1033"><v:paragraph v:horizAlign="1"/><v:tabList/>0</text>		</g>
		<g id="shape34-100" v:mID="34" v:groupContext="shape" transform="translate(50.22,-76.8752)">
			<title>Sheet.34</title>
			<desc>1</desc>
			<v:textBlock v:margins="rect(4,4,4,4)"/>
			<v:textRect cx="6.75" cy="140.595" width="13.5" height="9"/>
			<rect x="0" y="136.095" width="13.5" height="9" class="st1"/>
			<text x="4" y="143.6" class="st2" v:langID="1033"><v:paragraph v:horizAlign="1"/><v:tabList/>1</text>		</g>
		<g id="shape35-103" v:mID="35" v:groupContext="shape" transform="translate(50.22,-63.3752)">
			<title>Sheet.35</title>
			<desc>0</desc>
			<v:textBlock v:margins="rect(4,4,4,4)"/>
			<v:textRect cx="6.75" cy="140.595" width="13.5" height="9"/>
			<rect x="0" y="136.095" width="13.5" height="9" class="st1"/>
			<text x="4" y="143.6" class="st2" v:langID="1033"><v:paragraph v:horizAlign="1"/><v:tabList/>0</text>		</g>
		<g id="shape36-106" v:mID="36" v:groupContext="shape" transform="translate(50.22,-49.8752)">
			<title>Sheet.36</title>
			<desc>1</desc>
			<v:textBlock v:margins="rect(4,4,4,4)"/>
			<v:textRect cx="6.75" cy="140.595" width="13.5" height="9"/>
			<rect x="0" y="136.095" width="13.5" height="9" class="st1"/>
			<text x="4" y="143.6" class="st2" v:langID="1033"><v:paragraph v:horizAlign="1"/><v:tabList/>1</text>		</g>
		<g id="shape37-109" v:mID="37" v:groupContext="shape" transform="translate(50.22,-36.3752)">
			<title>Sheet.37</title>
			<desc>0</desc>
			<v:textBlock v:margins="rect(4,4,4,4)"/>
			<v:textRect cx="6.75" cy="140.595" width="13.5" height="9"/>
			<rect x="0" y="136.095" width="13.5" height="9" class="st1"/>
			<text x="4" y="143.6" class="st2" v:langID="1033"><v:paragraph v:horizAlign="1"/><v:tabList/>0</text>		</g>
		<g id="shape38-112" v:mID="38" v:groupContext="shape" transform="translate(50.22,-22.8752)">
			<title>Sheet.38</title>
			<desc>0</desc>
			<v:textBlock v:margins="rect(4,4,4,4)"/>
			<v:textRect cx="6.75" cy="140.595" width="13.5" height="9"/>
			<rect x="0" y="136.095" width="13.5" height="9" class="st1"/>
			<text x="4" y="143.6" class="st2" v:langID="1033"><v:paragraph v:horizAlign="1"/><v:tabList/>0</text>		</g>
		<g id="shape45-115" v:mID="45" v:groupContext="shape" transform="translate(430.47,161.565) rotate(180)">
			<title>Sheet.45</title>
			<path d="M0 145.1 L27 145.1" class="st3"/>
		</g>
		<g id="shape49-118" v:mID="49" v:groupContext="shape" transform="translate(468.72,-70.1252)">
			<title>Sheet.49</title>
			<desc>Y</desc>
			<v:textBlock v:margins="rect(4,4,4,4)"/>
			<v:textRect cx="6.75" cy="140.595" width="13.5" height="9"/>
			<rect x="0" y="136.095" width="13.5" height="9" class="st1"/>
			<text x="4" y="143.6" class="st2" v:langID="1033"><v:paragraph v:horizAlign="1"/><v:tabList/>Y</text>		</g>
		<g id="shape64-121" v:mID="64" v:groupContext="shape" transform="translate(439.47,229.065) rotate(180)">
			<title>Sheet.64</title>
			<path d="M0 145.1 L9 145.1" class="st3"/>
		</g>
		<g id="shape65-124" v:mID="65" v:groupContext="shape" transform="translate(439.47,221.94) rotate(180)">
			<title>Sheet.65</title>
			<path d="M0 145.1 L18 145.1" class="st3"/>
		</g>
		<g id="shape66-127" v:mID="66" v:groupContext="shape" transform="translate(439.47,215.565) rotate(180)">
			<title>Sheet.66</title>
			<path d="M0 145.1 L35.62 145.1" class="st3"/>
		</g>
		<g id="shape67-130" v:mID="67" v:groupContext="shape" transform="translate(439.47,208.815) rotate(180)">
			<title>Sheet.67</title>
			<path d="M0 145.1 L18 145.1" class="st3"/>
		</g>
		<g id="shape68-133" v:mID="68" v:groupContext="shape" transform="translate(439.47,202.065) rotate(180)">
			<title>Sheet.68</title>
			<path d="M0 145.1 L9 145.1" class="st3"/>
		</g>
		<g id="shape69-136" v:mID="69" v:groupContext="shape" transform="translate(575.565,16.47) rotate(90)">
			<title>Sheet.69</title>
			<path d="M0 145.1 L40.5 145.1" class="st3"/>
		</g>
		<g id="shape70-139" v:mID="70" v:groupContext="shape" transform="translate(566.565,76.845) rotate(90)">
			<title>Sheet.70</title>
			<path d="M0 145.1 L20.62 145.1" class="st3"/>
		</g>
		<g id="shape75-142" v:mID="75" v:groupContext="shape" transform="translate(468.72,215.565) rotate(180)">
			<title>Sheet.75</title>
			<path d="M0 145.1 L9 145.1" class="st3"/>
		</g>
		<g id="shape109-145" v:mID="109" v:groupContext="shape" transform="translate(378.784,154.815) rotate(180)">
			<title>Sheet.109</title>
			<path d="M0 145.1 L76.5 145.1" class="st3"/>
		</g>
		<g id="shape113-148" v:mID="113" v:groupContext="shape" transform="translate(323.876,-134.531)">
			<title>Circle.174</title>
			<path d="M0 144.25 a0.84375 0.84375 0 0 1 1.6875 0 a0.84375 0.84375 0 1 1 -1.6875 0 Z" class="st4"/>
		</g>
		<g id="shape116-150" v:mID="116" v:groupContext="shape" transform="translate(103.658,-5.43768)">
			<title>Circle.269</title>
			<path d="M0 144.53 a0.5625 0.5625 0 0 1 1.125 0 a0.5625 0.5625 0 1 1 -1.125 0 Z" class="st5"/>
		</g>
		<g id="shape117-152" v:mID="117" v:groupContext="shape" transform="translate(9.72,-1.50018)">
			<title>Sheet.117</title>
			<desc>Y = (A+B+C) (A+B+C) (A+B+C) (A+B+C) (A+B+C)</desc>
			<v:textBlock v:margins="rect(4,4,4,4)"/>
			<v:textRect cx="148.5" cy="140.595" width="297" height="9"/>
			<rect x="0" y="136.095" width="297" height="9" class="st1"/>
			<text x="28.32" y="143.6" class="st2" v:langID="1033"><v:paragraph v:horizAlign="1"/><v:tabList/>Y  =  (A+B+C)  (A+B+C)  (A+B+C)  (A+B+C)  (A+B+C)    </text>		</g>
		<g id="shape118-155" v:mID="118" v:groupContext="shape" transform="translate(148.095,-5.43768)">
			<title>Circle.89</title>
			<path d="M0 144.53 a0.5625 0.5625 0 0 1 1.125 0 a0.5625 0.5625 0 1 1 -1.125 0 Z" class="st5"/>
		</g>
		<g id="shape119-157" v:mID="119" v:groupContext="shape" transform="translate(191.97,-5.43768)">
			<title>Circle.109</title>
			<path d="M0 144.53 a0.5625 0.5625 0 0 1 1.125 0 a0.5625 0.5625 0 1 1 -1.125 0 Z" class="st5"/>
		</g>
		<g id="shape120-159" v:mID="120" v:groupContext="shape" transform="translate(235.845,-5.43768)">
			<title>Circle.117</title>
			<path d="M0 144.53 a0.5625 0.5625 0 0 1 1.125 0 a0.5625 0.5625 0 1 1 -1.125 0 Z" class="st5"/>
		</g>
		<g id="shape121-161" v:mID="121" v:groupContext="shape" transform="translate(65.97,-12.7502)">
			<title>Sheet.121</title>
			<path d="M0 145.1 L5.62 145.1" class="st3"/>
		</g>
		<g id="shape122-164" v:mID="122" v:groupContext="shape" transform="translate(78.345,-12.7502)">
			<title>Sheet.122</title>
			<path d="M0 145.1 L5.44 145.1" class="st3"/>
		</g>
		<g id="shape123-167" v:mID="123" v:groupContext="shape" transform="translate(90.72,-12.7502)">
			<title>Sheet.123</title>
			<path d="M0 145.1 L6.75 145.1" class="st3"/>
		</g>
		<g id="shape124-170" v:mID="124" v:groupContext="shape" transform="translate(122.22,-12.7502)">
			<title>Sheet.124</title>
			<path d="M0 145.1 L5.62 145.1" class="st3"/>
		</g>
		<g id="shape125-173" v:mID="125" v:groupContext="shape" transform="translate(109.845,-12.7502)">
			<title>Sheet.125</title>
			<path d="M0 145.1 L6.75 145.1" class="st3"/>
		</g>
		<g id="shape126-176" v:mID="126" v:groupContext="shape" transform="translate(153.72,-12.7502)">
			<title>Sheet.126</title>
			<path d="M0 145.1 L6.75 145.1" class="st3"/>
		</g>
		<g id="shape127-179" v:mID="127" v:groupContext="shape" transform="translate(211.095,-12.7502)">
			<title>Sheet.127</title>
			<path d="M0 145.1 L5.44 145.1" class="st3"/>
		</g>
		<g id="shape128-182" v:mID="128" v:groupContext="shape" transform="translate(63.72,-18.3752)">
			<title>Sheet.128</title>
			<path d="M0 41.6 L19.35 41.6 L193.5 41.6 L193.5 138.62" class="st6"/>
		</g>
		<g id="shape129-188" v:mID="129" v:groupContext="shape" transform="translate(63.72,-18.3752)">
			<title>Sheet.129</title>
			<path d="M0 68.6 L148.5 68.6 L148.5 129.8 L148.5 138.62" class="st6"/>
		</g>
		<g id="shape130-193" v:mID="130" v:groupContext="shape" transform="translate(63.72,-18.3752)">
			<title>Sheet.130</title>
			<path d="M0 95.6 L105.75 95.6 L105.75 138.62" class="st6"/>
		</g>
		<g id="shape131-198" v:mID="131" v:groupContext="shape" transform="translate(63.72,-18.3752)">
			<title>Sheet.131</title>
			<path d="M0 122.6 L60.75 122.6 L60.75 138.62" class="st6"/>
		</g>
		<g id="shape132-203" v:mID="132" v:groupContext="shape" transform="translate(64.845,-18.3752)">
			<title>Sheet.132</title>
			<path d="M0 136.1 L15.75 136.1 L15.75 138.62" class="st6"/>
		</g>
		<g id="shape197-208" v:mID="197" v:groupContext="shape" transform="translate(376.47,-9.37518)">
			<title>Sheet.197</title>
			<path d="M0.19 122.6 L8.23 122.6 L10.35 122.97 L11.57 123.22 L13.05 123.6 L14.85 124.28 L16.46 124.97 L18.13 125.72 L19.8
						 126.72 L21.41 127.78 L23.01 129.03 L24.69 130.6 L26.23 132.6 L27 133.85 L26.23 135.03 L24.69 136.97 L23.01
						 138.66 L21.41 139.85 L19.67 140.91 L18.13 141.85 L16.46 142.6 L14.85 143.28 L13.11 143.97 L11.57 144.35
						 L9.9 144.72 L8.23 144.97 L6.69 145.1 L0 145.1 L1.35 142.97 L2.19 140.91 L2.7 139.47 L3.15 138.1 L3.54 136.72
						 L3.66 135.28 L3.79 133.85 L3.66 132.41 L3.6 131.1 L3.28 129.66 L2.83 128.22 L2.31 126.78 L1.67 125.41 L0.9
						 123.91 L0.19 122.6 L0.19 122.6" class="st8"/>
		</g>
		<g id="group59-211" transform="translate(358.47,-130.875)" v:mID="59" v:groupContext="group">
			<title>Sheet.59</title>
			<g id="shape60-212" v:mID="60" v:groupContext="shape">
				<title>Sheet.60</title>
				<path d="M0 136.1 L0 145.1 L6.92 140.55 L0 136.1 L0 136.1 Z" class="st9"/>
			</g>
			<g id="shape61-214" v:mID="61" v:groupContext="shape">
				<title>Sheet.61</title>
				<path d="M0 136.1 L0 145.1 L6.92 140.55 L0 136.1 L0 136.1" class="st10"/>
			</g>
			<g id="shape196-217" v:mID="196" v:groupContext="shape" transform="translate(6.92308,-3.43299)">
				<title>Sheet.196</title>
				<path d="M0 143.98 L0 143.8 L0.09 143.52 L0.17 143.33 L0.35 143.24 L0.43 143.05 L0.69 142.96 L0.87 142.87 L1.04 142.87
							 L1.3 142.87 L1.47 142.96 L1.64 143.05 L1.82 143.24 L1.9 143.33 L1.99 143.52 L2.08 143.8 L2.08 143.98
							 L2.08 143.98 L2.08 144.26 L1.99 144.45 L1.9 144.63 L1.82 144.82 L1.64 144.91 L1.47 145 L1.3 145.1 L1.04
							 145.1 L0.87 145.1 L0.69 145 L0.43 144.91 L0.35 144.82 L0.17 144.63 L0.09 144.45 L0 144.26 L0 143.98
							 L0 143.98 Z" class="st9"/>
			</g>
			<g id="shape198-219" v:mID="198" v:groupContext="shape" transform="translate(6.92308,-3.43299)">
				<title>Sheet.198</title>
				<path d="M0 143.98 L0 143.8 L0.09 143.52 L0.17 143.33 L0.35 143.24 L0.43 143.05 L0.69 142.96 L0.87 142.87 L1.04 142.87
							 L1.3 142.87 L1.47 142.96 L1.64 143.05 L1.82 143.24 L1.9 143.33 L1.99 143.52 L2.08 143.8 L2.08 143.98
							 L2.08 143.98 L2.08 144.26 L1.99 144.45 L1.9 144.63 L1.82 144.82 L1.64 144.91 L1.47 145 L1.3 145.1 L1.04
							 145.1 L0.87 145.1 L0.69 145 L0.43 144.91 L0.35 144.82 L0.17 144.63 L0.09 144.45 L0 144.26 L0 143.98"
						class="st10"/>
			</g>
		</g>
		<g id="shape39-222" v:mID="39" v:groupContext="shape" transform="translate(376.47,-36.3752)">
			<title>Sheet.39</title>
			<path d="M0.19 122.6 L8.23 122.6 L10.35 122.97 L11.57 123.22 L13.05 123.6 L14.85 124.28 L16.46 124.97 L18.13 125.72 L19.8
						 126.72 L21.41 127.78 L23.01 129.03 L24.69 130.6 L26.23 132.6 L27 133.85 L26.23 135.03 L24.69 136.97 L23.01
						 138.66 L21.41 139.85 L19.67 140.91 L18.13 141.85 L16.46 142.6 L14.85 143.28 L13.11 143.97 L11.57 144.35
						 L9.9 144.72 L8.23 144.97 L6.69 145.1 L0 145.1 L1.35 142.97 L2.19 140.91 L2.7 139.47 L3.15 138.1 L3.54 136.72
						 L3.66 135.28 L3.79 133.85 L3.66 132.41 L3.6 131.1 L3.28 129.66 L2.83 128.22 L2.31 126.78 L1.67 125.41 L0.9
						 123.91 L0.19 122.6 L0.19 122.6" class="st8"/>
		</g>
		<g id="shape40-225" v:mID="40" v:groupContext="shape" transform="translate(376.47,-63.3752)">
			<title>Sheet.40</title>
			<path d="M0.19 122.6 L8.23 122.6 L10.35 122.97 L11.57 123.22 L13.05 123.6 L14.85 124.28 L16.46 124.97 L18.13 125.72 L19.8
						 126.72 L21.41 127.78 L23.01 129.03 L24.69 130.6 L26.23 132.6 L27 133.85 L26.23 135.03 L24.69 136.97 L23.01
						 138.66 L21.41 139.85 L19.67 140.91 L18.13 141.85 L16.46 142.6 L14.85 143.28 L13.11 143.97 L11.57 144.35
						 L9.9 144.72 L8.23 144.97 L6.69 145.1 L0 145.1 L1.35 142.97 L2.19 140.91 L2.7 139.47 L3.15 138.1 L3.54 136.72
						 L3.66 135.28 L3.79 133.85 L3.66 132.41 L3.6 131.1 L3.28 129.66 L2.83 128.22 L2.31 126.78 L1.67 125.41 L0.9
						 123.91 L0.19 122.6 L0.19 122.6" class="st8"/>
		</g>
		<g id="shape41-228" v:mID="41" v:groupContext="shape" transform="translate(376.47,-90.3752)">
			<title>Sheet.41</title>
			<path d="M0.19 122.6 L8.23 122.6 L10.35 122.97 L11.57 123.22 L13.05 123.6 L14.85 124.28 L16.46 124.97 L18.13 125.72 L19.8
						 126.72 L21.41 127.78 L23.01 129.03 L24.69 130.6 L26.23 132.6 L27 133.85 L26.23 135.03 L24.69 136.97 L23.01
						 138.66 L21.41 139.85 L19.67 140.91 L18.13 141.85 L16.46 142.6 L14.85 143.28 L13.11 143.97 L11.57 144.35
						 L9.9 144.72 L8.23 144.97 L6.69 145.1 L0 145.1 L1.35 142.97 L2.19 140.91 L2.7 139.47 L3.15 138.1 L3.54 136.72
						 L3.66 135.28 L3.79 133.85 L3.66 132.41 L3.6 131.1 L3.28 129.66 L2.83 128.22 L2.31 126.78 L1.67 125.41 L0.9
						 123.91 L0.19 122.6 L0.19 122.6" class="st8"/>
		</g>
		<g id="shape42-231" v:mID="42" v:groupContext="shape" transform="translate(376.47,-117.375)">
			<title>Sheet.42</title>
			<path d="M0.19 122.6 L8.23 122.6 L10.35 122.97 L11.57 123.22 L13.05 123.6 L14.85 124.28 L16.46 124.97 L18.13 125.72 L19.8
						 126.72 L21.41 127.78 L23.01 129.03 L24.69 130.6 L26.23 132.6 L27 133.85 L26.23 135.03 L24.69 136.97 L23.01
						 138.66 L21.41 139.85 L19.67 140.91 L18.13 141.85 L16.46 142.6 L14.85 143.28 L13.11 143.97 L11.57 144.35
						 L9.9 144.72 L8.23 144.97 L6.69 145.1 L0 145.1 L1.35 142.97 L2.19 140.91 L2.7 139.47 L3.15 138.1 L3.54 136.72
						 L3.66 135.28 L3.79 133.85 L3.66 132.41 L3.6 131.1 L3.28 129.66 L2.83 128.22 L2.31 126.78 L1.67 125.41 L0.9
						 123.91 L0.19 122.6 L0.19 122.6" class="st8"/>
		</g>
		<g id="shape43-234" v:mID="43" v:groupContext="shape" transform="translate(517.065,9.89273) rotate(90.0682)">
			<title>Sheet.43</title>
			<path d="M0 145.1 L54 145.1" class="st3"/>
		</g>
		<g id="shape44-237" v:mID="44" v:groupContext="shape" transform="translate(378.656,168.315) rotate(180)">
			<title>Sheet.44</title>
			<path d="M0 145.1 L76.5 145.1" class="st3"/>
		</g>
		<g id="shape50-240" v:mID="50" v:groupContext="shape" transform="translate(380.263,161.565) rotate(180)">
			<title>Sheet.50</title>
			<path d="M0 145.1 L78.04 145.1" class="st3"/>
		</g>
		<g id="group51-243" transform="translate(347.22,-124.125)" v:mID="51" v:groupContext="group">
			<title>Sheet.51</title>
			<g id="shape52-244" v:mID="52" v:groupContext="shape">
				<title>Sheet.52</title>
				<path d="M0 136.1 L0 145.1 L6.92 140.55 L0 136.1 L0 136.1 Z" class="st9"/>
			</g>
			<g id="shape53-246" v:mID="53" v:groupContext="shape">
				<title>Sheet.53</title>
				<path d="M0 136.1 L0 145.1 L6.92 140.55 L0 136.1 L0 136.1" class="st10"/>
			</g>
			<g id="shape54-249" v:mID="54" v:groupContext="shape" transform="translate(6.92308,-3.43299)">
				<title>Sheet.54</title>
				<path d="M0 143.98 L0 143.8 L0.09 143.52 L0.17 143.33 L0.35 143.24 L0.43 143.05 L0.69 142.96 L0.87 142.87 L1.04 142.87
							 L1.3 142.87 L1.47 142.96 L1.64 143.05 L1.82 143.24 L1.9 143.33 L1.99 143.52 L2.08 143.8 L2.08 143.98
							 L2.08 143.98 L2.08 144.26 L1.99 144.45 L1.9 144.63 L1.82 144.82 L1.64 144.91 L1.47 145 L1.3 145.1 L1.04
							 145.1 L0.87 145.1 L0.69 145 L0.43 144.91 L0.35 144.82 L0.17 144.63 L0.09 144.45 L0 144.26 L0 143.98
							 L0 143.98 Z" class="st9"/>
			</g>
			<g id="shape55-251" v:mID="55" v:groupContext="shape" transform="translate(6.92308,-3.43299)">
				<title>Sheet.55</title>
				<path d="M0 143.98 L0 143.8 L0.09 143.52 L0.17 143.33 L0.35 143.24 L0.43 143.05 L0.69 142.96 L0.87 142.87 L1.04 142.87
							 L1.3 142.87 L1.47 142.96 L1.64 143.05 L1.82 143.24 L1.9 143.33 L1.99 143.52 L2.08 143.8 L2.08 143.98
							 L2.08 143.98 L2.08 144.26 L1.99 144.45 L1.9 144.63 L1.82 144.82 L1.64 144.91 L1.47 145 L1.3 145.1 L1.04
							 145.1 L0.87 145.1 L0.69 145 L0.43 144.91 L0.35 144.82 L0.17 144.63 L0.09 144.45 L0 144.26 L0 143.98"
						class="st10"/>
			</g>
		</g>
		<g id="group56-254" transform="translate(335.97,-117.375)" v:mID="56" v:groupContext="group">
			<title>Sheet.56</title>
			<g id="shape57-255" v:mID="57" v:groupContext="shape">
				<title>Sheet.57</title>
				<path d="M0 136.1 L0 145.1 L6.92 140.55 L0 136.1 L0 136.1 Z" class="st9"/>
			</g>
			<g id="shape58-257" v:mID="58" v:groupContext="shape">
				<title>Sheet.58</title>
				<path d="M0 136.1 L0 145.1 L6.92 140.55 L0 136.1 L0 136.1" class="st10"/>
			</g>
			<g id="shape76-260" v:mID="76" v:groupContext="shape" transform="translate(6.92308,-3.43299)">
				<title>Sheet.76</title>
				<path d="M0 143.98 L0 143.8 L0.09 143.52 L0.17 143.33 L0.35 143.24 L0.43 143.05 L0.69 142.96 L0.87 142.87 L1.04 142.87
							 L1.3 142.87 L1.47 142.96 L1.64 143.05 L1.82 143.24 L1.9 143.33 L1.99 143.52 L2.08 143.8 L2.08 143.98
							 L2.08 143.98 L2.08 144.26 L1.99 144.45 L1.9 144.63 L1.82 144.82 L1.64 144.91 L1.47 145 L1.3 145.1 L1.04
							 145.1 L0.87 145.1 L0.69 145 L0.43 144.91 L0.35 144.82 L0.17 144.63 L0.09 144.45 L0 144.26 L0 143.98
							 L0 143.98 Z" class="st9"/>
			</g>
			<g id="shape77-262" v:mID="77" v:groupContext="shape" transform="translate(6.92308,-3.43299)">
				<title>Sheet.77</title>
				<path d="M0 143.98 L0 143.8 L0.09 143.52 L0.17 143.33 L0.35 143.24 L0.43 143.05 L0.69 142.96 L0.87 142.87 L1.04 142.87
							 L1.3 142.87 L1.47 142.96 L1.64 143.05 L1.82 143.24 L1.9 143.33 L1.99 143.52 L2.08 143.8 L2.08 143.98
							 L2.08 143.98 L2.08 144.26 L1.99 144.45 L1.9 144.63 L1.82 144.82 L1.64 144.91 L1.47 145 L1.3 145.1 L1.04
							 145.1 L0.87 145.1 L0.69 145 L0.43 144.91 L0.35 144.82 L0.17 144.63 L0.09 144.45 L0 144.26 L0 143.98"
						class="st10"/>
			</g>
		</g>
		<g id="shape78-265" v:mID="78" v:groupContext="shape" transform="translate(510.315,16.5924) rotate(90.0483)">
			<title>Sheet.78</title>
			<path d="M0 145.1 L81 145.1" class="st3"/>
		</g>
		<g id="shape80-268" v:mID="80" v:groupContext="shape" transform="translate(469.815,9.72) rotate(90)">
			<title>Sheet.80</title>
			<path d="M0 145.1 L108 145.1" class="st3"/>
		</g>
		<g id="shape81-271" v:mID="81" v:groupContext="shape" transform="translate(463.065,16.47) rotate(90)">
			<title>Sheet.81</title>
			<path d="M0 145.1 L108 145.1" class="st3"/>
		</g>
		<g id="shape82-274" v:mID="82" v:groupContext="shape" transform="translate(456.315,23.22) rotate(90)">
			<title>Sheet.82</title>
			<path d="M0 145.1 L108 145.1" class="st3"/>
		</g>
		<g id="shape84-277" v:mID="84" v:groupContext="shape" transform="translate(317.126,-127.781)">
			<title>Circle.84</title>
			<path d="M0 144.25 a0.84375 0.84375 0 0 1 1.6875 0 a0.84375 0.84375 0 1 1 -1.6875 0 Z" class="st4"/>
		</g>
		<g id="shape85-279" v:mID="85" v:groupContext="shape" transform="translate(310.376,-121.031)">
			<title>Circle.85</title>
			<path d="M0 144.25 a0.84375 0.84375 0 0 1 1.6875 0 a0.84375 0.84375 0 1 1 -1.6875 0 Z" class="st4"/>
		</g>
		<g id="shape86-281" v:mID="86" v:groupContext="shape" transform="translate(371.126,-134.531)">
			<title>Circle.86</title>
			<path d="M0 144.25 a0.84375 0.84375 0 0 1 1.6875 0 a0.84375 0.84375 0 1 1 -1.6875 0 Z" class="st4"/>
		</g>
		<g id="shape87-283" v:mID="87" v:groupContext="shape" transform="translate(364.376,-127.781)">
			<title>Circle.87</title>
			<path d="M0 144.25 a0.84375 0.84375 0 0 1 1.6875 0 a0.84375 0.84375 0 1 1 -1.6875 0 Z" class="st4"/>
		</g>
		<g id="shape89-285" v:mID="89" v:groupContext="shape" transform="translate(290.97,-133.125)">
			<title>Sheet.89</title>
			<desc>A</desc>
			<v:textBlock v:margins="rect(4,4,4,4)"/>
			<v:textRect cx="5.625" cy="140.595" width="11.25" height="9"/>
			<rect x="0" y="136.095" width="11.25" height="9" class="st1"/>
			<text x="4" y="143.3" class="st11" v:langID="1033"><v:paragraph v:horizAlign="1"/><v:tabList/>A</text>		</g>
		<g id="shape46-288" v:mID="46" v:groupContext="shape" transform="translate(290.97,-124.125)">
			<title>Sheet.46</title>
			<desc>B</desc>
			<v:textBlock v:margins="rect(4,4,4,4)"/>
			<v:textRect cx="5.625" cy="140.595" width="11.25" height="9"/>
			<rect x="0" y="136.095" width="11.25" height="9" class="st1"/>
			<text x="4" y="143.3" class="st11" v:langID="1033"><v:paragraph v:horizAlign="1"/><v:tabList/>B</text>		</g>
		<g id="shape47-291" v:mID="47" v:groupContext="shape" transform="translate(290.97,-115.125)">
			<title>Sheet.47</title>
			<desc>C</desc>
			<v:textBlock v:margins="rect(4,4,4,4)"/>
			<v:textRect cx="5.625" cy="140.595" width="11.25" height="9"/>
			<rect x="0" y="136.095" width="11.25" height="9" class="st1"/>
			<text x="4" y="143.3" class="st11" v:langID="1033"><v:paragraph v:horizAlign="1"/><v:tabList/>C</text>		</g>
		<g id="shape48-294" v:mID="48" v:groupContext="shape" transform="translate(439.47,-65.6252)">
			<title>Sheet.48</title>
			<path d="M0 127.1 L0 145.1 L10.12 145.1 A10.125 9 -180 0 0 20.25 136.1 A10.125 9 -180 0 0 10.12 127.1 L0 127.1 Z"
					class="st12"/>
		</g>
		<g id="shape62-296" v:mID="62" v:groupContext="shape" transform="translate(584.565,52.47) rotate(90)">
			<title>Sheet.62</title>
			<path d="M0 145.1 L36 145.1" class="st3"/>
		</g>
		<g id="shape90-299" v:mID="90" v:groupContext="shape" transform="translate(371.97,-108.375)">
			<title>Sheet.90</title>
			<path d="M0 145.1 L6.81 145.1" class="st3"/>
		</g>
		<g id="shape91-302" v:mID="91" v:groupContext="shape" transform="translate(365.22,-101.625)">
			<title>Sheet.91</title>
			<path d="M0 145.1 L15.04 145.1" class="st3"/>
		</g>
		<g id="shape92-305" v:mID="92" v:groupContext="shape" transform="translate(311.22,-94.8752)">
			<title>Sheet.92</title>
			<path d="M0 145.1 L67.5 145.1" class="st3"/>
		</g>
		<g id="shape93-308" v:mID="93" v:groupContext="shape" transform="translate(371.126,-107.531)">
			<title>Circle.93</title>
			<path d="M0 144.25 a0.84375 0.84375 0 0 1 1.6875 0 a0.84375 0.84375 0 1 1 -1.6875 0 Z" class="st4"/>
		</g>
		<g id="shape94-310" v:mID="94" v:groupContext="shape" transform="translate(371.906,-81.3752)">
			<title>Sheet.94</title>
			<path d="M0 145.1 L6.81 145.1" class="st3"/>
		</g>
		<g id="shape96-313" v:mID="96" v:groupContext="shape" transform="translate(364.376,-100.781)">
			<title>Circle.96</title>
			<path d="M0 144.25 a0.84375 0.84375 0 0 1 1.6875 0 a0.84375 0.84375 0 1 1 -1.6875 0 Z" class="st4"/>
		</g>
		<g id="shape97-315" v:mID="97" v:groupContext="shape" transform="translate(310.376,-94.0314)">
			<title>Circle.97</title>
			<path d="M0 144.25 a0.84375 0.84375 0 0 1 1.6875 0 a0.84375 0.84375 0 1 1 -1.6875 0 Z" class="st4"/>
		</g>
		<g id="shape98-317" v:mID="98" v:groupContext="shape" transform="translate(311.22,-67.8752)">
			<title>Sheet.98</title>
			<path d="M0 145.1 L67.5 145.1" class="st3"/>
		</g>
		<g id="shape99-320" v:mID="99" v:groupContext="shape" transform="translate(310.376,-67.0314)">
			<title>Circle.99</title>
			<path d="M0 144.25 a0.84375 0.84375 0 0 1 1.6875 0 a0.84375 0.84375 0 1 1 -1.6875 0 Z" class="st4"/>
		</g>
		<g id="shape100-322" v:mID="100" v:groupContext="shape" transform="translate(317.901,-74.6252)">
			<title>Sheet.100</title>
			<path d="M0 145.1 L61.94 145.1" class="st3"/>
		</g>
		<g id="shape101-325" v:mID="101" v:groupContext="shape" transform="translate(317.126,-73.8509)">
			<title>Circle.101</title>
			<path d="M0 144.32 a0.774306 0.774306 0 0 1 1.54861 0 a0.774306 0.774306 0 1 1 -1.54861 0 Z" class="st4"/>
		</g>
		<g id="shape102-327" v:mID="102" v:groupContext="shape" transform="translate(365.152,-47.6252)">
			<title>Sheet.102</title>
			<path d="M0 145.1 L15.04 145.1" class="st3"/>
		</g>
		<g id="shape104-330" v:mID="104" v:groupContext="shape" transform="translate(311.22,-40.8752)">
			<title>Sheet.104</title>
			<path d="M0 145.1 L67.5 145.1" class="st3"/>
		</g>
		<g id="shape105-333" v:mID="105" v:groupContext="shape" transform="translate(310.376,-40.0314)">
			<title>Circle.105</title>
			<path d="M0 144.25 a0.84375 0.84375 0 0 1 1.6875 0 a0.84375 0.84375 0 1 1 -1.6875 0 Z" class="st4"/>
		</g>
		<g id="shape106-335" v:mID="106" v:groupContext="shape" transform="translate(324.553,-54.3752)">
			<title>Sheet.106</title>
			<path d="M0 145.1 L54.17 145.1" class="st3"/>
		</g>
		<g id="shape107-338" v:mID="107" v:groupContext="shape" transform="translate(323.876,-53.6981)">
			<title>Circle.107</title>
			<path d="M0 144.42 a0.677083 0.677083 0 0 1 1.35417 0 a0.677083 0.677083 0 1 1 -1.35417 0 Z" class="st4"/>
		</g>
		<g id="shape108-340" v:mID="108" v:groupContext="shape" transform="translate(311.22,-13.8752)">
			<title>Sheet.108</title>
			<path d="M0 145.1 L67.44 145.1" class="st3"/>
		</g>
		<g id="shape110-343" v:mID="110" v:groupContext="shape" transform="translate(317.97,-20.6252)">
			<title>Sheet.110</title>
			<path d="M0 145.1 L62.29 145.1" class="st3"/>
		</g>
		<g id="shape111-346" v:mID="111" v:groupContext="shape" transform="translate(324.72,-27.3752)">
			<title>Sheet.111</title>
			<path d="M0 145.1 L54.06 145.1" class="st3"/>
		</g>
		<g id="shape63-349" v:mID="63" v:groupContext="shape" transform="translate(421.47,188.565) rotate(180)">
			<title>Sheet.63</title>
			<path d="M0 145.1 L18 145.1" class="st3"/>
		</g>
		<g id="shape71-352" v:mID="71" v:groupContext="shape" transform="translate(566.565,43.47) rotate(90)">
			<title>Sheet.71</title>
			<path d="M0 145.1 L20.25 145.1" class="st3"/>
		</g>
		<g id="shape72-355" v:mID="72" v:groupContext="shape" transform="translate(421.47,242.565) rotate(180)">
			<title>Sheet.72</title>
			<path d="M0 145.1 L18 145.1" class="st3"/>
		</g>
		<g id="shape73-358" v:mID="73" v:groupContext="shape" transform="translate(575.565,83.97) rotate(90)">
			<title>Sheet.73</title>
			<path d="M0 145.1 L40.5 145.1" class="st3"/>
		</g>
		<g id="shape74-361" v:mID="74" v:groupContext="shape" transform="translate(430.47,269.565) rotate(180)">
			<title>Sheet.74</title>
			<path d="M0 145.1 L27 145.1" class="st3"/>
		</g>
	</g>
</svg>
