<?xml version="1.0" encoding="UTF-8" standalone="no"?>
<!DOCTYPE svg PUBLIC "-//W3C//DTD SVG 1.1//EN" "http://www.w3.org/Graphics/SVG/1.1/DTD/svg11.dtd">
<!-- Generated by Microsoft Visio, SVG Export Comp_BlockDiagram.svg Page-1 -->
<svg xmlns="http://www.w3.org/2000/svg" xmlns:xlink="http://www.w3.org/1999/xlink" xmlns:ev="http://www.w3.org/2001/xml-events"
		xmlns:v="http://schemas.microsoft.com/visio/2003/SVGExtensions/" width="1.86553in" height="0.652046in"
		viewBox="0 0 134.318 46.9473" xml:space="preserve" color-interpolation-filters="sRGB" class="st9">
	<v:documentProperties v:langID="1033" v:viewMarkup="false"/>

	<style type="text/css">
	<![CDATA[
		.st1 {stroke:#000000;stroke-linecap:round;stroke-linejoin:round;stroke-width:0.72}
		.st2 {stroke:none;stroke-linecap:round;stroke-linejoin:round;stroke-width:0.75}
		.st3 {fill:#000000;font-family:Arial;font-size:0.833336em}
		.st4 {font-size:1em}
		.st5 {marker-end:url(#mrkr4-14);stroke:#000000;stroke-linecap:round;stroke-linejoin:round;stroke-width:1.2}
		.st6 {fill:#000000;fill-opacity:1;stroke:#000000;stroke-opacity:1;stroke-width:0.32258064516129}
		.st7 {marker-end:url(#mrkr4-39);stroke:#000000;stroke-linecap:round;stroke-linejoin:round;stroke-width:0.72}
		.st8 {fill:#000000;fill-opacity:1;stroke:#000000;stroke-opacity:1;stroke-width:0.22222222222222}
		.st9 {fill:none;fill-rule:evenodd;font-size:12px;overflow:visible;stroke-linecap:square;stroke-miterlimit:3}
	]]>
	</style>

	<defs id="Markers">
		<g id="lend4">
			<path d="M 2 1 L 0 0 L 2 -1 L 2 1 " style="stroke:none"/>
		</g>
		<marker id="mrkr4-14" class="st6" v:arrowType="4" v:arrowSize="2" v:setback="6.2" refX="-6.2" orient="auto"
				markerUnits="strokeWidth" overflow="visible">
			<use xlink:href="#lend4" transform="scale(-3.1,-3.1) "/>
		</marker>
		<marker id="mrkr4-39" class="st8" v:arrowType="4" v:arrowSize="2" v:setback="9" refX="-9" orient="auto"
				markerUnits="strokeWidth" overflow="visible">
			<use xlink:href="#lend4" transform="scale(-4.5,-4.5) "/>
		</marker>
	</defs>
	<g v:mID="0" v:index="1" v:groupContext="foregroundPage">
		<title>Page-1</title>
		<v:pageProperties v:drawingScale="1" v:pageScale="1" v:drawingUnits="19" v:shadowOffsetX="9" v:shadowOffsetY="-9"/>
		<g id="shape1-1" v:mID="1" v:groupContext="shape" transform="translate(30.9482,-0.447405)">
			<title>Sheet.1</title>
			<path d="M0 46.95 L67.37 46.95 L67.37 1.95 L0 1.95 L0 46.95 L0 46.95" class="st1"/>
		</g>
		<g id="shape2-4" v:mID="2" v:groupContext="shape" transform="translate(30.8182,0)">
			<title>Sheet.2</title>
			<desc>Magnitude Comparator</desc>
			<v:textBlock v:margins="rect(0,0,0,0)"/>
			<v:textRect cx="33.75" cy="24.2236" width="67.5" height="45.4474"/>
			<path d="M67.5 1.5 L0 1.5 L0 46.95 L67.5 46.95 L67.5 1.5" class="st2"/>
			<text x="10.4" y="21.22" class="st3" v:langID="1033"><v:paragraph v:horizAlign="1"/><v:tabList/>Magnitude <tspan
						x="7.35" dy="1.2em" class="st4">Comparator</tspan></text>		</g>
		<g id="shape3-9" v:mID="3" v:groupContext="shape" transform="translate(8.31817,-34.1974)">
			<title>Sheet.3</title>
			<path d="M0 46.95 L7.5 46.95 L15.06 46.95" class="st5"/>
		</g>
		<g id="shape4-15" v:mID="4" v:groupContext="shape" transform="translate(-29.1728,-3.74557) rotate(-63.4349)">
			<title>Sheet.4</title>
			<path d="M0 46.95 L10.06 46.95" class="st1"/>
		</g>
		<g id="shape5-18" v:mID="5" v:groupContext="shape" transform="translate(7.19317,-36.4474)">
			<title>Sheet.5</title>
			<desc>8</desc>
			<v:textBlock v:margins="rect(0,0,0,0)"/>
			<v:textRect cx="4.5" cy="42.4473" width="9" height="9"/>
			<path d="M9 37.95 L0 37.95 L0 46.95 L9 46.95 L9 37.95" class="st2"/>
			<text x="3.44" y="45.45" class="st3" v:langID="1033"><v:paragraph v:horizAlign="2"/><v:tabList/>8</text>		</g>
		<g id="shape6-22" v:mID="6" v:groupContext="shape" transform="translate(8.31817,-11.6974)">
			<title>Sheet.6</title>
			<path d="M0 46.95 L7.5 46.95 L15.06 46.95" class="st5"/>
		</g>
		<g id="shape7-27" v:mID="7" v:groupContext="shape" transform="translate(-29.1728,18.7544) rotate(-63.4349)">
			<title>Sheet.7</title>
			<path d="M0 46.95 L10.06 46.95" class="st1"/>
		</g>
		<g id="shape8-30" v:mID="8" v:groupContext="shape" transform="translate(7.19317,-13.9474)">
			<title>Sheet.8</title>
			<desc>8</desc>
			<v:textBlock v:margins="rect(0,0,0,0)"/>
			<v:textRect cx="4.5" cy="42.4473" width="9" height="9"/>
			<path d="M9 37.95 L0 37.95 L0 46.95 L9 46.95 L9 37.95" class="st2"/>
			<text x="3.44" y="45.45" class="st3" v:langID="1033"><v:paragraph v:horizAlign="2"/><v:tabList/>8</text>		</g>
		<g id="shape9-34" v:mID="9" v:groupContext="shape" transform="translate(98.3182,-36.4474)">
			<title>Sheet.9</title>
			<path d="M0 46.95 L4.5 46.95 L7.02 46.95" class="st7"/>
		</g>
		<g id="shape10-40" v:mID="10" v:groupContext="shape" transform="translate(98.3182,-22.9474)">
			<title>Sheet.10</title>
			<path d="M0 46.95 L4.5 46.95 L7.02 46.95" class="st7"/>
		</g>
		<g id="shape11-45" v:mID="11" v:groupContext="shape" transform="translate(116.318,-31.9474)">
			<title>Sheet.11</title>
			<desc>GT</desc>
			<v:textBlock v:margins="rect(0,0,0,0)"/>
			<v:textRect cx="9" cy="42.4473" width="18" height="9"/>
			<path d="M18 37.95 L0 37.95 L0 46.95 L18 46.95 L18 37.95" class="st2"/>
			<text x="0" y="45.45" class="st3" v:langID="1033"><v:paragraph/><v:tabList/>GT</text>		</g>
		<g id="shape12-49" v:mID="12" v:groupContext="shape" transform="translate(98.3182,-9.44741)">
			<title>Sheet.12</title>
			<path d="M0 46.95 L4.5 46.95 L7.02 46.95" class="st7"/>
		</g>
		<g id="shape13-54" v:mID="13" v:groupContext="shape" transform="translate(116.318,-4.94741)">
			<title>Sheet.13</title>
			<desc>LT</desc>
			<v:textBlock v:margins="rect(0,0,0,0)"/>
			<v:textRect cx="9" cy="42.4473" width="18" height="9"/>
			<path d="M18 37.95 L0 37.95 L0 46.95 L18 46.95 L18 37.95" class="st2"/>
			<text x="0" y="45.45" class="st3" v:langID="1033"><v:paragraph/><v:tabList/>LT</text>		</g>
		<g id="shape14-58" v:mID="14" v:groupContext="shape" transform="translate(116.318,-18.4474)">
			<title>Sheet.14</title>
			<desc>EQ</desc>
			<v:textBlock v:margins="rect(0,0,0,0)"/>
			<v:textRect cx="9" cy="42.4473" width="18" height="9"/>
			<path d="M18 37.95 L0 37.95 L0 46.95 L18 46.95 L18 37.95" class="st2"/>
			<text x="0" y="45.45" class="st3" v:langID="1033"><v:paragraph/><v:tabList/>EQ</text>		</g>
	</g>
</svg>
