<?xml version="1.0" encoding="UTF-8" standalone="no"?>
<!DOCTYPE svg PUBLIC "-//W3C//DTD SVG 1.1//EN" "http://www.w3.org/Graphics/SVG/1.1/DTD/svg11.dtd">
<!-- Generated by Microsoft Visio, SVG Export StateMachine.svg Page-1 -->
<svg xmlns="http://www.w3.org/2000/svg" xmlns:xlink="http://www.w3.org/1999/xlink" xmlns:ev="http://www.w3.org/2001/xml-events"
		xmlns:v="http://schemas.microsoft.com/visio/2003/SVGExtensions/" width="5.30354in" height="1.555in"
		viewBox="0 0 381.855 111.96" xml:space="preserve" color-interpolation-filters="sRGB" class="st21">
	<v:documentProperties v:langID="1033" v:viewMarkup="false"/>

	<style type="text/css">
	<![CDATA[
		.st1 {marker-end:url(#mrkr4-6);stroke:#9a9a9a;stroke-linecap:round;stroke-linejoin:round;stroke-width:2.16}
		.st2 {fill:#9a9a9a;fill-opacity:1;stroke:#9a9a9a;stroke-opacity:1;stroke-width:0.6}
		.st3 {fill:#fddeb0;stroke:#000000;stroke-linecap:round;stroke-linejoin:round;stroke-width:0.24}
		.st4 {fill:none;stroke:none;stroke-linecap:round;stroke-linejoin:round;stroke-width:0.72}
		.st5 {fill:#000000;font-family:Arial;font-size:0.833336em}
		.st6 {font-size:1em}
		.st7 {fill:#abe0ae;stroke:#000000;stroke-linecap:round;stroke-linejoin:round;stroke-width:0.24}
		.st8 {marker-end:url(#mrkr4-32);stroke:#000000;stroke-linecap:round;stroke-linejoin:round;stroke-width:2.16}
		.st9 {fill:#000000;fill-opacity:1;stroke:#000000;stroke-opacity:1;stroke-width:0.46153846153846}
		.st10 {stroke:#000000;stroke-linecap:round;stroke-linejoin:round;stroke-width:2.16}
		.st11 {stroke:#fa8d91;stroke-linecap:round;stroke-linejoin:round;stroke-width:2.16}
		.st12 {marker-end:url(#mrkr4-77);stroke:#fa8d91;stroke-linecap:round;stroke-linejoin:round;stroke-width:2.16}
		.st13 {fill:#fa8d91;fill-opacity:1;stroke:#fa8d91;stroke-opacity:1;stroke-width:0.46153846153846}
		.st14 {stroke:#000000;stroke-linecap:round;stroke-linejoin:round;stroke-width:0.72}
		.st15 {fill:#9a9a9a;stroke:none;stroke-linecap:round;stroke-linejoin:round;stroke-width:0.24}
		.st16 {fill:#f7f788;stroke:none;stroke-linecap:round;stroke-linejoin:round;stroke-width:0.24}
		.st17 {fill:#000000;font-family:Arial;font-size:0.666664em}
		.st18 {marker-end:url(#mrkr4-126);stroke:#f7f788;stroke-linecap:round;stroke-linejoin:round;stroke-width:2.16}
		.st19 {fill:#f7f788;fill-opacity:1;stroke:#f7f788;stroke-opacity:1;stroke-width:0.6}
		.st20 {fill:#000000;font-family:Arial;font-size:0.583328em}
		.st21 {fill:none;fill-rule:evenodd;font-size:12px;overflow:visible;stroke-linecap:square;stroke-miterlimit:3}
	]]>
	</style>

	<defs id="Markers">
		<g id="lend4">
			<path d="M 2 1 L 0 0 L 2 -1 L 2 1 " style="stroke:none"/>
		</g>
		<marker id="mrkr4-6" class="st2" v:arrowType="4" v:arrowSize="0" v:setback="3.33333" refX="-3.3333333333333" orient="auto"
				markerUnits="strokeWidth" overflow="visible">
			<use xlink:href="#lend4" transform="scale(-1.6666666666667,-1.6666666666667) "/>
		</marker>
		<marker id="mrkr4-32" class="st9" v:arrowType="4" v:arrowSize="2" v:setback="4.33333" refX="-4.3333333333333" orient="auto"
				markerUnits="strokeWidth" overflow="visible">
			<use xlink:href="#lend4" transform="scale(-2.1666666666667,-2.1666666666667) "/>
		</marker>
		<marker id="mrkr4-77" class="st13" v:arrowType="4" v:arrowSize="2" v:setback="4.33333" refX="-4.3333333333333"
				orient="auto" markerUnits="strokeWidth" overflow="visible">
			<use xlink:href="#lend4" transform="scale(-2.1666666666667,-2.1666666666667) "/>
		</marker>
		<marker id="mrkr4-126" class="st19" v:arrowType="4" v:arrowSize="0" v:setback="3.33333" refX="-3.3333333333333"
				orient="auto" markerUnits="strokeWidth" overflow="visible">
			<use xlink:href="#lend4" transform="scale(-1.6666666666667,-1.6666666666667) "/>
		</marker>
	</defs>
	<g v:mID="0" v:index="1" v:groupContext="foregroundPage">
		<title>Page-1</title>
		<v:pageProperties v:drawingScale="1" v:pageScale="1" v:drawingUnits="19" v:shadowOffsetX="9" v:shadowOffsetY="-9"/>
		<g id="shape1-1" v:mID="1" v:groupContext="shape" transform="translate(202.247,188.678) rotate(-150.945)">
			<title>Sheet.1</title>
			<path d="M0 111.96 L6.96 111.96" class="st1"/>
		</g>
		<g id="shape2-7" v:mID="2" v:groupContext="shape" transform="translate(242.299,31.62) rotate(90)">
			<title>Sheet.2</title>
			<path d="M0 111.96 L7.42 111.96" class="st1"/>
		</g>
		<g id="shape3-12" v:mID="3" v:groupContext="shape" transform="translate(360.424,20.37) rotate(90)">
			<title>Sheet.3</title>
			<path d="M0 111.96 L5.17 111.96" class="st1"/>
		</g>
		<g id="shape4-17" v:mID="4" v:groupContext="shape" transform="translate(156.495,-35.3403)">
			<title>Rectangle.389</title>
			<rect x="0" y="48.9603" width="60.75" height="63" class="st3"/>
		</g>
		<g id="shape5-19" v:mID="5" v:groupContext="shape" transform="translate(156.495,-69.0903)">
			<title>Sheet.5</title>
			<desc>STATE REGISTER</desc>
			<v:textBlock v:margins="rect(4,4,4,4)"/>
			<v:textRect cx="30.375" cy="101.835" width="60.75" height="20.25"/>
			<rect x="0" y="91.7103" width="60.75" height="20.25" class="st4"/>
			<text x="14.26" y="98.84" class="st5" v:langID="1033"><v:paragraph v:horizAlign="1"/><v:tabList/>STATE<v:newlineChar/><tspan
						x="4.82" dy="1.2em" class="st6">REGISTER</tspan></text>		</g>
		<g id="shape6-23" v:mID="6" v:groupContext="shape" transform="translate(271.245,-35.3403)">
			<title>Rectangle.391</title>
			<rect x="0" y="48.9603" width="51.75" height="63" class="st7"/>
		</g>
		<g id="shape7-25" v:mID="7" v:groupContext="shape" transform="translate(66.495,-35.3403)">
			<title>Rectangle.392</title>
			<rect x="0" y="48.9603" width="45" height="63" class="st7"/>
		</g>
		<g id="shape8-27" v:mID="8" v:groupContext="shape" transform="translate(111.495,-66.8403)">
			<title>Sheet.8</title>
			<path d="M0 111.96 L35.64 111.96" class="st8"/>
		</g>
		<g id="shape9-33" v:mID="9" v:groupContext="shape" transform="translate(217.245,-80.3403)">
			<title>Sheet.9</title>
			<path d="M0 111.96 L44.64 111.96" class="st8"/>
		</g>
		<g id="shape10-38" v:mID="10" v:groupContext="shape" transform="translate(335.955,4.62) rotate(90)">
			<title>Sheet.10</title>
			<path d="M0 111.96 L27 111.96" class="st10"/>
		</g>
		<g id="shape11-41" v:mID="11" v:groupContext="shape" transform="translate(322.995,-66.8403)">
			<title>Sheet.11</title>
			<path d="M0 111.96 L10.89 111.96" class="st8"/>
		</g>
		<g id="shape12-46" v:mID="12" v:groupContext="shape" transform="translate(50.745,-80.3403)">
			<title>Sheet.12</title>
			<path d="M0 111.96 L6.39 111.96" class="st8"/>
		</g>
		<g id="shape13-51" v:mID="13" v:groupContext="shape" transform="translate(50.745,-107.34)">
			<title>Sheet.13</title>
			<path d="M0 111.96 L173.25 111.96" class="st10"/>
		</g>
		<g id="shape14-54" v:mID="14" v:groupContext="shape" transform="translate(66.495,-44.3403)">
			<title>Sheet.14</title>
			<desc>NEXT STATE LOGIC</desc>
			<v:textBlock v:margins="rect(4,4,4,4)"/>
			<v:textRect cx="22.5" cy="89.4603" width="45" height="45"/>
			<rect x="0" y="66.9603" width="45" height="45" class="st4"/>
			<text x="9.17" y="80.46" class="st5" v:langID="1033"><v:paragraph v:horizAlign="1"/><v:tabList/>NEXT<v:newlineChar/><tspan
						x="6.39" dy="1.2em" class="st6">STATE<v:newlineChar/></tspan><tspan x="6.94" dy="1.2em" class="st6">LOGIC</tspan></text>		</g>
		<g id="shape15-59" v:mID="15" v:groupContext="shape" transform="translate(271.245,-66.7053)">
			<title>Sheet.15</title>
			<desc>OUTPUT LOGIC</desc>
			<v:textBlock v:margins="rect(4,4,4,4)"/>
			<v:textRect cx="25.875" cy="100.643" width="51.75" height="22.635"/>
			<rect x="0" y="89.3253" width="51.75" height="22.635" class="st4"/>
			<text x="5.32" y="97.64" class="st5" v:langID="1033"><v:paragraph v:horizAlign="1"/><v:tabList/>OUTPUT<v:newlineChar/><tspan
						x="10.32" dy="1.2em" class="st6">LOGIC</tspan></text>		</g>
		<g id="shape16-63" v:mID="16" v:groupContext="shape" transform="translate(48.495,-26.3403)">
			<title>Sheet.16</title>
			<path d="M0 111.96 L195.75 111.96" class="st11"/>
		</g>
		<g id="shape17-66" v:mID="17" v:groupContext="shape" transform="translate(356.205,58.62) rotate(90)">
			<title>Sheet.17</title>
			<path d="M0 111.96 L27 111.96" class="st11"/>
		</g>
		<g id="shape18-69" v:mID="18" v:groupContext="shape" transform="translate(160.455,58.62) rotate(90)">
			<title>Sheet.18</title>
			<path d="M0 111.96 L27 111.96" class="st11"/>
		</g>
		<g id="shape19-72" v:mID="19" v:groupContext="shape" transform="translate(244.245,-53.3403)">
			<title>Sheet.19</title>
			<path d="M0 111.96 L17.64 111.96" class="st12"/>
		</g>
		<g id="shape20-78" v:mID="20" v:groupContext="shape" transform="translate(156.45,-44.1603)">
			<title>Sheet.20</title>
			<path d="M0 111.96 L4.59 107.37 L0 102.78" class="st14"/>
		</g>
		<g id="shape21-81" v:mID="21" v:groupContext="shape" transform="translate(39.495,-17.3403)">
			<title>Sheet.21</title>
			<path d="M0 111.96 L110.25 111.96" class="st14"/>
		</g>
		<g id="shape22-84" v:mID="22" v:groupContext="shape" transform="translate(39.495,-6.09027)">
			<title>Sheet.22</title>
			<path d="M0 111.96 L147.37 111.96" class="st14"/>
		</g>
		<g id="shape23-87" v:mID="23" v:groupContext="shape" transform="translate(74.9097,105.87) rotate(-90)">
			<title>Sheet.23</title>
			<path d="M0 111.96 L29.25 111.96" class="st14"/>
		</g>
		<g id="shape24-90" v:mID="24" v:groupContext="shape" transform="translate(149.745,-48.8403)">
			<title>Sheet.24</title>
			<path d="M0 111.96 L6.75 111.96" class="st14"/>
		</g>
		<g id="shape25-93" v:mID="25" v:groupContext="shape" transform="translate(37.7847,94.62) rotate(-90)">
			<title>Sheet.25</title>
			<path d="M0 111.96 L31.5 111.96" class="st14"/>
		</g>
		<g id="shape26-96" v:mID="26" v:groupContext="shape" transform="translate(15.87,-1.41027)">
			<title>Sheet.26</title>
			<desc>Rst</desc>
			<v:textBlock v:margins="rect(4,4,4,4)"/>
			<v:textRect cx="11.8125" cy="107.37" width="23.63" height="9.18"/>
			<rect x="0" y="102.78" width="23.625" height="9.18" class="st4"/>
			<text x="4.62" y="110.37" class="st5" v:langID="1033"><v:paragraph v:horizAlign="2"/><v:tabList/>Rst</text>		</g>
		<g id="shape27-99" v:mID="27" v:groupContext="shape" transform="translate(16.995,-10.4553)">
			<title>Sheet.27</title>
			<desc>Clk</desc>
			<v:textBlock v:margins="rect(4,4,4,4)"/>
			<v:textRect cx="11.25" cy="105.075" width="22.5" height="13.77"/>
			<rect x="0" y="98.1903" width="22.5" height="13.77" class="st4"/>
			<text x="4.06" y="108.08" class="st5" v:langID="1033"><v:paragraph v:horizAlign="2"/><v:tabList/>Clk</text>		</g>
		<g id="shape28-102" v:mID="28" v:groupContext="shape" transform="translate(3.495,-46.4553)">
			<title>Sheet.28</title>
			<desc>Inputs</desc>
			<v:textBlock v:margins="rect(4,4,4,4)"/>
			<v:textRect cx="18" cy="105.075" width="36" height="13.77"/>
			<rect x="0" y="98.1903" width="36" height="13.77" class="st4"/>
			<text x="4.76" y="108.08" class="st5" v:langID="1033"><v:paragraph v:horizAlign="2"/><v:tabList/>Inputs</text>		</g>
		<g id="shape29-105" v:mID="29" v:groupContext="shape" transform="translate(345.495,-59.8203)">
			<title>Sheet.29</title>
			<desc>Outputs</desc>
			<v:textBlock v:margins="rect(4,0,4,0)"/>
			<v:textRect cx="18" cy="105.075" width="36" height="13.77"/>
			<rect x="0" y="98.1903" width="36" height="13.77" class="st4"/>
			<text x="0" y="108.08" class="st5" v:langID="1033"><v:paragraph/><v:tabList/>Outputs</text>		</g>
		<g id="shape30-108" v:mID="30" v:groupContext="shape" transform="translate(118.245,-78.2778)">
			<title>Rounded rectangle.423</title>
			<v:userDefs>
				<v:ud v:nameU="visVersion" v:val="VT0(11):26"/>
			</v:userDefs>
			<path d="M20.25 111.96 A4.50003 4.50003 -180 0 0 24.75 107.46 L24.75 95.27 A4.50003 4.50003 -180 0 0 20.25 90.77 L4.5
						 90.77 A4.50003 4.50003 -180 0 0 0 95.27 L0 107.46 A4.50003 4.50003 -180 0 0 4.5 111.96 L20.25 111.96 Z"
					class="st15"/>
		</g>
		<g id="shape31-110" v:mID="31" v:groupContext="shape" transform="translate(117.12,-79.4028)">
			<title>Rounded rectangle.424</title>
			<desc>Next State</desc>
			<v:userDefs>
				<v:ud v:nameU="visVersion" v:val="VT0(11):26"/>
			</v:userDefs>
			<v:textBlock v:margins="rect(4,0,4,0)"/>
			<v:textRect cx="12.375" cy="101.46" width="24.75" height="21"/>
			<path d="M20.25 111.96 A4.50003 4.50003 -180 0 0 24.75 107.46 L24.75 95.46 A4.50003 4.50003 -180 0 0 20.25 90.96 L4.5
						 90.96 A4.50003 4.50003 -180 0 0 -0 95.46 L0 107.46 A4.50003 4.50003 -180 0 0 4.5 111.96 L20.25 111.96 Z"
					class="st16"/>
			<text x="4.15" y="99.06" class="st17" v:langID="1033"><v:paragraph v:horizAlign="1"/><v:tabList/>Next<v:newlineChar/><tspan
						x="3.04" dy="1.2em" class="st6">State</tspan></text>		</g>
		<g id="group32-114" transform="translate(231.87,-89.7153)" v:mID="32" v:groupContext="group">
			<title>Sheet.32</title>
			<g id="shape33-115" v:mID="33" v:groupContext="shape" transform="translate(1.125,0)">
				<title>Rounded rectangle.422</title>
				<v:userDefs>
					<v:ud v:nameU="visVersion" v:val="VT0(11):26"/>
				</v:userDefs>
				<path d="M27 111.96 A4.50003 4.50003 -180 0 0 31.5 107.46 L31.5 95.84 A4.50003 4.50003 -180 0 0 27 91.34 L4.5 91.34
							 A4.50003 4.50003 -180 0 0 0 95.84 L0 107.46 A4.50003 4.50003 -180 0 0 4.5 111.96 L27 111.96 Z"
						class="st15"/>
			</g>
			<g id="shape34-117" v:mID="34" v:groupContext="shape" transform="translate(0,-1.125)">
				<title>Rounded rectangle</title>
				<desc>Present State</desc>
				<v:userDefs>
					<v:ud v:nameU="visVersion" v:val="VT0(11):26"/>
				</v:userDefs>
				<v:textBlock v:margins="rect(4,0,4,0)"/>
				<v:textRect cx="15.75" cy="101.46" width="31.5" height="21"/>
				<path d="M27 111.96 A4.50003 4.50003 -180 0 0 31.5 107.46 L31.5 95.46 A4.50003 4.50003 -180 0 0 27 90.96 L4.5 90.96
							 A4.50003 4.50003 -180 0 0 -0 95.46 L0 107.46 A4.50003 4.50003 -180 0 0 4.5 111.96 L27 111.96 Z"
						class="st16"/>
				<text x="1.96" y="99.06" class="st17" v:langID="1033"><v:paragraph v:horizAlign="1"/><v:tabList/>Present<v:newlineChar/><tspan
							x="6.41" dy="1.2em" class="st6">State</tspan></text>			</g>
		</g>
		<g id="shape35-121" v:mID="35" v:groupContext="shape" transform="translate(359.58,21.12) rotate(90)">
			<title>Sheet.35</title>
			<path d="M0 111.96 L3.3 111.96" class="st18"/>
		</g>
		<g id="shape36-127" v:mID="36" v:groupContext="shape" transform="translate(241.455,32.5064) rotate(90)">
			<title>Sheet.36</title>
			<path d="M0 111.96 L5.21 111.96" class="st18"/>
		</g>
		<g id="shape37-132" v:mID="37" v:groupContext="shape" transform="translate(254.37,-1.59027)">
			<title>Rounded rectangle.422</title>
			<v:userDefs>
				<v:ud v:nameU="visVersion" v:val="VT0(11):26"/>
			</v:userDefs>
			<path d="M27 111.96 A4.50003 4.50003 -180 0 0 31.5 107.46 L31.5 95.84 A4.50003 4.50003 -180 0 0 27 91.34 L4.5 91.34 A4.50003
						 4.50003 -180 0 0 0 95.84 L0 107.46 A4.50003 4.50003 -180 0 0 4.5 111.96 L27 111.96 Z" class="st15"/>
		</g>
		<g id="shape38-134" v:mID="38" v:groupContext="shape" transform="translate(253.245,-2.71527)">
			<title>Rounded rectangle</title>
			<desc>“Mealy” inputs</desc>
			<v:userDefs>
				<v:ud v:nameU="visVersion" v:val="VT0(11):26"/>
			</v:userDefs>
			<v:textBlock v:margins="rect(4,0,4,0)"/>
			<v:textRect cx="15.75" cy="101.46" width="31.5" height="21"/>
			<path d="M27 111.96 A4.50003 4.50003 -180 0 0 31.5 107.46 L31.5 95.46 A4.50003 4.50003 -180 0 0 27 90.96 L4.5 90.96 A4.50003
						 4.50003 -180 0 0 -0 95.46 L0 107.46 A4.50003 4.50003 -180 0 0 4.5 111.96 L27 111.96 Z" class="st16"/>
			<text x="2.42" y="99.06" class="st17" v:langID="1033"><v:paragraph v:horizAlign="1"/><v:tabList/>“Mealy”<v:newlineChar/><tspan
						x="5.08" dy="1.2em" class="st6">inputs</tspan></text>		</g>
		<g id="shape39-138" v:mID="39" v:groupContext="shape" transform="translate(195.988,186.779) rotate(-148.57)">
			<title>Sheet.39</title>
			<path d="M0 111.96 L4.67 111.96" class="st18"/>
		</g>
		<g id="shape40-143" v:mID="40" v:groupContext="shape" transform="translate(37.245,-96.0903)">
			<title>Sheet.40</title>
			<path d="M0 111.96 L7.42 111.96" class="st1"/>
		</g>
		<g id="shape41-148" v:mID="41" v:groupContext="shape" transform="translate(1.245,-81.4653)">
			<title>Rounded rectangle.435</title>
			<v:userDefs>
				<v:ud v:nameU="visVersion" v:val="VT0(11):26"/>
			</v:userDefs>
			<path d="M33.75 111.96 A4.50003 4.50003 -180 0 0 38.25 107.46 L38.25 87.59 A4.50003 4.50003 -180 0 0 33.75 83.09 L4.5
						 83.09 A4.50003 4.50003 -180 0 0 0 87.59 L0 107.46 A4.50003 4.50003 -180 0 0 4.5 111.96 L33.75 111.96 Z"
					class="st15"/>
		</g>
		<g id="shape42-150" v:mID="42" v:groupContext="shape" transform="translate(0.12,-82.5903)">
			<title>Rounded rectangle.436</title>
			<desc>State variable feedback</desc>
			<v:userDefs>
				<v:ud v:nameU="visVersion" v:val="VT0(11):26"/>
			</v:userDefs>
			<v:textBlock v:margins="rect(4,0,4,0)"/>
			<v:textRect cx="19.125" cy="97.3353" width="38.25" height="29.25"/>
			<path d="M33.75 111.96 A4.50003 4.50003 -180 0 0 38.25 107.46 L38.25 87.21 A4.50003 4.50003 -180 0 0 33.75 82.71 L4.5
						 82.71 A4.50003 4.50003 -180 0 0 0 87.21 L0 107.46 A4.50003 4.50003 -180 0 0 4.5 111.96 L33.75 111.96 Z"
					class="st16"/>
			<text x="9.79" y="90.14" class="st17" v:langID="1033"><v:paragraph v:horizAlign="1"/><v:tabList/>State <tspan x="5.12"
						dy="1.2em" class="st6">variable<v:newlineChar/></tspan><tspan x="2.89" dy="1.2em" class="st6">feedback</tspan></text>		</g>
		<g id="shape43-155" v:mID="43" v:groupContext="shape" transform="translate(162.705,4.62) rotate(90)">
			<title>Sheet.43</title>
			<path d="M0 111.96 L27 111.96" class="st10"/>
		</g>
		<g id="shape44-158" v:mID="44" v:groupContext="shape" transform="translate(38.37,-97.2153)">
			<title>Sheet.44</title>
			<path d="M0 111.96 L5.17 111.96" class="st18"/>
		</g>
		<g id="shape45-163" v:mID="45" v:groupContext="shape" transform="translate(39.495,-53.3403)">
			<title>Sheet.45</title>
			<path d="M0 111.96 L17.64 111.96" class="st8"/>
		</g>
		<g id="shape46-168" v:mID="46" v:groupContext="shape" transform="translate(268.995,-35.7678)">
			<title>Sheet.46</title>
			<desc>(not needed for simplest state machines)</desc>
			<v:textBlock v:margins="rect(4,4,4,4)"/>
			<v:textRect cx="28.125" cy="98.674" width="56.25" height="26.5725"/>
			<rect x="0" y="85.3878" width="56.25" height="26.5725" class="st4"/>
			<text x="4.39" y="92.37" class="st20" v:langID="1033"><v:paragraph v:horizAlign="1"/><v:tabList/>(not needed for <tspan
						x="6.73" dy="1.2em" class="st6">simplest state </tspan><tspan x="11.98" dy="1.2em" class="st6">machines</tspan>)</text>		</g>
		<g id="shape47-173" v:mID="47" v:groupContext="shape" transform="translate(156.495,-35.3403)">
			<title>Sheet.47</title>
			<desc>(contains one DFF for each state variable)</desc>
			<v:textBlock v:margins="rect(4,4,4,4)"/>
			<v:textRect cx="31.5" cy="96.2103" width="63" height="31.5"/>
			<rect x="0" y="80.4603" width="63" height="31.5" class="st4"/>
			<text x="10.49" y="89.91" class="st20" v:langID="1033"><v:paragraph v:horizAlign="1"/><v:tabList/>(contains one <tspan
						x="11.08" dy="1.2em" class="st6">DFF for each </tspan><tspan x="9.52" dy="1.2em" class="st6">state variable</tspan>)</text>		</g>
	</g>
</svg>
