<?xml version="1.0" encoding="UTF-8" standalone="no"?>
<!DOCTYPE svg PUBLIC "-//W3C//DTD SVG 1.1//EN" "http://www.w3.org/Graphics/SVG/1.1/DTD/svg11.dtd">
<!-- Generated by Microsoft Visio, SVG Export Resistance_Circuit.svg Page-1 -->
<svg xmlns="http://www.w3.org/2000/svg" xmlns:xlink="http://www.w3.org/1999/xlink" xmlns:ev="http://www.w3.org/2001/xml-events"
		xmlns:v="http://schemas.microsoft.com/visio/2003/SVGExtensions/" width="1.40625in" height="0.801041in"
		viewBox="0 0 101.25 57.6749" xml:space="preserve" color-interpolation-filters="sRGB" class="st10">
	<v:documentProperties v:langID="1033" v:viewMarkup="false">
		<v:userDefs>
			<v:ud v:nameU="msvConvertTheme"/>
		</v:userDefs>
	</v:documentProperties>

	<style type="text/css">
	<![CDATA[
		.st1 {fill:#ffffff;stroke:none;stroke-linecap:round;stroke-linejoin:round;stroke-width:0.75}
		.st2 {stroke:#000000;stroke-linecap:round;stroke-linejoin:round;stroke-width:0.749044}
		.st3 {fill:none;stroke:#000000;stroke-linecap:round;stroke-linejoin:round;stroke-width:0.72}
		.st4 {stroke:#000000;stroke-linecap:round;stroke-linejoin:round;stroke-width:0.719984}
		.st5 {stroke:none;stroke-linecap:round;stroke-linejoin:round;stroke-width:0.75}
		.st6 {fill:#000000;font-family:Arial;font-size:0.666664em}
		.st7 {stroke:#000000;stroke-linecap:round;stroke-linejoin:round;stroke-width:0.72}
		.st8 {marker-end:url(#mrkr4-57);stroke:#000000;stroke-linecap:round;stroke-linejoin:round;stroke-width:0.72}
		.st9 {fill:#000000;fill-opacity:1;stroke:#000000;stroke-opacity:1;stroke-width:0.33333333333333}
		.st10 {fill:none;fill-rule:evenodd;font-size:12px;overflow:visible;stroke-linecap:square;stroke-miterlimit:3}
	]]>
	</style>

	<defs id="Markers">
		<g id="lend4">
			<path d="M 2 1 L 0 0 L 2 -1 L 2 1 " style="stroke:none"/>
		</g>
		<marker id="mrkr4-57" class="st9" v:arrowType="4" v:arrowSize="0" v:setback="6" refX="-6" orient="auto"
				markerUnits="strokeWidth" overflow="visible">
			<use xlink:href="#lend4" transform="scale(-3,-3) "/>
		</marker>
	</defs>
	<g v:mID="0" v:index="1" v:groupContext="foregroundPage">
		<title>Page-1</title>
		<v:pageProperties v:drawingScale="1" v:pageScale="1" v:drawingUnits="19" v:shadowOffsetX="9" v:shadowOffsetY="-9"/>
		<g id="shape181-1" v:mID="181" v:groupContext="shape" transform="translate(44.6493,0)">
			<title>Sheet.181</title>
			<path d="M8.69 52.05 L4.31 57.67 L0 52.05 L8.69 52.05 L8.69 52.05 Z" class="st1"/>
		</g>
		<g id="shape183-3" v:mID="183" v:groupContext="shape" transform="translate(44.5403,-1.125)">
			<title>Sheet.183</title>
			<path d="M8.69 52.05 L4.31 57.67 L0 52.05 L8.69 52.05 L8.69 52.05" class="st2"/>
		</g>
		<g id="shape185-6" v:mID="185" v:groupContext="shape" transform="translate(48.9608,-6.75)">
			<title>Sheet.185</title>
			<path d="M0 53.17 L0 57.67" class="st2"/>
		</g>
		<g id="shape226-9" v:mID="226" v:groupContext="shape" transform="translate(21.9375,-20.25)">
			<title>Circle</title>
			<path d="M0 48.67 A9 9 0 0 1 18 48.67 A9 9 0 1 1 0 48.67 Z" class="st3"/>
		</g>
		<g id="shape227-11" v:mID="227" v:groupContext="shape" transform="translate(53.4375,-42.7327)">
			<title>Sheet.227</title>
			<path d="M0 53.23 L1.92 48.66 L5.64 57.67 L9.36 48.66 L13.2 57.67 L16.92 48.66 L20.64 57.67 L22.56 53.23" class="st4"/>
		</g>
		<g id="shape228-14" v:mID="228" v:groupContext="shape" transform="translate(28.1724,-29.25)">
			<title>Sheet.228</title>
			<desc>+</desc>
			<v:textBlock v:margins="rect(0,0,0,0)"/>
			<v:textRect cx="2.50753" cy="53.1749" width="5.02" height="9"/>
			<path d="M5.02 48.67 L0 48.67 L0 57.67 L5.02 57.67 L5.02 48.67" class="st5"/>
			<text x="0.34" y="55.57" class="st6" v:langID="1033"><v:paragraph v:horizAlign="2"/><v:tabList/>+</text>		</g>
		<g id="shape229-18" v:mID="229" v:groupContext="shape" transform="translate(27.305,-20.25)">
			<title>Sheet.229</title>
			<desc>-</desc>
			<v:textBlock v:margins="rect(0,0,0,0)"/>
			<v:textRect cx="2.50753" cy="53.1749" width="5.02" height="9"/>
			<path d="M5.02 48.67 L0 48.67 L0 57.67 L5.02 57.67 L5.02 48.67" class="st5"/>
			<text x="2.35" y="55.57" class="st6" v:langID="1033"><v:paragraph v:horizAlign="2"/><v:tabList/>-</text>		</g>
		<g id="shape230-22" v:mID="230" v:groupContext="shape" transform="translate(-26.7374,19.4249) rotate(-90)">
			<title>Sheet.230</title>
			<path d="M0 57.67 L9 57.67" class="st7"/>
		</g>
		<g id="shape231-25" v:mID="231" v:groupContext="shape" transform="translate(-26.7374,46.4249) rotate(-90)">
			<title>Sheet.231</title>
			<path d="M0 57.67 L9 57.67" class="st7"/>
		</g>
		<g id="shape232-28" v:mID="232" v:groupContext="shape" transform="translate(30.9375,-47.25)">
			<title>Sheet.232</title>
			<path d="M0 57.67 L22.5 57.67" class="st7"/>
		</g>
		<g id="shape233-31" v:mID="233" v:groupContext="shape" transform="translate(30.9375,-11.25)">
			<title>Sheet.233</title>
			<path d="M0 57.67 L54 57.67" class="st7"/>
		</g>
		<g id="shape234-34" v:mID="234" v:groupContext="shape" transform="translate(27.2626,46.4249) rotate(-90)">
			<title>Sheet.234</title>
			<path d="M0 57.67 L36 57.67" class="st7"/>
		</g>
		<g id="shape235-37" v:mID="235" v:groupContext="shape" transform="translate(75.9375,-47.25)">
			<title>Sheet.235</title>
			<path d="M0 57.67 L9 57.67" class="st7"/>
		</g>
		<g id="shape236-40" v:mID="236" v:groupContext="shape" transform="translate(21.9375,-48.375)">
			<title>Sheet.236</title>
			<desc>Vdd</desc>
			<v:textBlock v:margins="rect(0,0,0,0)"/>
			<v:textRect cx="7.57003" cy="53.1749" width="15.15" height="9"/>
			<path d="M15.14 48.67 L0 48.67 L0 57.67 L15.14 57.67 L15.14 48.67" class="st5"/>
			<text x="0.91" y="55.57" class="st6" v:langID="1033"><v:paragraph v:horizAlign="2"/><v:tabList/>Vdd</text>		</g>
		<g id="shape237-44" v:mID="237" v:groupContext="shape" transform="translate(0,-24.75)">
			<title>Sheet.237</title>
			<desc>3.3V</desc>
			<v:textBlock v:margins="rect(0,0,0,0)"/>
			<v:textRect cx="9.5625" cy="53.1749" width="19.13" height="9"/>
			<path d="M19.12 48.67 L0 48.67 L0 57.67 L19.12 57.67 L19.12 48.67" class="st5"/>
			<text x="2.67" y="55.57" class="st6" v:langID="1033"><v:paragraph v:horizAlign="2"/><v:tabList/>3.3V</text>		</g>
		<g id="shape238-48" v:mID="238" v:groupContext="shape" transform="translate(55.125,-32.625)">
			<title>Sheet.238</title>
			<desc>3.3Ω</desc>
			<v:textBlock v:margins="rect(0,0,0,0)"/>
			<v:textRect cx="9.5625" cy="53.1749" width="19.13" height="9"/>
			<path d="M19.12 48.67 L0 48.67 L0 57.67 L19.12 57.67 L19.12 48.67" class="st5"/>
			<text x="2.02" y="55.57" class="st6" v:langID="1033"><v:paragraph v:horizAlign="2"/><v:tabList/>3.3Ω</text>		</g>
		<g id="shape239-52" v:mID="239" v:groupContext="shape" transform="translate(147.675,14.9249) rotate(90)">
			<title>Sheet.239</title>
			<path d="M0 57.67 L11.43 57.67" class="st8"/>
		</g>
		<g id="shape240-58" v:mID="240" v:groupContext="shape" transform="translate(90.5625,-33.75)">
			<title>Sheet.240</title>
			<desc>1A</desc>
			<v:textBlock v:margins="rect(0,0,0,0)"/>
			<v:textRect cx="5.34375" cy="53.1749" width="10.69" height="9"/>
			<path d="M10.69 48.67 L0 48.67 L0 57.67 L10.69 57.67 L10.69 48.67" class="st5"/>
			<text x="0.9" y="55.57" class="st6" v:langID="1033"><v:paragraph v:horizAlign="2"/><v:tabList/>1A</text>		</g>
	</g>
</svg>
