<?xml version="1.0" encoding="UTF-8" standalone="no"?>
<!DOCTYPE svg PUBLIC "-//W3C//DTD SVG 1.1//EN" "http://www.w3.org/Graphics/SVG/1.1/DTD/svg11.dtd">
<!-- Generated by Microsoft Visio, SVG Export digital range.svg Page-1 -->
<svg xmlns="http://www.w3.org/2000/svg" xmlns:xlink="http://www.w3.org/1999/xlink" xmlns:ev="http://www.w3.org/2001/xml-events"
		xmlns:v="http://schemas.microsoft.com/visio/2003/SVGExtensions/" width="3.19531in" height="1.07514in"
		viewBox="0 0 230.063 77.4099" xml:space="preserve" color-interpolation-filters="sRGB" class="st14">
	<v:documentProperties v:langID="1033" v:viewMarkup="false"/>

	<style type="text/css">
	<![CDATA[
		.st1 {marker-end:url(#mrkr4-6);stroke:#000000;stroke-linecap:round;stroke-linejoin:round;stroke-width:0.72}
		.st2 {fill:#000000;fill-opacity:1;stroke:#000000;stroke-opacity:1;stroke-width:0.28571428571429}
		.st3 {stroke:#000000;stroke-linecap:round;stroke-linejoin:round;stroke-width:0.72}
		.st4 {stroke:none;stroke-linecap:round;stroke-linejoin:round;stroke-width:0.75}
		.st5 {fill:#000000;font-family:Arial;font-size:0.75em}
		.st6 {fill:#000000;font-family:Arial;font-size:0.666664em}
		.st7 {fill:#99f7b5;stroke:none;stroke-linecap:round;stroke-linejoin:round;stroke-width:0.24}
		.st8 {fill:#d5e1fb;stroke:none;stroke-linecap:round;stroke-linejoin:round;stroke-width:0.24}
		.st9 {stroke:#000000;stroke-dasharray:0,2.16;stroke-linecap:round;stroke-linejoin:round;stroke-width:0.72}
		.st10 {stroke:#000000;stroke-linecap:round;stroke-linejoin:round;stroke-width:0.24}
		.st11 {fill:#ffffff;stroke:none;stroke-linecap:round;stroke-linejoin:round;stroke-width:0.75}
		.st12 {marker-end:url(#mrkr4-140);marker-start:url(#mrkr4-138);stroke:#000000;stroke-linecap:round;stroke-linejoin:round;stroke-width:0.72}
		.st13 {fill:#000000;fill-opacity:1;stroke:#000000;stroke-opacity:1;stroke-width:0.33333333333333}
		.st14 {fill:none;fill-rule:evenodd;font-size:12px;overflow:visible;stroke-linecap:square;stroke-miterlimit:3}
	]]>
	</style>

	<defs id="Markers">
		<g id="lend4">
			<path d="M 2 1 L 0 0 L 2 -1 L 2 1 " style="stroke:none"/>
		</g>
		<marker id="mrkr4-6" class="st2" v:arrowType="4" v:arrowSize="1" v:setback="7" refX="-7" orient="auto"
				markerUnits="strokeWidth" overflow="visible">
			<use xlink:href="#lend4" transform="scale(-3.5,-3.5) "/>
		</marker>
		<marker id="mrkr4-138" class="st13" v:arrowType="4" v:arrowSize="0" v:setback="5.5" refX="5.5" orient="auto"
				markerUnits="strokeWidth" overflow="visible">
			<use xlink:href="#lend4" transform="scale(3) "/>
		</marker>
		<marker id="mrkr4-140" class="st13" v:arrowType="4" v:arrowSize="0" v:setback="6" refX="-6" orient="auto"
				markerUnits="strokeWidth" overflow="visible">
			<use xlink:href="#lend4" transform="scale(-3,-3) "/>
		</marker>
	</defs>
	<g v:mID="0" v:index="1" v:groupContext="foregroundPage">
		<title>Page-1</title>
		<v:pageProperties v:drawingScale="1" v:pageScale="1" v:drawingUnits="0" v:shadowOffsetX="9" v:shadowOffsetY="-9"/>
		<g id="shape1-1" v:mID="1" v:groupContext="shape" transform="translate(-61.0974,71.7751) rotate(-90)">
			<title>Sheet.1</title>
			<path d="M0 77.41 L53.46 77.41" class="st1"/>
		</g>
		<g id="shape2-7" v:mID="2" v:groupContext="shape" transform="translate(16.3125,-5.63489)">
			<title>Sheet.2</title>
			<path d="M0 77.41 L82.22 77.41" class="st3"/>
		</g>
		<g id="shape3-10" v:mID="3" v:groupContext="shape" transform="translate(5.92997,-67.5099)">
			<title>Sheet.3</title>
			<desc>Volts</desc>
			<v:textBlock v:margins="rect(0,0,0,0)"/>
			<v:textRect cx="10.3825" cy="72.9099" width="20.77" height="9"/>
			<path d="M20.77 68.41 L0 68.41 L0 77.41 L20.77 77.41 L20.77 68.41" class="st4"/>
			<text x="0.38" y="75.61" class="st5" v:langID="1033"><v:paragraph v:horizAlign="1"/><v:tabList/>Volts</text>		</g>
		<g id="shape4-14" v:mID="4" v:groupContext="shape" transform="translate(14.0625,-46.1349)">
			<title>Sheet.4</title>
			<path d="M0 77.41 L4.5 77.41" class="st3"/>
		</g>
		<g id="shape5-17" v:mID="5" v:groupContext="shape" transform="translate(14.0625,-19.1349)">
			<title>Sheet.5</title>
			<path d="M0 77.41 L4.5 77.41" class="st3"/>
		</g>
		<g id="shape6-20" v:mID="6" v:groupContext="shape" transform="translate(14.0625,-32.6349)">
			<title>Sheet.6</title>
			<path d="M0 77.41 L4.5 77.41" class="st3"/>
		</g>
		<g id="shape7-23" v:mID="7" v:groupContext="shape" transform="translate(14.0625,-50.6349)">
			<title>Sheet.7</title>
			<path d="M0 77.41 L4.5 77.41" class="st3"/>
		</g>
		<g id="shape8-26" v:mID="8" v:groupContext="shape" transform="translate(7.92244,-11.2599)">
			<title>Sheet.8</title>
			<desc>1</desc>
			<v:textBlock v:margins="rect(0,0,0,0)"/>
			<v:textRect cx="2.50753" cy="72.9099" width="5.02" height="9"/>
			<path d="M5.02 68.41 L0 68.41 L0 77.41 L5.02 77.41 L5.02 68.41" class="st4"/>
			<text x="0.57" y="75.31" class="st6" v:langID="1033"><v:paragraph v:horizAlign="2"/><v:tabList/>1</text>		</g>
		<g id="shape9-30" v:mID="9" v:groupContext="shape" transform="translate(7.92244,-24.7599)">
			<title>Sheet.9</title>
			<desc>2</desc>
			<v:textBlock v:margins="rect(0,0,0,0)"/>
			<v:textRect cx="2.50753" cy="72.9099" width="5.02" height="9"/>
			<path d="M5.02 68.41 L0 68.41 L0 77.41 L5.02 77.41 L5.02 68.41" class="st4"/>
			<text x="0.57" y="75.31" class="st6" v:langID="1033"><v:paragraph v:horizAlign="2"/><v:tabList/>2</text>		</g>
		<g id="shape10-34" v:mID="10" v:groupContext="shape" transform="translate(7.92244,-38.2599)">
			<title>Sheet.10</title>
			<desc>3</desc>
			<v:textBlock v:margins="rect(0,0,0,0)"/>
			<v:textRect cx="2.50753" cy="72.9099" width="5.02" height="9"/>
			<path d="M5.02 68.41 L0 68.41 L0 77.41 L5.02 77.41 L5.02 68.41" class="st4"/>
			<text x="0.57" y="75.31" class="st6" v:langID="1033"><v:paragraph v:horizAlign="2"/><v:tabList/>3</text>		</g>
		<g id="shape11-38" v:mID="11" v:groupContext="shape" transform="translate(0,-48.3849)">
			<title>Sheet.11</title>
			<desc>3.3</desc>
			<v:textBlock v:margins="rect(0,0,0,0)"/>
			<v:textRect cx="6.75" cy="72.9099" width="13.5" height="9"/>
			<path d="M13.5 68.41 L0 68.41 L0 77.41 L13.5 77.41 L13.5 68.41" class="st4"/>
			<text x="2.38" y="75.31" class="st6" v:langID="1033"><v:paragraph v:horizAlign="2"/><v:tabList/>3.3</text>		</g>
		<g id="shape12-42" v:mID="12" v:groupContext="shape" transform="translate(16.5938,-5.91614)">
			<title>Rectangle</title>
			<rect x="0" y="64.1912" width="80.7188" height="13.2188" class="st7"/>
		</g>
		<g id="shape13-44" v:mID="13" v:groupContext="shape" transform="translate(16.5938,-37.1349)">
			<title>Rectangle.198</title>
			<rect x="0" y="63.6287" width="80.7188" height="13.7813" class="st8"/>
		</g>
		<g id="shape14-46" v:mID="14" v:groupContext="shape" transform="translate(16.3125,-7.32239)">
			<title>Sheet.14</title>
			<desc>‘0’ voltage range</desc>
			<v:textBlock v:margins="rect(0,0,0,0)"/>
			<v:textRect cx="40.5" cy="71.7849" width="81" height="11.25"/>
			<path d="M81 66.16 L0 66.16 L0 77.41 L81 77.41 L81 66.16" class="st4"/>
			<text x="11.3" y="74.18" class="st6" v:langID="1033"><v:paragraph v:horizAlign="1"/><v:tabList/>‘0’ voltage range</text>		</g>
		<g id="shape15-50" v:mID="15" v:groupContext="shape" transform="translate(16.3125,-39.9474)">
			<title>Sheet.15</title>
			<desc>‘1’ voltage range</desc>
			<v:textBlock v:margins="rect(0,0,0,0)"/>
			<v:textRect cx="40.5" cy="72.9099" width="81" height="9"/>
			<path d="M81 68.41 L0 68.41 L0 77.41 L81 77.41 L81 68.41" class="st4"/>
			<text x="11.3" y="75.31" class="st6" v:langID="1033"><v:paragraph v:horizAlign="1"/><v:tabList/>‘1’ voltage range</text>		</g>
		<g id="shape16-54" v:mID="16" v:groupContext="shape" transform="translate(16.3125,-23.6349)">
			<title>Sheet.16</title>
			<desc>Indeterminate range</desc>
			<v:textBlock v:margins="rect(0,0,0,0)"/>
			<v:textRect cx="40.5" cy="72.9099" width="81" height="9"/>
			<path d="M81 68.41 L0 68.41 L0 77.41 L81 77.41 L81 68.41" class="st4"/>
			<text x="4.7" y="75.31" class="st6" v:langID="1033"><v:paragraph v:horizAlign="1"/><v:tabList/>Indeterminate range</text>		</g>
		<g id="shape17-58" v:mID="17" v:groupContext="shape" transform="translate(37.9026,71.7751) rotate(-90)">
			<title>Sheet.17</title>
			<path d="M0 77.41 L53.46 77.41" class="st1"/>
		</g>
		<g id="shape18-63" v:mID="18" v:groupContext="shape" transform="translate(115.313,-5.63489)">
			<title>Sheet.18</title>
			<path d="M0 77.41 L81.47 77.41" class="st3"/>
		</g>
		<g id="shape19-66" v:mID="19" v:groupContext="shape" transform="translate(104.93,-67.5099)">
			<title>Sheet.19</title>
			<desc>Volts</desc>
			<v:textBlock v:margins="rect(0,0,0,0)"/>
			<v:textRect cx="10.3825" cy="72.9099" width="20.77" height="9"/>
			<path d="M20.77 68.41 L0 68.41 L0 77.41 L20.77 77.41 L20.77 68.41" class="st4"/>
			<text x="0.38" y="75.61" class="st5" v:langID="1033"><v:paragraph v:horizAlign="1"/><v:tabList/>Volts</text>		</g>
		<g id="shape20-70" v:mID="20" v:groupContext="shape" transform="translate(113.063,-46.1349)">
			<title>Sheet.20</title>
			<path d="M0 77.41 L4.5 77.41" class="st3"/>
		</g>
		<g id="shape21-73" v:mID="21" v:groupContext="shape" transform="translate(113.063,-19.1349)">
			<title>Sheet.21</title>
			<path d="M0 77.41 L4.5 77.41" class="st3"/>
		</g>
		<g id="shape22-76" v:mID="22" v:groupContext="shape" transform="translate(113.063,-32.6349)">
			<title>Sheet.22</title>
			<path d="M0 77.41 L4.5 77.41" class="st3"/>
		</g>
		<g id="shape23-79" v:mID="23" v:groupContext="shape" transform="translate(113.063,-50.6349)">
			<title>Sheet.23</title>
			<path d="M0 77.41 L4.5 77.41" class="st3"/>
		</g>
		<g id="shape24-82" v:mID="24" v:groupContext="shape" transform="translate(106.922,-11.2599)">
			<title>Sheet.24</title>
			<desc>1</desc>
			<v:textBlock v:margins="rect(0,0,0,0)"/>
			<v:textRect cx="2.50753" cy="72.9099" width="5.02" height="9"/>
			<path d="M5.02 68.41 L0 68.41 L0 77.41 L5.02 77.41 L5.02 68.41" class="st4"/>
			<text x="0.57" y="75.31" class="st6" v:langID="1033"><v:paragraph v:horizAlign="2"/><v:tabList/>1</text>		</g>
		<g id="shape25-86" v:mID="25" v:groupContext="shape" transform="translate(106.922,-24.7599)">
			<title>Sheet.25</title>
			<desc>2</desc>
			<v:textBlock v:margins="rect(0,0,0,0)"/>
			<v:textRect cx="2.50753" cy="72.9099" width="5.02" height="9"/>
			<path d="M5.02 68.41 L0 68.41 L0 77.41 L5.02 77.41 L5.02 68.41" class="st4"/>
			<text x="0.57" y="75.31" class="st6" v:langID="1033"><v:paragraph v:horizAlign="2"/><v:tabList/>2</text>		</g>
		<g id="shape26-90" v:mID="26" v:groupContext="shape" transform="translate(106.922,-38.2599)">
			<title>Sheet.26</title>
			<desc>3</desc>
			<v:textBlock v:margins="rect(0,0,0,0)"/>
			<v:textRect cx="2.50753" cy="72.9099" width="5.02" height="9"/>
			<path d="M5.02 68.41 L0 68.41 L0 77.41 L5.02 77.41 L5.02 68.41" class="st4"/>
			<text x="0.57" y="75.31" class="st6" v:langID="1033"><v:paragraph v:horizAlign="2"/><v:tabList/>3</text>		</g>
		<g id="shape27-94" v:mID="27" v:groupContext="shape" transform="translate(99,-48.3849)">
			<title>Sheet.27</title>
			<desc>3.3</desc>
			<v:textBlock v:margins="rect(0,0,0,0)"/>
			<v:textRect cx="6.75" cy="72.9099" width="13.5" height="9"/>
			<path d="M13.5 68.41 L0 68.41 L0 77.41 L13.5 77.41 L13.5 68.41" class="st4"/>
			<text x="2.38" y="75.31" class="st6" v:langID="1033"><v:paragraph v:horizAlign="2"/><v:tabList/>3.3</text>		</g>
		<g id="shape28-98" v:mID="28" v:groupContext="shape" transform="translate(115.594,-5.91614)">
			<title>Rectangle.212</title>
			<rect x="0" y="64.1912" width="80.7188" height="13.2188" class="st7"/>
		</g>
		<g id="shape29-100" v:mID="29" v:groupContext="shape" transform="translate(115.594,-37.1349)">
			<title>Rectangle.213</title>
			<rect x="0" y="63.6287" width="80.7188" height="13.7813" class="st8"/>
		</g>
		<g id="shape31-102" v:mID="31" v:groupContext="shape" transform="translate(137.813,-5.63489)">
			<title>Sheet.31</title>
			<path d="M0 32.41 L0 72.91 L0 77.41" class="st9"/>
		</g>
		<g id="shape32-105" v:mID="32" v:groupContext="shape" transform="translate(164.813,-5.63489)">
			<title>Sheet.32</title>
			<path d="M0 32.41 L0 72.91 L0 77.41" class="st9"/>
		</g>
		<g id="shape33-108" v:mID="33" v:groupContext="shape" transform="translate(190.688,-4.50989)">
			<title>Sheet.33</title>
			<path d="M0 32.41 L0 72.91 L0 77.41" class="st9"/>
		</g>
		<g id="shape34-111" v:mID="34" v:groupContext="shape" transform="translate(141.188,-23.6349)">
			<title>Sheet.34</title>
			<desc>1</desc>
			<v:textBlock v:margins="rect(0,0,0,0)"/>
			<v:textRect cx="10.3825" cy="72.9099" width="20.77" height="9"/>
			<path d="M20.77 68.41 L0 68.41 L0 77.41 L20.77 77.41 L20.77 68.41" class="st4"/>
			<text x="7.88" y="75.61" class="st5" v:langID="1033"><v:paragraph v:horizAlign="1"/><v:tabList/>1</text>		</g>
		<g id="shape35-115" v:mID="35" v:groupContext="shape" transform="translate(115.313,-23.6349)">
			<title>Sheet.35</title>
			<desc>0</desc>
			<v:textBlock v:margins="rect(0,0,0,0)"/>
			<v:textRect cx="10.3825" cy="72.9099" width="20.77" height="9"/>
			<path d="M20.77 68.41 L0 68.41 L0 77.41 L20.77 77.41 L20.77 68.41" class="st4"/>
			<text x="7.88" y="75.61" class="st5" v:langID="1033"><v:paragraph v:horizAlign="1"/><v:tabList/>0</text>		</g>
		<g id="shape36-119" v:mID="36" v:groupContext="shape" transform="translate(167.672,-23.6349)">
			<title>Sheet.36</title>
			<desc>0</desc>
			<v:textBlock v:margins="rect(0,0,0,0)"/>
			<v:textRect cx="10.3825" cy="72.9099" width="20.77" height="9"/>
			<path d="M20.77 68.41 L0 68.41 L0 77.41 L20.77 77.41 L20.77 68.41" class="st4"/>
			<text x="7.88" y="75.61" class="st5" v:langID="1033"><v:paragraph v:horizAlign="1"/><v:tabList/>0</text>		</g>
		<g id="shape37-123" v:mID="37" v:groupContext="shape" transform="translate(183.656,-23.2952)">
			<title>Sheet.37</title>
			<desc>1</desc>
			<v:textBlock v:margins="rect(0,0,0,0)"/>
			<v:textRect cx="10.3825" cy="72.9099" width="20.77" height="9"/>
			<path d="M20.77 68.41 L0 68.41 L0 77.41 L20.77 77.41 L20.77 68.41" class="st4"/>
			<text x="7.88" y="75.61" class="st5" v:langID="1033"><v:paragraph v:horizAlign="1"/><v:tabList/>1</text>		</g>
		<g id="shape42-127" v:mID="42" v:groupContext="shape" transform="translate(115.313,-5.63489)">
			<title>Sheet.42</title>
			<path d="M0 77.41 C0.44 75.95 1.41 76.36 2.25 76.28 C4.02 76.12 5.25 73.78 5.64 73.5 C5.88 73.32 5.8 73.95 6.19 74.04
						 C6.62 74.14 7.6 73.62 8.43 73.74 C10.06 73.97 11.13 76.66 11.76 76.18 C12.52 75.62 12.66 70.48 13.79 69.28
						 C14.55 68.48 15.75 69.43 16.87 69.52 C17.8 69.6 18.67 69.1 19.4 68.4 C22.67 65.25 23.08 58.21 24.09 48.54
						 C24.69 42.77 25.5 36.06 26.73 37.45 C27.16 37.94 27.65 39.43 28.38 40.19 C29.42 41.27 30.98 40.84 31.75
						 38.55 C32.56 36.16 32.51 31.74 32.91 33.36 C33.23 34.65 33.82 39.72 34.73 40.57 C35.98 41.74 37.8 34.91
						 38.83 33.53 C39.55 32.55 39.87 34.35 40.46 36.45 C41.28 39.43 42.64 43.01 44.08 42.8 C45.45 42.6 46.9 38.96
						 47.61 38.09 C48.15 37.45 48.27 38.34 48.34 39.49 C48.65 44.26 48.13 53.38 50.47 61.67 C51.53 65.4 53.16
						 68.97 53.95 70.58 C54.59 71.86 54.69 71.89 55.79 70.08 C56.32 69.23 57.06 67.97 57.76 67.69 C59.85 66.88
						 61.56 74.76 63.48 74.19 C64.61 73.86 65.8 70.64 66.77 68.47 C67.41 67.04 67.96 66.06 68.41 67.39 C68.95
						 68.98 69.36 73.86 69.83 75.28 C70.42 77.05 71.11 73.35 71.7 70.18 C73.61 60.04 74.6 55.35 75.05 48.2 C75.24
						 45.1 75.33 41.53 75.88 39.96 C76.18 39.11 76.61 38.84 77.62 38.59 C78.93 38.27 81.21 38 81 36.91 C85.5 39.5
						 85.06 39.32 84.78 39.25 C82.74 38.75 88.59 43.67 89.6 43.69 C90.76 43.72 85.5 37.25 94.22 64.25"
					class="st10"/>
		</g>
		<g id="shape47-130" v:mID="47" v:groupContext="shape" transform="translate(196.031,-13.1702)">
			<title>Sheet.47</title>
			<rect x="0" y="39.3828" width="21.375" height="38.0272" class="st11"/>
		</g>
		<g id="shape38-132" v:mID="38" v:groupContext="shape" transform="translate(278.222,26.7751) rotate(90)">
			<title>Sheet.38</title>
			<path d="M3.96 77.41 L4.32 77.41 L9.18 77.41" class="st12"/>
		</g>
		<g id="shape39-141" v:mID="39" v:groupContext="shape" transform="translate(203.063,-39.3849)">
			<title>Sheet.39</title>
			<desc>800mV</desc>
			<v:textBlock v:margins="rect(0,0,0,0)"/>
			<v:textRect cx="13.5" cy="72.9099" width="27" height="9"/>
			<path d="M27 68.41 L0 68.41 L0 77.41 L27 77.41 L27 68.41" class="st4"/>
			<text x="1.65" y="75.31" class="st6" v:langID="1033"><v:paragraph v:horizAlign="2"/><v:tabList/>800mV</text>		</g>
		<g id="shape40-145" v:mID="40" v:groupContext="shape" transform="translate(278.222,58.2751) rotate(90)">
			<title>Sheet.40</title>
			<path d="M3.96 77.41 L4.32 77.41 L9.18 77.41" class="st12"/>
		</g>
		<g id="shape41-152" v:mID="41" v:groupContext="shape" transform="translate(203.063,-7.88489)">
			<title>Sheet.41</title>
			<desc>800mV</desc>
			<v:textBlock v:margins="rect(0,0,0,0)"/>
			<v:textRect cx="13.5" cy="72.9099" width="27" height="9"/>
			<path d="M27 68.41 L0 68.41 L0 77.41 L27 77.41 L27 68.41" class="st4"/>
			<text x="1.65" y="75.31" class="st6" v:langID="1033"><v:paragraph v:horizAlign="2"/><v:tabList/>800mV</text>		</g>
	</g>
</svg>
