<?xml version="1.0" encoding="UTF-8" standalone="no"?>
<!DOCTYPE svg PUBLIC "-//W3C//DTD SVG 1.1//EN" "http://www.w3.org/Graphics/SVG/1.1/DTD/svg11.dtd">
<!-- Generated by Microsoft Visio, SVG Export DigitalCircuit.svg Page-1 -->
<svg xmlns="http://www.w3.org/2000/svg" xmlns:xlink="http://www.w3.org/1999/xlink" xmlns:ev="http://www.w3.org/2001/xml-events"
		xmlns:v="http://schemas.microsoft.com/visio/2003/SVGExtensions/" width="5.74368in" height="2.2784in"
		viewBox="0 0 413.545 164.045" xml:space="preserve" color-interpolation-filters="sRGB" class="st9">
	<v:documentProperties v:langID="1033" v:viewMarkup="false"/>

	<style type="text/css">
	<![CDATA[
		.st1 {stroke:#000000;stroke-linecap:round;stroke-linejoin:round;stroke-width:0.748831}
		.st2 {fill:#d5e1fb;stroke:#000000;stroke-linecap:round;stroke-linejoin:round;stroke-width:0.24}
		.st3 {stroke:#000000;stroke-linecap:round;stroke-linejoin:round;stroke-width:0.224649}
		.st4 {fill:#ffffff;stroke:none;stroke-linecap:round;stroke-linejoin:round;stroke-width:0.75}
		.st5 {stroke:none;stroke-linecap:round;stroke-linejoin:round;stroke-width:0.75}
		.st6 {fill:#000000;font-family:Arial;font-size:0.75em}
		.st7 {font-size:1em}
		.st8 {fill:#000000;stroke:none;stroke-linecap:round;stroke-linejoin:round;stroke-width:0.75}
		.st9 {fill:none;fill-rule:evenodd;font-size:12px;overflow:visible;stroke-linecap:square;stroke-miterlimit:3}
	]]>
	</style>

	<g v:mID="0" v:index="1" v:groupContext="foregroundPage">
		<title>Page-1</title>
		<v:pageProperties v:drawingScale="1" v:pageScale="1" v:drawingUnits="0" v:shadowOffsetX="9" v:shadowOffsetY="-9"/>
		<g id="shape1-1" v:mID="1" v:groupContext="shape" transform="translate(68.4438,-146.843)">
			<title>Sheet.1</title>
			<path d="M0 164.04 L314.54 164.04" class="st1"/>
		</g>
		<g id="shape2-4" v:mID="2" v:groupContext="shape" transform="translate(86.4174,-21.0516)">
			<title>Sheet.2</title>
			<path d="M0 164.04 L287.58 164.04" class="st1"/>
		</g>
		<g id="shape3-7" v:mID="3" v:groupContext="shape" transform="translate(176.211,-57.3664)">
			<title>Sheet.3</title>
			<path d="M0 119.12 L0 164.04 L26.96 164.04 L26.96 119.12 L0 119.12 L0 119.12 Z" class="st2"/>
		</g>
		<g id="shape4-9" v:mID="4" v:groupContext="shape" transform="translate(176.211,-57.3664)">
			<title>Sheet.4</title>
			<path d="M0 164.04 L26.96 164.04 L26.96 119.12 L0 119.12 L0 164.04 L0 164.04" class="st3"/>
		</g>
		<g id="shape5-12" v:mID="5" v:groupContext="shape" transform="translate(216.652,-115.77)">
			<title>Sheet.5</title>
			<path d="M0 146.07 L0 164.04 L44.93 164.04 L44.93 146.07 L0 146.07 L0 146.07 Z" class="st2"/>
		</g>
		<g id="shape6-14" v:mID="6" v:groupContext="shape" transform="translate(216.652,-115.77)">
			<title>Sheet.6</title>
			<path d="M0 164.04 L44.93 164.04 L44.93 146.07 L0 146.07 L0 164.04 L0 164.04" class="st3"/>
		</g>
		<g id="shape7-17" v:mID="7" v:groupContext="shape" transform="translate(279.634,-79.4548)">
			<title>Sheet.7</title>
			<path d="M0 110.13 L0 164.04 L26.96 164.04 L26.96 110.13 L0 110.13 L0 110.13 Z" class="st2"/>
		</g>
		<g id="shape8-19" v:mID="8" v:groupContext="shape" transform="translate(279.634,-79.4548)">
			<title>Sheet.8</title>
			<path d="M0 164.04 L26.96 164.04 L26.96 110.13 L0 110.13 L0 164.04 L0 164.04" class="st3"/>
		</g>
		<g id="shape9-22" v:mID="9" v:groupContext="shape" transform="translate(117.796,-105.287)">
			<title>Sheet.9</title>
			<path d="M0 134.09 L0 164.04 L8.99 164.04 L8.99 134.09 L0 134.09 L0 134.09 Z" class="st2"/>
		</g>
		<g id="shape10-24" v:mID="10" v:groupContext="shape" transform="translate(117.796,-105.287)">
			<title>Sheet.10</title>
			<path d="M0 164.04 L8.99 164.04 L8.99 134.09 L0 134.09 L0 164.04 L0 164.04" class="st3"/>
		</g>
		<g id="shape11-27" v:mID="11" v:groupContext="shape" transform="translate(117.796,-39.3962)">
			<title>Sheet.11</title>
			<path d="M0 131.1 L0 164.04 L8.99 164.04 L8.99 131.1 L0 131.1 L0 131.1 Z" class="st2"/>
		</g>
		<g id="shape12-29" v:mID="12" v:groupContext="shape" transform="translate(117.796,-39.3962)">
			<title>Sheet.12</title>
			<path d="M0 164.04 L8.99 164.04 L8.99 131.1 L0 131.1 L0 164.04 L0 164.04" class="st3"/>
		</g>
		<g id="shape13-32" v:mID="13" v:groupContext="shape" transform="translate(90.9108,-88.5148)">
			<title>Sheet.13</title>
			<path d="M0 164.04 L85.37 164.04" class="st1"/>
		</g>
		<g id="shape14-35" v:mID="14" v:groupContext="shape" transform="translate(122.29,-72.3416)">
			<title>Sheet.14</title>
			<path d="M0 164.04 L0 131.1" class="st3"/>
		</g>
		<g id="shape15-38" v:mID="15" v:groupContext="shape" transform="translate(122.29,-135.237)">
			<title>Sheet.15</title>
			<path d="M0 164.04 L0 152.06" class="st1"/>
		</g>
		<g id="shape16-41" v:mID="16" v:groupContext="shape" transform="translate(122.29,-21.426)">
			<title>Sheet.16</title>
			<path d="M0 164.04 L0 146.07" class="st1"/>
		</g>
		<g id="shape17-44" v:mID="17" v:groupContext="shape" transform="translate(122.29,-79.8292)">
			<title>Sheet.17</title>
			<path d="M0 164.04 L53.92 164.04" class="st1"/>
		</g>
		<g id="shape18-47" v:mID="18" v:groupContext="shape" transform="translate(90.9108,-97.4999)">
			<title>Sheet.18</title>
			<path d="M0 164.04 L62.91 164.04" class="st1"/>
		</g>
		<g id="shape19-50" v:mID="19" v:groupContext="shape" transform="translate(153.744,-97.4999)">
			<title>Sheet.19</title>
			<path d="M0.07 164.04 L0 136.79" class="st1"/>
		</g>
		<g id="shape20-53" v:mID="20" v:groupContext="shape" transform="translate(153.744,-124.755)">
			<title>Sheet.20</title>
			<path d="M0 164.04 L62.91 164.04" class="st1"/>
		</g>
		<g id="shape21-56" v:mID="21" v:groupContext="shape" transform="translate(121.766,-79.305)">
			<title>Sheet.21</title>
			<path d="M0 163.52 L0 163.37 L0 163.3 L0.07 163.22 L0.15 163.07 L0.22 163.07 L0.3 163 L0.45 162.92 L0.52 162.92 L0.67
						 162.92 L0.75 163 L0.82 163.07 L0.9 163.07 L0.97 163.22 L1.05 163.3 L1.05 163.37 L1.12 163.52 L1.12 163.52
						 L1.05 163.6 L1.05 163.75 L0.97 163.82 L0.9 163.9 L0.82 163.97 L0.75 164.04 L0.67 164.04 L0.52 164.04 L0.45
						 164.04 L0.3 164.04 L0.22 163.97 L0.15 163.9 L0.07 163.82 L0 163.75 L0 163.6 L0 163.52 L0 163.52 Z"
					class="st4"/>
		</g>
		<g id="shape22-58" v:mID="22" v:groupContext="shape" transform="translate(121.766,-79.305)">
			<title>Sheet.22</title>
			<path d="M0 163.52 L0 163.37 L0 163.3 L0.07 163.22 L0.15 163.07 L0.22 163.07 L0.3 163 L0.45 162.92 L0.52 162.92 L0.67
						 162.92 L0.75 163 L0.82 163.07 L0.9 163.07 L0.97 163.22 L1.05 163.3 L1.05 163.37 L1.12 163.52 L1.12 163.52
						 L1.05 163.6 L1.05 163.75 L0.97 163.82 L0.9 163.9 L0.82 163.97 L0.75 164.04 L0.67 164.04 L0.52 164.04 L0.45
						 164.04 L0.3 164.04 L0.22 163.97 L0.15 163.9 L0.07 163.82 L0 163.75 L0 163.6 L0 163.52" class="st1"/>
		</g>
		<g id="shape23-61" v:mID="23" v:groupContext="shape" transform="translate(261.586,-124.755)">
			<title>Sheet.23</title>
			<path d="M0 164.04 L17.97 164.04" class="st1"/>
		</g>
		<g id="shape24-64" v:mID="24" v:groupContext="shape" transform="translate(203.171,-88.8143)">
			<title>Sheet.24</title>
			<path d="M0 164.04 L76.39 164.04" class="st1"/>
		</g>
		<g id="shape25-67" v:mID="25" v:groupContext="shape" transform="translate(225.638,-65.8274)">
			<title>Sheet.25</title>
			<path d="M0 164.04 L0 141.06" class="st1"/>
		</g>
		<g id="shape26-70" v:mID="26" v:groupContext="shape" transform="translate(225.114,-88.2902)">
			<title>Sheet.26</title>
			<path d="M0 163.52 L0 163.37 L0 163.3 L0.07 163.22 L0.15 163.07 L0.22 163.07 L0.3 163 L0.45 162.92 L0.52 162.92 L0.67
						 162.92 L0.75 163 L0.82 163.07 L0.9 163.07 L0.97 163.22 L1.05 163.3 L1.05 163.37 L1.12 163.52 L1.12 163.52
						 L1.05 163.6 L1.05 163.75 L0.97 163.82 L0.9 163.9 L0.82 163.97 L0.75 164.04 L0.67 164.04 L0.52 164.04 L0.45
						 164.04 L0.3 164.04 L0.22 163.97 L0.15 163.9 L0.07 163.82 L0 163.75 L0 163.6 L0 163.52 L0 163.52 Z"
					class="st4"/>
		</g>
		<g id="shape27-72" v:mID="27" v:groupContext="shape" transform="translate(225.114,-88.2902)">
			<title>Sheet.27</title>
			<path d="M0 163.52 L0 163.37 L0 163.3 L0.07 163.22 L0.15 163.07 L0.22 163.07 L0.3 163 L0.45 162.92 L0.52 162.92 L0.67
						 162.92 L0.75 163 L0.82 163.07 L0.9 163.07 L0.97 163.22 L1.05 163.3 L1.05 163.37 L1.12 163.52 L1.12 163.52
						 L1.05 163.6 L1.05 163.75 L0.97 163.82 L0.9 163.9 L0.82 163.97 L0.75 164.04 L0.67 164.04 L0.52 164.04 L0.45
						 164.04 L0.3 164.04 L0.22 163.97 L0.15 163.9 L0.07 163.82 L0 163.75 L0 163.6 L0 163.52" class="st1"/>
		</g>
		<g id="shape28-75" v:mID="28" v:groupContext="shape" transform="translate(90.8359,-30.1116)">
			<title>Sheet.28</title>
			<path d="M0 164.04 L44.93 164.04" class="st1"/>
		</g>
		<g id="shape29-78" v:mID="29" v:groupContext="shape" transform="translate(135.77,-30.1116)">
			<title>Sheet.29</title>
			<path d="M0 164.04 L0 123.31" class="st1"/>
		</g>
		<g id="shape30-81" v:mID="30" v:groupContext="shape" transform="translate(135.77,-70.8441)">
			<title>Sheet.30</title>
			<path d="M0 164.04 L40.44 164.04" class="st1"/>
		</g>
		<g id="shape31-84" v:mID="31" v:groupContext="shape" transform="translate(225.713,-65.9771)">
			<title>Sheet.31</title>
			<path d="M0 164.04 L89.87 164.04" class="st1"/>
		</g>
		<g id="shape32-87" v:mID="32" v:groupContext="shape" transform="translate(306.595,-124.38)">
			<title>Sheet.32</title>
			<path d="M0 164.04 L8.99 164.04" class="st1"/>
		</g>
		<g id="shape33-90" v:mID="33" v:groupContext="shape" transform="translate(306.595,-106.41)">
			<title>Sheet.33</title>
			<path d="M0 164.04 L8.99 164.04" class="st1"/>
		</g>
		<g id="shape34-93" v:mID="34" v:groupContext="shape" transform="translate(306.595,-88.4399)">
			<title>Sheet.34</title>
			<path d="M0 164.04 L8.99 164.04" class="st1"/>
		</g>
		<g id="shape35-96" v:mID="35" v:groupContext="shape" transform="translate(239.119,-133.74)">
			<title>Sheet.35</title>
			<path d="M0 164.04 L0 150.57" class="st1"/>
		</g>
		<g id="shape36-99" v:mID="36" v:groupContext="shape" transform="translate(293.04,-133.44)">
			<title>Sheet.36</title>
			<path d="M0.07 164.04 L0 150.27" class="st1"/>
		</g>
		<g id="shape37-102" v:mID="37" v:groupContext="shape" transform="translate(189.691,-102.292)">
			<title>Sheet.37</title>
			<path d="M0 164.04 L0 119.12" class="st1"/>
		</g>
		<g id="shape38-105" v:mID="38" v:groupContext="shape" transform="translate(189.691,-21.426)">
			<title>Sheet.38</title>
			<path d="M0 164.04 L0 128.1" class="st1"/>
		</g>
		<g id="shape39-108" v:mID="39" v:groupContext="shape" transform="translate(293.04,-21.426)">
			<title>Sheet.39</title>
			<path d="M0 164.04 L0.07 105.94" class="st1"/>
		</g>
		<g id="shape40-111" v:mID="40" v:groupContext="shape" transform="translate(-3.19744E-014,-63)">
			<title>Sheet.40</title>
			<desc>Some circuit nets are inputs</desc>
			<v:textBlock v:margins="rect(0,0,0,0)"/>
			<v:textRect cx="32.3973" cy="158.068" width="64.8" height="11.9539"/>
			<path d="M64.79 152.09 L0 152.09 L0 164.04 L64.79 164.04 L64.79 152.09" class="st5"/>
			<text x="7.64" y="155.37" class="st6" v:langID="1033"><v:paragraph v:horizAlign="1"/><v:tabList/>Some circuit <tspan
						x="2.88" dy="1.2em" class="st7">nets are inputs </tspan> </text>		</g>
		<g id="shape41-116" v:mID="41" v:groupContext="shape" transform="translate(63.8755,-72.7908)">
			<title>Sheet.41</title>
			<path d="M0 164.04 L13.85 142.41" class="st3"/>
		</g>
		<g id="shape42-119" v:mID="42" v:groupContext="shape" transform="translate(75.7081,-92.9325)">
			<title>Sheet.42</title>
			<path d="M0 161.87 L3.89 159.48 L3.44 164.04 L0 161.87 L0 161.87 Z" class="st8"/>
		</g>
		<g id="shape43-121" v:mID="43" v:groupContext="shape" transform="translate(24.2946,-124.454)">
			<title>Sheet.43</title>
			<desc>Circuit components</desc>
			<v:textBlock v:margins="rect(0,0,0,0)"/>
			<v:textRect cx="45.9124" cy="158.068" width="91.83" height="11.9539"/>
			<path d="M91.82 152.09 L0 152.09 L0 164.04 L91.82 164.04 L91.82 152.09" class="st5"/>
			<text x="33.16" y="155.37" class="st6" v:langID="1033"><v:paragraph v:horizAlign="1"/><v:tabList/>Circuit<v:newlineChar/><tspan
						x="21.4" dy="1.2em" class="st7">components</tspan></text>		</g>
		<g id="shape44-126" v:mID="44" v:groupContext="shape" transform="translate(148.801,-152.091)">
			<title>Sheet.44</title>
			<desc>Vdd net</desc>
			<v:textBlock v:margins="rect(0,0,0,0)"/>
			<v:textRect cx="21.4339" cy="158.068" width="42.87" height="11.9539"/>
			<path d="M42.87 152.09 L0 152.09 L0 164.04 L42.87 164.04 L42.87 152.09" class="st5"/>
			<text x="5.92" y="160.77" class="st6" v:langID="1033"><v:paragraph v:horizAlign="1"/><v:tabList/>Vdd net</text>		</g>
		<g id="shape45-130" v:mID="45" v:groupContext="shape" transform="translate(135.77,-153.058)">
			<title>Sheet.45</title>
			<path d="M11.23 158.95 L9.81 158.5 L8.46 158.2 L7.26 157.98 L6.07 157.91 L5.02 157.98 L4.04 158.13 L3.22 158.43 L2.47
						 158.88 L1.8 159.4 L1.27 160.08 L0.75 160.9 L0.45 161.8 L0.15 162.85 L0 164.04" class="st3"/>
		</g>
		<g id="shape46-133" v:mID="46" v:groupContext="shape" transform="translate(133.748,-149.464)">
			<title>Sheet.46</title>
			<path d="M0 160 L2.02 164.04 L4.04 159.93 L0 160 L0 160 Z" class="st8"/>
		</g>
		<g id="shape47-135" v:mID="47" v:groupContext="shape" transform="translate(301.045,-34.9288)">
			<title>Sheet.47</title>
			<desc>Wires carrying signals between circuit components are called ...</desc>
			<v:textBlock v:margins="rect(0,0,0,0)"/>
			<v:textRect cx="56.25" cy="157.532" width="112.5" height="13.0251"/>
			<path d="M112.5 151.02 L0 151.02 L0 164.04 L112.5 164.04 L112.5 151.02" class="st5"/>
			<text x="12.24" y="149.43" class="st6" v:langID="1033"><v:paragraph v:horizAlign="1"/><v:tabList/>Wires carrying signals <tspan
						x="0.47" dy="1.2em" class="st7">between circuit components </tspan><tspan x="2.23" dy="1.2em" class="st7">are called </tspan>“nodes” or “nets”  </text>		</g>
		<g id="shape48-141" v:mID="48" v:groupContext="shape" transform="translate(151.048,-1.59042)">
			<title>Sheet.48</title>
			<desc>GND net</desc>
			<v:textBlock v:margins="rect(0,0,0,0)"/>
			<v:textRect cx="23.6539" cy="158.068" width="47.31" height="11.9539"/>
			<path d="M47.31 152.09 L0 152.09 L0 164.04 L47.31 164.04 L47.31 152.09" class="st5"/>
			<text x="6.15" y="160.77" class="st6" v:langID="1033"><v:paragraph v:horizAlign="1"/><v:tabList/>GND net</text>		</g>
		<g id="shape49-145" v:mID="49" v:groupContext="shape" transform="translate(140.788,-7.49905)">
			<title>Sheet.49</title>
			<path d="M6.29 163.9 L5.39 164.04 L4.64 163.97 L3.89 163.75 L3.22 163.37 L2.62 162.77 L2.02 162.1 L1.5 161.27 L1.05 160.23
						 L0.67 159.03 L0.3 157.76 L0 156.26" class="st3"/>
		</g>
		<g id="shape50-148" v:mID="50" v:groupContext="shape" transform="translate(138.841,-14.5374)">
			<title>Sheet.50</title>
			<path d="M0 164.04 L1.5 159.7 L4.04 163.52 L0 164.04 L0 164.04 Z" class="st8"/>
		</g>
		<g id="shape51-150" v:mID="51" v:groupContext="shape" transform="translate(99.8228,-129.547)">
			<title>Sheet.51</title>
			<path d="M0 162.4 L18.95 164.04" class="st3"/>
		</g>
		<g id="shape52-153" v:mID="52" v:groupContext="shape" transform="translate(118.096,-127.6)">
			<title>Sheet.52</title>
			<path d="M0.3 160 L4.19 162.4 L0 164.04 L0.3 160 L0.3 160 Z" class="st8"/>
		</g>
		<g id="shape53-155" v:mID="53" v:groupContext="shape" transform="translate(221.744,-5.70203)">
			<title>Sheet.53</title>
			<path d="M7.79 157.31 L3.89 164.04 L0 157.31 L7.79 157.31 L7.79 157.31 Z" class="st4"/>
		</g>
		<g id="shape54-157" v:mID="54" v:groupContext="shape" transform="translate(221.744,-5.70203)">
			<title>Sheet.54</title>
			<path d="M7.79 157.31 L3.89 164.04 L0 157.31 L7.79 157.31 L7.79 157.31" class="st1"/>
		</g>
		<g id="shape55-160" v:mID="55" v:groupContext="shape" transform="translate(225.638,-12.4409)">
			<title>Sheet.55</title>
			<path d="M0 164.04 L0 155.06" class="st1"/>
		</g>
		<g id="shape56-163" v:mID="56" v:groupContext="shape" transform="translate(226.795,-2.84217E-014)">
			<title>Sheet.56</title>
			<desc>GND net symbol</desc>
			<v:textBlock v:margins="rect(0,0,0,0)"/>
			<v:textRect cx="50.316" cy="158.068" width="100.64" height="11.9539"/>
			<path d="M100.63 152.09 L0 152.09 L0 164.04 L100.63 164.04 L100.63 152.09" class="st5"/>
			<text x="17.31" y="160.77" class="st6" v:langID="1033"><v:paragraph v:horizAlign="1"/><v:tabList/>GND net symbol</text>		</g>
		<g id="shape57-167" v:mID="57" v:groupContext="shape" transform="translate(233.652,-7.6488)">
			<title>Sheet.57</title>
			<path d="M7.79 164.04 L0 162.32" class="st3"/>
		</g>
		<g id="shape58-170" v:mID="58" v:groupContext="shape" transform="translate(230.132,-7.27442)">
			<title>Sheet.58</title>
			<path d="M3.52 164.04 L0 161.12 L4.42 160.08 L3.52 164.04 L3.52 164.04 Z" class="st8"/>
		</g>
		<g id="shape59-172" v:mID="59" v:groupContext="shape" transform="translate(292.515,-146.094)">
			<title>Sheet.59</title>
			<path d="M0 163.45 L0 163.37 L0 163.22 L0.07 163.15 L0.15 163.07 L0.22 163 L0.3 162.92 L0.45 162.92 L0.52 162.92 L0.67
						 162.92 L0.75 162.92 L0.82 163 L0.9 163.07 L0.97 163.15 L1.05 163.22 L1.05 163.37 L1.12 163.45 L1.12 163.45
						 L1.05 163.6 L1.05 163.67 L0.97 163.82 L0.9 163.9 L0.82 163.97 L0.75 163.97 L0.67 164.04 L0.52 164.04 L0.45
						 164.04 L0.3 163.97 L0.22 163.97 L0.15 163.9 L0.07 163.82 L0 163.67 L0 163.6 L0 163.45 L0 163.45 Z"
					class="st4"/>
		</g>
		<g id="shape60-174" v:mID="60" v:groupContext="shape" transform="translate(292.515,-146.094)">
			<title>Sheet.60</title>
			<path d="M0 163.45 L0 163.37 L0 163.22 L0.07 163.15 L0.15 163.07 L0.22 163 L0.3 162.92 L0.45 162.92 L0.52 162.92 L0.67
						 162.92 L0.75 162.92 L0.82 163 L0.9 163.07 L0.97 163.15 L1.05 163.22 L1.05 163.37 L1.12 163.45 L1.12 163.45
						 L1.05 163.6 L1.05 163.67 L0.97 163.82 L0.9 163.9 L0.82 163.97 L0.75 163.97 L0.67 164.04 L0.52 164.04 L0.45
						 164.04 L0.3 163.97 L0.22 163.97 L0.15 163.9 L0.07 163.82 L0 163.67 L0 163.6 L0 163.45" class="st1"/>
		</g>
		<g id="shape61-177" v:mID="61" v:groupContext="shape" transform="translate(238.594,-146.693)">
			<title>Sheet.61</title>
			<path d="M0 163.52 L0 163.37 L0 163.3 L0.07 163.22 L0.15 163.07 L0.22 163.07 L0.3 163 L0.45 162.92 L0.52 162.92 L0.67
						 162.92 L0.75 163 L0.82 163.07 L0.9 163.07 L0.97 163.22 L1.05 163.3 L1.05 163.37 L1.12 163.52 L1.12 163.52
						 L1.05 163.6 L1.05 163.75 L0.97 163.82 L0.9 163.9 L0.82 163.97 L0.75 164.04 L0.67 164.04 L0.52 164.04 L0.45
						 164.04 L0.3 164.04 L0.22 163.97 L0.15 163.9 L0.07 163.82 L0 163.75 L0 163.6 L0 163.52 L0 163.52 Z"
					class="st4"/>
		</g>
		<g id="shape62-179" v:mID="62" v:groupContext="shape" transform="translate(238.594,-146.693)">
			<title>Sheet.62</title>
			<path d="M0 163.52 L0 163.37 L0 163.3 L0.07 163.22 L0.15 163.07 L0.22 163.07 L0.3 163 L0.45 162.92 L0.52 162.92 L0.67
						 162.92 L0.75 163 L0.82 163.07 L0.9 163.07 L0.97 163.22 L1.05 163.3 L1.05 163.37 L1.12 163.52 L1.12 163.52
						 L1.05 163.6 L1.05 163.75 L0.97 163.82 L0.9 163.9 L0.82 163.97 L0.75 164.04 L0.67 164.04 L0.52 164.04 L0.45
						 164.04 L0.3 164.04 L0.22 163.97 L0.15 163.9 L0.07 163.82 L0 163.75 L0 163.6 L0 163.52" class="st1"/>
		</g>
		<g id="shape63-182" v:mID="63" v:groupContext="shape" transform="translate(189.167,-146.693)">
			<title>Sheet.63</title>
			<path d="M0 163.52 L0 163.37 L0 163.3 L0.07 163.22 L0.15 163.07 L0.22 163.07 L0.3 163 L0.45 162.92 L0.52 162.92 L0.67
						 162.92 L0.75 163 L0.82 163.07 L0.9 163.07 L0.97 163.22 L1.05 163.3 L1.05 163.37 L1.12 163.52 L1.12 163.52
						 L1.05 163.6 L1.05 163.75 L0.97 163.82 L0.9 163.9 L0.82 163.97 L0.75 164.04 L0.67 164.04 L0.52 164.04 L0.45
						 164.04 L0.3 164.04 L0.22 163.97 L0.15 163.9 L0.07 163.82 L0 163.75 L0 163.6 L0 163.52 L0 163.52 Z"
					class="st4"/>
		</g>
		<g id="shape64-184" v:mID="64" v:groupContext="shape" transform="translate(189.167,-146.693)">
			<title>Sheet.64</title>
			<path d="M0 163.52 L0 163.37 L0 163.3 L0.07 163.22 L0.15 163.07 L0.22 163.07 L0.3 163 L0.45 162.92 L0.52 162.92 L0.67
						 162.92 L0.75 163 L0.82 163.07 L0.9 163.07 L0.97 163.22 L1.05 163.3 L1.05 163.37 L1.12 163.52 L1.12 163.52
						 L1.05 163.6 L1.05 163.75 L0.97 163.82 L0.9 163.9 L0.82 163.97 L0.75 164.04 L0.67 164.04 L0.52 164.04 L0.45
						 164.04 L0.3 164.04 L0.22 163.97 L0.15 163.9 L0.07 163.82 L0 163.75 L0 163.6 L0 163.52" class="st1"/>
		</g>
		<g id="shape65-187" v:mID="65" v:groupContext="shape" transform="translate(121.766,-146.693)">
			<title>Sheet.65</title>
			<path d="M0 163.52 L0 163.37 L0 163.3 L0.07 163.22 L0.15 163.07 L0.22 163.07 L0.3 163 L0.45 162.92 L0.52 162.92 L0.67
						 162.92 L0.75 163 L0.82 163.07 L0.9 163.07 L0.97 163.22 L1.05 163.3 L1.05 163.37 L1.12 163.52 L1.12 163.52
						 L1.05 163.6 L1.05 163.75 L0.97 163.82 L0.9 163.9 L0.82 163.97 L0.75 164.04 L0.67 164.04 L0.52 164.04 L0.45
						 164.04 L0.3 164.04 L0.22 163.97 L0.15 163.9 L0.07 163.82 L0 163.75 L0 163.6 L0 163.52 L0 163.52 Z"
					class="st4"/>
		</g>
		<g id="shape66-189" v:mID="66" v:groupContext="shape" transform="translate(121.766,-146.693)">
			<title>Sheet.66</title>
			<path d="M0 163.52 L0 163.37 L0 163.3 L0.07 163.22 L0.15 163.07 L0.22 163.07 L0.3 163 L0.45 162.92 L0.52 162.92 L0.67
						 162.92 L0.75 163 L0.82 163.07 L0.9 163.07 L0.97 163.22 L1.05 163.3 L1.05 163.37 L1.12 163.52 L1.12 163.52
						 L1.05 163.6 L1.05 163.75 L0.97 163.82 L0.9 163.9 L0.82 163.97 L0.75 164.04 L0.67 164.04 L0.52 164.04 L0.45
						 164.04 L0.3 164.04 L0.22 163.97 L0.15 163.9 L0.07 163.82 L0 163.75 L0 163.6 L0 163.52" class="st1"/>
		</g>
		<g id="shape67-192" v:mID="67" v:groupContext="shape" transform="translate(292.515,-20.9018)">
			<title>Sheet.67</title>
			<path d="M0 163.52 L0 163.37 L0 163.3 L0.07 163.22 L0.15 163.07 L0.22 163.07 L0.3 163 L0.45 162.92 L0.52 162.92 L0.67
						 162.92 L0.75 163 L0.82 163.07 L0.9 163.07 L0.97 163.22 L1.05 163.3 L1.05 163.37 L1.12 163.52 L1.12 163.52
						 L1.05 163.6 L1.05 163.75 L0.97 163.82 L0.9 163.9 L0.82 163.97 L0.75 164.04 L0.67 164.04 L0.52 164.04 L0.45
						 164.04 L0.3 164.04 L0.22 163.97 L0.15 163.9 L0.07 163.82 L0 163.75 L0 163.6 L0 163.52 L0 163.52 Z"
					class="st4"/>
		</g>
		<g id="shape68-194" v:mID="68" v:groupContext="shape" transform="translate(292.515,-20.9018)">
			<title>Sheet.68</title>
			<path d="M0 163.52 L0 163.37 L0 163.3 L0.07 163.22 L0.15 163.07 L0.22 163.07 L0.3 163 L0.45 162.92 L0.52 162.92 L0.67
						 162.92 L0.75 163 L0.82 163.07 L0.9 163.07 L0.97 163.22 L1.05 163.3 L1.05 163.37 L1.12 163.52 L1.12 163.52
						 L1.05 163.6 L1.05 163.75 L0.97 163.82 L0.9 163.9 L0.82 163.97 L0.75 164.04 L0.67 164.04 L0.52 164.04 L0.45
						 164.04 L0.3 164.04 L0.22 163.97 L0.15 163.9 L0.07 163.82 L0 163.75 L0 163.6 L0 163.52" class="st3"/>
		</g>
		<g id="shape69-197" v:mID="69" v:groupContext="shape" transform="translate(189.167,-20.9018)">
			<title>Sheet.69</title>
			<path d="M0 163.52 L0 163.37 L0 163.3 L0.07 163.22 L0.15 163.07 L0.22 163.07 L0.3 163 L0.45 162.92 L0.52 162.92 L0.67
						 162.92 L0.75 163 L0.82 163.07 L0.9 163.07 L0.97 163.22 L1.05 163.3 L1.05 163.37 L1.12 163.52 L1.12 163.52
						 L1.05 163.6 L1.05 163.75 L0.97 163.82 L0.9 163.9 L0.82 163.97 L0.75 164.04 L0.67 164.04 L0.52 164.04 L0.45
						 164.04 L0.3 164.04 L0.22 163.97 L0.15 163.9 L0.07 163.82 L0 163.75 L0 163.6 L0 163.52 L0 163.52 Z"
					class="st4"/>
		</g>
		<g id="shape70-199" v:mID="70" v:groupContext="shape" transform="translate(189.167,-20.9018)">
			<title>Sheet.70</title>
			<path d="M0 163.52 L0 163.37 L0 163.3 L0.07 163.22 L0.15 163.07 L0.22 163.07 L0.3 163 L0.45 162.92 L0.52 162.92 L0.67
						 162.92 L0.75 163 L0.82 163.07 L0.9 163.07 L0.97 163.22 L1.05 163.3 L1.05 163.37 L1.12 163.52 L1.12 163.52
						 L1.05 163.6 L1.05 163.75 L0.97 163.82 L0.9 163.9 L0.82 163.97 L0.75 164.04 L0.67 164.04 L0.52 164.04 L0.45
						 164.04 L0.3 164.04 L0.22 163.97 L0.15 163.9 L0.07 163.82 L0 163.75 L0 163.6 L0 163.52" class="st1"/>
		</g>
		<g id="shape71-202" v:mID="71" v:groupContext="shape" transform="translate(225.114,-20.9018)">
			<title>Sheet.71</title>
			<path d="M0 163.52 L0 163.37 L0 163.3 L0.07 163.22 L0.15 163.07 L0.22 163.07 L0.3 163 L0.45 162.92 L0.52 162.92 L0.67
						 162.92 L0.75 163 L0.82 163.07 L0.9 163.07 L0.97 163.22 L1.05 163.3 L1.05 163.37 L1.12 163.52 L1.12 163.52
						 L1.05 163.6 L1.05 163.75 L0.97 163.82 L0.9 163.9 L0.82 163.97 L0.75 164.04 L0.67 164.04 L0.52 164.04 L0.45
						 164.04 L0.3 164.04 L0.22 163.97 L0.15 163.9 L0.07 163.82 L0 163.75 L0 163.6 L0 163.52 L0 163.52 Z"
					class="st4"/>
		</g>
		<g id="shape72-204" v:mID="72" v:groupContext="shape" transform="translate(225.114,-20.9018)">
			<title>Sheet.72</title>
			<path d="M0 163.52 L0 163.37 L0 163.3 L0.07 163.22 L0.15 163.07 L0.22 163.07 L0.3 163 L0.45 162.92 L0.52 162.92 L0.67
						 162.92 L0.75 163 L0.82 163.07 L0.9 163.07 L0.97 163.22 L1.05 163.3 L1.05 163.37 L1.12 163.52 L1.12 163.52
						 L1.05 163.6 L1.05 163.75 L0.97 163.82 L0.9 163.9 L0.82 163.97 L0.75 164.04 L0.67 164.04 L0.52 164.04 L0.45
						 164.04 L0.3 164.04 L0.22 163.97 L0.15 163.9 L0.07 163.82 L0 163.75 L0 163.6 L0 163.52" class="st1"/>
		</g>
		<g id="shape73-207" v:mID="73" v:groupContext="shape" transform="translate(121.766,-21.426)">
			<title>Sheet.73</title>
			<path d="M0 163.45 L0 163.37 L0 163.22 L0.07 163.15 L0.15 163.07 L0.22 163 L0.3 162.92 L0.45 162.92 L0.52 162.92 L0.67
						 162.92 L0.75 162.92 L0.82 163 L0.9 163.07 L0.97 163.15 L1.05 163.22 L1.05 163.37 L1.12 163.45 L1.12 163.45
						 L1.05 163.6 L1.05 163.67 L0.97 163.75 L0.9 163.9 L0.82 163.97 L0.75 163.97 L0.67 164.04 L0.52 164.04 L0.45
						 164.04 L0.3 163.97 L0.22 163.97 L0.15 163.9 L0.07 163.75 L0 163.67 L0 163.6 L0 163.45 L0 163.45 Z"
					class="st4"/>
		</g>
		<g id="shape74-209" v:mID="74" v:groupContext="shape" transform="translate(121.766,-21.426)">
			<title>Sheet.74</title>
			<path d="M0 163.45 L0 163.37 L0 163.22 L0.07 163.15 L0.15 163.07 L0.22 163 L0.3 162.92 L0.45 162.92 L0.52 162.92 L0.67
						 162.92 L0.75 162.92 L0.82 163 L0.9 163.07 L0.97 163.15 L1.05 163.22 L1.05 163.37 L1.12 163.45 L1.12 163.45
						 L1.05 163.6 L1.05 163.67 L0.97 163.75 L0.9 163.9 L0.82 163.97 L0.75 163.97 L0.67 164.04 L0.52 164.04 L0.45
						 164.04 L0.3 163.97 L0.22 163.97 L0.15 163.9 L0.07 163.75 L0 163.67 L0 163.6 L0 163.45" class="st1"/>
		</g>
		<g id="shape75-212" v:mID="75" v:groupContext="shape" transform="translate(331.758,-110.903)">
			<title>Sheet.75</title>
			<path d="M13.03 164.04 L0 152.89" class="st3"/>
		</g>
		<g id="shape76-215" v:mID="76" v:groupContext="shape" transform="translate(329.062,-120.187)">
			<title>Sheet.76</title>
			<path d="M1.72 164.04 L0 159.85 L4.42 160.9 L1.72 164.04 L1.72 164.04 Z" class="st8"/>
		</g>
		<g id="shape77-217" v:mID="77" v:groupContext="shape" transform="translate(153.22,-43.2897)">
			<title>Sheet.77</title>
			<path d="M70.25 161.5 L65.23 162.4 L60.36 163.07 L55.72 163.6 L51.22 163.9 L46.88 164.04 L42.76 163.97 L38.72 163.82
						 L34.9 163.37 L31.23 162.85 L27.71 162.1 L24.34 161.2 L21.19 160.08 L18.2 158.8 L15.35 157.38 L12.66 155.73
						 L10.11 153.94 L7.79 151.91 L5.54 149.74 L3.52 147.42 L1.65 144.88 L0 142.26" class="st3"/>
		</g>
		<g id="shape78-220" v:mID="78" v:groupContext="shape" transform="translate(151.572,-63.7309)">
			<title>Sheet.78</title>
			<path d="M0.07 164.04 L0 159.48 L3.67 162.17 L0.07 164.04 L0.07 164.04 Z" class="st8"/>
		</g>
		<g id="shape79-222" v:mID="79" v:groupContext="shape" transform="translate(212.458,-48.0818)">
			<title>Sheet.79</title>
			<path d="M11.01 164.04 L9.74 163 L8.54 161.65 L7.49 160.15 L6.44 158.35 L5.47 156.41 L4.57 154.24 L3.82 151.91 L3 149.29
						 L2.32 146.52 L1.72 143.53 L1.2 140.31 L0.75 136.94 L0.3 133.27 L0 129.45" class="st3"/>
		</g>
		<g id="shape80-225" v:mID="80" v:groupContext="shape" transform="translate(210.436,-82.0006)">
			<title>Sheet.80</title>
			<path d="M0 164.04 L1.8 159.78 L4.04 163.75 L0 164.04 L0 164.04 Z" class="st8"/>
		</g>
		<g id="shape81-227" v:mID="81" v:groupContext="shape" transform="translate(86.3425,-97.4999)">
			<title>Sheet.81</title>
			<path d="M0 164.04 L4.49 164.04" class="st1"/>
		</g>
		<g id="shape82-230" v:mID="82" v:groupContext="shape" transform="translate(81.8491,-97.4999)">
			<title>Sheet.82</title>
			<path d="M0 161.8 L4.49 164.04" class="st1"/>
		</g>
		<g id="shape83-233" v:mID="83" v:groupContext="shape" transform="translate(81.8491,-95.2536)">
			<title>Sheet.83</title>
			<path d="M0 164.04 L4.49 161.8" class="st1"/>
		</g>
		<g id="shape84-236" v:mID="84" v:groupContext="shape" transform="translate(86.3425,-88.5148)">
			<title>Sheet.84</title>
			<path d="M0 164.04 L4.49 164.04" class="st1"/>
		</g>
		<g id="shape85-239" v:mID="85" v:groupContext="shape" transform="translate(81.8491,-88.5148)">
			<title>Sheet.85</title>
			<path d="M0 161.8 L4.49 164.04" class="st1"/>
		</g>
		<g id="shape86-242" v:mID="86" v:groupContext="shape" transform="translate(81.8491,-86.2685)">
			<title>Sheet.86</title>
			<path d="M0 164.04 L4.49 161.8" class="st1"/>
		</g>
		<g id="shape87-245" v:mID="87" v:groupContext="shape" transform="translate(86.3425,-30.1116)">
			<title>Sheet.87</title>
			<path d="M0 164.04 L4.49 164.04" class="st1"/>
		</g>
		<g id="shape88-248" v:mID="88" v:groupContext="shape" transform="translate(81.8491,-30.1116)">
			<title>Sheet.88</title>
			<path d="M0 161.8 L4.49 164.04" class="st1"/>
		</g>
		<g id="shape89-251" v:mID="89" v:groupContext="shape" transform="translate(81.8491,-27.8653)">
			<title>Sheet.89</title>
			<path d="M0 164.04 L4.49 161.8" class="st1"/>
		</g>
		<g id="shape90-254" v:mID="90" v:groupContext="shape" transform="translate(315.582,-124.38)">
			<title>Sheet.90</title>
			<path d="M0 164.04 L8.99 164.04" class="st1"/>
		</g>
		<g id="shape91-257" v:mID="91" v:groupContext="shape" transform="translate(320.075,-122.284)">
			<title>Sheet.91</title>
			<path d="M0 164.04 L4.49 161.95" class="st1"/>
		</g>
		<g id="shape92-260" v:mID="92" v:groupContext="shape" transform="translate(320.075,-124.38)">
			<title>Sheet.92</title>
			<path d="M0 161.8 L4.49 164.04" class="st1"/>
		</g>
		<g id="shape93-263" v:mID="93" v:groupContext="shape" transform="translate(328.238,-71.518)">
			<title>Sheet.93</title>
			<path d="M16.55 126.91 L0 164.04" class="st3"/>
		</g>
		<g id="shape94-266" v:mID="94" v:groupContext="shape" transform="translate(326.59,-68.2234)">
			<title>Sheet.94</title>
			<path d="M3.74 161.12 L0.22 164.04 L0 159.48 L3.74 161.12 L3.74 161.12 Z" class="st8"/>
		</g>
		<g id="shape95-268" v:mID="95" v:groupContext="shape" transform="translate(63.8755,-39.9952)">
			<title>Sheet.95</title>
			<path d="M0 135.74 L14.15 164.04" class="st3"/>
		</g>
		<g id="shape96-271" v:mID="96" v:groupContext="shape" transform="translate(76.0077,-36.8504)">
			<title>Sheet.96</title>
			<path d="M3.59 159.55 L3.59 164.04 L0 161.35 L3.59 159.55 L3.59 159.55 Z" class="st8"/>
		</g>
		<g id="shape97-273" v:mID="97" v:groupContext="shape" transform="translate(315.582,-106.41)">
			<title>Sheet.97</title>
			<path d="M0 164.04 L8.99 164.04" class="st1"/>
		</g>
		<g id="shape98-276" v:mID="98" v:groupContext="shape" transform="translate(320.075,-104.314)">
			<title>Sheet.98</title>
			<path d="M0 164.04 L4.49 161.95" class="st1"/>
		</g>
		<g id="shape99-279" v:mID="99" v:groupContext="shape" transform="translate(320.075,-106.41)">
			<title>Sheet.99</title>
			<path d="M0 161.8 L4.49 164.04" class="st1"/>
		</g>
		<g id="shape100-282" v:mID="100" v:groupContext="shape" transform="translate(315.582,-88.4399)">
			<title>Sheet.100</title>
			<path d="M0 164.04 L8.99 164.04" class="st1"/>
		</g>
		<g id="shape101-285" v:mID="101" v:groupContext="shape" transform="translate(320.075,-86.3434)">
			<title>Sheet.101</title>
			<path d="M0 164.04 L4.49 161.95" class="st1"/>
		</g>
		<g id="shape102-288" v:mID="102" v:groupContext="shape" transform="translate(320.075,-88.4399)">
			<title>Sheet.102</title>
			<path d="M0 161.8 L4.49 164.04" class="st1"/>
		</g>
		<g id="shape103-291" v:mID="103" v:groupContext="shape" transform="translate(315.582,-65.9771)">
			<title>Sheet.103</title>
			<path d="M0 164.04 L8.99 164.04" class="st1"/>
		</g>
		<g id="shape104-294" v:mID="104" v:groupContext="shape" transform="translate(320.075,-63.8806)">
			<title>Sheet.104</title>
			<path d="M0 164.04 L4.49 161.95" class="st1"/>
		</g>
		<g id="shape105-297" v:mID="105" v:groupContext="shape" transform="translate(320.075,-65.9771)">
			<title>Sheet.105</title>
			<path d="M0 161.8 L4.49 164.04" class="st1"/>
		</g>
		<g id="shape106-300" v:mID="106" v:groupContext="shape" transform="translate(99.8977,-85.6695)">
			<title>Sheet.106</title>
			<path d="M0 120.77 L82.15 164.04" class="st3"/>
		</g>
		<g id="shape107-303" v:mID="107" v:groupContext="shape" transform="translate(180.704,-84.0222)">
			<title>Sheet.107</title>
			<path d="M1.87 160.38 L4.57 164.04 L0 163.97 L1.87 160.38 L1.87 160.38 Z" class="st8"/>
		</g>
		<g id="shape108-305" v:mID="108" v:groupContext="shape" transform="translate(348.295,-104.977)">
			<title>Sheet.108</title>
			<desc>Some circuit nets are outputs</desc>
			<v:textBlock v:margins="rect(0,0,0,0)"/>
			<v:textRect cx="32.3973" cy="158.068" width="64.8" height="11.9539"/>
			<path d="M64.79 152.09 L0 152.09 L0 164.04 L64.79 164.04 L64.79 152.09" class="st5"/>
			<text x="7.64" y="155.37" class="st6" v:langID="1033"><v:paragraph v:horizAlign="1"/><v:tabList/>Some circuit <tspan
						x="0.13" dy="1.2em" class="st7">nets are outputs </tspan> </text>		</g>
	</g>
</svg>
