<?xml version="1.0" encoding="UTF-8" standalone="no"?>
<!DOCTYPE svg PUBLIC "-//W3C//DTD SVG 1.1//EN" "http://www.w3.org/Graphics/SVG/1.1/DTD/svg11.dtd">
<!-- Generated by Microsoft Visio, SVG Export NAND.svg Page-1 -->
<svg xmlns="http://www.w3.org/2000/svg" xmlns:xlink="http://www.w3.org/1999/xlink" xmlns:ev="http://www.w3.org/2001/xml-events"
		xmlns:v="http://schemas.microsoft.com/visio/2003/SVGExtensions/" width="6.75in" height="2.3in" viewBox="0 0 486 165.6"
		xml:space="preserve" color-interpolation-filters="sRGB" class="st7">
	<v:documentProperties v:langID="1033" v:viewMarkup="false">
		<v:userDefs>
			<v:ud v:nameU="msvConvertTheme"/>
		</v:userDefs>
	</v:documentProperties>

	<style type="text/css">
	<![CDATA[
		.st1 {stroke:#000000;stroke-linecap:round;stroke-linejoin:round;stroke-width:0.72}
		.st2 {fill:none;stroke:none;stroke-linecap:round;stroke-linejoin:round;stroke-width:0.72}
		.st3 {fill:#000000;font-family:Arial;font-size:0.75em}
		.st4 {font-size:1em;text-decoration:underline}
		.st5 {font-size:1em}
		.st6 {fill:none;stroke:#000000;stroke-linecap:round;stroke-linejoin:round;stroke-width:0.72}
		.st7 {fill:none;fill-rule:evenodd;font-size:12px;overflow:visible;stroke-linecap:square;stroke-miterlimit:3}
	]]>
	</style>

	<g v:mID="0" v:index="1" v:groupContext="foregroundPage">
		<title>Page-1</title>
		<v:pageProperties v:drawingScale="1" v:pageScale="1" v:drawingUnits="0" v:shadowOffsetX="9" v:shadowOffsetY="-9"/>
		<g id="shape1-1" v:mID="1" v:groupContext="shape" transform="translate(29.52,-53.64)">
			<title>Sheet.1</title>
			<path d="M36 93.6 L7.2 93.6 L7.2 108 L0 108 L0 122.4 L7.2 122.4 L7.2 136.8 L0 136.8 L0 151.2 L7.2 151.2 L7.2 165.6"
					class="st1"/>
		</g>
		<g id="shape2-4" v:mID="2" v:groupContext="shape" transform="translate(15.12,-53.64)">
			<title>Sheet.2</title>
			<path d="M0 165.6 L57.6 165.6" class="st1"/>
		</g>
		<g id="shape3-7" v:mID="3" v:groupContext="shape" transform="translate(190.8,54.3598) rotate(90)">
			<title>Sheet.3</title>
			<path d="M0 165.6 L14.4 165.6" class="st1"/>
		</g>
		<g id="shape146-10" v:mID="146" v:groupContext="shape" transform="translate(25.2,227.16) rotate(180)">
			<title>Sheet.146</title>
			<path d="M0 165.6 L8.64 165.6" class="st1"/>
		</g>
		<g id="shape147-13" v:mID="147" v:groupContext="shape" transform="translate(190.8,83.1598) rotate(90)">
			<title>Sheet.147</title>
			<path d="M0 165.6 L14.4 165.6" class="st1"/>
		</g>
		<g id="shape148-16" v:mID="148" v:groupContext="shape" transform="translate(25.2,255.96) rotate(180)">
			<title>Sheet.148</title>
			<path d="M0 165.6 L8.64 165.6" class="st1"/>
		</g>
		<g id="shape149-19" v:mID="149" v:groupContext="shape" transform="translate(2.88,-100.44)">
			<title>Sheet.149</title>
			<desc>A</desc>
			<v:textBlock v:margins="rect(4,4,4,4)"/>
			<v:textRect cx="9" cy="162" width="18" height="7.2"/>
			<rect x="0" y="158.4" width="18" height="7.2" class="st2"/>
			<text x="6" y="164.7" class="st3" v:langID="1033"><v:paragraph v:horizAlign="1"/><v:tabList/>A</text>		</g>
		<g id="shape150-22" v:mID="150" v:groupContext="shape" transform="translate(2.52,-71.64)">
			<title>Sheet.150</title>
			<desc>B</desc>
			<v:textBlock v:margins="rect(4,4,4,4)"/>
			<v:textRect cx="9" cy="162" width="18" height="7.2"/>
			<rect x="0" y="158.4" width="18" height="7.2" class="st2"/>
			<text x="6" y="164.7" class="st3" v:langID="1033"><v:paragraph v:horizAlign="1"/><v:tabList/>B</text>		</g>
		<g id="shape151-25" v:mID="151" v:groupContext="shape" transform="translate(30.96,-100.44)">
			<title>Sheet.151</title>
			<desc>Q1</desc>
			<v:textBlock v:margins="rect(4,4,4,4)"/>
			<v:textRect cx="14.4" cy="162" width="28.8" height="7.2"/>
			<rect x="0" y="158.4" width="28.8" height="7.2" class="st2"/>
			<text x="8.4" y="164.7" class="st3" v:langID="1033"><v:paragraph v:horizAlign="1"/><v:tabList/>Q1</text>		</g>
		<g id="shape152-28" v:mID="152" v:groupContext="shape" transform="translate(30.96,-71.64)">
			<title>Sheet.152</title>
			<desc>Q2</desc>
			<v:textBlock v:margins="rect(4,4,4,4)"/>
			<v:textRect cx="14.4" cy="162" width="28.8" height="7.2"/>
			<rect x="0" y="158.4" width="28.8" height="7.2" class="st2"/>
			<text x="8.4" y="164.7" class="st3" v:langID="1033"><v:paragraph v:horizAlign="1"/><v:tabList/>Q2</text>		</g>
		<g id="shape153-31" v:mID="153" v:groupContext="shape" transform="translate(61.92,-122.04)">
			<title>Sheet.153</title>
			<desc>Y</desc>
			<v:textBlock v:margins="rect(4,4,4,4)"/>
			<v:textRect cx="9" cy="162" width="18" height="7.2"/>
			<rect x="0" y="158.4" width="18" height="7.2" class="st2"/>
			<text x="6" y="164.7" class="st3" v:langID="1033"><v:paragraph v:horizAlign="1"/><v:tabList/>Y</text>		</g>
		<g id="shape154-34" v:mID="154" v:groupContext="shape" transform="translate(33.12,-42.84)">
			<title>Sheet.154</title>
			<desc>GND</desc>
			<v:textBlock v:margins="rect(4,4,4,4)"/>
			<v:textRect cx="16.2" cy="162" width="32.4" height="7.2"/>
			<rect x="0" y="158.4" width="32.4" height="7.2" class="st2"/>
			<text x="6.2" y="164.7" class="st3" v:langID="1033"><v:paragraph v:horizAlign="1"/><v:tabList/>GND</text>		</g>
		<g id="shape155-37" v:mID="155" v:groupContext="shape" transform="translate(105.12,-111.24)">
			<title>Sheet.155</title>
			<path d="M0 165.6 L100.8 165.6" class="st1"/>
		</g>
		<g id="shape156-40" v:mID="156" v:groupContext="shape" transform="translate(119.52,-71.64)">
			<title>Sheet.156</title>
			<path d="M7.2 126 L7.2 140.4 L0 140.4 L0 154.8 L7.2 154.8 L7.2 165.6 L82.8 165.6" class="st1"/>
		</g>
		<g id="shape157-43" v:mID="157" v:groupContext="shape" transform="translate(169.92,-71.64)">
			<title>Sheet.157</title>
			<path d="M7.2 126 L7.2 140.4 L0 140.4 L0 154.8 L7.2 154.8 L7.2 165.6" class="st1"/>
		</g>
		<g id="shape158-46" v:mID="158" v:groupContext="shape" transform="translate(280.8,68.7598) rotate(90)">
			<title>Sheet.158</title>
			<path d="M0 165.6 L14.4 165.6" class="st1"/>
		</g>
		<g id="shape160-49" v:mID="160" v:groupContext="shape" transform="translate(110.109,241.56) rotate(180)">
			<title>Sheet.160</title>
			<path d="M0 165.6 L4.99 165.6" class="st1"/>
		</g>
		<g id="shape161-52" v:mID="161" v:groupContext="shape" transform="translate(331.2,68.7598) rotate(90)">
			<title>Sheet.161</title>
			<path d="M0 165.6 L14.4 165.6" class="st1"/>
		</g>
		<g id="shape163-55" v:mID="163" v:groupContext="shape" transform="translate(160.509,241.56) rotate(180)">
			<title>Sheet.163</title>
			<path d="M0 165.6 L4.99 165.6" class="st1"/>
		</g>
		<g id="shape164-58" v:mID="164" v:groupContext="shape" transform="translate(91.8,-86.04)">
			<title>Sheet.164</title>
			<desc>A</desc>
			<v:textBlock v:margins="rect(4,4,4,4)"/>
			<v:textRect cx="9" cy="162" width="18" height="7.2"/>
			<rect x="0" y="158.4" width="18" height="7.2" class="st2"/>
			<text x="6" y="164.7" class="st3" v:langID="1033"><v:paragraph v:horizAlign="1"/><v:tabList/>A</text>		</g>
		<g id="shape165-61" v:mID="165" v:groupContext="shape" transform="translate(141.12,-86.04)">
			<title>Sheet.165</title>
			<desc>B</desc>
			<v:textBlock v:margins="rect(4,4,4,4)"/>
			<v:textRect cx="9" cy="162" width="18" height="7.2"/>
			<rect x="0" y="158.4" width="18" height="7.2" class="st2"/>
			<text x="6" y="164.7" class="st3" v:langID="1033"><v:paragraph v:horizAlign="1"/><v:tabList/>B</text>		</g>
		<g id="shape166-64" v:mID="166" v:groupContext="shape" transform="translate(141.12,-112.68)">
			<title>Sheet.166</title>
			<desc>Vdd</desc>
			<v:textBlock v:margins="rect(4,4,4,4)"/>
			<v:textRect cx="16.2" cy="162" width="32.4" height="7.2"/>
			<rect x="0" y="158.4" width="32.4" height="7.2" class="st2"/>
			<text x="8.19" y="164.7" class="st3" v:langID="1033"><v:paragraph v:horizAlign="1"/><v:tabList/>Vdd</text>		</g>
		<g id="shape167-67" v:mID="167" v:groupContext="shape" transform="translate(198.72,-68.04)">
			<title>Sheet.167</title>
			<desc>Y</desc>
			<v:textBlock v:margins="rect(4,4,4,4)"/>
			<v:textRect cx="9" cy="162" width="18" height="7.2"/>
			<rect x="0" y="158.4" width="18" height="7.2" class="st2"/>
			<text x="6" y="164.7" class="st3" v:langID="1033"><v:paragraph v:horizAlign="1"/><v:tabList/>Y</text>		</g>
		<g id="shape168-70" v:mID="168" v:groupContext="shape" transform="translate(5.04,-24.84)">
			<title>Sheet.168</title>
			<desc>Series Connection</desc>
			<v:textBlock v:margins="rect(4,4,4,4)"/>
			<v:textRect cx="54" cy="162" width="108" height="7.2"/>
			<rect x="0" y="158.4" width="108" height="7.2" class="st2"/>
			<text x="4" y="164.7" class="st3" v:langID="1033"><v:paragraph/><v:tabList/><tspan class="st4">Series Connection</tspan></text>		</g>
		<g id="shape169-74" v:mID="169" v:groupContext="shape" transform="translate(0.72,-3.24)">
			<title>Sheet.169</title>
			<desc>Y &#60;= GND when A and B = Vdd</desc>
			<v:textBlock v:margins="rect(4,4,4,4)"/>
			<v:textRect cx="43.2" cy="157.68" width="86.4" height="15.84"/>
			<rect x="0" y="149.76" width="86.4" height="15.84" class="st2"/>
			<text x="10.43" y="154.98" class="st3" v:langID="1033"><v:paragraph v:horizAlign="1"/><v:tabList/>Y &#60;= GND when<v:newlineChar/><tspan
						x="14.05" dy="1.2em" class="st5">A and B </tspan>= Vdd</text>		</g>
		<g id="shape170-78" v:mID="170" v:groupContext="shape" transform="translate(119.16,-24.84)">
			<title>Sheet.170</title>
			<desc>Parallel Connection</desc>
			<v:textBlock v:margins="rect(4,4,4,4)"/>
			<v:textRect cx="54" cy="162" width="108" height="7.2"/>
			<rect x="0" y="158.4" width="108" height="7.2" class="st2"/>
			<text x="4" y="164.7" class="st3" v:langID="1033"><v:paragraph/><v:tabList/><tspan class="st4">Parallel Connection</tspan></text>		</g>
		<g id="shape171-82" v:mID="171" v:groupContext="shape" transform="translate(110.88,-3.24)">
			<title>Sheet.171</title>
			<desc>Y &#60;= Vdd when A or B = GND</desc>
			<v:textBlock v:margins="rect(4,4,4,4)"/>
			<v:textRect cx="46.8" cy="157.68" width="93.6" height="15.84"/>
			<rect x="0" y="149.76" width="93.6" height="15.84" class="st2"/>
			<text x="16.03" y="154.98" class="st3" v:langID="1033"><v:paragraph v:horizAlign="1"/><v:tabList/>Y &#60;= Vdd when<v:newlineChar/><tspan
						x="19.17" dy="1.2em" class="st5">A or B </tspan>= GND</text>		</g>
		<g id="shape172-86" v:mID="172" v:groupContext="shape" transform="translate(264.24,-155.16)">
			<title>Sheet.172</title>
			<path d="M0 165.6 L100.8 165.6" class="st1"/>
		</g>
		<g id="shape173-89" v:mID="173" v:groupContext="shape" transform="translate(278.64,-115.56)">
			<title>Sheet.173</title>
			<path d="M7.2 126 L7.2 140.4 L0 140.4 L0 154.8 L7.2 154.8 L7.2 165.6 L82.8 165.6" class="st1"/>
		</g>
		<g id="shape174-92" v:mID="174" v:groupContext="shape" transform="translate(329.04,-115.56)">
			<title>Sheet.174</title>
			<path d="M7.2 126 L7.2 140.4 L0 140.4 L0 154.8 L7.2 154.8 L7.2 165.6" class="st1"/>
		</g>
		<g id="shape175-95" v:mID="175" v:groupContext="shape" transform="translate(439.92,24.8398) rotate(90)">
			<title>Sheet.175</title>
			<path d="M0 165.6 L14.4 165.6" class="st1"/>
		</g>
		<g id="shape177-98" v:mID="177" v:groupContext="shape" transform="translate(269.229,197.64) rotate(180)">
			<title>Sheet.177</title>
			<path d="M0 165.6 L4.99 165.6" class="st1"/>
		</g>
		<g id="shape178-101" v:mID="178" v:groupContext="shape" transform="translate(490.32,24.8398) rotate(90)">
			<title>Sheet.178</title>
			<path d="M0 165.6 L14.4 165.6" class="st1"/>
		</g>
		<g id="shape180-104" v:mID="180" v:groupContext="shape" transform="translate(319.629,197.64) rotate(180)">
			<title>Sheet.180</title>
			<path d="M0 165.6 L13.63 165.6" class="st1"/>
		</g>
		<g id="shape182-107" v:mID="182" v:groupContext="shape" transform="translate(300.24,-156.6)">
			<title>Sheet.182</title>
			<desc>Vdd</desc>
			<v:textBlock v:margins="rect(4,4,4,4)"/>
			<v:textRect cx="16.2" cy="162" width="32.4" height="7.2"/>
			<rect x="0" y="158.4" width="32.4" height="7.2" class="st2"/>
			<text x="8.19" y="164.7" class="st3" v:langID="1033"><v:paragraph v:horizAlign="1"/><v:tabList/>Vdd</text>		</g>
		<g id="shape183-110" v:mID="183" v:groupContext="shape" transform="translate(357.84,-111.96)">
			<title>Sheet.183</title>
			<desc>Y</desc>
			<v:textBlock v:margins="rect(4,4,4,4)"/>
			<v:textRect cx="9" cy="162" width="18" height="7.2"/>
			<rect x="0" y="158.4" width="18" height="7.2" class="st2"/>
			<text x="6" y="164.7" class="st3" v:langID="1033"><v:paragraph v:horizAlign="1"/><v:tabList/>Y</text>		</g>
		<g id="shape184-113" v:mID="184" v:groupContext="shape" transform="translate(317.52,-43.56)">
			<title>Sheet.184</title>
			<path d="M7.2 93.6 L7.2 108 L0 108 L0 122.4 L7.2 122.4 L7.2 136.8 L0 136.8 L0 151.2 L7.2 151.2 L7.2 165.6" class="st1"/>
		</g>
		<g id="shape185-116" v:mID="185" v:groupContext="shape" transform="translate(288.54,-43.56)">
			<title>Sheet.185</title>
			<path d="M0 165.6 L57.6 165.6" class="st1"/>
		</g>
		<g id="shape186-119" v:mID="186" v:groupContext="shape" transform="translate(478.8,64.4398) rotate(90)">
			<title>Sheet.186</title>
			<path d="M0 165.6 L14.4 165.6" class="st1"/>
		</g>
		<g id="shape187-122" v:mID="187" v:groupContext="shape" transform="translate(313.2,237.24) rotate(180)">
			<title>Sheet.187</title>
			<path d="M0 165.6 L46.08 165.6" class="st1"/>
		</g>
		<g id="shape188-125" v:mID="188" v:groupContext="shape" transform="translate(478.8,93.2398) rotate(90)">
			<title>Sheet.188</title>
			<path d="M0 165.6 L14.4 165.6" class="st1"/>
		</g>
		<g id="shape189-128" v:mID="189" v:groupContext="shape" transform="translate(313.2,266.04) rotate(180)">
			<title>Sheet.189</title>
			<path d="M0 165.6 L49.68 165.6" class="st1"/>
		</g>
		<g id="shape191-131" v:mID="191" v:groupContext="shape" transform="translate(249.12,-61.56)">
			<title>Sheet.191</title>
			<desc>B</desc>
			<v:textBlock v:margins="rect(4,4,4,4)"/>
			<v:textRect cx="9" cy="162" width="18" height="7.2"/>
			<rect x="0" y="158.4" width="18" height="7.2" class="st2"/>
			<text x="6" y="164.7" class="st3" v:langID="1033"><v:paragraph v:horizAlign="1"/><v:tabList/>B</text>		</g>
		<g id="shape192-134" v:mID="192" v:groupContext="shape" transform="translate(318.96,-90.36)">
			<title>Sheet.192</title>
			<desc>Q1</desc>
			<v:textBlock v:margins="rect(4,4,4,4)"/>
			<v:textRect cx="14.4" cy="162" width="28.8" height="7.2"/>
			<rect x="0" y="158.4" width="28.8" height="7.2" class="st2"/>
			<text x="8.4" y="164.7" class="st3" v:langID="1033"><v:paragraph v:horizAlign="1"/><v:tabList/>Q1</text>		</g>
		<g id="shape193-137" v:mID="193" v:groupContext="shape" transform="translate(318.96,-61.56)">
			<title>Sheet.193</title>
			<desc>Q2</desc>
			<v:textBlock v:margins="rect(4,4,4,4)"/>
			<v:textRect cx="14.4" cy="162" width="28.8" height="7.2"/>
			<rect x="0" y="158.4" width="28.8" height="7.2" class="st2"/>
			<text x="8.4" y="164.7" class="st3" v:langID="1033"><v:paragraph v:horizAlign="1"/><v:tabList/>Q2</text>		</g>
		<g id="shape195-140" v:mID="195" v:groupContext="shape" transform="translate(321.12,-32.76)">
			<title>Sheet.195</title>
			<desc>GND</desc>
			<v:textBlock v:margins="rect(4,4,4,4)"/>
			<v:textRect cx="16.2" cy="162" width="32.4" height="7.2"/>
			<rect x="0" y="158.4" width="32.4" height="7.2" class="st2"/>
			<text x="6.2" y="164.7" class="st3" v:langID="1033"><v:paragraph v:horizAlign="1"/><v:tabList/>GND</text>		</g>
		<g id="shape194-143" v:mID="194" v:groupContext="shape" transform="translate(252,-14.76)">
			<title>Sheet.194</title>
			<desc>NAND Logic Gate Connection</desc>
			<v:textBlock v:margins="rect(4,4,4,4)"/>
			<v:textRect cx="66.24" cy="162" width="132.49" height="7.2"/>
			<rect x="0" y="158.4" width="132.48" height="7.2" class="st2"/>
			<text x="4" y="164.7" class="st3" v:langID="1033"><v:paragraph/><v:tabList/><tspan class="st4">NAND Logic Gate Connection</tspan></text>		</g>
		<g id="shape196-147" v:mID="196" v:groupContext="shape" transform="translate(254.88,-1.8)">
			<title>Sheet.196</title>
			<desc>Y &#60;= GND iff A and B = Vdd</desc>
			<v:textBlock v:margins="rect(4,4,4,4)"/>
			<v:textRect cx="68.4" cy="162" width="136.8" height="7.2"/>
			<rect x="0" y="158.4" width="136.8" height="7.2" class="st2"/>
			<text x="4" y="164.7" class="st3" v:langID="1033"><v:paragraph/><v:tabList/>Y &#60;= GND iff A and B = Vdd</text>		</g>
		<g id="shape197-150" v:mID="197" v:groupContext="shape" transform="translate(386.64,-82.44)">
			<title>Sheet.197</title>
			<desc>GND</desc>
			<v:textBlock v:margins="rect(4,4,4,4)"/>
			<v:textRect cx="14.4" cy="162" width="28.8" height="7.2"/>
			<rect x="0" y="158.4" width="28.8" height="7.2" class="st2"/>
			<text x="4.4" y="164.7" class="st3" v:langID="1033"><v:paragraph v:horizAlign="1"/><v:tabList/>GND</text>		</g>
		<g id="shape198-153" v:mID="198" v:groupContext="shape" transform="translate(415.44,-82.44)">
			<title>Sheet.198</title>
			<desc>GND</desc>
			<v:textBlock v:margins="rect(4,4,4,4)"/>
			<v:textRect cx="14.4" cy="162" width="28.8" height="7.2"/>
			<rect x="0" y="158.4" width="28.8" height="7.2" class="st2"/>
			<text x="4.4" y="164.7" class="st3" v:langID="1033"><v:paragraph v:horizAlign="1"/><v:tabList/>GND</text>		</g>
		<g id="shape199-156" v:mID="199" v:groupContext="shape" transform="translate(386.64,-68.04)">
			<title>Sheet.199</title>
			<desc>GND</desc>
			<v:textBlock v:margins="rect(4,4,4,4)"/>
			<v:textRect cx="14.4" cy="162" width="28.8" height="7.2"/>
			<rect x="0" y="158.4" width="28.8" height="7.2" class="st2"/>
			<text x="4.4" y="164.7" class="st3" v:langID="1033"><v:paragraph v:horizAlign="1"/><v:tabList/>GND</text>		</g>
		<g id="shape200-159" v:mID="200" v:groupContext="shape" transform="translate(415.44,-68.04)">
			<title>Sheet.200</title>
			<desc>Vdd</desc>
			<v:textBlock v:margins="rect(4,4,4,4)"/>
			<v:textRect cx="14.4" cy="162" width="28.8" height="7.2"/>
			<rect x="0" y="158.4" width="28.8" height="7.2" class="st2"/>
			<text x="6.39" y="164.7" class="st3" v:langID="1033"><v:paragraph v:horizAlign="1"/><v:tabList/>Vdd</text>		</g>
		<g id="shape201-162" v:mID="201" v:groupContext="shape" transform="translate(386.64,-53.64)">
			<title>Sheet.201</title>
			<desc>Vdd</desc>
			<v:textBlock v:margins="rect(4,4,4,4)"/>
			<v:textRect cx="14.4" cy="162" width="28.8" height="7.2"/>
			<rect x="0" y="158.4" width="28.8" height="7.2" class="st2"/>
			<text x="6.39" y="164.7" class="st3" v:langID="1033"><v:paragraph v:horizAlign="1"/><v:tabList/>Vdd</text>		</g>
		<g id="shape202-165" v:mID="202" v:groupContext="shape" transform="translate(415.44,-53.64)">
			<title>Sheet.202</title>
			<desc>GND</desc>
			<v:textBlock v:margins="rect(4,4,4,4)"/>
			<v:textRect cx="14.4" cy="162" width="28.8" height="7.2"/>
			<rect x="0" y="158.4" width="28.8" height="7.2" class="st2"/>
			<text x="4.4" y="164.7" class="st3" v:langID="1033"><v:paragraph v:horizAlign="1"/><v:tabList/>GND</text>		</g>
		<g id="shape203-168" v:mID="203" v:groupContext="shape" transform="translate(386.64,-39.24)">
			<title>Sheet.203</title>
			<desc>Vdd</desc>
			<v:textBlock v:margins="rect(4,4,4,4)"/>
			<v:textRect cx="14.4" cy="162" width="28.8" height="7.2"/>
			<rect x="0" y="158.4" width="28.8" height="7.2" class="st2"/>
			<text x="6.39" y="164.7" class="st3" v:langID="1033"><v:paragraph v:horizAlign="1"/><v:tabList/>Vdd</text>		</g>
		<g id="shape204-171" v:mID="204" v:groupContext="shape" transform="translate(415.44,-39.24)">
			<title>Sheet.204</title>
			<desc>Vdd</desc>
			<v:textBlock v:margins="rect(4,4,4,4)"/>
			<v:textRect cx="14.4" cy="162" width="28.8" height="7.2"/>
			<rect x="0" y="158.4" width="28.8" height="7.2" class="st2"/>
			<text x="6.39" y="164.7" class="st3" v:langID="1033"><v:paragraph v:horizAlign="1"/><v:tabList/>Vdd</text>		</g>
		<g id="shape205-174" v:mID="205" v:groupContext="shape" transform="translate(444.24,-82.44)">
			<title>Sheet.205</title>
			<desc>Vdd</desc>
			<v:textBlock v:margins="rect(4,4,4,4)"/>
			<v:textRect cx="14.4" cy="162" width="28.8" height="7.2"/>
			<rect x="0" y="158.4" width="28.8" height="7.2" class="st2"/>
			<text x="6.39" y="164.7" class="st3" v:langID="1033"><v:paragraph v:horizAlign="1"/><v:tabList/>Vdd</text>		</g>
		<g id="shape206-177" v:mID="206" v:groupContext="shape" transform="translate(444.24,-68.04)">
			<title>Sheet.206</title>
			<desc>Vdd</desc>
			<v:textBlock v:margins="rect(4,4,4,4)"/>
			<v:textRect cx="14.4" cy="162" width="28.8" height="7.2"/>
			<rect x="0" y="158.4" width="28.8" height="7.2" class="st2"/>
			<text x="6.39" y="164.7" class="st3" v:langID="1033"><v:paragraph v:horizAlign="1"/><v:tabList/>Vdd</text>		</g>
		<g id="shape207-180" v:mID="207" v:groupContext="shape" transform="translate(444.24,-53.64)">
			<title>Sheet.207</title>
			<desc>Vdd</desc>
			<v:textBlock v:margins="rect(4,4,4,4)"/>
			<v:textRect cx="14.4" cy="162" width="28.8" height="7.2"/>
			<rect x="0" y="158.4" width="28.8" height="7.2" class="st2"/>
			<text x="6.39" y="164.7" class="st3" v:langID="1033"><v:paragraph v:horizAlign="1"/><v:tabList/>Vdd</text>		</g>
		<g id="shape208-183" v:mID="208" v:groupContext="shape" transform="translate(444.24,-39.24)">
			<title>Sheet.208</title>
			<desc>GND</desc>
			<v:textBlock v:margins="rect(4,4,4,4)"/>
			<v:textRect cx="14.4" cy="162" width="28.8" height="7.2"/>
			<rect x="0" y="158.4" width="28.8" height="7.2" class="st2"/>
			<text x="4.4" y="164.7" class="st3" v:langID="1033"><v:paragraph v:horizAlign="1"/><v:tabList/>GND</text>		</g>
		<g id="shape209-186" v:mID="209" v:groupContext="shape" transform="translate(390.24,-96.84)">
			<title>Sheet.209</title>
			<path d="M0 165.6 L75.6 165.6" class="st1"/>
		</g>
		<g id="shape210-189" v:mID="210" v:groupContext="shape" transform="translate(609.84,54.3598) rotate(90)">
			<title>Sheet.210</title>
			<path d="M0 165.6 L72 165.6" class="st1"/>
		</g>
		<g id="shape211-192" v:mID="211" v:groupContext="shape" transform="translate(386.64,-100.44)">
			<title>Sheet.211</title>
			<desc>A</desc>
			<v:textBlock v:margins="rect(4,4,4,4)"/>
			<v:textRect cx="14.4" cy="162" width="28.8" height="7.2"/>
			<rect x="0" y="158.4" width="28.8" height="7.2" class="st2"/>
			<text x="11.4" y="164.7" class="st3" v:langID="1033"><v:paragraph v:horizAlign="1"/><v:tabList/>A</text>		</g>
		<g id="shape212-195" v:mID="212" v:groupContext="shape" transform="translate(415.44,-100.44)">
			<title>Sheet.212</title>
			<desc>B</desc>
			<v:textBlock v:margins="rect(4,4,4,4)"/>
			<v:textRect cx="14.4" cy="162" width="28.8" height="7.2"/>
			<rect x="0" y="158.4" width="28.8" height="7.2" class="st2"/>
			<text x="11.4" y="164.7" class="st3" v:langID="1033"><v:paragraph v:horizAlign="1"/><v:tabList/>B</text>		</g>
		<g id="shape213-198" v:mID="213" v:groupContext="shape" transform="translate(444.24,-100.44)">
			<title>Sheet.213</title>
			<desc>Y</desc>
			<v:textBlock v:margins="rect(4,4,4,4)"/>
			<v:textRect cx="14.4" cy="162" width="28.8" height="7.2"/>
			<rect x="0" y="158.4" width="28.8" height="7.2" class="st2"/>
			<text x="11.4" y="164.7" class="st3" v:langID="1033"><v:paragraph v:horizAlign="1"/><v:tabList/>Y</text>		</g>
		<g id="shape214-201" v:mID="214" v:groupContext="shape" transform="translate(377.28,-7.56)">
			<title>Sheet.214</title>
			<desc>NAND Logic Gate Operation Table</desc>
			<v:textBlock v:margins="rect(4,4,4,4)"/>
			<v:textRect cx="54" cy="162" width="108" height="7.2"/>
			<rect x="0" y="158.4" width="108" height="7.2" class="st2"/>
			<text x="18.24" y="159.3" class="st3" v:langID="1033"><v:paragraph v:horizAlign="1"/><v:tabList/>NAND Logic Gate<v:newlineChar/><tspan
						x="21.73" dy="1.2em" class="st5">Operation Table</tspan></text>		</g>
		<g id="shape215-205" v:mID="215" v:groupContext="shape" transform="translate(119.16,-86.04)">
			<title>Sheet.215</title>
			<desc>Q3</desc>
			<v:textBlock v:margins="rect(4,4,4,4)"/>
			<v:textRect cx="12.6" cy="162" width="25.21" height="7.2"/>
			<rect x="0" y="158.4" width="25.2" height="7.2" class="st2"/>
			<text x="6.6" y="164.7" class="st3" v:langID="1033"><v:paragraph v:horizAlign="1"/><v:tabList/>Q3</text>		</g>
		<g id="shape216-208" v:mID="216" v:groupContext="shape" transform="translate(169.56,-86.04)">
			<title>Sheet.216</title>
			<desc>Q4</desc>
			<v:textBlock v:margins="rect(4,4,4,4)"/>
			<v:textRect cx="12.6" cy="162" width="25.2" height="7.2"/>
			<rect x="0" y="158.4" width="25.2" height="7.2" class="st2"/>
			<text x="6.6" y="164.7" class="st3" v:langID="1033"><v:paragraph v:horizAlign="1"/><v:tabList/>Q4</text>		</g>
		<g id="shape217-211" v:mID="217" v:groupContext="shape" transform="translate(279.72,-129.96)">
			<title>Sheet.217</title>
			<desc>Q3</desc>
			<v:textBlock v:margins="rect(4,4,4,4)"/>
			<v:textRect cx="12.6" cy="162" width="25.21" height="7.2"/>
			<rect x="0" y="158.4" width="25.2" height="7.2" class="st2"/>
			<text x="6.6" y="164.7" class="st3" v:langID="1033"><v:paragraph v:horizAlign="1"/><v:tabList/>Q3</text>		</g>
		<g id="shape218-214" v:mID="218" v:groupContext="shape" transform="translate(330.12,-129.96)">
			<title>Sheet.218</title>
			<desc>Q4</desc>
			<v:textBlock v:margins="rect(4,4,4,4)"/>
			<v:textRect cx="12.6" cy="162" width="25.2" height="7.2"/>
			<rect x="0" y="158.4" width="25.2" height="7.2" class="st2"/>
			<text x="6.6" y="164.7" class="st3" v:langID="1033"><v:paragraph v:horizAlign="1"/><v:tabList/>Q4</text>		</g>
		<g id="shape219-217" v:mID="219" v:groupContext="shape" transform="translate(249.12,-129.96)">
			<title>Sheet.219</title>
			<desc>A</desc>
			<v:textBlock v:margins="rect(4,4,4,4)"/>
			<v:textRect cx="9" cy="162" width="18" height="7.2"/>
			<rect x="0" y="158.4" width="18" height="7.2" class="st2"/>
			<text x="6" y="164.7" class="st3" v:langID="1033"><v:paragraph v:horizAlign="1"/><v:tabList/>A</text>		</g>
		<g id="shape190-220" v:mID="190" v:groupContext="shape" transform="translate(101.52,71.6398) rotate(-90)">
			<title>Sheet.190</title>
			<path d="M0 165.6 L39.6 165.6" class="st1"/>
		</g>
		<g id="shape181-223" v:mID="181" v:groupContext="shape" transform="translate(140.4,100.44) rotate(-90)">
			<title>Sheet.181</title>
			<path d="M0 165.6 L68.4 165.6" class="st1"/>
		</g>
		<g id="shape4-226" v:mID="4" v:groupContext="shape" transform="translate(110.109,-87.12)">
			<title>Circle.4</title>
			<v:userDefs>
				<v:ud v:nameU="visVersion" v:val="VT0(11):26"/>
			</v:userDefs>
			<path d="M0 163.08 A2.52 2.52 0 0 1 5.04 163.08 A2.52 2.52 0 1 1 0 163.08 Z" class="st6"/>
		</g>
		<g id="shape5-228" v:mID="5" v:groupContext="shape" transform="translate(160.509,-87.12)">
			<title>Circle.5</title>
			<v:userDefs>
				<v:ud v:nameU="visVersion" v:val="VT0(11):26"/>
			</v:userDefs>
			<path d="M0 163.08 A2.52 2.52 0 0 1 5.04 163.08 A2.52 2.52 0 1 1 0 163.08 Z" class="st6"/>
		</g>
		<g id="shape6-230" v:mID="6" v:groupContext="shape" transform="translate(269.229,-131.04)">
			<title>Circle.6</title>
			<v:userDefs>
				<v:ud v:nameU="visVersion" v:val="VT0(11):26"/>
			</v:userDefs>
			<path d="M0 163.08 A2.52 2.52 0 0 1 5.04 163.08 A2.52 2.52 0 1 1 0 163.08 Z" class="st6"/>
		</g>
		<g id="shape7-232" v:mID="7" v:groupContext="shape" transform="translate(319.629,-131.04)">
			<title>Circle.7</title>
			<v:userDefs>
				<v:ud v:nameU="visVersion" v:val="VT0(11):26"/>
			</v:userDefs>
			<path d="M0 163.08 A2.52 2.52 0 0 1 5.04 163.08 A2.52 2.52 0 1 1 0 163.08 Z" class="st6"/>
		</g>
	</g>
</svg>
