<?xml version="1.0" encoding="UTF-8" standalone="no"?>
<!DOCTYPE svg PUBLIC "-//W3C//DTD SVG 1.1//EN" "http://www.w3.org/Graphics/SVG/1.1/DTD/svg11.dtd">
<!-- Generated by Microsoft Visio, SVG Export dlatch.svg Page-1 -->
<svg xmlns="http://www.w3.org/2000/svg" xmlns:xlink="http://www.w3.org/1999/xlink" xmlns:ev="http://www.w3.org/2001/xml-events"
		xmlns:v="http://schemas.microsoft.com/visio/2003/SVGExtensions/" width="6.50828in" height="1.145in"
		viewBox="0 0 468.596 82.44" xml:space="preserve" color-interpolation-filters="sRGB" class="st7">
	<v:documentProperties v:langID="1033" v:viewMarkup="false">
		<v:userDefs>
			<v:ud v:nameU="msvConvertTheme"/>
		</v:userDefs>
	</v:documentProperties>

	<style type="text/css">
	<![CDATA[
		.st1 {fill:#ffffff;stroke:#000000;stroke-linecap:round;stroke-linejoin:round;stroke-width:0.72}
		.st2 {stroke:#000000;stroke-linecap:round;stroke-linejoin:round;stroke-width:0.72}
		.st3 {fill:none;stroke:none;stroke-linecap:round;stroke-linejoin:round;stroke-width:0.72}
		.st4 {fill:#000000;font-family:Arial;font-size:0.833336em}
		.st5 {fill:#ffffff;stroke:#000000;stroke-linecap:round;stroke-linejoin:round;stroke-width:0.24}
		.st6 {fill:#d5e1fb;stroke:#000000;stroke-linecap:round;stroke-linejoin:round;stroke-width:0.24}
		.st7 {fill:none;fill-rule:evenodd;font-size:12px;overflow:visible;stroke-linecap:square;stroke-miterlimit:3}
	]]>
	</style>

	<g v:mID="0" v:index="1" v:groupContext="foregroundPage">
		<title>Page-1</title>
		<v:pageProperties v:drawingScale="1" v:pageScale="1" v:drawingUnits="19" v:shadowOffsetX="9" v:shadowOffsetY="-9"/>
		<g id="shape160-1" v:mID="160" v:groupContext="shape" transform="translate(76.6575,-52.47)">
			<title>Circle.160</title>
			<path d="M0 80.19 A2.25 2.25 0 0 1 4.5 80.19 A2.25 2.25 0 1 1 0 80.19 Z" class="st1"/>
		</g>
		<g id="shape161-3" v:mID="161" v:groupContext="shape" transform="translate(76.6575,-61.47)">
			<title>Circle.161</title>
			<path d="M0 80.19 A2.25 2.25 0 0 1 4.5 80.19 A2.25 2.25 0 1 1 0 80.19 Z" class="st1"/>
		</g>
		<g id="shape166-5" v:mID="166" v:groupContext="shape" transform="translate(102.533,-20.97)">
			<title>Circle.166</title>
			<path d="M0 80.19 A2.25 2.25 0 0 1 4.5 80.19 A2.25 2.25 0 1 1 0 80.19 Z" class="st1"/>
		</g>
		<g id="shape167-7" v:mID="167" v:groupContext="shape" transform="translate(102.533,-59.22)">
			<title>Sheet.167</title>
			<path d="M0 82.44 L27 82.44" class="st2"/>
		</g>
		<g id="shape168-10" v:mID="168" v:groupContext="shape" transform="translate(76.6575,101.16) rotate(180)">
			<title>Sheet.168</title>
			<path d="M0 82.44 L14.62 82.44" class="st2"/>
		</g>
		<g id="shape169-13" v:mID="169" v:groupContext="shape" transform="translate(71.0325,-27.72)">
			<title>Sheet.169</title>
			<path d="M45 50.94 L45 59.94 L0 73.44 L0 82.44 L9 82.44" class="st2"/>
		</g>
		<g id="shape170-16" v:mID="170" v:groupContext="shape" transform="translate(107.033,-23.22)">
			<title>Sheet.170</title>
			<path d="M0 82.44 L22.5 82.44" class="st2"/>
		</g>
		<g id="shape171-19" v:mID="171" v:groupContext="shape" transform="translate(71.0325,-23.22)">
			<title>Sheet.171</title>
			<path d="M45 82.44 L45 73.44 L0 59.94 L0 50.94" class="st2"/>
		</g>
		<g id="shape172-22" v:mID="172" v:groupContext="shape" transform="translate(80.0325,146.16) rotate(180)">
			<title>Sheet.172</title>
			<path d="M0 82.44 L18 82.44" class="st2"/>
		</g>
		<g id="shape173-25" v:mID="173" v:groupContext="shape" transform="translate(129.533,-54.72)">
			<title>Sheet.173</title>
			<desc>Q</desc>
			<v:textBlock v:margins="rect(4,4,4,4)"/>
			<v:textRect cx="7.3125" cy="77.94" width="14.63" height="9"/>
			<rect x="0" y="73.44" width="14.625" height="9" class="st3"/>
			<text x="4" y="80.94" class="st4" v:langID="1033"><v:paragraph v:horizAlign="1"/><v:tabList/>Q</text>		</g>
		<g id="shape174-28" v:mID="174" v:groupContext="shape" transform="translate(129.532,-18.72)">
			<title>Sheet.174</title>
			<desc>QN</desc>
			<v:textBlock v:margins="rect(4,4,4,4)"/>
			<v:textRect cx="16.1719" cy="77.94" width="32.35" height="9"/>
			<rect x="0" y="73.44" width="32.3438" height="9" class="st3"/>
			<text x="8.67" y="80.94" class="st4" v:langID="1033"><v:paragraph v:horizAlign="1"/><v:tabList/>QN</text>		</g>
		<g id="shape175-31" v:mID="175" v:groupContext="shape" transform="translate(265.376,-63.72)">
			<title>Sheet.175</title>
			<desc>S</desc>
			<v:textBlock v:margins="rect(4,4,4,4)"/>
			<v:textRect cx="7.3125" cy="73.44" width="14.63" height="18"/>
			<rect x="0" y="64.44" width="14.625" height="18" class="st3"/>
			<text x="4" y="76.44" class="st4" v:langID="1033"><v:paragraph v:horizAlign="1"/><v:tabList/>S</text>		</g>
		<g id="shape176-34" v:mID="176" v:groupContext="shape" transform="translate(0.72,-32.22)">
			<title>Sheet.176</title>
			<desc>G</desc>
			<v:textBlock v:margins="rect(4,4,4,4)"/>
			<v:textRect cx="7.3125" cy="73.44" width="14.63" height="18"/>
			<rect x="0" y="64.44" width="14.625" height="18" class="st3"/>
			<text x="4" y="76.44" class="st4" v:langID="1033"><v:paragraph v:horizAlign="1"/><v:tabList/>G</text>		</g>
		<g id="shape177-37" v:mID="177" v:groupContext="shape" transform="translate(71.0325,-54.72)">
			<title>Sheet.177</title>
			<path d="M0 82.44 L5.62 82.44" class="st2"/>
		</g>
		<g id="shape178-40" v:mID="178" v:groupContext="shape" transform="translate(79.9402,96.66) scale(1,-1)">
			<title>Sheet.178</title>
			<path d="M0 64.44 L0.91 66.87 L1.52 69.5 L1.82 72.13 L1.82 74.75 L1.52 77.38 L0.91 79.91 L0 82.44 L9.83 82.44 L12.06
						 81.93 L14.18 81.13 L16.31 80.01 L18.13 78.7 L19.86 77.08 L21.28 75.36 L22.59 73.44 L21.28 71.42 L19.86 69.7
						 L18.13 68.08 L16.31 66.77 L14.18 65.75 L12.06 64.95 L9.83 64.44 L0 64.44 Z" class="st1"/>
		</g>
		<g id="shape179-42" v:mID="179" v:groupContext="shape" transform="translate(80.0325,-14.22)">
			<title>Sheet.179</title>
			<path d="M0 64.44 L13.75 64.44 A8.75 9 0 0 1 22.5 73.44 A7.5 9 0 0 1 15 82.44 L0 82.44 L0 64.44 Z" class="st1"/>
		</g>
		<g id="shape180-44" v:mID="180" v:groupContext="shape" transform="translate(115.751,-58.6575)">
			<title>Circle.180</title>
			<path d="M0 81.88 a0.5625 0.5625 0 0 1 1.125 0 a0.5625 0.5625 0 1 1 -1.125 0 Z" class="st1"/>
		</g>
		<g id="shape181-46" v:mID="181" v:groupContext="shape" transform="translate(115.189,-22.6575)">
			<title>Circle.181</title>
			<path d="M0 81.88 a0.5625 0.5625 0 0 1 1.125 0 a0.5625 0.5625 0 1 1 -1.125 0 Z" class="st1"/>
		</g>
		<g id="shape182-48" v:mID="182" v:groupContext="shape" transform="translate(57.5325,-61.47)">
			<title>Circle.182</title>
			<path d="M0 80.19 A2.25 2.25 0 0 1 4.5 80.19 A2.25 2.25 0 1 1 0 80.19 Z" class="st1"/>
		</g>
		<g id="shape183-50" v:mID="183" v:groupContext="shape" transform="translate(35.0325,-54.72)">
			<title>Sheet.183</title>
			<path d="M0 64.44 L13.75 64.44 A8.75 9 0 0 1 22.5 73.44 A7.5 9 0 0 1 15 82.44 L0 82.44 L0 64.44 Z" class="st1"/>
		</g>
		<g id="shape184-52" v:mID="184" v:groupContext="shape" transform="translate(57.5325,-16.47)">
			<title>Circle.184</title>
			<path d="M0 80.19 A2.25 2.25 0 0 1 4.5 80.19 A2.25 2.25 0 1 1 0 80.19 Z" class="st1"/>
		</g>
		<g id="shape185-54" v:mID="185" v:groupContext="shape" transform="translate(35.0325,-9.72)">
			<title>Sheet.185</title>
			<path d="M0 64.44 L13.75 64.44 A8.75 9 0 0 1 22.5 73.44 A7.5 9 0 0 1 15 82.44 L0 82.44 L0 64.44 Z" class="st1"/>
		</g>
		<g id="shape186-56" v:mID="186" v:groupContext="shape" transform="translate(26.0325,-23.22)">
			<title>Sheet.186</title>
			<path d="M9 46.44 L0 46.44 L0 82.44 L9 82.44" class="st2"/>
		</g>
		<g id="shape187-59" v:mID="187" v:groupContext="shape" transform="translate(26.0325,123.66) rotate(180)">
			<title>Sheet.187</title>
			<path d="M0 82.44 L9 82.44" class="st2"/>
		</g>
		<g id="shape188-62" v:mID="188" v:groupContext="shape" transform="translate(281.126,-52.47)">
			<title>Circle.188</title>
			<path d="M0 80.19 A2.25 2.25 0 0 1 4.5 80.19 A2.25 2.25 0 1 1 0 80.19 Z" class="st1"/>
		</g>
		<g id="shape189-64" v:mID="189" v:groupContext="shape" transform="translate(281.126,-61.47)">
			<title>Circle.189</title>
			<path d="M0 80.19 A2.25 2.25 0 0 1 4.5 80.19 A2.25 2.25 0 1 1 0 80.19 Z" class="st1"/>
		</g>
		<g id="shape190-66" v:mID="190" v:groupContext="shape" transform="translate(307.001,-20.97)">
			<title>Circle.190</title>
			<path d="M0 80.19 A2.25 2.25 0 0 1 4.5 80.19 A2.25 2.25 0 1 1 0 80.19 Z" class="st1"/>
		</g>
		<g id="shape191-68" v:mID="191" v:groupContext="shape" transform="translate(307.001,-59.22)">
			<title>Sheet.191</title>
			<path d="M0 82.44 L27 82.44" class="st2"/>
		</g>
		<g id="shape192-71" v:mID="192" v:groupContext="shape" transform="translate(281.126,101.16) rotate(180)">
			<title>Sheet.192</title>
			<path d="M0 82.44 L14.62 82.44" class="st2"/>
		</g>
		<g id="shape193-74" v:mID="193" v:groupContext="shape" transform="translate(275.501,-27.72)">
			<title>Sheet.193</title>
			<path d="M45 50.94 L45 59.94 L0 73.44 L0 82.44 L9 82.44" class="st2"/>
		</g>
		<g id="shape194-77" v:mID="194" v:groupContext="shape" transform="translate(311.501,-23.22)">
			<title>Sheet.194</title>
			<path d="M0 82.44 L22.5 82.44" class="st2"/>
		</g>
		<g id="shape195-80" v:mID="195" v:groupContext="shape" transform="translate(275.501,-23.22)">
			<title>Sheet.195</title>
			<path d="M45 82.44 L45 73.44 L0 59.94 L0 50.94" class="st2"/>
		</g>
		<g id="shape196-83" v:mID="196" v:groupContext="shape" transform="translate(284.501,146.16) rotate(180)">
			<title>Sheet.196</title>
			<path d="M0 82.44 L18 82.44" class="st2"/>
		</g>
		<g id="shape197-86" v:mID="197" v:groupContext="shape" transform="translate(334.001,-54.72)">
			<title>Sheet.197</title>
			<desc>Q</desc>
			<v:textBlock v:margins="rect(4,4,4,4)"/>
			<v:textRect cx="7.3125" cy="77.94" width="14.63" height="9"/>
			<rect x="0" y="73.44" width="14.625" height="9" class="st3"/>
			<text x="4" y="80.94" class="st4" v:langID="1033"><v:paragraph v:horizAlign="1"/><v:tabList/>Q</text>		</g>
		<g id="shape198-89" v:mID="198" v:groupContext="shape" transform="translate(334.001,-18.72)">
			<title>Sheet.198</title>
			<desc>QN</desc>
			<v:textBlock v:margins="rect(4,4,4,4)"/>
			<v:textRect cx="12.9375" cy="77.94" width="25.88" height="9"/>
			<rect x="0" y="73.44" width="25.875" height="9" class="st3"/>
			<text x="5.44" y="80.94" class="st4" v:langID="1033"><v:paragraph v:horizAlign="1"/><v:tabList/>QN</text>		</g>
		<g id="shape199-92" v:mID="199" v:groupContext="shape" transform="translate(188.876,-32.22)">
			<title>Sheet.199</title>
			<desc>G</desc>
			<v:textBlock v:margins="rect(4,4,4,4)"/>
			<v:textRect cx="7.3125" cy="73.44" width="14.63" height="18"/>
			<rect x="0" y="64.44" width="14.625" height="18" class="st3"/>
			<text x="4" y="76.44" class="st4" v:langID="1033"><v:paragraph v:horizAlign="1"/><v:tabList/>G</text>		</g>
		<g id="shape200-95" v:mID="200" v:groupContext="shape" transform="translate(275.501,-54.72)">
			<title>Sheet.200</title>
			<path d="M0 82.44 L5.62 82.44" class="st2"/>
		</g>
		<g id="shape201-98" v:mID="201" v:groupContext="shape" transform="translate(284.409,96.66) scale(1,-1)">
			<title>Sheet.201</title>
			<path d="M0 64.44 L0.91 66.87 L1.52 69.5 L1.82 72.13 L1.82 74.75 L1.52 77.38 L0.91 79.91 L0 82.44 L9.83 82.44 L12.06
						 81.93 L14.18 81.13 L16.31 80.01 L18.13 78.7 L19.86 77.08 L21.28 75.36 L22.59 73.44 L21.28 71.42 L19.86 69.7
						 L18.13 68.08 L16.31 66.77 L14.18 65.75 L12.06 64.95 L9.83 64.44 L0 64.44 Z" class="st1"/>
		</g>
		<g id="shape202-100" v:mID="202" v:groupContext="shape" transform="translate(284.501,-14.22)">
			<title>Sheet.202</title>
			<path d="M0 64.44 L13.75 64.44 A8.75 9 0 0 1 22.5 73.44 A7.5 9 0 0 1 15 82.44 L0 82.44 L0 64.44 Z" class="st1"/>
		</g>
		<g id="shape203-102" v:mID="203" v:groupContext="shape" transform="translate(320.22,-58.6575)">
			<title>Circle.203</title>
			<path d="M0 81.88 a0.5625 0.5625 0 0 1 1.125 0 a0.5625 0.5625 0 1 1 -1.125 0 Z" class="st1"/>
		</g>
		<g id="shape204-104" v:mID="204" v:groupContext="shape" transform="translate(319.657,-22.6575)">
			<title>Circle.204</title>
			<path d="M0 81.88 a0.5625 0.5625 0 0 1 1.125 0 a0.5625 0.5625 0 1 1 -1.125 0 Z" class="st1"/>
		</g>
		<g id="shape205-106" v:mID="205" v:groupContext="shape" transform="translate(262.001,-61.47)">
			<title>Circle.205</title>
			<path d="M0 80.19 A2.25 2.25 0 0 1 4.5 80.19 A2.25 2.25 0 1 1 0 80.19 Z" class="st1"/>
		</g>
		<g id="shape206-108" v:mID="206" v:groupContext="shape" transform="translate(239.501,-54.72)">
			<title>Sheet.206</title>
			<path d="M0 64.44 L13.75 64.44 A8.75 9 0 0 1 22.5 73.44 A7.5 9 0 0 1 15 82.44 L0 82.44 L0 64.44 Z" class="st1"/>
		</g>
		<g id="shape207-110" v:mID="207" v:groupContext="shape" transform="translate(262.001,-16.47)">
			<title>Circle.207</title>
			<path d="M0 80.19 A2.25 2.25 0 0 1 4.5 80.19 A2.25 2.25 0 1 1 0 80.19 Z" class="st1"/>
		</g>
		<g id="shape208-112" v:mID="208" v:groupContext="shape" transform="translate(239.501,-9.72)">
			<title>Sheet.208</title>
			<path d="M0 64.44 L13.75 64.44 A8.75 9 0 0 1 22.5 73.44 A7.5 9 0 0 1 15 82.44 L0 82.44 L0 64.44 Z" class="st1"/>
		</g>
		<g id="shape209-114" v:mID="209" v:groupContext="shape" transform="translate(230.501,-23.22)">
			<title>Sheet.209</title>
			<path d="M9 46.44 L0 46.44 L0 82.44 L9 82.44" class="st2"/>
		</g>
		<g id="shape210-117" v:mID="210" v:groupContext="shape" transform="translate(230.501,123.66) rotate(180)">
			<title>Sheet.210</title>
			<path d="M0 82.44 L27 82.44" class="st2"/>
		</g>
		<g id="shape211-120" v:mID="211" v:groupContext="shape" transform="translate(266.501,-0.72)">
			<title>Sheet.211</title>
			<desc>R</desc>
			<v:textBlock v:margins="rect(4,4,4,4)"/>
			<v:textRect cx="7.3125" cy="73.44" width="14.63" height="18"/>
			<rect x="0" y="64.44" width="14.625" height="18" class="st3"/>
			<text x="4" y="76.44" class="st4" v:langID="1033"><v:paragraph v:horizAlign="1"/><v:tabList/>R</text>		</g>
		<g id="shape212-123" v:mID="212" v:groupContext="shape" transform="translate(239.501,96.66) rotate(180)">
			<title>Sheet.212</title>
			<path d="M0 82.44 L36 82.44" class="st2"/>
		</g>
		<g id="shape213-126" v:mID="213" v:groupContext="shape" transform="translate(294.941,14.22) rotate(90)">
			<title>Sheet.213</title>
			<path d="M0 82.44 L54 82.44" class="st2"/>
		</g>
		<g id="shape215-129" v:mID="215" v:groupContext="shape" transform="translate(212.501,-14.22)">
			<title>Sheet.215</title>
			<path d="M0 82.44 L9 82.44" class="st2"/>
		</g>
		<g id="shape216-132" v:mID="216" v:groupContext="shape" transform="translate(230.501,-14.22)">
			<title>Sheet.216</title>
			<path d="M0 82.44 L9 82.44" class="st2"/>
		</g>
		<g id="shape214-135" v:mID="214" v:groupContext="shape" transform="translate(218.427,143.91) scale(1,-1)">
			<title>Sheet.214</title>
			<path d="M0 68.94 L0 82.44 L11.72 75.6 L0 68.94 ZM11.72 75.6 L12.08 76.68 L12.98 77.22 L13.89 77.22 L14.79 76.68 L15.15
						 75.6 L14.79 74.7 L13.89 73.98 L12.98 73.98 L12.08 74.7 L11.72 75.6 Z" class="st1"/>
		</g>
		<g id="shape217-137" v:mID="217" v:groupContext="shape" transform="translate(211.939,-67.6575)">
			<title>Circle.217</title>
			<path d="M0 81.88 a0.5625 0.5625 0 0 1 1.125 0 a0.5625 0.5625 0 1 1 -1.125 0 Z" class="st1"/>
		</g>
		<g id="shape218-139" v:mID="218" v:groupContext="shape" transform="translate(188.876,-59.22)">
			<title>Sheet.218</title>
			<desc>D</desc>
			<v:textBlock v:margins="rect(4,4,4,4)"/>
			<v:textRect cx="7.3125" cy="73.44" width="14.63" height="18"/>
			<rect x="0" y="64.44" width="14.625" height="18" class="st3"/>
			<text x="4" y="76.44" class="st4" v:langID="1033"><v:paragraph v:horizAlign="1"/><v:tabList/>D</text>		</g>
		<g id="shape219-142" v:mID="219" v:groupContext="shape" transform="translate(60.9075,-63.72)">
			<title>Sheet.219</title>
			<desc>S</desc>
			<v:textBlock v:margins="rect(4,4,4,4)"/>
			<v:textRect cx="7.3125" cy="73.44" width="14.63" height="18"/>
			<rect x="0" y="64.44" width="14.625" height="18" class="st3"/>
			<text x="4" y="76.44" class="st4" v:langID="1033"><v:paragraph v:horizAlign="1"/><v:tabList/>S</text>		</g>
		<g id="shape220-145" v:mID="220" v:groupContext="shape" transform="translate(63.72,-0.72)">
			<title>Sheet.220</title>
			<desc>R</desc>
			<v:textBlock v:margins="rect(4,4,4,4)"/>
			<v:textRect cx="7.3125" cy="73.44" width="14.63" height="18"/>
			<rect x="0" y="64.44" width="14.625" height="18" class="st3"/>
			<text x="4" y="76.44" class="st4" v:langID="1033"><v:paragraph v:horizAlign="1"/><v:tabList/>R</text>		</g>
		<g id="shape228-148" v:mID="228" v:groupContext="shape" transform="translate(395.876,-32.22) scale(-1,1)">
			<title>60 degree single.228</title>
			<path d="M0 73.44 L5.2 64.44 L5.2 70.38 L18 70.38 L18 76.5 L5.2 76.5 L5.2 82.44 L0 73.44 Z" class="st5"/>
		</g>
		<g id="shape221-150" v:mID="221" v:groupContext="shape" transform="translate(422.876,-20.97)">
			<title>Rectangle.221</title>
			<rect x="0" y="39.69" width="36" height="42.75" class="st6"/>
		</g>
		<g id="shape222-152" v:mID="222" v:groupContext="shape" transform="translate(422.876,112.41) rotate(180)">
			<title>Sheet.222</title>
			<path d="M0 82.44 L9 82.44" class="st2"/>
		</g>
		<g id="shape223-155" v:mID="223" v:groupContext="shape" transform="translate(421.189,-47.97)">
			<title>Sheet.223</title>
			<desc>D</desc>
			<v:textBlock v:margins="rect(4,4,4,4)"/>
			<v:textRect cx="7.3125" cy="77.94" width="14.63" height="9"/>
			<rect x="0" y="73.44" width="14.625" height="9" class="st3"/>
			<text x="4" y="80.94" class="st4" v:langID="1033"><v:paragraph/><v:tabList/>D</text>		</g>
		<g id="shape224-158" v:mID="224" v:groupContext="shape" transform="translate(422.876,134.91) rotate(180)">
			<title>Sheet.224</title>
			<path d="M0 82.44 L9 82.44" class="st2"/>
		</g>
		<g id="shape225-161" v:mID="225" v:groupContext="shape" transform="translate(421.189,-25.47)">
			<title>Sheet.225</title>
			<desc>G</desc>
			<v:textBlock v:margins="rect(4,4,4,4)"/>
			<v:textRect cx="7.3125" cy="77.94" width="14.63" height="9"/>
			<rect x="0" y="73.44" width="14.625" height="9" class="st3"/>
			<text x="4" y="80.94" class="st4" v:langID="1033"><v:paragraph/><v:tabList/>G</text>		</g>
		<g id="shape226-164" v:mID="226" v:groupContext="shape" transform="translate(467.876,112.41) rotate(180)">
			<title>Sheet.226</title>
			<path d="M0 82.44 L9 82.44" class="st2"/>
		</g>
		<g id="shape227-167" v:mID="227" v:groupContext="shape" transform="translate(444.814,-47.97)">
			<title>Sheet.227</title>
			<desc>Q</desc>
			<v:textBlock v:margins="rect(4,4,4,4)"/>
			<v:textRect cx="7.875" cy="77.94" width="15.75" height="9"/>
			<rect x="0" y="73.44" width="15.75" height="9" class="st3"/>
			<text x="4" y="80.94" class="st4" v:langID="1033"><v:paragraph v:horizAlign="2"/><v:tabList/>Q</text>		</g>
		<g id="shape331-170" v:mID="331" v:groupContext="shape" transform="translate(436.376,-25.47)">
			<title>Sheet.331</title>
			<desc>QN</desc>
			<v:textBlock v:margins="rect(4,4,4,4)"/>
			<v:textRect cx="12.375" cy="77.94" width="24.75" height="9"/>
			<rect x="0" y="73.44" width="24.75" height="9" class="st3"/>
			<text x="5.75" y="80.94" class="st4" v:langID="1033"><v:paragraph v:horizAlign="2"/><v:tabList/>QN</text>		</g>
		<g id="shape332-173" v:mID="332" v:groupContext="shape" transform="translate(467.876,134.91) rotate(180)">
			<title>Sheet.332</title>
			<path d="M0 82.44 L9 82.44" class="st2"/>
		</g>
		<g id="shape333-176" v:mID="333" v:groupContext="shape" transform="translate(458.876,-27.72)">
			<title>Circle.333</title>
			<path d="M0 80.19 A2.25 2.25 0 0 1 4.5 80.19 A2.25 2.25 0 1 1 0 80.19 Z" class="st1"/>
		</g>
	</g>
</svg>
