<?xml version="1.0" encoding="UTF-8" standalone="no"?>
<!DOCTYPE svg PUBLIC "-//W3C//DTD SVG 1.1//EN" "http://www.w3.org/Graphics/SVG/1.1/DTD/svg11.dtd">
<!-- Generated by Microsoft Visio, SVG Export SSD.svg Page-1 -->
<svg xmlns="http://www.w3.org/2000/svg" xmlns:xlink="http://www.w3.org/1999/xlink" xmlns:ev="http://www.w3.org/2001/xml-events"
		xmlns:v="http://schemas.microsoft.com/visio/2003/SVGExtensions/" width="3.64998in" height="2.3648in"
		viewBox="0 0 262.799 170.266" xml:space="preserve" color-interpolation-filters="sRGB" class="st19">
	<v:documentProperties v:langID="1033" v:viewMarkup="false">
		<v:userDefs>
			<v:ud v:nameU="msvConvertTheme"/>
		</v:userDefs>
	</v:documentProperties>

	<style type="text/css">
	<![CDATA[
		.st1 {stroke:#000000;stroke-linecap:round;stroke-linejoin:round;stroke-width:0.72}
		.st2 {fill:#e9e9eb;stroke:#000000;stroke-linecap:round;stroke-linejoin:round;stroke-width:0.24}
		.st3 {fill:#e2494e;stroke:#000000;stroke-linecap:round;stroke-linejoin:round;stroke-width:0.72}
		.st4 {fill:#000000;font-family:Arial;font-size:0.833336em;font-weight:bold}
		.st5 {stroke:#ff0000;stroke-linecap:round;stroke-linejoin:round;stroke-width:0.72}
		.st6 {stroke:#0000ff;stroke-linecap:round;stroke-linejoin:round;stroke-width:0.72}
		.st7 {fill:#000000;font-family:Arial;font-size:0.833336em}
		.st8 {marker-end:url(#mrkr4-221);stroke:#000000;stroke-linecap:round;stroke-linejoin:round;stroke-width:0.72}
		.st9 {fill:#000000;fill-opacity:1;stroke:#000000;stroke-opacity:1;stroke-width:0.28571428571429}
		.st10 {fill:#000000;font-family:Arial;font-size:0.75em}
		.st11 {fill:#0000ff;stroke:#000000;stroke-linecap:round;stroke-linejoin:round;stroke-width:0.24}
		.st12 {fill:#ff0000;stroke:#000000;stroke-linecap:round;stroke-linejoin:round;stroke-width:0.24}
		.st13 {fill:#e6e6e6;stroke:none;stroke-linecap:round;stroke-linejoin:round;stroke-width:0.72}
		.st14 {fill:#e2494e;stroke:none;stroke-linecap:round;stroke-linejoin:round;stroke-width:0.24}
		.st15 {fill:#e2494e;stroke:none;stroke-linecap:round;stroke-linejoin:round;stroke-width:0.738935}
		.st16 {fill:#e6e6e6;stroke:#000000;stroke-linecap:round;stroke-linejoin:round;stroke-width:0.24}
		.st17 {fill:#000000;font-family:Arial;font-size:0.666664em;font-weight:bold}
		.st18 {font-size:1em}
		.st19 {fill:none;fill-rule:evenodd;font-size:12px;overflow:visible;stroke-linecap:square;stroke-miterlimit:3}
	]]>
	</style>

	<defs id="Markers">
		<g id="lend4">
			<path d="M 2 1 L 0 0 L 2 -1 L 2 1 " style="stroke:none"/>
		</g>
		<marker id="mrkr4-221" class="st9" v:arrowType="4" v:arrowSize="1" v:setback="6.5" refX="-6.5" orient="auto"
				markerUnits="strokeWidth" overflow="visible">
			<use xlink:href="#lend4" transform="scale(-3.5,-3.5) "/>
		</marker>
	</defs>
	<g v:mID="0" v:index="1" v:groupContext="foregroundPage">
		<title>Page-1</title>
		<v:pageProperties v:drawingScale="1" v:pageScale="1" v:drawingUnits="19" v:shadowOffsetX="9" v:shadowOffsetY="-9"/>
		<v:layer v:name="Connector" v:index="0"/>
		<g id="shape1832-1" v:mID="1832" v:groupContext="shape" transform="translate(188.626,60.3245) rotate(90) scale(-1,1)">
			<title>Sheet.1832</title>
			<path d="M0 170.27 L6.19 170.27" class="st1"/>
		</g>
		<g id="shape1833-4" v:mID="1833" v:groupContext="shape" transform="translate(215.626,60.3245) rotate(90) scale(-1,1)">
			<title>Sheet.1833</title>
			<path d="M0 170.27 L6.19 170.27" class="st1"/>
		</g>
		<g id="shape1834-7" v:mID="1834" v:groupContext="shape" transform="translate(242.626,60.3245) rotate(90) scale(-1,1)">
			<title>Sheet.1834</title>
			<path d="M0 170.27 L6.19 170.27" class="st1"/>
		</g>
		<g id="shape1835-10" v:mID="1835" v:groupContext="shape" transform="translate(269.626,60.3245) rotate(90) scale(-1,1)">
			<title>Sheet.1835</title>
			<path d="M0 170.27 L6.19 170.27" class="st1"/>
		</g>
		<g id="shape1836-13" v:mID="1836" v:groupContext="shape" transform="translate(181.876,107.012) rotate(90) scale(-1,1)">
			<title>Sheet.1836</title>
			<path d="M0 170.27 L6.19 170.27" class="st1"/>
		</g>
		<g id="shape1837-16" v:mID="1837" v:groupContext="shape" transform="translate(195.376,107.012) rotate(90) scale(-1,1)">
			<title>Sheet.1837</title>
			<path d="M0 170.27 L6.19 170.27" class="st1"/>
		</g>
		<g id="shape1838-19" v:mID="1838" v:groupContext="shape" transform="translate(208.876,107.012) rotate(90) scale(-1,1)">
			<title>Sheet.1838</title>
			<path d="M0 170.27 L6.19 170.27" class="st1"/>
		</g>
		<g id="shape1839-22" v:mID="1839" v:groupContext="shape" transform="translate(222.376,107.012) rotate(90) scale(-1,1)">
			<title>Sheet.1839</title>
			<path d="M0 170.27 L6.19 170.27" class="st1"/>
		</g>
		<g id="shape1840-25" v:mID="1840" v:groupContext="shape" transform="translate(235.876,107.012) rotate(90) scale(-1,1)">
			<title>Sheet.1840</title>
			<path d="M0 170.27 L6.19 170.27" class="st1"/>
		</g>
		<g id="shape1841-28" v:mID="1841" v:groupContext="shape" transform="translate(249.376,107.012) rotate(90) scale(-1,1)">
			<title>Sheet.1841</title>
			<path d="M0 170.27 L6.19 170.27" class="st1"/>
		</g>
		<g id="shape1842-31" v:mID="1842" v:groupContext="shape" transform="translate(262.876,107.012) rotate(90) scale(-1,1)">
			<title>Sheet.1842</title>
			<path d="M0 170.27 L6.19 170.27" class="st1"/>
		</g>
		<g id="shape1843-34" v:mID="1843" v:groupContext="shape" transform="translate(276.376,107.012) rotate(90) scale(-1,1)">
			<title>Sheet.1843</title>
			<path d="M0 170.27 L6.19 170.27" class="st1"/>
		</g>
		<g id="shape313-37" v:mID="313" v:groupContext="shape" transform="translate(153.586,-82.4435)">
			<title>Sheet.313</title>
			<path d="M4.5 120.77 L0 170.27 L13.5 170.27 L18 120.77 L4.5 120.77 Z" class="st2"/>
		</g>
		<g id="shape1094-39" v:mID="1094" v:groupContext="shape" transform="translate(158.474,-102.077)">
			<title>Sheet.1094</title>
			<path d="M0 164.14 L8.22 164.14 L4.17 170.27 L0 164.14 Z" class="st3"/>
		</g>
		<g id="shape1095-41" v:mID="1095" v:groupContext="shape" transform="translate(188.894,-106.746)">
			<title>Sheet.1095</title>
			<desc>A</desc>
			<v:textBlock v:margins="rect(0,0,0,0)"/>
			<v:textRect cx="2.03347" cy="164.82" width="4.07" height="10.8913"/>
			<text x="0" y="167.82" class="st4" v:langID="1033"><v:paragraph v:horizAlign="1"/><v:tabList/>A</text>		</g>
		<g id="shape1103-43" v:mID="1103" v:groupContext="shape" transform="translate(148.86,-100.802)">
			<title>Sheet.1103</title>
			<desc>F</desc>
			<v:textBlock v:margins="rect(0,0,0,0)"/>
			<v:textRect cx="1.48388" cy="164.82" width="2.97" height="10.8913"/>
			<text x="0" y="167.82" class="st4" v:langID="1033"><v:paragraph v:horizAlign="1"/><v:tabList/>F</text>		</g>
		<g id="shape1104-45" v:mID="1104" v:groupContext="shape" transform="translate(139.86,-45.4979)">
			<title>Sheet.1104</title>
			<desc>E</desc>
			<v:textBlock v:margins="rect(0,0,0,0)"/>
			<v:textRect cx="6.53347" cy="164.82" width="13.07" height="10.8913"/>
			<text x="3.2" y="167.82" class="st4" v:langID="1033"><v:paragraph v:horizAlign="1"/><v:tabList/>E</text>		</g>
		<g id="shape1105-47" v:mID="1105" v:groupContext="shape" transform="translate(179.461,-13.9979)">
			<title>Sheet.1105</title>
			<desc>D</desc>
			<v:textBlock v:margins="rect(0,0,0,0)"/>
			<v:textRect cx="2.30826" cy="164.82" width="4.62" height="10.8913"/>
			<text x="0" y="167.82" class="st4" v:langID="1033"><v:paragraph v:horizAlign="1"/><v:tabList/>D</text>		</g>
		<g id="shape1106-49" v:mID="1106" v:groupContext="shape" transform="translate(224.677,-53.5522)">
			<title>Sheet.1106</title>
			<desc>C</desc>
			<v:textBlock v:margins="rect(0,0,0,0)"/>
			<v:textRect cx="2.03347" cy="164.82" width="4.07" height="10.8913"/>
			<text x="0" y="167.82" class="st4" v:langID="1033"><v:paragraph v:horizAlign="1"/><v:tabList/>C</text>		</g>
		<g id="shape1107-51" v:mID="1107" v:groupContext="shape" transform="translate(228.844,-106.248)">
			<title>Sheet.1107</title>
			<desc>B</desc>
			<v:textBlock v:margins="rect(0,0,0,0)"/>
			<v:textRect cx="2.30826" cy="164.82" width="4.62" height="10.8913"/>
			<text x="0" y="167.82" class="st4" v:langID="1033"><v:paragraph v:horizAlign="1"/><v:tabList/>B</text>		</g>
		<g id="shape1108-53" v:mID="1108" v:groupContext="shape" transform="translate(186.208,-59.137)">
			<title>Sheet.1108</title>
			<desc>G</desc>
			<v:textBlock v:margins="rect(0,0,0,0)"/>
			<v:textRect cx="2.2533" cy="164.82" width="4.51" height="10.8913"/>
			<text x="0" y="167.82" class="st4" v:langID="1033"><v:paragraph v:horizAlign="1"/><v:tabList/>G</text>		</g>
		<g id="shape1109-55" v:mID="1109" v:groupContext="shape" transform="translate(158.474,-102.077)">
			<title>Sheet.1109</title>
			<path d="M0 170.27 L6.25 170.27 L8.22 170.27" class="st1"/>
		</g>
		<g id="shape1110-58" v:mID="1110" v:groupContext="shape" transform="translate(162.586,-108.2)">
			<title>Sheet.1110</title>
			<path d="M0 170.27 L0 159.99" class="st5"/>
		</g>
		<g id="shape1111-61" v:mID="1111" v:groupContext="shape" transform="translate(162.586,-89.8295)">
			<title>Sheet.1111</title>
			<path d="M0 158.02 L0 170.27" class="st6"/>
		</g>
		<g id="shape314-64" v:mID="314" v:groupContext="shape" transform="translate(210.961,-82.4435)">
			<title>Sheet.314</title>
			<path d="M4.5 120.77 L0 170.27 L13.5 170.27 L18 120.77 L4.5 120.77 Z" class="st2"/>
		</g>
		<g id="shape315-66" v:mID="315" v:groupContext="shape" transform="translate(216.237,-102.077)">
			<title>Sheet.315</title>
			<path d="M0 164.14 L8.22 164.14 L4.17 170.27 L0 164.14 Z" class="st3"/>
		</g>
		<g id="shape316-68" v:mID="316" v:groupContext="shape" transform="translate(216.237,-102.077)">
			<title>Sheet.316</title>
			<path d="M0 170.27 L6.25 170.27 L8.22 170.27" class="st1"/>
		</g>
		<g id="shape317-71" v:mID="317" v:groupContext="shape" transform="translate(220.242,-108.2)">
			<title>Sheet.317</title>
			<path d="M0 170.27 L0 159.99" class="st5"/>
		</g>
		<g id="shape318-74" v:mID="318" v:groupContext="shape" transform="translate(220.523,-89.8295)">
			<title>Sheet.318</title>
			<path d="M0 158.02 L0 170.27" class="st6"/>
		</g>
		<g id="shape319-77" v:mID="319" v:groupContext="shape" transform="translate(224.398,-102.131)">
			<title>Sheet.319</title>
			<path d="M0 167.26 L4.17 168.24 L2.08 169.34 L6.25 170.27 L5.13 168.58" class="st1"/>
		</g>
		<g id="shape320-80" v:mID="320" v:groupContext="shape" transform="translate(228.367,-101.093)">
			<title>Sheet.320</title>
			<path d="M2.08 169.28 L0 170.27" class="st1"/>
		</g>
		<g id="shape321-83" v:mID="321" v:groupContext="shape" transform="translate(42.9451,51.8223) rotate(-90)">
			<title>Sheet.321</title>
			<path d="M0 129.77 L0 169.14 L13.5 170.27 L13.5 130.89 L0 129.77 Z" class="st2"/>
		</g>
		<g id="shape324-85" v:mID="324" v:groupContext="shape" transform="translate(25.8977,48.7963) rotate(-90)">
			<title>Sheet.324</title>
			<path d="M0 164.14 L8.22 164.14 L4.17 170.27 L0 164.14 Z" class="st3"/>
		</g>
		<g id="shape372-87" v:mID="372" v:groupContext="shape" transform="translate(25.8977,48.7963) rotate(-90)">
			<title>Sheet.372</title>
			<path d="M0 170.27 L6.25 170.27 L8.22 170.27" class="st1"/>
		</g>
		<g id="shape373-90" v:mID="373" v:groupContext="shape" transform="translate(19.7741,44.7676) rotate(-90)">
			<title>Sheet.373</title>
			<path d="M0 170.27 L0 159.99" class="st5"/>
		</g>
		<g id="shape1093-93" v:mID="1093" v:groupContext="shape" transform="translate(33.9451,44.5098) rotate(-90)">
			<title>Sheet.1093</title>
			<path d="M0 162.39 L0 170.27" class="st6"/>
		</g>
		<g id="shape1734-96" v:mID="1734" v:groupContext="shape" transform="translate(25.8977,40.7105) rotate(-90)">
			<title>Sheet.1734</title>
			<path d="M0 167.2 L4.17 168.19 L2.08 169.28 L6.25 170.27 L5.76 168.75" class="st1"/>
		</g>
		<g id="shape1735-99" v:mID="1735" v:groupContext="shape" transform="translate(26.8819,36.5437) rotate(-90)">
			<title>Sheet.1735</title>
			<path d="M2.08 169.28 L0 170.27" class="st1"/>
		</g>
		<g id="shape1736-102" v:mID="1736" v:groupContext="shape" transform="translate(171.022,-125.475)">
			<title>Sheet.1736</title>
			<path d="M9 170.27 C5.35 169.98 1.95 168.43 0.67 165.71 C-0.73 162.77 0.35 158.48 1.29 155.37 C2.06 152.81 2.74 151.05
						 4.37 150.01 C6.13 148.89 9 148.61 10.13 143.32" class="st5"/>
		</g>
		<g id="shape1116-105" v:mID="1116" v:groupContext="shape" transform="translate(162.501,-118.444)">
			<title>Sheet.1116</title>
			<path d="M0.09 170.27 C-0.2 165.2 0.18 160.66 1.74 156.16 C3.03 152.44 5.12 148.74 7.39 145.93 C10.85 141.63 14.71 139.39
						 18.65 138.2" class="st5"/>
		</g>
		<g id="shape1737-108" v:mID="1737" v:groupContext="shape" transform="translate(120.939,166.087) rotate(-139.007)">
			<title>Sheet.1737</title>
			<path d="M0 151.38 C3.37 155.39 8.86 162.86 13.04 166.87 C18.6 172.2 21.82 171.38 30.54 163.68 C37.64 157.42 48.38 146.6
						 51.79 151.38" class="st5"/>
		</g>
		<g id="shape1738-111" v:mID="1738" v:groupContext="shape" transform="translate(148.523,-26.756)">
			<title>Sheet.1738</title>
			<path d="M4.5 120.77 L0 170.27 L13.5 170.27 L18 120.77 L4.5 120.77 Z" class="st2"/>
		</g>
		<g id="shape1739-113" v:mID="1739" v:groupContext="shape" transform="translate(153.411,-46.3892)">
			<title>Sheet.1739</title>
			<path d="M0 164.14 L8.22 164.14 L4.17 170.27 L0 164.14 Z" class="st3"/>
		</g>
		<g id="shape1740-115" v:mID="1740" v:groupContext="shape" transform="translate(153.411,-46.3892)">
			<title>Sheet.1740</title>
			<path d="M0 170.27 L6.25 170.27 L8.22 170.27" class="st1"/>
		</g>
		<g id="shape1741-118" v:mID="1741" v:groupContext="shape" transform="translate(157.523,-52.5128)">
			<title>Sheet.1741</title>
			<path d="M0 170.27 L0 159.99" class="st5"/>
		</g>
		<g id="shape1742-121" v:mID="1742" v:groupContext="shape" transform="translate(157.523,-34.142)">
			<title>Sheet.1742</title>
			<path d="M0 158.02 L0 170.27" class="st6"/>
		</g>
		<g id="shape1745-124" v:mID="1745" v:groupContext="shape" transform="translate(205.898,-26.756)">
			<title>Sheet.1745</title>
			<path d="M4.5 120.77 L0 170.27 L13.5 170.27 L18 120.77 L4.5 120.77 Z" class="st2"/>
		</g>
		<g id="shape1746-126" v:mID="1746" v:groupContext="shape" transform="translate(210.786,-46.3892)">
			<title>Sheet.1746</title>
			<path d="M0 164.14 L8.22 164.14 L4.17 170.27 L0 164.14 Z" class="st3"/>
		</g>
		<g id="shape1747-128" v:mID="1747" v:groupContext="shape" transform="translate(210.786,-46.3892)">
			<title>Sheet.1747</title>
			<path d="M0 170.27 L6.25 170.27 L8.22 170.27" class="st1"/>
		</g>
		<g id="shape1748-131" v:mID="1748" v:groupContext="shape" transform="translate(214.898,-52.5128)">
			<title>Sheet.1748</title>
			<path d="M0 170.27 L0 159.99" class="st5"/>
		</g>
		<g id="shape1749-134" v:mID="1749" v:groupContext="shape" transform="translate(214.898,-34.142)">
			<title>Sheet.1749</title>
			<path d="M0 158.02 L0 170.27" class="st6"/>
		</g>
		<g id="shape1750-137" v:mID="1750" v:groupContext="shape" transform="translate(219.086,-46.3892)">
			<title>Sheet.1750</title>
			<path d="M0 167.2 L4.17 168.19 L2.08 169.28 L6.25 170.27 L5.59 168.52" class="st1"/>
		</g>
		<g id="shape1751-140" v:mID="1751" v:groupContext="shape" transform="translate(223.305,-45.4051)">
			<title>Sheet.1751</title>
			<path d="M2.08 169.28 L0 170.27" class="st1"/>
		</g>
		<g id="shape1752-143" v:mID="1752" v:groupContext="shape" transform="translate(38.4451,98.5098) rotate(-90)">
			<title>Sheet.1752</title>
			<path d="M0 129.77 L0 169.14 L13.5 170.27 L13.5 130.89 L0 129.77 Z" class="st2"/>
		</g>
		<g id="shape1753-145" v:mID="1753" v:groupContext="shape" transform="translate(21.3977,95.8718) rotate(-90)">
			<title>Sheet.1753</title>
			<path d="M0 164.14 L8.22 164.14 L4.17 170.27 L0 164.14 Z" class="st3"/>
		</g>
		<g id="shape1754-147" v:mID="1754" v:groupContext="shape" transform="translate(21.3977,95.8718) rotate(-90)">
			<title>Sheet.1754</title>
			<path d="M0 170.27 L6.25 170.27 L8.22 170.27" class="st1"/>
		</g>
		<g id="shape1755-150" v:mID="1755" v:groupContext="shape" transform="translate(15.2741,91.7598) rotate(-90)">
			<title>Sheet.1755</title>
			<path d="M0 170.27 L0 159.99" class="st5"/>
		</g>
		<g id="shape1756-153" v:mID="1756" v:groupContext="shape" transform="translate(27.7576,91.7598) rotate(-90)">
			<title>Sheet.1756</title>
			<path d="M0 163.91 L0 170.27" class="st6"/>
		</g>
		<g id="shape1757-156" v:mID="1757" v:groupContext="shape" transform="translate(21.3977,87.6415) rotate(-90)">
			<title>Sheet.1757</title>
			<path d="M0 167.2 L4.17 168.19 L2.08 169.28 L6.25 170.27 L5.44 168.4" class="st1"/>
		</g>
		<g id="shape1758-159" v:mID="1758" v:groupContext="shape" transform="translate(22.3819,83.4747) rotate(-90)">
			<title>Sheet.1758</title>
			<path d="M2.08 169.28 L0 170.27" class="st1"/>
		</g>
		<g id="shape1760-162" v:mID="1760" v:groupContext="shape" transform="translate(34.5076,143.434) rotate(-90)">
			<title>Sheet.1760</title>
			<path d="M0 129.77 L0 169.14 L13.5 170.27 L13.5 130.89 L0 129.77 Z" class="st2"/>
		</g>
		<g id="shape1761-164" v:mID="1761" v:groupContext="shape" transform="translate(17.4602,140.484) rotate(-90)">
			<title>Sheet.1761</title>
			<path d="M0 164.14 L8.22 164.14 L4.17 170.27 L0 164.14 Z" class="st3"/>
		</g>
		<g id="shape1762-166" v:mID="1762" v:groupContext="shape" transform="translate(17.4602,140.484) rotate(-90)">
			<title>Sheet.1762</title>
			<path d="M0 170.27 L6.25 170.27 L8.22 170.27" class="st1"/>
		</g>
		<g id="shape1763-169" v:mID="1763" v:groupContext="shape" transform="translate(11.3366,136.197) rotate(-90)">
			<title>Sheet.1763</title>
			<path d="M0 170.27 L0 159.99" class="st5"/>
		</g>
		<g id="shape1764-172" v:mID="1764" v:groupContext="shape" transform="translate(21.5701,136.197) rotate(-90)">
			<title>Sheet.1764</title>
			<path d="M0 166.16 L0 170.27" class="st6"/>
		</g>
		<g id="shape1765-175" v:mID="1765" v:groupContext="shape" transform="translate(17.4602,132.26) rotate(-90)">
			<title>Sheet.1765</title>
			<path d="M0 167.2 L4.17 168.19 L2.08 169.28 L6.25 170.27 L5.62 168.19" class="st1"/>
		</g>
		<g id="shape1766-178" v:mID="1766" v:groupContext="shape" transform="translate(18.4444,128.156) rotate(-90)">
			<title>Sheet.1766</title>
			<path d="M2.08 169.28 L0 170.27" class="st1"/>
		</g>
		<g id="shape1115-181" v:mID="1115" v:groupContext="shape" transform="translate(-1.49294,65.5329) rotate(-75.0232)">
			<title>Sheet.1115</title>
			<path d="M0 164.61 C9.49 162.21 3.29 168.14 9.37 169.79 C13.34 170.86 22.55 170.1 31.61 168.62 C45.48 166.35 58.98 162.4
						 69.44 160.89 C78.79 159.53 85.71 160.13 91.42 164.61" class="st5"/>
		</g>
		<g id="shape1768-184" v:mID="1768" v:groupContext="shape" transform="translate(82.886,158.284) rotate(-111.038)">
			<title>Sheet.1768</title>
			<path d="M0 141.44 C9.73 144.77 2.5 136.79 22.05 146.53 C33.56 152.26 54.35 164.13 64.57 168.28 C71.15 170.95 73.35 170.41
						 74.9 169.75 C77.2 168.78 78.1 167.54 80.7 161.92 C83.3 156.28 87.59 146.24 94.02 141.44" class="st5"/>
		</g>
		<g id="shape1769-187" v:mID="1769" v:groupContext="shape" transform="translate(1.64403,121.854) rotate(-85.1676)">
			<title>Sheet.1769</title>
			<path d="M0 170.27 C0.04 166.32 -1.5 164.87 0.3 164.07 C3.18 162.78 14.59 163.14 21.22 163.41 C28.02 163.68 29.77 163.85
						 33.98 163.7 C37.04 163.6 41.38 163.32 45.64 163.28 C51.85 163.21 57.86 163.64 63.38 163.91 C68.44 164.16
						 73.09 164.28 77.26 164.23 C93.99 164.01 103.14 161.08 116.85 170.27" class="st5"/>
		</g>
		<g id="shape1759-190" v:mID="1759" v:groupContext="shape" transform="translate(162.436,-16.631)">
			<title>Sheet.1759</title>
			<path d="M0.15 96.58 L0.15 97.14 C-0.98 106.14 4.62 99.44 4.25 112.13 C4.04 119.47 1.84 133.28 0.15 170.27" class="st6"/>
		</g>
		<g id="shape1771-193" v:mID="1771" v:groupContext="shape" transform="translate(205.336,-15.8435)">
			<title>Sheet.1771</title>
			<path d="M15.19 96.35 C14.41 102.16 7.11 103.55 4.24 107.73 C1.22 112.12 3.11 119.59 0 158.79 C0.16 162.63 4.07 162.66
						 6.25 164.94 C7.38 166.12 8.05 167.91 8.77 170.27" class="st6"/>
		</g>
		<g id="shape1772-196" v:mID="1772" v:groupContext="shape" transform="translate(214.898,-16.631)">
			<title>Sheet.1772</title>
			<path d="M0 152.27 C-0 155.64 1.21 157.04 4.08 157.42 C6.15 157.69 9.07 157.43 11.58 157.78 C18.7 158.77 22.5 164.64
						 23.06 170.27" class="st6"/>
		</g>
		<g id="shape1773-199" v:mID="1773" v:groupContext="shape" transform="translate(191.836,-16.631)">
			<title>Sheet.1773</title>
			<path d="M0 152.83 L2.25 152.83 C5.62 152.83 4.21 157.9 3.03 161.2 C1.33 165.94 0.1 167.06 0 170.27" class="st6"/>
		</g>
		<g id="shape1774-202" v:mID="1774" v:groupContext="shape" transform="translate(198.023,-15.8435)">
			<title>Sheet.1774</title>
			<path d="M0 107.6 C5.06 107.6 9.54 108.5 10.16 119.53 C10.47 125.19 9.78 133.51 9.33 141.13 C9.1 145.08 8.93 148.84 8.53
						 152.57 C7.92 158.25 6.75 163.85 5.06 170.27" class="st6"/>
		</g>
		<g id="shape1775-205" v:mID="1775" v:groupContext="shape" transform="translate(204.208,-16.631)">
			<title>Sheet.1775</title>
			<path d="M0 61.14 C8.17 61.26 12.01 59.31 6.05 100.52 C4.77 115.67 5.48 126.12 1.89 142.89 C0.13 151.11 -2.66 160.84
						 5.77 162.13 C8.6 162.57 12.7 162.05 15.87 162.83 C19.5 163.73 21.94 166.33 22.5 170.27" class="st6"/>
		</g>
		<g id="shape1767-208" v:mID="1767" v:groupContext="shape" transform="translate(342.187,33.9346) rotate(94.931)">
			<title>Sheet.1767</title>
			<path d="M0 161.64 C17.82 171.32 28.02 167.03 48.51 168.62 C58.48 169.4 70.89 171.57 72.24 169.31 C72.48 168.91 72.37
						 168.37 71.99 161.64" class="st5"/>
		</g>
		<g id="shape1770-211" v:mID="1770" v:groupContext="shape" transform="translate(309.942,204.916) rotate(114.444)">
			<title>Sheet.1770</title>
			<path d="M0 167.43 C5.86 164.73 6.1 167.82 7.5 169.24 C9.95 171.74 15.97 169.15 20.39 167.43" class="st6"/>
		</g>
		<g id="shape1776-214" v:mID="1776" v:groupContext="shape" transform="translate(92.3287,-147.694)">
			<title>Sheet.1776</title>
			<desc>Common anode</desc>
			<v:textBlock v:margins="rect(0,0,0,0)"/>
			<v:textRect cx="36" cy="164.322" width="72" height="11.887"/>
			<text x="0.42" y="167.32" class="st7" v:langID="1033"><v:paragraph v:horizAlign="1"/><v:tabList/>Common anode</text>		</g>
		<g id="shape1720-216" v:mID="1720" v:groupContext="shape" v:layerMember="0"
				transform="translate(185.663,-154.846) rotate(6.34019)">
			<title>Line-curve connector.14</title>
			<v:userDefs>
				<v:ud v:nameU="AntiScale" v:val="VT0(1):26"/>
				<v:ud v:nameU="Scale" v:val="VT0(1):26"/>
				<v:ud v:nameU="visVersion" v:val="VT0(11):26"/>
			</v:userDefs>
			<path d="M0 170.27 L3.76 166.74 L7.01 164.5 L9.75 163.54 L11.97 163.87 L13.68 165.49 L13.8 165.83" class="st8"/>
		</g>
		<g id="shape1777-222" v:mID="1777" v:groupContext="shape" transform="translate(148.14,0)">
			<title>Sheet.1777</title>
			<desc>Individual cathodes</desc>
			<v:textBlock v:margins="rect(0,0,0,0)"/>
			<v:textRect cx="48.6563" cy="164.322" width="97.32" height="11.887"/>
			<text x="10.13" y="167.02" class="st10" v:langID="1033"><v:paragraph v:horizAlign="1"/><v:tabList/>Individual cathodes</text>		</g>
		<g id="shape1779-224" v:mID="1779" v:groupContext="shape" transform="translate(148.186,-15.1685)">
			<title>Circle.1779</title>
			<v:userDefs>
				<v:ud v:nameU="visVersion" v:val="VT0(11):26"/>
			</v:userDefs>
			<path d="M0 169.37 a0.9 0.9 0 1 1 1.8 0 a0.9 0.9 0 0 1 -1.8 0 Z" class="st11"/>
		</g>
		<g id="shape1778-226" v:mID="1778" v:groupContext="shape" transform="translate(161.686,-15.1685)">
			<title>Circle.1778</title>
			<v:userDefs>
				<v:ud v:nameU="visVersion" v:val="VT0(11):26"/>
			</v:userDefs>
			<path d="M0 169.37 a0.9 0.9 0 1 1 1.8 0 a0.9 0.9 0 0 1 -1.8 0 Z" class="st11"/>
		</g>
		<g id="shape1780-228" v:mID="1780" v:groupContext="shape" transform="translate(190.936,-14.9435)">
			<title>Circle.1780</title>
			<v:userDefs>
				<v:ud v:nameU="visVersion" v:val="VT0(11):26"/>
			</v:userDefs>
			<path d="M0 169.37 a0.9 0.9 0 1 1 1.8 0 a0.9 0.9 0 0 1 -1.8 0 Z" class="st11"/>
		</g>
		<g id="shape1781-230" v:mID="1781" v:groupContext="shape" transform="translate(202.186,-14.9435)">
			<title>Circle.1781</title>
			<v:userDefs>
				<v:ud v:nameU="visVersion" v:val="VT0(11):26"/>
			</v:userDefs>
			<path d="M0 169.37 a0.9 0.9 0 1 1 1.8 0 a0.9 0.9 0 0 1 -1.8 0 Z" class="st11"/>
		</g>
		<g id="shape1782-232" v:mID="1782" v:groupContext="shape" transform="translate(213.211,-14.9435)">
			<title>Circle.1782</title>
			<v:userDefs>
				<v:ud v:nameU="visVersion" v:val="VT0(11):26"/>
			</v:userDefs>
			<path d="M0 169.37 a0.9 0.9 0 1 1 1.8 0 a0.9 0.9 0 0 1 -1.8 0 Z" class="st11"/>
		</g>
		<g id="shape1783-234" v:mID="1783" v:groupContext="shape" transform="translate(225.811,-14.9435)">
			<title>Circle.1783</title>
			<v:userDefs>
				<v:ud v:nameU="visVersion" v:val="VT0(11):26"/>
			</v:userDefs>
			<path d="M0 169.37 a0.9 0.9 0 1 1 1.8 0 a0.9 0.9 0 0 1 -1.8 0 Z" class="st11"/>
		</g>
		<g id="shape1784-236" v:mID="1784" v:groupContext="shape" transform="translate(237.061,-14.9435)">
			<title>Circle.1784</title>
			<v:userDefs>
				<v:ud v:nameU="visVersion" v:val="VT0(11):26"/>
			</v:userDefs>
			<path d="M0 169.37 a0.9 0.9 0 1 1 1.8 0 a0.9 0.9 0 0 1 -1.8 0 Z" class="st11"/>
		</g>
		<g id="shape1785-238" v:mID="1785" v:groupContext="shape" transform="translate(180.248,-151.519)">
			<title>Circle.1785</title>
			<v:userDefs>
				<v:ud v:nameU="visVersion" v:val="VT0(11):26"/>
			</v:userDefs>
			<path d="M0 169.37 a0.9 0.9 0 1 1 1.8 0 a0.9 0.9 0 0 1 -1.8 0 Z" class="st12"/>
		</g>
		<g id="group1786-240" transform="translate(166.773,-101.093)" v:mID="1786" v:groupContext="group">
			<title>Sheet.1786</title>
			<g id="shape1112-241" v:mID="1112" v:groupContext="shape" transform="translate(6.4948E-015,-0.984154)">
				<title>Sheet.1112</title>
				<path d="M0 167.2 L4.17 168.19 L2.08 169.28 L6.25 170.27 L5.66 168.24" class="st1"/>
			</g>
			<g id="shape1113-244" v:mID="1113" v:groupContext="shape" transform="translate(4.21888,0)">
				<title>Sheet.1113</title>
				<path d="M2.08 169.28 L0 170.27" class="st1"/>
			</g>
		</g>
		<g id="group1787-247" transform="translate(161.711,-45.4051)" v:mID="1787" v:groupContext="group">
			<title>Sheet.1787</title>
			<g id="shape1743-248" v:mID="1743" v:groupContext="shape" transform="translate(6.4948E-015,-0.984154)">
				<title>Sheet.1743</title>
				<path d="M0 167.2 L4.17 168.19 L2.08 169.28 L6.25 170.27 L5.66 168.52" class="st1"/>
			</g>
			<g id="shape1744-251" v:mID="1744" v:groupContext="shape" transform="translate(4.21888,0)">
				<title>Sheet.1744</title>
				<path d="M2.08 169.28 L0 170.27" class="st1"/>
			</g>
		</g>
		<g id="group916-254" transform="translate(0.36,-69.4414)" v:mID="916" v:groupContext="group">
			<title>Sheet.916</title>
			<g id="shape917-255" v:mID="917" v:groupContext="shape" transform="translate(117,0) scale(-1,1)">
				<title>Rectangle.811</title>
				<v:userDefs>
					<v:ud v:nameU="visVersion" v:val="VT0(11):26"/>
				</v:userDefs>
				<rect x="0" y="129.766" width="117" height="40.5" class="st13"/>
			</g>
			<g id="group1718-257" transform="translate(8.775,-5.48174)" v:mID="1718" v:groupContext="group">
				<title>Sheet.1718</title>
				<g id="shape1719-258" v:mID="1719" v:groupContext="shape" transform="translate(5.7727,-26.2286)">
					<title>Sheet.1719</title>
					<path d="M11.41 167.71 L11.07 170.27 L0 170.27 L0.34 167.71 L11.41 167.71 Z" class="st14"/>
				</g>
				<g id="shape1788-260" v:mID="1788" v:groupContext="shape" transform="translate(-165.327,154.913) rotate(-90)">
					<title>Sheet.1788</title>
					<path d="M13.43 167.86 L13.43 170.27 L0 169.06 L0 166.66 L13.43 167.86 Z" class="st14"/>
				</g>
				<g id="shape1789-262" v:mID="1789" v:groupContext="shape" transform="translate(-166.662,170.266) rotate(-90)">
					<title>Sheet.1789</title>
					<path d="M13.43 167.86 L13.43 170.27 L0 169.06 L0 166.66 L13.43 167.86 Z" class="st14"/>
				</g>
				<g id="shape1790-264" v:mID="1790" v:groupContext="shape" transform="translate(4.57145,-13.1143)">
					<title>Sheet.1790</title>
					<path d="M11.41 167.71 L11.07 170.27 L0 170.27 L0.34 167.71 L11.41 167.71 Z" class="st14"/>
				</g>
				<g id="shape1791-266" v:mID="1791" v:groupContext="shape" transform="translate(3.37019,-2.84217E-014)">
					<title>Sheet.1791</title>
					<path d="M11.41 167.71 L11.07 170.27 L0 170.27 L0.34 167.71 L11.41 167.71 Z" class="st14"/>
				</g>
				<g id="shape1792-268" v:mID="1792" v:groupContext="shape" transform="translate(-149.344,154.913) rotate(-90)">
					<title>Sheet.1792</title>
					<path d="M13.43 167.86 L13.43 170.27 L0 169.06 L0 166.66 L13.43 167.86 Z" class="st14"/>
				</g>
				<g id="shape1793-270" v:mID="1793" v:groupContext="shape" transform="translate(-150.679,170.266) rotate(-90)">
					<title>Sheet.1793</title>
					<path d="M13.43 167.86 L13.43 170.27 L0 169.06 L0 166.66 L13.43 167.86 Z" class="st14"/>
				</g>
			</g>
			<g id="group1794-272" transform="translate(36.3391,-5.48174)" v:mID="1794" v:groupContext="group">
				<title>Sheet.1794</title>
				<g id="shape1795-273" v:mID="1795" v:groupContext="shape" transform="translate(5.7727,-26.2286)">
					<title>Sheet.1795</title>
					<path d="M11.41 167.71 L11.07 170.27 L0 170.27 L0.34 167.71 L11.41 167.71 Z" class="st14"/>
				</g>
				<g id="shape1796-275" v:mID="1796" v:groupContext="shape" transform="translate(-165.327,154.913) rotate(-90)">
					<title>Sheet.1796</title>
					<path d="M13.43 167.86 L13.43 170.27 L0 169.06 L0 166.66 L13.43 167.86 Z" class="st14"/>
				</g>
				<g id="shape1797-277" v:mID="1797" v:groupContext="shape" transform="translate(-166.662,170.266) rotate(-90)">
					<title>Sheet.1797</title>
					<path d="M13.43 167.86 L13.43 170.27 L0 169.06 L0 166.66 L13.43 167.86 Z" class="st14"/>
				</g>
				<g id="shape1798-279" v:mID="1798" v:groupContext="shape" transform="translate(4.57145,-13.1143)">
					<title>Sheet.1798</title>
					<path d="M11.41 167.71 L11.07 170.27 L0 170.27 L0.34 167.71 L11.41 167.71 Z" class="st14"/>
				</g>
				<g id="shape1799-281" v:mID="1799" v:groupContext="shape" transform="translate(3.37019,-2.84217E-014)">
					<title>Sheet.1799</title>
					<path d="M11.41 167.71 L11.07 170.27 L0 170.27 L0.34 167.71 L11.41 167.71 Z" class="st14"/>
				</g>
				<g id="shape1800-283" v:mID="1800" v:groupContext="shape" transform="translate(-149.344,154.913) rotate(-90)">
					<title>Sheet.1800</title>
					<path d="M13.43 167.86 L13.43 170.27 L0 169.06 L0 166.66 L13.43 167.86 Z" class="st14"/>
				</g>
				<g id="shape1801-285" v:mID="1801" v:groupContext="shape" transform="translate(-150.679,170.266) rotate(-90)">
					<title>Sheet.1801</title>
					<path d="M13.43 167.86 L13.43 170.27 L0 169.06 L0 166.66 L13.43 167.86 Z" class="st14"/>
				</g>
			</g>
			<g id="group1802-287" transform="translate(64.35,-5.48174)" v:mID="1802" v:groupContext="group">
				<title>Sheet.1802</title>
				<g id="shape1803-288" v:mID="1803" v:groupContext="shape" transform="translate(5.7727,-26.2286)">
					<title>Sheet.1803</title>
					<path d="M11.41 167.71 L11.07 170.27 L0 170.27 L0.34 167.71 L11.41 167.71 Z" class="st14"/>
				</g>
				<g id="shape1804-290" v:mID="1804" v:groupContext="shape" transform="translate(-165.327,154.913) rotate(-90)">
					<title>Sheet.1804</title>
					<path d="M13.43 167.86 L13.43 170.27 L0 169.06 L0 166.66 L13.43 167.86 Z" class="st14"/>
				</g>
				<g id="shape1805-292" v:mID="1805" v:groupContext="shape" transform="translate(-166.662,170.266) rotate(-90)">
					<title>Sheet.1805</title>
					<path d="M13.43 167.86 L13.43 170.27 L0 169.06 L0 166.66 L13.43 167.86 Z" class="st14"/>
				</g>
				<g id="shape1806-294" v:mID="1806" v:groupContext="shape" transform="translate(4.57145,-13.1143)">
					<title>Sheet.1806</title>
					<path d="M11.41 167.71 L11.07 170.27 L0 170.27 L0.34 167.71 L11.41 167.71 Z" class="st14"/>
				</g>
				<g id="shape1807-296" v:mID="1807" v:groupContext="shape" transform="translate(3.37019,-2.84217E-014)">
					<title>Sheet.1807</title>
					<path d="M11.41 167.71 L11.07 170.27 L0 170.27 L0.34 167.71 L11.41 167.71 Z" class="st14"/>
				</g>
				<g id="shape1808-298" v:mID="1808" v:groupContext="shape" transform="translate(-149.344,154.913) rotate(-90)">
					<title>Sheet.1808</title>
					<path d="M13.43 167.86 L13.43 170.27 L0 169.06 L0 166.66 L13.43 167.86 Z" class="st14"/>
				</g>
				<g id="shape1809-300" v:mID="1809" v:groupContext="shape" transform="translate(-150.679,170.266) rotate(-90)">
					<title>Sheet.1809</title>
					<path d="M13.43 167.86 L13.43 170.27 L0 169.06 L0 166.66 L13.43 167.86 Z" class="st14"/>
				</g>
			</g>
			<g id="group1810-302" transform="translate(90.675,-5.48174)" v:mID="1810" v:groupContext="group">
				<title>Sheet.1810</title>
				<g id="shape1811-303" v:mID="1811" v:groupContext="shape" transform="translate(5.7727,-26.2286)">
					<title>Sheet.1811</title>
					<path d="M11.41 167.71 L11.07 170.27 L0 170.27 L0.34 167.71 L11.41 167.71 Z" class="st14"/>
				</g>
				<g id="shape1812-305" v:mID="1812" v:groupContext="shape" transform="translate(-165.327,154.913) rotate(-90)">
					<title>Sheet.1812</title>
					<path d="M13.43 167.86 L13.43 170.27 L0 169.06 L0 166.66 L13.43 167.86 Z" class="st14"/>
				</g>
				<g id="shape1813-307" v:mID="1813" v:groupContext="shape" transform="translate(-166.662,170.266) rotate(-90)">
					<title>Sheet.1813</title>
					<path d="M13.43 167.86 L13.43 170.27 L0 169.06 L0 166.66 L13.43 167.86 Z" class="st14"/>
				</g>
				<g id="shape1814-309" v:mID="1814" v:groupContext="shape" transform="translate(4.57145,-13.1143)">
					<title>Sheet.1814</title>
					<path d="M11.41 167.71 L11.07 170.27 L0 170.27 L0.34 167.71 L11.41 167.71 Z" class="st14"/>
				</g>
				<g id="shape1815-311" v:mID="1815" v:groupContext="shape" transform="translate(3.37019,-2.84217E-014)">
					<title>Sheet.1815</title>
					<path d="M11.41 167.71 L11.07 170.27 L0 170.27 L0.34 167.71 L11.41 167.71 Z" class="st14"/>
				</g>
				<g id="shape1816-313" v:mID="1816" v:groupContext="shape" transform="translate(-149.344,154.913) rotate(-90)">
					<title>Sheet.1816</title>
					<path d="M13.43 167.86 L13.43 170.27 L0 169.06 L0 166.66 L13.43 167.86 Z" class="st14"/>
				</g>
				<g id="shape1817-315" v:mID="1817" v:groupContext="shape" transform="translate(-150.679,170.266) rotate(-90)">
					<title>Sheet.1817</title>
					<path d="M13.43 167.86 L13.43 170.27 L0 169.06 L0 166.66 L13.43 167.86 Z" class="st14"/>
				</g>
			</g>
			<g id="shape1819-317" v:mID="1819" v:groupContext="shape" transform="translate(29.25,-5.52112)">
				<title>Sheet.1819</title>
				<path d="M0 168.79 L0.2 168.1 L0.59 167.6 L1.17 167.31 L1.86 167.31 L2.44 167.6 L2.83 168.1 L2.93 168.79 L2.83 169.48
							 L2.44 169.97 L1.86 170.27 L1.17 170.27 L0.59 169.97 L0.2 169.48 L0 168.79 L0 168.79 Z" class="st15"/>
			</g>
			<g id="shape1820-319" v:mID="1820" v:groupContext="shape" transform="translate(57.0317,-5.52112)">
				<title>Sheet.1820</title>
				<path d="M0 168.79 L0.2 168.1 L0.59 167.6 L1.17 167.31 L1.86 167.31 L2.44 167.6 L2.83 168.1 L2.93 168.79 L2.83 169.48
							 L2.44 169.97 L1.86 170.27 L1.17 170.27 L0.59 169.97 L0.2 169.48 L0 168.79 L0 168.79 Z" class="st15"/>
			</g>
			<g id="shape1821-321" v:mID="1821" v:groupContext="shape" transform="translate(84.8192,-5.52112)">
				<title>Sheet.1821</title>
				<path d="M0 168.79 L0.2 168.1 L0.59 167.6 L1.17 167.31 L1.86 167.31 L2.44 167.6 L2.83 168.1 L2.93 168.79 L2.83 169.48
							 L2.44 169.97 L1.86 170.27 L1.17 170.27 L0.59 169.97 L0.2 169.48 L0 168.79 L0 168.79 Z" class="st15"/>
			</g>
			<g id="shape1822-323" v:mID="1822" v:groupContext="shape" transform="translate(111.424,-5.39583)">
				<title>Sheet.1822</title>
				<path d="M0 168.79 L0.2 168.1 L0.59 167.6 L1.17 167.31 L1.86 167.31 L2.44 167.6 L2.83 168.1 L2.93 168.79 L2.83 169.48
							 L2.44 169.97 L1.86 170.27 L1.17 170.27 L0.59 169.97 L0.2 169.48 L0 168.79 L0 168.79 Z" class="st15"/>
			</g>
		</g>
		<g id="shape1823-325" v:mID="1823" v:groupContext="shape" transform="translate(237.735,-26.7754)">
			<title>Circle</title>
			<path d="M0 163.52 A6.75 6.75 0 0 1 13.5 163.52 A6.75 6.75 0 1 1 0 163.52 Z" class="st16"/>
		</g>
		<g id="shape1818-327" v:mID="1818" v:groupContext="shape" transform="translate(240.373,-29.797)">
			<title>Sheet.1818</title>
			<path d="M0 164.14 L8.22 164.14 L4.17 170.27 L0 164.14 Z" class="st3"/>
		</g>
		<g id="shape1824-329" v:mID="1824" v:groupContext="shape" transform="translate(244.485,-35.9206)">
			<title>Sheet.1824</title>
			<path d="M0 170.27 L0 159.99" class="st5"/>
		</g>
		<g id="shape1825-332" v:mID="1825" v:groupContext="shape" transform="translate(244.485,-18.4114)">
			<title>Sheet.1825</title>
			<path d="M0 158.02 L0 170.27" class="st6"/>
		</g>
		<g id="shape1826-335" v:mID="1826" v:groupContext="shape" transform="translate(248.672,-29.797)">
			<title>Sheet.1826</title>
			<path d="M0 167.2 L4.17 168.19 L2.08 169.28 L6.25 170.27 L5.59 168.52" class="st1"/>
		</g>
		<g id="shape1828-338" v:mID="1828" v:groupContext="shape" transform="translate(247.298,-14.9245)">
			<title>Circle.1828</title>
			<v:userDefs>
				<v:ud v:nameU="visVersion" v:val="VT0(11):26"/>
			</v:userDefs>
			<path d="M0 169.37 a0.9 0.9 0 1 1 1.8 0 a0.9 0.9 0 0 1 -1.8 0 Z" class="st11"/>
		</g>
		<g id="shape1829-340" v:mID="1829" v:groupContext="shape" transform="translate(252.922,-28.6038)">
			<title>Sheet.1829</title>
			<path d="M2.08 169.28 L0 170.27" class="st1"/>
		</g>
		<g id="shape1827-343" v:mID="1827" v:groupContext="shape" transform="translate(244.485,-15.8245)">
			<title>Sheet.1827</title>
			<path d="M0 167.45 C0 168.37 0.49 168.69 0.95 168.88 C1.27 169.02 1.58 169.1 1.84 169.13 C2.56 169.21 2.81 168.86 3.71
						 170.27" class="st6"/>
		</g>
		<g id="shape1830-346" v:mID="1830" v:groupContext="shape" transform="translate(115.815,199.864) rotate(-120.315)">
			<title>Sheet.1830</title>
			<path d="M0 149.05 C43.3 173.07 38.29 144.21 44.94 139.71 C53.78 133.71 83.27 170.87 99.02 170.27 C111.84 169.78 115.55
						 144.27 123.7 149.05" class="st5"/>
		</g>
		<g id="shape1831-349" v:mID="1831" v:groupContext="shape" transform="translate(246.735,-40.012)">
			<title>Sheet.1831</title>
			<desc>DP</desc>
			<v:textBlock v:margins="rect(0,0,0,0)"/>
			<v:textRect cx="7.875" cy="164.82" width="15.75" height="10.8913"/>
			<text x="0.93" y="167.82" class="st4" v:langID="1033"><v:paragraph v:horizAlign="1"/><v:tabList/>DP</text>		</g>
		<g id="shape1844-351" v:mID="1844" v:groupContext="shape" transform="translate(9.36,-116.691)">
			<title>Sheet.1844</title>
			<desc>AN1</desc>
			<v:textBlock v:margins="rect(0,0,0,0)"/>
			<v:textRect cx="9" cy="165.293" width="18" height="9.94565"/>
			<text x="1" y="167.69" class="st17" v:langID="1033"><v:paragraph v:horizAlign="1"/><v:tabList/>AN1</text>		</g>
		<g id="shape1845-353" v:mID="1845" v:groupContext="shape" transform="translate(35.235,-116.691)">
			<title>Sheet.1845</title>
			<desc>AN2</desc>
			<v:textBlock v:margins="rect(0,0,0,0)"/>
			<v:textRect cx="10.125" cy="165.293" width="20.25" height="9.94565"/>
			<text x="2.12" y="167.69" class="st17" v:langID="1033"><v:paragraph v:horizAlign="1"/><v:tabList/>AN2</text>		</g>
		<g id="shape1846-355" v:mID="1846" v:groupContext="shape" transform="translate(63.36,-116.691)">
			<title>Sheet.1846</title>
			<desc>AN3</desc>
			<v:textBlock v:margins="rect(0,0,0,0)"/>
			<v:textRect cx="9" cy="165.293" width="18" height="9.94565"/>
			<text x="1" y="167.69" class="st17" v:langID="1033"><v:paragraph v:horizAlign="1"/><v:tabList/>AN3</text>		</g>
		<g id="shape1847-357" v:mID="1847" v:groupContext="shape" transform="translate(89.235,-116.691)">
			<title>Sheet.1847</title>
			<desc>AN4</desc>
			<v:textBlock v:margins="rect(0,0,0,0)"/>
			<v:textRect cx="10.125" cy="165.293" width="20.25" height="9.94565"/>
			<text x="2.12" y="167.69" class="st17" v:langID="1033"><v:paragraph v:horizAlign="1"/><v:tabList/>AN4</text>		</g>
		<g id="shape1848-359" v:mID="1848" v:groupContext="shape" transform="translate(4.86,-53.512)">
			<title>Sheet.1848</title>
			<desc>CA</desc>
			<v:textBlock v:margins="rect(0,0,0,0)"/>
			<v:textRect cx="6.75" cy="165.203" width="13.5" height="10.125"/>
			<text x="0.97" y="167.6" class="st17" v:langID="1033"><v:paragraph v:horizAlign="1"/><v:tabList/>CA</text>		</g>
		<g id="shape1849-361" v:mID="1849" v:groupContext="shape" transform="translate(18.36,-53.512)">
			<title>Sheet.1849</title>
			<desc>CB</desc>
			<v:textBlock v:margins="rect(0,0,0,0)"/>
			<v:textRect cx="6.75" cy="165.203" width="13.5" height="10.125"/>
			<text x="0.97" y="167.6" class="st17" v:langID="1033"><v:paragraph v:horizAlign="1"/><v:tabList/>CB</text>		</g>
		<g id="shape1850-363" v:mID="1850" v:groupContext="shape" transform="translate(31.86,-53.512)">
			<title>Sheet.1850</title>
			<desc>CC</desc>
			<v:textBlock v:margins="rect(0,0,0,0)"/>
			<v:textRect cx="6.75" cy="165.203" width="13.5" height="10.125"/>
			<text x="0.97" y="167.6" class="st17" v:langID="1033"><v:paragraph v:horizAlign="1"/><v:tabList/>CC</text>		</g>
		<g id="shape1851-365" v:mID="1851" v:groupContext="shape" transform="translate(45.36,-53.512)">
			<title>Sheet.1851</title>
			<desc>CD</desc>
			<v:textBlock v:margins="rect(0,0,0,0)"/>
			<v:textRect cx="6.75" cy="165.203" width="13.5" height="10.125"/>
			<text x="0.97" y="167.6" class="st17" v:langID="1033"><v:paragraph v:horizAlign="1"/><v:tabList/>CD</text>		</g>
		<g id="shape1852-367" v:mID="1852" v:groupContext="shape" transform="translate(58.86,-53.512)">
			<title>Sheet.1852</title>
			<desc>CE</desc>
			<v:textBlock v:margins="rect(0,0,0,0)"/>
			<v:textRect cx="6.75" cy="165.203" width="13.5" height="10.125"/>
			<text x="1.19" y="167.6" class="st17" v:langID="1033"><v:paragraph v:horizAlign="1"/><v:tabList/>CE</text>		</g>
		<g id="shape1853-369" v:mID="1853" v:groupContext="shape" transform="translate(72.36,-53.512)">
			<title>Sheet.1853</title>
			<desc>CF</desc>
			<v:textBlock v:margins="rect(0,0,0,0)"/>
			<v:textRect cx="6.75" cy="165.203" width="13.5" height="10.125"/>
			<text x="1.42" y="167.6" class="st17" v:langID="1033"><v:paragraph v:horizAlign="1"/><v:tabList/>CF</text>		</g>
		<g id="shape1854-371" v:mID="1854" v:groupContext="shape" transform="translate(85.86,-53.512)">
			<title>Sheet.1854</title>
			<desc>CG</desc>
			<v:textBlock v:margins="rect(0,0,0,0)"/>
			<v:textRect cx="6.75" cy="165.203" width="13.5" height="10.125"/>
			<text x="0.75" y="167.6" class="st17" v:langID="1033"><v:paragraph v:horizAlign="1"/><v:tabList/>CG</text>		</g>
		<g id="shape1855-373" v:mID="1855" v:groupContext="shape" transform="translate(99.36,-53.512)">
			<title>Sheet.1855</title>
			<desc>DP</desc>
			<v:textBlock v:margins="rect(0,0,0,0)"/>
			<v:textRect cx="6.75" cy="165.203" width="13.5" height="10.125"/>
			<text x="1.19" y="167.6" class="st17" v:langID="1033"><v:paragraph v:horizAlign="1"/><v:tabList/>DP</text>		</g>
		<g id="shape1114-375" v:mID="1114" v:groupContext="shape" transform="translate(112.86,-107.231)">
			<title>Sheet.1114</title>
			<path d="M-0 170.27 A25.1674 17.8269 6.41 0 1 27 155.36 A9 2.25 0 0 1 36 157.61" class="st1"/>
		</g>
		<g id="shape1856-378" v:mID="1856" v:groupContext="shape" transform="translate(112.86,-107.231)">
			<title>Sheet.1856</title>
			<path d="M-0 170.27 A27.3075 22.056 5.36 0 1 29.25 150.86 A8.40573 1.80123 3.08 0 1 37.55 153.11 L38.25 150.86 L42.75
						 157.61 L34.87 159.3 L36 157.61" class="st1"/>
		</g>
		<g id="shape1857-381" v:mID="1857" v:groupContext="shape" transform="translate(9.36,-30.6935)">
			<title>Sheet.1857</title>
			<desc>Four-digit Seven Segment Display</desc>
			<v:textBlock v:margins="rect(0,0,0,0)"/>
			<v:textRect cx="48.6563" cy="164.322" width="97.32" height="11.887"/>
			<text x="15.64" y="161.62" class="st10" v:langID="1033"><v:paragraph v:horizAlign="1"/><v:tabList/>Four-digit Seven <tspan
						x="14.64" dy="1.2em" class="st18">Segment Display</tspan></text>		</g>
	</g>
</svg>
