<?xml version="1.0" encoding="UTF-8" standalone="no"?>
<!DOCTYPE svg PUBLIC "-//W3C//DTD SVG 1.1//EN" "http://www.w3.org/Graphics/SVG/1.1/DTD/svg11.dtd">
<!-- Generated by Microsoft Visio, SVG Export SM_Logic.svg Page-1 -->
<svg xmlns="http://www.w3.org/2000/svg" xmlns:xlink="http://www.w3.org/1999/xlink" xmlns:ev="http://www.w3.org/2001/xml-events"
		xmlns:v="http://schemas.microsoft.com/visio/2003/SVGExtensions/" width="5.43208in" height="2.51in"
		viewBox="0 0 391.11 180.72" xml:space="preserve" color-interpolation-filters="sRGB" class="st14">
	<v:documentProperties v:langID="1033" v:viewMarkup="false"/>

	<style type="text/css">
	<![CDATA[
		.st1 {fill:#fddeb0;stroke:#000000;stroke-linecap:round;stroke-linejoin:round;stroke-width:0.24}
		.st2 {fill:#d5e1fb;stroke:#000000;stroke-linecap:round;stroke-linejoin:round;stroke-width:0.24}
		.st3 {fill:#000000;font-family:Arial;font-size:0.75em}
		.st4 {font-size:1.11111em;font-weight:bold}
		.st5 {font-size:1em}
		.st6 {fill:#000000;font-family:Arial;font-size:0.833336em}
		.st7 {stroke:#000000;stroke-linecap:round;stroke-linejoin:round;stroke-width:0.72}
		.st8 {fill:#000000;stroke:#000000;stroke-linecap:round;stroke-linejoin:round;stroke-width:0.72}
		.st9 {baseline-shift:-32.4947%;font-size:0.649894em}
		.st10 {marker-end:url(#mrkr4-56);stroke:#000000;stroke-linecap:round;stroke-linejoin:round;stroke-width:0.72}
		.st11 {fill:#000000;fill-opacity:1;stroke:#000000;stroke-opacity:1;stroke-width:0.33333333333333}
		.st12 {fill:none;stroke:none;stroke-linecap:round;stroke-linejoin:round;stroke-width:0.72}
		.st13 {fill:#000000;font-family:Arial;font-size:1.16666em;font-weight:bold}
		.st14 {fill:none;fill-rule:evenodd;font-size:12px;overflow:visible;stroke-linecap:square;stroke-miterlimit:3}
	]]>
	</style>

	<defs id="Markers">
		<g id="lend4">
			<path d="M 2 1 L 0 0 L 2 -1 L 2 1 " style="stroke:none"/>
		</g>
		<marker id="mrkr4-56" class="st11" v:arrowType="4" v:arrowSize="0" v:setback="6" refX="-6" orient="auto"
				markerUnits="strokeWidth" overflow="visible">
			<use xlink:href="#lend4" transform="scale(-3,-3) "/>
		</marker>
	</defs>
	<g v:mID="0" v:index="1" v:groupContext="foregroundPage">
		<title>Page-1</title>
		<v:pageProperties v:drawingScale="1" v:pageScale="1" v:drawingUnits="19" v:shadowOffsetX="9" v:shadowOffsetY="-9"/>
		<g id="shape1-1" v:mID="1" v:groupContext="shape" transform="translate(188.61,-45.36)">
			<title>Sheet.1</title>
			<rect x="0" y="59.22" width="58.5" height="121.5" class="st1"/>
		</g>
		<g id="shape2-3" v:mID="2" v:groupContext="shape" transform="translate(67.1099,-45.36)">
			<title>Sheet.2</title>
			<rect x="0" y="59.22" width="94.5" height="121.5" class="st1"/>
		</g>
		<g id="shape3-5" v:mID="3" v:groupContext="shape" transform="translate(103.11,-112.86)">
			<title>Sheet.3</title>
			<desc>Flip-flop A NS logic circuit</desc>
			<v:textBlock v:margins="rect(4,4,4,4)"/>
			<v:textRect cx="27" cy="155.97" width="54" height="49.5"/>
			<rect x="0" y="131.22" width="54" height="49.5" class="st2"/>
			<text x="6.13" y="148.17" class="st3" v:langID="1033"><v:paragraph v:horizAlign="1"/><v:tabList/>Flip-flop <tspan
						class="st4">A</tspan> <tspan x="10.24" dy="1.233em" class="st5">NS logic </tspan><tspan x="15.25"
						dy="1.2em" class="st5">circuit</tspan></text>		</g>
		<g id="shape4-11" v:mID="4" v:groupContext="shape" transform="translate(103.11,-49.86)">
			<title>Sheet.4</title>
			<desc>Flip-flop B NS logic circuit</desc>
			<v:textBlock v:margins="rect(4,4,4,4)"/>
			<v:textRect cx="27" cy="155.97" width="54" height="49.5"/>
			<rect x="0" y="131.22" width="54" height="49.5" class="st2"/>
			<text x="6.13" y="148.17" class="st3" v:langID="1033"><v:paragraph v:horizAlign="1"/><v:tabList/>Flip-flop <tspan
						class="st4">B </tspan><tspan x="10.24" dy="1.233em" class="st5">NS logic </tspan><tspan x="15.25"
						dy="1.2em" class="st5">circuit</tspan></text>		</g>
		<g id="shape5-17" v:mID="5" v:groupContext="shape" transform="translate(0.390136,-12.735)">
			<title>Sheet.5</title>
			<desc>Rst</desc>
			<v:textBlock v:margins="rect(0,0,0,0)"/>
			<v:textRect cx="14.2349" cy="176.22" width="28.47" height="9"/>
			<text x="13.47" y="179.22" class="st6" v:langID="1033"><v:paragraph v:horizAlign="2"/><v:tabList/>Rst</text>		</g>
		<g id="shape6-19" v:mID="6" v:groupContext="shape" transform="translate(58.1099,-153.36)">
			<title>Sheet.6</title>
			<path d="M198 180.72 L198 162.72 L0 162.72 L0 176.28 L46.05 176.22" class="st7"/>
		</g>
		<g id="shape7-22" v:mID="7" v:groupContext="shape" transform="translate(49.1099,-90.36)">
			<title>Sheet.7</title>
			<path d="M216 180.72 L216 90.72 L0 90.72 L0 122.28 L54 122.22" class="st7"/>
		</g>
		<g id="shape8-25" v:mID="8" v:groupContext="shape" transform="translate(254.982,-152.364)">
			<title>Sheet.8</title>
			<path d="M0 179.72 L0.24 179.06 L0.83 178.73 L1.43 178.73 L2.02 179.06 L2.26 179.72 L2.02 180.39 L1.43 180.72 L0.83 180.72
						 L0.24 180.39 L0 179.72 Z" class="st8"/>
		</g>
		<g id="shape9-27" v:mID="9" v:groupContext="shape" transform="translate(263.982,-89.3638)">
			<title>Sheet.9</title>
			<path d="M0 179.72 L0.24 179.06 L0.83 178.73 L1.43 178.73 L2.02 179.06 L2.26 179.72 L2.02 180.39 L1.43 180.72 L0.83 180.72
						 L0.24 180.39 L0 179.72 Z" class="st8"/>
		</g>
		<g id="shape10-29" v:mID="10" v:groupContext="shape" transform="translate(31.1099,-135.36)">
			<title>Sheet.10</title>
			<path d="M72 180.72 L0 180.72" class="st7"/>
		</g>
		<g id="shape11-32" v:mID="11" v:groupContext="shape" transform="translate(31.1099,-126.36)">
			<title>Sheet.11</title>
			<path d="M72 180.72 L0 180.72" class="st7"/>
		</g>
		<g id="shape12-35" v:mID="12" v:groupContext="shape" transform="translate(31.1099,-117.36)">
			<title>Sheet.12</title>
			<path d="M72 180.72 L0 180.72" class="st7"/>
		</g>
		<g id="shape13-38" v:mID="13" v:groupContext="shape" transform="translate(56.9849,-134.419)">
			<title>Sheet.13</title>
			<path d="M0 179.83 L0.24 179.17 L0.83 178.84 L1.43 178.84 L2.02 179.17 L2.26 179.83 L2.02 180.39 L1.43 180.72 L0.83 180.72
						 L0.24 180.39 L0 179.83 Z" class="st8"/>
		</g>
		<g id="shape14-40" v:mID="14" v:groupContext="shape" transform="translate(47.9817,-125.419)">
			<title>Sheet.14</title>
			<path d="M0 179.83 L0.24 179.17 L0.83 178.84 L1.43 178.84 L2.02 179.17 L2.26 179.83 L2.02 180.39 L1.43 180.72 L0.83 180.72
						 L0.24 180.39 L0 179.83 Z" class="st8"/>
		</g>
		<g id="shape15-42" v:mID="15" v:groupContext="shape" transform="translate(20.0478,-130.86)">
			<title>Sheet.15</title>
			<desc>X</desc>
			<v:textBlock v:margins="rect(0,0,0,0)"/>
			<v:textRect cx="3.33381" cy="175.208" width="6.67" height="11.0244"/>
			<text x="0" y="178.21" class="st6" v:langID="1033"><v:paragraph v:horizAlign="2"/><v:tabList/>X</text>		</g>
		<g id="shape16-44" v:mID="16" v:groupContext="shape" transform="translate(20.2853,-110.723)">
			<title>Sheet.16</title>
			<desc>Z</desc>
			<v:textBlock v:margins="rect(0,0,0,0)"/>
			<v:textRect cx="3.03615" cy="175.208" width="6.08" height="11.0244"/>
			<text x="0" y="178.21" class="st6" v:langID="1033"><v:paragraph v:horizAlign="2"/><v:tabList/>Z</text>		</g>
		<g id="shape17-46" v:mID="17" v:groupContext="shape" transform="translate(20.1666,-120.848)">
			<title>Sheet.17</title>
			<desc>Y</desc>
			<v:textBlock v:margins="rect(0,0,0,0)"/>
			<v:textRect cx="3.21475" cy="175.208" width="6.43" height="11.0244"/>
			<text x="0" y="178.21" class="st6" v:langID="1033"><v:paragraph v:horizAlign="2"/><v:tabList/>Y</text>		</g>
		<g id="shape18-48" v:mID="18" v:groupContext="shape" transform="translate(166.11,-135.36)">
			<title>Sheet.18</title>
			<desc>ANS</desc>
			<v:textBlock v:margins="rect(0,0,0,0)"/>
			<v:textRect cx="9" cy="176.22" width="18" height="9"/>
			<text x="1.15" y="179.22" class="st6" v:langID="1033"><v:paragraph v:horizAlign="1"/><v:tabList/>A<tspan dy="-0.287em"
						class="st9" v:baseFontSize="10">NS</tspan></text>		</g>
		<g id="shape19-51" v:mID="19" v:groupContext="shape" transform="translate(355.828,37.1202) rotate(-89.759) scale(1,-1)">
			<title>Sheet.19</title>
			<path d="M0 180.72 L4.02 180.72" class="st10"/>
		</g>
		<g id="shape20-57" v:mID="20" v:groupContext="shape" transform="translate(355.865,81.36) rotate(90)">
			<title>Sheet.20</title>
			<path d="M0 180.72 L4.02 180.72" class="st10"/>
		</g>
		<g id="shape21-62" v:mID="21" v:groupContext="shape" transform="translate(211.113,-117.36)">
			<title>Rectangle.238</title>
			<rect x="0" y="135.72" width="31.5" height="45" class="st2"/>
		</g>
		<g id="shape22-64" v:mID="22" v:groupContext="shape" transform="translate(195.36,-135.36)">
			<title>Sheet.22</title>
			<path d="M0 180.72 L15.75 180.72" class="st7"/>
		</g>
		<g id="shape23-67" v:mID="23" v:groupContext="shape" transform="translate(157.11,-153.36)">
			<title>Sheet.23</title>
			<path d="M0 180.72 L54 180.72" class="st7"/>
		</g>
		<g id="shape24-70" v:mID="24" v:groupContext="shape" transform="translate(202.11,-112.86)">
			<title>Sheet.24</title>
			<path d="M0 180.72 L24.75 180.72" class="st7"/>
		</g>
		<g id="shape25-73" v:mID="25" v:groupContext="shape" transform="translate(46.1399,67.731) rotate(-89.9591)">
			<title>Sheet.25</title>
			<path d="M0 180.72 L4.5 180.72" class="st7"/>
		</g>
		<g id="shape26-76" v:mID="26" v:groupContext="shape" transform="translate(211.113,-146.61)">
			<title>Sheet.26</title>
			<desc>D</desc>
			<v:textBlock v:margins="rect(4,4,4,4)"/>
			<v:textRect cx="9" cy="173.97" width="18" height="13.5"/>
			<rect x="0" y="167.22" width="18" height="13.5" class="st12"/>
			<text x="5.75" y="176.67" class="st3" v:langID="1033"><v:paragraph v:horizAlign="1"/><v:tabList/>D</text>		</g>
		<g id="shape27-79" v:mID="27" v:groupContext="shape" transform="translate(226.863,-146.61)">
			<title>Sheet.27</title>
			<desc>Q</desc>
			<v:textBlock v:margins="rect(4,4,4,4)"/>
			<v:textRect cx="9" cy="173.97" width="18" height="13.5"/>
			<rect x="0" y="167.22" width="18" height="13.5" class="st12"/>
			<text x="5.5" y="176.67" class="st3" v:langID="1033"><v:paragraph v:horizAlign="1"/><v:tabList/>Q</text>		</g>
		<g id="shape28-82" v:mID="28" v:groupContext="shape" transform="translate(214.488,-117.36)">
			<title>Sheet.28</title>
			<desc>Rst</desc>
			<v:textBlock v:margins="rect(4,4,4,4)"/>
			<v:textRect cx="11.8125" cy="176.22" width="23.63" height="9"/>
			<rect x="0" y="171.72" width="23.625" height="9" class="st12"/>
			<text x="5.06" y="178.92" class="st3" v:langID="1033"><v:paragraph v:horizAlign="1"/><v:tabList/>Rst</text>		</g>
		<g id="shape29-85" v:mID="29" v:groupContext="shape" transform="translate(211.113,-130.86)">
			<title>Sheet.29</title>
			<path d="M0 180.72 L6.75 176.22 L0 171.72" class="st7"/>
		</g>
		<g id="shape30-88" v:mID="30" v:groupContext="shape" transform="translate(211.113,-54.36)">
			<title>Rectangle.152</title>
			<rect x="0" y="135.72" width="31.5" height="45" class="st2"/>
		</g>
		<g id="shape31-90" v:mID="31" v:groupContext="shape" transform="translate(195.36,-72.36)">
			<title>Sheet.31</title>
			<path d="M0 180.72 L15.75 180.72" class="st7"/>
		</g>
		<g id="shape32-93" v:mID="32" v:groupContext="shape" transform="translate(157.11,-90.36)">
			<title>Sheet.32</title>
			<path d="M0 180.72 L54 180.72" class="st7"/>
		</g>
		<g id="shape33-96" v:mID="33" v:groupContext="shape" transform="translate(202.11,-49.86)">
			<title>Sheet.33</title>
			<path d="M0 180.72 L24.75 180.72" class="st7"/>
		</g>
		<g id="shape34-99" v:mID="34" v:groupContext="shape" transform="translate(46.1399,130.731) rotate(-89.9591)">
			<title>Sheet.34</title>
			<path d="M0 180.72 L4.5 180.72" class="st7"/>
		</g>
		<g id="shape35-102" v:mID="35" v:groupContext="shape" transform="translate(211.113,-83.61)">
			<title>Sheet.35</title>
			<desc>D</desc>
			<v:textBlock v:margins="rect(4,4,4,4)"/>
			<v:textRect cx="9" cy="173.97" width="18" height="13.5"/>
			<rect x="0" y="167.22" width="18" height="13.5" class="st12"/>
			<text x="5.75" y="176.67" class="st3" v:langID="1033"><v:paragraph v:horizAlign="1"/><v:tabList/>D</text>		</g>
		<g id="shape36-105" v:mID="36" v:groupContext="shape" transform="translate(226.863,-83.61)">
			<title>Sheet.36</title>
			<desc>Q</desc>
			<v:textBlock v:margins="rect(4,4,4,4)"/>
			<v:textRect cx="9" cy="173.97" width="18" height="13.5"/>
			<rect x="0" y="167.22" width="18" height="13.5" class="st12"/>
			<text x="5.5" y="176.67" class="st3" v:langID="1033"><v:paragraph v:horizAlign="1"/><v:tabList/>Q</text>		</g>
		<g id="shape37-108" v:mID="37" v:groupContext="shape" transform="translate(214.488,-54.36)">
			<title>Sheet.37</title>
			<desc>Rst</desc>
			<v:textBlock v:margins="rect(4,4,4,4)"/>
			<v:textRect cx="11.8125" cy="176.22" width="23.63" height="9"/>
			<rect x="0" y="171.72" width="23.625" height="9" class="st12"/>
			<text x="5.06" y="178.92" class="st3" v:langID="1033"><v:paragraph v:horizAlign="1"/><v:tabList/>Rst</text>		</g>
		<g id="shape38-111" v:mID="38" v:groupContext="shape" transform="translate(211.113,-67.86)">
			<title>Sheet.38</title>
			<path d="M0 180.72 L6.75 176.22 L0 171.72" class="st7"/>
		</g>
		<g id="shape39-114" v:mID="39" v:groupContext="shape" transform="translate(31.1099,-27.36)">
			<title>Sheet.39</title>
			<path d="M164.25 72.72 L164.25 180.72 L0 180.72" class="st7"/>
		</g>
		<g id="shape40-117" v:mID="40" v:groupContext="shape" transform="translate(31.1099,-18.36)">
			<title>Sheet.40</title>
			<path d="M171 86.22 L171 180.72 L0 180.72" class="st7"/>
		</g>
		<g id="shape41-120" v:mID="41" v:groupContext="shape" transform="translate(201.547,-49.3896)">
			<title>Sheet.41</title>
			<path d="M0 180.28 L0.12 179.95 L0.41 179.78 L0.71 179.78 L1.01 179.95 L1.12 180.28 L1.01 180.55 L0.71 180.72 L0.41 180.72
						 L0.12 180.55 L0 180.28 Z" class="st8"/>
		</g>
		<g id="shape42-122" v:mID="42" v:groupContext="shape" transform="translate(166.11,-101.61)">
			<title>Sheet.42</title>
			<desc>BNS</desc>
			<v:textBlock v:margins="rect(0,0,0,0)"/>
			<v:textRect cx="9" cy="176.22" width="18" height="9"/>
			<text x="1.15" y="179.22" class="st6" v:langID="1033"><v:paragraph v:horizAlign="1"/><v:tabList/>B<tspan dy="-0.287em"
						class="st9" v:baseFontSize="10">NS</tspan></text>		</g>
		<g id="shape43-125" v:mID="43" v:groupContext="shape" transform="translate(296.61,-58.86)">
			<title>Sheet.43</title>
			<rect x="0" y="72.72" width="54" height="108" class="st1"/>
		</g>
		<g id="shape44-127" v:mID="44" v:groupContext="shape" transform="translate(269.61,-135.36)">
			<title>Sheet.44</title>
			<desc>APS</desc>
			<v:textBlock v:margins="rect(0,0,0,0)"/>
			<v:textRect cx="9" cy="176.22" width="18" height="9"/>
			<text x="1.33" y="179.22" class="st6" v:langID="1033"><v:paragraph v:horizAlign="1"/><v:tabList/>A<tspan dy="-0.287em"
						class="st9" v:baseFontSize="10">PS</tspan></text>		</g>
		<g id="shape45-130" v:mID="45" v:groupContext="shape" transform="translate(269.61,-101.61)">
			<title>Sheet.45</title>
			<desc>BPS</desc>
			<v:textBlock v:margins="rect(0,0,0,0)"/>
			<v:textRect cx="9" cy="176.22" width="18" height="9"/>
			<text x="1.33" y="179.22" class="st6" v:langID="1033"><v:paragraph v:horizAlign="1"/><v:tabList/>B<tspan dy="-0.287em"
						class="st9" v:baseFontSize="10">PS</tspan></text>		</g>
		<g id="shape46-133" v:mID="46" v:groupContext="shape" transform="translate(-2.19824E-014,-23.985)">
			<title>Sheet.46</title>
			<desc>Clk</desc>
			<v:textBlock v:margins="rect(0,0,0,0)"/>
			<v:textRect cx="14.2349" cy="176.22" width="28.47" height="9"/>
			<text x="14.03" y="179.22" class="st6" v:langID="1033"><v:paragraph v:horizAlign="2"/><v:tabList/>Clk</text>		</g>
		<g id="shape47-135" v:mID="47" v:groupContext="shape" transform="translate(238.83,45.36) rotate(90)">
			<title>Sheet.47</title>
			<path d="M0 180.72 L126 180.72" class="st7"/>
		</g>
		<g id="shape48-138" v:mID="48" v:groupContext="shape" transform="translate(229.83,54.36) rotate(90)">
			<title>Sheet.48</title>
			<path d="M0 180.72 L126 180.72" class="st7"/>
		</g>
		<g id="shape49-141" v:mID="49" v:groupContext="shape" transform="translate(58.1099,-9.36)">
			<title>Sheet.49</title>
			<path d="M0 180.72 L207 180.72" class="st7"/>
		</g>
		<g id="shape50-144" v:mID="50" v:groupContext="shape" transform="translate(84.3899,171.36) rotate(-90)">
			<title>Sheet.50</title>
			<path d="M0 180.72 L67.5 180.72" class="st7"/>
		</g>
		<g id="shape51-147" v:mID="51" v:groupContext="shape" transform="translate(265.11,-76.86)">
			<title>Sheet.51</title>
			<path d="M0 180.72 L45 180.72" class="st7"/>
		</g>
		<g id="shape52-150" v:mID="52" v:groupContext="shape" transform="translate(310.11,293.58) rotate(180)">
			<title>Sheet.52</title>
			<path d="M0 180.72 L36 180.72" class="st7"/>
		</g>
		<g id="shape53-153" v:mID="53" v:groupContext="shape" transform="translate(454.83,112.86) rotate(90)">
			<title>Sheet.53</title>
			<path d="M0 180.72 L67.5 180.72" class="st7"/>
		</g>
		<g id="shape54-156" v:mID="54" v:groupContext="shape" transform="translate(274.11,361.08) rotate(180)">
			<title>Sheet.54</title>
			<path d="M0 180.72 L225 180.72" class="st7"/>
		</g>
		<g id="shape55-159" v:mID="55" v:groupContext="shape" transform="translate(226.074,-133.336)">
			<title>Sheet.55</title>
			<desc>A</desc>
			<v:textBlock v:margins="rect(0,0,0,0)"/>
			<v:textRect cx="3.03615" cy="175.208" width="6.08" height="11.0244"/>
			<text x="0" y="179.41" class="st13" v:langID="1033"><v:paragraph v:horizAlign="2"/><v:tabList/>A</text>		</g>
		<g id="shape56-161" v:mID="56" v:groupContext="shape" transform="translate(228.324,-70.3356)">
			<title>Sheet.56</title>
			<desc>B</desc>
			<v:textBlock v:margins="rect(0,0,0,0)"/>
			<v:textRect cx="3.03615" cy="175.208" width="6.08" height="11.0244"/>
			<text x="0" y="179.41" class="st13" v:langID="1033"><v:paragraph v:horizAlign="2"/><v:tabList/>B</text>		</g>
		<g id="shape57-163" v:mID="57" v:groupContext="shape" transform="translate(98.6099,-94.86)">
			<title>Sheet.57</title>
			<path d="M0 158.22 L0 180.72 L4.5 180.72" class="st7"/>
		</g>
		<g id="shape58-166" v:mID="58" v:groupContext="shape" transform="translate(94.1099,-85.86)">
			<title>Sheet.58</title>
			<path d="M0 140.22 L0 180.72 L9 180.72" class="st7"/>
		</g>
		<g id="shape59-169" v:mID="59" v:groupContext="shape" transform="translate(89.6099,-72.36)">
			<title>Sheet.59</title>
			<path d="M0 117.72 L0 180.72 L13.5 180.72" class="st7"/>
		</g>
		<g id="shape60-172" v:mID="60" v:groupContext="shape" transform="translate(85.1099,-63.36)">
			<title>Sheet.60</title>
			<path d="M0 95.22 L0 180.72 L18 180.72" class="st7"/>
		</g>
		<g id="shape61-175" v:mID="61" v:groupContext="shape" transform="translate(80.6099,-54.36)">
			<title>Sheet.61</title>
			<path d="M0 77.22 L0 180.72 L22.5 180.72" class="st7"/>
		</g>
		<g id="shape62-178" v:mID="62" v:groupContext="shape" transform="translate(80.0458,-157.39)">
			<title>Sheet.62</title>
			<path d="M0 180.28 L0.12 179.95 L0.42 179.78 L0.71 179.78 L1.01 179.95 L1.13 180.28 L1.01 180.55 L0.71 180.72 L0.42 180.72
						 L0.12 180.55 L0 180.28 Z" class="st8"/>
		</g>
		<g id="shape63-180" v:mID="63" v:groupContext="shape" transform="translate(84.5458,-148.39)">
			<title>Sheet.63</title>
			<path d="M0 180.28 L0.12 179.95 L0.42 179.78 L0.71 179.78 L1.01 179.95 L1.13 180.28 L1.01 180.55 L0.71 180.72 L0.42 180.72
						 L0.12 180.55 L0 180.28 Z" class="st8"/>
		</g>
		<g id="shape64-182" v:mID="64" v:groupContext="shape" transform="translate(89.0458,-134.89)">
			<title>Sheet.64</title>
			<path d="M0 180.28 L0.12 179.95 L0.42 179.78 L0.71 179.78 L1.01 179.95 L1.13 180.28 L1.01 180.55 L0.71 180.72 L0.42 180.72
						 L0.12 180.55 L0 180.28 Z" class="st8"/>
		</g>
		<g id="shape65-184" v:mID="65" v:groupContext="shape" transform="translate(93.5458,-125.89)">
			<title>Sheet.65</title>
			<path d="M0 180.28 L0.12 179.95 L0.42 179.78 L0.71 179.78 L1.01 179.95 L1.13 180.28 L1.01 180.55 L0.71 180.72 L0.42 180.72
						 L0.12 180.55 L0 180.28 Z" class="st8"/>
		</g>
		<g id="shape66-186" v:mID="66" v:groupContext="shape" transform="translate(98.0458,-116.89)">
			<title>Sheet.66</title>
			<path d="M0 180.28 L0.12 179.95 L0.42 179.78 L0.71 179.78 L1.01 179.95 L1.13 180.28 L1.01 180.55 L0.71 180.72 L0.42 180.72
						 L0.12 180.55 L0 180.28 Z" class="st8"/>
		</g>
		<g id="shape67-188" v:mID="67" v:groupContext="shape" transform="translate(67.1099,-32.0856)">
			<title>Sheet.67</title>
			<desc>Next State Logic</desc>
			<v:textBlock v:margins="rect(0,0,0,0)"/>
			<v:textRect cx="47.25" cy="175.208" width="94.5" height="11.0244"/>
			<text x="10.56" y="178.21" class="st6" v:langID="1033"><v:paragraph v:horizAlign="1"/><v:tabList/>Next State Logic</text>		</g>
		<g id="shape68-190" v:mID="68" v:groupContext="shape" transform="translate(194.797,-71.8896)">
			<title>Sheet.68</title>
			<path d="M0 180.28 L0.12 179.95 L0.41 179.78 L0.71 179.78 L1.01 179.95 L1.12 180.28 L1.01 180.55 L0.71 180.72 L0.41 180.72
						 L0.12 180.55 L0 180.28 Z" class="st8"/>
		</g>
		<g id="shape69-192" v:mID="69" v:groupContext="shape" transform="translate(310.11,-117.36)">
			<title>Sheet.69</title>
			<desc>RED output circuit</desc>
			<v:textBlock v:margins="rect(4,4,4,4)"/>
			<v:textRect cx="18" cy="158.22" width="36" height="45"/>
			<rect x="0" y="135.72" width="36" height="45" class="st2"/>
			<text x="8.5" y="150.12" class="st3" v:langID="1033"><v:paragraph v:horizAlign="1"/><v:tabList/>RED <tspan x="5.49"
						dy="1.2em" class="st5">output </tspan><tspan x="6.25" dy="1.2em" class="st5">circuit</tspan></text>		</g>
		<g id="shape70-197" v:mID="70" v:groupContext="shape" transform="translate(310.11,-63.36)">
			<title>Sheet.70</title>
			<desc>GRN output circuit</desc>
			<v:textBlock v:margins="rect(4,4,4,4)"/>
			<v:textRect cx="18" cy="158.22" width="36" height="45"/>
			<rect x="0" y="135.72" width="36" height="45" class="st2"/>
			<text x="8" y="150.12" class="st3" v:langID="1033"><v:paragraph v:horizAlign="1"/><v:tabList/>GRN <tspan x="5.49"
						dy="1.2em" class="st5">output </tspan><tspan x="6.25" dy="1.2em" class="st5">circuit</tspan></text>		</g>
		<g id="shape71-202" v:mID="71" v:groupContext="shape" transform="translate(296.61,-45.36)">
			<title>Sheet.71</title>
			<desc>Output Logic</desc>
			<v:textBlock v:margins="rect(0,0,0,0)"/>
			<v:textRect cx="29.25" cy="175.208" width="58.5" height="11.0244"/>
			<text x="0" y="178.21" class="st6" v:langID="1033"><v:paragraph/><v:tabList/>Output Logic</text>		</g>
		<g id="shape72-204" v:mID="72" v:groupContext="shape" transform="translate(211.11,-26.3478)">
			<title>Sheet.72</title>
			<desc>State Register</desc>
			<v:textBlock v:margins="rect(0,0,0,0)"/>
			<v:textRect cx="22.5" cy="175.208" width="45" height="11.0244"/>
			<text x="0" y="172.21" class="st6" v:langID="1033"><v:paragraph/><v:tabList/>State<v:newlineChar/><tspan x="0"
						dy="1.2em" class="st5">Register</tspan></text>		</g>
		<g id="shape73-207" v:mID="73" v:groupContext="shape" transform="translate(459.328,37.1202) rotate(-89.759) scale(1,-1)">
			<title>Sheet.73</title>
			<path d="M0 180.72 L4.02 180.72" class="st10"/>
		</g>
		<g id="shape74-212" v:mID="74" v:groupContext="shape" transform="translate(459.328,80.5998) rotate(89.759)">
			<title>Sheet.74</title>
			<path d="M0 180.72 L4.02 180.72" class="st10"/>
		</g>
		<g id="shape75-217" v:mID="75" v:groupContext="shape" transform="translate(242.613,-90.36)">
			<title>Sheet.75</title>
			<path d="M0 180.72 L67.5 180.72" class="st7"/>
		</g>
		<g id="shape76-220" v:mID="76" v:groupContext="shape" transform="translate(242.61,-153.36)">
			<title>Sheet.76</title>
			<path d="M0 180.72 L67.5 180.72" class="st7"/>
		</g>
		<g id="shape77-223" v:mID="77" v:groupContext="shape" transform="translate(486.33,36.36) rotate(90)">
			<title>Sheet.77</title>
			<path d="M0 180.72 L54 180.72" class="st7"/>
		</g>
		<g id="shape78-226" v:mID="78" v:groupContext="shape" transform="translate(481.83,27.36) rotate(90)">
			<title>Sheet.78</title>
			<path d="M0 180.72 L54 180.72" class="st7"/>
		</g>
		<g id="shape79-229" v:mID="79" v:groupContext="shape" transform="translate(310.11,217.08) rotate(180)">
			<title>Sheet.79</title>
			<path d="M0 180.72 L4.5 180.72" class="st7"/>
		</g>
		<g id="shape80-232" v:mID="80" v:groupContext="shape" transform="translate(310.11,262.08) rotate(180)">
			<title>Sheet.80</title>
			<path d="M0 180.72 L9 180.72" class="st7"/>
		</g>
		<g id="shape81-235" v:mID="81" v:groupContext="shape" transform="translate(300.547,-152.89)">
			<title>Sheet.81</title>
			<path d="M0 180.28 L0.12 179.95 L0.41 179.78 L0.71 179.78 L1.01 179.95 L1.12 180.28 L1.01 180.55 L0.71 180.72 L0.41 180.72
						 L0.12 180.55 L0 180.28 Z" class="st8"/>
		</g>
		<g id="shape82-237" v:mID="82" v:groupContext="shape" transform="translate(305.047,-89.8896)">
			<title>Sheet.82</title>
			<path d="M0 180.28 L0.12 179.95 L0.41 179.78 L0.71 179.78 L1.01 179.95 L1.12 180.28 L1.01 180.55 L0.71 180.72 L0.41 180.72
						 L0.12 180.55 L0 180.28 Z" class="st8"/>
		</g>
		<g id="shape83-239" v:mID="83" v:groupContext="shape" transform="translate(364.11,221.58) rotate(180)">
			<title>Sheet.83</title>
			<path d="M0 180.72 L18 180.72" class="st7"/>
		</g>
		<g id="shape84-242" v:mID="84" v:groupContext="shape" transform="translate(364.11,275.58) rotate(180)">
			<title>Sheet.84</title>
			<path d="M0 180.72 L18 180.72" class="st7"/>
		</g>
		<g id="shape85-245" v:mID="85" v:groupContext="shape" transform="translate(366.442,-135.36)">
			<title>Sheet.85</title>
			<desc>RED</desc>
			<v:textBlock v:margins="rect(0,0,0,0)"/>
			<v:textRect cx="12.3338" cy="176.22" width="24.67" height="9"/>
			<text x="0" y="179.22" class="st6" v:langID="1033"><v:paragraph/><v:tabList/>RED</text>		</g>
		<g id="shape86-247" v:mID="86" v:groupContext="shape" transform="translate(366.36,-81.36)">
			<title>Sheet.86</title>
			<desc>GRN</desc>
			<v:textBlock v:margins="rect(0,0,0,0)"/>
			<v:textRect cx="12.375" cy="176.22" width="24.75" height="9"/>
			<text x="0" y="179.22" class="st6" v:langID="1033"><v:paragraph/><v:tabList/>GRN</text>		</g>
	</g>
</svg>
