<?xml version="1.0" encoding="UTF-8" standalone="no"?>
<!DOCTYPE svg PUBLIC "-//W3C//DTD SVG 1.1//EN" "http://www.w3.org/Graphics/SVG/1.1/DTD/svg11.dtd">
<!-- Generated by Microsoft Visio, SVG Export full.svg Page-1 -->
<svg xmlns="http://www.w3.org/2000/svg" xmlns:xlink="http://www.w3.org/1999/xlink" xmlns:ev="http://www.w3.org/2001/xml-events"
		xmlns:v="http://schemas.microsoft.com/visio/2003/SVGExtensions/" width="1.5in" height="0.777709in" viewBox="0 0 108 55.995"
		xml:space="preserve" color-interpolation-filters="sRGB" class="st6">
	<v:documentProperties v:langID="1033" v:viewMarkup="false">
		<v:userDefs>
			<v:ud v:nameU="msvConvertTheme"/>
		</v:userDefs>
	</v:documentProperties>

	<style type="text/css">
	<![CDATA[
		.st1 {stroke:none;stroke-linecap:round;stroke-linejoin:round;stroke-width:0.75}
		.st2 {fill:#000000;font-family:Arial;font-size:0.833336em}
		.st3 {marker-end:url(#mrkr4-18);stroke:#000000;stroke-linecap:round;stroke-linejoin:round;stroke-width:0.72}
		.st4 {fill:#000000;fill-opacity:1;stroke:#000000;stroke-opacity:1;stroke-width:0.22222222222222}
		.st5 {fill:#b7ccf7;stroke:none;stroke-linecap:round;stroke-linejoin:round;stroke-width:0.24}
		.st6 {fill:none;fill-rule:evenodd;font-size:12px;overflow:visible;stroke-linecap:square;stroke-miterlimit:3}
	]]>
	</style>

	<defs id="Markers">
		<g id="lend4">
			<path d="M 2 1 L 0 0 L 2 -1 L 2 1 " style="stroke:none"/>
		</g>
		<marker id="mrkr4-18" class="st4" v:arrowType="4" v:arrowSize="2" v:setback="9" refX="-9" orient="auto"
				markerUnits="strokeWidth" overflow="visible">
			<use xlink:href="#lend4" transform="scale(-4.5,-4.5) "/>
		</marker>
	</defs>
	<g v:mID="0" v:index="1" v:groupContext="foregroundPage">
		<title>Page-1</title>
		<v:pageProperties v:drawingScale="1" v:pageScale="1" v:drawingUnits="19" v:shadowOffsetX="9" v:shadowOffsetY="-9"/>
		<g id="shape61-1" v:mID="61" v:groupContext="shape" transform="translate(0,-44.2502)">
			<title>Sheet.61</title>
			<desc>A</desc>
			<v:textBlock v:margins="rect(0,0,0,0)"/>
			<v:textRect cx="11.25" cy="51.495" width="22.5" height="9"/>
			<path d="M22.5 47 L0 47 L0 56 L22.5 56 L22.5 47" class="st1"/>
			<text x="15.83" y="54.5" class="st2" v:langID="1033"><v:paragraph v:horizAlign="2"/><v:tabList/>A</text>		</g>
		<g id="shape65-5" v:mID="65" v:groupContext="shape" transform="translate(0,-30.7502)">
			<title>Sheet.65</title>
			<desc>B</desc>
			<v:textBlock v:margins="rect(0,0,0,0)"/>
			<v:textRect cx="11.25" cy="51.495" width="22.5" height="9"/>
			<path d="M22.5 47 L0 47 L0 56 L22.5 56 L22.5 47" class="st1"/>
			<text x="15.83" y="54.5" class="st2" v:langID="1033"><v:paragraph v:horizAlign="2"/><v:tabList/>B</text>		</g>
		<g id="shape66-9" v:mID="66" v:groupContext="shape" transform="translate(0,-17.2502)">
			<title>Sheet.66</title>
			<desc>Cin</desc>
			<v:textBlock v:margins="rect(0,0,0,0)"/>
			<v:textRect cx="11.25" cy="51.495" width="22.5" height="9"/>
			<path d="M22.5 47 L0 47 L0 56 L22.5 56 L22.5 47" class="st1"/>
			<text x="7.5" y="54.5" class="st2" v:langID="1033"><v:paragraph v:horizAlign="2"/><v:tabList/>Cin</text>		</g>
		<g id="shape67-13" v:mID="67" v:groupContext="shape" transform="translate(27,-48.7502)">
			<title>Sheet.67</title>
			<path d="M0 56 L4.5 56 L7.02 56" class="st3"/>
		</g>
		<g id="shape68-19" v:mID="68" v:groupContext="shape" transform="translate(27,-35.2502)">
			<title>Sheet.68</title>
			<path d="M0 56 L4.5 56 L7.02 56" class="st3"/>
		</g>
		<g id="shape69-24" v:mID="69" v:groupContext="shape" transform="translate(27,-21.7502)">
			<title>Sheet.69</title>
			<path d="M0 56 L4.5 56 L7.02 56" class="st3"/>
		</g>
		<g id="shape70-29" v:mID="70" v:groupContext="shape" transform="translate(67.5,-44.2502)">
			<title>Sheet.70</title>
			<path d="M0 56 L4.5 56 L7.02 56" class="st3"/>
		</g>
		<g id="shape71-34" v:mID="71" v:groupContext="shape" transform="translate(85.5,-39.7502)">
			<title>Sheet.71</title>
			<desc>Sum</desc>
			<v:textBlock v:margins="rect(0,0,0,0)"/>
			<v:textRect cx="11.25" cy="51.495" width="22.5" height="9"/>
			<path d="M22.5 47 L0 47 L0 56 L22.5 56 L22.5 47" class="st1"/>
			<text x="0" y="54.5" class="st2" v:langID="1033"><v:paragraph/><v:tabList/>Sum</text>		</g>
		<g id="shape72-38" v:mID="72" v:groupContext="shape" transform="translate(67.5,-26.2502)">
			<title>Sheet.72</title>
			<path d="M0 56 L4.5 56 L7.02 56" class="st3"/>
		</g>
		<g id="shape73-43" v:mID="73" v:groupContext="shape" transform="translate(85.5,-21.7502)">
			<title>Sheet.73</title>
			<desc>Cout</desc>
			<v:textBlock v:margins="rect(0,0,0,0)"/>
			<v:textRect cx="11.25" cy="51.495" width="22.5" height="9"/>
			<path d="M22.5 47 L0 47 L0 56 L22.5 56 L22.5 47" class="st1"/>
			<text x="0" y="54.5" class="st2" v:langID="1033"><v:paragraph/><v:tabList/>Cout</text>		</g>
		<g id="shape74-47" v:mID="74" v:groupContext="shape" transform="translate(27,-1.50018)">
			<title>Sheet.74</title>
			<desc>Full Adder</desc>
			<v:textBlock v:margins="rect(0,0,0,0)"/>
			<v:textRect cx="27" cy="51.495" width="54" height="9"/>
			<path d="M54 47 L0 47 L0 56 L54 56 L54 47" class="st1"/>
			<text x="4.21" y="54.5" class="st2" v:langID="1033"><v:paragraph v:horizAlign="1"/><v:tabList/>Full Adder</text>		</g>
		<g id="shape75-51" v:mID="75" v:groupContext="shape" transform="translate(40.5,-15.0002)">
			<title>Rectangle</title>
			<v:userDefs>
				<v:ud v:nameU="visVersion" v:val="VT0(11):26"/>
			</v:userDefs>
			<rect x="0" y="16.62" width="27" height="39.375" class="st5"/>
		</g>
	</g>
</svg>
