<?xml version="1.0" encoding="UTF-8" standalone="no"?>
<!DOCTYPE svg PUBLIC "-//W3C//DTD SVG 1.1//EN" "http://www.w3.org/Graphics/SVG/1.1/DTD/svg11.dtd">
<!-- Generated by Microsoft Visio, SVG Export SerialAdder_SM2.svg Page-1 -->
<svg xmlns="http://www.w3.org/2000/svg" xmlns:xlink="http://www.w3.org/1999/xlink" xmlns:ev="http://www.w3.org/2001/xml-events"
		xmlns:v="http://schemas.microsoft.com/visio/2003/SVGExtensions/" width="1.55726in" height="1.02773in"
		viewBox="0 0 112.123 73.9966" xml:space="preserve" color-interpolation-filters="sRGB" class="st10">
	<v:documentProperties v:langID="1033" v:viewMarkup="false"/>

	<style type="text/css">
	<![CDATA[
		.st1 {fill:#abe0ae;stroke:#000000;stroke-linecap:round;stroke-linejoin:round;stroke-width:0.24}
		.st2 {fill:#000000;font-family:Arial;font-size:0.833336em}
		.st3 {marker-start:url(#mrkr4-9);stroke:#4d4d4d;stroke-linecap:round;stroke-linejoin:round;stroke-width:1.2}
		.st4 {fill:#4d4d4d;fill-opacity:1;stroke:#4d4d4d;stroke-opacity:1;stroke-width:0.4}
		.st5 {font-size:1em}
		.st6 {marker-end:url(#mrkr5-20);stroke:#c05046;stroke-linecap:round;stroke-linejoin:round;stroke-width:0.75}
		.st7 {fill:#c05046;fill-opacity:1;stroke:#c05046;stroke-opacity:1;stroke-width:0.22935779816514}
		.st8 {fill:#c05046;font-family:Arial;font-size:0.833336em}
		.st9 {stroke:#c05046;stroke-linecap:round;stroke-linejoin:round;stroke-width:0.75}
		.st10 {fill:none;fill-rule:evenodd;font-size:12px;overflow:visible;stroke-linecap:square;stroke-miterlimit:3}
	]]>
	</style>

	<defs id="Markers">
		<g id="lend4">
			<path d="M 2 1 L 0 0 L 2 -1 L 2 1 " style="stroke:none"/>
		</g>
		<marker id="mrkr4-9" class="st4" v:arrowType="4" v:arrowSize="1" v:setback="4.7" refX="4.7" orient="auto"
				markerUnits="strokeWidth" overflow="visible">
			<use xlink:href="#lend4" transform="scale(2.5) "/>
		</marker>
		<g id="lend5">
			<path d="M 2 1 L 0 0 L 1.98117 -0.993387 C 1.67173 -0.364515 1.67301 0.372641 1.98465 1.00043 " style="stroke:none"/>
		</g>
		<marker id="mrkr5-20" class="st7" v:arrowType="5" v:arrowSize="2" v:setback="7.15" refX="-7.15" orient="auto"
				markerUnits="strokeWidth" overflow="visible">
			<use xlink:href="#lend5" transform="scale(-4.36,-4.36) "/>
		</marker>
	</defs>
	<g v:mID="0" v:index="1" v:groupContext="foregroundPage">
		<title>Page-1</title>
		<v:pageProperties v:drawingScale="1" v:pageScale="1" v:drawingUnits="19" v:shadowOffsetX="9" v:shadowOffsetY="-9"/>
		<g id="shape1-1" v:mID="1" v:groupContext="shape" transform="translate(36.0669,-0.12)">
			<title>Sheet.1</title>
			<desc>S0</desc>
			<v:textBlock v:margins="rect(4,4,4,4)"/>
			<v:textRect cx="20.5774" cy="54.2202" width="41.16" height="39.5527"/>
			<path d="M0 54.16 L0.24 51.17 L0.96 48.31 L2.03 45.56 L3.59 43.05 L5.5 40.66 L7.78 38.63 L10.29 36.95 L13.04 35.76 L16.03
						 34.8 L19.02 34.44 L22.13 34.44 L25.24 34.8 L28.11 35.76 L30.87 36.95 L33.5 38.63 L35.77 40.66 L37.69 43.05
						 L39.12 45.56 L40.32 48.31 L41.04 51.17 L41.15 54.16 L41.04 57.15 L40.32 60.02 L39.12 62.76 L37.69 65.39
						 L35.77 67.66 L33.5 69.69 L30.87 71.37 L28.11 72.68 L25.24 73.52 L22.13 74 L19.02 74 L16.03 73.52 L13.04
						 72.68 L10.29 71.37 L7.78 69.69 L5.5 67.66 L3.59 65.39 L2.03 62.76 L0.96 60.02 L0.24 57.15 L0 54.16 Z"
					class="st1"/>
			<text x="14.46" y="57.22" class="st2" v:langID="1033"><v:paragraph v:horizAlign="1"/><v:tabList/>S0</text>		</g>
		<g id="shape2-4" v:mID="2" v:groupContext="shape" transform="translate(-19.136,47.7576) rotate(-100.095)">
			<title>Sheet.2</title>
			<path d="M5.64 74 L6 74 L19.43 74" class="st3"/>
		</g>
		<g id="shape3-10" v:mID="3" v:groupContext="shape" transform="translate(27.84,-56.0843)">
			<title>Sheet.3</title>
			<desc>Rst</desc>
			<v:textBlock v:margins="rect(0,0,0,0)"/>
			<v:textRect cx="16.875" cy="65.0404" width="33.75" height="17.9123"/>
			<text x="9.37" y="68.04" class="st2" v:langID="1033"><v:paragraph v:horizAlign="1"/><v:tabList/>Rst</text>		</g>
		<g id="shape4-12" v:mID="4" v:groupContext="shape" transform="translate(0,-10.9402)">
			<title>Sheet.4</title>
			<desc>F=0 Cout=0</desc>
			<v:textBlock v:margins="rect(0,0,0,0)"/>
			<v:textRect cx="16.875" cy="65.0404" width="33.75" height="17.9123"/>
			<text x="16.24" y="62.04" class="st2" v:langID="1033"><v:paragraph v:horizAlign="2"/><v:tabList/>F=0<v:newlineChar/><tspan
						x="1.23" dy="1.2em" class="st5">Cout</tspan>=0</text>		</g>
		<g id="shape11-15" v:mID="11" v:groupContext="shape" transform="translate(44.9821,77.9761) rotate(-129.97)">
			<title>Sheet.11</title>
			<path d="M0 41.91 C-9.14 45.8 -14.48 60.63 -10.81 68.03 C-3.07 83.62 44.74 66.2 24.48 45.61 L24.2 45.38" class="st6"/>
		</g>
		<g id="shape12-21" v:mID="12" v:groupContext="shape" transform="translate(139.024,-30.7685) rotate(45)">
			<title>Sheet.12</title>
			<desc>A∙B</desc>
			<v:textBlock v:margins="rect(0,0,0,0)"/>
			<v:textRect cx="8.4375" cy="65.0404" width="16.88" height="17.9123"/>
			<text x="-0" y="68.04" class="st8" v:langID="1033"><v:paragraph/><v:tabList/>A∙B</text>		</g>
		<g id="shape14-23" v:mID="14" v:groupContext="shape" transform="translate(148.994,-41.3572) rotate(45)">
			<title>Sheet.14</title>
			<path d="M0 74 L6.5 74" class="st9"/>
		</g>
		<g id="shape15-26" v:mID="15" v:groupContext="shape" transform="translate(155.712,-34.6397) rotate(45)">
			<title>Sheet.15</title>
			<path d="M0 74 L6.13 74" class="st9"/>
		</g>
	</g>
</svg>
