<?xml version="1.0" encoding="UTF-8" standalone="no"?>
<!DOCTYPE svg PUBLIC "-//W3C//DTD SVG 1.1//EN" "http://www.w3.org/Graphics/SVG/1.1/DTD/svg11.dtd">
<!-- Generated by Microsoft Visio, SVG Export SignalsInCircuit.svg Page-1 -->
<svg xmlns="http://www.w3.org/2000/svg" xmlns:xlink="http://www.w3.org/1999/xlink" xmlns:ev="http://www.w3.org/2001/xml-events"
		xmlns:v="http://schemas.microsoft.com/visio/2003/SVGExtensions/" width="3.41319in" height="1.69444in"
		viewBox="0 0 245.75 122" xml:space="preserve" color-interpolation-filters="sRGB" class="st16">
	<v:documentProperties v:langID="1033" v:viewMarkup="false"/>

	<style type="text/css">
	<![CDATA[
		.st1 {visibility:visible}
		.st2 {fill:none;filter:url(#filter_2);stroke:#5b9bd5;stroke-opacity:0.22}
		.st3 {fill:none;stroke:#000000;stroke-width:0.75}
		.st4 {fill:none;stroke:none;stroke-width:0.25}
		.st5 {fill:#000000;font-family:Calibri;font-size:1.00001em}
		.st6 {fill:#000000;font-family:Calibri;font-size:1.16666em}
		.st7 {fill:#000000;font-family:Calibri;font-size:1.5em}
		.st8 {stroke:#ff0000;stroke-linecap:round;stroke-linejoin:round;stroke-width:1}
		.st9 {stroke:#92d050;stroke-linecap:round;stroke-linejoin:round;stroke-width:1}
		.st10 {fill:#5b9bd5;fill-opacity:0.22;filter:url(#filter_2);stroke:#5b9bd5;stroke-opacity:0.22}
		.st11 {fill:#d8d8d8;stroke:#000000;stroke-width:0.75}
		.st12 {stroke:#00b0f0;stroke-linecap:round;stroke-linejoin:round;stroke-width:1}
		.st13 {marker-end:url(#mrkr4-99);stroke:#000000;stroke-linecap:round;stroke-linejoin:round;stroke-width:0.5}
		.st14 {fill:#000000;fill-opacity:1;stroke:#000000;stroke-opacity:1;stroke-width:0.25773195876289}
		.st15 {font-size:1em}
		.st16 {fill:none;fill-rule:evenodd;font-size:12px;overflow:visible;stroke-linecap:square;stroke-miterlimit:3}
	]]>
	</style>

	<defs id="Markers">
		<g id="lend4">
			<path d="M 2 1 L 0 0 L 2 -1 L 2 1 " style="stroke:none"/>
		</g>
		<marker id="mrkr4-99" class="st14" v:arrowType="4" v:arrowSize="0" v:setback="7.04" refX="-7.04" orient="auto"
				markerUnits="strokeWidth" overflow="visible">
			<use xlink:href="#lend4" transform="scale(-3.88,-3.88) "/>
		</marker>
	</defs>
	<defs id="Filters">
		<filter id="filter_2">
			<feGaussianBlur stdDeviation="2"/>
		</filter>
	</defs>
	<g v:mID="0" v:index="1" v:groupContext="foregroundPage">
		<title>Page-1</title>
		<v:pageProperties v:drawingScale="1" v:pageScale="1" v:drawingUnits="19" v:shadowOffsetX="9" v:shadowOffsetY="-9"/>
		<g id="shape1-1" v:mID="1" v:groupContext="shape" transform="translate(48.3438,-49.1875)">
			<title>Circle.118</title>
			<v:userDefs>
				<v:ud v:nameU="visVersion" v:val="VT0(15):26"/>
			</v:userDefs>
			<g id="shadow1-2" v:groupContext="shadow" v:shadowOffsetX="0.345598" v:shadowOffsetY="-1.97279" v:shadowType="1"
					transform="matrix(1,0,0,1,0.345598,1.97279)" class="st1">
				<path d="M0 108.5 A13.5 13.5 0 0 1 27 108.5 A13.5 13.5 0 1 1 0 108.5 Z" class="st2"/>
			</g>
			<path d="M0 108.5 A13.5 13.5 0 0 1 27 108.5 A13.5 13.5 0 1 1 0 108.5 Z" class="st3"/>
		</g>
		<g id="shape2-6" v:mID="2" v:groupContext="shape" transform="translate(70.2812,-53.6875)">
			<title>Sheet.2</title>
			<desc>V</desc>
			<v:textBlock v:margins="rect(4,4,4,4)"/>
			<v:textRect cx="13.5" cy="113" width="27" height="18"/>
			<rect x="0" y="104" width="27" height="18" class="st4"/>
			<text x="10.1" y="116.6" class="st5" v:langID="1033"><v:paragraph v:horizAlign="1"/><v:tabList/>V</text>		</g>
		<g id="shape3-9" v:mID="3" v:groupContext="shape" transform="translate(48.3438,-61.5625)">
			<title>Sheet.3</title>
			<desc>+</desc>
			<v:textBlock v:margins="rect(4,4,4,4)"/>
			<v:textRect cx="13.5" cy="113" width="27" height="18"/>
			<rect x="0" y="104" width="27" height="18" class="st4"/>
			<text x="10.01" y="117.2" class="st6" v:langID="1033"><v:paragraph v:horizAlign="1"/><v:tabList/>+</text>		</g>
		<g id="shape4-12" v:mID="4" v:groupContext="shape" transform="translate(48.3438,-50.7625)">
			<title>Sheet.4</title>
			<desc>-</desc>
			<v:textBlock v:margins="rect(4,4,4,4)"/>
			<v:textRect cx="13.5" cy="116.6" width="27" height="10.8"/>
			<rect x="0" y="111.2" width="27" height="10.8" class="st4"/>
			<text x="10.74" y="122" class="st7" v:langID="1033"><v:paragraph v:horizAlign="1"/><v:tabList/>-</text>		</g>
		<g id="shape5-15" v:mID="5" v:groupContext="shape" transform="translate(-60.1563,45.8125) rotate(-90)">
			<title>Sheet.5</title>
			<path d="M0 122 L27.56 122" class="st8"/>
		</g>
		<g id="shape6-18" v:mID="6" v:groupContext="shape" transform="translate(183.843,73.0898) rotate(90.1302)">
			<title>Sheet.6</title>
			<path d="M0 122 L30.94 122" class="st9"/>
		</g>
		<g id="shape7-21" v:mID="7" v:groupContext="shape" transform="translate(182.5,140.25) rotate(180)">
			<title>Sheet.7</title>
			<path d="M0 122 L120.37 122" class="st8"/>
		</g>
		<g id="shape8-24" v:mID="8" v:groupContext="shape" transform="translate(182.5,225.75) rotate(180)">
			<title>Sheet.8</title>
			<path d="M0 122 L120.73 122" class="st9"/>
		</g>
		<g id="shape9-27" v:mID="9" v:groupContext="shape" transform="translate(126.25,-78.2768)">
			<title>Rectangle.23</title>
			<v:userDefs>
				<v:ud v:nameU="visVersion" v:val="VT0(15):26"/>
			</v:userDefs>
			<g id="shadow9-28" v:groupContext="shadow" v:shadowOffsetX="0.345598" v:shadowOffsetY="-1.97279" v:shadowType="1"
					transform="matrix(1,0,0,1,0.345598,1.97279)" class="st1">
				<rect x="0" y="103.679" width="9" height="18.3214" class="st10"/>
			</g>
			<rect x="0" y="103.679" width="9" height="18.3214" class="st11"/>
		</g>
		<g id="shape10-32" v:mID="10" v:groupContext="shape" transform="translate(8.75,103.75) rotate(-90)">
			<title>Sheet.10</title>
			<path d="M0 122 L60.03 122" class="st9"/>
		</g>
		<g id="shape11-35" v:mID="11" v:groupContext="shape" transform="translate(8.75,25.4018) rotate(-90)">
			<title>Sheet.11</title>
			<path d="M0 122 L7.15 122" class="st8"/>
		</g>
		<g id="shape12-38" v:mID="12" v:groupContext="shape" transform="translate(178,-63.25)">
			<title>Rectangle.26</title>
			<v:userDefs>
				<v:ud v:nameU="visVersion" v:val="VT0(15):26"/>
			</v:userDefs>
			<g id="shadow12-39" v:groupContext="shadow" v:shadowOffsetX="0.345598" v:shadowOffsetY="-1.97279" v:shadowType="1"
					transform="matrix(1,0,0,1,0.345598,1.97279)" class="st1">
				<rect x="0" y="103.679" width="9" height="18.3214" class="st10"/>
			</g>
			<rect x="0" y="103.679" width="9" height="18.3214" class="st11"/>
		</g>
		<g id="shape13-43" v:mID="13" v:groupContext="shape" transform="translate(60.5,70.7875) rotate(-90)">
			<title>Sheet.13</title>
			<path d="M0 122 L12.04 122" class="st12"/>
		</g>
		<g id="shape14-46" v:mID="14" v:groupContext="shape" transform="translate(60.5,40.4286) rotate(-90)">
			<title>Sheet.14</title>
			<path d="M0 122 L22.18 122" class="st8"/>
		</g>
		<g id="shape15-49" v:mID="15" v:groupContext="shape" transform="translate(178,-32.8911)">
			<title>Rectangle.29</title>
			<v:userDefs>
				<v:ud v:nameU="visVersion" v:val="VT0(15):26"/>
			</v:userDefs>
			<g id="shadow15-50" v:groupContext="shadow" v:shadowOffsetX="0.345598" v:shadowOffsetY="-1.97279" v:shadowType="1"
					transform="matrix(1,0,0,1,0.345598,1.97279)" class="st1">
				<rect x="0" y="103.679" width="9" height="18.3214" class="st10"/>
			</g>
			<rect x="0" y="103.679" width="9" height="18.3214" class="st11"/>
		</g>
		<g id="shape16-54" v:mID="16" v:groupContext="shape" transform="translate(60.5,103.75) rotate(-90)">
			<title>Sheet.16</title>
			<path d="M0 122 L14.64 122" class="st9"/>
		</g>
		<g id="shape17-57" v:mID="17" v:groupContext="shape" transform="translate(108.25,-31.1875)">
			<title>Rectangle.32</title>
			<v:userDefs>
				<v:ud v:nameU="visVersion" v:val="VT0(15):26"/>
			</v:userDefs>
			<g id="shadow17-58" v:groupContext="shadow" v:shadowOffsetX="0.345598" v:shadowOffsetY="-1.97279" v:shadowType="1"
					transform="matrix(1,0,0,1,0.345598,1.97279)" class="st1">
				<rect x="0" y="103.679" width="9" height="18.3214" class="st10"/>
			</g>
			<rect x="0" y="103.679" width="9" height="18.3214" class="st11"/>
		</g>
		<g id="shape18-62" v:mID="18" v:groupContext="shape" transform="translate(-9.25,103.75) rotate(-90)">
			<title>Sheet.18</title>
			<path d="M0 122 L12.94 122" class="st9"/>
		</g>
		<g id="shape19-65" v:mID="19" v:groupContext="shape" transform="translate(-9.25,72.4911) rotate(-90)">
			<title>Sheet.19</title>
			<path d="M0 122 L54.24 122" class="st8"/>
		</g>
		<g id="shape20-68" v:mID="20" v:groupContext="shape" transform="translate(263.839,75.4482) rotate(90)">
			<title>Rectangle.35</title>
			<v:userDefs>
				<v:ud v:nameU="visVersion" v:val="VT0(15):26"/>
			</v:userDefs>
			<g id="shadow20-69" v:groupContext="shadow" v:shadowOffsetX="0.345598" v:shadowOffsetY="-1.97279" v:shadowType="1"
					transform="matrix(1,0,0,1,1.97279,-0.345598)" class="st1">
				<rect x="0" y="103.679" width="9" height="18.3214" class="st10"/>
			</g>
			<rect x="0" y="103.679" width="9" height="18.3214" class="st11"/>
		</g>
		<g id="shape21-73" v:mID="21" v:groupContext="shape" transform="translate(143.1,201.93) rotate(179.011)">
			<title>Sheet.21</title>
			<path d="M0 122 L10.25 122" class="st9"/>
		</g>
		<g id="shape22-76" v:mID="22" v:groupContext="shape" transform="translate(178,201.948) rotate(180)">
			<title>Sheet.22</title>
			<path d="M0 122 L17.84 122" class="st12"/>
		</g>
		<g id="shape23-79" v:mID="23" v:groupContext="shape" transform="translate(108.25,203.652) rotate(180)">
			<title>Sheet.23</title>
			<path d="M0 122 L72 122" class="st12"/>
		</g>
		<g id="shape24-82" v:mID="24" v:groupContext="shape" transform="translate(201.183,171.589) rotate(180)">
			<title>Sheet.24</title>
			<path d="M0 122 L14.18 122" class="st12"/>
		</g>
		<g id="shape25-85" v:mID="25" v:groupContext="shape" transform="translate(61,-103.75)">
			<title>Sheet.25</title>
			<desc>Power Rail</desc>
			<v:textBlock v:margins="rect(4,4,4,4)"/>
			<v:textRect cx="34.875" cy="113" width="69.75" height="18"/>
			<rect x="0" y="104" width="69.75" height="18" class="st4"/>
			<text x="9" y="116.6" class="st5" v:langID="1033"><v:paragraph v:horizAlign="1"/><v:tabList/>Power Rail</text>		</g>
		<g id="shape26-88" v:mID="26" v:groupContext="shape" transform="translate(58.75,-0.25)">
			<title>Sheet.26</title>
			<desc>Ground Rail</desc>
			<v:textBlock v:margins="rect(4,4,4,4)"/>
			<v:textRect cx="34.875" cy="113" width="69.75" height="18"/>
			<rect x="0" y="104" width="69.75" height="18" class="st4"/>
			<text x="6.13" y="116.6" class="st5" v:langID="1033"><v:paragraph v:horizAlign="1"/><v:tabList/>Ground Rail</text>		</g>
		<g id="shape27-91" v:mID="27" v:groupContext="shape" transform="translate(120.344,-52)">
			<title>Sheet.27</title>
			<desc>Signals</desc>
			<v:textBlock v:margins="rect(4,4,4,4)"/>
			<v:textRect cx="34.875" cy="113" width="69.75" height="18"/>
			<rect x="0" y="104" width="69.75" height="18" class="st4"/>
			<text x="18.17" y="116.6" class="st5" v:langID="1033"><v:paragraph v:horizAlign="1"/><v:tabList/>Signals</text>		</g>
		<g id="shape28-94" v:mID="28" v:groupContext="shape" transform="translate(51.7461,90.2795) rotate(78.2317) scale(1,-1)">
			<title>Sheet.28</title>
			<path d="M0 121.5 C3.64 121.98 6.8 122.11 9.93 121.91 L10.29 121.87" class="st13"/>
		</g>
		<g id="shape29-100" v:mID="29" v:groupContext="shape" transform="translate(110.185,165.012) rotate(31.6075) scale(1,-1)">
			<title>Sheet.29</title>
			<path d="M0 120.81 C1.77 121.69 3.35 122.08 4.89 121.99 L5.23 121.88" class="st13"/>
		</g>
		<g id="shape30-105" v:mID="30" v:groupContext="shape" transform="translate(0.25,-31.1875)">
			<title>Sheet.30</title>
			<desc>Input Signal</desc>
			<v:textBlock v:margins="rect(4,4,4,4)"/>
			<v:textRect cx="20.25" cy="113" width="40.5" height="18"/>
			<rect x="0" y="104" width="40.5" height="18" class="st4"/>
			<text x="10.54" y="109.4" class="st5" v:langID="1033"><v:paragraph v:horizAlign="2"/><v:tabList/>Input <v:newlineChar/><tspan
						x="7.78" dy="1.2em" class="st15">Signal</tspan></text>		</g>
		<g id="shape31-109" v:mID="31" v:groupContext="shape" transform="translate(198.25,-63.5714)">
			<title>Sheet.31</title>
			<desc>Output Signal</desc>
			<v:textBlock v:margins="rect(4,4,4,4)"/>
			<v:textRect cx="23.625" cy="113" width="47.25" height="18"/>
			<rect x="0" y="104" width="47.25" height="18" class="st4"/>
			<text x="4" y="109.4" class="st5" v:langID="1033"><v:paragraph/><v:tabList/>Output <v:newlineChar/><tspan x="4"
						dy="1.2em" class="st15">Signal</tspan></text>		</g>
	</g>
</svg>
