<?xml version="1.0" encoding="UTF-8" standalone="no"?>
<!DOCTYPE svg PUBLIC "-//W3C//DTD SVG 1.1//EN" "http://www.w3.org/Graphics/SVG/1.1/DTD/svg11.dtd">
<!-- Generated by Microsoft Visio, SVG Export ALU_BitSlicedBlockDiagram.svg Page-1 -->
<svg xmlns="http://www.w3.org/2000/svg" xmlns:xlink="http://www.w3.org/1999/xlink" xmlns:ev="http://www.w3.org/2001/xml-events"
		xmlns:v="http://schemas.microsoft.com/visio/2003/SVGExtensions/" width="6.56594in" height="2.25333in"
		viewBox="0 0 472.747 162.24" xml:space="preserve" color-interpolation-filters="sRGB" class="st16">
	<v:documentProperties v:langID="1033" v:viewMarkup="false"/>

	<style type="text/css">
	<![CDATA[
		.st1 {fill:#d5e1fb;stroke:none;stroke-linecap:round;stroke-linejoin:round;stroke-width:0.24}
		.st2 {fill:#fddeb0;stroke:none;stroke-linecap:round;stroke-linejoin:round;stroke-width:0.24}
		.st3 {stroke:none;stroke-linecap:round;stroke-linejoin:round;stroke-width:0.75}
		.st4 {fill:#000000;font-family:Arial;font-size:0.833336em}
		.st5 {stroke:#000000;stroke-linecap:round;stroke-linejoin:round;stroke-width:1.2}
		.st6 {marker-end:url(#mrkr4-28);stroke:#000000;stroke-linecap:round;stroke-linejoin:round;stroke-width:0.72}
		.st7 {fill:#000000;fill-opacity:1;stroke:#000000;stroke-opacity:1;stroke-width:0.22222222222222}
		.st8 {stroke:#000000;stroke-linecap:round;stroke-linejoin:round;stroke-width:0.72}
		.st9 {fill:#000000;stroke:#000000;stroke-linecap:round;stroke-linejoin:round;stroke-width:0.24}
		.st10 {fill:#000000;font-family:Arial;font-size:0.75em}
		.st11 {fill:#000000;font-family:Arial;font-size:0.916672em;font-weight:bold}
		.st12 {fill:none;stroke:#000000;stroke-linecap:round;stroke-linejoin:round;stroke-width:0.72}
		.st13 {font-size:1em}
		.st14 {marker-end:url(#mrkr4-188);stroke:#000000;stroke-linecap:round;stroke-linejoin:round;stroke-width:1.2}
		.st15 {fill:#000000;fill-opacity:1;stroke:#000000;stroke-opacity:1;stroke-width:0.32258064516129}
		.st16 {fill:none;fill-rule:evenodd;font-size:12px;overflow:visible;stroke-linecap:square;stroke-miterlimit:3}
	]]>
	</style>

	<defs id="Markers">
		<g id="lend4">
			<path d="M 2 1 L 0 0 L 2 -1 L 2 1 " style="stroke:none"/>
		</g>
		<marker id="mrkr4-28" class="st7" v:arrowType="4" v:arrowSize="2" v:setback="9" refX="-9" orient="auto"
				markerUnits="strokeWidth" overflow="visible">
			<use xlink:href="#lend4" transform="scale(-4.5,-4.5) "/>
		</marker>
		<marker id="mrkr4-188" class="st15" v:arrowType="4" v:arrowSize="2" v:setback="6.2" refX="-6.2" orient="auto"
				markerUnits="strokeWidth" overflow="visible">
			<use xlink:href="#lend4" transform="scale(-3.1,-3.1) "/>
		</marker>
	</defs>
	<g v:mID="0" v:index="1" v:groupContext="foregroundPage">
		<title>Page-1</title>
		<v:pageProperties v:drawingScale="1" v:pageScale="1" v:drawingUnits="19" v:shadowOffsetX="9" v:shadowOffsetY="-9"/>
		<g id="shape31-1" v:mID="31" v:groupContext="shape" transform="translate(81.8776,-0.12)">
			<title>Rectangle.45</title>
			<v:userDefs>
				<v:ud v:nameU="visVersion" v:val="VT0(11):26"/>
			</v:userDefs>
			<rect x="0" y="0.24" width="374.625" height="162" class="st1"/>
		</g>
		<g id="shape32-3" v:mID="32" v:groupContext="shape" transform="translate(128.003,-36.12)">
			<title>Rectangle.182</title>
			<v:userDefs>
				<v:ud v:nameU="visVersion" v:val="VT0(11):26"/>
			</v:userDefs>
			<rect x="0" y="108.24" width="63" height="54" class="st2"/>
		</g>
		<g id="shape33-5" v:mID="33" v:groupContext="shape" transform="translate(166.253,-49.62)">
			<title>Sheet.33</title>
			<desc>Cin</desc>
			<v:textBlock v:margins="rect(0,0,0,0)"/>
			<v:textRect cx="11.25" cy="157.74" width="22.5" height="9"/>
			<path d="M22.5 153.24 L0 153.24 L0 162.24 L22.5 162.24 L22.5 153.24" class="st3"/>
			<text x="7.5" y="160.74" class="st4" v:langID="1033"><v:paragraph v:horizAlign="2"/><v:tabList/>Cin</text>		</g>
		<g id="shape34-9" v:mID="34" v:groupContext="shape" transform="translate(146.565,-77.745)">
			<title>Sheet.34</title>
			<desc>A</desc>
			<v:textBlock v:margins="rect(0,0,0,0)"/>
			<v:textRect cx="9" cy="157.74" width="18" height="9"/>
			<path d="M18 153.24 L0 153.24 L0 162.24 L18 162.24 L18 153.24" class="st3"/>
			<text x="0" y="160.74" class="st4" v:langID="1033"><v:paragraph/><v:tabList/>A</text>		</g>
		<g id="shape35-13" v:mID="35" v:groupContext="shape" transform="translate(169.065,-77.745)">
			<title>Sheet.35</title>
			<desc>B</desc>
			<v:textBlock v:margins="rect(0,0,0,0)"/>
			<v:textRect cx="9" cy="157.74" width="18" height="9"/>
			<path d="M18 153.24 L0 153.24 L0 162.24 L18 162.24 L18 153.24" class="st3"/>
			<text x="0" y="160.74" class="st4" v:langID="1033"><v:paragraph/><v:tabList/>B</text>		</g>
		<g id="shape36-17" v:mID="36" v:groupContext="shape" transform="translate(74.0026,-148.901)">
			<title>Sheet.36</title>
			<path d="M0 162.24 L331.31 162.24" class="st5"/>
		</g>
		<g id="shape37-20" v:mID="37" v:groupContext="shape" transform="translate(74.0026,-130.62)">
			<title>Sheet.37</title>
			<path d="M0 162.24 L353.81 162.24" class="st5"/>
		</g>
		<g id="shape38-23" v:mID="38" v:groupContext="shape" transform="translate(148.815,-90.12) scale(-1,1)">
			<title>Sheet.38</title>
			<path d="M0 103.74 L0 155.76" class="st6"/>
		</g>
		<g id="shape39-29" v:mID="39" v:groupContext="shape" transform="translate(171.315,-90.12) scale(-1,1)">
			<title>Sheet.39</title>
			<path d="M0 121.74 L0 155.76" class="st6"/>
		</g>
		<g id="shape40-34" v:mID="40" v:groupContext="shape" transform="translate(292.815,-90.12) scale(-1,1)">
			<title>Sheet.40</title>
			<path d="M0 103.74 L0 155.76" class="st6"/>
		</g>
		<g id="shape41-39" v:mID="41" v:groupContext="shape" transform="translate(315.315,-90.12) scale(-1,1)">
			<title>Sheet.41</title>
			<path d="M0 121.74 L0 155.76" class="st6"/>
		</g>
		<g id="shape42-44" v:mID="42" v:groupContext="shape" transform="translate(400.815,-90.12) scale(-1,1)">
			<title>Sheet.42</title>
			<path d="M0 103.74 L0 155.76" class="st6"/>
		</g>
		<g id="shape43-49" v:mID="43" v:groupContext="shape" transform="translate(423.315,-90.12) scale(-1,1)">
			<title>Sheet.43</title>
			<path d="M0 121.74 L0 155.76" class="st6"/>
		</g>
		<g id="shape44-54" v:mID="44" v:groupContext="shape" transform="translate(286.094,130.31) rotate(-135)">
			<title>Sheet.44</title>
			<path d="M0 162.24 L3.18 162.24" class="st8"/>
		</g>
		<g id="shape45-57" v:mID="45" v:groupContext="shape" transform="translate(308.594,148.591) rotate(-135)">
			<title>Sheet.45</title>
			<path d="M0 162.24 L3.18 162.24" class="st8"/>
		</g>
		<g id="shape46-60" v:mID="46" v:groupContext="shape" transform="translate(178.094,130.31) rotate(-135)">
			<title>Sheet.46</title>
			<path d="M0 162.24 L3.18 162.24" class="st8"/>
		</g>
		<g id="shape47-63" v:mID="47" v:groupContext="shape" transform="translate(200.594,148.591) rotate(-135)">
			<title>Sheet.47</title>
			<path d="M0 162.24 L3.18 162.24" class="st8"/>
		</g>
		<g id="shape48-66" v:mID="48" v:groupContext="shape" transform="translate(34.0941,130.31) rotate(-135)">
			<title>Sheet.48</title>
			<path d="M0 162.24 L3.18 162.24" class="st8"/>
		</g>
		<g id="shape49-69" v:mID="49" v:groupContext="shape" transform="translate(56.5941,148.591) rotate(-135)">
			<title>Sheet.49</title>
			<path d="M0 162.24 L3.18 162.24" class="st8"/>
		</g>
		<g id="shape50-72" v:mID="50" v:groupContext="shape" transform="translate(227.003,-63.12)">
			<title>Circle.237</title>
			<v:userDefs>
				<v:ud v:nameU="visVersion" v:val="VT0(11):26"/>
			</v:userDefs>
			<path d="M0 161.4 a0.84375 0.84375 0 0 1 1.6875 0 a0.84375 0.84375 0 1 1 -1.6875 0 Z" class="st9"/>
		</g>
		<g id="shape51-74" v:mID="51" v:groupContext="shape" transform="translate(232.909,-63.12)">
			<title>Circle.238</title>
			<v:userDefs>
				<v:ud v:nameU="visVersion" v:val="VT0(11):26"/>
			</v:userDefs>
			<path d="M0 161.4 a0.84375 0.84375 0 0 1 1.6875 0 a0.84375 0.84375 0 1 1 -1.6875 0 Z" class="st9"/>
		</g>
		<g id="shape52-76" v:mID="52" v:groupContext="shape" transform="translate(238.815,-63.12)">
			<title>Circle.239</title>
			<v:userDefs>
				<v:ud v:nameU="visVersion" v:val="VT0(11):26"/>
			</v:userDefs>
			<path d="M0 161.4 a0.84375 0.84375 0 0 1 1.6875 0 a0.84375 0.84375 0 1 1 -1.6875 0 Z" class="st9"/>
		</g>
		<g id="shape53-78" v:mID="53" v:groupContext="shape" transform="translate(153.315,-139.62)">
			<title>Sheet.53</title>
			<desc>A(7)</desc>
			<v:textBlock v:margins="rect(0,0,0,0)"/>
			<v:textRect cx="9" cy="159.99" width="18" height="4.5"/>
			<path d="M18 157.74 L0 157.74 L0 162.24 L18 162.24 L18 157.74" class="st3"/>
			<text x="0" y="162.69" class="st10" v:langID="1033"><v:paragraph/><v:tabList/>A(7)</text>		</g>
		<g id="shape54-82" v:mID="54" v:groupContext="shape" transform="translate(175.815,-121.62)">
			<title>Sheet.54</title>
			<desc>B(7)</desc>
			<v:textBlock v:margins="rect(0,0,0,0)"/>
			<v:textRect cx="9" cy="159.99" width="18" height="4.5"/>
			<path d="M18 157.74 L0 157.74 L0 162.24 L18 162.24 L18 157.74" class="st3"/>
			<text x="0" y="162.69" class="st10" v:langID="1033"><v:paragraph/><v:tabList/>B(7)</text>		</g>
		<g id="shape55-86" v:mID="55" v:groupContext="shape" transform="translate(297.315,-139.62)">
			<title>Sheet.55</title>
			<desc>A(1)</desc>
			<v:textBlock v:margins="rect(0,0,0,0)"/>
			<v:textRect cx="9" cy="159.99" width="18" height="4.5"/>
			<path d="M18 157.74 L0 157.74 L0 162.24 L18 162.24 L18 157.74" class="st3"/>
			<text x="0" y="162.69" class="st10" v:langID="1033"><v:paragraph/><v:tabList/>A(1)</text>		</g>
		<g id="shape56-90" v:mID="56" v:groupContext="shape" transform="translate(319.815,-121.62)">
			<title>Sheet.56</title>
			<desc>B(1)</desc>
			<v:textBlock v:margins="rect(0,0,0,0)"/>
			<v:textRect cx="9" cy="159.99" width="18" height="4.5"/>
			<path d="M18 157.74 L0 157.74 L0 162.24 L18 162.24 L18 157.74" class="st3"/>
			<text x="0" y="162.69" class="st10" v:langID="1033"><v:paragraph/><v:tabList/>B(1)</text>		</g>
		<g id="shape57-94" v:mID="57" v:groupContext="shape" transform="translate(405.315,-139.62)">
			<title>Sheet.57</title>
			<desc>A(0)</desc>
			<v:textBlock v:margins="rect(0,0,0,0)"/>
			<v:textRect cx="9" cy="159.99" width="18" height="4.5"/>
			<path d="M18 157.74 L0 157.74 L0 162.24 L18 162.24 L18 157.74" class="st3"/>
			<text x="0" y="162.69" class="st10" v:langID="1033"><v:paragraph/><v:tabList/>A(0)</text>		</g>
		<g id="shape58-98" v:mID="58" v:groupContext="shape" transform="translate(427.815,-121.62)">
			<title>Sheet.58</title>
			<desc>B(0)</desc>
			<v:textBlock v:margins="rect(0,0,0,0)"/>
			<v:textRect cx="9" cy="159.99" width="18" height="4.5"/>
			<path d="M18 157.74 L0 157.74 L0 162.24 L18 162.24 L18 157.74" class="st3"/>
			<text x="0" y="162.69" class="st10" v:langID="1033"><v:paragraph/><v:tabList/>B(0)</text>		</g>
		<g id="shape59-102" v:mID="59" v:groupContext="shape" transform="translate(24.5026,-144.12)">
			<title>Sheet.59</title>
			<desc>A[7..0]</desc>
			<v:textBlock v:margins="rect(0,0,0,0)"/>
			<v:textRect cx="22.5" cy="157.74" width="45" height="9"/>
			<path d="M45 153.24 L0 153.24 L0 162.24 L45 162.24 L45 153.24" class="st3"/>
			<text x="11.38" y="161.04" class="st11" v:langID="1033"><v:paragraph v:horizAlign="2"/><v:tabList/>A[7..0]</text>		</g>
		<g id="shape60-106" v:mID="60" v:groupContext="shape" transform="translate(24.5026,-126.12)">
			<title>Sheet.60</title>
			<desc>B[7..0]</desc>
			<v:textBlock v:margins="rect(0,0,0,0)"/>
			<v:textRect cx="22.5" cy="157.74" width="45" height="9"/>
			<path d="M45 153.24 L0 153.24 L0 162.24 L45 162.24 L45 153.24" class="st3"/>
			<text x="11.38" y="161.04" class="st11" v:langID="1033"><v:paragraph v:horizAlign="2"/><v:tabList/>B[7..0]</text>		</g>
		<g id="shape61-110" v:mID="61" v:groupContext="shape" transform="translate(459.878,-34.995)">
			<title>Sheet.61</title>
			<path d="M0 155.49 L11.25 155.49 L5.62 162.24 L0 155.49 Z" class="st12"/>
		</g>
		<g id="shape62-112" v:mID="62" v:groupContext="shape" transform="translate(152.753,-40.62)">
			<title>Sheet.62</title>
			<desc>F</desc>
			<v:textBlock v:margins="rect(0,0,0,0)"/>
			<v:textRect cx="7.875" cy="157.74" width="15.75" height="9"/>
			<path d="M15.75 153.24 L0 153.24 L0 162.24 L15.75 162.24 L15.75 153.24" class="st3"/>
			<text x="4.82" y="160.74" class="st4" v:langID="1033"><v:paragraph v:horizAlign="1"/><v:tabList/>F</text>		</g>
		<g id="shape63-116" v:mID="63" v:groupContext="shape" transform="translate(380.003,-36.12)">
			<title>Rectangle.192</title>
			<v:userDefs>
				<v:ud v:nameU="visVersion" v:val="VT0(11):26"/>
			</v:userDefs>
			<rect x="0" y="108.24" width="63" height="54" class="st2"/>
		</g>
		<g id="shape64-118" v:mID="64" v:groupContext="shape" transform="translate(418.253,-50.745)">
			<title>Sheet.64</title>
			<desc>Cin</desc>
			<v:textBlock v:margins="rect(0,0,0,0)"/>
			<v:textRect cx="11.25" cy="157.74" width="22.5" height="9"/>
			<path d="M22.5 153.24 L0 153.24 L0 162.24 L22.5 162.24 L22.5 153.24" class="st3"/>
			<text x="7.5" y="160.74" class="st4" v:langID="1033"><v:paragraph v:horizAlign="2"/><v:tabList/>Cin</text>		</g>
		<g id="shape65-122" v:mID="65" v:groupContext="shape" transform="translate(398.565,-77.745)">
			<title>Sheet.65</title>
			<desc>A</desc>
			<v:textBlock v:margins="rect(0,0,0,0)"/>
			<v:textRect cx="9" cy="157.74" width="18" height="9"/>
			<path d="M18 153.24 L0 153.24 L0 162.24 L18 162.24 L18 153.24" class="st3"/>
			<text x="0" y="160.74" class="st4" v:langID="1033"><v:paragraph/><v:tabList/>A</text>		</g>
		<g id="shape66-126" v:mID="66" v:groupContext="shape" transform="translate(421.065,-77.745)">
			<title>Sheet.66</title>
			<desc>B</desc>
			<v:textBlock v:margins="rect(0,0,0,0)"/>
			<v:textRect cx="9" cy="157.74" width="18" height="9"/>
			<path d="M18 153.24 L0 153.24 L0 162.24 L18 162.24 L18 153.24" class="st3"/>
			<text x="0" y="160.74" class="st4" v:langID="1033"><v:paragraph/><v:tabList/>B</text>		</g>
		<g id="shape67-130" v:mID="67" v:groupContext="shape" transform="translate(404.753,-40.62)">
			<title>Sheet.67</title>
			<desc>F</desc>
			<v:textBlock v:margins="rect(0,0,0,0)"/>
			<v:textRect cx="9" cy="157.74" width="18" height="9"/>
			<path d="M18 153.24 L0 153.24 L0 162.24 L18 162.24 L18 153.24" class="st3"/>
			<text x="5.95" y="160.74" class="st4" v:langID="1033"><v:paragraph v:horizAlign="1"/><v:tabList/>F</text>		</g>
		<g id="shape68-134" v:mID="68" v:groupContext="shape" transform="translate(272.003,-36.12)">
			<title>Rectangle.206</title>
			<v:userDefs>
				<v:ud v:nameU="visVersion" v:val="VT0(11):26"/>
			</v:userDefs>
			<rect x="0" y="108.24" width="63" height="54" class="st2"/>
		</g>
		<g id="shape69-136" v:mID="69" v:groupContext="shape" transform="translate(310.253,-50.745)">
			<title>Sheet.69</title>
			<desc>Cin</desc>
			<v:textBlock v:margins="rect(0,0,0,0)"/>
			<v:textRect cx="11.25" cy="157.74" width="22.5" height="9"/>
			<path d="M22.5 153.24 L0 153.24 L0 162.24 L22.5 162.24 L22.5 153.24" class="st3"/>
			<text x="7.5" y="160.74" class="st4" v:langID="1033"><v:paragraph v:horizAlign="2"/><v:tabList/>Cin</text>		</g>
		<g id="shape70-140" v:mID="70" v:groupContext="shape" transform="translate(290.565,-77.745)">
			<title>Sheet.70</title>
			<desc>A</desc>
			<v:textBlock v:margins="rect(0,0,0,0)"/>
			<v:textRect cx="9" cy="157.74" width="18" height="9"/>
			<path d="M18 153.24 L0 153.24 L0 162.24 L18 162.24 L18 153.24" class="st3"/>
			<text x="0" y="160.74" class="st4" v:langID="1033"><v:paragraph/><v:tabList/>A</text>		</g>
		<g id="shape71-144" v:mID="71" v:groupContext="shape" transform="translate(313.065,-77.745)">
			<title>Sheet.71</title>
			<desc>B</desc>
			<v:textBlock v:margins="rect(0,0,0,0)"/>
			<v:textRect cx="9" cy="157.74" width="18" height="9"/>
			<path d="M18 153.24 L0 153.24 L0 162.24 L18 162.24 L18 153.24" class="st3"/>
			<text x="0" y="160.74" class="st4" v:langID="1033"><v:paragraph/><v:tabList/>B</text>		</g>
		<g id="shape72-148" v:mID="72" v:groupContext="shape" transform="translate(297.878,-40.62)">
			<title>Sheet.72</title>
			<desc>F</desc>
			<v:textBlock v:margins="rect(0,0,0,0)"/>
			<v:textRect cx="7.875" cy="157.74" width="15.75" height="9"/>
			<path d="M15.75 153.24 L0 153.24 L0 162.24 L15.75 162.24 L15.75 153.24" class="st3"/>
			<text x="4.82" y="160.74" class="st4" v:langID="1033"><v:paragraph v:horizAlign="1"/><v:tabList/>F</text>		</g>
		<g id="shape73-152" v:mID="73" v:groupContext="shape" transform="translate(156.69,-20.37)">
			<title>Sheet.73</title>
			<desc>F(7)</desc>
			<v:textBlock v:margins="rect(0,0,0,0)"/>
			<v:textRect cx="13.5" cy="157.74" width="27" height="9"/>
			<path d="M27 153.24 L0 153.24 L0 162.24 L27 162.24 L27 153.24" class="st3"/>
			<text x="4.33" y="160.74" class="st4" v:langID="1033"><v:paragraph v:horizAlign="1"/><v:tabList/>F(7)</text>		</g>
		<g id="shape74-156" v:mID="74" v:groupContext="shape" transform="translate(300.69,-20.37)">
			<title>Sheet.74</title>
			<desc>F(1)</desc>
			<v:textBlock v:margins="rect(0,0,0,0)"/>
			<v:textRect cx="13.5" cy="157.74" width="27" height="9"/>
			<path d="M27 153.24 L0 153.24 L0 162.24 L27 162.24 L27 153.24" class="st3"/>
			<text x="4.33" y="160.74" class="st4" v:langID="1033"><v:paragraph v:horizAlign="1"/><v:tabList/>F(1)</text>		</g>
		<g id="shape75-160" v:mID="75" v:groupContext="shape" transform="translate(408.69,-20.37)">
			<title>Sheet.75</title>
			<desc>F(0)</desc>
			<v:textBlock v:margins="rect(0,0,0,0)"/>
			<v:textRect cx="13.5" cy="157.74" width="27" height="9"/>
			<path d="M27 153.24 L0 153.24 L0 162.24 L27 162.24 L27 153.24" class="st3"/>
			<text x="4.33" y="160.74" class="st4" v:langID="1033"><v:paragraph v:horizAlign="1"/><v:tabList/>F(0)</text>		</g>
		<g id="shape76-164" v:mID="76" v:groupContext="shape" transform="translate(465.503,-41.745) scale(-1,1)">
			<title>Sheet.76</title>
			<path d="M0 162.24 L0 148.74 L7.5 148.74 L16.02 148.74" class="st6"/>
		</g>
		<g id="shape77-169" v:mID="77" v:groupContext="shape" transform="translate(4.25257,-49.62)">
			<title>Sheet.77</title>
			<desc>Carry out to next stage</desc>
			<v:textBlock v:margins="rect(0,0,0,0)"/>
			<v:textRect cx="31.5" cy="157.74" width="63" height="9"/>
			<path d="M63 153.24 L0 153.24 L0 162.24 L63 162.24 L63 153.24" class="st3"/>
			<text x="10.76" y="154.74" class="st4" v:langID="1033"><v:paragraph v:horizAlign="2"/><v:tabList/>Carry out to <tspan
						x="16.86" dy="1.2em" class="st13">next stage</tspan></text>		</g>
		<g id="shape78-174" v:mID="78" v:groupContext="shape" transform="translate(74.0026,-112.62)">
			<title>Sheet.78</title>
			<path d="M0 162.24 L292.5 162.24" class="st5"/>
		</g>
		<g id="shape79-177" v:mID="79" v:groupContext="shape" transform="translate(0,-108.12)">
			<title>Sheet.79</title>
			<desc>OpCode[2..0]</desc>
			<v:textBlock v:margins="rect(0,0,0,0)"/>
			<v:textRect cx="34.7513" cy="157.74" width="69.51" height="9"/>
			<path d="M69.5 153.24 L0 153.24 L0 162.24 L69.5 162.24 L69.5 153.24" class="st3"/>
			<text x="1.05" y="161.04" class="st11" v:langID="1033"><v:paragraph v:horizAlign="2"/><v:tabList/>OpCode[2..0]</text>		</g>
		<g id="shape80-181" v:mID="80" v:groupContext="shape" transform="translate(112.815,-110.933)">
			<title>Circle</title>
			<v:userDefs>
				<v:ud v:nameU="visVersion" v:val="VT0(11):26"/>
			</v:userDefs>
			<path d="M0 160.55 A1.6875 1.6875 0 0 1 3.37 160.55 A1.6875 1.6875 0 1 1 0 160.55 Z" class="st9"/>
		</g>
		<g id="shape81-183" v:mID="81" v:groupContext="shape" transform="translate(258.503,243.641) scale(1,-1)">
			<title>Sheet.81</title>
			<path d="M0 162.24 L6.06 162.24" class="st14"/>
		</g>
		<g id="shape82-189" v:mID="82" v:groupContext="shape" transform="translate(96.2626,81.4013) rotate(-90)">
			<title>Sheet.82</title>
			<path d="M0 162.24 L31.78 162.24" class="st5"/>
		</g>
		<g id="shape83-192" v:mID="83" v:groupContext="shape" transform="translate(256.815,-110.933)">
			<title>Circle.121</title>
			<v:userDefs>
				<v:ud v:nameU="visVersion" v:val="VT0(11):26"/>
			</v:userDefs>
			<path d="M0 160.55 A1.6875 1.6875 0 0 1 3.37 160.55 A1.6875 1.6875 0 1 1 0 160.55 Z" class="st9"/>
		</g>
		<g id="shape84-194" v:mID="84" v:groupContext="shape" transform="translate(114.503,243.36) scale(1,-1)">
			<title>Sheet.84</title>
			<path d="M0 162.24 L6.06 162.24" class="st14"/>
		</g>
		<g id="shape85-199" v:mID="85" v:groupContext="shape" transform="translate(-47.7374,81.12) rotate(-90)">
			<title>Sheet.85</title>
			<path d="M0 162.24 L31.5 162.24" class="st5"/>
		</g>
		<g id="shape86-202" v:mID="86" v:groupContext="shape" transform="translate(366.503,243.36) scale(1,-1)">
			<title>Sheet.86</title>
			<path d="M0 162.24 L6.06 162.24" class="st14"/>
		</g>
		<g id="shape87-207" v:mID="87" v:groupContext="shape" transform="translate(204.263,81.12) rotate(-90)">
			<title>Sheet.87</title>
			<path d="M0 162.24 L31.5 162.24" class="st5"/>
		</g>
		<g id="shape88-210" v:mID="88" v:groupContext="shape" transform="translate(380.003,-55.245) scale(-1,1)">
			<title>Sheet.88</title>
			<path d="M0 162.24 L38.52 162.24" class="st6"/>
		</g>
		<g id="shape89-215" v:mID="89" v:groupContext="shape" transform="translate(381.128,-50.745)">
			<title>Sheet.89</title>
			<desc>Cout</desc>
			<v:textBlock v:margins="rect(0,0,0,0)"/>
			<v:textRect cx="11.25" cy="157.74" width="22.5" height="9"/>
			<path d="M22.5 153.24 L0 153.24 L0 162.24 L22.5 162.24 L22.5 153.24" class="st3"/>
			<text x="1.38" y="160.74" class="st4" v:langID="1033"><v:paragraph v:horizAlign="2"/><v:tabList/>Cout</text>		</g>
		<g id="shape90-219" v:mID="90" v:groupContext="shape" transform="translate(272.003,-55.245) scale(-1,1)">
			<title>Sheet.90</title>
			<path d="M0 162.24 L7.02 162.24" class="st6"/>
		</g>
		<g id="shape91-224" v:mID="91" v:groupContext="shape" transform="translate(273.128,-50.745)">
			<title>Sheet.91</title>
			<desc>Cout</desc>
			<v:textBlock v:margins="rect(0,0,0,0)"/>
			<v:textRect cx="11.25" cy="157.74" width="22.5" height="9"/>
			<path d="M22.5 153.24 L0 153.24 L0 162.24 L22.5 162.24 L22.5 153.24" class="st3"/>
			<text x="1.38" y="160.74" class="st4" v:langID="1033"><v:paragraph v:horizAlign="2"/><v:tabList/>Cout</text>		</g>
		<g id="shape92-228" v:mID="92" v:groupContext="shape" transform="translate(204.503,-54.12) scale(-1,1)">
			<title>Sheet.92</title>
			<path d="M0 162.24 L7.02 162.24" class="st6"/>
		</g>
		<g id="shape93-233" v:mID="93" v:groupContext="shape" transform="translate(127.44,-54.12) scale(-1,1)">
			<title>Sheet.93</title>
			<path d="M0 162.24 L51.46 162.24" class="st6"/>
		</g>
		<g id="shape94-238" v:mID="94" v:groupContext="shape" transform="translate(128.565,-49.62)">
			<title>Sheet.94</title>
			<desc>Cout</desc>
			<v:textBlock v:margins="rect(0,0,0,0)"/>
			<v:textRect cx="11.25" cy="157.74" width="22.5" height="9"/>
			<path d="M22.5 153.24 L0 153.24 L0 162.24 L22.5 162.24 L22.5 153.24" class="st3"/>
			<text x="1.38" y="160.74" class="st4" v:langID="1033"><v:paragraph v:horizAlign="2"/><v:tabList/>Cout</text>		</g>
		<g id="shape95-242" v:mID="95" v:groupContext="shape" transform="translate(74.0026,308.61) scale(1,-1)">
			<title>Sheet.95</title>
			<path d="M0 162.24 L342 162.24" class="st5"/>
		</g>
		<g id="shape96-245" v:mID="96" v:groupContext="shape" transform="translate(159.503,288.36) rotate(180)">
			<title>Sheet.96</title>
			<path d="M0 141.99 L0 162.24" class="st8"/>
		</g>
		<g id="shape97-248" v:mID="97" v:groupContext="shape" transform="translate(303.503,288.36) rotate(180)">
			<title>Sheet.97</title>
			<path d="M0 141.99 L0 162.24" class="st8"/>
		</g>
		<g id="shape98-251" v:mID="98" v:groupContext="shape" transform="translate(411.503,288.36) rotate(180)">
			<title>Sheet.98</title>
			<path d="M0 141.99 L0 162.24" class="st8"/>
		</g>
		<g id="shape99-254" v:mID="99" v:groupContext="shape" transform="translate(47.0316,261.091) rotate(-135)">
			<title>Sheet.99</title>
			<path d="M0 162.24 L3.18 162.24" class="st8"/>
		</g>
		<g id="shape100-257" v:mID="100" v:groupContext="shape" transform="translate(191.032,261.091) rotate(-135)">
			<title>Sheet.100</title>
			<path d="M0 162.24 L3.18 162.24" class="st8"/>
		</g>
		<g id="shape101-260" v:mID="101" v:groupContext="shape" transform="translate(299.032,261.091) rotate(-135)">
			<title>Sheet.101</title>
			<path d="M0 162.24 L3.18 162.24" class="st8"/>
		</g>
		<g id="shape102-263" v:mID="102" v:groupContext="shape" transform="translate(24.5026,-9.12)">
			<title>Sheet.102</title>
			<desc>F[7..0]</desc>
			<v:textBlock v:margins="rect(0,0,0,0)"/>
			<v:textRect cx="22.5" cy="155.49" width="45" height="13.5"/>
			<path d="M45 148.74 L0 148.74 L0 162.24 L45 162.24 L45 148.74" class="st3"/>
			<text x="12.61" y="158.79" class="st11" v:langID="1033"><v:paragraph v:horizAlign="2"/><v:tabList/>F[7..0]</text>		</g>
	</g>
</svg>
