<?xml version="1.0" encoding="UTF-8" standalone="no"?>
<!DOCTYPE svg PUBLIC "-//W3C//DTD SVG 1.1//EN" "http://www.w3.org/Graphics/SVG/1.1/DTD/svg11.dtd">
<!-- Generated by Microsoft Visio, SVG Export ssd.svg Page-1 -->
<svg xmlns="http://www.w3.org/2000/svg" xmlns:xlink="http://www.w3.org/1999/xlink" xmlns:ev="http://www.w3.org/2001/xml-events"
		xmlns:v="http://schemas.microsoft.com/visio/2003/SVGExtensions/" width="3.395in" height="2.41958in"
		viewBox="0 0 244.44 174.21" xml:space="preserve" color-interpolation-filters="sRGB" class="st6">
	<v:documentProperties v:langID="1033" v:viewMarkup="false">
		<v:userDefs>
			<v:ud v:nameU="msvConvertTheme"/>
		</v:userDefs>
	</v:documentProperties>

	<style type="text/css">
	<![CDATA[
		.st1 {fill:#e9e9eb;stroke:#000000;stroke-dasharray:0,0.72;stroke-linecap:round;stroke-linejoin:round;stroke-width:0.24}
		.st2 {fill:#e2494e;stroke:#000000;stroke-dasharray:0,0.72;stroke-linecap:round;stroke-linejoin:round;stroke-width:0.24}
		.st3 {fill:#e9e9eb;stroke:#000000;stroke-dasharray:0,2.16;stroke-linecap:round;stroke-linejoin:round;stroke-width:0.72}
		.st4 {fill:none;stroke:none;stroke-linecap:round;stroke-linejoin:round;stroke-width:0.72}
		.st5 {fill:#000000;font-family:Arial;font-size:0.833336em}
		.st6 {fill:none;fill-rule:evenodd;font-size:12px;overflow:visible;stroke-linecap:square;stroke-miterlimit:3}
	]]>
	</style>

	<g v:mID="0" v:index="1" v:groupContext="foregroundPage">
		<title>Page-1</title>
		<v:pageProperties v:drawingScale="1" v:pageScale="1" v:drawingUnits="19" v:shadowOffsetX="9" v:shadowOffsetY="-9"/>
		<g id="group1858-1" transform="translate(14.22,-44.7443)" v:mID="1858" v:groupContext="group">
			<title>Sheet.1858</title>
			<g id="shape1727-2" v:mID="1727" v:groupContext="shape" transform="translate(105.914,-126.12)">
				<title>Sheet.1727</title>
				<path d="M15.59 171.1 L15.13 174.21 L0 174.21 L0.46 171.1 L15.59 171.1 Z" class="st1"/>
			</g>
			<g id="shape1728-4" v:mID="1728" v:groupContext="shape" transform="translate(-69.4358,61.2916) rotate(-90)">
				<title>Sheet.1728</title>
				<path d="M16.31 170.93 L16.31 174.21 L0 172.57 L0 169.29 L16.31 170.93 Z" class="st1"/>
			</g>
			<g id="shape1729-6" v:mID="1729" v:groupContext="shape" transform="translate(-71.2598,79.9286) rotate(-90)">
				<title>Sheet.1729</title>
				<path d="M16.31 170.93 L16.31 174.21 L0 172.57 L0 169.29 L16.31 170.93 Z" class="st1"/>
			</g>
			<g id="shape1730-8" v:mID="1730" v:groupContext="shape" transform="translate(104.273,-110.201)">
				<title>Sheet.1730</title>
				<path d="M15.59 171.1 L15.13 174.21 L0 174.21 L0.46 171.1 L15.59 171.1 Z" class="st1"/>
			</g>
			<g id="shape1731-10" v:mID="1731" v:groupContext="shape" transform="translate(102.631,-94.2814)">
				<title>Sheet.1731</title>
				<path d="M15.59 171.1 L15.13 174.21 L0 174.21 L0.46 171.1 L15.59 171.1 Z" class="st1"/>
			</g>
			<g id="shape1732-12" v:mID="1732" v:groupContext="shape" transform="translate(-47.5938,61.2916) rotate(-90)">
				<title>Sheet.1732</title>
				<path d="M16.31 170.93 L16.31 174.21 L0 172.57 L0 169.29 L16.31 170.93 Z" class="st2"/>
			</g>
			<g id="shape1733-14" v:mID="1733" v:groupContext="shape" transform="translate(-49.4177,79.9286) rotate(-90)">
				<title>Sheet.1733</title>
				<path d="M16.31 170.93 L16.31 174.21 L0 172.57 L0 169.29 L16.31 170.93 Z" class="st2"/>
			</g>
			<g id="shape2-16" v:mID="2" v:groupContext="shape" transform="translate(149.481,-124.985)">
				<title>Sheet.2</title>
				<path d="M15.59 171.1 L15.13 174.21 L0 174.21 L0.46 171.1 L15.59 171.1 Z" class="st2"/>
			</g>
			<g id="shape3-18" v:mID="3" v:groupContext="shape" transform="translate(-25.8689,62.4262) rotate(-90)">
				<title>Sheet.3</title>
				<path d="M16.31 170.93 L16.31 174.21 L0 172.57 L0 169.29 L16.31 170.93 Z" class="st1"/>
			</g>
			<g id="shape4-20" v:mID="4" v:groupContext="shape" transform="translate(-27.6929,81.0631) rotate(-90)">
				<title>Sheet.4</title>
				<path d="M16.31 170.93 L16.31 174.21 L0 172.57 L0 169.29 L16.31 170.93 Z" class="st2"/>
			</g>
			<g id="shape5-22" v:mID="5" v:groupContext="shape" transform="translate(147.839,-109.066)">
				<title>Sheet.5</title>
				<path d="M15.59 171.1 L15.13 174.21 L0 174.21 L0.46 171.1 L15.59 171.1 Z" class="st2"/>
			</g>
			<g id="shape6-24" v:mID="6" v:groupContext="shape" transform="translate(146.198,-93.1469)">
				<title>Sheet.6</title>
				<path d="M15.59 171.1 L15.13 174.21 L0 174.21 L0.46 171.1 L15.59 171.1 Z" class="st2"/>
			</g>
			<g id="shape7-26" v:mID="7" v:groupContext="shape" transform="translate(-4.02688,62.4262) rotate(-90)">
				<title>Sheet.7</title>
				<path d="M16.31 170.93 L16.31 174.21 L0 172.57 L0 169.29 L16.31 170.93 Z" class="st2"/>
			</g>
			<g id="shape8-28" v:mID="8" v:groupContext="shape" transform="translate(-5.85085,81.0631) rotate(-90)">
				<title>Sheet.8</title>
				<path d="M16.31 170.93 L16.31 174.21 L0 172.57 L0 169.29 L16.31 170.93 Z" class="st1"/>
			</g>
			<g id="shape10-30" v:mID="10" v:groupContext="shape" transform="translate(193.048,-124.985)">
				<title>Sheet.10</title>
				<path d="M15.59 171.1 L15.13 174.21 L0 174.21 L0.46 171.1 L15.59 171.1 Z" class="st2"/>
			</g>
			<g id="shape11-32" v:mID="11" v:groupContext="shape" transform="translate(17.6979,62.4262) rotate(-90)">
				<title>Sheet.11</title>
				<path d="M16.31 170.93 L16.31 174.21 L0 172.57 L0 169.29 L16.31 170.93 Z" class="st1"/>
			</g>
			<g id="shape12-34" v:mID="12" v:groupContext="shape" transform="translate(15.874,81.0631) rotate(-90)">
				<title>Sheet.12</title>
				<path d="M16.31 170.93 L16.31 174.21 L0 172.57 L0 169.29 L16.31 170.93 Z" class="st1"/>
			</g>
			<g id="shape13-36" v:mID="13" v:groupContext="shape" transform="translate(191.406,-109.066)">
				<title>Sheet.13</title>
				<path d="M15.59 171.1 L15.13 174.21 L0 174.21 L0.46 171.1 L15.59 171.1 Z" class="st2"/>
			</g>
			<g id="shape14-38" v:mID="14" v:groupContext="shape" transform="translate(189.765,-93.1469)">
				<title>Sheet.14</title>
				<path d="M15.59 171.1 L15.13 174.21 L0 174.21 L0.46 171.1 L15.59 171.1 Z" class="st2"/>
			</g>
			<g id="shape15-40" v:mID="15" v:groupContext="shape" transform="translate(39.54,62.4262) rotate(-90)">
				<title>Sheet.15</title>
				<path d="M16.31 170.93 L16.31 174.21 L0 172.57 L0 169.29 L16.31 170.93 Z" class="st2"/>
			</g>
			<g id="shape16-42" v:mID="16" v:groupContext="shape" transform="translate(37.716,81.0631) rotate(-90)">
				<title>Sheet.16</title>
				<path d="M16.31 170.93 L16.31 174.21 L0 172.57 L0 169.29 L16.31 170.93 Z" class="st2"/>
			</g>
			<g id="shape18-44" v:mID="18" v:groupContext="shape" transform="translate(105.914,-76.5395)">
				<title>Sheet.18</title>
				<path d="M15.59 171.1 L15.13 174.21 L0 174.21 L0.46 171.1 L15.59 171.1 Z" class="st1"/>
			</g>
			<g id="shape19-46" v:mID="19" v:groupContext="shape" transform="translate(-69.4358,110.872) rotate(-90)">
				<title>Sheet.19</title>
				<path d="M16.31 170.93 L16.31 174.21 L0 172.57 L0 169.29 L16.31 170.93 Z" class="st2"/>
			</g>
			<g id="shape20-48" v:mID="20" v:groupContext="shape" transform="translate(-71.2598,129.509) rotate(-90)">
				<title>Sheet.20</title>
				<path d="M16.31 170.93 L16.31 174.21 L0 172.57 L0 169.29 L16.31 170.93 Z" class="st1"/>
			</g>
			<g id="shape21-50" v:mID="21" v:groupContext="shape" transform="translate(104.273,-60.6205)">
				<title>Sheet.21</title>
				<path d="M15.59 171.1 L15.13 174.21 L0 174.21 L0.46 171.1 L15.59 171.1 Z" class="st2"/>
			</g>
			<g id="shape22-52" v:mID="22" v:groupContext="shape" transform="translate(102.631,-44.7014)">
				<title>Sheet.22</title>
				<path d="M15.59 171.1 L15.13 174.21 L0 174.21 L0.46 171.1 L15.59 171.1 Z" class="st1"/>
			</g>
			<g id="shape23-54" v:mID="23" v:groupContext="shape" transform="translate(-47.5938,110.872) rotate(-90)">
				<title>Sheet.23</title>
				<path d="M16.31 170.93 L16.31 174.21 L0 172.57 L0 169.29 L16.31 170.93 Z" class="st2"/>
			</g>
			<g id="shape24-56" v:mID="24" v:groupContext="shape" transform="translate(-49.4177,129.509) rotate(-90)">
				<title>Sheet.24</title>
				<path d="M16.31 170.93 L16.31 174.21 L0 172.57 L0 169.29 L16.31 170.93 Z" class="st2"/>
			</g>
			<g id="shape26-58" v:mID="26" v:groupContext="shape" transform="translate(149.481,-75.405)">
				<title>Sheet.26</title>
				<path d="M15.59 171.1 L15.13 174.21 L0 174.21 L0.46 171.1 L15.59 171.1 Z" class="st2"/>
			</g>
			<g id="shape27-60" v:mID="27" v:groupContext="shape" transform="translate(-25.8689,112.006) rotate(-90)">
				<title>Sheet.27</title>
				<path d="M16.31 170.93 L16.31 174.21 L0 172.57 L0 169.29 L16.31 170.93 Z" class="st2"/>
			</g>
			<g id="shape28-62" v:mID="28" v:groupContext="shape" transform="translate(-27.6929,130.643) rotate(-90)">
				<title>Sheet.28</title>
				<path d="M16.31 170.93 L16.31 174.21 L0 172.57 L0 169.29 L16.31 170.93 Z" class="st1"/>
			</g>
			<g id="shape29-64" v:mID="29" v:groupContext="shape" transform="translate(147.839,-59.4859)">
				<title>Sheet.29</title>
				<path d="M15.59 171.1 L15.13 174.21 L0 174.21 L0.46 171.1 L15.59 171.1 Z" class="st2"/>
			</g>
			<g id="shape30-66" v:mID="30" v:groupContext="shape" transform="translate(146.198,-43.5669)">
				<title>Sheet.30</title>
				<path d="M15.59 171.1 L15.13 174.21 L0 174.21 L0.46 171.1 L15.59 171.1 Z" class="st2"/>
			</g>
			<g id="shape31-68" v:mID="31" v:groupContext="shape" transform="translate(-4.02688,112.006) rotate(-90)">
				<title>Sheet.31</title>
				<path d="M16.31 170.93 L16.31 174.21 L0 172.57 L0 169.29 L16.31 170.93 Z" class="st1"/>
			</g>
			<g id="shape32-70" v:mID="32" v:groupContext="shape" transform="translate(-5.85085,130.643) rotate(-90)">
				<title>Sheet.32</title>
				<path d="M16.31 170.93 L16.31 174.21 L0 172.57 L0 169.29 L16.31 170.93 Z" class="st2"/>
			</g>
			<g id="shape34-72" v:mID="34" v:groupContext="shape" transform="translate(193.048,-75.405)">
				<title>Sheet.34</title>
				<path d="M15.59 171.1 L15.13 174.21 L0 174.21 L0.46 171.1 L15.59 171.1 Z" class="st2"/>
			</g>
			<g id="shape35-74" v:mID="35" v:groupContext="shape" transform="translate(17.6979,112.006) rotate(-90)">
				<title>Sheet.35</title>
				<path d="M16.31 170.93 L16.31 174.21 L0 172.57 L0 169.29 L16.31 170.93 Z" class="st2"/>
			</g>
			<g id="shape36-76" v:mID="36" v:groupContext="shape" transform="translate(15.874,130.643) rotate(-90)">
				<title>Sheet.36</title>
				<path d="M16.31 170.93 L16.31 174.21 L0 172.57 L0 169.29 L16.31 170.93 Z" class="st2"/>
			</g>
			<g id="shape37-78" v:mID="37" v:groupContext="shape" transform="translate(191.406,-59.4859)">
				<title>Sheet.37</title>
				<path d="M15.59 171.1 L15.13 174.21 L0 174.21 L0.46 171.1 L15.59 171.1 Z" class="st2"/>
			</g>
			<g id="shape38-80" v:mID="38" v:groupContext="shape" transform="translate(189.765,-43.5669)">
				<title>Sheet.38</title>
				<path d="M15.59 171.1 L15.13 174.21 L0 174.21 L0.46 171.1 L15.59 171.1 Z" class="st2"/>
			</g>
			<g id="shape39-82" v:mID="39" v:groupContext="shape" transform="translate(39.54,112.006) rotate(-90)">
				<title>Sheet.39</title>
				<path d="M16.31 170.93 L16.31 174.21 L0 172.57 L0 169.29 L16.31 170.93 Z" class="st1"/>
			</g>
			<g id="shape40-84" v:mID="40" v:groupContext="shape" transform="translate(37.716,130.643) rotate(-90)">
				<title>Sheet.40</title>
				<path d="M16.31 170.93 L16.31 174.21 L0 172.57 L0 169.29 L16.31 170.93 Z" class="st2"/>
			</g>
			<g id="shape42-86" v:mID="42" v:groupContext="shape" transform="translate(105.914,-32.9727)">
				<title>Sheet.42</title>
				<path d="M15.59 171.1 L15.13 174.21 L0 174.21 L0.46 171.1 L15.59 171.1 Z" class="st2"/>
			</g>
			<g id="shape43-88" v:mID="43" v:groupContext="shape" transform="translate(-69.4358,154.439) rotate(-90)">
				<title>Sheet.43</title>
				<path d="M16.31 170.93 L16.31 174.21 L0 172.57 L0 169.29 L16.31 170.93 Z" class="st1"/>
			</g>
			<g id="shape44-90" v:mID="44" v:groupContext="shape" transform="translate(-71.2598,173.075) rotate(-90)">
				<title>Sheet.44</title>
				<path d="M16.31 170.93 L16.31 174.21 L0 172.57 L0 169.29 L16.31 170.93 Z" class="st1"/>
			</g>
			<g id="shape45-92" v:mID="45" v:groupContext="shape" transform="translate(104.273,-17.0536)">
				<title>Sheet.45</title>
				<path d="M15.59 171.1 L15.13 174.21 L0 174.21 L0.46 171.1 L15.59 171.1 Z" class="st1"/>
			</g>
			<g id="shape46-94" v:mID="46" v:groupContext="shape" transform="translate(102.631,-1.13455)">
				<title>Sheet.46</title>
				<path d="M15.59 171.1 L15.13 174.21 L0 174.21 L0.46 171.1 L15.59 171.1 Z" class="st1"/>
			</g>
			<g id="shape47-96" v:mID="47" v:groupContext="shape" transform="translate(-47.5938,154.439) rotate(-90)">
				<title>Sheet.47</title>
				<path d="M16.31 170.93 L16.31 174.21 L0 172.57 L0 169.29 L16.31 170.93 Z" class="st2"/>
			</g>
			<g id="shape48-98" v:mID="48" v:groupContext="shape" transform="translate(-49.4177,173.075) rotate(-90)">
				<title>Sheet.48</title>
				<path d="M16.31 170.93 L16.31 174.21 L0 172.57 L0 169.29 L16.31 170.93 Z" class="st2"/>
			</g>
			<g id="shape50-100" v:mID="50" v:groupContext="shape" transform="translate(149.481,-31.8381)">
				<title>Sheet.50</title>
				<path d="M15.59 171.1 L15.13 174.21 L0 174.21 L0.46 171.1 L15.59 171.1 Z" class="st2"/>
			</g>
			<g id="shape51-102" v:mID="51" v:groupContext="shape" transform="translate(-25.8689,155.573) rotate(-90)">
				<title>Sheet.51</title>
				<path d="M16.31 170.93 L16.31 174.21 L0 172.57 L0 169.29 L16.31 170.93 Z" class="st2"/>
			</g>
			<g id="shape52-104" v:mID="52" v:groupContext="shape" transform="translate(-27.6929,174.21) rotate(-90)">
				<title>Sheet.52</title>
				<path d="M16.31 170.93 L16.31 174.21 L0 172.57 L0 169.29 L16.31 170.93 Z" class="st2"/>
			</g>
			<g id="shape53-106" v:mID="53" v:groupContext="shape" transform="translate(147.839,-15.9191)">
				<title>Sheet.53</title>
				<path d="M15.59 171.1 L15.13 174.21 L0 174.21 L0.46 171.1 L15.59 171.1 Z" class="st2"/>
			</g>
			<g id="shape54-108" v:mID="54" v:groupContext="shape" transform="translate(146.198,-5.68434E-014)">
				<title>Sheet.54</title>
				<path d="M15.59 171.1 L15.13 174.21 L0 174.21 L0.46 171.1 L15.59 171.1 Z" class="st2"/>
			</g>
			<g id="shape55-110" v:mID="55" v:groupContext="shape" transform="translate(-4.02688,155.573) rotate(-90)">
				<title>Sheet.55</title>
				<path d="M16.31 170.93 L16.31 174.21 L0 172.57 L0 169.29 L16.31 170.93 Z" class="st2"/>
			</g>
			<g id="shape56-112" v:mID="56" v:groupContext="shape" transform="translate(-5.85085,174.21) rotate(-90)">
				<title>Sheet.56</title>
				<path d="M16.31 170.93 L16.31 174.21 L0 172.57 L0 169.29 L16.31 170.93 Z" class="st2"/>
			</g>
			<g id="shape58-114" v:mID="58" v:groupContext="shape" transform="translate(193.048,-31.8381)">
				<title>Sheet.58</title>
				<path d="M15.59 171.1 L15.13 174.21 L0 174.21 L0.46 171.1 L15.59 171.1 Z" class="st2"/>
			</g>
			<g id="shape59-116" v:mID="59" v:groupContext="shape" transform="translate(17.6979,155.573) rotate(-90)">
				<title>Sheet.59</title>
				<path d="M16.31 170.93 L16.31 174.21 L0 172.57 L0 169.29 L16.31 170.93 Z" class="st2"/>
			</g>
			<g id="shape60-118" v:mID="60" v:groupContext="shape" transform="translate(15.874,174.21) rotate(-90)">
				<title>Sheet.60</title>
				<path d="M16.31 170.93 L16.31 174.21 L0 172.57 L0 169.29 L16.31 170.93 Z" class="st1"/>
			</g>
			<g id="shape61-120" v:mID="61" v:groupContext="shape" transform="translate(191.406,-15.9191)">
				<title>Sheet.61</title>
				<path d="M15.59 171.1 L15.13 174.21 L0 174.21 L0.46 171.1 L15.59 171.1 Z" class="st2"/>
			</g>
			<g id="shape62-122" v:mID="62" v:groupContext="shape" transform="translate(189.765,-5.68434E-014)">
				<title>Sheet.62</title>
				<path d="M15.59 171.1 L15.13 174.21 L0 174.21 L0.46 171.1 L15.59 171.1 Z" class="st2"/>
			</g>
			<g id="shape63-124" v:mID="63" v:groupContext="shape" transform="translate(39.54,155.573) rotate(-90)">
				<title>Sheet.63</title>
				<path d="M16.31 170.93 L16.31 174.21 L0 172.57 L0 169.29 L16.31 170.93 Z" class="st2"/>
			</g>
			<g id="shape64-126" v:mID="64" v:groupContext="shape" transform="translate(37.716,174.21) rotate(-90)">
				<title>Sheet.64</title>
				<path d="M16.31 170.93 L16.31 174.21 L0 172.57 L0 169.29 L16.31 170.93 Z" class="st2"/>
			</g>
			<g id="shape1-128" v:mID="1" v:groupContext="shape" transform="translate(18.9704,-98.044)">
				<title>Sheet.1</title>
				<path d="M37.5 166.74 L36.39 174.21 L0 174.21 L1.12 166.74 L37.5 166.74 Z" class="st3"/>
			</g>
			<g id="shape9-130" v:mID="9" v:groupContext="shape" transform="translate(-157.981,107.912) rotate(-90)">
				<title>Sheet.9</title>
				<path d="M39.22 166.31 L39.22 174.21 L0 170.26 L0 162.37 L39.22 166.31 Z" class="st3"/>
			</g>
			<g id="shape17-132" v:mID="17" v:groupContext="shape" transform="translate(-162.367,152.729) rotate(-90)">
				<title>Sheet.17</title>
				<path d="M39.22 166.31 L39.22 174.21 L0 170.26 L0 162.37 L39.22 166.31 Z" class="st3"/>
			</g>
			<g id="shape25-134" v:mID="25" v:groupContext="shape" transform="translate(15.0228,-59.7624)">
				<title>Sheet.25</title>
				<path d="M37.5 166.74 L36.39 174.21 L0 174.21 L1.12 166.74 L37.5 166.74 Z" class="st3"/>
			</g>
			<g id="shape33-136" v:mID="33" v:groupContext="shape" transform="translate(11.0752,-21.4809)">
				<title>Sheet.33</title>
				<path d="M37.5 166.74 L36.39 174.21 L0 174.21 L1.12 166.74 L37.5 166.74 Z" class="st3"/>
			</g>
			<g id="shape41-138" v:mID="41" v:groupContext="shape" transform="translate(-105.456,107.912) rotate(-90)">
				<title>Sheet.41</title>
				<path d="M39.22 166.31 L39.22 174.21 L0 170.26 L0 162.37 L39.22 166.31 Z" class="st3"/>
			</g>
			<g id="shape49-140" v:mID="49" v:groupContext="shape" transform="translate(-109.842,152.729) rotate(-90)">
				<title>Sheet.49</title>
				<path d="M39.22 166.31 L39.22 174.21 L0 170.26 L0 162.37 L39.22 166.31 Z" class="st3"/>
			</g>
		</g>
		<g id="shape1859-142" v:mID="1859" v:groupContext="shape" transform="translate(45.72,-151.47)">
			<title>Sheet.1859</title>
			<desc>A</desc>
			<v:textBlock v:margins="rect(4,4,4,4)"/>
			<v:textRect cx="6.75" cy="167.46" width="13.5" height="13.5"/>
			<path d="M0 173.66 L12.61 174.21 L13.5 160.71 L0 160.71 L0 173.66 Z" class="st4"/>
			<text x="4" y="170.46" class="st5" v:langID="1033"><v:paragraph/><v:tabList/>A</text>		</g>
		<g id="shape1860-145" v:mID="1860" v:groupContext="shape" transform="translate(81.72,-119.97)">
			<title>Sheet.1860</title>
			<desc>B</desc>
			<v:textBlock v:margins="rect(4,4,4,4)"/>
			<v:textRect cx="6.75" cy="167.46" width="13.5" height="13.5"/>
			<path d="M0 173.66 L12.61 174.21 L13.5 160.71 L0 160.71 L0 173.66 Z" class="st4"/>
			<text x="4" y="170.46" class="st5" v:langID="1033"><v:paragraph/><v:tabList/>B</text>		</g>
		<g id="shape1861-148" v:mID="1861" v:groupContext="shape" transform="translate(77.22,-79.47)">
			<title>Sheet.1861</title>
			<desc>C</desc>
			<v:textBlock v:margins="rect(4,4,4,4)"/>
			<v:textRect cx="6.75" cy="167.46" width="13.5" height="13.5"/>
			<path d="M0 173.66 L12.61 174.21 L13.5 160.71 L0 160.71 L0 173.66 Z" class="st4"/>
			<text x="4" y="170.46" class="st5" v:langID="1033"><v:paragraph/><v:tabList/>C</text>		</g>
		<g id="shape1862-151" v:mID="1862" v:groupContext="shape" transform="translate(36.72,-52.47)">
			<title>Sheet.1862</title>
			<desc>D</desc>
			<v:textBlock v:margins="rect(4,4,4,4)"/>
			<v:textRect cx="6.75" cy="167.46" width="13.5" height="13.5"/>
			<path d="M0 173.66 L12.61 174.21 L13.5 160.71 L0 160.71 L0 173.66 Z" class="st4"/>
			<text x="4" y="170.46" class="st5" v:langID="1033"><v:paragraph/><v:tabList/>D</text>		</g>
		<g id="shape1863-154" v:mID="1863" v:groupContext="shape" transform="translate(0.72,-79.47)">
			<title>Sheet.1863</title>
			<desc>E</desc>
			<v:textBlock v:margins="rect(4,4,4,4)"/>
			<v:textRect cx="6.75" cy="167.46" width="13.5" height="13.5"/>
			<path d="M0 173.66 L12.61 174.21 L13.5 160.71 L0 160.71 L0 173.66 Z" class="st4"/>
			<text x="4" y="170.46" class="st5" v:langID="1033"><v:paragraph/><v:tabList/>E</text>		</g>
		<g id="shape1864-157" v:mID="1864" v:groupContext="shape" transform="translate(5.22,-119.97)">
			<title>Sheet.1864</title>
			<desc>F</desc>
			<v:textBlock v:margins="rect(4,4,4,4)"/>
			<v:textRect cx="6.75" cy="167.46" width="13.5" height="13.5"/>
			<path d="M0 173.66 L12.61 174.21 L13.5 160.71 L0 160.71 L0 173.66 Z" class="st4"/>
			<text x="4" y="170.46" class="st5" v:langID="1033"><v:paragraph/><v:tabList/>F</text>		</g>
		<g id="shape1865-160" v:mID="1865" v:groupContext="shape" transform="translate(41.22,-110.97)">
			<title>Sheet.1865</title>
			<desc>G</desc>
			<v:textBlock v:margins="rect(4,4,4,4)"/>
			<v:textRect cx="6.75" cy="167.46" width="13.5" height="13.5"/>
			<path d="M0 173.66 L12.61 174.21 L13.5 160.71 L0 160.71 L0 173.66 Z" class="st4"/>
			<text x="4" y="170.46" class="st5" v:langID="1033"><v:paragraph/><v:tabList/>G</text>		</g>
	</g>
</svg>
