<?xml version="1.0" encoding="UTF-8" standalone="no"?>
<!DOCTYPE svg PUBLIC "-//W3C//DTD SVG 1.1//EN" "http://www.w3.org/Graphics/SVG/1.1/DTD/svg11.dtd">
<!-- Generated by Microsoft Visio, SVG Export SuperKMap.svg Page-1 -->
<svg xmlns="http://www.w3.org/2000/svg" xmlns:xlink="http://www.w3.org/1999/xlink" xmlns:ev="http://www.w3.org/2001/xml-events"
		xmlns:v="http://schemas.microsoft.com/visio/2003/SVGExtensions/" width="1.9425in" height="3.635in"
		viewBox="0 0 139.86 261.72" xml:space="preserve" color-interpolation-filters="sRGB" class="st6">
	<v:documentProperties v:langID="1033" v:viewMarkup="false"/>

	<style type="text/css">
	<![CDATA[
		.st1 {fill:none;stroke:#000000;stroke-linecap:round;stroke-linejoin:round;stroke-width:0.72}
		.st2 {fill:#000000;font-family:Arial;font-size:0.75em}
		.st3 {stroke:none;stroke-linecap:round;stroke-linejoin:round;stroke-width:0.75}
		.st4 {fill:#000000;font-family:Arial;font-size:0.833336em}
		.st5 {stroke:#000000;stroke-linecap:round;stroke-linejoin:round;stroke-width:0.72}
		.st6 {fill:none;fill-rule:evenodd;font-size:12px;overflow:visible;stroke-linecap:square;stroke-miterlimit:3}
	]]>
	</style>

	<g v:mID="0" v:index="1" v:groupContext="foregroundPage">
		<title>Page-1</title>
		<v:pageProperties v:drawingScale="1" v:pageScale="1" v:drawingUnits="19" v:shadowOffsetX="9" v:shadowOffsetY="-9"/>
		<g id="shape1-1" v:mID="1" v:groupContext="shape" transform="translate(67.32,-203.002)">
			<title>Rectangle.114</title>
			<desc>0</desc>
			<v:userDefs>
				<v:ud v:nameU="visVersion" v:val="VT0(11):26"/>
			</v:userDefs>
			<v:textBlock v:margins="rect(4,4,4,4)"/>
			<v:textRect cx="11.25" cy="250.47" width="22.5" height="22.5"/>
			<rect x="0" y="239.22" width="22.5" height="22.5" class="st1"/>
			<text x="8.75" y="253.17" class="st2" v:langID="1033"><v:paragraph v:horizAlign="1"/><v:tabList/>0</text>		</g>
		<g id="shape2-4" v:mID="2" v:groupContext="shape" transform="translate(44.82,-203.002)">
			<title>Rectangle.115</title>
			<desc>0</desc>
			<v:userDefs>
				<v:ud v:nameU="visVersion" v:val="VT0(11):26"/>
			</v:userDefs>
			<v:textBlock v:margins="rect(4,4,4,4)"/>
			<v:textRect cx="11.25" cy="250.47" width="22.5" height="22.5"/>
			<rect x="0" y="239.22" width="22.5" height="22.5" class="st1"/>
			<text x="8.75" y="253.17" class="st2" v:langID="1033"><v:paragraph v:horizAlign="1"/><v:tabList/>0</text>		</g>
		<g id="shape3-7" v:mID="3" v:groupContext="shape" transform="translate(112.32,-203.002)">
			<title>Rectangle.116</title>
			<desc>1</desc>
			<v:userDefs>
				<v:ud v:nameU="visVersion" v:val="VT0(11):26"/>
			</v:userDefs>
			<v:textBlock v:margins="rect(4,4,4,4)"/>
			<v:textRect cx="11.25" cy="250.47" width="22.5" height="22.5"/>
			<rect x="0" y="239.22" width="22.5" height="22.5" class="st1"/>
			<text x="8.75" y="253.17" class="st2" v:langID="1033"><v:paragraph v:horizAlign="1"/><v:tabList/>1</text>		</g>
		<g id="shape4-10" v:mID="4" v:groupContext="shape" transform="translate(89.82,-203.002)">
			<title>Rectangle.117</title>
			<desc>0</desc>
			<v:userDefs>
				<v:ud v:nameU="visVersion" v:val="VT0(11):26"/>
			</v:userDefs>
			<v:textBlock v:margins="rect(4,4,4,4)"/>
			<v:textRect cx="11.25" cy="250.47" width="22.5" height="22.5"/>
			<rect x="0" y="239.22" width="22.5" height="22.5" class="st1"/>
			<text x="8.75" y="253.17" class="st2" v:langID="1033"><v:paragraph v:horizAlign="1"/><v:tabList/>0</text>		</g>
		<g id="shape5-13" v:mID="5" v:groupContext="shape" transform="translate(67.32,-180.502)">
			<title>Rectangle.118</title>
			<desc>0</desc>
			<v:userDefs>
				<v:ud v:nameU="visVersion" v:val="VT0(11):26"/>
			</v:userDefs>
			<v:textBlock v:margins="rect(4,4,4,4)"/>
			<v:textRect cx="11.25" cy="250.47" width="22.5" height="22.5"/>
			<rect x="0" y="239.22" width="22.5" height="22.5" class="st1"/>
			<text x="8.75" y="253.17" class="st2" v:langID="1033"><v:paragraph v:horizAlign="1"/><v:tabList/>0</text>		</g>
		<g id="shape6-16" v:mID="6" v:groupContext="shape" transform="translate(44.82,-180.502)">
			<title>Rectangle.119</title>
			<desc>0</desc>
			<v:userDefs>
				<v:ud v:nameU="visVersion" v:val="VT0(11):26"/>
			</v:userDefs>
			<v:textBlock v:margins="rect(4,4,4,4)"/>
			<v:textRect cx="11.25" cy="250.47" width="22.5" height="22.5"/>
			<rect x="0" y="239.22" width="22.5" height="22.5" class="st1"/>
			<text x="8.75" y="253.17" class="st2" v:langID="1033"><v:paragraph v:horizAlign="1"/><v:tabList/>0</text>		</g>
		<g id="shape7-19" v:mID="7" v:groupContext="shape" transform="translate(112.32,-180.502)">
			<title>Rectangle.120</title>
			<desc>0</desc>
			<v:userDefs>
				<v:ud v:nameU="visVersion" v:val="VT0(11):26"/>
			</v:userDefs>
			<v:textBlock v:margins="rect(4,4,4,4)"/>
			<v:textRect cx="11.25" cy="250.47" width="22.5" height="22.5"/>
			<rect x="0" y="239.22" width="22.5" height="22.5" class="st1"/>
			<text x="8.75" y="253.17" class="st2" v:langID="1033"><v:paragraph v:horizAlign="1"/><v:tabList/>0</text>		</g>
		<g id="shape8-22" v:mID="8" v:groupContext="shape" transform="translate(89.82,-180.502)">
			<title>Rectangle.121</title>
			<desc>1</desc>
			<v:userDefs>
				<v:ud v:nameU="visVersion" v:val="VT0(11):26"/>
			</v:userDefs>
			<v:textBlock v:margins="rect(4,4,4,4)"/>
			<v:textRect cx="11.25" cy="250.47" width="22.5" height="22.5"/>
			<rect x="0" y="239.22" width="22.5" height="22.5" class="st1"/>
			<text x="8.75" y="253.17" class="st2" v:langID="1033"><v:paragraph v:horizAlign="1"/><v:tabList/>1</text>		</g>
		<g id="shape9-25" v:mID="9" v:groupContext="shape" transform="translate(67.32,-158.002)">
			<title>Rectangle.328</title>
			<desc>1</desc>
			<v:userDefs>
				<v:ud v:nameU="visVersion" v:val="VT0(11):26"/>
			</v:userDefs>
			<v:textBlock v:margins="rect(4,4,4,4)"/>
			<v:textRect cx="11.25" cy="250.47" width="22.5" height="22.5"/>
			<rect x="0" y="239.22" width="22.5" height="22.5" class="st1"/>
			<text x="8.75" y="253.17" class="st2" v:langID="1033"><v:paragraph v:horizAlign="1"/><v:tabList/>1</text>		</g>
		<g id="shape10-28" v:mID="10" v:groupContext="shape" transform="translate(44.82,-158.002)">
			<title>Rectangle.331</title>
			<desc>0</desc>
			<v:userDefs>
				<v:ud v:nameU="visVersion" v:val="VT0(11):26"/>
			</v:userDefs>
			<v:textBlock v:margins="rect(4,4,4,4)"/>
			<v:textRect cx="11.25" cy="250.47" width="22.5" height="22.5"/>
			<rect x="0" y="239.22" width="22.5" height="22.5" class="st1"/>
			<text x="8.75" y="253.17" class="st2" v:langID="1033"><v:paragraph v:horizAlign="1"/><v:tabList/>0</text>		</g>
		<g id="shape11-31" v:mID="11" v:groupContext="shape" transform="translate(112.32,-158.002)">
			<title>Rectangle.332</title>
			<desc>1</desc>
			<v:userDefs>
				<v:ud v:nameU="visVersion" v:val="VT0(11):26"/>
			</v:userDefs>
			<v:textBlock v:margins="rect(4,4,4,4)"/>
			<v:textRect cx="11.25" cy="250.47" width="22.5" height="22.5"/>
			<rect x="0" y="239.22" width="22.5" height="22.5" class="st1"/>
			<text x="8.75" y="253.17" class="st2" v:langID="1033"><v:paragraph v:horizAlign="1"/><v:tabList/>1</text>		</g>
		<g id="shape12-34" v:mID="12" v:groupContext="shape" transform="translate(89.82,-158.002)">
			<title>Rectangle.333</title>
			<desc>1</desc>
			<v:userDefs>
				<v:ud v:nameU="visVersion" v:val="VT0(11):26"/>
			</v:userDefs>
			<v:textBlock v:margins="rect(4,4,4,4)"/>
			<v:textRect cx="11.25" cy="250.47" width="22.5" height="22.5"/>
			<rect x="0" y="239.22" width="22.5" height="22.5" class="st1"/>
			<text x="8.75" y="253.17" class="st2" v:langID="1033"><v:paragraph v:horizAlign="1"/><v:tabList/>1</text>		</g>
		<g id="shape13-37" v:mID="13" v:groupContext="shape" transform="translate(67.32,-135.502)">
			<title>Rectangle.336</title>
			<desc>0</desc>
			<v:userDefs>
				<v:ud v:nameU="visVersion" v:val="VT0(11):26"/>
			</v:userDefs>
			<v:textBlock v:margins="rect(4,4,4,4)"/>
			<v:textRect cx="11.25" cy="250.47" width="22.5" height="22.5"/>
			<rect x="0" y="239.22" width="22.5" height="22.5" class="st1"/>
			<text x="8.75" y="253.17" class="st2" v:langID="1033"><v:paragraph v:horizAlign="1"/><v:tabList/>0</text>		</g>
		<g id="shape14-40" v:mID="14" v:groupContext="shape" transform="translate(44.82,-135.502)">
			<title>Rectangle.382</title>
			<desc>0</desc>
			<v:userDefs>
				<v:ud v:nameU="visVersion" v:val="VT0(11):26"/>
			</v:userDefs>
			<v:textBlock v:margins="rect(4,4,4,4)"/>
			<v:textRect cx="11.25" cy="250.47" width="22.5" height="22.5"/>
			<rect x="0" y="239.22" width="22.5" height="22.5" class="st1"/>
			<text x="8.75" y="253.17" class="st2" v:langID="1033"><v:paragraph v:horizAlign="1"/><v:tabList/>0</text>		</g>
		<g id="shape15-43" v:mID="15" v:groupContext="shape" transform="translate(112.32,-135.502)">
			<title>Rectangle.383</title>
			<desc>0</desc>
			<v:userDefs>
				<v:ud v:nameU="visVersion" v:val="VT0(11):26"/>
			</v:userDefs>
			<v:textBlock v:margins="rect(4,4,4,4)"/>
			<v:textRect cx="11.25" cy="250.47" width="22.5" height="22.5"/>
			<rect x="0" y="239.22" width="22.5" height="22.5" class="st1"/>
			<text x="8.75" y="253.17" class="st2" v:langID="1033"><v:paragraph v:horizAlign="1"/><v:tabList/>0</text>		</g>
		<g id="shape16-46" v:mID="16" v:groupContext="shape" transform="translate(89.82,-135.502)">
			<title>Rectangle.384</title>
			<desc>1</desc>
			<v:userDefs>
				<v:ud v:nameU="visVersion" v:val="VT0(11):26"/>
			</v:userDefs>
			<v:textBlock v:margins="rect(4,4,4,4)"/>
			<v:textRect cx="11.25" cy="250.47" width="22.5" height="22.5"/>
			<rect x="0" y="239.22" width="22.5" height="22.5" class="st1"/>
			<text x="8.75" y="253.17" class="st2" v:langID="1033"><v:paragraph v:horizAlign="1"/><v:tabList/>1</text>		</g>
		<g id="shape17-49" v:mID="17" v:groupContext="shape" transform="translate(25.341,-239.265)">
			<title>Sheet.17</title>
			<desc>C D</desc>
			<v:textBlock v:margins="rect(0,0,0,0)"/>
			<v:textRect cx="16.104" cy="256.789" width="32.21" height="9.86119"/>
			<path d="M32.21 251.86 L0 251.86 L0 261.72 L32.21 261.72 L32.21 251.86" class="st3"/>
			<text x="8.88" y="259.79" class="st4" v:langID="1033"><v:paragraph v:horizAlign="1"/><v:tabList/>C D</text>		</g>
		<g id="shape18-53" v:mID="18" v:groupContext="shape" transform="translate(44.82,-225.502)">
			<title>Sheet.18</title>
			<desc>0 0</desc>
			<v:textBlock v:margins="rect(0,0,0,0)"/>
			<v:textRect cx="11.25" cy="254.97" width="22.5" height="13.5"/>
			<path d="M22.5 248.22 L0 248.22 L0 261.72 L22.5 261.72 L22.5 248.22" class="st3"/>
			<text x="6.24" y="257.67" class="st2" v:langID="1033"><v:paragraph v:horizAlign="1"/><v:tabList/>0 0</text>		</g>
		<g id="shape19-57" v:mID="19" v:groupContext="shape" transform="translate(67.32,-225.502)">
			<title>Sheet.19</title>
			<desc>0 1</desc>
			<v:textBlock v:margins="rect(0,0,0,0)"/>
			<v:textRect cx="11.25" cy="254.97" width="22.5" height="13.5"/>
			<path d="M22.5 248.22 L0 248.22 L0 261.72 L22.5 261.72 L22.5 248.22" class="st3"/>
			<text x="6.24" y="257.67" class="st2" v:langID="1033"><v:paragraph v:horizAlign="1"/><v:tabList/>0 1</text>		</g>
		<g id="shape20-61" v:mID="20" v:groupContext="shape" transform="translate(89.82,-225.502)">
			<title>Sheet.20</title>
			<desc>1 1</desc>
			<v:textBlock v:margins="rect(0,0,0,0)"/>
			<v:textRect cx="11.25" cy="254.97" width="22.5" height="13.5"/>
			<path d="M22.5 248.22 L0 248.22 L0 261.72 L22.5 261.72 L22.5 248.22" class="st3"/>
			<text x="6.24" y="257.67" class="st2" v:langID="1033"><v:paragraph v:horizAlign="1"/><v:tabList/>1 1</text>		</g>
		<g id="shape21-65" v:mID="21" v:groupContext="shape" transform="translate(112.32,-225.502)">
			<title>Sheet.21</title>
			<desc>1 0</desc>
			<v:textBlock v:margins="rect(0,0,0,0)"/>
			<v:textRect cx="11.25" cy="254.97" width="22.5" height="13.5"/>
			<path d="M22.5 248.22 L0 248.22 L0 261.72 L22.5 261.72 L22.5 248.22" class="st3"/>
			<text x="6.24" y="257.67" class="st2" v:langID="1033"><v:paragraph v:horizAlign="1"/><v:tabList/>1 0</text>		</g>
		<g id="shape22-69" v:mID="22" v:groupContext="shape" transform="translate(21.698,-207.938)">
			<title>Sheet.22</title>
			<desc>0 0</desc>
			<v:textBlock v:margins="rect(0,0,0,0)"/>
			<v:textRect cx="11.561" cy="255.751" width="23.13" height="11.9384"/>
			<path d="M23.12 249.78 L0 249.78 L0 261.72 L23.12 261.72 L23.12 249.78" class="st3"/>
			<text x="6.56" y="258.45" class="st2" v:langID="1033"><v:paragraph v:horizAlign="1"/><v:tabList/>0 0</text>		</g>
		<g id="shape23-73" v:mID="23" v:groupContext="shape" transform="translate(21.698,-185.564)">
			<title>Sheet.23</title>
			<desc>0 1</desc>
			<v:textBlock v:margins="rect(0,0,0,0)"/>
			<v:textRect cx="11.561" cy="255.751" width="23.13" height="11.9384"/>
			<path d="M23.12 249.78 L0 249.78 L0 261.72 L23.12 261.72 L23.12 249.78" class="st3"/>
			<text x="6.56" y="258.45" class="st2" v:langID="1033"><v:paragraph v:horizAlign="1"/><v:tabList/>0 1</text>		</g>
		<g id="shape24-77" v:mID="24" v:groupContext="shape" transform="translate(21.698,-163.282)">
			<title>Sheet.24</title>
			<desc>1 1</desc>
			<v:textBlock v:margins="rect(0,0,0,0)"/>
			<v:textRect cx="11.561" cy="255.751" width="23.13" height="11.9384"/>
			<path d="M23.12 249.78 L0 249.78 L0 261.72 L23.12 261.72 L23.12 249.78" class="st3"/>
			<text x="6.56" y="258.45" class="st2" v:langID="1033"><v:paragraph v:horizAlign="1"/><v:tabList/>1 1</text>		</g>
		<g id="shape25-81" v:mID="25" v:groupContext="shape" transform="translate(21.698,-140.782)">
			<title>Sheet.25</title>
			<desc>1 0</desc>
			<v:textBlock v:margins="rect(0,0,0,0)"/>
			<v:textRect cx="11.561" cy="255.751" width="23.13" height="11.9384"/>
			<path d="M23.12 249.78 L0 249.78 L0 261.72 L23.12 261.72 L23.12 249.78" class="st3"/>
			<text x="6.56" y="258.45" class="st2" v:langID="1033"><v:paragraph v:horizAlign="1"/><v:tabList/>1 0</text>		</g>
		<g id="shape26-85" v:mID="26" v:groupContext="shape" transform="translate(-140.244,221.282) rotate(-135)">
			<title>Sheet.26</title>
			<path d="M0 261.72 L25.46 261.72" class="st5"/>
		</g>
		<g id="shape27-88" v:mID="27" v:groupContext="shape" transform="translate(13.32,-222.39)">
			<title>Sheet.27</title>
			<desc>A B</desc>
			<v:textBlock v:margins="rect(0,0,0,0)"/>
			<v:textRect cx="11.25" cy="254.539" width="22.5" height="14.3612"/>
			<path d="M22.5 247.36 L0 247.36 L0 261.72 L22.5 261.72 L22.5 247.36" class="st3"/>
			<text x="4.58" y="257.54" class="st4" v:langID="1033"><v:paragraph v:horizAlign="1"/><v:tabList/>A B</text>		</g>
		<g id="shape28-92" v:mID="28" v:groupContext="shape" transform="translate(67.5,-73.485)">
			<title>Rectangle.28</title>
			<desc>0</desc>
			<v:userDefs>
				<v:ud v:nameU="visVersion" v:val="VT0(11):26"/>
			</v:userDefs>
			<v:textBlock v:margins="rect(4,4,4,4)"/>
			<v:textRect cx="11.25" cy="250.47" width="22.5" height="22.5"/>
			<rect x="0" y="239.22" width="22.5" height="22.5" class="st1"/>
			<text x="8.75" y="253.17" class="st2" v:langID="1033"><v:paragraph v:horizAlign="1"/><v:tabList/>0</text>		</g>
		<g id="shape29-95" v:mID="29" v:groupContext="shape" transform="translate(45,-73.485)">
			<title>Rectangle.29</title>
			<desc>0</desc>
			<v:userDefs>
				<v:ud v:nameU="visVersion" v:val="VT0(11):26"/>
			</v:userDefs>
			<v:textBlock v:margins="rect(4,4,4,4)"/>
			<v:textRect cx="11.25" cy="250.47" width="22.5" height="22.5"/>
			<rect x="0" y="239.22" width="22.5" height="22.5" class="st1"/>
			<text x="8.75" y="253.17" class="st2" v:langID="1033"><v:paragraph v:horizAlign="1"/><v:tabList/>0</text>		</g>
		<g id="shape30-98" v:mID="30" v:groupContext="shape" transform="translate(112.5,-73.485)">
			<title>Rectangle.30</title>
			<desc>0</desc>
			<v:userDefs>
				<v:ud v:nameU="visVersion" v:val="VT0(11):26"/>
			</v:userDefs>
			<v:textBlock v:margins="rect(4,4,4,4)"/>
			<v:textRect cx="11.25" cy="250.47" width="22.5" height="22.5"/>
			<rect x="0" y="239.22" width="22.5" height="22.5" class="st1"/>
			<text x="8.75" y="253.17" class="st2" v:langID="1033"><v:paragraph v:horizAlign="1"/><v:tabList/>0</text>		</g>
		<g id="shape31-101" v:mID="31" v:groupContext="shape" transform="translate(90,-73.485)">
			<title>Rectangle.31</title>
			<desc>1</desc>
			<v:userDefs>
				<v:ud v:nameU="visVersion" v:val="VT0(11):26"/>
			</v:userDefs>
			<v:textBlock v:margins="rect(4,4,4,4)"/>
			<v:textRect cx="11.25" cy="250.47" width="22.5" height="22.5"/>
			<rect x="0" y="239.22" width="22.5" height="22.5" class="st1"/>
			<text x="8.75" y="253.17" class="st2" v:langID="1033"><v:paragraph v:horizAlign="1"/><v:tabList/>1</text>		</g>
		<g id="shape32-104" v:mID="32" v:groupContext="shape" transform="translate(67.5,-50.985)">
			<title>Rectangle.32</title>
			<desc>1</desc>
			<v:userDefs>
				<v:ud v:nameU="visVersion" v:val="VT0(11):26"/>
			</v:userDefs>
			<v:textBlock v:margins="rect(4,4,4,4)"/>
			<v:textRect cx="11.25" cy="250.47" width="22.5" height="22.5"/>
			<rect x="0" y="239.22" width="22.5" height="22.5" class="st1"/>
			<text x="8.75" y="253.17" class="st2" v:langID="1033"><v:paragraph v:horizAlign="1"/><v:tabList/>1</text>		</g>
		<g id="shape33-107" v:mID="33" v:groupContext="shape" transform="translate(45,-50.985)">
			<title>Rectangle.33</title>
			<desc>0</desc>
			<v:userDefs>
				<v:ud v:nameU="visVersion" v:val="VT0(11):26"/>
			</v:userDefs>
			<v:textBlock v:margins="rect(4,4,4,4)"/>
			<v:textRect cx="11.25" cy="250.47" width="22.5" height="22.5"/>
			<rect x="0" y="239.22" width="22.5" height="22.5" class="st1"/>
			<text x="8.75" y="253.17" class="st2" v:langID="1033"><v:paragraph v:horizAlign="1"/><v:tabList/>0</text>		</g>
		<g id="shape34-110" v:mID="34" v:groupContext="shape" transform="translate(112.5,-50.985)">
			<title>Rectangle.34</title>
			<desc>1</desc>
			<v:userDefs>
				<v:ud v:nameU="visVersion" v:val="VT0(11):26"/>
			</v:userDefs>
			<v:textBlock v:margins="rect(4,4,4,4)"/>
			<v:textRect cx="11.25" cy="250.47" width="22.5" height="22.5"/>
			<rect x="0" y="239.22" width="22.5" height="22.5" class="st1"/>
			<text x="8.75" y="253.17" class="st2" v:langID="1033"><v:paragraph v:horizAlign="1"/><v:tabList/>1</text>		</g>
		<g id="shape35-113" v:mID="35" v:groupContext="shape" transform="translate(90,-50.985)">
			<title>Rectangle.35</title>
			<desc>1</desc>
			<v:userDefs>
				<v:ud v:nameU="visVersion" v:val="VT0(11):26"/>
			</v:userDefs>
			<v:textBlock v:margins="rect(4,4,4,4)"/>
			<v:textRect cx="11.25" cy="250.47" width="22.5" height="22.5"/>
			<rect x="0" y="239.22" width="22.5" height="22.5" class="st1"/>
			<text x="8.75" y="253.17" class="st2" v:langID="1033"><v:paragraph v:horizAlign="1"/><v:tabList/>1</text>		</g>
		<g id="shape36-116" v:mID="36" v:groupContext="shape" transform="translate(67.5,-28.485)">
			<title>Rectangle.36</title>
			<desc>1</desc>
			<v:userDefs>
				<v:ud v:nameU="visVersion" v:val="VT0(11):26"/>
			</v:userDefs>
			<v:textBlock v:margins="rect(4,4,4,4)"/>
			<v:textRect cx="11.25" cy="250.47" width="22.5" height="22.5"/>
			<rect x="0" y="239.22" width="22.5" height="22.5" class="st1"/>
			<text x="8.75" y="253.17" class="st2" v:langID="1033"><v:paragraph v:horizAlign="1"/><v:tabList/>1</text>		</g>
		<g id="shape37-119" v:mID="37" v:groupContext="shape" transform="translate(45,-28.485)">
			<title>Rectangle.37</title>
			<desc>1</desc>
			<v:userDefs>
				<v:ud v:nameU="visVersion" v:val="VT0(11):26"/>
			</v:userDefs>
			<v:textBlock v:margins="rect(4,4,4,4)"/>
			<v:textRect cx="11.25" cy="250.47" width="22.5" height="22.5"/>
			<rect x="0" y="239.22" width="22.5" height="22.5" class="st1"/>
			<text x="8.75" y="253.17" class="st2" v:langID="1033"><v:paragraph v:horizAlign="1"/><v:tabList/>1</text>		</g>
		<g id="shape38-122" v:mID="38" v:groupContext="shape" transform="translate(112.5,-28.485)">
			<title>Rectangle.38</title>
			<desc>1</desc>
			<v:userDefs>
				<v:ud v:nameU="visVersion" v:val="VT0(11):26"/>
			</v:userDefs>
			<v:textBlock v:margins="rect(4,4,4,4)"/>
			<v:textRect cx="11.25" cy="250.47" width="22.5" height="22.5"/>
			<rect x="0" y="239.22" width="22.5" height="22.5" class="st1"/>
			<text x="8.75" y="253.17" class="st2" v:langID="1033"><v:paragraph v:horizAlign="1"/><v:tabList/>1</text>		</g>
		<g id="shape39-125" v:mID="39" v:groupContext="shape" transform="translate(90,-28.485)">
			<title>Rectangle.39</title>
			<desc>1</desc>
			<v:userDefs>
				<v:ud v:nameU="visVersion" v:val="VT0(11):26"/>
			</v:userDefs>
			<v:textBlock v:margins="rect(4,4,4,4)"/>
			<v:textRect cx="11.25" cy="250.47" width="22.5" height="22.5"/>
			<rect x="0" y="239.22" width="22.5" height="22.5" class="st1"/>
			<text x="8.75" y="253.17" class="st2" v:langID="1033"><v:paragraph v:horizAlign="1"/><v:tabList/>1</text>		</g>
		<g id="shape40-128" v:mID="40" v:groupContext="shape" transform="translate(67.5,-5.985)">
			<title>Rectangle.40</title>
			<desc>1</desc>
			<v:userDefs>
				<v:ud v:nameU="visVersion" v:val="VT0(11):26"/>
			</v:userDefs>
			<v:textBlock v:margins="rect(4,4,4,4)"/>
			<v:textRect cx="11.25" cy="250.47" width="22.5" height="22.5"/>
			<rect x="0" y="239.22" width="22.5" height="22.5" class="st1"/>
			<text x="8.75" y="253.17" class="st2" v:langID="1033"><v:paragraph v:horizAlign="1"/><v:tabList/>1</text>		</g>
		<g id="shape41-131" v:mID="41" v:groupContext="shape" transform="translate(45,-5.985)">
			<title>Rectangle.41</title>
			<desc>0</desc>
			<v:userDefs>
				<v:ud v:nameU="visVersion" v:val="VT0(11):26"/>
			</v:userDefs>
			<v:textBlock v:margins="rect(4,4,4,4)"/>
			<v:textRect cx="11.25" cy="250.47" width="22.5" height="22.5"/>
			<rect x="0" y="239.22" width="22.5" height="22.5" class="st1"/>
			<text x="8.75" y="253.17" class="st2" v:langID="1033"><v:paragraph v:horizAlign="1"/><v:tabList/>0</text>		</g>
		<g id="shape42-134" v:mID="42" v:groupContext="shape" transform="translate(112.5,-5.985)">
			<title>Rectangle.42</title>
			<desc>1</desc>
			<v:userDefs>
				<v:ud v:nameU="visVersion" v:val="VT0(11):26"/>
			</v:userDefs>
			<v:textBlock v:margins="rect(4,4,4,4)"/>
			<v:textRect cx="11.25" cy="250.47" width="22.5" height="22.5"/>
			<rect x="0" y="239.22" width="22.5" height="22.5" class="st1"/>
			<text x="8.75" y="253.17" class="st2" v:langID="1033"><v:paragraph v:horizAlign="1"/><v:tabList/>1</text>		</g>
		<g id="shape43-137" v:mID="43" v:groupContext="shape" transform="translate(90,-5.985)">
			<title>Rectangle.43</title>
			<desc>1</desc>
			<v:userDefs>
				<v:ud v:nameU="visVersion" v:val="VT0(11):26"/>
			</v:userDefs>
			<v:textBlock v:margins="rect(4,4,4,4)"/>
			<v:textRect cx="11.25" cy="250.47" width="22.5" height="22.5"/>
			<rect x="0" y="239.22" width="22.5" height="22.5" class="st1"/>
			<text x="8.75" y="253.17" class="st2" v:langID="1033"><v:paragraph v:horizAlign="1"/><v:tabList/>1</text>		</g>
		<g id="shape44-140" v:mID="44" v:groupContext="shape" transform="translate(25.521,-109.749)">
			<title>Sheet.44</title>
			<desc>C D</desc>
			<v:textBlock v:margins="rect(0,0,0,0)"/>
			<v:textRect cx="16.104" cy="256.789" width="32.21" height="9.86119"/>
			<path d="M32.21 251.86 L0 251.86 L0 261.72 L32.21 261.72 L32.21 251.86" class="st3"/>
			<text x="8.88" y="259.79" class="st4" v:langID="1033"><v:paragraph v:horizAlign="1"/><v:tabList/>C D</text>		</g>
		<g id="shape45-144" v:mID="45" v:groupContext="shape" transform="translate(45,-95.985)">
			<title>Sheet.45</title>
			<desc>0 0</desc>
			<v:textBlock v:margins="rect(0,0,0,0)"/>
			<v:textRect cx="11.25" cy="254.97" width="22.5" height="13.5"/>
			<path d="M22.5 248.22 L0 248.22 L0 261.72 L22.5 261.72 L22.5 248.22" class="st3"/>
			<text x="6.24" y="257.67" class="st2" v:langID="1033"><v:paragraph v:horizAlign="1"/><v:tabList/>0 0</text>		</g>
		<g id="shape46-148" v:mID="46" v:groupContext="shape" transform="translate(67.5,-95.985)">
			<title>Sheet.46</title>
			<desc>0 1</desc>
			<v:textBlock v:margins="rect(0,0,0,0)"/>
			<v:textRect cx="11.25" cy="254.97" width="22.5" height="13.5"/>
			<path d="M22.5 248.22 L0 248.22 L0 261.72 L22.5 261.72 L22.5 248.22" class="st3"/>
			<text x="6.24" y="257.67" class="st2" v:langID="1033"><v:paragraph v:horizAlign="1"/><v:tabList/>0 1</text>		</g>
		<g id="shape47-152" v:mID="47" v:groupContext="shape" transform="translate(90,-95.985)">
			<title>Sheet.47</title>
			<desc>1 1</desc>
			<v:textBlock v:margins="rect(0,0,0,0)"/>
			<v:textRect cx="11.25" cy="254.97" width="22.5" height="13.5"/>
			<path d="M22.5 248.22 L0 248.22 L0 261.72 L22.5 261.72 L22.5 248.22" class="st3"/>
			<text x="6.24" y="257.67" class="st2" v:langID="1033"><v:paragraph v:horizAlign="1"/><v:tabList/>1 1</text>		</g>
		<g id="shape48-156" v:mID="48" v:groupContext="shape" transform="translate(112.5,-95.985)">
			<title>Sheet.48</title>
			<desc>1 0</desc>
			<v:textBlock v:margins="rect(0,0,0,0)"/>
			<v:textRect cx="11.25" cy="254.97" width="22.5" height="13.5"/>
			<path d="M22.5 248.22 L0 248.22 L0 261.72 L22.5 261.72 L22.5 248.22" class="st3"/>
			<text x="6.24" y="257.67" class="st2" v:langID="1033"><v:paragraph v:horizAlign="1"/><v:tabList/>1 0</text>		</g>
		<g id="shape49-160" v:mID="49" v:groupContext="shape" transform="translate(21.878,-78.4216)">
			<title>Sheet.49</title>
			<desc>0 0</desc>
			<v:textBlock v:margins="rect(0,0,0,0)"/>
			<v:textRect cx="11.561" cy="255.751" width="23.13" height="11.9384"/>
			<path d="M23.12 249.78 L0 249.78 L0 261.72 L23.12 261.72 L23.12 249.78" class="st3"/>
			<text x="6.56" y="258.45" class="st2" v:langID="1033"><v:paragraph v:horizAlign="1"/><v:tabList/>0 0</text>		</g>
		<g id="shape50-164" v:mID="50" v:groupContext="shape" transform="translate(21.878,-56.0475)">
			<title>Sheet.50</title>
			<desc>0 1</desc>
			<v:textBlock v:margins="rect(0,0,0,0)"/>
			<v:textRect cx="11.561" cy="255.751" width="23.13" height="11.9384"/>
			<path d="M23.12 249.78 L0 249.78 L0 261.72 L23.12 261.72 L23.12 249.78" class="st3"/>
			<text x="6.56" y="258.45" class="st2" v:langID="1033"><v:paragraph v:horizAlign="1"/><v:tabList/>0 1</text>		</g>
		<g id="shape51-168" v:mID="51" v:groupContext="shape" transform="translate(21.878,-33.7658)">
			<title>Sheet.51</title>
			<desc>1 1</desc>
			<v:textBlock v:margins="rect(0,0,0,0)"/>
			<v:textRect cx="11.561" cy="255.751" width="23.13" height="11.9384"/>
			<path d="M23.12 249.78 L0 249.78 L0 261.72 L23.12 261.72 L23.12 249.78" class="st3"/>
			<text x="6.56" y="258.45" class="st2" v:langID="1033"><v:paragraph v:horizAlign="1"/><v:tabList/>1 1</text>		</g>
		<g id="shape52-172" v:mID="52" v:groupContext="shape" transform="translate(21.878,-11.2658)">
			<title>Sheet.52</title>
			<desc>1 0</desc>
			<v:textBlock v:margins="rect(0,0,0,0)"/>
			<v:textRect cx="11.561" cy="255.751" width="23.13" height="11.9384"/>
			<path d="M23.12 249.78 L0 249.78 L0 261.72 L23.12 261.72 L23.12 249.78" class="st3"/>
			<text x="6.56" y="258.45" class="st2" v:langID="1033"><v:paragraph v:horizAlign="1"/><v:tabList/>1 0</text>		</g>
		<g id="shape53-176" v:mID="53" v:groupContext="shape" transform="translate(-140.064,350.799) rotate(-135)">
			<title>Sheet.53</title>
			<path d="M0 261.72 L25.46 261.72" class="st5"/>
		</g>
		<g id="shape54-179" v:mID="54" v:groupContext="shape" transform="translate(13.5,-92.8738)">
			<title>Sheet.54</title>
			<desc>A B</desc>
			<v:textBlock v:margins="rect(0,0,0,0)"/>
			<v:textRect cx="11.25" cy="254.539" width="22.5" height="14.3612"/>
			<path d="M22.5 247.36 L0 247.36 L0 261.72 L22.5 261.72 L22.5 247.36" class="st3"/>
			<text x="4.58" y="257.54" class="st4" v:langID="1033"><v:paragraph v:horizAlign="1"/><v:tabList/>A B</text>		</g>
		<g id="shape55-183" v:mID="55" v:groupContext="shape" transform="translate(13.5,-126.36)">
			<title>Rectangle.343</title>
			<v:userDefs>
				<v:ud v:nameU="visVersion" v:val="VT0(11):26"/>
			</v:userDefs>
			<rect x="0" y="135.72" width="126" height="126" class="st1"/>
		</g>
		<g id="shape56-185" v:mID="56" v:groupContext="shape" transform="translate(-171.564,194.424) rotate(-135)">
			<title>Sheet.56</title>
			<path d="M0 261.72 L12.73 261.72" class="st5"/>
		</g>
		<g id="shape57-188" v:mID="57" v:groupContext="shape" transform="translate(3.19744E-014,-245.61)">
			<title>Sheet.57</title>
			<desc>E</desc>
			<v:textBlock v:margins="rect(0,0,0,0)"/>
			<v:textRect cx="4.5" cy="257.22" width="9" height="9"/>
			<path d="M9 252.72 L0 252.72 L0 261.72 L9 261.72 L9 252.72" class="st3"/>
			<text x="1.5" y="259.92" class="st2" v:langID="1033"><v:paragraph v:horizAlign="1"/><v:tabList/>E</text>		</g>
		<g id="shape58-192" v:mID="58" v:groupContext="shape" transform="translate(3.19744E-014,-178.11)">
			<title>Sheet.58</title>
			<desc>0</desc>
			<v:textBlock v:margins="rect(0,0,0,0)"/>
			<v:textRect cx="5.625" cy="254.97" width="11.25" height="13.5"/>
			<path d="M11.25 248.22 L0 248.22 L0 261.72 L11.25 261.72 L11.25 248.22" class="st3"/>
			<text x="3.12" y="257.67" class="st2" v:langID="1033"><v:paragraph v:horizAlign="1"/><v:tabList/>0</text>		</g>
		<g id="shape59-196" v:mID="59" v:groupContext="shape" transform="translate(3.19744E-014,-49.86)">
			<title>Sheet.59</title>
			<desc>1</desc>
			<v:textBlock v:margins="rect(0,0,0,0)"/>
			<v:textRect cx="5.625" cy="254.97" width="11.25" height="13.5"/>
			<path d="M11.25 248.22 L0 248.22 L0 261.72 L11.25 261.72 L11.25 248.22" class="st3"/>
			<text x="3.12" y="257.67" class="st2" v:langID="1033"><v:paragraph v:horizAlign="1"/><v:tabList/>1</text>		</g>
		<g id="shape60-200" v:mID="60" v:groupContext="shape" transform="translate(13.5,-0.36)">
			<title>Rectangle.61</title>
			<v:userDefs>
				<v:ud v:nameU="visVersion" v:val="VT0(11):26"/>
			</v:userDefs>
			<rect x="0" y="135.72" width="126" height="126" class="st1"/>
		</g>
	</g>
</svg>
