<?xml version="1.0" encoding="UTF-8" standalone="no"?>
<!DOCTYPE svg PUBLIC "-//W3C//DTD SVG 1.1//EN" "http://www.w3.org/Graphics/SVG/1.1/DTD/svg11.dtd">
<!-- Generated by Microsoft Visio, SVG Export SerialAdder_SM6.svg Page-1 -->
<svg xmlns="http://www.w3.org/2000/svg" xmlns:xlink="http://www.w3.org/1999/xlink" xmlns:ev="http://www.w3.org/2001/xml-events"
		xmlns:v="http://schemas.microsoft.com/visio/2003/SVGExtensions/" width="4.1875in" height="3.74741in"
		viewBox="0 0 301.5 269.813" xml:space="preserve" color-interpolation-filters="sRGB" class="st18">
	<v:documentProperties v:langID="1033" v:viewMarkup="false"/>

	<style type="text/css">
	<![CDATA[
		.st1 {fill:#abe0ae;stroke:#000000;stroke-linecap:round;stroke-linejoin:round;stroke-width:0.24}
		.st2 {fill:#000000;font-family:Arial;font-size:0.833336em}
		.st3 {marker-start:url(#mrkr4-9);stroke:#4d4d4d;stroke-linecap:round;stroke-linejoin:round;stroke-width:1.2}
		.st4 {fill:#4d4d4d;fill-opacity:1;stroke:#4d4d4d;stroke-opacity:1;stroke-width:0.4}
		.st5 {font-size:1em}
		.st6 {marker-end:url(#mrkr5-23);stroke:#000000;stroke-linecap:round;stroke-linejoin:round;stroke-width:0.75}
		.st7 {fill:#000000;fill-opacity:1;stroke:#000000;stroke-opacity:1;stroke-width:0.22935779816514}
		.st8 {fill:none;stroke:none;stroke-linecap:round;stroke-linejoin:round;stroke-width:0.75}
		.st9 {fill:#000000;font-family:Arial Unicode MS;font-size:0.833336em}
		.st10 {fill:none;stroke:none;stroke-linecap:round;stroke-linejoin:round;stroke-width:0.72}
		.st11 {marker-start:url(#mrkr5-59);stroke:#000000;stroke-linecap:round;stroke-linejoin:round;stroke-width:0.75}
		.st12 {stroke:#000000;stroke-linecap:round;stroke-linejoin:round;stroke-width:0.75}
		.st13 {fill:#c05046;font-family:Arial;font-size:0.833336em}
		.st14 {marker-end:url(#mrkr5-107);stroke:#c05046;stroke-linecap:round;stroke-linejoin:round;stroke-width:0.75}
		.st15 {fill:#c05046;fill-opacity:1;stroke:#c05046;stroke-opacity:1;stroke-width:0.22935779816514}
		.st16 {stroke:#c05046;stroke-linecap:round;stroke-linejoin:round;stroke-width:0.75}
		.st17 {fill:#c05046;font-family:Arial Unicode MS;font-size:0.833336em}
		.st18 {fill:none;fill-rule:evenodd;font-size:12px;overflow:visible;stroke-linecap:square;stroke-miterlimit:3}
	]]>
	</style>

	<defs id="Markers">
		<g id="lend4">
			<path d="M 2 1 L 0 0 L 2 -1 L 2 1 " style="stroke:none"/>
		</g>
		<marker id="mrkr4-9" class="st4" v:arrowType="4" v:arrowSize="1" v:setback="4.7" refX="4.7" orient="auto"
				markerUnits="strokeWidth" overflow="visible">
			<use xlink:href="#lend4" transform="scale(2.5) "/>
		</marker>
		<g id="lend5">
			<path d="M 2 1 L 0 0 L 1.98117 -0.993387 C 1.67173 -0.364515 1.67301 0.372641 1.98465 1.00043 " style="stroke:none"/>
		</g>
		<marker id="mrkr5-23" class="st7" v:arrowType="5" v:arrowSize="2" v:setback="7.15" refX="-7.15" orient="auto"
				markerUnits="strokeWidth" overflow="visible">
			<use xlink:href="#lend5" transform="scale(-4.36,-4.36) "/>
		</marker>
		<marker id="mrkr5-59" class="st7" v:arrowType="5" v:arrowSize="2" v:setback="7.15" refX="7.15" orient="auto"
				markerUnits="strokeWidth" overflow="visible">
			<use xlink:href="#lend5" transform="scale(4.36) "/>
		</marker>
		<marker id="mrkr5-107" class="st15" v:arrowType="5" v:arrowSize="2" v:setback="7.15" refX="-7.15" orient="auto"
				markerUnits="strokeWidth" overflow="visible">
			<use xlink:href="#lend5" transform="scale(-4.36,-4.36) "/>
		</marker>
	</defs>
	<g v:mID="0" v:index="1" v:groupContext="foregroundPage">
		<title>Page-1</title>
		<v:pageProperties v:drawingScale="1" v:pageScale="1" v:drawingUnits="19" v:shadowOffsetX="9" v:shadowOffsetY="-9"/>
		<g id="shape1-1" v:mID="1" v:groupContext="shape" transform="translate(132.817,-195.937)">
			<title>Sheet.1</title>
			<desc>S0</desc>
			<v:textBlock v:margins="rect(4,4,4,4)"/>
			<v:textRect cx="20.5774" cy="250.037" width="41.16" height="39.5527"/>
			<path d="M0 249.98 L0.24 246.99 L0.96 244.12 L2.03 241.37 L3.59 238.86 L5.5 236.47 L7.78 234.44 L10.29 232.77 L13.04
						 231.58 L16.03 230.62 L19.02 230.26 L22.13 230.26 L25.24 230.62 L28.11 231.58 L30.87 232.77 L33.5 234.44
						 L35.77 236.47 L37.69 238.86 L39.12 241.37 L40.32 244.12 L41.04 246.99 L41.15 249.98 L41.04 252.96 L40.32
						 255.83 L39.12 258.58 L37.69 261.21 L35.77 263.48 L33.5 265.51 L30.87 267.18 L28.11 268.5 L25.24 269.34 L22.13
						 269.81 L19.02 269.81 L16.03 269.34 L13.04 268.5 L10.29 267.18 L7.78 265.51 L5.5 263.48 L3.59 261.21 L2.03
						 258.58 L0.96 255.83 L0.24 252.96 L0 249.98 Z" class="st1"/>
			<text x="14.46" y="253.04" class="st2" v:langID="1033"><v:paragraph v:horizAlign="1"/><v:tabList/>S0</text>		</g>
		<g id="shape2-4" v:mID="2" v:groupContext="shape" transform="translate(-115.171,82.0809) rotate(-100.095)">
			<title>Sheet.2</title>
			<path d="M5.64 269.81 L6 269.81 L19.43 269.81" class="st3"/>
		</g>
		<g id="shape3-10" v:mID="3" v:groupContext="shape" transform="translate(124.59,-251.901)">
			<title>Sheet.3</title>
			<desc>Rst</desc>
			<v:textBlock v:margins="rect(0,0,0,0)"/>
			<v:textRect cx="16.875" cy="260.857" width="33.75" height="17.9123"/>
			<text x="9.37" y="263.86" class="st2" v:langID="1033"><v:paragraph v:horizAlign="1"/><v:tabList/>Rst</text>		</g>
		<g id="shape4-12" v:mID="4" v:groupContext="shape" transform="translate(101.25,-223.963)">
			<title>Sheet.4</title>
			<desc>F=0 Cout=0</desc>
			<v:textBlock v:margins="rect(0,0,0,0)"/>
			<v:textRect cx="16.875" cy="260.857" width="33.75" height="17.9123"/>
			<text x="16.24" y="257.86" class="st2" v:langID="1033"><v:paragraph v:horizAlign="2"/><v:tabList/>F=0<v:newlineChar/><tspan
						x="1.23" dy="1.2em" class="st5">Cout</tspan>=0</text>		</g>
		<g id="shape5-15" v:mID="5" v:groupContext="shape" transform="translate(35.6726,-105.099)">
			<title>Sheet.5</title>
			<desc>S1</desc>
			<v:textBlock v:margins="rect(4,4,4,4)"/>
			<v:textRect cx="20.5774" cy="250.037" width="41.16" height="39.5527"/>
			<path d="M0 249.98 L0.24 246.99 L0.96 244.12 L2.03 241.37 L3.59 238.86 L5.5 236.47 L7.78 234.44 L10.29 232.77 L13.04
						 231.58 L16.03 230.62 L19.02 230.26 L22.13 230.26 L25.24 230.62 L28.11 231.58 L30.87 232.77 L33.5 234.44
						 L35.77 236.47 L37.69 238.86 L39.12 241.37 L40.32 244.12 L41.04 246.99 L41.15 249.98 L41.04 252.96 L40.32
						 255.83 L39.12 258.58 L37.69 261.21 L35.77 263.48 L33.5 265.51 L30.87 267.18 L28.11 268.5 L25.24 269.34 L22.13
						 269.81 L19.02 269.81 L16.03 269.34 L13.04 268.5 L10.29 267.18 L7.78 265.51 L5.5 263.48 L3.59 261.21 L2.03
						 258.58 L0.96 255.83 L0.24 252.96 L0 249.98 Z" class="st1"/>
			<text x="14.46" y="253.04" class="st2" v:langID="1033"><v:paragraph v:horizAlign="1"/><v:tabList/>S1</text>		</g>
		<g id="shape6-18" v:mID="6" v:groupContext="shape" transform="translate(313.275,236.781) rotate(134.926)">
			<title>Sheet.6</title>
			<path d="M0 254.54 C12.7 265.21 28.85 269.28 44.06 269.81 C61.45 270.43 77.62 266.43 93.2 257.51 L93.51 257.32"
					class="st6"/>
		</g>
		<g id="shape7-24" v:mID="7" v:groupContext="shape" transform="translate(0,-99.7939)">
			<title>Sheet.7</title>
			<desc>F=1 Cout=0</desc>
			<v:textBlock v:margins="rect(0,0,0,0)"/>
			<v:textRect cx="16.875" cy="260.857" width="33.75" height="17.9123"/>
			<text x="16.24" y="257.86" class="st2" v:langID="1033"><v:paragraph v:horizAlign="2"/><v:tabList/>F=1<v:newlineChar/><tspan
						x="1.23" dy="1.2em" class="st5">Cout</tspan>=0</text>		</g>
		<g id="shape8-27" v:mID="8" v:groupContext="shape" transform="translate(-8.33877,203.766) rotate(-129.97)">
			<title>Sheet.8</title>
			<path d="M0 237.73 C-9.14 241.62 -14.48 256.44 -10.81 263.84 C-3.07 279.44 44.74 262.02 24.48 241.43 L24.2 241.2"
					class="st6"/>
		</g>
		<g id="group9-32" transform="translate(-114.56,-100.974) rotate(-45)" v:mID="9" v:groupContext="group">
			<title>Sheet.9</title>
			<g id="shape10-33" v:mID="10" v:groupContext="shape">
				<title>Sheet.10</title>
				<desc>A</desc>
				<v:textBlock v:margins="rect(0,0,0,0)"/>
				<v:textRect cx="4.5" cy="264.216" width="9.01" height="11.1952"/>
				<text x="0" y="267.22" class="st2" v:langID="1033"><v:paragraph/><v:tabList/>A</text>			</g>
			<g id="shape11-35" v:mID="11" v:groupContext="shape" transform="translate(6.75,-4.5)">
				<title>Sheet.11</title>
				<desc>⊕</desc>
				<v:textBlock v:margins="rect(0,0,0,0)"/>
				<v:textRect cx="4.5" cy="267.563" width="9" height="4.5"/>
				<rect x="0" y="265.313" width="9" height="4.5" class="st8"/>
				<text x="0.5" y="270.56" class="st9" v:langID="1033"><v:paragraph v:horizAlign="1"/><v:tabList/>⊕</text>			</g>
			<g id="shape12-38" v:mID="12" v:groupContext="shape" transform="translate(15.75,-0.0548405)">
				<title>Sheet.12</title>
				<desc>B</desc>
				<v:textBlock v:margins="rect(0,0,0,0)"/>
				<v:textRect cx="4.5" cy="264.216" width="9" height="11.1952"/>
				<rect x="0" y="258.618" width="9" height="11.1952" class="st10"/>
				<text x="0" y="267.22" class="st2" v:langID="1033"><v:paragraph/><v:tabList/>B</text>			</g>
		</g>
		<g id="shape13-41" v:mID="13" v:groupContext="shape" transform="translate(223.548,-104.206)">
			<title>Sheet.13</title>
			<desc>S2</desc>
			<v:textBlock v:margins="rect(4,4,4,4)"/>
			<v:textRect cx="20.5774" cy="250.037" width="41.16" height="39.5527"/>
			<path d="M0 249.98 L0.24 246.99 L0.96 244.12 L2.03 241.37 L3.59 238.86 L5.5 236.47 L7.78 234.44 L10.29 232.77 L13.04
						 231.58 L16.03 230.62 L19.02 230.26 L22.13 230.26 L25.24 230.62 L28.11 231.58 L30.87 232.77 L33.5 234.44
						 L35.77 236.47 L37.69 238.86 L39.12 241.37 L40.32 244.12 L41.04 246.99 L41.15 249.98 L41.04 252.96 L40.32
						 255.83 L39.12 258.58 L37.69 261.21 L35.77 263.48 L33.5 265.51 L30.87 267.18 L28.11 268.5 L25.24 269.34 L22.13
						 269.81 L19.02 269.81 L16.03 269.34 L13.04 268.5 L10.29 267.18 L7.78 265.51 L5.5 263.48 L3.59 261.21 L2.03
						 258.58 L0.96 255.83 L0.24 252.96 L0 249.98 Z" class="st1"/>
			<text x="14.46" y="253.04" class="st2" v:langID="1033"><v:paragraph v:horizAlign="1"/><v:tabList/>S2</text>		</g>
		<g id="shape14-44" v:mID="14" v:groupContext="shape" transform="translate(267.75,-97.5439)">
			<title>Sheet.14</title>
			<desc>F=0 Cout=1</desc>
			<v:textBlock v:margins="rect(0,0,0,0)"/>
			<v:textRect cx="16.875" cy="260.857" width="33.75" height="17.9123"/>
			<text x="0" y="257.86" class="st2" v:langID="1033"><v:paragraph/><v:tabList/>F=0<v:newlineChar/><tspan x="0" dy="1.2em"
						class="st5">Cout</tspan>=1</text>		</g>
		<g id="shape15-47" v:mID="15" v:groupContext="shape" transform="translate(-6.96887,237.361) rotate(45.0741) scale(1,-1)">
			<title>Sheet.15</title>
			<path d="M0 254.54 C12.7 265.21 28.85 269.28 44.06 269.81 C61.45 270.43 77.62 266.43 93.2 257.51 L93.51 257.32"
					class="st6"/>
		</g>
		<g id="shape16-52" v:mID="16" v:groupContext="shape" transform="translate(409.189,-105.813) rotate(45)">
			<title>Sheet.16</title>
			<desc>A∙B</desc>
			<v:textBlock v:margins="rect(0,0,0,0)"/>
			<v:textRect cx="8.4375" cy="260.857" width="16.88" height="17.9123"/>
			<text x="0" y="263.86" class="st2" v:langID="1033"><v:paragraph/><v:tabList/>A∙B</text>		</g>
		<g id="shape17-54" v:mID="17" v:groupContext="shape" transform="translate(-33.8961,-107.657) rotate(-44.9259) scale(-1,1)">
			<title>Sheet.17</title>
			<path d="M4.27 257.78 L4.56 258 C16.44 266.11 30.62 269.34 44.06 269.81 C63.28 270.49 81 265.54 98.09 254.54"
					class="st11"/>
		</g>
		<g id="shape18-60" v:mID="18" v:groupContext="shape" transform="translate(221.976,404.01) rotate(-179.651)">
			<title>Sheet.18</title>
			<path d="M4.99 260.2 L5.33 260.33 C23.4 266.87 45.23 269.45 65.91 269.81 C94.65 270.33 121.17 266.57 146.72 258.24"
					class="st11"/>
		</g>
		<g id="shape19-65" v:mID="19" v:groupContext="shape" transform="translate(204.757,308.294) rotate(140.03)">
			<title>Sheet.19</title>
			<path d="M0 237.73 C-9.14 241.62 -14.48 256.44 -10.81 263.84 C-3.07 279.44 44.74 262.02 24.48 241.43 L24.2 241.2"
					class="st6"/>
		</g>
		<g id="group20-70" transform="translate(-214.97,-13.8896) rotate(-60)" v:mID="20" v:groupContext="group">
			<title>Sheet.20</title>
			<g id="shape21-71" v:mID="21" v:groupContext="shape">
				<title>Sheet.21</title>
				<desc>A</desc>
				<v:textBlock v:margins="rect(0,0,0,0)"/>
				<v:textRect cx="4.5" cy="264.216" width="9.01" height="11.1952"/>
				<text x="0" y="267.22" class="st2" v:langID="1033"><v:paragraph/><v:tabList/>A</text>			</g>
			<g id="shape22-73" v:mID="22" v:groupContext="shape" transform="translate(6.75,-4.5)">
				<title>Sheet.22</title>
				<desc>⊕</desc>
				<v:textBlock v:margins="rect(0,0,0,0)"/>
				<v:textRect cx="4.5" cy="267.563" width="9" height="4.5"/>
				<rect x="0" y="265.313" width="9" height="4.5" class="st8"/>
				<text x="0.5" y="270.56" class="st9" v:langID="1033"><v:paragraph v:horizAlign="1"/><v:tabList/>⊕</text>			</g>
			<g id="shape23-76" v:mID="23" v:groupContext="shape" transform="translate(15.75,-0.0548405)">
				<title>Sheet.23</title>
				<desc>B</desc>
				<v:textBlock v:margins="rect(0,0,0,0)"/>
				<v:textRect cx="4.5" cy="264.216" width="9" height="11.1952"/>
				<rect x="0" y="258.618" width="9" height="11.1952" class="st10"/>
				<text x="0" y="267.22" class="st2" v:langID="1033"><v:paragraph/><v:tabList/>B</text>			</g>
		</g>
		<g id="group24-79" transform="translate(-133.764,120.456) rotate(-90)" v:mID="24" v:groupContext="group">
			<title>Sheet.24</title>
			<g id="shape25-80" v:mID="25" v:groupContext="shape" transform="translate(190.787,67.0941) rotate(45)">
				<title>Sheet.25</title>
				<desc>A∙B</desc>
				<v:textBlock v:margins="rect(0,0,0,0)"/>
				<v:textRect cx="8.4375" cy="260.857" width="16.88" height="17.9123"/>
				<text x="-0" y="263.86" class="st2" v:langID="1033"><v:paragraph/><v:tabList/>A∙B</text>			</g>
			<g id="shape26-82" v:mID="26" v:groupContext="shape" transform="translate(200.757,56.5054) rotate(45)">
				<title>Sheet.26</title>
				<path d="M0 269.81 L6.5 269.81" class="st12"/>
			</g>
			<g id="shape27-85" v:mID="27" v:groupContext="shape" transform="translate(207.474,63.2229) rotate(45)">
				<title>Sheet.27</title>
				<path d="M0 269.81 L6.13 269.81" class="st12"/>
			</g>
		</g>
		<g id="shape28-88" v:mID="28" v:groupContext="shape" transform="translate(148.5,-133.5)">
			<title>Sheet.28</title>
			<desc>A∙B</desc>
			<v:textBlock v:margins="rect(0,0,0,0)"/>
			<v:textRect cx="8.4375" cy="260.857" width="16.88" height="17.9123"/>
			<text x="0" y="263.86" class="st2" v:langID="1033"><v:paragraph/><v:tabList/>A∙B</text>		</g>
		<g id="group29-90" transform="translate(183.451,-236.326)" v:mID="29" v:groupContext="group">
			<title>Sheet.29</title>
			<g id="shape30-91" v:mID="30" v:groupContext="shape" transform="translate(190.787,67.0941) rotate(45)">
				<title>Sheet.30</title>
				<desc>A∙B</desc>
				<v:textBlock v:margins="rect(0,0,0,0)"/>
				<v:textRect cx="8.4375" cy="260.857" width="16.88" height="17.9123"/>
				<text x="-0" y="263.86" class="st2" v:langID="1033"><v:paragraph/><v:tabList/>A∙B</text>			</g>
			<g id="shape31-93" v:mID="31" v:groupContext="shape" transform="translate(200.757,56.5054) rotate(45)">
				<title>Sheet.31</title>
				<path d="M0 269.81 L6.5 269.81" class="st12"/>
			</g>
			<g id="shape32-96" v:mID="32" v:groupContext="shape" transform="translate(207.474,63.2229) rotate(45)">
				<title>Sheet.32</title>
				<path d="M0 269.81 L6.13 269.81" class="st12"/>
			</g>
		</g>
		<g id="shape33-99" v:mID="33" v:groupContext="shape" transform="translate(132.423,-14.2061)">
			<title>Sheet.33</title>
			<desc>S3</desc>
			<v:textBlock v:margins="rect(4,4,4,4)"/>
			<v:textRect cx="20.5774" cy="250.037" width="41.16" height="39.5527"/>
			<path d="M0 249.98 L0.24 246.99 L0.96 244.12 L2.03 241.37 L3.59 238.86 L5.5 236.47 L7.78 234.44 L10.29 232.77 L13.04
						 231.58 L16.03 230.62 L19.02 230.26 L22.13 230.26 L25.24 230.62 L28.11 231.58 L30.87 232.77 L33.5 234.44
						 L35.77 236.47 L37.69 238.86 L39.12 241.37 L40.32 244.12 L41.04 246.99 L41.15 249.98 L41.04 252.96 L40.32
						 255.83 L39.12 258.58 L37.69 261.21 L35.77 263.48 L33.5 265.51 L30.87 267.18 L28.11 268.5 L25.24 269.34 L22.13
						 269.81 L19.02 269.81 L16.03 269.34 L13.04 268.5 L10.29 267.18 L7.78 265.51 L5.5 263.48 L3.59 261.21 L2.03
						 258.58 L0.96 255.83 L0.24 252.96 L0 249.98 Z" class="st1"/>
			<text x="14.46" y="253.04" class="st13" v:langID="1033"><v:paragraph v:horizAlign="1"/><v:tabList/>S3</text>		</g>
		<g id="shape35-102" v:mID="35" v:groupContext="shape" transform="translate(62.8164,-14.6115) rotate(-44.9259) scale(-1,1)">
			<title>Sheet.35</title>
			<path d="M0 254.54 C12.7 265.21 28.85 269.28 44.06 269.81 C61.45 270.43 77.62 266.43 93.2 257.51 L93.51 257.32"
					class="st14"/>
		</g>
		<g id="shape36-108" v:mID="36" v:groupContext="shape" transform="translate(222.216,-109.48) rotate(-0.348593) scale(-1,1)">
			<title>Sheet.36</title>
			<path d="M0 258.24 C19 266.33 43.15 269.41 65.91 269.81 C92.61 270.29 117.39 267.09 141.26 259.95 L141.6 259.84"
					class="st14"/>
		</g>
		<g id="group37-113" transform="translate(-37.7869,-16.786) rotate(-45)" v:mID="37" v:groupContext="group">
			<title>Sheet.37</title>
			<g id="shape38-114" v:mID="38" v:groupContext="shape" transform="translate(190.787,67.0941) rotate(45)">
				<title>Sheet.38</title>
				<desc>A∙B</desc>
				<v:textBlock v:margins="rect(0,0,0,0)"/>
				<v:textRect cx="8.4375" cy="260.857" width="16.88" height="17.9123"/>
				<text x="0" y="263.86" class="st13" v:langID="1033"><v:paragraph/><v:tabList/>A∙B</text>			</g>
			<g id="shape39-116" v:mID="39" v:groupContext="shape" transform="translate(200.757,56.5054) rotate(45)">
				<title>Sheet.39</title>
				<path d="M0 269.81 L6.5 269.81" class="st16"/>
			</g>
			<g id="shape40-119" v:mID="40" v:groupContext="shape" transform="translate(207.474,63.2229) rotate(45)">
				<title>Sheet.40</title>
				<path d="M0 269.81 L6.13 269.81" class="st16"/>
			</g>
		</g>
		<g id="shape41-122" v:mID="41" v:groupContext="shape" transform="translate(174.299,-3.04389)">
			<title>Sheet.41</title>
			<desc>F=1 Cout=1</desc>
			<v:textBlock v:margins="rect(0,0,0,0)"/>
			<v:textRect cx="16.875" cy="260.857" width="33.75" height="17.9123"/>
			<text x="0" y="257.86" class="st13" v:langID="1033"><v:paragraph/><v:tabList/>F=1<v:newlineChar/><tspan x="0"
						dy="1.2em" class="st5">Cout</tspan>=1</text>		</g>
		<g id="shape42-125" v:mID="42" v:groupContext="shape" transform="translate(82.3919,295.496) rotate(-129.97)">
			<title>Sheet.42</title>
			<path d="M0 237.73 C-9.14 241.62 -14.48 256.44 -10.81 263.84 C-3.07 279.44 44.74 262.02 24.48 241.43 L24.2 241.2"
					class="st14"/>
		</g>
		<g id="shape43-130" v:mID="43" v:groupContext="shape" transform="translate(28.8789,20.8695) rotate(-45)">
			<title>Sheet.43</title>
			<desc>A∙B</desc>
			<v:textBlock v:margins="rect(0,0,0,0)"/>
			<v:textRect cx="8.4375" cy="260.857" width="16.88" height="17.9123"/>
			<text x="0" y="263.86" class="st13" v:langID="1033"><v:paragraph/><v:tabList/>A∙B</text>		</g>
		<g id="group44-132" transform="translate(400.348,-128.113) rotate(30)" v:mID="44" v:groupContext="group">
			<title>Sheet.44</title>
			<g id="shape45-133" v:mID="45" v:groupContext="shape">
				<title>Sheet.45</title>
				<desc>A</desc>
				<v:textBlock v:margins="rect(0,0,0,0)"/>
				<v:textRect cx="4.5" cy="264.216" width="9.01" height="11.1952"/>
				<text x="0" y="267.22" class="st13" v:langID="1033"><v:paragraph/><v:tabList/>A</text>			</g>
			<g id="shape46-135" v:mID="46" v:groupContext="shape" transform="translate(6.75,-4.5)">
				<title>Sheet.46</title>
				<desc>⊕</desc>
				<v:textBlock v:margins="rect(0,0,0,0)"/>
				<v:textRect cx="4.5" cy="267.563" width="9" height="4.5"/>
				<rect x="0" y="265.313" width="9" height="4.5" class="st8"/>
				<text x="0.5" y="270.56" class="st17" v:langID="1033"><v:paragraph v:horizAlign="1"/><v:tabList/>⊕</text>			</g>
			<g id="shape47-138" v:mID="47" v:groupContext="shape" transform="translate(15.75,-0.0548405)">
				<title>Sheet.47</title>
				<desc>B</desc>
				<v:textBlock v:margins="rect(0,0,0,0)"/>
				<v:textRect cx="4.5" cy="264.216" width="9" height="11.1952"/>
				<rect x="0" y="258.618" width="9" height="11.1952" class="st10"/>
				<text x="0" y="267.22" class="st13" v:langID="1033"><v:paragraph/><v:tabList/>B</text>			</g>
		</g>
	</g>
</svg>
