<?xml version="1.0" encoding="UTF-8" standalone="no"?>
<!DOCTYPE svg PUBLIC "-//W3C//DTD SVG 1.1//EN" "http://www.w3.org/Graphics/SVG/1.1/DTD/svg11.dtd">
<!-- Generated by Microsoft Visio, SVG Export 4 loops.svg Page-1 -->
<svg xmlns="http://www.w3.org/2000/svg" xmlns:xlink="http://www.w3.org/1999/xlink" xmlns:ev="http://www.w3.org/2001/xml-events"
		xmlns:v="http://schemas.microsoft.com/visio/2003/SVGExtensions/" width="2.4375in" height="1.86955in"
		viewBox="0 0 175.5 134.608" xml:space="preserve" color-interpolation-filters="sRGB" class="st20">
	<v:documentProperties v:langID="1033" v:viewMarkup="false"/>

	<style type="text/css">
	<![CDATA[
		.st1 {fill:#ffffff;stroke:#000000;stroke-linecap:round;stroke-linejoin:round;stroke-width:0.72}
		.st2 {fill:#000000;font-family:Arial;font-size:0.75em}
		.st3 {stroke:none;stroke-linecap:round;stroke-linejoin:round;stroke-width:0.75}
		.st4 {fill:#000000;font-family:Arial;font-size:0.833336em}
		.st5 {stroke:#000000;stroke-linecap:round;stroke-linejoin:round;stroke-width:0.72}
		.st6 {fill:none;stroke:#923931;stroke-linecap:round;stroke-linejoin:round;stroke-width:1.2}
		.st7 {fill:none;stroke:#d9958f;stroke-linecap:round;stroke-linejoin:round;stroke-width:1.2}
		.st8 {fill:none;stroke:#ff0000;stroke-linecap:round;stroke-linejoin:round;stroke-width:1.2}
		.st9 {fill:none;stroke:#612621;stroke-linecap:round;stroke-linejoin:round;stroke-width:1.2}
		.st10 {fill:none;stroke:none;stroke-linecap:round;stroke-linejoin:round;stroke-width:0.75}
		.st11 {fill:#000000;font-family:Arial;font-size:0.833336em;font-weight:bold}
		.st12 {marker-end:url(#mrkr5-108);stroke:#612621;stroke-linecap:round;stroke-linejoin:round;stroke-width:0.75}
		.st13 {fill:#612621;fill-opacity:1;stroke:#612621;stroke-opacity:1;stroke-width:0.22935779816514}
		.st14 {marker-end:url(#mrkr5-117);stroke:#ff0000;stroke-linecap:round;stroke-linejoin:round;stroke-width:0.75}
		.st15 {fill:#ff0000;fill-opacity:1;stroke:#ff0000;stroke-opacity:1;stroke-width:0.22935779816514}
		.st16 {marker-end:url(#mrkr5-126);stroke:#d9958f;stroke-linecap:round;stroke-linejoin:round;stroke-width:0.75}
		.st17 {fill:#d9958f;fill-opacity:1;stroke:#d9958f;stroke-opacity:1;stroke-width:0.22935779816514}
		.st18 {marker-end:url(#mrkr5-135);stroke:#923931;stroke-linecap:round;stroke-linejoin:round;stroke-width:0.75}
		.st19 {fill:#923931;fill-opacity:1;stroke:#923931;stroke-opacity:1;stroke-width:0.22935779816514}
		.st20 {fill:none;fill-rule:evenodd;font-size:12px;overflow:visible;stroke-linecap:square;stroke-miterlimit:3}
	]]>
	</style>

	<defs id="Markers">
		<g id="lend5">
			<path d="M 2 1 L 0 0 L 1.98117 -0.993387 C 1.67173 -0.364515 1.67301 0.372641 1.98465 1.00043 " style="stroke:none"/>
		</g>
		<marker id="mrkr5-108" class="st13" v:arrowType="5" v:arrowSize="2" v:setback="7.15" refX="-7.15" orient="auto"
				markerUnits="strokeWidth" overflow="visible">
			<use xlink:href="#lend5" transform="scale(-4.36,-4.36) "/>
		</marker>
		<marker id="mrkr5-117" class="st15" v:arrowType="5" v:arrowSize="2" v:setback="7.15" refX="-7.15" orient="auto"
				markerUnits="strokeWidth" overflow="visible">
			<use xlink:href="#lend5" transform="scale(-4.36,-4.36) "/>
		</marker>
		<marker id="mrkr5-126" class="st17" v:arrowType="5" v:arrowSize="2" v:setback="7.15" refX="-7.15" orient="auto"
				markerUnits="strokeWidth" overflow="visible">
			<use xlink:href="#lend5" transform="scale(-4.36,-4.36) "/>
		</marker>
		<marker id="mrkr5-135" class="st19" v:arrowType="5" v:arrowSize="2" v:setback="7.15" refX="-7.15" orient="auto"
				markerUnits="strokeWidth" overflow="visible">
			<use xlink:href="#lend5" transform="scale(-4.36,-4.36) "/>
		</marker>
	</defs>
	<g v:mID="0" v:index="1" v:groupContext="foregroundPage">
		<title>Page-1</title>
		<v:pageProperties v:drawingScale="1" v:pageScale="1" v:drawingUnits="19" v:shadowOffsetX="9" v:shadowOffsetY="-9"/>
		<g id="shape112-1" v:mID="112" v:groupContext="shape" transform="translate(72,-87.4131)">
			<title>Rectangle.112</title>
			<desc>0</desc>
			<v:userDefs>
				<v:ud v:nameU="visVersion" v:val="VT0(11):26"/>
			</v:userDefs>
			<v:textBlock v:margins="rect(4,4,4,4)"/>
			<v:textRect cx="11.25" cy="123.358" width="22.5" height="22.5"/>
			<rect x="0" y="112.108" width="22.5" height="22.5" class="st1"/>
			<text x="8.75" y="126.06" class="st2" v:langID="1033"><v:paragraph v:horizAlign="1"/><v:tabList/>0</text>		</g>
		<g id="shape113-4" v:mID="113" v:groupContext="shape" transform="translate(49.5,-87.4131)">
			<title>Rectangle.113</title>
			<desc>0</desc>
			<v:userDefs>
				<v:ud v:nameU="visVersion" v:val="VT0(11):26"/>
			</v:userDefs>
			<v:textBlock v:margins="rect(4,4,4,4)"/>
			<v:textRect cx="11.25" cy="123.358" width="22.5" height="22.5"/>
			<rect x="0" y="112.108" width="22.5" height="22.5" class="st1"/>
			<text x="8.75" y="126.06" class="st2" v:langID="1033"><v:paragraph v:horizAlign="1"/><v:tabList/>0</text>		</g>
		<g id="shape114-7" v:mID="114" v:groupContext="shape" transform="translate(117,-87.4131)">
			<title>Rectangle.11.114</title>
			<desc>0</desc>
			<v:userDefs>
				<v:ud v:nameU="visVersion" v:val="VT0(11):26"/>
			</v:userDefs>
			<v:textBlock v:margins="rect(4,4,4,4)"/>
			<v:textRect cx="11.25" cy="123.358" width="22.5" height="22.5"/>
			<rect x="0" y="112.108" width="22.5" height="22.5" class="st1"/>
			<text x="8.75" y="126.06" class="st2" v:langID="1033"><v:paragraph v:horizAlign="1"/><v:tabList/>0</text>		</g>
		<g id="shape115-10" v:mID="115" v:groupContext="shape" transform="translate(94.5,-87.4131)">
			<title>Rectangle.11.115</title>
			<desc>E</desc>
			<v:userDefs>
				<v:ud v:nameU="visVersion" v:val="VT0(11):26"/>
			</v:userDefs>
			<v:textBlock v:margins="rect(4,4,4,4)"/>
			<v:textRect cx="11.25" cy="123.358" width="22.5" height="22.5"/>
			<rect x="0" y="112.108" width="22.5" height="22.5" class="st1"/>
			<text x="8.25" y="126.06" class="st2" v:langID="1033"><v:paragraph v:horizAlign="1"/><v:tabList/>E</text>		</g>
		<g id="shape116-13" v:mID="116" v:groupContext="shape" transform="translate(72,-64.9131)">
			<title>Rectangle.11.116</title>
			<desc>E</desc>
			<v:userDefs>
				<v:ud v:nameU="visVersion" v:val="VT0(11):26"/>
			</v:userDefs>
			<v:textBlock v:margins="rect(4,4,4,4)"/>
			<v:textRect cx="11.25" cy="123.358" width="22.5" height="22.5"/>
			<rect x="0" y="112.108" width="22.5" height="22.5" class="st1"/>
			<text x="8.25" y="126.06" class="st2" v:langID="1033"><v:paragraph v:horizAlign="1"/><v:tabList/>E</text>		</g>
		<g id="shape117-16" v:mID="117" v:groupContext="shape" transform="translate(49.5,-64.9131)">
			<title>Rectangle.11.117</title>
			<desc>0</desc>
			<v:userDefs>
				<v:ud v:nameU="visVersion" v:val="VT0(11):26"/>
			</v:userDefs>
			<v:textBlock v:margins="rect(4,4,4,4)"/>
			<v:textRect cx="11.25" cy="123.358" width="22.5" height="22.5"/>
			<rect x="0" y="112.108" width="22.5" height="22.5" class="st1"/>
			<text x="8.75" y="126.06" class="st2" v:langID="1033"><v:paragraph v:horizAlign="1"/><v:tabList/>0</text>		</g>
		<g id="shape118-19" v:mID="118" v:groupContext="shape" transform="translate(117,-64.9131)">
			<title>Rectangle.11.118</title>
			<desc>E</desc>
			<v:userDefs>
				<v:ud v:nameU="visVersion" v:val="VT0(11):26"/>
			</v:userDefs>
			<v:textBlock v:margins="rect(4,4,4,4)"/>
			<v:textRect cx="11.25" cy="123.358" width="22.5" height="22.5"/>
			<rect x="0" y="112.108" width="22.5" height="22.5" class="st1"/>
			<text x="8.25" y="126.06" class="st2" v:langID="1033"><v:paragraph v:horizAlign="1"/><v:tabList/>E</text>		</g>
		<g id="shape119-22" v:mID="119" v:groupContext="shape" transform="translate(94.5,-64.9131)">
			<title>Rectangle.11.119</title>
			<desc>1</desc>
			<v:userDefs>
				<v:ud v:nameU="visVersion" v:val="VT0(11):26"/>
			</v:userDefs>
			<v:textBlock v:margins="rect(4,4,4,4)"/>
			<v:textRect cx="11.25" cy="123.358" width="22.5" height="22.5"/>
			<rect x="0" y="112.108" width="22.5" height="22.5" class="st1"/>
			<text x="8.75" y="126.06" class="st2" v:langID="1033"><v:paragraph v:horizAlign="1"/><v:tabList/>1</text>		</g>
		<g id="shape120-25" v:mID="120" v:groupContext="shape" transform="translate(72,-42.4131)">
			<title>Rectangle.11.120</title>
			<desc>1</desc>
			<v:userDefs>
				<v:ud v:nameU="visVersion" v:val="VT0(11):26"/>
			</v:userDefs>
			<v:textBlock v:margins="rect(4,4,4,4)"/>
			<v:textRect cx="11.25" cy="123.358" width="22.5" height="22.5"/>
			<rect x="0" y="112.108" width="22.5" height="22.5" class="st1"/>
			<text x="8.75" y="126.06" class="st2" v:langID="1033"><v:paragraph v:horizAlign="1"/><v:tabList/>1</text>		</g>
		<g id="shape121-28" v:mID="121" v:groupContext="shape" transform="translate(49.5,-42.4131)">
			<title>Rectangle.11.121</title>
			<desc>E</desc>
			<v:userDefs>
				<v:ud v:nameU="visVersion" v:val="VT0(11):26"/>
			</v:userDefs>
			<v:textBlock v:margins="rect(4,4,4,4)"/>
			<v:textRect cx="11.25" cy="123.358" width="22.5" height="22.5"/>
			<rect x="0" y="112.108" width="22.5" height="22.5" class="st1"/>
			<text x="8.25" y="126.06" class="st2" v:langID="1033"><v:paragraph v:horizAlign="1"/><v:tabList/>E</text>		</g>
		<g id="shape122-31" v:mID="122" v:groupContext="shape" transform="translate(117,-42.4131)">
			<title>Rectangle.122</title>
			<desc>1</desc>
			<v:userDefs>
				<v:ud v:nameU="visVersion" v:val="VT0(11):26"/>
			</v:userDefs>
			<v:textBlock v:margins="rect(4,4,4,4)"/>
			<v:textRect cx="11.25" cy="123.358" width="22.5" height="22.5"/>
			<rect x="0" y="112.108" width="22.5" height="22.5" class="st1"/>
			<text x="8.75" y="126.06" class="st2" v:langID="1033"><v:paragraph v:horizAlign="1"/><v:tabList/>1</text>		</g>
		<g id="shape123-34" v:mID="123" v:groupContext="shape" transform="translate(94.5,-42.4131)">
			<title>Rectangle.123</title>
			<desc>1</desc>
			<v:userDefs>
				<v:ud v:nameU="visVersion" v:val="VT0(11):26"/>
			</v:userDefs>
			<v:textBlock v:margins="rect(4,4,4,4)"/>
			<v:textRect cx="11.25" cy="123.358" width="22.5" height="22.5"/>
			<rect x="0" y="112.108" width="22.5" height="22.5" class="st1"/>
			<text x="8.75" y="126.06" class="st2" v:langID="1033"><v:paragraph v:horizAlign="1"/><v:tabList/>1</text>		</g>
		<g id="shape124-37" v:mID="124" v:groupContext="shape" transform="translate(72,-19.9131)">
			<title>Rectangle.124</title>
			<desc>E</desc>
			<v:userDefs>
				<v:ud v:nameU="visVersion" v:val="VT0(11):26"/>
			</v:userDefs>
			<v:textBlock v:margins="rect(4,4,4,4)"/>
			<v:textRect cx="11.25" cy="123.358" width="22.5" height="22.5"/>
			<rect x="0" y="112.108" width="22.5" height="22.5" class="st1"/>
			<text x="8.25" y="126.06" class="st2" v:langID="1033"><v:paragraph v:horizAlign="1"/><v:tabList/>E</text>		</g>
		<g id="shape125-40" v:mID="125" v:groupContext="shape" transform="translate(49.5,-19.9131)">
			<title>Rectangle.125</title>
			<desc>0</desc>
			<v:userDefs>
				<v:ud v:nameU="visVersion" v:val="VT0(11):26"/>
			</v:userDefs>
			<v:textBlock v:margins="rect(4,4,4,4)"/>
			<v:textRect cx="11.25" cy="123.358" width="22.5" height="22.5"/>
			<rect x="0" y="112.108" width="22.5" height="22.5" class="st1"/>
			<text x="8.75" y="126.06" class="st2" v:langID="1033"><v:paragraph v:horizAlign="1"/><v:tabList/>0</text>		</g>
		<g id="shape126-43" v:mID="126" v:groupContext="shape" transform="translate(117,-19.9131)">
			<title>Rectangle.126</title>
			<desc>E</desc>
			<v:userDefs>
				<v:ud v:nameU="visVersion" v:val="VT0(11):26"/>
			</v:userDefs>
			<v:textBlock v:margins="rect(4,4,4,4)"/>
			<v:textRect cx="11.25" cy="123.358" width="22.5" height="22.5"/>
			<rect x="0" y="112.108" width="22.5" height="22.5" class="st1"/>
			<text x="8.25" y="126.06" class="st2" v:langID="1033"><v:paragraph v:horizAlign="1"/><v:tabList/>E</text>		</g>
		<g id="shape127-46" v:mID="127" v:groupContext="shape" transform="translate(94.5,-19.9131)">
			<title>Rectangle.127</title>
			<desc>1</desc>
			<v:userDefs>
				<v:ud v:nameU="visVersion" v:val="VT0(11):26"/>
			</v:userDefs>
			<v:textBlock v:margins="rect(4,4,4,4)"/>
			<v:textRect cx="11.25" cy="123.358" width="22.5" height="22.5"/>
			<rect x="0" y="112.108" width="22.5" height="22.5" class="st1"/>
			<text x="8.75" y="126.06" class="st2" v:langID="1033"><v:paragraph v:horizAlign="1"/><v:tabList/>1</text>		</g>
		<g id="shape128-49" v:mID="128" v:groupContext="shape" transform="translate(30.021,-123.677)">
			<title>Sheet.128</title>
			<desc>C D</desc>
			<v:textBlock v:margins="rect(0,0,0,0)"/>
			<v:textRect cx="16.104" cy="129.677" width="32.21" height="9.86119"/>
			<path d="M32.21 124.75 L0 124.75 L0 134.61 L32.21 134.61 L32.21 124.75" class="st3"/>
			<text x="8.88" y="132.68" class="st4" v:langID="1033"><v:paragraph v:horizAlign="1"/><v:tabList/>C D</text>		</g>
		<g id="shape129-53" v:mID="129" v:groupContext="shape" transform="translate(49.5,-109.913)">
			<title>Sheet.129</title>
			<desc>0 0</desc>
			<v:textBlock v:margins="rect(0,0,0,0)"/>
			<v:textRect cx="11.25" cy="127.858" width="22.5" height="13.5"/>
			<path d="M22.5 121.11 L0 121.11 L0 134.61 L22.5 134.61 L22.5 121.11" class="st3"/>
			<text x="6.24" y="130.56" class="st2" v:langID="1033"><v:paragraph v:horizAlign="1"/><v:tabList/>0 0</text>		</g>
		<g id="shape130-57" v:mID="130" v:groupContext="shape" transform="translate(72,-109.913)">
			<title>Sheet.130</title>
			<desc>0 1</desc>
			<v:textBlock v:margins="rect(0,0,0,0)"/>
			<v:textRect cx="11.25" cy="127.858" width="22.5" height="13.5"/>
			<path d="M22.5 121.11 L0 121.11 L0 134.61 L22.5 134.61 L22.5 121.11" class="st3"/>
			<text x="6.24" y="130.56" class="st2" v:langID="1033"><v:paragraph v:horizAlign="1"/><v:tabList/>0 1</text>		</g>
		<g id="shape131-61" v:mID="131" v:groupContext="shape" transform="translate(94.5,-109.913)">
			<title>Sheet.131</title>
			<desc>1 1</desc>
			<v:textBlock v:margins="rect(0,0,0,0)"/>
			<v:textRect cx="11.25" cy="127.858" width="22.5" height="13.5"/>
			<path d="M22.5 121.11 L0 121.11 L0 134.61 L22.5 134.61 L22.5 121.11" class="st3"/>
			<text x="6.24" y="130.56" class="st2" v:langID="1033"><v:paragraph v:horizAlign="1"/><v:tabList/>1 1</text>		</g>
		<g id="shape132-65" v:mID="132" v:groupContext="shape" transform="translate(117,-109.913)">
			<title>Sheet.132</title>
			<desc>1 0</desc>
			<v:textBlock v:margins="rect(0,0,0,0)"/>
			<v:textRect cx="11.25" cy="127.858" width="22.5" height="13.5"/>
			<path d="M22.5 121.11 L0 121.11 L0 134.61 L22.5 134.61 L22.5 121.11" class="st3"/>
			<text x="6.24" y="130.56" class="st2" v:langID="1033"><v:paragraph v:horizAlign="1"/><v:tabList/>1 0</text>		</g>
		<g id="shape133-69" v:mID="133" v:groupContext="shape" transform="translate(26.378,-92.3498)">
			<title>Sheet.133</title>
			<desc>0 0</desc>
			<v:textBlock v:margins="rect(0,0,0,0)"/>
			<v:textRect cx="11.561" cy="128.638" width="23.13" height="11.9384"/>
			<path d="M23.12 122.67 L0 122.67 L0 134.61 L23.12 134.61 L23.12 122.67" class="st3"/>
			<text x="6.56" y="131.34" class="st2" v:langID="1033"><v:paragraph v:horizAlign="1"/><v:tabList/>0 0</text>		</g>
		<g id="shape134-73" v:mID="134" v:groupContext="shape" transform="translate(26.378,-69.9756)">
			<title>Sheet.134</title>
			<desc>0 1</desc>
			<v:textBlock v:margins="rect(0,0,0,0)"/>
			<v:textRect cx="11.561" cy="128.638" width="23.13" height="11.9384"/>
			<path d="M23.12 122.67 L0 122.67 L0 134.61 L23.12 134.61 L23.12 122.67" class="st3"/>
			<text x="6.56" y="131.34" class="st2" v:langID="1033"><v:paragraph v:horizAlign="1"/><v:tabList/>0 1</text>		</g>
		<g id="shape135-77" v:mID="135" v:groupContext="shape" transform="translate(26.378,-47.6939)">
			<title>Sheet.135</title>
			<desc>1 1</desc>
			<v:textBlock v:margins="rect(0,0,0,0)"/>
			<v:textRect cx="11.561" cy="128.638" width="23.13" height="11.9384"/>
			<path d="M23.12 122.67 L0 122.67 L0 134.61 L23.12 134.61 L23.12 122.67" class="st3"/>
			<text x="6.56" y="131.34" class="st2" v:langID="1033"><v:paragraph v:horizAlign="1"/><v:tabList/>1 1</text>		</g>
		<g id="shape136-81" v:mID="136" v:groupContext="shape" transform="translate(26.378,-25.1939)">
			<title>Sheet.136</title>
			<desc>1 0</desc>
			<v:textBlock v:margins="rect(0,0,0,0)"/>
			<v:textRect cx="11.561" cy="128.638" width="23.13" height="11.9384"/>
			<path d="M23.12 122.67 L0 122.67 L0 134.61 L23.12 134.61 L23.12 122.67" class="st3"/>
			<text x="6.56" y="131.34" class="st2" v:langID="1033"><v:paragraph v:horizAlign="1"/><v:tabList/>1 0</text>		</g>
		<g id="shape137-85" v:mID="137" v:groupContext="shape" transform="translate(-45.682,119.877) rotate(-135)">
			<title>Sheet.137</title>
			<path d="M0 134.61 L25.46 134.61" class="st5"/>
		</g>
		<g id="shape138-88" v:mID="138" v:groupContext="shape" transform="translate(18,-106.802)">
			<title>Sheet.138</title>
			<desc>A B</desc>
			<v:textBlock v:margins="rect(0,0,0,0)"/>
			<v:textRect cx="11.25" cy="127.427" width="22.5" height="14.3612"/>
			<path d="M22.5 120.25 L0 120.25 L0 134.61 L22.5 134.61 L22.5 120.25" class="st3"/>
			<text x="4.58" y="130.43" class="st4" v:langID="1033"><v:paragraph v:horizAlign="1"/><v:tabList/>A B</text>		</g>
		<g id="shape141-92" v:mID="141" v:groupContext="shape" transform="translate(97.875,-48.0381)">
			<title>Rounded rectangle.141</title>
			<v:userDefs>
				<v:ud v:nameU="visVersion" v:val="VT0(11):26"/>
			</v:userDefs>
			<path d="M6.75 134.61 A6.75005 6.75005 -180 0 0 13.5 127.86 L13.5 105.36 A6.75005 6.75005 -180 0 0 6.75 98.61 A6.75005
						 6.75005 -180 0 0 0 105.36 L0 127.86 A6.75005 6.75005 -180 0 0 6.75 134.61 Z" class="st6"/>
		</g>
		<g id="shape142-94" v:mID="142" v:groupContext="shape" transform="translate(99.5625,-48.0381)">
			<title>Rounded rectangle.142</title>
			<v:userDefs>
				<v:ud v:nameU="visVersion" v:val="VT0(11):26"/>
			</v:userDefs>
			<path d="M28.69 134.61 A6.18755 6.18755 -180 0 0 34.87 128.42 A6.18755 6.18755 -180 0 0 28.69 122.23 L6.19 122.23 A6.18755
						 6.18755 -180 0 0 -0 128.42 A6.18755 6.18755 -180 0 0 6.19 134.61 L28.69 134.61 Z" class="st7"/>
		</g>
		<g id="shape143-96" v:mID="143" v:groupContext="shape" transform="translate(76.5,-46.9131)">
			<title>Rounded rectangle.143</title>
			<v:userDefs>
				<v:ud v:nameU="visVersion" v:val="VT0(11):26"/>
			</v:userDefs>
			<path d="M28.12 134.61 A6.75005 6.75005 -180 0 0 34.87 127.86 A6.75005 6.75005 -180 0 0 28.12 121.11 L6.75 121.11 A6.75005
						 6.75005 -180 0 0 0 127.86 A6.75005 6.75005 -180 0 0 6.75 134.61 L28.12 134.61 Z" class="st8"/>
		</g>
		<g id="shape144-98" v:mID="144" v:groupContext="shape" transform="translate(101.25,-24.4131)">
			<title>Rounded rectangle.144</title>
			<v:userDefs>
				<v:ud v:nameU="visVersion" v:val="VT0(11):26"/>
			</v:userDefs>
			<path d="M5.06 134.61 A5.06254 5.06254 -180 0 0 10.12 129.55 L10.12 103.67 A5.06254 5.06254 -180 0 0 5.06 98.61 A5.06254
						 5.06254 -180 0 0 -0 103.67 L0 129.55 A5.06254 5.06254 -180 0 0 5.06 134.61 Z" class="st9"/>
		</g>
		<g id="shape149-100" v:mID="149" v:groupContext="shape" transform="translate(104.625,-1.35063)">
			<title>Sheet.149</title>
			<desc>A∙C∙D</desc>
			<v:textBlock v:margins="rect(0,0,0,0)"/>
			<v:textRect cx="17.4375" cy="129.958" width="34.88" height="9.29869"/>
			<rect x="0" y="125.309" width="34.875" height="9.29869" class="st10"/>
			<text x="3.83" y="132.96" class="st11" v:langID="1033"><v:paragraph v:horizAlign="1"/><v:tabList/>A∙C∙D</text>		</g>
		<g id="shape150-103" v:mID="150" v:groupContext="shape" transform="translate(-8.60765,122.833) rotate(-90)">
			<title>Sheet.150</title>
			<path d="M0 134.61 L2.49 134.61 C5.34 135.06 10.14 131.71 13.7 126.2 L13.86 125.88" class="st12"/>
		</g>
		<g id="shape151-109" v:mID="151" v:groupContext="shape" transform="translate(65.8125,-5.85063)">
			<title>Sheet.151</title>
			<desc>A∙B∙D</desc>
			<v:textBlock v:margins="rect(0,0,0,0)"/>
			<v:textRect cx="17.4375" cy="126.839" width="34.88" height="15.5365"/>
			<rect x="0" y="119.071" width="34.875" height="15.5365" class="st10"/>
			<text x="3.83" y="129.84" class="st11" v:langID="1033"><v:paragraph v:horizAlign="1"/><v:tabList/>A∙B∙D</text>		</g>
		<g id="shape152-112" v:mID="152" v:groupContext="shape" transform="translate(206.045,116.04) rotate(90) scale(-1,1)">
			<title>Sheet.152</title>
			<path d="M0 134.61 L4.17 134.61 C8.73 134.81 16.32 133.4 22.17 131.04 L22.49 130.88" class="st14"/>
		</g>
		<g id="shape153-118" v:mID="153" v:groupContext="shape" transform="translate(140.625,-73.6493)">
			<title>Sheet.153</title>
			<desc>A∙B∙C</desc>
			<v:textBlock v:margins="rect(0,0,0,0)"/>
			<v:textRect cx="17.4375" cy="129.958" width="34.88" height="9.29869"/>
			<rect x="0" y="125.309" width="34.875" height="9.29869" class="st10"/>
			<text x="3.83" y="132.96" class="st11" v:langID="1033"><v:paragraph v:horizAlign="1"/><v:tabList/>A∙B∙C</text>		</g>
		<g id="shape154-121" v:mID="154" v:groupContext="shape" transform="translate(13.8924,60.9583) rotate(-90) scale(-1,1)">
			<title>Sheet.154</title>
			<path d="M0 134.61 L2.49 134.61 C5.34 135.06 10.14 131.71 13.7 126.2 L13.86 125.88" class="st16"/>
		</g>
		<g id="shape155-127" v:mID="155" v:groupContext="shape" transform="translate(8.79297E-014,-82.0868)">
			<title>Sheet.155</title>
			<desc>B∙C∙D</desc>
			<v:textBlock v:margins="rect(0,0,0,0)"/>
			<v:textRect cx="19.6731" cy="129.958" width="39.35" height="9.29869"/>
			<rect x="0" y="125.309" width="39.3462" height="9.29869" class="st10"/>
			<text x="6.06" y="132.96" class="st11" v:langID="1033"><v:paragraph v:horizAlign="1"/><v:tabList/>B∙C∙D</text>		</g>
		<g id="shape156-130" v:mID="156" v:groupContext="shape" transform="translate(36.2378,180.927) scale(1,-1)">
			<title>Sheet.156</title>
			<path d="M0 134.61 L9.59 134.61 C21.81 134.84 43.37 132.9 57.22 129.83 L57.57 129.75" class="st18"/>
		</g>
	</g>
</svg>
