<?xml version="1.0" encoding="UTF-8" standalone="no"?>
<!DOCTYPE svg PUBLIC "-//W3C//DTD SVG 1.1//EN" "http://www.w3.org/Graphics/SVG/1.1/DTD/svg11.dtd">
<!-- Generated by Microsoft Visio, SVG Export half.svg Page-1 -->
<svg xmlns="http://www.w3.org/2000/svg" xmlns:xlink="http://www.w3.org/1999/xlink" xmlns:ev="http://www.w3.org/2001/xml-events"
		xmlns:v="http://schemas.microsoft.com/visio/2003/SVGExtensions/" width="1.5in" height="0.758544in"
		viewBox="0 0 108 54.6152" xml:space="preserve" color-interpolation-filters="sRGB" class="st6">
	<v:documentProperties v:langID="1033" v:viewMarkup="false">
		<v:userDefs>
			<v:ud v:nameU="msvConvertTheme"/>
		</v:userDefs>
	</v:documentProperties>

	<style type="text/css">
	<![CDATA[
		.st1 {stroke:none;stroke-linecap:round;stroke-linejoin:round;stroke-width:0.75}
		.st2 {fill:#000000;font-family:Arial;font-size:0.833336em}
		.st3 {marker-end:url(#mrkr4-14);stroke:#000000;stroke-linecap:round;stroke-linejoin:round;stroke-width:0.72}
		.st4 {fill:#000000;fill-opacity:1;stroke:#000000;stroke-opacity:1;stroke-width:0.22222222222222}
		.st5 {fill:#b7ccf7;stroke:none;stroke-linecap:round;stroke-linejoin:round;stroke-width:0.24}
		.st6 {fill:none;fill-rule:evenodd;font-size:12px;overflow:visible;stroke-linecap:square;stroke-miterlimit:3}
	]]>
	</style>

	<defs id="Markers">
		<g id="lend4">
			<path d="M 2 1 L 0 0 L 2 -1 L 2 1 " style="stroke:none"/>
		</g>
		<marker id="mrkr4-14" class="st4" v:arrowType="4" v:arrowSize="2" v:setback="9" refX="-9" orient="auto"
				markerUnits="strokeWidth" overflow="visible">
			<use xlink:href="#lend4" transform="scale(-4.5,-4.5) "/>
		</marker>
	</defs>
	<g v:mID="0" v:index="1" v:groupContext="foregroundPage">
		<title>Page-1</title>
		<v:pageProperties v:drawingScale="1" v:pageScale="1" v:drawingUnits="19" v:shadowOffsetX="9" v:shadowOffsetY="-9"/>
		<g id="shape57-1" v:mID="57" v:groupContext="shape" transform="translate(0,-40.8752)">
			<title>Sheet.57</title>
			<desc>A</desc>
			<v:textBlock v:margins="rect(0,0,0,0)"/>
			<v:textRect cx="11.25" cy="50.1152" width="22.5" height="9"/>
			<path d="M22.5 45.62 L0 45.62 L0 54.62 L22.5 54.62 L22.5 45.62" class="st1"/>
			<text x="15.83" y="53.12" class="st2" v:langID="1033"><v:paragraph v:horizAlign="2"/><v:tabList/>A</text>		</g>
		<g id="shape76-5" v:mID="76" v:groupContext="shape" transform="translate(0,-22.8752)">
			<title>Sheet.76</title>
			<desc>B</desc>
			<v:textBlock v:margins="rect(0,0,0,0)"/>
			<v:textRect cx="11.25" cy="50.1152" width="22.5" height="9"/>
			<path d="M22.5 45.62 L0 45.62 L0 54.62 L22.5 54.62 L22.5 45.62" class="st1"/>
			<text x="15.83" y="53.12" class="st2" v:langID="1033"><v:paragraph v:horizAlign="2"/><v:tabList/>B</text>		</g>
		<g id="shape78-9" v:mID="78" v:groupContext="shape" transform="translate(27,-45.3752)">
			<title>Sheet.78</title>
			<path d="M0 54.62 L4.5 54.62 L7.02 54.62" class="st3"/>
		</g>
		<g id="shape79-15" v:mID="79" v:groupContext="shape" transform="translate(27,-27.3752)">
			<title>Sheet.79</title>
			<path d="M0 54.62 L4.5 54.62 L7.02 54.62" class="st3"/>
		</g>
		<g id="shape81-20" v:mID="81" v:groupContext="shape" transform="translate(67.5,-45.3752)">
			<title>Sheet.81</title>
			<path d="M0 54.62 L4.5 54.62 L7.02 54.62" class="st3"/>
		</g>
		<g id="shape82-25" v:mID="82" v:groupContext="shape" transform="translate(85.5,-40.8752)">
			<title>Sheet.82</title>
			<desc>Sum</desc>
			<v:textBlock v:margins="rect(0,0,0,0)"/>
			<v:textRect cx="11.25" cy="50.1152" width="22.5" height="9"/>
			<path d="M22.5 45.62 L0 45.62 L0 54.62 L22.5 54.62 L22.5 45.62" class="st1"/>
			<text x="0" y="53.12" class="st2" v:langID="1033"><v:paragraph/><v:tabList/>Sum</text>		</g>
		<g id="shape83-29" v:mID="83" v:groupContext="shape" transform="translate(67.5,-27.3752)">
			<title>Sheet.83</title>
			<path d="M0 54.62 L4.5 54.62 L7.02 54.62" class="st3"/>
		</g>
		<g id="shape84-34" v:mID="84" v:groupContext="shape" transform="translate(85.5,-22.8752)">
			<title>Sheet.84</title>
			<desc>Cout</desc>
			<v:textBlock v:margins="rect(0,0,0,0)"/>
			<v:textRect cx="11.25" cy="50.1152" width="22.5" height="9"/>
			<path d="M22.5 45.62 L0 45.62 L0 54.62 L22.5 54.62 L22.5 45.62" class="st1"/>
			<text x="0" y="53.12" class="st2" v:langID="1033"><v:paragraph/><v:tabList/>Cout</text>		</g>
		<g id="shape85-38" v:mID="85" v:groupContext="shape" transform="translate(27,-1.50018)">
			<title>Sheet.85</title>
			<desc>Half Adder</desc>
			<v:textBlock v:margins="rect(0,0,0,0)"/>
			<v:textRect cx="31.5" cy="50.1152" width="63" height="9"/>
			<path d="M63 45.62 L0 45.62 L0 54.62 L63 54.62 L63 45.62" class="st1"/>
			<text x="7.88" y="53.12" class="st2" v:langID="1033"><v:paragraph v:horizAlign="1"/><v:tabList/>Half Adder</text>		</g>
		<g id="shape86-42" v:mID="86" v:groupContext="shape" transform="translate(40.5,-15.0002)">
			<title>Rectangle.86</title>
			<v:userDefs>
				<v:ud v:nameU="visVersion" v:val="VT0(11):26"/>
			</v:userDefs>
			<rect x="0" y="15.2402" width="27" height="39.375" class="st5"/>
		</g>
	</g>
</svg>
