<?xml version="1.0" encoding="UTF-8" standalone="no"?>
<!DOCTYPE svg PUBLIC "-//W3C//DTD SVG 1.1//EN" "http://www.w3.org/Graphics/SVG/1.1/DTD/svg11.dtd">
<!-- Generated by Microsoft Visio, SVG Export DLatch.svg Page-1 -->
<svg xmlns="http://www.w3.org/2000/svg" xmlns:xlink="http://www.w3.org/1999/xlink" xmlns:ev="http://www.w3.org/2001/xml-events"
		xmlns:v="http://schemas.microsoft.com/visio/2003/SVGExtensions/" width="3.885in" height="1.0725in"
		viewBox="0 0 279.72 77.22" xml:space="preserve" color-interpolation-filters="sRGB" class="st9">
	<v:documentProperties v:langID="1033" v:viewMarkup="false"/>

	<style type="text/css">
	<![CDATA[
		.st1 {fill:#ffffff;stroke:#000000;stroke-linecap:round;stroke-linejoin:round;stroke-width:0.72}
		.st2 {stroke:#000000;stroke-linecap:round;stroke-linejoin:round;stroke-width:0.72}
		.st3 {fill:none;stroke:none;stroke-linecap:round;stroke-linejoin:round;stroke-width:0.72}
		.st4 {fill:#000000;font-family:Arial;font-size:0.833336em}
		.st5 {fill:#ffffff;stroke:#000000;stroke-linecap:round;stroke-linejoin:round;stroke-width:0.24}
		.st6 {fill:#d5e1fb;stroke:#000000;stroke-linecap:round;stroke-linejoin:round;stroke-width:0.24}
		.st7 {fill:none;stroke:none;stroke-linecap:round;stroke-linejoin:round;stroke-width:0.75}
		.st8 {fill:#ff0000;font-family:Calibri;font-size:0.75em}
		.st9 {fill:none;fill-rule:evenodd;font-size:12px;overflow:visible;stroke-linecap:square;stroke-miterlimit:3}
	]]>
	</style>

	<g v:mID="0" v:index="1" v:groupContext="foregroundPage">
		<title>Page-1</title>
		<v:pageProperties v:drawingScale="1" v:pageScale="1" v:drawingUnits="19" v:shadowOffsetX="9" v:shadowOffsetY="-9"/>
		<g id="shape1-1" v:mID="1" v:groupContext="shape" transform="translate(92.61,-52.11)">
			<title>Circle.188</title>
			<path d="M0 74.97 A2.25 2.25 0 0 1 4.5 74.97 A2.25 2.25 0 1 1 0 74.97 Z" class="st1"/>
		</g>
		<g id="shape2-3" v:mID="2" v:groupContext="shape" transform="translate(92.61,-61.11)">
			<title>Circle.189</title>
			<path d="M0 74.97 A2.25 2.25 0 0 1 4.5 74.97 A2.25 2.25 0 1 1 0 74.97 Z" class="st1"/>
		</g>
		<g id="shape3-5" v:mID="3" v:groupContext="shape" transform="translate(118.485,-20.61)">
			<title>Circle.190</title>
			<path d="M0 74.97 A2.25 2.25 0 0 1 4.5 74.97 A2.25 2.25 0 1 1 0 74.97 Z" class="st1"/>
		</g>
		<g id="shape4-7" v:mID="4" v:groupContext="shape" transform="translate(118.485,-58.86)">
			<title>Sheet.4</title>
			<path d="M0 77.22 L27 77.22" class="st2"/>
		</g>
		<g id="shape5-10" v:mID="5" v:groupContext="shape" transform="translate(92.61,91.08) rotate(180)">
			<title>Sheet.5</title>
			<path d="M0 77.22 L14.62 77.22" class="st2"/>
		</g>
		<g id="shape6-13" v:mID="6" v:groupContext="shape" transform="translate(86.985,-27.36)">
			<title>Sheet.6</title>
			<path d="M45 45.72 L45 54.72 L0 68.22 L0 77.22 L9 77.22" class="st2"/>
		</g>
		<g id="shape7-16" v:mID="7" v:groupContext="shape" transform="translate(122.985,-22.86)">
			<title>Sheet.7</title>
			<path d="M0 77.22 L22.5 77.22" class="st2"/>
		</g>
		<g id="shape8-19" v:mID="8" v:groupContext="shape" transform="translate(86.985,-22.86)">
			<title>Sheet.8</title>
			<path d="M45 77.22 L45 68.22 L0 54.72 L0 45.72" class="st2"/>
		</g>
		<g id="shape9-22" v:mID="9" v:groupContext="shape" transform="translate(95.985,136.08) rotate(180)">
			<title>Sheet.9</title>
			<path d="M0 77.22 L18 77.22" class="st2"/>
		</g>
		<g id="shape10-25" v:mID="10" v:groupContext="shape" transform="translate(145.485,-54.36)">
			<title>Sheet.10</title>
			<desc>Q</desc>
			<v:textBlock v:margins="rect(4,4,4,4)"/>
			<v:textRect cx="7.3125" cy="72.72" width="14.63" height="9"/>
			<rect x="0" y="68.22" width="14.625" height="9" class="st3"/>
			<text x="4" y="75.72" class="st4" v:langID="1033"><v:paragraph v:horizAlign="1"/><v:tabList/>Q</text>		</g>
		<g id="shape11-28" v:mID="11" v:groupContext="shape" transform="translate(145.485,-18.36)">
			<title>Sheet.11</title>
			<desc>QN</desc>
			<v:textBlock v:margins="rect(4,4,4,4)"/>
			<v:textRect cx="12.9375" cy="72.72" width="25.88" height="9"/>
			<rect x="0" y="68.22" width="25.875" height="9" class="st3"/>
			<text x="5.44" y="75.72" class="st4" v:langID="1033"><v:paragraph v:horizAlign="1"/><v:tabList/>QN</text>		</g>
		<g id="shape12-31" v:mID="12" v:groupContext="shape" transform="translate(0.36,-31.86)">
			<title>Sheet.12</title>
			<desc>G</desc>
			<v:textBlock v:margins="rect(4,4,4,4)"/>
			<v:textRect cx="7.3125" cy="68.22" width="14.63" height="18"/>
			<rect x="0" y="59.22" width="14.625" height="18" class="st3"/>
			<text x="4" y="71.22" class="st4" v:langID="1033"><v:paragraph v:horizAlign="1"/><v:tabList/>G</text>		</g>
		<g id="shape13-34" v:mID="13" v:groupContext="shape" transform="translate(86.985,-54.36)">
			<title>Sheet.13</title>
			<path d="M0 77.22 L5.62 77.22" class="st2"/>
		</g>
		<g id="shape14-37" v:mID="14" v:groupContext="shape" transform="translate(95.8927,86.58) scale(1,-1)">
			<title>Sheet.14</title>
			<path d="M0 59.22 L0.91 61.65 L1.52 64.28 L1.82 66.91 L1.82 69.53 L1.52 72.16 L0.91 74.69 L0 77.22 L9.83 77.22 L12.06
						 76.71 L14.18 75.91 L16.31 74.79 L18.13 73.48 L19.86 71.86 L21.28 70.14 L22.59 68.22 L21.28 66.2 L19.86 64.48
						 L18.13 62.86 L16.31 61.55 L14.18 60.53 L12.06 59.73 L9.83 59.22 L0 59.22 Z" class="st1"/>
		</g>
		<g id="shape15-39" v:mID="15" v:groupContext="shape" transform="translate(95.985,-13.86)">
			<title>Sheet.15</title>
			<path d="M0 59.22 L13.75 59.22 A8.75 9 0 0 1 22.5 68.22 A7.5 9 0 0 1 15 77.22 L0 77.22 L0 59.22 Z" class="st1"/>
		</g>
		<g id="shape16-41" v:mID="16" v:groupContext="shape" transform="translate(131.704,-58.2975)">
			<title>Circle.203</title>
			<path d="M0 76.66 a0.5625 0.5625 0 0 1 1.125 0 a0.5625 0.5625 0 1 1 -1.125 0 Z" class="st1"/>
		</g>
		<g id="shape17-43" v:mID="17" v:groupContext="shape" transform="translate(131.141,-22.2975)">
			<title>Circle.204</title>
			<path d="M0 76.66 a0.5625 0.5625 0 0 1 1.125 0 a0.5625 0.5625 0 1 1 -1.125 0 Z" class="st1"/>
		</g>
		<g id="shape18-45" v:mID="18" v:groupContext="shape" transform="translate(73.485,-61.11)">
			<title>Circle.205</title>
			<path d="M0 74.97 A2.25 2.25 0 0 1 4.5 74.97 A2.25 2.25 0 1 1 0 74.97 Z" class="st1"/>
		</g>
		<g id="shape19-47" v:mID="19" v:groupContext="shape" transform="translate(50.985,-54.36)">
			<title>Sheet.19</title>
			<path d="M0 59.22 L13.75 59.22 A8.75 9 0 0 1 22.5 68.22 A7.5 9 0 0 1 15 77.22 L0 77.22 L0 59.22 Z" class="st1"/>
		</g>
		<g id="shape20-49" v:mID="20" v:groupContext="shape" transform="translate(73.485,-16.11)">
			<title>Circle.207</title>
			<path d="M0 74.97 A2.25 2.25 0 0 1 4.5 74.97 A2.25 2.25 0 1 1 0 74.97 Z" class="st1"/>
		</g>
		<g id="shape21-51" v:mID="21" v:groupContext="shape" transform="translate(50.985,-9.36)">
			<title>Sheet.21</title>
			<path d="M0 59.22 L13.75 59.22 A8.75 9 0 0 1 22.5 68.22 A7.5 9 0 0 1 15 77.22 L0 77.22 L0 59.22 Z" class="st1"/>
		</g>
		<g id="shape22-53" v:mID="22" v:groupContext="shape" transform="translate(41.985,-22.86)">
			<title>Sheet.22</title>
			<path d="M9 41.22 L0 41.22 L0 77.22 L9 77.22" class="st2"/>
		</g>
		<g id="shape23-56" v:mID="23" v:groupContext="shape" transform="translate(41.985,113.58) rotate(180)">
			<title>Sheet.23</title>
			<path d="M0 77.22 L27 77.22" class="st2"/>
		</g>
		<g id="shape24-59" v:mID="24" v:groupContext="shape" transform="translate(77.985,-0.36)">
			<title>Sheet.24</title>
			<desc>R</desc>
			<v:textBlock v:margins="rect(4,4,4,4)"/>
			<v:textRect cx="7.3125" cy="68.22" width="14.63" height="18"/>
			<rect x="0" y="59.22" width="14.625" height="18" class="st3"/>
			<text x="4" y="71.22" class="st4" v:langID="1033"><v:paragraph v:horizAlign="1"/><v:tabList/>R</text>		</g>
		<g id="shape25-62" v:mID="25" v:groupContext="shape" transform="translate(50.985,86.58) rotate(180)">
			<title>Sheet.25</title>
			<path d="M0 77.22 L36 77.22" class="st2"/>
		</g>
		<g id="shape26-65" v:mID="26" v:groupContext="shape" transform="translate(101.205,9.36) rotate(90)">
			<title>Sheet.26</title>
			<path d="M0 77.22 L54 77.22" class="st2"/>
		</g>
		<g id="shape27-68" v:mID="27" v:groupContext="shape" transform="translate(23.985,-13.86)">
			<title>Sheet.27</title>
			<path d="M0 77.22 L9 77.22" class="st2"/>
		</g>
		<g id="shape28-71" v:mID="28" v:groupContext="shape" transform="translate(41.985,-13.86)">
			<title>Sheet.28</title>
			<path d="M0 77.22 L9 77.22" class="st2"/>
		</g>
		<g id="shape29-74" v:mID="29" v:groupContext="shape" transform="translate(29.911,133.83) scale(1,-1)">
			<title>Sheet.29</title>
			<path d="M0 63.72 L0 77.22 L11.72 70.38 L0 63.72 ZM11.72 70.38 L12.08 71.46 L12.98 72 L13.89 72 L14.79 71.46 L15.15 70.38
						 L14.79 69.48 L13.89 68.76 L12.98 68.76 L12.08 69.48 L11.72 70.38 Z" class="st1"/>
		</g>
		<g id="shape30-76" v:mID="30" v:groupContext="shape" transform="translate(23.4225,-67.2975)">
			<title>Circle.217</title>
			<path d="M0 76.66 a0.5625 0.5625 0 0 1 1.125 0 a0.5625 0.5625 0 1 1 -1.125 0 Z" class="st1"/>
		</g>
		<g id="shape31-78" v:mID="31" v:groupContext="shape" transform="translate(0.36,-58.86)">
			<title>Sheet.31</title>
			<desc>D</desc>
			<v:textBlock v:margins="rect(4,4,4,4)"/>
			<v:textRect cx="7.3125" cy="68.22" width="14.63" height="18"/>
			<rect x="0" y="59.22" width="14.625" height="18" class="st3"/>
			<text x="4" y="71.22" class="st4" v:langID="1033"><v:paragraph v:horizAlign="1"/><v:tabList/>D</text>		</g>
		<g id="shape32-81" v:mID="32" v:groupContext="shape" transform="translate(207.36,-31.86) scale(-1,1)">
			<title>60 degree single.228</title>
			<path d="M0 68.22 L5.2 59.22 L5.2 65.16 L18 65.16 L18 71.28 L5.2 71.28 L5.2 77.22 L0 68.22 Z" class="st5"/>
		</g>
		<g id="shape33-83" v:mID="33" v:groupContext="shape" transform="translate(234.36,-20.61)">
			<title>Rectangle.221</title>
			<rect x="0" y="34.47" width="36" height="42.75" class="st6"/>
		</g>
		<g id="shape34-85" v:mID="34" v:groupContext="shape" transform="translate(234.36,102.33) rotate(180)">
			<title>Sheet.34</title>
			<path d="M0 77.22 L9 77.22" class="st2"/>
		</g>
		<g id="shape35-88" v:mID="35" v:groupContext="shape" transform="translate(232.672,-47.61)">
			<title>Sheet.35</title>
			<desc>D</desc>
			<v:textBlock v:margins="rect(4,4,4,4)"/>
			<v:textRect cx="7.3125" cy="72.72" width="14.63" height="9"/>
			<rect x="0" y="68.22" width="14.625" height="9" class="st3"/>
			<text x="4" y="75.72" class="st4" v:langID="1033"><v:paragraph/><v:tabList/>D</text>		</g>
		<g id="shape36-91" v:mID="36" v:groupContext="shape" transform="translate(234.36,124.83) rotate(180)">
			<title>Sheet.36</title>
			<path d="M0 77.22 L9 77.22" class="st2"/>
		</g>
		<g id="shape37-94" v:mID="37" v:groupContext="shape" transform="translate(232.672,-25.11)">
			<title>Sheet.37</title>
			<desc>G</desc>
			<v:textBlock v:margins="rect(4,4,4,4)"/>
			<v:textRect cx="7.3125" cy="72.72" width="14.63" height="9"/>
			<rect x="0" y="68.22" width="14.625" height="9" class="st3"/>
			<text x="4" y="75.72" class="st4" v:langID="1033"><v:paragraph/><v:tabList/>G</text>		</g>
		<g id="shape38-97" v:mID="38" v:groupContext="shape" transform="translate(279.36,102.33) rotate(180)">
			<title>Sheet.38</title>
			<path d="M0 77.22 L9 77.22" class="st2"/>
		</g>
		<g id="shape39-100" v:mID="39" v:groupContext="shape" transform="translate(256.298,-47.61)">
			<title>Sheet.39</title>
			<desc>Q</desc>
			<v:textBlock v:margins="rect(4,4,4,4)"/>
			<v:textRect cx="7.875" cy="72.72" width="15.75" height="9"/>
			<rect x="0" y="68.22" width="15.75" height="9" class="st3"/>
			<text x="4" y="75.72" class="st4" v:langID="1033"><v:paragraph v:horizAlign="2"/><v:tabList/>Q</text>		</g>
		<g id="shape40-103" v:mID="40" v:groupContext="shape" transform="translate(247.86,-25.11)">
			<title>Sheet.40</title>
			<desc>QN</desc>
			<v:textBlock v:margins="rect(4,4,4,4)"/>
			<v:textRect cx="12.375" cy="72.72" width="24.75" height="9"/>
			<rect x="0" y="68.22" width="24.75" height="9" class="st3"/>
			<text x="5.75" y="75.72" class="st4" v:langID="1033"><v:paragraph v:horizAlign="2"/><v:tabList/>QN</text>		</g>
		<g id="shape41-106" v:mID="41" v:groupContext="shape" transform="translate(279.36,124.83) rotate(180)">
			<title>Sheet.41</title>
			<path d="M0 77.22 L9 77.22" class="st2"/>
		</g>
		<g id="shape42-109" v:mID="42" v:groupContext="shape" transform="translate(270.36,-27.36)">
			<title>Circle.333</title>
			<path d="M0 74.97 A2.25 2.25 0 0 1 4.5 74.97 A2.25 2.25 0 1 1 0 74.97 Z" class="st1"/>
		</g>
		<g id="shape43-111" v:mID="43" v:groupContext="shape" transform="translate(50.985,-59.6264)">
			<title>Sheet.43</title>
			<desc>1ns</desc>
			<v:textBlock v:margins="rect(4,4,4,4)"/>
			<v:textRect cx="11.25" cy="73.4864" width="22.5" height="7.46711"/>
			<rect x="0" y="69.7529" width="22.5" height="7.46711" class="st7"/>
			<text x="4.84" y="76.19" class="st8" v:langID="2052"><v:paragraph v:horizAlign="1"/><v:tabList/>1ns</text>		</g>
		<g id="shape44-114" v:mID="44" v:groupContext="shape" transform="translate(95.8927,-55.1264)">
			<title>Sheet.44</title>
			<desc>1ns</desc>
			<v:textBlock v:margins="rect(4,4,4,4)"/>
			<v:textRect cx="11.25" cy="73.4864" width="22.5" height="7.46711"/>
			<rect x="0" y="69.7529" width="22.5" height="7.46711" class="st7"/>
			<text x="4.84" y="76.19" class="st8" v:langID="2052"><v:paragraph v:horizAlign="1"/><v:tabList/>1ns</text>		</g>
		<g id="shape45-117" v:mID="45" v:groupContext="shape" transform="translate(95.985,-19.1264)">
			<title>Sheet.45</title>
			<desc>1ns</desc>
			<v:textBlock v:margins="rect(4,4,4,4)"/>
			<v:textRect cx="11.25" cy="73.4864" width="22.5" height="7.46711"/>
			<rect x="0" y="69.7529" width="22.5" height="7.46711" class="st7"/>
			<text x="4.84" y="76.19" class="st8" v:langID="2052"><v:paragraph v:horizAlign="1"/><v:tabList/>1ns</text>		</g>
		<g id="shape46-120" v:mID="46" v:groupContext="shape" transform="translate(50.985,-14.6264)">
			<title>Sheet.46</title>
			<desc>1ns</desc>
			<v:textBlock v:margins="rect(4,4,4,4)"/>
			<v:textRect cx="11.25" cy="73.4864" width="22.5" height="7.46711"/>
			<rect x="0" y="69.7529" width="22.5" height="7.46711" class="st7"/>
			<text x="4.84" y="76.19" class="st8" v:langID="2052"><v:paragraph v:horizAlign="1"/><v:tabList/>1ns</text>		</g>
		<g id="shape47-123" v:mID="47" v:groupContext="shape" transform="translate(22.559,-20.4554)">
			<title>Sheet.47</title>
			<desc>1ns</desc>
			<v:textBlock v:margins="rect(4,4,4,4)"/>
			<v:textRect cx="11.25" cy="73.4864" width="22.5" height="7.46711"/>
			<rect x="0" y="69.7529" width="22.5" height="7.46711" class="st7"/>
			<text x="4.84" y="76.19" class="st8" v:langID="2052"><v:paragraph v:horizAlign="1"/><v:tabList/>1ns</text>		</g>
	</g>
</svg>
