<?xml version="1.0" encoding="UTF-8" standalone="no"?>
<!DOCTYPE svg PUBLIC "-//W3C//DTD SVG 1.1//EN" "http://www.w3.org/Graphics/SVG/1.1/DTD/svg11.dtd">
<!-- Generated by Microsoft Visio, SVG Export ALU.svg Page-1 -->
<svg xmlns="http://www.w3.org/2000/svg" xmlns:xlink="http://www.w3.org/1999/xlink" xmlns:ev="http://www.w3.org/2001/xml-events"
		xmlns:v="http://schemas.microsoft.com/visio/2003/SVGExtensions/" width="2.51563in" height="1.58854in"
		viewBox="0 0 181.125 114.375" xml:space="preserve" color-interpolation-filters="sRGB" class="st10">
	<v:documentProperties v:langID="1033" v:viewMarkup="false"/>

	<style type="text/css">
	<![CDATA[
		.st1 {fill:#fddeb0;stroke:none;stroke-linecap:round;stroke-linejoin:round;stroke-width:0.24}
		.st2 {stroke:none;stroke-linecap:round;stroke-linejoin:round;stroke-width:0.75}
		.st3 {fill:#000000;font-family:Arial;font-size:0.833336em}
		.st4 {marker-end:url(#mrkr4-20);stroke:#000000;stroke-linecap:round;stroke-linejoin:round;stroke-width:1.2}
		.st5 {fill:#000000;fill-opacity:1;stroke:#000000;stroke-opacity:1;stroke-width:0.32258064516129}
		.st6 {stroke:#000000;stroke-linecap:round;stroke-linejoin:round;stroke-width:0.72}
		.st7 {font-size:1em}
		.st8 {marker-end:url(#mrkr4-66);stroke:#000000;stroke-linecap:round;stroke-linejoin:round;stroke-width:0.72}
		.st9 {fill:#000000;fill-opacity:1;stroke:#000000;stroke-opacity:1;stroke-width:0.22222222222222}
		.st10 {fill:none;fill-rule:evenodd;font-size:12px;overflow:visible;stroke-linecap:square;stroke-miterlimit:3}
	]]>
	</style>

	<defs id="Markers">
		<g id="lend4">
			<path d="M 2 1 L 0 0 L 2 -1 L 2 1 " style="stroke:none"/>
		</g>
		<marker id="mrkr4-20" class="st5" v:arrowType="4" v:arrowSize="2" v:setback="6.2" refX="-6.2" orient="auto"
				markerUnits="strokeWidth" overflow="visible">
			<use xlink:href="#lend4" transform="scale(-3.1,-3.1) "/>
		</marker>
		<marker id="mrkr4-66" class="st9" v:arrowType="4" v:arrowSize="2" v:setback="9" refX="-9" orient="auto"
				markerUnits="strokeWidth" overflow="visible">
			<use xlink:href="#lend4" transform="scale(-4.5,-4.5) "/>
		</marker>
	</defs>
	<g v:mID="0" v:index="1" v:groupContext="foregroundPage">
		<title>Page-1</title>
		<v:pageProperties v:drawingScale="1" v:pageScale="1" v:drawingUnits="19" v:shadowOffsetX="9" v:shadowOffsetY="-9"/>
		<g id="shape1-1" v:mID="1" v:groupContext="shape" transform="translate(79.7067,-33.0002)">
			<title>Rectangle.248</title>
			<v:userDefs>
				<v:ud v:nameU="visVersion" v:val="VT0(11):26"/>
			</v:userDefs>
			<rect x="0" y="69.3751" width="72.1683" height="45" class="st1"/>
		</g>
		<g id="shape2-3" v:mID="2" v:groupContext="shape" transform="translate(88.875,-41.5528)">
			<title>Sheet.2</title>
			<desc>ALU</desc>
			<v:textBlock v:margins="rect(0,0,0,0)"/>
			<v:textRect cx="28.125" cy="98.1777" width="56.25" height="32.3948"/>
			<path d="M56.25 81.98 L0 81.98 L0 114.38 L56.25 114.38 L56.25 81.98" class="st2"/>
			<text x="18.4" y="101.18" class="st3" v:langID="1033"><v:paragraph v:horizAlign="1"/><v:tabList/>ALU</text>		</g>
		<g id="shape3-7" v:mID="3" v:groupContext="shape" transform="translate(113.625,-103.875)">
			<title>Sheet.3</title>
			<desc>A [N:0]</desc>
			<v:textBlock v:margins="rect(0,0,0,0)"/>
			<v:textRect cx="18" cy="109.875" width="36" height="9"/>
			<path d="M36 105.38 L0 105.38 L0 114.38 L36 114.38 L36 105.38" class="st2"/>
			<text x="5.43" y="112.88" class="st3" v:langID="1033"><v:paragraph v:horizAlign="2"/><v:tabList/>A [N:0]</text>		</g>
		<g id="shape4-11" v:mID="4" v:groupContext="shape" transform="translate(163.125,-57.7502)">
			<title>Sheet.4</title>
			<desc>Cin</desc>
			<v:textBlock v:margins="rect(0,0,0,0)"/>
			<v:textRect cx="9" cy="109.875" width="18" height="9"/>
			<path d="M18 105.38 L0 105.38 L0 114.38 L18 114.38 L18 105.38" class="st2"/>
			<text x="0" y="112.88" class="st3" v:langID="1033"><v:paragraph/><v:tabList/>Cin</text>		</g>
		<g id="shape5-15" v:mID="5" v:groupContext="shape" transform="translate(97.875,-78.0002)">
			<title>Sheet.5</title>
			<path d="M0 91.88 L0 106.94" class="st4"/>
		</g>
		<g id="shape6-21" v:mID="6" v:groupContext="shape" transform="translate(65.635,-88.0852) rotate(-14.0362)">
			<title>Sheet.6</title>
			<path d="M0 114.38 L9.28 114.38" class="st6"/>
		</g>
		<g id="shape7-24" v:mID="7" v:groupContext="shape" transform="translate(101.25,-89.2502)">
			<title>Sheet.7</title>
			<desc>N</desc>
			<v:textBlock v:margins="rect(0,0,0,0)"/>
			<v:textRect cx="4.5" cy="109.875" width="9" height="9"/>
			<path d="M9 105.38 L0 105.38 L0 114.38 L9 114.38 L9 105.38" class="st2"/>
			<text x="1.78" y="112.88" class="st3" v:langID="1033"><v:paragraph v:horizAlign="2"/><v:tabList/>N</text>		</g>
		<g id="shape8-28" v:mID="8" v:groupContext="shape" transform="translate(73.125,-103.875)">
			<title>Sheet.8</title>
			<desc>B [N:0]</desc>
			<v:textBlock v:margins="rect(0,0,0,0)"/>
			<v:textRect cx="18" cy="109.875" width="36" height="9"/>
			<path d="M36 105.38 L0 105.38 L0 114.38 L36 114.38 L36 105.38" class="st2"/>
			<text x="5.43" y="112.88" class="st3" v:langID="1033"><v:paragraph v:horizAlign="2"/><v:tabList/>B [N:0]</text>		</g>
		<g id="shape9-32" v:mID="9" v:groupContext="shape" transform="translate(55.125,-55.5002)">
			<title>Sheet.9</title>
			<path d="M0 114.38 L8.25 114.38 L17.31 114.38" class="st4"/>
		</g>
		<g id="shape10-37" v:mID="10" v:groupContext="shape" transform="translate(-40.4252,12.2248) rotate(-63.4349)">
			<title>Sheet.10</title>
			<path d="M0 114.38 L10.06 114.38" class="st6"/>
		</g>
		<g id="shape11-40" v:mID="11" v:groupContext="shape" transform="translate(56.25,-57.7502)">
			<title>Sheet.11</title>
			<desc>M</desc>
			<v:textBlock v:margins="rect(0,0,0,0)"/>
			<v:textRect cx="4.5" cy="109.875" width="9" height="9"/>
			<path d="M9 105.38 L0 105.38 L0 114.38 L9 114.38 L9 105.38" class="st2"/>
			<text x="0.67" y="112.88" class="st3" v:langID="1033"><v:paragraph v:horizAlign="2"/><v:tabList/>M</text>		</g>
		<g id="shape12-44" v:mID="12" v:groupContext="shape" transform="translate(133.875,-78.0002)">
			<title>Sheet.12</title>
			<path d="M0 91.88 L0 106.94" class="st4"/>
		</g>
		<g id="shape13-49" v:mID="13" v:groupContext="shape" transform="translate(101.635,-88.0852) rotate(-14.0362)">
			<title>Sheet.13</title>
			<path d="M0 114.38 L9.28 114.38" class="st6"/>
		</g>
		<g id="shape14-52" v:mID="14" v:groupContext="shape" transform="translate(137.25,-89.2502)">
			<title>Sheet.14</title>
			<desc>N</desc>
			<v:textBlock v:margins="rect(0,0,0,0)"/>
			<v:textRect cx="4.5" cy="109.875" width="9" height="9"/>
			<path d="M9 105.38 L0 105.38 L0 114.38 L9 114.38 L9 105.38" class="st2"/>
			<text x="1.78" y="112.88" class="st3" v:langID="1033"><v:paragraph v:horizAlign="2"/><v:tabList/>N</text>		</g>
		<g id="shape15-56" v:mID="15" v:groupContext="shape" transform="translate(-6.39488E-014,-51.0002)">
			<title>Sheet.15</title>
			<desc>OpCode [M-1..0]</desc>
			<v:textBlock v:margins="rect(0,0,0,0)"/>
			<v:textRect cx="26.4375" cy="109.875" width="52.88" height="9"/>
			<path d="M52.87 105.38 L0 105.38 L0 114.38 L52.87 114.38 L52.87 105.38" class="st2"/>
			<text x="15.63" y="106.88" class="st3" v:langID="1033"><v:paragraph v:horizAlign="2"/><v:tabList/>OpCode <tspan
						x="18.98" dy="1.2em" class="st7">[</tspan>M-1..0]</text>		</g>
		<g id="shape16-61" v:mID="16" v:groupContext="shape" transform="translate(169.875,-55.5002) scale(-1,1)">
			<title>Sheet.16</title>
			<path d="M0 114.38 L11.52 114.38" class="st8"/>
		</g>
		<g id="shape17-67" v:mID="17" v:groupContext="shape" transform="translate(114.75,-1.50018)">
			<title>Sheet.17</title>
			<desc>F [N:0]</desc>
			<v:textBlock v:margins="rect(0,0,0,0)"/>
			<v:textRect cx="18" cy="109.875" width="36" height="9"/>
			<path d="M36 105.38 L0 105.38 L0 114.38 L36 114.38 L36 105.38" class="st2"/>
			<text x="5.99" y="112.88" class="st3" v:langID="1033"><v:paragraph v:horizAlign="2"/><v:tabList/>F [N:0]</text>		</g>
		<g id="shape18-71" v:mID="18" v:groupContext="shape" transform="translate(133.875,-12.7502)">
			<title>Sheet.18</title>
			<path d="M0 94.13 L0 106.94" class="st4"/>
		</g>
		<g id="shape19-76" v:mID="19" v:groupContext="shape" transform="translate(101.635,-20.5852) rotate(-14.0362)">
			<title>Sheet.19</title>
			<path d="M0 114.38 L9.28 114.38" class="st6"/>
		</g>
		<g id="shape20-79" v:mID="20" v:groupContext="shape" transform="translate(137.25,-21.7502)">
			<title>Sheet.20</title>
			<desc>N</desc>
			<v:textBlock v:margins="rect(0,0,0,0)"/>
			<v:textRect cx="4.5" cy="109.875" width="9" height="9"/>
			<path d="M9 105.38 L0 105.38 L0 114.38 L9 114.38 L9 105.38" class="st2"/>
			<text x="1.78" y="112.88" class="st3" v:langID="1033"><v:paragraph v:horizAlign="2"/><v:tabList/>N</text>		</g>
		<g id="shape21-83" v:mID="21" v:groupContext="shape" transform="translate(85.5,-1.50018)">
			<title>Sheet.21</title>
			<desc>Cout</desc>
			<v:textBlock v:margins="rect(0,0,0,0)"/>
			<v:textRect cx="11.25" cy="109.875" width="22.5" height="9"/>
			<path d="M22.5 105.38 L0 105.38 L0 114.38 L22.5 114.38 L22.5 105.38" class="st2"/>
			<text x="0" y="112.88" class="st3" v:langID="1033"><v:paragraph/><v:tabList/>Cout</text>		</g>
		<g id="shape22-87" v:mID="22" v:groupContext="shape" transform="translate(-16.5001,81.3749) rotate(-90) scale(-1,1)">
			<title>Sheet.22</title>
			<path d="M0 114.38 L13.77 114.38" class="st8"/>
		</g>
	</g>
</svg>
