<?xml version="1.0" encoding="UTF-8" standalone="no"?>
<!DOCTYPE svg PUBLIC "-//W3C//DTD SVG 1.1//EN" "http://www.w3.org/Graphics/SVG/1.1/DTD/svg11.dtd">
<!-- Generated by Microsoft Visio, SVG Export XorXnorCMOS.svg Page-1 -->
<svg xmlns="http://www.w3.org/2000/svg" xmlns:xlink="http://www.w3.org/1999/xlink" xmlns:ev="http://www.w3.org/2001/xml-events"
		xmlns:v="http://schemas.microsoft.com/visio/2003/SVGExtensions/" width="3.42354in" height="1.44083in"
		viewBox="0 0 246.495 103.74" xml:space="preserve" color-interpolation-filters="sRGB" class="st13">
	<v:documentProperties v:langID="1033" v:viewMarkup="false"/>

	<style type="text/css">
	<![CDATA[
		.st1 {fill:#feecd1;stroke:none;stroke-linecap:round;stroke-linejoin:round;stroke-width:0.24}
		.st2 {fill:#e3ecfd;stroke:none;stroke-linecap:round;stroke-linejoin:round;stroke-width:0.24}
		.st3 {fill:none;stroke:#000000;stroke-linecap:round;stroke-linejoin:round;stroke-width:0.72}
		.st4 {stroke:#000000;stroke-linecap:round;stroke-linejoin:round;stroke-width:0.748474}
		.st5 {fill:#000000;stroke:#000000;stroke-linecap:round;stroke-linejoin:round;stroke-width:0.24}
		.st6 {stroke:none;stroke-linecap:round;stroke-linejoin:round;stroke-width:0.75}
		.st7 {fill:#000000;font-family:Arial;font-size:0.833336em}
		.st8 {stroke:#000000;stroke-linecap:round;stroke-linejoin:round;stroke-width:0.746481}
		.st9 {fill:none;stroke:none;stroke-linecap:round;stroke-linejoin:round;stroke-width:0.75}
		.st10 {stroke:#000000;stroke-linecap:round;stroke-linejoin:round;stroke-width:0.748902}
		.st11 {stroke:#000000;stroke-linecap:round;stroke-linejoin:round;stroke-width:0.72}
		.st12 {fill:#000000;font-family:Arial Unicode MS;font-size:0.833336em}
		.st13 {fill:none;fill-rule:evenodd;font-size:12px;overflow:visible;stroke-linecap:square;stroke-miterlimit:3}
	]]>
	</style>

	<g v:mID="0" v:index="1" v:groupContext="foregroundPage">
		<title>Page-1</title>
		<v:pageProperties v:drawingScale="1" v:pageScale="1" v:drawingUnits="19" v:shadowOffsetX="9" v:shadowOffsetY="-9"/>
		<g id="shape1-1" v:mID="1" v:groupContext="shape" transform="translate(117.12,-0.12)">
			<title>Rectangle.528</title>
			<v:userDefs>
				<v:ud v:nameU="visVersion" v:val="VT0(11):26"/>
			</v:userDefs>
			<rect x="0" y="0.24" width="121.5" height="103.5" class="st1"/>
		</g>
		<g id="shape2-3" v:mID="2" v:groupContext="shape" transform="translate(0.12,-0.12)">
			<title>Rectangle</title>
			<v:userDefs>
				<v:ud v:nameU="visVersion" v:val="VT0(11):26"/>
			</v:userDefs>
			<rect x="0" y="0.24" width="117" height="103.5" class="st2"/>
		</g>
		<g id="shape3-5" v:mID="3" v:groupContext="shape" transform="translate(45.12,-58.62)">
			<title>Sheet.3</title>
			<path d="M0 85.74 L0 103.74 L10.12 103.74 A10.125 9 -180 0 0 20.25 94.74 A10.125 9 -180 0 0 10.12 85.74 L0 85.74 Z"
					class="st3"/>
		</g>
		<g id="shape4-7" v:mID="4" v:groupContext="shape" transform="translate(69.87,-40.62)">
			<title>Sheet.4</title>
			<path d="M0 103.74 L6.4 103.74" class="st4"/>
		</g>
		<g id="shape5-10" v:mID="5" v:groupContext="shape" transform="translate(13.62,-72.12)">
			<title>Sheet.5</title>
			<path d="M31.15 103.74 L0 103.74" class="st4"/>
		</g>
		<g id="shape6-13" v:mID="6" v:groupContext="shape" transform="translate(23.745,-45.12)">
			<title>Sheet.6</title>
			<path d="M0 85.69 L0 103.74" class="st4"/>
		</g>
		<g id="shape7-16" v:mID="7" v:groupContext="shape" transform="translate(45.12,-31.62)">
			<title>Sheet.7</title>
			<path d="M0 85.74 L0 103.74 L10.12 103.74 A10.125 9 -180 0 0 20.25 94.74 A10.125 9 -180 0 0 10.12 85.74 L0 85.74 Z"
					class="st3"/>
		</g>
		<g id="shape8-18" v:mID="8" v:groupContext="shape" transform="translate(13.62,-63.12)">
			<title>Sheet.8</title>
			<path d="M16.87 103.74 L0 103.74" class="st4"/>
		</g>
		<g id="shape9-21" v:mID="9" v:groupContext="shape" transform="translate(23.745,-45.12)">
			<title>Sheet.9</title>
			<path d="M21.02 103.74 L0 103.74" class="st4"/>
		</g>
		<g id="shape10-24" v:mID="10" v:groupContext="shape" transform="translate(39.495,-36.12)">
			<title>Sheet.10</title>
			<path d="M5.62 103.74 L0 103.74" class="st4"/>
		</g>
		<g id="shape11-27" v:mID="11" v:groupContext="shape" transform="translate(76.2684,-58.62)">
			<title>Sheet.11</title>
			<path d="M0 94.69 L0 103.74" class="st4"/>
		</g>
		<g id="shape12-30" v:mID="12" v:groupContext="shape" transform="translate(76.4091,-58.62)">
			<title>Sheet.12</title>
			<path d="M0 103.74 L3.59 103.74" class="st4"/>
		</g>
		<g id="shape13-33" v:mID="13" v:groupContext="shape" transform="translate(76.2684,-40.62)">
			<title>Sheet.13</title>
			<path d="M0 94.69 L0 103.74" class="st4"/>
		</g>
		<g id="shape14-36" v:mID="14" v:groupContext="shape" transform="translate(76.4091,-49.62)">
			<title>Sheet.14</title>
			<path d="M0 103.74 L3.59 103.74" class="st4"/>
		</g>
		<g id="shape15-39" v:mID="15" v:groupContext="shape" transform="translate(103.409,-54.12)">
			<title>Sheet.15</title>
			<path d="M0 103.74 L8.44 103.74" class="st4"/>
		</g>
		<g id="shape16-42" v:mID="16" v:groupContext="shape" transform="translate(22.7367,-61.995)">
			<title>Circle.444</title>
			<v:userDefs>
				<v:ud v:nameU="visVersion" v:val="VT0(11):26"/>
			</v:userDefs>
			<path d="M0 102.73 A1.00825 1.00825 0 1 1 2.02 102.73 A1.00825 1.00825 0 1 1 -0 102.73 Z" class="st5"/>
		</g>
		<g id="shape17-44" v:mID="17" v:groupContext="shape" transform="translate(69.5184,-67.62)">
			<title>Sheet.17</title>
			<path d="M0 103.74 L6.75 103.74" class="st4"/>
		</g>
		<g id="shape18-47" v:mID="18" v:groupContext="shape" transform="translate(2.37,-67.62)">
			<title>Sheet.18</title>
			<desc>A</desc>
			<v:textBlock v:margins="rect(0,0,0,0)"/>
			<v:textRect cx="4.5" cy="99.24" width="9" height="9"/>
			<path d="M9 94.74 L0 94.74 L0 103.74 L9 103.74 L9 94.74" class="st6"/>
			<text x="1.16" y="102.24" class="st7" v:langID="1033"><v:paragraph v:horizAlign="1"/><v:tabList/>A</text>		</g>
		<g id="shape19-51" v:mID="19" v:groupContext="shape" transform="translate(2.37,-56.37)">
			<title>Sheet.19</title>
			<desc>B</desc>
			<v:textBlock v:margins="rect(0,0,0,0)"/>
			<v:textRect cx="4.5" cy="99.24" width="9" height="9"/>
			<path d="M9 94.74 L0 94.74 L0 103.74 L9 103.74 L9 94.74" class="st6"/>
			<text x="1.16" y="102.24" class="st7" v:langID="1033"><v:paragraph v:horizAlign="1"/><v:tabList/>B</text>		</g>
		<g id="shape20-55" v:mID="20" v:groupContext="shape" transform="translate(65.37,-65.37)">
			<title>Circle.449</title>
			<v:userDefs>
				<v:ud v:nameU="visVersion" v:val="VT0(11):26"/>
			</v:userDefs>
			<path d="M0 101.49 A2.25 2.25 0 0 1 4.5 101.49 A2.25 2.25 0 1 1 0 101.49 Z" class="st3"/>
		</g>
		<g id="shape21-57" v:mID="21" v:groupContext="shape" transform="translate(80.5575,-56.37)">
			<title>Circle.452</title>
			<v:userDefs>
				<v:ud v:nameU="visVersion" v:val="VT0(11):26"/>
			</v:userDefs>
			<path d="M0 101.49 A2.25 2.25 0 0 1 4.5 101.49 A2.25 2.25 0 1 1 0 101.49 Z" class="st3"/>
		</g>
		<g id="shape22-59" v:mID="22" v:groupContext="shape" transform="translate(80.5575,-47.37)">
			<title>Circle.453</title>
			<v:userDefs>
				<v:ud v:nameU="visVersion" v:val="VT0(11):26"/>
			</v:userDefs>
			<path d="M0 101.49 A2.25 2.25 0 0 1 4.5 101.49 A2.25 2.25 0 1 1 0 101.49 Z" class="st3"/>
		</g>
		<g id="shape23-61" v:mID="23" v:groupContext="shape" transform="translate(65.37,-38.37)">
			<title>Circle.454</title>
			<v:userDefs>
				<v:ud v:nameU="visVersion" v:val="VT0(11):26"/>
			</v:userDefs>
			<path d="M0 101.49 A2.25 2.25 0 0 1 4.5 101.49 A2.25 2.25 0 1 1 0 101.49 Z" class="st3"/>
		</g>
		<g id="shape24-63" v:mID="24" v:groupContext="shape" transform="translate(83.37,-45.12)">
			<title>Sheet.24</title>
			<path d="M0.14 85.74 L6.17 85.74 L7.76 86.04 L8.68 86.24 L9.79 86.54 L11.14 87.09 L12.34 87.64 L13.6 88.24 L14.85 89.04
						 L16.06 89.89 L17.26 90.89 L18.51 92.14 L19.67 93.74 L20.25 94.74 L19.67 95.69 L18.51 97.24 L17.26 98.59
						 L16.06 99.54 L14.75 100.39 L13.6 101.14 L12.34 101.74 L11.14 102.29 L9.84 102.84 L8.68 103.14 L7.43 103.44
						 L6.17 103.64 L5.01 103.74 L0 103.74 L1.01 102.04 L1.64 100.39 L2.02 99.24 L2.36 98.14 L2.65 97.04 L2.75
						 95.89 L2.84 94.74 L2.75 93.59 L2.7 92.54 L2.46 91.39 L2.12 90.24 L1.74 89.09 L1.25 87.99 L0.67 86.79 L0.14
						 85.74 L0.14 85.74" class="st8"/>
		</g>
		<g id="group25-66" transform="translate(30.495,-58.62)" v:mID="25" v:groupContext="group">
			<title>Sheet.25</title>
			<g id="shape26-67" v:mID="26" v:groupContext="shape">
				<title>Sheet.26</title>
				<path d="M0 94.74 L0 103.74 L6.92 99.19 L0 94.74 L0 94.74 Z" class="st9"/>
			</g>
			<g id="shape27-69" v:mID="27" v:groupContext="shape">
				<title>Sheet.27</title>
				<path d="M0 94.74 L0 103.74 L6.92 99.19 L0 94.74 L0 94.74" class="st10"/>
			</g>
			<g id="shape28-72" v:mID="28" v:groupContext="shape" transform="translate(6.92308,-3.43299)">
				<title>Sheet.28</title>
				<path d="M0 102.63 L0 102.44 L0.09 102.16 L0.17 101.98 L0.35 101.88 L0.43 101.7 L0.69 101.61 L0.87 101.51 L1.04 101.51
							 L1.3 101.51 L1.47 101.61 L1.64 101.7 L1.82 101.88 L1.9 101.98 L1.99 102.16 L2.08 102.44 L2.08 102.63
							 L2.08 102.63 L2.08 102.9 L1.99 103.09 L1.9 103.28 L1.82 103.46 L1.64 103.55 L1.47 103.65 L1.3 103.74
							 L1.04 103.74 L0.87 103.74 L0.69 103.65 L0.43 103.55 L0.35 103.46 L0.17 103.28 L0.09 103.09 L0 102.9
							 L0 102.63 L0 102.63 Z" class="st9"/>
			</g>
			<g id="shape29-74" v:mID="29" v:groupContext="shape" transform="translate(6.92308,-3.43299)">
				<title>Sheet.29</title>
				<path d="M0 102.63 L0 102.44 L0.09 102.16 L0.17 101.98 L0.35 101.88 L0.43 101.7 L0.69 101.61 L0.87 101.51 L1.04 101.51
							 L1.3 101.51 L1.47 101.61 L1.64 101.7 L1.82 101.88 L1.9 101.98 L1.99 102.16 L2.08 102.44 L2.08 102.63
							 L2.08 102.63 L2.08 102.9 L1.99 103.09 L1.9 103.28 L1.82 103.46 L1.64 103.55 L1.47 103.65 L1.3 103.74
							 L1.04 103.74 L0.87 103.74 L0.69 103.65 L0.43 103.55 L0.35 103.46 L0.17 103.28 L0.09 103.09 L0 102.9
							 L0 102.63" class="st10"/>
			</g>
		</g>
		<g id="group30-77" transform="translate(30.495,-31.62)" v:mID="30" v:groupContext="group">
			<title>Sheet.30</title>
			<g id="shape31-78" v:mID="31" v:groupContext="shape">
				<title>Sheet.31</title>
				<path d="M0 94.74 L0 103.74 L6.92 99.19 L0 94.74 L0 94.74 Z" class="st9"/>
			</g>
			<g id="shape32-80" v:mID="32" v:groupContext="shape">
				<title>Sheet.32</title>
				<path d="M0 94.74 L0 103.74 L6.92 99.19 L0 94.74 L0 94.74" class="st10"/>
			</g>
			<g id="shape33-83" v:mID="33" v:groupContext="shape" transform="translate(6.92308,-3.43299)">
				<title>Sheet.33</title>
				<path d="M0 102.63 L0 102.44 L0.09 102.16 L0.17 101.98 L0.35 101.88 L0.43 101.7 L0.69 101.61 L0.87 101.51 L1.04 101.51
							 L1.3 101.51 L1.47 101.61 L1.64 101.7 L1.82 101.88 L1.9 101.98 L1.99 102.16 L2.08 102.44 L2.08 102.63
							 L2.08 102.63 L2.08 102.9 L1.99 103.09 L1.9 103.28 L1.82 103.46 L1.64 103.55 L1.47 103.65 L1.3 103.74
							 L1.04 103.74 L0.87 103.74 L0.69 103.65 L0.43 103.55 L0.35 103.46 L0.17 103.28 L0.09 103.09 L0 102.9
							 L0 102.63 L0 102.63 Z" class="st9"/>
			</g>
			<g id="shape34-85" v:mID="34" v:groupContext="shape" transform="translate(6.92308,-3.43299)">
				<title>Sheet.34</title>
				<path d="M0 102.63 L0 102.44 L0.09 102.16 L0.17 101.98 L0.35 101.88 L0.43 101.7 L0.69 101.61 L0.87 101.51 L1.04 101.51
							 L1.3 101.51 L1.47 101.61 L1.64 101.7 L1.82 101.88 L1.9 101.98 L1.99 102.16 L2.08 102.44 L2.08 102.63
							 L2.08 102.63 L2.08 102.9 L1.99 103.09 L1.9 103.28 L1.82 103.46 L1.64 103.55 L1.47 103.65 L1.3 103.74
							 L1.04 103.74 L0.87 103.74 L0.69 103.65 L0.43 103.55 L0.35 103.46 L0.17 103.28 L0.09 103.09 L0 102.9
							 L0 102.63" class="st10"/>
			</g>
		</g>
		<g id="shape35-88" v:mID="35" v:groupContext="shape" transform="translate(18.12,-36.12)">
			<title>Sheet.35</title>
			<path d="M0 67.74 L0 103.74" class="st4"/>
		</g>
		<g id="shape36-91" v:mID="36" v:groupContext="shape" transform="translate(17.1117,-70.995)">
			<title>Circle.459</title>
			<v:userDefs>
				<v:ud v:nameU="visVersion" v:val="VT0(11):26"/>
			</v:userDefs>
			<path d="M0 102.73 A1.00825 1.00825 0 1 1 2.02 102.73 A1.00825 1.00825 0 1 1 -0 102.73 Z" class="st5"/>
		</g>
		<g id="shape43-93" v:mID="43" v:groupContext="shape" transform="translate(164.37,-11.37)">
			<title>Circle.464</title>
			<v:userDefs>
				<v:ud v:nameU="visVersion" v:val="VT0(11):26"/>
			</v:userDefs>
			<path d="M0 101.49 A2.25 2.25 0 0 1 4.5 101.49 A2.25 2.25 0 1 1 0 101.49 Z" class="st3"/>
		</g>
		<g id="group44-95" transform="translate(20.37,-4.62)" v:mID="44" v:groupContext="group">
			<title>Sheet.44</title>
			<g id="shape45-96" v:mID="45" v:groupContext="shape" transform="translate(2.7439,0)">
				<title>Sheet.45</title>
				<path d="M0.14 85.74 L6.02 85.74 L7.57 86.04 L8.47 86.24 L9.55 86.54 L10.87 87.09 L12.04 87.64 L13.26 88.24 L14.49
							 89.04 L15.66 89.89 L16.84 90.89 L18.06 92.14 L19.19 93.74 L19.76 94.74 L19.19 95.69 L18.06 97.24 L16.84
							 98.59 L15.66 99.54 L14.39 100.39 L13.26 101.14 L12.04 101.74 L10.87 102.29 L9.6 102.84 L8.47 103.14
							 L7.24 103.44 L6.02 103.64 L4.89 103.74 L0 103.74 L0.99 102.04 L1.6 100.39 L1.98 99.24 L2.3 98.14 L2.59
							 97.04 L2.68 95.89 L2.78 94.74 L2.68 93.59 L2.63 92.54 L2.4 91.39 L2.07 90.24 L1.69 89.09 L1.22 87.99
							 L0.66 86.79 L0.14 85.74 L0.14 85.74" class="st8"/>
			</g>
			<g id="group46-99" v:mID="46" v:groupContext="group">
				<title>Sheet.46</title>
				<g id="shape47-100" v:mID="47" v:groupContext="shape" transform="translate(7.49401E-016,-8.90961)">
					<title>Sheet.47</title>
					<path d="M0 94.65 L0.56 95.79 L1.13 96.99 L1.62 98.06 L2.01 99.19 L2.39 100.33 L2.6 101.47 L2.71 102.67 L2.74
								 103.74" class="st11"/>
				</g>
				<g id="shape48-103" v:mID="48" v:groupContext="shape" transform="translate(7.49401E-016,198.39) scale(1,-1)">
					<title>Sheet.48</title>
					<path d="M0 94.65 L0.56 95.79 L1.13 96.99 L1.62 98.06 L2.01 99.19 L2.39 100.33 L2.6 101.47 L2.71 102.67 L2.74
								 103.74" class="st11"/>
				</g>
			</g>
		</g>
		<g id="group49-106" transform="translate(141.87,-4.62)" v:mID="49" v:groupContext="group">
			<title>Sheet.49</title>
			<g id="shape50-107" v:mID="50" v:groupContext="shape" transform="translate(2.7439,0)">
				<title>Sheet.50</title>
				<path d="M0.14 85.74 L6.02 85.74 L7.57 86.04 L8.47 86.24 L9.55 86.54 L10.87 87.09 L12.04 87.64 L13.26 88.24 L14.49
							 89.04 L15.66 89.89 L16.84 90.89 L18.06 92.14 L19.19 93.74 L19.76 94.74 L19.19 95.69 L18.06 97.24 L16.84
							 98.59 L15.66 99.54 L14.39 100.39 L13.26 101.14 L12.04 101.74 L10.87 102.29 L9.6 102.84 L8.47 103.14
							 L7.24 103.44 L6.02 103.64 L4.89 103.74 L0 103.74 L0.99 102.04 L1.6 100.39 L1.98 99.24 L2.3 98.14 L2.59
							 97.04 L2.68 95.89 L2.78 94.74 L2.68 93.59 L2.63 92.54 L2.4 91.39 L2.07 90.24 L1.69 89.09 L1.22 87.99
							 L0.66 86.79 L0.14 85.74 L0.14 85.74" class="st8"/>
			</g>
			<g id="group51-110" v:mID="51" v:groupContext="group">
				<title>Sheet.51</title>
				<g id="shape52-111" v:mID="52" v:groupContext="shape" transform="translate(7.49401E-016,-8.90961)">
					<title>Sheet.52</title>
					<path d="M0 94.65 L0.56 95.79 L1.13 96.99 L1.62 98.06 L2.01 99.19 L2.39 100.33 L2.6 101.47 L2.71 102.67 L2.74
								 103.74" class="st11"/>
				</g>
				<g id="shape53-114" v:mID="53" v:groupContext="shape" transform="translate(7.49401E-016,198.39) scale(1,-1)">
					<title>Sheet.53</title>
					<path d="M0 94.65 L0.56 95.79 L1.13 96.99 L1.62 98.06 L2.01 99.19 L2.39 100.33 L2.6 101.47 L2.71 102.67 L2.74
								 103.74" class="st11"/>
				</g>
			</g>
		</g>
		<g id="shape54-117" v:mID="54" v:groupContext="shape" transform="translate(13.62,-18.12)">
			<title>Sheet.54</title>
			<path d="M0 103.74 L8.44 103.74" class="st4"/>
		</g>
		<g id="shape55-120" v:mID="55" v:groupContext="shape" transform="translate(13.62,-9.12)">
			<title>Sheet.55</title>
			<path d="M0 103.74 L8.44 103.74" class="st4"/>
		</g>
		<g id="shape56-123" v:mID="56" v:groupContext="shape" transform="translate(135.12,-18.12)">
			<title>Sheet.56</title>
			<path d="M0 103.74 L8.44 103.74" class="st4"/>
		</g>
		<g id="shape57-126" v:mID="57" v:groupContext="shape" transform="translate(135.12,-9.12)">
			<title>Sheet.57</title>
			<path d="M0 103.74 L8.44 103.74" class="st4"/>
		</g>
		<g id="shape58-129" v:mID="58" v:groupContext="shape" transform="translate(42.87,-13.62)">
			<title>Sheet.58</title>
			<path d="M0 103.74 L9 103.74" class="st4"/>
		</g>
		<g id="shape59-132" v:mID="59" v:groupContext="shape" transform="translate(168.87,-13.62)">
			<title>Sheet.59</title>
			<path d="M0 103.74 L4.5 103.74" class="st4"/>
		</g>
		<g id="shape60-135" v:mID="60" v:groupContext="shape" transform="translate(167.007,-58.62)">
			<title>Sheet.60</title>
			<path d="M0 85.74 L0 103.74 L10.12 103.74 A10.125 9 -180 0 0 20.25 94.74 A10.125 9 -180 0 0 10.12 85.74 L0 85.74 Z"
					class="st3"/>
		</g>
		<g id="shape61-137" v:mID="61" v:groupContext="shape" transform="translate(191.757,-40.62)">
			<title>Sheet.61</title>
			<path d="M0 103.74 L6.4 103.74" class="st4"/>
		</g>
		<g id="shape62-140" v:mID="62" v:groupContext="shape" transform="translate(135.507,-72.12)">
			<title>Sheet.62</title>
			<path d="M13.11 103.74 L0 103.74" class="st4"/>
		</g>
		<g id="shape63-143" v:mID="63" v:groupContext="shape" transform="translate(145.632,-45.12)">
			<title>Sheet.63</title>
			<path d="M0 85.69 L0 103.74" class="st4"/>
		</g>
		<g id="shape64-146" v:mID="64" v:groupContext="shape" transform="translate(167.007,-31.62)">
			<title>Sheet.64</title>
			<path d="M0 85.74 L0 103.74 L10.12 103.74 A10.125 9 -180 0 0 20.25 94.74 A10.125 9 -180 0 0 10.12 85.74 L0 85.74 Z"
					class="st3"/>
		</g>
		<g id="shape65-148" v:mID="65" v:groupContext="shape" transform="translate(135.507,-63.12)">
			<title>Sheet.65</title>
			<path d="M16.49 103.74 L0 103.74" class="st4"/>
		</g>
		<g id="shape66-151" v:mID="66" v:groupContext="shape" transform="translate(145.632,-45.12)">
			<title>Sheet.66</title>
			<path d="M21.02 103.74 L0 103.74" class="st4"/>
		</g>
		<g id="shape67-154" v:mID="67" v:groupContext="shape" transform="translate(140.007,-36.12)">
			<title>Sheet.67</title>
			<path d="M27 103.74 L0 103.74" class="st4"/>
		</g>
		<g id="shape68-157" v:mID="68" v:groupContext="shape" transform="translate(198.155,-58.62)">
			<title>Sheet.68</title>
			<path d="M0 94.69 L0 103.74" class="st4"/>
		</g>
		<g id="shape69-160" v:mID="69" v:groupContext="shape" transform="translate(198.296,-58.62)">
			<title>Sheet.69</title>
			<path d="M0 103.74 L3.59 103.74" class="st4"/>
		</g>
		<g id="shape70-163" v:mID="70" v:groupContext="shape" transform="translate(198.155,-40.62)">
			<title>Sheet.70</title>
			<path d="M0 94.69 L0 103.74" class="st4"/>
		</g>
		<g id="shape71-166" v:mID="71" v:groupContext="shape" transform="translate(198.296,-49.62)">
			<title>Sheet.71</title>
			<path d="M0 103.74 L3.59 103.74" class="st4"/>
		</g>
		<g id="shape72-169" v:mID="72" v:groupContext="shape" transform="translate(225.296,-54.12)">
			<title>Sheet.72</title>
			<path d="M0 103.74 L8.44 103.74" class="st4"/>
		</g>
		<g id="shape73-172" v:mID="73" v:groupContext="shape" transform="translate(144.623,-61.995)">
			<title>Circle.495</title>
			<v:userDefs>
				<v:ud v:nameU="visVersion" v:val="VT0(11):26"/>
			</v:userDefs>
			<path d="M0 102.73 A1.00825 1.00825 0 1 1 2.02 102.73 A1.00825 1.00825 0 1 1 -0 102.73 Z" class="st5"/>
		</g>
		<g id="shape74-174" v:mID="74" v:groupContext="shape" transform="translate(191.405,-67.62)">
			<title>Sheet.74</title>
			<path d="M0 103.74 L6.75 103.74" class="st4"/>
		</g>
		<g id="shape75-177" v:mID="75" v:groupContext="shape" transform="translate(124.643,-67.62)">
			<title>Sheet.75</title>
			<desc>A</desc>
			<v:textBlock v:margins="rect(0,0,0,0)"/>
			<v:textRect cx="4.5" cy="99.24" width="9" height="9"/>
			<path d="M9 94.74 L0 94.74 L0 103.74 L9 103.74 L9 94.74" class="st6"/>
			<text x="1.16" y="102.24" class="st7" v:langID="1033"><v:paragraph v:horizAlign="1"/><v:tabList/>A</text>		</g>
		<g id="shape76-181" v:mID="76" v:groupContext="shape" transform="translate(124.643,-56.37)">
			<title>Sheet.76</title>
			<desc>B</desc>
			<v:textBlock v:margins="rect(0,0,0,0)"/>
			<v:textRect cx="4.5" cy="99.24" width="9" height="9"/>
			<path d="M9 94.74 L0 94.74 L0 103.74 L9 103.74 L9 94.74" class="st6"/>
			<text x="1.16" y="102.24" class="st7" v:langID="1033"><v:paragraph v:horizAlign="1"/><v:tabList/>B</text>		</g>
		<g id="shape77-185" v:mID="77" v:groupContext="shape" transform="translate(187.257,-65.37)">
			<title>Circle.499</title>
			<v:userDefs>
				<v:ud v:nameU="visVersion" v:val="VT0(11):26"/>
			</v:userDefs>
			<path d="M0 101.49 A2.25 2.25 0 0 1 4.5 101.49 A2.25 2.25 0 1 1 0 101.49 Z" class="st3"/>
		</g>
		<g id="shape78-187" v:mID="78" v:groupContext="shape" transform="translate(202.444,-56.37)">
			<title>Circle.500</title>
			<v:userDefs>
				<v:ud v:nameU="visVersion" v:val="VT0(11):26"/>
			</v:userDefs>
			<path d="M0 101.49 A2.25 2.25 0 0 1 4.5 101.49 A2.25 2.25 0 1 1 0 101.49 Z" class="st3"/>
		</g>
		<g id="shape79-189" v:mID="79" v:groupContext="shape" transform="translate(202.444,-47.37)">
			<title>Circle.501</title>
			<v:userDefs>
				<v:ud v:nameU="visVersion" v:val="VT0(11):26"/>
			</v:userDefs>
			<path d="M0 101.49 A2.25 2.25 0 0 1 4.5 101.49 A2.25 2.25 0 1 1 0 101.49 Z" class="st3"/>
		</g>
		<g id="shape80-191" v:mID="80" v:groupContext="shape" transform="translate(187.257,-38.37)">
			<title>Circle.502</title>
			<v:userDefs>
				<v:ud v:nameU="visVersion" v:val="VT0(11):26"/>
			</v:userDefs>
			<path d="M0 101.49 A2.25 2.25 0 0 1 4.5 101.49 A2.25 2.25 0 1 1 0 101.49 Z" class="st3"/>
		</g>
		<g id="shape81-193" v:mID="81" v:groupContext="shape" transform="translate(205.257,-45.12)">
			<title>Sheet.81</title>
			<path d="M0.14 85.74 L6.17 85.74 L7.76 86.04 L8.68 86.24 L9.79 86.54 L11.14 87.09 L12.34 87.64 L13.6 88.24 L14.85 89.04
						 L16.06 89.89 L17.26 90.89 L18.51 92.14 L19.67 93.74 L20.25 94.74 L19.67 95.69 L18.51 97.24 L17.26 98.59
						 L16.06 99.54 L14.75 100.39 L13.6 101.14 L12.34 101.74 L11.14 102.29 L9.84 102.84 L8.68 103.14 L7.43 103.44
						 L6.17 103.64 L5.01 103.74 L0 103.74 L1.01 102.04 L1.64 100.39 L2.02 99.24 L2.36 98.14 L2.65 97.04 L2.75
						 95.89 L2.84 94.74 L2.75 93.59 L2.7 92.54 L2.46 91.39 L2.12 90.24 L1.74 89.09 L1.25 87.99 L0.67 86.79 L0.14
						 85.74 L0.14 85.74" class="st8"/>
		</g>
		<g id="group82-196" transform="translate(151.995,-58.62)" v:mID="82" v:groupContext="group">
			<title>Sheet.82</title>
			<g id="shape83-197" v:mID="83" v:groupContext="shape">
				<title>Sheet.83</title>
				<path d="M0 94.74 L0 103.74 L6.92 99.19 L0 94.74 L0 94.74 Z" class="st9"/>
			</g>
			<g id="shape84-199" v:mID="84" v:groupContext="shape">
				<title>Sheet.84</title>
				<path d="M0 94.74 L0 103.74 L6.92 99.19 L0 94.74 L0 94.74" class="st10"/>
			</g>
			<g id="shape85-202" v:mID="85" v:groupContext="shape" transform="translate(6.92308,-3.43299)">
				<title>Sheet.85</title>
				<path d="M0 102.63 L0 102.44 L0.09 102.16 L0.17 101.98 L0.35 101.88 L0.43 101.7 L0.69 101.61 L0.87 101.51 L1.04 101.51
							 L1.3 101.51 L1.47 101.61 L1.64 101.7 L1.82 101.88 L1.9 101.98 L1.99 102.16 L2.08 102.44 L2.08 102.63
							 L2.08 102.63 L2.08 102.9 L1.99 103.09 L1.9 103.28 L1.82 103.46 L1.64 103.55 L1.47 103.65 L1.3 103.74
							 L1.04 103.74 L0.87 103.74 L0.69 103.65 L0.43 103.55 L0.35 103.46 L0.17 103.28 L0.09 103.09 L0 102.9
							 L0 102.63 L0 102.63 Z" class="st9"/>
			</g>
			<g id="shape86-204" v:mID="86" v:groupContext="shape" transform="translate(6.92308,-3.43299)">
				<title>Sheet.86</title>
				<path d="M0 102.63 L0 102.44 L0.09 102.16 L0.17 101.98 L0.35 101.88 L0.43 101.7 L0.69 101.61 L0.87 101.51 L1.04 101.51
							 L1.3 101.51 L1.47 101.61 L1.64 101.7 L1.82 101.88 L1.9 101.98 L1.99 102.16 L2.08 102.44 L2.08 102.63
							 L2.08 102.63 L2.08 102.9 L1.99 103.09 L1.9 103.28 L1.82 103.46 L1.64 103.55 L1.47 103.65 L1.3 103.74
							 L1.04 103.74 L0.87 103.74 L0.69 103.65 L0.43 103.55 L0.35 103.46 L0.17 103.28 L0.09 103.09 L0 102.9
							 L0 102.63" class="st10"/>
			</g>
		</g>
		<g id="group87-207" transform="translate(148.62,-67.62)" v:mID="87" v:groupContext="group">
			<title>Sheet.87</title>
			<g id="shape88-208" v:mID="88" v:groupContext="shape">
				<title>Sheet.88</title>
				<path d="M0 94.74 L0 103.74 L6.92 99.19 L0 94.74 L0 94.74 Z" class="st9"/>
			</g>
			<g id="shape89-210" v:mID="89" v:groupContext="shape">
				<title>Sheet.89</title>
				<path d="M0 94.74 L0 103.74 L6.92 99.19 L0 94.74 L0 94.74" class="st10"/>
			</g>
			<g id="shape90-213" v:mID="90" v:groupContext="shape" transform="translate(6.92308,-3.43299)">
				<title>Sheet.90</title>
				<path d="M0 102.63 L0 102.44 L0.09 102.16 L0.17 101.98 L0.35 101.88 L0.43 101.7 L0.69 101.61 L0.87 101.51 L1.04 101.51
							 L1.3 101.51 L1.47 101.61 L1.64 101.7 L1.82 101.88 L1.9 101.98 L1.99 102.16 L2.08 102.44 L2.08 102.63
							 L2.08 102.63 L2.08 102.9 L1.99 103.09 L1.9 103.28 L1.82 103.46 L1.64 103.55 L1.47 103.65 L1.3 103.74
							 L1.04 103.74 L0.87 103.74 L0.69 103.65 L0.43 103.55 L0.35 103.46 L0.17 103.28 L0.09 103.09 L0 102.9
							 L0 102.63 L0 102.63 Z" class="st9"/>
			</g>
			<g id="shape91-215" v:mID="91" v:groupContext="shape" transform="translate(6.92308,-3.43299)">
				<title>Sheet.91</title>
				<path d="M0 102.63 L0 102.44 L0.09 102.16 L0.17 101.98 L0.35 101.88 L0.43 101.7 L0.69 101.61 L0.87 101.51 L1.04 101.51
							 L1.3 101.51 L1.47 101.61 L1.64 101.7 L1.82 101.88 L1.9 101.98 L1.99 102.16 L2.08 102.44 L2.08 102.63
							 L2.08 102.63 L2.08 102.9 L1.99 103.09 L1.9 103.28 L1.82 103.46 L1.64 103.55 L1.47 103.65 L1.3 103.74
							 L1.04 103.74 L0.87 103.74 L0.69 103.65 L0.43 103.55 L0.35 103.46 L0.17 103.28 L0.09 103.09 L0 102.9
							 L0 102.63" class="st10"/>
			</g>
		</g>
		<g id="shape92-218" v:mID="92" v:groupContext="shape" transform="translate(140.007,-36.12)">
			<title>Sheet.92</title>
			<path d="M0 67.74 L0 103.74" class="st4"/>
		</g>
		<g id="shape93-221" v:mID="93" v:groupContext="shape" transform="translate(138.998,-70.995)">
			<title>Circle.515</title>
			<v:userDefs>
				<v:ud v:nameU="visVersion" v:val="VT0(11):26"/>
			</v:userDefs>
			<path d="M0 102.73 A1.00825 1.00825 0 1 1 2.02 102.73 A1.00825 1.00825 0 1 1 -0 102.73 Z" class="st5"/>
		</g>
		<g id="shape100-223" v:mID="100" v:groupContext="shape" transform="translate(203.183,-20.37)">
			<title>Sheet.100</title>
			<path d="M0 103.74 L24.19 103.74" class="st4"/>
		</g>
		<g id="shape101-226" v:mID="101" v:groupContext="shape" transform="translate(40.62,-90.12)">
			<title>Sheet.101</title>
			<desc>XOR</desc>
			<v:textBlock v:margins="rect(0,0,0,0)"/>
			<v:textRect cx="15.75" cy="99.24" width="31.5" height="9"/>
			<path d="M31.5 94.74 L0 94.74 L0 103.74 L31.5 103.74 L31.5 94.74" class="st6"/>
			<text x="4.92" y="102.24" class="st7" v:langID="1033"><v:paragraph v:horizAlign="1"/><v:tabList/>XOR</text>		</g>
		<g id="shape102-230" v:mID="102" v:groupContext="shape" transform="translate(162.12,-90.12)">
			<title>Sheet.102</title>
			<desc>XNOR</desc>
			<v:textBlock v:margins="rect(0,0,0,0)"/>
			<v:textRect cx="15.75" cy="99.24" width="31.5" height="9"/>
			<path d="M31.5 94.74 L0 94.74 L0 103.74 L31.5 103.74 L31.5 94.74" class="st6"/>
			<text x="1.3" y="102.24" class="st7" v:langID="1033"><v:paragraph v:horizAlign="1"/><v:tabList/>XNOR</text>		</g>
		<g id="shape103-234" v:mID="103" v:groupContext="shape" transform="translate(18.12,-36.12)">
			<title>Sheet.103</title>
			<path d="M12.37 103.74 L0 103.74" class="st4"/>
		</g>
		<g id="shape104-237" v:mID="104" v:groupContext="shape" transform="translate(39.495,-63.12)">
			<title>Sheet.104</title>
			<path d="M5.62 103.74 L0 103.74" class="st4"/>
		</g>
		<g id="shape105-240" v:mID="105" v:groupContext="shape" transform="translate(157.62,-72.12)">
			<title>Sheet.105</title>
			<path d="M9 103.74 L0 103.74" class="st4"/>
		</g>
		<g id="shape106-243" v:mID="106" v:groupContext="shape" transform="translate(160.995,-63.12)">
			<title>Sheet.106</title>
			<path d="M5.62 103.74 L0 103.74" class="st4"/>
		</g>
		<g id="shape107-246" v:mID="107" v:groupContext="shape" transform="translate(54.12,-8.5116)">
			<title>Sheet.107</title>
			<desc>F = A</desc>
			<v:textBlock v:margins="rect(0,0,0,0)"/>
			<v:textRect cx="21.375" cy="99.2171" width="42.75" height="9.0459"/>
			<path d="M42.75 94.69 L0 94.69 L0 103.74 L42.75 103.74 L42.75 94.69" class="st6"/>
			<text x="9.29" y="102.22" class="st7" v:langID="1033"><v:paragraph v:horizAlign="1"/><v:tabList/>F = A        </text>		</g>
		<g id="shape109-250" v:mID="109" v:groupContext="shape" transform="translate(71.5575,-11.9096)">
			<title>Sheet.109</title>
			<desc>⊕</desc>
			<v:textBlock v:margins="rect(0,0,0,0)"/>
			<v:textRect cx="21.375" cy="101.49" width="42.75" height="4.5"/>
			<rect x="0" y="99.24" width="42.75" height="4.5" class="st9"/>
			<text x="17.38" y="104.49" class="st12" v:langID="1033"><v:paragraph v:horizAlign="1"/><v:tabList/>⊕</text>		</g>
		<g id="shape112-253" v:mID="112" v:groupContext="shape" transform="translate(81.12,-8.5116)">
			<title>Sheet.112</title>
			<desc>B</desc>
			<v:textBlock v:margins="rect(0,0,0,0)"/>
			<v:textRect cx="21.375" cy="99.2171" width="42.75" height="9.0459"/>
			<rect x="0" y="94.6941" width="42.75" height="9.0459" class="st9"/>
			<text x="18.04" y="102.22" class="st7" v:langID="1033"><v:paragraph v:horizAlign="1"/><v:tabList/>B</text>		</g>
		<g id="shape113-256" v:mID="113" v:groupContext="shape" transform="translate(176.745,-9.6366)">
			<title>Sheet.113</title>
			<desc>F = A</desc>
			<v:textBlock v:margins="rect(0,0,0,0)"/>
			<v:textRect cx="21.375" cy="99.2171" width="42.75" height="9.0459"/>
			<path d="M42.75 94.69 L0 94.69 L0 103.74 L42.75 103.74 L42.75 94.69" class="st6"/>
			<text x="9.29" y="102.22" class="st7" v:langID="1033"><v:paragraph v:horizAlign="1"/><v:tabList/>F = A        </text>		</g>
		<g id="shape114-260" v:mID="114" v:groupContext="shape" transform="translate(194.183,-13.0346)">
			<title>Sheet.114</title>
			<desc>⊕</desc>
			<v:textBlock v:margins="rect(0,0,0,0)"/>
			<v:textRect cx="21.375" cy="101.49" width="42.75" height="4.5"/>
			<rect x="0" y="99.24" width="42.75" height="4.5" class="st9"/>
			<text x="17.38" y="104.49" class="st12" v:langID="1033"><v:paragraph v:horizAlign="1"/><v:tabList/>⊕</text>		</g>
		<g id="shape115-263" v:mID="115" v:groupContext="shape" transform="translate(203.745,-9.6366)">
			<title>Sheet.115</title>
			<desc>B</desc>
			<v:textBlock v:margins="rect(0,0,0,0)"/>
			<v:textRect cx="21.375" cy="99.2171" width="42.75" height="9.0459"/>
			<rect x="0" y="94.6941" width="42.75" height="9.0459" class="st9"/>
			<text x="18.04" y="102.22" class="st7" v:langID="1033"><v:paragraph v:horizAlign="1"/><v:tabList/>B</text>		</g>
	</g>
</svg>
