<?xml version="1.0" encoding="UTF-8" standalone="no"?>
<!DOCTYPE svg PUBLIC "-//W3C//DTD SVG 1.1//EN" "http://www.w3.org/Graphics/SVG/1.1/DTD/svg11.dtd">
<!-- Generated by Microsoft Visio, SVG Export SRLatch.svg Page-1 -->
<svg xmlns="http://www.w3.org/2000/svg" xmlns:xlink="http://www.w3.org/1999/xlink" xmlns:ev="http://www.w3.org/2001/xml-events"
		xmlns:v="http://schemas.microsoft.com/visio/2003/SVGExtensions/" width="7.04125in" height="2.62604in"
		viewBox="0 0 506.97 189.075" xml:space="preserve" color-interpolation-filters="sRGB" class="st17">
	<v:documentProperties v:langID="1033" v:viewMarkup="false"/>

	<style type="text/css">
	<![CDATA[
		.st1 {fill:#fddeb0;stroke:#000000;stroke-linecap:round;stroke-linejoin:round;stroke-width:0.72}
		.st2 {stroke:#000000;stroke-linecap:round;stroke-linejoin:round;stroke-width:0.72}
		.st3 {stroke:#000000;stroke-linecap:round;stroke-linejoin:round;stroke-width:2.16}
		.st4 {fill:#d5e1fb;stroke:#000000;stroke-linecap:round;stroke-linejoin:round;stroke-width:0.72}
		.st5 {fill:none;stroke:none;stroke-linecap:round;stroke-linejoin:round;stroke-width:0.72}
		.st6 {fill:#000000;font-family:Arial;font-size:0.833336em}
		.st7 {fill:#dbeef3;stroke:#000000;stroke-linecap:round;stroke-linejoin:round;stroke-width:0.72}
		.st8 {fill:#ffffff;stroke:#000000;stroke-linecap:round;stroke-linejoin:round;stroke-width:0.72}
		.st9 {fill:#ffffff;stroke:#000000;stroke-linecap:round;stroke-linejoin:round;stroke-width:0.24}
		.st10 {stroke:#000000;stroke-dasharray:0,2.16;stroke-linecap:round;stroke-linejoin:round;stroke-width:0.72}
		.st11 {fill:#fddeb0;stroke:#000000;stroke-linecap:round;stroke-linejoin:round;stroke-width:0.24}
		.st12 {fill:#000000;font-family:Arial;font-size:0.833336em;font-weight:bold}
		.st13 {fill:#ffffff;stroke:#ffffff;stroke-linecap:round;stroke-linejoin:round;stroke-width:0.24}
		.st14 {fill:#000000;font-family:Arial;font-size:0.75em;font-weight:bold}
		.st15 {fill:#dbeef3;stroke:#000000;stroke-linecap:round;stroke-linejoin:round;stroke-width:0.24}
		.st16 {font-size:1em}
		.st17 {fill:none;fill-rule:evenodd;font-size:12px;overflow:visible;stroke-linecap:square;stroke-miterlimit:3}
	]]>
	</style>

	<g v:mID="0" v:index="1" v:groupContext="foregroundPage">
		<title>Page-1</title>
		<v:pageProperties v:drawingScale="1" v:pageScale="1" v:drawingUnits="19" v:shadowOffsetX="9" v:shadowOffsetY="-9"/>
		<g id="shape1-1" v:mID="1" v:groupContext="shape" transform="translate(140.985,-165.495)">
			<title>Sheet.1</title>
			<path d="M0 171.07 L13.75 171.07 A8.75 9 0 0 1 22.5 180.07 A7.5 9 0 0 1 15 189.07 L0 189.07 L0 171.07 Z" class="st1"/>
		</g>
		<g id="shape2-3" v:mID="2" v:groupContext="shape" transform="translate(181.485,226.155) rotate(180)">
			<title>Sheet.2</title>
			<path d="M0 189.07 L54 189.07" class="st2"/>
		</g>
		<g id="shape3-6" v:mID="3" v:groupContext="shape" transform="translate(140.985,208.155) rotate(180)">
			<title>Sheet.3</title>
			<path d="M0 189.07 L13.5 189.07" class="st2"/>
		</g>
		<g id="shape4-9" v:mID="4" v:groupContext="shape" transform="translate(163.485,-160.995)">
			<title>Sheet.4</title>
			<path d="M0 175.57 L4.5 175.57 L4.5 189.07 L18 189.07" class="st2"/>
		</g>
		<g id="shape5-12" v:mID="5" v:groupContext="shape" transform="translate(199.485,-156.495)">
			<title>Sheet.5</title>
			<path d="M0 189.07 L18 189.07 L21.37 189.07" class="st2"/>
		</g>
		<g id="shape6-15" v:mID="6" v:groupContext="shape" transform="translate(131.985,-156.495)">
			<title>Sheet.6</title>
			<path d="M76.5 189.07 L76.5 157.58 L0 157.58 L0 166.57 L9 166.57" class="st3"/>
		</g>
		<g id="shape7-18" v:mID="7" v:groupContext="shape" transform="translate(176.985,212.655) scale(1,-1)">
			<title>Sheet.7</title>
			<path d="M0 171.07 L0.91 173.5 L1.52 176.13 L1.82 178.76 L1.82 181.39 L1.52 184.02 L0.91 186.55 L0 189.07 L9.83 189.07
						 L12.06 188.57 L14.18 187.76 L16.31 186.65 L18.13 185.33 L19.86 183.72 L21.28 182 L22.59 180.07 L21.28 178.05
						 L19.86 176.33 L18.13 174.72 L16.31 173.4 L14.18 172.39 L12.06 171.58 L9.83 171.07 L0 171.07 Z" class="st1"/>
		</g>
		<g id="shape8-20" v:mID="8" v:groupContext="shape" transform="translate(207.922,-155.932)">
			<title>Circle.122</title>
			<path d="M0 188.51 a0.5625 0.5625 0 0 1 1.125 0 a0.5625 0.5625 0 1 1 -1.125 0 Z" class="st4"/>
		</g>
		<g id="shape9-22" v:mID="9" v:groupContext="shape" transform="translate(199.485,-154.245)">
			<title>Circle.123</title>
			<path d="M0 186.82 A2.25 2.25 0 0 1 4.5 186.82 A2.25 2.25 0 1 1 0 186.82 Z" class="st1"/>
		</g>
		<g id="shape10-24" v:mID="10" v:groupContext="shape" transform="translate(136.485,-176.745)">
			<title>Circle.124</title>
			<path d="M0 186.82 A2.25 2.25 0 0 1 4.5 186.82 A2.25 2.25 0 1 1 0 186.82 Z" class="st1"/>
		</g>
		<g id="shape11-26" v:mID="11" v:groupContext="shape" transform="translate(136.485,-167.745)">
			<title>Circle.125</title>
			<path d="M0 186.82 A2.25 2.25 0 0 1 4.5 186.82 A2.25 2.25 0 1 1 0 186.82 Z" class="st1"/>
		</g>
		<g id="shape12-28" v:mID="12" v:groupContext="shape" transform="translate(112.86,-160.995)">
			<title>Sheet.12</title>
			<desc>R</desc>
			<v:textBlock v:margins="rect(4,4,4,4)"/>
			<v:textRect cx="7.3125" cy="180.075" width="14.63" height="18"/>
			<rect x="0" y="171.075" width="14.625" height="18" class="st5"/>
			<text x="4" y="183.08" class="st6" v:langID="1033"><v:paragraph v:horizAlign="1"/><v:tabList/>R</text>		</g>
		<g id="shape13-31" v:mID="13" v:groupContext="shape" transform="translate(112.86,-142.995)">
			<title>Sheet.13</title>
			<desc>S</desc>
			<v:textBlock v:margins="rect(4,4,4,4)"/>
			<v:textRect cx="7.3125" cy="180.075" width="14.63" height="18"/>
			<rect x="0" y="171.075" width="14.625" height="18" class="st5"/>
			<text x="4" y="183.08" class="st6" v:langID="1033"><v:paragraph v:horizAlign="1"/><v:tabList/>S</text>		</g>
		<g id="shape14-34" v:mID="14" v:groupContext="shape" transform="translate(220.86,-151.995)">
			<title>Sheet.14</title>
			<desc>QN</desc>
			<v:textBlock v:margins="rect(4,4,4,4)"/>
			<v:textRect cx="13.5" cy="184.575" width="27" height="9"/>
			<rect x="0" y="180.075" width="27" height="9" class="st5"/>
			<text x="4" y="187.58" class="st6" v:langID="1033"><v:paragraph/><v:tabList/>QN</text>		</g>
		<g id="shape15-37" v:mID="15" v:groupContext="shape" transform="translate(296.235,-165.495)">
			<title>Sheet.15</title>
			<path d="M0 171.07 L13.75 171.07 A8.75 9 0 0 1 22.5 180.07 A7.5 9 0 0 1 15 189.07 L0 189.07 L0 171.07 Z" class="st7"/>
		</g>
		<g id="shape16-39" v:mID="16" v:groupContext="shape" transform="translate(336.735,226.155) rotate(180)">
			<title>Sheet.16</title>
			<path d="M0 189.07 L54 189.07" class="st2"/>
		</g>
		<g id="shape17-42" v:mID="17" v:groupContext="shape" transform="translate(296.235,208.155) rotate(180)">
			<title>Sheet.17</title>
			<path d="M0 189.07 L13.5 189.07" class="st2"/>
		</g>
		<g id="shape18-45" v:mID="18" v:groupContext="shape" transform="translate(322.11,-160.995)">
			<title>Sheet.18</title>
			<path d="M0 175.57 L3.66 175.57 L3.66 189.07 L14.62 189.07" class="st2"/>
		</g>
		<g id="shape19-48" v:mID="19" v:groupContext="shape" transform="translate(354.735,-156.495)">
			<title>Sheet.19</title>
			<path d="M0 189.07 L18 189.07" class="st2"/>
		</g>
		<g id="shape20-51" v:mID="20" v:groupContext="shape" transform="translate(287.235,-156.495)">
			<title>Sheet.20</title>
			<path d="M76.5 189.07 L76.5 157.58 L0 157.58 L0 166.57 L9 166.57" class="st3"/>
		</g>
		<g id="shape21-54" v:mID="21" v:groupContext="shape" transform="translate(337.768,212.655) scale(1,-1)">
			<title>Sheet.21</title>
			<path d="M0 171.07 L0.91 173.5 L1.52 176.13 L1.82 178.76 L1.82 181.39 L1.52 184.02 L0.91 186.55 L0 189.07 L9.83 189.07
						 L12.06 188.57 L14.18 187.76 L16.31 186.65 L18.13 185.33 L19.86 183.72 L21.28 182 L22.59 180.07 L21.28 178.05
						 L19.86 176.33 L18.13 174.72 L16.31 173.4 L14.18 172.39 L12.06 171.58 L9.83 171.07 L0 171.07 Z" class="st7"/>
		</g>
		<g id="shape22-56" v:mID="22" v:groupContext="shape" transform="translate(363.173,-155.932)">
			<title>Circle.22</title>
			<path d="M0 188.51 a0.5625 0.5625 0 0 1 1.125 0 a0.5625 0.5625 0 1 1 -1.125 0 Z" class="st8"/>
		</g>
		<g id="shape23-58" v:mID="23" v:groupContext="shape" transform="translate(334.485,-149.745)">
			<title>Circle.23</title>
			<path d="M0 186.82 A2.25 2.25 0 0 1 4.5 186.82 A2.25 2.25 0 1 1 0 186.82 Z" class="st7"/>
		</g>
		<g id="shape24-60" v:mID="24" v:groupContext="shape" transform="translate(318.735,-172.245)">
			<title>Circle.24</title>
			<path d="M0 186.82 A2.25 2.25 0 0 1 4.5 186.82 A2.25 2.25 0 1 1 0 186.82 Z" class="st7"/>
		</g>
		<g id="shape25-62" v:mID="25" v:groupContext="shape" transform="translate(268.11,-160.995)">
			<title>Sheet.25</title>
			<desc>R</desc>
			<v:textBlock v:margins="rect(4,4,4,4)"/>
			<v:textRect cx="7.3125" cy="180.075" width="14.63" height="18"/>
			<rect x="0" y="171.075" width="14.625" height="18" class="st5"/>
			<text x="4" y="183.08" class="st6" v:langID="1033"><v:paragraph v:horizAlign="1"/><v:tabList/>R</text>		</g>
		<g id="shape26-65" v:mID="26" v:groupContext="shape" transform="translate(268.11,-142.995)">
			<title>Sheet.26</title>
			<desc>S</desc>
			<v:textBlock v:margins="rect(4,4,4,4)"/>
			<v:textRect cx="7.3125" cy="180.075" width="14.63" height="18"/>
			<rect x="0" y="171.075" width="14.625" height="18" class="st5"/>
			<text x="4" y="183.08" class="st6" v:langID="1033"><v:paragraph v:horizAlign="1"/><v:tabList/>S</text>		</g>
		<g id="shape27-68" v:mID="27" v:groupContext="shape" transform="translate(334.485,-158.745)">
			<title>Circle.27</title>
			<path d="M0 186.82 A2.25 2.25 0 0 1 4.5 186.82 A2.25 2.25 0 1 1 0 186.82 Z" class="st7"/>
		</g>
		<g id="shape28-70" v:mID="28" v:groupContext="shape" transform="translate(171.36,-111.495)">
			<title>Circle.28</title>
			<path d="M0 186.82 A2.25 2.25 0 0 1 4.5 186.82 A2.25 2.25 0 1 1 0 186.82 Z" class="st1"/>
		</g>
		<g id="shape29-72" v:mID="29" v:groupContext="shape" transform="translate(144.36,-79.995)">
			<title>Circle.32</title>
			<path d="M0 186.82 A2.25 2.25 0 0 1 4.5 186.82 A2.25 2.25 0 1 1 0 186.82 Z" class="st4"/>
		</g>
		<g id="shape30-74" v:mID="30" v:groupContext="shape" transform="translate(144.36,-70.995)">
			<title>Circle.33</title>
			<path d="M0 186.82 A2.25 2.25 0 0 1 4.5 186.82 A2.25 2.25 0 1 1 0 186.82 Z" class="st1"/>
		</g>
		<g id="shape31-76" v:mID="31" v:groupContext="shape" transform="translate(175.86,-113.745)">
			<title>Sheet.31</title>
			<path d="M0 189.07 L27 189.07" class="st2"/>
		</g>
		<g id="shape32-79" v:mID="32" v:groupContext="shape" transform="translate(153.36,259.905) rotate(180)">
			<title>Sheet.32</title>
			<path d="M0 189.07 L22.5 189.07" class="st2"/>
		</g>
		<g id="shape33-82" v:mID="33" v:groupContext="shape" transform="translate(139.86,-82.245)">
			<title>Sheet.33</title>
			<path d="M45 157.58 L45 166.57 L0 180.07 L0 189.07 L4.5 189.07" class="st3"/>
		</g>
		<g id="shape34-85" v:mID="34" v:groupContext="shape" transform="translate(171.36,-77.745)">
			<title>Sheet.34</title>
			<path d="M0 189.07 L31.5 189.07" class="st2"/>
		</g>
		<g id="shape35-88" v:mID="35" v:groupContext="shape" transform="translate(139.86,-77.745)">
			<title>Sheet.35</title>
			<path d="M45 189.07 L45 180.07 L0 166.57 L0 157.58" class="st2"/>
		</g>
		<g id="shape36-91" v:mID="36" v:groupContext="shape" transform="translate(139.86,-109.245)">
			<title>Sheet.36</title>
			<path d="M0 189.07 L13.5 189.07" class="st2"/>
		</g>
		<g id="shape37-94" v:mID="37" v:groupContext="shape" transform="translate(144.36,304.905) rotate(180)">
			<title>Sheet.37</title>
			<path d="M0 189.07 L13.5 189.07" class="st2"/>
		</g>
		<g id="shape38-97" v:mID="38" v:groupContext="shape" transform="translate(148.86,255.405) scale(1,-1)">
			<title>Sheet.38</title>
			<path d="M0 171.07 L0.91 173.5 L1.52 176.13 L1.82 178.76 L1.82 181.39 L1.52 184.02 L0.91 186.55 L0 189.07 L9.83 189.07
						 L12.06 188.57 L14.18 187.76 L16.31 186.65 L18.13 185.33 L19.86 183.72 L21.28 182 L22.59 180.07 L21.28 178.05
						 L19.86 176.33 L18.13 174.72 L16.31 173.4 L14.18 172.39 L12.06 171.58 L9.83 171.07 L0 171.07 Z" class="st1"/>
		</g>
		<g id="shape39-99" v:mID="39" v:groupContext="shape" transform="translate(148.86,-68.745)">
			<title>Sheet.39</title>
			<path d="M0 171.07 L13.75 171.07 A8.75 9 0 0 1 22.5 180.07 A7.5 9 0 0 1 15 189.07 L0 189.07 L0 171.07 Z" class="st1"/>
		</g>
		<g id="shape40-101" v:mID="40" v:groupContext="shape" transform="translate(184.297,-113.182)">
			<title>Circle.40</title>
			<path d="M0 188.51 a0.5625 0.5625 0 0 1 1.125 0 a0.5625 0.5625 0 1 1 -1.125 0 Z" class="st4"/>
		</g>
		<g id="shape41-103" v:mID="41" v:groupContext="shape" transform="translate(183.735,-77.1825)">
			<title>Circle.42</title>
			<path d="M0 188.51 a0.5625 0.5625 0 0 1 1.125 0 a0.5625 0.5625 0 1 1 -1.125 0 Z" class="st4"/>
		</g>
		<g id="shape42-105" v:mID="42" v:groupContext="shape" transform="translate(202.86,-73.245)">
			<title>Sheet.42</title>
			<desc>Q</desc>
			<v:textBlock v:margins="rect(4,4,4,4)"/>
			<v:textRect cx="7.3125" cy="184.575" width="14.63" height="9"/>
			<rect x="0" y="180.075" width="14.625" height="9" class="st5"/>
			<text x="4" y="187.58" class="st6" v:langID="1033"><v:paragraph v:horizAlign="1"/><v:tabList/>Q</text>		</g>
		<g id="shape43-108" v:mID="43" v:groupContext="shape" transform="translate(202.86,-109.245)">
			<title>Sheet.43</title>
			<desc>QN</desc>
			<v:textBlock v:margins="rect(4,4,4,4)"/>
			<v:textRect cx="13.5" cy="184.575" width="27" height="9"/>
			<rect x="0" y="180.075" width="27" height="9" class="st5"/>
			<text x="6" y="187.58" class="st6" v:langID="1033"><v:paragraph v:horizAlign="1"/><v:tabList/>QN</text>		</g>
		<g id="shape44-111" v:mID="44" v:groupContext="shape" transform="translate(116.235,-109.245)">
			<title>Sheet.44</title>
			<desc>S</desc>
			<v:textBlock v:margins="rect(4,4,4,4)"/>
			<v:textRect cx="7.3125" cy="180.075" width="14.63" height="18"/>
			<rect x="0" y="171.075" width="14.625" height="18" class="st5"/>
			<text x="4" y="183.08" class="st6" v:langID="1033"><v:paragraph v:horizAlign="1"/><v:tabList/>S</text>		</g>
		<g id="shape45-114" v:mID="45" v:groupContext="shape" transform="translate(116.235,-64.245)">
			<title>Sheet.45</title>
			<desc>R</desc>
			<v:textBlock v:margins="rect(4,4,4,4)"/>
			<v:textRect cx="7.3125" cy="180.075" width="14.63" height="18"/>
			<rect x="0" y="171.075" width="14.625" height="18" class="st5"/>
			<text x="4" y="183.08" class="st6" v:langID="1033"><v:paragraph v:horizAlign="1"/><v:tabList/>R</text>		</g>
		<g id="shape46-117" v:mID="46" v:groupContext="shape" transform="translate(346.935,59.58) rotate(90) scale(-1,1)">
			<title>60 degree single</title>
			<path d="M0 180.07 L5.2 171.07 L5.2 177.01 L13.5 177.01 L13.5 183.14 L5.2 183.14 L5.2 189.07 L0 180.07 Z" class="st9"/>
		</g>
		<g id="shape47-119" v:mID="47" v:groupContext="shape" transform="translate(307.485,-106.995)">
			<title>Circle.47</title>
			<path d="M0 186.82 A2.25 2.25 0 0 1 4.5 186.82 A2.25 2.25 0 1 1 0 186.82 Z" class="st7"/>
		</g>
		<g id="shape48-121" v:mID="48" v:groupContext="shape" transform="translate(307.485,-115.995)">
			<title>Circle.50</title>
			<path d="M0 186.82 A2.25 2.25 0 0 1 4.5 186.82 A2.25 2.25 0 1 1 0 186.82 Z" class="st7"/>
		</g>
		<g id="shape49-123" v:mID="49" v:groupContext="shape" transform="translate(333.36,-75.495)">
			<title>Circle.52</title>
			<path d="M0 186.82 A2.25 2.25 0 0 1 4.5 186.82 A2.25 2.25 0 1 1 0 186.82 Z" class="st7"/>
		</g>
		<g id="shape50-125" v:mID="50" v:groupContext="shape" transform="translate(333.36,-113.745)">
			<title>Sheet.50</title>
			<path d="M0 189.07 L27 189.07" class="st2"/>
		</g>
		<g id="shape51-128" v:mID="51" v:groupContext="shape" transform="translate(307.485,259.905) rotate(180)">
			<title>Sheet.51</title>
			<path d="M0 189.07 L14.62 189.07" class="st2"/>
		</g>
		<g id="shape52-131" v:mID="52" v:groupContext="shape" transform="translate(301.86,-82.245)">
			<title>Sheet.52</title>
			<path d="M45 157.58 L45 166.57 L0 180.07 L0 189.07 L9 189.07" class="st3"/>
		</g>
		<g id="shape53-134" v:mID="53" v:groupContext="shape" transform="translate(337.86,-77.745)">
			<title>Sheet.53</title>
			<path d="M0 189.07 L22.5 189.07" class="st2"/>
		</g>
		<g id="shape54-137" v:mID="54" v:groupContext="shape" transform="translate(301.86,-77.745)">
			<title>Sheet.54</title>
			<path d="M45 189.07 L45 180.07 L0 166.57 L0 157.58" class="st2"/>
		</g>
		<g id="shape55-140" v:mID="55" v:groupContext="shape" transform="translate(310.86,304.905) rotate(180)">
			<title>Sheet.55</title>
			<path d="M0 189.07 L18 189.07" class="st2"/>
		</g>
		<g id="shape56-143" v:mID="56" v:groupContext="shape" transform="translate(360.36,-109.245)">
			<title>Sheet.56</title>
			<desc>Q</desc>
			<v:textBlock v:margins="rect(4,4,4,4)"/>
			<v:textRect cx="7.3125" cy="184.575" width="14.63" height="9"/>
			<rect x="0" y="180.075" width="14.625" height="9" class="st5"/>
			<text x="4" y="187.58" class="st6" v:langID="1033"><v:paragraph v:horizAlign="1"/><v:tabList/>Q</text>		</g>
		<g id="shape57-146" v:mID="57" v:groupContext="shape" transform="translate(360.36,-73.245)">
			<title>Sheet.57</title>
			<desc>QN</desc>
			<v:textBlock v:margins="rect(4,4,4,4)"/>
			<v:textRect cx="13.5" cy="184.575" width="27" height="9"/>
			<rect x="0" y="180.075" width="27" height="9" class="st5"/>
			<text x="6" y="187.58" class="st6" v:langID="1033"><v:paragraph v:horizAlign="1"/><v:tabList/>QN</text>		</g>
		<g id="shape58-149" v:mID="58" v:groupContext="shape" transform="translate(278.235,-109.245)">
			<title>Sheet.58</title>
			<desc>S</desc>
			<v:textBlock v:margins="rect(4,4,4,4)"/>
			<v:textRect cx="7.3125" cy="180.075" width="14.63" height="18"/>
			<rect x="0" y="171.075" width="14.625" height="18" class="st5"/>
			<text x="4" y="183.08" class="st6" v:langID="1033"><v:paragraph v:horizAlign="1"/><v:tabList/>S</text>		</g>
		<g id="shape59-152" v:mID="59" v:groupContext="shape" transform="translate(278.235,-64.245)">
			<title>Sheet.59</title>
			<desc>R</desc>
			<v:textBlock v:margins="rect(4,4,4,4)"/>
			<v:textRect cx="7.3125" cy="180.075" width="14.63" height="18"/>
			<rect x="0" y="171.075" width="14.625" height="18" class="st5"/>
			<text x="4" y="183.08" class="st6" v:langID="1033"><v:paragraph v:horizAlign="1"/><v:tabList/>R</text>		</g>
		<g id="shape60-155" v:mID="60" v:groupContext="shape" transform="translate(301.86,-109.245)">
			<title>Sheet.60</title>
			<path d="M0 189.07 L5.62 189.07" class="st2"/>
		</g>
		<g id="shape61-158" v:mID="61" v:groupContext="shape" transform="translate(310.768,255.405) scale(1,-1)">
			<title>Sheet.61</title>
			<path d="M0 171.07 L0.91 173.5 L1.52 176.13 L1.82 178.76 L1.82 181.39 L1.52 184.02 L0.91 186.55 L0 189.07 L9.83 189.07
						 L12.06 188.57 L14.18 187.76 L16.31 186.65 L18.13 185.33 L19.86 183.72 L21.28 182 L22.59 180.07 L21.28 178.05
						 L19.86 176.33 L18.13 174.72 L16.31 173.4 L14.18 172.39 L12.06 171.58 L9.83 171.07 L0 171.07 Z" class="st7"/>
		</g>
		<g id="shape62-160" v:mID="62" v:groupContext="shape" transform="translate(310.86,-68.745)">
			<title>Sheet.62</title>
			<path d="M0 171.07 L13.75 171.07 A8.75 9 0 0 1 22.5 180.07 A7.5 9 0 0 1 15 189.07 L0 189.07 L0 171.07 Z" class="st7"/>
		</g>
		<g id="shape63-162" v:mID="63" v:groupContext="shape" transform="translate(346.579,-113.182)">
			<title>Circle.63</title>
			<path d="M0 188.51 a0.5625 0.5625 0 0 1 1.125 0 a0.5625 0.5625 0 1 1 -1.125 0 Z" class="st1"/>
		</g>
		<g id="shape64-164" v:mID="64" v:groupContext="shape" transform="translate(346.016,-77.1825)">
			<title>Circle.65</title>
			<path d="M0 188.51 a0.5625 0.5625 0 0 1 1.125 0 a0.5625 0.5625 0 1 1 -1.125 0 Z" class="st1"/>
		</g>
		<g id="shape65-166" v:mID="65" v:groupContext="shape" transform="translate(504.435,59.58) rotate(90) scale(-1,1)">
			<title>60 degree single.66</title>
			<path d="M0 180.07 L5.2 171.07 L5.2 177.01 L13.5 177.01 L13.5 183.14 L5.2 183.14 L5.2 189.07 L0 180.07 Z" class="st9"/>
		</g>
		<g id="shape66-168" v:mID="66" v:groupContext="shape" transform="translate(166.86,-174.495)">
			<title>Sheet.66</title>
			<path d="M0 189.07 L54 189.07" class="st10"/>
		</g>
		<g id="shape67-171" v:mID="67" v:groupContext="shape" transform="translate(220.86,-169.995)">
			<title>Sheet.67</title>
			<desc>Q</desc>
			<v:textBlock v:margins="rect(4,4,4,4)"/>
			<v:textRect cx="9" cy="184.575" width="18" height="9"/>
			<rect x="0" y="180.075" width="18" height="9" class="st5"/>
			<text x="4" y="187.58" class="st6" v:langID="1033"><v:paragraph/><v:tabList/>Q</text>		</g>
		<g id="shape68-174" v:mID="68" v:groupContext="shape" transform="translate(323.235,-174.495)">
			<title>Sheet.68</title>
			<path d="M0 189.07 L54 189.07" class="st10"/>
		</g>
		<g id="shape69-177" v:mID="69" v:groupContext="shape" transform="translate(373.86,-172.245)">
			<title>Sheet.69</title>
			<desc>QN</desc>
			<v:textBlock v:margins="rect(4,4,4,4)"/>
			<v:textRect cx="13.5" cy="184.575" width="27" height="9"/>
			<rect x="0" y="180.075" width="27" height="9" class="st5"/>
			<text x="4" y="187.58" class="st6" v:langID="1033"><v:paragraph/><v:tabList/>QN</text>		</g>
		<g id="shape70-180" v:mID="70" v:groupContext="shape" transform="translate(373.86,-151.995)">
			<title>Sheet.70</title>
			<desc>Q</desc>
			<v:textBlock v:margins="rect(4,4,4,4)"/>
			<v:textRect cx="9" cy="184.575" width="18" height="9"/>
			<rect x="0" y="180.075" width="18" height="9" class="st5"/>
			<text x="4" y="187.58" class="st6" v:langID="1033"><v:paragraph/><v:tabList/>Q</text>		</g>
		<g id="shape71-183" v:mID="71" v:groupContext="shape" transform="translate(148.86,-0.12)">
			<title>Rectangle</title>
			<rect x="0" y="146.325" width="36" height="42.75" class="st11"/>
		</g>
		<g id="shape72-185" v:mID="72" v:groupContext="shape" transform="translate(148.86,346.53) rotate(180)">
			<title>Sheet.72</title>
			<path d="M0 189.07 L9 189.07" class="st2"/>
		</g>
		<g id="shape73-188" v:mID="73" v:groupContext="shape" transform="translate(147.172,-27.12)">
			<title>Sheet.73</title>
			<desc>S</desc>
			<v:textBlock v:margins="rect(4,4,4,4)"/>
			<v:textRect cx="7.3125" cy="184.575" width="14.63" height="9"/>
			<rect x="0" y="180.075" width="14.625" height="9" class="st5"/>
			<text x="4" y="187.58" class="st6" v:langID="1033"><v:paragraph/><v:tabList/>S</text>		</g>
		<g id="shape74-191" v:mID="74" v:groupContext="shape" transform="translate(148.86,369.03) rotate(180)">
			<title>Sheet.74</title>
			<path d="M0 189.07 L9 189.07" class="st2"/>
		</g>
		<g id="shape75-194" v:mID="75" v:groupContext="shape" transform="translate(147.172,-4.62)">
			<title>Sheet.75</title>
			<desc>R</desc>
			<v:textBlock v:margins="rect(4,4,4,4)"/>
			<v:textRect cx="7.3125" cy="184.575" width="14.63" height="9"/>
			<rect x="0" y="180.075" width="14.625" height="9" class="st5"/>
			<text x="4" y="187.58" class="st6" v:langID="1033"><v:paragraph/><v:tabList/>R</text>		</g>
		<g id="shape76-197" v:mID="76" v:groupContext="shape" transform="translate(193.86,346.53) rotate(180)">
			<title>Sheet.76</title>
			<path d="M0 189.07 L9 189.07" class="st2"/>
		</g>
		<g id="shape77-200" v:mID="77" v:groupContext="shape" transform="translate(170.797,-27.12)">
			<title>Sheet.77</title>
			<desc>Q</desc>
			<v:textBlock v:margins="rect(4,4,4,4)"/>
			<v:textRect cx="7.875" cy="184.575" width="15.75" height="9"/>
			<rect x="0" y="180.075" width="15.75" height="9" class="st5"/>
			<text x="4" y="187.58" class="st6" v:langID="1033"><v:paragraph v:horizAlign="2"/><v:tabList/>Q</text>		</g>
		<g id="shape78-203" v:mID="78" v:groupContext="shape" transform="translate(162.36,-4.62)">
			<title>Sheet.78</title>
			<desc>QN</desc>
			<v:textBlock v:margins="rect(4,4,4,4)"/>
			<v:textRect cx="12.375" cy="184.575" width="24.75" height="9"/>
			<rect x="0" y="180.075" width="24.75" height="9" class="st5"/>
			<text x="5.75" y="187.58" class="st6" v:langID="1033"><v:paragraph v:horizAlign="2"/><v:tabList/>QN</text>		</g>
		<g id="shape79-206" v:mID="79" v:groupContext="shape" transform="translate(306.36,345.967) rotate(180)">
			<title>Sheet.79</title>
			<path d="M0 189.07 L9 189.07" class="st2"/>
		</g>
		<g id="shape80-209" v:mID="80" v:groupContext="shape" transform="translate(306.36,368.467) rotate(180)">
			<title>Sheet.80</title>
			<path d="M0 189.07 L9 189.07" class="st2"/>
		</g>
		<g id="shape81-212" v:mID="81" v:groupContext="shape" transform="translate(351.36,345.967) rotate(180)">
			<title>Sheet.81</title>
			<path d="M0 189.07 L9 189.07" class="st2"/>
		</g>
		<g id="shape82-215" v:mID="82" v:groupContext="shape" transform="translate(351.36,369.03) rotate(180)">
			<title>Sheet.82</title>
			<path d="M0 189.07 L9 189.07" class="st2"/>
		</g>
		<g id="shape83-218" v:mID="83" v:groupContext="shape" transform="translate(301.298,-29.9325)">
			<title>Circle.111</title>
			<path d="M0 186.82 A2.25 2.25 0 0 1 4.5 186.82 A2.25 2.25 0 1 1 0 186.82 Z" class="st8"/>
		</g>
		<g id="shape84-220" v:mID="84" v:groupContext="shape" transform="translate(301.298,-7.4325)">
			<title>Circle.112</title>
			<path d="M0 186.82 A2.25 2.25 0 0 1 4.5 186.82 A2.25 2.25 0 1 1 0 186.82 Z" class="st8"/>
		</g>
		<g id="shape85-222" v:mID="85" v:groupContext="shape" transform="translate(342.923,-6.87)">
			<title>Circle.113</title>
			<path d="M0 186.82 A2.25 2.25 0 0 1 4.5 186.82 A2.25 2.25 0 1 1 0 186.82 Z" class="st8"/>
		</g>
		<g id="shape86-224" v:mID="86" v:groupContext="shape" transform="translate(346.935,138.33) rotate(90) scale(-1,1)">
			<title>60 degree single.114</title>
			<path d="M0 180.07 L5.2 171.07 L5.2 177.01 L13.5 177.01 L13.5 183.14 L5.2 183.14 L5.2 189.07 L0 180.07 Z" class="st9"/>
		</g>
		<g id="shape87-226" v:mID="87" v:groupContext="shape" transform="translate(504.435,138.33) rotate(90) scale(-1,1)">
			<title>60 degree single.115</title>
			<path d="M0 180.07 L5.2 171.07 L5.2 177.01 L13.5 177.01 L13.5 183.14 L5.2 183.14 L5.2 189.07 L0 180.07 Z" class="st9"/>
		</g>
		<g id="shape88-228" v:mID="88" v:groupContext="shape" transform="translate(4.86,-10.245)">
			<title>Sheet.88</title>
			<desc>NOR Basic Cell</desc>
			<v:textBlock v:margins="rect(4,4,4,4)"/>
			<v:textRect cx="45" cy="175.575" width="90" height="27"/>
			<rect x="0" y="162.075" width="90" height="27" class="st5"/>
			<text x="4" y="178.58" class="st12" v:langID="1033"><v:paragraph/><v:tabList/>NOR Basic Cell</text>		</g>
		<g id="shape89-231" v:mID="89" v:groupContext="shape" transform="translate(407.61,-10.245)">
			<title>Sheet.89</title>
			<desc>NAND Basic Cell</desc>
			<v:textBlock v:margins="rect(4,4,4,4)"/>
			<v:textRect cx="43.875" cy="175.575" width="87.75" height="27"/>
			<rect x="0" y="162.075" width="87.75" height="27" class="st5"/>
			<text x="4" y="178.58" class="st12" v:langID="1033"><v:paragraph/><v:tabList/>NAND Basic Cell</text>		</g>
		<g id="shape90-234" v:mID="90" v:groupContext="shape" transform="translate(7.11,-158.745)">
			<title>Rectangle.90</title>
			<desc>0</desc>
			<v:textBlock v:margins="rect(4,2,4,2)"/>
			<v:textRect cx="9" cy="184.575" width="18" height="9"/>
			<rect x="0" y="180.075" width="18" height="9" class="st13"/>
			<text x="6.22" y="187.58" class="st6" v:langID="1033"><v:paragraph v:horizAlign="1"/><v:tabList/>0</text>		</g>
		<g id="shape91-237" v:mID="91" v:groupContext="shape" transform="translate(7.11,-147.495)">
			<title>Rectangle.91</title>
			<desc>0</desc>
			<v:textBlock v:margins="rect(4,2,4,2)"/>
			<v:textRect cx="9" cy="184.575" width="18" height="9"/>
			<rect x="0" y="180.075" width="18" height="9" class="st13"/>
			<text x="6.22" y="187.58" class="st6" v:langID="1033"><v:paragraph v:horizAlign="1"/><v:tabList/>0</text>		</g>
		<g id="shape92-240" v:mID="92" v:groupContext="shape" transform="translate(7.11,-136.245)">
			<title>Rectangle.92</title>
			<desc>1</desc>
			<v:textBlock v:margins="rect(4,0,4,0)"/>
			<v:textRect cx="9" cy="184.575" width="18" height="9"/>
			<rect x="0" y="180.075" width="18" height="9" class="st13"/>
			<text x="6.22" y="187.58" class="st6" v:langID="1033"><v:paragraph v:horizAlign="1"/><v:tabList/>1</text>		</g>
		<g id="shape93-243" v:mID="93" v:groupContext="shape" transform="translate(7.11,-124.995)">
			<title>Rectangle.93</title>
			<desc>1</desc>
			<v:textBlock v:margins="rect(4,0,4,0)"/>
			<v:textRect cx="9" cy="184.575" width="18" height="9"/>
			<rect x="0" y="180.075" width="18" height="9" class="st13"/>
			<text x="6.22" y="187.58" class="st6" v:langID="1033"><v:paragraph v:horizAlign="1"/><v:tabList/>1</text>		</g>
		<g id="shape94-246" v:mID="94" v:groupContext="shape" transform="translate(27.36,-158.745)">
			<title>Rectangle.94</title>
			<desc>0</desc>
			<v:textBlock v:margins="rect(4,2,4,2)"/>
			<v:textRect cx="9" cy="184.575" width="18" height="9"/>
			<rect x="0" y="180.075" width="18" height="9" class="st13"/>
			<text x="6.22" y="187.58" class="st6" v:langID="1033"><v:paragraph v:horizAlign="1"/><v:tabList/>0</text>		</g>
		<g id="shape95-249" v:mID="95" v:groupContext="shape" transform="translate(27.36,-136.245)">
			<title>Rectangle.95</title>
			<desc>0</desc>
			<v:textBlock v:margins="rect(4,2,4,2)"/>
			<v:textRect cx="9" cy="184.575" width="18" height="9"/>
			<rect x="0" y="180.075" width="18" height="9" class="st13"/>
			<text x="6.22" y="187.58" class="st6" v:langID="1033"><v:paragraph v:horizAlign="1"/><v:tabList/>0</text>		</g>
		<g id="shape96-252" v:mID="96" v:groupContext="shape" transform="translate(27.36,-147.495)">
			<title>Rectangle.96</title>
			<desc>1</desc>
			<v:textBlock v:margins="rect(4,0,4,0)"/>
			<v:textRect cx="9" cy="184.575" width="18" height="9"/>
			<rect x="0" y="180.075" width="18" height="9" class="st13"/>
			<text x="6.22" y="187.58" class="st6" v:langID="1033"><v:paragraph v:horizAlign="1"/><v:tabList/>1</text>		</g>
		<g id="shape97-255" v:mID="97" v:groupContext="shape" transform="translate(27.36,-124.995)">
			<title>Rectangle.97</title>
			<desc>1</desc>
			<v:textBlock v:margins="rect(4,0,4,0)"/>
			<v:textRect cx="9" cy="184.575" width="18" height="9"/>
			<rect x="0" y="180.075" width="18" height="9" class="st13"/>
			<text x="6.22" y="187.58" class="st6" v:langID="1033"><v:paragraph v:horizAlign="1"/><v:tabList/>1</text>		</g>
		<g id="shape98-258" v:mID="98" v:groupContext="shape" transform="translate(49.86,-136.245)">
			<title>Rectangle.98</title>
			<desc>1</desc>
			<v:textBlock v:margins="rect(4,0,4,0)"/>
			<v:textRect cx="9" cy="184.575" width="18" height="9"/>
			<rect x="0" y="180.075" width="18" height="9" class="st13"/>
			<text x="6.22" y="187.58" class="st6" v:langID="1033"><v:paragraph v:horizAlign="1"/><v:tabList/>1</text>		</g>
		<g id="shape99-261" v:mID="99" v:groupContext="shape" transform="translate(49.86,-147.495)">
			<title>Rectangle.99</title>
			<desc>0</desc>
			<v:textBlock v:margins="rect(4,0,4,0)"/>
			<v:textRect cx="9" cy="184.575" width="18" height="9"/>
			<rect x="0" y="180.075" width="18" height="9" class="st13"/>
			<text x="6.22" y="187.58" class="st6" v:langID="1033"><v:paragraph v:horizAlign="1"/><v:tabList/>0</text>		</g>
		<g id="shape100-264" v:mID="100" v:groupContext="shape" transform="translate(7.11,-172.245)">
			<title>Rectangle.134</title>
			<desc>S</desc>
			<v:textBlock v:margins="rect(4,2,4,2)"/>
			<v:textRect cx="9" cy="184.575" width="18" height="9"/>
			<rect x="0" y="180.075" width="18" height="9" class="st13"/>
			<text x="5.66" y="187.58" class="st6" v:langID="1033"><v:paragraph v:horizAlign="1"/><v:tabList/>S</text>		</g>
		<g id="shape101-267" v:mID="101" v:groupContext="shape" transform="translate(27.36,-172.245)">
			<title>Rectangle.135</title>
			<desc>R</desc>
			<v:textBlock v:margins="rect(4,2,4,2)"/>
			<v:textRect cx="9" cy="184.575" width="18" height="9"/>
			<rect x="0" y="180.075" width="18" height="9" class="st13"/>
			<text x="5.39" y="187.58" class="st6" v:langID="1033"><v:paragraph v:horizAlign="1"/><v:tabList/>R</text>		</g>
		<g id="shape102-270" v:mID="102" v:groupContext="shape" transform="translate(49.86,-172.245)">
			<title>Rectangle.136</title>
			<desc>Q</desc>
			<v:textBlock v:margins="rect(4,2,4,2)"/>
			<v:textRect cx="9" cy="184.575" width="18" height="9"/>
			<rect x="0" y="180.075" width="18" height="9" class="st13"/>
			<text x="5.11" y="187.58" class="st6" v:langID="1033"><v:paragraph v:horizAlign="1"/><v:tabList/>Q</text>		</g>
		<g id="shape103-273" v:mID="103" v:groupContext="shape" transform="translate(68.985,-172.245)">
			<title>Rectangle.137</title>
			<desc>QN</desc>
			<v:textBlock v:margins="rect(4,2,4,2)"/>
			<v:textRect cx="10.125" cy="184.575" width="20.25" height="9"/>
			<rect x="0" y="180.075" width="20.25" height="9" class="st13"/>
			<text x="2.62" y="187.58" class="st6" v:langID="1033"><v:paragraph v:horizAlign="1"/><v:tabList/>QN</text>		</g>
		<g id="shape104-276" v:mID="104" v:groupContext="shape" transform="translate(7.11,-169.995)">
			<title>Sheet.104</title>
			<path d="M0 189.07 L83.25 189.07" class="st2"/>
		</g>
		<g id="shape105-279" v:mID="105" v:groupContext="shape" transform="translate(236.685,7.83) rotate(90)">
			<title>Sheet.105</title>
			<path d="M0 189.07 L56.25 189.07" class="st2"/>
		</g>
		<g id="shape106-282" v:mID="106" v:groupContext="shape" transform="translate(70.11,-136.245)">
			<title>Rectangle.106</title>
			<desc>0</desc>
			<v:textBlock v:margins="rect(4,0,4,0)"/>
			<v:textRect cx="9" cy="184.575" width="18" height="9"/>
			<rect x="0" y="180.075" width="18" height="9" class="st13"/>
			<text x="6.22" y="187.58" class="st6" v:langID="1033"><v:paragraph v:horizAlign="1"/><v:tabList/>0</text>		</g>
		<g id="shape107-285" v:mID="107" v:groupContext="shape" transform="translate(49.86,-124.995)">
			<title>Rectangle.140</title>
			<desc>0</desc>
			<v:textBlock v:margins="rect(4,0,4,0)"/>
			<v:textRect cx="9" cy="184.575" width="18" height="9"/>
			<rect x="0" y="180.075" width="18" height="9" class="st13"/>
			<text x="6.22" y="187.58" class="st6" v:langID="1033"><v:paragraph v:horizAlign="1"/><v:tabList/>0</text>		</g>
		<g id="shape108-288" v:mID="108" v:groupContext="shape" transform="translate(70.11,-124.995)">
			<title>Rectangle.141</title>
			<desc>0</desc>
			<v:textBlock v:margins="rect(4,0,4,0)"/>
			<v:textRect cx="9" cy="184.575" width="18" height="9"/>
			<rect x="0" y="180.075" width="18" height="9" class="st13"/>
			<text x="6.22" y="187.58" class="st6" v:langID="1033"><v:paragraph v:horizAlign="1"/><v:tabList/>0</text>		</g>
		<g id="shape109-291" v:mID="109" v:groupContext="shape" transform="translate(49.86,-158.745)">
			<title>Rectangle.109</title>
			<desc>HOLD</desc>
			<v:textBlock v:margins="rect(4,0,4,0)"/>
			<v:textRect cx="19.125" cy="184.575" width="38.25" height="9"/>
			<rect x="0" y="180.075" width="38.25" height="9" class="st13"/>
			<text x="6.38" y="187.28" class="st14" v:langID="1033"><v:paragraph v:horizAlign="1"/><v:tabList/>HOLD</text>		</g>
		<g id="shape110-294" v:mID="110" v:groupContext="shape" transform="translate(70.11,-147.495)">
			<title>Rectangle.127</title>
			<desc>1</desc>
			<v:textBlock v:margins="rect(4,0,4,0)"/>
			<v:textRect cx="9" cy="184.575" width="18" height="9"/>
			<rect x="0" y="180.075" width="18" height="9" class="st13"/>
			<text x="6.22" y="187.58" class="st6" v:langID="1033"><v:paragraph v:horizAlign="1"/><v:tabList/>1</text>		</g>
		<g id="shape111-297" v:mID="111" v:groupContext="shape" transform="translate(410.985,-158.745)">
			<title>Rectangle.142</title>
			<desc>0</desc>
			<v:textBlock v:margins="rect(4,2,4,2)"/>
			<v:textRect cx="9" cy="184.575" width="18" height="9"/>
			<rect x="0" y="180.075" width="18" height="9" class="st13"/>
			<text x="6.22" y="187.58" class="st6" v:langID="1033"><v:paragraph v:horizAlign="1"/><v:tabList/>0</text>		</g>
		<g id="shape112-300" v:mID="112" v:groupContext="shape" transform="translate(410.985,-147.495)">
			<title>Rectangle.143</title>
			<desc>0</desc>
			<v:textBlock v:margins="rect(4,2,4,2)"/>
			<v:textRect cx="9" cy="184.575" width="18" height="9"/>
			<rect x="0" y="180.075" width="18" height="9" class="st13"/>
			<text x="6.22" y="187.58" class="st6" v:langID="1033"><v:paragraph v:horizAlign="1"/><v:tabList/>0</text>		</g>
		<g id="shape113-303" v:mID="113" v:groupContext="shape" transform="translate(410.985,-136.245)">
			<title>Rectangle.144</title>
			<desc>1</desc>
			<v:textBlock v:margins="rect(4,0,4,0)"/>
			<v:textRect cx="9" cy="184.575" width="18" height="9"/>
			<rect x="0" y="180.075" width="18" height="9" class="st13"/>
			<text x="6.22" y="187.58" class="st6" v:langID="1033"><v:paragraph v:horizAlign="1"/><v:tabList/>1</text>		</g>
		<g id="shape114-306" v:mID="114" v:groupContext="shape" transform="translate(410.985,-124.995)">
			<title>Rectangle.145</title>
			<desc>1</desc>
			<v:textBlock v:margins="rect(4,0,4,0)"/>
			<v:textRect cx="9" cy="184.575" width="18" height="9"/>
			<rect x="0" y="180.075" width="18" height="9" class="st13"/>
			<text x="6.22" y="187.58" class="st6" v:langID="1033"><v:paragraph v:horizAlign="1"/><v:tabList/>1</text>		</g>
		<g id="shape115-309" v:mID="115" v:groupContext="shape" transform="translate(431.235,-158.745)">
			<title>Rectangle.146</title>
			<desc>0</desc>
			<v:textBlock v:margins="rect(4,2,4,2)"/>
			<v:textRect cx="9" cy="184.575" width="18" height="9"/>
			<rect x="0" y="180.075" width="18" height="9" class="st13"/>
			<text x="6.22" y="187.58" class="st6" v:langID="1033"><v:paragraph v:horizAlign="1"/><v:tabList/>0</text>		</g>
		<g id="shape116-312" v:mID="116" v:groupContext="shape" transform="translate(431.235,-136.245)">
			<title>Rectangle.147</title>
			<desc>0</desc>
			<v:textBlock v:margins="rect(4,2,4,2)"/>
			<v:textRect cx="9" cy="184.575" width="18" height="9"/>
			<rect x="0" y="180.075" width="18" height="9" class="st13"/>
			<text x="6.22" y="187.58" class="st6" v:langID="1033"><v:paragraph v:horizAlign="1"/><v:tabList/>0</text>		</g>
		<g id="shape117-315" v:mID="117" v:groupContext="shape" transform="translate(431.235,-147.495)">
			<title>Rectangle.148</title>
			<desc>1</desc>
			<v:textBlock v:margins="rect(4,0,4,0)"/>
			<v:textRect cx="9" cy="184.575" width="18" height="9"/>
			<rect x="0" y="180.075" width="18" height="9" class="st13"/>
			<text x="6.22" y="187.58" class="st6" v:langID="1033"><v:paragraph v:horizAlign="1"/><v:tabList/>1</text>		</g>
		<g id="shape118-318" v:mID="118" v:groupContext="shape" transform="translate(431.235,-124.995)">
			<title>Rectangle.149</title>
			<desc>1</desc>
			<v:textBlock v:margins="rect(4,0,4,0)"/>
			<v:textRect cx="9" cy="184.575" width="18" height="9"/>
			<rect x="0" y="180.075" width="18" height="9" class="st13"/>
			<text x="6.22" y="187.58" class="st6" v:langID="1033"><v:paragraph v:horizAlign="1"/><v:tabList/>1</text>		</g>
		<g id="shape119-321" v:mID="119" v:groupContext="shape" transform="translate(473.985,-147.495)">
			<title>Rectangle.150</title>
			<desc>0</desc>
			<v:textBlock v:margins="rect(4,2,4,2)"/>
			<v:textRect cx="9" cy="184.575" width="18" height="9"/>
			<rect x="0" y="180.075" width="18" height="9" class="st13"/>
			<text x="6.22" y="187.58" class="st6" v:langID="1033"><v:paragraph v:horizAlign="1"/><v:tabList/>0</text>		</g>
		<g id="shape120-324" v:mID="120" v:groupContext="shape" transform="translate(453.735,-136.245)">
			<title>Rectangle.151</title>
			<desc>0</desc>
			<v:textBlock v:margins="rect(4,0,4,0)"/>
			<v:textRect cx="9" cy="184.575" width="18" height="9"/>
			<rect x="0" y="180.075" width="18" height="9" class="st13"/>
			<text x="6.22" y="187.58" class="st6" v:langID="1033"><v:paragraph v:horizAlign="1"/><v:tabList/>0</text>		</g>
		<g id="shape121-327" v:mID="121" v:groupContext="shape" transform="translate(453.735,-147.495)">
			<title>Rectangle.152</title>
			<desc>1</desc>
			<v:textBlock v:margins="rect(4,0,4,0)"/>
			<v:textRect cx="9" cy="184.575" width="18" height="9"/>
			<rect x="0" y="180.075" width="18" height="9" class="st13"/>
			<text x="6.22" y="187.58" class="st6" v:langID="1033"><v:paragraph v:horizAlign="1"/><v:tabList/>1</text>		</g>
		<g id="shape122-330" v:mID="122" v:groupContext="shape" transform="translate(410.985,-172.245)">
			<title>Rectangle.153</title>
			<desc>S</desc>
			<v:textBlock v:margins="rect(4,2,4,2)"/>
			<v:textRect cx="9" cy="184.575" width="18" height="9"/>
			<rect x="0" y="180.075" width="18" height="9" class="st13"/>
			<text x="5.66" y="187.58" class="st6" v:langID="1033"><v:paragraph v:horizAlign="1"/><v:tabList/>S</text>		</g>
		<g id="shape123-333" v:mID="123" v:groupContext="shape" transform="translate(431.235,-172.245)">
			<title>Rectangle.154</title>
			<desc>R</desc>
			<v:textBlock v:margins="rect(4,2,4,2)"/>
			<v:textRect cx="9" cy="184.575" width="18" height="9"/>
			<rect x="0" y="180.075" width="18" height="9" class="st13"/>
			<text x="5.39" y="187.58" class="st6" v:langID="1033"><v:paragraph v:horizAlign="1"/><v:tabList/>R</text>		</g>
		<g id="shape124-336" v:mID="124" v:groupContext="shape" transform="translate(453.735,-172.245)">
			<title>Rectangle.155</title>
			<desc>Q</desc>
			<v:textBlock v:margins="rect(4,2,4,2)"/>
			<v:textRect cx="9" cy="184.575" width="18" height="9"/>
			<rect x="0" y="180.075" width="18" height="9" class="st13"/>
			<text x="5.11" y="187.58" class="st6" v:langID="1033"><v:paragraph v:horizAlign="1"/><v:tabList/>Q</text>		</g>
		<g id="shape125-339" v:mID="125" v:groupContext="shape" transform="translate(472.86,-172.245)">
			<title>Rectangle.156</title>
			<desc>QN</desc>
			<v:textBlock v:margins="rect(4,2,4,2)"/>
			<v:textRect cx="10.125" cy="184.575" width="20.25" height="9"/>
			<rect x="0" y="180.075" width="20.25" height="9" class="st13"/>
			<text x="2.62" y="187.58" class="st6" v:langID="1033"><v:paragraph v:horizAlign="1"/><v:tabList/>QN</text>		</g>
		<g id="shape126-342" v:mID="126" v:groupContext="shape" transform="translate(410.985,-169.995)">
			<title>Sheet.126</title>
			<path d="M0 189.07 L83.25 189.07" class="st2"/>
		</g>
		<g id="shape127-345" v:mID="127" v:groupContext="shape" transform="translate(640.56,7.83) rotate(90)">
			<title>Sheet.127</title>
			<path d="M0 189.07 L56.25 189.07" class="st2"/>
		</g>
		<g id="shape128-348" v:mID="128" v:groupContext="shape" transform="translate(473.985,-136.245)">
			<title>Rectangle.159</title>
			<desc>1</desc>
			<v:textBlock v:margins="rect(4,0,4,0)"/>
			<v:textRect cx="9" cy="184.575" width="18" height="9"/>
			<rect x="0" y="180.075" width="18" height="9" class="st13"/>
			<text x="6.22" y="187.58" class="st6" v:langID="1033"><v:paragraph v:horizAlign="1"/><v:tabList/>1</text>		</g>
		<g id="shape129-351" v:mID="129" v:groupContext="shape" transform="translate(453.735,-124.995)">
			<title>Rectangle.126</title>
			<desc>HOLD</desc>
			<v:textBlock v:margins="rect(4,0,4,0)"/>
			<v:textRect cx="17.4375" cy="184.575" width="34.88" height="9"/>
			<rect x="0" y="180.075" width="34.875" height="9" class="st13"/>
			<text x="4.69" y="187.28" class="st14" v:langID="1033"><v:paragraph v:horizAlign="1"/><v:tabList/>HOLD</text>		</g>
		<g id="shape130-354" v:mID="130" v:groupContext="shape" transform="translate(453.735,-158.745)">
			<title>Rectangle.164</title>
			<desc>1</desc>
			<v:textBlock v:margins="rect(4,0,4,0)"/>
			<v:textRect cx="9" cy="184.575" width="18" height="9"/>
			<rect x="0" y="180.075" width="18" height="9" class="st13"/>
			<text x="6.22" y="187.58" class="st6" v:langID="1033"><v:paragraph v:horizAlign="1"/><v:tabList/>1</text>		</g>
		<g id="shape131-357" v:mID="131" v:groupContext="shape" transform="translate(473.985,-158.745)">
			<title>Rectangle.165</title>
			<desc>1</desc>
			<v:textBlock v:margins="rect(4,0,4,0)"/>
			<v:textRect cx="9" cy="184.575" width="18" height="9"/>
			<rect x="0" y="180.075" width="18" height="9" class="st13"/>
			<text x="6.22" y="187.58" class="st6" v:langID="1033"><v:paragraph v:horizAlign="1"/><v:tabList/>1</text>		</g>
		<g id="shape132-360" v:mID="132" v:groupContext="shape" transform="translate(306.36,-0.12)">
			<title>Rectangle.80</title>
			<rect x="0" y="146.325" width="36" height="42.75" class="st15"/>
		</g>
		<g id="shape133-362" v:mID="133" v:groupContext="shape" transform="translate(304.673,-27.12)">
			<title>Sheet.133</title>
			<desc>S</desc>
			<v:textBlock v:margins="rect(4,4,4,4)"/>
			<v:textRect cx="7.3125" cy="184.575" width="14.63" height="9"/>
			<rect x="0" y="180.075" width="14.625" height="9" class="st5"/>
			<text x="4" y="187.58" class="st6" v:langID="1033"><v:paragraph/><v:tabList/>S</text>		</g>
		<g id="shape134-365" v:mID="134" v:groupContext="shape" transform="translate(304.673,-4.62)">
			<title>Sheet.134</title>
			<desc>R</desc>
			<v:textBlock v:margins="rect(4,4,4,4)"/>
			<v:textRect cx="7.3125" cy="184.575" width="14.63" height="9"/>
			<rect x="0" y="180.075" width="14.625" height="9" class="st5"/>
			<text x="4" y="187.58" class="st6" v:langID="1033"><v:paragraph/><v:tabList/>R</text>		</g>
		<g id="shape135-368" v:mID="135" v:groupContext="shape" transform="translate(328.298,-27.12)">
			<title>Sheet.135</title>
			<desc>Q</desc>
			<v:textBlock v:margins="rect(4,4,4,4)"/>
			<v:textRect cx="7.875" cy="184.575" width="15.75" height="9"/>
			<rect x="0" y="180.075" width="15.75" height="9" class="st5"/>
			<text x="4" y="187.58" class="st6" v:langID="1033"><v:paragraph v:horizAlign="2"/><v:tabList/>Q</text>		</g>
		<g id="shape136-371" v:mID="136" v:groupContext="shape" transform="translate(319.86,-4.62)">
			<title>Sheet.136</title>
			<desc>QN</desc>
			<v:textBlock v:margins="rect(4,4,4,4)"/>
			<v:textRect cx="12.375" cy="184.575" width="24.75" height="9"/>
			<rect x="0" y="180.075" width="24.75" height="9" class="st5"/>
			<text x="5.75" y="187.58" class="st6" v:langID="1033"><v:paragraph v:horizAlign="2"/><v:tabList/>QN</text>		</g>
		<g id="shape137-374" v:mID="137" v:groupContext="shape" transform="translate(193.86,369.03) rotate(180)">
			<title>Sheet.137</title>
			<path d="M0 189.07 L9 189.07" class="st2"/>
		</g>
		<g id="shape138-377" v:mID="138" v:groupContext="shape" transform="translate(184.86,-6.87)">
			<title>Circle.323</title>
			<path d="M0 186.82 A2.25 2.25 0 0 1 4.5 186.82 A2.25 2.25 0 1 1 0 186.82 Z" class="st8"/>
		</g>
		<g id="shape139-379" v:mID="139" v:groupContext="shape" transform="translate(0.36,-73.245)">
			<title>Sheet.139</title>
			<desc>Asserted high inputs Reset Dominant</desc>
			<v:textBlock v:margins="rect(4,4,4,4)"/>
			<v:textRect cx="49.5" cy="175.575" width="99" height="27"/>
			<rect x="0" y="162.075" width="99" height="27" class="st5"/>
			<text x="4" y="172.58" class="st6" v:langID="1033"><v:paragraph/><v:tabList/>Asserted high inputs<v:newlineChar/><tspan
						x="4" dy="1.2em" class="st16">Reset Dominant</tspan></text>		</g>
		<g id="shape140-383" v:mID="140" v:groupContext="shape" transform="translate(407.61,-73.245)">
			<title>Sheet.140</title>
			<desc>Asserted low inputs Set Dominant</desc>
			<v:textBlock v:margins="rect(4,4,4,4)"/>
			<v:textRect cx="49.5" cy="175.575" width="99" height="27"/>
			<rect x="0" y="162.075" width="99" height="27" class="st5"/>
			<text x="4" y="172.58" class="st6" v:langID="1033"><v:paragraph/><v:tabList/>Asserted low inputs<v:newlineChar/><tspan
						x="4" dy="1.2em" class="st16">Set Dominant</tspan></text>		</g>
	</g>
</svg>
