<?xml version="1.0" encoding="UTF-8" standalone="no"?>
<!DOCTYPE svg PUBLIC "-//W3C//DTD SVG 1.1//EN" "http://www.w3.org/Graphics/SVG/1.1/DTD/svg11.dtd">
<!-- Generated by Microsoft Visio, SVG Export StateCodes.svg Page-1 -->
<svg xmlns="http://www.w3.org/2000/svg" xmlns:xlink="http://www.w3.org/1999/xlink" xmlns:ev="http://www.w3.org/2001/xml-events"
		xmlns:v="http://schemas.microsoft.com/visio/2003/SVGExtensions/" width="1.67854in" height="1.39853in"
		viewBox="0 0 120.855 100.694" xml:space="preserve" color-interpolation-filters="sRGB" class="st7">
	<v:documentProperties v:langID="1033" v:viewMarkup="false"/>

	<style type="text/css">
	<![CDATA[
		.st1 {fill:#abe0ae;stroke:#000000;stroke-linecap:round;stroke-linejoin:round;stroke-width:0.24}
		.st2 {fill:#000000;font-family:Arial;font-size:0.75em}
		.st3 {marker-end:url(#mrkr4-18);stroke:#000000;stroke-linecap:round;stroke-linejoin:round;stroke-width:0.72}
		.st4 {fill:#000000;fill-opacity:1;stroke:#000000;stroke-opacity:1;stroke-width:0.28571428571429}
		.st5 {fill:none;stroke:none;stroke-linecap:round;stroke-linejoin:round;stroke-width:0.72}
		.st6 {font-size:1em}
		.st7 {fill:none;fill-rule:evenodd;font-size:12px;overflow:visible;stroke-linecap:square;stroke-miterlimit:3}
	]]>
	</style>

	<defs id="Markers">
		<g id="lend4">
			<path d="M 2 1 L 0 0 L 2 -1 L 2 1 " style="stroke:none"/>
		</g>
		<marker id="mrkr4-18" class="st4" v:arrowType="4" v:arrowSize="1" v:setback="6.5" refX="-6.5" orient="auto"
				markerUnits="strokeWidth" overflow="visible">
			<use xlink:href="#lend4" transform="scale(-3.5,-3.5) "/>
		</marker>
	</defs>
	<g v:mID="0" v:index="1" v:groupContext="foregroundPage">
		<title>Page-1</title>
		<v:pageProperties v:drawingScale="1" v:pageScale="1" v:drawingUnits="19" v:shadowOffsetX="9" v:shadowOffsetY="-9"/>
		<g id="shape1-1" v:mID="1" v:groupContext="shape" transform="translate(36.12,-66.1501)">
			<title>Circle.60</title>
			<desc>00</desc>
			<v:textBlock v:margins="rect(4,4,4,4)"/>
			<v:textRect cx="12.375" cy="88.3194" width="21.66" height="18.5625"/>
			<path d="M0 88.32 A12.375 12.375 0 0 1 24.75 88.32 A12.375 12.375 0 1 1 0 88.32 Z" class="st1"/>
			<text x="7.37" y="91.02" class="st2" v:langID="1033"><v:paragraph v:horizAlign="1"/><v:tabList/>00</text>		</g>
		<g id="shape2-4" v:mID="2" v:groupContext="shape" transform="translate(36.12,-3.15005)">
			<title>Circle.63</title>
			<desc>11</desc>
			<v:textBlock v:margins="rect(4,4,4,4)"/>
			<v:textRect cx="12.375" cy="88.3194" width="21.66" height="18.5625"/>
			<path d="M0 88.32 A12.375 12.375 0 0 1 24.75 88.32 A12.375 12.375 0 1 1 0 88.32 Z" class="st1"/>
			<text x="7.37" y="91.02" class="st2" v:langID="1033"><v:paragraph v:horizAlign="1"/><v:tabList/>11</text>		</g>
		<g id="shape3-7" v:mID="3" v:groupContext="shape" transform="translate(0.12,-33.5251)">
			<title>Circle.66</title>
			<desc>10</desc>
			<v:textBlock v:margins="rect(4,4,4,4)"/>
			<v:textRect cx="12.375" cy="88.3194" width="21.66" height="18.5625"/>
			<path d="M0 88.32 A12.375 12.375 0 0 1 24.75 88.32 A12.375 12.375 0 1 1 0 88.32 Z" class="st1"/>
			<text x="7.37" y="91.02" class="st2" v:langID="1033"><v:paragraph v:horizAlign="1"/><v:tabList/>10</text>		</g>
		<g id="shape4-10" v:mID="4" v:groupContext="shape" transform="translate(72.12,-33.5251)">
			<title>Circle.75</title>
			<desc>01</desc>
			<v:textBlock v:margins="rect(4,4,4,4)"/>
			<v:textRect cx="12.375" cy="88.3194" width="21.66" height="18.5625"/>
			<path d="M0 88.32 A12.375 12.375 0 0 1 24.75 88.32 A12.375 12.375 0 1 1 0 88.32 Z" class="st1"/>
			<text x="7.37" y="91.02" class="st2" v:langID="1033"><v:paragraph v:horizAlign="1"/><v:tabList/>01</text>		</g>
		<g id="shape5-13" v:mID="5" v:groupContext="shape" transform="translate(130.947,-44.5324) rotate(45)">
			<title>Sheet.5</title>
			<path d="M0 100.69 C6.21 97.86 10.18 97.36 15.07 97.54 C16.91 97.6 18.89 97.76 20.96 98.42 L21.28 98.58" class="st3"/>
		</g>
		<g id="shape6-19" v:mID="6" v:groupContext="shape" transform="translate(4.37598,122.63) rotate(-136.848)">
			<title>Sheet.6</title>
			<path d="M0 100.69 C6.02 97.73 9.86 97.21 14.61 97.39 C16.37 97.46 18.26 97.63 20.24 98.3 L20.56 98.47" class="st3"/>
		</g>
		<g id="shape7-24" v:mID="7" v:groupContext="shape" transform="translate(150.072,137.246) rotate(135)">
			<title>Sheet.7</title>
			<path d="M0 100.69 C6.21 97.86 10.18 97.36 15.07 97.54 C16.91 97.6 18.89 97.76 20.96 98.42 L21.28 98.58" class="st3"/>
		</g>
		<g id="shape8-29" v:mID="8" v:groupContext="shape" transform="translate(-35.0817,154.683) rotate(-135)">
			<title>Sheet.8</title>
			<path d="M0 100.69 C6.21 97.86 10.18 97.36 15.07 97.54 C16.91 97.6 18.89 97.76 20.96 98.42 L21.28 98.58" class="st3"/>
		</g>
		<g id="shape9-34" v:mID="9" v:groupContext="shape" transform="translate(96.0717,-14.7199) rotate(45)">
			<title>Sheet.9</title>
			<path d="M0 100.69 C6.21 97.86 10.18 97.36 15.07 97.54 C16.91 97.6 18.89 97.76 20.96 98.42 L21.28 98.58" class="st3"/>
		</g>
		<g id="shape10-39" v:mID="10" v:groupContext="shape" transform="translate(-52.5192,-27.0949) rotate(-45)">
			<title>Sheet.10</title>
			<path d="M0 100.69 C6.21 97.86 10.18 97.36 15.07 97.54 C16.91 97.6 18.89 97.76 20.96 98.42 L21.28 98.58" class="st3"/>
		</g>
		<g id="shape11-44" v:mID="11" v:groupContext="shape" transform="translate(70.995,-16.6501)">
			<title>Sheet.11</title>
			<desc>Y</desc>
			<v:textBlock v:margins="rect(4,4,4,4)"/>
			<v:textRect cx="6.75" cy="97.3194" width="13.5" height="6.75"/>
			<rect x="0" y="93.9444" width="13.5" height="6.75" class="st5"/>
			<text x="4" y="100.02" class="st2" v:langID="1033"><v:paragraph v:horizAlign="1"/><v:tabList/>Y</text>		</g>
		<g id="shape12-47" v:mID="12" v:groupContext="shape" transform="translate(52.995,-46.4626)">
			<title>Sheet.12</title>
			<desc>_ Y</desc>
			<v:textBlock v:margins="rect(4,4,4,4)"/>
			<v:textRect cx="6.75" cy="94.5069" width="13.5" height="12.375"/>
			<rect x="0" y="88.3194" width="13.5" height="12.375" class="st5"/>
			<text x="4.25" y="92.26" class="st2" v:langID="1033"><v:paragraph v:spLine="-1" v:horizAlign="1"/><v:tabList/>_<v:newlineChar/><tspan
						x="4" dy="1em" class="st6">Y</tspan></text>		</g>
		<g id="shape13-51" v:mID="13" v:groupContext="shape" transform="translate(68.745,-69.5251)">
			<title>Sheet.13</title>
			<desc>X</desc>
			<v:textBlock v:margins="rect(4,4,4,4)"/>
			<v:textRect cx="6.75" cy="97.3194" width="13.5" height="6.75"/>
			<rect x="0" y="93.9444" width="13.5" height="6.75" class="st5"/>
			<text x="4" y="100.02" class="st2" v:langID="1033"><v:paragraph v:horizAlign="1"/><v:tabList/>X</text>		</g>
		<g id="shape14-54" v:mID="14" v:groupContext="shape" transform="translate(14.745,-12.1501)">
			<title>Sheet.14</title>
			<desc>X</desc>
			<v:textBlock v:margins="rect(4,4,4,4)"/>
			<v:textRect cx="6.75" cy="97.3194" width="13.5" height="6.75"/>
			<rect x="0" y="93.9444" width="13.5" height="6.75" class="st5"/>
			<text x="4" y="100.02" class="st2" v:langID="1033"><v:paragraph v:horizAlign="1"/><v:tabList/>X</text>		</g>
		<g id="shape15-57" v:mID="15" v:groupContext="shape" transform="translate(30.495,-41.4001)">
			<title>Sheet.15</title>
			<desc>_ X</desc>
			<v:textBlock v:margins="rect(4,4,4,4)"/>
			<v:textRect cx="6.75" cy="94.5069" width="13.5" height="12.375"/>
			<rect x="0" y="88.3194" width="13.5" height="12.375" class="st5"/>
			<text x="4.25" y="92.26" class="st2" v:langID="1033"><v:paragraph v:spLine="-1" v:horizAlign="1"/><v:tabList/>_<v:newlineChar/><tspan
						x="4" dy="1em" class="st6">X</tspan></text>		</g>
		<g id="shape16-61" v:mID="16" v:groupContext="shape" transform="translate(112.606,68.733) rotate(128.66)">
			<title>Sheet.16</title>
			<path d="M0 90.75 C-0.9 92.08 -1.01 93.61 -0.97 94.95 C-0.9 97.46 -0.31 99.31 1.59 100.19 C3.24 100.96 5.88 101 7.21
						 99.24 C7.72 98.58 8.04 97.65 8.12 95.7 L8.06 95.35" class="st3"/>
		</g>
		<g id="shape17-66" v:mID="17" v:groupContext="shape" transform="translate(16.995,-85.2751)">
			<title>Sheet.17</title>
			<desc>_ X</desc>
			<v:textBlock v:margins="rect(4,4,4,4)"/>
			<v:textRect cx="6.75" cy="94.5069" width="13.5" height="12.375"/>
			<rect x="0" y="88.3194" width="13.5" height="12.375" class="st5"/>
			<text x="4.25" y="92.26" class="st2" v:langID="1033"><v:paragraph v:spLine="-1" v:horizAlign="1"/><v:tabList/>_<v:newlineChar/><tspan
						x="4" dy="1em" class="st6">X</tspan></text>		</g>
		<g id="shape18-70" v:mID="18" v:groupContext="shape" transform="translate(95.745,-42.5251)">
			<title>Sheet.18</title>
			<desc>out</desc>
			<v:textBlock v:margins="rect(4,4,4,4)"/>
			<v:textRect cx="12.375" cy="97.3194" width="24.75" height="6.75"/>
			<rect x="0" y="93.9444" width="24.75" height="6.75" class="st5"/>
			<text x="6.12" y="100.02" class="st2" v:langID="1033"><v:paragraph v:horizAlign="1"/><v:tabList/>out</text>		</g>
		<g id="shape19-73" v:mID="19" v:groupContext="shape" transform="translate(57.495,-2.02505)">
			<title>Sheet.19</title>
			<desc>out</desc>
			<v:textBlock v:margins="rect(4,4,4,4)"/>
			<v:textRect cx="12.375" cy="97.3194" width="24.75" height="6.75"/>
			<rect x="0" y="93.9444" width="24.75" height="6.75" class="st5"/>
			<text x="6.12" y="100.02" class="st2" v:langID="1033"><v:paragraph v:horizAlign="1"/><v:tabList/>out</text>		</g>
	</g>
</svg>
