<?xml version="1.0" encoding="UTF-8" standalone="no"?>
<!DOCTYPE svg PUBLIC "-//W3C//DTD SVG 1.1//EN" "http://www.w3.org/Graphics/SVG/1.1/DTD/svg11.dtd">
<!-- Generated by Microsoft Visio, SVG Export overlap.svg Page-1 -->
<svg xmlns="http://www.w3.org/2000/svg" xmlns:xlink="http://www.w3.org/1999/xlink" xmlns:ev="http://www.w3.org/2001/xml-events"
		xmlns:v="http://schemas.microsoft.com/visio/2003/SVGExtensions/" width="1.5825in" height="0.929792in"
		viewBox="0 0 113.94 66.945" xml:space="preserve" color-interpolation-filters="sRGB" class="st8">
	<v:documentProperties v:langID="1033" v:viewMarkup="false">
		<v:userDefs>
			<v:ud v:nameU="msvConvertTheme"/>
		</v:userDefs>
	</v:documentProperties>

	<style type="text/css">
	<![CDATA[
		.st1 {fill:#ffffff;stroke:#000000;stroke-linecap:round;stroke-linejoin:round;stroke-width:0.72}
		.st2 {fill:#000000;font-family:Arial;font-size:0.916672em}
		.st3 {fill:none;stroke:none;stroke-linecap:round;stroke-linejoin:round;stroke-width:0.72}
		.st4 {stroke:#000000;stroke-linecap:round;stroke-linejoin:round;stroke-width:0.72}
		.st5 {fill:#000000;font-family:Arial;font-size:0.75em}
		.st6 {fill:none;stroke:#0000ff;stroke-linecap:round;stroke-linejoin:round;stroke-width:1.2}
		.st7 {fill:none;stroke:#ff0000;stroke-linecap:round;stroke-linejoin:round;stroke-width:1.2}
		.st8 {fill:none;fill-rule:evenodd;font-size:12px;overflow:visible;stroke-linecap:square;stroke-miterlimit:3}
	]]>
	</style>

	<g v:mID="0" v:index="1" v:groupContext="foregroundPage">
		<title>Page-1</title>
		<v:pageProperties v:drawingScale="1" v:pageScale="1" v:drawingUnits="19" v:shadowOffsetX="9" v:shadowOffsetY="-9"/>
		<g id="shape229-1" v:mID="229" v:groupContext="shape" transform="translate(23.22,-23.22)">
			<title>Square.229</title>
			<desc>0</desc>
			<v:userDefs>
				<v:ud v:nameU="visVersion" v:val="VT0(11):26"/>
			</v:userDefs>
			<v:textBlock v:margins="rect(4,4,4,4)" v:tabSpace="42.5197"/>
			<v:textRect cx="11.25" cy="55.695" width="22.5" height="22.5"/>
			<rect x="0" y="44.445" width="22.5" height="22.5" class="st1"/>
			<text x="8.19" y="59" class="st2" v:langID="1033"><v:paragraph v:horizAlign="1"/><v:tabList/>0</text>		</g>
		<g id="shape230-4" v:mID="230" v:groupContext="shape" transform="translate(45.72,-23.22)">
			<title>Square.230</title>
			<desc>0</desc>
			<v:userDefs>
				<v:ud v:nameU="visVersion" v:val="VT0(11):26"/>
			</v:userDefs>
			<v:textBlock v:margins="rect(4,4,4,4)" v:tabSpace="42.5197"/>
			<v:textRect cx="11.25" cy="55.695" width="22.5" height="22.5"/>
			<rect x="0" y="44.445" width="22.5" height="22.5" class="st1"/>
			<text x="8.19" y="59" class="st2" v:langID="1033"><v:paragraph v:horizAlign="1"/><v:tabList/>0</text>		</g>
		<g id="shape231-7" v:mID="231" v:groupContext="shape" transform="translate(68.22,-23.22)">
			<title>Square.231</title>
			<desc>1</desc>
			<v:userDefs>
				<v:ud v:nameU="visVersion" v:val="VT0(11):26"/>
			</v:userDefs>
			<v:textBlock v:margins="rect(4,4,4,4)" v:tabSpace="42.5197"/>
			<v:textRect cx="11.25" cy="55.695" width="22.5" height="22.5"/>
			<rect x="0" y="44.445" width="22.5" height="22.5" class="st1"/>
			<text x="8.19" y="59" class="st2" v:langID="1033"><v:paragraph v:horizAlign="1"/><v:tabList/>1</text>		</g>
		<g id="shape232-10" v:mID="232" v:groupContext="shape" transform="translate(90.72,-23.22)">
			<title>Square.232</title>
			<desc>1</desc>
			<v:userDefs>
				<v:ud v:nameU="visVersion" v:val="VT0(11):26"/>
			</v:userDefs>
			<v:textBlock v:margins="rect(4,4,4,4)" v:tabSpace="42.5197"/>
			<v:textRect cx="11.25" cy="55.695" width="22.5" height="22.5"/>
			<rect x="0" y="44.445" width="22.5" height="22.5" class="st1"/>
			<text x="8.19" y="59" class="st2" v:langID="1033"><v:paragraph v:horizAlign="1"/><v:tabList/>1</text>		</g>
		<g id="shape233-13" v:mID="233" v:groupContext="shape" transform="translate(23.22,-0.72)">
			<title>Square.233</title>
			<desc>0</desc>
			<v:userDefs>
				<v:ud v:nameU="visVersion" v:val="VT0(11):26"/>
			</v:userDefs>
			<v:textBlock v:margins="rect(4,4,4,4)" v:tabSpace="42.5197"/>
			<v:textRect cx="11.25" cy="55.695" width="22.5" height="22.5"/>
			<rect x="0" y="44.445" width="22.5" height="22.5" class="st1"/>
			<text x="8.19" y="59" class="st2" v:langID="1033"><v:paragraph v:horizAlign="1"/><v:tabList/>0</text>		</g>
		<g id="shape234-16" v:mID="234" v:groupContext="shape" transform="translate(45.72,-0.72)">
			<title>Square.234</title>
			<desc>1</desc>
			<v:userDefs>
				<v:ud v:nameU="visVersion" v:val="VT0(11):26"/>
			</v:userDefs>
			<v:textBlock v:margins="rect(4,4,4,4)" v:tabSpace="42.5197"/>
			<v:textRect cx="11.25" cy="55.695" width="22.5" height="22.5"/>
			<rect x="0" y="44.445" width="22.5" height="22.5" class="st1"/>
			<text x="8.19" y="59" class="st2" v:langID="1033"><v:paragraph v:horizAlign="1"/><v:tabList/>1</text>		</g>
		<g id="shape235-19" v:mID="235" v:groupContext="shape" transform="translate(68.22,-0.72)">
			<title>Square.235</title>
			<desc>1</desc>
			<v:userDefs>
				<v:ud v:nameU="visVersion" v:val="VT0(11):26"/>
			</v:userDefs>
			<v:textBlock v:margins="rect(4,4,4,4)" v:tabSpace="42.5197"/>
			<v:textRect cx="11.25" cy="55.695" width="22.5" height="22.5"/>
			<rect x="0" y="44.445" width="22.5" height="22.5" class="st1"/>
			<text x="8.19" y="59" class="st2" v:langID="1033"><v:paragraph v:horizAlign="1"/><v:tabList/>1</text>		</g>
		<g id="shape236-22" v:mID="236" v:groupContext="shape" transform="translate(90.72,-0.72)">
			<title>Square.236</title>
			<desc>0</desc>
			<v:userDefs>
				<v:ud v:nameU="visVersion" v:val="VT0(11):26"/>
			</v:userDefs>
			<v:textBlock v:margins="rect(4,4,4,4)" v:tabSpace="42.5197"/>
			<v:textRect cx="11.25" cy="55.695" width="22.5" height="22.5"/>
			<rect x="0" y="44.445" width="22.5" height="22.5" class="st1"/>
			<text x="8.19" y="59" class="st2" v:langID="1033"><v:paragraph v:horizAlign="1"/><v:tabList/>0</text>		</g>
		<g id="shape237-25" v:mID="237" v:groupContext="shape" transform="translate(0.72,-43.47)">
			<title>Sheet.237</title>
			<desc>A</desc>
			<v:textBlock v:margins="rect(4,4,4,4)"/>
			<v:textRect cx="9" cy="62.445" width="18" height="9"/>
			<rect x="0" y="57.945" width="18" height="9" class="st3"/>
			<text x="5.33" y="65.75" class="st2" v:langID="1033"><v:paragraph v:horizAlign="1"/><v:tabList/>A</text>		</g>
		<g id="shape238-28" v:mID="238" v:groupContext="shape" transform="translate(9.72,-55.845)">
			<title>Sheet.238</title>
			<desc>B C</desc>
			<v:textBlock v:margins="rect(4,4,4,4)"/>
			<v:textRect cx="15.75" cy="62.445" width="31.5" height="9"/>
			<rect x="0" y="57.945" width="31.5" height="9" class="st3"/>
			<text x="8.11" y="65.75" class="st2" v:langID="1033"><v:paragraph v:horizAlign="1"/><v:tabList/>B C</text>		</g>
		<g id="shape239-31" v:mID="239" v:groupContext="shape" transform="translate(-24.1173,68.5623) rotate(-135)">
			<title>Sheet.239</title>
			<path d="M0 66.95 L19.09 66.95" class="st4"/>
		</g>
		<g id="shape240-34" v:mID="240" v:groupContext="shape" transform="translate(5.22,-9.72)">
			<title>Sheet.240</title>
			<desc>1</desc>
			<v:textBlock v:margins="rect(4,4,4,4)"/>
			<v:textRect cx="9" cy="62.445" width="18" height="9"/>
			<rect x="0" y="57.945" width="18" height="9" class="st3"/>
			<text x="6.5" y="65.15" class="st5" v:langID="1033"><v:paragraph v:horizAlign="1"/><v:tabList/>1</text>		</g>
		<g id="shape241-37" v:mID="241" v:groupContext="shape" transform="translate(5.22,-27.72)">
			<title>Sheet.241</title>
			<desc>0</desc>
			<v:textBlock v:margins="rect(4,4,4,4)"/>
			<v:textRect cx="9" cy="62.445" width="18" height="9"/>
			<rect x="0" y="57.945" width="18" height="9" class="st3"/>
			<text x="6.5" y="65.15" class="st5" v:langID="1033"><v:paragraph v:horizAlign="1"/><v:tabList/>0</text>		</g>
		<g id="shape242-40" v:mID="242" v:groupContext="shape" transform="translate(23.22,-45.72)">
			<title>Sheet.242</title>
			<desc>00</desc>
			<v:textBlock v:margins="rect(4,4,4,4)"/>
			<v:textRect cx="11.25" cy="62.445" width="22.5" height="9"/>
			<rect x="0" y="57.945" width="22.5" height="9" class="st3"/>
			<text x="6.24" y="65.15" class="st5" v:langID="1033"><v:paragraph v:horizAlign="1"/><v:tabList/>00</text>		</g>
		<g id="shape243-43" v:mID="243" v:groupContext="shape" transform="translate(43.47,-45.72)">
			<title>Sheet.243</title>
			<desc>01</desc>
			<v:textBlock v:margins="rect(4,4,4,4)"/>
			<v:textRect cx="11.25" cy="62.445" width="22.5" height="9"/>
			<rect x="0" y="57.945" width="22.5" height="9" class="st3"/>
			<text x="6.24" y="65.15" class="st5" v:langID="1033"><v:paragraph v:horizAlign="1"/><v:tabList/>01</text>		</g>
		<g id="shape244-46" v:mID="244" v:groupContext="shape" transform="translate(68.22,-45.72)">
			<title>Sheet.244</title>
			<desc>11</desc>
			<v:textBlock v:margins="rect(4,4,4,4)"/>
			<v:textRect cx="11.25" cy="62.445" width="22.5" height="9"/>
			<rect x="0" y="57.945" width="22.5" height="9" class="st3"/>
			<text x="6.24" y="65.15" class="st5" v:langID="1033"><v:paragraph v:horizAlign="1"/><v:tabList/>11</text>		</g>
		<g id="shape245-49" v:mID="245" v:groupContext="shape" transform="translate(90.72,-45.72)">
			<title>Sheet.245</title>
			<desc>10</desc>
			<v:textBlock v:margins="rect(4,4,4,4)"/>
			<v:textRect cx="11.25" cy="62.445" width="22.5" height="9"/>
			<rect x="0" y="57.945" width="22.5" height="9" class="st3"/>
			<text x="6.24" y="65.15" class="st5" v:langID="1033"><v:paragraph v:horizAlign="1"/><v:tabList/>10</text>		</g>
		<g id="shape246-52" v:mID="246" v:groupContext="shape" transform="translate(70.47,-28.2825)">
			<title>Rounded rectangle.246</title>
			<v:userDefs>
				<v:ud v:nameU="visVersion" v:val="VT0(11):26"/>
			</v:userDefs>
			<path d="M36 66.95 A4.50003 4.50003 -180 0 0 40.5 62.45 L40.5 57.95 A4.50003 4.50003 -180 0 0 36 53.45 L4.5 53.45 A4.50003
						 4.50003 -180 0 0 0 57.95 L0 62.45 A4.50003 4.50003 -180 0 0 4.5 66.95 L36 66.95 Z" class="st6"/>
		</g>
		<g id="shape247-54" v:mID="247" v:groupContext="shape" transform="translate(72.72,-2.97)">
			<title>Rounded rectangle.247</title>
			<v:userDefs>
				<v:ud v:nameU="visVersion" v:val="VT0(11):26"/>
			</v:userDefs>
			<path d="M9 66.95 A4.50003 4.50003 -180 0 0 13.5 62.45 L13.5 30.95 A4.50003 4.50003 -180 0 0 9 26.45 L4.5 26.45 A4.50003
						 4.50003 -180 0 0 0 30.95 L0 62.45 A4.50003 4.50003 -180 0 0 4.5 66.95 L9 66.95 Z" class="st7"/>
		</g>
		<g id="shape248-56" v:mID="248" v:groupContext="shape" transform="translate(47.97,-5.22)">
			<title>Rounded rectangle.248</title>
			<v:userDefs>
				<v:ud v:nameU="visVersion" v:val="VT0(11):26"/>
			</v:userDefs>
			<path d="M36 66.95 A4.50003 4.50003 -180 0 0 40.5 62.45 L40.5 57.95 A4.50003 4.50003 -180 0 0 36 53.45 L4.5 53.45 A4.50003
						 4.50003 -180 0 0 0 57.95 L0 62.45 A4.50003 4.50003 -180 0 0 4.5 66.95 L36 66.95 Z" class="st6"/>
		</g>
	</g>
</svg>
