<?xml version="1.0" encoding="UTF-8" standalone="no"?>
<!DOCTYPE svg PUBLIC "-//W3C//DTD SVG 1.1//EN" "http://www.w3.org/Graphics/SVG/1.1/DTD/svg11.dtd">
<!-- Generated by Microsoft Visio, SVG Export MuxDef.svg Page-1 -->
<svg xmlns="http://www.w3.org/2000/svg" xmlns:xlink="http://www.w3.org/1999/xlink" xmlns:ev="http://www.w3.org/2001/xml-events"
		xmlns:v="http://schemas.microsoft.com/visio/2003/SVGExtensions/" width="2.08858in" height="1.95165in"
		viewBox="0 0 150.377 140.519" xml:space="preserve" color-interpolation-filters="sRGB" class="st9">
	<v:documentProperties v:langID="1033" v:viewMarkup="false"/>

	<style type="text/css">
	<![CDATA[
		.st1 {fill:#cedbee;stroke:none;stroke-linecap:round;stroke-linejoin:round;stroke-width:0.72}
		.st2 {stroke:#000000;stroke-linecap:round;stroke-linejoin:round;stroke-width:0.744215}
		.st3 {stroke:none;stroke-linecap:round;stroke-linejoin:round;stroke-width:0.75}
		.st4 {fill:#000000;font-family:Arial;font-size:0.833336em}
		.st5 {stroke:#000000;stroke-linecap:round;stroke-linejoin:round;stroke-width:0.72}
		.st6 {fill:none;stroke:none;stroke-linecap:round;stroke-linejoin:round;stroke-width:0.72}
		.st7 {fill:#ffffff;stroke:#000000;stroke-linecap:round;stroke-linejoin:round;stroke-width:0.72}
		.st8 {fill:#000000;font-family:Arial;font-size:0.75em}
		.st9 {fill:none;fill-rule:evenodd;font-size:12px;overflow:visible;stroke-linecap:square;stroke-miterlimit:3}
	]]>
	</style>

	<g v:mID="0" v:index="1" v:groupContext="foregroundPage">
		<title>Page-1</title>
		<v:pageProperties v:drawingScale="1" v:pageScale="1" v:drawingUnits="19" v:shadowOffsetX="9" v:shadowOffsetY="-9"/>
		<g id="shape1-1" v:mID="1" v:groupContext="shape" transform="translate(102.852,-25.4087)">
			<title>Sheet.1</title>
			<path d="M0 37.02 L0 140.52 L31.5 122.52 L31.5 55.02 L0 37.02 Z" class="st1"/>
		</g>
		<g id="shape2-3" v:mID="2" v:groupContext="shape" transform="translate(134.352,-79.4087)">
			<title>Sheet.2</title>
			<path d="M8.83 140.52 L0 140.52" class="st2"/>
		</g>
		<g id="shape3-6" v:mID="3" v:groupContext="shape" transform="translate(107.352,-91.7837)">
			<title>Sheet.3</title>
			<desc>I1</desc>
			<v:textBlock v:margins="rect(0,0,0,0)"/>
			<v:textRect cx="9" cy="136.019" width="18" height="9"/>
			<path d="M18 131.52 L0 131.52 L0 140.52 L18 140.52 L18 131.52" class="st3"/>
			<text x="0" y="139.02" class="st4" v:langID="1033"><v:paragraph/><v:tabList/>I1</text>		</g>
		<g id="shape4-10" v:mID="4" v:groupContext="shape" transform="translate(107.352,-109.784)">
			<title>Sheet.4</title>
			<desc>I0</desc>
			<v:textBlock v:margins="rect(0,0,0,0)"/>
			<v:textRect cx="9" cy="136.019" width="18" height="9"/>
			<path d="M18 131.52 L0 131.52 L0 140.52 L18 140.52 L18 131.52" class="st3"/>
			<text x="0" y="139.02" class="st4" v:langID="1033"><v:paragraph/><v:tabList/>I0</text>		</g>
		<g id="shape5-14" v:mID="5" v:groupContext="shape" transform="translate(107.352,-73.7837)">
			<title>Sheet.5</title>
			<desc>I2</desc>
			<v:textBlock v:margins="rect(0,0,0,0)"/>
			<v:textRect cx="9" cy="136.019" width="18" height="9"/>
			<path d="M18 131.52 L0 131.52 L0 140.52 L18 140.52 L18 131.52" class="st3"/>
			<text x="0" y="139.02" class="st4" v:langID="1033"><v:paragraph/><v:tabList/>I2</text>		</g>
		<g id="shape6-18" v:mID="6" v:groupContext="shape" transform="translate(107.352,-55.7837)">
			<title>Sheet.6</title>
			<desc>I3</desc>
			<v:textBlock v:margins="rect(0,0,0,0)"/>
			<v:textRect cx="9" cy="136.019" width="18" height="9"/>
			<path d="M18 131.52 L0 131.52 L0 140.52 L18 140.52 L18 131.52" class="st3"/>
			<text x="0" y="139.02" class="st4" v:langID="1033"><v:paragraph/><v:tabList/>I3</text>		</g>
		<g id="shape7-22" v:mID="7" v:groupContext="shape" transform="translate(93.8521,-115.409)">
			<title>Sheet.7</title>
			<path d="M8.83 140.52 L0 140.52" class="st2"/>
		</g>
		<g id="shape8-25" v:mID="8" v:groupContext="shape" transform="translate(93.8521,-97.4087)">
			<title>Sheet.8</title>
			<path d="M8.83 140.52 L0 140.52" class="st2"/>
		</g>
		<g id="shape9-28" v:mID="9" v:groupContext="shape" transform="translate(93.8521,-78.2837)">
			<title>Sheet.9</title>
			<path d="M8.83 140.52 L0 140.52" class="st2"/>
		</g>
		<g id="shape10-31" v:mID="10" v:groupContext="shape" transform="translate(93.8521,-61.4087)">
			<title>Sheet.10</title>
			<path d="M8.83 140.52 L0 140.52" class="st2"/>
		</g>
		<g id="shape11-34" v:mID="11" v:groupContext="shape" transform="translate(252.371,109.485) rotate(90)">
			<title>Sheet.11</title>
			<path d="M0 140.52 L10.12 140.52" class="st5"/>
		</g>
		<g id="shape12-37" v:mID="12" v:groupContext="shape" transform="translate(266.996,101.61) rotate(90)">
			<title>Sheet.12</title>
			<path d="M0 140.52 L31.5 140.52" class="st5"/>
		</g>
		<g id="shape13-40" v:mID="13" v:groupContext="shape" transform="translate(111.852,260.129) rotate(180)">
			<title>Sheet.13</title>
			<path d="M0 140.52 L18 140.52" class="st5"/>
		</g>
		<g id="shape14-43" v:mID="14" v:groupContext="shape" transform="translate(126.477,273.629) rotate(180)">
			<title>Sheet.14</title>
			<path d="M0 140.52 L32.62 140.52" class="st5"/>
		</g>
		<g id="shape15-46" v:mID="15" v:groupContext="shape" transform="translate(105.102,-33.2837)">
			<title>Sheet.15</title>
			<desc>S1</desc>
			<v:textBlock v:margins="rect(0,0,0,0)"/>
			<v:textRect cx="9" cy="136.019" width="18" height="9"/>
			<path d="M18 131.52 L0 131.52 L0 140.52 L18 140.52 L18 131.52" class="st3"/>
			<text x="0" y="139.02" class="st4" v:langID="1033"><v:paragraph/><v:tabList/>S1</text>		</g>
		<g id="shape16-50" v:mID="16" v:groupContext="shape" transform="translate(118.602,-41.1587)">
			<title>Sheet.16</title>
			<desc>S0</desc>
			<v:textBlock v:margins="rect(0,0,0,0)"/>
			<v:textRect cx="9" cy="136.019" width="18" height="9"/>
			<path d="M18 131.52 L0 131.52 L0 140.52 L18 140.52 L18 131.52" class="st3"/>
			<text x="0" y="139.02" class="st4" v:langID="1033"><v:paragraph/><v:tabList/>S0</text>		</g>
		<g id="shape19-54" v:mID="19" v:groupContext="shape" transform="translate(8.18272,-113.159)">
			<title>Sheet.19</title>
			<desc>0</desc>
			<v:textBlock v:margins="rect(4,4,4,4)"/>
			<v:textRect cx="10.2521" cy="136.019" width="20.51" height="9"/>
			<rect x="0" y="131.519" width="20.5041" height="9" class="st6"/>
			<text x="7.47" y="139.02" class="st4" v:langID="1033"><v:paragraph v:horizAlign="1"/><v:tabList/>0</text>		</g>
		<g id="shape20-57" v:mID="20" v:groupContext="shape" transform="translate(25.1848,-113.307)">
			<title>Sheet.20</title>
			<desc>0</desc>
			<v:textBlock v:margins="rect(4,4,4,4)"/>
			<v:textRect cx="10.2521" cy="135.934" width="20.51" height="9.16941"/>
			<rect x="0" y="131.349" width="20.5041" height="9.16941" class="st6"/>
			<text x="7.47" y="138.93" class="st4" v:langID="1033"><v:paragraph v:horizAlign="1"/><v:tabList/>0</text>		</g>
		<g id="shape22-60" v:mID="22" v:groupContext="shape" transform="translate(8.18272,-99.6587)">
			<title>Sheet.22</title>
			<desc>0</desc>
			<v:textBlock v:margins="rect(4,4,4,4)"/>
			<v:textRect cx="10.2521" cy="136.019" width="20.51" height="9"/>
			<rect x="0" y="131.519" width="20.5041" height="9" class="st6"/>
			<text x="7.47" y="139.02" class="st4" v:langID="1033"><v:paragraph v:horizAlign="1"/><v:tabList/>0</text>		</g>
		<g id="shape23-63" v:mID="23" v:groupContext="shape" transform="translate(25.1848,-99.5528)">
			<title>Sheet.23</title>
			<desc>1</desc>
			<v:textBlock v:margins="rect(4,4,4,4)"/>
			<v:textRect cx="10.2521" cy="135.934" width="20.51" height="9.16941"/>
			<rect x="0" y="131.349" width="20.5041" height="9.16941" class="st6"/>
			<text x="7.47" y="138.93" class="st4" v:langID="1033"><v:paragraph v:horizAlign="1"/><v:tabList/>1</text>		</g>
		<g id="shape25-66" v:mID="25" v:groupContext="shape" transform="translate(8.18272,-86.1587)">
			<title>Sheet.25</title>
			<desc>1</desc>
			<v:textBlock v:margins="rect(4,4,4,4)"/>
			<v:textRect cx="10.2521" cy="136.019" width="20.51" height="9"/>
			<rect x="0" y="131.519" width="20.5041" height="9" class="st6"/>
			<text x="7.47" y="139.02" class="st4" v:langID="1033"><v:paragraph v:horizAlign="1"/><v:tabList/>1</text>		</g>
		<g id="shape26-69" v:mID="26" v:groupContext="shape" transform="translate(25.1848,-85.7987)">
			<title>Sheet.26</title>
			<desc>0</desc>
			<v:textBlock v:margins="rect(4,4,4,4)"/>
			<v:textRect cx="10.2521" cy="135.934" width="20.51" height="9.16941"/>
			<rect x="0" y="131.349" width="20.5041" height="9.16941" class="st6"/>
			<text x="7.47" y="138.93" class="st4" v:langID="1033"><v:paragraph v:horizAlign="1"/><v:tabList/>0</text>		</g>
		<g id="shape28-72" v:mID="28" v:groupContext="shape" transform="translate(8.18272,-72.6587)">
			<title>Sheet.28</title>
			<desc>1</desc>
			<v:textBlock v:margins="rect(4,4,4,4)"/>
			<v:textRect cx="10.2521" cy="136.019" width="20.51" height="9"/>
			<rect x="0" y="131.519" width="20.5041" height="9" class="st6"/>
			<text x="7.47" y="139.02" class="st4" v:langID="1033"><v:paragraph v:horizAlign="1"/><v:tabList/>1</text>		</g>
		<g id="shape29-75" v:mID="29" v:groupContext="shape" transform="translate(25.1848,-72.0446)">
			<title>Sheet.29</title>
			<desc>1</desc>
			<v:textBlock v:margins="rect(4,4,4,4)"/>
			<v:textRect cx="10.2521" cy="135.934" width="20.51" height="9.16941"/>
			<rect x="0" y="131.349" width="20.5041" height="9.16941" class="st6"/>
			<text x="7.47" y="138.93" class="st4" v:langID="1033"><v:paragraph v:horizAlign="1"/><v:tabList/>1</text>		</g>
		<g id="shape43-78" v:mID="43" v:groupContext="shape" transform="translate(8.18272,-128.909)">
			<title>Sheet.43</title>
			<desc>S1</desc>
			<v:textBlock v:margins="rect(4,4,4,4)"/>
			<v:textRect cx="10.2521" cy="136.019" width="20.51" height="9"/>
			<rect x="0" y="131.519" width="20.5041" height="9" class="st6"/>
			<text x="4.14" y="139.02" class="st4" v:langID="1033"><v:paragraph v:horizAlign="1"/><v:tabList/>S1</text>		</g>
		<g id="shape44-81" v:mID="44" v:groupContext="shape" transform="translate(25.1848,-128.909)">
			<title>Sheet.44</title>
			<desc>S0</desc>
			<v:textBlock v:margins="rect(4,4,4,4)"/>
			<v:textRect cx="10.2521" cy="135.934" width="20.51" height="9.16941"/>
			<rect x="0" y="131.349" width="20.5041" height="9.16941" class="st6"/>
			<text x="4.14" y="138.93" class="st4" v:langID="1033"><v:paragraph v:horizAlign="1"/><v:tabList/>S0</text>		</g>
		<g id="shape45-84" v:mID="45" v:groupContext="shape" transform="translate(50.1889,-128.909)">
			<title>Sheet.45</title>
			<desc>Y</desc>
			<v:textBlock v:margins="rect(4,4,4,4)"/>
			<v:textRect cx="8.87294" cy="136.019" width="17.75" height="9"/>
			<rect x="0" y="131.519" width="17.7459" height="9" class="st6"/>
			<text x="5.54" y="139.02" class="st4" v:langID="1033"><v:paragraph v:horizAlign="1"/><v:tabList/>Y</text>		</g>
		<g id="shape46-87" v:mID="46" v:groupContext="shape" transform="translate(8.18478,-126.659)">
			<title>Sheet.46</title>
			<path d="M0 140.52 L60.5 140.52" class="st5"/>
		</g>
		<g id="shape47-90" v:mID="47" v:groupContext="shape" transform="translate(188.458,0.36) rotate(90)">
			<title>Sheet.47</title>
			<path d="M0 140.52 L67.5 140.52" class="st5"/>
		</g>
		<g id="shape48-93" v:mID="48" v:groupContext="shape" transform="translate(50.1889,-113.159)">
			<title>Sheet.48</title>
			<desc>I0</desc>
			<v:textBlock v:margins="rect(4,4,4,4)"/>
			<v:textRect cx="8.87294" cy="136.019" width="17.75" height="9"/>
			<rect x="0" y="131.519" width="17.7459" height="9" class="st6"/>
			<text x="4.7" y="139.02" class="st4" v:langID="1033"><v:paragraph v:horizAlign="1"/><v:tabList/>I0</text>		</g>
		<g id="shape49-96" v:mID="49" v:groupContext="shape" transform="translate(50.1889,-99.6587)">
			<title>Sheet.49</title>
			<desc>I1</desc>
			<v:textBlock v:margins="rect(4,4,4,4)"/>
			<v:textRect cx="8.87294" cy="136.019" width="17.75" height="9"/>
			<rect x="0" y="131.519" width="17.7459" height="9" class="st6"/>
			<text x="4.7" y="139.02" class="st4" v:langID="1033"><v:paragraph v:horizAlign="1"/><v:tabList/>I1</text>		</g>
		<g id="shape50-99" v:mID="50" v:groupContext="shape" transform="translate(50.1889,-86.1587)">
			<title>Sheet.50</title>
			<desc>I2</desc>
			<v:textBlock v:margins="rect(4,4,4,4)"/>
			<v:textRect cx="8.87294" cy="136.019" width="17.75" height="9"/>
			<rect x="0" y="131.519" width="17.7459" height="9" class="st6"/>
			<text x="4.7" y="139.02" class="st4" v:langID="1033"><v:paragraph v:horizAlign="1"/><v:tabList/>I2</text>		</g>
		<g id="shape51-102" v:mID="51" v:groupContext="shape" transform="translate(50.1889,-72.6587)">
			<title>Sheet.51</title>
			<desc>I3</desc>
			<v:textBlock v:margins="rect(4,4,4,4)"/>
			<v:textRect cx="8.87294" cy="136.019" width="17.75" height="9"/>
			<rect x="0" y="131.519" width="17.7459" height="9" class="st6"/>
			<text x="4.7" y="139.02" class="st4" v:langID="1033"><v:paragraph v:horizAlign="1"/><v:tabList/>I3</text>		</g>
		<g id="shape56-105" v:mID="56" v:groupContext="shape" transform="translate(136.517,-81.6587)">
			<title>Sheet.56</title>
			<desc>Y</desc>
			<v:textBlock v:margins="rect(4,4,4,4)"/>
			<v:textRect cx="6.75" cy="136.019" width="13.5" height="9"/>
			<rect x="0" y="131.519" width="13.5" height="9" class="st6"/>
			<text x="4" y="139.02" class="st4" v:langID="1033"><v:paragraph v:horizAlign="1"/><v:tabList/>Y</text>		</g>
		<g id="shape57-108" v:mID="57" v:groupContext="shape" transform="translate(46.7173,-22.86)">
			<title>Rectangle.35</title>
			<desc>I1</desc>
			<v:userDefs>
				<v:ud v:nameU="visVersion" v:val="VT0(11):26"/>
			</v:userDefs>
			<v:textBlock v:margins="rect(4,4,4,4)"/>
			<v:textRect cx="11.25" cy="129.269" width="22.5" height="22.5"/>
			<rect x="0" y="118.019" width="22.5" height="22.5" class="st7"/>
			<text x="7.5" y="131.97" class="st8" v:langID="1033"><v:paragraph v:horizAlign="1"/><v:tabList/>I1</text>		</g>
		<g id="shape58-111" v:mID="58" v:groupContext="shape" transform="translate(24.2173,-22.86)">
			<title>Rectangle.36</title>
			<desc>I0</desc>
			<v:userDefs>
				<v:ud v:nameU="visVersion" v:val="VT0(11):26"/>
			</v:userDefs>
			<v:textBlock v:margins="rect(4,4,4,4)"/>
			<v:textRect cx="11.25" cy="129.269" width="22.5" height="22.5"/>
			<rect x="0" y="118.019" width="22.5" height="22.5" class="st7"/>
			<text x="7.5" y="131.97" class="st8" v:langID="1033"><v:paragraph v:horizAlign="1"/><v:tabList/>I0</text>		</g>
		<g id="shape59-114" v:mID="59" v:groupContext="shape" transform="translate(46.7173,-0.36)">
			<title>Rectangle.37</title>
			<desc>I3</desc>
			<v:userDefs>
				<v:ud v:nameU="visVersion" v:val="VT0(11):26"/>
			</v:userDefs>
			<v:textBlock v:margins="rect(4,4,4,4)"/>
			<v:textRect cx="11.25" cy="129.269" width="22.5" height="22.5"/>
			<rect x="0" y="118.019" width="22.5" height="22.5" class="st7"/>
			<text x="7.5" y="132" class="st8" v:langID="1033"><v:paragraph v:horizAlign="1"/><v:tabList/>I3</text>		</g>
		<g id="shape60-117" v:mID="60" v:groupContext="shape" transform="translate(24.2173,-0.36)">
			<title>Rectangle.38</title>
			<desc>I2</desc>
			<v:userDefs>
				<v:ud v:nameU="visVersion" v:val="VT0(11):26"/>
			</v:userDefs>
			<v:textBlock v:margins="rect(4,4,4,4)"/>
			<v:textRect cx="11.25" cy="129.269" width="22.5" height="22.5"/>
			<rect x="0" y="118.019" width="22.5" height="22.5" class="st7"/>
			<text x="7.5" y="131.97" class="st8" v:langID="1033"><v:paragraph v:horizAlign="1"/><v:tabList/>I2</text>		</g>
		<g id="shape61-120" v:mID="61" v:groupContext="shape" transform="translate(6.21726,-54.36)">
			<title>Sheet.61</title>
			<desc>S0</desc>
			<v:textBlock v:margins="rect(0,0,0,0)"/>
			<v:textRect cx="16.104" cy="135.869" width="32.21" height="9.29869"/>
			<path d="M32.21 131.22 L0 131.22 L0 140.52 L32.21 140.52 L32.21 131.22" class="st3"/>
			<text x="9.99" y="138.87" class="st4" v:langID="1033"><v:paragraph v:horizAlign="1"/><v:tabList/>S0</text>		</g>
		<g id="shape62-124" v:mID="62" v:groupContext="shape" transform="translate(24.2173,-45.36)">
			<title>Sheet.62</title>
			<desc>0</desc>
			<v:textBlock v:margins="rect(0,0,0,0)"/>
			<v:textRect cx="11.25" cy="133.769" width="22.5" height="13.5"/>
			<path d="M22.5 127.02 L0 127.02 L0 140.52 L22.5 140.52 L22.5 127.02" class="st3"/>
			<text x="8.75" y="136.47" class="st8" v:langID="1033"><v:paragraph v:horizAlign="1"/><v:tabList/>0</text>		</g>
		<g id="shape63-128" v:mID="63" v:groupContext="shape" transform="translate(46.7173,-45.36)">
			<title>Sheet.63</title>
			<desc>1</desc>
			<v:textBlock v:margins="rect(0,0,0,0)"/>
			<v:textRect cx="11.25" cy="133.769" width="22.5" height="13.5"/>
			<path d="M22.5 127.02 L0 127.02 L0 140.52 L22.5 140.52 L22.5 127.02" class="st3"/>
			<text x="8.75" y="136.47" class="st8" v:langID="1033"><v:paragraph v:horizAlign="1"/><v:tabList/>1</text>		</g>
		<g id="shape64-132" v:mID="64" v:groupContext="shape" transform="translate(10.6875,-27.7966)">
			<title>Sheet.64</title>
			<desc>0</desc>
			<v:textBlock v:margins="rect(0,0,0,0)"/>
			<v:textRect cx="6.76488" cy="134.55" width="13.53" height="11.9384"/>
			<path d="M13.53 128.58 L0 128.58 L0 140.52 L13.53 140.52 L13.53 128.58" class="st3"/>
			<text x="4.26" y="137.25" class="st8" v:langID="1033"><v:paragraph v:horizAlign="1"/><v:tabList/>0</text>		</g>
		<g id="shape65-136" v:mID="65" v:groupContext="shape" transform="translate(10.6875,-5.4225)">
			<title>Sheet.65</title>
			<desc>1</desc>
			<v:textBlock v:margins="rect(0,0,0,0)"/>
			<v:textRect cx="6.76488" cy="134.55" width="13.53" height="11.9384"/>
			<path d="M13.53 128.58 L0 128.58 L0 140.52 L13.53 140.52 L13.53 128.58" class="st3"/>
			<text x="5.51" y="137.25" class="st8" v:langID="1033"><v:paragraph v:horizAlign="1"/><v:tabList/>1</text>		</g>
		<g id="shape66-140" v:mID="66" v:groupContext="shape" transform="translate(-75.1445,194.52) rotate(-135)">
			<title>Sheet.66</title>
			<path d="M0 140.52 L15.91 140.52" class="st5"/>
		</g>
		<g id="shape67-143" v:mID="67" v:groupContext="shape" transform="translate(8.29337E-014,-41.4225)">
			<title>Sheet.67</title>
			<desc>S1</desc>
			<v:textBlock v:margins="rect(0,0,0,0)"/>
			<v:textRect cx="6.76488" cy="133.338" width="13.53" height="14.3612"/>
			<path d="M13.53 126.16 L0 126.16 L0 140.52 L13.53 140.52 L13.53 126.16" class="st3"/>
			<text x="0.65" y="136.34" class="st4" v:langID="1033"><v:paragraph v:horizAlign="1"/><v:tabList/>S1</text>		</g>
	</g>
</svg>
