<?xml version="1.0" encoding="UTF-8" standalone="no"?>
<!DOCTYPE svg PUBLIC "-//W3C//DTD SVG 1.1//EN" "http://www.w3.org/Graphics/SVG/1.1/DTD/svg11.dtd">
<!-- Generated by Microsoft Visio, SVG Export SumExRule.svg Page-1 -->
<svg xmlns="http://www.w3.org/2000/svg" xmlns:xlink="http://www.w3.org/1999/xlink" xmlns:ev="http://www.w3.org/2001/xml-events"
		xmlns:v="http://schemas.microsoft.com/visio/2003/SVGExtensions/" width="3.885in" height="2.88355in"
		viewBox="0 0 279.72 207.616" xml:space="preserve" color-interpolation-filters="sRGB" class="st12">
	<v:documentProperties v:langID="1033" v:viewMarkup="false"/>

	<style type="text/css">
	<![CDATA[
		.st1 {fill:none;stroke:none;stroke-linecap:round;stroke-linejoin:round;stroke-width:0.72}
		.st2 {fill:#000000;font-family:Arial;font-size:0.75em}
		.st3 {font-size:1em}
		.st4 {marker-end:url(#mrkr4-27);stroke:#4d4d4d;stroke-linecap:round;stroke-linejoin:round;stroke-width:1.2}
		.st5 {fill:#4d4d4d;fill-opacity:1;stroke:#4d4d4d;stroke-opacity:1;stroke-width:0.4}
		.st6 {marker-end:url(#mrkr4-38);stroke:#4d4d4d;stroke-linecap:round;stroke-linejoin:round;stroke-width:1.2}
		.st7 {fill:#abe0ae;stroke:#000000;stroke-linecap:round;stroke-linejoin:round;stroke-width:0.24}
		.st8 {fill:#ffffff;stroke:#000000;stroke-linecap:round;stroke-linejoin:round;stroke-width:0.72}
		.st9 {fill:#000000;font-family:Arial;font-size:0.833336em}
		.st10 {stroke:#000000;stroke-linecap:round;stroke-linejoin:round;stroke-width:0.72}
		.st11 {fill:#000000;font-family:Arial;font-size:0.666664em}
		.st12 {fill:none;fill-rule:evenodd;font-size:12px;overflow:visible;stroke-linecap:square;stroke-miterlimit:3}
	]]>
	</style>

	<defs id="Markers">
		<g id="lend4">
			<path d="M 2 1 L 0 0 L 2 -1 L 2 1 " style="stroke:none"/>
		</g>
		<marker id="mrkr4-27" class="st5" v:arrowType="4" v:arrowSize="1" v:setback="5" refX="-5" orient="auto"
				markerUnits="strokeWidth" overflow="visible">
			<use xlink:href="#lend4" transform="scale(-2.5,-2.5) "/>
		</marker>
		<marker id="mrkr4-38" class="st5" v:arrowType="4" v:arrowSize="1" v:setback="4.7" refX="-4.7" orient="auto"
				markerUnits="strokeWidth" overflow="visible">
			<use xlink:href="#lend4" transform="scale(-2.5,-2.5) "/>
		</marker>
	</defs>
	<g v:mID="0" v:index="1" v:groupContext="foregroundPage">
		<title>Page-1</title>
		<v:pageProperties v:drawingScale="1" v:pageScale="1" v:drawingUnits="19" v:shadowOffsetX="9" v:shadowOffsetY="-9"/>
		<g id="shape1-1" v:mID="1" v:groupContext="shape" transform="translate(30.735,-155.61)">
			<title>Sheet.1</title>
			<desc>A = &#39;1&#39;</desc>
			<v:textBlock v:margins="rect(4,4,4,4)"/>
			<v:textRect cx="16.875" cy="203.116" width="33.75" height="9"/>
			<rect x="0" y="198.616" width="33.75" height="9" class="st1"/>
			<text x="5.05" y="205.82" class="st2" v:langID="1033"><v:paragraph v:horizAlign="2"/><v:tabList/>A = &#39;1&#39;</text>		</g>
		<g id="shape2-4" v:mID="2" v:groupContext="shape" transform="translate(0.36,-187.11)">
			<title>Sheet.2</title>
			<desc>A = &#39;0&#39; and C = &#39;1&#39;</desc>
			<v:textBlock v:margins="rect(4,4,4,4)"/>
			<v:textRect cx="27.5625" cy="198.616" width="55.13" height="18"/>
			<rect x="0" y="189.616" width="55.125" height="18" class="st1"/>
			<text x="6.45" y="196.59" class="st2" v:langID="1033"><v:paragraph v:spLine="-0.9" v:horizAlign="1"/><v:tabList/>A = &#39;0&#39; and<v:newlineChar/><tspan
						x="14.96" dy="0.9em" class="st3">C </tspan>= &#39;1&#39;</text>		</g>
		<g id="shape3-8" v:mID="3" v:groupContext="shape" transform="translate(70.11,-155.61)">
			<title>Sheet.3</title>
			<desc>B = &#39;1&#39;</desc>
			<v:textBlock v:margins="rect(4,4,4,4)"/>
			<v:textRect cx="24.75" cy="203.116" width="49.5" height="9"/>
			<rect x="0" y="198.616" width="49.5" height="9" class="st1"/>
			<text x="20.8" y="205.82" class="st2" v:langID="1033"><v:paragraph v:horizAlign="2"/><v:tabList/>B = &#39;1&#39;</text>		</g>
		<g id="shape4-11" v:mID="4" v:groupContext="shape" transform="translate(140.985,-146.61)">
			<title>Sheet.4</title>
			<desc>A = &#39;1&#39; and C =&#39;0&#39;</desc>
			<v:textBlock v:margins="rect(4,4,4,4)"/>
			<v:textRect cx="28.125" cy="196.366" width="56.25" height="22.5"/>
			<rect x="0" y="185.116" width="56.25" height="22.5" class="st1"/>
			<text x="7.02" y="194.34" class="st2" v:langID="1033"><v:paragraph v:spLine="-0.9" v:horizAlign="1"/><v:tabList/>A = &#39;1&#39; and<v:newlineChar/><tspan
						x="16.78" dy="0.9em" class="st3">C </tspan>=&#39;0&#39;</text>		</g>
		<g id="shape5-15" v:mID="5" v:groupContext="shape" transform="translate(148.86,-193.86)">
			<title>Sheet.5</title>
			<desc>A = &#39;0&#39;</desc>
			<v:textBlock v:margins="rect(4,4,4,4)"/>
			<v:textRect cx="18" cy="203.116" width="36" height="9"/>
			<rect x="0" y="198.616" width="36" height="9" class="st1"/>
			<text x="5.65" y="205.82" class="st2" v:langID="1033"><v:paragraph v:horizAlign="1"/><v:tabList/>A = &#39;0&#39;</text>		</g>
		<g id="shape6-18" v:mID="6" v:groupContext="shape" transform="translate(218.61,-151.11)">
			<title>Sheet.6</title>
			<desc>B = &#39;1&#39; and A=&#39;1&#39;</desc>
			<v:textBlock v:margins="rect(4,4,4,4)"/>
			<v:textRect cx="25.875" cy="200.866" width="51.75" height="13.5"/>
			<rect x="0" y="194.116" width="51.75" height="13.5" class="st1"/>
			<text x="4.77" y="198.84" class="st2" v:langID="1033"><v:paragraph v:spLine="-0.9" v:horizAlign="1"/><v:tabList/>B = &#39;1&#39; and<v:newlineChar/><tspan
						x="16.02" dy="0.9em" class="st3">A</tspan>=&#39;1&#39;</text>		</g>
		<g id="shape7-22" v:mID="7" v:groupContext="shape" transform="translate(407.204,-34.8658) rotate(69.3045)">
			<title>Sheet.7</title>
			<path d="M0 207.62 L21.06 207.62" class="st4"/>
		</g>
		<g id="shape8-28" v:mID="8" v:groupContext="shape" transform="translate(392.652,114.602) rotate(111.501)">
			<title>Sheet.8</title>
			<path d="M0 207.62 L21.62 207.62" class="st4"/>
		</g>
		<g id="shape9-33" v:mID="9" v:groupContext="shape" transform="translate(344.731,141.83) rotate(131.186)">
			<title>Sheet.9</title>
			<path d="M0 194.49 C-1.49 196.25 -1.68 198.27 -1.62 200.03 C-1.5 203.35 -0.51 205.79 2.64 206.95 C5.38 207.96 9.75 208.02
						 11.97 205.7 C12.89 204.74 13.44 203.38 13.52 200.29 L13.42 199.94" class="st6"/>
		</g>
		<g id="shape10-39" v:mID="10" v:groupContext="shape" transform="translate(190.485,-166.86)">
			<title>Circle.42</title>
			<path d="M0 191.87 A15.75 15.75 0 0 1 31.5 191.87 A15.75 15.75 0 1 1 0 191.87 Z" class="st7"/>
		</g>
		<g id="shape11-41" v:mID="11" v:groupContext="shape" transform="translate(190.485,-171.36)">
			<title>Sheet.11</title>
			<desc>S0 0 0 0</desc>
			<v:textBlock v:margins="rect(4,4,4,4)"/>
			<v:textRect cx="15.75" cy="197.491" width="31.5" height="20.25"/>
			<rect x="0" y="187.366" width="31.5" height="20.25" class="st1"/>
			<text x="10.25" y="194.79" class="st2" v:langID="1033"><v:paragraph v:horizAlign="1"/><v:tabList/>S0<v:newlineChar/><tspan
						x="5.74" dy="1.2em" class="st3">0 0 0</tspan></text>		</g>
		<g id="shape12-45" v:mID="12" v:groupContext="shape" transform="translate(34.11,-58.86)">
			<title>Square.302</title>
			<rect x="0" y="185.116" width="22.5" height="22.5" class="st8"/>
		</g>
		<g id="shape13-47" v:mID="13" v:groupContext="shape" transform="translate(20.61,-94.86)">
			<title>Sheet.13</title>
			<desc>B C</desc>
			<v:textBlock v:margins="rect(4,4,4,4)"/>
			<v:textRect cx="13.5" cy="203.116" width="27" height="9"/>
			<rect x="0" y="198.616" width="27" height="9" class="st1"/>
			<text x="5.16" y="206.12" class="st9" v:langID="1033"><v:paragraph v:horizAlign="1"/><v:tabList/>B C</text>		</g>
		<g id="shape14-50" v:mID="14" v:groupContext="shape" transform="translate(7.11,-81.36)">
			<title>Sheet.14</title>
			<desc>A</desc>
			<v:textBlock v:margins="rect(4,4,4,4)"/>
			<v:textRect cx="4.5" cy="203.116" width="9" height="9"/>
			<rect x="0" y="198.616" width="9" height="9" class="st1"/>
			<text x="4" y="206.12" class="st9" v:langID="1033"><v:paragraph v:horizAlign="1"/><v:tabList/>A</text>		</g>
		<g id="shape15-53" v:mID="15" v:groupContext="shape" transform="translate(-101.005,283.889) rotate(-139.399)">
			<title>Sheet.15</title>
			<path d="M0 207.62 L20.74 207.62" class="st10"/>
		</g>
		<g id="shape16-56" v:mID="16" v:groupContext="shape" transform="translate(101.61,-81.36)">
			<title>Sheet.16</title>
			<desc>10</desc>
			<v:textBlock v:margins="rect(4,4,4,4)"/>
			<v:textRect cx="11.25" cy="200.866" width="22.5" height="13.5"/>
			<rect x="0" y="194.116" width="22.5" height="13.5" class="st1"/>
			<text x="5.69" y="203.87" class="st9" v:langID="1033"><v:paragraph v:horizAlign="1"/><v:tabList/>10</text>		</g>
		<g id="shape17-59" v:mID="17" v:groupContext="shape" transform="translate(20.61,-58.86)">
			<title>Sheet.17</title>
			<desc>0</desc>
			<v:textBlock v:margins="rect(4,4,4,4)"/>
			<v:textRect cx="6.75" cy="196.366" width="13.5" height="22.5"/>
			<rect x="0" y="185.116" width="13.5" height="22.5" class="st1"/>
			<text x="4" y="199.37" class="st9" v:langID="1033"><v:paragraph v:horizAlign="1"/><v:tabList/>0</text>		</g>
		<g id="shape18-62" v:mID="18" v:groupContext="shape" transform="translate(20.61,-36.36)">
			<title>Sheet.18</title>
			<desc>1</desc>
			<v:textBlock v:margins="rect(4,4,4,4)"/>
			<v:textRect cx="6.75" cy="196.366" width="13.5" height="22.5"/>
			<rect x="0" y="185.116" width="13.5" height="22.5" class="st1"/>
			<text x="4" y="199.37" class="st9" v:langID="1033"><v:paragraph v:horizAlign="1"/><v:tabList/>1</text>		</g>
		<g id="shape19-65" v:mID="19" v:groupContext="shape" transform="translate(34.11,-36.36)">
			<title>Square.61</title>
			<desc>X</desc>
			<v:textBlock v:margins="rect(4,4,4,4)"/>
			<v:textRect cx="11.25" cy="196.366" width="22.5" height="22.5"/>
			<rect x="0" y="185.116" width="22.5" height="22.5" class="st8"/>
			<text x="8.58" y="198.77" class="st11" v:langID="1033"><v:paragraph v:horizAlign="1"/><v:tabList/>X</text>		</g>
		<g id="shape20-68" v:mID="20" v:groupContext="shape" transform="translate(56.61,-58.86)">
			<title>Square.62</title>
			<desc>S0+Y</desc>
			<v:textBlock v:margins="rect(4,0,4,0)"/>
			<v:textRect cx="11.25" cy="196.366" width="22.5" height="22.5"/>
			<rect x="0" y="185.116" width="22.5" height="22.5" class="st8"/>
			<text x="1.35" y="198.77" class="st11" v:langID="1033"><v:paragraph v:horizAlign="1"/><v:tabList/>S0+Y</text>		</g>
		<g id="shape21-71" v:mID="21" v:groupContext="shape" transform="translate(56.61,-36.36)">
			<title>Square.64</title>
			<desc>X+Y</desc>
			<v:textBlock v:margins="rect(4,0,4,0)"/>
			<v:textRect cx="11.25" cy="196.366" width="22.5" height="22.5"/>
			<rect x="0" y="185.116" width="22.5" height="22.5" class="st8"/>
			<text x="3.58" y="198.77" class="st11" v:langID="1033"><v:paragraph v:horizAlign="1"/><v:tabList/>X+Y</text>		</g>
		<g id="shape22-74" v:mID="22" v:groupContext="shape" transform="translate(79.11,-58.86)">
			<title>Square.65</title>
			<desc>S0+Y</desc>
			<v:textBlock v:margins="rect(4,0,4,0)"/>
			<v:textRect cx="11.25" cy="196.366" width="22.5" height="22.5"/>
			<rect x="0" y="185.116" width="22.5" height="22.5" class="st8"/>
			<text x="1.35" y="198.77" class="st11" v:langID="1033"><v:paragraph v:horizAlign="1"/><v:tabList/>S0+Y</text>		</g>
		<g id="shape23-77" v:mID="23" v:groupContext="shape" transform="translate(79.11,-36.36)">
			<title>Square.73</title>
			<desc>X+Y</desc>
			<v:textBlock v:margins="rect(4,0,4,0)"/>
			<v:textRect cx="11.25" cy="196.366" width="22.5" height="22.5"/>
			<rect x="0" y="185.116" width="22.5" height="22.5" class="st8"/>
			<text x="3.58" y="198.77" class="st11" v:langID="1033"><v:paragraph v:horizAlign="1"/><v:tabList/>X+Y</text>		</g>
		<g id="shape24-80" v:mID="24" v:groupContext="shape" transform="translate(101.61,-58.86)">
			<title>Square.74</title>
			<rect x="0" y="185.116" width="22.5" height="22.5" class="st8"/>
		</g>
		<g id="shape25-82" v:mID="25" v:groupContext="shape" transform="translate(101.61,-36.36)">
			<title>Square.76</title>
			<desc>X</desc>
			<v:textBlock v:margins="rect(4,4,4,4)"/>
			<v:textRect cx="11.25" cy="196.366" width="22.5" height="22.5"/>
			<rect x="0" y="185.116" width="22.5" height="22.5" class="st8"/>
			<text x="8.58" y="198.77" class="st11" v:langID="1033"><v:paragraph v:horizAlign="1"/><v:tabList/>X</text>		</g>
		<g id="shape26-85" v:mID="26" v:groupContext="shape" transform="translate(79.11,-81.36)">
			<title>Sheet.26</title>
			<desc>11</desc>
			<v:textBlock v:margins="rect(4,4,4,4)"/>
			<v:textRect cx="11.25" cy="200.866" width="22.5" height="13.5"/>
			<rect x="0" y="194.116" width="22.5" height="13.5" class="st1"/>
			<text x="5.69" y="203.87" class="st9" v:langID="1033"><v:paragraph v:horizAlign="1"/><v:tabList/>11</text>		</g>
		<g id="shape27-88" v:mID="27" v:groupContext="shape" transform="translate(56.61,-81.36)">
			<title>Sheet.27</title>
			<desc>10</desc>
			<v:textBlock v:margins="rect(4,4,4,4)"/>
			<v:textRect cx="11.25" cy="200.866" width="22.5" height="13.5"/>
			<rect x="0" y="194.116" width="22.5" height="13.5" class="st1"/>
			<text x="5.69" y="203.87" class="st9" v:langID="1033"><v:paragraph v:horizAlign="1"/><v:tabList/>10</text>		</g>
		<g id="shape28-91" v:mID="28" v:groupContext="shape" transform="translate(34.11,-81.36)">
			<title>Sheet.28</title>
			<desc>00</desc>
			<v:textBlock v:margins="rect(4,4,4,4)"/>
			<v:textRect cx="11.25" cy="200.866" width="22.5" height="13.5"/>
			<rect x="0" y="194.116" width="22.5" height="13.5" class="st1"/>
			<text x="5.69" y="203.87" class="st9" v:langID="1033"><v:paragraph v:horizAlign="1"/><v:tabList/>00</text>		</g>
		<g id="shape29-94" v:mID="29" v:groupContext="shape" transform="translate(172.485,-119.61)">
			<title>Circle.78</title>
			<desc>X</desc>
			<v:textBlock v:margins="rect(4,4,4,4)"/>
			<v:textRect cx="12.375" cy="195.241" width="21.66" height="18.5625"/>
			<path d="M0 195.24 A12.375 12.375 0 0 1 24.75 195.24 A12.375 12.375 0 1 1 0 195.24 Z" class="st7"/>
			<text x="9.37" y="197.94" class="st2" v:langID="1033"><v:paragraph v:horizAlign="1"/><v:tabList/>X</text>		</g>
		<g id="shape30-97" v:mID="30" v:groupContext="shape" transform="translate(214.11,-119.61)">
			<title>Circle.79</title>
			<desc>Y</desc>
			<v:textBlock v:margins="rect(4,4,4,4)"/>
			<v:textRect cx="12.375" cy="195.241" width="21.66" height="18.5625"/>
			<path d="M0 195.24 A12.375 12.375 0 0 1 24.75 195.24 A12.375 12.375 0 1 1 0 195.24 Z" class="st7"/>
			<text x="9.37" y="197.94" class="st2" v:langID="1033"><v:paragraph v:horizAlign="1"/><v:tabList/>Y</text>		</g>
		<g id="shape31-100" v:mID="31" v:groupContext="shape" transform="translate(2.61,-0.36)">
			<title>Sheet.31</title>
			<desc>“Sum” errors: cells 0 and 2 “Exclusion” errors: cells 1,3,5,7</desc>
			<v:textBlock v:margins="rect(4,4,4,4)"/>
			<v:textRect cx="76.5" cy="194.116" width="153" height="27"/>
			<rect x="0" y="180.616" width="153" height="27" class="st1"/>
			<text x="4" y="191.12" class="st9" v:langID="1033"><v:paragraph/><v:tabList/>“Sum” errors: cells 0 and 2<v:newlineChar/><tspan
						x="4" dy="1.2em" class="st3">“</tspan>Exclusion” errors: cells 1,3,5,7</text>		</g>
		<g id="shape32-104" v:mID="32" v:groupContext="shape" transform="translate(166.86,-58.86)">
			<title>Square.81</title>
			<desc>S0</desc>
			<v:textBlock v:margins="rect(4,4,4,4)"/>
			<v:textRect cx="11.25" cy="196.366" width="22.5" height="22.5"/>
			<rect x="0" y="185.116" width="22.5" height="22.5" class="st8"/>
			<text x="6.36" y="198.77" class="st11" v:langID="1033"><v:paragraph v:horizAlign="1"/><v:tabList/>S0</text>		</g>
		<g id="shape33-107" v:mID="33" v:groupContext="shape" transform="translate(155.61,-94.86)">
			<title>Sheet.33</title>
			<desc>B C</desc>
			<v:textBlock v:margins="rect(4,4,4,4)"/>
			<v:textRect cx="12.375" cy="203.116" width="24.75" height="9"/>
			<rect x="0" y="198.616" width="24.75" height="9" class="st1"/>
			<text x="4.04" y="206.12" class="st9" v:langID="1033"><v:paragraph v:horizAlign="1"/><v:tabList/>B C</text>		</g>
		<g id="shape34-110" v:mID="34" v:groupContext="shape" transform="translate(144.36,-81.36)">
			<title>Sheet.34</title>
			<desc>A</desc>
			<v:textBlock v:margins="rect(4,4,4,4)"/>
			<v:textRect cx="5.625" cy="203.116" width="11.25" height="9"/>
			<rect x="0" y="198.616" width="11.25" height="9" class="st1"/>
			<text x="4" y="206.12" class="st9" v:langID="1033"><v:paragraph v:horizAlign="1"/><v:tabList/>A</text>		</g>
		<g id="shape35-113" v:mID="35" v:groupContext="shape" transform="translate(20.0535,273.062) rotate(-135)">
			<title>Sheet.35</title>
			<path d="M0 207.62 L19.09 207.62" class="st10"/>
		</g>
		<g id="shape36-116" v:mID="36" v:groupContext="shape" transform="translate(234.36,-81.36)">
			<title>Sheet.36</title>
			<desc>10</desc>
			<v:textBlock v:margins="rect(4,4,4,4)"/>
			<v:textRect cx="11.25" cy="200.866" width="22.5" height="13.5"/>
			<rect x="0" y="194.116" width="22.5" height="13.5" class="st1"/>
			<text x="5.69" y="203.87" class="st9" v:langID="1033"><v:paragraph v:horizAlign="1"/><v:tabList/>10</text>		</g>
		<g id="shape37-119" v:mID="37" v:groupContext="shape" transform="translate(153.36,-58.86)">
			<title>Sheet.37</title>
			<desc>0</desc>
			<v:textBlock v:margins="rect(4,4,4,4)"/>
			<v:textRect cx="6.75" cy="196.366" width="13.5" height="22.5"/>
			<rect x="0" y="185.116" width="13.5" height="22.5" class="st1"/>
			<text x="4" y="199.37" class="st9" v:langID="1033"><v:paragraph v:horizAlign="1"/><v:tabList/>0</text>		</g>
		<g id="shape38-122" v:mID="38" v:groupContext="shape" transform="translate(151.11,-36.36)">
			<title>Sheet.38</title>
			<desc>1</desc>
			<v:textBlock v:margins="rect(4,4,4,4)"/>
			<v:textRect cx="7.875" cy="196.366" width="15.75" height="22.5"/>
			<rect x="0" y="185.116" width="15.75" height="22.5" class="st1"/>
			<text x="5.09" y="199.37" class="st9" v:langID="1033"><v:paragraph v:horizAlign="1"/><v:tabList/>1</text>		</g>
		<g id="shape39-125" v:mID="39" v:groupContext="shape" transform="translate(166.86,-36.36)">
			<title>Square.89</title>
			<desc>X</desc>
			<v:textBlock v:margins="rect(4,4,4,4)"/>
			<v:textRect cx="11.25" cy="196.366" width="22.5" height="22.5"/>
			<rect x="0" y="185.116" width="22.5" height="22.5" class="st8"/>
			<text x="8.58" y="198.77" class="st11" v:langID="1033"><v:paragraph v:horizAlign="1"/><v:tabList/>X</text>		</g>
		<g id="shape40-128" v:mID="40" v:groupContext="shape" transform="translate(189.36,-58.86)">
			<title>Square.90</title>
			<desc>S0</desc>
			<v:textBlock v:margins="rect(4,4,4,4)"/>
			<v:textRect cx="11.25" cy="196.366" width="22.5" height="22.5"/>
			<rect x="0" y="185.116" width="22.5" height="22.5" class="st8"/>
			<text x="6.36" y="198.77" class="st11" v:langID="1033"><v:paragraph v:horizAlign="1"/><v:tabList/>S0</text>		</g>
		<g id="shape41-131" v:mID="41" v:groupContext="shape" transform="translate(189.36,-36.36)">
			<title>Square.92</title>
			<desc>X</desc>
			<v:textBlock v:margins="rect(4,4,4,4)"/>
			<v:textRect cx="11.25" cy="196.366" width="22.5" height="22.5"/>
			<rect x="0" y="185.116" width="22.5" height="22.5" class="st8"/>
			<text x="8.58" y="198.77" class="st11" v:langID="1033"><v:paragraph v:horizAlign="1"/><v:tabList/>X</text>		</g>
		<g id="shape42-134" v:mID="42" v:groupContext="shape" transform="translate(211.86,-58.86)">
			<title>Square.93</title>
			<desc>S0</desc>
			<v:textBlock v:margins="rect(4,4,4,4)"/>
			<v:textRect cx="11.25" cy="196.366" width="22.5" height="22.5"/>
			<rect x="0" y="185.116" width="22.5" height="22.5" class="st8"/>
			<text x="6.36" y="198.77" class="st11" v:langID="1033"><v:paragraph v:horizAlign="1"/><v:tabList/>S0</text>		</g>
		<g id="shape43-137" v:mID="43" v:groupContext="shape" transform="translate(211.86,-36.36)">
			<title>Square.95</title>
			<desc>Y</desc>
			<v:textBlock v:margins="rect(4,4,4,4)"/>
			<v:textRect cx="11.25" cy="196.366" width="22.5" height="22.5"/>
			<rect x="0" y="185.116" width="22.5" height="22.5" class="st8"/>
			<text x="8.58" y="198.77" class="st11" v:langID="1033"><v:paragraph v:horizAlign="1"/><v:tabList/>Y</text>		</g>
		<g id="shape44-140" v:mID="44" v:groupContext="shape" transform="translate(234.36,-58.86)">
			<title>Square.96</title>
			<desc>S0</desc>
			<v:textBlock v:margins="rect(4,4,4,4)"/>
			<v:textRect cx="11.25" cy="196.366" width="22.5" height="22.5"/>
			<rect x="0" y="185.116" width="22.5" height="22.5" class="st8"/>
			<text x="6.36" y="198.77" class="st11" v:langID="1033"><v:paragraph v:horizAlign="1"/><v:tabList/>S0</text>		</g>
		<g id="shape45-143" v:mID="45" v:groupContext="shape" transform="translate(234.36,-36.36)">
			<title>Square.98</title>
			<desc>Y</desc>
			<v:textBlock v:margins="rect(4,4,4,4)"/>
			<v:textRect cx="11.25" cy="196.366" width="22.5" height="22.5"/>
			<rect x="0" y="185.116" width="22.5" height="22.5" class="st8"/>
			<text x="8.58" y="198.77" class="st11" v:langID="1033"><v:paragraph v:horizAlign="1"/><v:tabList/>Y</text>		</g>
		<g id="shape46-146" v:mID="46" v:groupContext="shape" transform="translate(211.86,-81.36)">
			<title>Sheet.46</title>
			<desc>11</desc>
			<v:textBlock v:margins="rect(4,4,4,4)"/>
			<v:textRect cx="11.25" cy="200.866" width="22.5" height="13.5"/>
			<rect x="0" y="194.116" width="22.5" height="13.5" class="st1"/>
			<text x="5.69" y="203.87" class="st9" v:langID="1033"><v:paragraph v:horizAlign="1"/><v:tabList/>11</text>		</g>
		<g id="shape47-149" v:mID="47" v:groupContext="shape" transform="translate(189.36,-81.36)">
			<title>Sheet.47</title>
			<desc>10</desc>
			<v:textBlock v:margins="rect(4,4,4,4)"/>
			<v:textRect cx="11.25" cy="200.866" width="22.5" height="13.5"/>
			<rect x="0" y="194.116" width="22.5" height="13.5" class="st1"/>
			<text x="5.69" y="203.87" class="st9" v:langID="1033"><v:paragraph v:horizAlign="1"/><v:tabList/>10</text>		</g>
		<g id="shape48-152" v:mID="48" v:groupContext="shape" transform="translate(166.86,-81.36)">
			<title>Sheet.48</title>
			<desc>00</desc>
			<v:textBlock v:margins="rect(4,4,4,4)"/>
			<v:textRect cx="11.25" cy="200.866" width="22.5" height="13.5"/>
			<rect x="0" y="194.116" width="22.5" height="13.5" class="st1"/>
			<text x="5.69" y="203.87" class="st9" v:langID="1033"><v:paragraph v:horizAlign="1"/><v:tabList/>00</text>		</g>
		<g id="shape49-155" v:mID="49" v:groupContext="shape" transform="translate(157.86,-0.36)">
			<title>Sheet.49</title>
			<desc>No errors - each cell has one and only one entry.</desc>
			<v:textBlock v:margins="rect(4,4,4,4)"/>
			<v:textRect cx="60.75" cy="194.116" width="121.5" height="27"/>
			<rect x="0" y="180.616" width="121.5" height="27" class="st1"/>
			<text x="4" y="191.12" class="st9" v:langID="1033"><v:paragraph/><v:tabList/>No errors - each cell has <tspan x="4"
						dy="1.2em" class="st3">one and only one entry</tspan>.</text>		</g>
		<g id="shape50-159" v:mID="50" v:groupContext="shape" transform="translate(275.579,-34.8658) rotate(69.3045)">
			<title>Sheet.50</title>
			<path d="M0 207.62 L21.06 207.62" class="st4"/>
		</g>
		<g id="shape51-164" v:mID="51" v:groupContext="shape" transform="translate(261.027,114.602) rotate(111.501)">
			<title>Sheet.51</title>
			<path d="M0 207.62 L21.62 207.62" class="st4"/>
		</g>
		<g id="shape52-169" v:mID="52" v:groupContext="shape" transform="translate(213.106,141.83) rotate(131.186)">
			<title>Sheet.52</title>
			<path d="M0 194.49 C-1.49 196.25 -1.68 198.27 -1.62 200.03 C-1.5 203.35 -0.51 205.79 2.64 206.95 C5.38 207.96 9.75 208.02
						 11.97 205.7 C12.89 204.74 13.44 203.38 13.52 200.29 L13.42 199.94" class="st6"/>
		</g>
		<g id="shape53-174" v:mID="53" v:groupContext="shape" transform="translate(58.86,-166.86)">
			<title>Circle.30</title>
			<path d="M0 191.87 A15.75 15.75 0 0 1 31.5 191.87 A15.75 15.75 0 1 1 0 191.87 Z" class="st7"/>
		</g>
		<g id="shape54-176" v:mID="54" v:groupContext="shape" transform="translate(58.86,-171.36)">
			<title>Sheet.54</title>
			<desc>S0 0 0 0</desc>
			<v:textBlock v:margins="rect(4,4,4,4)"/>
			<v:textRect cx="15.75" cy="197.491" width="31.5" height="20.25"/>
			<rect x="0" y="187.366" width="31.5" height="20.25" class="st1"/>
			<text x="10.25" y="194.79" class="st2" v:langID="1033"><v:paragraph v:horizAlign="1"/><v:tabList/>S0<v:newlineChar/><tspan
						x="5.74" dy="1.2em" class="st3">0 0 0</tspan></text>		</g>
		<g id="shape55-180" v:mID="55" v:groupContext="shape" transform="translate(40.86,-119.61)">
			<title>Circle.38</title>
			<desc>X</desc>
			<v:textBlock v:margins="rect(4,4,4,4)"/>
			<v:textRect cx="12.375" cy="195.241" width="21.66" height="18.5625"/>
			<path d="M0 195.24 A12.375 12.375 0 0 1 24.75 195.24 A12.375 12.375 0 1 1 0 195.24 Z" class="st7"/>
			<text x="9.37" y="197.94" class="st2" v:langID="1033"><v:paragraph v:horizAlign="1"/><v:tabList/>X</text>		</g>
		<g id="shape56-183" v:mID="56" v:groupContext="shape" transform="translate(82.485,-119.61)">
			<title>Circle.56</title>
			<desc>Y</desc>
			<v:textBlock v:margins="rect(4,4,4,4)"/>
			<v:textRect cx="12.375" cy="195.241" width="21.66" height="18.5625"/>
			<path d="M0 195.24 A12.375 12.375 0 0 1 24.75 195.24 A12.375 12.375 0 1 1 0 195.24 Z" class="st7"/>
			<text x="9.37" y="197.94" class="st2" v:langID="1033"><v:paragraph v:horizAlign="1"/><v:tabList/>Y</text>		</g>
	</g>
</svg>
