<?xml version="1.0" encoding="UTF-8" standalone="no"?>
<!DOCTYPE svg PUBLIC "-//W3C//DTD SVG 1.1//EN" "http://www.w3.org/Graphics/SVG/1.1/DTD/svg11.dtd">
<!-- Generated by Microsoft Visio, SVG Export FET channel.svg Page-1 -->
<svg xmlns="http://www.w3.org/2000/svg" xmlns:xlink="http://www.w3.org/1999/xlink" xmlns:ev="http://www.w3.org/2001/xml-events"
		xmlns:v="http://schemas.microsoft.com/visio/2003/SVGExtensions/" width="7.21875in" height="2.1415in"
		viewBox="0 0 519.75 154.188" xml:space="preserve" color-interpolation-filters="sRGB" class="st21">
	<v:documentProperties v:langID="1033" v:viewMarkup="false">
		<v:userDefs>
			<v:ud v:nameU="msvConvertTheme"/>
		</v:userDefs>
	</v:documentProperties>

	<style type="text/css">
	<![CDATA[
		.st1 {stroke:none;stroke-linecap:round;stroke-linejoin:round;stroke-width:0.75}
		.st2 {fill:#000000;font-family:Arial;font-size:0.75em}
		.st3 {font-size:1em}
		.st4 {fill:url(#grad0-9);stroke:none;stroke-linecap:round;stroke-linejoin:round;stroke-width:0.24}
		.st5 {fill:url(#grad0-13);stroke:none;stroke-linecap:round;stroke-linejoin:round;stroke-width:0.24}
		.st6 {fill:url(#grad0-17);stroke:none;stroke-linecap:round;stroke-linejoin:round;stroke-width:0.24}
		.st7 {fill:#99f7b5;stroke:#000000;stroke-dasharray:0,0.72;stroke-linecap:round;stroke-linejoin:round;stroke-width:0.24}
		.st8 {fill:#14e453;stroke:none;stroke-linecap:round;stroke-linejoin:round;stroke-width:0.24}
		.st9 {marker-end:url(#mrkr4-31);stroke:#800080;stroke-linecap:round;stroke-linejoin:round;stroke-width:2.16}
		.st10 {fill:#800080;fill-opacity:1;stroke:#800080;stroke-opacity:1;stroke-width:0.46153846153846}
		.st11 {fill:url(#grad0-56);stroke:none;stroke-linecap:round;stroke-linejoin:round;stroke-width:0.24}
		.st12 {fill:#ff0000;stroke:none;stroke-linecap:round;stroke-linejoin:round;stroke-width:0.24}
		.st13 {fill:url(#grad6-72);stroke:none;stroke-linecap:round;stroke-linejoin:round;stroke-width:0.24}
		.st14 {fill:url(#grad9-76);stroke:none;stroke-linecap:round;stroke-linejoin:round;stroke-width:0.24}
		.st15 {marker-end:url(#mrkr4-89);stroke:#000000;stroke-linecap:round;stroke-linejoin:round;stroke-width:1.2}
		.st16 {fill:#000000;fill-opacity:1;stroke:#000000;stroke-opacity:1;stroke-width:0.32258064516129}
		.st17 {fill:#7979ff;stroke:none;stroke-linecap:round;stroke-linejoin:round;stroke-width:0.24}
		.st18 {fill:url(#grad1-123);stroke:none;stroke-linecap:round;stroke-linejoin:round;stroke-width:0.24}
		.st19 {marker-end:url(#mrkr4-163);stroke:#000000;stroke-linecap:round;stroke-linejoin:round;stroke-width:0.72}
		.st20 {fill:#000000;fill-opacity:1;stroke:#000000;stroke-opacity:1;stroke-width:0.22222222222222}
		.st21 {fill:none;fill-rule:evenodd;font-size:12px;overflow:visible;stroke-linecap:square;stroke-miterlimit:3}
	]]>
	</style>

	<defs id="Patterns_And_Gradients">
		<linearGradient id="grad0-9" x1="0" y1="0" x2="1" y2="0" gradientTransform="rotate(90 0.5 0.5)">
			<stop offset="0" stop-color="#a4af6d" stop-opacity="1"/>
			<stop offset="1" stop-color="#c7cea6" stop-opacity="1"/>
		</linearGradient>
		<linearGradient id="grad0-13" x1="0" y1="0" x2="1" y2="0" gradientTransform="rotate(0 0.5 0.5)">
			<stop offset="0" stop-color="#a4af6d" stop-opacity="1"/>
			<stop offset="1" stop-color="#c7cea6" stop-opacity="1"/>
		</linearGradient>
		<linearGradient id="grad0-17" x1="0" y1="0" x2="1" y2="0" gradientTransform="rotate(0 0.5 0.5)">
			<stop offset="0" stop-color="#a4af6d" stop-opacity="1"/>
			<stop offset="1" stop-color="#d8ddc1" stop-opacity="1"/>
		</linearGradient>
		<linearGradient id="grad0-56" x1="0" y1="0" x2="1" y2="0" gradientTransform="rotate(0 0.5 0.5)">
			<stop offset="0" stop-color="#acb77b" stop-opacity="1"/>
			<stop offset="1" stop-color="#d8ddc1" stop-opacity="1"/>
		</linearGradient>
		<radialGradient id="grad6-72" cx="1" cy="0" r="1.4">
			<stop offset="0" stop-color="#0000ff" stop-opacity="1"/>
			<stop offset="1" stop-color="#7979ff" stop-opacity="1"/>
		</radialGradient>
		<pattern id="grad9-76" x="0" y="0" width="1" height="1" patternContentUnits="objectBoundingBox">
			<path d="M 0 1 L 0 0 L 1 0 z" style="fill:url(#grad0-77)"/>
			<path d="M 0 1 L 1 1 L 1 0 z" style="fill:url(#grad0-78)"/>
		</pattern>
		<linearGradient id="grad0-77" x1="0" y1="0" x2="1" y2="0" gradientTransform="rotate(270 0.5 0.5)">
			<stop offset="0" stop-color="#0000ff" stop-opacity="1"/>
			<stop offset="1" stop-color="#7979ff" stop-opacity="1"/>
		</linearGradient>
		<linearGradient id="grad0-78" x1="0" y1="0" x2="1" y2="0" gradientTransform="rotate(360 0.5 0.5)">
			<stop offset="0" stop-color="#0000ff" stop-opacity="1"/>
			<stop offset="1" stop-color="#7979ff" stop-opacity="1"/>
		</linearGradient>
		<radialGradient id="grad1-123" cx="1" cy="1" r="1.4">
			<stop offset="0" stop-color="#000000" stop-opacity="1"/>
			<stop offset="1" stop-color="#000000" stop-opacity="1"/>
		</radialGradient>
	</defs>
	<defs id="Markers">
		<g id="lend4">
			<path d="M 2 1 L 0 0 L 2 -1 L 2 1 " style="stroke:none"/>
		</g>
		<marker id="mrkr4-31" class="st10" v:arrowType="4" v:arrowSize="2" v:setback="4.33333" refX="-4.3333333333333"
				orient="auto" markerUnits="strokeWidth" overflow="visible">
			<use xlink:href="#lend4" transform="scale(-2.1666666666667,-2.1666666666667) "/>
		</marker>
		<marker id="mrkr4-89" class="st16" v:arrowType="4" v:arrowSize="2" v:setback="6.2" refX="-6.2" orient="auto"
				markerUnits="strokeWidth" overflow="visible">
			<use xlink:href="#lend4" transform="scale(-3.1,-3.1) "/>
		</marker>
		<marker id="mrkr4-163" class="st20" v:arrowType="4" v:arrowSize="2" v:setback="8.5" refX="-8.5" orient="auto"
				markerUnits="strokeWidth" overflow="visible">
			<use xlink:href="#lend4" transform="scale(-4.5,-4.5) "/>
		</marker>
	</defs>
	<g v:mID="0" v:index="1" v:groupContext="foregroundPage">
		<title>Page-1</title>
		<v:pageProperties v:drawingScale="1" v:pageScale="1" v:drawingUnits="19" v:shadowOffsetX="9" v:shadowOffsetY="-9"/>
		<v:layer v:name="Connector" v:index="0"/>
		<g id="shape28-1" v:mID="28" v:groupContext="shape" transform="translate(45,-118.512)">
			<title>Sheet.28</title>
			<desc>Charged ions are implanted in areas that will become the FET ...</desc>
			<v:textBlock v:margins="rect(0,0,0,0)"/>
			<v:textRect cx="85.5" cy="139.95" width="171" height="28.4756"/>
			<path d="M171 125.71 L0 125.71 L0 154.19 L171 154.19 L171 125.71" class="st1"/>
			<text x="4.2" y="137.25" class="st2" v:langID="1033"><v:paragraph v:horizAlign="1"/><v:tabList/>Charged ions are implanted in areas that <tspan
						x="9.96" dy="1.2em" class="st3">will become the FET source and drain </tspan> </text>		</g>
		<g id="shape2-6" v:mID="2" v:groupContext="shape" transform="translate(4.5,-24.75)">
			<title>Rectangle</title>
			<rect x="0" y="127.188" width="180" height="27" class="st4"/>
		</g>
		<g id="shape1-10" v:mID="1" v:groupContext="shape" transform="translate(184.5,-24.75)">
			<title>Sheet.1</title>
			<path d="M0 127.19 L54 73.19 L54 100.19 L0 154.19 L0 127.19 Z" class="st5"/>
		</g>
		<g id="shape177-14" v:mID="177" v:groupContext="shape" transform="translate(4.5,-51.75)">
			<title>Sheet.177</title>
			<path d="M180.1 154.09 L234 100.19 L63 100.19 L0 154.19 L180.1 154.09 Z" class="st6"/>
		</g>
		<g id="shape178-18" v:mID="178" v:groupContext="shape" transform="translate(99,-65.25)">
			<title>Sheet.178</title>
			<path d="M-0 145.19 A13.5 9 -180 0 0 13.5 154.19 A13.5 9 -180 0 0 27 145.19 L0 145.19 Z" class="st7"/>
		</g>
		<g id="shape179-20" v:mID="179" v:groupContext="shape" transform="translate(99,-74.25)">
			<title>Sheet.179</title>
			<path d="M27 154.19 L45 136.19 L18 136.19 L0 154.19 L27 154.19 Z" class="st8"/>
		</g>
		<g id="shape180-22" v:mID="180" v:groupContext="shape" transform="translate(162,-65.25)">
			<title>Sheet.180</title>
			<path d="M-0 145.19 A13.5 9 -180 0 0 13.5 154.19 A13.5 9 -180 0 0 27 145.19 L0 145.19 Z" class="st7"/>
		</g>
		<g id="shape181-24" v:mID="181" v:groupContext="shape" transform="translate(162,-74.25)">
			<title>Sheet.181</title>
			<path d="M27 154.19 L45 136.19 L18 136.19 L0 154.19 L27 154.19 Z" class="st8"/>
		</g>
		<g id="shape183-26" v:mID="183" v:groupContext="shape" transform="translate(90,-79.6667)">
			<title>Sheet.183</title>
			<path d="M0 119.35 L9 138.35 L13.5 135.19 L18.49 145.73" class="st9"/>
		</g>
		<g id="shape182-32" v:mID="182" v:groupContext="shape" transform="translate(101.25,-84.4167)">
			<title>Sheet.182</title>
			<path d="M0 119.35 L9 138.35 L13.5 135.19 L18.49 145.73" class="st9"/>
		</g>
		<g id="shape185-37" v:mID="185" v:groupContext="shape" transform="translate(166.93,-84.4167)">
			<title>Sheet.185</title>
			<path d="M0 119.35 L9 138.35 L13.5 135.19 L18.49 145.73" class="st9"/>
		</g>
		<g id="shape184-42" v:mID="184" v:groupContext="shape" transform="translate(159.75,-76.5)">
			<title>Sheet.184</title>
			<path d="M0 119.35 L9 138.35 L13.5 135.19 L18.49 145.73" class="st9"/>
		</g>
		<g id="shape186-47" v:mID="186" v:groupContext="shape" transform="translate(265.5,-24.75)">
			<title>Rectangle.186</title>
			<rect x="0" y="127.188" width="180" height="27" class="st4"/>
		</g>
		<g id="shape188-50" v:mID="188" v:groupContext="shape" transform="translate(445.5,-24.75)">
			<title>Sheet.188</title>
			<path d="M0 127.19 L54 73.19 L54 100.19 L0 154.19 L0 127.19 Z" class="st5"/>
		</g>
		<g id="shape189-53" v:mID="189" v:groupContext="shape" transform="translate(265.5,-51.75)">
			<title>Sheet.189</title>
			<path d="M180.1 154.09 L234 100.19 L63 100.19 L0 154.19 L180.1 154.09 Z" class="st11"/>
		</g>
		<g id="shape190-57" v:mID="190" v:groupContext="shape" transform="translate(360,-65.25)">
			<title>Sheet.190</title>
			<path d="M-0 145.19 A13.5 9 -180 0 0 13.5 154.19 A13.5 9 -180 0 0 27 145.19 L0 145.19 Z" class="st7"/>
		</g>
		<g id="shape191-59" v:mID="191" v:groupContext="shape" transform="translate(360,-74.25)">
			<title>Sheet.191</title>
			<path d="M27 154.19 L45 136.19 L18 136.19 L0 154.19 L27 154.19 Z" class="st8"/>
		</g>
		<g id="shape192-61" v:mID="192" v:groupContext="shape" transform="translate(423,-65.25)">
			<title>Sheet.192</title>
			<path d="M-0 145.19 A13.5 9 -180 0 0 13.5 154.19 A13.5 9 -180 0 0 27 145.19 L0 145.19 Z" class="st7"/>
		</g>
		<g id="shape193-63" v:mID="193" v:groupContext="shape" transform="translate(423,-74.25)">
			<title>Sheet.193</title>
			<path d="M27 154.19 L45 136.19 L18 136.19 L0 154.19 L27 154.19 Z" class="st8"/>
		</g>
		<g id="shape194-65" v:mID="194" v:groupContext="shape" transform="translate(387,-74.25)">
			<title>Rectangle.194</title>
			<rect x="0" y="151.375" width="36" height="2.8125" class="st12"/>
		</g>
		<g id="shape195-67" v:mID="195" v:groupContext="shape" transform="translate(423,-74.0596)">
			<title>Sheet.195</title>
			<path d="M0 151.18 L18 133.18 L18.09 136 L0 154.19 L0 151.18 Z" class="st12"/>
		</g>
		<g id="shape196-69" v:mID="196" v:groupContext="shape" transform="translate(387,-77.0625)">
			<title>Rectangle.196</title>
			<rect x="0" y="149.125" width="36" height="5.0625" class="st13"/>
		</g>
		<g id="shape197-73" v:mID="197" v:groupContext="shape" transform="translate(423,-77.0625)">
			<title>Sheet.197</title>
			<path d="M0 149.13 L18 131.13 L17.98 136.21 L0 154.19 L0 149.13 Z" class="st14"/>
		</g>
		<g id="shape199-79" v:mID="199" v:groupContext="shape">
			<title>Sheet.199</title>
			<desc>Source and diffusion regions are formed beneath the surface o...</desc>
			<v:textBlock v:margins="rect(0,0,0,0)"/>
			<v:textRect cx="85.5" cy="141.813" width="171" height="24.75"/>
			<path d="M171 129.44 L0 129.44 L0 154.19 L171 154.19 L171 129.44" class="st1"/>
			<text x="5.45" y="139.11" class="st2" v:langID="1033"><v:paragraph v:horizAlign="1"/><v:tabList/>Source and diffusion regions are formed <tspan
						x="19.46" dy="1.2em" class="st3">beneath the surface of the silicon</tspan></text>		</g>
		<g id="shape200-84" v:mID="200" v:groupContext="shape" transform="translate(-47.1626,114.186) rotate(-85.713)">
			<title>Sheet.200</title>
			<path d="M0 154.19 L29.68 154.19" class="st15"/>
		</g>
		<g id="shape201-90" v:mID="201" v:groupContext="shape" transform="translate(22.6341,0.420568) rotate(-35.6501)">
			<title>Sheet.201</title>
			<path d="M0 154.19 L59.33 154.19" class="st15"/>
		</g>
		<g id="shape202-95" v:mID="202" v:groupContext="shape" transform="translate(274.219,-123.75)">
			<title>Sheet.202</title>
			<desc>Conductive metal is “grown” on top of an insulator over the c...</desc>
			<v:textBlock v:margins="rect(0,0,0,0)"/>
			<v:textRect cx="56.25" cy="139.95" width="112.5" height="28.4756"/>
			<path d="M112.5 125.71 L0 125.71 L0 154.19 L112.5 154.19 L112.5 125.71" class="st1"/>
			<text x="0.48" y="131.85" class="st2" v:langID="1033"><v:paragraph v:horizAlign="1"/><v:tabList/>Conductive metal is “grown” <tspan
						x="4.22" dy="1.2em" class="st3">on top of an insulator over </tspan><tspan x="22.72" dy="1.2em" class="st3">the channel area </tspan> </text>		</g>
		<g id="shape204-101" v:mID="204" v:groupContext="shape" transform="translate(286.065,-15.5894) rotate(-45)">
			<title>Sheet.204</title>
			<path d="M0 154.19 L5.29 154.19" class="st15"/>
		</g>
		<g id="shape205-106" v:mID="205" v:groupContext="shape" transform="translate(279,-50.2744)">
			<title>Sheet.205</title>
			<desc>Channel area</desc>
			<v:textBlock v:margins="rect(0,0,0,0)"/>
			<v:textRect cx="85.5" cy="146.7" width="171" height="14.9756"/>
			<path d="M171 139.21 L0 139.21 L0 154.19 L171 154.19 L171 139.21" class="st1"/>
			<text x="58.48" y="149.4" class="st2" v:langID="1033"><v:paragraph v:horizAlign="1"/><v:tabList/>Channel area</text>		</g>
		<g id="shape206-110" v:mID="206" v:groupContext="shape" transform="translate(436.5,-76.5)">
			<title>Rectangle.206</title>
			<rect x="0" y="149.125" width="27.5625" height="5.0625" class="st13"/>
		</g>
		<g id="shape207-113" v:mID="207" v:groupContext="shape" transform="translate(436.5,-81.5625)">
			<title>Sheet.207</title>
			<path d="M27.56 154.19 L35.44 146.32 L7.87 146.31 L0 154.19 L27.56 154.19 Z" class="st17"/>
		</g>
		<g id="shape208-115" v:mID="208" v:groupContext="shape" transform="translate(464.063,-76.5)">
			<title>Sheet.208</title>
			<path d="M0 149.13 L24.12 124.94 L24.15 130.04 L0 154.19 L0 149.13 Z" class="st14"/>
		</g>
		<g id="shape209-118" v:mID="209" v:groupContext="shape" transform="translate(459.279,-89.3798)">
			<title>Sheet.209</title>
			<path d="M12.59 154.19 L28.9 137.82 L16.32 137.82 L0 154.13 L12.59 154.19 Z" class="st17"/>
		</g>
		<g id="shape210-120" v:mID="210" v:groupContext="shape" transform="translate(441.563,-83.8125)">
			<title>Sheet.210</title>
			<path d="M5.62 154.19 L9 150.25 L3.94 150.25 L0 154.19 L5.62 154.19 Z" class="st18"/>
		</g>
		<g id="shape211-124" v:mID="211" v:groupContext="shape" transform="translate(309.375,-76.7813)">
			<title>Rectangle.211</title>
			<path d="M0 154.19 L68.91 154.19 L68.91 149.13 L0 149.13 L0 154.19 Z" class="st13"/>
		</g>
		<g id="shape212-127" v:mID="212" v:groupContext="shape" transform="translate(309.375,-81.8438)">
			<title>Sheet.212</title>
			<path d="M69.13 154.19 L75.69 146.03 L9 146.03 L0 154.19 L69.13 154.19 Z" class="st17"/>
		</g>
		<g id="shape213-129" v:mID="213" v:groupContext="shape" transform="translate(371.25,-83.8125)">
			<title>Sheet.213</title>
			<path d="M5.62 154.19 L9 150.25 L3.94 150.25 L0 154.19 L5.62 154.19 Z" class="st18"/>
		</g>
		<g id="shape214-132" v:mID="214" v:groupContext="shape" transform="translate(378.281,-76.7813)">
			<title>Sheet.214</title>
			<path d="M0 149.13 L6.75 140.97 L6.75 145.75 L0 154.19 L0 149.13 Z" class="st14"/>
		</g>
		<g id="shape215-135" v:mID="215" v:groupContext="shape" transform="translate(417.938,-100.125)">
			<title>Sheet.215</title>
			<path d="M11.16 154.19 L18.38 148.53 L7.03 148.56 L0 154.18 L11.16 154.19 Z" class="st17"/>
		</g>
		<g id="shape217-137" v:mID="217" v:groupContext="shape" transform="translate(418.219,-87.75)">
			<title>Sheet.217</title>
			<path d="M0 150.24 L18 136.19 L17.98 140.16 L0 154.19 L0 150.24 Z" class="st14"/>
		</g>
		<g id="shape198-140" v:mID="198" v:groupContext="shape" transform="translate(387.094,-82.125)">
			<title>Sheet.198</title>
			<path d="M35.91 154.19 L53.91 136.19 L22.97 136.19 L0 154.19 L35.91 154.19 Z" class="st17"/>
		</g>
		<g id="shape216-142" v:mID="216" v:groupContext="shape" transform="translate(407.25,-131.625)">
			<title>Sheet.216</title>
			<desc>Metal wires are added to connect source and drain to other ci...</desc>
			<v:textBlock v:margins="rect(0,0,0,0)"/>
			<v:textRect cx="56.25" cy="148.563" width="112.5" height="11.25"/>
			<path d="M112.5 142.94 L0 142.94 L0 154.19 L112.5 154.19 L112.5 142.94" class="st1"/>
			<text x="6.97" y="140.46" class="st2" v:langID="1033"><v:paragraph v:horizAlign="1"/><v:tabList/>Metal wires are added to <tspan
						x="0.71" dy="1.2em" class="st3">connect source and drain to </tspan><tspan x="19.48" dy="1.2em" class="st3">other circuit nodes</tspan></text>		</g>
		<g id="shape203-148" v:mID="203" v:groupContext="shape" transform="translate(500.443,179.842) rotate(160.017)">
			<title>Sheet.203</title>
			<path d="M0 154.19 L84.73 154.19" class="st15"/>
		</g>
		<g id="shape218-153" v:mID="218" v:groupContext="shape" transform="translate(563.527,-74.0894) rotate(45)">
			<title>Sheet.218</title>
			<path d="M0 154.19 L21.2 154.19" class="st15"/>
		</g>
		<g id="shape219-158" v:mID="219" v:groupContext="shape" v:layerMember="0"
				transform="translate(514.21,-65.692) rotate(55.5915)">
			<title>Line-curve connector</title>
			<v:userDefs>
				<v:ud v:nameU="AntiScale" v:val="VT0(1):26"/>
				<v:ud v:nameU="Scale" v:val="VT0(1):26"/>
				<v:ud v:nameU="visVersion" v:val="VT0(11):26"/>
			</v:userDefs>
			<path d="M0 154.19 L6.91 149.49 L14.76 146.86 L23.53 146.32 L33.24 147.86 L43.88 151.49 L44.21 151.64" class="st19"/>
		</g>
	</g>
</svg>
