<?xml version="1.0" encoding="UTF-8" standalone="no"?>
<!DOCTYPE svg PUBLIC "-//W3C//DTD SVG 1.1//EN" "http://www.w3.org/Graphics/SVG/1.1/DTD/svg11.dtd">
<!-- Generated by Microsoft Visio, SVG Export change.svg Page-1 -->
<svg xmlns="http://www.w3.org/2000/svg" xmlns:xlink="http://www.w3.org/1999/xlink" xmlns:ev="http://www.w3.org/2001/xml-events"
		xmlns:v="http://schemas.microsoft.com/visio/2003/SVGExtensions/" width="2.895in" height="1.83833in"
		viewBox="0 0 208.44 132.36" xml:space="preserve" color-interpolation-filters="sRGB" class="st10">
	<v:documentProperties v:langID="1033" v:viewMarkup="false">
		<v:userDefs>
			<v:ud v:nameU="msvConvertTheme"/>
		</v:userDefs>
	</v:documentProperties>

	<style type="text/css">
	<![CDATA[
		.st1 {fill:#abe0ae;stroke:#ffffff;stroke-linecap:round;stroke-linejoin:round;stroke-width:0.24}
		.st2 {stroke:#000000;stroke-linecap:round;stroke-linejoin:round;stroke-width:0.72}
		.st3 {fill:none;stroke:none;stroke-linecap:round;stroke-linejoin:round;stroke-width:0.72}
		.st4 {fill:#000000;font-family:Arial;font-size:0.833336em}
		.st5 {font-size:1em;font-style:italic}
		.st6 {font-size:1em}
		.st7 {stroke:#000000;stroke-dasharray:0,2.16;stroke-linecap:round;stroke-linejoin:round;stroke-width:0.72}
		.st8 {marker-end:url(#mrkr4-49);stroke:#000000;stroke-linecap:round;stroke-linejoin:round;stroke-width:0.72}
		.st9 {fill:#000000;fill-opacity:1;stroke:#000000;stroke-opacity:1;stroke-width:0.28571428571429}
		.st10 {fill:none;fill-rule:evenodd;font-size:12px;overflow:visible;stroke-linecap:square;stroke-miterlimit:3}
	]]>
	</style>

	<defs id="Markers">
		<g id="lend4">
			<path d="M 2 1 L 0 0 L 2 -1 L 2 1 " style="stroke:none"/>
		</g>
		<marker id="mrkr4-49" class="st9" v:arrowType="4" v:arrowSize="1" v:setback="7" refX="-7" orient="auto"
				markerUnits="strokeWidth" overflow="visible">
			<use xlink:href="#lend4" transform="scale(-3.5,-3.5) "/>
		</marker>
	</defs>
	<g v:mID="0" v:index="1" v:groupContext="foregroundPage">
		<title>Page-1</title>
		<v:pageProperties v:drawingScale="1" v:pageScale="1" v:drawingUnits="19" v:shadowOffsetX="9" v:shadowOffsetY="-9"/>
		<g id="shape58-1" v:mID="58" v:groupContext="shape" transform="translate(162.394,-46.1399)">
			<title>Rectangle.58</title>
			<rect x="0" y="46.8599" width="10.3395" height="85.5" class="st1"/>
		</g>
		<g id="shape45-3" v:mID="45" v:groupContext="shape" transform="translate(56.045,-46.1399)">
			<title>Rectangle.45</title>
			<rect x="0" y="46.8599" width="10.3395" height="85.5" class="st1"/>
		</g>
		<g id="shape42-5" v:mID="42" v:groupContext="shape" transform="translate(117.343,137.58) scale(1,-1)">
			<title>Sheet.42</title>
			<path d="M0 114.52 L47.27 114.52 L53.17 132.36 L70.9 132.36" class="st2"/>
		</g>
		<g id="shape44-8" v:mID="44" v:groupContext="shape" transform="translate(22.8109,137.58) scale(1,-1)">
			<title>Sheet.44</title>
			<path d="M0 114.52 L35.45 114.52 L41.36 132.36 L88.62 132.36 L94.53 114.52" class="st2"/>
		</g>
		<g id="shape49-11" v:mID="49" v:groupContext="shape" transform="translate(22.8109,-82.1399)">
			<title>Sheet.49</title>
			<path d="M0 132.36 L35.45 132.36 L41.36 114.36 L82.72 114.36 L88.62 132.36 L118.17 132.36 L124.07 114.36 L165.43 114.36"
					class="st2"/>
		</g>
		<g id="shape50-14" v:mID="50" v:groupContext="shape" transform="translate(0.72,-107.642)">
			<title>Sheet.50</title>
			<desc>Clk</desc>
			<v:textBlock v:margins="rect(4,4,4,4)"/>
			<v:textRect cx="14.3182" cy="127.335" width="28.64" height="10.0491"/>
			<rect x="0" y="122.311" width="28.6364" height="10.0491" class="st3"/>
			<text x="4" y="130.34" class="st4" v:langID="1033"><v:paragraph/><v:tabList/>Clk</text>		</g>
		<g id="shape51-17" v:mID="51" v:groupContext="shape" transform="translate(9.72,-81.8362)">
			<title>Sheet.51</title>
			<desc>D</desc>
			<v:textBlock v:margins="rect(4,4,4,4)"/>
			<v:textRect cx="6.54545" cy="127.335" width="13.1" height="10.0491"/>
			<rect x="0" y="122.311" width="13.0909" height="10.0491" class="st3"/>
			<text x="4" y="130.34" class="st4" v:langID="1033"><v:paragraph/><v:tabList/>D</text>		</g>
		<g id="shape52-20" v:mID="52" v:groupContext="shape" transform="translate(5.22,-12.9903)">
			<title>Sheet.52</title>
			<desc>D changes inside sampling window, so Q may be metastable</desc>
			<v:textBlock v:margins="rect(4,4,4,4)"/>
			<v:textRect cx="52.3636" cy="127.335" width="104.73" height="10.0491"/>
			<rect x="0" y="122.311" width="104.727" height="10.0491" class="st3"/>
			<text x="4" y="118.34" class="st4" v:langID="1033"><v:paragraph/><v:tabList/>D changes <tspan class="st5">inside</tspan> <tspan
						x="4" dy="1.201em" class="st6">sampling window</tspan>, so <tspan x="4" dy="1.2em" class="st6">Q may be metastable</tspan></text>		</g>
		<g id="shape54-26" v:mID="54" v:groupContext="shape" transform="translate(116.084,-12.9903)">
			<title>Sheet.54</title>
			<desc>D changes outside sampling window, so Q will be stable</desc>
			<v:textBlock v:margins="rect(4,4,4,4)"/>
			<v:textRect cx="45.8182" cy="127.335" width="91.64" height="10.0491"/>
			<rect x="0" y="122.311" width="91.6364" height="10.0491" class="st3"/>
			<text x="4" y="118.34" class="st4" v:langID="1033"><v:paragraph/><v:tabList/>D changes <tspan class="st5">outside</tspan> <tspan
						x="4" dy="1.201em" class="st6">sampling window</tspan>, <tspan x="4" dy="1.2em" class="st6">so Q will be stable</tspan></text>		</g>
		<g id="shape56-32" v:mID="56" v:groupContext="shape" transform="translate(26.319,-50.6399)">
			<title>Sheet.56</title>
			<path d="M0 132.36 L35.45 132.36 L41.36 112.26 L42.84 122.31 L44.31 116.03 L45.79 128.59 L47.27 116.03 L48.74 124.82
						 L50.22 113.52 L51.7 127.34 L53.17 122.31 L54.65 129.85 L56.13 121.05 L57.61 132.36 L59.08 129.85 L60.56
						 132.36 L69.42 132.36 L143.09 132.36 L147.15 114.36 L163.4 114.36" class="st2"/>
		</g>
		<g id="shape57-35" v:mID="57" v:groupContext="shape" transform="translate(9.72,-50.6399)">
			<title>Sheet.57</title>
			<desc>Q</desc>
			<v:textBlock v:margins="rect(4,4,4,4)"/>
			<v:textRect cx="6.54545" cy="127.335" width="13.1" height="10.0491"/>
			<rect x="0" y="122.311" width="13.0909" height="10.0491" class="st3"/>
			<text x="4" y="130.34" class="st4" v:langID="1033"><v:paragraph/><v:tabList/>Q</text>		</g>
		<g id="shape69-38" v:mID="69" v:groupContext="shape" transform="translate(193.575,0.72) rotate(90)">
			<title>Sheet.69</title>
			<path d="M0 132.36 L85.5 132.36" class="st7"/>
		</g>
		<g id="shape70-41" v:mID="70" v:groupContext="shape" transform="translate(299.924,0.72) rotate(90)">
			<title>Sheet.70</title>
			<path d="M0 132.36 L85.5 132.36" class="st7"/>
		</g>
		<g id="shape47-44" v:mID="47" v:groupContext="shape" transform="translate(193.575,86.22) rotate(90)">
			<title>Sheet.47</title>
			<path d="M0 132.36 L3.96 132.36" class="st8"/>
		</g>
		<g id="shape48-50" v:mID="48" v:groupContext="shape" transform="translate(299.924,86.22) rotate(90)">
			<title>Sheet.48</title>
			<path d="M0 132.36 L3.96 132.36" class="st8"/>
		</g>
	</g>
</svg>
