<?xml version="1.0" encoding="UTF-8" standalone="no"?>
<!DOCTYPE svg PUBLIC "-//W3C//DTD SVG 1.1//EN" "http://www.w3.org/Graphics/SVG/1.1/DTD/svg11.dtd">
<!-- Generated by Microsoft Visio, SVG Export SM_Kmap.svg Page-1 -->
<svg xmlns="http://www.w3.org/2000/svg" xmlns:xlink="http://www.w3.org/1999/xlink" xmlns:ev="http://www.w3.org/2001/xml-events"
		xmlns:v="http://schemas.microsoft.com/visio/2003/SVGExtensions/" width="6.84375in" height="2.34375in"
		viewBox="0 0 492.75 168.75" xml:space="preserve" color-interpolation-filters="sRGB" class="st18">
	<v:documentProperties v:langID="1033" v:viewMarkup="false"/>

	<style type="text/css">
	<![CDATA[
		.st1 {fill:#ffffff;stroke:#000000;stroke-linecap:round;stroke-linejoin:round;stroke-width:0.72}
		.st2 {fill:#000000;font-family:Arial;font-size:0.833336em}
		.st3 {fill:#000000;font-family:Arial;font-size:1.00001em}
		.st4 {stroke:#000000;stroke-linecap:round;stroke-linejoin:round;stroke-width:0.72}
		.st5 {baseline-shift:-32.4941%;font-size:0.649882em}
		.st6 {fill:#000000;font-family:Arial;font-size:0.833336em;font-weight:bold}
		.st7 {fill:#000000;font-family:Arial;font-size:0.75em}
		.st8 {font-size:1.11111em}
		.st9 {marker-end:url(#mrkr4-173);stroke:#9a9a9a;stroke-linecap:round;stroke-linejoin:round;stroke-width:2.16}
		.st10 {fill:#9a9a9a;fill-opacity:1;stroke:#9a9a9a;stroke-opacity:1;stroke-width:0.6}
		.st11 {fill:#9a9a9a;stroke:none;stroke-linecap:round;stroke-linejoin:round;stroke-width:0.24}
		.st12 {fill:#f7f788;stroke:none;stroke-linecap:round;stroke-linejoin:round;stroke-width:0.24}
		.st13 {fill:#000000;font-family:Arial;font-size:0.666664em}
		.st14 {font-size:1em}
		.st15 {marker-end:url(#mrkr4-185);stroke:#f7f788;stroke-linecap:round;stroke-linejoin:round;stroke-width:2.16}
		.st16 {fill:#f7f788;fill-opacity:1;stroke:#f7f788;stroke-opacity:1;stroke-width:0.6}
		.st17 {stroke:#000000;stroke-linecap:round;stroke-linejoin:round;stroke-width:0.75}
		.st18 {fill:none;fill-rule:evenodd;font-size:12px;overflow:visible;stroke-linecap:square;stroke-miterlimit:3}
	]]>
	</style>

	<defs id="Markers">
		<g id="lend4">
			<path d="M 2 1 L 0 0 L 2 -1 L 2 1 " style="stroke:none"/>
		</g>
		<marker id="mrkr4-173" class="st10" v:arrowType="4" v:arrowSize="0" v:setback="3.33333" refX="-3.3333333333333"
				orient="auto" markerUnits="strokeWidth" overflow="visible">
			<use xlink:href="#lend4" transform="scale(-1.6666666666667,-1.6666666666667) "/>
		</marker>
		<marker id="mrkr4-185" class="st16" v:arrowType="4" v:arrowSize="0" v:setback="3.33333" refX="-3.3333333333333"
				orient="auto" markerUnits="strokeWidth" overflow="visible">
			<use xlink:href="#lend4" transform="scale(-1.6666666666667,-1.6666666666667) "/>
		</marker>
	</defs>
	<g v:mID="0" v:index="1" v:groupContext="foregroundPage">
		<title>Page-1</title>
		<v:pageProperties v:drawingScale="1" v:pageScale="1" v:drawingUnits="19" v:shadowOffsetX="9" v:shadowOffsetY="-9"/>
		<g id="shape1-1" v:mID="1" v:groupContext="shape" transform="translate(29.25,-121.5)">
			<title>Rectangle</title>
			<rect x="0" y="146.25" width="63" height="22.5" class="st1"/>
		</g>
		<g id="shape2-3" v:mID="2" v:groupContext="shape" transform="translate(92.25,-121.5)">
			<title>Rectangle.40</title>
			<rect x="0" y="146.25" width="63" height="22.5" class="st1"/>
		</g>
		<g id="shape3-5" v:mID="3" v:groupContext="shape" transform="translate(43.11,-126)">
			<title>Sheet.3</title>
			<desc>0</desc>
			<v:textBlock v:margins="rect(0,0,0,0)"/>
			<v:textRect cx="22.32" cy="162.799" width="44.64" height="11.9017"/>
			<text x="19.54" y="165.8" class="st2" v:langID="1033"><v:paragraph v:horizAlign="1"/><v:tabList/>0</text>		</g>
		<g id="shape4-7" v:mID="4" v:groupContext="shape" transform="translate(29.25,-99)">
			<title>Rectangle.42</title>
			<rect x="0" y="146.25" width="63" height="22.5" class="st1"/>
		</g>
		<g id="shape5-9" v:mID="5" v:groupContext="shape" transform="translate(92.25,-99)">
			<title>Rectangle.44</title>
			<rect x="0" y="146.25" width="63" height="22.5" class="st1"/>
		</g>
		<g id="shape6-11" v:mID="6" v:groupContext="shape" transform="translate(29.25,-144)">
			<title>Sheet.6</title>
			<desc>0</desc>
			<v:textBlock v:margins="rect(0,0,0,0)"/>
			<v:textRect cx="31.5" cy="162" width="63" height="13.5"/>
			<text x="28.16" y="165.6" class="st3" v:langID="1033"><v:paragraph v:horizAlign="1"/><v:tabList/>0</text>		</g>
		<g id="shape7-13" v:mID="7" v:groupContext="shape" transform="translate(92.25,-144)">
			<title>Sheet.7</title>
			<desc>1</desc>
			<v:textBlock v:margins="rect(0,0,0,0)"/>
			<v:textRect cx="31.5" cy="162" width="63" height="13.5"/>
			<text x="28.16" y="165.6" class="st3" v:langID="1033"><v:paragraph v:horizAlign="1"/><v:tabList/>1</text>		</g>
		<g id="shape8-15" v:mID="8" v:groupContext="shape" transform="translate(15.75,-122.625)">
			<title>Sheet.8</title>
			<desc>0</desc>
			<v:textBlock v:margins="rect(0,0,0,0)"/>
			<v:textRect cx="6.75" cy="160.875" width="13.5" height="15.75"/>
			<text x="3.41" y="164.47" class="st3" v:langID="1033"><v:paragraph v:horizAlign="1"/><v:tabList/>0</text>		</g>
		<g id="shape9-17" v:mID="9" v:groupContext="shape" transform="translate(15.75,-102.375)">
			<title>Sheet.9</title>
			<desc>1</desc>
			<v:textBlock v:margins="rect(0,0,0,0)"/>
			<v:textRect cx="6.75" cy="160.875" width="13.5" height="15.75"/>
			<text x="3.41" y="164.47" class="st3" v:langID="1033"><v:paragraph v:horizAlign="1"/><v:tabList/>1</text>		</g>
		<g id="shape10-19" v:mID="10" v:groupContext="shape" transform="translate(43.11,-102.049)">
			<title>Sheet.10</title>
			<desc>0</desc>
			<v:textBlock v:margins="rect(0,0,0,0)"/>
			<v:textRect cx="22.32" cy="161.275" width="44.64" height="14.9508"/>
			<text x="19.54" y="164.27" class="st2" v:langID="1033"><v:paragraph v:horizAlign="1"/><v:tabList/>0</text>		</g>
		<g id="shape11-21" v:mID="11" v:groupContext="shape" transform="translate(-90.0743,144.074) rotate(-135)">
			<title>Sheet.11</title>
			<path d="M0 168.75 L19.09 168.75" class="st4"/>
		</g>
		<g id="shape12-24" v:mID="12" v:groupContext="shape" transform="translate(21.375,-151.875)">
			<title>Sheet.12</title>
			<desc>BPS</desc>
			<v:textBlock v:margins="rect(0,0,0,0)"/>
			<v:textRect cx="10.6875" cy="160.875" width="21.38" height="15.75"/>
			<text x="1.48" y="164.47" class="st3" v:langID="1033"><v:paragraph v:horizAlign="1"/><v:tabList/>B<tspan dy="-0.287em"
						class="st5" v:baseFontSize="12">PS</tspan></text>		</g>
		<g id="shape13-27" v:mID="13" v:groupContext="shape" transform="translate(0,-141.75)">
			<title>Sheet.13</title>
			<desc>APS</desc>
			<v:textBlock v:margins="rect(0,0,0,0)"/>
			<v:textRect cx="11.25" cy="163.125" width="22.5" height="11.25"/>
			<text x="2.05" y="166.72" class="st3" v:langID="1033"><v:paragraph v:horizAlign="1"/><v:tabList/>A<tspan dy="-0.287em"
						class="st5" v:baseFontSize="12">PS</tspan></text>		</g>
		<g id="shape14-30" v:mID="14" v:groupContext="shape" transform="translate(155.25,-87.75)">
			<title>Sheet.14</title>
			<desc>ANS</desc>
			<v:textBlock v:margins="rect(0,0,0,0)"/>
			<v:textRect cx="11.25" cy="163.125" width="22.5" height="11.25"/>
			<text x="1.83" y="166.72" class="st3" v:langID="1033"><v:paragraph v:horizAlign="1"/><v:tabList/>A<tspan dy="-0.287em"
						class="st5" v:baseFontSize="12">NS</tspan></text>		</g>
		<g id="shape15-33" v:mID="15" v:groupContext="shape" transform="translate(31.4257,-45.0743) rotate(-45)">
			<title>Sheet.15</title>
			<path d="M0 168.75 L12.73 168.75" class="st4"/>
		</g>
		<g id="shape16-36" v:mID="16" v:groupContext="shape" transform="translate(156.375,-4.5)">
			<title>Sheet.16</title>
			<desc>BNS</desc>
			<v:textBlock v:margins="rect(0,0,0,0)"/>
			<v:textRect cx="11.25" cy="162" width="22.5" height="13.5"/>
			<text x="1.83" y="165.6" class="st3" v:langID="1033"><v:paragraph v:horizAlign="1"/><v:tabList/>B<tspan dy="-0.287em"
						class="st5" v:baseFontSize="12">NS</tspan></text>		</g>
		<g id="shape17-39" v:mID="17" v:groupContext="shape" transform="translate(227.25,-108)">
			<title>Rectangle.75</title>
			<rect x="0" y="150.75" width="36" height="18" class="st1"/>
		</g>
		<g id="shape18-41" v:mID="18" v:groupContext="shape" transform="translate(227.25,-126)">
			<title>Rectangle.76</title>
			<rect x="0" y="150.75" width="36" height="18" class="st1"/>
		</g>
		<g id="shape19-43" v:mID="19" v:groupContext="shape" transform="translate(263.25,-126)">
			<title>Rectangle.89</title>
			<rect x="0" y="150.75" width="36" height="18" class="st1"/>
		</g>
		<g id="shape20-45" v:mID="20" v:groupContext="shape" transform="translate(263.25,-108)">
			<title>Rectangle.93</title>
			<rect x="0" y="150.75" width="36" height="18" class="st1"/>
		</g>
		<g id="shape21-47" v:mID="21" v:groupContext="shape" transform="translate(227.25,-129.049)">
			<title>Sheet.21</title>
			<desc>0</desc>
			<v:textBlock v:margins="rect(0,0,0,0)"/>
			<v:textRect cx="18" cy="162.799" width="36" height="11.9017"/>
			<text x="15.22" y="165.8" class="st2" v:langID="1033"><v:paragraph v:horizAlign="1"/><v:tabList/>0</text>		</g>
		<g id="shape22-49" v:mID="22" v:groupContext="shape" transform="translate(227.25,-111.049)">
			<title>Sheet.22</title>
			<desc>0</desc>
			<v:textBlock v:margins="rect(0,0,0,0)"/>
			<v:textRect cx="18" cy="162.799" width="36" height="11.9017"/>
			<text x="15.22" y="165.8" class="st2" v:langID="1033"><v:paragraph v:horizAlign="1"/><v:tabList/>0</text>		</g>
		<g id="shape23-51" v:mID="23" v:groupContext="shape" transform="translate(213.75,-127.125)">
			<title>Sheet.23</title>
			<desc>0</desc>
			<v:textBlock v:margins="rect(0,0,0,0)"/>
			<v:textRect cx="6.75" cy="160.875" width="13.5" height="15.75"/>
			<text x="3.41" y="164.47" class="st3" v:langID="1033"><v:paragraph v:horizAlign="1"/><v:tabList/>0</text>		</g>
		<g id="shape24-53" v:mID="24" v:groupContext="shape" transform="translate(213.75,-108)">
			<title>Sheet.24</title>
			<desc>1</desc>
			<v:textBlock v:margins="rect(0,0,0,0)"/>
			<v:textRect cx="6.75" cy="159.75" width="13.5" height="18"/>
			<text x="3.41" y="163.35" class="st3" v:langID="1033"><v:paragraph v:horizAlign="1"/><v:tabList/>1</text>		</g>
		<g id="shape25-55" v:mID="25" v:groupContext="shape" transform="translate(227.25,-144)">
			<title>Sheet.25</title>
			<desc>0</desc>
			<v:textBlock v:margins="rect(0,0,0,0)"/>
			<v:textRect cx="18" cy="162" width="36" height="13.5"/>
			<text x="14.66" y="165.6" class="st3" v:langID="1033"><v:paragraph v:horizAlign="1"/><v:tabList/>0</text>		</g>
		<g id="shape26-57" v:mID="26" v:groupContext="shape" transform="translate(263.25,-144)">
			<title>Sheet.26</title>
			<desc>1</desc>
			<v:textBlock v:margins="rect(0,0,0,0)"/>
			<v:textRect cx="18" cy="162" width="36" height="13.5"/>
			<text x="14.66" y="165.6" class="st3" v:langID="1033"><v:paragraph v:horizAlign="1"/><v:tabList/>1</text>		</g>
		<g id="shape27-59" v:mID="27" v:groupContext="shape" transform="translate(107.926,144.074) rotate(-135)">
			<title>Sheet.27</title>
			<path d="M0 168.75 L19.09 168.75" class="st4"/>
		</g>
		<g id="shape28-62" v:mID="28" v:groupContext="shape" transform="translate(216,-153)">
			<title>Sheet.28</title>
			<desc>BPS</desc>
			<v:textBlock v:margins="rect(0,0,0,0)"/>
			<v:textRect cx="11.25" cy="160.875" width="22.5" height="15.75"/>
			<text x="2.05" y="164.47" class="st3" v:langID="1033"><v:paragraph v:horizAlign="1"/><v:tabList/>B<tspan dy="-0.287em"
						class="st5" v:baseFontSize="12">PS</tspan></text>		</g>
		<g id="shape29-65" v:mID="29" v:groupContext="shape" transform="translate(195.75,-141.75)">
			<title>Sheet.29</title>
			<desc>APS</desc>
			<v:textBlock v:margins="rect(0,0,0,0)"/>
			<v:textRect cx="11.25" cy="162" width="22.5" height="13.5"/>
			<text x="2.05" y="165.6" class="st3" v:langID="1033"><v:paragraph v:horizAlign="1"/><v:tabList/>A<tspan dy="-0.287em"
						class="st5" v:baseFontSize="12">PS</tspan></text>		</g>
		<g id="shape30-68" v:mID="30" v:groupContext="shape" transform="translate(391.5,0)">
			<title>Sheet.30</title>
			<desc>Output Maps</desc>
			<v:textBlock v:margins="rect(0,0,0,0)"/>
			<v:textRect cx="40.5" cy="159.75" width="81" height="18"/>
			<text x="9.95" y="162.75" class="st6" v:langID="1033"><v:paragraph v:horizAlign="1"/><v:tabList/>Output Maps</text>		</g>
		<g id="shape31-70" v:mID="31" v:groupContext="shape" transform="translate(218.25,0)">
			<title>Sheet.31</title>
			<desc>Next-state maps</desc>
			<v:textBlock v:margins="rect(0,0,0,0)"/>
			<v:textRect cx="45" cy="159.75" width="90" height="18"/>
			<text x="6.37" y="162.75" class="st6" v:langID="1033"><v:paragraph v:horizAlign="1"/><v:tabList/>Next-state maps</text>		</g>
		<g id="shape32-72" v:mID="32" v:groupContext="shape" transform="translate(97.875,-104.299)">
			<title>Sheet.32</title>
			<desc>X∙Y∙Z+X∙Y∙Z</desc>
			<v:textBlock v:margins="rect(0,0,0,0)"/>
			<v:textRect cx="25.875" cy="162.799" width="51.75" height="11.9017"/>
			<text x="0" y="165.8" class="st7" v:langID="1033"><v:paragraph/><v:tabList/>X<tspan class="st8">∙</tspan>Y<tspan
						class="st8">∙</tspan>Z+X<tspan class="st8">∙</tspan>Y<tspan class="st8">∙</tspan>Z</text>		</g>
		<g id="shape33-78" v:mID="33" v:groupContext="shape" transform="translate(111.375,-124.223)">
			<title>Sheet.33</title>
			<desc>X∙Y∙Z</desc>
			<v:textBlock v:margins="rect(0,0,0,0)"/>
			<v:textRect cx="13.5" cy="162.799" width="27" height="11.9017"/>
			<text x="0" y="165.8" class="st7" v:langID="1033"><v:paragraph/><v:tabList/>X<tspan class="st8">∙</tspan>Y<tspan
						class="st8">∙</tspan>Z</text>		</g>
		<g id="shape34-82" v:mID="34" v:groupContext="shape" transform="translate(29.25,-40.5)">
			<title>Rectangle.43</title>
			<rect x="0" y="146.25" width="63" height="22.5" class="st1"/>
		</g>
		<g id="shape35-84" v:mID="35" v:groupContext="shape" transform="translate(92.25,-40.5)">
			<title>Rectangle.50</title>
			<rect x="0" y="146.25" width="63" height="22.5" class="st1"/>
		</g>
		<g id="shape36-86" v:mID="36" v:groupContext="shape" transform="translate(29.25,-45)">
			<title>Sheet.36</title>
			<desc>X</desc>
			<v:textBlock v:margins="rect(0,0,0,0)"/>
			<v:textRect cx="31.5" cy="162.799" width="63" height="11.9017"/>
			<text x="28.16" y="165.8" class="st2" v:langID="1033"><v:paragraph v:horizAlign="1"/><v:tabList/>X</text>		</g>
		<g id="shape37-88" v:mID="37" v:groupContext="shape" transform="translate(29.25,-18)">
			<title>Rectangle.37</title>
			<rect x="0" y="146.25" width="63" height="22.5" class="st1"/>
		</g>
		<g id="shape38-90" v:mID="38" v:groupContext="shape" transform="translate(92.25,-18)">
			<title>Rectangle.38</title>
			<rect x="0" y="146.25" width="63" height="22.5" class="st1"/>
		</g>
		<g id="shape39-92" v:mID="39" v:groupContext="shape" transform="translate(29.25,-63)">
			<title>Sheet.39</title>
			<desc>0</desc>
			<v:textBlock v:margins="rect(0,0,0,0)"/>
			<v:textRect cx="31.5" cy="162" width="63" height="13.5"/>
			<text x="28.16" y="165.6" class="st3" v:langID="1033"><v:paragraph v:horizAlign="1"/><v:tabList/>0</text>		</g>
		<g id="shape40-94" v:mID="40" v:groupContext="shape" transform="translate(92.25,-63)">
			<title>Sheet.40</title>
			<desc>1</desc>
			<v:textBlock v:margins="rect(0,0,0,0)"/>
			<v:textRect cx="31.5" cy="162" width="63" height="13.5"/>
			<text x="28.16" y="165.6" class="st3" v:langID="1033"><v:paragraph v:horizAlign="1"/><v:tabList/>1</text>		</g>
		<g id="shape41-96" v:mID="41" v:groupContext="shape" transform="translate(15.75,-41.625)">
			<title>Sheet.41</title>
			<desc>0</desc>
			<v:textBlock v:margins="rect(0,0,0,0)"/>
			<v:textRect cx="6.75" cy="160.875" width="13.5" height="15.75"/>
			<text x="3.41" y="164.47" class="st3" v:langID="1033"><v:paragraph v:horizAlign="1"/><v:tabList/>0</text>		</g>
		<g id="shape42-98" v:mID="42" v:groupContext="shape" transform="translate(15.75,-21.375)">
			<title>Sheet.42</title>
			<desc>1</desc>
			<v:textBlock v:margins="rect(0,0,0,0)"/>
			<v:textRect cx="6.75" cy="160.875" width="13.5" height="15.75"/>
			<text x="3.41" y="164.47" class="st3" v:langID="1033"><v:paragraph v:horizAlign="1"/><v:tabList/>1</text>		</g>
		<g id="shape43-100" v:mID="43" v:groupContext="shape" transform="translate(29.25,-21.0492)">
			<title>Sheet.43</title>
			<desc>0</desc>
			<v:textBlock v:margins="rect(0,0,0,0)"/>
			<v:textRect cx="31.5" cy="161.275" width="63" height="14.9508"/>
			<text x="28.72" y="164.27" class="st2" v:langID="1033"><v:paragraph v:horizAlign="1"/><v:tabList/>0</text>		</g>
		<g id="shape44-102" v:mID="44" v:groupContext="shape" transform="translate(-90.0743,225.074) rotate(-135)">
			<title>Sheet.44</title>
			<path d="M0 168.75 L19.09 168.75" class="st4"/>
		</g>
		<g id="shape45-105" v:mID="45" v:groupContext="shape" transform="translate(21.375,-70.875)">
			<title>Sheet.45</title>
			<desc>BPS</desc>
			<v:textBlock v:margins="rect(0,0,0,0)"/>
			<v:textRect cx="10.6875" cy="160.875" width="21.38" height="15.75"/>
			<text x="1.48" y="164.47" class="st3" v:langID="1033"><v:paragraph v:horizAlign="1"/><v:tabList/>B<tspan dy="-0.287em"
						class="st5" v:baseFontSize="12">PS</tspan></text>		</g>
		<g id="shape46-108" v:mID="46" v:groupContext="shape" transform="translate(0,-60.75)">
			<title>Sheet.46</title>
			<desc>APS</desc>
			<v:textBlock v:margins="rect(0,0,0,0)"/>
			<v:textRect cx="11.25" cy="163.125" width="22.5" height="11.25"/>
			<text x="2.05" y="166.72" class="st3" v:langID="1033"><v:paragraph v:horizAlign="1"/><v:tabList/>A<tspan dy="-0.287em"
						class="st5" v:baseFontSize="12">PS</tspan></text>		</g>
		<g id="shape47-111" v:mID="47" v:groupContext="shape" transform="translate(113.625,-23.2992)">
			<title>Sheet.47</title>
			<desc>X∙Y∙Z</desc>
			<v:textBlock v:margins="rect(0,0,0,0)"/>
			<v:textRect cx="12.375" cy="162.799" width="24.75" height="11.9017"/>
			<text x="0" y="165.8" class="st7" v:langID="1033"><v:paragraph/><v:tabList/>X<tspan class="st8">∙</tspan>Y<tspan
						class="st8">∙</tspan>Z</text>		</g>
		<g id="shape48-115" v:mID="48" v:groupContext="shape" transform="translate(31.4257,35.9257) rotate(-45)">
			<title>Sheet.48</title>
			<path d="M0 168.75 L12.73 168.75" class="st4"/>
		</g>
		<g id="shape49-118" v:mID="49" v:groupContext="shape" transform="translate(97.875,-45.7992)">
			<title>Sheet.49</title>
			<desc>X∙Y∙Z+X∙Y∙Z</desc>
			<v:textBlock v:margins="rect(0,0,0,0)"/>
			<v:textRect cx="25.875" cy="162.799" width="51.75" height="11.9017"/>
			<text x="0" y="165.8" class="st7" v:langID="1033"><v:paragraph/><v:tabList/>X<tspan class="st8">∙</tspan>Y<tspan
						class="st8">∙</tspan>Z+X<tspan class="st8">∙</tspan>Y<tspan class="st8">∙</tspan>Z</text>		</g>
		<g id="shape50-124" v:mID="50" v:groupContext="shape" transform="translate(299.25,-96.75)">
			<title>Sheet.50</title>
			<desc>ANS</desc>
			<v:textBlock v:margins="rect(0,0,0,0)"/>
			<v:textRect cx="11.25" cy="163.125" width="22.5" height="11.25"/>
			<text x="1.83" y="166.72" class="st3" v:langID="1033"><v:paragraph v:horizAlign="1"/><v:tabList/>A<tspan dy="-0.287em"
						class="st5" v:baseFontSize="12">NS</tspan></text>		</g>
		<g id="shape51-127" v:mID="51" v:groupContext="shape" transform="translate(175.426,-54.0743) rotate(-45)">
			<title>Sheet.51</title>
			<path d="M0 168.75 L12.73 168.75" class="st4"/>
		</g>
		<g id="shape52-130" v:mID="52" v:groupContext="shape" transform="translate(227.25,-27)">
			<title>Rectangle.52</title>
			<rect x="0" y="150.75" width="36" height="18" class="st1"/>
		</g>
		<g id="shape53-132" v:mID="53" v:groupContext="shape" transform="translate(227.25,-45)">
			<title>Rectangle.53</title>
			<rect x="0" y="150.75" width="36" height="18" class="st1"/>
		</g>
		<g id="shape54-134" v:mID="54" v:groupContext="shape" transform="translate(263.25,-45)">
			<title>Rectangle.84</title>
			<rect x="0" y="150.75" width="36" height="18" class="st1"/>
		</g>
		<g id="shape55-136" v:mID="55" v:groupContext="shape" transform="translate(263.25,-27)">
			<title>Rectangle.106</title>
			<rect x="0" y="150.75" width="36" height="18" class="st1"/>
		</g>
		<g id="shape56-138" v:mID="56" v:groupContext="shape" transform="translate(227.25,-48.0492)">
			<title>Sheet.56</title>
			<desc>X</desc>
			<v:textBlock v:margins="rect(0,0,0,0)"/>
			<v:textRect cx="18" cy="162.799" width="36" height="11.9017"/>
			<text x="14.66" y="165.8" class="st2" v:langID="1033"><v:paragraph v:horizAlign="1"/><v:tabList/>X</text>		</g>
		<g id="shape57-140" v:mID="57" v:groupContext="shape" transform="translate(227.25,-30.0492)">
			<title>Sheet.57</title>
			<desc>0</desc>
			<v:textBlock v:margins="rect(0,0,0,0)"/>
			<v:textRect cx="18" cy="162.799" width="36" height="11.9017"/>
			<text x="15.22" y="165.8" class="st2" v:langID="1033"><v:paragraph v:horizAlign="1"/><v:tabList/>0</text>		</g>
		<g id="shape58-142" v:mID="58" v:groupContext="shape" transform="translate(213.75,-46.125)">
			<title>Sheet.58</title>
			<desc>0</desc>
			<v:textBlock v:margins="rect(0,0,0,0)"/>
			<v:textRect cx="6.75" cy="160.875" width="13.5" height="15.75"/>
			<text x="3.41" y="164.47" class="st3" v:langID="1033"><v:paragraph v:horizAlign="1"/><v:tabList/>0</text>		</g>
		<g id="shape59-144" v:mID="59" v:groupContext="shape" transform="translate(213.75,-27)">
			<title>Sheet.59</title>
			<desc>1</desc>
			<v:textBlock v:margins="rect(0,0,0,0)"/>
			<v:textRect cx="6.75" cy="159.75" width="13.5" height="18"/>
			<text x="3.41" y="163.35" class="st3" v:langID="1033"><v:paragraph v:horizAlign="1"/><v:tabList/>1</text>		</g>
		<g id="shape60-146" v:mID="60" v:groupContext="shape" transform="translate(227.25,-63)">
			<title>Sheet.60</title>
			<desc>0</desc>
			<v:textBlock v:margins="rect(0,0,0,0)"/>
			<v:textRect cx="18" cy="162" width="36" height="13.5"/>
			<text x="14.66" y="165.6" class="st3" v:langID="1033"><v:paragraph v:horizAlign="1"/><v:tabList/>0</text>		</g>
		<g id="shape61-148" v:mID="61" v:groupContext="shape" transform="translate(263.25,-63)">
			<title>Sheet.61</title>
			<desc>1</desc>
			<v:textBlock v:margins="rect(0,0,0,0)"/>
			<v:textRect cx="18" cy="162" width="36" height="13.5"/>
			<text x="14.66" y="165.6" class="st3" v:langID="1033"><v:paragraph v:horizAlign="1"/><v:tabList/>1</text>		</g>
		<g id="shape62-150" v:mID="62" v:groupContext="shape" transform="translate(107.926,225.074) rotate(-135)">
			<title>Sheet.62</title>
			<path d="M0 168.75 L19.09 168.75" class="st4"/>
		</g>
		<g id="shape63-153" v:mID="63" v:groupContext="shape" transform="translate(216,-72)">
			<title>Sheet.63</title>
			<desc>BPS</desc>
			<v:textBlock v:margins="rect(0,0,0,0)"/>
			<v:textRect cx="11.25" cy="160.875" width="22.5" height="15.75"/>
			<text x="2.05" y="164.47" class="st3" v:langID="1033"><v:paragraph v:horizAlign="1"/><v:tabList/>B<tspan dy="-0.287em"
						class="st5" v:baseFontSize="12">PS</tspan></text>		</g>
		<g id="shape64-156" v:mID="64" v:groupContext="shape" transform="translate(195.75,-60.75)">
			<title>Sheet.64</title>
			<desc>APS</desc>
			<v:textBlock v:margins="rect(0,0,0,0)"/>
			<v:textRect cx="11.25" cy="162" width="22.5" height="13.5"/>
			<text x="2.05" y="165.6" class="st3" v:langID="1033"><v:paragraph v:horizAlign="1"/><v:tabList/>A<tspan dy="-0.287em"
						class="st5" v:baseFontSize="12">PS</tspan></text>		</g>
		<g id="shape65-159" v:mID="65" v:groupContext="shape" transform="translate(299.25,-15.75)">
			<title>Sheet.65</title>
			<desc>BNS</desc>
			<v:textBlock v:margins="rect(0,0,0,0)"/>
			<v:textRect cx="11.25" cy="163.125" width="22.5" height="11.25"/>
			<text x="1.83" y="166.72" class="st3" v:langID="1033"><v:paragraph v:horizAlign="1"/><v:tabList/>B<tspan dy="-0.287em"
						class="st5" v:baseFontSize="12">NS</tspan></text>		</g>
		<g id="shape66-162" v:mID="66" v:groupContext="shape" transform="translate(175.426,26.9257) rotate(-45)">
			<title>Sheet.66</title>
			<path d="M0 168.75 L12.73 168.75" class="st4"/>
		</g>
		<g id="shape68-165" v:mID="68" v:groupContext="shape" transform="translate(273.938,-111.049)">
			<title>Sheet.68</title>
			<desc>X∙Z</desc>
			<v:textBlock v:margins="rect(0,0,0,0)"/>
			<v:textRect cx="10.6875" cy="162.799" width="21.38" height="11.9017"/>
			<text x="0" y="165.8" class="st7" v:langID="1033"><v:paragraph/><v:tabList/>X<tspan class="st8">∙</tspan>Z</text>		</g>
		<g id="shape71-168" v:mID="71" v:groupContext="shape" transform="translate(196.875,-123.75)">
			<title>Sheet.71</title>
			<path d="M0 168.75 L2.92 168.75" class="st9"/>
		</g>
		<g id="shape72-174" v:mID="72" v:groupContext="shape" transform="translate(168.75,-112.5)">
			<title>Rounded rectangle.480</title>
			<v:userDefs>
				<v:ud v:nameU="visVersion" v:val="VT0(11):26"/>
			</v:userDefs>
			<path d="M24.75 168.75 A4.50003 4.50003 -180 0 0 29.25 164.25 L29.25 151.12 A4.50003 4.50003 -180 0 0 24.75 146.62 L4.5
						 146.62 A4.50003 4.50003 -180 0 0 0 151.12 L0 164.25 A4.50003 4.50003 -180 0 0 4.5 168.75 L24.75 168.75 Z"
					class="st11"/>
		</g>
		<g id="shape73-176" v:mID="73" v:groupContext="shape" transform="translate(166.5,-113.625)">
			<title>Rounded rectangle.481</title>
			<desc>Simpler Map</desc>
			<v:userDefs>
				<v:ud v:nameU="visVersion" v:val="VT0(11):26"/>
			</v:userDefs>
			<v:textBlock v:margins="rect(4,0,4,0)"/>
			<v:textRect cx="15.1875" cy="157.5" width="30.38" height="22.5"/>
			<path d="M25.87 168.75 A4.50003 4.50003 -180 0 0 30.37 164.25 L30.37 150.75 A4.50003 4.50003 -180 0 0 25.87 146.25 L4.5
						 146.25 A4.50003 4.50003 -180 0 0 0 150.75 L0 164.25 A4.50003 4.50003 -180 0 0 4.5 168.75 L25.87 168.75 Z"
					class="st12"/>
			<text x="1.63" y="155.1" class="st13" v:langID="1033"><v:paragraph v:horizAlign="1"/><v:tabList/>Simpler<v:newlineChar/><tspan
						x="7.41" dy="1.2em" class="st14">Map</tspan></text>		</g>
		<g id="shape74-180" v:mID="74" v:groupContext="shape" transform="translate(196.875,-124.875)">
			<title>Sheet.74</title>
			<path d="M0 168.75 L2.92 168.75" class="st15"/>
		</g>
		<g id="shape75-186" v:mID="75" v:groupContext="shape" transform="translate(196.875,-42.1875)">
			<title>Sheet.75</title>
			<path d="M0 168.75 L2.92 168.75" class="st9"/>
		</g>
		<g id="shape76-191" v:mID="76" v:groupContext="shape" transform="translate(168.75,-30.9375)">
			<title>Rounded rectangle.74</title>
			<v:userDefs>
				<v:ud v:nameU="visVersion" v:val="VT0(11):26"/>
			</v:userDefs>
			<path d="M24.75 168.75 A4.50003 4.50003 -180 0 0 29.25 164.25 L29.25 151.12 A4.50003 4.50003 -180 0 0 24.75 146.62 L4.5
						 146.62 A4.50003 4.50003 -180 0 0 0 151.12 L0 164.25 A4.50003 4.50003 -180 0 0 4.5 168.75 L24.75 168.75 Z"
					class="st11"/>
		</g>
		<g id="shape77-193" v:mID="77" v:groupContext="shape" transform="translate(166.5,-32.0625)">
			<title>Rounded rectangle.81</title>
			<desc>Simpler Map</desc>
			<v:userDefs>
				<v:ud v:nameU="visVersion" v:val="VT0(11):26"/>
			</v:userDefs>
			<v:textBlock v:margins="rect(4,0,4,0)"/>
			<v:textRect cx="15.1875" cy="157.5" width="30.38" height="22.5"/>
			<path d="M25.87 168.75 A4.50003 4.50003 -180 0 0 30.37 164.25 L30.37 150.75 A4.50003 4.50003 -180 0 0 25.87 146.25 L4.5
						 146.25 A4.50003 4.50003 -180 0 0 0 150.75 L0 164.25 A4.50003 4.50003 -180 0 0 4.5 168.75 L25.87 168.75 Z"
					class="st12"/>
			<text x="1.63" y="155.1" class="st13" v:langID="1033"><v:paragraph v:horizAlign="1"/><v:tabList/>Simpler<v:newlineChar/><tspan
						x="7.41" dy="1.2em" class="st14">Map</tspan></text>		</g>
		<g id="shape78-197" v:mID="78" v:groupContext="shape" transform="translate(196.875,-43.3125)">
			<title>Sheet.78</title>
			<path d="M0 168.75 L2.92 168.75" class="st15"/>
		</g>
		<g id="shape79-202" v:mID="79" v:groupContext="shape" transform="translate(393.75,-108)">
			<title>Rectangle.87</title>
			<rect x="0" y="150.75" width="36" height="18" class="st1"/>
		</g>
		<g id="shape80-204" v:mID="80" v:groupContext="shape" transform="translate(393.75,-126)">
			<title>Rectangle.88</title>
			<rect x="0" y="150.75" width="36" height="18" class="st1"/>
		</g>
		<g id="shape81-206" v:mID="81" v:groupContext="shape" transform="translate(429.75,-126)">
			<title>Rectangle.81</title>
			<rect x="0" y="150.75" width="36" height="18" class="st1"/>
		</g>
		<g id="shape82-208" v:mID="82" v:groupContext="shape" transform="translate(429.75,-108)">
			<title>Rectangle.82</title>
			<rect x="0" y="150.75" width="36" height="18" class="st1"/>
		</g>
		<g id="shape83-210" v:mID="83" v:groupContext="shape" transform="translate(393.75,-129.049)">
			<title>Sheet.83</title>
			<desc>0</desc>
			<v:textBlock v:margins="rect(0,0,0,0)"/>
			<v:textRect cx="18" cy="162.799" width="36" height="11.9017"/>
			<text x="15.22" y="165.8" class="st2" v:langID="1033"><v:paragraph v:horizAlign="1"/><v:tabList/>0</text>		</g>
		<g id="shape84-212" v:mID="84" v:groupContext="shape" transform="translate(393.75,-111.049)">
			<title>Sheet.84</title>
			<desc>1</desc>
			<v:textBlock v:margins="rect(0,0,0,0)"/>
			<v:textRect cx="18" cy="162.799" width="36" height="11.9017"/>
			<text x="15.22" y="165.8" class="st2" v:langID="1033"><v:paragraph v:horizAlign="1"/><v:tabList/>1</text>		</g>
		<g id="shape85-214" v:mID="85" v:groupContext="shape" transform="translate(380.25,-127.125)">
			<title>Sheet.85</title>
			<desc>0</desc>
			<v:textBlock v:margins="rect(0,0,0,0)"/>
			<v:textRect cx="6.75" cy="160.875" width="13.5" height="15.75"/>
			<text x="3.41" y="164.47" class="st3" v:langID="1033"><v:paragraph v:horizAlign="1"/><v:tabList/>0</text>		</g>
		<g id="shape86-216" v:mID="86" v:groupContext="shape" transform="translate(380.25,-108)">
			<title>Sheet.86</title>
			<desc>1</desc>
			<v:textBlock v:margins="rect(0,0,0,0)"/>
			<v:textRect cx="6.75" cy="159.75" width="13.5" height="18"/>
			<text x="3.41" y="163.35" class="st3" v:langID="1033"><v:paragraph v:horizAlign="1"/><v:tabList/>1</text>		</g>
		<g id="shape87-218" v:mID="87" v:groupContext="shape" transform="translate(393.75,-144)">
			<title>Sheet.87</title>
			<desc>0</desc>
			<v:textBlock v:margins="rect(0,0,0,0)"/>
			<v:textRect cx="18" cy="162" width="36" height="13.5"/>
			<text x="14.66" y="165.6" class="st3" v:langID="1033"><v:paragraph v:horizAlign="1"/><v:tabList/>0</text>		</g>
		<g id="shape88-220" v:mID="88" v:groupContext="shape" transform="translate(429.75,-144)">
			<title>Sheet.88</title>
			<desc>1</desc>
			<v:textBlock v:margins="rect(0,0,0,0)"/>
			<v:textRect cx="18" cy="162" width="36" height="13.5"/>
			<text x="14.66" y="165.6" class="st3" v:langID="1033"><v:paragraph v:horizAlign="1"/><v:tabList/>1</text>		</g>
		<g id="shape89-222" v:mID="89" v:groupContext="shape" transform="translate(274.426,144.074) rotate(-135)">
			<title>Sheet.89</title>
			<path d="M0 168.75 L19.09 168.75" class="st4"/>
		</g>
		<g id="shape90-225" v:mID="90" v:groupContext="shape" transform="translate(382.5,-153)">
			<title>Sheet.90</title>
			<desc>BPS</desc>
			<v:textBlock v:margins="rect(0,0,0,0)"/>
			<v:textRect cx="11.25" cy="160.875" width="22.5" height="15.75"/>
			<text x="2.05" y="164.47" class="st3" v:langID="1033"><v:paragraph v:horizAlign="1"/><v:tabList/>B<tspan dy="-0.287em"
						class="st5" v:baseFontSize="12">PS</tspan></text>		</g>
		<g id="shape91-228" v:mID="91" v:groupContext="shape" transform="translate(362.25,-141.75)">
			<title>Sheet.91</title>
			<desc>APS</desc>
			<v:textBlock v:margins="rect(0,0,0,0)"/>
			<v:textRect cx="11.25" cy="162" width="22.5" height="13.5"/>
			<text x="2.05" y="165.6" class="st3" v:langID="1033"><v:paragraph v:horizAlign="1"/><v:tabList/>A<tspan dy="-0.287em"
						class="st5" v:baseFontSize="12">PS</tspan></text>		</g>
		<g id="shape92-231" v:mID="92" v:groupContext="shape" transform="translate(465.75,-96.75)">
			<title>Sheet.92</title>
			<desc>RED</desc>
			<v:textBlock v:margins="rect(0,0,0,0)"/>
			<v:textRect cx="13.5" cy="163.125" width="27" height="11.25"/>
			<text x="0.83" y="166.72" class="st3" v:langID="1033"><v:paragraph v:horizAlign="1"/><v:tabList/>RED</text>		</g>
		<g id="shape93-233" v:mID="93" v:groupContext="shape" transform="translate(341.926,-54.0743) rotate(-45)">
			<title>Sheet.93</title>
			<path d="M0 168.75 L12.73 168.75" class="st4"/>
		</g>
		<g id="shape94-236" v:mID="94" v:groupContext="shape" transform="translate(393.75,-27)">
			<title>Rectangle.129</title>
			<rect x="0" y="150.75" width="36" height="18" class="st1"/>
		</g>
		<g id="shape95-238" v:mID="95" v:groupContext="shape" transform="translate(393.75,-45)">
			<title>Rectangle.131</title>
			<rect x="0" y="150.75" width="36" height="18" class="st1"/>
		</g>
		<g id="shape96-240" v:mID="96" v:groupContext="shape" transform="translate(429.75,-45)">
			<title>Rectangle.133</title>
			<rect x="0" y="150.75" width="36" height="18" class="st1"/>
		</g>
		<g id="shape97-242" v:mID="97" v:groupContext="shape" transform="translate(429.75,-27)">
			<title>Rectangle.134</title>
			<rect x="0" y="150.75" width="36" height="18" class="st1"/>
		</g>
		<g id="shape98-244" v:mID="98" v:groupContext="shape" transform="translate(393.75,-48.0492)">
			<title>Sheet.98</title>
			<desc>1</desc>
			<v:textBlock v:margins="rect(0,0,0,0)"/>
			<v:textRect cx="18" cy="162.799" width="36" height="11.9017"/>
			<text x="15.22" y="165.8" class="st2" v:langID="1033"><v:paragraph v:horizAlign="1"/><v:tabList/>1</text>		</g>
		<g id="shape99-246" v:mID="99" v:groupContext="shape" transform="translate(393.75,-30.0492)">
			<title>Sheet.99</title>
			<desc>0</desc>
			<v:textBlock v:margins="rect(0,0,0,0)"/>
			<v:textRect cx="18" cy="162.799" width="36" height="11.9017"/>
			<text x="15.22" y="165.8" class="st2" v:langID="1033"><v:paragraph v:horizAlign="1"/><v:tabList/>0</text>		</g>
		<g id="shape100-248" v:mID="100" v:groupContext="shape" transform="translate(380.25,-46.125)">
			<title>Sheet.100</title>
			<desc>0</desc>
			<v:textBlock v:margins="rect(0,0,0,0)"/>
			<v:textRect cx="6.75" cy="160.875" width="13.5" height="15.75"/>
			<text x="3.41" y="164.47" class="st3" v:langID="1033"><v:paragraph v:horizAlign="1"/><v:tabList/>0</text>		</g>
		<g id="shape101-250" v:mID="101" v:groupContext="shape" transform="translate(380.25,-27)">
			<title>Sheet.101</title>
			<desc>1</desc>
			<v:textBlock v:margins="rect(0,0,0,0)"/>
			<v:textRect cx="6.75" cy="159.75" width="13.5" height="18"/>
			<text x="3.41" y="163.35" class="st3" v:langID="1033"><v:paragraph v:horizAlign="1"/><v:tabList/>1</text>		</g>
		<g id="shape102-252" v:mID="102" v:groupContext="shape" transform="translate(393.75,-63)">
			<title>Sheet.102</title>
			<desc>0</desc>
			<v:textBlock v:margins="rect(0,0,0,0)"/>
			<v:textRect cx="18" cy="162" width="36" height="13.5"/>
			<text x="14.66" y="165.6" class="st3" v:langID="1033"><v:paragraph v:horizAlign="1"/><v:tabList/>0</text>		</g>
		<g id="shape103-254" v:mID="103" v:groupContext="shape" transform="translate(429.75,-63)">
			<title>Sheet.103</title>
			<desc>1</desc>
			<v:textBlock v:margins="rect(0,0,0,0)"/>
			<v:textRect cx="18" cy="162" width="36" height="13.5"/>
			<text x="14.66" y="165.6" class="st3" v:langID="1033"><v:paragraph v:horizAlign="1"/><v:tabList/>1</text>		</g>
		<g id="shape104-256" v:mID="104" v:groupContext="shape" transform="translate(274.426,225.074) rotate(-135)">
			<title>Sheet.104</title>
			<path d="M0 168.75 L19.09 168.75" class="st4"/>
		</g>
		<g id="shape105-259" v:mID="105" v:groupContext="shape" transform="translate(382.5,-72)">
			<title>Sheet.105</title>
			<desc>BPS</desc>
			<v:textBlock v:margins="rect(0,0,0,0)"/>
			<v:textRect cx="11.25" cy="160.875" width="22.5" height="15.75"/>
			<text x="2.05" y="164.47" class="st3" v:langID="1033"><v:paragraph v:horizAlign="1"/><v:tabList/>B<tspan dy="-0.287em"
						class="st5" v:baseFontSize="12">PS</tspan></text>		</g>
		<g id="shape106-262" v:mID="106" v:groupContext="shape" transform="translate(362.25,-60.75)">
			<title>Sheet.106</title>
			<desc>APS</desc>
			<v:textBlock v:margins="rect(0,0,0,0)"/>
			<v:textRect cx="11.25" cy="162" width="22.5" height="13.5"/>
			<text x="2.05" y="165.6" class="st3" v:langID="1033"><v:paragraph v:horizAlign="1"/><v:tabList/>A<tspan dy="-0.287em"
						class="st5" v:baseFontSize="12">PS</tspan></text>		</g>
		<g id="shape107-265" v:mID="107" v:groupContext="shape" transform="translate(465.75,-15.75)">
			<title>Sheet.107</title>
			<desc>GRN</desc>
			<v:textBlock v:margins="rect(0,0,0,0)"/>
			<v:textRect cx="13.5" cy="163.125" width="27" height="11.25"/>
			<text x="0.17" y="166.72" class="st3" v:langID="1033"><v:paragraph v:horizAlign="1"/><v:tabList/>GRN</text>		</g>
		<g id="shape108-267" v:mID="108" v:groupContext="shape" transform="translate(341.926,26.9257) rotate(-45)">
			<title>Sheet.108</title>
			<path d="M0 168.75 L12.73 168.75" class="st4"/>
		</g>
		<g id="shape109-270" v:mID="109" v:groupContext="shape" transform="translate(429.75,-129.049)">
			<title>Sheet.109</title>
			<desc>0</desc>
			<v:textBlock v:margins="rect(0,0,0,0)"/>
			<v:textRect cx="18" cy="162.799" width="36" height="11.9017"/>
			<text x="15.22" y="165.8" class="st2" v:langID="1033"><v:paragraph v:horizAlign="1"/><v:tabList/>0</text>		</g>
		<g id="shape110-272" v:mID="110" v:groupContext="shape" transform="translate(429.75,-111.049)">
			<title>Sheet.110</title>
			<desc>0</desc>
			<v:textBlock v:margins="rect(0,0,0,0)"/>
			<v:textRect cx="18" cy="162.799" width="36" height="11.9017"/>
			<text x="15.22" y="165.8" class="st2" v:langID="1033"><v:paragraph v:horizAlign="1"/><v:tabList/>0</text>		</g>
		<g id="shape111-274" v:mID="111" v:groupContext="shape" transform="translate(429.75,-48.0492)">
			<title>Sheet.111</title>
			<desc>X</desc>
			<v:textBlock v:margins="rect(0,0,0,0)"/>
			<v:textRect cx="18" cy="162.799" width="36" height="11.9017"/>
			<text x="14.66" y="165.8" class="st2" v:langID="1033"><v:paragraph v:horizAlign="1"/><v:tabList/>X</text>		</g>
		<g id="shape112-276" v:mID="112" v:groupContext="shape" transform="translate(429.75,-30.0492)">
			<title>Sheet.112</title>
			<desc>X∙Y</desc>
			<v:textBlock v:margins="rect(0,0,0,0)"/>
			<v:textRect cx="18" cy="162.799" width="36" height="11.9017"/>
			<text x="9.94" y="165.8" class="st2" v:langID="1033"><v:paragraph v:horizAlign="1"/><v:tabList/>X∙Y</text>		</g>
		<g id="shape116-278" v:mID="116" v:groupContext="shape" transform="translate(111.375,-136.125)">
			<title>Sheet.116</title>
			<path d="M0 168.75 L6.02 168.75" class="st17"/>
		</g>
		<g id="shape117-281" v:mID="117" v:groupContext="shape" transform="translate(120.375,-136.125)">
			<title>Sheet.117</title>
			<path d="M0 168.75 L6.02 168.75" class="st17"/>
		</g>
		<g id="shape135-284" v:mID="135" v:groupContext="shape" transform="translate(97.875,-115.875)">
			<title>Sheet.135</title>
			<path d="M0 168.75 L6.02 168.75" class="st17"/>
		</g>
		<g id="shape136-287" v:mID="136" v:groupContext="shape" transform="translate(106.483,-115.875)">
			<title>Sheet.136</title>
			<path d="M0 168.75 L6.02 168.75" class="st17"/>
		</g>
		<g id="shape137-290" v:mID="137" v:groupContext="shape" transform="translate(115.164,-115.875)">
			<title>Sheet.137</title>
			<path d="M0 168.75 L6.02 168.75" class="st17"/>
		</g>
		<g id="shape138-293" v:mID="138" v:groupContext="shape" transform="translate(126,-115.875)">
			<title>Sheet.138</title>
			<path d="M0 168.75 L6.02 168.75" class="st17"/>
		</g>
		<g id="shape140-296" v:mID="140" v:groupContext="shape" transform="translate(143.289,-115.875)">
			<title>Sheet.140</title>
			<path d="M0 168.75 L6.02 168.75" class="st17"/>
		</g>
		<g id="shape141-299" v:mID="141" v:groupContext="shape" transform="translate(97.875,-57.375)">
			<title>Sheet.141</title>
			<path d="M0 168.75 L6.02 168.75" class="st17"/>
		</g>
		<g id="shape142-302" v:mID="142" v:groupContext="shape" transform="translate(106.483,-57.375)">
			<title>Sheet.142</title>
			<path d="M0 168.75 L6.02 168.75" class="st17"/>
		</g>
		<g id="shape143-305" v:mID="143" v:groupContext="shape" transform="translate(115.164,-57.375)">
			<title>Sheet.143</title>
			<path d="M0 168.75 L6.02 168.75" class="st17"/>
		</g>
		<g id="shape144-308" v:mID="144" v:groupContext="shape" transform="translate(126.318,-57.375)">
			<title>Sheet.144</title>
			<path d="M0 168.75 L6.02 168.75" class="st17"/>
		</g>
		<g id="shape145-311" v:mID="145" v:groupContext="shape" transform="translate(134.926,-57.375)">
			<title>Sheet.145</title>
			<path d="M0 168.75 L6.02 168.75" class="st17"/>
		</g>
		<g id="shape150-314" v:mID="150" v:groupContext="shape" transform="translate(113.625,-34.875)">
			<title>Sheet.150</title>
			<path d="M0 168.75 L6.02 168.75" class="st17"/>
		</g>
		<g id="shape151-317" v:mID="151" v:groupContext="shape" transform="translate(122.233,-34.875)">
			<title>Sheet.151</title>
			<path d="M0 168.75 L6.02 168.75" class="st17"/>
		</g>
		<g id="shape152-320" v:mID="152" v:groupContext="shape" transform="translate(130.914,-34.875)">
			<title>Sheet.152</title>
			<path d="M0 168.75 L6.02 168.75" class="st17"/>
		</g>
		<g id="shape156-323" v:mID="156" v:groupContext="shape" transform="translate(270,-127.924)">
			<title>Sheet.156</title>
			<desc>X∙Y∙Z</desc>
			<v:textBlock v:margins="rect(0,0,0,0)"/>
			<v:textRect cx="13.5" cy="162.799" width="27" height="11.9017"/>
			<text x="0" y="165.8" class="st7" v:langID="1033"><v:paragraph/><v:tabList/>X<tspan class="st8">∙</tspan>Y<tspan
						class="st8">∙</tspan>Z</text>		</g>
		<g id="shape157-327" v:mID="157" v:groupContext="shape" transform="translate(270,-139.826)">
			<title>Sheet.157</title>
			<path d="M0 168.75 L6.02 168.75" class="st17"/>
		</g>
		<g id="shape158-330" v:mID="158" v:groupContext="shape" transform="translate(279,-139.826)">
			<title>Sheet.158</title>
			<path d="M0 168.75 L6.02 168.75" class="st17"/>
		</g>
		<g id="shape159-333" v:mID="159" v:groupContext="shape" transform="translate(273.375,-122.625)">
			<title>Sheet.159</title>
			<path d="M0 168.75 L6.02 168.75" class="st17"/>
		</g>
		<g id="shape160-336" v:mID="160" v:groupContext="shape" transform="translate(282.375,-122.625)">
			<title>Sheet.160</title>
			<path d="M0 168.75 L6.02 168.75" class="st17"/>
		</g>
		<g id="shape161-339" v:mID="161" v:groupContext="shape" transform="translate(270,-29.7233)">
			<title>Sheet.161</title>
			<desc>X∙Y∙Z</desc>
			<v:textBlock v:margins="rect(0,0,0,0)"/>
			<v:textRect cx="12.375" cy="162.799" width="24.75" height="11.9017"/>
			<text x="0" y="165.8" class="st7" v:langID="1033"><v:paragraph/><v:tabList/>X<tspan class="st8">∙</tspan>Y<tspan
						class="st8">∙</tspan>Z</text>		</g>
		<g id="shape162-343" v:mID="162" v:groupContext="shape" transform="translate(270,-41.2992)">
			<title>Sheet.162</title>
			<path d="M0 168.75 L6.02 168.75" class="st17"/>
		</g>
		<g id="shape163-346" v:mID="163" v:groupContext="shape" transform="translate(278.608,-41.2992)">
			<title>Sheet.163</title>
			<path d="M0 168.75 L6.02 168.75" class="st17"/>
		</g>
		<g id="shape164-349" v:mID="164" v:groupContext="shape" transform="translate(287.289,-41.2992)">
			<title>Sheet.164</title>
			<path d="M0 168.75 L6.02 168.75" class="st17"/>
		</g>
		<g id="shape165-352" v:mID="165" v:groupContext="shape" transform="translate(273.938,-48.375)">
			<title>Sheet.165</title>
			<desc>X∙Y</desc>
			<v:textBlock v:margins="rect(0,0,0,0)"/>
			<v:textRect cx="10.6875" cy="162.799" width="21.38" height="11.9017"/>
			<text x="0" y="165.8" class="st7" v:langID="1033"><v:paragraph/><v:tabList/>X<tspan class="st8">∙</tspan>Y</text>		</g>
		<g id="shape166-355" v:mID="166" v:groupContext="shape" transform="translate(273.375,-59.9508)">
			<title>Sheet.166</title>
			<path d="M0 168.75 L6.02 168.75" class="st17"/>
		</g>
		<g id="shape167-358" v:mID="167" v:groupContext="shape" transform="translate(282.375,-59.9508)">
			<title>Sheet.167</title>
			<path d="M0 168.75 L6.02 168.75" class="st17"/>
		</g>
	</g>
</svg>
