<?xml version="1.0" encoding="UTF-8" standalone="no"?>
<!DOCTYPE svg PUBLIC "-//W3C//DTD SVG 1.1//EN" "http://www.w3.org/Graphics/SVG/1.1/DTD/svg11.dtd">
<!-- Generated by Microsoft Visio, SVG Export SerialAdder_SM4.svg Page-1 -->
<svg xmlns="http://www.w3.org/2000/svg" xmlns:xlink="http://www.w3.org/1999/xlink" xmlns:ev="http://www.w3.org/2001/xml-events"
		xmlns:v="http://schemas.microsoft.com/visio/2003/SVGExtensions/" width="4.21875in" height="2.30177in"
		viewBox="0 0 303.75 165.727" xml:space="preserve" color-interpolation-filters="sRGB" class="st15">
	<v:documentProperties v:langID="1033" v:viewMarkup="false"/>

	<style type="text/css">
	<![CDATA[
		.st1 {fill:#abe0ae;stroke:#000000;stroke-linecap:round;stroke-linejoin:round;stroke-width:0.24}
		.st2 {fill:#000000;font-family:Arial;font-size:0.833336em}
		.st3 {marker-start:url(#mrkr4-9);stroke:#4d4d4d;stroke-linecap:round;stroke-linejoin:round;stroke-width:1.2}
		.st4 {fill:#4d4d4d;fill-opacity:1;stroke:#4d4d4d;stroke-opacity:1;stroke-width:0.4}
		.st5 {font-size:1em}
		.st6 {marker-end:url(#mrkr5-23);stroke:#000000;stroke-linecap:round;stroke-linejoin:round;stroke-width:0.75}
		.st7 {fill:#000000;fill-opacity:1;stroke:#000000;stroke-opacity:1;stroke-width:0.22935779816514}
		.st8 {fill:none;stroke:none;stroke-linecap:round;stroke-linejoin:round;stroke-width:0.75}
		.st9 {fill:#000000;font-family:Arial Unicode MS;font-size:0.833336em}
		.st10 {fill:none;stroke:none;stroke-linecap:round;stroke-linejoin:round;stroke-width:0.72}
		.st11 {fill:#c05046;font-family:Arial;font-size:0.833336em}
		.st12 {marker-end:url(#mrkr5-52);stroke:#c05046;stroke-linecap:round;stroke-linejoin:round;stroke-width:0.75}
		.st13 {fill:#c05046;fill-opacity:1;stroke:#c05046;stroke-opacity:1;stroke-width:0.22935779816514}
		.st14 {stroke:#000000;stroke-linecap:round;stroke-linejoin:round;stroke-width:0.75}
		.st15 {fill:none;fill-rule:evenodd;font-size:12px;overflow:visible;stroke-linecap:square;stroke-miterlimit:3}
	]]>
	</style>

	<defs id="Markers">
		<g id="lend4">
			<path d="M 2 1 L 0 0 L 2 -1 L 2 1 " style="stroke:none"/>
		</g>
		<marker id="mrkr4-9" class="st4" v:arrowType="4" v:arrowSize="1" v:setback="4.7" refX="4.7" orient="auto"
				markerUnits="strokeWidth" overflow="visible">
			<use xlink:href="#lend4" transform="scale(2.5) "/>
		</marker>
		<g id="lend5">
			<path d="M 2 1 L 0 0 L 1.98117 -0.993387 C 1.67173 -0.364515 1.67301 0.372641 1.98465 1.00043 " style="stroke:none"/>
		</g>
		<marker id="mrkr5-23" class="st7" v:arrowType="5" v:arrowSize="2" v:setback="7.15" refX="-7.15" orient="auto"
				markerUnits="strokeWidth" overflow="visible">
			<use xlink:href="#lend5" transform="scale(-4.36,-4.36) "/>
		</marker>
		<marker id="mrkr5-52" class="st13" v:arrowType="5" v:arrowSize="2" v:setback="7.15" refX="-7.15" orient="auto"
				markerUnits="strokeWidth" overflow="visible">
			<use xlink:href="#lend5" transform="scale(-4.36,-4.36) "/>
		</marker>
	</defs>
	<g v:mID="0" v:index="1" v:groupContext="foregroundPage">
		<title>Page-1</title>
		<v:pageProperties v:drawingScale="1" v:pageScale="1" v:drawingUnits="19" v:shadowOffsetX="9" v:shadowOffsetY="-9"/>
		<g id="shape1-1" v:mID="1" v:groupContext="shape" transform="translate(132.817,-91.8508)">
			<title>Sheet.1</title>
			<desc>S0</desc>
			<v:textBlock v:margins="rect(4,4,4,4)"/>
			<v:textRect cx="20.5774" cy="145.951" width="41.16" height="39.5527"/>
			<path d="M0 145.89 L0.24 142.9 L0.96 140.04 L2.03 137.29 L3.59 134.78 L5.5 132.39 L7.78 130.36 L10.29 128.68 L13.04 127.49
						 L16.03 126.53 L19.02 126.17 L22.13 126.17 L25.24 126.53 L28.11 127.49 L30.87 128.68 L33.5 130.36 L35.77
						 132.39 L37.69 134.78 L39.12 137.29 L40.32 140.04 L41.04 142.9 L41.15 145.89 L41.04 148.88 L40.32 151.75
						 L39.12 154.49 L37.69 157.12 L35.77 159.39 L33.5 161.43 L30.87 163.1 L28.11 164.41 L25.24 165.25 L22.13 165.73
						 L19.02 165.73 L16.03 165.25 L13.04 164.41 L10.29 163.1 L7.78 161.43 L5.5 159.39 L3.59 157.12 L2.03 154.49
						 L0.96 151.75 L0.24 148.88 L0 145.89 Z" class="st1"/>
			<text x="14.46" y="148.95" class="st2" v:langID="1033"><v:paragraph v:horizAlign="1"/><v:tabList/>S0</text>		</g>
		<g id="shape2-4" v:mID="2" v:groupContext="shape" transform="translate(-12.6966,63.8364) rotate(-100.095)">
			<title>Sheet.2</title>
			<path d="M5.64 165.73 L6 165.73 L19.43 165.73" class="st3"/>
		</g>
		<g id="shape3-10" v:mID="3" v:groupContext="shape" transform="translate(124.59,-147.815)">
			<title>Sheet.3</title>
			<desc>Rst</desc>
			<v:textBlock v:margins="rect(0,0,0,0)"/>
			<v:textRect cx="16.875" cy="156.771" width="33.75" height="17.9123"/>
			<text x="9.37" y="159.77" class="st2" v:langID="1033"><v:paragraph v:horizAlign="1"/><v:tabList/>Rst</text>		</g>
		<g id="shape4-12" v:mID="4" v:groupContext="shape" transform="translate(101.25,-119.877)">
			<title>Sheet.4</title>
			<desc>F=0 Cout=0</desc>
			<v:textBlock v:margins="rect(0,0,0,0)"/>
			<v:textRect cx="16.875" cy="156.771" width="33.75" height="17.9123"/>
			<text x="16.24" y="153.77" class="st2" v:langID="1033"><v:paragraph v:horizAlign="2"/><v:tabList/>F=0<v:newlineChar/><tspan
						x="1.23" dy="1.2em" class="st5">Cout</tspan>=0</text>		</g>
		<g id="shape5-15" v:mID="5" v:groupContext="shape" transform="translate(35.6726,-1.01267)">
			<title>Sheet.5</title>
			<desc>S1</desc>
			<v:textBlock v:margins="rect(4,4,4,4)"/>
			<v:textRect cx="20.5774" cy="145.951" width="41.16" height="39.5527"/>
			<path d="M0 145.89 L0.24 142.9 L0.96 140.04 L2.03 137.29 L3.59 134.78 L5.5 132.39 L7.78 130.36 L10.29 128.68 L13.04 127.49
						 L16.03 126.53 L19.02 126.17 L22.13 126.17 L25.24 126.53 L28.11 127.49 L30.87 128.68 L33.5 130.36 L35.77
						 132.39 L37.69 134.78 L39.12 137.29 L40.32 140.04 L41.04 142.9 L41.15 145.89 L41.04 148.88 L40.32 151.75
						 L39.12 154.49 L37.69 157.12 L35.77 159.39 L33.5 161.43 L30.87 163.1 L28.11 164.41 L25.24 165.25 L22.13 165.73
						 L19.02 165.73 L16.03 165.25 L13.04 164.41 L10.29 163.1 L7.78 161.43 L5.5 159.39 L3.59 157.12 L2.03 154.49
						 L0.96 151.75 L0.24 148.88 L0 145.89 Z" class="st1"/>
			<text x="14.46" y="148.95" class="st2" v:langID="1033"><v:paragraph v:horizAlign="1"/><v:tabList/>S1</text>		</g>
		<g id="shape6-18" v:mID="6" v:groupContext="shape" transform="translate(239.58,163.276) rotate(134.926)">
			<title>Sheet.6</title>
			<path d="M0 150.45 C12.7 161.13 28.85 165.19 44.06 165.73 C61.45 166.34 77.62 162.34 93.2 153.43 L93.51 153.24"
					class="st6"/>
		</g>
		<g id="shape8-24" v:mID="8" v:groupContext="shape" transform="translate(0,-11.8329)">
			<title>Sheet.8</title>
			<desc>F=1 Cout=0</desc>
			<v:textBlock v:margins="rect(0,0,0,0)"/>
			<v:textRect cx="16.875" cy="156.771" width="33.75" height="17.9123"/>
			<text x="16.24" y="153.77" class="st2" v:langID="1033"><v:paragraph v:horizAlign="2"/><v:tabList/>F=1<v:newlineChar/><tspan
						x="1.23" dy="1.2em" class="st5">Cout</tspan>=0</text>		</g>
		<g id="shape9-27" v:mID="9" v:groupContext="shape" transform="translate(71.4312,136.902) rotate(-129.97)">
			<title>Sheet.9</title>
			<path d="M0 133.64 C-9.14 137.53 -14.48 152.36 -10.81 159.76 C-3.07 175.35 44.74 157.93 24.48 137.34 L24.2 137.11"
					class="st6"/>
		</g>
		<g id="group16-32" transform="translate(-40.9599,-27.3737) rotate(-45)" v:mID="16" v:groupContext="group">
			<title>Sheet.16</title>
			<g id="shape7-33" v:mID="7" v:groupContext="shape">
				<title>Sheet.7</title>
				<desc>A</desc>
				<v:textBlock v:margins="rect(0,0,0,0)"/>
				<v:textRect cx="4.5" cy="160.13" width="9.01" height="11.1952"/>
				<text x="0" y="163.13" class="st2" v:langID="1033"><v:paragraph/><v:tabList/>A</text>			</g>
			<g id="shape14-35" v:mID="14" v:groupContext="shape" transform="translate(6.75,-4.5)">
				<title>Sheet.14</title>
				<desc>⊕</desc>
				<v:textBlock v:margins="rect(0,0,0,0)"/>
				<v:textRect cx="4.5" cy="163.477" width="9" height="4.5"/>
				<rect x="0" y="161.227" width="9" height="4.5" class="st8"/>
				<text x="0.5" y="166.48" class="st9" v:langID="1033"><v:paragraph v:horizAlign="1"/><v:tabList/>⊕</text>			</g>
			<g id="shape15-38" v:mID="15" v:groupContext="shape" transform="translate(15.75,-0.0548405)">
				<title>Sheet.15</title>
				<desc>B</desc>
				<v:textBlock v:margins="rect(0,0,0,0)"/>
				<v:textRect cx="4.5" cy="160.13" width="9" height="11.1952"/>
				<rect x="0" y="154.532" width="9" height="11.1952" class="st10"/>
				<text x="0" y="163.13" class="st2" v:langID="1033"><v:paragraph/><v:tabList/>B</text>			</g>
		</g>
		<g id="shape17-41" v:mID="17" v:groupContext="shape" transform="translate(223.548,-0.12)">
			<title>Sheet.17</title>
			<desc>S2</desc>
			<v:textBlock v:margins="rect(4,4,4,4)"/>
			<v:textRect cx="20.5774" cy="145.951" width="41.16" height="39.5527"/>
			<path d="M0 145.89 L0.24 142.9 L0.96 140.04 L2.03 137.29 L3.59 134.78 L5.5 132.39 L7.78 130.36 L10.29 128.68 L13.04 127.49
						 L16.03 126.53 L19.02 126.17 L22.13 126.17 L25.24 126.53 L28.11 127.49 L30.87 128.68 L33.5 130.36 L35.77
						 132.39 L37.69 134.78 L39.12 137.29 L40.32 140.04 L41.04 142.9 L41.15 145.89 L41.04 148.88 L40.32 151.75
						 L39.12 154.49 L37.69 157.12 L35.77 159.39 L33.5 161.43 L30.87 163.1 L28.11 164.41 L25.24 165.25 L22.13 165.73
						 L19.02 165.73 L16.03 165.25 L13.04 164.41 L10.29 163.1 L7.78 161.43 L5.5 159.39 L3.59 157.12 L2.03 154.49
						 L0.96 151.75 L0.24 148.88 L0 145.89 Z" class="st1"/>
			<text x="14.46" y="148.95" class="st11" v:langID="1033"><v:paragraph v:horizAlign="1"/><v:tabList/>S2</text>		</g>
		<g id="shape19-44" v:mID="19" v:groupContext="shape" transform="translate(270,-10.9402)">
			<title>Sheet.19</title>
			<desc>F=0 Cout=1</desc>
			<v:textBlock v:margins="rect(0,0,0,0)"/>
			<v:textRect cx="16.875" cy="156.771" width="33.75" height="17.9123"/>
			<text x="0" y="153.77" class="st11" v:langID="1033"><v:paragraph/><v:tabList/>F=0<v:newlineChar/><tspan x="0"
						dy="1.2em" class="st5">Cout</tspan>=1</text>		</g>
		<g id="shape26-47" v:mID="26" v:groupContext="shape" transform="translate(66.7263,163.856) rotate(45.0741) scale(1,-1)">
			<title>Sheet.26</title>
			<path d="M0 150.45 C12.7 161.13 28.85 165.19 44.06 165.73 C61.45 166.34 77.62 162.34 93.2 153.43 L93.51 153.24"
					class="st12"/>
		</g>
		<g id="shape27-53" v:mID="27" v:groupContext="shape" transform="translate(335.589,-32.2129) rotate(45)">
			<title>Sheet.27</title>
			<desc>A∙B</desc>
			<v:textBlock v:margins="rect(0,0,0,0)"/>
			<v:textRect cx="8.4375" cy="156.771" width="16.88" height="17.9123"/>
			<text x="0" y="159.77" class="st11" v:langID="1033"><v:paragraph/><v:tabList/>A∙B</text>		</g>
		<g id="group28-55" transform="translate(183.451,-132.24)" v:mID="28" v:groupContext="group">
			<title>Sheet.28</title>
			<g id="shape10-56" v:mID="10" v:groupContext="shape" transform="translate(117.187,36.608) rotate(45)">
				<title>Sheet.10</title>
				<desc>A∙B</desc>
				<v:textBlock v:margins="rect(0,0,0,0)"/>
				<v:textRect cx="8.4375" cy="156.771" width="16.88" height="17.9123"/>
				<text x="-0" y="159.77" class="st2" v:langID="1033"><v:paragraph/><v:tabList/>A∙B</text>			</g>
			<g id="shape11-58" v:mID="11" v:groupContext="shape" transform="translate(127.157,26.0192) rotate(45)">
				<title>Sheet.11</title>
				<path d="M0 165.73 L6.5 165.73" class="st14"/>
			</g>
			<g id="shape12-61" v:mID="12" v:groupContext="shape" transform="translate(133.874,32.7367) rotate(45)">
				<title>Sheet.12</title>
				<path d="M0 165.73 L6.13 165.73" class="st14"/>
			</g>
		</g>
	</g>
</svg>
