<?xml version="1.0" encoding="UTF-8" standalone="no"?>
<!DOCTYPE svg PUBLIC "-//W3C//DTD SVG 1.1//EN" "http://www.w3.org/Graphics/SVG/1.1/DTD/svg11.dtd">
<!-- Generated by Microsoft Visio, SVG Export ShifterRegister.svg Page-1 -->
<svg xmlns="http://www.w3.org/2000/svg" xmlns:xlink="http://www.w3.org/1999/xlink" xmlns:ev="http://www.w3.org/2001/xml-events"
		xmlns:v="http://schemas.microsoft.com/visio/2003/SVGExtensions/" width="5.54146in" height="2.58031in"
		viewBox="0 0 398.985 185.782" xml:space="preserve" color-interpolation-filters="sRGB" class="st11">
	<v:documentProperties v:langID="1033" v:viewMarkup="false"/>

	<style type="text/css">
	<![CDATA[
		.st1 {stroke:#000000;stroke-linecap:round;stroke-linejoin:round;stroke-width:0.72}
		.st2 {fill:none;stroke:none;stroke-linecap:round;stroke-linejoin:round;stroke-width:0.72}
		.st3 {fill:#000000;font-family:Arial;font-size:0.666664em}
		.st4 {fill:#d5e1fb;stroke:#000000;stroke-linecap:round;stroke-linejoin:round;stroke-width:0.24}
		.st5 {fill:#000000;font-family:Arial;font-size:0.833336em}
		.st6 {stroke:#000000;stroke-linecap:round;stroke-linejoin:round;stroke-width:0.75}
		.st7 {stroke:#000000;stroke-dasharray:0.75,1.5;stroke-linecap:round;stroke-linejoin:round;stroke-width:0.75}
		.st8 {fill:#ff0000;stroke:#000000;stroke-linecap:round;stroke-linejoin:round;stroke-width:0.24}
		.st9 {stroke:#000000;stroke-linecap:round;stroke-linejoin:round;stroke-width:0.719984}
		.st10 {stroke:#000000;stroke-linecap:round;stroke-linejoin:round;stroke-width:0.719473}
		.st11 {fill:none;fill-rule:evenodd;font-size:12px;overflow:visible;stroke-linecap:square;stroke-miterlimit:3}
	]]>
	</style>

	<g v:mID="0" v:index="1" v:groupContext="foregroundPage">
		<title>Page-1</title>
		<v:pageProperties v:drawingScale="1" v:pageScale="1" v:drawingUnits="19" v:shadowOffsetX="9" v:shadowOffsetY="-9"/>
		<g id="shape15-1" v:mID="15" v:groupContext="shape" transform="translate(68.0048,-18.6857)">
			<title>Sheet.15</title>
			<path d="M0 185.78 L303.19 185.78" class="st1"/>
		</g>
		<g id="shape16-4" v:mID="16" v:groupContext="shape" transform="translate(4.86,-11.61)">
			<title>Sheet.16</title>
			<desc>rst</desc>
			<v:textBlock v:margins="rect(4,4,4,4)"/>
			<v:textRect cx="20.25" cy="179.032" width="40.5" height="13.5"/>
			<rect x="0" y="172.282" width="40.5" height="13.5" class="st2"/>
			<text x="15.81" y="181.43" class="st3" v:langID="1033"><v:paragraph v:horizAlign="1"/><v:tabList/>rst</text>		</g>
		<g id="shape17-7" v:mID="17" v:groupContext="shape" transform="translate(77.0048,-27.6857)">
			<title>Rectangle</title>
			<rect x="0" y="127.282" width="40.5" height="58.5" class="st4"/>
		</g>
		<g id="shape18-9" v:mID="18" v:groupContext="shape" transform="translate(68.0048,-54.6857)">
			<title>Sheet.18</title>
			<path d="M0 185.78 L9 185.78" class="st1"/>
		</g>
		<g id="shape19-12" v:mID="19" v:groupContext="shape" transform="translate(68.0048,-77.9756)">
			<title>Sheet.19</title>
			<path d="M0 185.78 L9 185.78" class="st1"/>
		</g>
		<g id="shape20-15" v:mID="20" v:groupContext="shape" transform="translate(117.505,-77.9697)">
			<title>Sheet.20</title>
			<path d="M0 185.78 L9 185.78" class="st1"/>
		</g>
		<g id="shape21-18" v:mID="21" v:groupContext="shape" transform="translate(74.7548,-70.4357)">
			<title>Sheet.21</title>
			<desc>D</desc>
			<v:textBlock v:margins="rect(4,4,4,4)"/>
			<v:textRect cx="9" cy="179.032" width="18" height="13.5"/>
			<rect x="0" y="172.282" width="18" height="13.5" class="st2"/>
			<text x="5.39" y="182.03" class="st5" v:langID="1033"><v:paragraph v:horizAlign="1"/><v:tabList/>D</text>		</g>
		<g id="shape22-21" v:mID="22" v:groupContext="shape" transform="translate(101.755,-70.4357)">
			<title>Sheet.22</title>
			<desc>Q</desc>
			<v:textBlock v:margins="rect(4,4,4,4)"/>
			<v:textRect cx="9" cy="179.032" width="18" height="13.5"/>
			<rect x="0" y="172.282" width="18" height="13.5" class="st2"/>
			<text x="5.11" y="182.03" class="st5" v:langID="1033"><v:paragraph v:horizAlign="1"/><v:tabList/>Q</text>		</g>
		<g id="shape23-24" v:mID="23" v:groupContext="shape" transform="translate(79.2548,-47.9357)">
			<title>Sheet.23</title>
			<desc>Clk</desc>
			<v:textBlock v:margins="rect(4,4,4,4)"/>
			<v:textRect cx="14.625" cy="179.032" width="29.25" height="13.5"/>
			<rect x="0" y="172.282" width="29.25" height="13.5" class="st2"/>
			<text x="7.4" y="182.03" class="st5" v:langID="1033"><v:paragraph v:horizAlign="1"/><v:tabList/>Clk</text>		</g>
		<g id="shape24-27" v:mID="24" v:groupContext="shape" transform="translate(86.0048,-27.6857)">
			<title>Sheet.24</title>
			<desc>Rst</desc>
			<v:textBlock v:margins="rect(4,4,4,4)"/>
			<v:textRect cx="11.8125" cy="181.282" width="23.63" height="9"/>
			<rect x="0" y="176.782" width="23.625" height="9" class="st2"/>
			<text x="4.31" y="184.28" class="st5" v:langID="1033"><v:paragraph v:horizAlign="1"/><v:tabList/>Rst</text>		</g>
		<g id="shape25-30" v:mID="25" v:groupContext="shape" transform="translate(77.0048,-50.1857)">
			<title>Sheet.25</title>
			<path d="M0 185.78 L6.75 181.28 L0 176.78" class="st1"/>
		</g>
		<g id="shape26-33" v:mID="26" v:groupContext="shape" transform="translate(59.0048,-77.9756)">
			<title>Sheet.26</title>
			<path d="M0 185.78 L9 185.78" class="st1"/>
		</g>
		<g id="shape27-36" v:mID="27" v:groupContext="shape" transform="translate(68.0048,316.879) rotate(180)">
			<title>Sheet.27</title>
			<path d="M0 185.78 L9.56 185.78" class="st6"/>
		</g>
		<g id="shape28-39" v:mID="28" v:groupContext="shape" transform="translate(-88.5275,167.097) rotate(-90)">
			<title>Sheet.28</title>
			<path d="M0 185.78 L9 185.78" class="st6"/>
		</g>
		<g id="shape29-42" v:mID="29" v:groupContext="shape" transform="translate(46.0673,-64.1884)">
			<title>Sheet.29</title>
			<desc>d[0]</desc>
			<v:textBlock v:margins="rect(4,4,4,4)"/>
			<v:textRect cx="20.8125" cy="179.032" width="41.63" height="13.5"/>
			<rect x="0" y="172.282" width="41.625" height="13.5" class="st2"/>
			<text x="14.14" y="181.43" class="st3" v:langID="1033"><v:paragraph v:horizAlign="1"/><v:tabList/>d[0]</text>		</g>
		<g id="shape30-45" v:mID="30" v:groupContext="shape" transform="translate(154.349,-27.6857)">
			<title>Rectangle.139</title>
			<rect x="0" y="127.282" width="40.5" height="58.5" class="st4"/>
		</g>
		<g id="shape31-47" v:mID="31" v:groupContext="shape" transform="translate(145.349,-54.6857)">
			<title>Sheet.31</title>
			<path d="M0 185.78 L9 185.78" class="st1"/>
		</g>
		<g id="shape32-50" v:mID="32" v:groupContext="shape" transform="translate(145.349,-77.9756)">
			<title>Sheet.32</title>
			<path d="M0 185.78 L9 185.78" class="st1"/>
		</g>
		<g id="shape33-53" v:mID="33" v:groupContext="shape" transform="translate(152.099,-70.4357)">
			<title>Sheet.33</title>
			<desc>D</desc>
			<v:textBlock v:margins="rect(4,4,4,4)"/>
			<v:textRect cx="9" cy="179.032" width="18" height="13.5"/>
			<rect x="0" y="172.282" width="18" height="13.5" class="st2"/>
			<text x="5.39" y="182.03" class="st5" v:langID="1033"><v:paragraph v:horizAlign="1"/><v:tabList/>D</text>		</g>
		<g id="shape34-56" v:mID="34" v:groupContext="shape" transform="translate(179.099,-70.4357)">
			<title>Sheet.34</title>
			<desc>Q</desc>
			<v:textBlock v:margins="rect(4,4,4,4)"/>
			<v:textRect cx="9" cy="179.032" width="18" height="13.5"/>
			<rect x="0" y="172.282" width="18" height="13.5" class="st2"/>
			<text x="5.11" y="182.03" class="st5" v:langID="1033"><v:paragraph v:horizAlign="1"/><v:tabList/>Q</text>		</g>
		<g id="shape35-59" v:mID="35" v:groupContext="shape" transform="translate(156.599,-47.9357)">
			<title>Sheet.35</title>
			<desc>Clk</desc>
			<v:textBlock v:margins="rect(4,4,4,4)"/>
			<v:textRect cx="14.625" cy="179.032" width="29.25" height="13.5"/>
			<rect x="0" y="172.282" width="29.25" height="13.5" class="st2"/>
			<text x="7.4" y="182.03" class="st5" v:langID="1033"><v:paragraph v:horizAlign="1"/><v:tabList/>Clk</text>		</g>
		<g id="shape36-62" v:mID="36" v:groupContext="shape" transform="translate(163.349,-27.6857)">
			<title>Sheet.36</title>
			<desc>Rst</desc>
			<v:textBlock v:margins="rect(4,4,4,4)"/>
			<v:textRect cx="11.8125" cy="181.282" width="23.63" height="9"/>
			<rect x="0" y="176.782" width="23.625" height="9" class="st2"/>
			<text x="4.31" y="184.28" class="st5" v:langID="1033"><v:paragraph v:horizAlign="1"/><v:tabList/>Rst</text>		</g>
		<g id="shape37-65" v:mID="37" v:groupContext="shape" transform="translate(154.349,-50.1857)">
			<title>Sheet.37</title>
			<path d="M0 185.78 L6.75 181.28 L0 176.78" class="st1"/>
		</g>
		<g id="shape38-68" v:mID="38" v:groupContext="shape" transform="translate(136.349,-77.9756)">
			<title>Sheet.38</title>
			<path d="M0 185.78 L9 185.78" class="st1"/>
		</g>
		<g id="shape39-71" v:mID="39" v:groupContext="shape" transform="translate(145.349,316.879) rotate(180)">
			<title>Sheet.39</title>
			<path d="M0 185.78 L9.56 185.78" class="st6"/>
		</g>
		<g id="shape40-74" v:mID="40" v:groupContext="shape" transform="translate(-11.1837,167.097) rotate(-90)">
			<title>Sheet.40</title>
			<path d="M0 185.78 L9 185.78" class="st6"/>
		</g>
		<g id="shape41-77" v:mID="41" v:groupContext="shape" transform="translate(123.411,-64.1884)">
			<title>Sheet.41</title>
			<desc>d[1]</desc>
			<v:textBlock v:margins="rect(4,4,4,4)"/>
			<v:textRect cx="20.8125" cy="179.032" width="41.63" height="13.5"/>
			<rect x="0" y="172.282" width="41.625" height="13.5" class="st2"/>
			<text x="14.14" y="181.43" class="st3" v:langID="1033"><v:paragraph v:horizAlign="1"/><v:tabList/>d[1]</text>		</g>
		<g id="shape42-80" v:mID="42" v:groupContext="shape" transform="translate(273.739,-28.1884)">
			<title>Rectangle.209</title>
			<rect x="0" y="127.282" width="40.5" height="58.5" class="st4"/>
		</g>
		<g id="shape43-82" v:mID="43" v:groupContext="shape" transform="translate(264.739,-55.1884)">
			<title>Sheet.43</title>
			<path d="M0 185.78 L9 185.78" class="st1"/>
		</g>
		<g id="shape44-85" v:mID="44" v:groupContext="shape" transform="translate(264.739,-78.4783)">
			<title>Sheet.44</title>
			<path d="M0 185.78 L9 185.78" class="st1"/>
		</g>
		<g id="shape45-88" v:mID="45" v:groupContext="shape" transform="translate(314.239,-78.4724)">
			<title>Sheet.45</title>
			<path d="M0 185.78 L9 185.78" class="st1"/>
		</g>
		<g id="shape46-91" v:mID="46" v:groupContext="shape" transform="translate(271.489,-70.9384)">
			<title>Sheet.46</title>
			<desc>D</desc>
			<v:textBlock v:margins="rect(4,4,4,4)"/>
			<v:textRect cx="9" cy="179.032" width="18" height="13.5"/>
			<rect x="0" y="172.282" width="18" height="13.5" class="st2"/>
			<text x="5.39" y="182.03" class="st5" v:langID="1033"><v:paragraph v:horizAlign="1"/><v:tabList/>D</text>		</g>
		<g id="shape47-94" v:mID="47" v:groupContext="shape" transform="translate(298.489,-70.9384)">
			<title>Sheet.47</title>
			<desc>Q</desc>
			<v:textBlock v:margins="rect(4,4,4,4)"/>
			<v:textRect cx="9" cy="179.032" width="18" height="13.5"/>
			<rect x="0" y="172.282" width="18" height="13.5" class="st2"/>
			<text x="5.11" y="182.03" class="st5" v:langID="1033"><v:paragraph v:horizAlign="1"/><v:tabList/>Q</text>		</g>
		<g id="shape48-97" v:mID="48" v:groupContext="shape" transform="translate(275.989,-48.4384)">
			<title>Sheet.48</title>
			<desc>Clk</desc>
			<v:textBlock v:margins="rect(4,4,4,4)"/>
			<v:textRect cx="14.625" cy="179.032" width="29.25" height="13.5"/>
			<rect x="0" y="172.282" width="29.25" height="13.5" class="st2"/>
			<text x="7.4" y="182.03" class="st5" v:langID="1033"><v:paragraph v:horizAlign="1"/><v:tabList/>Clk</text>		</g>
		<g id="shape49-100" v:mID="49" v:groupContext="shape" transform="translate(282.739,-28.1884)">
			<title>Sheet.49</title>
			<desc>Rst</desc>
			<v:textBlock v:margins="rect(4,4,4,4)"/>
			<v:textRect cx="11.8125" cy="181.282" width="23.63" height="9"/>
			<rect x="0" y="176.782" width="23.625" height="9" class="st2"/>
			<text x="4.31" y="184.28" class="st5" v:langID="1033"><v:paragraph v:horizAlign="1"/><v:tabList/>Rst</text>		</g>
		<g id="shape50-103" v:mID="50" v:groupContext="shape" transform="translate(273.739,-50.6884)">
			<title>Sheet.50</title>
			<path d="M0 185.78 L6.75 181.28 L0 176.78" class="st1"/>
		</g>
		<g id="shape51-106" v:mID="51" v:groupContext="shape" transform="translate(255.739,-78.4783)">
			<title>Sheet.51</title>
			<path d="M0 185.78 L9 185.78" class="st1"/>
		</g>
		<g id="shape52-109" v:mID="52" v:groupContext="shape" transform="translate(264.739,316.376) rotate(180)">
			<title>Sheet.52</title>
			<path d="M0 185.78 L9.56 185.78" class="st6"/>
		</g>
		<g id="shape53-112" v:mID="53" v:groupContext="shape" transform="translate(108.207,166.594) rotate(-90)">
			<title>Sheet.53</title>
			<path d="M0 185.78 L9 185.78" class="st6"/>
		</g>
		<g id="shape54-115" v:mID="54" v:groupContext="shape" transform="translate(242.802,-64.6911)">
			<title>Sheet.54</title>
			<desc>d[6]</desc>
			<v:textBlock v:margins="rect(4,4,4,4)"/>
			<v:textRect cx="20.8125" cy="179.032" width="41.63" height="13.5"/>
			<rect x="0" y="172.282" width="41.625" height="13.5" class="st2"/>
			<text x="14.14" y="181.43" class="st3" v:langID="1033"><v:paragraph v:horizAlign="1"/><v:tabList/>d[6]</text>		</g>
		<g id="shape55-118" v:mID="55" v:groupContext="shape" transform="translate(351.083,-28.1884)">
			<title>Rectangle.223</title>
			<rect x="0" y="127.282" width="40.5" height="58.5" class="st4"/>
		</g>
		<g id="shape56-120" v:mID="56" v:groupContext="shape" transform="translate(342.083,-55.1884)">
			<title>Sheet.56</title>
			<path d="M0 185.78 L9 185.78" class="st1"/>
		</g>
		<g id="shape57-123" v:mID="57" v:groupContext="shape" transform="translate(342.083,-78.4783)">
			<title>Sheet.57</title>
			<path d="M0 185.78 L9 185.78" class="st1"/>
		</g>
		<g id="shape58-126" v:mID="58" v:groupContext="shape" transform="translate(391.583,-78.4724)">
			<title>Sheet.58</title>
			<path d="M0 185.78 L7.03 185.78" class="st1"/>
		</g>
		<g id="shape59-129" v:mID="59" v:groupContext="shape" transform="translate(348.833,-70.9384)">
			<title>Sheet.59</title>
			<desc>D</desc>
			<v:textBlock v:margins="rect(4,4,4,4)"/>
			<v:textRect cx="9" cy="179.032" width="18" height="13.5"/>
			<rect x="0" y="172.282" width="18" height="13.5" class="st2"/>
			<text x="5.39" y="182.03" class="st5" v:langID="1033"><v:paragraph v:horizAlign="1"/><v:tabList/>D</text>		</g>
		<g id="shape60-132" v:mID="60" v:groupContext="shape" transform="translate(375.833,-70.9384)">
			<title>Sheet.60</title>
			<desc>Q</desc>
			<v:textBlock v:margins="rect(4,4,4,4)"/>
			<v:textRect cx="9" cy="179.032" width="18" height="13.5"/>
			<rect x="0" y="172.282" width="18" height="13.5" class="st2"/>
			<text x="5.11" y="182.03" class="st5" v:langID="1033"><v:paragraph v:horizAlign="1"/><v:tabList/>Q</text>		</g>
		<g id="shape61-135" v:mID="61" v:groupContext="shape" transform="translate(353.333,-48.4384)">
			<title>Sheet.61</title>
			<desc>Clk</desc>
			<v:textBlock v:margins="rect(4,4,4,4)"/>
			<v:textRect cx="14.625" cy="179.032" width="29.25" height="13.5"/>
			<rect x="0" y="172.282" width="29.25" height="13.5" class="st2"/>
			<text x="7.4" y="182.03" class="st5" v:langID="1033"><v:paragraph v:horizAlign="1"/><v:tabList/>Clk</text>		</g>
		<g id="shape62-138" v:mID="62" v:groupContext="shape" transform="translate(360.083,-28.1884)">
			<title>Sheet.62</title>
			<desc>Rst</desc>
			<v:textBlock v:margins="rect(4,4,4,4)"/>
			<v:textRect cx="11.8125" cy="181.282" width="23.63" height="9"/>
			<rect x="0" y="176.782" width="23.625" height="9" class="st2"/>
			<text x="4.31" y="184.28" class="st5" v:langID="1033"><v:paragraph v:horizAlign="1"/><v:tabList/>Rst</text>		</g>
		<g id="shape63-141" v:mID="63" v:groupContext="shape" transform="translate(351.083,-50.6884)">
			<title>Sheet.63</title>
			<path d="M0 185.78 L6.75 181.28 L0 176.78" class="st1"/>
		</g>
		<g id="shape64-144" v:mID="64" v:groupContext="shape" transform="translate(333.083,-78.4783)">
			<title>Sheet.64</title>
			<path d="M0 185.78 L9 185.78" class="st1"/>
		</g>
		<g id="shape65-147" v:mID="65" v:groupContext="shape" transform="translate(342.083,316.376) rotate(180)">
			<title>Sheet.65</title>
			<path d="M0 185.78 L9.56 185.78" class="st6"/>
		</g>
		<g id="shape66-150" v:mID="66" v:groupContext="shape" transform="translate(185.551,166.594) rotate(-90)">
			<title>Sheet.66</title>
			<path d="M0 185.78 L9 185.78" class="st6"/>
		</g>
		<g id="shape67-153" v:mID="67" v:groupContext="shape" transform="translate(320.145,-64.6911)">
			<title>Sheet.67</title>
			<desc>d[7]</desc>
			<v:textBlock v:margins="rect(4,4,4,4)"/>
			<v:textRect cx="20.8125" cy="179.032" width="41.63" height="13.5"/>
			<rect x="0" y="172.282" width="41.625" height="13.5" class="st2"/>
			<text x="14.14" y="181.43" class="st3" v:langID="1033"><v:paragraph v:horizAlign="1"/><v:tabList/>d[7]</text>		</g>
		<g id="shape68-156" v:mID="68" v:groupContext="shape" transform="translate(126.392,-77.9696) rotate(-0.0346663)">
			<title>Sheet.68</title>
			<path d="M0 185.78 L9.84 185.78" class="st6"/>
		</g>
		<g id="shape69-159" v:mID="69" v:groupContext="shape" transform="translate(323.127,-78.4724) rotate(-0.0346663)">
			<title>Sheet.69</title>
			<path d="M0 185.78 L9.84 185.78" class="st6"/>
		</g>
		<g id="shape70-162" v:mID="70" v:groupContext="shape" transform="translate(194.985,-78.5415)">
			<title>Sheet.70</title>
			<path d="M0 185.78 L9 185.78" class="st1"/>
		</g>
		<g id="shape75-165" v:mID="75" v:groupContext="shape" transform="translate(204.212,-78.5414) rotate(0.0699656)">
			<title>Sheet.75</title>
			<path d="M0 185.78 L51.75 185.78" class="st7"/>
		</g>
		<g id="shape76-168" v:mID="76" v:groupContext="shape" transform="translate(59.0048,-77.9756)">
			<title>Sheet.76</title>
			<path d="M0 185.78 L0 159.9 L339.61 159.9 L339.61 185.29" class="st6"/>
		</g>
		<g id="group97-171" transform="translate(121.86,-120.249)" v:mID="97" v:groupContext="group">
			<title>Sheet.97</title>
			<g id="group77-172" transform="translate(185.782,127.815) rotate(90)" v:mID="77" v:groupContext="group">
				<title>Sheet.77</title>
				<g id="shape78-173" v:mID="78" v:groupContext="shape" transform="translate(195.896,172.097) rotate(90)">
					<title>Sheet.78</title>
					<path d="M0 185.78 L13.69 185.78" class="st1"/>
				</g>
				<g id="group79-176" transform="translate(13.9361,351.252) rotate(180)" v:mID="79" v:groupContext="group">
					<title>Sheet.79</title>
					<g id="shape80-177" v:mID="80" v:groupContext="shape" transform="translate(-40.2364,1.2353) rotate(-12.7761)">
						<title>Sheet.80</title>
						<path d="M0 185.78 L2.17 185.78" class="st1"/>
					</g>
					<g id="shape81-180" v:mID="81" v:groupContext="shape" transform="translate(44.8285,4.59577) rotate(13.4248)">
						<title>Sheet.81</title>
						<path d="M0 185.78 L2.07 185.78" class="st1"/>
					</g>
					<g id="shape82-183" v:mID="82" v:groupContext="shape" transform="translate(-181.967,185.782) rotate(-90)">
						<title>Sheet.82</title>
						<path d="M0 185.78 L2.4 185.78" class="st1"/>
					</g>
					<g id="shape83-186" v:mID="83" v:groupContext="shape" transform="translate(140.178,59.5276) rotate(48.5876)">
						<title>Sheet.83</title>
						<path d="M0 185.78 L4.49 185.78" class="st1"/>
					</g>
					<g id="shape84-189" v:mID="84" v:groupContext="shape" transform="translate(139.331,55.6826) rotate(48.5876)">
						<title>Sheet.84</title>
						<path d="M0 185.78 L4.49 185.78" class="st1"/>
					</g>
				</g>
				<g id="shape85-192" v:mID="85" v:groupContext="shape" transform="translate(9.25702,364.8) rotate(-179.717)">
					<title>Sheet.85</title>
					<path d="M0 185.78 L10.17 185.78" class="st1"/>
				</g>
				<g id="shape86-195" v:mID="86" v:groupContext="shape" transform="translate(34.875,364.802) rotate(180)">
					<title>Sheet.86</title>
					<path d="M0 185.78 L13.21 185.78" class="st1"/>
				</g>
				<g id="shape87-198" v:mID="87" v:groupContext="shape" transform="translate(-164.116,185.058) rotate(-90)">
					<title>Triangle</title>
					<path d="M13.36 185.78 L6.2 173.87 L-0.96 185.78 L13.36 185.78 Z" class="st8"/>
				</g>
			</g>
			<g id="shape91-200" v:mID="91" v:groupContext="shape" transform="translate(-174.47,185.782) rotate(-90)">
				<title>Sheet.91</title>
				<path d="M0 181.34 L1.92 176.78 L5.64 185.78 L9.36 176.78 L13.2 185.78 L16.92 176.78 L20.64 185.78 L22.56 181.34"
						class="st9"/>
			</g>
			<g id="group96-203" transform="translate(2.3125,306.391) scale(1,-1)" v:mID="96" v:groupContext="group">
				<title>Sheet.96</title>
				<g id="shape88-204" v:mID="88" v:groupContext="shape" transform="translate(0,-7.20662)">
					<title>Sheet.88</title>
					<path d="M9.67 185.78 L0 185.78" class="st10"/>
				</g>
				<g id="shape89-207" v:mID="89" v:groupContext="shape">
					<title>Sheet.89</title>
					<path d="M4.83 185.78 L0 178.58" class="st10"/>
				</g>
				<g id="shape90-210" v:mID="90" v:groupContext="shape" transform="translate(4.83355,2.84217E-014)">
					<title>Sheet.90</title>
					<path d="M4.83 178.58 L0 185.78" class="st10"/>
				</g>
			</g>
		</g>
		<g id="group98-213" transform="translate(59.0048,-119.686)" v:mID="98" v:groupContext="group">
			<title>Sheet.98</title>
			<g id="group99-214" transform="translate(185.782,127.815) rotate(90)" v:mID="99" v:groupContext="group">
				<title>Sheet.99</title>
				<g id="shape100-215" v:mID="100" v:groupContext="shape" transform="translate(195.896,172.097) rotate(90)">
					<title>Sheet.100</title>
					<path d="M0 185.78 L13.69 185.78" class="st1"/>
				</g>
				<g id="group101-218" transform="translate(13.9361,351.252) rotate(180)" v:mID="101" v:groupContext="group">
					<title>Sheet.101</title>
					<g id="shape102-219" v:mID="102" v:groupContext="shape" transform="translate(-40.2364,1.2353) rotate(-12.7761)">
						<title>Sheet.102</title>
						<path d="M0 185.78 L2.17 185.78" class="st1"/>
					</g>
					<g id="shape103-222" v:mID="103" v:groupContext="shape" transform="translate(44.8285,4.59577) rotate(13.4248)">
						<title>Sheet.103</title>
						<path d="M0 185.78 L2.07 185.78" class="st1"/>
					</g>
					<g id="shape104-225" v:mID="104" v:groupContext="shape" transform="translate(-181.967,185.782) rotate(-90)">
						<title>Sheet.104</title>
						<path d="M0 185.78 L2.4 185.78" class="st1"/>
					</g>
					<g id="shape105-228" v:mID="105" v:groupContext="shape" transform="translate(140.178,59.5276) rotate(48.5876)">
						<title>Sheet.105</title>
						<path d="M0 185.78 L4.49 185.78" class="st1"/>
					</g>
					<g id="shape106-231" v:mID="106" v:groupContext="shape" transform="translate(139.331,55.6826) rotate(48.5876)">
						<title>Sheet.106</title>
						<path d="M0 185.78 L4.49 185.78" class="st1"/>
					</g>
				</g>
				<g id="shape107-234" v:mID="107" v:groupContext="shape" transform="translate(9.25702,364.8) rotate(-179.717)">
					<title>Sheet.107</title>
					<path d="M0 185.78 L10.17 185.78" class="st1"/>
				</g>
				<g id="shape108-237" v:mID="108" v:groupContext="shape" transform="translate(34.875,364.802) rotate(180)">
					<title>Sheet.108</title>
					<path d="M0 185.78 L13.21 185.78" class="st1"/>
				</g>
				<g id="shape109-240" v:mID="109" v:groupContext="shape" transform="translate(-164.116,185.058) rotate(-90)">
					<title>Triangle</title>
					<path d="M13.36 185.78 L6.2 173.87 L-0.96 185.78 L13.36 185.78 Z" class="st8"/>
				</g>
			</g>
			<g id="shape110-242" v:mID="110" v:groupContext="shape" transform="translate(-174.47,185.782) rotate(-90)">
				<title>Sheet.110</title>
				<path d="M0 181.34 L1.92 176.78 L5.64 185.78 L9.36 176.78 L13.2 185.78 L16.92 176.78 L20.64 185.78 L22.56 181.34"
						class="st9"/>
			</g>
			<g id="group111-245" transform="translate(2.3125,306.391) scale(1,-1)" v:mID="111" v:groupContext="group">
				<title>Sheet.111</title>
				<g id="shape112-246" v:mID="112" v:groupContext="shape" transform="translate(0,-7.20662)">
					<title>Sheet.112</title>
					<path d="M9.67 185.78 L0 185.78" class="st10"/>
				</g>
				<g id="shape113-249" v:mID="113" v:groupContext="shape">
					<title>Sheet.113</title>
					<path d="M4.83 185.78 L0 178.58" class="st10"/>
				</g>
				<g id="shape114-252" v:mID="114" v:groupContext="shape" transform="translate(4.83355,2.84217E-014)">
					<title>Sheet.114</title>
					<path d="M4.83 178.58 L0 185.78" class="st10"/>
				</g>
			</g>
		</g>
		<g id="group115-255" transform="translate(193.797,-120.249)" v:mID="115" v:groupContext="group">
			<title>Sheet.115</title>
			<g id="group116-256" transform="translate(185.782,127.815) rotate(90)" v:mID="116" v:groupContext="group">
				<title>Sheet.116</title>
				<g id="shape117-257" v:mID="117" v:groupContext="shape" transform="translate(195.896,172.097) rotate(90)">
					<title>Sheet.117</title>
					<path d="M0 185.78 L13.69 185.78" class="st1"/>
				</g>
				<g id="group118-260" transform="translate(13.9361,351.252) rotate(180)" v:mID="118" v:groupContext="group">
					<title>Sheet.118</title>
					<g id="shape119-261" v:mID="119" v:groupContext="shape" transform="translate(-40.2364,1.2353) rotate(-12.7761)">
						<title>Sheet.119</title>
						<path d="M0 185.78 L2.17 185.78" class="st1"/>
					</g>
					<g id="shape120-264" v:mID="120" v:groupContext="shape" transform="translate(44.8285,4.59577) rotate(13.4248)">
						<title>Sheet.120</title>
						<path d="M0 185.78 L2.07 185.78" class="st1"/>
					</g>
					<g id="shape121-267" v:mID="121" v:groupContext="shape" transform="translate(-181.967,185.782) rotate(-90)">
						<title>Sheet.121</title>
						<path d="M0 185.78 L2.4 185.78" class="st1"/>
					</g>
					<g id="shape122-270" v:mID="122" v:groupContext="shape" transform="translate(140.178,59.5276) rotate(48.5876)">
						<title>Sheet.122</title>
						<path d="M0 185.78 L4.49 185.78" class="st1"/>
					</g>
					<g id="shape123-273" v:mID="123" v:groupContext="shape" transform="translate(139.331,55.6826) rotate(48.5876)">
						<title>Sheet.123</title>
						<path d="M0 185.78 L4.49 185.78" class="st1"/>
					</g>
				</g>
				<g id="shape124-276" v:mID="124" v:groupContext="shape" transform="translate(9.25702,364.8) rotate(-179.717)">
					<title>Sheet.124</title>
					<path d="M0 185.78 L10.17 185.78" class="st1"/>
				</g>
				<g id="shape125-279" v:mID="125" v:groupContext="shape" transform="translate(34.875,364.802) rotate(180)">
					<title>Sheet.125</title>
					<path d="M0 185.78 L13.21 185.78" class="st1"/>
				</g>
				<g id="shape126-282" v:mID="126" v:groupContext="shape" transform="translate(-164.116,185.058) rotate(-90)">
					<title>Triangle</title>
					<path d="M13.36 185.78 L6.2 173.87 L-0.96 185.78 L13.36 185.78 Z" class="st8"/>
				</g>
			</g>
			<g id="shape127-284" v:mID="127" v:groupContext="shape" transform="translate(-174.47,185.782) rotate(-90)">
				<title>Sheet.127</title>
				<path d="M0 181.34 L1.92 176.78 L5.64 185.78 L9.36 176.78 L13.2 185.78 L16.92 176.78 L20.64 185.78 L22.56 181.34"
						class="st9"/>
			</g>
			<g id="group128-287" transform="translate(2.3125,306.391) scale(1,-1)" v:mID="128" v:groupContext="group">
				<title>Sheet.128</title>
				<g id="shape129-288" v:mID="129" v:groupContext="shape" transform="translate(0,-7.20662)">
					<title>Sheet.129</title>
					<path d="M9.67 185.78 L0 185.78" class="st10"/>
				</g>
				<g id="shape130-291" v:mID="130" v:groupContext="shape">
					<title>Sheet.130</title>
					<path d="M4.83 185.78 L0 178.58" class="st10"/>
				</g>
				<g id="shape131-294" v:mID="131" v:groupContext="shape" transform="translate(4.83355,2.84217E-014)">
					<title>Sheet.131</title>
					<path d="M4.83 178.58 L0 185.78" class="st10"/>
				</g>
			</g>
		</g>
		<g id="group132-297" transform="translate(256.797,-120.249)" v:mID="132" v:groupContext="group">
			<title>Sheet.132</title>
			<g id="group133-298" transform="translate(185.782,127.815) rotate(90)" v:mID="133" v:groupContext="group">
				<title>Sheet.133</title>
				<g id="shape134-299" v:mID="134" v:groupContext="shape" transform="translate(195.896,172.097) rotate(90)">
					<title>Sheet.134</title>
					<path d="M0 185.78 L13.69 185.78" class="st1"/>
				</g>
				<g id="group135-302" transform="translate(13.9361,351.252) rotate(180)" v:mID="135" v:groupContext="group">
					<title>Sheet.135</title>
					<g id="shape136-303" v:mID="136" v:groupContext="shape" transform="translate(-40.2364,1.2353) rotate(-12.7761)">
						<title>Sheet.136</title>
						<path d="M0 185.78 L2.17 185.78" class="st1"/>
					</g>
					<g id="shape137-306" v:mID="137" v:groupContext="shape" transform="translate(44.8285,4.59577) rotate(13.4248)">
						<title>Sheet.137</title>
						<path d="M0 185.78 L2.07 185.78" class="st1"/>
					</g>
					<g id="shape138-309" v:mID="138" v:groupContext="shape" transform="translate(-181.967,185.782) rotate(-90)">
						<title>Sheet.138</title>
						<path d="M0 185.78 L2.4 185.78" class="st1"/>
					</g>
					<g id="shape139-312" v:mID="139" v:groupContext="shape" transform="translate(140.178,59.5276) rotate(48.5876)">
						<title>Sheet.139</title>
						<path d="M0 185.78 L4.49 185.78" class="st1"/>
					</g>
					<g id="shape140-315" v:mID="140" v:groupContext="shape" transform="translate(139.331,55.6826) rotate(48.5876)">
						<title>Sheet.140</title>
						<path d="M0 185.78 L4.49 185.78" class="st1"/>
					</g>
				</g>
				<g id="shape141-318" v:mID="141" v:groupContext="shape" transform="translate(9.25702,364.8) rotate(-179.717)">
					<title>Sheet.141</title>
					<path d="M0 185.78 L10.17 185.78" class="st1"/>
				</g>
				<g id="shape142-321" v:mID="142" v:groupContext="shape" transform="translate(34.875,364.802) rotate(180)">
					<title>Sheet.142</title>
					<path d="M0 185.78 L13.21 185.78" class="st1"/>
				</g>
				<g id="shape143-324" v:mID="143" v:groupContext="shape" transform="translate(-164.116,185.058) rotate(-90)">
					<title>Triangle</title>
					<path d="M13.36 185.78 L6.2 173.87 L-0.96 185.78 L13.36 185.78 Z" class="st8"/>
				</g>
			</g>
			<g id="shape144-326" v:mID="144" v:groupContext="shape" transform="translate(-174.47,185.782) rotate(-90)">
				<title>Sheet.144</title>
				<path d="M0 181.34 L1.92 176.78 L5.64 185.78 L9.36 176.78 L13.2 185.78 L16.92 176.78 L20.64 185.78 L22.56 181.34"
						class="st9"/>
			</g>
			<g id="group145-329" transform="translate(2.3125,306.391) scale(1,-1)" v:mID="145" v:groupContext="group">
				<title>Sheet.145</title>
				<g id="shape146-330" v:mID="146" v:groupContext="shape" transform="translate(0,-7.20662)">
					<title>Sheet.146</title>
					<path d="M9.67 185.78 L0 185.78" class="st10"/>
				</g>
				<g id="shape147-333" v:mID="147" v:groupContext="shape">
					<title>Sheet.147</title>
					<path d="M4.83 185.78 L0 178.58" class="st10"/>
				</g>
				<g id="shape148-336" v:mID="148" v:groupContext="shape" transform="translate(4.83355,2.84217E-014)">
					<title>Sheet.148</title>
					<path d="M4.83 178.58 L0 185.78" class="st10"/>
				</g>
			</g>
		</g>
		<g id="group149-339" transform="translate(319.829,-120.249)" v:mID="149" v:groupContext="group">
			<title>Sheet.149</title>
			<g id="group150-340" transform="translate(185.782,127.815) rotate(90)" v:mID="150" v:groupContext="group">
				<title>Sheet.150</title>
				<g id="shape151-341" v:mID="151" v:groupContext="shape" transform="translate(195.896,172.097) rotate(90)">
					<title>Sheet.151</title>
					<path d="M0 185.78 L13.69 185.78" class="st1"/>
				</g>
				<g id="group152-344" transform="translate(13.9361,351.252) rotate(180)" v:mID="152" v:groupContext="group">
					<title>Sheet.152</title>
					<g id="shape153-345" v:mID="153" v:groupContext="shape" transform="translate(-40.2364,1.2353) rotate(-12.7761)">
						<title>Sheet.153</title>
						<path d="M0 185.78 L2.17 185.78" class="st1"/>
					</g>
					<g id="shape154-348" v:mID="154" v:groupContext="shape" transform="translate(44.8285,4.59577) rotate(13.4248)">
						<title>Sheet.154</title>
						<path d="M0 185.78 L2.07 185.78" class="st1"/>
					</g>
					<g id="shape155-351" v:mID="155" v:groupContext="shape" transform="translate(-181.967,185.782) rotate(-90)">
						<title>Sheet.155</title>
						<path d="M0 185.78 L2.4 185.78" class="st1"/>
					</g>
					<g id="shape156-354" v:mID="156" v:groupContext="shape" transform="translate(140.178,59.5276) rotate(48.5876)">
						<title>Sheet.156</title>
						<path d="M0 185.78 L4.49 185.78" class="st1"/>
					</g>
					<g id="shape157-357" v:mID="157" v:groupContext="shape" transform="translate(139.331,55.6826) rotate(48.5876)">
						<title>Sheet.157</title>
						<path d="M0 185.78 L4.49 185.78" class="st1"/>
					</g>
				</g>
				<g id="shape158-360" v:mID="158" v:groupContext="shape" transform="translate(9.25702,364.8) rotate(-179.717)">
					<title>Sheet.158</title>
					<path d="M0 185.78 L10.17 185.78" class="st1"/>
				</g>
				<g id="shape159-363" v:mID="159" v:groupContext="shape" transform="translate(34.875,364.802) rotate(180)">
					<title>Sheet.159</title>
					<path d="M0 185.78 L13.21 185.78" class="st1"/>
				</g>
				<g id="shape160-366" v:mID="160" v:groupContext="shape" transform="translate(-164.116,185.058) rotate(-90)">
					<title>Triangle</title>
					<path d="M13.36 185.78 L6.2 173.87 L-0.96 185.78 L13.36 185.78 Z" class="st8"/>
				</g>
			</g>
			<g id="shape161-368" v:mID="161" v:groupContext="shape" transform="translate(-174.47,185.782) rotate(-90)">
				<title>Sheet.161</title>
				<path d="M0 181.34 L1.92 176.78 L5.64 185.78 L9.36 176.78 L13.2 185.78 L16.92 176.78 L20.64 185.78 L22.56 181.34"
						class="st9"/>
			</g>
			<g id="group162-371" transform="translate(2.3125,306.391) scale(1,-1)" v:mID="162" v:groupContext="group">
				<title>Sheet.162</title>
				<g id="shape163-372" v:mID="163" v:groupContext="shape" transform="translate(0,-7.20662)">
					<title>Sheet.163</title>
					<path d="M9.67 185.78 L0 185.78" class="st10"/>
				</g>
				<g id="shape164-375" v:mID="164" v:groupContext="shape">
					<title>Sheet.164</title>
					<path d="M4.83 185.78 L0 178.58" class="st10"/>
				</g>
				<g id="shape165-378" v:mID="165" v:groupContext="shape" transform="translate(4.83355,2.84217E-014)">
					<title>Sheet.165</title>
					<path d="M4.83 178.58 L0 185.78" class="st10"/>
				</g>
			</g>
		</g>
		<g id="shape166-381" v:mID="166" v:groupContext="shape" transform="translate(223.337,-142.11) rotate(0.0699656)">
			<title>Sheet.166</title>
			<path d="M0 185.78 L17.41 185.78" class="st7"/>
		</g>
		<g id="shape167-384" v:mID="167" v:groupContext="shape" transform="translate(251.659,66.0961) rotate(90)">
			<title>Sheet.167</title>
			<path d="M0 185.78 L42 185.78" class="st6"/>
		</g>
		<g id="shape168-387" v:mID="168" v:groupContext="shape" transform="translate(314.515,65.5336) rotate(90)">
			<title>Sheet.168</title>
			<path d="M0 185.78 L42 185.78" class="st6"/>
		</g>
		<g id="shape169-390" v:mID="169" v:groupContext="shape" transform="translate(386.452,65.5336) rotate(90)">
			<title>Sheet.169</title>
			<path d="M0 185.78 L42 185.78" class="st6"/>
		</g>
		<g id="shape170-393" v:mID="170" v:groupContext="shape" transform="translate(449.452,65.5336) rotate(90)">
			<title>Sheet.170</title>
			<path d="M0 185.78 L42 185.78" class="st6"/>
		</g>
		<g id="shape171-396" v:mID="171" v:groupContext="shape" transform="translate(512.483,65.5336) rotate(90)">
			<title>Sheet.171</title>
			<path d="M0 185.78 L42 185.78" class="st6"/>
		</g>
		<g id="shape172-399" v:mID="172" v:groupContext="shape" transform="translate(182.61,-65.61)">
			<title>Sheet.172</title>
			<desc>d[2]</desc>
			<v:textBlock v:margins="rect(4,4,4,4)"/>
			<v:textRect cx="20.8125" cy="179.032" width="41.63" height="13.5"/>
			<rect x="0" y="172.282" width="41.625" height="13.5" class="st2"/>
			<text x="14.14" y="181.43" class="st3" v:langID="1033"><v:paragraph v:horizAlign="1"/><v:tabList/>d[2]</text>		</g>
		<g id="shape173-402" v:mID="173" v:groupContext="shape" transform="translate(64.485,-151.11)">
			<title>Sheet.173</title>
			<desc>led[0]</desc>
			<v:textBlock v:margins="rect(4,4,4,4)"/>
			<v:textRect cx="20.8125" cy="179.032" width="41.63" height="13.5"/>
			<rect x="0" y="172.282" width="41.625" height="13.5" class="st2"/>
			<text x="11.03" y="181.43" class="st3" v:langID="1033"><v:paragraph v:horizAlign="1"/><v:tabList/>led[0]</text>		</g>
		<g id="shape174-405" v:mID="174" v:groupContext="shape" transform="translate(127.485,-151.11)">
			<title>Sheet.174</title>
			<desc>led[1]</desc>
			<v:textBlock v:margins="rect(4,4,4,4)"/>
			<v:textRect cx="20.8125" cy="179.032" width="41.63" height="13.5"/>
			<rect x="0" y="172.282" width="41.625" height="13.5" class="st2"/>
			<text x="11.03" y="181.43" class="st3" v:langID="1033"><v:paragraph v:horizAlign="1"/><v:tabList/>led[1]</text>		</g>
		<g id="shape175-408" v:mID="175" v:groupContext="shape" transform="translate(262.344,-151.11)">
			<title>Sheet.175</title>
			<desc>led[6]</desc>
			<v:textBlock v:margins="rect(4,4,4,4)"/>
			<v:textRect cx="20.8125" cy="179.032" width="41.63" height="13.5"/>
			<rect x="0" y="172.282" width="41.625" height="13.5" class="st2"/>
			<text x="11.03" y="181.43" class="st3" v:langID="1033"><v:paragraph v:horizAlign="1"/><v:tabList/>led[6]</text>		</g>
		<g id="shape176-411" v:mID="176" v:groupContext="shape" transform="translate(325.485,-151.11)">
			<title>Sheet.176</title>
			<desc>led[7]</desc>
			<v:textBlock v:margins="rect(4,4,4,4)"/>
			<v:textRect cx="20.8125" cy="179.032" width="41.63" height="13.5"/>
			<rect x="0" y="172.282" width="41.625" height="13.5" class="st2"/>
			<text x="11.03" y="181.43" class="st3" v:langID="1033"><v:paragraph v:horizAlign="1"/><v:tabList/>led[7]</text>		</g>
		<g id="shape177-414" v:mID="177" v:groupContext="shape" transform="translate(199.485,-151.11)">
			<title>Sheet.177</title>
			<desc>led[2]</desc>
			<v:textBlock v:margins="rect(4,4,4,4)"/>
			<v:textRect cx="20.8125" cy="179.032" width="41.63" height="13.5"/>
			<rect x="0" y="172.282" width="41.625" height="13.5" class="st2"/>
			<text x="11.03" y="181.43" class="st3" v:langID="1033"><v:paragraph v:horizAlign="1"/><v:tabList/>led[2]</text>		</g>
		<g id="shape178-417" v:mID="178" v:groupContext="shape" transform="translate(68.0048,352.879) rotate(180)">
			<title>Sheet.178</title>
			<path d="M0 185.78 L33.89 185.78" class="st6"/>
		</g>
		<g id="shape179-420" v:mID="179" v:groupContext="shape" transform="translate(244.224,131.097) rotate(90)">
			<title>Sheet.179</title>
			<path d="M0 185.78 L47.58 185.78" class="st6"/>
		</g>
		<g id="shape181-423" v:mID="181" v:groupContext="shape" transform="translate(321.568,131.097) rotate(90)">
			<title>Sheet.181</title>
			<path d="M0 185.78 L47.58 185.78" class="st6"/>
		</g>
		<g id="shape182-426" v:mID="182" v:groupContext="shape" transform="translate(440.959,130.594) rotate(90)">
			<title>Sheet.182</title>
			<path d="M0 185.78 L47.58 185.78" class="st6"/>
		</g>
		<g id="shape183-429" v:mID="183" v:groupContext="shape" transform="translate(518.303,130.594) rotate(90)">
			<title>Sheet.183</title>
			<path d="M0 185.78 L47.58 185.78" class="st6"/>
		</g>
		<g id="shape184-432" v:mID="184" v:groupContext="shape" transform="translate(332.52,363.952) rotate(180)">
			<title>Sheet.184</title>
			<path d="M0 185.78 L298.41 185.78" class="st6"/>
		</g>
		<g id="shape185-435" v:mID="185" v:groupContext="shape" transform="translate(0.36,-0.36)">
			<title>Sheet.185</title>
			<desc>clkdiv</desc>
			<v:textBlock v:margins="rect(4,4,4,4)"/>
			<v:textRect cx="20.25" cy="179.032" width="40.5" height="13.5"/>
			<rect x="0" y="172.282" width="40.5" height="13.5" class="st2"/>
			<text x="10.25" y="181.43" class="st3" v:langID="1033"><v:paragraph v:horizAlign="1"/><v:tabList/>clkdiv</text>		</g>
	</g>
</svg>
