<?xml version="1.0" encoding="UTF-8" standalone="no"?>
<!DOCTYPE svg PUBLIC "-//W3C//DTD SVG 1.1//EN" "http://www.w3.org/Graphics/SVG/1.1/DTD/svg11.dtd">
<!-- Generated by Microsoft Visio, SVG Export PCB_Layers.svg Page-1 -->
<svg xmlns="http://www.w3.org/2000/svg" xmlns:xlink="http://www.w3.org/1999/xlink" xmlns:ev="http://www.w3.org/2001/xml-events"
		xmlns:v="http://schemas.microsoft.com/visio/2003/SVGExtensions/" width="2.91in" height="4.38356in"
		viewBox="0 0 209.52 315.616" xml:space="preserve" color-interpolation-filters="sRGB" class="st12">
	<v:documentProperties v:langID="1033" v:viewMarkup="false">
		<v:userDefs>
			<v:ud v:nameU="msvConvertTheme"/>
		</v:userDefs>
	</v:documentProperties>

	<style type="text/css">
	<![CDATA[
		.st1 {fill:#f0e7a2;stroke:#000000;stroke-linecap:round;stroke-linejoin:round;stroke-width:0.24}
		.st2 {fill:none;stroke:none;stroke-linecap:round;stroke-linejoin:round;stroke-width:0.72}
		.st3 {fill:#000000;font-family:Arial;font-size:0.666664em}
		.st4 {fill:#cf9a49;stroke:none;stroke-linecap:round;stroke-linejoin:round;stroke-width:0.75}
		.st5 {stroke:#000000;stroke-linecap:round;stroke-linejoin:round;stroke-width:0.22462}
		.st6 {stroke:#000000;stroke-linecap:round;stroke-linejoin:round;stroke-width:1.19797}
		.st7 {stroke:#cf9a49;stroke-linecap:round;stroke-linejoin:round;stroke-width:1.19797}
		.st8 {stroke:#cf9a49;stroke-linecap:round;stroke-linejoin:round;stroke-width:1.2}
		.st9 {fill:#ffffff;stroke:none;stroke-linecap:round;stroke-linejoin:round;stroke-width:1.2}
		.st10 {fill:#cf9a49;stroke:#000000;stroke-linecap:round;stroke-linejoin:round;stroke-width:0.24}
		.st11 {fill:#59a833;stroke:#000000;stroke-linecap:round;stroke-linejoin:round;stroke-width:0.24}
		.st12 {fill:none;fill-rule:evenodd;font-size:12px;overflow:visible;stroke-linecap:square;stroke-miterlimit:3}
	]]>
	</style>

	<g v:mID="0" v:index="1" v:groupContext="foregroundPage">
		<title>Page-1</title>
		<v:pageProperties v:drawingScale="1" v:pageScale="1" v:drawingUnits="0" v:shadowOffsetX="9" v:shadowOffsetY="-9"/>
		<g id="shape1-1" v:mID="1" v:groupContext="shape" transform="translate(7.56,-288.136)">
			<title>Rectangle</title>
			<v:userDefs>
				<v:ud v:nameU="visVersion" v:val="VT0(11):26"/>
			</v:userDefs>
			<rect x="0" y="314.176" width="144" height="1.44" class="st1"/>
		</g>
		<g id="shape2-3" v:mID="2" v:groupContext="shape" transform="translate(7.56,-289.576)">
			<title>Sheet.2</title>
			<path d="M144 315.62 L180 289.7 L36.05 289.7 L0 315.62 L144 315.62 Z" class="st1"/>
		</g>
		<g id="shape3-5" v:mID="3" v:groupContext="shape" transform="translate(151.56,-288.136)">
			<title>Sheet.3</title>
			<path d="M0 315.62 L36 289.7 L36 288.26 L0 314.18 L0 315.62 Z" class="st1"/>
		</g>
		<g id="shape4-7" v:mID="4" v:groupContext="shape" transform="translate(0.36,-269.64)">
			<title>Sheet.4</title>
			<desc>PCB starts as a fiberglass sheet about 16&#34; x 20&#34; x .062&#34;</desc>
			<v:textBlock v:margins="rect(4,0,4,0)"/>
			<v:textRect cx="99" cy="307.448" width="198" height="16.336"/>
			<rect x="0" y="299.28" width="198" height="16.336" class="st2"/>
			<text x="0" y="309.85" class="st3" v:langID="1033"><v:paragraph/><v:tabList/>PCB starts as a fiberglass sheet about 16&#34; x 20&#34; x .062&#34;</text>		</g>
		<g id="shape5-10" v:mID="5" v:groupContext="shape" transform="translate(180.509,-253.576)">
			<title>Sheet.5</title>
			<path d="M0 314.49 L0.6 314.49 L1.12 314.49 L1.72 314.49 L2.17 314.57 L2.69 314.57 L3.14 314.64 L3.59 314.72 L3.97 314.79
						 L4.34 314.87 L4.64 314.94 L4.94 315.02 L5.16 315.17 L5.39 315.24 L5.54 315.32 L5.61 315.47 L5.61 315.62
						 L5.61 315.62 L5.61 315.24 L5.61 314.94 L5.54 314.72 L5.46 314.42 L5.39 314.12 L5.24 313.89 L5.09 313.67
						 L5.01 313.44 L4.79 313.29 L4.64 313.07 L4.49 312.92 L4.26 312.84 L4.04 312.69 L3.82 312.62 L3.59 312.62
						 L3.37 312.62 L3.37 312.62 L3.37 312.62 L0 314.49 L0 314.49 L0 314.49 Z" class="st4"/>
		</g>
		<g id="shape6-12" v:mID="6" v:groupContext="shape" transform="translate(180.509,-253.576)">
			<title>Sheet.6</title>
			<path d="M0 314.49 L0.6 314.49 L1.12 314.49 L1.72 314.49 L2.17 314.57 L2.69 314.57 L3.14 314.64 L3.59 314.72 L3.97 314.79
						 L4.34 314.87 L4.64 314.94 L4.94 315.02 L5.16 315.17 L5.39 315.24 L5.54 315.32 L5.61 315.47 L5.61 315.62
						 L5.61 315.62 L5.61 315.24 L5.61 314.94 L5.54 314.72 L5.46 314.42 L5.39 314.12 L5.24 313.89 L5.09 313.67
						 L5.01 313.44 L4.79 313.29 L4.64 313.07 L4.49 312.92 L4.26 312.84 L4.04 312.69 L3.82 312.62 L3.59 312.62
						 L3.37 312.62 L3.37 312.62 L3.37 312.62 L0 314.49 L0 314.49" class="st5"/>
		</g>
		<g id="shape7-15" v:mID="7" v:groupContext="shape" transform="translate(7.56,-233.416)">
			<title>Rectangle.8</title>
			<v:userDefs>
				<v:ud v:nameU="visVersion" v:val="VT0(11):26"/>
			</v:userDefs>
			<rect x="0" y="314.176" width="144" height="1.44" class="st1"/>
		</g>
		<g id="shape8-17" v:mID="8" v:groupContext="shape" transform="translate(7.56,-234.856)">
			<title>Sheet.8</title>
			<path d="M144 315.62 L180 289.7 L36.05 289.7 L0 315.62 L144 315.62 Z" class="st1"/>
		</g>
		<g id="shape9-19" v:mID="9" v:groupContext="shape" transform="translate(151.56,-233.416)">
			<title>Sheet.9</title>
			<path d="M0 315.62 L36 289.7 L36 288.26 L0 314.18 L0 315.62 Z" class="st1"/>
		</g>
		<g id="shape10-21" v:mID="10" v:groupContext="shape" transform="translate(7.86893,-235.122)">
			<title>Sheet.10</title>
			<path d="M170.57 295.9 L170.8 295.82 L171.02 295.82 L171.25 295.74 L171.47 295.58 L171.7 295.41 L171.92 295.25 L172.14
						 295.08 L172.37 294.84 L172.52 294.59 L172.74 294.26 L172.89 293.93 L173.12 293.6 L173.27 293.28 L173.42
						 292.86 L173.64 292.45 L173.79 292.04 L173.94 291.55 L174.09 291.06 L174.31 290.07 L174.54 289 L174.76 287.85
						 L174.91 286.62 L174.99 285.39 L175.06 284.08 L175.06 282.76 L175.06 283.09 L174.99 283.42 L174.99 283.75
						 L174.84 284.08 L174.76 284.32 L174.61 284.65 L174.39 284.98 L174.16 285.31 L173.94 285.55 L173.72 285.88
						 L173.49 286.13 L173.19 286.38 L172.82 286.62 L172.52 286.87 L172.14 287.12 L171.77 287.36 L171.02 287.77
						 L170.12 288.18 L169.23 288.51 L168.25 288.76 L167.21 289 L166.16 289.17 L165.04 289.25 L163.84 289.33 L163.84
						 289.33 L35.91 289.33 L0 315.62 L143.64 315.62 L170.57 295.9 L170.57 295.9 L170.57 295.9 Z" class="st4"/>
		</g>
		<g id="shape11-23" v:mID="11" v:groupContext="shape" transform="translate(0.36,-216.136)">
			<title>Sheet.11</title>
			<desc>Thin copper sheets are added to both sides</desc>
			<v:textBlock v:margins="rect(4,0,4,0)"/>
			<v:textRect cx="99" cy="307.448" width="198" height="16.336"/>
			<rect x="0" y="299.28" width="198" height="16.336" class="st2"/>
			<text x="0" y="309.85" class="st3" v:langID="1033"><v:paragraph/><v:tabList/>Thin copper sheets are added to both sides</text>		</g>
		<g id="shape12-26" v:mID="12" v:groupContext="shape" transform="translate(180.509,-198.856)">
			<title>Sheet.12</title>
			<path d="M0 314.49 L0.6 314.49 L1.12 314.49 L1.72 314.49 L2.17 314.57 L2.69 314.57 L3.14 314.64 L3.59 314.72 L3.97 314.79
						 L4.34 314.87 L4.64 314.94 L4.94 315.02 L5.16 315.17 L5.39 315.24 L5.54 315.32 L5.61 315.47 L5.61 315.62
						 L5.61 315.62 L5.61 315.24 L5.61 314.94 L5.54 314.72 L5.46 314.42 L5.39 314.12 L5.24 313.89 L5.09 313.67
						 L5.01 313.44 L4.79 313.29 L4.64 313.07 L4.49 312.92 L4.26 312.84 L4.04 312.69 L3.82 312.62 L3.59 312.62
						 L3.37 312.62 L3.37 312.62 L3.37 312.62 L0 314.49 L0 314.49 L0 314.49 Z" class="st4"/>
		</g>
		<g id="shape13-28" v:mID="13" v:groupContext="shape" transform="translate(180.509,-198.856)">
			<title>Sheet.13</title>
			<path d="M0 314.49 L0.6 314.49 L1.12 314.49 L1.72 314.49 L2.17 314.57 L2.69 314.57 L3.14 314.64 L3.59 314.72 L3.97 314.79
						 L4.34 314.87 L4.64 314.94 L4.94 315.02 L5.16 315.17 L5.39 315.24 L5.54 315.32 L5.61 315.47 L5.61 315.62
						 L5.61 315.62 L5.61 315.24 L5.61 314.94 L5.54 314.72 L5.46 314.42 L5.39 314.12 L5.24 313.89 L5.09 313.67
						 L5.01 313.44 L4.79 313.29 L4.64 313.07 L4.49 312.92 L4.26 312.84 L4.04 312.69 L3.82 312.62 L3.59 312.62
						 L3.37 312.62 L3.37 312.62 L3.37 312.62 L0 314.49 L0 314.49" class="st5"/>
		</g>
		<g id="shape14-31" v:mID="14" v:groupContext="shape" transform="translate(7.56,-178.696)">
			<title>Rectangle.89</title>
			<v:userDefs>
				<v:ud v:nameU="visVersion" v:val="VT0(11):26"/>
			</v:userDefs>
			<rect x="0" y="314.176" width="144" height="1.44" class="st1"/>
		</g>
		<g id="shape15-33" v:mID="15" v:groupContext="shape" transform="translate(7.56,-180.136)">
			<title>Sheet.15</title>
			<path d="M144 315.62 L180 289.7 L36.05 289.7 L0 315.62 L144 315.62 Z" class="st1"/>
		</g>
		<g id="shape16-35" v:mID="16" v:groupContext="shape" transform="translate(151.56,-178.696)">
			<title>Sheet.16</title>
			<path d="M0 315.62 L36 289.7 L36 288.26 L0 314.18 L0 315.62 Z" class="st1"/>
		</g>
		<g id="shape17-37" v:mID="17" v:groupContext="shape" transform="translate(7.86893,-180.402)">
			<title>Sheet.17</title>
			<path d="M170.57 295.9 L170.8 295.82 L171.02 295.82 L171.25 295.74 L171.47 295.58 L171.7 295.41 L171.92 295.25 L172.14
						 295.08 L172.37 294.84 L172.52 294.59 L172.74 294.26 L172.89 293.93 L173.12 293.6 L173.27 293.28 L173.42
						 292.86 L173.64 292.45 L173.79 292.04 L173.94 291.55 L174.09 291.06 L174.31 290.07 L174.54 289 L174.76 287.85
						 L174.91 286.62 L174.99 285.39 L175.06 284.08 L175.06 282.76 L175.06 283.09 L174.99 283.42 L174.99 283.75
						 L174.84 284.08 L174.76 284.32 L174.61 284.65 L174.39 284.98 L174.16 285.31 L173.94 285.55 L173.72 285.88
						 L173.49 286.13 L173.19 286.38 L172.82 286.62 L172.52 286.87 L172.14 287.12 L171.77 287.36 L171.02 287.77
						 L170.12 288.18 L169.23 288.51 L168.25 288.76 L167.21 289 L166.16 289.17 L165.04 289.25 L163.84 289.33 L163.84
						 289.33 L35.91 289.33 L0 315.62 L143.64 315.62 L170.57 295.9 L170.57 295.9 L170.57 295.9 Z" class="st4"/>
		</g>
		<g id="shape18-39" v:mID="18" v:groupContext="shape" transform="translate(40.2233,-189.193)">
			<title>Sheet.18</title>
			<path d="M15.86 306.4 L13.39 306.4 L0 315.62 L45.11 315.62 L51.85 310.82 L59.78 310.82" class="st6"/>
		</g>
		<g id="shape19-42" v:mID="19" v:groupContext="shape" transform="translate(32.8917,-187.545)">
			<title>Sheet.19</title>
			<path d="M24.39 303.1 L18.33 303.1 L0 315.62 L51.25 315.62" class="st6"/>
		</g>
		<g id="shape20-45" v:mID="20" v:groupContext="shape" transform="translate(25.56,-185.971)">
			<title>Sheet.20</title>
			<path d="M32.99 299.88 L23.19 299.88 L0 315.62 L57.38 315.62" class="st6"/>
		</g>
		<g id="shape21-48" v:mID="21" v:groupContext="shape" transform="translate(93.5649,-185.971)">
			<title>Sheet.21</title>
			<path d="M0 315.62 L11 315.62" class="st6"/>
		</g>
		<g id="shape22-51" v:mID="22" v:groupContext="shape" transform="translate(68.8767,-201.707)">
			<title>Sheet.22</title>
			<path d="M0 315.62 L5.16 315.62" class="st6"/>
		</g>
		<g id="shape23-54" v:mID="23" v:groupContext="shape" transform="translate(65.8093,-195.188)">
			<title>Sheet.23</title>
			<path d="M0 312.39 L6.73 312.39 L1.87 315.62" class="st6"/>
		</g>
		<g id="shape24-57" v:mID="24" v:groupContext="shape" transform="translate(67.0811,-200.059)">
			<title>Sheet.24</title>
			<path d="M0 315.62 L21.62 315.62" class="st6"/>
		</g>
		<g id="shape25-60" v:mID="25" v:groupContext="shape" transform="translate(93.8642,-193.989)">
			<title>Sheet.25</title>
			<path d="M0 315.62 L6.13 315.62 L14.96 309.62 L7.33 309.55" class="st6"/>
		</g>
		<g id="shape26-63" v:mID="26" v:groupContext="shape" transform="translate(104.712,-185.896)">
			<title>Sheet.26</title>
			<path d="M0 315.62 L40.55 315.62 L59.93 302.65 L9.95 302.65" class="st6"/>
		</g>
		<g id="shape27-66" v:mID="27" v:groupContext="shape" transform="translate(147.58,-198.86)">
			<title>Sheet.27</title>
			<path d="M21.62 315.62 L0 315.62" class="st6"/>
		</g>
		<g id="shape28-69" v:mID="28" v:groupContext="shape" transform="translate(0.36,-161.64)">
			<title>Sheet.28</title>
			<desc>Etchant-resistive wire pattern printed on one or both sides</desc>
			<v:textBlock v:margins="rect(4,0,4,0)"/>
			<v:textRect cx="103.5" cy="307.448" width="207" height="16.336"/>
			<rect x="0" y="299.28" width="207" height="16.336" class="st2"/>
			<text x="0" y="309.85" class="st3" v:langID="1033"><v:paragraph/><v:tabList/>Etchant-resistive wire pattern printed on one or both sides</text>		</g>
		<g id="shape29-72" v:mID="29" v:groupContext="shape" transform="translate(0.36,-126.36)">
			<title>Sheet.29</title>
			<path d="M144 315.62 L180 289.7 L36.05 289.7 L0 315.62 L144 315.62 Z" class="st1"/>
		</g>
		<g id="shape30-74" v:mID="30" v:groupContext="shape" transform="translate(144.36,-124.92)">
			<title>Sheet.30</title>
			<path d="M0 315.62 L36 289.7 L36 288.26 L0 314.18 L0 315.62 Z" class="st1"/>
		</g>
		<g id="shape31-76" v:mID="31" v:groupContext="shape" transform="translate(36.9826,-135.417)">
			<title>Sheet.31</title>
			<path d="M15.86 306.4 L13.39 306.4 L0 315.62 L45.11 315.62 L51.85 310.82 L59.78 310.82" class="st7"/>
		</g>
		<g id="shape32-79" v:mID="32" v:groupContext="shape" transform="translate(29.6509,-133.769)">
			<title>Sheet.32</title>
			<path d="M24.39 303.1 L18.33 303.1 L0 315.62 L51.25 315.62" class="st7"/>
		</g>
		<g id="shape33-82" v:mID="33" v:groupContext="shape" transform="translate(22.3193,-132.195)">
			<title>Sheet.33</title>
			<path d="M32.99 299.88 L23.19 299.88 L0 315.62 L57.38 315.62" class="st7"/>
		</g>
		<g id="shape34-85" v:mID="34" v:groupContext="shape" transform="translate(90.3242,-132.195)">
			<title>Sheet.34</title>
			<path d="M0 315.62 L11 315.62" class="st7"/>
		</g>
		<g id="shape35-88" v:mID="35" v:groupContext="shape" transform="translate(65.6359,-147.931)">
			<title>Sheet.35</title>
			<path d="M0 315.62 L5.16 315.62" class="st7"/>
		</g>
		<g id="shape36-91" v:mID="36" v:groupContext="shape" transform="translate(62.5686,-141.412)">
			<title>Sheet.36</title>
			<path d="M0 312.39 L6.73 312.39 L1.87 315.62" class="st7"/>
		</g>
		<g id="shape37-94" v:mID="37" v:groupContext="shape" transform="translate(63.8404,-146.283)">
			<title>Sheet.37</title>
			<path d="M0 315.62 L21.62 315.62" class="st7"/>
		</g>
		<g id="shape38-97" v:mID="38" v:groupContext="shape" transform="translate(90.6234,-140.213)">
			<title>Sheet.38</title>
			<path d="M0 315.62 L6.13 315.62 L14.96 309.62 L7.33 309.55" class="st7"/>
		</g>
		<g id="shape39-100" v:mID="39" v:groupContext="shape" transform="translate(101.471,-132.12)">
			<title>Sheet.39</title>
			<path d="M0 315.62 L40.55 315.62 L59.93 302.65 L9.95 302.65" class="st7"/>
		</g>
		<g id="shape40-103" v:mID="40" v:groupContext="shape" transform="translate(144.339,-145.084)">
			<title>Sheet.40</title>
			<path d="M21.62 315.62 L0 315.62" class="st7"/>
		</g>
		<g id="shape41-106" v:mID="41" v:groupContext="shape" transform="translate(0.36,-124.92)">
			<title>Rectangle.29</title>
			<v:userDefs>
				<v:ud v:nameU="visVersion" v:val="VT0(11):26"/>
			</v:userDefs>
			<rect x="0" y="314.176" width="144" height="1.44" class="st1"/>
		</g>
		<g id="shape42-108" v:mID="42" v:groupContext="shape" transform="translate(0.36,-107.64)">
			<title>Sheet.42</title>
			<desc>All copper removed with etchant except for wires and pads</desc>
			<v:textBlock v:margins="rect(4,0,4,0)"/>
			<v:textRect cx="104.4" cy="307.448" width="208.8" height="16.336"/>
			<rect x="0" y="299.28" width="208.8" height="16.336" class="st2"/>
			<text x="0" y="309.85" class="st3" v:langID="1033"><v:paragraph/><v:tabList/>All copper removed with etchant except for wires and pads</text>		</g>
		<g id="shape43-111" v:mID="43" v:groupContext="shape" transform="translate(0.36,-72.856)">
			<title>Sheet.43</title>
			<path d="M144 315.62 L180 289.7 L36.05 289.7 L0 315.62 L144 315.62 Z" class="st1"/>
		</g>
		<g id="shape44-113" v:mID="44" v:groupContext="shape" transform="translate(144.36,-71.416)">
			<title>Sheet.44</title>
			<path d="M0 315.62 L36 289.7 L36 288.26 L0 314.18 L0 315.62 Z" class="st1"/>
		</g>
		<g id="shape45-115" v:mID="45" v:groupContext="shape" transform="translate(36.812,-81.7922)">
			<title>Sheet.45</title>
			<path d="M14.59 306.55 L12.34 306.55 L0 315.62 L41.52 315.62 L47.73 310.9 L54.99 310.9" class="st8"/>
		</g>
		<g id="shape46-118" v:mID="46" v:groupContext="shape" transform="translate(30.0789,-80.2186)">
			<title>Sheet.46</title>
			<path d="M22.44 303.33 L16.83 303.33 L0 315.62 L47.13 315.62" class="st8"/>
		</g>
		<g id="shape47-121" v:mID="47" v:groupContext="shape" transform="translate(23.3457,-78.57)">
			<title>Sheet.47</title>
			<path d="M30.3 300.1 L21.32 300.1 L0 315.62 L52.74 315.62" class="st8"/>
		</g>
		<g id="shape48-124" v:mID="48" v:groupContext="shape" transform="translate(54.2434,-93.7067)">
			<title>Sheet.48</title>
			<path d="M0 315.24 L0 315.17 L0.07 315.09 L0.22 315.02 L0.37 314.94 L0.6 314.94 L0.82 314.87 L1.12 314.87 L1.42 314.87
						 L1.65 314.87 L1.95 314.87 L2.17 314.94 L2.39 314.94 L2.54 315.02 L2.69 315.09 L2.77 315.17 L2.77 315.24
						 L2.77 315.24 L2.77 315.32 L2.69 315.39 L2.54 315.47 L2.39 315.54 L2.17 315.54 L1.95 315.62 L1.65 315.62
						 L1.42 315.62 L1.12 315.62 L0.82 315.62 L0.6 315.54 L0.37 315.54 L0.22 315.47 L0.07 315.39 L0 315.32 L0 315.24
						 L0 315.24 Z" class="st9"/>
		</g>
		<g id="shape49-126" v:mID="49" v:groupContext="shape" transform="translate(54.2434,-93.7067)">
			<title>Sheet.49</title>
			<path d="M0 315.24 L0 315.17 L0.07 315.09 L0.22 315.02 L0.37 314.94 L0.6 314.94 L0.82 314.87 L1.12 314.87 L1.42 314.87
						 L1.65 314.87 L1.95 314.87 L2.17 314.94 L2.39 314.94 L2.54 315.02 L2.69 315.09 L2.77 315.17 L2.77 315.24
						 L2.77 315.24 L2.77 315.32 L2.69 315.39 L2.54 315.47 L2.39 315.54 L2.17 315.54 L1.95 315.62 L1.65 315.62
						 L1.42 315.62 L1.12 315.62 L0.82 315.62 L0.6 315.54 L0.37 315.54 L0.22 315.47 L0.07 315.39 L0 315.32 L0 315.24"
					class="st8"/>
		</g>
		<g id="shape50-129" v:mID="50" v:groupContext="shape" transform="translate(52.5227,-92.0581)">
			<title>Sheet.50</title>
			<path d="M0 315.17 L0.07 315.09 L0.15 315.02 L0.22 314.94 L0.45 314.94 L0.67 314.87 L0.9 314.79 L1.12 314.79 L1.42 314.79
						 L1.72 314.79 L1.95 314.79 L2.24 314.87 L2.39 314.94 L2.62 314.94 L2.69 315.02 L2.77 315.09 L2.84 315.17
						 L2.84 315.17 L2.77 315.24 L2.69 315.32 L2.62 315.39 L2.39 315.47 L2.24 315.54 L1.95 315.54 L1.72 315.62
						 L1.42 315.62 L1.12 315.62 L0.9 315.54 L0.67 315.54 L0.45 315.47 L0.22 315.39 L0.15 315.32 L0.07 315.24 L0
						 315.17 L0 315.17 Z" class="st9"/>
		</g>
		<g id="shape51-131" v:mID="51" v:groupContext="shape" transform="translate(52.5227,-92.0581)">
			<title>Sheet.51</title>
			<path d="M0 315.17 L0.07 315.09 L0.15 315.02 L0.22 314.94 L0.45 314.94 L0.67 314.87 L0.9 314.79 L1.12 314.79 L1.42 314.79
						 L1.72 314.79 L1.95 314.79 L2.24 314.87 L2.39 314.94 L2.62 314.94 L2.69 315.02 L2.77 315.09 L2.84 315.17
						 L2.84 315.17 L2.77 315.24 L2.69 315.32 L2.62 315.39 L2.39 315.47 L2.24 315.54 L1.95 315.54 L1.72 315.62
						 L1.42 315.62 L1.12 315.62 L0.9 315.54 L0.67 315.54 L0.45 315.47 L0.22 315.39 L0.15 315.32 L0.07 315.24 L0
						 315.17" class="st8"/>
		</g>
		<g id="shape52-134" v:mID="52" v:groupContext="shape" transform="translate(51.4005,-90.4845)">
			<title>Sheet.52</title>
			<path d="M0 315.24 L0.07 315.09 L0.15 315.02 L0.22 315.02 L0.45 314.94 L0.67 314.87 L0.9 314.87 L1.12 314.79 L1.42 314.79
						 L1.72 314.79 L1.95 314.87 L2.24 314.87 L2.39 314.94 L2.62 315.02 L2.69 315.02 L2.77 315.09 L2.84 315.24
						 L2.84 315.24 L2.77 315.32 L2.69 315.39 L2.62 315.39 L2.39 315.47 L2.24 315.54 L1.95 315.54 L1.72 315.62
						 L1.42 315.62 L1.12 315.62 L0.9 315.54 L0.67 315.54 L0.45 315.47 L0.22 315.39 L0.15 315.39 L0.07 315.32 L0
						 315.24 L0 315.24 Z" class="st9"/>
		</g>
		<g id="shape53-136" v:mID="53" v:groupContext="shape" transform="translate(51.4005,-90.4845)">
			<title>Sheet.53</title>
			<path d="M0 315.24 L0.07 315.09 L0.15 315.02 L0.22 315.02 L0.45 314.94 L0.67 314.87 L0.9 314.87 L1.12 314.79 L1.42 314.79
						 L1.72 314.79 L1.95 314.87 L2.24 314.87 L2.39 314.94 L2.62 315.02 L2.69 315.02 L2.77 315.09 L2.84 315.24
						 L2.84 315.24 L2.77 315.32 L2.69 315.39 L2.62 315.39 L2.39 315.47 L2.24 315.54 L1.95 315.54 L1.72 315.62
						 L1.42 315.62 L1.12 315.62 L0.9 315.54 L0.67 315.54 L0.45 315.47 L0.22 315.39 L0.15 315.39 L0.07 315.32 L0
						 315.24" class="st8"/>
		</g>
		<g id="shape54-139" v:mID="54" v:groupContext="shape" transform="translate(60.3781,-93.7067)">
			<title>Sheet.54</title>
			<path d="M0 315.24 L0.07 315.17 L0.15 315.09 L0.22 315.02 L0.45 314.94 L0.67 314.94 L0.9 314.87 L1.12 314.87 L1.42 314.87
						 L1.72 314.87 L1.95 314.87 L2.24 314.94 L2.39 314.94 L2.62 315.02 L2.69 315.09 L2.77 315.17 L2.84 315.24
						 L2.84 315.24 L2.77 315.32 L2.69 315.39 L2.62 315.47 L2.39 315.54 L2.24 315.54 L1.95 315.62 L1.72 315.62
						 L1.42 315.62 L1.12 315.62 L0.9 315.62 L0.67 315.54 L0.45 315.54 L0.22 315.47 L0.15 315.39 L0.07 315.32 L0
						 315.24 L0 315.24 Z" class="st9"/>
		</g>
		<g id="shape55-141" v:mID="55" v:groupContext="shape" transform="translate(60.3781,-93.7067)">
			<title>Sheet.55</title>
			<path d="M0 315.24 L0.07 315.17 L0.15 315.09 L0.22 315.02 L0.45 314.94 L0.67 314.94 L0.9 314.87 L1.12 314.87 L1.42 314.87
						 L1.72 314.87 L1.95 314.87 L2.24 314.94 L2.39 314.94 L2.62 315.02 L2.69 315.09 L2.77 315.17 L2.84 315.24
						 L2.84 315.24 L2.77 315.32 L2.69 315.39 L2.62 315.47 L2.39 315.54 L2.24 315.54 L1.95 315.62 L1.72 315.62
						 L1.42 315.62 L1.12 315.62 L0.9 315.62 L0.67 315.54 L0.45 315.54 L0.22 315.47 L0.15 315.39 L0.07 315.32 L0
						 315.24" class="st8"/>
		</g>
		<g id="shape56-144" v:mID="56" v:groupContext="shape" transform="translate(58.7322,-92.0581)">
			<title>Sheet.56</title>
			<path d="M0 315.17 L0 315.09 L0.07 315.02 L0.22 314.94 L0.37 314.94 L0.6 314.87 L0.82 314.79 L1.12 314.79 L1.42 314.79
						 L1.65 314.79 L1.95 314.79 L2.17 314.87 L2.39 314.94 L2.54 314.94 L2.69 315.02 L2.77 315.09 L2.77 315.17
						 L2.77 315.17 L2.77 315.24 L2.69 315.32 L2.54 315.39 L2.39 315.47 L2.17 315.54 L1.95 315.54 L1.65 315.62
						 L1.42 315.62 L1.12 315.62 L0.82 315.54 L0.6 315.54 L0.37 315.47 L0.22 315.39 L0.07 315.32 L0 315.24 L0 315.17
						 L0 315.17 Z" class="st9"/>
		</g>
		<g id="shape57-146" v:mID="57" v:groupContext="shape" transform="translate(58.7322,-92.0581)">
			<title>Sheet.57</title>
			<path d="M0 315.17 L0 315.09 L0.07 315.02 L0.22 314.94 L0.37 314.94 L0.6 314.87 L0.82 314.79 L1.12 314.79 L1.42 314.79
						 L1.65 314.79 L1.95 314.79 L2.17 314.87 L2.39 314.94 L2.54 314.94 L2.69 315.02 L2.77 315.09 L2.77 315.17
						 L2.77 315.17 L2.77 315.24 L2.69 315.32 L2.54 315.39 L2.39 315.47 L2.17 315.54 L1.95 315.54 L1.65 315.62
						 L1.42 315.62 L1.12 315.62 L0.82 315.54 L0.6 315.54 L0.37 315.47 L0.22 315.39 L0.07 315.32 L0 315.24 L0 315.17"
					class="st8"/>
		</g>
		<g id="shape58-149" v:mID="58" v:groupContext="shape" transform="translate(57.61,-90.4845)">
			<title>Sheet.58</title>
			<path d="M0 315.24 L0 315.09 L0.07 315.02 L0.22 315.02 L0.37 314.94 L0.6 314.87 L0.82 314.87 L1.12 314.79 L1.42 314.79
						 L1.65 314.79 L1.95 314.87 L2.17 314.87 L2.39 314.94 L2.54 315.02 L2.69 315.02 L2.77 315.09 L2.77 315.24
						 L2.77 315.24 L2.77 315.32 L2.69 315.39 L2.54 315.39 L2.39 315.47 L2.17 315.54 L1.95 315.54 L1.65 315.62
						 L1.42 315.62 L1.12 315.62 L0.82 315.54 L0.6 315.54 L0.37 315.47 L0.22 315.39 L0.07 315.39 L0 315.32 L0 315.24
						 L0 315.24 Z" class="st9"/>
		</g>
		<g id="shape59-151" v:mID="59" v:groupContext="shape" transform="translate(57.61,-90.4845)">
			<title>Sheet.59</title>
			<path d="M0 315.24 L0 315.09 L0.07 315.02 L0.22 315.02 L0.37 314.94 L0.6 314.87 L0.82 314.87 L1.12 314.79 L1.42 314.79
						 L1.65 314.79 L1.95 314.87 L2.17 314.87 L2.39 314.94 L2.54 315.02 L2.69 315.02 L2.77 315.09 L2.77 315.24
						 L2.77 315.24 L2.77 315.32 L2.69 315.39 L2.54 315.39 L2.39 315.47 L2.17 315.54 L1.95 315.54 L1.65 315.62
						 L1.42 315.62 L1.12 315.62 L0.82 315.54 L0.6 315.54 L0.37 315.47 L0.22 315.39 L0.07 315.39 L0 315.32 L0 315.24"
					class="st8"/>
		</g>
		<g id="shape60-154" v:mID="60" v:groupContext="shape" transform="translate(68.009,-93.7067)">
			<title>Sheet.60</title>
			<path d="M0 315.24 L0 315.17 L0.07 315.09 L0.22 315.02 L0.37 314.94 L0.6 314.94 L0.82 314.87 L1.05 314.87 L1.35 314.87
						 L1.65 314.87 L1.95 314.87 L2.17 314.94 L2.39 314.94 L2.54 315.02 L2.69 315.09 L2.77 315.17 L2.77 315.24
						 L2.77 315.24 L2.77 315.32 L2.69 315.39 L2.54 315.47 L2.39 315.54 L2.17 315.54 L1.95 315.62 L1.65 315.62
						 L1.35 315.62 L1.05 315.62 L0.82 315.62 L0.6 315.54 L0.37 315.54 L0.22 315.47 L0.07 315.39 L0 315.32 L0 315.24
						 L0 315.24 Z" class="st9"/>
		</g>
		<g id="shape61-156" v:mID="61" v:groupContext="shape" transform="translate(68.009,-93.7067)">
			<title>Sheet.61</title>
			<path d="M0 315.24 L0 315.17 L0.07 315.09 L0.22 315.02 L0.37 314.94 L0.6 314.94 L0.82 314.87 L1.05 314.87 L1.35 314.87
						 L1.65 314.87 L1.95 314.87 L2.17 314.94 L2.39 314.94 L2.54 315.02 L2.69 315.09 L2.77 315.17 L2.77 315.24
						 L2.77 315.24 L2.77 315.32 L2.69 315.39 L2.54 315.47 L2.39 315.54 L2.17 315.54 L1.95 315.62 L1.65 315.62
						 L1.35 315.62 L1.05 315.62 L0.82 315.62 L0.6 315.54 L0.37 315.54 L0.22 315.47 L0.07 315.39 L0 315.32 L0 315.24"
					class="st8"/>
		</g>
		<g id="shape62-159" v:mID="62" v:groupContext="shape" transform="translate(85.9641,-78.57)">
			<title>Sheet.62</title>
			<path d="M0 315.62 L10.1 315.62" class="st8"/>
		</g>
		<g id="shape63-162" v:mID="63" v:groupContext="shape" transform="translate(76.0888,-78.1953)">
			<title>Sheet.63</title>
			<path d="M0 315.24 L0.07 315.17 L0.15 315.09 L0.22 315.02 L0.45 314.94 L0.67 314.87 L0.9 314.87 L1.12 314.79 L1.42 314.79
						 L1.72 314.79 L1.95 314.87 L2.24 314.87 L2.39 314.94 L2.62 315.02 L2.69 315.09 L2.77 315.17 L2.84 315.24
						 L2.84 315.24 L2.77 315.32 L2.69 315.39 L2.62 315.47 L2.39 315.47 L2.24 315.54 L1.95 315.54 L1.72 315.62
						 L1.42 315.62 L1.12 315.62 L0.9 315.54 L0.67 315.54 L0.45 315.47 L0.22 315.47 L0.15 315.39 L0.07 315.32 L0
						 315.24 L0 315.24 Z" class="st9"/>
		</g>
		<g id="shape64-164" v:mID="64" v:groupContext="shape" transform="translate(76.0888,-78.1953)">
			<title>Sheet.64</title>
			<path d="M0 315.24 L0.07 315.17 L0.15 315.09 L0.22 315.02 L0.45 314.94 L0.67 314.87 L0.9 314.87 L1.12 314.79 L1.42 314.79
						 L1.72 314.79 L1.95 314.87 L2.24 314.87 L2.39 314.94 L2.62 315.02 L2.69 315.09 L2.77 315.17 L2.84 315.24
						 L2.84 315.24 L2.77 315.32 L2.69 315.39 L2.62 315.47 L2.39 315.47 L2.24 315.54 L1.95 315.54 L1.72 315.62
						 L1.42 315.62 L1.12 315.62 L0.9 315.54 L0.67 315.54 L0.45 315.47 L0.22 315.47 L0.15 315.39 L0.07 315.32 L0
						 315.24" class="st8"/>
		</g>
		<g id="shape65-167" v:mID="65" v:groupContext="shape" transform="translate(82.8219,-78.1953)">
			<title>Sheet.65</title>
			<path d="M0 315.24 L0.07 315.17 L0.15 315.09 L0.22 315.02 L0.45 314.94 L0.67 314.87 L0.9 314.87 L1.12 314.79 L1.42 314.79
						 L1.72 314.79 L1.95 314.87 L2.24 314.87 L2.39 314.94 L2.62 315.02 L2.69 315.09 L2.77 315.17 L2.84 315.24
						 L2.84 315.24 L2.77 315.32 L2.69 315.39 L2.62 315.47 L2.39 315.47 L2.24 315.54 L1.95 315.54 L1.72 315.62
						 L1.42 315.62 L1.12 315.62 L0.9 315.54 L0.67 315.54 L0.45 315.47 L0.22 315.47 L0.15 315.39 L0.07 315.32 L0
						 315.24 L0 315.24 Z" class="st9"/>
		</g>
		<g id="shape66-169" v:mID="66" v:groupContext="shape" transform="translate(82.8219,-78.1953)">
			<title>Sheet.66</title>
			<path d="M0 315.24 L0.07 315.17 L0.15 315.09 L0.22 315.02 L0.45 314.94 L0.67 314.87 L0.9 314.87 L1.12 314.79 L1.42 314.79
						 L1.72 314.79 L1.95 314.87 L2.24 314.87 L2.39 314.94 L2.62 315.02 L2.69 315.09 L2.77 315.17 L2.84 315.24
						 L2.84 315.24 L2.77 315.32 L2.69 315.39 L2.62 315.47 L2.39 315.47 L2.24 315.54 L1.95 315.54 L1.72 315.62
						 L1.42 315.62 L1.12 315.62 L0.9 315.54 L0.67 315.54 L0.45 315.47 L0.22 315.47 L0.15 315.39 L0.07 315.32 L0
						 315.24" class="st8"/>
		</g>
		<g id="shape67-172" v:mID="67" v:groupContext="shape" transform="translate(63.221,-94.0813)">
			<title>Sheet.67</title>
			<path d="M0 315.62 L4.79 315.62" class="st8"/>
		</g>
		<g id="shape68-175" v:mID="68" v:groupContext="shape" transform="translate(60.3781,-87.7119)">
			<title>Sheet.68</title>
			<path d="M0 312.47 L6.21 312.47 L1.72 315.62" class="st8"/>
		</g>
		<g id="shape69-178" v:mID="69" v:groupContext="shape" transform="translate(61.5003,-92.5077)">
			<title>Sheet.69</title>
			<path d="M0 315.62 L19.98 315.62" class="st8"/>
		</g>
		<g id="shape70-181" v:mID="70" v:groupContext="shape" transform="translate(81.4753,-92.0581)">
			<title>Sheet.70</title>
			<path d="M0 315.17 L0 315.09 L0.07 315.02 L0.22 314.94 L0.37 314.94 L0.6 314.87 L0.82 314.79 L1.05 314.79 L1.35 314.79
						 L1.65 314.79 L1.95 314.79 L2.17 314.87 L2.39 314.94 L2.54 314.94 L2.69 315.02 L2.77 315.09 L2.77 315.17
						 L2.77 315.17 L2.77 315.24 L2.69 315.32 L2.54 315.39 L2.39 315.47 L2.17 315.54 L1.95 315.54 L1.65 315.62
						 L1.35 315.62 L1.05 315.62 L0.82 315.54 L0.6 315.54 L0.37 315.47 L0.22 315.39 L0.07 315.32 L0 315.24 L0 315.17
						 L0 315.17 Z" class="st9"/>
		</g>
		<g id="shape71-183" v:mID="71" v:groupContext="shape" transform="translate(81.4753,-92.0581)">
			<title>Sheet.71</title>
			<path d="M0 315.17 L0 315.09 L0.07 315.02 L0.22 314.94 L0.37 314.94 L0.6 314.87 L0.82 314.79 L1.05 314.79 L1.35 314.79
						 L1.65 314.79 L1.95 314.79 L2.17 314.87 L2.39 314.94 L2.54 314.94 L2.69 315.02 L2.77 315.09 L2.77 315.17
						 L2.77 315.17 L2.77 315.24 L2.69 315.32 L2.54 315.39 L2.39 315.47 L2.17 315.54 L1.95 315.54 L1.65 315.62
						 L1.35 315.62 L1.05 315.62 L0.82 315.54 L0.6 315.54 L0.37 315.47 L0.22 315.39 L0.07 315.32 L0 315.24 L0 315.17"
					class="st8"/>
		</g>
		<g id="shape72-186" v:mID="72" v:groupContext="shape" transform="translate(90.1536,-92.0581)">
			<title>Sheet.72</title>
			<path d="M0 315.17 L0 315.09 L0.07 315.02 L0.22 314.94 L0.37 314.94 L0.6 314.87 L0.82 314.79 L1.12 314.79 L1.42 314.79
						 L1.65 314.79 L1.95 314.79 L2.17 314.87 L2.39 314.94 L2.54 314.94 L2.69 315.02 L2.77 315.09 L2.77 315.17
						 L2.77 315.17 L2.77 315.24 L2.69 315.32 L2.54 315.39 L2.39 315.47 L2.17 315.54 L1.95 315.54 L1.65 315.62
						 L1.42 315.62 L1.12 315.62 L0.82 315.54 L0.6 315.54 L0.37 315.47 L0.22 315.39 L0.07 315.32 L0 315.24 L0 315.17
						 L0 315.17 Z" class="st9"/>
		</g>
		<g id="shape73-188" v:mID="73" v:groupContext="shape" transform="translate(90.1536,-92.0581)">
			<title>Sheet.73</title>
			<path d="M0 315.17 L0 315.09 L0.07 315.02 L0.22 314.94 L0.37 314.94 L0.6 314.87 L0.82 314.79 L1.12 314.79 L1.42 314.79
						 L1.65 314.79 L1.95 314.79 L2.17 314.87 L2.39 314.94 L2.54 314.94 L2.69 315.02 L2.77 315.09 L2.77 315.17
						 L2.77 315.17 L2.77 315.24 L2.69 315.32 L2.54 315.39 L2.39 315.47 L2.17 315.54 L1.95 315.54 L1.65 315.62
						 L1.42 315.62 L1.12 315.62 L0.82 315.54 L0.6 315.54 L0.37 315.47 L0.22 315.39 L0.07 315.32 L0 315.24 L0 315.17"
					class="st8"/>
		</g>
		<g id="shape74-191" v:mID="74" v:groupContext="shape" transform="translate(86.1885,-86.513)">
			<title>Sheet.74</title>
			<path d="M0 315.62 L5.61 315.62 L13.77 309.77 L6.73 309.62" class="st8"/>
		</g>
		<g id="shape75-194" v:mID="75" v:groupContext="shape" transform="translate(60.8269,-87.1125)">
			<title>Sheet.75</title>
			<path d="M0 315.39 L0 315.32 L0 315.32 L0.07 315.24 L0.15 315.24 L0.45 315.17 L0.67 315.17 L0.97 315.17 L1.12 315.17
						 L1.2 315.24 L1.27 315.24 L1.35 315.32 L1.42 315.32 L1.42 315.39 L1.42 315.39 L1.42 315.47 L1.35 315.47 L1.27
						 315.54 L1.2 315.54 L1.12 315.62 L0.97 315.62 L0.67 315.62 L0.45 315.62 L0.15 315.54 L0.07 315.54 L0 315.47
						 L0 315.47 L0 315.39 L0 315.39 Z" class="st9"/>
		</g>
		<g id="shape76-196" v:mID="76" v:groupContext="shape" transform="translate(60.8269,-87.1125)">
			<title>Sheet.76</title>
			<path d="M0 315.39 L0 315.32 L0 315.32 L0.07 315.24 L0.15 315.24 L0.45 315.17 L0.67 315.17 L0.97 315.17 L1.12 315.17
						 L1.2 315.24 L1.27 315.24 L1.35 315.32 L1.42 315.32 L1.42 315.39 L1.42 315.39 L1.42 315.47 L1.35 315.47 L1.27
						 315.54 L1.2 315.54 L1.12 315.62 L0.97 315.62 L0.67 315.62 L0.45 315.62 L0.15 315.54 L0.07 315.54 L0 315.47
						 L0 315.47 L0 315.39" class="st8"/>
		</g>
		<g id="shape77-199" v:mID="77" v:groupContext="shape" transform="translate(77.211,-79.9188)">
			<title>Sheet.77</title>
			<path d="M0 315.32 L0 315.32 L0.07 315.24 L0.15 315.24 L0.22 315.17 L0.3 315.17 L0.45 315.09 L0.75 315.09 L1.05 315.09
						 L1.27 315.17 L1.35 315.24 L1.42 315.24 L1.42 315.32 L1.5 315.32 L1.5 315.32 L1.42 315.39 L1.42 315.47 L1.35
						 315.47 L1.27 315.54 L1.05 315.62 L0.75 315.62 L0.45 315.62 L0.3 315.54 L0.22 315.54 L0.15 315.47 L0.07 315.47
						 L0 315.39 L0 315.32 L0 315.32 Z" class="st9"/>
		</g>
		<g id="shape78-201" v:mID="78" v:groupContext="shape" transform="translate(77.211,-79.9188)">
			<title>Sheet.78</title>
			<path d="M0 315.32 L0 315.32 L0.07 315.24 L0.15 315.24 L0.22 315.17 L0.3 315.17 L0.45 315.09 L0.75 315.09 L1.05 315.09
						 L1.27 315.17 L1.35 315.24 L1.42 315.24 L1.42 315.32 L1.5 315.32 L1.5 315.32 L1.42 315.39 L1.42 315.47 L1.35
						 315.47 L1.27 315.54 L1.05 315.62 L0.75 315.62 L0.45 315.62 L0.3 315.54 L0.22 315.54 L0.15 315.47 L0.07 315.47
						 L0 315.39 L0 315.32" class="st8"/>
		</g>
		<g id="shape79-204" v:mID="79" v:groupContext="shape" transform="translate(96.1386,-78.57)">
			<title>Sheet.79</title>
			<path d="M0 315.62 L37.33 315.62 L55.14 302.88 L9.13 302.88" class="st8"/>
		</g>
		<g id="shape80-207" v:mID="80" v:groupContext="shape" transform="translate(135.565,-91.3088)">
			<title>Sheet.80</title>
			<path d="M19.98 315.62 L0 315.62" class="st8"/>
		</g>
		<g id="shape81-210" v:mID="81" v:groupContext="shape" transform="translate(155.465,-91.009)">
			<title>Sheet.81</title>
			<path d="M0 315.32 L0 315.32 L0.07 315.24 L0.15 315.17 L0.22 315.17 L0.45 315.09 L0.75 315.09 L0.97 315.09 L1.12 315.09
						 L1.2 315.17 L1.35 315.17 L1.42 315.24 L1.42 315.32 L1.42 315.32 L1.42 315.32 L1.42 315.39 L1.42 315.39 L1.35
						 315.47 L1.2 315.54 L1.12 315.54 L0.97 315.54 L0.75 315.62 L0.45 315.54 L0.22 315.54 L0.15 315.47 L0.07 315.39
						 L0 315.39 L0 315.32 L0 315.32 Z" class="st9"/>
		</g>
		<g id="shape82-212" v:mID="82" v:groupContext="shape" transform="translate(155.465,-91.009)">
			<title>Sheet.82</title>
			<path d="M0 315.32 L0 315.32 L0.07 315.24 L0.15 315.17 L0.22 315.17 L0.45 315.09 L0.75 315.09 L0.97 315.09 L1.12 315.09
						 L1.2 315.17 L1.35 315.17 L1.42 315.24 L1.42 315.32 L1.42 315.32 L1.42 315.32 L1.42 315.39 L1.42 315.39 L1.35
						 315.47 L1.2 315.54 L1.12 315.54 L0.97 315.54 L0.75 315.62 L0.45 315.54 L0.22 315.54 L0.15 315.47 L0.07 315.39
						 L0 315.39 L0 315.32" class="st8"/>
		</g>
		<g id="shape83-215" v:mID="83" v:groupContext="shape" transform="translate(54.36,-93.736)">
			<title>Ellipse</title>
			<v:userDefs>
				<v:ud v:nameU="visVersion" v:val="VT0(11):26"/>
			</v:userDefs>
			<path d="M0 315.26 a1.08 0.36 0 0 1 2.16 0 a1.08 0.36 0 0 1 -2.16 0 Z" class="st10"/>
		</g>
		<g id="shape84-217" v:mID="84" v:groupContext="shape" transform="translate(52.92,-92.296)">
			<title>Ellipse.35</title>
			<v:userDefs>
				<v:ud v:nameU="visVersion" v:val="VT0(11):26"/>
			</v:userDefs>
			<path d="M0 315.26 a1.08 0.36 0 0 1 2.16 0 a1.08 0.36 0 0 1 -2.16 0 Z" class="st10"/>
		</g>
		<g id="shape85-219" v:mID="85" v:groupContext="shape" transform="translate(51.84,-90.496)">
			<title>Ellipse.36</title>
			<v:userDefs>
				<v:ud v:nameU="visVersion" v:val="VT0(11):26"/>
			</v:userDefs>
			<path d="M0 315.26 a1.08 0.36 0 0 1 2.16 0 a1.08 0.36 0 0 1 -2.16 0 Z" class="st10"/>
		</g>
		<g id="shape86-221" v:mID="86" v:groupContext="shape" transform="translate(68.4,-93.736)">
			<title>Ellipse.37</title>
			<v:userDefs>
				<v:ud v:nameU="visVersion" v:val="VT0(11):26"/>
			</v:userDefs>
			<path d="M0 315.26 a1.08 0.36 0 0 1 2.16 0 a1.08 0.36 0 0 1 -2.16 0 Z" class="st10"/>
		</g>
		<g id="shape87-223" v:mID="87" v:groupContext="shape" transform="translate(60.84,-93.736)">
			<title>Ellipse.38</title>
			<v:userDefs>
				<v:ud v:nameU="visVersion" v:val="VT0(11):26"/>
			</v:userDefs>
			<path d="M0 315.26 a1.08 0.36 0 0 1 2.16 0 a1.08 0.36 0 0 1 -2.16 0 Z" class="st10"/>
		</g>
		<g id="shape88-225" v:mID="88" v:groupContext="shape" transform="translate(59.04,-92.296)">
			<title>Ellipse.39</title>
			<v:userDefs>
				<v:ud v:nameU="visVersion" v:val="VT0(11):26"/>
			</v:userDefs>
			<path d="M0 315.26 a1.08 0.36 0 0 1 2.16 0 a1.08 0.36 0 0 1 -2.16 0 Z" class="st10"/>
		</g>
		<g id="shape89-227" v:mID="89" v:groupContext="shape" transform="translate(57.96,-90.496)">
			<title>Ellipse.40</title>
			<v:userDefs>
				<v:ud v:nameU="visVersion" v:val="VT0(11):26"/>
			</v:userDefs>
			<path d="M0 315.26 a1.08 0.36 0 0 1 2.16 0 a1.08 0.36 0 0 1 -2.16 0 Z" class="st10"/>
		</g>
		<g id="shape90-229" v:mID="90" v:groupContext="shape" transform="translate(81.72,-92.296)">
			<title>Ellipse.41</title>
			<v:userDefs>
				<v:ud v:nameU="visVersion" v:val="VT0(11):26"/>
			</v:userDefs>
			<path d="M0 315.26 a1.08 0.36 0 0 1 2.16 0 a1.08 0.36 0 0 1 -2.16 0 Z" class="st10"/>
		</g>
		<g id="shape91-231" v:mID="91" v:groupContext="shape" transform="translate(76.68,-78.256)">
			<title>Ellipse.42</title>
			<v:userDefs>
				<v:ud v:nameU="visVersion" v:val="VT0(11):26"/>
			</v:userDefs>
			<path d="M0 315.26 a1.08 0.36 0 0 1 2.16 0 a1.08 0.36 0 0 1 -2.16 0 Z" class="st10"/>
		</g>
		<g id="shape92-233" v:mID="92" v:groupContext="shape" transform="translate(77.4,-80.056)">
			<title>Ellipse.43</title>
			<v:userDefs>
				<v:ud v:nameU="visVersion" v:val="VT0(11):26"/>
			</v:userDefs>
			<path d="M0 315.44 a0.72 0.18 0 0 1 1.44 0 a0.72 0.18 0 1 1 -1.44 0 Z" class="st10"/>
		</g>
		<g id="shape93-235" v:mID="93" v:groupContext="shape" transform="translate(83.16,-78.256)">
			<title>Ellipse.44</title>
			<v:userDefs>
				<v:ud v:nameU="visVersion" v:val="VT0(11):26"/>
			</v:userDefs>
			<path d="M0 315.26 a1.08 0.36 0 0 1 2.16 0 a1.08 0.36 0 0 1 -2.16 0 Z" class="st10"/>
		</g>
		<g id="shape94-237" v:mID="94" v:groupContext="shape" transform="translate(90.36,-92.296)">
			<title>Ellipse.45</title>
			<v:userDefs>
				<v:ud v:nameU="visVersion" v:val="VT0(11):26"/>
			</v:userDefs>
			<path d="M0 315.26 a1.08 0.36 0 0 1 2.16 0 a1.08 0.36 0 0 1 -2.16 0 Z" class="st10"/>
		</g>
		<g id="shape95-239" v:mID="95" v:groupContext="shape" transform="translate(60.84,-87.256)">
			<title>Ellipse.46</title>
			<v:userDefs>
				<v:ud v:nameU="visVersion" v:val="VT0(11):26"/>
			</v:userDefs>
			<path d="M0 315.44 a0.72 0.18 0 0 1 1.44 0 a0.72 0.18 0 1 1 -1.44 0 Z" class="st10"/>
		</g>
		<g id="shape96-241" v:mID="96" v:groupContext="shape" transform="translate(154.8,-90.856)">
			<title>Ellipse.47</title>
			<v:userDefs>
				<v:ud v:nameU="visVersion" v:val="VT0(11):26"/>
			</v:userDefs>
			<path d="M0 315.26 a1.08 0.36 0 0 1 2.16 0 a1.08 0.36 0 0 1 -2.16 0 Z" class="st10"/>
		</g>
		<g id="shape97-243" v:mID="97" v:groupContext="shape" transform="translate(0.36,-54.36)">
			<title>Sheet.97</title>
			<desc>Holes drilled for leads and vias, and plated with metal</desc>
			<v:textBlock v:margins="rect(4,0,4,0)"/>
			<v:textRect cx="100.8" cy="307.448" width="201.6" height="16.336"/>
			<rect x="0" y="299.28" width="201.6" height="16.336" class="st2"/>
			<text x="0" y="309.85" class="st3" v:langID="1033"><v:paragraph/><v:tabList/>Holes drilled for leads and vias, and plated with metal</text>		</g>
		<g id="shape98-246" v:mID="98" v:groupContext="shape" transform="translate(0.36,-71.416)">
			<title>Rectangle.33</title>
			<v:userDefs>
				<v:ud v:nameU="visVersion" v:val="VT0(11):26"/>
			</v:userDefs>
			<rect x="0" y="314.176" width="144" height="1.44" class="st1"/>
		</g>
		<g id="shape99-248" v:mID="99" v:groupContext="shape" transform="translate(0.36,-19.08)">
			<title>Sheet.99</title>
			<path d="M144 315.62 L180 289.7 L36.05 289.7 L0 315.62 L144 315.62 Z" class="st11"/>
		</g>
		<g id="shape100-250" v:mID="100" v:groupContext="shape" transform="translate(144.36,-17.64)">
			<title>Sheet.100</title>
			<path d="M0 315.62 L36 289.7 L36 288.26 L0 314.18 L0 315.62 Z" class="st1"/>
		</g>
		<g id="shape101-252" v:mID="101" v:groupContext="shape" transform="translate(36.812,-28.0162)">
			<title>Sheet.101</title>
			<path d="M14.59 306.55 L12.34 306.55 L0 315.62 L41.52 315.62 L47.73 310.9 L54.99 310.9" class="st8"/>
		</g>
		<g id="shape102-255" v:mID="102" v:groupContext="shape" transform="translate(30.0789,-26.4426)">
			<title>Sheet.102</title>
			<path d="M22.44 303.33 L16.83 303.33 L0 315.62 L47.13 315.62" class="st8"/>
		</g>
		<g id="shape103-258" v:mID="103" v:groupContext="shape" transform="translate(23.3457,-24.794)">
			<title>Sheet.103</title>
			<path d="M30.3 300.1 L21.32 300.1 L0 315.62 L52.74 315.62" class="st8"/>
		</g>
		<g id="shape104-261" v:mID="104" v:groupContext="shape" transform="translate(54.2434,-39.9307)">
			<title>Sheet.104</title>
			<path d="M0 315.24 L0 315.17 L0.07 315.09 L0.22 315.02 L0.37 314.94 L0.6 314.94 L0.82 314.87 L1.12 314.87 L1.42 314.87
						 L1.65 314.87 L1.95 314.87 L2.17 314.94 L2.39 314.94 L2.54 315.02 L2.69 315.09 L2.77 315.17 L2.77 315.24
						 L2.77 315.24 L2.77 315.32 L2.69 315.39 L2.54 315.47 L2.39 315.54 L2.17 315.54 L1.95 315.62 L1.65 315.62
						 L1.42 315.62 L1.12 315.62 L0.82 315.62 L0.6 315.54 L0.37 315.54 L0.22 315.47 L0.07 315.39 L0 315.32 L0 315.24
						 L0 315.24 Z" class="st9"/>
		</g>
		<g id="shape105-263" v:mID="105" v:groupContext="shape" transform="translate(54.2434,-39.9307)">
			<title>Sheet.105</title>
			<path d="M0 315.24 L0 315.17 L0.07 315.09 L0.22 315.02 L0.37 314.94 L0.6 314.94 L0.82 314.87 L1.12 314.87 L1.42 314.87
						 L1.65 314.87 L1.95 314.87 L2.17 314.94 L2.39 314.94 L2.54 315.02 L2.69 315.09 L2.77 315.17 L2.77 315.24
						 L2.77 315.24 L2.77 315.32 L2.69 315.39 L2.54 315.47 L2.39 315.54 L2.17 315.54 L1.95 315.62 L1.65 315.62
						 L1.42 315.62 L1.12 315.62 L0.82 315.62 L0.6 315.54 L0.37 315.54 L0.22 315.47 L0.07 315.39 L0 315.32 L0 315.24"
					class="st8"/>
		</g>
		<g id="shape106-266" v:mID="106" v:groupContext="shape" transform="translate(52.5227,-38.2821)">
			<title>Sheet.106</title>
			<path d="M0 315.17 L0.07 315.09 L0.15 315.02 L0.22 314.94 L0.45 314.94 L0.67 314.87 L0.9 314.79 L1.12 314.79 L1.42 314.79
						 L1.72 314.79 L1.95 314.79 L2.24 314.87 L2.39 314.94 L2.62 314.94 L2.69 315.02 L2.77 315.09 L2.84 315.17
						 L2.84 315.17 L2.77 315.24 L2.69 315.32 L2.62 315.39 L2.39 315.47 L2.24 315.54 L1.95 315.54 L1.72 315.62
						 L1.42 315.62 L1.12 315.62 L0.9 315.54 L0.67 315.54 L0.45 315.47 L0.22 315.39 L0.15 315.32 L0.07 315.24 L0
						 315.17 L0 315.17 Z" class="st9"/>
		</g>
		<g id="shape107-268" v:mID="107" v:groupContext="shape" transform="translate(52.5227,-38.2821)">
			<title>Sheet.107</title>
			<path d="M0 315.17 L0.07 315.09 L0.15 315.02 L0.22 314.94 L0.45 314.94 L0.67 314.87 L0.9 314.79 L1.12 314.79 L1.42 314.79
						 L1.72 314.79 L1.95 314.79 L2.24 314.87 L2.39 314.94 L2.62 314.94 L2.69 315.02 L2.77 315.09 L2.84 315.17
						 L2.84 315.17 L2.77 315.24 L2.69 315.32 L2.62 315.39 L2.39 315.47 L2.24 315.54 L1.95 315.54 L1.72 315.62
						 L1.42 315.62 L1.12 315.62 L0.9 315.54 L0.67 315.54 L0.45 315.47 L0.22 315.39 L0.15 315.32 L0.07 315.24 L0
						 315.17" class="st8"/>
		</g>
		<g id="shape108-271" v:mID="108" v:groupContext="shape" transform="translate(51.4005,-36.7085)">
			<title>Sheet.108</title>
			<path d="M0 315.24 L0.07 315.09 L0.15 315.02 L0.22 315.02 L0.45 314.94 L0.67 314.87 L0.9 314.87 L1.12 314.79 L1.42 314.79
						 L1.72 314.79 L1.95 314.87 L2.24 314.87 L2.39 314.94 L2.62 315.02 L2.69 315.02 L2.77 315.09 L2.84 315.24
						 L2.84 315.24 L2.77 315.32 L2.69 315.39 L2.62 315.39 L2.39 315.47 L2.24 315.54 L1.95 315.54 L1.72 315.62
						 L1.42 315.62 L1.12 315.62 L0.9 315.54 L0.67 315.54 L0.45 315.47 L0.22 315.39 L0.15 315.39 L0.07 315.32 L0
						 315.24 L0 315.24 Z" class="st9"/>
		</g>
		<g id="shape109-273" v:mID="109" v:groupContext="shape" transform="translate(51.4005,-36.7085)">
			<title>Sheet.109</title>
			<path d="M0 315.24 L0.07 315.09 L0.15 315.02 L0.22 315.02 L0.45 314.94 L0.67 314.87 L0.9 314.87 L1.12 314.79 L1.42 314.79
						 L1.72 314.79 L1.95 314.87 L2.24 314.87 L2.39 314.94 L2.62 315.02 L2.69 315.02 L2.77 315.09 L2.84 315.24
						 L2.84 315.24 L2.77 315.32 L2.69 315.39 L2.62 315.39 L2.39 315.47 L2.24 315.54 L1.95 315.54 L1.72 315.62
						 L1.42 315.62 L1.12 315.62 L0.9 315.54 L0.67 315.54 L0.45 315.47 L0.22 315.39 L0.15 315.39 L0.07 315.32 L0
						 315.24" class="st8"/>
		</g>
		<g id="shape110-276" v:mID="110" v:groupContext="shape" transform="translate(60.3781,-39.9307)">
			<title>Sheet.110</title>
			<path d="M0 315.24 L0.07 315.17 L0.15 315.09 L0.22 315.02 L0.45 314.94 L0.67 314.94 L0.9 314.87 L1.12 314.87 L1.42 314.87
						 L1.72 314.87 L1.95 314.87 L2.24 314.94 L2.39 314.94 L2.62 315.02 L2.69 315.09 L2.77 315.17 L2.84 315.24
						 L2.84 315.24 L2.77 315.32 L2.69 315.39 L2.62 315.47 L2.39 315.54 L2.24 315.54 L1.95 315.62 L1.72 315.62
						 L1.42 315.62 L1.12 315.62 L0.9 315.62 L0.67 315.54 L0.45 315.54 L0.22 315.47 L0.15 315.39 L0.07 315.32 L0
						 315.24 L0 315.24 Z" class="st9"/>
		</g>
		<g id="shape111-278" v:mID="111" v:groupContext="shape" transform="translate(60.3781,-39.9307)">
			<title>Sheet.111</title>
			<path d="M0 315.24 L0.07 315.17 L0.15 315.09 L0.22 315.02 L0.45 314.94 L0.67 314.94 L0.9 314.87 L1.12 314.87 L1.42 314.87
						 L1.72 314.87 L1.95 314.87 L2.24 314.94 L2.39 314.94 L2.62 315.02 L2.69 315.09 L2.77 315.17 L2.84 315.24
						 L2.84 315.24 L2.77 315.32 L2.69 315.39 L2.62 315.47 L2.39 315.54 L2.24 315.54 L1.95 315.62 L1.72 315.62
						 L1.42 315.62 L1.12 315.62 L0.9 315.62 L0.67 315.54 L0.45 315.54 L0.22 315.47 L0.15 315.39 L0.07 315.32 L0
						 315.24" class="st8"/>
		</g>
		<g id="shape112-281" v:mID="112" v:groupContext="shape" transform="translate(58.7322,-38.2821)">
			<title>Sheet.112</title>
			<path d="M0 315.17 L0 315.09 L0.07 315.02 L0.22 314.94 L0.37 314.94 L0.6 314.87 L0.82 314.79 L1.12 314.79 L1.42 314.79
						 L1.65 314.79 L1.95 314.79 L2.17 314.87 L2.39 314.94 L2.54 314.94 L2.69 315.02 L2.77 315.09 L2.77 315.17
						 L2.77 315.17 L2.77 315.24 L2.69 315.32 L2.54 315.39 L2.39 315.47 L2.17 315.54 L1.95 315.54 L1.65 315.62
						 L1.42 315.62 L1.12 315.62 L0.82 315.54 L0.6 315.54 L0.37 315.47 L0.22 315.39 L0.07 315.32 L0 315.24 L0 315.17
						 L0 315.17 Z" class="st9"/>
		</g>
		<g id="shape113-283" v:mID="113" v:groupContext="shape" transform="translate(58.7322,-38.2821)">
			<title>Sheet.113</title>
			<path d="M0 315.17 L0 315.09 L0.07 315.02 L0.22 314.94 L0.37 314.94 L0.6 314.87 L0.82 314.79 L1.12 314.79 L1.42 314.79
						 L1.65 314.79 L1.95 314.79 L2.17 314.87 L2.39 314.94 L2.54 314.94 L2.69 315.02 L2.77 315.09 L2.77 315.17
						 L2.77 315.17 L2.77 315.24 L2.69 315.32 L2.54 315.39 L2.39 315.47 L2.17 315.54 L1.95 315.54 L1.65 315.62
						 L1.42 315.62 L1.12 315.62 L0.82 315.54 L0.6 315.54 L0.37 315.47 L0.22 315.39 L0.07 315.32 L0 315.24 L0 315.17"
					class="st8"/>
		</g>
		<g id="shape114-286" v:mID="114" v:groupContext="shape" transform="translate(57.61,-36.7085)">
			<title>Sheet.114</title>
			<path d="M0 315.24 L0 315.09 L0.07 315.02 L0.22 315.02 L0.37 314.94 L0.6 314.87 L0.82 314.87 L1.12 314.79 L1.42 314.79
						 L1.65 314.79 L1.95 314.87 L2.17 314.87 L2.39 314.94 L2.54 315.02 L2.69 315.02 L2.77 315.09 L2.77 315.24
						 L2.77 315.24 L2.77 315.32 L2.69 315.39 L2.54 315.39 L2.39 315.47 L2.17 315.54 L1.95 315.54 L1.65 315.62
						 L1.42 315.62 L1.12 315.62 L0.82 315.54 L0.6 315.54 L0.37 315.47 L0.22 315.39 L0.07 315.39 L0 315.32 L0 315.24
						 L0 315.24 Z" class="st9"/>
		</g>
		<g id="shape115-288" v:mID="115" v:groupContext="shape" transform="translate(57.61,-36.7085)">
			<title>Sheet.115</title>
			<path d="M0 315.24 L0 315.09 L0.07 315.02 L0.22 315.02 L0.37 314.94 L0.6 314.87 L0.82 314.87 L1.12 314.79 L1.42 314.79
						 L1.65 314.79 L1.95 314.87 L2.17 314.87 L2.39 314.94 L2.54 315.02 L2.69 315.02 L2.77 315.09 L2.77 315.24
						 L2.77 315.24 L2.77 315.32 L2.69 315.39 L2.54 315.39 L2.39 315.47 L2.17 315.54 L1.95 315.54 L1.65 315.62
						 L1.42 315.62 L1.12 315.62 L0.82 315.54 L0.6 315.54 L0.37 315.47 L0.22 315.39 L0.07 315.39 L0 315.32 L0 315.24"
					class="st8"/>
		</g>
		<g id="shape116-291" v:mID="116" v:groupContext="shape" transform="translate(68.009,-39.9307)">
			<title>Sheet.116</title>
			<path d="M0 315.24 L0 315.17 L0.07 315.09 L0.22 315.02 L0.37 314.94 L0.6 314.94 L0.82 314.87 L1.05 314.87 L1.35 314.87
						 L1.65 314.87 L1.95 314.87 L2.17 314.94 L2.39 314.94 L2.54 315.02 L2.69 315.09 L2.77 315.17 L2.77 315.24
						 L2.77 315.24 L2.77 315.32 L2.69 315.39 L2.54 315.47 L2.39 315.54 L2.17 315.54 L1.95 315.62 L1.65 315.62
						 L1.35 315.62 L1.05 315.62 L0.82 315.62 L0.6 315.54 L0.37 315.54 L0.22 315.47 L0.07 315.39 L0 315.32 L0 315.24
						 L0 315.24 Z" class="st9"/>
		</g>
		<g id="shape117-293" v:mID="117" v:groupContext="shape" transform="translate(68.009,-39.9307)">
			<title>Sheet.117</title>
			<path d="M0 315.24 L0 315.17 L0.07 315.09 L0.22 315.02 L0.37 314.94 L0.6 314.94 L0.82 314.87 L1.05 314.87 L1.35 314.87
						 L1.65 314.87 L1.95 314.87 L2.17 314.94 L2.39 314.94 L2.54 315.02 L2.69 315.09 L2.77 315.17 L2.77 315.24
						 L2.77 315.24 L2.77 315.32 L2.69 315.39 L2.54 315.47 L2.39 315.54 L2.17 315.54 L1.95 315.62 L1.65 315.62
						 L1.35 315.62 L1.05 315.62 L0.82 315.62 L0.6 315.54 L0.37 315.54 L0.22 315.47 L0.07 315.39 L0 315.32 L0 315.24"
					class="st8"/>
		</g>
		<g id="shape118-296" v:mID="118" v:groupContext="shape" transform="translate(85.9641,-24.794)">
			<title>Sheet.118</title>
			<path d="M0 315.62 L10.1 315.62" class="st8"/>
		</g>
		<g id="shape119-299" v:mID="119" v:groupContext="shape" transform="translate(76.0888,-24.4193)">
			<title>Sheet.119</title>
			<path d="M0 315.24 L0.07 315.17 L0.15 315.09 L0.22 315.02 L0.45 314.94 L0.67 314.87 L0.9 314.87 L1.12 314.79 L1.42 314.79
						 L1.72 314.79 L1.95 314.87 L2.24 314.87 L2.39 314.94 L2.62 315.02 L2.69 315.09 L2.77 315.17 L2.84 315.24
						 L2.84 315.24 L2.77 315.32 L2.69 315.39 L2.62 315.47 L2.39 315.47 L2.24 315.54 L1.95 315.54 L1.72 315.62
						 L1.42 315.62 L1.12 315.62 L0.9 315.54 L0.67 315.54 L0.45 315.47 L0.22 315.47 L0.15 315.39 L0.07 315.32 L0
						 315.24 L0 315.24 Z" class="st9"/>
		</g>
		<g id="shape120-301" v:mID="120" v:groupContext="shape" transform="translate(76.0888,-24.4193)">
			<title>Sheet.120</title>
			<path d="M0 315.24 L0.07 315.17 L0.15 315.09 L0.22 315.02 L0.45 314.94 L0.67 314.87 L0.9 314.87 L1.12 314.79 L1.42 314.79
						 L1.72 314.79 L1.95 314.87 L2.24 314.87 L2.39 314.94 L2.62 315.02 L2.69 315.09 L2.77 315.17 L2.84 315.24
						 L2.84 315.24 L2.77 315.32 L2.69 315.39 L2.62 315.47 L2.39 315.47 L2.24 315.54 L1.95 315.54 L1.72 315.62
						 L1.42 315.62 L1.12 315.62 L0.9 315.54 L0.67 315.54 L0.45 315.47 L0.22 315.47 L0.15 315.39 L0.07 315.32 L0
						 315.24" class="st8"/>
		</g>
		<g id="shape121-304" v:mID="121" v:groupContext="shape" transform="translate(82.8219,-24.4193)">
			<title>Sheet.121</title>
			<path d="M0 315.24 L0.07 315.17 L0.15 315.09 L0.22 315.02 L0.45 314.94 L0.67 314.87 L0.9 314.87 L1.12 314.79 L1.42 314.79
						 L1.72 314.79 L1.95 314.87 L2.24 314.87 L2.39 314.94 L2.62 315.02 L2.69 315.09 L2.77 315.17 L2.84 315.24
						 L2.84 315.24 L2.77 315.32 L2.69 315.39 L2.62 315.47 L2.39 315.47 L2.24 315.54 L1.95 315.54 L1.72 315.62
						 L1.42 315.62 L1.12 315.62 L0.9 315.54 L0.67 315.54 L0.45 315.47 L0.22 315.47 L0.15 315.39 L0.07 315.32 L0
						 315.24 L0 315.24 Z" class="st9"/>
		</g>
		<g id="shape122-306" v:mID="122" v:groupContext="shape" transform="translate(82.8219,-24.4193)">
			<title>Sheet.122</title>
			<path d="M0 315.24 L0.07 315.17 L0.15 315.09 L0.22 315.02 L0.45 314.94 L0.67 314.87 L0.9 314.87 L1.12 314.79 L1.42 314.79
						 L1.72 314.79 L1.95 314.87 L2.24 314.87 L2.39 314.94 L2.62 315.02 L2.69 315.09 L2.77 315.17 L2.84 315.24
						 L2.84 315.24 L2.77 315.32 L2.69 315.39 L2.62 315.47 L2.39 315.47 L2.24 315.54 L1.95 315.54 L1.72 315.62
						 L1.42 315.62 L1.12 315.62 L0.9 315.54 L0.67 315.54 L0.45 315.47 L0.22 315.47 L0.15 315.39 L0.07 315.32 L0
						 315.24" class="st8"/>
		</g>
		<g id="shape123-309" v:mID="123" v:groupContext="shape" transform="translate(63.221,-40.3053)">
			<title>Sheet.123</title>
			<path d="M0 315.62 L4.79 315.62" class="st8"/>
		</g>
		<g id="shape124-312" v:mID="124" v:groupContext="shape" transform="translate(60.3781,-33.9359)">
			<title>Sheet.124</title>
			<path d="M0 312.47 L6.21 312.47 L1.72 315.62" class="st8"/>
		</g>
		<g id="shape125-315" v:mID="125" v:groupContext="shape" transform="translate(61.5003,-38.7317)">
			<title>Sheet.125</title>
			<path d="M0 315.62 L19.98 315.62" class="st8"/>
		</g>
		<g id="shape126-318" v:mID="126" v:groupContext="shape" transform="translate(81.4753,-38.2821)">
			<title>Sheet.126</title>
			<path d="M0 315.17 L0 315.09 L0.07 315.02 L0.22 314.94 L0.37 314.94 L0.6 314.87 L0.82 314.79 L1.05 314.79 L1.35 314.79
						 L1.65 314.79 L1.95 314.79 L2.17 314.87 L2.39 314.94 L2.54 314.94 L2.69 315.02 L2.77 315.09 L2.77 315.17
						 L2.77 315.17 L2.77 315.24 L2.69 315.32 L2.54 315.39 L2.39 315.47 L2.17 315.54 L1.95 315.54 L1.65 315.62
						 L1.35 315.62 L1.05 315.62 L0.82 315.54 L0.6 315.54 L0.37 315.47 L0.22 315.39 L0.07 315.32 L0 315.24 L0 315.17
						 L0 315.17 Z" class="st9"/>
		</g>
		<g id="shape127-320" v:mID="127" v:groupContext="shape" transform="translate(81.4753,-38.2821)">
			<title>Sheet.127</title>
			<path d="M0 315.17 L0 315.09 L0.07 315.02 L0.22 314.94 L0.37 314.94 L0.6 314.87 L0.82 314.79 L1.05 314.79 L1.35 314.79
						 L1.65 314.79 L1.95 314.79 L2.17 314.87 L2.39 314.94 L2.54 314.94 L2.69 315.02 L2.77 315.09 L2.77 315.17
						 L2.77 315.17 L2.77 315.24 L2.69 315.32 L2.54 315.39 L2.39 315.47 L2.17 315.54 L1.95 315.54 L1.65 315.62
						 L1.35 315.62 L1.05 315.62 L0.82 315.54 L0.6 315.54 L0.37 315.47 L0.22 315.39 L0.07 315.32 L0 315.24 L0 315.17"
					class="st8"/>
		</g>
		<g id="shape128-323" v:mID="128" v:groupContext="shape" transform="translate(90.1536,-38.2821)">
			<title>Sheet.128</title>
			<path d="M0 315.17 L0 315.09 L0.07 315.02 L0.22 314.94 L0.37 314.94 L0.6 314.87 L0.82 314.79 L1.12 314.79 L1.42 314.79
						 L1.65 314.79 L1.95 314.79 L2.17 314.87 L2.39 314.94 L2.54 314.94 L2.69 315.02 L2.77 315.09 L2.77 315.17
						 L2.77 315.17 L2.77 315.24 L2.69 315.32 L2.54 315.39 L2.39 315.47 L2.17 315.54 L1.95 315.54 L1.65 315.62
						 L1.42 315.62 L1.12 315.62 L0.82 315.54 L0.6 315.54 L0.37 315.47 L0.22 315.39 L0.07 315.32 L0 315.24 L0 315.17
						 L0 315.17 Z" class="st9"/>
		</g>
		<g id="shape129-325" v:mID="129" v:groupContext="shape" transform="translate(90.1536,-38.2821)">
			<title>Sheet.129</title>
			<path d="M0 315.17 L0 315.09 L0.07 315.02 L0.22 314.94 L0.37 314.94 L0.6 314.87 L0.82 314.79 L1.12 314.79 L1.42 314.79
						 L1.65 314.79 L1.95 314.79 L2.17 314.87 L2.39 314.94 L2.54 314.94 L2.69 315.02 L2.77 315.09 L2.77 315.17
						 L2.77 315.17 L2.77 315.24 L2.69 315.32 L2.54 315.39 L2.39 315.47 L2.17 315.54 L1.95 315.54 L1.65 315.62
						 L1.42 315.62 L1.12 315.62 L0.82 315.54 L0.6 315.54 L0.37 315.47 L0.22 315.39 L0.07 315.32 L0 315.24 L0 315.17"
					class="st8"/>
		</g>
		<g id="shape130-328" v:mID="130" v:groupContext="shape" transform="translate(86.1885,-32.737)">
			<title>Sheet.130</title>
			<path d="M0 315.62 L5.61 315.62 L13.77 309.77 L6.73 309.62" class="st8"/>
		</g>
		<g id="shape131-331" v:mID="131" v:groupContext="shape" transform="translate(60.8269,-33.3365)">
			<title>Sheet.131</title>
			<path d="M0 315.39 L0 315.32 L0 315.32 L0.07 315.24 L0.15 315.24 L0.45 315.17 L0.67 315.17 L0.97 315.17 L1.12 315.17
						 L1.2 315.24 L1.27 315.24 L1.35 315.32 L1.42 315.32 L1.42 315.39 L1.42 315.39 L1.42 315.47 L1.35 315.47 L1.27
						 315.54 L1.2 315.54 L1.12 315.62 L0.97 315.62 L0.67 315.62 L0.45 315.62 L0.15 315.54 L0.07 315.54 L0 315.47
						 L0 315.47 L0 315.39 L0 315.39 Z" class="st9"/>
		</g>
		<g id="shape132-333" v:mID="132" v:groupContext="shape" transform="translate(60.8269,-33.3365)">
			<title>Sheet.132</title>
			<path d="M0 315.39 L0 315.32 L0 315.32 L0.07 315.24 L0.15 315.24 L0.45 315.17 L0.67 315.17 L0.97 315.17 L1.12 315.17
						 L1.2 315.24 L1.27 315.24 L1.35 315.32 L1.42 315.32 L1.42 315.39 L1.42 315.39 L1.42 315.47 L1.35 315.47 L1.27
						 315.54 L1.2 315.54 L1.12 315.62 L0.97 315.62 L0.67 315.62 L0.45 315.62 L0.15 315.54 L0.07 315.54 L0 315.47
						 L0 315.47 L0 315.39" class="st8"/>
		</g>
		<g id="shape133-336" v:mID="133" v:groupContext="shape" transform="translate(77.211,-26.1428)">
			<title>Sheet.133</title>
			<path d="M0 315.32 L0 315.32 L0.07 315.24 L0.15 315.24 L0.22 315.17 L0.3 315.17 L0.45 315.09 L0.75 315.09 L1.05 315.09
						 L1.27 315.17 L1.35 315.24 L1.42 315.24 L1.42 315.32 L1.5 315.32 L1.5 315.32 L1.42 315.39 L1.42 315.47 L1.35
						 315.47 L1.27 315.54 L1.05 315.62 L0.75 315.62 L0.45 315.62 L0.3 315.54 L0.22 315.54 L0.15 315.47 L0.07 315.47
						 L0 315.39 L0 315.32 L0 315.32 Z" class="st9"/>
		</g>
		<g id="shape134-338" v:mID="134" v:groupContext="shape" transform="translate(77.211,-26.1428)">
			<title>Sheet.134</title>
			<path d="M0 315.32 L0 315.32 L0.07 315.24 L0.15 315.24 L0.22 315.17 L0.3 315.17 L0.45 315.09 L0.75 315.09 L1.05 315.09
						 L1.27 315.17 L1.35 315.24 L1.42 315.24 L1.42 315.32 L1.5 315.32 L1.5 315.32 L1.42 315.39 L1.42 315.47 L1.35
						 315.47 L1.27 315.54 L1.05 315.62 L0.75 315.62 L0.45 315.62 L0.3 315.54 L0.22 315.54 L0.15 315.47 L0.07 315.47
						 L0 315.39 L0 315.32" class="st8"/>
		</g>
		<g id="shape135-341" v:mID="135" v:groupContext="shape" transform="translate(96.1386,-24.794)">
			<title>Sheet.135</title>
			<path d="M0 315.62 L37.33 315.62 L55.14 302.88 L9.13 302.88" class="st8"/>
		</g>
		<g id="shape136-344" v:mID="136" v:groupContext="shape" transform="translate(135.565,-37.5328)">
			<title>Sheet.136</title>
			<path d="M19.98 315.62 L0 315.62" class="st8"/>
		</g>
		<g id="shape137-347" v:mID="137" v:groupContext="shape" transform="translate(155.465,-37.233)">
			<title>Sheet.137</title>
			<path d="M0 315.32 L0 315.32 L0.07 315.24 L0.15 315.17 L0.22 315.17 L0.45 315.09 L0.75 315.09 L0.97 315.09 L1.12 315.09
						 L1.2 315.17 L1.35 315.17 L1.42 315.24 L1.42 315.32 L1.42 315.32 L1.42 315.32 L1.42 315.39 L1.42 315.39 L1.35
						 315.47 L1.2 315.54 L1.12 315.54 L0.97 315.54 L0.75 315.62 L0.45 315.54 L0.22 315.54 L0.15 315.47 L0.07 315.39
						 L0 315.39 L0 315.32 L0 315.32 Z" class="st9"/>
		</g>
		<g id="shape138-349" v:mID="138" v:groupContext="shape" transform="translate(155.465,-37.233)">
			<title>Sheet.138</title>
			<path d="M0 315.32 L0 315.32 L0.07 315.24 L0.15 315.17 L0.22 315.17 L0.45 315.09 L0.75 315.09 L0.97 315.09 L1.12 315.09
						 L1.2 315.17 L1.35 315.17 L1.42 315.24 L1.42 315.32 L1.42 315.32 L1.42 315.32 L1.42 315.39 L1.42 315.39 L1.35
						 315.47 L1.2 315.54 L1.12 315.54 L0.97 315.54 L0.75 315.62 L0.45 315.54 L0.22 315.54 L0.15 315.47 L0.07 315.39
						 L0 315.39 L0 315.32" class="st8"/>
		</g>
		<g id="shape139-352" v:mID="139" v:groupContext="shape" transform="translate(54.36,-39.96)">
			<title>Ellipse.139</title>
			<v:userDefs>
				<v:ud v:nameU="visVersion" v:val="VT0(11):26"/>
			</v:userDefs>
			<path d="M0 315.26 a1.08 0.36 0 0 1 2.16 0 a1.08 0.36 0 0 1 -2.16 0 Z" class="st10"/>
		</g>
		<g id="shape140-354" v:mID="140" v:groupContext="shape" transform="translate(52.92,-38.52)">
			<title>Ellipse.140</title>
			<v:userDefs>
				<v:ud v:nameU="visVersion" v:val="VT0(11):26"/>
			</v:userDefs>
			<path d="M0 315.26 a1.08 0.36 0 0 1 2.16 0 a1.08 0.36 0 0 1 -2.16 0 Z" class="st10"/>
		</g>
		<g id="shape141-356" v:mID="141" v:groupContext="shape" transform="translate(51.84,-36.72)">
			<title>Ellipse.141</title>
			<v:userDefs>
				<v:ud v:nameU="visVersion" v:val="VT0(11):26"/>
			</v:userDefs>
			<path d="M0 315.26 a1.08 0.36 0 0 1 2.16 0 a1.08 0.36 0 0 1 -2.16 0 Z" class="st10"/>
		</g>
		<g id="shape142-358" v:mID="142" v:groupContext="shape" transform="translate(68.4,-39.96)">
			<title>Ellipse.142</title>
			<v:userDefs>
				<v:ud v:nameU="visVersion" v:val="VT0(11):26"/>
			</v:userDefs>
			<path d="M0 315.26 a1.08 0.36 0 0 1 2.16 0 a1.08 0.36 0 0 1 -2.16 0 Z" class="st10"/>
		</g>
		<g id="shape143-360" v:mID="143" v:groupContext="shape" transform="translate(60.84,-39.96)">
			<title>Ellipse.143</title>
			<v:userDefs>
				<v:ud v:nameU="visVersion" v:val="VT0(11):26"/>
			</v:userDefs>
			<path d="M0 315.26 a1.08 0.36 0 0 1 2.16 0 a1.08 0.36 0 0 1 -2.16 0 Z" class="st10"/>
		</g>
		<g id="shape144-362" v:mID="144" v:groupContext="shape" transform="translate(59.04,-38.52)">
			<title>Ellipse.144</title>
			<v:userDefs>
				<v:ud v:nameU="visVersion" v:val="VT0(11):26"/>
			</v:userDefs>
			<path d="M0 315.26 a1.08 0.36 0 0 1 2.16 0 a1.08 0.36 0 0 1 -2.16 0 Z" class="st10"/>
		</g>
		<g id="shape145-364" v:mID="145" v:groupContext="shape" transform="translate(57.96,-36.72)">
			<title>Ellipse.145</title>
			<v:userDefs>
				<v:ud v:nameU="visVersion" v:val="VT0(11):26"/>
			</v:userDefs>
			<path d="M0 315.26 a1.08 0.36 0 0 1 2.16 0 a1.08 0.36 0 0 1 -2.16 0 Z" class="st10"/>
		</g>
		<g id="shape146-366" v:mID="146" v:groupContext="shape" transform="translate(81.72,-38.52)">
			<title>Ellipse.153</title>
			<v:userDefs>
				<v:ud v:nameU="visVersion" v:val="VT0(11):26"/>
			</v:userDefs>
			<path d="M0 315.26 a1.08 0.36 0 0 1 2.16 0 a1.08 0.36 0 0 1 -2.16 0 Z" class="st10"/>
		</g>
		<g id="shape147-368" v:mID="147" v:groupContext="shape" transform="translate(76.68,-24.48)">
			<title>Ellipse.154</title>
			<v:userDefs>
				<v:ud v:nameU="visVersion" v:val="VT0(11):26"/>
			</v:userDefs>
			<path d="M0 315.26 a1.08 0.36 0 0 1 2.16 0 a1.08 0.36 0 0 1 -2.16 0 Z" class="st10"/>
		</g>
		<g id="shape148-370" v:mID="148" v:groupContext="shape" transform="translate(77.4,-26.28)">
			<title>Ellipse.155</title>
			<v:userDefs>
				<v:ud v:nameU="visVersion" v:val="VT0(11):26"/>
			</v:userDefs>
			<path d="M0 315.44 a0.72 0.18 0 0 1 1.44 0 a0.72 0.18 0 1 1 -1.44 0 Z" class="st10"/>
		</g>
		<g id="shape149-372" v:mID="149" v:groupContext="shape" transform="translate(83.16,-24.48)">
			<title>Ellipse.156</title>
			<v:userDefs>
				<v:ud v:nameU="visVersion" v:val="VT0(11):26"/>
			</v:userDefs>
			<path d="M0 315.26 a1.08 0.36 0 0 1 2.16 0 a1.08 0.36 0 0 1 -2.16 0 Z" class="st10"/>
		</g>
		<g id="shape150-374" v:mID="150" v:groupContext="shape" transform="translate(90.36,-38.52)">
			<title>Ellipse.157</title>
			<v:userDefs>
				<v:ud v:nameU="visVersion" v:val="VT0(11):26"/>
			</v:userDefs>
			<path d="M0 315.26 a1.08 0.36 0 0 1 2.16 0 a1.08 0.36 0 0 1 -2.16 0 Z" class="st10"/>
		</g>
		<g id="shape151-376" v:mID="151" v:groupContext="shape" transform="translate(60.84,-33.48)">
			<title>Ellipse.158</title>
			<v:userDefs>
				<v:ud v:nameU="visVersion" v:val="VT0(11):26"/>
			</v:userDefs>
			<path d="M0 315.44 a0.72 0.18 0 0 1 1.44 0 a0.72 0.18 0 1 1 -1.44 0 Z" class="st10"/>
		</g>
		<g id="shape152-378" v:mID="152" v:groupContext="shape" transform="translate(154.8,-37.08)">
			<title>Ellipse.159</title>
			<v:userDefs>
				<v:ud v:nameU="visVersion" v:val="VT0(11):26"/>
			</v:userDefs>
			<path d="M0 315.26 a1.08 0.36 0 0 1 2.16 0 a1.08 0.36 0 0 1 -2.16 0 Z" class="st10"/>
		</g>
		<g id="shape153-380" v:mID="153" v:groupContext="shape" transform="translate(0.36,-17.64)">
			<title>Rectangle.160</title>
			<v:userDefs>
				<v:ud v:nameU="visVersion" v:val="VT0(11):26"/>
			</v:userDefs>
			<rect x="0" y="314.176" width="144" height="1.44" class="st1"/>
		</g>
		<g id="shape154-382" v:mID="154" v:groupContext="shape" transform="translate(0.36,-0.36)">
			<title>Sheet.154</title>
			<desc>Soldermask applied to keep solder only where needed</desc>
			<v:textBlock v:margins="rect(4,0,4,0)"/>
			<v:textRect cx="100.8" cy="307.448" width="201.6" height="16.336"/>
			<rect x="0" y="299.28" width="201.6" height="16.336" class="st2"/>
			<text x="0" y="309.85" class="st3" v:langID="1033"><v:paragraph/><v:tabList/>Soldermask applied to keep solder only where needed</text>		</g>
	</g>
</svg>
