<?xml version="1.0" encoding="UTF-8" standalone="no"?>
<!DOCTYPE svg PUBLIC "-//W3C//DTD SVG 1.1//EN" "http://www.w3.org/Graphics/SVG/1.1/DTD/svg11.dtd">
<!-- Generated by Microsoft Visio, SVG Export DigitizeAnAnalogSignal.svg Page-1 -->
<svg xmlns="http://www.w3.org/2000/svg" xmlns:xlink="http://www.w3.org/1999/xlink" xmlns:ev="http://www.w3.org/2001/xml-events"
		xmlns:v="http://schemas.microsoft.com/visio/2003/SVGExtensions/" width="2.74653in" height="2.23436in"
		viewBox="0 0 197.75 160.874" xml:space="preserve" color-interpolation-filters="sRGB" class="st12">
	<v:documentProperties v:langID="1033" v:viewMarkup="false"/>

	<style type="text/css">
	<![CDATA[
		.st1 {stroke:#007f7f;stroke-linecap:round;stroke-linejoin:round;stroke-width:0.75}
		.st2 {stroke:#000000;stroke-width:0.75}
		.st3 {stroke:#000000;stroke-dasharray:0,2.25;stroke-linecap:round;stroke-linejoin:round;stroke-width:0.75}
		.st4 {visibility:visible}
		.st5 {fill:#5b9bd5;fill-opacity:0.22;filter:url(#filter_2);stroke:#5b9bd5;stroke-opacity:0.22}
		.st6 {fill:#000000;stroke:#000000;stroke-width:0.25}
		.st7 {fill:none;stroke:none;stroke-width:0.25}
		.st8 {fill:#000000;font-family:Calibri;font-size:1.00001em}
		.st9 {marker-end:url(#mrkr4-70);stroke:#000000;stroke-linecap:round;stroke-linejoin:round;stroke-width:0.5}
		.st10 {fill:#000000;fill-opacity:1;stroke:#000000;stroke-opacity:1;stroke-width:0.25773195876289}
		.st11 {font-size:1em}
		.st12 {fill:none;fill-rule:evenodd;font-size:12px;overflow:visible;stroke-linecap:square;stroke-miterlimit:3}
	]]>
	</style>

	<defs id="Markers">
		<g id="lend4">
			<path d="M 2 1 L 0 0 L 2 -1 L 2 1 " style="stroke:none"/>
		</g>
		<marker id="mrkr4-70" class="st10" v:arrowType="4" v:arrowSize="0" v:setback="7.04" refX="-7.04" orient="auto"
				markerUnits="strokeWidth" overflow="visible">
			<use xlink:href="#lend4" transform="scale(-3.88,-3.88) "/>
		</marker>
	</defs>
	<defs id="Filters">
		<filter id="filter_2">
			<feGaussianBlur stdDeviation="2"/>
		</filter>
	</defs>
	<g v:mID="0" v:index="1" v:groupContext="foregroundPage">
		<title>Page-1</title>
		<v:pageProperties v:drawingScale="1" v:pageScale="1" v:drawingUnits="19" v:shadowOffsetX="9" v:shadowOffsetY="-9"/>
		<g id="shape1-1" v:mID="1" v:groupContext="shape" transform="translate(90.7524,-71.3841) rotate(15.9454)">
			<title>Sheet.1</title>
			<path d="M0 155.17 C-0.3 131.82 7.38 93.8 16.93 87.2 C22.77 83.16 29.3 90.86 34.43 101.59 C40.12 113.5 44.08 129.15 48.91
						 140.11 C58.95 162.86 72.76 165.42 93.5 155.17" class="st1"/>
		</g>
		<g id="shape2-4" v:mID="2" v:groupContext="shape" transform="translate(31.0001,-40.25)">
			<title>Sheet.2</title>
			<path d="M0 41 L0 160.87 L119.87 160.87" class="st2"/>
		</g>
		<g id="shape3-7" v:mID="3" v:groupContext="shape" transform="translate(-104.187,120.624) rotate(-90)">
			<title>Sheet.3</title>
			<path d="M0 160.87 L72.9 160.87" class="st3"/>
		</g>
		<g id="shape4-10" v:mID="4" v:groupContext="shape" transform="translate(55.5537,-104.468)">
			<title>Circle</title>
			<v:userDefs>
				<v:ud v:nameU="visVersion" v:val="VT0(15):26"/>
			</v:userDefs>
			<g id="shadow4-11" v:groupContext="shadow" v:shadowOffsetX="0.345598" v:shadowOffsetY="-1.97279" v:shadowType="1"
					transform="matrix(1,0,0,1,0.345598,1.97279)" class="st4">
				<path d="M0 159.74 A1.13368 1.13368 0 0 1 2.27 159.74 A1.13368 1.13368 0 1 1 0 159.74 Z" class="st5"/>
			</g>
			<path d="M0 159.74 A1.13368 1.13368 0 0 1 2.27 159.74 A1.13368 1.13368 0 1 1 0 159.74 Z" class="st6"/>
		</g>
		<g id="shape5-15" v:mID="5" v:groupContext="shape" transform="translate(-97.7649,120.745) rotate(-90.043)">
			<title>Sheet.5</title>
			<path d="M0 160.87 L84.4 160.87" class="st3"/>
		</g>
		<g id="shape6-18" v:mID="6" v:groupContext="shape" transform="translate(61.9121,-118.822)">
			<title>Circle.53</title>
			<v:userDefs>
				<v:ud v:nameU="visVersion" v:val="VT0(15):26"/>
			</v:userDefs>
			<g id="shadow6-19" v:groupContext="shadow" v:shadowOffsetX="0.345598" v:shadowOffsetY="-1.97279" v:shadowType="1"
					transform="matrix(1,0,0,1,0.345598,1.97279)" class="st4">
				<path d="M0 159.74 A1.13368 1.13368 0 0 1 2.27 159.74 A1.13368 1.13368 0 1 1 0 159.74 Z" class="st5"/>
			</g>
			<path d="M0 159.74 A1.13368 1.13368 0 0 1 2.27 159.74 A1.13368 1.13368 0 1 1 0 159.74 Z" class="st6"/>
		</g>
		<g id="shape7-23" v:mID="7" v:groupContext="shape" transform="translate(-91.3431,120.624) rotate(-90)">
			<title>Sheet.7</title>
			<path d="M0 160.87 L92.56 160.87" class="st3"/>
		</g>
		<g id="shape8-26" v:mID="8" v:groupContext="shape" transform="translate(68.3973,-129.022)">
			<title>Circle.55</title>
			<v:userDefs>
				<v:ud v:nameU="visVersion" v:val="VT0(15):26"/>
			</v:userDefs>
			<g id="shadow8-27" v:groupContext="shadow" v:shadowOffsetX="0.345598" v:shadowOffsetY="-1.97279" v:shadowType="1"
					transform="matrix(1,0,0,1,0.345598,1.97279)" class="st4">
				<path d="M0 159.74 A1.13368 1.13368 0 0 1 2.27 159.74 A1.13368 1.13368 0 1 1 0 159.74 Z" class="st5"/>
			</g>
			<path d="M0 159.74 A1.13368 1.13368 0 0 1 2.27 159.74 A1.13368 1.13368 0 1 1 0 159.74 Z" class="st6"/>
		</g>
		<g id="shape9-31" v:mID="9" v:groupContext="shape" transform="translate(-84.9211,120.405) rotate(-89.922)">
			<title>Sheet.9</title>
			<path d="M0 160.87 L98.97 160.87" class="st3"/>
		</g>
		<g id="shape10-34" v:mID="10" v:groupContext="shape" transform="translate(74.9539,-137.017)">
			<title>Circle.57</title>
			<v:userDefs>
				<v:ud v:nameU="visVersion" v:val="VT0(15):26"/>
			</v:userDefs>
			<g id="shadow10-35" v:groupContext="shadow" v:shadowOffsetX="0.345598" v:shadowOffsetY="-1.97279" v:shadowType="1"
					transform="matrix(1,0,0,1,0.345598,1.97279)" class="st4">
				<path d="M0 159.74 A1.13368 1.13368 0 0 1 2.27 159.74 A1.13368 1.13368 0 1 1 0 159.74 Z" class="st5"/>
			</g>
			<path d="M0 159.74 A1.13368 1.13368 0 0 1 2.27 159.74 A1.13368 1.13368 0 1 1 0 159.74 Z" class="st6"/>
		</g>
		<g id="shape11-39" v:mID="11" v:groupContext="shape" transform="translate(-78.4991,120.315) rotate(-89.8901)">
			<title>Sheet.11</title>
			<path d="M0 160.87 L103.25 160.87" class="st3"/>
		</g>
		<g id="shape12-42" v:mID="12" v:groupContext="shape" transform="translate(81.4391,-142.369)">
			<title>Circle.59</title>
			<v:userDefs>
				<v:ud v:nameU="visVersion" v:val="VT0(15):26"/>
			</v:userDefs>
			<g id="shadow12-43" v:groupContext="shadow" v:shadowOffsetX="0.345598" v:shadowOffsetY="-1.97279" v:shadowType="1"
					transform="matrix(1,0,0,1,0.345598,1.97279)" class="st4">
				<path d="M0 159.74 A1.13368 1.13368 0 0 1 2.27 159.74 A1.13368 1.13368 0 1 1 0 159.74 Z" class="st5"/>
			</g>
			<path d="M0 159.74 A1.13368 1.13368 0 0 1 2.27 159.74 A1.13368 1.13368 0 1 1 0 159.74 Z" class="st6"/>
		</g>
		<g id="shape13-47" v:mID="13" v:groupContext="shape" transform="translate(30.6032,-105.538) rotate(-0.141354)">
			<title>Sheet.13</title>
			<path d="M0 160.87 L25.69 160.87" class="st3"/>
		</g>
		<g id="shape14-50" v:mID="14" v:groupContext="shape" transform="translate(32.5023,-120.248) rotate(0.535047)">
			<title>Sheet.14</title>
			<path d="M0 160.87 L32.05 160.87" class="st3"/>
		</g>
		<g id="shape15-53" v:mID="15" v:groupContext="shape" transform="translate(31.0001,-130.156)">
			<title>Sheet.15</title>
			<path d="M0 160.87 L38.53 160.87" class="st3"/>
		</g>
		<g id="shape16-56" v:mID="16" v:groupContext="shape" transform="translate(31.1131,-138.183) rotate(0.0402664)">
			<title>Sheet.16</title>
			<path d="M0 160.87 L45.09 160.87" class="st3"/>
		</g>
		<g id="shape17-59" v:mID="17" v:groupContext="shape" transform="translate(31.0989,-143.534) rotate(0.0352029)">
			<title>Sheet.17</title>
			<path d="M0 160.87 L51.57 160.87" class="st3"/>
		</g>
		<g id="shape18-62" v:mID="18" v:groupContext="shape" transform="translate(45.5001,-20.25)">
			<title>Sheet.18</title>
			<desc>Sample times</desc>
			<v:textBlock v:margins="rect(4,4,4,4)"/>
			<v:textRect cx="76" cy="150.874" width="152" height="20"/>
			<rect x="0" y="140.874" width="152" height="20" class="st7"/>
			<text x="43.19" y="154.47" class="st8" v:langID="1033"><v:paragraph v:horizAlign="1"/><v:tabList/>Sample times</text>		</g>
		<g id="shape19-65" v:mID="19" v:groupContext="shape" transform="translate(145.76,-12.8241) rotate(22.6199) scale(-1,1)">
			<title>Sheet.19</title>
			<path d="M0 157.98 C9.48 161.37 17.42 161.76 25.59 159.27 L25.93 159.15" class="st9"/>
		</g>
		<g id="shape20-71" v:mID="20" v:groupContext="shape" transform="translate(234.243,81.2038) rotate(70.8605) scale(-1,1)">
			<title>Sheet.20</title>
			<path d="M0 157.98 C3.22 160.81 6.01 161.55 8.78 160.27 L9.07 160.05" class="st9"/>
		</g>
		<g id="shape21-76" v:mID="21" v:groupContext="shape" transform="translate(163.323,111.634) rotate(-67.3801) scale(1,-1)">
			<title>Sheet.21</title>
			<path d="M0 157.98 C9.48 161.37 17.42 161.76 25.59 159.27 L25.93 159.15" class="st9"/>
		</g>
		<g id="shape22-81" v:mID="22" v:groupContext="shape" transform="translate(69.2953,200.117) rotate(-19.1395) scale(1,-1)">
			<title>Sheet.22</title>
			<path d="M0 157.98 C3.22 160.81 6.01 161.55 8.78 160.27 L9.07 160.05" class="st9"/>
		</g>
		<g id="shape23-86" v:mID="23" v:groupContext="shape" transform="translate(-138.874,160.624) rotate(-90)">
			<title>Sheet.23</title>
			<desc>Sample Magnitudes</desc>
			<v:textBlock v:margins="rect(4,4,4,4)"/>
			<v:textRect cx="76" cy="150.874" width="152" height="20"/>
			<rect x="0" y="140.874" width="152" height="20" class="st7"/>
			<text x="58.06" y="147.87" class="st8" v:langID="1033"><v:paragraph v:spLine="-1" v:horizAlign="1"/><v:tabList/>Sample<v:newlineChar/><tspan
						x="47" dy="1em" class="st11">Magnitudes</tspan></text>		</g>
	</g>
</svg>
