<?xml version="1.0" encoding="UTF-8" standalone="no"?>
<!DOCTYPE svg PUBLIC "-//W3C//DTD SVG 1.1//EN" "http://www.w3.org/Graphics/SVG/1.1/DTD/svg11.dtd">
<!-- Generated by Microsoft Visio, SVG Export FF_Shifter.svg Page-1 -->
<svg xmlns="http://www.w3.org/2000/svg" xmlns:xlink="http://www.w3.org/1999/xlink" xmlns:ev="http://www.w3.org/2001/xml-events"
		xmlns:v="http://schemas.microsoft.com/visio/2003/SVGExtensions/" width="4.06469in" height="5.35396in"
		viewBox="0 0 292.657 385.485" xml:space="preserve" color-interpolation-filters="sRGB" class="st14">
	<v:documentProperties v:langID="1033" v:viewMarkup="false"/>

	<style type="text/css">
	<![CDATA[
		.st1 {fill:#d5e1fb;stroke:#000000;stroke-linecap:round;stroke-linejoin:round;stroke-width:0.24}
		.st2 {stroke:#000000;stroke-linecap:round;stroke-linejoin:round;stroke-width:0.72}
		.st3 {fill:none;stroke:none;stroke-linecap:round;stroke-linejoin:round;stroke-width:0.72}
		.st4 {fill:#000000;font-family:Arial;font-size:0.833336em}
		.st5 {stroke:#000000;stroke-linecap:round;stroke-linejoin:round;stroke-width:0.75}
		.st6 {fill:none;stroke:none;stroke-linecap:round;stroke-linejoin:round;stroke-width:0.75}
		.st7 {fill:#000000;font-family:Calibri;font-size:1.00001em}
		.st8 {fill:#d5e1fb;stroke:#000000;stroke-linecap:round;stroke-linejoin:round;stroke-width:0.75}
		.st9 {fill:#ff0000;stroke:#000000;stroke-linecap:round;stroke-linejoin:round;stroke-width:0.24}
		.st10 {stroke:#000000;stroke-linecap:round;stroke-linejoin:round;stroke-width:0.719473}
		.st11 {stroke:#000000;stroke-linecap:round;stroke-linejoin:round;stroke-width:0.719984}
		.st12 {stroke:#000000;stroke-linecap:round;stroke-linejoin:round;stroke-width:0.719492}
		.st13 {fill:#000000;font-family:Arial;font-size:0.666664em}
		.st14 {fill:none;fill-rule:evenodd;font-size:12px;overflow:visible;stroke-linecap:square;stroke-miterlimit:3}
	]]>
	</style>

	<g v:mID="0" v:index="1" v:groupContext="foregroundPage">
		<title>Page-1</title>
		<v:pageProperties v:drawingScale="1" v:pageScale="1" v:drawingUnits="19" v:shadowOffsetX="9" v:shadowOffsetY="-9"/>
		<g id="group42-1" transform="translate(125.661,-45.36)" v:mID="42" v:groupContext="group">
			<title>Sheet.42</title>
			<g id="shape32-2" v:mID="32" v:groupContext="shape" transform="translate(9,-9)">
				<title>Rectangle.32</title>
				<rect x="0" y="326.985" width="40.5" height="58.5" class="st1"/>
			</g>
			<g id="shape33-4" v:mID="33" v:groupContext="shape" transform="translate(0,-36)">
				<title>Sheet.33</title>
				<path d="M0 385.48 L9 385.48" class="st2"/>
			</g>
			<g id="shape34-7" v:mID="34" v:groupContext="shape" transform="translate(6.75,-51.75)">
				<title>Sheet.34</title>
				<desc>D</desc>
				<v:textBlock v:margins="rect(4,4,4,4)"/>
				<v:textRect cx="9" cy="378.735" width="18" height="13.5"/>
				<rect x="0" y="371.985" width="18" height="13.5" class="st3"/>
				<text x="5.39" y="381.74" class="st4" v:langID="1033"><v:paragraph v:horizAlign="1"/><v:tabList/>D</text>			</g>
			<g id="shape35-10" v:mID="35" v:groupContext="shape" transform="translate(33.75,-51.75)">
				<title>Sheet.35</title>
				<desc>Q</desc>
				<v:textBlock v:margins="rect(4,4,4,4)"/>
				<v:textRect cx="9" cy="378.735" width="18" height="13.5"/>
				<rect x="0" y="371.985" width="18" height="13.5" class="st3"/>
				<text x="5.11" y="381.74" class="st4" v:langID="1033"><v:paragraph v:horizAlign="1"/><v:tabList/>Q</text>			</g>
			<g id="shape36-13" v:mID="36" v:groupContext="shape" transform="translate(11.25,-29.25)">
				<title>Sheet.36</title>
				<desc>Clk</desc>
				<v:textBlock v:margins="rect(4,4,4,4)"/>
				<v:textRect cx="14.625" cy="378.735" width="29.25" height="13.5"/>
				<rect x="0" y="371.985" width="29.25" height="13.5" class="st3"/>
				<text x="7.4" y="381.74" class="st4" v:langID="1033"><v:paragraph v:horizAlign="1"/><v:tabList/>Clk</text>			</g>
			<g id="shape37-16" v:mID="37" v:groupContext="shape" transform="translate(18,-9)">
				<title>Sheet.37</title>
				<desc>Rst</desc>
				<v:textBlock v:margins="rect(4,4,4,4)"/>
				<v:textRect cx="11.8125" cy="380.985" width="23.63" height="9"/>
				<rect x="0" y="376.485" width="23.625" height="9" class="st3"/>
				<text x="4.31" y="383.99" class="st4" v:langID="1033"><v:paragraph v:horizAlign="1"/><v:tabList/>Rst</text>			</g>
			<g id="shape38-19" v:mID="38" v:groupContext="shape" transform="translate(9,-31.5)">
				<title>Sheet.38</title>
				<path d="M0 385.48 L6.75 380.98 L0 376.48" class="st2"/>
			</g>
			<g id="shape39-22" v:mID="39" v:groupContext="shape" transform="translate(0.136489,-59.2899)">
				<title>Sheet.39</title>
				<path d="M0 385.48 L9 385.48" class="st2"/>
			</g>
			<g id="shape40-25" v:mID="40" v:groupContext="shape" transform="translate(-356.235,385.485) rotate(-90)">
				<title>Sheet.40</title>
				<path d="M0 385.48 L9 385.48" class="st5"/>
			</g>
			<g id="shape41-28" v:mID="41" v:groupContext="shape" transform="translate(49.6365,-59.8558)">
				<title>Sheet.41</title>
				<path d="M0 385.48 L9 385.48" class="st2"/>
			</g>
		</g>
		<g id="group43-31" transform="translate(125.661,-121.86)" v:mID="43" v:groupContext="group">
			<title>Sheet.43</title>
			<g id="shape22-32" v:mID="22" v:groupContext="shape" transform="translate(9,-9)">
				<title>Rectangle.22</title>
				<rect x="0" y="326.985" width="40.5" height="58.5" class="st1"/>
			</g>
			<g id="shape23-34" v:mID="23" v:groupContext="shape" transform="translate(0,-36)">
				<title>Sheet.23</title>
				<path d="M0 385.48 L9 385.48" class="st2"/>
			</g>
			<g id="shape24-37" v:mID="24" v:groupContext="shape" transform="translate(6.75,-51.75)">
				<title>Sheet.24</title>
				<desc>D</desc>
				<v:textBlock v:margins="rect(4,4,4,4)"/>
				<v:textRect cx="9" cy="378.735" width="18" height="13.5"/>
				<rect x="0" y="371.985" width="18" height="13.5" class="st3"/>
				<text x="5.39" y="381.74" class="st4" v:langID="1033"><v:paragraph v:horizAlign="1"/><v:tabList/>D</text>			</g>
			<g id="shape25-40" v:mID="25" v:groupContext="shape" transform="translate(33.75,-51.75)">
				<title>Sheet.25</title>
				<desc>Q</desc>
				<v:textBlock v:margins="rect(4,4,4,4)"/>
				<v:textRect cx="9" cy="378.735" width="18" height="13.5"/>
				<rect x="0" y="371.985" width="18" height="13.5" class="st3"/>
				<text x="5.11" y="381.74" class="st4" v:langID="1033"><v:paragraph v:horizAlign="1"/><v:tabList/>Q</text>			</g>
			<g id="shape26-43" v:mID="26" v:groupContext="shape" transform="translate(11.25,-29.25)">
				<title>Sheet.26</title>
				<desc>Clk</desc>
				<v:textBlock v:margins="rect(4,4,4,4)"/>
				<v:textRect cx="14.625" cy="378.735" width="29.25" height="13.5"/>
				<rect x="0" y="371.985" width="29.25" height="13.5" class="st3"/>
				<text x="7.4" y="381.74" class="st4" v:langID="1033"><v:paragraph v:horizAlign="1"/><v:tabList/>Clk</text>			</g>
			<g id="shape27-46" v:mID="27" v:groupContext="shape" transform="translate(18,-9)">
				<title>Sheet.27</title>
				<desc>Rst</desc>
				<v:textBlock v:margins="rect(4,4,4,4)"/>
				<v:textRect cx="11.8125" cy="380.985" width="23.63" height="9"/>
				<rect x="0" y="376.485" width="23.625" height="9" class="st3"/>
				<text x="4.31" y="383.99" class="st4" v:langID="1033"><v:paragraph v:horizAlign="1"/><v:tabList/>Rst</text>			</g>
			<g id="shape28-49" v:mID="28" v:groupContext="shape" transform="translate(9,-31.5)">
				<title>Sheet.28</title>
				<path d="M0 385.48 L6.75 380.98 L0 376.48" class="st2"/>
			</g>
			<g id="shape29-52" v:mID="29" v:groupContext="shape" transform="translate(0.136489,-59.2899)">
				<title>Sheet.29</title>
				<path d="M0 385.48 L9 385.48" class="st2"/>
			</g>
			<g id="shape30-55" v:mID="30" v:groupContext="shape" transform="translate(-356.235,385.485) rotate(-90)">
				<title>Sheet.30</title>
				<path d="M0 385.48 L9 385.48" class="st5"/>
			</g>
			<g id="shape31-58" v:mID="31" v:groupContext="shape" transform="translate(49.6365,-59.8558)">
				<title>Sheet.31</title>
				<path d="M0 385.48 L9 385.48" class="st2"/>
			</g>
		</g>
		<g id="group44-61" transform="translate(125.661,-220.86)" v:mID="44" v:groupContext="group">
			<title>Sheet.44</title>
			<g id="shape12-62" v:mID="12" v:groupContext="shape" transform="translate(9,-9)">
				<title>Rectangle.12</title>
				<rect x="0" y="326.985" width="40.5" height="58.5" class="st1"/>
			</g>
			<g id="shape13-64" v:mID="13" v:groupContext="shape" transform="translate(0,-36)">
				<title>Sheet.13</title>
				<path d="M0 385.48 L9 385.48" class="st2"/>
			</g>
			<g id="shape14-67" v:mID="14" v:groupContext="shape" transform="translate(6.75,-51.75)">
				<title>Sheet.14</title>
				<desc>D</desc>
				<v:textBlock v:margins="rect(4,4,4,4)"/>
				<v:textRect cx="9" cy="378.735" width="18" height="13.5"/>
				<rect x="0" y="371.985" width="18" height="13.5" class="st3"/>
				<text x="5.39" y="381.74" class="st4" v:langID="1033"><v:paragraph v:horizAlign="1"/><v:tabList/>D</text>			</g>
			<g id="shape15-70" v:mID="15" v:groupContext="shape" transform="translate(33.75,-51.75)">
				<title>Sheet.15</title>
				<desc>Q</desc>
				<v:textBlock v:margins="rect(4,4,4,4)"/>
				<v:textRect cx="9" cy="378.735" width="18" height="13.5"/>
				<rect x="0" y="371.985" width="18" height="13.5" class="st3"/>
				<text x="5.11" y="381.74" class="st4" v:langID="1033"><v:paragraph v:horizAlign="1"/><v:tabList/>Q</text>			</g>
			<g id="shape16-73" v:mID="16" v:groupContext="shape" transform="translate(11.25,-29.25)">
				<title>Sheet.16</title>
				<desc>Clk</desc>
				<v:textBlock v:margins="rect(4,4,4,4)"/>
				<v:textRect cx="14.625" cy="378.735" width="29.25" height="13.5"/>
				<rect x="0" y="371.985" width="29.25" height="13.5" class="st3"/>
				<text x="7.4" y="381.74" class="st4" v:langID="1033"><v:paragraph v:horizAlign="1"/><v:tabList/>Clk</text>			</g>
			<g id="shape17-76" v:mID="17" v:groupContext="shape" transform="translate(18,-9)">
				<title>Sheet.17</title>
				<desc>Rst</desc>
				<v:textBlock v:margins="rect(4,4,4,4)"/>
				<v:textRect cx="11.8125" cy="380.985" width="23.63" height="9"/>
				<rect x="0" y="376.485" width="23.625" height="9" class="st3"/>
				<text x="4.31" y="383.99" class="st4" v:langID="1033"><v:paragraph v:horizAlign="1"/><v:tabList/>Rst</text>			</g>
			<g id="shape18-79" v:mID="18" v:groupContext="shape" transform="translate(9,-31.5)">
				<title>Sheet.18</title>
				<path d="M0 385.48 L6.75 380.98 L0 376.48" class="st2"/>
			</g>
			<g id="shape19-82" v:mID="19" v:groupContext="shape" transform="translate(0.136489,-59.2899)">
				<title>Sheet.19</title>
				<path d="M0 385.48 L9 385.48" class="st2"/>
			</g>
			<g id="shape20-85" v:mID="20" v:groupContext="shape" transform="translate(-356.235,385.485) rotate(-90)">
				<title>Sheet.20</title>
				<path d="M0 385.48 L9 385.48" class="st5"/>
			</g>
			<g id="shape21-88" v:mID="21" v:groupContext="shape" transform="translate(49.6365,-59.8558)">
				<title>Sheet.21</title>
				<path d="M0 385.48 L9 385.48" class="st2"/>
			</g>
		</g>
		<g id="group45-91" transform="translate(125.661,-297.686)" v:mID="45" v:groupContext="group">
			<title>Sheet.45</title>
			<g id="shape1-92" v:mID="1" v:groupContext="shape" transform="translate(9,-9)">
				<title>Rectangle.139</title>
				<rect x="0" y="326.985" width="40.5" height="58.5" class="st1"/>
			</g>
			<g id="shape2-94" v:mID="2" v:groupContext="shape" transform="translate(0,-36)">
				<title>Sheet.2</title>
				<path d="M0 385.48 L9 385.48" class="st2"/>
			</g>
			<g id="shape3-97" v:mID="3" v:groupContext="shape" transform="translate(6.75,-51.75)">
				<title>Sheet.3</title>
				<desc>D</desc>
				<v:textBlock v:margins="rect(4,4,4,4)"/>
				<v:textRect cx="9" cy="378.735" width="18" height="13.5"/>
				<rect x="0" y="371.985" width="18" height="13.5" class="st3"/>
				<text x="5.39" y="381.74" class="st4" v:langID="1033"><v:paragraph v:horizAlign="1"/><v:tabList/>D</text>			</g>
			<g id="shape4-100" v:mID="4" v:groupContext="shape" transform="translate(33.75,-51.75)">
				<title>Sheet.4</title>
				<desc>Q</desc>
				<v:textBlock v:margins="rect(4,4,4,4)"/>
				<v:textRect cx="9" cy="378.735" width="18" height="13.5"/>
				<rect x="0" y="371.985" width="18" height="13.5" class="st3"/>
				<text x="5.11" y="381.74" class="st4" v:langID="1033"><v:paragraph v:horizAlign="1"/><v:tabList/>Q</text>			</g>
			<g id="shape5-103" v:mID="5" v:groupContext="shape" transform="translate(11.25,-29.25)">
				<title>Sheet.5</title>
				<desc>Clk</desc>
				<v:textBlock v:margins="rect(4,4,4,4)"/>
				<v:textRect cx="14.625" cy="378.735" width="29.25" height="13.5"/>
				<rect x="0" y="371.985" width="29.25" height="13.5" class="st3"/>
				<text x="7.4" y="381.74" class="st4" v:langID="1033"><v:paragraph v:horizAlign="1"/><v:tabList/>Clk</text>			</g>
			<g id="shape6-106" v:mID="6" v:groupContext="shape" transform="translate(18,-9)">
				<title>Sheet.6</title>
				<desc>Rst</desc>
				<v:textBlock v:margins="rect(4,4,4,4)"/>
				<v:textRect cx="11.8125" cy="380.985" width="23.63" height="9"/>
				<rect x="0" y="376.485" width="23.625" height="9" class="st3"/>
				<text x="4.31" y="383.99" class="st4" v:langID="1033"><v:paragraph v:horizAlign="1"/><v:tabList/>Rst</text>			</g>
			<g id="shape7-109" v:mID="7" v:groupContext="shape" transform="translate(9,-31.5)">
				<title>Sheet.7</title>
				<path d="M0 385.48 L6.75 380.98 L0 376.48" class="st2"/>
			</g>
			<g id="shape8-112" v:mID="8" v:groupContext="shape" transform="translate(0.136489,-59.2899)">
				<title>Sheet.8</title>
				<path d="M0 385.48 L9 385.48" class="st2"/>
			</g>
			<g id="shape9-115" v:mID="9" v:groupContext="shape" transform="translate(-356.235,385.485) rotate(-90)">
				<title>Sheet.9</title>
				<path d="M0 385.48 L9 385.48" class="st5"/>
			</g>
			<g id="shape10-118" v:mID="10" v:groupContext="shape" transform="translate(49.6365,-59.8558)">
				<title>Sheet.10</title>
				<path d="M0 385.48 L9 385.48" class="st2"/>
			</g>
		</g>
		<g id="shape46-121" v:mID="46" v:groupContext="shape" transform="translate(533.908,161.375) rotate(90)">
			<title>Sheet.46</title>
			<desc>...</desc>
			<v:textBlock v:margins="rect(4,4,4,4)"/>
			<v:textRect cx="20" cy="375.485" width="40" height="20"/>
			<rect x="0" y="365.485" width="40" height="20" class="st6"/>
			<text x="15.46" y="379.09" class="st7" v:langID="1033"><v:paragraph v:horizAlign="1"/><v:tabList/>...</text>		</g>
		<g id="shape48-124" v:mID="48" v:groupContext="shape" transform="translate(41.4225,-47.61)">
			<title>Sheet.48</title>
			<desc>Shifter</desc>
			<v:textBlock v:margins="rect(4,4,4,4)"/>
			<v:textRect cx="29.25" cy="225.735" width="58.5" height="319.5"/>
			<rect x="0" y="65.985" width="58.5" height="319.5" class="st8"/>
			<text x="13.05" y="229.34" class="st7" v:langID="1033"><v:paragraph v:horizAlign="1"/><v:tabList/>Shifter</text>		</g>
		<g id="shape49-127" v:mID="49" v:groupContext="shape" transform="translate(125.797,413.994) rotate(180)">
			<title>Sheet.49</title>
			<path d="M0 385.48 L25.87 385.48" class="st5"/>
		</g>
		<g id="shape50-130" v:mID="50" v:groupContext="shape" transform="translate(125.797,490.82) rotate(180)">
			<title>Sheet.50</title>
			<path d="M0 385.48 L25.87 385.48" class="st5"/>
		</g>
		<g id="shape51-133" v:mID="51" v:groupContext="shape" transform="translate(125.797,589.82) rotate(180)">
			<title>Sheet.51</title>
			<path d="M0 385.48 L25.87 385.48" class="st5"/>
		</g>
		<g id="shape52-136" v:mID="52" v:groupContext="shape" transform="translate(125.797,666.32) rotate(180)">
			<title>Sheet.52</title>
			<path d="M0 385.48 L25.87 385.48" class="st5"/>
		</g>
		<g id="shape54-139" v:mID="54" v:groupContext="shape" transform="translate(18.9225,-357.542)">
			<title>Sheet.54</title>
			<path d="M165.37 385.48 L165.37 362.42 L0 362.42 L0 384.92 L22.5 384.92" class="st5"/>
		</g>
		<g id="shape55-142" v:mID="55" v:groupContext="shape" transform="translate(14.4225,-280.716)">
			<title>Sheet.55</title>
			<path d="M169.87 385.48 L177.75 385.48 L177.75 281.09 L0 281.09 L0 384.59 L27 384.59" class="st5"/>
		</g>
		<g id="shape56-145" v:mID="56" v:groupContext="shape" transform="translate(18.9225,-29.61)">
			<title>Sheet.56</title>
			<path d="M165.37 309.88 L165.37 385.48 L0 385.48 L0 308.98 L22.5 308.98" class="st5"/>
		</g>
		<g id="shape57-148" v:mID="57" v:groupContext="shape" transform="translate(14.4225,-25.11)">
			<title>Sheet.57</title>
			<path d="M169.87 228.88 L175.5 228.88 L175.5 385.48 L0 385.48 L0 227.98 L27 227.98" class="st5"/>
		</g>
		<g id="shape58-151" v:mID="58" v:groupContext="shape" transform="translate(184.297,-357.542)">
			<title>Sheet.58</title>
			<path d="M0 385.48 L32.62 385.48" class="st5"/>
		</g>
		<g id="shape59-154" v:mID="59" v:groupContext="shape" transform="translate(192.172,-280.716)">
			<title>Sheet.59</title>
			<path d="M0 385.48 L24.75 385.48" class="st5"/>
		</g>
		<g id="shape60-157" v:mID="60" v:groupContext="shape" transform="translate(189.922,-181.716)">
			<title>Sheet.60</title>
			<path d="M0 385.48 L27 385.48" class="st5"/>
		</g>
		<g id="shape61-160" v:mID="61" v:groupContext="shape" transform="translate(184.297,-105.216)">
			<title>Sheet.61</title>
			<path d="M0 385.48 L32.62 385.48" class="st5"/>
		</g>
		<g id="shape62-163" v:mID="62" v:groupContext="shape" transform="translate(492.936,144.875) rotate(90)">
			<title>Sheet.62</title>
			<desc>...</desc>
			<v:textBlock v:margins="rect(4,4,4,4)"/>
			<v:textRect cx="20" cy="375.485" width="40" height="20"/>
			<rect x="0" y="365.485" width="40" height="20" class="st6"/>
			<text x="15.46" y="379.09" class="st7" v:langID="1033"><v:paragraph v:horizAlign="1"/><v:tabList/>...</text>		</g>
		<g id="shape63-166" v:mID="63" v:groupContext="shape" transform="translate(399.379,133.125) rotate(90)">
			<title>Sheet.63</title>
			<desc>...</desc>
			<v:textBlock v:margins="rect(4,4,4,4)"/>
			<v:textRect cx="20" cy="375.485" width="40" height="20"/>
			<rect x="0" y="365.485" width="40" height="20" class="st6"/>
			<text x="15.46" y="379.09" class="st7" v:langID="1033"><v:paragraph v:horizAlign="1"/><v:tabList/>...</text>		</g>
		<g id="group64-169" transform="translate(629.345,62.5842) rotate(90) scale(-1,1)" v:mID="64" v:groupContext="group">
			<title>Sheet.64</title>
			<g id="shape65-170" v:mID="65" v:groupContext="shape" transform="translate(395.598,371.799) rotate(90)">
				<title>Sheet.65</title>
				<path d="M0 385.48 L13.69 385.48" class="st2"/>
			</g>
			<g id="group66-173" transform="translate(13.9361,750.657) rotate(180)" v:mID="66" v:groupContext="group">
				<title>Sheet.66</title>
				<g id="shape67-174" v:mID="67" v:groupContext="shape" transform="translate(-84.3991,6.17962) rotate(-12.7761)">
					<title>Sheet.67</title>
					<path d="M0 385.48 L2.17 385.48" class="st2"/>
				</g>
				<g id="shape68-177" v:mID="68" v:groupContext="shape" transform="translate(91.1932,10.0525) rotate(13.4248)">
					<title>Sheet.68</title>
					<path d="M0 385.48 L2.07 385.48" class="st2"/>
				</g>
				<g id="shape69-180" v:mID="69" v:groupContext="shape" transform="translate(-381.67,385.485) rotate(-90)">
					<title>Sheet.69</title>
					<path d="M0 385.48 L2.4 385.48" class="st2"/>
				</g>
				<g id="shape70-183" v:mID="70" v:groupContext="shape" transform="translate(289.949,127.132) rotate(48.5876)">
					<title>Sheet.70</title>
					<path d="M0 385.48 L4.49 385.48" class="st2"/>
				</g>
				<g id="shape71-186" v:mID="71" v:groupContext="shape" transform="translate(289.101,123.287) rotate(48.5876)">
					<title>Sheet.71</title>
					<path d="M0 385.48 L4.49 385.48" class="st2"/>
				</g>
			</g>
			<g id="shape72-189" v:mID="72" v:groupContext="shape" transform="translate(8.27142,764.203) rotate(-179.717)">
				<title>Sheet.72</title>
				<path d="M0 385.48 L10.17 385.48" class="st2"/>
			</g>
			<g id="shape73-192" v:mID="73" v:groupContext="shape" transform="translate(34.875,764.208) rotate(180)">
				<title>Sheet.73</title>
				<path d="M0 385.48 L13.21 385.48" class="st2"/>
			</g>
			<g id="shape74-195" v:mID="74" v:groupContext="shape" transform="translate(-363.818,384.76) rotate(-90)">
				<title>Triangle</title>
				<path d="M13.36 385.48 L6.2 373.57 L-0.96 385.48 L13.36 385.48 Z" class="st9"/>
			</g>
		</g>
		<g id="shape75-197" v:mID="75" v:groupContext="shape" transform="translate(245.839,-322.567)">
			<title>Sheet.75</title>
			<path d="M9.67 385.48 L0 385.48" class="st10"/>
		</g>
		<g id="shape76-200" v:mID="76" v:groupContext="shape" transform="translate(245.839,-315.36)">
			<title>Sheet.76</title>
			<path d="M4.83 385.48 L0 378.28" class="st10"/>
		</g>
		<g id="shape77-203" v:mID="77" v:groupContext="shape" transform="translate(250.672,-315.36)">
			<title>Sheet.77</title>
			<path d="M4.83 378.28 L0 385.48" class="st10"/>
		</g>
		<g id="shape78-206" v:mID="78" v:groupContext="shape" transform="translate(216.893,-353.276)">
			<title>Sheet.78</title>
			<path d="M0 381.04 L1.92 376.48 L5.64 385.48 L9.36 376.48 L13.2 385.48 L16.92 376.48 L20.64 385.48 L22.56 381.04"
					class="st11"/>
		</g>
		<g id="shape79-209" v:mID="79" v:groupContext="shape" transform="translate(239.422,-357.776)">
			<title>Sheet.79</title>
			<path d="M11.25 385.48 L0 385.48" class="st12"/>
		</g>
		<g id="group83-212" transform="translate(629.626,139.365) rotate(90) scale(-1,1)" v:mID="83" v:groupContext="group">
			<title>Sheet.83</title>
			<g id="shape84-213" v:mID="84" v:groupContext="shape" transform="translate(395.598,371.799) rotate(90)">
				<title>Sheet.84</title>
				<path d="M0 385.48 L13.69 385.48" class="st2"/>
			</g>
			<g id="group85-216" transform="translate(13.9361,750.657) rotate(180)" v:mID="85" v:groupContext="group">
				<title>Sheet.85</title>
				<g id="shape86-217" v:mID="86" v:groupContext="shape" transform="translate(-84.3991,6.17962) rotate(-12.7761)">
					<title>Sheet.86</title>
					<path d="M0 385.48 L2.17 385.48" class="st2"/>
				</g>
				<g id="shape87-220" v:mID="87" v:groupContext="shape" transform="translate(91.1932,10.0525) rotate(13.4248)">
					<title>Sheet.87</title>
					<path d="M0 385.48 L2.07 385.48" class="st2"/>
				</g>
				<g id="shape88-223" v:mID="88" v:groupContext="shape" transform="translate(-381.67,385.485) rotate(-90)">
					<title>Sheet.88</title>
					<path d="M0 385.48 L2.4 385.48" class="st2"/>
				</g>
				<g id="shape89-226" v:mID="89" v:groupContext="shape" transform="translate(289.949,127.132) rotate(48.5876)">
					<title>Sheet.89</title>
					<path d="M0 385.48 L4.49 385.48" class="st2"/>
				</g>
				<g id="shape90-229" v:mID="90" v:groupContext="shape" transform="translate(289.101,123.287) rotate(48.5876)">
					<title>Sheet.90</title>
					<path d="M0 385.48 L4.49 385.48" class="st2"/>
				</g>
			</g>
			<g id="shape91-232" v:mID="91" v:groupContext="shape" transform="translate(8.27142,764.203) rotate(-179.717)">
				<title>Sheet.91</title>
				<path d="M0 385.48 L10.17 385.48" class="st2"/>
			</g>
			<g id="shape92-235" v:mID="92" v:groupContext="shape" transform="translate(34.875,764.208) rotate(180)">
				<title>Sheet.92</title>
				<path d="M0 385.48 L13.21 385.48" class="st2"/>
			</g>
			<g id="shape93-238" v:mID="93" v:groupContext="shape" transform="translate(-363.818,384.76) rotate(-90)">
				<title>Triangle</title>
				<path d="M13.36 385.48 L6.2 373.57 L-0.96 385.48 L13.36 385.48 Z" class="st9"/>
			</g>
		</g>
		<g id="shape94-240" v:mID="94" v:groupContext="shape" transform="translate(246.12,-245.785)">
			<title>Sheet.94</title>
			<path d="M9.67 385.48 L0 385.48" class="st10"/>
		</g>
		<g id="shape95-243" v:mID="95" v:groupContext="shape" transform="translate(246.12,-238.579)">
			<title>Sheet.95</title>
			<path d="M4.83 385.48 L0 378.28" class="st10"/>
		</g>
		<g id="shape96-246" v:mID="96" v:groupContext="shape" transform="translate(250.954,-238.579)">
			<title>Sheet.96</title>
			<path d="M4.83 378.28 L0 385.48" class="st10"/>
		</g>
		<g id="shape97-249" v:mID="97" v:groupContext="shape" transform="translate(217.174,-276.495)">
			<title>Sheet.97</title>
			<path d="M0 381.04 L1.92 376.48 L5.64 385.48 L9.36 376.48 L13.2 385.48 L16.92 376.48 L20.64 385.48 L22.56 381.04"
					class="st11"/>
		</g>
		<g id="shape98-252" v:mID="98" v:groupContext="shape" transform="translate(239.704,-280.995)">
			<title>Sheet.98</title>
			<path d="M11.25 385.48 L0 385.48" class="st12"/>
		</g>
		<g id="group99-255" transform="translate(629.641,238.48) rotate(90) scale(-1,1)" v:mID="99" v:groupContext="group">
			<title>Sheet.99</title>
			<g id="shape100-256" v:mID="100" v:groupContext="shape" transform="translate(395.598,371.799) rotate(90)">
				<title>Sheet.100</title>
				<path d="M0 385.48 L13.69 385.48" class="st2"/>
			</g>
			<g id="group101-259" transform="translate(13.9361,750.657) rotate(180)" v:mID="101" v:groupContext="group">
				<title>Sheet.101</title>
				<g id="shape102-260" v:mID="102" v:groupContext="shape" transform="translate(-84.3991,6.17962) rotate(-12.7761)">
					<title>Sheet.102</title>
					<path d="M0 385.48 L2.17 385.48" class="st2"/>
				</g>
				<g id="shape103-263" v:mID="103" v:groupContext="shape" transform="translate(91.1932,10.0525) rotate(13.4248)">
					<title>Sheet.103</title>
					<path d="M0 385.48 L2.07 385.48" class="st2"/>
				</g>
				<g id="shape104-266" v:mID="104" v:groupContext="shape" transform="translate(-381.67,385.485) rotate(-90)">
					<title>Sheet.104</title>
					<path d="M0 385.48 L2.4 385.48" class="st2"/>
				</g>
				<g id="shape105-269" v:mID="105" v:groupContext="shape" transform="translate(289.949,127.132) rotate(48.5876)">
					<title>Sheet.105</title>
					<path d="M0 385.48 L4.49 385.48" class="st2"/>
				</g>
				<g id="shape106-272" v:mID="106" v:groupContext="shape" transform="translate(289.101,123.287) rotate(48.5876)">
					<title>Sheet.106</title>
					<path d="M0 385.48 L4.49 385.48" class="st2"/>
				</g>
			</g>
			<g id="shape107-275" v:mID="107" v:groupContext="shape" transform="translate(8.27142,764.203) rotate(-179.717)">
				<title>Sheet.107</title>
				<path d="M0 385.48 L10.17 385.48" class="st2"/>
			</g>
			<g id="shape108-278" v:mID="108" v:groupContext="shape" transform="translate(34.875,764.208) rotate(180)">
				<title>Sheet.108</title>
				<path d="M0 385.48 L13.21 385.48" class="st2"/>
			</g>
			<g id="shape109-281" v:mID="109" v:groupContext="shape" transform="translate(-363.818,384.76) rotate(-90)">
				<title>Triangle</title>
				<path d="M13.36 385.48 L6.2 373.57 L-0.96 385.48 L13.36 385.48 Z" class="st9"/>
			</g>
		</g>
		<g id="shape110-283" v:mID="110" v:groupContext="shape" transform="translate(246.135,-146.671)">
			<title>Sheet.110</title>
			<path d="M9.67 385.48 L0 385.48" class="st10"/>
		</g>
		<g id="shape111-286" v:mID="111" v:groupContext="shape" transform="translate(246.135,-139.465)">
			<title>Sheet.111</title>
			<path d="M4.83 385.48 L0 378.28" class="st10"/>
		</g>
		<g id="shape112-289" v:mID="112" v:groupContext="shape" transform="translate(250.969,-139.465)">
			<title>Sheet.112</title>
			<path d="M4.83 378.28 L0 385.48" class="st10"/>
		</g>
		<g id="shape113-292" v:mID="113" v:groupContext="shape" transform="translate(217.189,-177.38)">
			<title>Sheet.113</title>
			<path d="M0 381.04 L1.92 376.48 L5.64 385.48 L9.36 376.48 L13.2 385.48 L16.92 376.48 L20.64 385.48 L22.56 381.04"
					class="st11"/>
		</g>
		<g id="shape114-295" v:mID="114" v:groupContext="shape" transform="translate(239.719,-181.88)">
			<title>Sheet.114</title>
			<path d="M11.25 385.48 L0 385.48" class="st12"/>
		</g>
		<g id="group115-298" transform="translate(629.641,315.094) rotate(90) scale(-1,1)" v:mID="115" v:groupContext="group">
			<title>Sheet.115</title>
			<g id="shape116-299" v:mID="116" v:groupContext="shape" transform="translate(395.598,371.799) rotate(90)">
				<title>Sheet.116</title>
				<path d="M0 385.48 L13.69 385.48" class="st2"/>
			</g>
			<g id="group117-302" transform="translate(13.9361,750.657) rotate(180)" v:mID="117" v:groupContext="group">
				<title>Sheet.117</title>
				<g id="shape118-303" v:mID="118" v:groupContext="shape" transform="translate(-84.3991,6.17962) rotate(-12.7761)">
					<title>Sheet.118</title>
					<path d="M0 385.48 L2.17 385.48" class="st2"/>
				</g>
				<g id="shape119-306" v:mID="119" v:groupContext="shape" transform="translate(91.1932,10.0525) rotate(13.4248)">
					<title>Sheet.119</title>
					<path d="M0 385.48 L2.07 385.48" class="st2"/>
				</g>
				<g id="shape120-309" v:mID="120" v:groupContext="shape" transform="translate(-381.67,385.485) rotate(-90)">
					<title>Sheet.120</title>
					<path d="M0 385.48 L2.4 385.48" class="st2"/>
				</g>
				<g id="shape121-312" v:mID="121" v:groupContext="shape" transform="translate(289.949,127.132) rotate(48.5876)">
					<title>Sheet.121</title>
					<path d="M0 385.48 L4.49 385.48" class="st2"/>
				</g>
				<g id="shape122-315" v:mID="122" v:groupContext="shape" transform="translate(289.101,123.287) rotate(48.5876)">
					<title>Sheet.122</title>
					<path d="M0 385.48 L4.49 385.48" class="st2"/>
				</g>
			</g>
			<g id="shape123-318" v:mID="123" v:groupContext="shape" transform="translate(8.27142,764.203) rotate(-179.717)">
				<title>Sheet.123</title>
				<path d="M0 385.48 L10.17 385.48" class="st2"/>
			</g>
			<g id="shape124-321" v:mID="124" v:groupContext="shape" transform="translate(34.875,764.208) rotate(180)">
				<title>Sheet.124</title>
				<path d="M0 385.48 L13.21 385.48" class="st2"/>
			</g>
			<g id="shape125-324" v:mID="125" v:groupContext="shape" transform="translate(-363.818,384.76) rotate(-90)">
				<title>Triangle</title>
				<path d="M13.36 385.48 L6.2 373.57 L-0.96 385.48 L13.36 385.48 Z" class="st9"/>
			</g>
		</g>
		<g id="shape126-326" v:mID="126" v:groupContext="shape" transform="translate(246.135,-70.0571)">
			<title>Sheet.126</title>
			<path d="M9.67 385.48 L0 385.48" class="st10"/>
		</g>
		<g id="shape127-329" v:mID="127" v:groupContext="shape" transform="translate(246.135,-62.8504)">
			<title>Sheet.127</title>
			<path d="M4.83 385.48 L0 378.28" class="st10"/>
		</g>
		<g id="shape128-332" v:mID="128" v:groupContext="shape" transform="translate(250.969,-62.8504)">
			<title>Sheet.128</title>
			<path d="M4.83 378.28 L0 385.48" class="st10"/>
		</g>
		<g id="shape129-335" v:mID="129" v:groupContext="shape" transform="translate(217.189,-100.766)">
			<title>Sheet.129</title>
			<path d="M0 381.04 L1.92 376.48 L5.64 385.48 L9.36 376.48 L13.2 385.48 L16.92 376.48 L20.64 385.48 L22.56 381.04"
					class="st11"/>
		</g>
		<g id="shape130-338" v:mID="130" v:groupContext="shape" transform="translate(239.719,-105.266)">
			<title>Sheet.130</title>
			<path d="M11.25 385.48 L0 385.48" class="st12"/>
		</g>
		<g id="shape131-341" v:mID="131" v:groupContext="shape" transform="translate(511.146,51.7993) rotate(90)">
			<title>Sheet.131</title>
			<path d="M0 385.48 L331.08 385.48" class="st5"/>
		</g>
		<g id="shape132-344" v:mID="132" v:groupContext="shape" transform="translate(125.661,768.36) rotate(180)">
			<title>Sheet.132</title>
			<path d="M0 385.48 L115.74 385.48" class="st5"/>
		</g>
		<g id="shape133-347" v:mID="133" v:groupContext="shape" transform="translate(0.36,-0.36)">
			<title>Sheet.133</title>
			<desc>clkdiv</desc>
			<v:textBlock v:margins="rect(4,4,4,4)"/>
			<v:textRect cx="20.8125" cy="378.735" width="41.63" height="13.5"/>
			<rect x="0" y="371.985" width="41.625" height="13.5" class="st3"/>
			<text x="10.81" y="381.13" class="st13" v:langID="1033"><v:paragraph v:horizAlign="1"/><v:tabList/>clkdiv</text>		</g>
		<g id="shape134-350" v:mID="134" v:groupContext="shape" transform="translate(250.672,-335.61)">
			<title>Sheet.134</title>
			<desc>led[0]</desc>
			<v:textBlock v:margins="rect(4,4,4,4)"/>
			<v:textRect cx="20.8125" cy="378.735" width="41.63" height="13.5"/>
			<rect x="0" y="371.985" width="41.625" height="13.5" class="st3"/>
			<text x="11.03" y="381.13" class="st13" v:langID="1033"><v:paragraph v:horizAlign="1"/><v:tabList/>led[0]</text>		</g>
		<g id="shape135-353" v:mID="135" v:groupContext="shape" transform="translate(250.11,-259.11)">
			<title>Sheet.135</title>
			<desc>led[1]</desc>
			<v:textBlock v:margins="rect(4,4,4,4)"/>
			<v:textRect cx="20.8125" cy="378.735" width="41.63" height="13.5"/>
			<rect x="0" y="371.985" width="41.625" height="13.5" class="st3"/>
			<text x="11.03" y="381.13" class="st13" v:langID="1033"><v:paragraph v:horizAlign="1"/><v:tabList/>led[1]</text>		</g>
		<g id="shape136-356" v:mID="136" v:groupContext="shape" transform="translate(250.11,-160.11)">
			<title>Sheet.136</title>
			<desc>led[6]</desc>
			<v:textBlock v:margins="rect(4,4,4,4)"/>
			<v:textRect cx="20.8125" cy="378.735" width="41.63" height="13.5"/>
			<rect x="0" y="371.985" width="41.625" height="13.5" class="st3"/>
			<text x="11.03" y="381.13" class="st13" v:langID="1033"><v:paragraph v:horizAlign="1"/><v:tabList/>led[6]</text>		</g>
		<g id="shape137-359" v:mID="137" v:groupContext="shape" transform="translate(250.11,-81.36)">
			<title>Sheet.137</title>
			<desc>led[7]</desc>
			<v:textBlock v:margins="rect(4,4,4,4)"/>
			<v:textRect cx="20.8125" cy="378.735" width="41.63" height="13.5"/>
			<rect x="0" y="371.985" width="41.625" height="13.5" class="st3"/>
			<text x="11.03" y="381.13" class="st13" v:langID="1033"><v:paragraph v:horizAlign="1"/><v:tabList/>led[7]</text>		</g>
		<g id="shape138-362" v:mID="138" v:groupContext="shape" transform="translate(162.36,-344.61)">
			<title>Sheet.138</title>
			<desc>q[0]</desc>
			<v:textBlock v:margins="rect(4,4,4,4)"/>
			<v:textRect cx="20.8125" cy="378.735" width="41.63" height="13.5"/>
			<rect x="0" y="371.985" width="41.625" height="13.5" class="st3"/>
			<text x="14.14" y="381.13" class="st13" v:langID="1033"><v:paragraph v:horizAlign="1"/><v:tabList/>q[0]</text>		</g>
		<g id="shape139-365" v:mID="139" v:groupContext="shape" transform="translate(161.797,-268.11)">
			<title>Sheet.139</title>
			<desc>q[1]</desc>
			<v:textBlock v:margins="rect(4,4,4,4)"/>
			<v:textRect cx="20.8125" cy="378.735" width="41.63" height="13.5"/>
			<rect x="0" y="371.985" width="41.625" height="13.5" class="st3"/>
			<text x="14.14" y="381.13" class="st13" v:langID="1033"><v:paragraph v:horizAlign="1"/><v:tabList/>q[1]</text>		</g>
		<g id="shape140-368" v:mID="140" v:groupContext="shape" transform="translate(161.797,-180.36)">
			<title>Sheet.140</title>
			<desc>q[6]</desc>
			<v:textBlock v:margins="rect(4,4,4,4)"/>
			<v:textRect cx="20.8125" cy="378.735" width="41.63" height="13.5"/>
			<rect x="0" y="371.985" width="41.625" height="13.5" class="st3"/>
			<text x="14.14" y="381.13" class="st13" v:langID="1033"><v:paragraph v:horizAlign="1"/><v:tabList/>q[6]</text>		</g>
		<g id="shape141-371" v:mID="141" v:groupContext="shape" transform="translate(161.797,-103.86)">
			<title>Sheet.141</title>
			<desc>q[7]</desc>
			<v:textBlock v:margins="rect(4,4,4,4)"/>
			<v:textRect cx="20.8125" cy="378.735" width="41.63" height="13.5"/>
			<rect x="0" y="371.985" width="41.625" height="13.5" class="st3"/>
			<text x="14.14" y="381.13" class="st13" v:langID="1033"><v:paragraph v:horizAlign="1"/><v:tabList/>q[7]</text>		</g>
		<g id="shape142-374" v:mID="142" v:groupContext="shape" transform="translate(89.7975,-344.61)">
			<title>Sheet.142</title>
			<desc>d[0]</desc>
			<v:textBlock v:margins="rect(4,4,4,4)"/>
			<v:textRect cx="20.8125" cy="378.735" width="41.63" height="13.5"/>
			<rect x="0" y="371.985" width="41.625" height="13.5" class="st3"/>
			<text x="14.14" y="381.13" class="st13" v:langID="1033"><v:paragraph v:horizAlign="1"/><v:tabList/>d[0]</text>		</g>
		<g id="shape143-377" v:mID="143" v:groupContext="shape" transform="translate(89.235,-268.11)">
			<title>Sheet.143</title>
			<desc>d[1]</desc>
			<v:textBlock v:margins="rect(4,4,4,4)"/>
			<v:textRect cx="20.8125" cy="378.735" width="41.63" height="13.5"/>
			<rect x="0" y="371.985" width="41.625" height="13.5" class="st3"/>
			<text x="14.14" y="381.13" class="st13" v:langID="1033"><v:paragraph v:horizAlign="1"/><v:tabList/>d[1]</text>		</g>
		<g id="shape144-380" v:mID="144" v:groupContext="shape" transform="translate(87.5475,-169.11)">
			<title>Sheet.144</title>
			<desc>d[6]</desc>
			<v:textBlock v:margins="rect(4,4,4,4)"/>
			<v:textRect cx="20.8125" cy="378.735" width="41.63" height="13.5"/>
			<rect x="0" y="371.985" width="41.625" height="13.5" class="st3"/>
			<text x="14.14" y="381.13" class="st13" v:langID="1033"><v:paragraph v:horizAlign="1"/><v:tabList/>d[6]</text>		</g>
		<g id="shape145-383" v:mID="145" v:groupContext="shape" transform="translate(87.5475,-92.61)">
			<title>Sheet.145</title>
			<desc>d[7]</desc>
			<v:textBlock v:margins="rect(4,4,4,4)"/>
			<v:textRect cx="20.8125" cy="378.735" width="41.63" height="13.5"/>
			<rect x="0" y="371.985" width="41.625" height="13.5" class="st3"/>
			<text x="14.14" y="381.13" class="st13" v:langID="1033"><v:paragraph v:horizAlign="1"/><v:tabList/>d[7]</text>		</g>
	</g>
</svg>
