<?xml version="1.0" encoding="UTF-8" standalone="no"?>
<!DOCTYPE svg PUBLIC "-//W3C//DTD SVG 1.1//EN" "http://www.w3.org/Graphics/SVG/1.1/DTD/svg11.dtd">
<!-- Generated by Microsoft Visio, SVG Export CompressedKMap.svg Page-1 -->
<svg xmlns="http://www.w3.org/2000/svg" xmlns:xlink="http://www.w3.org/1999/xlink" xmlns:ev="http://www.w3.org/2001/xml-events"
		xmlns:v="http://schemas.microsoft.com/visio/2003/SVGExtensions/" width="1.6925in" height="1.59798in"
		viewBox="0 0 121.86 115.055" xml:space="preserve" color-interpolation-filters="sRGB" class="st6">
	<v:documentProperties v:langID="1033" v:viewMarkup="false"/>

	<style type="text/css">
	<![CDATA[
		.st1 {fill:#ffffff;stroke:#000000;stroke-linecap:round;stroke-linejoin:round;stroke-width:0.72}
		.st2 {fill:#000000;font-family:Arial;font-size:0.75em}
		.st3 {stroke:none;stroke-linecap:round;stroke-linejoin:round;stroke-width:0.75}
		.st4 {fill:#000000;font-family:Arial;font-size:0.833336em}
		.st5 {stroke:#000000;stroke-linecap:round;stroke-linejoin:round;stroke-width:0.72}
		.st6 {fill:none;fill-rule:evenodd;font-size:12px;overflow:visible;stroke-linecap:square;stroke-miterlimit:3}
	]]>
	</style>

	<g v:mID="0" v:index="1" v:groupContext="foregroundPage">
		<title>Page-1</title>
		<v:pageProperties v:drawingScale="1" v:pageScale="1" v:drawingUnits="19" v:shadowOffsetX="9" v:shadowOffsetY="-9"/>
		<g id="shape1-1" v:mID="1" v:groupContext="shape" transform="translate(54,-67.86)">
			<title>Rectangle.62</title>
			<desc>0</desc>
			<v:userDefs>
				<v:ud v:nameU="visVersion" v:val="VT0(11):26"/>
			</v:userDefs>
			<v:textBlock v:margins="rect(4,4,4,4)"/>
			<v:textRect cx="11.25" cy="103.805" width="22.5" height="22.5"/>
			<rect x="0" y="92.5545" width="22.5" height="22.5" class="st1"/>
			<text x="8.75" y="106.5" class="st2" v:langID="1033"><v:paragraph v:horizAlign="1"/><v:tabList/>0</text>		</g>
		<g id="shape2-4" v:mID="2" v:groupContext="shape" transform="translate(31.5,-67.86)">
			<title>Rectangle.63</title>
			<desc>0</desc>
			<v:userDefs>
				<v:ud v:nameU="visVersion" v:val="VT0(11):26"/>
			</v:userDefs>
			<v:textBlock v:margins="rect(4,4,4,4)"/>
			<v:textRect cx="11.25" cy="103.805" width="22.5" height="22.5"/>
			<rect x="0" y="92.5545" width="22.5" height="22.5" class="st1"/>
			<text x="8.75" y="106.5" class="st2" v:langID="1033"><v:paragraph v:horizAlign="1"/><v:tabList/>0</text>		</g>
		<g id="shape3-7" v:mID="3" v:groupContext="shape" transform="translate(99,-67.86)">
			<title>Rectangle.64</title>
			<desc>0</desc>
			<v:userDefs>
				<v:ud v:nameU="visVersion" v:val="VT0(11):26"/>
			</v:userDefs>
			<v:textBlock v:margins="rect(4,4,4,4)"/>
			<v:textRect cx="11.25" cy="103.805" width="22.5" height="22.5"/>
			<rect x="0" y="92.5545" width="22.5" height="22.5" class="st1"/>
			<text x="8.75" y="106.5" class="st2" v:langID="1033"><v:paragraph v:horizAlign="1"/><v:tabList/>0</text>		</g>
		<g id="shape4-10" v:mID="4" v:groupContext="shape" transform="translate(76.5,-67.86)">
			<title>Rectangle.65</title>
			<desc>E</desc>
			<v:userDefs>
				<v:ud v:nameU="visVersion" v:val="VT0(11):26"/>
			</v:userDefs>
			<v:textBlock v:margins="rect(4,4,4,4)"/>
			<v:textRect cx="11.25" cy="103.805" width="22.5" height="22.5"/>
			<rect x="0" y="92.5545" width="22.5" height="22.5" class="st1"/>
			<text x="8.25" y="106.5" class="st2" v:langID="1033"><v:paragraph v:horizAlign="1"/><v:tabList/>E</text>		</g>
		<g id="shape5-13" v:mID="5" v:groupContext="shape" transform="translate(54,-45.36)">
			<title>Rectangle.66</title>
			<desc>E</desc>
			<v:userDefs>
				<v:ud v:nameU="visVersion" v:val="VT0(11):26"/>
			</v:userDefs>
			<v:textBlock v:margins="rect(4,4,4,4)"/>
			<v:textRect cx="11.25" cy="103.805" width="22.5" height="22.5"/>
			<rect x="0" y="92.5545" width="22.5" height="22.5" class="st1"/>
			<text x="8.25" y="106.5" class="st2" v:langID="1033"><v:paragraph v:horizAlign="1"/><v:tabList/>E</text>		</g>
		<g id="shape6-16" v:mID="6" v:groupContext="shape" transform="translate(31.5,-45.36)">
			<title>Rectangle.67</title>
			<desc>0</desc>
			<v:userDefs>
				<v:ud v:nameU="visVersion" v:val="VT0(11):26"/>
			</v:userDefs>
			<v:textBlock v:margins="rect(4,4,4,4)"/>
			<v:textRect cx="11.25" cy="103.805" width="22.5" height="22.5"/>
			<rect x="0" y="92.5545" width="22.5" height="22.5" class="st1"/>
			<text x="8.75" y="106.5" class="st2" v:langID="1033"><v:paragraph v:horizAlign="1"/><v:tabList/>0</text>		</g>
		<g id="shape7-19" v:mID="7" v:groupContext="shape" transform="translate(99,-45.36)">
			<title>Rectangle.68</title>
			<desc>E</desc>
			<v:userDefs>
				<v:ud v:nameU="visVersion" v:val="VT0(11):26"/>
			</v:userDefs>
			<v:textBlock v:margins="rect(4,4,4,4)"/>
			<v:textRect cx="11.25" cy="103.805" width="22.5" height="22.5"/>
			<rect x="0" y="92.5545" width="22.5" height="22.5" class="st1"/>
			<text x="8.25" y="106.5" class="st2" v:langID="1033"><v:paragraph v:horizAlign="1"/><v:tabList/>E</text>		</g>
		<g id="shape8-22" v:mID="8" v:groupContext="shape" transform="translate(76.5,-45.36)">
			<title>Rectangle.69</title>
			<desc>1</desc>
			<v:userDefs>
				<v:ud v:nameU="visVersion" v:val="VT0(11):26"/>
			</v:userDefs>
			<v:textBlock v:margins="rect(4,4,4,4)"/>
			<v:textRect cx="11.25" cy="103.805" width="22.5" height="22.5"/>
			<rect x="0" y="92.5545" width="22.5" height="22.5" class="st1"/>
			<text x="8.75" y="106.5" class="st2" v:langID="1033"><v:paragraph v:horizAlign="1"/><v:tabList/>1</text>		</g>
		<g id="shape9-25" v:mID="9" v:groupContext="shape" transform="translate(54,-22.86)">
			<title>Rectangle.70</title>
			<desc>1</desc>
			<v:userDefs>
				<v:ud v:nameU="visVersion" v:val="VT0(11):26"/>
			</v:userDefs>
			<v:textBlock v:margins="rect(4,4,4,4)"/>
			<v:textRect cx="11.25" cy="103.805" width="22.5" height="22.5"/>
			<rect x="0" y="92.5545" width="22.5" height="22.5" class="st1"/>
			<text x="8.75" y="106.5" class="st2" v:langID="1033"><v:paragraph v:horizAlign="1"/><v:tabList/>1</text>		</g>
		<g id="shape10-28" v:mID="10" v:groupContext="shape" transform="translate(31.5,-22.86)">
			<title>Rectangle.71</title>
			<desc>E</desc>
			<v:userDefs>
				<v:ud v:nameU="visVersion" v:val="VT0(11):26"/>
			</v:userDefs>
			<v:textBlock v:margins="rect(4,4,4,4)"/>
			<v:textRect cx="11.25" cy="103.805" width="22.5" height="22.5"/>
			<rect x="0" y="92.5545" width="22.5" height="22.5" class="st1"/>
			<text x="8.25" y="106.5" class="st2" v:langID="1033"><v:paragraph v:horizAlign="1"/><v:tabList/>E</text>		</g>
		<g id="shape11-31" v:mID="11" v:groupContext="shape" transform="translate(99,-22.86)">
			<title>Rectangle.72</title>
			<desc>1</desc>
			<v:userDefs>
				<v:ud v:nameU="visVersion" v:val="VT0(11):26"/>
			</v:userDefs>
			<v:textBlock v:margins="rect(4,4,4,4)"/>
			<v:textRect cx="11.25" cy="103.805" width="22.5" height="22.5"/>
			<rect x="0" y="92.5545" width="22.5" height="22.5" class="st1"/>
			<text x="8.75" y="106.5" class="st2" v:langID="1033"><v:paragraph v:horizAlign="1"/><v:tabList/>1</text>		</g>
		<g id="shape12-34" v:mID="12" v:groupContext="shape" transform="translate(76.5,-22.86)">
			<title>Rectangle.73</title>
			<desc>1</desc>
			<v:userDefs>
				<v:ud v:nameU="visVersion" v:val="VT0(11):26"/>
			</v:userDefs>
			<v:textBlock v:margins="rect(4,4,4,4)"/>
			<v:textRect cx="11.25" cy="103.805" width="22.5" height="22.5"/>
			<rect x="0" y="92.5545" width="22.5" height="22.5" class="st1"/>
			<text x="8.75" y="106.5" class="st2" v:langID="1033"><v:paragraph v:horizAlign="1"/><v:tabList/>1</text>		</g>
		<g id="shape13-37" v:mID="13" v:groupContext="shape" transform="translate(54,-0.36)">
			<title>Rectangle.74</title>
			<desc>E</desc>
			<v:userDefs>
				<v:ud v:nameU="visVersion" v:val="VT0(11):26"/>
			</v:userDefs>
			<v:textBlock v:margins="rect(4,4,4,4)"/>
			<v:textRect cx="11.25" cy="103.805" width="22.5" height="22.5"/>
			<rect x="0" y="92.5545" width="22.5" height="22.5" class="st1"/>
			<text x="8.25" y="106.5" class="st2" v:langID="1033"><v:paragraph v:horizAlign="1"/><v:tabList/>E</text>		</g>
		<g id="shape14-40" v:mID="14" v:groupContext="shape" transform="translate(31.5,-0.36)">
			<title>Rectangle.75</title>
			<desc>0</desc>
			<v:userDefs>
				<v:ud v:nameU="visVersion" v:val="VT0(11):26"/>
			</v:userDefs>
			<v:textBlock v:margins="rect(4,4,4,4)"/>
			<v:textRect cx="11.25" cy="103.805" width="22.5" height="22.5"/>
			<rect x="0" y="92.5545" width="22.5" height="22.5" class="st1"/>
			<text x="8.75" y="106.5" class="st2" v:langID="1033"><v:paragraph v:horizAlign="1"/><v:tabList/>0</text>		</g>
		<g id="shape15-43" v:mID="15" v:groupContext="shape" transform="translate(99,-0.36)">
			<title>Rectangle.76</title>
			<desc>E</desc>
			<v:userDefs>
				<v:ud v:nameU="visVersion" v:val="VT0(11):26"/>
			</v:userDefs>
			<v:textBlock v:margins="rect(4,4,4,4)"/>
			<v:textRect cx="11.25" cy="103.805" width="22.5" height="22.5"/>
			<rect x="0" y="92.5545" width="22.5" height="22.5" class="st1"/>
			<text x="8.25" y="106.5" class="st2" v:langID="1033"><v:paragraph v:horizAlign="1"/><v:tabList/>E</text>		</g>
		<g id="shape16-46" v:mID="16" v:groupContext="shape" transform="translate(76.5,-0.36)">
			<title>Rectangle.77</title>
			<desc>1</desc>
			<v:userDefs>
				<v:ud v:nameU="visVersion" v:val="VT0(11):26"/>
			</v:userDefs>
			<v:textBlock v:margins="rect(4,4,4,4)"/>
			<v:textRect cx="11.25" cy="103.805" width="22.5" height="22.5"/>
			<rect x="0" y="92.5545" width="22.5" height="22.5" class="st1"/>
			<text x="8.75" y="106.5" class="st2" v:langID="1033"><v:paragraph v:horizAlign="1"/><v:tabList/>1</text>		</g>
		<g id="shape17-49" v:mID="17" v:groupContext="shape" transform="translate(12.021,-104.124)">
			<title>Sheet.17</title>
			<desc>C D</desc>
			<v:textBlock v:margins="rect(0,0,0,0)"/>
			<v:textRect cx="16.104" cy="110.124" width="32.21" height="9.86119"/>
			<path d="M32.21 105.19 L0 105.19 L0 115.05 L32.21 115.05 L32.21 105.19" class="st3"/>
			<text x="8.88" y="113.12" class="st4" v:langID="1033"><v:paragraph v:horizAlign="1"/><v:tabList/>C D</text>		</g>
		<g id="shape18-53" v:mID="18" v:groupContext="shape" transform="translate(31.5,-90.36)">
			<title>Sheet.18</title>
			<desc>0 0</desc>
			<v:textBlock v:margins="rect(0,0,0,0)"/>
			<v:textRect cx="11.25" cy="108.305" width="22.5" height="13.5"/>
			<path d="M22.5 101.55 L0 101.55 L0 115.05 L22.5 115.05 L22.5 101.55" class="st3"/>
			<text x="6.24" y="111" class="st2" v:langID="1033"><v:paragraph v:horizAlign="1"/><v:tabList/>0 0</text>		</g>
		<g id="shape19-57" v:mID="19" v:groupContext="shape" transform="translate(54,-90.36)">
			<title>Sheet.19</title>
			<desc>0 1</desc>
			<v:textBlock v:margins="rect(0,0,0,0)"/>
			<v:textRect cx="11.25" cy="108.305" width="22.5" height="13.5"/>
			<path d="M22.5 101.55 L0 101.55 L0 115.05 L22.5 115.05 L22.5 101.55" class="st3"/>
			<text x="6.24" y="111" class="st2" v:langID="1033"><v:paragraph v:horizAlign="1"/><v:tabList/>0 1</text>		</g>
		<g id="shape20-61" v:mID="20" v:groupContext="shape" transform="translate(76.5,-90.36)">
			<title>Sheet.20</title>
			<desc>1 1</desc>
			<v:textBlock v:margins="rect(0,0,0,0)"/>
			<v:textRect cx="11.25" cy="108.305" width="22.5" height="13.5"/>
			<path d="M22.5 101.55 L0 101.55 L0 115.05 L22.5 115.05 L22.5 101.55" class="st3"/>
			<text x="6.24" y="111" class="st2" v:langID="1033"><v:paragraph v:horizAlign="1"/><v:tabList/>1 1</text>		</g>
		<g id="shape21-65" v:mID="21" v:groupContext="shape" transform="translate(99,-90.36)">
			<title>Sheet.21</title>
			<desc>1 0</desc>
			<v:textBlock v:margins="rect(0,0,0,0)"/>
			<v:textRect cx="11.25" cy="108.305" width="22.5" height="13.5"/>
			<path d="M22.5 101.55 L0 101.55 L0 115.05 L22.5 115.05 L22.5 101.55" class="st3"/>
			<text x="6.24" y="111" class="st2" v:langID="1033"><v:paragraph v:horizAlign="1"/><v:tabList/>1 0</text>		</g>
		<g id="shape22-69" v:mID="22" v:groupContext="shape" transform="translate(8.37798,-72.7966)">
			<title>Sheet.22</title>
			<desc>0 0</desc>
			<v:textBlock v:margins="rect(0,0,0,0)"/>
			<v:textRect cx="11.561" cy="109.085" width="23.13" height="11.9384"/>
			<path d="M23.12 103.12 L0 103.12 L0 115.05 L23.12 115.05 L23.12 103.12" class="st3"/>
			<text x="6.56" y="111.79" class="st2" v:langID="1033"><v:paragraph v:horizAlign="1"/><v:tabList/>0 0</text>		</g>
		<g id="shape23-73" v:mID="23" v:groupContext="shape" transform="translate(8.37798,-50.4225)">
			<title>Sheet.23</title>
			<desc>0 1</desc>
			<v:textBlock v:margins="rect(0,0,0,0)"/>
			<v:textRect cx="11.561" cy="109.085" width="23.13" height="11.9384"/>
			<path d="M23.12 103.12 L0 103.12 L0 115.05 L23.12 115.05 L23.12 103.12" class="st3"/>
			<text x="6.56" y="111.79" class="st2" v:langID="1033"><v:paragraph v:horizAlign="1"/><v:tabList/>0 1</text>		</g>
		<g id="shape24-77" v:mID="24" v:groupContext="shape" transform="translate(8.37798,-28.1408)">
			<title>Sheet.24</title>
			<desc>1 1</desc>
			<v:textBlock v:margins="rect(0,0,0,0)"/>
			<v:textRect cx="11.561" cy="109.085" width="23.13" height="11.9384"/>
			<path d="M23.12 103.12 L0 103.12 L0 115.05 L23.12 115.05 L23.12 103.12" class="st3"/>
			<text x="6.56" y="111.79" class="st2" v:langID="1033"><v:paragraph v:horizAlign="1"/><v:tabList/>1 1</text>		</g>
		<g id="shape25-81" v:mID="25" v:groupContext="shape" transform="translate(8.37798,-5.64081)">
			<title>Sheet.25</title>
			<desc>1 0</desc>
			<v:textBlock v:margins="rect(0,0,0,0)"/>
			<v:textRect cx="11.561" cy="109.085" width="23.13" height="11.9384"/>
			<path d="M23.12 103.12 L0 103.12 L0 115.05 L23.12 115.05 L23.12 103.12" class="st3"/>
			<text x="6.56" y="111.79" class="st2" v:langID="1033"><v:paragraph v:horizAlign="1"/><v:tabList/>1 0</text>		</g>
		<g id="shape26-85" v:mID="26" v:groupContext="shape" transform="translate(-49.8558,106.05) rotate(-135)">
			<title>Sheet.26</title>
			<path d="M0 115.05 L25.46 115.05" class="st5"/>
		</g>
		<g id="shape27-88" v:mID="27" v:groupContext="shape" transform="translate(0,-87.2488)">
			<title>Sheet.27</title>
			<desc>A B</desc>
			<v:textBlock v:margins="rect(0,0,0,0)"/>
			<v:textRect cx="11.25" cy="107.874" width="22.5" height="14.3612"/>
			<path d="M22.5 100.69 L0 100.69 L0 115.05 L22.5 115.05 L22.5 100.69" class="st3"/>
			<text x="4.58" y="110.87" class="st4" v:langID="1033"><v:paragraph v:horizAlign="1"/><v:tabList/>A B</text>		</g>
	</g>
</svg>
