<?xml version="1.0" encoding="UTF-8" standalone="no"?>
<!DOCTYPE svg PUBLIC "-//W3C//DTD SVG 1.1//EN" "http://www.w3.org/Graphics/SVG/1.1/DTD/svg11.dtd">
<!-- Generated by Microsoft Visio, SVG Export ReadSchematic.svg Page-1 -->
<svg xmlns="http://www.w3.org/2000/svg" xmlns:xlink="http://www.w3.org/1999/xlink" xmlns:ev="http://www.w3.org/2001/xml-events"
		xmlns:v="http://schemas.microsoft.com/visio/2003/SVGExtensions/" width="5.81152in" height="0.978993in"
		viewBox="0 0 418.43 70.4875" xml:space="preserve" color-interpolation-filters="sRGB" class="st11">
	<v:documentProperties v:langID="1033" v:viewMarkup="false"/>

	<style type="text/css">
	<![CDATA[
		.st1 {stroke:none;stroke-linecap:round;stroke-linejoin:round;stroke-width:0.75}
		.st2 {fill:#000000;font-family:Arial;font-size:0.833336em}
		.st3 {fill:none;stroke:#000000;stroke-linecap:round;stroke-linejoin:round;stroke-width:0.72}
		.st4 {stroke:#000000;stroke-linecap:round;stroke-linejoin:round;stroke-width:0.748474}
		.st5 {stroke:#000000;stroke-linecap:round;stroke-linejoin:round;stroke-width:0.748902}
		.st6 {fill:#000000;stroke:#000000;stroke-linecap:round;stroke-linejoin:round;stroke-width:0.24}
		.st7 {fill:#ffffff;stroke:none;stroke-linecap:round;stroke-linejoin:round;stroke-width:0.75}
		.st8 {marker-end:url(#mrkr4-95);stroke:#000000;stroke-linecap:round;stroke-linejoin:round;stroke-width:0.72}
		.st9 {fill:#000000;fill-opacity:1;stroke:#000000;stroke-opacity:1;stroke-width:0.28571428571429}
		.st10 {stroke:#000000;stroke-linecap:round;stroke-linejoin:round;stroke-width:0.75}
		.st11 {fill:none;fill-rule:evenodd;font-size:12px;overflow:visible;stroke-linecap:square;stroke-miterlimit:3}
	]]>
	</style>

	<defs id="Markers">
		<g id="lend4">
			<path d="M 2 1 L 0 0 L 2 -1 L 2 1 " style="stroke:none"/>
		</g>
		<marker id="mrkr4-95" class="st9" v:arrowType="4" v:arrowSize="1" v:setback="6.5" refX="-6.5" orient="auto"
				markerUnits="strokeWidth" overflow="visible">
			<use xlink:href="#lend4" transform="scale(-3.5,-3.5) "/>
		</marker>
	</defs>
	<g v:mID="0" v:index="1" v:groupContext="foregroundPage">
		<title>Page-1</title>
		<v:pageProperties v:drawingScale="1" v:pageScale="1" v:drawingUnits="19" v:shadowOffsetX="9" v:shadowOffsetY="-9"/>
		<v:layer v:name="Connector" v:index="0"/>
		<g id="shape1-1" v:mID="1" v:groupContext="shape" transform="translate(69.3281,-3.175)">
			<title>Sheet.1</title>
			<desc>B∙C</desc>
			<v:textBlock v:margins="rect(0,0,0,0)"/>
			<v:textRect cx="15.75" cy="65.9875" width="31.5" height="9"/>
			<path d="M31.5 61.49 L0 61.49 L0 70.49 L31.5 70.49 L31.5 61.49" class="st1"/>
			<text x="7.41" y="68.99" class="st2" v:langID="1033"><v:paragraph v:horizAlign="1"/><v:tabList/>B∙C</text>		</g>
		<g id="shape2-5" v:mID="2" v:groupContext="shape" transform="translate(69.7148,-58.3)">
			<title>Sheet.2</title>
			<desc>A∙B</desc>
			<v:textBlock v:margins="rect(0,0,0,0)"/>
			<v:textRect cx="15.75" cy="65.9875" width="31.5" height="9"/>
			<path d="M31.5 61.49 L0 61.49 L0 70.49 L31.5 70.49 L31.5 61.49" class="st1"/>
			<text x="7.69" y="68.99" class="st2" v:langID="1033"><v:paragraph v:horizAlign="1"/><v:tabList/>A∙B</text>		</g>
		<g id="shape3-9" v:mID="3" v:groupContext="shape" transform="translate(113.203,-29.05)">
			<title>Sheet.3</title>
			<desc>F = A∙B + B∙C</desc>
			<v:textBlock v:margins="rect(0,0,0,0)"/>
			<v:textRect cx="37.125" cy="65.9875" width="74.25" height="9"/>
			<path d="M74.25 61.49 L0 61.49 L0 70.49 L74.25 70.49 L74.25 61.49" class="st1"/>
			<text x="6.28" y="68.99" class="st2" v:langID="1033"><v:paragraph v:horizAlign="1"/><v:tabList/>F = A∙B + B∙C</text>		</g>
		<g id="shape4-13" v:mID="4" v:groupContext="shape" transform="translate(42.75,-39.175)">
			<title>Sheet.4</title>
			<path d="M0 52.49 L0 70.49 L10.12 70.49 A10.125 9 -180 0 0 20.25 61.49 A10.125 9 -180 0 0 10.12 52.49 L0 52.49 Z"
					class="st3"/>
		</g>
		<g id="shape5-15" v:mID="5" v:groupContext="shape" transform="translate(63,-21.175)">
			<title>Sheet.5</title>
			<path d="M0 70.49 L11.25 70.49" class="st4"/>
		</g>
		<g id="shape6-18" v:mID="6" v:groupContext="shape" transform="translate(11.25,-52.675)">
			<title>Sheet.6</title>
			<path d="M31.5 70.49 L0 70.49" class="st4"/>
		</g>
		<g id="shape7-21" v:mID="7" v:groupContext="shape" transform="translate(36,-25.675)">
			<title>Sheet.7</title>
			<path d="M0 52.44 L0 70.49" class="st4"/>
		</g>
		<g id="shape8-24" v:mID="8" v:groupContext="shape" transform="translate(42.75,-12.175)">
			<title>Sheet.8</title>
			<path d="M0 52.49 L0 70.49 L10.12 70.49 A10.125 9 -180 0 0 20.25 61.49 A10.125 9 -180 0 0 10.12 52.49 L0 52.49 Z"
					class="st3"/>
		</g>
		<g id="group9-26" transform="translate(81.1406,-25.675)" v:mID="9" v:groupContext="group">
			<title>Sheet.9</title>
			<g id="shape10-27" v:mID="10" v:groupContext="shape">
				<title>Sheet.10</title>
				<path d="M2.1 61.49 L2.02 62.97 L1.85 65.66 L1.51 67.8 L1.01 69.28 L0 70.49 L8.57 70.49 L11.84 70.02 L13.27 69.56
							 L14.45 69 L16.04 67.98 L17.05 66.96 L18.39 64.92 L20.24 61.49" class="st5"/>
			</g>
			<g id="shape11-30" v:mID="11" v:groupContext="shape" transform="translate(0.00754234,-9.00045)">
				<title>Sheet.11</title>
				<path d="M2.1 70.49 L2.02 69 L1.85 66.41 L1.51 64.27 L1.01 62.79 L0 61.49 L8.57 61.49 L11.84 61.95 L13.27 62.51 L14.45
							 63.07 L16.04 64.09 L17.05 65.11 L18.39 67.15 L20.24 70.49" class="st5"/>
			</g>
		</g>
		<g id="shape12-33" v:mID="12" v:groupContext="shape" transform="translate(11.25,-43.675)">
			<title>Sheet.12</title>
			<path d="M31.5 70.49 L0 70.49" class="st4"/>
		</g>
		<g id="shape13-36" v:mID="13" v:groupContext="shape" transform="translate(36,-25.675)">
			<title>Sheet.13</title>
			<path d="M6.75 70.49 L0 70.49" class="st4"/>
		</g>
		<g id="shape14-39" v:mID="14" v:groupContext="shape" transform="translate(33.75,-16.675)">
			<title>Sheet.14</title>
			<path d="M9 70.49 L0 70.49" class="st4"/>
		</g>
		<g id="shape15-42" v:mID="15" v:groupContext="shape" transform="translate(74.25,-39.175)">
			<title>Sheet.15</title>
			<path d="M0 61.44 L0 70.49" class="st4"/>
		</g>
		<g id="shape16-45" v:mID="16" v:groupContext="shape" transform="translate(74.3906,-39.175)">
			<title>Sheet.16</title>
			<path d="M0 70.49 L8.44 70.49" class="st4"/>
		</g>
		<g id="shape17-48" v:mID="17" v:groupContext="shape" transform="translate(74.25,-21.175)">
			<title>Sheet.17</title>
			<path d="M0 61.44 L0 70.49" class="st4"/>
		</g>
		<g id="shape18-51" v:mID="18" v:groupContext="shape" transform="translate(74.3906,-30.175)">
			<title>Sheet.18</title>
			<path d="M0 70.49 L8.44 70.49" class="st4"/>
		</g>
		<g id="shape19-54" v:mID="19" v:groupContext="shape" transform="translate(101.391,-34.675)">
			<title>Sheet.19</title>
			<path d="M0 70.49 L8.44 70.49" class="st4"/>
		</g>
		<g id="shape20-57" v:mID="20" v:groupContext="shape" transform="translate(34.9917,-42.6667)">
			<title>Circle.189</title>
			<v:userDefs>
				<v:ud v:nameU="visVersion" v:val="VT0(11):26"/>
			</v:userDefs>
			<path d="M0 69.48 A1.00825 1.00825 0 1 1 2.02 69.48 A1.00825 1.00825 0 1 1 -0 69.48 Z" class="st6"/>
		</g>
		<g id="shape21-59" v:mID="21" v:groupContext="shape" transform="translate(67.5,-48.175)">
			<title>Sheet.21</title>
			<path d="M0 70.49 L6.75 70.49" class="st4"/>
		</g>
		<g id="group22-62" transform="translate(20.3629,-10.4922)" v:mID="22" v:groupContext="group">
			<title>Sheet.22</title>
			<g id="shape23-63" v:mID="23" v:groupContext="shape">
				<title>Sheet.23</title>
				<path d="M0 58.12 L0 70.49 L10.3 64.24 L0 58.12 L0 58.12 Z" class="st7"/>
			</g>
			<g id="shape24-65" v:mID="24" v:groupContext="shape">
				<title>Sheet.24</title>
				<path d="M0 58.12 L0 70.49 L10.3 64.24 L0 58.12 L0 58.12" class="st5"/>
			</g>
			<g id="shape25-68" v:mID="25" v:groupContext="shape" transform="translate(10.2977,-4.71674)">
				<title>Sheet.25</title>
				<path d="M0 68.96 L0 68.7 L0.13 68.32 L0.26 68.07 L0.51 67.94 L0.64 67.68 L1.03 67.56 L1.29 67.43 L1.54 67.43 L1.93
							 67.43 L2.19 67.56 L2.45 67.68 L2.7 67.94 L2.83 68.07 L2.96 68.32 L3.09 68.7 L3.09 68.96 L3.09 68.96
							 L3.09 69.34 L2.96 69.6 L2.83 69.85 L2.7 70.11 L2.45 70.23 L2.19 70.36 L1.93 70.49 L1.54 70.49 L1.29
							 70.49 L1.03 70.36 L0.64 70.23 L0.51 70.11 L0.26 69.85 L0.13 69.6 L0 69.34 L0 68.96 L0 68.96 Z"
						class="st7"/>
			</g>
			<g id="shape26-70" v:mID="26" v:groupContext="shape" transform="translate(10.2977,-4.71674)">
				<title>Sheet.26</title>
				<path d="M0 68.96 L0 68.7 L0.13 68.32 L0.26 68.07 L0.51 67.94 L0.64 67.68 L1.03 67.56 L1.29 67.43 L1.54 67.43 L1.93
							 67.43 L2.19 67.56 L2.45 67.68 L2.7 67.94 L2.83 68.07 L2.96 68.32 L3.09 68.7 L3.09 68.96 L3.09 68.96
							 L3.09 69.34 L2.96 69.6 L2.83 69.85 L2.7 70.11 L2.45 70.23 L2.19 70.36 L1.93 70.49 L1.54 70.49 L1.29
							 70.49 L1.03 70.36 L0.64 70.23 L0.51 70.11 L0.26 69.85 L0.13 69.6 L0 69.34 L0 68.96" class="st5"/>
			</g>
		</g>
		<g id="shape27-73" v:mID="27" v:groupContext="shape" transform="translate(11.25,-16.675)">
			<title>Sheet.27</title>
			<path d="M9 70.49 L0 70.49" class="st4"/>
		</g>
		<g id="shape28-76" v:mID="28" v:groupContext="shape" transform="translate(0,-48.175)">
			<title>Sheet.28</title>
			<desc>A</desc>
			<v:textBlock v:margins="rect(0,0,0,0)"/>
			<v:textRect cx="4.5" cy="65.9875" width="9" height="9"/>
			<path d="M9 61.49 L0 61.49 L0 70.49 L9 70.49 L9 61.49" class="st1"/>
			<text x="1.16" y="68.99" class="st2" v:langID="1033"><v:paragraph v:horizAlign="1"/><v:tabList/>A</text>		</g>
		<g id="shape29-80" v:mID="29" v:groupContext="shape" transform="translate(0,-36.925)">
			<title>Sheet.29</title>
			<desc>B</desc>
			<v:textBlock v:margins="rect(0,0,0,0)"/>
			<v:textRect cx="4.5" cy="65.9875" width="9" height="9"/>
			<path d="M9 61.49 L0 61.49 L0 70.49 L9 70.49 L9 61.49" class="st1"/>
			<text x="1.16" y="68.99" class="st2" v:langID="1033"><v:paragraph v:horizAlign="1"/><v:tabList/>B</text>		</g>
		<g id="shape30-84" v:mID="30" v:groupContext="shape" transform="translate(0,-11.05)">
			<title>Sheet.30</title>
			<desc>C</desc>
			<v:textBlock v:margins="rect(0,0,0,0)"/>
			<v:textRect cx="4.5" cy="65.9875" width="9" height="9"/>
			<path d="M9 61.49 L0 61.49 L0 70.49 L9 70.49 L9 61.49" class="st1"/>
			<text x="0.89" y="68.99" class="st2" v:langID="1033"><v:paragraph v:horizAlign="1"/><v:tabList/>C</text>		</g>
		<g id="shape31-88" v:mID="31" v:groupContext="shape" transform="translate(63,-45.925)">
			<title>Circle.317</title>
			<v:userDefs>
				<v:ud v:nameU="visVersion" v:val="VT0(11):26"/>
			</v:userDefs>
			<path d="M0 68.24 A2.25 2.25 0 0 1 4.5 68.24 A2.25 2.25 0 1 1 0 68.24 Z" class="st3"/>
		</g>
		<g id="shape32-90" v:mID="32" v:groupContext="shape" v:layerMember="0"
				transform="translate(49.7395,129.056) rotate(-160.017)">
			<title>Line-curve connector</title>
			<v:userDefs>
				<v:ud v:nameU="AntiScale" v:val="VT0(1):26"/>
				<v:ud v:nameU="Scale" v:val="VT0(1):26"/>
				<v:ud v:nameU="visVersion" v:val="VT0(11):26"/>
			</v:userDefs>
			<path d="M0 70.49 L3.12 69.51 L5.92 68.97 L8.4 68.87 L8.74 68.98" class="st8"/>
		</g>
		<g id="shape33-96" v:mID="33" v:groupContext="shape" v:layerMember="0"
				transform="translate(48.6145,-58.5562) rotate(-19.9831) scale(-1,1)">
			<title>Line-curve connector.167</title>
			<v:userDefs>
				<v:ud v:nameU="AntiScale" v:val="VT0(1):26"/>
				<v:ud v:nameU="Scale" v:val="VT0(1):26"/>
				<v:ud v:nameU="visVersion" v:val="VT0(11):26"/>
			</v:userDefs>
			<path d="M0 70.49 L3.12 69.51 L5.92 68.97 L8.4 68.87 L8.74 68.98" class="st8"/>
		</g>
		<g id="shape34-101" v:mID="34" v:groupContext="shape" transform="translate(300.305,-3.175)">
			<title>Sheet.34</title>
			<desc>B∙C</desc>
			<v:textBlock v:margins="rect(0,0,0,0)"/>
			<v:textRect cx="15.75" cy="65.9875" width="31.5" height="9"/>
			<path d="M31.5 61.49 L0 61.49 L0 70.49 L31.5 70.49 L31.5 61.49" class="st1"/>
			<text x="7.41" y="68.99" class="st2" v:langID="1033"><v:paragraph v:horizAlign="1"/><v:tabList/>B∙C</text>		</g>
		<g id="shape35-105" v:mID="35" v:groupContext="shape" transform="translate(303.68,-58.3)">
			<title>Sheet.35</title>
			<desc>A∙B</desc>
			<v:textBlock v:margins="rect(0,0,0,0)"/>
			<v:textRect cx="15.75" cy="65.9875" width="31.5" height="9"/>
			<path d="M31.5 61.49 L0 61.49 L0 70.49 L31.5 70.49 L31.5 61.49" class="st1"/>
			<text x="7.69" y="68.99" class="st2" v:langID="1033"><v:paragraph v:horizAlign="1"/><v:tabList/>A∙B</text>		</g>
		<g id="shape36-109" v:mID="36" v:groupContext="shape" transform="translate(344.18,-29.05)">
			<title>Sheet.36</title>
			<desc>F = A∙B + B∙C</desc>
			<v:textBlock v:margins="rect(0,0,0,0)"/>
			<v:textRect cx="37.125" cy="65.9875" width="74.25" height="9"/>
			<path d="M74.25 61.49 L0 61.49 L0 70.49 L74.25 70.49 L74.25 61.49" class="st1"/>
			<text x="6.28" y="68.99" class="st2" v:langID="1033"><v:paragraph v:horizAlign="1"/><v:tabList/>F = A∙B + B∙C</text>		</g>
		<g id="shape37-113" v:mID="37" v:groupContext="shape" transform="translate(273.727,-39.175)">
			<title>Sheet.37</title>
			<path d="M0 52.49 L0 70.49 L10.12 70.49 A10.125 9 -180 0 0 20.25 61.49 A10.125 9 -180 0 0 10.12 52.49 L0 52.49 Z"
					class="st3"/>
		</g>
		<g id="shape38-115" v:mID="38" v:groupContext="shape" transform="translate(293.977,-21.175)">
			<title>Sheet.38</title>
			<path d="M0 70.49 L11.25 70.49" class="st4"/>
		</g>
		<g id="shape39-118" v:mID="39" v:groupContext="shape" transform="translate(242.227,-52.675)">
			<title>Sheet.39</title>
			<path d="M31.5 70.49 L0 70.49" class="st4"/>
		</g>
		<g id="shape40-121" v:mID="40" v:groupContext="shape" transform="translate(266.977,-25.675)">
			<title>Sheet.40</title>
			<path d="M0 52.44 L0 70.49" class="st4"/>
		</g>
		<g id="shape41-124" v:mID="41" v:groupContext="shape" transform="translate(273.727,-12.175)">
			<title>Sheet.41</title>
			<path d="M0 52.49 L0 70.49 L10.12 70.49 A10.125 9 -180 0 0 20.25 61.49 A10.125 9 -180 0 0 10.12 52.49 L0 52.49 Z"
					class="st3"/>
		</g>
		<g id="group42-126" transform="translate(312.117,-25.675)" v:mID="42" v:groupContext="group">
			<title>Sheet.42</title>
			<g id="shape43-127" v:mID="43" v:groupContext="shape">
				<title>Sheet.43</title>
				<path d="M2.1 61.49 L2.02 62.97 L1.85 65.66 L1.51 67.8 L1.01 69.28 L0 70.49 L8.57 70.49 L11.84 70.02 L13.27 69.56
							 L14.45 69 L16.04 67.98 L17.05 66.96 L18.39 64.92 L20.24 61.49" class="st5"/>
			</g>
			<g id="shape44-130" v:mID="44" v:groupContext="shape" transform="translate(0.00754234,-9.00045)">
				<title>Sheet.44</title>
				<path d="M2.1 70.49 L2.02 69 L1.85 66.41 L1.51 64.27 L1.01 62.79 L0 61.49 L8.57 61.49 L11.84 61.95 L13.27 62.51 L14.45
							 63.07 L16.04 64.09 L17.05 65.11 L18.39 67.15 L20.24 70.49" class="st5"/>
			</g>
		</g>
		<g id="shape45-133" v:mID="45" v:groupContext="shape" transform="translate(242.227,-43.675)">
			<title>Sheet.45</title>
			<path d="M31.5 70.49 L0 70.49" class="st4"/>
		</g>
		<g id="shape46-136" v:mID="46" v:groupContext="shape" transform="translate(266.977,-25.675)">
			<title>Sheet.46</title>
			<path d="M6.75 70.49 L0 70.49" class="st4"/>
		</g>
		<g id="shape47-139" v:mID="47" v:groupContext="shape" transform="translate(264.727,-16.675)">
			<title>Sheet.47</title>
			<path d="M9 70.49 L0 70.49" class="st4"/>
		</g>
		<g id="shape48-142" v:mID="48" v:groupContext="shape" transform="translate(305.227,-39.175)">
			<title>Sheet.48</title>
			<path d="M0 61.44 L0 70.49" class="st4"/>
		</g>
		<g id="shape49-145" v:mID="49" v:groupContext="shape" transform="translate(305.367,-39.175)">
			<title>Sheet.49</title>
			<path d="M0 70.49 L3.59 70.49" class="st4"/>
		</g>
		<g id="shape50-148" v:mID="50" v:groupContext="shape" transform="translate(305.227,-21.175)">
			<title>Sheet.50</title>
			<path d="M0 61.44 L0 70.49" class="st4"/>
		</g>
		<g id="shape51-151" v:mID="51" v:groupContext="shape" transform="translate(305.367,-30.175)">
			<title>Sheet.51</title>
			<path d="M0 70.49 L3.59 70.49" class="st4"/>
		</g>
		<g id="shape52-154" v:mID="52" v:groupContext="shape" transform="translate(332.367,-34.675)">
			<title>Sheet.52</title>
			<path d="M0 70.49 L8.44 70.49" class="st4"/>
		</g>
		<g id="shape53-157" v:mID="53" v:groupContext="shape" transform="translate(265.968,-42.6667)">
			<title>Circle.204</title>
			<v:userDefs>
				<v:ud v:nameU="visVersion" v:val="VT0(11):26"/>
			</v:userDefs>
			<path d="M0 69.48 A1.00825 1.00825 0 1 1 2.02 69.48 A1.00825 1.00825 0 1 1 -0 69.48 Z" class="st6"/>
		</g>
		<g id="shape54-159" v:mID="54" v:groupContext="shape" transform="translate(298.477,-48.175)">
			<title>Sheet.54</title>
			<path d="M0 70.49 L6.75 70.49" class="st4"/>
		</g>
		<g id="group55-162" transform="translate(251.339,-10.4922)" v:mID="55" v:groupContext="group">
			<title>Sheet.55</title>
			<g id="shape56-163" v:mID="56" v:groupContext="shape">
				<title>Sheet.56</title>
				<path d="M0 58.12 L0 70.49 L10.3 64.24 L0 58.12 L0 58.12 Z" class="st7"/>
			</g>
			<g id="shape57-165" v:mID="57" v:groupContext="shape">
				<title>Sheet.57</title>
				<path d="M0 58.12 L0 70.49 L10.3 64.24 L0 58.12 L0 58.12" class="st5"/>
			</g>
			<g id="shape58-168" v:mID="58" v:groupContext="shape" transform="translate(10.2977,-4.71674)">
				<title>Sheet.58</title>
				<path d="M0 68.96 L0 68.7 L0.13 68.32 L0.26 68.07 L0.51 67.94 L0.64 67.68 L1.03 67.56 L1.29 67.43 L1.54 67.43 L1.93
							 67.43 L2.19 67.56 L2.45 67.68 L2.7 67.94 L2.83 68.07 L2.96 68.32 L3.09 68.7 L3.09 68.96 L3.09 68.96
							 L3.09 69.34 L2.96 69.6 L2.83 69.85 L2.7 70.11 L2.45 70.23 L2.19 70.36 L1.93 70.49 L1.54 70.49 L1.29
							 70.49 L1.03 70.36 L0.64 70.23 L0.51 70.11 L0.26 69.85 L0.13 69.6 L0 69.34 L0 68.96 L0 68.96 Z"
						class="st7"/>
			</g>
			<g id="shape59-170" v:mID="59" v:groupContext="shape" transform="translate(10.2977,-4.71674)">
				<title>Sheet.59</title>
				<path d="M0 68.96 L0 68.7 L0.13 68.32 L0.26 68.07 L0.51 67.94 L0.64 67.68 L1.03 67.56 L1.29 67.43 L1.54 67.43 L1.93
							 67.43 L2.19 67.56 L2.45 67.68 L2.7 67.94 L2.83 68.07 L2.96 68.32 L3.09 68.7 L3.09 68.96 L3.09 68.96
							 L3.09 69.34 L2.96 69.6 L2.83 69.85 L2.7 70.11 L2.45 70.23 L2.19 70.36 L1.93 70.49 L1.54 70.49 L1.29
							 70.49 L1.03 70.36 L0.64 70.23 L0.51 70.11 L0.26 69.85 L0.13 69.6 L0 69.34 L0 68.96" class="st5"/>
			</g>
		</g>
		<g id="shape60-173" v:mID="60" v:groupContext="shape" transform="translate(242.227,-16.675)">
			<title>Sheet.60</title>
			<path d="M9 70.49 L0 70.49" class="st4"/>
		</g>
		<g id="shape61-176" v:mID="61" v:groupContext="shape" transform="translate(230.977,-48.175)">
			<title>Sheet.61</title>
			<desc>A</desc>
			<v:textBlock v:margins="rect(0,0,0,0)"/>
			<v:textRect cx="4.5" cy="65.9875" width="9" height="9"/>
			<path d="M9 61.49 L0 61.49 L0 70.49 L9 70.49 L9 61.49" class="st1"/>
			<text x="1.16" y="68.99" class="st2" v:langID="1033"><v:paragraph v:horizAlign="1"/><v:tabList/>A</text>		</g>
		<g id="shape62-180" v:mID="62" v:groupContext="shape" transform="translate(230.977,-36.925)">
			<title>Sheet.62</title>
			<desc>B</desc>
			<v:textBlock v:margins="rect(0,0,0,0)"/>
			<v:textRect cx="4.5" cy="65.9875" width="9" height="9"/>
			<path d="M9 61.49 L0 61.49 L0 70.49 L9 70.49 L9 61.49" class="st1"/>
			<text x="1.16" y="68.99" class="st2" v:langID="1033"><v:paragraph v:horizAlign="1"/><v:tabList/>B</text>		</g>
		<g id="shape63-184" v:mID="63" v:groupContext="shape" transform="translate(230.977,-11.05)">
			<title>Sheet.63</title>
			<desc>C</desc>
			<v:textBlock v:margins="rect(0,0,0,0)"/>
			<v:textRect cx="4.5" cy="65.9875" width="9" height="9"/>
			<path d="M9 61.49 L0 61.49 L0 70.49 L9 70.49 L9 61.49" class="st1"/>
			<text x="0.89" y="68.99" class="st2" v:langID="1033"><v:paragraph v:horizAlign="1"/><v:tabList/>C</text>		</g>
		<g id="shape64-188" v:mID="64" v:groupContext="shape" transform="translate(293.977,-45.925)">
			<title>Circle.259</title>
			<v:userDefs>
				<v:ud v:nameU="visVersion" v:val="VT0(11):26"/>
			</v:userDefs>
			<path d="M0 68.24 A2.25 2.25 0 0 1 4.5 68.24 A2.25 2.25 0 1 1 0 68.24 Z" class="st3"/>
		</g>
		<g id="shape65-190" v:mID="65" v:groupContext="shape" v:layerMember="0"
				transform="translate(280.716,129.056) rotate(-160.017)">
			<title>Line-curve connector.260</title>
			<v:userDefs>
				<v:ud v:nameU="AntiScale" v:val="VT0(1):26"/>
				<v:ud v:nameU="Scale" v:val="VT0(1):26"/>
				<v:ud v:nameU="visVersion" v:val="VT0(11):26"/>
			</v:userDefs>
			<path d="M0 70.49 L3.12 69.51 L5.92 68.97 L8.4 68.87 L8.74 68.98" class="st8"/>
		</g>
		<g id="shape66-195" v:mID="66" v:groupContext="shape" v:layerMember="0"
				transform="translate(279.591,-58.5562) rotate(-19.9831) scale(-1,1)">
			<title>Line-curve connector.261</title>
			<v:userDefs>
				<v:ud v:nameU="AntiScale" v:val="VT0(1):26"/>
				<v:ud v:nameU="Scale" v:val="VT0(1):26"/>
				<v:ud v:nameU="visVersion" v:val="VT0(11):26"/>
			</v:userDefs>
			<path d="M0 70.49 L3.12 69.51 L5.92 68.97 L8.4 68.87 L8.74 68.98" class="st8"/>
		</g>
		<g id="shape67-200" v:mID="67" v:groupContext="shape" transform="translate(309.516,-36.925)">
			<title>Circle.262</title>
			<v:userDefs>
				<v:ud v:nameU="visVersion" v:val="VT0(11):26"/>
			</v:userDefs>
			<path d="M0 68.24 A2.25 2.25 0 0 1 4.5 68.24 A2.25 2.25 0 1 1 0 68.24 Z" class="st3"/>
		</g>
		<g id="shape68-202" v:mID="68" v:groupContext="shape" transform="translate(309.516,-27.925)">
			<title>Circle.263</title>
			<v:userDefs>
				<v:ud v:nameU="visVersion" v:val="VT0(11):26"/>
			</v:userDefs>
			<path d="M0 68.24 A2.25 2.25 0 0 1 4.5 68.24 A2.25 2.25 0 1 1 0 68.24 Z" class="st3"/>
		</g>
		<g id="shape69-204" v:mID="69" v:groupContext="shape" transform="translate(77.5898,-69.55)">
			<title>Sheet.69</title>
			<path d="M0 70.49 L15.75 70.49" class="st10"/>
		</g>
		<g id="shape70-207" v:mID="70" v:groupContext="shape" transform="translate(87.1523,-13.8625)">
			<title>Sheet.70</title>
			<path d="M0 70.49 L5.62 70.49" class="st10"/>
		</g>
		<g id="shape71-210" v:mID="71" v:groupContext="shape" transform="translate(137.215,-39.7375)">
			<title>Sheet.71</title>
			<path d="M0 70.49 L15.75 70.49" class="st10"/>
		</g>
		<g id="shape72-213" v:mID="72" v:groupContext="shape" transform="translate(174.902,-39.7375)">
			<title>Sheet.72</title>
			<path d="M0 70.49 L5.62 70.49" class="st10"/>
		</g>
		<g id="shape73-216" v:mID="73" v:groupContext="shape" transform="translate(312.715,-70.1125)">
			<title>Sheet.73</title>
			<path d="M0 70.49 L13.5 70.49" class="st10"/>
		</g>
		<g id="shape74-219" v:mID="74" v:groupContext="shape" transform="translate(395.965,-41.9875)">
			<title>Sheet.74</title>
			<path d="M0 70.49 L15.75 70.49" class="st10"/>
		</g>
		<g id="shape75-222" v:mID="75" v:groupContext="shape" transform="translate(317.777,-13.8625)">
			<title>Sheet.75</title>
			<path d="M0 70.49 L5.62 70.49" class="st10"/>
		</g>
		<g id="shape76-225" v:mID="76" v:groupContext="shape" transform="translate(405.809,-39.7375)">
			<title>Sheet.76</title>
			<path d="M0 70.49 L5.62 70.49" class="st10"/>
		</g>
	</g>
</svg>
