<?xml version="1.0" encoding="UTF-8" standalone="no"?>
<!DOCTYPE svg PUBLIC "-//W3C//DTD SVG 1.1//EN" "http://www.w3.org/Graphics/SVG/1.1/DTD/svg11.dtd">
<!-- Generated by Microsoft Visio, SVG Export CascadeClockDivider.svg Page-1 -->
<svg xmlns="http://www.w3.org/2000/svg" xmlns:xlink="http://www.w3.org/1999/xlink" xmlns:ev="http://www.w3.org/2001/xml-events"
		xmlns:v="http://schemas.microsoft.com/visio/2003/SVGExtensions/" width="6.93187in" height="2.36921in"
		viewBox="0 0 499.095 170.583" xml:space="preserve" color-interpolation-filters="sRGB" class="st9">
	<v:documentProperties v:langID="1033" v:viewMarkup="false"/>

	<style type="text/css">
	<![CDATA[
		.st1 {fill:#d5e1fb;stroke:#000000;stroke-linecap:round;stroke-linejoin:round;stroke-width:0.24}
		.st2 {stroke:#000000;stroke-linecap:round;stroke-linejoin:round;stroke-width:0.72}
		.st3 {fill:none;stroke:none;stroke-linecap:round;stroke-linejoin:round;stroke-width:0.72}
		.st4 {fill:#000000;font-family:Arial;font-size:0.833336em}
		.st5 {fill:#ffffff;stroke:#000000;stroke-linecap:round;stroke-linejoin:round;stroke-width:0.72}
		.st6 {stroke:#000000;stroke-linecap:round;stroke-linejoin:round;stroke-width:0.75}
		.st7 {stroke:#000000;stroke-dasharray:0.75,1.5;stroke-linecap:round;stroke-linejoin:round;stroke-width:0.75}
		.st8 {fill:#000000;font-family:Arial;font-size:0.666664em}
		.st9 {fill:none;fill-rule:evenodd;font-size:12px;overflow:visible;stroke-linecap:square;stroke-miterlimit:3}
	]]>
	</style>

	<g v:mID="0" v:index="1" v:groupContext="foregroundPage">
		<title>Page-1</title>
		<v:pageProperties v:drawingScale="1" v:pageScale="1" v:drawingUnits="19" v:shadowOffsetX="9" v:shadowOffsetY="-9"/>
		<g id="shape1-1" v:mID="1" v:groupContext="shape" transform="translate(49.86,-15.0388)">
			<title>Rectangle</title>
			<rect x="0" y="112.083" width="40.5" height="58.5" class="st1"/>
		</g>
		<g id="shape2-3" v:mID="2" v:groupContext="shape" transform="translate(40.86,-42.0388)">
			<title>Sheet.2</title>
			<path d="M0 170.58 L9 170.58" class="st2"/>
		</g>
		<g id="shape3-6" v:mID="3" v:groupContext="shape" transform="translate(40.86,-65.3287)">
			<title>Sheet.3</title>
			<path d="M0 170.58 L9 170.58" class="st2"/>
		</g>
		<g id="shape4-9" v:mID="4" v:groupContext="shape" transform="translate(40.86,-6.03882)">
			<title>Sheet.4</title>
			<path d="M0 170.58 L238.5 170.58" class="st2"/>
		</g>
		<g id="shape5-12" v:mID="5" v:groupContext="shape" transform="translate(90.36,-64.5388)">
			<title>Sheet.5</title>
			<path d="M0 170.58 L9 170.58" class="st2"/>
		</g>
		<g id="shape6-15" v:mID="6" v:groupContext="shape" transform="translate(47.61,-57.7888)">
			<title>Sheet.6</title>
			<desc>D</desc>
			<v:textBlock v:margins="rect(4,4,4,4)"/>
			<v:textRect cx="9" cy="163.833" width="18" height="13.5"/>
			<rect x="0" y="157.083" width="18" height="13.5" class="st3"/>
			<text x="5.39" y="166.83" class="st4" v:langID="1033"><v:paragraph v:horizAlign="1"/><v:tabList/>D</text>		</g>
		<g id="shape7-18" v:mID="7" v:groupContext="shape" transform="translate(74.61,-57.7888)">
			<title>Sheet.7</title>
			<desc>Q</desc>
			<v:textBlock v:margins="rect(4,4,4,4)"/>
			<v:textRect cx="9" cy="163.833" width="18" height="13.5"/>
			<rect x="0" y="157.083" width="18" height="13.5" class="st3"/>
			<text x="5.11" y="166.83" class="st4" v:langID="1033"><v:paragraph v:horizAlign="1"/><v:tabList/>Q</text>		</g>
		<g id="shape8-21" v:mID="8" v:groupContext="shape" transform="translate(52.11,-35.2888)">
			<title>Sheet.8</title>
			<desc>Clk</desc>
			<v:textBlock v:margins="rect(4,4,4,4)"/>
			<v:textRect cx="14.625" cy="163.833" width="29.25" height="13.5"/>
			<rect x="0" y="157.083" width="29.25" height="13.5" class="st3"/>
			<text x="7.4" y="166.83" class="st4" v:langID="1033"><v:paragraph v:horizAlign="1"/><v:tabList/>Clk</text>		</g>
		<g id="shape9-24" v:mID="9" v:groupContext="shape" transform="translate(58.86,-15.0388)">
			<title>Sheet.9</title>
			<desc>Rst</desc>
			<v:textBlock v:margins="rect(4,4,4,4)"/>
			<v:textRect cx="11.8125" cy="166.083" width="23.63" height="9"/>
			<rect x="0" y="161.583" width="23.625" height="9" class="st3"/>
			<text x="4.31" y="169.08" class="st4" v:langID="1033"><v:paragraph v:horizAlign="1"/><v:tabList/>Rst</text>		</g>
		<g id="shape10-27" v:mID="10" v:groupContext="shape" transform="translate(49.86,-37.5388)">
			<title>Sheet.10</title>
			<path d="M0 170.58 L6.75 166.08 L0 161.58" class="st2"/>
		</g>
		<g id="shape11-30" v:mID="11" v:groupContext="shape" transform="translate(31.86,-65.3287)">
			<title>Sheet.11</title>
			<path d="M0 170.58 L9 170.58" class="st2"/>
		</g>
		<g id="shape12-33" v:mID="12" v:groupContext="shape" transform="translate(19.786,269.087) scale(1,-1)">
			<title>Sheet.12</title>
			<path d="M0 157.08 L0 170.58 L11.72 163.74 L0 157.08 ZM11.72 163.74 L12.08 164.82 L12.98 165.36 L13.89 165.36 L14.79
						 164.82 L15.15 163.74 L14.79 162.84 L13.89 162.12 L12.98 162.12 L12.08 162.84 L11.72 163.74 Z" class="st5"/>
		</g>
		<g id="shape14-35" v:mID="14" v:groupContext="shape" transform="translate(2.61,-64.5388)">
			<title>Sheet.14</title>
			<path d="M103.5 170.58 L103.5 156.01 L0 156.01" class="st6"/>
		</g>
		<g id="shape15-38" v:mID="15" v:groupContext="shape" transform="translate(2.61,-65.61)">
			<title>Sheet.15</title>
			<path d="M0 157.08 L0 170.58 L17.18 170.58" class="st6"/>
		</g>
		<g id="shape16-41" v:mID="16" v:groupContext="shape" transform="translate(40.86,299.127) rotate(180)">
			<title>Sheet.16</title>
			<path d="M0 170.58 L24.75 170.58" class="st6"/>
		</g>
		<g id="shape20-44" v:mID="20" v:groupContext="shape" transform="translate(-100.473,164.544) rotate(-90)">
			<title>Sheet.20</title>
			<path d="M0 170.58 L9 170.58" class="st6"/>
		</g>
		<g id="shape21-47" v:mID="21" v:groupContext="shape" transform="translate(130.86,-37.5388)">
			<title>Rectangle.21</title>
			<rect x="0" y="112.083" width="40.5" height="58.5" class="st1"/>
		</g>
		<g id="shape22-49" v:mID="22" v:groupContext="shape" transform="translate(121.86,-64.5388)">
			<title>Sheet.22</title>
			<path d="M0 170.58 L9 170.58" class="st2"/>
		</g>
		<g id="shape23-52" v:mID="23" v:groupContext="shape" transform="translate(121.86,-87.8287)">
			<title>Sheet.23</title>
			<path d="M0 170.58 L9 170.58" class="st2"/>
		</g>
		<g id="shape25-55" v:mID="25" v:groupContext="shape" transform="translate(171.36,-87.0388)">
			<title>Sheet.25</title>
			<path d="M0 170.58 L9 170.58" class="st2"/>
		</g>
		<g id="shape26-58" v:mID="26" v:groupContext="shape" transform="translate(128.61,-80.2888)">
			<title>Sheet.26</title>
			<desc>D</desc>
			<v:textBlock v:margins="rect(4,4,4,4)"/>
			<v:textRect cx="9" cy="163.833" width="18" height="13.5"/>
			<rect x="0" y="157.083" width="18" height="13.5" class="st3"/>
			<text x="5.39" y="166.83" class="st4" v:langID="1033"><v:paragraph v:horizAlign="1"/><v:tabList/>D</text>		</g>
		<g id="shape27-61" v:mID="27" v:groupContext="shape" transform="translate(155.61,-80.2888)">
			<title>Sheet.27</title>
			<desc>Q</desc>
			<v:textBlock v:margins="rect(4,4,4,4)"/>
			<v:textRect cx="9" cy="163.833" width="18" height="13.5"/>
			<rect x="0" y="157.083" width="18" height="13.5" class="st3"/>
			<text x="5.11" y="166.83" class="st4" v:langID="1033"><v:paragraph v:horizAlign="1"/><v:tabList/>Q</text>		</g>
		<g id="shape28-64" v:mID="28" v:groupContext="shape" transform="translate(133.11,-57.7888)">
			<title>Sheet.28</title>
			<desc>Clk</desc>
			<v:textBlock v:margins="rect(4,4,4,4)"/>
			<v:textRect cx="14.625" cy="163.833" width="29.25" height="13.5"/>
			<rect x="0" y="157.083" width="29.25" height="13.5" class="st3"/>
			<text x="7.4" y="166.83" class="st4" v:langID="1033"><v:paragraph v:horizAlign="1"/><v:tabList/>Clk</text>		</g>
		<g id="shape29-67" v:mID="29" v:groupContext="shape" transform="translate(139.86,-37.5388)">
			<title>Sheet.29</title>
			<desc>Rst</desc>
			<v:textBlock v:margins="rect(4,4,4,4)"/>
			<v:textRect cx="11.8125" cy="166.083" width="23.63" height="9"/>
			<rect x="0" y="161.583" width="23.625" height="9" class="st3"/>
			<text x="4.31" y="169.08" class="st4" v:langID="1033"><v:paragraph v:horizAlign="1"/><v:tabList/>Rst</text>		</g>
		<g id="shape30-70" v:mID="30" v:groupContext="shape" transform="translate(130.86,-60.0388)">
			<title>Sheet.30</title>
			<path d="M0 170.58 L6.75 166.08 L0 161.58" class="st2"/>
		</g>
		<g id="shape31-73" v:mID="31" v:groupContext="shape" transform="translate(112.86,-87.8287)">
			<title>Sheet.31</title>
			<path d="M0 170.58 L9 170.58" class="st2"/>
		</g>
		<g id="shape32-76" v:mID="32" v:groupContext="shape" transform="translate(100.786,246.587) scale(1,-1)">
			<title>Sheet.32</title>
			<path d="M0 157.08 L0 170.58 L11.72 163.74 L0 157.08 ZM11.72 163.74 L12.08 164.82 L12.98 165.36 L13.89 165.36 L14.79
						 164.82 L15.15 163.74 L14.79 162.84 L13.89 162.12 L12.98 162.12 L12.08 162.84 L11.72 163.74 Z" class="st5"/>
		</g>
		<g id="shape34-78" v:mID="34" v:groupContext="shape" transform="translate(83.61,-87.0388)">
			<title>Sheet.34</title>
			<path d="M103.5 170.58 L103.5 154.89 L0 154.89" class="st6"/>
		</g>
		<g id="shape35-81" v:mID="35" v:groupContext="shape" transform="translate(83.61,-88.11)">
			<title>Sheet.35</title>
			<path d="M0 156.01 L0 170.58 L17.18 170.58" class="st6"/>
		</g>
		<g id="shape36-84" v:mID="36" v:groupContext="shape" transform="translate(121.86,276.627) rotate(180)">
			<title>Sheet.36</title>
			<path d="M0 170.58 L24.75 170.58" class="st6"/>
		</g>
		<g id="shape37-87" v:mID="37" v:groupContext="shape" transform="translate(-19.4731,164.544) rotate(-90)">
			<title>Sheet.37</title>
			<path d="M0 170.58 L31.5 170.58" class="st6"/>
		</g>
		<g id="shape103-90" v:mID="103" v:groupContext="shape" transform="translate(212.985,-60.0388)">
			<title>Rectangle.103</title>
			<rect x="0" y="112.083" width="40.5" height="58.5" class="st1"/>
		</g>
		<g id="shape104-92" v:mID="104" v:groupContext="shape" transform="translate(203.985,-87.0388)">
			<title>Sheet.104</title>
			<path d="M0 170.58 L9 170.58" class="st2"/>
		</g>
		<g id="shape105-95" v:mID="105" v:groupContext="shape" transform="translate(203.985,-110.329)">
			<title>Sheet.105</title>
			<path d="M0 170.58 L9 170.58" class="st2"/>
		</g>
		<g id="shape108-98" v:mID="108" v:groupContext="shape" transform="translate(210.735,-102.789)">
			<title>Sheet.108</title>
			<desc>D</desc>
			<v:textBlock v:margins="rect(4,4,4,4)"/>
			<v:textRect cx="9" cy="163.833" width="18" height="13.5"/>
			<rect x="0" y="157.083" width="18" height="13.5" class="st3"/>
			<text x="5.39" y="166.83" class="st4" v:langID="1033"><v:paragraph v:horizAlign="1"/><v:tabList/>D</text>		</g>
		<g id="shape109-101" v:mID="109" v:groupContext="shape" transform="translate(237.735,-102.789)">
			<title>Sheet.109</title>
			<desc>Q</desc>
			<v:textBlock v:margins="rect(4,4,4,4)"/>
			<v:textRect cx="9" cy="163.833" width="18" height="13.5"/>
			<rect x="0" y="157.083" width="18" height="13.5" class="st3"/>
			<text x="5.11" y="166.83" class="st4" v:langID="1033"><v:paragraph v:horizAlign="1"/><v:tabList/>Q</text>		</g>
		<g id="shape110-104" v:mID="110" v:groupContext="shape" transform="translate(215.235,-80.2888)">
			<title>Sheet.110</title>
			<desc>Clk</desc>
			<v:textBlock v:margins="rect(4,4,4,4)"/>
			<v:textRect cx="14.625" cy="163.833" width="29.25" height="13.5"/>
			<rect x="0" y="157.083" width="29.25" height="13.5" class="st3"/>
			<text x="7.4" y="166.83" class="st4" v:langID="1033"><v:paragraph v:horizAlign="1"/><v:tabList/>Clk</text>		</g>
		<g id="shape111-107" v:mID="111" v:groupContext="shape" transform="translate(221.985,-60.0388)">
			<title>Sheet.111</title>
			<desc>Rst</desc>
			<v:textBlock v:margins="rect(4,4,4,4)"/>
			<v:textRect cx="11.8125" cy="166.083" width="23.63" height="9"/>
			<rect x="0" y="161.583" width="23.625" height="9" class="st3"/>
			<text x="4.31" y="169.08" class="st4" v:langID="1033"><v:paragraph v:horizAlign="1"/><v:tabList/>Rst</text>		</g>
		<g id="shape112-110" v:mID="112" v:groupContext="shape" transform="translate(212.985,-82.5388)">
			<title>Sheet.112</title>
			<path d="M0 170.58 L6.75 166.08 L0 161.58" class="st2"/>
		</g>
		<g id="shape113-113" v:mID="113" v:groupContext="shape" transform="translate(194.985,-110.329)">
			<title>Sheet.113</title>
			<path d="M0 170.58 L9 170.58" class="st2"/>
		</g>
		<g id="shape114-116" v:mID="114" v:groupContext="shape" transform="translate(182.911,224.087) scale(1,-1)">
			<title>Sheet.114</title>
			<path d="M0 157.08 L0 170.58 L11.72 163.74 L0 157.08 ZM11.72 163.74 L12.08 164.82 L12.98 165.36 L13.89 165.36 L14.79
						 164.82 L15.15 163.74 L14.79 162.84 L13.89 162.12 L12.98 162.12 L12.08 162.84 L11.72 163.74 Z" class="st5"/>
		</g>
		<g id="shape115-118" v:mID="115" v:groupContext="shape" transform="translate(165.735,-109.539)">
			<title>Sheet.115</title>
			<path d="M103.5 170.58 L103.5 156.01 L0 156.01" class="st6"/>
		</g>
		<g id="shape116-121" v:mID="116" v:groupContext="shape" transform="translate(165.735,-110.61)">
			<title>Sheet.116</title>
			<path d="M0 157.08 L0 170.58 L17.18 170.58" class="st6"/>
		</g>
		<g id="shape117-124" v:mID="117" v:groupContext="shape" transform="translate(203.985,254.127) rotate(180)">
			<title>Sheet.117</title>
			<path d="M0 170.58 L24.75 170.58" class="st6"/>
		</g>
		<g id="shape118-127" v:mID="118" v:groupContext="shape" transform="translate(62.6519,164.544) rotate(-90)">
			<title>Sheet.118</title>
			<path d="M0 170.58 L54 170.58" class="st6"/>
		</g>
		<g id="shape135-130" v:mID="135" v:groupContext="shape" transform="translate(340.11,-82.5119)">
			<title>Rectangle.135</title>
			<rect x="0" y="112.083" width="40.5" height="58.5" class="st1"/>
		</g>
		<g id="shape136-132" v:mID="136" v:groupContext="shape" transform="translate(331.11,-109.512)">
			<title>Sheet.136</title>
			<path d="M0 170.58 L9 170.58" class="st2"/>
		</g>
		<g id="shape137-135" v:mID="137" v:groupContext="shape" transform="translate(331.11,-132.802)">
			<title>Sheet.137</title>
			<path d="M0 170.58 L9 170.58" class="st2"/>
		</g>
		<g id="shape139-138" v:mID="139" v:groupContext="shape" transform="translate(380.61,-132.012)">
			<title>Sheet.139</title>
			<path d="M0 170.58 L9 170.58" class="st2"/>
		</g>
		<g id="shape140-141" v:mID="140" v:groupContext="shape" transform="translate(337.86,-125.262)">
			<title>Sheet.140</title>
			<desc>D</desc>
			<v:textBlock v:margins="rect(4,4,4,4)"/>
			<v:textRect cx="9" cy="163.833" width="18" height="13.5"/>
			<rect x="0" y="157.083" width="18" height="13.5" class="st3"/>
			<text x="5.39" y="166.83" class="st4" v:langID="1033"><v:paragraph v:horizAlign="1"/><v:tabList/>D</text>		</g>
		<g id="shape141-144" v:mID="141" v:groupContext="shape" transform="translate(364.86,-125.262)">
			<title>Sheet.141</title>
			<desc>Q</desc>
			<v:textBlock v:margins="rect(4,4,4,4)"/>
			<v:textRect cx="9" cy="163.833" width="18" height="13.5"/>
			<rect x="0" y="157.083" width="18" height="13.5" class="st3"/>
			<text x="5.11" y="166.83" class="st4" v:langID="1033"><v:paragraph v:horizAlign="1"/><v:tabList/>Q</text>		</g>
		<g id="shape142-147" v:mID="142" v:groupContext="shape" transform="translate(342.36,-102.762)">
			<title>Sheet.142</title>
			<desc>Clk</desc>
			<v:textBlock v:margins="rect(4,4,4,4)"/>
			<v:textRect cx="14.625" cy="163.833" width="29.25" height="13.5"/>
			<rect x="0" y="157.083" width="29.25" height="13.5" class="st3"/>
			<text x="7.4" y="166.83" class="st4" v:langID="1033"><v:paragraph v:horizAlign="1"/><v:tabList/>Clk</text>		</g>
		<g id="shape143-150" v:mID="143" v:groupContext="shape" transform="translate(349.11,-82.5119)">
			<title>Sheet.143</title>
			<desc>Rst</desc>
			<v:textBlock v:margins="rect(4,4,4,4)"/>
			<v:textRect cx="11.8125" cy="166.083" width="23.63" height="9"/>
			<rect x="0" y="161.583" width="23.625" height="9" class="st3"/>
			<text x="4.31" y="169.08" class="st4" v:langID="1033"><v:paragraph v:horizAlign="1"/><v:tabList/>Rst</text>		</g>
		<g id="shape144-153" v:mID="144" v:groupContext="shape" transform="translate(340.11,-105.012)">
			<title>Sheet.144</title>
			<path d="M0 170.58 L6.75 166.08 L0 161.58" class="st2"/>
		</g>
		<g id="shape145-156" v:mID="145" v:groupContext="shape" transform="translate(322.11,-132.802)">
			<title>Sheet.145</title>
			<path d="M0 170.58 L9 170.58" class="st2"/>
		</g>
		<g id="shape146-159" v:mID="146" v:groupContext="shape" transform="translate(310.036,201.614) scale(1,-1)">
			<title>Sheet.146</title>
			<path d="M0 157.08 L0 170.58 L11.72 163.74 L0 157.08 ZM11.72 163.74 L12.08 164.82 L12.98 165.36 L13.89 165.36 L14.79
						 164.82 L15.15 163.74 L14.79 162.84 L13.89 162.12 L12.98 162.12 L12.08 162.84 L11.72 163.74 Z" class="st5"/>
		</g>
		<g id="shape147-161" v:mID="147" v:groupContext="shape" transform="translate(292.86,-132.012)">
			<title>Sheet.147</title>
			<path d="M103.5 170.58 L103.5 156.01 L0 156.01" class="st6"/>
		</g>
		<g id="shape148-164" v:mID="148" v:groupContext="shape" transform="translate(292.86,-133.083)">
			<title>Sheet.148</title>
			<path d="M0 157.08 L0 170.58 L17.18 170.58" class="st6"/>
		</g>
		<g id="shape149-167" v:mID="149" v:groupContext="shape" transform="translate(331.11,231.654) rotate(180)">
			<title>Sheet.149</title>
			<path d="M0 170.58 L24.75 170.58" class="st6"/>
		</g>
		<g id="shape150-170" v:mID="150" v:groupContext="shape" transform="translate(189.777,164.544) rotate(-90)">
			<title>Sheet.150</title>
			<path d="M0 170.58 L76.47 170.58" class="st6"/>
		</g>
		<g id="shape151-173" v:mID="151" v:groupContext="shape" transform="translate(421.11,-105.012)">
			<title>Rectangle.151</title>
			<rect x="0" y="112.083" width="40.5" height="58.5" class="st1"/>
		</g>
		<g id="shape152-175" v:mID="152" v:groupContext="shape" transform="translate(412.11,-132.012)">
			<title>Sheet.152</title>
			<path d="M0 170.58 L9 170.58" class="st2"/>
		</g>
		<g id="shape153-178" v:mID="153" v:groupContext="shape" transform="translate(412.11,-155.302)">
			<title>Sheet.153</title>
			<path d="M0 170.58 L9 170.58" class="st2"/>
		</g>
		<g id="shape155-181" v:mID="155" v:groupContext="shape" transform="translate(461.61,-154.512)">
			<title>Sheet.155</title>
			<path d="M0 170.58 L9 170.58" class="st2"/>
		</g>
		<g id="shape156-184" v:mID="156" v:groupContext="shape" transform="translate(418.86,-147.762)">
			<title>Sheet.156</title>
			<desc>D</desc>
			<v:textBlock v:margins="rect(4,4,4,4)"/>
			<v:textRect cx="9" cy="163.833" width="18" height="13.5"/>
			<rect x="0" y="157.083" width="18" height="13.5" class="st3"/>
			<text x="5.39" y="166.83" class="st4" v:langID="1033"><v:paragraph v:horizAlign="1"/><v:tabList/>D</text>		</g>
		<g id="shape157-187" v:mID="157" v:groupContext="shape" transform="translate(445.86,-147.762)">
			<title>Sheet.157</title>
			<desc>Q</desc>
			<v:textBlock v:margins="rect(4,4,4,4)"/>
			<v:textRect cx="9" cy="163.833" width="18" height="13.5"/>
			<rect x="0" y="157.083" width="18" height="13.5" class="st3"/>
			<text x="5.11" y="166.83" class="st4" v:langID="1033"><v:paragraph v:horizAlign="1"/><v:tabList/>Q</text>		</g>
		<g id="shape158-190" v:mID="158" v:groupContext="shape" transform="translate(423.36,-125.262)">
			<title>Sheet.158</title>
			<desc>Clk</desc>
			<v:textBlock v:margins="rect(4,4,4,4)"/>
			<v:textRect cx="14.625" cy="163.833" width="29.25" height="13.5"/>
			<rect x="0" y="157.083" width="29.25" height="13.5" class="st3"/>
			<text x="7.4" y="166.83" class="st4" v:langID="1033"><v:paragraph v:horizAlign="1"/><v:tabList/>Clk</text>		</g>
		<g id="shape159-193" v:mID="159" v:groupContext="shape" transform="translate(430.11,-105.012)">
			<title>Sheet.159</title>
			<desc>Rst</desc>
			<v:textBlock v:margins="rect(4,4,4,4)"/>
			<v:textRect cx="11.8125" cy="166.083" width="23.63" height="9"/>
			<rect x="0" y="161.583" width="23.625" height="9" class="st3"/>
			<text x="4.31" y="169.08" class="st4" v:langID="1033"><v:paragraph v:horizAlign="1"/><v:tabList/>Rst</text>		</g>
		<g id="shape160-196" v:mID="160" v:groupContext="shape" transform="translate(421.11,-127.512)">
			<title>Sheet.160</title>
			<path d="M0 170.58 L6.75 166.08 L0 161.58" class="st2"/>
		</g>
		<g id="shape161-199" v:mID="161" v:groupContext="shape" transform="translate(403.11,-155.302)">
			<title>Sheet.161</title>
			<path d="M0 170.58 L9 170.58" class="st2"/>
		</g>
		<g id="shape162-202" v:mID="162" v:groupContext="shape" transform="translate(391.036,179.114) scale(1,-1)">
			<title>Sheet.162</title>
			<path d="M0 157.08 L0 170.58 L11.72 163.74 L0 157.08 ZM11.72 163.74 L12.08 164.82 L12.98 165.36 L13.89 165.36 L14.79
						 164.82 L15.15 163.74 L14.79 162.84 L13.89 162.12 L12.98 162.12 L12.08 162.84 L11.72 163.74 Z" class="st5"/>
		</g>
		<g id="shape163-204" v:mID="163" v:groupContext="shape" transform="translate(373.86,-154.512)">
			<title>Sheet.163</title>
			<path d="M103.5 170.58 L103.5 154.89 L0 154.89" class="st6"/>
		</g>
		<g id="shape164-207" v:mID="164" v:groupContext="shape" transform="translate(373.86,-155.583)">
			<title>Sheet.164</title>
			<path d="M0 156.01 L0 170.58 L17.18 170.58" class="st6"/>
		</g>
		<g id="shape165-210" v:mID="165" v:groupContext="shape" transform="translate(412.11,209.154) rotate(180)">
			<title>Sheet.165</title>
			<path d="M0 170.58 L24.75 170.58" class="st6"/>
		</g>
		<g id="shape166-213" v:mID="166" v:groupContext="shape" transform="translate(270.777,164.598) rotate(-90)">
			<title>Sheet.166</title>
			<path d="M0 170.58 L99.03 170.58" class="st6"/>
		</g>
		<g id="shape167-216" v:mID="167" v:groupContext="shape" transform="translate(279.36,231.681) rotate(180)">
			<title>Sheet.167</title>
			<path d="M0 170.58 L24.75 170.58" class="st6"/>
		</g>
		<g id="shape168-219" v:mID="168" v:groupContext="shape" transform="translate(305.235,231.654) rotate(180)">
			<title>Sheet.168</title>
			<path d="M0 170.58 L24.75 170.58" class="st7"/>
		</g>
		<g id="shape169-222" v:mID="169" v:groupContext="shape" transform="translate(495.36,186.654) rotate(180)">
			<title>Sheet.169</title>
			<path d="M0 170.58 L24.75 170.58" class="st6"/>
		</g>
		<g id="shape171-225" v:mID="171" v:groupContext="shape" transform="translate(0.36,-28.485)">
			<title>Sheet.171</title>
			<desc>100MHz</desc>
			<v:textBlock v:margins="rect(4,4,4,4)"/>
			<v:textRect cx="20.25" cy="163.833" width="40.5" height="13.5"/>
			<rect x="0" y="157.083" width="40.5" height="13.5" class="st3"/>
			<text x="5.36" y="166.23" class="st8" v:langID="1033"><v:paragraph v:horizAlign="1"/><v:tabList/>100MHz</text>		</g>
		<g id="shape172-228" v:mID="172" v:groupContext="shape" transform="translate(89.235,-50.985)">
			<title>Sheet.172</title>
			<desc>50MHz</desc>
			<v:textBlock v:margins="rect(4,4,4,4)"/>
			<v:textRect cx="20.25" cy="163.833" width="40.5" height="13.5"/>
			<rect x="0" y="157.083" width="40.5" height="13.5" class="st3"/>
			<text x="7.58" y="166.23" class="st8" v:langID="1033"><v:paragraph v:horizAlign="1"/><v:tabList/>50MHz</text>		</g>
		<g id="shape173-231" v:mID="173" v:groupContext="shape" transform="translate(171.36,-73.485)">
			<title>Sheet.173</title>
			<desc>25MHz</desc>
			<v:textBlock v:margins="rect(4,4,4,4)"/>
			<v:textRect cx="20.25" cy="163.833" width="40.5" height="13.5"/>
			<rect x="0" y="157.083" width="40.5" height="13.5" class="st3"/>
			<text x="7.58" y="166.23" class="st8" v:langID="1033"><v:paragraph v:horizAlign="1"/><v:tabList/>25MHz</text>		</g>
		<g id="shape174-234" v:mID="174" v:groupContext="shape" transform="translate(251.235,-95.985)">
			<title>Sheet.174</title>
			<desc>12.5MHz</desc>
			<v:textBlock v:margins="rect(4,4,4,4)"/>
			<v:textRect cx="20.25" cy="163.833" width="40.5" height="13.5"/>
			<rect x="0" y="157.083" width="40.5" height="13.5" class="st3"/>
			<text x="4.24" y="166.23" class="st8" v:langID="1033"><v:paragraph v:horizAlign="1"/><v:tabList/>12.5MHz</text>		</g>
		<g id="shape175-237" v:mID="175" v:groupContext="shape" transform="translate(300.735,-95.985)">
			<title>Sheet.175</title>
			<desc>2.98Hz</desc>
			<v:textBlock v:margins="rect(4,4,4,4)"/>
			<v:textRect cx="20.25" cy="163.833" width="40.5" height="13.5"/>
			<rect x="0" y="157.083" width="40.5" height="13.5" class="st3"/>
			<text x="7.58" y="166.23" class="st8" v:langID="1033"><v:paragraph v:horizAlign="1"/><v:tabList/>2.98Hz</text>		</g>
		<g id="shape176-240" v:mID="176" v:groupContext="shape" transform="translate(376.11,-118.512)">
			<title>Sheet.176</title>
			<desc>1.49Hz</desc>
			<v:textBlock v:margins="rect(4,4,4,4)"/>
			<v:textRect cx="20.25" cy="163.833" width="40.5" height="13.5"/>
			<rect x="0" y="157.083" width="40.5" height="13.5" class="st3"/>
			<text x="7.58" y="166.23" class="st8" v:langID="1033"><v:paragraph v:horizAlign="1"/><v:tabList/>1.49Hz</text>		</g>
		<g id="shape177-243" v:mID="177" v:groupContext="shape" transform="translate(458.235,-139.86)">
			<title>Sheet.177</title>
			<desc>0.745Hz</desc>
			<v:textBlock v:margins="rect(4,4,4,4)"/>
			<v:textRect cx="20.25" cy="163.833" width="40.5" height="13.5"/>
			<rect x="0" y="157.083" width="40.5" height="13.5" class="st3"/>
			<text x="5.35" y="166.23" class="st8" v:langID="1033"><v:paragraph v:horizAlign="1"/><v:tabList/>0.745Hz</text>		</g>
		<g id="shape178-246" v:mID="178" v:groupContext="shape" transform="translate(304.11,335.127) rotate(180)">
			<title>Sheet.178</title>
			<path d="M0 170.58 L24.75 170.58" class="st7"/>
		</g>
		<g id="shape179-249" v:mID="179" v:groupContext="shape" transform="translate(306.428,-6.03881) rotate(0.0228434)">
			<title>Sheet.179</title>
			<path d="M0 170.58 L135 170.58" class="st2"/>
		</g>
		<g id="shape180-252" v:mID="180" v:groupContext="shape" transform="translate(11.61,-0.36)">
			<title>Sheet.180</title>
			<desc>rst</desc>
			<v:textBlock v:margins="rect(4,4,4,4)"/>
			<v:textRect cx="20.25" cy="163.833" width="40.5" height="13.5"/>
			<rect x="0" y="157.083" width="40.5" height="13.5" class="st3"/>
			<text x="15.81" y="166.23" class="st8" v:langID="1033"><v:paragraph v:horizAlign="1"/><v:tabList/>rst</text>		</g>
	</g>
</svg>
