<?xml version="1.0" encoding="UTF-8" standalone="no"?>
<!DOCTYPE svg PUBLIC "-//W3C//DTD SVG 1.1//EN" "http://www.w3.org/Graphics/SVG/1.1/DTD/svg11.dtd">
<!-- Generated by Microsoft Visio, SVG Export KMapMinMaxTerm.svg Page-1 -->
<svg xmlns="http://www.w3.org/2000/svg" xmlns:xlink="http://www.w3.org/1999/xlink" xmlns:ev="http://www.w3.org/2001/xml-events"
		xmlns:v="http://schemas.microsoft.com/visio/2003/SVGExtensions/" width="5.90625in" height="0.777909in"
		viewBox="0 0 425.25 56.0095" xml:space="preserve" color-interpolation-filters="sRGB" class="st9">
	<v:documentProperties v:langID="1033" v:viewMarkup="false"/>

	<style type="text/css">
	<![CDATA[
		.st1 {fill:#ffffff;stroke:#000000;stroke-linecap:round;stroke-linejoin:round;stroke-width:0.72}
		.st2 {fill:#000000;font-family:Arial;font-size:0.75em}
		.st3 {stroke:none;stroke-linecap:round;stroke-linejoin:round;stroke-width:0.75}
		.st4 {fill:#000000;font-family:Arial;font-size:0.833336em}
		.st5 {stroke:#000000;stroke-linecap:round;stroke-linejoin:round;stroke-width:0.72}
		.st6 {font-family:Symbol;font-size:1.20001em}
		.st7 {fill:#c7fac9;stroke:#000000;stroke-linecap:round;stroke-linejoin:round;stroke-width:0.24}
		.st8 {font-family:Symbol;font-size:1.39998em}
		.st9 {fill:none;fill-rule:evenodd;font-size:12px;overflow:visible;stroke-linecap:square;stroke-miterlimit:3}
	]]>
	</style>

	<g v:mID="0" v:index="1" v:groupContext="foregroundPage">
		<title>Page-1</title>
		<v:pageProperties v:drawingScale="1" v:pageScale="1" v:drawingUnits="19" v:shadowOffsetX="9" v:shadowOffsetY="-9"/>
		<g id="shape1-1" v:mID="1" v:groupContext="shape" transform="translate(141.75,-18.36)">
			<title>Rectangle.476</title>
			<desc>1</desc>
			<v:userDefs>
				<v:ud v:nameU="visVersion" v:val="VT0(11):26"/>
			</v:userDefs>
			<v:textBlock v:margins="rect(4,4,4,4)"/>
			<v:textRect cx="9" cy="47.0095" width="18" height="18"/>
			<rect x="0" y="38.0095" width="18" height="18" class="st1"/>
			<text x="6.5" y="49.71" class="st2" v:langID="1033"><v:paragraph v:horizAlign="1"/><v:tabList/>1</text>		</g>
		<g id="shape2-4" v:mID="2" v:groupContext="shape" transform="translate(123.765,-18.36)">
			<title>Rectangle.477</title>
			<desc>0</desc>
			<v:userDefs>
				<v:ud v:nameU="visVersion" v:val="VT0(11):26"/>
			</v:userDefs>
			<v:textBlock v:margins="rect(4,4,4,4)"/>
			<v:textRect cx="9" cy="47.0095" width="18.01" height="18"/>
			<rect x="0" y="38.0095" width="18" height="18" class="st1"/>
			<text x="6.5" y="49.71" class="st2" v:langID="1033"><v:paragraph v:horizAlign="1"/><v:tabList/>0</text>		</g>
		<g id="shape3-7" v:mID="3" v:groupContext="shape" transform="translate(177.75,-18.36)">
			<title>Rectangle.478</title>
			<desc>0</desc>
			<v:userDefs>
				<v:ud v:nameU="visVersion" v:val="VT0(11):26"/>
			</v:userDefs>
			<v:textBlock v:margins="rect(4,4,4,4)"/>
			<v:textRect cx="9" cy="47.0095" width="18" height="18"/>
			<rect x="0" y="38.0095" width="18" height="18" class="st1"/>
			<text x="6.5" y="49.71" class="st2" v:langID="1033"><v:paragraph v:horizAlign="1"/><v:tabList/>0</text>		</g>
		<g id="shape4-10" v:mID="4" v:groupContext="shape" transform="translate(159.75,-18.36)">
			<title>Rectangle.479</title>
			<desc>1</desc>
			<v:userDefs>
				<v:ud v:nameU="visVersion" v:val="VT0(11):26"/>
			</v:userDefs>
			<v:textBlock v:margins="rect(4,4,4,4)"/>
			<v:textRect cx="9" cy="47.0095" width="18" height="18"/>
			<rect x="0" y="38.0095" width="18" height="18" class="st1"/>
			<text x="6.5" y="49.71" class="st2" v:langID="1033"><v:paragraph v:horizAlign="1"/><v:tabList/>1</text>		</g>
		<g id="shape5-13" v:mID="5" v:groupContext="shape" transform="translate(141.75,-0.36)">
			<title>Rectangle.480</title>
			<desc>1</desc>
			<v:userDefs>
				<v:ud v:nameU="visVersion" v:val="VT0(11):26"/>
			</v:userDefs>
			<v:textBlock v:margins="rect(4,4,4,4)"/>
			<v:textRect cx="9" cy="47.0095" width="18" height="18"/>
			<rect x="0" y="38.0095" width="18" height="18" class="st1"/>
			<text x="6.5" y="49.71" class="st2" v:langID="1033"><v:paragraph v:horizAlign="1"/><v:tabList/>1</text>		</g>
		<g id="shape6-16" v:mID="6" v:groupContext="shape" transform="translate(123.75,-0.36)">
			<title>Rectangle.481</title>
			<desc>0</desc>
			<v:userDefs>
				<v:ud v:nameU="visVersion" v:val="VT0(11):26"/>
			</v:userDefs>
			<v:textBlock v:margins="rect(4,4,4,4)"/>
			<v:textRect cx="9" cy="47.0095" width="18.01" height="18"/>
			<rect x="0" y="38.0095" width="18" height="18" class="st1"/>
			<text x="6.5" y="49.71" class="st2" v:langID="1033"><v:paragraph v:horizAlign="1"/><v:tabList/>0</text>		</g>
		<g id="shape7-19" v:mID="7" v:groupContext="shape" transform="translate(177.75,-0.36)">
			<title>Rectangle.482</title>
			<desc>1</desc>
			<v:userDefs>
				<v:ud v:nameU="visVersion" v:val="VT0(11):26"/>
			</v:userDefs>
			<v:textBlock v:margins="rect(4,4,4,4)"/>
			<v:textRect cx="9" cy="47.0095" width="18" height="18"/>
			<rect x="0" y="38.0095" width="18" height="18" class="st1"/>
			<text x="6.5" y="49.71" class="st2" v:langID="1033"><v:paragraph v:horizAlign="1"/><v:tabList/>1</text>		</g>
		<g id="shape8-22" v:mID="8" v:groupContext="shape" transform="translate(159.75,-0.36)">
			<title>Rectangle.483</title>
			<desc>0</desc>
			<v:userDefs>
				<v:ud v:nameU="visVersion" v:val="VT0(11):26"/>
			</v:userDefs>
			<v:textBlock v:margins="rect(4,4,4,4)"/>
			<v:textRect cx="9" cy="47.0095" width="18" height="18"/>
			<rect x="0" y="38.0095" width="18" height="18" class="st1"/>
			<text x="6.5" y="49.71" class="st2" v:langID="1033"><v:paragraph v:horizAlign="1"/><v:tabList/>0</text>		</g>
		<g id="shape9-25" v:mID="9" v:groupContext="shape" transform="translate(109.542,-45.36)">
			<title>Sheet.9</title>
			<desc>B C</desc>
			<v:textBlock v:margins="rect(0,0,0,0)"/>
			<v:textRect cx="16.104" cy="51.3601" width="32.21" height="9.29869"/>
			<path d="M32.21 46.71 L0 46.71 L0 56.01 L32.21 56.01 L32.21 46.71" class="st3"/>
			<text x="7.77" y="54.36" class="st4" v:langID="1033"><v:paragraph v:horizAlign="1"/><v:tabList/>B C</text>		</g>
		<g id="shape10-29" v:mID="10" v:groupContext="shape" transform="translate(121.5,-36.36)">
			<title>Sheet.10</title>
			<desc>00</desc>
			<v:textBlock v:margins="rect(0,0,0,0)"/>
			<v:textRect cx="11.25" cy="51.5095" width="22.5" height="9"/>
			<path d="M22.5 47.01 L0 47.01 L0 56.01 L22.5 56.01 L22.5 47.01" class="st3"/>
			<text x="6.24" y="54.21" class="st2" v:langID="1033"><v:paragraph v:horizAlign="1"/><v:tabList/>00</text>		</g>
		<g id="shape11-33" v:mID="11" v:groupContext="shape" transform="translate(139.5,-36.36)">
			<title>Sheet.11</title>
			<desc>01</desc>
			<v:textBlock v:margins="rect(0,0,0,0)"/>
			<v:textRect cx="11.25" cy="51.5095" width="22.5" height="9"/>
			<path d="M22.5 47.01 L0 47.01 L0 56.01 L22.5 56.01 L22.5 47.01" class="st3"/>
			<text x="6.24" y="54.21" class="st2" v:langID="1033"><v:paragraph v:horizAlign="1"/><v:tabList/>01</text>		</g>
		<g id="shape12-37" v:mID="12" v:groupContext="shape" transform="translate(157.5,-36.36)">
			<title>Sheet.12</title>
			<desc>11</desc>
			<v:textBlock v:margins="rect(0,0,0,0)"/>
			<v:textRect cx="11.25" cy="51.5095" width="22.5" height="9"/>
			<path d="M22.5 47.01 L0 47.01 L0 56.01 L22.5 56.01 L22.5 47.01" class="st3"/>
			<text x="6.24" y="54.21" class="st2" v:langID="1033"><v:paragraph v:horizAlign="1"/><v:tabList/>11</text>		</g>
		<g id="shape13-41" v:mID="13" v:groupContext="shape" transform="translate(175.5,-36.36)">
			<title>Sheet.13</title>
			<desc>10</desc>
			<v:textBlock v:margins="rect(0,0,0,0)"/>
			<v:textRect cx="11.25" cy="51.5095" width="22.5" height="9"/>
			<path d="M22.5 47.01 L0 47.01 L0 56.01 L22.5 56.01 L22.5 47.01" class="st3"/>
			<text x="6.24" y="54.21" class="st2" v:langID="1033"><v:paragraph v:horizAlign="1"/><v:tabList/>10</text>		</g>
		<g id="shape14-45" v:mID="14" v:groupContext="shape" transform="translate(110.235,-21.0466)">
			<title>Sheet.14</title>
			<desc>0</desc>
			<v:textBlock v:margins="rect(0,0,0,0)"/>
			<v:textRect cx="6.76488" cy="50.0403" width="13.53" height="11.9384"/>
			<path d="M13.53 44.07 L0 44.07 L0 56.01 L13.53 56.01 L13.53 44.07" class="st3"/>
			<text x="4.26" y="52.74" class="st2" v:langID="1033"><v:paragraph v:horizAlign="1"/><v:tabList/>0</text>		</g>
		<g id="shape15-49" v:mID="15" v:groupContext="shape" transform="translate(110.25,-3.04662)">
			<title>Sheet.15</title>
			<desc>1</desc>
			<v:textBlock v:margins="rect(0,0,0,0)"/>
			<v:textRect cx="6.76488" cy="50.0403" width="13.53" height="11.9384"/>
			<path d="M13.53 44.07 L0 44.07 L0 56.01 L13.53 56.01 L13.53 44.07" class="st3"/>
			<text x="5.51" y="52.74" class="st2" v:langID="1033"><v:paragraph v:horizAlign="1"/><v:tabList/>1</text>		</g>
		<g id="shape16-53" v:mID="16" v:groupContext="shape" transform="translate(86.1136,61.1156) rotate(-137.761)">
			<title>Sheet.16</title>
			<path d="M0 56.01 L16.74 56.01" class="st5"/>
		</g>
		<g id="shape17-56" v:mID="17" v:groupContext="shape" transform="translate(104.063,-30.9988)">
			<title>Sheet.17</title>
			<desc>A</desc>
			<v:textBlock v:margins="rect(0,0,0,0)"/>
			<v:textRect cx="5.42249" cy="48.8289" width="10.85" height="14.3612"/>
			<path d="M10.84 41.65 L0 41.65 L0 56.01 L10.84 56.01 L10.84 41.65" class="st3"/>
			<text x="3.48" y="51.83" class="st4" v:langID="1033"><v:paragraph v:horizAlign="1"/><v:tabList/>A</text>		</g>
		<g id="shape18-60" v:mID="18" v:groupContext="shape" transform="translate(0,-13.86)">
			<title>Sheet.18</title>
			<desc>F = Sm(1, 3, 5, 6)</desc>
			<v:textBlock v:margins="rect(0,0,0,0)"/>
			<v:textRect cx="42.75" cy="51.5095" width="85.5" height="9"/>
			<path d="M85.5 47.01 L0 47.01 L0 56.01 L85.5 56.01 L85.5 47.01" class="st3"/>
			<text x="3.49" y="55.11" class="st4" v:langID="1033"><v:paragraph v:horizAlign="1"/><v:tabList/>F = <tspan class="st6">S</tspan>m(1, 3, 5, 6)</text>		</g>
		<g id="shape19-65" v:mID="19" v:groupContext="shape" transform="translate(103.5,-13.86) scale(-1,1)">
			<title>45 degree single</title>
			<v:userDefs>
				<v:ud v:nameU="visVersion" v:val="VT0(11):26"/>
			</v:userDefs>
			<path d="M0 51.51 L4.5 47.01 L4.5 49.98 L13.5 49.98 L13.5 53.04 L4.5 53.04 L4.5 56.01 L0 51.51 Z" class="st7"/>
		</g>
		<g id="shape20-67" v:mID="20" v:groupContext="shape" transform="translate(369,-18.36)">
			<title>Rectangle.495</title>
			<desc>1</desc>
			<v:userDefs>
				<v:ud v:nameU="visVersion" v:val="VT0(11):26"/>
			</v:userDefs>
			<v:textBlock v:margins="rect(4,4,4,4)"/>
			<v:textRect cx="9" cy="47.0095" width="18" height="18"/>
			<rect x="0" y="38.0095" width="18" height="18" class="st1"/>
			<text x="6.5" y="49.71" class="st2" v:langID="1033"><v:paragraph v:horizAlign="1"/><v:tabList/>1</text>		</g>
		<g id="shape21-70" v:mID="21" v:groupContext="shape" transform="translate(351.015,-18.36)">
			<title>Rectangle.496</title>
			<desc>0</desc>
			<v:userDefs>
				<v:ud v:nameU="visVersion" v:val="VT0(11):26"/>
			</v:userDefs>
			<v:textBlock v:margins="rect(4,4,4,4)"/>
			<v:textRect cx="9" cy="47.0095" width="18.01" height="18"/>
			<rect x="0" y="38.0095" width="18" height="18" class="st1"/>
			<text x="6.5" y="49.71" class="st2" v:langID="1033"><v:paragraph v:horizAlign="1"/><v:tabList/>0</text>		</g>
		<g id="shape22-73" v:mID="22" v:groupContext="shape" transform="translate(405,-18.36)">
			<title>Rectangle.497</title>
			<desc>1</desc>
			<v:userDefs>
				<v:ud v:nameU="visVersion" v:val="VT0(11):26"/>
			</v:userDefs>
			<v:textBlock v:margins="rect(4,4,4,4)"/>
			<v:textRect cx="9" cy="47.0095" width="18" height="18"/>
			<rect x="0" y="38.0095" width="18" height="18" class="st1"/>
			<text x="6.5" y="49.71" class="st2" v:langID="1033"><v:paragraph v:horizAlign="1"/><v:tabList/>1</text>		</g>
		<g id="shape23-76" v:mID="23" v:groupContext="shape" transform="translate(387,-18.36)">
			<title>Rectangle.498</title>
			<desc>0</desc>
			<v:userDefs>
				<v:ud v:nameU="visVersion" v:val="VT0(11):26"/>
			</v:userDefs>
			<v:textBlock v:margins="rect(4,4,4,4)"/>
			<v:textRect cx="9" cy="47.0095" width="18" height="18"/>
			<rect x="0" y="38.0095" width="18" height="18" class="st1"/>
			<text x="6.5" y="49.71" class="st2" v:langID="1033"><v:paragraph v:horizAlign="1"/><v:tabList/>0</text>		</g>
		<g id="shape24-79" v:mID="24" v:groupContext="shape" transform="translate(369,-0.36)">
			<title>Rectangle.499</title>
			<desc>1</desc>
			<v:userDefs>
				<v:ud v:nameU="visVersion" v:val="VT0(11):26"/>
			</v:userDefs>
			<v:textBlock v:margins="rect(4,4,4,4)"/>
			<v:textRect cx="9" cy="47.0095" width="18" height="18"/>
			<rect x="0" y="38.0095" width="18" height="18" class="st1"/>
			<text x="6.5" y="49.71" class="st2" v:langID="1033"><v:paragraph v:horizAlign="1"/><v:tabList/>1</text>		</g>
		<g id="shape25-82" v:mID="25" v:groupContext="shape" transform="translate(351,-0.36)">
			<title>Rectangle.500</title>
			<desc>1</desc>
			<v:userDefs>
				<v:ud v:nameU="visVersion" v:val="VT0(11):26"/>
			</v:userDefs>
			<v:textBlock v:margins="rect(4,4,4,4)"/>
			<v:textRect cx="9" cy="47.0095" width="18.01" height="18"/>
			<rect x="0" y="38.0095" width="18" height="18" class="st1"/>
			<text x="6.5" y="49.71" class="st2" v:langID="1033"><v:paragraph v:horizAlign="1"/><v:tabList/>1</text>		</g>
		<g id="shape26-85" v:mID="26" v:groupContext="shape" transform="translate(405,-0.36)">
			<title>Rectangle.501</title>
			<desc>1</desc>
			<v:userDefs>
				<v:ud v:nameU="visVersion" v:val="VT0(11):26"/>
			</v:userDefs>
			<v:textBlock v:margins="rect(4,4,4,4)"/>
			<v:textRect cx="9" cy="47.0095" width="18" height="18"/>
			<rect x="0" y="38.0095" width="18" height="18" class="st1"/>
			<text x="6.5" y="49.71" class="st2" v:langID="1033"><v:paragraph v:horizAlign="1"/><v:tabList/>1</text>		</g>
		<g id="shape27-88" v:mID="27" v:groupContext="shape" transform="translate(387,-0.36)">
			<title>Rectangle.502</title>
			<desc>0</desc>
			<v:userDefs>
				<v:ud v:nameU="visVersion" v:val="VT0(11):26"/>
			</v:userDefs>
			<v:textBlock v:margins="rect(4,4,4,4)"/>
			<v:textRect cx="9" cy="47.0095" width="18" height="18"/>
			<rect x="0" y="38.0095" width="18" height="18" class="st1"/>
			<text x="6.5" y="49.71" class="st2" v:langID="1033"><v:paragraph v:horizAlign="1"/><v:tabList/>0</text>		</g>
		<g id="shape28-91" v:mID="28" v:groupContext="shape" transform="translate(336.792,-45.36)">
			<title>Sheet.28</title>
			<desc>B C</desc>
			<v:textBlock v:margins="rect(0,0,0,0)"/>
			<v:textRect cx="16.104" cy="51.3601" width="32.21" height="9.29869"/>
			<path d="M32.21 46.71 L0 46.71 L0 56.01 L32.21 56.01 L32.21 46.71" class="st3"/>
			<text x="7.77" y="54.36" class="st4" v:langID="1033"><v:paragraph v:horizAlign="1"/><v:tabList/>B C</text>		</g>
		<g id="shape29-95" v:mID="29" v:groupContext="shape" transform="translate(348.75,-36.36)">
			<title>Sheet.29</title>
			<desc>00</desc>
			<v:textBlock v:margins="rect(0,0,0,0)"/>
			<v:textRect cx="11.25" cy="51.5095" width="22.5" height="9"/>
			<path d="M22.5 47.01 L0 47.01 L0 56.01 L22.5 56.01 L22.5 47.01" class="st3"/>
			<text x="6.24" y="54.21" class="st2" v:langID="1033"><v:paragraph v:horizAlign="1"/><v:tabList/>00</text>		</g>
		<g id="shape30-99" v:mID="30" v:groupContext="shape" transform="translate(366.75,-36.36)">
			<title>Sheet.30</title>
			<desc>01</desc>
			<v:textBlock v:margins="rect(0,0,0,0)"/>
			<v:textRect cx="11.25" cy="51.5095" width="22.5" height="9"/>
			<path d="M22.5 47.01 L0 47.01 L0 56.01 L22.5 56.01 L22.5 47.01" class="st3"/>
			<text x="6.24" y="54.21" class="st2" v:langID="1033"><v:paragraph v:horizAlign="1"/><v:tabList/>01</text>		</g>
		<g id="shape31-103" v:mID="31" v:groupContext="shape" transform="translate(384.75,-36.36)">
			<title>Sheet.31</title>
			<desc>11</desc>
			<v:textBlock v:margins="rect(0,0,0,0)"/>
			<v:textRect cx="11.25" cy="51.5095" width="22.5" height="9"/>
			<path d="M22.5 47.01 L0 47.01 L0 56.01 L22.5 56.01 L22.5 47.01" class="st3"/>
			<text x="6.24" y="54.21" class="st2" v:langID="1033"><v:paragraph v:horizAlign="1"/><v:tabList/>11</text>		</g>
		<g id="shape32-107" v:mID="32" v:groupContext="shape" transform="translate(402.75,-36.36)">
			<title>Sheet.32</title>
			<desc>10</desc>
			<v:textBlock v:margins="rect(0,0,0,0)"/>
			<v:textRect cx="11.25" cy="51.5095" width="22.5" height="9"/>
			<path d="M22.5 47.01 L0 47.01 L0 56.01 L22.5 56.01 L22.5 47.01" class="st3"/>
			<text x="6.24" y="54.21" class="st2" v:langID="1033"><v:paragraph v:horizAlign="1"/><v:tabList/>10</text>		</g>
		<g id="shape33-111" v:mID="33" v:groupContext="shape" transform="translate(337.485,-21.0466)">
			<title>Sheet.33</title>
			<desc>0</desc>
			<v:textBlock v:margins="rect(0,0,0,0)"/>
			<v:textRect cx="6.76488" cy="50.0403" width="13.53" height="11.9384"/>
			<path d="M13.53 44.07 L0 44.07 L0 56.01 L13.53 56.01 L13.53 44.07" class="st3"/>
			<text x="4.26" y="52.74" class="st2" v:langID="1033"><v:paragraph v:horizAlign="1"/><v:tabList/>0</text>		</g>
		<g id="shape34-115" v:mID="34" v:groupContext="shape" transform="translate(337.5,-3.04662)">
			<title>Sheet.34</title>
			<desc>1</desc>
			<v:textBlock v:margins="rect(0,0,0,0)"/>
			<v:textRect cx="6.76488" cy="50.0403" width="13.53" height="11.9384"/>
			<path d="M13.53 44.07 L0 44.07 L0 56.01 L13.53 56.01 L13.53 44.07" class="st3"/>
			<text x="5.51" y="52.74" class="st2" v:langID="1033"><v:paragraph v:horizAlign="1"/><v:tabList/>1</text>		</g>
		<g id="shape35-119" v:mID="35" v:groupContext="shape" transform="translate(313.364,61.1156) rotate(-137.761)">
			<title>Sheet.35</title>
			<path d="M0 56.01 L16.74 56.01" class="st5"/>
		</g>
		<g id="shape36-122" v:mID="36" v:groupContext="shape" transform="translate(331.313,-30.9988)">
			<title>Sheet.36</title>
			<desc>A</desc>
			<v:textBlock v:margins="rect(0,0,0,0)"/>
			<v:textRect cx="5.42249" cy="48.8289" width="10.85" height="14.3612"/>
			<path d="M10.84 41.65 L0 41.65 L0 56.01 L10.84 56.01 L10.84 41.65" class="st3"/>
			<text x="3.48" y="51.83" class="st4" v:langID="1033"><v:paragraph v:horizAlign="1"/><v:tabList/>A</text>		</g>
		<g id="shape37-126" v:mID="37" v:groupContext="shape" transform="translate(227.25,-13.86)">
			<title>Sheet.37</title>
			<desc>F = Pm(0, 3, 7)</desc>
			<v:textBlock v:margins="rect(0,0,0,0)"/>
			<v:textRect cx="42.75" cy="51.5095" width="85.5" height="9"/>
			<path d="M85.5 47.01 L0 47.01 L0 56.01 L85.5 56.01 L85.5 47.01" class="st3"/>
			<text x="7.23" y="55.71" class="st4" v:langID="1033"><v:paragraph v:horizAlign="1"/><v:tabList/>F = <tspan class="st8">P</tspan>m(0, 3, 7)</text>		</g>
		<g id="shape38-131" v:mID="38" v:groupContext="shape" transform="translate(330.75,-13.86) scale(-1,1)">
			<title>45 degree single.513</title>
			<v:userDefs>
				<v:ud v:nameU="visVersion" v:val="VT0(11):26"/>
			</v:userDefs>
			<path d="M0 51.51 L4.5 47.01 L4.5 49.98 L13.5 49.98 L13.5 53.04 L4.5 53.04 L4.5 56.01 L0 51.51 Z" class="st7"/>
		</g>
	</g>
</svg>
