<?xml version="1.0" encoding="UTF-8" standalone="no"?>
<!DOCTYPE svg PUBLIC "-//W3C//DTD SVG 1.1//EN" "http://www.w3.org/Graphics/SVG/1.1/DTD/svg11.dtd">
<!-- Generated by Microsoft Visio, SVG Export IC_Package.svg Page-1 -->
<svg xmlns="http://www.w3.org/2000/svg" xmlns:xlink="http://www.w3.org/1999/xlink" xmlns:ev="http://www.w3.org/2001/xml-events"
		xmlns:v="http://schemas.microsoft.com/visio/2003/SVGExtensions/" width="6.40335in" height="1.70033in"
		viewBox="0 0 461.041 122.424" xml:space="preserve" color-interpolation-filters="sRGB" class="st14">
	<v:documentProperties v:langID="1033" v:viewMarkup="false"/>

	<style type="text/css">
	<![CDATA[
		.st1 {fill:#e8eef7;stroke:#000000;stroke-linecap:round;stroke-linejoin:round;stroke-width:0.24}
		.st2 {stroke:none;stroke-linecap:round;stroke-linejoin:round;stroke-width:0.75}
		.st3 {fill:#000000;font-family:Arial;font-size:0.833336em;font-weight:bold}
		.st4 {fill:#000000;font-family:Arial;font-size:0.833336em}
		.st5 {font-size:1em}
		.st6 {fill:url(#grad10-19);stroke:#000000;stroke-linecap:round;stroke-linejoin:round;stroke-width:0.24}
		.st7 {fill:#808080;stroke:#000000;stroke-linecap:round;stroke-linejoin:round;stroke-width:0.24}
		.st8 {fill:url(#grad12-31);stroke:#000000;stroke-linecap:round;stroke-linejoin:round;stroke-width:0.24}
		.st9 {stroke:#000000;stroke-linecap:round;stroke-linejoin:round;stroke-width:0.72}
		.st10 {fill:#4d4d4d;stroke:#000000;stroke-linecap:round;stroke-linejoin:round;stroke-width:0.24}
		.st11 {fill:#333333;stroke:#000000;stroke-linecap:round;stroke-linejoin:round;stroke-width:0.24}
		.st12 {marker-end:url(#mrkr4-182);stroke:#000000;stroke-linecap:round;stroke-linejoin:round;stroke-width:0.72}
		.st13 {fill:#000000;fill-opacity:1;stroke:#000000;stroke-opacity:1;stroke-width:0.28571428571429}
		.st14 {fill:none;fill-rule:evenodd;font-size:12px;overflow:visible;stroke-linecap:square;stroke-miterlimit:3}
	]]>
	</style>

	<defs id="Patterns_And_Gradients">
		<pattern id="grad10-19" x="0" y="0" width="1" height="1" patternContentUnits="objectBoundingBox">
			<path d="M 0.5 0.5 L 0 0 L 0 1 z" style="fill:url(#grad0-20)"/>
			<path d="M 0.5 0.5 L 1 0 L 1 1 z" style="fill:url(#grad0-21)"/>
			<path d="M 0.5 0.5 L 0 0 L 1 0 z" style="fill:url(#grad0-22)"/>
			<path d="M 0.5 0.5 L 0 1 L 1 1 z" style="fill:url(#grad0-23)"/>
		</pattern>
		<linearGradient id="grad0-20" x1="0" y1="0" x2="1" y2="0" gradientTransform="rotate(180 0.5 0.5)">
			<stop offset="0" stop-color="#e9ecdf" stop-opacity="0.5"/>
			<stop offset="1" stop-color="#808080" stop-opacity="0.5"/>
		</linearGradient>
		<linearGradient id="grad0-21" x1="0" y1="0" x2="1" y2="0" gradientTransform="rotate(360 0.5 0.5)">
			<stop offset="0" stop-color="#e9ecdf" stop-opacity="0.5"/>
			<stop offset="1" stop-color="#808080" stop-opacity="0.5"/>
		</linearGradient>
		<linearGradient id="grad0-22" x1="0" y1="0" x2="1" y2="0" gradientTransform="rotate(270 0.5 0.5)">
			<stop offset="0" stop-color="#e9ecdf" stop-opacity="0.5"/>
			<stop offset="1" stop-color="#808080" stop-opacity="0.5"/>
		</linearGradient>
		<linearGradient id="grad0-23" x1="0" y1="0" x2="1" y2="0" gradientTransform="rotate(90 0.5 0.5)">
			<stop offset="0" stop-color="#e9ecdf" stop-opacity="0.5"/>
			<stop offset="1" stop-color="#808080" stop-opacity="0.5"/>
		</linearGradient>
		<pattern id="grad12-31" x="0" y="0" width="1" height="1" patternContentUnits="objectBoundingBox">
			<path d="M 0 0 L 0 1 L 1 1 z" style="fill:url(#grad0-32)"/>
			<path d="M 0 0 L 1 0 L 1 1 z" style="fill:url(#grad0-33)"/>
		</pattern>
		<linearGradient id="grad0-32" x1="0" y1="0" x2="1" y2="0" gradientTransform="rotate(90 0.5 0.5)">
			<stop offset="0" stop-color="#333333" stop-opacity="1"/>
			<stop offset="1" stop-color="#e8eef7" stop-opacity="1"/>
		</linearGradient>
		<linearGradient id="grad0-33" x1="0" y1="0" x2="1" y2="0" gradientTransform="rotate(360 0.5 0.5)">
			<stop offset="0" stop-color="#333333" stop-opacity="1"/>
			<stop offset="1" stop-color="#e8eef7" stop-opacity="1"/>
		</linearGradient>
	</defs>
	<defs id="Markers">
		<g id="lend4">
			<path d="M 2 1 L 0 0 L 2 -1 L 2 1 " style="stroke:none"/>
		</g>
		<marker id="mrkr4-182" class="st13" v:arrowType="4" v:arrowSize="1" v:setback="7" refX="-7" orient="auto"
				markerUnits="strokeWidth" overflow="visible">
			<use xlink:href="#lend4" transform="scale(-3.5,-3.5) "/>
		</marker>
	</defs>
	<g v:mID="0" v:index="1" v:groupContext="foregroundPage">
		<title>Page-1</title>
		<v:pageProperties v:drawingScale="1" v:pageScale="1" v:drawingUnits="0" v:shadowOffsetX="9" v:shadowOffsetY="-9"/>
		<v:layer v:name="Connector" v:index="0"/>
		<g id="shape1-1" v:mID="1" v:groupContext="shape" transform="translate(148.201,-46.961)">
			<title>Rectangle.357</title>
			<v:userDefs>
				<v:ud v:nameU="visVersion" v:val="VT0(11):26"/>
			</v:userDefs>
			<rect x="0" y="110.184" width="2.16" height="12.24" class="st1"/>
		</g>
		<g id="shape2-3" v:mID="2" v:groupContext="shape" transform="translate(290.761,-2.40013)">
			<title>Sheet.2</title>
			<desc>PLCC package</desc>
			<v:textBlock v:margins="rect(0,0,0,0)"/>
			<v:textRect cx="46.6532" cy="118.824" width="93.31" height="7.2"/>
			<path d="M93.31 115.22 L0 115.22 L0 122.42 L93.31 122.42 L93.31 115.22" class="st2"/>
			<text x="11.64" y="121.82" class="st3" v:langID="1033"><v:paragraph v:horizAlign="1"/><v:tabList/>PLCC package</text>		</g>
		<g id="shape3-7" v:mID="3" v:groupContext="shape" transform="translate(60.3611,-2.40013)">
			<title>Sheet.3</title>
			<desc>DIP package</desc>
			<v:textBlock v:margins="rect(0,0,0,0)"/>
			<v:textRect cx="36" cy="118.824" width="72" height="7.2"/>
			<path d="M72 115.22 L0 115.22 L0 122.42 L72 122.42 L72 115.22" class="st2"/>
			<text x="6.26" y="121.82" class="st3" v:langID="1033"><v:paragraph v:horizAlign="1"/><v:tabList/>DIP package</text>		</g>
		<g id="shape4-11" v:mID="4" v:groupContext="shape" transform="translate(78.8368,-103.2)">
			<title>Sheet.4</title>
			<desc>Plastic chip carrier pacakge</desc>
			<v:textBlock v:margins="rect(0,0,0,0)"/>
			<v:textRect cx="35.7621" cy="115.247" width="71.53" height="14.353"/>
			<path d="M71.52 108.07 L0 108.07 L0 122.42 L71.52 122.42 L71.52 108.07" class="st2"/>
			<text x="0" y="112.25" class="st4" v:langID="1033"><v:paragraph/><v:tabList/>Plastic chip<v:newlineChar/><tspan x="0"
						dy="1.2em" class="st5">carrier pacakge </tspan> </text>		</g>
		<g id="shape5-16" v:mID="5" v:groupContext="shape" transform="translate(53.1611,-49.841)">
			<title>Sheet.5</title>
			<path d="M0 122.42 L86.4 122.42 L100.8 105.06 L14.4 105.14 L0 122.42 Z" class="st6"/>
		</g>
		<g id="shape6-24" v:mID="6" v:groupContext="shape" transform="translate(53.1695,-42.641)">
			<title>Sheet.6</title>
			<path d="M0 115.21 L0 122.42 L86.39 122.42 L86.39 115.22 L0 115.21 Z" class="st7"/>
		</g>
		<g id="shape7-26" v:mID="7" v:groupContext="shape" transform="translate(139.561,-42.641)">
			<title>Sheet.7</title>
			<path d="M0 122.42 L14.4 103.7 L14.4 97.86 L0 115.22 L0 122.42 Z" class="st7"/>
		</g>
		<g id="shape8-28" v:mID="8" v:groupContext="shape" transform="translate(88.6348,-54.161)">
			<title>Sheet.8</title>
			<path d="M9.17 113.46 L26.97 113.46 L17.81 122.42 L0 122.42 L9.17 113.46 Z" class="st8"/>
		</g>
		<g id="shape9-34" v:mID="9" v:groupContext="shape" transform="translate(56.0411,-25.0011)">
			<title>Sheet.9</title>
			<path d="M6.93 101.19 A5.52073 4.66166 -90 0 0 2.27 106.71 L2.35 122.41 L0 122.42 L0 106.58 A2.34661 5.39997 0 0 1 2.35
						 101.18 L6.93 101.19 Z" class="st1"/>
		</g>
		<g id="shape10-36" v:mID="10" v:groupContext="shape" transform="translate(66.1846,-25.0011)">
			<title>Sheet.10</title>
			<path d="M6.93 101.19 A5.52073 4.66166 -90 0 0 2.27 106.71 L2.35 122.41 L0 122.42 L0 106.58 A2.34661 5.39997 0 0 1 2.35
						 101.18 L6.93 101.19 Z" class="st1"/>
		</g>
		<g id="shape11-38" v:mID="11" v:groupContext="shape" transform="translate(76.2587,-25.0011)">
			<title>Sheet.11</title>
			<path d="M6.93 101.19 A5.52073 4.66166 -90 0 0 2.27 106.71 L2.35 122.41 L0 122.42 L0 106.58 A2.34661 5.39997 0 0 1 2.35
						 101.18 L6.93 101.19 Z" class="st1"/>
		</g>
		<g id="shape12-40" v:mID="12" v:groupContext="shape" transform="translate(86.437,-25.0011)">
			<title>Sheet.12</title>
			<path d="M6.93 101.19 A5.52073 4.66166 -90 0 0 2.27 106.71 L2.35 122.41 L0 122.42 L0 106.58 A2.34661 5.39997 0 0 1 2.35
						 101.18 L6.93 101.19 Z" class="st1"/>
		</g>
		<g id="shape13-42" v:mID="13" v:groupContext="shape" transform="translate(96.511,-25.0011)">
			<title>Sheet.13</title>
			<path d="M6.93 101.19 A5.52073 4.66166 -90 0 0 2.27 106.71 L2.35 122.41 L0 122.42 L0 106.58 A2.34661 5.39997 0 0 1 2.35
						 101.18 L6.93 101.19 Z" class="st1"/>
		</g>
		<g id="shape14-44" v:mID="14" v:groupContext="shape" transform="translate(106.62,-25.0011)">
			<title>Sheet.14</title>
			<path d="M6.93 101.19 A5.52073 4.66166 -90 0 0 2.27 106.71 L2.35 122.41 L0 122.42 L0 106.58 A2.34661 5.39997 0 0 1 2.35
						 101.18 L6.93 101.19 Z" class="st1"/>
		</g>
		<g id="shape15-46" v:mID="15" v:groupContext="shape" transform="translate(116.729,-25.0011)">
			<title>Sheet.15</title>
			<path d="M6.93 101.19 A5.52073 4.66166 -90 0 0 2.27 106.71 L2.35 122.41 L0 122.42 L0 106.58 A2.34661 5.39997 0 0 1 2.35
						 101.18 L6.93 101.19 Z" class="st1"/>
		</g>
		<g id="shape16-48" v:mID="16" v:groupContext="shape" transform="translate(126.872,-25.0011)">
			<title>Sheet.16</title>
			<path d="M6.93 101.19 A5.52073 4.66166 -90 0 0 2.27 106.71 L2.35 122.41 L0 122.42 L0 106.58 A2.34661 5.39997 0 0 1 2.35
						 101.18 L6.93 101.19 Z" class="st1"/>
		</g>
		<g id="shape17-50" v:mID="17" v:groupContext="shape" transform="translate(60.3594,-47.681)">
			<title>Sheet.17</title>
			<path d="M31.68 113.42 A32.038 7.6281 -2.47 0 0 0 122.42" class="st9"/>
		</g>
		<g id="shape18-53" v:mID="18" v:groupContext="shape" transform="translate(128.077,181.894) rotate(162.181)">
			<title>Sheet.18</title>
			<path d="M-0 120.11 A20.6236 5.72662 -164.11 0 0 21.18 120.11" class="st9"/>
		</g>
		<g id="shape19-56" v:mID="19" v:groupContext="shape" transform="translate(139.561,-56.321)">
			<title>Sheet.19</title>
			<path d="M6.48 122.42 L8.28 119.9 L8.28 119.99 L8.28 119.9 a0.113414 0.844764 -180 0 0 -0.113414 -0.844764 A8.16659 1.20476
						 -180 0 0 0 120.26 A5.66733 1.88911 -1.33 0 0 5.71 122.02 a0.770353 0.402941 -180 0 0 0.770353 0.402941 Z"
					class="st10"/>
		</g>
		<g id="shape20-58" v:mID="20" v:groupContext="shape" transform="translate(283.561,-33.3206)">
			<title>Sheet.20</title>
			<path d="M0 122.42 L87.17 122.36 L121.68 81.34 L36.72 81.34 L0 122.42 Z" class="st6"/>
		</g>
		<g id="shape21-61" v:mID="21" v:groupContext="shape" transform="translate(283.561,-27.6001)">
			<title>Sheet.21</title>
			<path d="M0 116.66 L0 122.42 L87.12 122.42 L87.12 116.7 L0 116.66 Z" class="st7"/>
		</g>
		<g id="shape22-63" v:mID="22" v:groupContext="shape" transform="translate(370.681,-27.6001)">
			<title>Sheet.22</title>
			<path d="M0 122.42 L34.83 80 L34.56 75.62 L0 116.7 L0 122.42 Z" class="st7"/>
		</g>
		<g id="shape23-65" v:mID="23" v:groupContext="shape" transform="translate(331.081,-49.2001)">
			<title>Sheet.23</title>
			<path d="M10.08 110.9 L34.17 111.06 L22.56 122.42 L0 122.42 L10.08 110.9 Z" class="st8"/>
		</g>
		<g id="group24-68" transform="translate(285.721,-26.8706)" v:mID="24" v:groupContext="group">
			<title>Sheet.24</title>
			<g id="shape25-69" v:mID="25" v:groupContext="shape">
				<title>Sheet.25</title>
				<path d="M0.72 118.09 a3.36311 0.72 -90 0 0 -0.72 3.36311 a1.00814 0.962809 -180 0 0 1.00703 0.966439 a1.29327 0.102345
							 -180 0 0 1.29327 -0.102345 a0.428303 0.864093 0 0 1 -0.428303 -0.864093 a0.643649 3.28767 0 0 1 0.643371
							 -3.28796 a2.21039 0.0829296 -180 0 0 -1.79537 -0.0751521 Z" class="st1"/>
			</g>
			<g id="shape26-71" v:mID="26" v:groupContext="shape" transform="translate(1.88609,-0.102287)">
				<title>Sheet.26</title>
				<path d="M-0 121.78 a0.811598 0.0171265 -180 0 0 0.811598 0.0171265 a0.6253 0.394914 90 0 1 -0.397379 0.627205 a0.410927
							 0.713978 0 0 1 -0.41422 -0.644332 Z" class="st1"/>
			</g>
		</g>
		<g id="group27-73" transform="translate(291.481,-26.8706)" v:mID="27" v:groupContext="group">
			<title>Sheet.27</title>
			<g id="shape28-74" v:mID="28" v:groupContext="shape">
				<title>Sheet.28</title>
				<path d="M0.72 118.09 a3.36311 0.72 -90 0 0 -0.72 3.36311 a1.00814 0.962809 -180 0 0 1.00703 0.966439 a1.29327 0.102345
							 -180 0 0 1.29327 -0.102345 a0.428303 0.864093 0 0 1 -0.428303 -0.864093 a0.643649 3.28767 0 0 1 0.643371
							 -3.28796 a2.21039 0.0829296 -180 0 0 -1.79537 -0.0751521 Z" class="st1"/>
			</g>
			<g id="shape29-76" v:mID="29" v:groupContext="shape" transform="translate(1.88609,-0.102287)">
				<title>Sheet.29</title>
				<path d="M-0 121.78 a0.811598 0.0171265 -180 0 0 0.811598 0.0171265 a0.6253 0.394914 90 0 1 -0.397379 0.627205 a0.410927
							 0.713978 0 0 1 -0.41422 -0.644332 Z" class="st1"/>
			</g>
		</g>
		<g id="group30-78" transform="translate(297.241,-26.8706)" v:mID="30" v:groupContext="group">
			<title>Sheet.30</title>
			<g id="shape31-79" v:mID="31" v:groupContext="shape">
				<title>Sheet.31</title>
				<path d="M0.72 118.09 a3.36311 0.72 -90 0 0 -0.72 3.36311 a1.00814 0.962809 -180 0 0 1.00703 0.966439 a1.29327 0.102345
							 -180 0 0 1.29327 -0.102345 a0.428303 0.864093 0 0 1 -0.428303 -0.864093 a0.643649 3.28767 0 0 1 0.643371
							 -3.28796 a2.21039 0.0829296 -180 0 0 -1.79537 -0.0751521 Z" class="st1"/>
			</g>
			<g id="shape32-81" v:mID="32" v:groupContext="shape" transform="translate(1.88609,-0.102287)">
				<title>Sheet.32</title>
				<path d="M-0 121.78 a0.811598 0.0171265 -180 0 0 0.811598 0.0171265 a0.6253 0.394914 90 0 1 -0.397379 0.627205 a0.410927
							 0.713978 0 0 1 -0.41422 -0.644332 Z" class="st1"/>
			</g>
		</g>
		<g id="group33-83" transform="translate(303.001,-26.8706)" v:mID="33" v:groupContext="group">
			<title>Sheet.33</title>
			<g id="shape34-84" v:mID="34" v:groupContext="shape">
				<title>Sheet.34</title>
				<path d="M0.72 118.09 a3.36311 0.72 -90 0 0 -0.72 3.36311 a1.00814 0.962809 -180 0 0 1.00703 0.966439 a1.29327 0.102345
							 -180 0 0 1.29327 -0.102345 a0.428303 0.864093 0 0 1 -0.428303 -0.864093 a0.643649 3.28767 0 0 1 0.643371
							 -3.28796 a2.21039 0.0829296 -180 0 0 -1.79537 -0.0751521 Z" class="st1"/>
			</g>
			<g id="shape35-86" v:mID="35" v:groupContext="shape" transform="translate(1.88609,-0.102287)">
				<title>Sheet.35</title>
				<path d="M-0 121.78 a0.811598 0.0171265 -180 0 0 0.811598 0.0171265 a0.6253 0.394914 90 0 1 -0.397379 0.627205 a0.410927
							 0.713978 0 0 1 -0.41422 -0.644332 Z" class="st1"/>
			</g>
		</g>
		<g id="group36-88" transform="translate(308.761,-26.8706)" v:mID="36" v:groupContext="group">
			<title>Sheet.36</title>
			<g id="shape37-89" v:mID="37" v:groupContext="shape">
				<title>Sheet.37</title>
				<path d="M0.72 118.09 a3.36311 0.72 -90 0 0 -0.72 3.36311 a1.00814 0.962809 -180 0 0 1.00703 0.966439 a1.29327 0.102345
							 -180 0 0 1.29327 -0.102345 a0.428303 0.864093 0 0 1 -0.428303 -0.864093 a0.643649 3.28767 0 0 1 0.643371
							 -3.28796 a2.21039 0.0829296 -180 0 0 -1.79537 -0.0751521 Z" class="st1"/>
			</g>
			<g id="shape38-91" v:mID="38" v:groupContext="shape" transform="translate(1.88609,-0.102287)">
				<title>Sheet.38</title>
				<path d="M-0 121.78 a0.811598 0.0171265 -180 0 0 0.811598 0.0171265 a0.6253 0.394914 90 0 1 -0.397379 0.627205 a0.410927
							 0.713978 0 0 1 -0.41422 -0.644332 Z" class="st1"/>
			</g>
		</g>
		<g id="group39-93" transform="translate(314.521,-26.8706)" v:mID="39" v:groupContext="group">
			<title>Sheet.39</title>
			<g id="shape40-94" v:mID="40" v:groupContext="shape">
				<title>Sheet.40</title>
				<path d="M0.72 118.09 a3.36311 0.72 -90 0 0 -0.72 3.36311 a1.00814 0.962809 -180 0 0 1.00703 0.966439 a1.29327 0.102345
							 -180 0 0 1.29327 -0.102345 a0.428303 0.864093 0 0 1 -0.428303 -0.864093 a0.643649 3.28767 0 0 1 0.643371
							 -3.28796 a2.21039 0.0829296 -180 0 0 -1.79537 -0.0751521 Z" class="st1"/>
			</g>
			<g id="shape41-96" v:mID="41" v:groupContext="shape" transform="translate(1.88609,-0.102287)">
				<title>Sheet.41</title>
				<path d="M-0 121.78 a0.811598 0.0171265 -180 0 0 0.811598 0.0171265 a0.6253 0.394914 90 0 1 -0.397379 0.627205 a0.410927
							 0.713978 0 0 1 -0.41422 -0.644332 Z" class="st1"/>
			</g>
		</g>
		<g id="group42-98" transform="translate(320.281,-26.8706)" v:mID="42" v:groupContext="group">
			<title>Sheet.42</title>
			<g id="shape43-99" v:mID="43" v:groupContext="shape">
				<title>Sheet.43</title>
				<path d="M0.72 118.09 a3.36311 0.72 -90 0 0 -0.72 3.36311 a1.00814 0.962809 -180 0 0 1.00703 0.966439 a1.29327 0.102345
							 -180 0 0 1.29327 -0.102345 a0.428303 0.864093 0 0 1 -0.428303 -0.864093 a0.643649 3.28767 0 0 1 0.643371
							 -3.28796 a2.21039 0.0829296 -180 0 0 -1.79537 -0.0751521 Z" class="st1"/>
			</g>
			<g id="shape44-101" v:mID="44" v:groupContext="shape" transform="translate(1.88609,-0.102287)">
				<title>Sheet.44</title>
				<path d="M-0 121.78 a0.811598 0.0171265 -180 0 0 0.811598 0.0171265 a0.6253 0.394914 90 0 1 -0.397379 0.627205 a0.410927
							 0.713978 0 0 1 -0.41422 -0.644332 Z" class="st1"/>
			</g>
		</g>
		<g id="group45-103" transform="translate(326.041,-26.8706)" v:mID="45" v:groupContext="group">
			<title>Sheet.45</title>
			<g id="shape46-104" v:mID="46" v:groupContext="shape">
				<title>Sheet.46</title>
				<path d="M0.72 118.09 a3.36311 0.72 -90 0 0 -0.72 3.36311 a1.00814 0.962809 -180 0 0 1.00703 0.966439 a1.29327 0.102345
							 -180 0 0 1.29327 -0.102345 a0.428303 0.864093 0 0 1 -0.428303 -0.864093 a0.643649 3.28767 0 0 1 0.643371
							 -3.28796 a2.21039 0.0829296 -180 0 0 -1.79537 -0.0751521 Z" class="st1"/>
			</g>
			<g id="shape47-106" v:mID="47" v:groupContext="shape" transform="translate(1.88609,-0.102287)">
				<title>Sheet.47</title>
				<path d="M-0 121.78 a0.811598 0.0171265 -180 0 0 0.811598 0.0171265 a0.6253 0.394914 90 0 1 -0.397379 0.627205 a0.410927
							 0.713978 0 0 1 -0.41422 -0.644332 Z" class="st1"/>
			</g>
		</g>
		<g id="group48-108" transform="translate(331.801,-26.8706)" v:mID="48" v:groupContext="group">
			<title>Sheet.48</title>
			<g id="shape49-109" v:mID="49" v:groupContext="shape">
				<title>Sheet.49</title>
				<path d="M0.72 118.09 a3.36311 0.72 -90 0 0 -0.72 3.36311 a1.00814 0.962809 -180 0 0 1.00703 0.966439 a1.29327 0.102345
							 -180 0 0 1.29327 -0.102345 a0.428303 0.864093 0 0 1 -0.428303 -0.864093 a0.643649 3.28767 0 0 1 0.643371
							 -3.28796 a2.21039 0.0829296 -180 0 0 -1.79537 -0.0751521 Z" class="st1"/>
			</g>
			<g id="shape50-111" v:mID="50" v:groupContext="shape" transform="translate(1.88609,-0.102287)">
				<title>Sheet.50</title>
				<path d="M-0 121.78 a0.811598 0.0171265 -180 0 0 0.811598 0.0171265 a0.6253 0.394914 90 0 1 -0.397379 0.627205 a0.410927
							 0.713978 0 0 1 -0.41422 -0.644332 Z" class="st1"/>
			</g>
		</g>
		<g id="group51-113" transform="translate(337.561,-26.8706)" v:mID="51" v:groupContext="group">
			<title>Sheet.51</title>
			<g id="shape52-114" v:mID="52" v:groupContext="shape">
				<title>Sheet.52</title>
				<path d="M0.72 118.09 a3.36311 0.72 -90 0 0 -0.72 3.36311 a1.00814 0.962809 -180 0 0 1.00703 0.966439 a1.29327 0.102345
							 -180 0 0 1.29327 -0.102345 a0.428303 0.864093 0 0 1 -0.428303 -0.864093 a0.643649 3.28767 0 0 1 0.643371
							 -3.28796 a2.21039 0.0829296 -180 0 0 -1.79537 -0.0751521 Z" class="st1"/>
			</g>
			<g id="shape53-116" v:mID="53" v:groupContext="shape" transform="translate(1.88609,-0.102287)">
				<title>Sheet.53</title>
				<path d="M-0 121.78 a0.811598 0.0171265 -180 0 0 0.811598 0.0171265 a0.6253 0.394914 90 0 1 -0.397379 0.627205 a0.410927
							 0.713978 0 0 1 -0.41422 -0.644332 Z" class="st1"/>
			</g>
		</g>
		<g id="group54-118" transform="translate(343.321,-26.8706)" v:mID="54" v:groupContext="group">
			<title>Sheet.54</title>
			<g id="shape55-119" v:mID="55" v:groupContext="shape">
				<title>Sheet.55</title>
				<path d="M0.72 118.09 a3.36311 0.72 -90 0 0 -0.72 3.36311 a1.00814 0.962809 -180 0 0 1.00703 0.966439 a1.29327 0.102345
							 -180 0 0 1.29327 -0.102345 a0.428303 0.864093 0 0 1 -0.428303 -0.864093 a0.643649 3.28767 0 0 1 0.643371
							 -3.28796 a2.21039 0.0829296 -180 0 0 -1.79537 -0.0751521 Z" class="st1"/>
			</g>
			<g id="shape56-121" v:mID="56" v:groupContext="shape" transform="translate(1.88609,-0.102287)">
				<title>Sheet.56</title>
				<path d="M-0 121.78 a0.811598 0.0171265 -180 0 0 0.811598 0.0171265 a0.6253 0.394914 90 0 1 -0.397379 0.627205 a0.410927
							 0.713978 0 0 1 -0.41422 -0.644332 Z" class="st1"/>
			</g>
		</g>
		<g id="group57-123" transform="translate(349.081,-26.8706)" v:mID="57" v:groupContext="group">
			<title>Sheet.57</title>
			<g id="shape58-124" v:mID="58" v:groupContext="shape">
				<title>Sheet.58</title>
				<path d="M0.72 118.09 a3.36311 0.72 -90 0 0 -0.72 3.36311 a1.00814 0.962809 -180 0 0 1.00703 0.966439 a1.29327 0.102345
							 -180 0 0 1.29327 -0.102345 a0.428303 0.864093 0 0 1 -0.428303 -0.864093 a0.643649 3.28767 0 0 1 0.643371
							 -3.28796 a2.21039 0.0829296 -180 0 0 -1.79537 -0.0751521 Z" class="st1"/>
			</g>
			<g id="shape59-126" v:mID="59" v:groupContext="shape" transform="translate(1.88609,-0.102287)">
				<title>Sheet.59</title>
				<path d="M-0 121.78 a0.811598 0.0171265 -180 0 0 0.811598 0.0171265 a0.6253 0.394914 90 0 1 -0.397379 0.627205 a0.410927
							 0.713978 0 0 1 -0.41422 -0.644332 Z" class="st1"/>
			</g>
		</g>
		<g id="group60-128" transform="translate(354.841,-26.8706)" v:mID="60" v:groupContext="group">
			<title>Sheet.60</title>
			<g id="shape61-129" v:mID="61" v:groupContext="shape">
				<title>Sheet.61</title>
				<path d="M0.72 118.09 a3.36311 0.72 -90 0 0 -0.72 3.36311 a1.00814 0.962809 -180 0 0 1.00703 0.966439 a1.29327 0.102345
							 -180 0 0 1.29327 -0.102345 a0.428303 0.864093 0 0 1 -0.428303 -0.864093 a0.643649 3.28767 0 0 1 0.643371
							 -3.28796 a2.21039 0.0829296 -180 0 0 -1.79537 -0.0751521 Z" class="st1"/>
			</g>
			<g id="shape62-131" v:mID="62" v:groupContext="shape" transform="translate(1.88609,-0.102287)">
				<title>Sheet.62</title>
				<path d="M-0 121.78 a0.811598 0.0171265 -180 0 0 0.811598 0.0171265 a0.6253 0.394914 90 0 1 -0.397379 0.627205 a0.410927
							 0.713978 0 0 1 -0.41422 -0.644332 Z" class="st1"/>
			</g>
		</g>
		<g id="group63-133" transform="translate(360.601,-26.8706)" v:mID="63" v:groupContext="group">
			<title>Sheet.63</title>
			<g id="shape64-134" v:mID="64" v:groupContext="shape">
				<title>Sheet.64</title>
				<path d="M0.72 118.09 a3.36311 0.72 -90 0 0 -0.72 3.36311 a1.00814 0.962809 -180 0 0 1.00703 0.966439 a1.29327 0.102345
							 -180 0 0 1.29327 -0.102345 a0.428303 0.864093 0 0 1 -0.428303 -0.864093 a0.643649 3.28767 0 0 1 0.643371
							 -3.28796 a2.21039 0.0829296 -180 0 0 -1.79537 -0.0751521 Z" class="st1"/>
			</g>
			<g id="shape65-136" v:mID="65" v:groupContext="shape" transform="translate(1.88609,-0.102287)">
				<title>Sheet.65</title>
				<path d="M-0 121.78 a0.811598 0.0171265 -180 0 0 0.811598 0.0171265 a0.6253 0.394914 90 0 1 -0.397379 0.627205 a0.410927
							 0.713978 0 0 1 -0.41422 -0.644332 Z" class="st1"/>
			</g>
		</g>
		<g id="group66-138" transform="translate(366.361,-26.8706)" v:mID="66" v:groupContext="group">
			<title>Sheet.66</title>
			<g id="shape67-139" v:mID="67" v:groupContext="shape">
				<title>Sheet.67</title>
				<path d="M0.72 118.09 a3.36311 0.72 -90 0 0 -0.72 3.36311 a1.00814 0.962809 -180 0 0 1.00703 0.966439 a1.29327 0.102345
							 -180 0 0 1.29327 -0.102345 a0.428303 0.864093 0 0 1 -0.428303 -0.864093 a0.643649 3.28767 0 0 1 0.643371
							 -3.28796 a2.21039 0.0829296 -180 0 0 -1.79537 -0.0751521 Z" class="st1"/>
			</g>
			<g id="shape68-141" v:mID="68" v:groupContext="shape" transform="translate(1.88609,-0.102287)">
				<title>Sheet.68</title>
				<path d="M-0 121.78 a0.811598 0.0171265 -180 0 0 0.811598 0.0171265 a0.6253 0.394914 90 0 1 -0.397379 0.627205 a0.410927
							 0.713978 0 0 1 -0.41422 -0.644332 Z" class="st1"/>
			</g>
		</g>
		<g id="shape69-143" v:mID="69" v:groupContext="shape" transform="translate(372.154,-28.9236)">
			<title>Sheet.69</title>
			<path d="M-0 119.11 A2.35283 1.45539 90 0 1 1.46 121.46 a0.962688 0.508799 90 0 1 -0.508799 0.962688 a0.914772 0.478276
						 15.04 0 1 -0.759349 -0.699246 L0.81 120.97 a0.575933 0.510938 -98.35 0 0 0.58914 0.495652 L1.4 122.02 L2.13
						 120.38 A1.39344 2.39387 -180 0 0 0.73 117.99 L0 119.11 Z" class="st1"/>
		</g>
		<g id="shape70-145" v:mID="70" v:groupContext="shape" transform="translate(374.641,-31.9201)">
			<title>Sheet.70</title>
			<path d="M-0 119.11 A2.35283 1.45539 90 0 1 1.46 121.46 a0.962688 0.508799 90 0 1 -0.508799 0.962688 a0.914772 0.478276
						 15.04 0 1 -0.759349 -0.699246 L0.81 120.97 a0.575933 0.510938 -98.35 0 0 0.58914 0.495652 L1.4 122.02 L2.13
						 120.38 A1.39344 2.39387 -180 0 0 0.73 117.99 L0 119.11 Z" class="st1"/>
		</g>
		<g id="shape71-147" v:mID="71" v:groupContext="shape" transform="translate(377.155,-34.999)">
			<title>Sheet.71</title>
			<path d="M-0 119.11 A2.35283 1.45539 90 0 1 1.46 121.46 a0.962688 0.508799 90 0 1 -0.508799 0.962688 a0.914772 0.478276
						 15.04 0 1 -0.759349 -0.699246 L0.81 120.97 a0.575933 0.510938 -98.35 0 0 0.58914 0.495652 L1.4 122.02 L2.13
						 120.38 A1.39344 2.39387 -180 0 0 0.73 117.99 L0 119.11 Z" class="st1"/>
		</g>
		<g id="shape72-149" v:mID="72" v:groupContext="shape" transform="translate(379.642,-37.9956)">
			<title>Sheet.72</title>
			<path d="M-0 119.11 A2.35283 1.45539 90 0 1 1.46 121.46 a0.962688 0.508799 90 0 1 -0.508799 0.962688 a0.914772 0.478276
						 15.04 0 1 -0.759349 -0.699246 L0.81 120.97 a0.575933 0.510938 -98.35 0 0 0.58914 0.495652 L1.4 122.02 L2.13
						 120.38 A1.39344 2.39387 -180 0 0 0.73 117.99 L0 119.11 Z" class="st1"/>
		</g>
		<g id="shape73-151" v:mID="73" v:groupContext="shape" transform="translate(382.434,-41.4516)">
			<title>Sheet.73</title>
			<path d="M-0 119.11 A2.35283 1.45539 90 0 1 1.46 121.46 a0.962688 0.508799 90 0 1 -0.508799 0.962688 a0.914772 0.478276
						 15.04 0 1 -0.759349 -0.699246 L0.81 120.97 a0.575933 0.510938 -98.35 0 0 0.58914 0.495652 L1.4 122.02 L2.13
						 120.38 A1.39344 2.39387 -180 0 0 0.73 117.99 L0 119.11 Z" class="st1"/>
		</g>
		<g id="shape74-153" v:mID="74" v:groupContext="shape" transform="translate(384.921,-44.4481)">
			<title>Sheet.74</title>
			<path d="M-0 119.11 A2.35283 1.45539 90 0 1 1.46 121.46 a0.962688 0.508799 90 0 1 -0.508799 0.962688 a0.914772 0.478276
						 15.04 0 1 -0.759349 -0.699246 L0.81 120.97 a0.575933 0.510938 -98.35 0 0 0.58914 0.495652 L1.4 122.02 L2.13
						 120.38 A1.39344 2.39387 -180 0 0 0.73 117.99 L0 119.11 Z" class="st1"/>
		</g>
		<g id="shape75-155" v:mID="75" v:groupContext="shape" transform="translate(387.562,-47.6436)">
			<title>Sheet.75</title>
			<path d="M-0 119.11 A2.35283 1.45539 90 0 1 1.46 121.46 a0.962688 0.508799 90 0 1 -0.508799 0.962688 a0.914772 0.478276
						 15.04 0 1 -0.759349 -0.699246 L0.81 120.97 a0.575933 0.510938 -98.35 0 0 0.58914 0.495652 L1.4 122.02 L2.13
						 120.38 A1.39344 2.39387 -180 0 0 0.73 117.99 L0 119.11 Z" class="st1"/>
		</g>
		<g id="shape76-157" v:mID="76" v:groupContext="shape" transform="translate(389.922,-50.5236)">
			<title>Sheet.76</title>
			<path d="M-0 119.11 A2.35283 1.45539 90 0 1 1.46 121.46 a0.962688 0.508799 90 0 1 -0.508799 0.962688 a0.914772 0.478276
						 15.04 0 1 -0.759349 -0.699246 L0.81 120.97 a0.575933 0.510938 -98.35 0 0 0.58914 0.495652 L1.4 122.02 L2.13
						 120.38 A1.39344 2.39387 -180 0 0 0.73 117.99 L0 119.11 Z" class="st1"/>
		</g>
		<g id="shape77-159" v:mID="77" v:groupContext="shape" transform="translate(392.558,-53.8081)">
			<title>Sheet.77</title>
			<path d="M-0 119.11 A2.35283 1.45539 90 0 1 1.46 121.46 a0.962688 0.508799 90 0 1 -0.508799 0.962688 a0.914772 0.478276
						 15.04 0 1 -0.759349 -0.699246 L0.81 120.97 a0.575933 0.510938 -98.35 0 0 0.58914 0.495652 L1.4 122.02 L2.13
						 120.38 A1.39344 2.39387 -180 0 0 0.73 117.99 L0 119.11 Z" class="st1"/>
		</g>
		<g id="shape78-161" v:mID="78" v:groupContext="shape" transform="translate(395.045,-56.8047)">
			<title>Sheet.78</title>
			<path d="M-0 119.11 A2.35283 1.45539 90 0 1 1.46 121.46 a0.962688 0.508799 90 0 1 -0.508799 0.962688 a0.914772 0.478276
						 15.04 0 1 -0.759349 -0.699246 L0.81 120.97 a0.575933 0.510938 -98.35 0 0 0.58914 0.495652 L1.4 122.02 L2.13
						 120.38 A1.39344 2.39387 -180 0 0 0.73 117.99 L0 119.11 Z" class="st1"/>
		</g>
		<g id="shape79-163" v:mID="79" v:groupContext="shape" transform="translate(397.559,-59.8836)">
			<title>Sheet.79</title>
			<path d="M-0 119.11 A2.35283 1.45539 90 0 1 1.46 121.46 a0.962688 0.508799 90 0 1 -0.508799 0.962688 a0.914772 0.478276
						 15.04 0 1 -0.759349 -0.699246 L0.81 120.97 a0.575933 0.510938 -98.35 0 0 0.58914 0.495652 L1.4 122.02 L2.13
						 120.38 A1.39344 2.39387 -180 0 0 0.73 117.99 L0 119.11 Z" class="st1"/>
		</g>
		<g id="shape80-165" v:mID="80" v:groupContext="shape" transform="translate(400.046,-62.8801)">
			<title>Sheet.80</title>
			<path d="M-0 119.11 A2.35283 1.45539 90 0 1 1.46 121.46 a0.962688 0.508799 90 0 1 -0.508799 0.962688 a0.914772 0.478276
						 15.04 0 1 -0.759349 -0.699246 L0.81 120.97 a0.575933 0.510938 -98.35 0 0 0.58914 0.495652 L1.4 122.02 L2.13
						 120.38 A1.39344 2.39387 -180 0 0 0.73 117.99 L0 119.11 Z" class="st1"/>
		</g>
		<g id="shape81-167" v:mID="81" v:groupContext="shape" transform="translate(402.837,-66.3361)">
			<title>Sheet.81</title>
			<path d="M-0 119.11 A2.35283 1.45539 90 0 1 1.46 121.46 a0.962688 0.508799 90 0 1 -0.508799 0.962688 a0.914772 0.478276
						 15.04 0 1 -0.759349 -0.699246 L0.81 120.97 a0.575933 0.510938 -98.35 0 0 0.58914 0.495652 L1.4 122.02 L2.13
						 120.38 A1.39344 2.39387 -180 0 0 0.73 117.99 L0 119.11 Z" class="st1"/>
		</g>
		<g id="shape82-169" v:mID="82" v:groupContext="shape" v:layerMember="0"
				transform="translate(285.692,-40.6095) rotate(-22.4898) scale(-1,1)">
			<title>Line-curve connector</title>
			<v:userDefs>
				<v:ud v:nameU="AntiScale" v:val="VT0(1):26"/>
				<v:ud v:nameU="Scale" v:val="VT0(1):26"/>
				<v:ud v:nameU="visVersion" v:val="VT0(11):26"/>
			</v:userDefs>
			<path d="M0 122.42 L9.77 117.44 L19.55 114.95 L29.34 114.95 L39.15 117.44 L48.97 122.42" class="st9"/>
		</g>
		<g id="shape83-172" v:mID="83" v:groupContext="shape" v:layerMember="0"
				transform="translate(284.603,-39.2092) rotate(-24.1455) scale(-1,1)">
			<title>Line-curve connector.365</title>
			<v:userDefs>
				<v:ud v:nameU="AntiScale" v:val="VT0(1):26"/>
				<v:ud v:nameU="Scale" v:val="VT0(1):26"/>
				<v:ud v:nameU="visVersion" v:val="VT0(11):26"/>
			</v:userDefs>
			<path d="M0 122.42 L11.28 118.46 L21.49 116.48 L30.65 116.48 L38.74 118.46 L45.76 122.42" class="st9"/>
		</g>
		<g id="shape84-175" v:mID="84" v:groupContext="shape" transform="translate(388.681,-69.3601)">
			<title>Ellipse.303</title>
			<v:userDefs>
				<v:ud v:nameU="visVersion" v:val="VT0(11):26"/>
			</v:userDefs>
			<path d="M0 121.07 A4.32 1.3504 0 1 1 8.64 121.07 A4.32 1.3504 0 1 1 -0 121.07 Z" class="st11"/>
		</g>
		<g id="shape85-177" v:mID="85" v:groupContext="shape" transform="translate(241.607,2.41429) rotate(78.6901)">
			<title>Sheet.85</title>
			<path d="M0 122.42 L31.67 122.42" class="st12"/>
		</g>
		<g id="shape86-183" v:mID="86" v:groupContext="shape" transform="translate(165.841,187.007) rotate(180)">
			<title>Sheet.86</title>
			<path d="M0 122.42 L12.6 122.42" class="st12"/>
		</g>
		<g id="shape87-188" v:mID="87" v:groupContext="shape" transform="translate(138.121,-78.7437)">
			<title>Sheet.87</title>
			<desc>Pin 1</desc>
			<v:textBlock v:margins="rect(0,0,0,0)"/>
			<v:textRect cx="12.6" cy="115.247" width="25.21" height="14.353"/>
			<path d="M25.2 108.07 L0 108.07 L0 122.42 L25.2 122.42 L25.2 108.07" class="st2"/>
			<text x="0" y="118.25" class="st4" v:langID="1033"><v:paragraph/><v:tabList/>Pin 1</text>		</g>
		<g id="shape88-192" v:mID="88" v:groupContext="shape" transform="translate(270.625,42.2215) rotate(90.0023)">
			<title>Sheet.88</title>
			<path d="M0 122.42 L7.97 122.42" class="st12"/>
		</g>
		<g id="shape89-197" v:mID="89" v:groupContext="shape" transform="translate(168.361,-45.6001)">
			<title>Sheet.89</title>
			<desc>Pin 1 indicator</desc>
			<v:textBlock v:margins="rect(0,0,0,0)"/>
			<v:textRect cx="20.7" cy="115.247" width="41.41" height="14.353"/>
			<path d="M41.4 108.07 L0 108.07 L0 122.42 L41.4 122.42 L41.4 108.07" class="st2"/>
			<text x="0" y="112.25" class="st4" v:langID="1033"><v:paragraph/><v:tabList/>Pin 1 <tspan x="0" dy="1.2em" class="st5">indicator</tspan></text>		</g>
		<g id="shape90-202" v:mID="90" v:groupContext="shape" transform="translate(34.4411,-88.0801)">
			<title>Sheet.90</title>
			<desc>Chip die</desc>
			<v:textBlock v:margins="rect(0,0,0,0)"/>
			<v:textRect cx="20.2821" cy="117.024" width="40.57" height="10.8"/>
			<path d="M40.56 111.62 L0 111.62 L0 122.42 L40.56 122.42 L40.56 111.62" class="st2"/>
			<text x="0" y="120.02" class="st4" v:langID="1033"><v:paragraph/><v:tabList/>Chip die</text>		</g>
		<g id="shape91-206" v:mID="91" v:groupContext="shape" transform="translate(154.817,-54.3595) rotate(43.5679)">
			<title>Sheet.91</title>
			<path d="M0 122.42 L35.7 122.42" class="st12"/>
		</g>
		<g id="shape92-211" v:mID="92" v:groupContext="shape" transform="translate(131.286,-45.6068) rotate(38.7844)">
			<title>Sheet.92</title>
			<path d="M0 122.42 L20.82 122.42" class="st12"/>
		</g>
		<g id="shape93-216" v:mID="93" v:groupContext="shape" transform="translate(13.5611,-72.6001)">
			<title>Sheet.93</title>
			<desc>Bond wire</desc>
			<v:textBlock v:margins="rect(0,0,0,0)"/>
			<v:textRect cx="24.3611" cy="117.024" width="48.73" height="10.8"/>
			<path d="M48.72 111.62 L0 111.62 L0 122.42 L48.72 122.42 L48.72 111.62" class="st2"/>
			<text x="0" y="120.02" class="st4" v:langID="1033"><v:paragraph/><v:tabList/>Bond wire</text>		</g>
		<g id="shape94-220" v:mID="94" v:groupContext="shape" transform="translate(-4.39648E-014,-38.4001)">
			<title>Sheet.94</title>
			<desc>Through-hole lead</desc>
			<v:textBlock v:margins="rect(0,0,0,0)"/>
			<v:textRect cx="24.3611" cy="117.024" width="48.73" height="10.8"/>
			<path d="M48.72 111.62 L0 111.62 L0 122.42 L48.72 122.42 L48.72 111.62" class="st2"/>
			<text x="0" y="114.02" class="st4" v:langID="1033"><v:paragraph/><v:tabList/>Through-<tspan x="0" dy="1.2em"
						class="st5">hole lead</tspan></text>		</g>
		<g id="shape95-225" v:mID="95" v:groupContext="shape" transform="translate(86.0669,-30.6053) rotate(20.556)">
			<title>Sheet.95</title>
			<path d="M0 122.42 L7.26 122.42" class="st12"/>
		</g>
		<g id="shape96-230" v:mID="96" v:groupContext="shape" transform="translate(316.437,-103.247)">
			<title>Sheet.96</title>
			<desc>Plastic chip carrier pacakge</desc>
			<v:textBlock v:margins="rect(0,0,0,0)"/>
			<v:textRect cx="35.7621" cy="115.247" width="71.53" height="14.353"/>
			<path d="M71.52 108.07 L0 108.07 L0 122.42 L71.52 122.42 L71.52 108.07" class="st2"/>
			<text x="0" y="112.25" class="st4" v:langID="1033"><v:paragraph/><v:tabList/>Plastic chip<v:newlineChar/><tspan x="0"
						dy="1.2em" class="st5">carrier pacakge </tspan> </text>		</g>
		<g id="shape97-235" v:mID="97" v:groupContext="shape" transform="translate(391.561,-85.2001)">
			<title>Sheet.97</title>
			<desc>Pin 1</desc>
			<v:textBlock v:margins="rect(0,0,0,0)"/>
			<v:textRect cx="12.6" cy="115.247" width="25.21" height="14.353"/>
			<path d="M25.2 108.07 L0 108.07 L0 122.42 L25.2 122.42 L25.2 108.07" class="st2"/>
			<text x="0" y="118.25" class="st4" v:langID="1033"><v:paragraph/><v:tabList/>Pin 1</text>		</g>
		<g id="shape98-239" v:mID="98" v:groupContext="shape" transform="translate(419.641,-57.8637)">
			<title>Sheet.98</title>
			<desc>Pin 1 indicator</desc>
			<v:textBlock v:margins="rect(0,0,0,0)"/>
			<v:textRect cx="20.7" cy="115.247" width="41.41" height="14.353"/>
			<path d="M41.4 108.07 L0 108.07 L0 122.42 L41.4 122.42 L41.4 108.07" class="st2"/>
			<text x="0" y="112.25" class="st4" v:langID="1033"><v:paragraph/><v:tabList/>Pin 1 <tspan x="0" dy="1.2em" class="st5">indicator</tspan></text>		</g>
		<g id="shape99-244" v:mID="99" v:groupContext="shape" transform="translate(229.561,-18.6001)">
			<title>Sheet.99</title>
			<desc>Surface mount lead</desc>
			<v:textBlock v:margins="rect(0,0,0,0)"/>
			<v:textRect cx="26.1611" cy="117.024" width="52.33" height="10.8"/>
			<path d="M52.32 111.62 L0 111.62 L0 122.42 L52.32 122.42 L52.32 111.62" class="st2"/>
			<text x="0" y="114.02" class="st4" v:langID="1033"><v:paragraph/><v:tabList/>Surface <tspan x="0" dy="1.2em"
						class="st5">mount lead</tspan></text>		</g>
		<g id="shape100-249" v:mID="100" v:groupContext="shape" transform="translate(241.2,-52.8001)">
			<title>Sheet.100</title>
			<desc>Bond wire</desc>
			<v:textBlock v:margins="rect(0,0,0,0)"/>
			<v:textRect cx="24.3611" cy="117.024" width="48.73" height="10.8"/>
			<path d="M48.72 111.62 L0 111.62 L0 122.42 L48.72 122.42 L48.72 111.62" class="st2"/>
			<text x="0" y="120.02" class="st4" v:langID="1033"><v:paragraph/><v:tabList/>Bond wire</text>		</g>
		<g id="shape101-253" v:mID="101" v:groupContext="shape" transform="translate(269.161,-81.6001)">
			<title>Sheet.101</title>
			<desc>Chip die</desc>
			<v:textBlock v:margins="rect(0,0,0,0)"/>
			<v:textRect cx="20.2821" cy="117.024" width="40.57" height="10.8"/>
			<path d="M40.56 111.62 L0 111.62 L0 122.42 L40.56 122.42 L40.56 111.62" class="st2"/>
			<text x="0" y="120.02" class="st4" v:langID="1033"><v:paragraph/><v:tabList/>Chip die</text>		</g>
		<g id="shape102-257" v:mID="102" v:groupContext="shape" transform="translate(481.529,-3.26856) rotate(75.9638)">
			<title>Sheet.102</title>
			<path d="M0 122.42 L24.65 122.42" class="st12"/>
		</g>
		<g id="shape103-262" v:mID="103" v:groupContext="shape" transform="translate(524.177,49.4052) rotate(95.7106)">
			<title>Sheet.103</title>
			<path d="M0 122.42 L5.81 122.42" class="st12"/>
		</g>
		<g id="shape104-267" v:mID="104" v:groupContext="shape" transform="translate(417.325,174.046) rotate(179.736)">
			<title>Sheet.104</title>
			<path d="M0 122.42 L14.4 122.42" class="st12"/>
		</g>
		<g id="shape105-272" v:mID="105" v:groupContext="shape" transform="translate(377.601,-60.4118) rotate(34.2157)">
			<title>Sheet.105</title>
			<path d="M0 122.42 L38.49 122.42" class="st12"/>
		</g>
		<g id="shape106-277" v:mID="106" v:groupContext="shape" transform="translate(372.582,-21.6735) rotate(44.2468)">
			<title>Sheet.106</title>
			<path d="M0 122.42 L12.79 122.42" class="st12"/>
		</g>
		<g id="shape107-282" v:mID="107" v:groupContext="shape" transform="translate(242.729,-20.7297) rotate(-15.9454)">
			<title>Sheet.107</title>
			<path d="M0 122.42 L5.44 122.42" class="st12"/>
		</g>
	</g>
</svg>
