<?xml version="1.0" encoding="UTF-8" standalone="no"?>
<!DOCTYPE svg PUBLIC "-//W3C//DTD SVG 1.1//EN" "http://www.w3.org/Graphics/SVG/1.1/DTD/svg11.dtd">
<!-- Generated by Microsoft Visio, SVG Export coupled.svg Page-1 -->
<svg xmlns="http://www.w3.org/2000/svg" xmlns:xlink="http://www.w3.org/1999/xlink" xmlns:ev="http://www.w3.org/2001/xml-events"
		xmlns:v="http://schemas.microsoft.com/visio/2003/SVGExtensions/" width="1.5825in" height="1.01076in"
		viewBox="0 0 113.94 72.775" xml:space="preserve" color-interpolation-filters="sRGB" class="st9">
	<v:documentProperties v:langID="1033" v:viewMarkup="false">
		<v:userDefs>
			<v:ud v:nameU="msvConvertTheme"/>
		</v:userDefs>
	</v:documentProperties>

	<style type="text/css">
	<![CDATA[
		.st1 {fill:#ffffff;stroke:#000000;stroke-linecap:round;stroke-linejoin:round;stroke-width:0.72}
		.st2 {fill:#000000;font-family:Arial;font-size:0.916672em}
		.st3 {fill:none;stroke:none;stroke-linecap:round;stroke-linejoin:round;stroke-width:0.72}
		.st4 {stroke:#000000;stroke-linecap:round;stroke-linejoin:round;stroke-width:0.72}
		.st5 {fill:#000000;font-family:Arial;font-size:0.75em}
		.st6 {fill:none;stroke:#0000ff;stroke-linecap:round;stroke-linejoin:round;stroke-width:1.2}
		.st7 {marker-end:url(#mrkr4-61);stroke:#ff0000;stroke-linecap:round;stroke-linejoin:round;stroke-width:0.72}
		.st8 {fill:#ff0000;fill-opacity:1;stroke:#ff0000;stroke-opacity:1;stroke-width:0.28571428571429}
		.st9 {fill:none;fill-rule:evenodd;font-size:12px;overflow:visible;stroke-linecap:square;stroke-miterlimit:3}
	]]>
	</style>

	<defs id="Markers">
		<g id="lend4">
			<path d="M 2 1 L 0 0 L 2 -1 L 2 1 " style="stroke:none"/>
		</g>
		<marker id="mrkr4-61" class="st8" v:arrowType="4" v:arrowSize="1" v:setback="6.5" refX="-6.5" orient="auto"
				markerUnits="strokeWidth" overflow="visible">
			<use xlink:href="#lend4" transform="scale(-3.5,-3.5) "/>
		</marker>
	</defs>
	<g v:mID="0" v:index="1" v:groupContext="foregroundPage">
		<title>Page-1</title>
		<v:pageProperties v:drawingScale="1" v:pageScale="1" v:drawingUnits="19" v:shadowOffsetX="9" v:shadowOffsetY="-9"/>
		<v:layer v:name="Connector" v:index="0"/>
		<g id="shape85-1" v:mID="85" v:groupContext="shape" transform="translate(23.22,-29.05)">
			<title>Square</title>
			<desc>0</desc>
			<v:userDefs>
				<v:ud v:nameU="visVersion" v:val="VT0(11):26"/>
			</v:userDefs>
			<v:textBlock v:margins="rect(4,4,4,4)" v:tabSpace="42.5197"/>
			<v:textRect cx="11.25" cy="61.525" width="22.5" height="22.5"/>
			<rect x="0" y="50.275" width="22.5" height="22.5" class="st1"/>
			<text x="8.19" y="64.83" class="st2" v:langID="1033"><v:paragraph v:horizAlign="1"/><v:tabList/>0</text>		</g>
		<g id="shape86-4" v:mID="86" v:groupContext="shape" transform="translate(45.72,-29.05)">
			<title>Square.86</title>
			<desc>0</desc>
			<v:userDefs>
				<v:ud v:nameU="visVersion" v:val="VT0(11):26"/>
			</v:userDefs>
			<v:textBlock v:margins="rect(4,4,4,4)" v:tabSpace="42.5197"/>
			<v:textRect cx="11.25" cy="61.525" width="22.5" height="22.5"/>
			<rect x="0" y="50.275" width="22.5" height="22.5" class="st1"/>
			<text x="8.19" y="64.83" class="st2" v:langID="1033"><v:paragraph v:horizAlign="1"/><v:tabList/>0</text>		</g>
		<g id="shape87-7" v:mID="87" v:groupContext="shape" transform="translate(68.22,-29.05)">
			<title>Square.87</title>
			<desc>1</desc>
			<v:userDefs>
				<v:ud v:nameU="visVersion" v:val="VT0(11):26"/>
			</v:userDefs>
			<v:textBlock v:margins="rect(4,4,4,4)" v:tabSpace="42.5197"/>
			<v:textRect cx="11.25" cy="61.525" width="22.5" height="22.5"/>
			<rect x="0" y="50.275" width="22.5" height="22.5" class="st1"/>
			<text x="8.19" y="64.83" class="st2" v:langID="1033"><v:paragraph v:horizAlign="1"/><v:tabList/>1</text>		</g>
		<g id="shape88-10" v:mID="88" v:groupContext="shape" transform="translate(90.72,-29.05)">
			<title>Square.88</title>
			<desc>0</desc>
			<v:userDefs>
				<v:ud v:nameU="visVersion" v:val="VT0(11):26"/>
			</v:userDefs>
			<v:textBlock v:margins="rect(4,4,4,4)" v:tabSpace="42.5197"/>
			<v:textRect cx="11.25" cy="61.525" width="22.5" height="22.5"/>
			<rect x="0" y="50.275" width="22.5" height="22.5" class="st1"/>
			<text x="8.19" y="64.83" class="st2" v:langID="1033"><v:paragraph v:horizAlign="1"/><v:tabList/>0</text>		</g>
		<g id="shape89-13" v:mID="89" v:groupContext="shape" transform="translate(23.22,-6.55)">
			<title>Square.89</title>
			<desc>1</desc>
			<v:userDefs>
				<v:ud v:nameU="visVersion" v:val="VT0(11):26"/>
			</v:userDefs>
			<v:textBlock v:margins="rect(4,4,4,4)" v:tabSpace="42.5197"/>
			<v:textRect cx="11.25" cy="61.525" width="22.5" height="22.5"/>
			<rect x="0" y="50.275" width="22.5" height="22.5" class="st1"/>
			<text x="8.19" y="64.83" class="st2" v:langID="1033"><v:paragraph v:horizAlign="1"/><v:tabList/>1</text>		</g>
		<g id="shape90-16" v:mID="90" v:groupContext="shape" transform="translate(45.72,-6.55)">
			<title>Square.90</title>
			<desc>1</desc>
			<v:userDefs>
				<v:ud v:nameU="visVersion" v:val="VT0(11):26"/>
			</v:userDefs>
			<v:textBlock v:margins="rect(4,4,4,4)" v:tabSpace="42.5197"/>
			<v:textRect cx="11.25" cy="61.525" width="22.5" height="22.5"/>
			<rect x="0" y="50.275" width="22.5" height="22.5" class="st1"/>
			<text x="8.19" y="64.83" class="st2" v:langID="1033"><v:paragraph v:horizAlign="1"/><v:tabList/>1</text>		</g>
		<g id="shape91-19" v:mID="91" v:groupContext="shape" transform="translate(68.22,-6.55)">
			<title>Square.91</title>
			<desc>1</desc>
			<v:userDefs>
				<v:ud v:nameU="visVersion" v:val="VT0(11):26"/>
			</v:userDefs>
			<v:textBlock v:margins="rect(4,4,4,4)" v:tabSpace="42.5197"/>
			<v:textRect cx="11.25" cy="61.525" width="22.5" height="22.5"/>
			<rect x="0" y="50.275" width="22.5" height="22.5" class="st1"/>
			<text x="8.19" y="64.83" class="st2" v:langID="1033"><v:paragraph v:horizAlign="1"/><v:tabList/>1</text>		</g>
		<g id="shape92-22" v:mID="92" v:groupContext="shape" transform="translate(90.72,-6.55)">
			<title>Square.92</title>
			<desc>0</desc>
			<v:userDefs>
				<v:ud v:nameU="visVersion" v:val="VT0(11):26"/>
			</v:userDefs>
			<v:textBlock v:margins="rect(4,4,4,4)" v:tabSpace="42.5197"/>
			<v:textRect cx="11.25" cy="61.525" width="22.5" height="22.5"/>
			<rect x="0" y="50.275" width="22.5" height="22.5" class="st1"/>
			<text x="8.19" y="64.83" class="st2" v:langID="1033"><v:paragraph v:horizAlign="1"/><v:tabList/>0</text>		</g>
		<g id="shape93-25" v:mID="93" v:groupContext="shape" transform="translate(0.72,-49.3)">
			<title>Sheet.93</title>
			<desc>A</desc>
			<v:textBlock v:margins="rect(4,4,4,4)"/>
			<v:textRect cx="9" cy="68.275" width="18" height="9"/>
			<rect x="0" y="63.775" width="18" height="9" class="st3"/>
			<text x="5.33" y="71.58" class="st2" v:langID="1033"><v:paragraph v:horizAlign="1"/><v:tabList/>A</text>		</g>
		<g id="shape94-28" v:mID="94" v:groupContext="shape" transform="translate(9.72,-61.675)">
			<title>Sheet.94</title>
			<desc>B C</desc>
			<v:textBlock v:margins="rect(4,4,4,4)"/>
			<v:textRect cx="15.75" cy="68.275" width="31.5" height="9"/>
			<rect x="0" y="63.775" width="31.5" height="9" class="st3"/>
			<text x="8.11" y="71.58" class="st2" v:langID="1033"><v:paragraph v:horizAlign="1"/><v:tabList/>B C</text>		</g>
		<g id="shape95-31" v:mID="95" v:groupContext="shape" transform="translate(-28.2397,72.6848) rotate(-135)">
			<title>Sheet.95</title>
			<path d="M0 72.78 L19.09 72.78" class="st4"/>
		</g>
		<g id="shape96-34" v:mID="96" v:groupContext="shape" transform="translate(5.22,-15.55)">
			<title>Sheet.96</title>
			<desc>1</desc>
			<v:textBlock v:margins="rect(4,4,4,4)"/>
			<v:textRect cx="9" cy="68.275" width="18" height="9"/>
			<rect x="0" y="63.775" width="18" height="9" class="st3"/>
			<text x="6.5" y="70.98" class="st5" v:langID="1033"><v:paragraph v:horizAlign="1"/><v:tabList/>1</text>		</g>
		<g id="shape97-37" v:mID="97" v:groupContext="shape" transform="translate(5.22,-33.55)">
			<title>Sheet.97</title>
			<desc>0</desc>
			<v:textBlock v:margins="rect(4,4,4,4)"/>
			<v:textRect cx="9" cy="68.275" width="18" height="9"/>
			<rect x="0" y="63.775" width="18" height="9" class="st3"/>
			<text x="6.5" y="70.98" class="st5" v:langID="1033"><v:paragraph v:horizAlign="1"/><v:tabList/>0</text>		</g>
		<g id="shape98-40" v:mID="98" v:groupContext="shape" transform="translate(23.22,-51.55)">
			<title>Sheet.98</title>
			<desc>00</desc>
			<v:textBlock v:margins="rect(4,4,4,4)"/>
			<v:textRect cx="11.25" cy="68.275" width="22.5" height="9"/>
			<rect x="0" y="63.775" width="22.5" height="9" class="st3"/>
			<text x="6.24" y="70.98" class="st5" v:langID="1033"><v:paragraph v:horizAlign="1"/><v:tabList/>00</text>		</g>
		<g id="shape99-43" v:mID="99" v:groupContext="shape" transform="translate(43.47,-51.55)">
			<title>Sheet.99</title>
			<desc>01</desc>
			<v:textBlock v:margins="rect(4,4,4,4)"/>
			<v:textRect cx="11.25" cy="68.275" width="22.5" height="9"/>
			<rect x="0" y="63.775" width="22.5" height="9" class="st3"/>
			<text x="6.24" y="70.98" class="st5" v:langID="1033"><v:paragraph v:horizAlign="1"/><v:tabList/>01</text>		</g>
		<g id="shape100-46" v:mID="100" v:groupContext="shape" transform="translate(68.22,-51.55)">
			<title>Sheet.100</title>
			<desc>11</desc>
			<v:textBlock v:margins="rect(4,4,4,4)"/>
			<v:textRect cx="11.25" cy="68.275" width="22.5" height="9"/>
			<rect x="0" y="63.775" width="22.5" height="9" class="st3"/>
			<text x="6.24" y="70.98" class="st5" v:langID="1033"><v:paragraph v:horizAlign="1"/><v:tabList/>11</text>		</g>
		<g id="shape101-49" v:mID="101" v:groupContext="shape" transform="translate(90.72,-51.55)">
			<title>Sheet.101</title>
			<desc>10</desc>
			<v:textBlock v:margins="rect(4,4,4,4)"/>
			<v:textRect cx="11.25" cy="68.275" width="22.5" height="9"/>
			<rect x="0" y="63.775" width="22.5" height="9" class="st3"/>
			<text x="6.24" y="70.98" class="st5" v:langID="1033"><v:paragraph v:horizAlign="1"/><v:tabList/>10</text>		</g>
		<g id="shape102-52" v:mID="102" v:groupContext="shape" transform="translate(25.47,-8.8)">
			<title>Rounded rectangle</title>
			<v:userDefs>
				<v:ud v:nameU="visVersion" v:val="VT0(11):26"/>
			</v:userDefs>
			<path d="M36 72.78 A4.50003 4.50003 -180 0 0 40.5 68.28 L40.5 59.28 A4.50003 4.50003 -180 0 0 36 54.78 L4.5 54.78 A4.50003
						 4.50003 -180 0 0 0 59.28 L0 68.28 A4.50003 4.50003 -180 0 0 4.5 72.78 L36 72.78 Z" class="st6"/>
		</g>
		<g id="shape103-54" v:mID="103" v:groupContext="shape" transform="translate(72.72,-8.8)">
			<title>Rounded rectangle.103</title>
			<v:userDefs>
				<v:ud v:nameU="visVersion" v:val="VT0(11):26"/>
			</v:userDefs>
			<path d="M9 72.78 A4.50003 4.50003 -180 0 0 13.5 68.28 L13.5 36.78 A4.50003 4.50003 -180 0 0 9 32.28 L4.5 32.28 A4.50003
						 4.50003 -180 0 0 0 36.78 L0 68.28 A4.50003 4.50003 -180 0 0 4.5 72.78 L9 72.78 Z" class="st6"/>
		</g>
		<g id="shape104-56" v:mID="104" v:groupContext="shape" v:layerMember="0" transform="translate(77.22,-13.8625) scale(-1,1)">
			<title>Line-curve connector</title>
			<v:userDefs>
				<v:ud v:nameU="AntiScale" v:val="VT0(1):26"/>
				<v:ud v:nameU="Scale" v:val="VT0(1):26"/>
				<v:ud v:nameU="visVersion" v:val="VT0(11):26"/>
			</v:userDefs>
			<path d="M0 72.78 L3.58 75.95 L7.07 77.59 L10.47 77.69 L13.79 76.25 L14.05 76" class="st7"/>
		</g>
	</g>
</svg>
