<?xml version="1.0" encoding="UTF-8" standalone="no"?>
<!DOCTYPE svg PUBLIC "-//W3C//DTD SVG 1.1//EN" "http://www.w3.org/Graphics/SVG/1.1/DTD/svg11.dtd">
<!-- Generated by Microsoft Visio, SVG Export SRLatch_NAND.svg Page-1 -->
<svg xmlns="http://www.w3.org/2000/svg" xmlns:xlink="http://www.w3.org/1999/xlink" xmlns:ev="http://www.w3.org/2001/xml-events"
		xmlns:v="http://schemas.microsoft.com/visio/2003/SVGExtensions/" width="6.01in" height="2.62604in"
		viewBox="0 0 432.72 189.075" xml:space="preserve" color-interpolation-filters="sRGB" class="st17">
	<v:documentProperties v:langID="1033" v:viewMarkup="false"/>

	<style type="text/css">
	<![CDATA[
		.st1 {stroke:#000000;stroke-linecap:round;stroke-linejoin:round;stroke-width:0.72}
		.st2 {stroke:#000000;stroke-dasharray:0,3.6;stroke-linecap:round;stroke-linejoin:round;stroke-width:0.72}
		.st3 {fill:#ffffff;stroke:#000000;stroke-linecap:round;stroke-linejoin:round;stroke-width:0.24}
		.st4 {fill:none;stroke:none;stroke-linecap:round;stroke-linejoin:round;stroke-width:0.72}
		.st5 {fill:#000000;font-family:Arial;font-size:0.666664em}
		.st6 {fill:#000000;font-family:Arial;font-size:0.833336em}
		.st7 {font-size:1em}
		.st8 {fill:#dbeef3;stroke:#000000;stroke-linecap:round;stroke-linejoin:round;stroke-width:0.72}
		.st9 {stroke:#000000;stroke-linecap:round;stroke-linejoin:round;stroke-width:2.16}
		.st10 {fill:#ffffff;stroke:#000000;stroke-linecap:round;stroke-linejoin:round;stroke-width:0.72}
		.st11 {fill:#fddeb0;stroke:#000000;stroke-linecap:round;stroke-linejoin:round;stroke-width:0.72}
		.st12 {stroke:#000000;stroke-dasharray:0,2.16;stroke-linecap:round;stroke-linejoin:round;stroke-width:0.72}
		.st13 {fill:#000000;font-family:Arial;font-size:0.833336em;font-weight:bold}
		.st14 {fill:#ffffff;stroke:#ffffff;stroke-linecap:round;stroke-linejoin:round;stroke-width:0.24}
		.st15 {fill:#000000;font-family:Arial;font-size:0.75em;font-weight:bold}
		.st16 {fill:#dbeef3;stroke:#000000;stroke-linecap:round;stroke-linejoin:round;stroke-width:0.24}
		.st17 {fill:none;fill-rule:evenodd;font-size:12px;overflow:visible;stroke-linecap:square;stroke-miterlimit:3}
	]]>
	</style>

	<g v:mID="0" v:index="1" v:groupContext="foregroundPage">
		<title>Page-1</title>
		<v:pageProperties v:drawingScale="1" v:pageScale="1" v:drawingUnits="19" v:shadowOffsetX="9" v:shadowOffsetY="-9"/>
		<g id="shape174-1" v:mID="174" v:groupContext="shape" transform="translate(18.36,-169.995)">
			<title>Sheet.174</title>
			<path d="M0 175.57 L15.75 175.57 L15.75 189.07" class="st1"/>
		</g>
		<g id="shape175-4" v:mID="175" v:groupContext="shape" transform="translate(34.11,-169.995)">
			<title>Sheet.175</title>
			<path d="M0 189.07 L13.5 189.07" class="st1"/>
		</g>
		<g id="shape176-7" v:mID="176" v:groupContext="shape" transform="translate(47.61,-169.995)">
			<title>Sheet.176</title>
			<path d="M0 189.07 L0 175.57 L40.5 175.57 L40.5 189.07 L54 189.07 L54 175.57 L90 175.57 L90 189.07 L103.5 189.07 L126
						 189.07" class="st1"/>
		</g>
		<g id="shape177-10" v:mID="177" v:groupContext="shape" transform="translate(223.185,19.08) rotate(90)">
			<title>Sheet.177</title>
			<path d="M0 189.07 L69.75 189.07" class="st2"/>
		</g>
		<g id="shape178-13" v:mID="178" v:groupContext="shape" transform="translate(250.185,32.58) rotate(90)">
			<title>Sheet.178</title>
			<path d="M0 189.07 L56.25 189.07" class="st2"/>
		</g>
		<g id="shape179-16" v:mID="179" v:groupContext="shape" transform="translate(304.185,32.58) rotate(90)">
			<title>Sheet.179</title>
			<path d="M0 189.07 L56.25 189.07" class="st2"/>
		</g>
		<g id="shape180-19" v:mID="180" v:groupContext="shape" transform="translate(277.185,19.08) rotate(90)">
			<title>Sheet.180</title>
			<path d="M0 189.07 L69.75 189.07" class="st2"/>
		</g>
		<g id="shape181-22" v:mID="181" v:groupContext="shape" transform="translate(326.685,19.08) rotate(90)">
			<title>Sheet.181</title>
			<path d="M0 189.07 L69.75 189.07" class="st2"/>
		</g>
		<g id="shape182-25" v:mID="182" v:groupContext="shape" transform="translate(340.185,19.08) rotate(90)">
			<title>Sheet.182</title>
			<path d="M0 189.07 L69.75 189.07" class="st2"/>
		</g>
		<g id="group183-28" transform="translate(28.485,-88.995)" v:mID="183" v:groupContext="group">
			<title>Sheet.183</title>
			<g id="shape184-29" v:mID="184" v:groupContext="shape">
				<title>Circle.96</title>
				<path d="M0 183.45 A5.625 5.625 0 0 1 11.25 183.45 A5.625 5.625 0 1 1 0 183.45 Z" class="st3"/>
			</g>
			<g id="shape185-31" v:mID="185" v:groupContext="shape">
				<title>Sheet.185</title>
				<desc>1</desc>
				<v:textBlock v:margins="rect(4,4,4,4)"/>
				<v:textRect cx="4.21875" cy="183.45" width="8.44" height="11.25"/>
				<rect x="0" y="177.825" width="8.4375" height="11.25" class="st4"/>
				<text x="4" y="185.85" class="st5" v:langID="1033"><v:paragraph v:horizAlign="1"/><v:tabList/>1</text>			</g>
		</g>
		<g id="group186-34" transform="translate(55.485,-88.995)" v:mID="186" v:groupContext="group">
			<title>Sheet.186</title>
			<g id="shape187-35" v:mID="187" v:groupContext="shape">
				<title>Circle.96</title>
				<path d="M0 183.45 A5.625 5.625 0 0 1 11.25 183.45 A5.625 5.625 0 1 1 0 183.45 Z" class="st3"/>
			</g>
			<g id="shape188-37" v:mID="188" v:groupContext="shape">
				<title>Sheet.188</title>
				<desc>2</desc>
				<v:textBlock v:margins="rect(4,4,4,4)"/>
				<v:textRect cx="4.21875" cy="183.45" width="8.44" height="11.25"/>
				<rect x="0" y="177.825" width="8.4375" height="11.25" class="st4"/>
				<text x="4" y="185.85" class="st5" v:langID="1033"><v:paragraph v:horizAlign="1"/><v:tabList/>2</text>			</g>
		</g>
		<g id="shape189-40" v:mID="189" v:groupContext="shape" transform="translate(82.485,-88.995)">
			<title>Circle.96</title>
			<path d="M0 183.45 A5.625 5.625 0 0 1 11.25 183.45 A5.625 5.625 0 1 1 0 183.45 Z" class="st3"/>
		</g>
		<g id="shape190-42" v:mID="190" v:groupContext="shape" transform="translate(82.485,-88.995)">
			<title>Sheet.190</title>
			<desc>3</desc>
			<v:textBlock v:margins="rect(4,4,4,4)"/>
			<v:textRect cx="4.21875" cy="183.45" width="8.44" height="11.25"/>
			<rect x="0" y="177.825" width="8.4375" height="11.25" class="st4"/>
			<text x="4" y="185.85" class="st5" v:langID="1033"><v:paragraph v:horizAlign="1"/><v:tabList/>3</text>		</g>
		<g id="shape191-45" v:mID="191" v:groupContext="shape" transform="translate(109.485,-88.995)">
			<title>Circle.102</title>
			<path d="M0 183.45 A5.625 5.625 0 0 1 11.25 183.45 A5.625 5.625 0 1 1 0 183.45 Z" class="st3"/>
		</g>
		<g id="shape192-47" v:mID="192" v:groupContext="shape" transform="translate(109.485,-88.995)">
			<title>Sheet.192</title>
			<desc>4</desc>
			<v:textBlock v:margins="rect(4,4,4,4)"/>
			<v:textRect cx="4.21875" cy="183.45" width="8.44" height="11.25"/>
			<rect x="0" y="177.825" width="8.4375" height="11.25" class="st4"/>
			<text x="4" y="185.85" class="st5" v:langID="1033"><v:paragraph v:horizAlign="1"/><v:tabList/>4</text>		</g>
		<g id="shape193-50" v:mID="193" v:groupContext="shape" transform="translate(131.985,-88.995)">
			<title>Circle.106</title>
			<path d="M0 183.45 A5.625 5.625 0 0 1 11.25 183.45 A5.625 5.625 0 1 1 0 183.45 Z" class="st3"/>
		</g>
		<g id="shape194-52" v:mID="194" v:groupContext="shape" transform="translate(131.985,-88.995)">
			<title>Sheet.194</title>
			<desc>5</desc>
			<v:textBlock v:margins="rect(4,4,4,4)"/>
			<v:textRect cx="4.21875" cy="183.45" width="8.44" height="11.25"/>
			<rect x="0" y="177.825" width="8.4375" height="11.25" class="st4"/>
			<text x="4" y="185.85" class="st5" v:langID="1033"><v:paragraph v:horizAlign="1"/><v:tabList/>5</text>		</g>
		<g id="shape195-55" v:mID="195" v:groupContext="shape" transform="translate(145.485,-88.995)">
			<title>Circle.108</title>
			<path d="M0 183.45 A5.625 5.625 0 0 1 11.25 183.45 A5.625 5.625 0 1 1 0 183.45 Z" class="st3"/>
		</g>
		<g id="shape196-57" v:mID="196" v:groupContext="shape" transform="translate(145.485,-88.995)">
			<title>Sheet.196</title>
			<desc>6</desc>
			<v:textBlock v:margins="rect(4,4,4,4)"/>
			<v:textRect cx="4.21875" cy="183.45" width="8.44" height="11.25"/>
			<rect x="0" y="177.825" width="8.4375" height="11.25" class="st4"/>
			<text x="4" y="185.85" class="st5" v:langID="1033"><v:paragraph v:horizAlign="1"/><v:tabList/>6</text>		</g>
		<g id="shape197-60" v:mID="197" v:groupContext="shape" transform="translate(20.61,-124.995)">
			<title>Sheet.197</title>
			<path d="M0 189.07 L13.5 189.07" class="st1"/>
		</g>
		<g id="shape198-63" v:mID="198" v:groupContext="shape" transform="translate(20.61,-111.495)">
			<title>Sheet.198</title>
			<path d="M0 189.07 L13.5 189.07" class="st1"/>
		</g>
		<g id="shape199-66" v:mID="199" v:groupContext="shape" transform="translate(223.185,64.08) rotate(90)">
			<title>Sheet.199</title>
			<path d="M0 189.07 L13.5 189.07" class="st1"/>
		</g>
		<g id="shape200-69" v:mID="200" v:groupContext="shape" transform="translate(34.11,-111.495)">
			<title>Sheet.200</title>
			<path d="M0 189.07 L13.5 189.07 L27 189.07 L27 175.57 L54 175.57 L54 189.07 L81 189.07 L81 175.57 L117 175.57 L117 189.07
						 L139.5 189.07" class="st1"/>
		</g>
		<g id="shape201-72" v:mID="201" v:groupContext="shape" transform="translate(0.36,-165.495)">
			<title>Sheet.201</title>
			<desc>R</desc>
			<v:textBlock v:margins="rect(4,4,4,4)"/>
			<v:textRect cx="7.3125" cy="180.075" width="14.63" height="18"/>
			<rect x="0" y="171.075" width="14.625" height="18" class="st4"/>
			<text x="4" y="183.08" class="st6" v:langID="1033"><v:paragraph v:horizAlign="1"/><v:tabList/>R</text>		</g>
		<g id="shape202-75" v:mID="202" v:groupContext="shape" transform="translate(0.36,-147.495)">
			<title>Sheet.202</title>
			<desc>S</desc>
			<v:textBlock v:margins="rect(4,4,4,4)"/>
			<v:textRect cx="7.3125" cy="182.325" width="14.63" height="13.5"/>
			<rect x="0" y="175.575" width="14.625" height="13.5" class="st4"/>
			<text x="4" y="185.33" class="st6" v:langID="1033"><v:paragraph v:horizAlign="1"/><v:tabList/>S</text>		</g>
		<g id="shape203-78" v:mID="203" v:groupContext="shape" transform="translate(0.36,-111.495)">
			<title>Sheet.203</title>
			<desc>Q</desc>
			<v:textBlock v:margins="rect(4,4,4,4)"/>
			<v:textRect cx="7.3125" cy="182.325" width="14.63" height="13.5"/>
			<rect x="0" y="175.575" width="14.625" height="13.5" class="st4"/>
			<text x="4" y="185.33" class="st6" v:langID="1033"><v:paragraph v:horizAlign="1"/><v:tabList/>Q</text>		</g>
		<g id="shape204-81" v:mID="204" v:groupContext="shape" transform="translate(20.61,-111.495)">
			<title>Sheet.204</title>
			<path d="M0 175.57 L2.25 189.07 L4.5 175.57 L6.75 189.07 L9 175.57 L11.25 189.07 L13.5 175.57" class="st1"/>
		</g>
		<g id="shape205-84" v:mID="205" v:groupContext="shape" transform="translate(20.61,-111.495)">
			<title>Sheet.205</title>
			<path d="M0 189.07 L2.25 175.57 L4.5 189.07 L6.75 175.57 L9 189.07 L11.25 175.57 L13.5 189.07" class="st1"/>
		</g>
		<g id="shape206-87" v:mID="206" v:groupContext="shape" transform="translate(0.36,-19.245)">
			<title>Sheet.206</title>
			<desc>1. Q is undefined until R is asserted 2. Q → ‘1’ when S is as...</desc>
			<v:textBlock v:margins="rect(4,4,4,4)"/>
			<v:textRect cx="101.25" cy="169.95" width="202.5" height="38.25"/>
			<rect x="0" y="150.825" width="202.5" height="38.25" class="st4"/>
			<text x="4" y="142.95" class="st6" v:langID="1033"><v:paragraph/><v:tabList/>1. Q is undefined until R is asserted<v:newlineChar/><tspan
						x="4" dy="1.2em" class="st7">2</tspan>. Q → ‘1’ when S is asserted<v:newlineChar/><tspan x="4" dy="1.2em"
						class="st7">3</tspan>. Q → &#39;0&#39; when R is asserted<v:newlineChar/><tspan x="4" dy="1.2em"
						class="st7">4</tspan>. Q → &#39;1&#39; when S is asserted<v:newlineChar/><tspan x="4" dy="1.2em"
						class="st7">5</tspan>. Q stays at &#39;1&#39; when S &#38; R asserted<v:newlineChar/><tspan x="4"
						dy="1.2em" class="st7">6</tspan>. Q → &#39;0&#39; when R asserted, S de-asserted  </text>		</g>
		<g id="group207-95" transform="translate(18.36,217.155) scale(1,-1)" v:mID="207" v:groupContext="group">
			<title>Sheet.207</title>
			<g id="shape208-96" v:mID="208" v:groupContext="shape">
				<title>Sheet.208</title>
				<path d="M0 189.07 L42.75 189.07 L42.75 175.57 L56.25 175.57 L56.25 189.07 L96.75 189.07 L96.75 175.57 L132.75 175.57"
						class="st1"/>
			</g>
			<g id="shape209-99" v:mID="209" v:groupContext="shape" transform="translate(132.75,2.84217E-014)">
				<title>Sheet.209</title>
				<path d="M0 175.57 L0 189.07 L22.5 189.07" class="st1"/>
			</g>
		</g>
		<g id="shape210-102" v:mID="210" v:groupContext="shape" transform="translate(221.985,-165.495)">
			<title>Sheet.210</title>
			<path d="M0 171.07 L13.75 171.07 A8.75 9 0 0 1 22.5 180.07 A7.5 9 0 0 1 15 189.07 L0 189.07 L0 171.07 Z" class="st8"/>
		</g>
		<g id="shape211-104" v:mID="211" v:groupContext="shape" transform="translate(262.485,226.155) rotate(180)">
			<title>Sheet.211</title>
			<path d="M0 189.07 L54 189.07" class="st1"/>
		</g>
		<g id="shape212-107" v:mID="212" v:groupContext="shape" transform="translate(221.985,208.155) rotate(180)">
			<title>Sheet.212</title>
			<path d="M0 189.07 L13.5 189.07" class="st1"/>
		</g>
		<g id="shape213-110" v:mID="213" v:groupContext="shape" transform="translate(247.86,-160.995)">
			<title>Sheet.213</title>
			<path d="M0 175.57 L3.66 175.57 L3.66 189.07 L14.62 189.07" class="st1"/>
		</g>
		<g id="shape214-113" v:mID="214" v:groupContext="shape" transform="translate(280.485,-156.495)">
			<title>Sheet.214</title>
			<path d="M0 189.07 L18 189.07" class="st1"/>
		</g>
		<g id="shape215-116" v:mID="215" v:groupContext="shape" transform="translate(212.985,-156.495)">
			<title>Sheet.215</title>
			<path d="M76.5 189.07 L76.5 157.58 L0 157.58 L0 166.57 L9 166.57" class="st9"/>
		</g>
		<g id="shape216-119" v:mID="216" v:groupContext="shape" transform="translate(263.518,212.655) scale(1,-1)">
			<title>Sheet.216</title>
			<path d="M0 171.07 L0.91 173.5 L1.52 176.13 L1.82 178.76 L1.82 181.39 L1.52 184.02 L0.91 186.55 L0 189.07 L9.83 189.07
						 L12.06 188.57 L14.18 187.76 L16.31 186.65 L18.13 185.33 L19.86 183.72 L21.28 182 L22.59 180.07 L21.28 178.05
						 L19.86 176.33 L18.13 174.72 L16.31 173.4 L14.18 172.39 L12.06 171.58 L9.83 171.07 L0 171.07 Z" class="st8"/>
		</g>
		<g id="shape217-121" v:mID="217" v:groupContext="shape" transform="translate(288.923,-155.932)">
			<title>Circle.22</title>
			<path d="M0 188.51 a0.5625 0.5625 0 0 1 1.125 0 a0.5625 0.5625 0 1 1 -1.125 0 Z" class="st10"/>
		</g>
		<g id="shape218-123" v:mID="218" v:groupContext="shape" transform="translate(260.235,-149.745)">
			<title>Circle.23</title>
			<path d="M0 186.82 A2.25 2.25 0 0 1 4.5 186.82 A2.25 2.25 0 1 1 0 186.82 Z" class="st8"/>
		</g>
		<g id="shape219-125" v:mID="219" v:groupContext="shape" transform="translate(244.485,-172.245)">
			<title>Circle.24</title>
			<path d="M0 186.82 A2.25 2.25 0 0 1 4.5 186.82 A2.25 2.25 0 1 1 0 186.82 Z" class="st8"/>
		</g>
		<g id="shape220-127" v:mID="220" v:groupContext="shape" transform="translate(193.86,-160.995)">
			<title>Sheet.220</title>
			<desc>R</desc>
			<v:textBlock v:margins="rect(4,4,4,4)"/>
			<v:textRect cx="7.3125" cy="180.075" width="14.63" height="18"/>
			<rect x="0" y="171.075" width="14.625" height="18" class="st4"/>
			<text x="4" y="183.08" class="st6" v:langID="1033"><v:paragraph v:horizAlign="1"/><v:tabList/>R</text>		</g>
		<g id="shape221-130" v:mID="221" v:groupContext="shape" transform="translate(193.86,-142.995)">
			<title>Sheet.221</title>
			<desc>S</desc>
			<v:textBlock v:margins="rect(4,4,4,4)"/>
			<v:textRect cx="7.3125" cy="180.075" width="14.63" height="18"/>
			<rect x="0" y="171.075" width="14.625" height="18" class="st4"/>
			<text x="4" y="183.08" class="st6" v:langID="1033"><v:paragraph v:horizAlign="1"/><v:tabList/>S</text>		</g>
		<g id="shape222-133" v:mID="222" v:groupContext="shape" transform="translate(260.235,-158.745)">
			<title>Circle.27</title>
			<path d="M0 186.82 A2.25 2.25 0 0 1 4.5 186.82 A2.25 2.25 0 1 1 0 186.82 Z" class="st8"/>
		</g>
		<g id="shape223-135" v:mID="223" v:groupContext="shape" transform="translate(233.235,-106.995)">
			<title>Circle.47</title>
			<path d="M0 186.82 A2.25 2.25 0 0 1 4.5 186.82 A2.25 2.25 0 1 1 0 186.82 Z" class="st8"/>
		</g>
		<g id="shape224-137" v:mID="224" v:groupContext="shape" transform="translate(233.235,-115.995)">
			<title>Circle.50</title>
			<path d="M0 186.82 A2.25 2.25 0 0 1 4.5 186.82 A2.25 2.25 0 1 1 0 186.82 Z" class="st8"/>
		</g>
		<g id="shape225-139" v:mID="225" v:groupContext="shape" transform="translate(259.11,-75.495)">
			<title>Circle.52</title>
			<path d="M0 186.82 A2.25 2.25 0 0 1 4.5 186.82 A2.25 2.25 0 1 1 0 186.82 Z" class="st8"/>
		</g>
		<g id="shape226-141" v:mID="226" v:groupContext="shape" transform="translate(259.11,-113.745)">
			<title>Sheet.226</title>
			<path d="M0 189.07 L27 189.07" class="st1"/>
		</g>
		<g id="shape227-144" v:mID="227" v:groupContext="shape" transform="translate(233.235,259.905) rotate(180)">
			<title>Sheet.227</title>
			<path d="M0 189.07 L14.62 189.07" class="st1"/>
		</g>
		<g id="shape228-147" v:mID="228" v:groupContext="shape" transform="translate(227.61,-82.245)">
			<title>Sheet.228</title>
			<path d="M45 157.58 L45 166.57 L0 180.07 L0 189.07 L9 189.07" class="st9"/>
		</g>
		<g id="shape229-150" v:mID="229" v:groupContext="shape" transform="translate(263.61,-77.745)">
			<title>Sheet.229</title>
			<path d="M0 189.07 L22.5 189.07" class="st1"/>
		</g>
		<g id="shape230-153" v:mID="230" v:groupContext="shape" transform="translate(227.61,-77.745)">
			<title>Sheet.230</title>
			<path d="M45 189.07 L45 180.07 L0 166.57 L0 157.58" class="st1"/>
		</g>
		<g id="shape231-156" v:mID="231" v:groupContext="shape" transform="translate(236.61,304.905) rotate(180)">
			<title>Sheet.231</title>
			<path d="M0 189.07 L18 189.07" class="st1"/>
		</g>
		<g id="shape232-159" v:mID="232" v:groupContext="shape" transform="translate(286.11,-109.245)">
			<title>Sheet.232</title>
			<desc>Q</desc>
			<v:textBlock v:margins="rect(4,4,4,4)"/>
			<v:textRect cx="7.3125" cy="184.575" width="14.63" height="9"/>
			<rect x="0" y="180.075" width="14.625" height="9" class="st4"/>
			<text x="4" y="187.58" class="st6" v:langID="1033"><v:paragraph v:horizAlign="1"/><v:tabList/>Q</text>		</g>
		<g id="shape233-162" v:mID="233" v:groupContext="shape" transform="translate(286.11,-73.245)">
			<title>Sheet.233</title>
			<desc>QN</desc>
			<v:textBlock v:margins="rect(4,4,4,4)"/>
			<v:textRect cx="13.5" cy="184.575" width="27" height="9"/>
			<rect x="0" y="180.075" width="27" height="9" class="st4"/>
			<text x="6" y="187.58" class="st6" v:langID="1033"><v:paragraph v:horizAlign="1"/><v:tabList/>QN</text>		</g>
		<g id="shape234-165" v:mID="234" v:groupContext="shape" transform="translate(203.985,-109.245)">
			<title>Sheet.234</title>
			<desc>S</desc>
			<v:textBlock v:margins="rect(4,4,4,4)"/>
			<v:textRect cx="7.3125" cy="180.075" width="14.63" height="18"/>
			<rect x="0" y="171.075" width="14.625" height="18" class="st4"/>
			<text x="4" y="183.08" class="st6" v:langID="1033"><v:paragraph v:horizAlign="1"/><v:tabList/>S</text>		</g>
		<g id="shape235-168" v:mID="235" v:groupContext="shape" transform="translate(203.985,-64.245)">
			<title>Sheet.235</title>
			<desc>R</desc>
			<v:textBlock v:margins="rect(4,4,4,4)"/>
			<v:textRect cx="7.3125" cy="180.075" width="14.63" height="18"/>
			<rect x="0" y="171.075" width="14.625" height="18" class="st4"/>
			<text x="4" y="183.08" class="st6" v:langID="1033"><v:paragraph v:horizAlign="1"/><v:tabList/>R</text>		</g>
		<g id="shape236-171" v:mID="236" v:groupContext="shape" transform="translate(227.61,-109.245)">
			<title>Sheet.236</title>
			<path d="M0 189.07 L5.62 189.07" class="st1"/>
		</g>
		<g id="shape237-174" v:mID="237" v:groupContext="shape" transform="translate(236.518,255.405) scale(1,-1)">
			<title>Sheet.237</title>
			<path d="M0 171.07 L0.91 173.5 L1.52 176.13 L1.82 178.76 L1.82 181.39 L1.52 184.02 L0.91 186.55 L0 189.07 L9.83 189.07
						 L12.06 188.57 L14.18 187.76 L16.31 186.65 L18.13 185.33 L19.86 183.72 L21.28 182 L22.59 180.07 L21.28 178.05
						 L19.86 176.33 L18.13 174.72 L16.31 173.4 L14.18 172.39 L12.06 171.58 L9.83 171.07 L0 171.07 Z" class="st8"/>
		</g>
		<g id="shape238-176" v:mID="238" v:groupContext="shape" transform="translate(236.61,-68.745)">
			<title>Sheet.238</title>
			<path d="M0 171.07 L13.75 171.07 A8.75 9 0 0 1 22.5 180.07 A7.5 9 0 0 1 15 189.07 L0 189.07 L0 171.07 Z" class="st8"/>
		</g>
		<g id="shape239-178" v:mID="239" v:groupContext="shape" transform="translate(272.329,-113.182)">
			<title>Circle.63</title>
			<path d="M0 188.51 a0.5625 0.5625 0 0 1 1.125 0 a0.5625 0.5625 0 1 1 -1.125 0 Z" class="st11"/>
		</g>
		<g id="shape240-180" v:mID="240" v:groupContext="shape" transform="translate(271.766,-77.1825)">
			<title>Circle.65</title>
			<path d="M0 188.51 a0.5625 0.5625 0 0 1 1.125 0 a0.5625 0.5625 0 1 1 -1.125 0 Z" class="st11"/>
		</g>
		<g id="shape241-182" v:mID="241" v:groupContext="shape" transform="translate(430.185,59.58) rotate(90) scale(-1,1)">
			<title>60 degree single.66</title>
			<path d="M0 180.07 L5.2 171.07 L5.2 177.01 L13.5 177.01 L13.5 183.14 L5.2 183.14 L5.2 189.07 L0 180.07 Z" class="st3"/>
		</g>
		<g id="shape242-184" v:mID="242" v:groupContext="shape" transform="translate(248.985,-174.495)">
			<title>Sheet.242</title>
			<path d="M0 189.07 L54 189.07" class="st12"/>
		</g>
		<g id="shape243-187" v:mID="243" v:groupContext="shape" transform="translate(299.61,-172.245)">
			<title>Sheet.243</title>
			<desc>QN</desc>
			<v:textBlock v:margins="rect(4,4,4,4)"/>
			<v:textRect cx="13.5" cy="184.575" width="27" height="9"/>
			<rect x="0" y="180.075" width="27" height="9" class="st4"/>
			<text x="4" y="187.58" class="st6" v:langID="1033"><v:paragraph/><v:tabList/>QN</text>		</g>
		<g id="shape244-190" v:mID="244" v:groupContext="shape" transform="translate(299.61,-151.995)">
			<title>Sheet.244</title>
			<desc>Q</desc>
			<v:textBlock v:margins="rect(4,4,4,4)"/>
			<v:textRect cx="9" cy="184.575" width="18" height="9"/>
			<rect x="0" y="180.075" width="18" height="9" class="st4"/>
			<text x="4" y="187.58" class="st6" v:langID="1033"><v:paragraph/><v:tabList/>Q</text>		</g>
		<g id="shape245-193" v:mID="245" v:groupContext="shape" transform="translate(232.11,345.967) rotate(180)">
			<title>Sheet.245</title>
			<path d="M0 189.07 L9 189.07" class="st1"/>
		</g>
		<g id="shape246-196" v:mID="246" v:groupContext="shape" transform="translate(232.11,368.467) rotate(180)">
			<title>Sheet.246</title>
			<path d="M0 189.07 L9 189.07" class="st1"/>
		</g>
		<g id="shape247-199" v:mID="247" v:groupContext="shape" transform="translate(277.11,345.967) rotate(180)">
			<title>Sheet.247</title>
			<path d="M0 189.07 L9 189.07" class="st1"/>
		</g>
		<g id="shape248-202" v:mID="248" v:groupContext="shape" transform="translate(277.11,369.03) rotate(180)">
			<title>Sheet.248</title>
			<path d="M0 189.07 L9 189.07" class="st1"/>
		</g>
		<g id="shape249-205" v:mID="249" v:groupContext="shape" transform="translate(227.047,-29.9325)">
			<title>Circle.111</title>
			<path d="M0 186.82 A2.25 2.25 0 0 1 4.5 186.82 A2.25 2.25 0 1 1 0 186.82 Z" class="st10"/>
		</g>
		<g id="shape250-207" v:mID="250" v:groupContext="shape" transform="translate(227.047,-7.4325)">
			<title>Circle.112</title>
			<path d="M0 186.82 A2.25 2.25 0 0 1 4.5 186.82 A2.25 2.25 0 1 1 0 186.82 Z" class="st10"/>
		</g>
		<g id="shape251-209" v:mID="251" v:groupContext="shape" transform="translate(268.673,-6.87)">
			<title>Circle.113</title>
			<path d="M0 186.82 A2.25 2.25 0 0 1 4.5 186.82 A2.25 2.25 0 1 1 0 186.82 Z" class="st10"/>
		</g>
		<g id="shape252-211" v:mID="252" v:groupContext="shape" transform="translate(430.185,138.33) rotate(90) scale(-1,1)">
			<title>60 degree single.115</title>
			<path d="M0 180.07 L5.2 171.07 L5.2 177.01 L13.5 177.01 L13.5 183.14 L5.2 183.14 L5.2 189.07 L0 180.07 Z" class="st3"/>
		</g>
		<g id="shape253-213" v:mID="253" v:groupContext="shape" transform="translate(333.36,-10.245)">
			<title>Sheet.253</title>
			<desc>NAND Basic Cell</desc>
			<v:textBlock v:margins="rect(4,4,4,4)"/>
			<v:textRect cx="43.875" cy="175.575" width="87.75" height="27"/>
			<rect x="0" y="162.075" width="87.75" height="27" class="st4"/>
			<text x="4" y="178.58" class="st13" v:langID="1033"><v:paragraph/><v:tabList/>NAND Basic Cell</text>		</g>
		<g id="shape254-216" v:mID="254" v:groupContext="shape" transform="translate(336.735,-158.745)">
			<title>Rectangle.142</title>
			<desc>0</desc>
			<v:textBlock v:margins="rect(4,2,4,2)"/>
			<v:textRect cx="9" cy="184.575" width="18" height="9"/>
			<rect x="0" y="180.075" width="18" height="9" class="st14"/>
			<text x="6.22" y="187.58" class="st6" v:langID="1033"><v:paragraph v:horizAlign="1"/><v:tabList/>0</text>		</g>
		<g id="shape255-219" v:mID="255" v:groupContext="shape" transform="translate(336.735,-147.495)">
			<title>Rectangle.143</title>
			<desc>0</desc>
			<v:textBlock v:margins="rect(4,2,4,2)"/>
			<v:textRect cx="9" cy="184.575" width="18" height="9"/>
			<rect x="0" y="180.075" width="18" height="9" class="st14"/>
			<text x="6.22" y="187.58" class="st6" v:langID="1033"><v:paragraph v:horizAlign="1"/><v:tabList/>0</text>		</g>
		<g id="shape256-222" v:mID="256" v:groupContext="shape" transform="translate(336.735,-136.245)">
			<title>Rectangle.144</title>
			<desc>1</desc>
			<v:textBlock v:margins="rect(4,0,4,0)"/>
			<v:textRect cx="9" cy="184.575" width="18" height="9"/>
			<rect x="0" y="180.075" width="18" height="9" class="st14"/>
			<text x="6.22" y="187.58" class="st6" v:langID="1033"><v:paragraph v:horizAlign="1"/><v:tabList/>1</text>		</g>
		<g id="shape257-225" v:mID="257" v:groupContext="shape" transform="translate(336.735,-124.995)">
			<title>Rectangle.145</title>
			<desc>1</desc>
			<v:textBlock v:margins="rect(4,0,4,0)"/>
			<v:textRect cx="9" cy="184.575" width="18" height="9"/>
			<rect x="0" y="180.075" width="18" height="9" class="st14"/>
			<text x="6.22" y="187.58" class="st6" v:langID="1033"><v:paragraph v:horizAlign="1"/><v:tabList/>1</text>		</g>
		<g id="shape258-228" v:mID="258" v:groupContext="shape" transform="translate(356.985,-158.745)">
			<title>Rectangle.146</title>
			<desc>0</desc>
			<v:textBlock v:margins="rect(4,2,4,2)"/>
			<v:textRect cx="9" cy="184.575" width="18" height="9"/>
			<rect x="0" y="180.075" width="18" height="9" class="st14"/>
			<text x="6.22" y="187.58" class="st6" v:langID="1033"><v:paragraph v:horizAlign="1"/><v:tabList/>0</text>		</g>
		<g id="shape259-231" v:mID="259" v:groupContext="shape" transform="translate(356.985,-136.245)">
			<title>Rectangle.147</title>
			<desc>0</desc>
			<v:textBlock v:margins="rect(4,2,4,2)"/>
			<v:textRect cx="9" cy="184.575" width="18" height="9"/>
			<rect x="0" y="180.075" width="18" height="9" class="st14"/>
			<text x="6.22" y="187.58" class="st6" v:langID="1033"><v:paragraph v:horizAlign="1"/><v:tabList/>0</text>		</g>
		<g id="shape260-234" v:mID="260" v:groupContext="shape" transform="translate(356.985,-147.495)">
			<title>Rectangle.148</title>
			<desc>1</desc>
			<v:textBlock v:margins="rect(4,0,4,0)"/>
			<v:textRect cx="9" cy="184.575" width="18" height="9"/>
			<rect x="0" y="180.075" width="18" height="9" class="st14"/>
			<text x="6.22" y="187.58" class="st6" v:langID="1033"><v:paragraph v:horizAlign="1"/><v:tabList/>1</text>		</g>
		<g id="shape261-237" v:mID="261" v:groupContext="shape" transform="translate(356.985,-124.995)">
			<title>Rectangle.149</title>
			<desc>1</desc>
			<v:textBlock v:margins="rect(4,0,4,0)"/>
			<v:textRect cx="9" cy="184.575" width="18" height="9"/>
			<rect x="0" y="180.075" width="18" height="9" class="st14"/>
			<text x="6.22" y="187.58" class="st6" v:langID="1033"><v:paragraph v:horizAlign="1"/><v:tabList/>1</text>		</g>
		<g id="shape262-240" v:mID="262" v:groupContext="shape" transform="translate(399.735,-147.495)">
			<title>Rectangle.150</title>
			<desc>0</desc>
			<v:textBlock v:margins="rect(4,2,4,2)"/>
			<v:textRect cx="9" cy="184.575" width="18" height="9"/>
			<rect x="0" y="180.075" width="18" height="9" class="st14"/>
			<text x="6.22" y="187.58" class="st6" v:langID="1033"><v:paragraph v:horizAlign="1"/><v:tabList/>0</text>		</g>
		<g id="shape263-243" v:mID="263" v:groupContext="shape" transform="translate(379.485,-136.245)">
			<title>Rectangle.151</title>
			<desc>0</desc>
			<v:textBlock v:margins="rect(4,0,4,0)"/>
			<v:textRect cx="9" cy="184.575" width="18" height="9"/>
			<rect x="0" y="180.075" width="18" height="9" class="st14"/>
			<text x="6.22" y="187.58" class="st6" v:langID="1033"><v:paragraph v:horizAlign="1"/><v:tabList/>0</text>		</g>
		<g id="shape264-246" v:mID="264" v:groupContext="shape" transform="translate(379.485,-147.495)">
			<title>Rectangle.152</title>
			<desc>1</desc>
			<v:textBlock v:margins="rect(4,0,4,0)"/>
			<v:textRect cx="9" cy="184.575" width="18" height="9"/>
			<rect x="0" y="180.075" width="18" height="9" class="st14"/>
			<text x="6.22" y="187.58" class="st6" v:langID="1033"><v:paragraph v:horizAlign="1"/><v:tabList/>1</text>		</g>
		<g id="shape265-249" v:mID="265" v:groupContext="shape" transform="translate(336.735,-172.245)">
			<title>Rectangle.153</title>
			<desc>S</desc>
			<v:textBlock v:margins="rect(4,2,4,2)"/>
			<v:textRect cx="9" cy="184.575" width="18" height="9"/>
			<rect x="0" y="180.075" width="18" height="9" class="st14"/>
			<text x="5.66" y="187.58" class="st6" v:langID="1033"><v:paragraph v:horizAlign="1"/><v:tabList/>S</text>		</g>
		<g id="shape266-252" v:mID="266" v:groupContext="shape" transform="translate(356.985,-172.245)">
			<title>Rectangle.154</title>
			<desc>R</desc>
			<v:textBlock v:margins="rect(4,2,4,2)"/>
			<v:textRect cx="9" cy="184.575" width="18" height="9"/>
			<rect x="0" y="180.075" width="18" height="9" class="st14"/>
			<text x="5.39" y="187.58" class="st6" v:langID="1033"><v:paragraph v:horizAlign="1"/><v:tabList/>R</text>		</g>
		<g id="shape267-255" v:mID="267" v:groupContext="shape" transform="translate(379.485,-172.245)">
			<title>Rectangle.155</title>
			<desc>Q</desc>
			<v:textBlock v:margins="rect(4,2,4,2)"/>
			<v:textRect cx="9" cy="184.575" width="18" height="9"/>
			<rect x="0" y="180.075" width="18" height="9" class="st14"/>
			<text x="5.11" y="187.58" class="st6" v:langID="1033"><v:paragraph v:horizAlign="1"/><v:tabList/>Q</text>		</g>
		<g id="shape268-258" v:mID="268" v:groupContext="shape" transform="translate(398.61,-172.245)">
			<title>Rectangle.156</title>
			<desc>QN</desc>
			<v:textBlock v:margins="rect(4,2,4,2)"/>
			<v:textRect cx="10.125" cy="184.575" width="20.25" height="9"/>
			<rect x="0" y="180.075" width="20.25" height="9" class="st14"/>
			<text x="2.62" y="187.58" class="st6" v:langID="1033"><v:paragraph v:horizAlign="1"/><v:tabList/>QN</text>		</g>
		<g id="shape269-261" v:mID="269" v:groupContext="shape" transform="translate(336.735,-169.995)">
			<title>Sheet.269</title>
			<path d="M0 189.07 L83.25 189.07" class="st1"/>
		</g>
		<g id="shape270-264" v:mID="270" v:groupContext="shape" transform="translate(566.31,7.83) rotate(90)">
			<title>Sheet.270</title>
			<path d="M0 189.07 L56.25 189.07" class="st1"/>
		</g>
		<g id="shape271-267" v:mID="271" v:groupContext="shape" transform="translate(399.735,-136.245)">
			<title>Rectangle.159</title>
			<desc>1</desc>
			<v:textBlock v:margins="rect(4,0,4,0)"/>
			<v:textRect cx="9" cy="184.575" width="18" height="9"/>
			<rect x="0" y="180.075" width="18" height="9" class="st14"/>
			<text x="6.22" y="187.58" class="st6" v:langID="1033"><v:paragraph v:horizAlign="1"/><v:tabList/>1</text>		</g>
		<g id="shape272-270" v:mID="272" v:groupContext="shape" transform="translate(379.485,-124.995)">
			<title>Rectangle.126</title>
			<desc>HOLD</desc>
			<v:textBlock v:margins="rect(4,0,4,0)"/>
			<v:textRect cx="17.4375" cy="184.575" width="34.88" height="9"/>
			<rect x="0" y="180.075" width="34.875" height="9" class="st14"/>
			<text x="4.69" y="187.28" class="st15" v:langID="1033"><v:paragraph v:horizAlign="1"/><v:tabList/>HOLD</text>		</g>
		<g id="shape273-273" v:mID="273" v:groupContext="shape" transform="translate(379.485,-158.745)">
			<title>Rectangle.164</title>
			<desc>1</desc>
			<v:textBlock v:margins="rect(4,0,4,0)"/>
			<v:textRect cx="9" cy="184.575" width="18" height="9"/>
			<rect x="0" y="180.075" width="18" height="9" class="st14"/>
			<text x="6.22" y="187.58" class="st6" v:langID="1033"><v:paragraph v:horizAlign="1"/><v:tabList/>1</text>		</g>
		<g id="shape274-276" v:mID="274" v:groupContext="shape" transform="translate(399.735,-158.745)">
			<title>Rectangle.165</title>
			<desc>1</desc>
			<v:textBlock v:margins="rect(4,0,4,0)"/>
			<v:textRect cx="9" cy="184.575" width="18" height="9"/>
			<rect x="0" y="180.075" width="18" height="9" class="st14"/>
			<text x="6.22" y="187.58" class="st6" v:langID="1033"><v:paragraph v:horizAlign="1"/><v:tabList/>1</text>		</g>
		<g id="shape275-279" v:mID="275" v:groupContext="shape" transform="translate(232.11,-0.12)">
			<title>Rectangle.80</title>
			<rect x="0" y="146.325" width="36" height="42.75" class="st16"/>
		</g>
		<g id="shape276-281" v:mID="276" v:groupContext="shape" transform="translate(230.422,-27.12)">
			<title>Sheet.276</title>
			<desc>S</desc>
			<v:textBlock v:margins="rect(4,4,4,4)"/>
			<v:textRect cx="7.3125" cy="184.575" width="14.63" height="9"/>
			<rect x="0" y="180.075" width="14.625" height="9" class="st4"/>
			<text x="4" y="187.58" class="st6" v:langID="1033"><v:paragraph/><v:tabList/>S</text>		</g>
		<g id="shape277-284" v:mID="277" v:groupContext="shape" transform="translate(230.422,-4.62)">
			<title>Sheet.277</title>
			<desc>R</desc>
			<v:textBlock v:margins="rect(4,4,4,4)"/>
			<v:textRect cx="7.3125" cy="184.575" width="14.63" height="9"/>
			<rect x="0" y="180.075" width="14.625" height="9" class="st4"/>
			<text x="4" y="187.58" class="st6" v:langID="1033"><v:paragraph/><v:tabList/>R</text>		</g>
		<g id="shape278-287" v:mID="278" v:groupContext="shape" transform="translate(254.047,-27.12)">
			<title>Sheet.278</title>
			<desc>Q</desc>
			<v:textBlock v:margins="rect(4,4,4,4)"/>
			<v:textRect cx="7.875" cy="184.575" width="15.75" height="9"/>
			<rect x="0" y="180.075" width="15.75" height="9" class="st4"/>
			<text x="4" y="187.58" class="st6" v:langID="1033"><v:paragraph v:horizAlign="2"/><v:tabList/>Q</text>		</g>
		<g id="shape279-290" v:mID="279" v:groupContext="shape" transform="translate(245.61,-4.62)">
			<title>Sheet.279</title>
			<desc>QN</desc>
			<v:textBlock v:margins="rect(4,4,4,4)"/>
			<v:textRect cx="12.375" cy="184.575" width="24.75" height="9"/>
			<rect x="0" y="180.075" width="24.75" height="9" class="st4"/>
			<text x="5.75" y="187.58" class="st6" v:langID="1033"><v:paragraph v:horizAlign="2"/><v:tabList/>QN</text>		</g>
		<g id="shape280-293" v:mID="280" v:groupContext="shape" transform="translate(333.36,-73.245)">
			<title>Sheet.280</title>
			<desc>Asserted low inputs Set Dominant</desc>
			<v:textBlock v:margins="rect(4,4,4,4)"/>
			<v:textRect cx="49.5" cy="175.575" width="99" height="27"/>
			<rect x="0" y="162.075" width="99" height="27" class="st4"/>
			<text x="4" y="172.58" class="st6" v:langID="1033"><v:paragraph/><v:tabList/>Asserted low inputs<v:newlineChar/><tspan
						x="4" dy="1.2em" class="st7">Set Dominant</tspan></text>		</g>
	</g>
</svg>
