<?xml version="1.0" encoding="UTF-8" standalone="no"?>
<!DOCTYPE svg PUBLIC "-//W3C//DTD SVG 1.1//EN" "http://www.w3.org/Graphics/SVG/1.1/DTD/svg11.dtd">
<!-- Generated by Microsoft Visio, SVG Export fullssd.svg Page-1 -->
<svg xmlns="http://www.w3.org/2000/svg" xmlns:xlink="http://www.w3.org/1999/xlink" xmlns:ev="http://www.w3.org/2001/xml-events"
		xmlns:v="http://schemas.microsoft.com/visio/2003/SVGExtensions/" width="5.95711in" height="2.86785in"
		viewBox="0 0 428.912 206.485" xml:space="preserve" color-interpolation-filters="sRGB" class="st20">
	<v:documentProperties v:langID="1033" v:viewMarkup="false"/>

	<style type="text/css">
	<![CDATA[
		.st1 {fill:none;stroke:none;stroke-linecap:round;stroke-linejoin:round;stroke-width:0.72}
		.st2 {fill:#000000;font-family:Arial;font-size:0.833336em}
		.st3 {stroke:#000000;stroke-linecap:round;stroke-linejoin:round;stroke-width:0.72}
		.st4 {fill:#e6e6e6;stroke:none;stroke-linecap:round;stroke-linejoin:round;stroke-width:0.72}
		.st5 {fill:#e2494e;stroke:none;stroke-linecap:round;stroke-linejoin:round;stroke-width:0.24}
		.st6 {fill:#e2494e;stroke:none;stroke-linecap:round;stroke-linejoin:round;stroke-width:0.738935}
		.st7 {fill:#000000;font-family:Arial;font-size:0.666664em}
		.st8 {stroke:#000000;stroke-linecap:round;stroke-linejoin:round;stroke-width:2.16}
		.st9 {fill:#ffffff;stroke:#000000;stroke-linecap:round;stroke-linejoin:round;stroke-width:0.72}
		.st10 {fill:#000000;stroke:#000000;stroke-linecap:round;stroke-linejoin:round;stroke-width:0.24}
		.st11 {marker-end:url(#mrkr4-194);stroke:#000000;stroke-linecap:round;stroke-linejoin:round;stroke-width:0.72}
		.st12 {fill:#000000;fill-opacity:1;stroke:#000000;stroke-opacity:1;stroke-width:0.22222222222222}
		.st13 {fill:#000000;font-family:Arial;font-size:0.75em;font-weight:bold}
		.st14 {font-size:1em}
		.st15 {fill:#000000;font-family:Arial;font-size:0.75em}
		.st16 {fill:#ffffff;stroke:#ff0000;stroke-linecap:round;stroke-linejoin:round;stroke-width:0.75}
		.st17 {fill:none;stroke:none;stroke-linecap:round;stroke-linejoin:round;stroke-width:0.75}
		.st18 {fill:#00b050;font-family:Calibri;font-size:1.00001em;font-style:italic;font-weight:bold}
		.st19 {fill:#ff0000;font-family:Calibri;font-size:1.00001em}
		.st20 {fill:none;fill-rule:evenodd;font-size:12px;overflow:visible;stroke-linecap:square;stroke-miterlimit:3}
	]]>
	</style>

	<defs id="Markers">
		<g id="lend4">
			<path d="M 2 1 L 0 0 L 2 -1 L 2 1 " style="stroke:none"/>
		</g>
		<marker id="mrkr4-194" class="st12" v:arrowType="4" v:arrowSize="2" v:setback="8.5" refX="-8.5" orient="auto"
				markerUnits="strokeWidth" overflow="visible">
			<use xlink:href="#lend4" transform="scale(-4.5,-4.5) "/>
		</marker>
	</defs>
	<g v:mID="0" v:index="1" v:groupContext="foregroundPage">
		<title>Page-1</title>
		<v:pageProperties v:drawingScale="1" v:pageScale="1" v:drawingUnits="19" v:shadowOffsetX="9" v:shadowOffsetY="-9"/>
		<v:layer v:name="Connector" v:index="0"/>
		<g id="shape1-1" v:mID="1" v:groupContext="shape" transform="translate(19.4121,-121.375)">
			<title>Sheet.1</title>
			<desc>Switches(3:0)</desc>
			<v:textBlock v:margins="rect(4,4,4,4)"/>
			<v:textRect cx="36" cy="198.485" width="72" height="16"/>
			<rect x="0" y="190.485" width="72" height="16" class="st1"/>
			<text x="7.42" y="201.49" class="st2" v:langID="1033"><v:paragraph v:horizAlign="2"/><v:tabList/>Switches(3:0)</text>		</g>
		<g id="shape2-4" v:mID="2" v:groupContext="shape" transform="translate(19.4121,-156.125)">
			<title>Sheet.2</title>
			<desc>Switches(7:4)</desc>
			<v:textBlock v:margins="rect(4,4,4,4)"/>
			<v:textRect cx="36" cy="198.485" width="72" height="16"/>
			<rect x="0" y="190.485" width="72" height="16" class="st1"/>
			<text x="7.42" y="201.49" class="st2" v:langID="1033"><v:paragraph v:horizAlign="2"/><v:tabList/>Switches(7:4)</text>		</g>
		<g id="shape3-7" v:mID="3" v:groupContext="shape" transform="translate(446.397,160.36) rotate(90) scale(-1,1)">
			<title>Sheet.3</title>
			<path d="M0 206.49 L18 206.49" class="st3"/>
		</g>
		<g id="shape4-10" v:mID="4" v:groupContext="shape" transform="translate(500.397,160.36) rotate(90) scale(-1,1)">
			<title>Sheet.4</title>
			<path d="M0 206.49 L18 206.49" class="st3"/>
		</g>
		<g id="shape5-13" v:mID="5" v:groupContext="shape" transform="translate(527.397,160.36) rotate(90) scale(-1,1)">
			<title>Sheet.5</title>
			<path d="M0 206.49 L18 206.49" class="st3"/>
		</g>
		<g id="shape6-16" v:mID="6" v:groupContext="shape" transform="translate(473.397,178.36) rotate(90) scale(-1,1)">
			<title>Sheet.6</title>
			<path d="M0 206.49 L36 206.49" class="st3"/>
		</g>
		<g id="shape7-19" v:mID="7" v:groupContext="shape" transform="translate(453.147,101.86) rotate(90) scale(-1,1)">
			<title>Sheet.7</title>
			<path d="M0 206.49 L9 206.49" class="st3"/>
		</g>
		<g id="shape8-22" v:mID="8" v:groupContext="shape" transform="translate(466.647,101.86) rotate(90) scale(-1,1)">
			<title>Sheet.8</title>
			<path d="M0 206.49 L20.25 206.49" class="st3"/>
		</g>
		<g id="shape9-25" v:mID="9" v:groupContext="shape" transform="translate(480.147,101.86) rotate(90) scale(-1,1)">
			<title>Sheet.9</title>
			<path d="M0 206.49 L31.5 206.49" class="st3"/>
		</g>
		<g id="shape10-28" v:mID="10" v:groupContext="shape" transform="translate(493.647,101.86) rotate(90) scale(-1,1)">
			<title>Sheet.10</title>
			<path d="M0 206.49 L42.75 206.49" class="st3"/>
		</g>
		<g id="shape11-31" v:mID="11" v:groupContext="shape" transform="translate(507.147,101.86) rotate(90) scale(-1,1)">
			<title>Sheet.11</title>
			<path d="M0 206.49 L54 206.49" class="st3"/>
		</g>
		<g id="shape12-34" v:mID="12" v:groupContext="shape" transform="translate(520.647,101.86) rotate(90) scale(-1,1)">
			<title>Sheet.12</title>
			<path d="M0 206.49 L65.09 206.49" class="st3"/>
		</g>
		<g id="shape13-37" v:mID="13" v:groupContext="shape" transform="translate(534.147,101.86) rotate(90) scale(-1,1)">
			<title>Sheet.13</title>
			<path d="M0 206.49 L76.5 206.49" class="st3"/>
		</g>
		<g id="group14-40" transform="translate(221.912,-64.125)" v:mID="14" v:groupContext="group">
			<title>Sheet.14</title>
			<g id="shape15-41" v:mID="15" v:groupContext="shape" transform="translate(117,2.84217E-014) scale(-1,1)">
				<title>Rectangle.811</title>
				<v:userDefs>
					<v:ud v:nameU="visVersion" v:val="VT0(11):26"/>
				</v:userDefs>
				<rect x="0" y="165.985" width="117" height="40.5" class="st4"/>
			</g>
			<g id="group16-43" transform="translate(8.775,-5.48174)" v:mID="16" v:groupContext="group">
				<title>Sheet.16</title>
				<g id="shape17-44" v:mID="17" v:groupContext="shape" transform="translate(5.7727,-26.2286)">
					<title>Sheet.17</title>
					<path d="M11.41 203.93 L11.07 206.49 L0 206.49 L0.34 203.93 L11.41 203.93 Z" class="st5"/>
				</g>
				<g id="shape18-46" v:mID="18" v:groupContext="shape" transform="translate(-201.547,191.132) rotate(-90)">
					<title>Sheet.18</title>
					<path d="M13.43 204.08 L13.43 206.49 L0 205.28 L0 202.88 L13.43 204.08 Z" class="st5"/>
				</g>
				<g id="shape19-48" v:mID="19" v:groupContext="shape" transform="translate(-202.881,206.485) rotate(-90)">
					<title>Sheet.19</title>
					<path d="M13.43 204.08 L13.43 206.49 L0 205.28 L0 202.88 L13.43 204.08 Z" class="st5"/>
				</g>
				<g id="shape20-50" v:mID="20" v:groupContext="shape" transform="translate(4.57145,-13.1143)">
					<title>Sheet.20</title>
					<path d="M11.41 203.93 L11.07 206.49 L0 206.49 L0.34 203.93 L11.41 203.93 Z" class="st5"/>
				</g>
				<g id="shape21-52" v:mID="21" v:groupContext="shape" transform="translate(3.37019,0)">
					<title>Sheet.21</title>
					<path d="M11.41 203.93 L11.07 206.49 L0 206.49 L0.34 203.93 L11.41 203.93 Z" class="st5"/>
				</g>
				<g id="shape22-54" v:mID="22" v:groupContext="shape" transform="translate(-185.563,191.132) rotate(-90)">
					<title>Sheet.22</title>
					<path d="M13.43 204.08 L13.43 206.49 L0 205.28 L0 202.88 L13.43 204.08 Z" class="st5"/>
				</g>
				<g id="shape23-56" v:mID="23" v:groupContext="shape" transform="translate(-186.898,206.485) rotate(-90)">
					<title>Sheet.23</title>
					<path d="M13.43 204.08 L13.43 206.49 L0 205.28 L0 202.88 L13.43 204.08 Z" class="st5"/>
				</g>
			</g>
			<g id="group24-58" transform="translate(36.3391,-5.48174)" v:mID="24" v:groupContext="group">
				<title>Sheet.24</title>
				<g id="shape25-59" v:mID="25" v:groupContext="shape" transform="translate(5.7727,-26.2286)">
					<title>Sheet.25</title>
					<path d="M11.41 203.93 L11.07 206.49 L0 206.49 L0.34 203.93 L11.41 203.93 Z" class="st5"/>
				</g>
				<g id="shape26-61" v:mID="26" v:groupContext="shape" transform="translate(-201.547,191.132) rotate(-90)">
					<title>Sheet.26</title>
					<path d="M13.43 204.08 L13.43 206.49 L0 205.28 L0 202.88 L13.43 204.08 Z" class="st5"/>
				</g>
				<g id="shape27-63" v:mID="27" v:groupContext="shape" transform="translate(-202.881,206.485) rotate(-90)">
					<title>Sheet.27</title>
					<path d="M13.43 204.08 L13.43 206.49 L0 205.28 L0 202.88 L13.43 204.08 Z" class="st5"/>
				</g>
				<g id="shape28-65" v:mID="28" v:groupContext="shape" transform="translate(4.57145,-13.1143)">
					<title>Sheet.28</title>
					<path d="M11.41 203.93 L11.07 206.49 L0 206.49 L0.34 203.93 L11.41 203.93 Z" class="st5"/>
				</g>
				<g id="shape29-67" v:mID="29" v:groupContext="shape" transform="translate(3.37019,0)">
					<title>Sheet.29</title>
					<path d="M11.41 203.93 L11.07 206.49 L0 206.49 L0.34 203.93 L11.41 203.93 Z" class="st5"/>
				</g>
				<g id="shape30-69" v:mID="30" v:groupContext="shape" transform="translate(-185.563,191.132) rotate(-90)">
					<title>Sheet.30</title>
					<path d="M13.43 204.08 L13.43 206.49 L0 205.28 L0 202.88 L13.43 204.08 Z" class="st5"/>
				</g>
				<g id="shape31-71" v:mID="31" v:groupContext="shape" transform="translate(-186.898,206.485) rotate(-90)">
					<title>Sheet.31</title>
					<path d="M13.43 204.08 L13.43 206.49 L0 205.28 L0 202.88 L13.43 204.08 Z" class="st5"/>
				</g>
			</g>
			<g id="group32-73" transform="translate(64.35,-5.48174)" v:mID="32" v:groupContext="group">
				<title>Sheet.32</title>
				<g id="shape33-74" v:mID="33" v:groupContext="shape" transform="translate(5.7727,-26.2286)">
					<title>Sheet.33</title>
					<path d="M11.41 203.93 L11.07 206.49 L0 206.49 L0.34 203.93 L11.41 203.93 Z" class="st5"/>
				</g>
				<g id="shape34-76" v:mID="34" v:groupContext="shape" transform="translate(-201.547,191.132) rotate(-90)">
					<title>Sheet.34</title>
					<path d="M13.43 204.08 L13.43 206.49 L0 205.28 L0 202.88 L13.43 204.08 Z" class="st5"/>
				</g>
				<g id="shape35-78" v:mID="35" v:groupContext="shape" transform="translate(-202.881,206.485) rotate(-90)">
					<title>Sheet.35</title>
					<path d="M13.43 204.08 L13.43 206.49 L0 205.28 L0 202.88 L13.43 204.08 Z" class="st5"/>
				</g>
				<g id="shape36-80" v:mID="36" v:groupContext="shape" transform="translate(4.57145,-13.1143)">
					<title>Sheet.36</title>
					<path d="M11.41 203.93 L11.07 206.49 L0 206.49 L0.34 203.93 L11.41 203.93 Z" class="st5"/>
				</g>
				<g id="shape37-82" v:mID="37" v:groupContext="shape" transform="translate(3.37019,0)">
					<title>Sheet.37</title>
					<path d="M11.41 203.93 L11.07 206.49 L0 206.49 L0.34 203.93 L11.41 203.93 Z" class="st5"/>
				</g>
				<g id="shape38-84" v:mID="38" v:groupContext="shape" transform="translate(-185.563,191.132) rotate(-90)">
					<title>Sheet.38</title>
					<path d="M13.43 204.08 L13.43 206.49 L0 205.28 L0 202.88 L13.43 204.08 Z" class="st5"/>
				</g>
				<g id="shape39-86" v:mID="39" v:groupContext="shape" transform="translate(-186.898,206.485) rotate(-90)">
					<title>Sheet.39</title>
					<path d="M13.43 204.08 L13.43 206.49 L0 205.28 L0 202.88 L13.43 204.08 Z" class="st5"/>
				</g>
			</g>
			<g id="group40-88" transform="translate(90.675,-5.48174)" v:mID="40" v:groupContext="group">
				<title>Sheet.40</title>
				<g id="shape41-89" v:mID="41" v:groupContext="shape" transform="translate(5.7727,-26.2286)">
					<title>Sheet.41</title>
					<path d="M11.41 203.93 L11.07 206.49 L0 206.49 L0.34 203.93 L11.41 203.93 Z" class="st5"/>
				</g>
				<g id="shape42-91" v:mID="42" v:groupContext="shape" transform="translate(-201.547,191.132) rotate(-90)">
					<title>Sheet.42</title>
					<path d="M13.43 204.08 L13.43 206.49 L0 205.28 L0 202.88 L13.43 204.08 Z" class="st5"/>
				</g>
				<g id="shape43-93" v:mID="43" v:groupContext="shape" transform="translate(-202.881,206.485) rotate(-90)">
					<title>Sheet.43</title>
					<path d="M13.43 204.08 L13.43 206.49 L0 205.28 L0 202.88 L13.43 204.08 Z" class="st5"/>
				</g>
				<g id="shape44-95" v:mID="44" v:groupContext="shape" transform="translate(4.57145,-13.1143)">
					<title>Sheet.44</title>
					<path d="M11.41 203.93 L11.07 206.49 L0 206.49 L0.34 203.93 L11.41 203.93 Z" class="st5"/>
				</g>
				<g id="shape45-97" v:mID="45" v:groupContext="shape" transform="translate(3.37019,0)">
					<title>Sheet.45</title>
					<path d="M11.41 203.93 L11.07 206.49 L0 206.49 L0.34 203.93 L11.41 203.93 Z" class="st5"/>
				</g>
				<g id="shape46-99" v:mID="46" v:groupContext="shape" transform="translate(-185.563,191.132) rotate(-90)">
					<title>Sheet.46</title>
					<path d="M13.43 204.08 L13.43 206.49 L0 205.28 L0 202.88 L13.43 204.08 Z" class="st5"/>
				</g>
				<g id="shape47-101" v:mID="47" v:groupContext="shape" transform="translate(-186.898,206.485) rotate(-90)">
					<title>Sheet.47</title>
					<path d="M13.43 204.08 L13.43 206.49 L0 205.28 L0 202.88 L13.43 204.08 Z" class="st5"/>
				</g>
			</g>
			<g id="shape48-103" v:mID="48" v:groupContext="shape" transform="translate(29.25,-5.52112)">
				<title>Sheet.48</title>
				<path d="M0 205.01 L0.2 204.32 L0.59 203.82 L1.17 203.53 L1.86 203.53 L2.44 203.82 L2.83 204.32 L2.93 205.01 L2.83
							 205.7 L2.44 206.19 L1.86 206.49 L1.17 206.49 L0.59 206.19 L0.2 205.7 L0 205.01 L0 205.01 Z"
						class="st6"/>
			</g>
			<g id="shape49-105" v:mID="49" v:groupContext="shape" transform="translate(57.0317,-5.52112)">
				<title>Sheet.49</title>
				<path d="M0 205.01 L0.2 204.32 L0.59 203.82 L1.17 203.53 L1.86 203.53 L2.44 203.82 L2.83 204.32 L2.93 205.01 L2.83
							 205.7 L2.44 206.19 L1.86 206.49 L1.17 206.49 L0.59 206.19 L0.2 205.7 L0 205.01 L0 205.01 Z"
						class="st6"/>
			</g>
			<g id="shape50-107" v:mID="50" v:groupContext="shape" transform="translate(84.8192,-5.52112)">
				<title>Sheet.50</title>
				<path d="M0 205.01 L0.2 204.32 L0.59 203.82 L1.17 203.53 L1.86 203.53 L2.44 203.82 L2.83 204.32 L2.93 205.01 L2.83
							 205.7 L2.44 206.19 L1.86 206.49 L1.17 206.49 L0.59 206.19 L0.2 205.7 L0 205.01 L0 205.01 Z"
						class="st6"/>
			</g>
			<g id="shape51-109" v:mID="51" v:groupContext="shape" transform="translate(111.424,-5.39583)">
				<title>Sheet.51</title>
				<path d="M0 205.01 L0.2 204.32 L0.59 203.82 L1.17 203.53 L1.86 203.53 L2.44 203.82 L2.83 204.32 L2.93 205.01 L2.83
							 205.7 L2.44 206.19 L1.86 206.49 L1.17 206.49 L0.59 206.19 L0.2 205.7 L0 205.01 L0 205.01 Z"
						class="st6"/>
			</g>
		</g>
		<g id="shape52-111" v:mID="52" v:groupContext="shape" transform="translate(221.912,-52.875)">
			<title>Sheet.52</title>
			<desc>AN0</desc>
			<v:textBlock v:margins="rect(0,0,0,0)"/>
			<v:textRect cx="9" cy="201.985" width="18" height="9"/>
			<text x="1.22" y="204.38" class="st7" v:langID="1033"><v:paragraph v:horizAlign="1"/><v:tabList/>AN0</text>		</g>
		<g id="shape53-113" v:mID="53" v:groupContext="shape" transform="translate(296.162,-52.875)">
			<title>Sheet.53</title>
			<desc>AN2</desc>
			<v:textBlock v:margins="rect(0,0,0,0)"/>
			<v:textRect cx="10.125" cy="201.985" width="20.25" height="9"/>
			<text x="0" y="204.38" class="st7" v:langID="1033"><v:paragraph/><v:tabList/>AN2</text>		</g>
		<g id="shape54-115" v:mID="54" v:groupContext="shape" transform="translate(323.162,-52.875)">
			<title>Sheet.54</title>
			<desc>AN3</desc>
			<v:textBlock v:margins="rect(0,0,0,0)"/>
			<v:textRect cx="9" cy="201.985" width="18" height="9"/>
			<text x="0" y="204.38" class="st7" v:langID="1033"><v:paragraph/><v:tabList/>AN3</text>		</g>
		<g id="shape55-117" v:mID="55" v:groupContext="shape" transform="translate(246.662,-52.875)">
			<title>Sheet.55</title>
			<desc>AN1</desc>
			<v:textBlock v:margins="rect(0,0,0,0)"/>
			<v:textRect cx="10.125" cy="201.985" width="20.25" height="9"/>
			<text x="2.34" y="204.38" class="st7" v:langID="1033"><v:paragraph v:horizAlign="1"/><v:tabList/>AN1</text>		</g>
		<g id="shape56-119" v:mID="56" v:groupContext="shape" transform="translate(246.662,-113.625) scale(-1,1)">
			<title>Sheet.56</title>
			<path d="M0 206.49 L42.75 206.49" class="st3"/>
		</g>
		<g id="shape57-122" v:mID="57" v:groupContext="shape" transform="translate(260.162,-124.875) scale(-1,1)">
			<title>Sheet.57</title>
			<path d="M0 206.49 L56.25 206.49" class="st3"/>
		</g>
		<g id="shape58-125" v:mID="58" v:groupContext="shape" transform="translate(273.662,-136.125) scale(-1,1)">
			<title>Sheet.58</title>
			<path d="M0 206.49 L69.75 206.49" class="st3"/>
		</g>
		<g id="shape59-128" v:mID="59" v:groupContext="shape" transform="translate(300.662,-158.625) scale(-1,1)">
			<title>Sheet.59</title>
			<path d="M0 206.49 L132.75 206.49" class="st3"/>
		</g>
		<g id="shape60-131" v:mID="60" v:groupContext="shape" transform="translate(287.162,-147.375) scale(-1,1)">
			<title>Sheet.60</title>
			<path d="M0 206.49 L83.25 206.49" class="st3"/>
		</g>
		<g id="shape61-134" v:mID="61" v:groupContext="shape" transform="translate(314.463,-169.714) rotate(0.0835215) scale(-1,1)">
			<title>Sheet.61</title>
			<path d="M0 206.49 L110.25 206.49" class="st3"/>
		</g>
		<g id="shape62-137" v:mID="62" v:groupContext="shape" transform="translate(327.662,-181.125) scale(-1,1)">
			<title>Sheet.62</title>
			<path d="M0 206.49 L123.75 206.49" class="st3"/>
		</g>
		<g id="shape63-140" v:mID="63" v:groupContext="shape" transform="translate(167.912,-147.375) scale(-1,1)">
			<title>Sheet.63</title>
			<path d="M0 206.49 L40.5 206.49" class="st8"/>
		</g>
		<g id="shape64-143" v:mID="64" v:groupContext="shape" transform="translate(99.8496,-165.375) scale(-1,1)">
			<title>Sheet.64</title>
			<path d="M0 206.49 L9 206.49" class="st8"/>
		</g>
		<g id="shape65-146" v:mID="65" v:groupContext="shape" transform="translate(99.8496,-129.375) scale(-1,1)">
			<title>Sheet.65</title>
			<path d="M0 206.49 L9 206.49" class="st8"/>
		</g>
		<g id="shape66-149" v:mID="66" v:groupContext="shape" transform="translate(118.322,-68.625) scale(-1,1)">
			<title>Sheet.66</title>
			<path d="M0 206.49 L43.81 206.49" class="st3"/>
		</g>
		<g id="shape67-152" v:mID="67" v:groupContext="shape" transform="translate(324.807,178.728) rotate(-89.8978) scale(1,-1)">
			<title>Sheet.67</title>
			<path d="M0 206.49 L92.38 206.49" class="st3"/>
		</g>
		<g id="shape68-155" v:mID="68" v:groupContext="shape" transform="translate(99.8496,-111.375)">
			<title>Sheet.68</title>
			<path d="M0 134.49 L27.56 147.99 L27.56 192.99 L0 206.49 L0 134.49 Z" class="st9"/>
		</g>
		<g id="shape69-157" v:mID="69" v:groupContext="shape" transform="translate(167.912,-104.625)">
			<title>Rectangle.5</title>
			<v:userDefs>
				<v:ud v:nameU="visVersion" v:val="VT0(12):26"/>
			</v:userDefs>
			<rect x="0" y="120.985" width="36" height="85.5" class="st9"/>
		</g>
		<g id="shape70-159" v:mID="70" v:groupContext="shape" transform="translate(141.475,-146.563)">
			<title>Sheet.70</title>
			<desc>4</desc>
			<v:textBlock v:margins="rect(4,4,4,4)"/>
			<v:textRect cx="6.75" cy="198.485" width="13.5" height="16"/>
			<rect x="0" y="190.485" width="13.5" height="16" class="st1"/>
			<text x="4" y="201.49" class="st2" v:langID="1033"><v:paragraph v:horizAlign="2"/><v:tabList/>4</text>		</g>
		<g id="shape71-162" v:mID="71" v:groupContext="shape" transform="translate(-46.0406,-4.05118) rotate(-73.1694) scale(-1,1)">
			<title>Sheet.71</title>
			<path d="M0 206.49 L9.4 206.49" class="st3"/>
		</g>
		<g id="shape72-165" v:mID="72" v:groupContext="shape" transform="translate(190.412,-176.063)">
			<title>Sheet.72</title>
			<desc>CA</desc>
			<v:textBlock v:margins="rect(0,0,0,0)"/>
			<v:textRect cx="6.75" cy="201.423" width="13.5" height="10.125"/>
			<text x="1.19" y="203.82" class="st7" v:langID="1033"><v:paragraph v:horizAlign="1"/><v:tabList/>CA</text>		</g>
		<g id="shape73-167" v:mID="73" v:groupContext="shape" transform="translate(190.412,-164.813)">
			<title>Sheet.73</title>
			<desc>CB</desc>
			<v:textBlock v:margins="rect(0,0,0,0)"/>
			<v:textRect cx="6.75" cy="201.423" width="13.5" height="10.125"/>
			<text x="1.19" y="203.82" class="st7" v:langID="1033"><v:paragraph v:horizAlign="1"/><v:tabList/>CB</text>		</g>
		<g id="shape74-169" v:mID="74" v:groupContext="shape" transform="translate(190.412,-153.563)">
			<title>Sheet.74</title>
			<desc>CC</desc>
			<v:textBlock v:margins="rect(0,0,0,0)"/>
			<v:textRect cx="6.75" cy="201.423" width="13.5" height="10.125"/>
			<text x="0.97" y="203.82" class="st7" v:langID="1033"><v:paragraph v:horizAlign="1"/><v:tabList/>CC</text>		</g>
		<g id="shape75-171" v:mID="75" v:groupContext="shape" transform="translate(190.412,-142.313)">
			<title>Sheet.75</title>
			<desc>CD</desc>
			<v:textBlock v:margins="rect(0,0,0,0)"/>
			<v:textRect cx="6.75" cy="201.423" width="13.5" height="10.125"/>
			<text x="0.97" y="203.82" class="st7" v:langID="1033"><v:paragraph v:horizAlign="1"/><v:tabList/>CD</text>		</g>
		<g id="shape76-173" v:mID="76" v:groupContext="shape" transform="translate(190.412,-131.063)">
			<title>Sheet.76</title>
			<desc>CE</desc>
			<v:textBlock v:margins="rect(0,0,0,0)"/>
			<v:textRect cx="6.75" cy="201.423" width="13.5" height="10.125"/>
			<text x="1.19" y="203.82" class="st7" v:langID="1033"><v:paragraph v:horizAlign="1"/><v:tabList/>CE</text>		</g>
		<g id="shape77-175" v:mID="77" v:groupContext="shape" transform="translate(190.412,-119.813)">
			<title>Sheet.77</title>
			<desc>CF</desc>
			<v:textBlock v:margins="rect(0,0,0,0)"/>
			<v:textRect cx="6.75" cy="201.423" width="13.5" height="10.125"/>
			<text x="1.42" y="203.82" class="st7" v:langID="1033"><v:paragraph v:horizAlign="1"/><v:tabList/>CF</text>		</g>
		<g id="shape78-177" v:mID="78" v:groupContext="shape" transform="translate(190.412,-108.563)">
			<title>Sheet.78</title>
			<desc>CG</desc>
			<v:textBlock v:margins="rect(0,0,0,0)"/>
			<v:textRect cx="6.75" cy="201.423" width="13.5" height="10.125"/>
			<text x="0.75" y="203.82" class="st7" v:langID="1033"><v:paragraph v:horizAlign="1"/><v:tabList/>CG</text>		</g>
		<g id="shape79-179" v:mID="79" v:groupContext="shape" transform="translate(329.912,-46.125) scale(-1,1)">
			<title>Sheet.79</title>
			<path d="M0 206.49 L36 206.49" class="st3"/>
		</g>
		<g id="shape80-182" v:mID="80" v:groupContext="shape" transform="translate(536.397,173.485) rotate(90) scale(-1,1)">
			<title>Sheet.80</title>
			<path d="M0 206.49 L13.12 206.49" class="st3"/>
		</g>
		<g id="shape81-185" v:mID="81" v:groupContext="shape" transform="translate(319.787,-45)">
			<title>Circle.180</title>
			<path d="M0 205.36 A1.125 1.125 0 0 1 2.25 205.36 A1.125 1.125 0 1 1 0 205.36 Z" class="st10"/>
		</g>
		<g id="shape82-187" v:mID="82" v:groupContext="shape" transform="translate(326.959,378.095) scale(1,-1)">
			<title>Triangle</title>
			<v:userDefs>
				<v:ud v:nameU="visVersion" v:val="VT0(12):26"/>
			</v:userDefs>
			<path d="M6.36 206.49 L2.95 200.86 L-0.46 206.49 L6.36 206.49 Z" class="st9"/>
		</g>
		<g id="shape83-189" v:mID="83" v:groupContext="shape" v:layerMember="0"
				transform="translate(273.8,-37.8789) rotate(-27.8973) scale(-1,1)">
			<title>Line-curve connector</title>
			<v:userDefs>
				<v:ud v:nameU="AntiScale" v:val="VT0(1):26"/>
				<v:ud v:nameU="Scale" v:val="VT0(1):26"/>
				<v:ud v:nameU="visVersion" v:val="VT0(12):26"/>
			</v:userDefs>
			<path d="M0 206.49 L9.18 210.95 L18.49 212.93 L27.94 212.42 L37.51 209.44 L37.83 209.28" class="st11"/>
		</g>
		<g id="shape84-195" v:mID="84" v:groupContext="shape" transform="translate(354.662,-71.7425)">
			<title>Sheet.84</title>
			<desc>Should it be a ‘0’ or a ‘1’ on AN2 and AN3 to turn these digi...</desc>
			<v:textBlock v:margins="rect(0,0,0,0)"/>
			<v:textRect cx="37.125" cy="194.11" width="74.25" height="24.75"/>
			<text x="0" y="180.61" class="st13" v:langID="1033"><v:paragraph/><v:tabList/>Should it be a ‘0’ <tspan x="0"
						dy="1.2em" class="st14">or a </tspan>‘1’ on AN2 <tspan x="0" dy="1.2em" class="st14">and AN</tspan>3 to turn <tspan
						x="0" dy="1.2em" class="st14">these digits off</tspan>?</text>		</g>
		<g id="shape85-200" v:mID="85" v:groupContext="shape" transform="translate(239.912,-46.125) scale(-1,1)">
			<title>Sheet.85</title>
			<path d="M0 206.49 L121.59 206.49" class="st3"/>
		</g>
		<g id="shape86-203" v:mID="86" v:groupContext="shape" transform="translate(266.912,-27.7972) scale(-1,1)">
			<title>Sheet.86</title>
			<path d="M0 206.49 L148.59 206.49" class="st3"/>
		</g>
		<g id="shape87-206" v:mID="87" v:groupContext="shape" transform="translate(374.397,168.633) rotate(90) scale(-1,1)">
			<title>Triangle.161</title>
			<v:userDefs>
				<v:ud v:nameU="visVersion" v:val="VT0(12):26"/>
			</v:userDefs>
			<path d="M17.12 206.49 L7.95 190.59 L-1.23 206.49 L17.12 206.49 Z" class="st9"/>
		</g>
		<g id="shape88-208" v:mID="88" v:groupContext="shape" transform="translate(183.381,-42.6797)">
			<title>Circle.182</title>
			<path d="M0 203.11 A3.375 3.375 0 0 1 6.75 203.11 A3.375 3.375 0 1 1 0 203.11 Z" class="st9"/>
		</g>
		<g id="shape89-210" v:mID="89" v:groupContext="shape" transform="translate(117.197,-45)">
			<title>Circle.184</title>
			<path d="M0 205.36 A1.125 1.125 0 0 1 2.25 205.36 A1.125 1.125 0 1 1 0 205.36 Z" class="st10"/>
		</g>
		<g id="shape90-212" v:mID="90" v:groupContext="shape" transform="translate(117.197,-67.5)">
			<title>Circle.186</title>
			<path d="M0 205.36 A1.125 1.125 0 0 1 2.25 205.36 A1.125 1.125 0 1 1 0 205.36 Z" class="st10"/>
		</g>
		<g id="shape91-214" v:mID="91" v:groupContext="shape" transform="translate(194.912,2.84217E-014)">
			<title>Sheet.91</title>
			<desc>The inverter allows a single digit to be driven at any time</desc>
			<v:textBlock v:margins="rect(0,0,0,0)"/>
			<v:textRect cx="114.75" cy="194.11" width="229.5" height="24.75"/>
			<text x="0" y="196.81" class="st15" v:langID="1033"><v:paragraph/><v:tabList/>The inverter allows a single digit to be driven at any time</text>		</g>
		<g id="shape92-216" v:mID="92" v:groupContext="shape" v:layerMember="0"
				transform="translate(14.6553,300.641) rotate(-121.059)">
			<title>Line-curve connector.188</title>
			<v:userDefs>
				<v:ud v:nameU="AntiScale" v:val="VT0(1):26"/>
				<v:ud v:nameU="Scale" v:val="VT0(1):26"/>
				<v:ud v:nameU="visVersion" v:val="VT0(12):26"/>
			</v:userDefs>
			<path d="M0 206.49 L4.1 203.72 L9.26 202.44 L15.5 202.63 L22.79 204.3 L23.13 204.42" class="st11"/>
		</g>
		<g id="shape111-221" v:mID="111" v:groupContext="shape" transform="translate(84.6621,-183.375)">
			<title>Sheet.111</title>
			<desc>2:1 Bus Mux</desc>
			<v:textBlock v:margins="rect(4,4,4,4)"/>
			<v:textRect cx="23.625" cy="198.485" width="47.25" height="16"/>
			<rect x="0" y="190.485" width="47.25" height="16" class="st1"/>
			<text x="9.34" y="195.49" class="st2" v:langID="1033"><v:paragraph v:horizAlign="2"/><v:tabList/>2:1 Bus <tspan
						x="24.36" dy="1.2em" class="st14">Mux</tspan></text>		</g>
		<g id="shape112-225" v:mID="112" v:groupContext="shape" transform="translate(154.412,-190.125)">
			<title>Sheet.112</title>
			<desc>bin2seg</desc>
			<v:textBlock v:margins="rect(4,4,4,4)"/>
			<v:textRect cx="27" cy="198.485" width="54" height="16"/>
			<rect x="0" y="190.485" width="54" height="16" class="st1"/>
			<text x="14.97" y="201.49" class="st2" v:langID="1033"><v:paragraph v:horizAlign="2"/><v:tabList/>bin2seg</text>		</g>
		<g id="shape113-228" v:mID="113" v:groupContext="shape" transform="translate(109.412,-122.625)">
			<title>Sheet.113</title>
			<desc>S</desc>
			<v:textBlock v:margins="rect(0,0,0,0)"/>
			<v:textRect cx="9" cy="201.985" width="18" height="9"/>
			<text x="6" y="204.68" class="st15" v:langID="1033"><v:paragraph v:horizAlign="1"/><v:tabList/>S</text>		</g>
		<g id="shape114-230" v:mID="114" v:groupContext="shape" transform="translate(95.9121,-124.875)">
			<title>Sheet.114</title>
			<desc>0</desc>
			<v:textBlock v:margins="rect(0,0,0,0)"/>
			<v:textRect cx="9" cy="201.985" width="18" height="9"/>
			<text x="6.22" y="204.99" class="st2" v:langID="1033"><v:paragraph v:horizAlign="1"/><v:tabList/>0</text>		</g>
		<g id="shape115-232" v:mID="115" v:groupContext="shape" transform="translate(95.9121,-160.875)">
			<title>Sheet.115</title>
			<desc>1</desc>
			<v:textBlock v:margins="rect(0,0,0,0)"/>
			<v:textRect cx="9" cy="201.985" width="18" height="9"/>
			<text x="6.22" y="204.99" class="st2" v:langID="1033"><v:paragraph v:horizAlign="1"/><v:tabList/>1</text>		</g>
		<g id="shape116-234" v:mID="116" v:groupContext="shape" transform="translate(28.5,-54.1287)">
			<title>Sheet.116</title>
			<rect x="0" y="177.493" width="47.25" height="28.9925" class="st16"/>
		</g>
		<g id="shape117-236" v:mID="117" v:groupContext="shape" transform="translate(0.375,-64.9925)">
			<title>Sheet.117</title>
			<desc>clk</desc>
			<v:textBlock v:margins="rect(4,4,4,4)"/>
			<v:textRect cx="18" cy="196.485" width="36" height="20"/>
			<rect x="0" y="186.485" width="36" height="20" class="st17"/>
			<text x="11.18" y="200.09" class="st18" v:langID="1033"><v:paragraph v:horizAlign="1"/><v:tabList/>clk</text>		</g>
		<g id="shape118-239" v:mID="118" v:groupContext="shape" transform="translate(26.25,-36.125)">
			<title>Sheet.118</title>
			<desc>Counter</desc>
			<v:textBlock v:margins="rect(4,4,4,4)"/>
			<v:textRect cx="25.875" cy="196.485" width="51.76" height="20"/>
			<rect x="0" y="186.485" width="51.75" height="20" class="st17"/>
			<text x="6.12" y="200.09" class="st19" v:langID="1033"><v:paragraph v:horizAlign="1"/><v:tabList/>Counter</text>		</g>
		<g id="shape119-242" v:mID="119" v:groupContext="shape" transform="translate(61.125,-64.125)">
			<title>Sheet.119</title>
			<desc>Y</desc>
			<v:textBlock v:margins="rect(0,0,0,0)"/>
			<v:textRect cx="9" cy="201.985" width="18" height="9"/>
			<text x="5.66" y="204.99" class="st2" v:langID="1033"><v:paragraph v:horizAlign="1"/><v:tabList/>Y</text>		</g>
		<g id="shape120-244" v:mID="120" v:groupContext="shape" transform="translate(28.5,-64.125)">
			<title>Sheet.120</title>
			<desc>clk</desc>
			<v:textBlock v:margins="rect(0,0,0,0)"/>
			<v:textRect cx="9" cy="201.985" width="18" height="9"/>
			<text x="2.89" y="204.99" class="st2" v:langID="1033"><v:paragraph v:horizAlign="1"/><v:tabList/>clk</text>		</g>
		<g id="shape121-246" v:mID="121" v:groupContext="shape" transform="translate(28.5,-69.4925) scale(-1,1)">
			<title>Sheet.121</title>
			<path d="M0 206.49 L21.37 206.49" class="st3"/>
		</g>
	</g>
</svg>
