<?xml version="1.0" encoding="UTF-8" standalone="no"?>
<!DOCTYPE svg PUBLIC "-//W3C//DTD SVG 1.1//EN" "http://www.w3.org/Graphics/SVG/1.1/DTD/svg11.dtd">
<!-- Generated by Microsoft Visio, SVG Export FET drain.svg Page-1 -->
<svg xmlns="http://www.w3.org/2000/svg" xmlns:xlink="http://www.w3.org/1999/xlink" xmlns:ev="http://www.w3.org/2001/xml-events"
		xmlns:v="http://schemas.microsoft.com/visio/2003/SVGExtensions/" width="7.08681in" height="1.10312in"
		viewBox="0 0 510.25 79.4246" xml:space="preserve" color-interpolation-filters="sRGB" class="st16">
	<v:documentProperties v:langID="1033" v:viewMarkup="false">
		<v:userDefs>
			<v:ud v:nameU="msvConvertTheme"/>
		</v:userDefs>
	</v:documentProperties>

	<style type="text/css">
	<![CDATA[
		.st1 {fill:url(#grad0-4);stroke:none;stroke-linecap:round;stroke-linejoin:round;stroke-width:0.24}
		.st2 {fill:#99f7b5;stroke:#000000;stroke-dasharray:0,0.72;stroke-linecap:round;stroke-linejoin:round;stroke-width:0.24}
		.st3 {fill:#ff0000;stroke:none;stroke-linecap:round;stroke-linejoin:round;stroke-width:0.24}
		.st4 {fill:#7979ff;stroke:none;stroke-linecap:round;stroke-linejoin:round;stroke-width:0.24}
		.st5 {stroke:none;stroke-linecap:round;stroke-linejoin:round;stroke-width:0.75}
		.st6 {fill:#000000;font-family:Arial;font-size:0.75em}
		.st7 {fill:url(#grad0-60);stroke:none;stroke-linecap:round;stroke-linejoin:round;stroke-width:0.24}
		.st8 {fill:#000000;font-family:Arial;font-size:0.666664em}
		.st9 {font-size:1em}
		.st10 {marker-end:url(#mrkr4-164);stroke:#000000;stroke-linecap:round;stroke-linejoin:round;stroke-width:0.72}
		.st11 {fill:#000000;fill-opacity:1;stroke:#000000;stroke-opacity:1;stroke-width:0.22222222222222}
		.st12 {fill:#ff0000;font-family:Arial;font-size:0.75em}
		.st13 {marker-end:url(#mrkr4-183);stroke:#000000;stroke-linecap:round;stroke-linejoin:round;stroke-width:1.2}
		.st14 {fill:#000000;fill-opacity:1;stroke:#000000;stroke-opacity:1;stroke-width:0.45454545454545}
		.st15 {fill:#99f7b5;fill-opacity:0.65;stroke:#000000;stroke-dasharray:0,0.72;stroke-linecap:round;stroke-linejoin:round;stroke-width:0.24}
		.st16 {fill:none;fill-rule:evenodd;font-size:12px;overflow:visible;stroke-linecap:square;stroke-miterlimit:3}
	]]>
	</style>

	<defs id="Patterns_And_Gradients">
		<linearGradient id="grad0-4" x1="0" y1="0" x2="1" y2="0" gradientTransform="rotate(270 0.5 0.5)">
			<stop offset="0" stop-color="#acb77b" stop-opacity="1"/>
			<stop offset="1" stop-color="#c7cea6" stop-opacity="1"/>
		</linearGradient>
		<linearGradient id="grad0-60" x1="0" y1="0" x2="1" y2="0" gradientTransform="rotate(270 0.5 0.5)">
			<stop offset="0" stop-color="#a4af6d" stop-opacity="1"/>
			<stop offset="1" stop-color="#c7cea6" stop-opacity="1"/>
		</linearGradient>
	</defs>
	<defs id="Markers">
		<g id="lend4">
			<path d="M 2 1 L 0 0 L 2 -1 L 2 1 " style="stroke:none"/>
		</g>
		<marker id="mrkr4-164" class="st11" v:arrowType="4" v:arrowSize="2" v:setback="8.5" refX="-8.5" orient="auto"
				markerUnits="strokeWidth" overflow="visible">
			<use xlink:href="#lend4" transform="scale(-4.5,-4.5) "/>
		</marker>
		<marker id="mrkr4-183" class="st14" v:arrowType="4" v:arrowSize="0" v:setback="4.4" refX="-4.4" orient="auto"
				markerUnits="strokeWidth" overflow="visible">
			<use xlink:href="#lend4" transform="scale(-2.2,-2.2) "/>
		</marker>
	</defs>
	<g v:mID="0" v:index="1" v:groupContext="foregroundPage">
		<title>Page-1</title>
		<v:pageProperties v:drawingScale="1" v:pageScale="1" v:drawingUnits="19" v:shadowOffsetX="9" v:shadowOffsetY="-9"/>
		<v:layer v:name="Connector" v:index="0"/>
		<g id="shape220-1" v:mID="220" v:groupContext="shape" transform="translate(274.25,-27.6746)">
			<title>Rectangle.220</title>
			<rect x="0" y="52.4246" width="202.5" height="27" class="st1"/>
		</g>
		<g id="shape222-5" v:mID="222" v:groupContext="shape" transform="translate(400.25,-36.6746)">
			<title>Sheet.222</title>
			<path d="M-0 61.42 A18 18 -180 0 0 18 79.42 A18 18 -180 0 0 36 61.42 L0 61.42 Z" class="st2"/>
		</g>
		<g id="shape221-7" v:mID="221" v:groupContext="shape" transform="translate(319.25,-36.6746)">
			<title>Sheet.221</title>
			<path d="M-0 61.42 A18 18 -180 0 0 18 79.42 A18 18 -180 0 0 36 61.42 L0 61.42 Z" class="st2"/>
		</g>
		<g id="shape223-9" v:mID="223" v:groupContext="shape" transform="translate(355.25,-54.6746)">
			<title>Rectangle.223</title>
			<rect x="0" y="76.6121" width="45" height="2.8125" class="st3"/>
		</g>
		<g id="shape224-11" v:mID="224" v:groupContext="shape" transform="translate(355.25,-56.6433)">
			<title>Rectangle.224</title>
			<rect x="0" y="74.3621" width="45" height="5.0625" class="st4"/>
		</g>
		<g id="shape225-13" v:mID="225" v:groupContext="shape" transform="translate(413.75,-54.6746)">
			<title>Rectangle.225</title>
			<rect x="0" y="74.3621" width="54" height="5.0625" class="st4"/>
		</g>
		<g id="shape226-15" v:mID="226" v:groupContext="shape" transform="translate(287.75,-54.6746)">
			<title>Rectangle.226</title>
			<rect x="0" y="74.3621" width="54" height="5.0625" class="st4"/>
		</g>
		<g id="shape227-17" v:mID="227" v:groupContext="shape" transform="translate(314.75,-45.6746)">
			<title>Sheet.227</title>
			<desc>+</desc>
			<v:textBlock v:margins="rect(0,0,0,0)"/>
			<v:textRect cx="11.25" cy="77.1746" width="22.5" height="4.5"/>
			<path d="M22.5 74.92 L0 74.92 L0 79.42 L22.5 79.42 L22.5 74.92" class="st5"/>
			<text x="8.62" y="79.87" class="st6" v:langID="1033"><v:paragraph v:horizAlign="1"/><v:tabList/>+</text>		</g>
		<g id="shape228-21" v:mID="228" v:groupContext="shape" transform="translate(326,-41.1746)">
			<title>Sheet.228</title>
			<desc>+</desc>
			<v:textBlock v:margins="rect(0,0,0,0)"/>
			<v:textRect cx="11.25" cy="77.1746" width="22.5" height="4.5"/>
			<path d="M22.5 74.92 L0 74.92 L0 79.42 L22.5 79.42 L22.5 74.92" class="st5"/>
			<text x="8.62" y="79.87" class="st6" v:langID="1033"><v:paragraph v:horizAlign="1"/><v:tabList/>+</text>		</g>
		<g id="shape229-25" v:mID="229" v:groupContext="shape" transform="translate(330.5,-45.6746)">
			<title>Sheet.229</title>
			<desc>+</desc>
			<v:textBlock v:margins="rect(0,0,0,0)"/>
			<v:textRect cx="11.25" cy="77.1746" width="22.5" height="4.5"/>
			<path d="M22.5 74.92 L0 74.92 L0 79.42 L22.5 79.42 L22.5 74.92" class="st5"/>
			<text x="8.62" y="79.87" class="st6" v:langID="1033"><v:paragraph v:horizAlign="1"/><v:tabList/>+</text>		</g>
		<g id="shape230-29" v:mID="230" v:groupContext="shape" transform="translate(335,-43.4246)">
			<title>Sheet.230</title>
			<desc>+</desc>
			<v:textBlock v:margins="rect(0,0,0,0)"/>
			<v:textRect cx="11.25" cy="77.1746" width="22.5" height="4.5"/>
			<path d="M22.5 74.92 L0 74.92 L0 79.42 L22.5 79.42 L22.5 74.92" class="st5"/>
			<text x="8.62" y="79.87" class="st6" v:langID="1033"><v:paragraph v:horizAlign="1"/><v:tabList/>+</text>		</g>
		<g id="shape231-33" v:mID="231" v:groupContext="shape" transform="translate(320.375,-47.9246)">
			<title>Sheet.231</title>
			<desc>+</desc>
			<v:textBlock v:margins="rect(0,0,0,0)"/>
			<v:textRect cx="11.25" cy="77.1746" width="22.5" height="4.5"/>
			<path d="M22.5 74.92 L0 74.92 L0 79.42 L22.5 79.42 L22.5 74.92" class="st5"/>
			<text x="8.62" y="79.87" class="st6" v:langID="1033"><v:paragraph v:horizAlign="1"/><v:tabList/>+</text>		</g>
		<g id="shape232-37" v:mID="232" v:groupContext="shape" transform="translate(395.75,-47.9246)">
			<title>Sheet.232</title>
			<desc>+</desc>
			<v:textBlock v:margins="rect(0,0,0,0)"/>
			<v:textRect cx="11.25" cy="77.1746" width="22.5" height="4.5"/>
			<path d="M22.5 74.92 L0 74.92 L0 79.42 L22.5 79.42 L22.5 74.92" class="st5"/>
			<text x="8.62" y="79.87" class="st6" v:langID="1033"><v:paragraph v:horizAlign="1"/><v:tabList/>+</text>		</g>
		<g id="shape233-41" v:mID="233" v:groupContext="shape" transform="translate(400.25,-43.4246)">
			<title>Sheet.233</title>
			<desc>+</desc>
			<v:textBlock v:margins="rect(0,0,0,0)"/>
			<v:textRect cx="11.25" cy="77.1746" width="22.5" height="4.5"/>
			<path d="M22.5 74.92 L0 74.92 L0 79.42 L22.5 79.42 L22.5 74.92" class="st5"/>
			<text x="8.62" y="79.87" class="st6" v:langID="1033"><v:paragraph v:horizAlign="1"/><v:tabList/>+</text>		</g>
		<g id="shape234-45" v:mID="234" v:groupContext="shape" transform="translate(404.75,-45.6746)">
			<title>Sheet.234</title>
			<desc>+</desc>
			<v:textBlock v:margins="rect(0,0,0,0)"/>
			<v:textRect cx="11.25" cy="77.1746" width="22.5" height="4.5"/>
			<path d="M22.5 74.92 L0 74.92 L0 79.42 L22.5 79.42 L22.5 74.92" class="st5"/>
			<text x="8.62" y="79.87" class="st6" v:langID="1033"><v:paragraph v:horizAlign="1"/><v:tabList/>+</text>		</g>
		<g id="shape235-49" v:mID="235" v:groupContext="shape" transform="translate(411.5,-47.9246)">
			<title>Sheet.235</title>
			<desc>+</desc>
			<v:textBlock v:margins="rect(0,0,0,0)"/>
			<v:textRect cx="11.25" cy="77.1746" width="22.5" height="4.5"/>
			<path d="M22.5 74.92 L0 74.92 L0 79.42 L22.5 79.42 L22.5 74.92" class="st5"/>
			<text x="8.62" y="79.87" class="st6" v:langID="1033"><v:paragraph v:horizAlign="1"/><v:tabList/>+</text>		</g>
		<g id="shape236-53" v:mID="236" v:groupContext="shape" transform="translate(413.75,-43.4246)">
			<title>Sheet.236</title>
			<desc>+</desc>
			<v:textBlock v:margins="rect(0,0,0,0)"/>
			<v:textRect cx="11.25" cy="77.1746" width="22.5" height="4.5"/>
			<path d="M22.5 74.92 L0 74.92 L0 79.42 L22.5 79.42 L22.5 74.92" class="st5"/>
			<text x="8.62" y="79.87" class="st6" v:langID="1033"><v:paragraph v:horizAlign="1"/><v:tabList/>+</text>		</g>
		<g id="shape237-57" v:mID="237" v:groupContext="shape" transform="translate(26.75,-27.6746)">
			<title>Rectangle.237</title>
			<rect x="0" y="52.4246" width="184.5" height="27" class="st7"/>
		</g>
		<g id="shape238-61" v:mID="238" v:groupContext="shape" transform="translate(152.75,-36.6746)">
			<title>Sheet.238</title>
			<path d="M-0 61.42 A18 18 -180 0 0 18 79.42 A18 18 -180 0 0 36 61.42 L0 61.42 Z" class="st2"/>
		</g>
		<g id="shape239-63" v:mID="239" v:groupContext="shape" transform="translate(71.75,-36.6746)">
			<title>Sheet.239</title>
			<desc>-</desc>
			<v:textBlock v:margins="rect(4,4,4,4)"/>
			<v:textRect cx="18" cy="70.4246" width="36" height="18"/>
			<path d="M-0 61.42 A18 18 -180 0 0 18 79.42 A18 18 -180 0 0 36 61.42 L0 61.42 Z" class="st2"/>
			<text x="16.67" y="72.82" class="st8" v:langID="1033"><v:paragraph v:horizAlign="1"/><v:tabList/>-</text>		</g>
		<g id="shape240-66" v:mID="240" v:groupContext="shape" transform="translate(107.75,-54.6746)">
			<title>Rectangle.240</title>
			<rect x="0" y="76.6121" width="45" height="2.8125" class="st3"/>
		</g>
		<g id="shape241-68" v:mID="241" v:groupContext="shape" transform="translate(107.75,-56.6433)">
			<title>Rectangle.241</title>
			<rect x="0" y="74.3621" width="45" height="5.0625" class="st4"/>
		</g>
		<g id="shape242-70" v:mID="242" v:groupContext="shape" transform="translate(166.25,-54.6746)">
			<title>Rectangle.242</title>
			<rect x="0" y="74.3621" width="40.5" height="5.0625" class="st4"/>
		</g>
		<g id="shape243-72" v:mID="243" v:groupContext="shape" transform="translate(40.25,-54.6746)">
			<title>Rectangle.243</title>
			<rect x="0" y="74.3621" width="54" height="5.0625" class="st4"/>
		</g>
		<g id="shape244-74" v:mID="244" v:groupContext="shape" transform="translate(67.25,-45.6746)">
			<title>Sheet.244</title>
			<desc>-</desc>
			<v:textBlock v:margins="rect(0,0,0,0)"/>
			<v:textRect cx="11.25" cy="77.1746" width="22.5" height="4.5"/>
			<path d="M22.5 74.92 L0 74.92 L0 79.42 L22.5 79.42 L22.5 74.92" class="st5"/>
			<text x="9.75" y="79.87" class="st6" v:langID="1033"><v:paragraph v:horizAlign="1"/><v:tabList/>-</text>		</g>
		<g id="shape245-78" v:mID="245" v:groupContext="shape" transform="translate(74,-38.9246)">
			<title>Sheet.245</title>
			<desc>-</desc>
			<v:textBlock v:margins="rect(0,0,0,0)"/>
			<v:textRect cx="11.25" cy="77.1746" width="22.5" height="4.5"/>
			<path d="M22.5 74.92 L0 74.92 L0 79.42 L22.5 79.42 L22.5 74.92" class="st5"/>
			<text x="9.75" y="79.87" class="st6" v:langID="1033"><v:paragraph v:horizAlign="1"/><v:tabList/>-</text>		</g>
		<g id="shape246-82" v:mID="246" v:groupContext="shape" transform="translate(85.25,-47.9246)">
			<title>Sheet.246</title>
			<desc>-</desc>
			<v:textBlock v:margins="rect(0,0,0,0)"/>
			<v:textRect cx="11.25" cy="77.1746" width="22.5" height="4.5"/>
			<path d="M22.5 74.92 L0 74.92 L0 79.42 L22.5 79.42 L22.5 74.92" class="st5"/>
			<text x="9.75" y="79.87" class="st6" v:langID="1033"><v:paragraph v:horizAlign="1"/><v:tabList/>-</text>		</g>
		<g id="shape247-86" v:mID="247" v:groupContext="shape" transform="translate(87.5,-43.4246)">
			<title>Sheet.247</title>
			<desc>-</desc>
			<v:textBlock v:margins="rect(0,0,0,0)"/>
			<v:textRect cx="11.25" cy="77.1746" width="22.5" height="4.5"/>
			<path d="M22.5 74.92 L0 74.92 L0 79.42 L22.5 79.42 L22.5 74.92" class="st5"/>
			<text x="9.75" y="79.87" class="st6" v:langID="1033"><v:paragraph v:horizAlign="1"/><v:tabList/>-</text>		</g>
		<g id="shape248-90" v:mID="248" v:groupContext="shape" transform="translate(72.875,-47.9246)">
			<title>Sheet.248</title>
			<desc>-</desc>
			<v:textBlock v:margins="rect(0,0,0,0)"/>
			<v:textRect cx="11.25" cy="77.1746" width="22.5" height="4.5"/>
			<path d="M22.5 74.92 L0 74.92 L0 79.42 L22.5 79.42 L22.5 74.92" class="st5"/>
			<text x="9.75" y="79.87" class="st6" v:langID="1033"><v:paragraph v:horizAlign="1"/><v:tabList/>-</text>		</g>
		<g id="shape249-94" v:mID="249" v:groupContext="shape" transform="translate(148.25,-47.9246)">
			<title>Sheet.249</title>
			<desc>-</desc>
			<v:textBlock v:margins="rect(0,0,0,0)"/>
			<v:textRect cx="11.25" cy="77.1746" width="22.5" height="4.5"/>
			<path d="M22.5 74.92 L0 74.92 L0 79.42 L22.5 79.42 L22.5 74.92" class="st5"/>
			<text x="9.75" y="79.87" class="st6" v:langID="1033"><v:paragraph v:horizAlign="1"/><v:tabList/>-</text>		</g>
		<g id="shape250-98" v:mID="250" v:groupContext="shape" transform="translate(152.75,-42.2996)">
			<title>Sheet.250</title>
			<desc>-</desc>
			<v:textBlock v:margins="rect(0,0,0,0)"/>
			<v:textRect cx="11.25" cy="77.1746" width="22.5" height="4.5"/>
			<path d="M22.5 74.92 L0 74.92 L0 79.42 L22.5 79.42 L22.5 74.92" class="st5"/>
			<text x="9.75" y="79.87" class="st6" v:langID="1033"><v:paragraph v:horizAlign="1"/><v:tabList/>-</text>		</g>
		<g id="shape251-102" v:mID="251" v:groupContext="shape" transform="translate(159.5,-46.7996)">
			<title>Sheet.251</title>
			<desc>-</desc>
			<v:textBlock v:margins="rect(0,0,0,0)"/>
			<v:textRect cx="11.25" cy="77.1746" width="22.5" height="4.5"/>
			<path d="M22.5 74.92 L0 74.92 L0 79.42 L22.5 79.42 L22.5 74.92" class="st5"/>
			<text x="9.75" y="79.87" class="st6" v:langID="1033"><v:paragraph v:horizAlign="1"/><v:tabList/>-</text>		</g>
		<g id="shape252-106" v:mID="252" v:groupContext="shape" transform="translate(169.625,-49.0496)">
			<title>Sheet.252</title>
			<desc>-</desc>
			<v:textBlock v:margins="rect(0,0,0,0)"/>
			<v:textRect cx="11.25" cy="77.1746" width="22.5" height="4.5"/>
			<path d="M22.5 74.92 L0 74.92 L0 79.42 L22.5 79.42 L22.5 74.92" class="st5"/>
			<text x="9.75" y="79.87" class="st6" v:langID="1033"><v:paragraph v:horizAlign="1"/><v:tabList/>-</text>		</g>
		<g id="shape253-110" v:mID="253" v:groupContext="shape" transform="translate(166.25,-41.1746)">
			<title>Sheet.253</title>
			<desc>-</desc>
			<v:textBlock v:margins="rect(0,0,0,0)"/>
			<v:textRect cx="11.25" cy="77.1746" width="22.5" height="4.5"/>
			<path d="M22.5 74.92 L0 74.92 L0 79.42 L22.5 79.42 L22.5 74.92" class="st5"/>
			<text x="9.75" y="79.87" class="st6" v:langID="1033"><v:paragraph v:horizAlign="1"/><v:tabList/>-</text>		</g>
		<g id="shape254-114" v:mID="254" v:groupContext="shape" transform="translate(31.25,-9.67456)">
			<title>Sheet.254</title>
			<desc>Cross-sectional view of an nFET</desc>
			<v:textBlock v:margins="rect(0,0,0,0)"/>
			<v:textRect cx="87.75" cy="71.5496" width="175.5" height="15.75"/>
			<path d="M175.5 63.67 L0 63.67 L0 79.42 L175.5 79.42 L175.5 63.67" class="st5"/>
			<text x="22.98" y="74.25" class="st6" v:langID="1033"><v:paragraph v:horizAlign="1"/><v:tabList/>Cross-sectional view of an nFET</text>		</g>
		<g id="shape255-118" v:mID="255" v:groupContext="shape" transform="translate(274.25,-2.92456)">
			<title>Sheet.255</title>
			<desc>Cross-sectional view of a pFET</desc>
			<v:textBlock v:margins="rect(0,0,0,0)"/>
			<v:textRect cx="38.25" cy="71.5496" width="76.5" height="15.75"/>
			<path d="M76.5 63.67 L0 63.67 L0 79.42 L76.5 79.42 L76.5 63.67" class="st5"/>
			<text x="7.24" y="68.85" class="st6" v:langID="1033"><v:paragraph v:horizAlign="1"/><v:tabList/>Cross-sectional <tspan
						x="8.24" dy="1.2em" class="st9">view of a pFET</tspan></text>		</g>
		<g id="shape256-123" v:mID="256" v:groupContext="shape" transform="translate(107.75,-63.6746)">
			<title>Sheet.256</title>
			<desc>gate</desc>
			<v:textBlock v:margins="rect(0,0,0,0)"/>
			<v:textRect cx="22.5" cy="74.9246" width="45" height="9"/>
			<path d="M45 70.42 L0 70.42 L0 79.42 L45 79.42 L45 70.42" class="st5"/>
			<text x="13.74" y="77.62" class="st6" v:langID="1033"><v:paragraph v:horizAlign="1"/><v:tabList/>gate</text>		</g>
		<g id="shape257-127" v:mID="257" v:groupContext="shape" transform="translate(38,-61.4246)">
			<title>Sheet.257</title>
			<desc>source</desc>
			<v:textBlock v:margins="rect(0,0,0,0)"/>
			<v:textRect cx="31.5" cy="74.9246" width="63" height="9"/>
			<path d="M63 70.42 L0 70.42 L0 79.42 L63 79.42 L63 70.42" class="st5"/>
			<text x="17.99" y="77.62" class="st6" v:langID="1033"><v:paragraph v:horizAlign="1"/><v:tabList/>source</text>		</g>
		<g id="shape258-131" v:mID="258" v:groupContext="shape" transform="translate(152.75,-63.6746)">
			<title>Sheet.258</title>
			<desc>drain</desc>
			<v:textBlock v:margins="rect(0,0,0,0)"/>
			<v:textRect cx="31.5" cy="74.9246" width="63" height="9"/>
			<path d="M63 70.42 L0 70.42 L0 79.42 L63 79.42 L63 70.42" class="st5"/>
			<text x="21.49" y="77.62" class="st6" v:langID="1033"><v:paragraph v:horizAlign="1"/><v:tabList/>drain</text>		</g>
		<g id="shape259-135" v:mID="259" v:groupContext="shape" transform="translate(8.75,-68.1746)">
			<title>Sheet.259</title>
			<desc>To GND</desc>
			<v:textBlock v:margins="rect(0,0,0,0)"/>
			<v:textRect cx="16.875" cy="74.9246" width="33.75" height="9"/>
			<path d="M33.75 70.42 L0 70.42 L0 79.42 L33.75 79.42 L33.75 70.42" class="st5"/>
			<text x="0" y="77.62" class="st6" v:langID="1033"><v:paragraph/><v:tabList/>To GND</text>		</g>
		<g id="shape260-139" v:mID="260" v:groupContext="shape" transform="translate(26.75,-54.6746)">
			<title>Rectangle.260</title>
			<rect x="0" y="70.4246" width="18" height="9" class="st4"/>
		</g>
		<g id="shape261-141" v:mID="261" v:groupContext="shape" transform="translate(454.25,-68.1746)">
			<title>Sheet.261</title>
			<desc>To Vdd</desc>
			<v:textBlock v:margins="rect(0,0,0,0)"/>
			<v:textRect cx="14.625" cy="74.9246" width="29.25" height="9"/>
			<path d="M29.25 70.42 L0 70.42 L0 79.42 L29.25 79.42 L29.25 70.42" class="st5"/>
			<text x="0.12" y="77.62" class="st6" v:langID="1033"><v:paragraph v:horizAlign="1"/><v:tabList/>To Vdd</text>		</g>
		<g id="shape262-145" v:mID="262" v:groupContext="shape" transform="translate(458.75,-54.6746)">
			<title>Rectangle.262</title>
			<rect x="0" y="70.4246" width="18" height="9" class="st4"/>
		</g>
		<g id="shape263-147" v:mID="263" v:groupContext="shape" transform="translate(346.25,-61.4246)">
			<title>Sheet.263</title>
			<desc>gate</desc>
			<v:textBlock v:margins="rect(0,0,0,0)"/>
			<v:textRect cx="31.5" cy="70.4246" width="63" height="18"/>
			<path d="M63 61.42 L0 61.42 L0 79.42 L63 79.42 L63 61.42" class="st5"/>
			<text x="22.74" y="73.12" class="st6" v:langID="1033"><v:paragraph v:horizAlign="1"/><v:tabList/>gate</text>		</g>
		<g id="shape264-151" v:mID="264" v:groupContext="shape" transform="translate(274.25,-63.6746)">
			<title>Sheet.264</title>
			<desc>drain</desc>
			<v:textBlock v:margins="rect(0,0,0,0)"/>
			<v:textRect cx="31.5" cy="74.9246" width="63" height="9"/>
			<path d="M63 70.42 L0 70.42 L0 79.42 L63 79.42 L63 70.42" class="st5"/>
			<text x="21.49" y="77.62" class="st6" v:langID="1033"><v:paragraph v:horizAlign="1"/><v:tabList/>drain</text>		</g>
		<g id="shape265-155" v:mID="265" v:groupContext="shape" transform="translate(395.75,-63.6746)">
			<title>Sheet.265</title>
			<desc>source</desc>
			<v:textBlock v:margins="rect(0,0,0,0)"/>
			<v:textRect cx="31.5" cy="74.9246" width="63" height="9"/>
			<path d="M63 70.42 L0 70.42 L0 79.42 L63 79.42 L63 70.42" class="st5"/>
			<text x="17.99" y="77.62" class="st6" v:langID="1033"><v:paragraph v:horizAlign="1"/><v:tabList/>source</text>		</g>
		<g id="shape266-159" v:mID="266" v:groupContext="shape" v:layerMember="0"
				transform="translate(421.516,-38.8403) rotate(-53.9726) scale(-1,1)">
			<title>Line-curve connector.266</title>
			<v:userDefs>
				<v:ud v:nameU="AntiScale" v:val="VT0(1):26"/>
				<v:ud v:nameU="Scale" v:val="VT0(1):26"/>
				<v:ud v:nameU="visVersion" v:val="VT0(11):26"/>
			</v:userDefs>
			<path d="M0 79.42 L0.87 84.39 L2.42 87.37 L4.64 88.36 L7.54 87.35 L11.1 84.36 L11.33 84.09" class="st10"/>
		</g>
		<g id="shape267-165" v:mID="267" v:groupContext="shape" v:layerMember="0"
				transform="translate(78.6481,-41.0514) rotate(48.8141)">
			<title>Line-curve connector.267</title>
			<v:userDefs>
				<v:ud v:nameU="AntiScale" v:val="VT0(1):26"/>
				<v:ud v:nameU="Scale" v:val="VT0(1):26"/>
				<v:ud v:nameU="visVersion" v:val="VT0(11):26"/>
			</v:userDefs>
			<path d="M0 79.42 L1.93 81.45 L3.76 82.84 L5.49 83.6 L7.12 83.74 L7.39 83.5" class="st10"/>
		</g>
		<g id="shape269-170" v:mID="269" v:groupContext="shape" transform="translate(90.0313,-35.5496)">
			<title>Sheet.269</title>
			<desc>insulator</desc>
			<v:textBlock v:margins="rect(0,0,0,0)"/>
			<v:textRect cx="40.5" cy="72.6746" width="81" height="13.5"/>
			<path d="M81 65.92 L0 65.92 L0 79.42 L81 79.42 L81 65.92" class="st5"/>
			<text x="23.49" y="75.37" class="st6" v:langID="1033"><v:paragraph v:horizAlign="1"/><v:tabList/>insulator</text>		</g>
		<g id="shape268-174" v:mID="268" v:groupContext="shape" transform="translate(89.75,-36.1121)">
			<title>Sheet.268</title>
			<desc>insulator</desc>
			<v:textBlock v:margins="rect(0,0,0,0)"/>
			<v:textRect cx="40.5" cy="72.6746" width="81" height="13.5"/>
			<path d="M81 65.92 L0 65.92 L0 79.42 L81 79.42 L81 65.92" class="st5"/>
			<text x="23.49" y="75.37" class="st12" v:langID="1033"><v:paragraph v:horizAlign="1"/><v:tabList/>insulator</text>		</g>
		<g id="shape270-178" v:mID="270" v:groupContext="shape" transform="translate(49.9817,32.0625) rotate(-90)">
			<title>Sheet.270</title>
			<path d="M0 79.42 L3.16 79.42" class="st13"/>
		</g>
		<g id="shape271-184" v:mID="271" v:groupContext="shape" transform="translate(353,-46.7996)">
			<title>Sheet.271</title>
			<path d="M2.25 71.55 L47.25 71.55 A2.25 7.875 -180 0 0 49.5 79.42 A24.75 3.375 -180 0 0 24.75 76.05 A24.75 3.375 -180
						 0 0 0 79.42 A2.25 7.875 -180 0 0 2.25 71.55 Z" class="st15"/>
		</g>
		<g id="shape272-186" v:mID="272" v:groupContext="shape" transform="translate(377.75,-2.92456)">
			<title>Sheet.272</title>
			<desc>Area where channel can form</desc>
			<v:textBlock v:margins="rect(0,0,0,0)"/>
			<v:textRect cx="36" cy="71.5496" width="72" height="15.75"/>
			<path d="M72 63.67 L0 63.67 L0 79.42 L72 79.42 L72 63.67" class="st5"/>
			<text x="12.99" y="68.85" class="st6" v:langID="1033"><v:paragraph v:horizAlign="1"/><v:tabList/>Area where <tspan
						x="1.48" dy="1.2em" class="st9">channel can form</tspan></text>		</g>
		<g id="shape273-191" v:mID="273" v:groupContext="shape" transform="translate(318.821,87.3416) rotate(-112.166)">
			<title>Sheet.273</title>
			<path d="M0 79.42 L27.52 79.42" class="st13"/>
		</g>
	</g>
</svg>
