<?xml version="1.0" encoding="UTF-8" standalone="no"?>
<!DOCTYPE svg PUBLIC "-//W3C//DTD SVG 1.1//EN" "http://www.w3.org/Graphics/SVG/1.1/DTD/svg11.dtd">
<!-- Generated by Microsoft Visio, SVG Export ALU_BitSliced.svg Page-1 -->
<svg xmlns="http://www.w3.org/2000/svg" xmlns:xlink="http://www.w3.org/1999/xlink" xmlns:ev="http://www.w3.org/2001/xml-events"
		xmlns:v="http://schemas.microsoft.com/visio/2003/SVGExtensions/" width="1.94437in" height="1.32625in"
		viewBox="0 0 139.995 95.4897" xml:space="preserve" color-interpolation-filters="sRGB" class="st10">
	<v:documentProperties v:langID="1033" v:viewMarkup="false"/>

	<style type="text/css">
	<![CDATA[
		.st1 {fill:#fddeb0;stroke:none;stroke-linecap:round;stroke-linejoin:round;stroke-width:0.24}
		.st2 {stroke:none;stroke-linecap:round;stroke-linejoin:round;stroke-width:0.75}
		.st3 {fill:#000000;font-family:Arial;font-size:0.833336em}
		.st4 {baseline-shift:-32.4947%;font-size:0.649894em}
		.st5 {marker-end:url(#mrkr4-30);stroke:#000000;stroke-linecap:round;stroke-linejoin:round;stroke-width:0.72}
		.st6 {fill:#000000;fill-opacity:1;stroke:#000000;stroke-opacity:1;stroke-width:0.22222222222222}
		.st7 {marker-end:url(#mrkr4-36);stroke:#000000;stroke-linecap:round;stroke-linejoin:round;stroke-width:2.16}
		.st8 {fill:#000000;fill-opacity:1;stroke:#000000;stroke-opacity:1;stroke-width:0.46153846153846}
		.st9 {stroke:#000000;stroke-linecap:round;stroke-linejoin:round;stroke-width:0.72}
		.st10 {fill:none;fill-rule:evenodd;font-size:12px;overflow:visible;stroke-linecap:square;stroke-miterlimit:3}
	]]>
	</style>

	<defs id="Markers">
		<g id="lend4">
			<path d="M 2 1 L 0 0 L 2 -1 L 2 1 " style="stroke:none"/>
		</g>
		<marker id="mrkr4-30" class="st6" v:arrowType="4" v:arrowSize="2" v:setback="9" refX="-9" orient="auto"
				markerUnits="strokeWidth" overflow="visible">
			<use xlink:href="#lend4" transform="scale(-4.5,-4.5) "/>
		</marker>
		<marker id="mrkr4-36" class="st8" v:arrowType="4" v:arrowSize="2" v:setback="4.33333" refX="-4.3333333333333" orient="auto"
				markerUnits="strokeWidth" overflow="visible">
			<use xlink:href="#lend4" transform="scale(-2.1666666666667,-2.1666666666667) "/>
		</marker>
	</defs>
	<g v:mID="0" v:index="1" v:groupContext="foregroundPage">
		<title>Page-1</title>
		<v:pageProperties v:drawingScale="1" v:pageScale="1" v:drawingUnits="19" v:shadowOffsetX="9" v:shadowOffsetY="-9"/>
		<g id="shape1-1" v:mID="1" v:groupContext="shape" transform="translate(29.5651,-20.7449)">
			<title>Rectangle.398</title>
			<v:userDefs>
				<v:ud v:nameU="visVersion" v:val="VT0(11):26"/>
			</v:userDefs>
			<rect x="0" y="41.4897" width="89.6849" height="54" class="st1"/>
		</g>
		<g id="shape2-3" v:mID="2" v:groupContext="shape" transform="translate(94.5,-34.2449)">
			<title>Sheet.2</title>
			<desc>Cin</desc>
			<v:textBlock v:margins="rect(0,0,0,0)"/>
			<v:textRect cx="11.25" cy="90.9897" width="22.5" height="9"/>
			<path d="M22.5 86.49 L0 86.49 L0 95.49 L22.5 95.49 L22.5 86.49" class="st2"/>
			<text x="10.22" y="93.99" class="st3" v:langID="1033"><v:paragraph v:horizAlign="2"/><v:tabList/>C<tspan dy="-0.287em"
						class="st4" v:baseFontSize="10">in</tspan></text>		</g>
		<g id="shape3-8" v:mID="3" v:groupContext="shape" transform="translate(74.25,-63.4949)">
			<title>Sheet.3</title>
			<desc>A</desc>
			<v:textBlock v:margins="rect(0,0,0,0)"/>
			<v:textRect cx="4.5" cy="90.9897" width="9" height="9"/>
			<path d="M9 86.49 L0 86.49 L0 95.49 L9 95.49 L9 86.49" class="st2"/>
			<text x="1.16" y="93.99" class="st3" v:langID="1033"><v:paragraph v:horizAlign="1"/><v:tabList/>A</text>		</g>
		<g id="shape4-12" v:mID="4" v:groupContext="shape" transform="translate(101.25,-63.4949)">
			<title>Sheet.4</title>
			<desc>B</desc>
			<v:textBlock v:margins="rect(0,0,0,0)"/>
			<v:textRect cx="4.5" cy="90.9897" width="9" height="9"/>
			<path d="M9 86.49 L0 86.49 L0 95.49 L9 95.49 L9 86.49" class="st2"/>
			<text x="1.16" y="93.99" class="st3" v:langID="1033"><v:paragraph v:horizAlign="1"/><v:tabList/>B</text>		</g>
		<g id="shape5-16" v:mID="5" v:groupContext="shape" transform="translate(86.0625,-21.8699)">
			<title>Sheet.5</title>
			<desc>F</desc>
			<v:textBlock v:margins="rect(0,0,0,0)"/>
			<v:textRect cx="6.1875" cy="90.9897" width="12.38" height="9"/>
			<path d="M12.37 86.49 L0 86.49 L0 95.49 L12.37 95.49 L12.37 86.49" class="st2"/>
			<text x="3.13" y="93.99" class="st3" v:langID="1033"><v:paragraph v:horizAlign="1"/><v:tabList/>F</text>		</g>
		<g id="shape6-20" v:mID="6" v:groupContext="shape" transform="translate(30.6901,-34.2449)">
			<title>Sheet.6</title>
			<desc>Cout</desc>
			<v:textBlock v:margins="rect(0,0,0,0)"/>
			<v:textRect cx="10.6875" cy="90.9897" width="21.38" height="9"/>
			<path d="M21.37 86.49 L0 86.49 L0 95.49 L21.37 95.49 L21.37 86.49" class="st2"/>
			<text x="2.56" y="93.99" class="st3" v:langID="1033"><v:paragraph v:horizAlign="1"/><v:tabList/>C<tspan dy="-0.287em"
						class="st4" v:baseFontSize="10">out</tspan></text>		</g>
		<g id="shape7-25" v:mID="7" v:groupContext="shape" transform="translate(105.75,-74.7449) scale(-1,1)">
			<title>Sheet.7</title>
			<path d="M0 81.99 L0 89.01" class="st5"/>
		</g>
		<g id="shape8-31" v:mID="8" v:groupContext="shape" transform="translate(29.5651,-60.6048) scale(-1,1)">
			<title>Sheet.8</title>
			<path d="M13.5 72.99 L13.5 95.49 L9.36 95.49" class="st7"/>
		</g>
		<g id="shape9-37" v:mID="9" v:groupContext="shape" transform="translate(132.75,-38.7449) scale(-1,1)">
			<title>Sheet.9</title>
			<path d="M0 95.49 L7.02 95.49" class="st5"/>
		</g>
		<g id="shape10-42" v:mID="10" v:groupContext="shape" transform="translate(29.5651,-38.7449) scale(-1,1)">
			<title>Sheet.10</title>
			<path d="M0 95.49 L7.02 95.49" class="st5"/>
		</g>
		<g id="shape11-47" v:mID="11" v:groupContext="shape" transform="translate(92.25,-7.24486) scale(-1,1)">
			<title>Sheet.11</title>
			<path d="M0 81.99 L0 89.01" class="st5"/>
		</g>
		<g id="shape12-52" v:mID="12" v:groupContext="shape" transform="translate(-31.1392,-61.7737) rotate(-26.5651)">
			<title>Sheet.12</title>
			<path d="M0 95.49 L10.06 95.49" class="st9"/>
		</g>
		<g id="shape13-55" v:mID="13" v:groupContext="shape" transform="translate(-3.14748E-014,-69.6048)">
			<title>Sheet.13</title>
			<desc>M</desc>
			<v:textBlock v:margins="rect(0,0,0,0)"/>
			<v:textRect cx="4.5" cy="90.9897" width="9" height="9"/>
			<path d="M9 86.49 L0 86.49 L0 95.49 L9 95.49 L9 86.49" class="st2"/>
			<text x="0.33" y="93.99" class="st3" v:langID="1033"><v:paragraph v:horizAlign="1"/><v:tabList/>M</text>		</g>
		<g id="shape14-59" v:mID="14" v:groupContext="shape" transform="translate(78.75,-74.7449) scale(-1,1)">
			<title>Sheet.14</title>
			<path d="M0 81.99 L0 89.01" class="st5"/>
		</g>
		<g id="shape15-64" v:mID="15" v:groupContext="shape" transform="translate(29.5651,-56.1048)">
			<title>Sheet.15</title>
			<desc>OpCode</desc>
			<v:textBlock v:margins="rect(0,0,0,0)"/>
			<v:textRect cx="18.9675" cy="90.9897" width="37.94" height="9"/>
			<path d="M37.93 86.49 L0 86.49 L0 95.49 L37.93 95.49 L37.93 86.49" class="st2"/>
			<text x="0.34" y="93.99" class="st3" v:langID="1033"><v:paragraph v:horizAlign="1"/><v:tabList/>OpCode</text>		</g>
	</g>
</svg>
