<?xml version="1.0" encoding="UTF-8" standalone="no"?>
<!DOCTYPE svg PUBLIC "-//W3C//DTD SVG 1.1//EN" "http://www.w3.org/Graphics/SVG/1.1/DTD/svg11.dtd">
<!-- Generated by Microsoft Visio, SVG Export cpg.svg Page-1 -->
<svg xmlns="http://www.w3.org/2000/svg" xmlns:xlink="http://www.w3.org/1999/xlink" xmlns:ev="http://www.w3.org/2001/xml-events"
		xmlns:v="http://schemas.microsoft.com/visio/2003/SVGExtensions/" width="6.41312in" height="2.71167in"
		viewBox="0 0 461.745 195.24" xml:space="preserve" color-interpolation-filters="sRGB" class="st15">
	<v:documentProperties v:langID="1033" v:viewMarkup="false">
		<v:userDefs>
			<v:ud v:nameU="msvConvertTheme"/>
		</v:userDefs>
	</v:documentProperties>

	<style type="text/css">
	<![CDATA[
		.st1 {fill:#d5e1fb;stroke:none;stroke-linecap:round;stroke-linejoin:round;stroke-width:0.24}
		.st2 {fill:#fddeb0;stroke:none;stroke-linecap:round;stroke-linejoin:round;stroke-width:0.24}
		.st3 {marker-end:url(#mrkr4-10);stroke:#000000;stroke-linecap:round;stroke-linejoin:round;stroke-width:0.72}
		.st4 {fill:#000000;fill-opacity:1;stroke:#000000;stroke-opacity:1;stroke-width:0.22222222222222}
		.st5 {stroke:none;stroke-linecap:round;stroke-linejoin:round;stroke-width:0.75}
		.st6 {fill:#000000;font-family:Arial;font-size:0.833336em}
		.st7 {stroke:#000000;stroke-linecap:round;stroke-linejoin:round;stroke-width:1.2}
		.st8 {stroke:#000000;stroke-linecap:round;stroke-linejoin:round;stroke-width:0.72}
		.st9 {fill:#000000;stroke:#000000;stroke-linecap:round;stroke-linejoin:round;stroke-width:0.24}
		.st10 {fill:#000000;font-family:Arial;font-size:0.75em}
		.st11 {fill:#000000;font-family:Arial;font-size:0.916672em;font-weight:bold}
		.st12 {fill:none;stroke:#000000;stroke-linecap:round;stroke-linejoin:round;stroke-width:0.72}
		.st13 {font-size:1em}
		.st14 {stroke:#000000;stroke-dasharray:0,3.6;stroke-linecap:round;stroke-linejoin:round;stroke-width:0.72}
		.st15 {fill:none;fill-rule:evenodd;font-size:12px;overflow:visible;stroke-linecap:square;stroke-miterlimit:3}
	]]>
	</style>

	<defs id="Markers">
		<g id="lend4">
			<path d="M 2 1 L 0 0 L 2 -1 L 2 1 " style="stroke:none"/>
		</g>
		<marker id="mrkr4-10" class="st4" v:arrowType="4" v:arrowSize="2" v:setback="9" refX="-9" orient="auto"
				markerUnits="strokeWidth" overflow="visible">
			<use xlink:href="#lend4" transform="scale(-4.5,-4.5) "/>
		</marker>
	</defs>
	<g v:mID="0" v:index="1" v:groupContext="foregroundPage">
		<title>Page-1</title>
		<v:pageProperties v:drawingScale="1" v:pageScale="1" v:drawingUnits="19" v:shadowOffsetX="9" v:shadowOffsetY="-9"/>
		<g id="shape45-1" v:mID="45" v:groupContext="shape" transform="translate(70.875,-28.5002)">
			<title>Rectangle.45</title>
			<v:userDefs>
				<v:ud v:nameU="visVersion" v:val="VT0(11):26"/>
			</v:userDefs>
			<rect x="0" y="28.7402" width="374.625" height="166.5" class="st1"/>
		</g>
		<g id="shape182-3" v:mID="182" v:groupContext="shape" transform="translate(117,-87.0002)">
			<title>Rectangle.182</title>
			<v:userDefs>
				<v:ud v:nameU="visVersion" v:val="VT0(11):26"/>
			</v:userDefs>
			<rect x="0" y="141.24" width="63" height="54" class="st2"/>
		</g>
		<g id="shape189-5" v:mID="189" v:groupContext="shape" transform="translate(193.5,-71.2502) scale(-1,1)">
			<title>Sheet.189</title>
			<path d="M0 195.24 L0 152.49 L4.5 152.49 L7.02 152.49" class="st3"/>
		</g>
		<g id="shape193-11" v:mID="193" v:groupContext="shape" transform="translate(155.25,-109.5)">
			<title>Sheet.193</title>
			<desc>Cin</desc>
			<v:textBlock v:margins="rect(0,0,0,0)"/>
			<v:textRect cx="11.25" cy="190.74" width="22.5" height="9"/>
			<path d="M22.5 186.24 L0 186.24 L0 195.24 L22.5 195.24 L22.5 186.24" class="st5"/>
			<text x="7.5" y="193.74" class="st6" v:langID="1033"><v:paragraph v:horizAlign="2"/><v:tabList/>Cin</text>		</g>
		<g id="shape194-15" v:mID="194" v:groupContext="shape" transform="translate(135.563,-128.625)">
			<title>Sheet.194</title>
			<desc>A</desc>
			<v:textBlock v:margins="rect(0,0,0,0)"/>
			<v:textRect cx="9" cy="190.74" width="18" height="9"/>
			<path d="M18 186.24 L0 186.24 L0 195.24 L18 195.24 L18 186.24" class="st5"/>
			<text x="0" y="193.74" class="st6" v:langID="1033"><v:paragraph/><v:tabList/>A</text>		</g>
		<g id="shape195-19" v:mID="195" v:groupContext="shape" transform="translate(158.063,-128.625)">
			<title>Sheet.195</title>
			<desc>B</desc>
			<v:textBlock v:margins="rect(0,0,0,0)"/>
			<v:textRect cx="9" cy="190.74" width="18" height="9"/>
			<path d="M18 186.24 L0 186.24 L0 195.24 L18 195.24 L18 186.24" class="st5"/>
			<text x="0" y="193.74" class="st6" v:langID="1033"><v:paragraph/><v:tabList/>B</text>		</g>
		<g id="shape223-23" v:mID="223" v:groupContext="shape" transform="translate(61.3125,-181.781)">
			<title>Sheet.223</title>
			<path d="M0 195.24 L333 195.24" class="st7"/>
		</g>
		<g id="shape224-26" v:mID="224" v:groupContext="shape" transform="translate(61.3125,-163.5)">
			<title>Sheet.224</title>
			<path d="M0 195.24 L355.5 195.24" class="st7"/>
		</g>
		<g id="shape225-29" v:mID="225" v:groupContext="shape" transform="translate(137.813,-141) scale(-1,1)">
			<title>Sheet.225</title>
			<path d="M0 154.74 L0 188.76" class="st3"/>
		</g>
		<g id="shape226-34" v:mID="226" v:groupContext="shape" transform="translate(160.313,-141) scale(-1,1)">
			<title>Sheet.226</title>
			<path d="M0 172.74 L0 188.76" class="st3"/>
		</g>
		<g id="shape227-39" v:mID="227" v:groupContext="shape" transform="translate(281.813,-141) scale(-1,1)">
			<title>Sheet.227</title>
			<path d="M0 154.74 L0 188.76" class="st3"/>
		</g>
		<g id="shape228-44" v:mID="228" v:groupContext="shape" transform="translate(304.313,-141) scale(-1,1)">
			<title>Sheet.228</title>
			<path d="M0 172.74 L0 188.76" class="st3"/>
		</g>
		<g id="shape229-49" v:mID="229" v:groupContext="shape" transform="translate(389.813,-141) scale(-1,1)">
			<title>Sheet.229</title>
			<path d="M0 154.74 L0 188.76" class="st3"/>
		</g>
		<g id="shape230-54" v:mID="230" v:groupContext="shape" transform="translate(412.313,-141) scale(-1,1)">
			<title>Sheet.230</title>
			<path d="M0 172.74 L0 188.76" class="st3"/>
		</g>
		<g id="shape231-59" v:mID="231" v:groupContext="shape" transform="translate(251.757,153.764) rotate(-135)">
			<title>Sheet.231</title>
			<path d="M0 195.24 L3.18 195.24" class="st8"/>
		</g>
		<g id="shape232-62" v:mID="232" v:groupContext="shape" transform="translate(274.257,172.046) rotate(-135)">
			<title>Sheet.232</title>
			<path d="M0 195.24 L3.18 195.24" class="st8"/>
		</g>
		<g id="shape233-65" v:mID="233" v:groupContext="shape" transform="translate(143.757,153.764) rotate(-135)">
			<title>Sheet.233</title>
			<path d="M0 195.24 L3.18 195.24" class="st8"/>
		</g>
		<g id="shape234-68" v:mID="234" v:groupContext="shape" transform="translate(166.257,172.046) rotate(-135)">
			<title>Sheet.234</title>
			<path d="M0 195.24 L3.18 195.24" class="st8"/>
		</g>
		<g id="shape235-71" v:mID="235" v:groupContext="shape" transform="translate(-0.243157,153.764) rotate(-135)">
			<title>Sheet.235</title>
			<path d="M0 195.24 L3.18 195.24" class="st8"/>
		</g>
		<g id="shape236-74" v:mID="236" v:groupContext="shape" transform="translate(22.2568,172.046) rotate(-135)">
			<title>Sheet.236</title>
			<path d="M0 195.24 L3.18 195.24" class="st8"/>
		</g>
		<g id="shape237-77" v:mID="237" v:groupContext="shape" transform="translate(216,-114)">
			<title>Circle.237</title>
			<v:userDefs>
				<v:ud v:nameU="visVersion" v:val="VT0(11):26"/>
			</v:userDefs>
			<path d="M0 194.4 a0.84375 0.84375 0 0 1 1.6875 0 a0.84375 0.84375 0 1 1 -1.6875 0 Z" class="st9"/>
		</g>
		<g id="shape238-79" v:mID="238" v:groupContext="shape" transform="translate(221.906,-114)">
			<title>Circle.238</title>
			<v:userDefs>
				<v:ud v:nameU="visVersion" v:val="VT0(11):26"/>
			</v:userDefs>
			<path d="M0 194.4 a0.84375 0.84375 0 0 1 1.6875 0 a0.84375 0.84375 0 1 1 -1.6875 0 Z" class="st9"/>
		</g>
		<g id="shape239-81" v:mID="239" v:groupContext="shape" transform="translate(227.813,-114)">
			<title>Circle.239</title>
			<v:userDefs>
				<v:ud v:nameU="visVersion" v:val="VT0(11):26"/>
			</v:userDefs>
			<path d="M0 194.4 a0.84375 0.84375 0 0 1 1.6875 0 a0.84375 0.84375 0 1 1 -1.6875 0 Z" class="st9"/>
		</g>
		<g id="shape240-83" v:mID="240" v:groupContext="shape" transform="translate(142.313,-172.5)">
			<title>Sheet.240</title>
			<desc>A(7)</desc>
			<v:textBlock v:margins="rect(0,0,0,0)"/>
			<v:textRect cx="9" cy="192.99" width="18" height="4.5"/>
			<path d="M18 190.74 L0 190.74 L0 195.24 L18 195.24 L18 190.74" class="st5"/>
			<text x="0" y="195.69" class="st10" v:langID="1033"><v:paragraph/><v:tabList/>A(7)</text>		</g>
		<g id="shape241-87" v:mID="241" v:groupContext="shape" transform="translate(164.813,-154.5)">
			<title>Sheet.241</title>
			<desc>B(7)</desc>
			<v:textBlock v:margins="rect(0,0,0,0)"/>
			<v:textRect cx="9" cy="192.99" width="18" height="4.5"/>
			<path d="M18 190.74 L0 190.74 L0 195.24 L18 195.24 L18 190.74" class="st5"/>
			<text x="0" y="195.69" class="st10" v:langID="1033"><v:paragraph/><v:tabList/>B(7)</text>		</g>
		<g id="shape242-91" v:mID="242" v:groupContext="shape" transform="translate(286.313,-172.5)">
			<title>Sheet.242</title>
			<desc>A(1)</desc>
			<v:textBlock v:margins="rect(0,0,0,0)"/>
			<v:textRect cx="9" cy="192.99" width="18" height="4.5"/>
			<path d="M18 190.74 L0 190.74 L0 195.24 L18 195.24 L18 190.74" class="st5"/>
			<text x="0" y="195.69" class="st10" v:langID="1033"><v:paragraph/><v:tabList/>A(1)</text>		</g>
		<g id="shape243-95" v:mID="243" v:groupContext="shape" transform="translate(308.813,-154.5)">
			<title>Sheet.243</title>
			<desc>B(1)</desc>
			<v:textBlock v:margins="rect(0,0,0,0)"/>
			<v:textRect cx="9" cy="192.99" width="18" height="4.5"/>
			<path d="M18 190.74 L0 190.74 L0 195.24 L18 195.24 L18 190.74" class="st5"/>
			<text x="0" y="195.69" class="st10" v:langID="1033"><v:paragraph/><v:tabList/>B(1)</text>		</g>
		<g id="shape244-99" v:mID="244" v:groupContext="shape" transform="translate(394.313,-172.5)">
			<title>Sheet.244</title>
			<desc>A(0)</desc>
			<v:textBlock v:margins="rect(0,0,0,0)"/>
			<v:textRect cx="9" cy="192.99" width="18" height="4.5"/>
			<path d="M18 190.74 L0 190.74 L0 195.24 L18 195.24 L18 190.74" class="st5"/>
			<text x="0" y="195.69" class="st10" v:langID="1033"><v:paragraph/><v:tabList/>A(0)</text>		</g>
		<g id="shape245-103" v:mID="245" v:groupContext="shape" transform="translate(416.813,-154.5)">
			<title>Sheet.245</title>
			<desc>B(0)</desc>
			<v:textBlock v:margins="rect(0,0,0,0)"/>
			<v:textRect cx="9" cy="192.99" width="18" height="4.5"/>
			<path d="M18 190.74 L0 190.74 L0 195.24 L18 195.24 L18 190.74" class="st5"/>
			<text x="0" y="195.69" class="st10" v:langID="1033"><v:paragraph/><v:tabList/>B(0)</text>		</g>
		<g id="shape246-107" v:mID="246" v:groupContext="shape" transform="translate(7.3125,-177)">
			<title>Sheet.246</title>
			<desc>A[7..0]</desc>
			<v:textBlock v:margins="rect(0,0,0,0)"/>
			<v:textRect cx="22.5" cy="190.74" width="45" height="9"/>
			<path d="M45 186.24 L0 186.24 L0 195.24 L45 195.24 L45 186.24" class="st5"/>
			<text x="11.38" y="194.04" class="st11" v:langID="1033"><v:paragraph v:horizAlign="2"/><v:tabList/>A[7..0]</text>		</g>
		<g id="shape247-111" v:mID="247" v:groupContext="shape" transform="translate(7.3125,-159)">
			<title>Sheet.247</title>
			<desc>B[7..0]</desc>
			<v:textBlock v:margins="rect(0,0,0,0)"/>
			<v:textRect cx="22.5" cy="190.74" width="45" height="9"/>
			<path d="M45 186.24 L0 186.24 L0 195.24 L45 195.24 L45 186.24" class="st5"/>
			<text x="11.38" y="194.04" class="st11" v:langID="1033"><v:paragraph v:horizAlign="2"/><v:tabList/>B[7..0]</text>		</g>
		<g id="shape249-115" v:mID="249" v:groupContext="shape" transform="translate(448.875,-93.7502)">
			<title>Sheet.249</title>
			<path d="M0 188.49 L11.25 188.49 L5.62 195.24 L0 188.49 Z" class="st12"/>
		</g>
		<g id="shape183-117" v:mID="183" v:groupContext="shape" transform="translate(155.25,-91.5002)">
			<title>Sheet.183</title>
			<desc>Sum</desc>
			<v:textBlock v:margins="rect(0,0,0,0)"/>
			<v:textRect cx="13.5" cy="190.74" width="27" height="9"/>
			<path d="M27 186.24 L0 186.24 L0 195.24 L27 195.24 L27 186.24" class="st5"/>
			<text x="0" y="193.74" class="st6" v:langID="1033"><v:paragraph/><v:tabList/>Sum</text>		</g>
		<g id="shape184-121" v:mID="184" v:groupContext="shape" transform="translate(121.5,-91.5002)">
			<title>Sheet.184</title>
			<desc>G</desc>
			<v:textBlock v:margins="rect(0,0,0,0)"/>
			<v:textRect cx="9" cy="190.74" width="18" height="9"/>
			<path d="M18 186.24 L0 186.24 L0 195.24 L18 195.24 L18 186.24" class="st5"/>
			<text x="0" y="193.74" class="st6" v:langID="1033"><v:paragraph/><v:tabList/>G</text>		</g>
		<g id="shape185-125" v:mID="185" v:groupContext="shape" transform="translate(141.75,-91.5002)">
			<title>Sheet.185</title>
			<desc>P</desc>
			<v:textBlock v:margins="rect(0,0,0,0)"/>
			<v:textRect cx="9" cy="190.74" width="18" height="9"/>
			<path d="M18 186.24 L0 186.24 L0 195.24 L18 195.24 L18 186.24" class="st5"/>
			<text x="0" y="193.74" class="st6" v:langID="1033"><v:paragraph/><v:tabList/>P</text>		</g>
		<g id="shape188-129" v:mID="188" v:groupContext="shape" transform="translate(126,-71.2502) scale(-1,1)">
			<title>Sheet.188</title>
			<path d="M0 179.49 L0 188.76" class="st3"/>
		</g>
		<g id="shape190-134" v:mID="190" v:groupContext="shape" transform="translate(144,-71.2502) scale(-1,1)">
			<title>Sheet.190</title>
			<path d="M0 179.49 L0 188.76" class="st3"/>
		</g>
		<g id="shape191-139" v:mID="191" v:groupContext="shape" transform="translate(162,-15.0002) scale(-1,1)">
			<title>Sheet.191</title>
			<path d="M0 123.24 L0 188.76" class="st3"/>
		</g>
		<g id="shape192-144" v:mID="192" v:groupContext="shape" transform="translate(369,-87.0002)">
			<title>Rectangle.192</title>
			<v:userDefs>
				<v:ud v:nameU="visVersion" v:val="VT0(11):26"/>
			</v:userDefs>
			<rect x="0" y="141.24" width="63" height="54" class="st2"/>
		</g>
		<g id="shape197-146" v:mID="197" v:groupContext="shape" transform="translate(407.25,-109.5)">
			<title>Sheet.197</title>
			<desc>Cin</desc>
			<v:textBlock v:margins="rect(0,0,0,0)"/>
			<v:textRect cx="11.25" cy="190.74" width="22.5" height="9"/>
			<path d="M22.5 186.24 L0 186.24 L0 195.24 L22.5 195.24 L22.5 186.24" class="st5"/>
			<text x="7.5" y="193.74" class="st6" v:langID="1033"><v:paragraph v:horizAlign="2"/><v:tabList/>Cin</text>		</g>
		<g id="shape198-150" v:mID="198" v:groupContext="shape" transform="translate(387.563,-128.625)">
			<title>Sheet.198</title>
			<desc>A</desc>
			<v:textBlock v:margins="rect(0,0,0,0)"/>
			<v:textRect cx="9" cy="190.74" width="18" height="9"/>
			<path d="M18 186.24 L0 186.24 L0 195.24 L18 195.24 L18 186.24" class="st5"/>
			<text x="0" y="193.74" class="st6" v:langID="1033"><v:paragraph/><v:tabList/>A</text>		</g>
		<g id="shape199-154" v:mID="199" v:groupContext="shape" transform="translate(410.063,-128.625)">
			<title>Sheet.199</title>
			<desc>B</desc>
			<v:textBlock v:margins="rect(0,0,0,0)"/>
			<v:textRect cx="9" cy="190.74" width="18" height="9"/>
			<path d="M18 186.24 L0 186.24 L0 195.24 L18 195.24 L18 186.24" class="st5"/>
			<text x="0" y="193.74" class="st6" v:langID="1033"><v:paragraph/><v:tabList/>B</text>		</g>
		<g id="shape200-158" v:mID="200" v:groupContext="shape" transform="translate(407.25,-91.5002)">
			<title>Sheet.200</title>
			<desc>Sum</desc>
			<v:textBlock v:margins="rect(0,0,0,0)"/>
			<v:textRect cx="13.5" cy="190.74" width="27" height="9"/>
			<path d="M27 186.24 L0 186.24 L0 195.24 L27 195.24 L27 186.24" class="st5"/>
			<text x="0" y="193.74" class="st6" v:langID="1033"><v:paragraph/><v:tabList/>Sum</text>		</g>
		<g id="shape201-162" v:mID="201" v:groupContext="shape" transform="translate(373.5,-91.5002)">
			<title>Sheet.201</title>
			<desc>G</desc>
			<v:textBlock v:margins="rect(0,0,0,0)"/>
			<v:textRect cx="9" cy="190.74" width="18" height="9"/>
			<path d="M18 186.24 L0 186.24 L0 195.24 L18 195.24 L18 186.24" class="st5"/>
			<text x="0" y="193.74" class="st6" v:langID="1033"><v:paragraph/><v:tabList/>G</text>		</g>
		<g id="shape202-166" v:mID="202" v:groupContext="shape" transform="translate(393.75,-91.5002)">
			<title>Sheet.202</title>
			<desc>P</desc>
			<v:textBlock v:margins="rect(0,0,0,0)"/>
			<v:textRect cx="9" cy="190.74" width="18" height="9"/>
			<path d="M18 186.24 L0 186.24 L0 195.24 L18 195.24 L18 186.24" class="st5"/>
			<text x="0" y="193.74" class="st6" v:langID="1033"><v:paragraph/><v:tabList/>P</text>		</g>
		<g id="shape203-170" v:mID="203" v:groupContext="shape" transform="translate(378,-71.2502) scale(-1,1)">
			<title>Sheet.203</title>
			<path d="M0 179.49 L0 188.76" class="st3"/>
		</g>
		<g id="shape204-175" v:mID="204" v:groupContext="shape" transform="translate(396,-71.2502) scale(-1,1)">
			<title>Sheet.204</title>
			<path d="M0 179.49 L0 188.76" class="st3"/>
		</g>
		<g id="shape205-180" v:mID="205" v:groupContext="shape" transform="translate(414,-15.0002) scale(-1,1)">
			<title>Sheet.205</title>
			<path d="M0 123.24 L0 188.76" class="st3"/>
		</g>
		<g id="shape206-185" v:mID="206" v:groupContext="shape" transform="translate(261,-87.0002)">
			<title>Rectangle.206</title>
			<v:userDefs>
				<v:ud v:nameU="visVersion" v:val="VT0(11):26"/>
			</v:userDefs>
			<rect x="0" y="141.24" width="63" height="54" class="st2"/>
		</g>
		<g id="shape208-187" v:mID="208" v:groupContext="shape" transform="translate(299.25,-109.5)">
			<title>Sheet.208</title>
			<desc>Cin</desc>
			<v:textBlock v:margins="rect(0,0,0,0)"/>
			<v:textRect cx="11.25" cy="190.74" width="22.5" height="9"/>
			<path d="M22.5 186.24 L0 186.24 L0 195.24 L22.5 195.24 L22.5 186.24" class="st5"/>
			<text x="7.5" y="193.74" class="st6" v:langID="1033"><v:paragraph v:horizAlign="2"/><v:tabList/>Cin</text>		</g>
		<g id="shape209-191" v:mID="209" v:groupContext="shape" transform="translate(279.563,-128.625)">
			<title>Sheet.209</title>
			<desc>A</desc>
			<v:textBlock v:margins="rect(0,0,0,0)"/>
			<v:textRect cx="9" cy="190.74" width="18" height="9"/>
			<path d="M18 186.24 L0 186.24 L0 195.24 L18 195.24 L18 186.24" class="st5"/>
			<text x="0" y="193.74" class="st6" v:langID="1033"><v:paragraph/><v:tabList/>A</text>		</g>
		<g id="shape210-195" v:mID="210" v:groupContext="shape" transform="translate(302.063,-128.625)">
			<title>Sheet.210</title>
			<desc>B</desc>
			<v:textBlock v:margins="rect(0,0,0,0)"/>
			<v:textRect cx="9" cy="190.74" width="18" height="9"/>
			<path d="M18 186.24 L0 186.24 L0 195.24 L18 195.24 L18 186.24" class="st5"/>
			<text x="0" y="193.74" class="st6" v:langID="1033"><v:paragraph/><v:tabList/>B</text>		</g>
		<g id="shape211-199" v:mID="211" v:groupContext="shape" transform="translate(299.25,-91.5002)">
			<title>Sheet.211</title>
			<desc>Sum</desc>
			<v:textBlock v:margins="rect(0,0,0,0)"/>
			<v:textRect cx="13.5" cy="190.74" width="27" height="9"/>
			<path d="M27 186.24 L0 186.24 L0 195.24 L27 195.24 L27 186.24" class="st5"/>
			<text x="0" y="193.74" class="st6" v:langID="1033"><v:paragraph/><v:tabList/>Sum</text>		</g>
		<g id="shape212-203" v:mID="212" v:groupContext="shape" transform="translate(265.5,-91.5002)">
			<title>Sheet.212</title>
			<desc>G</desc>
			<v:textBlock v:margins="rect(0,0,0,0)"/>
			<v:textRect cx="9" cy="190.74" width="18" height="9"/>
			<path d="M18 186.24 L0 186.24 L0 195.24 L18 195.24 L18 186.24" class="st5"/>
			<text x="0" y="193.74" class="st6" v:langID="1033"><v:paragraph/><v:tabList/>G</text>		</g>
		<g id="shape213-207" v:mID="213" v:groupContext="shape" transform="translate(285.75,-91.5002)">
			<title>Sheet.213</title>
			<desc>P</desc>
			<v:textBlock v:margins="rect(0,0,0,0)"/>
			<v:textRect cx="9" cy="190.74" width="18" height="9"/>
			<path d="M18 186.24 L0 186.24 L0 195.24 L18 195.24 L18 186.24" class="st5"/>
			<text x="0" y="193.74" class="st6" v:langID="1033"><v:paragraph/><v:tabList/>P</text>		</g>
		<g id="shape214-211" v:mID="214" v:groupContext="shape" transform="translate(270,-71.2502) scale(-1,1)">
			<title>Sheet.214</title>
			<path d="M0 179.49 L0 188.76" class="st3"/>
		</g>
		<g id="shape218-216" v:mID="218" v:groupContext="shape" transform="translate(288,-71.2502) scale(-1,1)">
			<title>Sheet.218</title>
			<path d="M0 179.49 L0 188.76" class="st3"/>
		</g>
		<g id="shape219-221" v:mID="219" v:groupContext="shape" transform="translate(306,-15.0002) scale(-1,1)">
			<title>Sheet.219</title>
			<path d="M0 123.24 L0 188.76" class="st3"/>
		</g>
		<g id="shape181-226" v:mID="181" v:groupContext="shape" transform="translate(85.5,-35.2502)">
			<title>Rectangle.181</title>
			<v:userDefs>
				<v:ud v:nameU="visVersion" v:val="VT0(11):26"/>
			</v:userDefs>
			<rect x="0" y="159.24" width="324" height="36" class="st2"/>
		</g>
		<g id="shape186-228" v:mID="186" v:groupContext="shape" transform="translate(337.5,-71.2502) scale(-1,1)">
			<title>Sheet.186</title>
			<path d="M0 195.24 L0 152.49 L4.5 152.49 L7.02 152.49" class="st3"/>
		</g>
		<g id="shape187-233" v:mID="187" v:groupContext="shape" transform="translate(148.5,-1.50018)">
			<title>Sheet.187</title>
			<desc>S(7)</desc>
			<v:textBlock v:margins="rect(0,0,0,0)"/>
			<v:textRect cx="13.5" cy="190.74" width="27" height="9"/>
			<path d="M27 186.24 L0 186.24 L0 195.24 L27 195.24 L27 186.24" class="st5"/>
			<text x="4.05" y="193.74" class="st6" v:langID="1033"><v:paragraph v:horizAlign="1"/><v:tabList/>S(7)</text>		</g>
		<g id="shape196-237" v:mID="196" v:groupContext="shape" transform="translate(292.5,-1.50018)">
			<title>Sheet.196</title>
			<desc>S(1)</desc>
			<v:textBlock v:margins="rect(0,0,0,0)"/>
			<v:textRect cx="13.5" cy="190.74" width="27" height="9"/>
			<path d="M27 186.24 L0 186.24 L0 195.24 L27 195.24 L27 186.24" class="st5"/>
			<text x="4.05" y="193.74" class="st6" v:langID="1033"><v:paragraph v:horizAlign="1"/><v:tabList/>S(1)</text>		</g>
		<g id="shape207-241" v:mID="207" v:groupContext="shape" transform="translate(400.5,-1.50018)">
			<title>Sheet.207</title>
			<desc>S(0)</desc>
			<v:textBlock v:margins="rect(0,0,0,0)"/>
			<v:textRect cx="13.5" cy="190.74" width="27" height="9"/>
			<path d="M27 186.24 L0 186.24 L0 195.24 L27 195.24 L27 186.24" class="st5"/>
			<text x="4.05" y="193.74" class="st6" v:langID="1033"><v:paragraph v:horizAlign="1"/><v:tabList/>S(0)</text>		</g>
		<g id="shape215-245" v:mID="215" v:groupContext="shape" transform="translate(454.5,-100.5) scale(-1,1)">
			<title>Sheet.215</title>
			<path d="M0 195.24 L0 181.74 L7.5 181.74 L16.02 181.74" class="st3"/>
		</g>
		<g id="shape216-250" v:mID="216" v:groupContext="shape" transform="translate(186.75,-39.7502)">
			<title>Sheet.216</title>
			<desc>Carry Propagate-Generate Circuit</desc>
			<v:textBlock v:margins="rect(0,0,0,0)"/>
			<v:textRect cx="49.5" cy="181.74" width="99" height="27"/>
			<path d="M99 168.24 L0 168.24 L0 195.24 L99 195.24 L99 168.24" class="st5"/>
			<text x="11.15" y="178.74" class="st6" v:langID="1033"><v:paragraph v:horizAlign="1"/><v:tabList/>Carry Propagate-<tspan
						x="13.1" dy="1.2em" class="st13">Generate Circuit</tspan></text>		</g>
		<g id="shape217-255" v:mID="217" v:groupContext="shape" transform="translate(101.25,-71.2502) scale(-1,1)">
			<title>Sheet.217</title>
			<path d="M0 195.24 L0 179.49 L13.5 179.49 L34.02 179.49" class="st3"/>
		</g>
		<g id="shape220-260" v:mID="220" v:groupContext="shape" transform="translate(0,-78.0002)">
			<title>Sheet.220</title>
			<desc>Carry out to next stage</desc>
			<v:textBlock v:margins="rect(0,0,0,0)"/>
			<v:textRect cx="31.5" cy="190.74" width="63" height="9"/>
			<path d="M63 186.24 L0 186.24 L0 195.24 L63 195.24 L63 186.24" class="st5"/>
			<text x="5.38" y="187.74" class="st6" v:langID="1033"><v:paragraph v:horizAlign="1"/><v:tabList/>Carry out to <tspan
						x="8.43" dy="1.2em" class="st13">next stage</tspan></text>		</g>
		<g id="shape221-265" v:mID="221" v:groupContext="shape" transform="translate(162,-35.2502) scale(-1,1)">
			<title>Sheet.221</title>
			<path d="M0 159.24 L0 195.24" class="st14"/>
		</g>
		<g id="shape222-268" v:mID="222" v:groupContext="shape" transform="translate(306,-35.2502) scale(-1,1)">
			<title>Sheet.222</title>
			<path d="M0 159.24 L0 195.24" class="st14"/>
		</g>
	</g>
</svg>
