<?xml version="1.0" encoding="UTF-8" standalone="no"?>
<!DOCTYPE svg PUBLIC "-//W3C//DTD SVG 1.1//EN" "http://www.w3.org/Graphics/SVG/1.1/DTD/svg11.dtd">
<!-- Generated by Microsoft Visio, SVG Export combinedcircuit.svg Page-1 -->
<svg xmlns="http://www.w3.org/2000/svg" xmlns:xlink="http://www.w3.org/1999/xlink" xmlns:ev="http://www.w3.org/2001/xml-events"
		xmlns:v="http://schemas.microsoft.com/visio/2003/SVGExtensions/" width="2.68219in" height="2.99985in"
		viewBox="0 0 193.118 215.99" xml:space="preserve" color-interpolation-filters="sRGB" class="st9">
	<v:documentProperties v:langID="1033" v:viewMarkup="false">
		<v:userDefs>
			<v:ud v:nameU="msvConvertTheme"/>
		</v:userDefs>
	</v:documentProperties>

	<style type="text/css">
	<![CDATA[
		.st1 {fill:#c2dafa;stroke:none;stroke-linecap:round;stroke-linejoin:round;stroke-width:0.24}
		.st2 {stroke:none;stroke-linecap:round;stroke-linejoin:round;stroke-width:0.75}
		.st3 {fill:#000000;font-family:Arial;font-size:0.833336em}
		.st4 {stroke:#000000;stroke-linecap:round;stroke-linejoin:round;stroke-width:0.74268}
		.st5 {fill:#000000;stroke:#000000;stroke-linecap:round;stroke-linejoin:round;stroke-width:0.24}
		.st6 {stroke:#9a9a9a;stroke-linecap:round;stroke-linejoin:round;stroke-width:2.16}
		.st7 {fill:#000000;font-family:Arial;font-size:0.75em}
		.st8 {font-size:1em}
		.st9 {fill:none;fill-rule:evenodd;font-size:12px;overflow:visible;stroke-linecap:square;stroke-miterlimit:3}
	]]>
	</style>

	<g v:mID="0" v:index="1" v:groupContext="foregroundPage">
		<title>Page-1</title>
		<v:pageProperties v:drawingScale="1" v:pageScale="1" v:drawingUnits="19" v:shadowOffsetX="9" v:shadowOffsetY="-9"/>
		<g id="shape66-1" v:mID="66" v:groupContext="shape" transform="translate(59.625,-85.2495)">
			<title>Rectangle.11</title>
			<v:userDefs>
				<v:ud v:nameU="visVersion" v:val="VT0(11):26"/>
			</v:userDefs>
			<rect x="0" y="157.49" width="36" height="58.5" class="st1"/>
		</g>
		<g id="shape54-3" v:mID="54" v:groupContext="shape" transform="translate(61.875,-130.812)">
			<title>Sheet.54</title>
			<desc>A</desc>
			<v:textBlock v:margins="rect(0,0,0,0)"/>
			<v:textRect cx="5.625" cy="211.49" width="11.25" height="9"/>
			<path d="M11.25 206.99 L0 206.99 L0 215.99 L11.25 215.99 L11.25 206.99" class="st2"/>
			<text x="0" y="214.49" class="st3" v:langID="1033"><v:paragraph/><v:tabList/>A</text>		</g>
		<g id="shape58-7" v:mID="58" v:groupContext="shape" transform="translate(50.625,-134.75)">
			<title>Sheet.58</title>
			<path d="M9 215.99 L0 215.99" class="st4"/>
		</g>
		<g id="shape71-10" v:mID="71" v:groupContext="shape" transform="translate(61.875,-116.75)">
			<title>Sheet.71</title>
			<desc>B</desc>
			<v:textBlock v:margins="rect(0,0,0,0)"/>
			<v:textRect cx="5.625" cy="211.49" width="11.25" height="9"/>
			<path d="M11.25 206.99 L0 206.99 L0 215.99 L11.25 215.99 L11.25 206.99" class="st2"/>
			<text x="0" y="214.49" class="st3" v:langID="1033"><v:paragraph/><v:tabList/>B</text>		</g>
		<g id="shape72-14" v:mID="72" v:groupContext="shape" transform="translate(41.625,-121.25)">
			<title>Sheet.72</title>
			<path d="M18 215.99 L0 215.99" class="st4"/>
		</g>
		<g id="shape73-17" v:mID="73" v:groupContext="shape" transform="translate(61.875,-103.25)">
			<title>Sheet.73</title>
			<desc>C</desc>
			<v:textBlock v:margins="rect(0,0,0,0)"/>
			<v:textRect cx="5.625" cy="211.49" width="11.25" height="9"/>
			<path d="M11.25 206.99 L0 206.99 L0 215.99 L11.25 215.99 L11.25 206.99" class="st2"/>
			<text x="0" y="214.49" class="st3" v:langID="1033"><v:paragraph/><v:tabList/>C</text>		</g>
		<g id="shape74-21" v:mID="74" v:groupContext="shape" transform="translate(32.625,-107.75)">
			<title>Sheet.74</title>
			<path d="M27 215.99 L0 215.99" class="st4"/>
		</g>
		<g id="shape75-24" v:mID="75" v:groupContext="shape" transform="translate(61.875,-89.7495)">
			<title>Sheet.75</title>
			<desc>D</desc>
			<v:textBlock v:margins="rect(0,0,0,0)"/>
			<v:textRect cx="5.625" cy="211.49" width="11.25" height="9"/>
			<path d="M11.25 206.99 L0 206.99 L0 215.99 L11.25 215.99 L11.25 206.99" class="st2"/>
			<text x="0" y="214.49" class="st3" v:langID="1033"><v:paragraph/><v:tabList/>D</text>		</g>
		<g id="shape76-28" v:mID="76" v:groupContext="shape" transform="translate(23.625,-94.2495)">
			<title>Sheet.76</title>
			<path d="M36 215.99 L0 215.99" class="st4"/>
		</g>
		<g id="shape77-31" v:mID="77" v:groupContext="shape" transform="translate(95.625,-114.5)">
			<title>Sheet.77</title>
			<path d="M11.25 215.99 L0 215.99" class="st4"/>
		</g>
		<g id="shape78-34" v:mID="78" v:groupContext="shape" transform="translate(82.125,-110)">
			<title>Sheet.78</title>
			<desc>Y</desc>
			<v:textBlock v:margins="rect(0,0,0,0)"/>
			<v:textRect cx="5.625" cy="211.49" width="11.25" height="9"/>
			<path d="M11.25 206.99 L0 206.99 L0 215.99 L11.25 215.99 L11.25 206.99" class="st2"/>
			<text x="4.58" y="214.49" class="st3" v:langID="1033"><v:paragraph v:horizAlign="2"/><v:tabList/>Y</text>		</g>
		<g id="shape79-38" v:mID="79" v:groupContext="shape" transform="translate(59.625,-157.25)">
			<title>Rectangle.79</title>
			<v:userDefs>
				<v:ud v:nameU="visVersion" v:val="VT0(11):26"/>
			</v:userDefs>
			<rect x="0" y="157.49" width="36" height="58.5" class="st1"/>
		</g>
		<g id="shape80-40" v:mID="80" v:groupContext="shape" transform="translate(61.875,-202.812)">
			<title>Sheet.80</title>
			<desc>A</desc>
			<v:textBlock v:margins="rect(0,0,0,0)"/>
			<v:textRect cx="5.625" cy="211.49" width="11.25" height="9"/>
			<path d="M11.25 206.99 L0 206.99 L0 215.99 L11.25 215.99 L11.25 206.99" class="st2"/>
			<text x="0" y="214.49" class="st3" v:langID="1033"><v:paragraph/><v:tabList/>A</text>		</g>
		<g id="shape81-44" v:mID="81" v:groupContext="shape" transform="translate(14.625,-206.75)">
			<title>Sheet.81</title>
			<path d="M45 215.99 L0 215.99" class="st4"/>
		</g>
		<g id="shape82-47" v:mID="82" v:groupContext="shape" transform="translate(61.875,-188.75)">
			<title>Sheet.82</title>
			<desc>B</desc>
			<v:textBlock v:margins="rect(0,0,0,0)"/>
			<v:textRect cx="5.625" cy="211.49" width="11.25" height="9"/>
			<path d="M11.25 206.99 L0 206.99 L0 215.99 L11.25 215.99 L11.25 206.99" class="st2"/>
			<text x="0" y="214.49" class="st3" v:langID="1033"><v:paragraph/><v:tabList/>B</text>		</g>
		<g id="shape83-51" v:mID="83" v:groupContext="shape" transform="translate(14.625,-193.25)">
			<title>Sheet.83</title>
			<path d="M45 215.99 L0 215.99" class="st4"/>
		</g>
		<g id="shape84-54" v:mID="84" v:groupContext="shape" transform="translate(61.875,-175.25)">
			<title>Sheet.84</title>
			<desc>C</desc>
			<v:textBlock v:margins="rect(0,0,0,0)"/>
			<v:textRect cx="5.625" cy="211.49" width="11.25" height="9"/>
			<path d="M11.25 206.99 L0 206.99 L0 215.99 L11.25 215.99 L11.25 206.99" class="st2"/>
			<text x="0" y="214.49" class="st3" v:langID="1033"><v:paragraph/><v:tabList/>C</text>		</g>
		<g id="shape85-58" v:mID="85" v:groupContext="shape" transform="translate(14.625,-179.75)">
			<title>Sheet.85</title>
			<path d="M45 215.99 L0 215.99" class="st4"/>
		</g>
		<g id="shape86-61" v:mID="86" v:groupContext="shape" transform="translate(61.875,-161.75)">
			<title>Sheet.86</title>
			<desc>D</desc>
			<v:textBlock v:margins="rect(0,0,0,0)"/>
			<v:textRect cx="5.625" cy="211.49" width="11.25" height="9"/>
			<path d="M11.25 206.99 L0 206.99 L0 215.99 L11.25 215.99 L11.25 206.99" class="st2"/>
			<text x="0" y="214.49" class="st3" v:langID="1033"><v:paragraph/><v:tabList/>D</text>		</g>
		<g id="shape87-65" v:mID="87" v:groupContext="shape" transform="translate(14.625,-166.25)">
			<title>Sheet.87</title>
			<path d="M45 215.99 L0 215.99" class="st4"/>
		</g>
		<g id="shape88-68" v:mID="88" v:groupContext="shape" transform="translate(95.625,-186.5)">
			<title>Sheet.88</title>
			<path d="M11.25 215.99 L0 215.99" class="st4"/>
		</g>
		<g id="shape89-71" v:mID="89" v:groupContext="shape" transform="translate(82.125,-182)">
			<title>Sheet.89</title>
			<desc>X</desc>
			<v:textBlock v:margins="rect(0,0,0,0)"/>
			<v:textRect cx="5.625" cy="211.49" width="11.25" height="9"/>
			<path d="M11.25 206.99 L0 206.99 L0 215.99 L11.25 215.99 L11.25 206.99" class="st2"/>
			<text x="4.58" y="214.49" class="st3" v:langID="1033"><v:paragraph v:horizAlign="2"/><v:tabList/>X</text>		</g>
		<g id="shape90-75" v:mID="90" v:groupContext="shape" transform="translate(59.625,-10.9995)">
			<title>Rectangle.90</title>
			<v:userDefs>
				<v:ud v:nameU="visVersion" v:val="VT0(11):26"/>
			</v:userDefs>
			<rect x="0" y="157.49" width="36" height="58.5" class="st1"/>
		</g>
		<g id="shape91-77" v:mID="91" v:groupContext="shape" transform="translate(61.875,-56.562)">
			<title>Sheet.91</title>
			<desc>A</desc>
			<v:textBlock v:margins="rect(0,0,0,0)"/>
			<v:textRect cx="5.625" cy="211.49" width="11.25" height="9"/>
			<path d="M11.25 206.99 L0 206.99 L0 215.99 L11.25 215.99 L11.25 206.99" class="st2"/>
			<text x="0" y="214.49" class="st3" v:langID="1033"><v:paragraph/><v:tabList/>A</text>		</g>
		<g id="shape92-81" v:mID="92" v:groupContext="shape" transform="translate(50.625,-60.4995)">
			<title>Sheet.92</title>
			<path d="M9 215.99 L0 215.99" class="st4"/>
		</g>
		<g id="shape93-84" v:mID="93" v:groupContext="shape" transform="translate(61.875,-42.4995)">
			<title>Sheet.93</title>
			<desc>B</desc>
			<v:textBlock v:margins="rect(0,0,0,0)"/>
			<v:textRect cx="5.625" cy="211.49" width="11.25" height="9"/>
			<path d="M11.25 206.99 L0 206.99 L0 215.99 L11.25 215.99 L11.25 206.99" class="st2"/>
			<text x="0" y="214.49" class="st3" v:langID="1033"><v:paragraph/><v:tabList/>B</text>		</g>
		<g id="shape94-88" v:mID="94" v:groupContext="shape" transform="translate(41.625,-46.9995)">
			<title>Sheet.94</title>
			<path d="M18 215.99 L0 215.99" class="st4"/>
		</g>
		<g id="shape95-91" v:mID="95" v:groupContext="shape" transform="translate(61.875,-28.9995)">
			<title>Sheet.95</title>
			<desc>C</desc>
			<v:textBlock v:margins="rect(0,0,0,0)"/>
			<v:textRect cx="5.625" cy="211.49" width="11.25" height="9"/>
			<path d="M11.25 206.99 L0 206.99 L0 215.99 L11.25 215.99 L11.25 206.99" class="st2"/>
			<text x="0" y="214.49" class="st3" v:langID="1033"><v:paragraph/><v:tabList/>C</text>		</g>
		<g id="shape96-95" v:mID="96" v:groupContext="shape" transform="translate(32.625,-33.4995)">
			<title>Sheet.96</title>
			<path d="M27 215.99 L0 215.99" class="st4"/>
		</g>
		<g id="shape99-98" v:mID="99" v:groupContext="shape" transform="translate(95.625,-40.2495)">
			<title>Sheet.99</title>
			<path d="M11.25 215.99 L0 215.99" class="st4"/>
		</g>
		<g id="shape97-101" v:mID="97" v:groupContext="shape" transform="translate(82.125,-35.7495)">
			<title>Sheet.97</title>
			<desc>Z</desc>
			<v:textBlock v:margins="rect(0,0,0,0)"/>
			<v:textRect cx="5.625" cy="211.49" width="11.25" height="9"/>
			<path d="M11.25 206.99 L0 206.99 L0 215.99 L11.25 215.99 L11.25 206.99" class="st2"/>
			<text x="5.14" y="214.49" class="st3" v:langID="1033"><v:paragraph v:horizAlign="2"/><v:tabList/>Z</text>		</g>
		<g id="shape98-105" v:mID="98" v:groupContext="shape" transform="translate(145.125,-85.2495)">
			<title>Rectangle.98</title>
			<v:userDefs>
				<v:ud v:nameU="visVersion" v:val="VT0(11):26"/>
			</v:userDefs>
			<rect x="0" y="157.49" width="36" height="58.5" class="st1"/>
		</g>
		<g id="shape100-107" v:mID="100" v:groupContext="shape" transform="translate(147.375,-130.812)">
			<title>Sheet.100</title>
			<desc>A</desc>
			<v:textBlock v:margins="rect(0,0,0,0)"/>
			<v:textRect cx="5.625" cy="211.49" width="11.25" height="9"/>
			<path d="M11.25 206.99 L0 206.99 L0 215.99 L11.25 215.99 L11.25 206.99" class="st2"/>
			<text x="0" y="214.49" class="st3" v:langID="1033"><v:paragraph/><v:tabList/>A</text>		</g>
		<g id="shape101-111" v:mID="101" v:groupContext="shape" transform="translate(133.875,-134.75)">
			<title>Sheet.101</title>
			<path d="M11.25 215.99 L0 215.99" class="st4"/>
		</g>
		<g id="shape102-114" v:mID="102" v:groupContext="shape" transform="translate(147.375,-116.75)">
			<title>Sheet.102</title>
			<desc>B</desc>
			<v:textBlock v:margins="rect(0,0,0,0)"/>
			<v:textRect cx="5.625" cy="211.49" width="11.25" height="9"/>
			<path d="M11.25 206.99 L0 206.99 L0 215.99 L11.25 215.99 L11.25 206.99" class="st2"/>
			<text x="0" y="214.49" class="st3" v:langID="1033"><v:paragraph/><v:tabList/>B</text>		</g>
		<g id="shape103-118" v:mID="103" v:groupContext="shape" transform="translate(133.875,-121.25)">
			<title>Sheet.103</title>
			<path d="M11.25 215.99 L0 215.99" class="st4"/>
		</g>
		<g id="shape104-121" v:mID="104" v:groupContext="shape" transform="translate(147.375,-103.25)">
			<title>Sheet.104</title>
			<desc>C</desc>
			<v:textBlock v:margins="rect(0,0,0,0)"/>
			<v:textRect cx="5.625" cy="211.49" width="11.25" height="9"/>
			<path d="M11.25 206.99 L0 206.99 L0 215.99 L11.25 215.99 L11.25 206.99" class="st2"/>
			<text x="0" y="214.49" class="st3" v:langID="1033"><v:paragraph/><v:tabList/>C</text>		</g>
		<g id="shape105-125" v:mID="105" v:groupContext="shape" transform="translate(133.875,-107.75)">
			<title>Sheet.105</title>
			<path d="M11.25 215.99 L0 215.99" class="st4"/>
		</g>
		<g id="shape106-128" v:mID="106" v:groupContext="shape" transform="translate(147.375,-89.7495)">
			<title>Sheet.106</title>
			<desc>D</desc>
			<v:textBlock v:margins="rect(0,0,0,0)"/>
			<v:textRect cx="5.625" cy="211.49" width="11.25" height="9"/>
			<path d="M11.25 206.99 L0 206.99 L0 215.99 L11.25 215.99 L11.25 206.99" class="st2"/>
			<text x="0" y="214.49" class="st3" v:langID="1033"><v:paragraph/><v:tabList/>D</text>		</g>
		<g id="shape107-132" v:mID="107" v:groupContext="shape" transform="translate(133.875,-94.2495)">
			<title>Sheet.107</title>
			<path d="M11.25 215.99 L0 215.99" class="st4"/>
		</g>
		<g id="shape108-135" v:mID="108" v:groupContext="shape" transform="translate(181.125,-114.5)">
			<title>Sheet.108</title>
			<path d="M11.25 215.99 L0 215.99" class="st4"/>
		</g>
		<g id="shape109-138" v:mID="109" v:groupContext="shape" transform="translate(167.625,-110)">
			<title>Sheet.109</title>
			<desc>Y</desc>
			<v:textBlock v:margins="rect(0,0,0,0)"/>
			<v:textRect cx="5.625" cy="211.49" width="11.25" height="9"/>
			<path d="M11.25 206.99 L0 206.99 L0 215.99 L11.25 215.99 L11.25 206.99" class="st2"/>
			<text x="4.58" y="214.49" class="st3" v:langID="1033"><v:paragraph v:horizAlign="2"/><v:tabList/>Y</text>		</g>
		<g id="shape110-142" v:mID="110" v:groupContext="shape" transform="translate(181.125,-128)">
			<title>Sheet.110</title>
			<path d="M11.25 215.99 L0 215.99" class="st4"/>
		</g>
		<g id="shape111-145" v:mID="111" v:groupContext="shape" transform="translate(167.625,-123.5)">
			<title>Sheet.111</title>
			<desc>X</desc>
			<v:textBlock v:margins="rect(0,0,0,0)"/>
			<v:textRect cx="5.625" cy="211.49" width="11.25" height="9"/>
			<path d="M11.25 206.99 L0 206.99 L0 215.99 L11.25 215.99 L11.25 206.99" class="st2"/>
			<text x="4.58" y="214.49" class="st3" v:langID="1033"><v:paragraph v:horizAlign="2"/><v:tabList/>X</text>		</g>
		<g id="shape112-149" v:mID="112" v:groupContext="shape" transform="translate(181.125,-101)">
			<title>Sheet.112</title>
			<path d="M11.25 215.99 L0 215.99" class="st4"/>
		</g>
		<g id="shape113-152" v:mID="113" v:groupContext="shape" transform="translate(167.625,-96.4995)">
			<title>Sheet.113</title>
			<desc>Z</desc>
			<v:textBlock v:margins="rect(0,0,0,0)"/>
			<v:textRect cx="5.625" cy="211.49" width="11.25" height="9"/>
			<path d="M11.25 206.99 L0 206.99 L0 215.99 L11.25 215.99 L11.25 206.99" class="st2"/>
			<text x="5.14" y="214.49" class="st3" v:langID="1033"><v:paragraph v:horizAlign="2"/><v:tabList/>Z</text>		</g>
		<g id="shape114-156" v:mID="114" v:groupContext="shape" transform="translate(50.625,-60.4995)">
			<title>Sheet.114</title>
			<path d="M0 69.74 L0 215.99" class="st4"/>
		</g>
		<g id="shape115-159" v:mID="115" v:groupContext="shape" transform="translate(41.625,-46.9995)">
			<title>Sheet.115</title>
			<path d="M0 69.74 L0 215.99" class="st4"/>
		</g>
		<g id="shape116-162" v:mID="116" v:groupContext="shape" transform="translate(32.625,-33.4995)">
			<title>Sheet.116</title>
			<path d="M0 69.74 L0 215.99" class="st4"/>
		</g>
		<g id="shape117-165" v:mID="117" v:groupContext="shape" transform="translate(23.625,-19.9995)">
			<title>Sheet.117</title>
			<path d="M0 69.74 L0 215.99" class="st4"/>
		</g>
		<g id="shape118-168" v:mID="118" v:groupContext="shape" transform="translate(49.7813,-205.906)">
			<title>Circle.118</title>
			<v:userDefs>
				<v:ud v:nameU="visVersion" v:val="VT0(11):26"/>
			</v:userDefs>
			<path d="M0 215.15 a0.84375 0.84375 0 0 1 1.6875 0 a0.84375 0.84375 0 1 1 -1.6875 0 Z" class="st5"/>
		</g>
		<g id="shape119-170" v:mID="119" v:groupContext="shape" transform="translate(40.7813,-192.406)">
			<title>Circle.119</title>
			<v:userDefs>
				<v:ud v:nameU="visVersion" v:val="VT0(11):26"/>
			</v:userDefs>
			<path d="M0 215.15 a0.84375 0.84375 0 0 1 1.6875 0 a0.84375 0.84375 0 1 1 -1.6875 0 Z" class="st5"/>
		</g>
		<g id="shape120-172" v:mID="120" v:groupContext="shape" transform="translate(31.7813,-178.906)">
			<title>Circle.120</title>
			<v:userDefs>
				<v:ud v:nameU="visVersion" v:val="VT0(11):26"/>
			</v:userDefs>
			<path d="M0 215.15 a0.84375 0.84375 0 0 1 1.6875 0 a0.84375 0.84375 0 1 1 -1.6875 0 Z" class="st5"/>
		</g>
		<g id="shape121-174" v:mID="121" v:groupContext="shape" transform="translate(22.7813,-165.406)">
			<title>Circle.121</title>
			<v:userDefs>
				<v:ud v:nameU="visVersion" v:val="VT0(11):26"/>
			</v:userDefs>
			<path d="M0 215.15 a0.84375 0.84375 0 0 1 1.6875 0 a0.84375 0.84375 0 1 1 -1.6875 0 Z" class="st5"/>
		</g>
		<g id="shape122-176" v:mID="122" v:groupContext="shape" transform="translate(31.7813,-106.906)">
			<title>Circle.122</title>
			<v:userDefs>
				<v:ud v:nameU="visVersion" v:val="VT0(11):26"/>
			</v:userDefs>
			<path d="M0 215.15 a0.84375 0.84375 0 0 1 1.6875 0 a0.84375 0.84375 0 1 1 -1.6875 0 Z" class="st5"/>
		</g>
		<g id="shape123-178" v:mID="123" v:groupContext="shape" transform="translate(40.7813,-120.406)">
			<title>Circle.123</title>
			<v:userDefs>
				<v:ud v:nameU="visVersion" v:val="VT0(11):26"/>
			</v:userDefs>
			<path d="M0 215.15 a0.84375 0.84375 0 0 1 1.6875 0 a0.84375 0.84375 0 1 1 -1.6875 0 Z" class="st5"/>
		</g>
		<g id="shape124-180" v:mID="124" v:groupContext="shape" transform="translate(49.7813,-133.906)">
			<title>Circle.124</title>
			<v:userDefs>
				<v:ud v:nameU="visVersion" v:val="VT0(11):26"/>
			</v:userDefs>
			<path d="M0 215.15 a0.84375 0.84375 0 0 1 1.6875 0 a0.84375 0.84375 0 1 1 -1.6875 0 Z" class="st5"/>
		</g>
		<g id="shape125-182" v:mID="125" v:groupContext="shape" transform="translate(0,-202.812)">
			<title>Sheet.125</title>
			<desc>A</desc>
			<v:textBlock v:margins="rect(0,0,0,0)"/>
			<v:textRect cx="5.625" cy="211.49" width="11.25" height="9"/>
			<path d="M11.25 206.99 L0 206.99 L0 215.99 L11.25 215.99 L11.25 206.99" class="st2"/>
			<text x="4.58" y="214.49" class="st3" v:langID="1033"><v:paragraph v:horizAlign="2"/><v:tabList/>A</text>		</g>
		<g id="shape126-186" v:mID="126" v:groupContext="shape" transform="translate(0,-188.75)">
			<title>Sheet.126</title>
			<desc>B</desc>
			<v:textBlock v:margins="rect(0,0,0,0)"/>
			<v:textRect cx="5.625" cy="211.49" width="11.25" height="9"/>
			<path d="M11.25 206.99 L0 206.99 L0 215.99 L11.25 215.99 L11.25 206.99" class="st2"/>
			<text x="4.58" y="214.49" class="st3" v:langID="1033"><v:paragraph v:horizAlign="2"/><v:tabList/>B</text>		</g>
		<g id="shape127-190" v:mID="127" v:groupContext="shape" transform="translate(0,-175.25)">
			<title>Sheet.127</title>
			<desc>C</desc>
			<v:textBlock v:margins="rect(0,0,0,0)"/>
			<v:textRect cx="5.625" cy="211.49" width="11.25" height="9"/>
			<path d="M11.25 206.99 L0 206.99 L0 215.99 L11.25 215.99 L11.25 206.99" class="st2"/>
			<text x="4.03" y="214.49" class="st3" v:langID="1033"><v:paragraph v:horizAlign="2"/><v:tabList/>C</text>		</g>
		<g id="shape128-194" v:mID="128" v:groupContext="shape" transform="translate(0,-161.75)">
			<title>Sheet.128</title>
			<desc>D</desc>
			<v:textBlock v:margins="rect(0,0,0,0)"/>
			<v:textRect cx="5.625" cy="211.49" width="11.25" height="9"/>
			<path d="M11.25 206.99 L0 206.99 L0 215.99 L11.25 215.99 L11.25 206.99" class="st2"/>
			<text x="4.03" y="214.49" class="st3" v:langID="1033"><v:paragraph v:horizAlign="2"/><v:tabList/>D</text>		</g>
		<g id="shape129-198" v:mID="129" v:groupContext="shape" transform="translate(113.625,-35.7495)">
			<title>Sheet.129</title>
			<path d="M0 60.74 A4.5 3.93038 0 0 1 4.5 64.67 L4.5 133.45 A4.5 3.93038 -180 0 0 9 137.38 A4.5 3.93038 0 0 0 4.5 141.31
						 L4.5 212.06 A4.5 3.93038 0 0 1 0 215.99" class="st6"/>
		</g>
		<g id="shape130-201" v:mID="130" v:groupContext="shape" transform="translate(59.625,-147.125)">
			<title>Sheet.130</title>
			<desc>Circuit 1</desc>
			<v:textBlock v:margins="rect(0,0,0,0)"/>
			<v:textRect cx="20.25" cy="210.927" width="40.5" height="10.125"/>
			<path d="M40.5 205.86 L0 205.86 L0 215.99 L40.5 215.99 L40.5 205.86" class="st2"/>
			<text x="0" y="213.63" class="st7" v:langID="1033"><v:paragraph/><v:tabList/>Circuit 1</text>		</g>
		<g id="shape131-205" v:mID="131" v:groupContext="shape" transform="translate(61.875,-15.4995)">
			<title>Sheet.131</title>
			<desc>D</desc>
			<v:textBlock v:margins="rect(0,0,0,0)"/>
			<v:textRect cx="5.625" cy="211.49" width="11.25" height="9"/>
			<path d="M11.25 206.99 L0 206.99 L0 215.99 L11.25 215.99 L11.25 206.99" class="st2"/>
			<text x="0" y="214.49" class="st3" v:langID="1033"><v:paragraph/><v:tabList/>D</text>		</g>
		<g id="shape132-209" v:mID="132" v:groupContext="shape" transform="translate(23.625,-19.9995)">
			<title>Sheet.132</title>
			<path d="M36 215.99 L0 215.99" class="st4"/>
		</g>
		<g id="shape133-212" v:mID="133" v:groupContext="shape" transform="translate(22.7813,-93.4058)">
			<title>Circle.133</title>
			<v:userDefs>
				<v:ud v:nameU="visVersion" v:val="VT0(11):26"/>
			</v:userDefs>
			<path d="M0 215.15 a0.84375 0.84375 0 0 1 1.6875 0 a0.84375 0.84375 0 1 1 -1.6875 0 Z" class="st5"/>
		</g>
		<g id="shape134-214" v:mID="134" v:groupContext="shape" transform="translate(59.625,-75.1245)">
			<title>Sheet.134</title>
			<desc>Circuit 2</desc>
			<v:textBlock v:margins="rect(0,0,0,0)"/>
			<v:textRect cx="20.25" cy="210.927" width="40.5" height="10.125"/>
			<path d="M40.5 205.86 L0 205.86 L0 215.99 L40.5 215.99 L40.5 205.86" class="st2"/>
			<text x="0" y="213.63" class="st7" v:langID="1033"><v:paragraph/><v:tabList/>Circuit 2</text>		</g>
		<g id="shape135-218" v:mID="135" v:groupContext="shape" transform="translate(59.625,-0.874512)">
			<title>Sheet.135</title>
			<desc>Circuit 3</desc>
			<v:textBlock v:margins="rect(0,0,0,0)"/>
			<v:textRect cx="20.25" cy="210.927" width="40.5" height="10.125"/>
			<path d="M40.5 205.86 L0 205.86 L0 215.99 L40.5 215.99 L40.5 205.86" class="st2"/>
			<text x="0" y="213.63" class="st7" v:langID="1033"><v:paragraph/><v:tabList/>Circuit 3</text>		</g>
		<g id="shape136-222" v:mID="136" v:groupContext="shape" transform="translate(145.125,-64.9995)">
			<title>Sheet.136</title>
			<desc>Combined Circuit</desc>
			<v:textBlock v:margins="rect(0,0,0,0)"/>
			<v:textRect cx="22.5" cy="205.865" width="45" height="20.25"/>
			<path d="M45 195.74 L0 195.74 L0 215.99 L45 215.99 L45 195.74" class="st2"/>
			<text x="0" y="203.16" class="st7" v:langID="1033"><v:paragraph/><v:tabList/>Combined <tspan x="0" dy="1.2em"
						class="st8">Circuit</tspan></text>		</g>
	</g>
</svg>
