<?xml version="1.0" encoding="UTF-8" standalone="no"?>
<!DOCTYPE svg PUBLIC "-//W3C//DTD SVG 1.1//EN" "http://www.w3.org/Graphics/SVG/1.1/DTD/svg11.dtd">
<!-- Generated by Microsoft Visio, SVG Export demultiplexor.svg Page-1 -->
<svg xmlns="http://www.w3.org/2000/svg" xmlns:xlink="http://www.w3.org/1999/xlink" xmlns:ev="http://www.w3.org/2001/xml-events"
		xmlns:v="http://schemas.microsoft.com/visio/2003/SVGExtensions/" width="3.78125in" height="1.78084in"
		viewBox="0 0 272.25 128.22" xml:space="preserve" color-interpolation-filters="sRGB" class="st8">
	<v:documentProperties v:langID="1033" v:viewMarkup="false">
		<v:userDefs>
			<v:ud v:nameU="msvConvertTheme"/>
		</v:userDefs>
	</v:documentProperties>

	<style type="text/css">
	<![CDATA[
		.st1 {fill:#ffffff;stroke:#000000;stroke-linecap:round;stroke-linejoin:round;stroke-width:0.72}
		.st2 {stroke:#000000;stroke-linecap:round;stroke-linejoin:round;stroke-width:0.72}
		.st3 {fill:#000000;font-family:Arial;font-size:0.833336em}
		.st4 {stroke:#000000;stroke-linecap:round;stroke-linejoin:round;stroke-width:0.74268}
		.st5 {stroke:none;stroke-linecap:round;stroke-linejoin:round;stroke-width:0.75}
		.st6 {fill:#000000;stroke:#000000;stroke-linecap:round;stroke-linejoin:round;stroke-width:0.24}
		.st7 {font-size:1em}
		.st8 {fill:none;fill-rule:evenodd;font-size:12px;overflow:visible;stroke-linecap:square;stroke-miterlimit:3}
	]]>
	</style>

	<g v:mID="0" v:index="1" v:groupContext="foregroundPage">
		<title>Page-1</title>
		<v:pageProperties v:drawingScale="1" v:pageScale="1" v:drawingUnits="19" v:shadowOffsetX="9" v:shadowOffsetY="-9"/>
		<g id="shape17-1" v:mID="17" v:groupContext="shape" transform="translate(180,-62.2502)">
			<title>Ellipse.17</title>
			<v:userDefs>
				<v:ud v:nameU="visVersion" v:val="VT0(11):26"/>
			</v:userDefs>
			<path d="M0 119.22 A2.25 9 0 0 1 4.5 119.22 A2.25 9 0 1 1 0 119.22 Z" class="st1"/>
		</g>
		<g id="shape1-3" v:mID="1" v:groupContext="shape" transform="translate(36,-28.5002)">
			<title>Sheet.1</title>
			<path d="M27 44.64 L27 112.79 L0 128.22 L0 29.22 L27 44.64 Z" class="st1"/>
		</g>
		<g id="shape5-5" v:mID="5" v:groupContext="shape" transform="translate(36,142.44) rotate(180)">
			<title>Sheet.5</title>
			<path d="M0 128.22 L18 128.22" class="st2"/>
		</g>
		<g id="shape9-8" v:mID="9" v:groupContext="shape" transform="translate(18,-19.5002)">
			<title>Sheet.9</title>
			<path d="M27 114.72 L27 128.22 L0 128.22" class="st2"/>
		</g>
		<g id="shape10-11" v:mID="10" v:groupContext="shape" transform="translate(18,-6.00018)">
			<title>Sheet.10</title>
			<path d="M36 95.58 L36 128.22 L0 128.22" class="st2"/>
		</g>
		<g id="shape11-14" v:mID="11" v:groupContext="shape" transform="translate(86.0625,178.44) rotate(180)">
			<title>Sheet.11</title>
			<path d="M0 128.22 L23.06 128.22" class="st2"/>
		</g>
		<g id="shape12-17" v:mID="12" v:groupContext="shape" transform="translate(29.25,-108.375)">
			<title>Sheet.12</title>
			<desc>I3</desc>
			<v:textBlock v:margins="rect(0,0,0,0)"/>
			<v:textRect cx="9" cy="124.845" width="18" height="6.75"/>
			<text x="9.66" y="127.85" class="st3" v:langID="1033"><v:paragraph v:horizAlign="2"/><v:tabList/>I3</text>		</g>
		<g id="shape15-19" v:mID="15" v:groupContext="shape" transform="translate(0,-2.62518)">
			<title>Sheet.15</title>
			<desc>S0</desc>
			<v:textBlock v:margins="rect(0,0,0,0)"/>
			<v:textRect cx="7.875" cy="124.845" width="15.75" height="6.75"/>
			<text x="1.76" y="127.85" class="st3" v:langID="1033"><v:paragraph v:horizAlign="1"/><v:tabList/>S0</text>		</g>
		<g id="shape16-21" v:mID="16" v:groupContext="shape" transform="translate(0,-16.1252)">
			<title>Sheet.16</title>
			<desc>S1</desc>
			<v:textBlock v:margins="rect(0,0,0,0)"/>
			<v:textRect cx="7.875" cy="124.845" width="15.75" height="6.75"/>
			<text x="1.76" y="127.85" class="st3" v:langID="1033"><v:paragraph v:horizAlign="1"/><v:tabList/>S1</text>		</g>
		<g id="shape2-23" v:mID="2" v:groupContext="shape" transform="translate(36,164.94) rotate(180)">
			<title>Sheet.2</title>
			<path d="M0 128.22 L18 128.22" class="st2"/>
		</g>
		<g id="shape3-26" v:mID="3" v:groupContext="shape" transform="translate(29.25,-85.8752)">
			<title>Sheet.3</title>
			<desc>I2</desc>
			<v:textBlock v:margins="rect(0,0,0,0)"/>
			<v:textRect cx="9" cy="124.845" width="18" height="6.75"/>
			<text x="9.66" y="127.85" class="st3" v:langID="1033"><v:paragraph v:horizAlign="2"/><v:tabList/>I2</text>		</g>
		<g id="shape4-28" v:mID="4" v:groupContext="shape" transform="translate(36,187.44) rotate(180)">
			<title>Sheet.4</title>
			<path d="M0 128.22 L18 128.22" class="st2"/>
		</g>
		<g id="shape6-31" v:mID="6" v:groupContext="shape" transform="translate(29.25,-63.3752)">
			<title>Sheet.6</title>
			<desc>I1</desc>
			<v:textBlock v:margins="rect(0,0,0,0)"/>
			<v:textRect cx="9" cy="124.845" width="18" height="6.75"/>
			<text x="9.66" y="127.85" class="st3" v:langID="1033"><v:paragraph v:horizAlign="2"/><v:tabList/>I1</text>		</g>
		<g id="shape7-33" v:mID="7" v:groupContext="shape" transform="translate(36,209.94) rotate(180)">
			<title>Sheet.7</title>
			<path d="M0 128.22 L18 128.22" class="st2"/>
		</g>
		<g id="shape8-36" v:mID="8" v:groupContext="shape" transform="translate(29.25,-40.8752)">
			<title>Sheet.8</title>
			<desc>I0</desc>
			<v:textBlock v:margins="rect(0,0,0,0)"/>
			<v:textRect cx="9" cy="124.845" width="18" height="6.75"/>
			<text x="9.66" y="127.85" class="st3" v:langID="1033"><v:paragraph v:horizAlign="2"/><v:tabList/>I0</text>		</g>
		<g id="shape13-38" v:mID="13" v:groupContext="shape" transform="translate(207,-33.0002)">
			<title>Sheet.13</title>
			<path d="M0 128.22 L42.75 128.22 L42.75 38.22 L0 38.22 L0 128.22 L0 128.22" class="st4"/>
		</g>
		<g id="shape14-41" v:mID="14" v:groupContext="shape" transform="translate(189,-105)">
			<title>Sheet.14</title>
			<path d="M18 128.22 L0 128.22" class="st4"/>
		</g>
		<g id="shape18-44" v:mID="18" v:groupContext="shape" transform="translate(209.25,-73.5002)">
			<title>Sheet.18</title>
			<desc>I1</desc>
			<v:textBlock v:margins="rect(0,0,0,0)"/>
			<v:textRect cx="9" cy="123.72" width="18" height="9"/>
			<path d="M18 119.22 L0 119.22 L0 128.22 L18 128.22 L18 119.22" class="st5"/>
			<text x="0" y="126.72" class="st3" v:langID="1033"><v:paragraph/><v:tabList/>I1</text>		</g>
		<g id="shape19-48" v:mID="19" v:groupContext="shape" transform="translate(209.25,-60.0002)">
			<title>Sheet.19</title>
			<desc>I2</desc>
			<v:textBlock v:margins="rect(0,0,0,0)"/>
			<v:textRect cx="9" cy="123.72" width="18" height="9"/>
			<path d="M18 119.22 L0 119.22 L0 128.22 L18 128.22 L18 119.22" class="st5"/>
			<text x="0" y="126.72" class="st3" v:langID="1033"><v:paragraph/><v:tabList/>I2</text>		</g>
		<g id="shape21-52" v:mID="21" v:groupContext="shape" transform="translate(229.5,-109.5)">
			<title>Sheet.21</title>
			<desc>Y3</desc>
			<v:textBlock v:margins="rect(0,0,0,0)"/>
			<v:textRect cx="9" cy="123.72" width="18" height="9"/>
			<path d="M18 119.22 L0 119.22 L0 128.22 L18 128.22 L18 119.22" class="st5"/>
			<text x="5.77" y="126.72" class="st3" v:langID="1033"><v:paragraph v:horizAlign="2"/><v:tabList/>Y3</text>		</g>
		<g id="shape22-56" v:mID="22" v:groupContext="shape" transform="translate(229.5,-87.0002)">
			<title>Sheet.22</title>
			<desc>Y2</desc>
			<v:textBlock v:margins="rect(0,0,0,0)"/>
			<v:textRect cx="9" cy="123.72" width="18" height="9"/>
			<path d="M18 119.22 L0 119.22 L0 128.22 L18 128.22 L18 119.22" class="st5"/>
			<text x="5.77" y="126.72" class="st3" v:langID="1033"><v:paragraph v:horizAlign="2"/><v:tabList/>Y2</text>		</g>
		<g id="shape24-60" v:mID="24" v:groupContext="shape" transform="translate(195.75,-78.0002)">
			<title>Sheet.24</title>
			<path d="M11.25 128.22 L0 128.22" class="st4"/>
		</g>
		<g id="shape27-63" v:mID="27" v:groupContext="shape" transform="translate(249.75,-69.0002)">
			<title>Sheet.27</title>
			<path d="M9 128.22 L0 128.22" class="st4"/>
		</g>
		<g id="shape28-66" v:mID="28" v:groupContext="shape" transform="translate(249.75,-114)">
			<title>Sheet.28</title>
			<path d="M9 128.22 L0 128.22" class="st4"/>
		</g>
		<g id="shape29-69" v:mID="29" v:groupContext="shape" transform="translate(249.75,-91.5002)">
			<title>Sheet.29</title>
			<path d="M9 128.22 L0 128.22" class="st4"/>
		</g>
		<g id="shape30-72" v:mID="30" v:groupContext="shape" transform="translate(209.25,-100.522)">
			<title>Sheet.30</title>
			<desc>EN</desc>
			<v:textBlock v:margins="rect(0,0,0,0)"/>
			<v:textRect cx="9" cy="123.72" width="18" height="9"/>
			<path d="M18 119.22 L0 119.22 L0 128.22 L18 128.22 L18 119.22" class="st5"/>
			<text x="0" y="126.72" class="st3" v:langID="1033"><v:paragraph/><v:tabList/>EN</text>		</g>
		<g id="shape31-76" v:mID="31" v:groupContext="shape" transform="translate(229.5,-62.2502)">
			<title>Sheet.31</title>
			<desc>Y1</desc>
			<v:textBlock v:margins="rect(0,0,0,0)"/>
			<v:textRect cx="9" cy="123.72" width="18" height="9"/>
			<path d="M18 119.22 L0 119.22 L0 128.22 L18 128.22 L18 119.22" class="st5"/>
			<text x="5.77" y="126.72" class="st3" v:langID="1033"><v:paragraph v:horizAlign="2"/><v:tabList/>Y1</text>		</g>
		<g id="shape32-80" v:mID="32" v:groupContext="shape" transform="translate(249.75,-46.5002)">
			<title>Sheet.32</title>
			<path d="M9 128.22 L0 128.22" class="st4"/>
		</g>
		<g id="shape33-83" v:mID="33" v:groupContext="shape" transform="translate(229.5,-39.7502)">
			<title>Sheet.33</title>
			<desc>Y0</desc>
			<v:textBlock v:margins="rect(0,0,0,0)"/>
			<v:textRect cx="9" cy="123.72" width="18" height="9"/>
			<path d="M18 119.22 L0 119.22 L0 128.22 L18 128.22 L18 119.22" class="st5"/>
			<text x="5.77" y="126.72" class="st3" v:langID="1033"><v:paragraph v:horizAlign="2"/><v:tabList/>Y0</text>		</g>
		<g id="shape26-87" v:mID="26" v:groupContext="shape" transform="translate(69.75,236.94) rotate(180)">
			<title>Sheet.26</title>
			<path d="M0 128.22 L24.75 128.22" class="st2"/>
		</g>
		<g id="shape34-90" v:mID="34" v:groupContext="shape" transform="translate(76.5,250.44) rotate(180)">
			<title>Sheet.34</title>
			<path d="M0 128.22 L22.5 128.22" class="st2"/>
		</g>
		<g id="shape35-93" v:mID="35" v:groupContext="shape" transform="translate(197.97,56.97) rotate(90)">
			<title>Sheet.35</title>
			<path d="M0 128.22 L51.75 128.22" class="st2"/>
		</g>
		<g id="shape36-96" v:mID="36" v:groupContext="shape" transform="translate(204.72,63.72) rotate(90)">
			<title>Sheet.36</title>
			<path d="M0 128.22 L58.5 128.22" class="st2"/>
		</g>
		<g id="shape37-99" v:mID="37" v:groupContext="shape" transform="translate(85.5,185.19) rotate(180)">
			<title>Sheet.37</title>
			<path d="M0 128.22 L15.75 128.22" class="st2"/>
		</g>
		<g id="shape38-102" v:mID="38" v:groupContext="shape" transform="translate(86.0625,191.94) rotate(180)">
			<title>Sheet.38</title>
			<path d="M0 128.22 L9.56 128.22" class="st2"/>
		</g>
		<g id="shape20-105" v:mID="20" v:groupContext="shape" transform="translate(85.5,-62.2502)">
			<title>Sheet.20</title>
			<path d="M96.75 110.22 L2.25 110.22 A9 2.25 -90 0 0 -0 119.22 A9 2.25 -90 0 0 2.25 128.22 L96.75 128.22" class="st2"/>
		</g>
		<g id="shape39-108" v:mID="39" v:groupContext="shape" transform="translate(53.1563,-5.15643)">
			<title>Circle.12</title>
			<v:userDefs>
				<v:ud v:nameU="visVersion" v:val="VT0(11):26"/>
			</v:userDefs>
			<path d="M0 127.38 a0.84375 0.84375 0 0 1 1.6875 0 a0.84375 0.84375 0 1 1 -1.6875 0 Z" class="st6"/>
		</g>
		<g id="shape40-110" v:mID="40" v:groupContext="shape" transform="translate(44.1563,-18.6564)">
			<title>Circle.40</title>
			<v:userDefs>
				<v:ud v:nameU="visVersion" v:val="VT0(11):26"/>
			</v:userDefs>
			<path d="M0 127.38 a0.84375 0.84375 0 0 1 1.6875 0 a0.84375 0.84375 0 1 1 -1.6875 0 Z" class="st6"/>
		</g>
		<g id="shape41-112" v:mID="41" v:groupContext="shape" transform="translate(189,178.44) rotate(180)">
			<title>Sheet.41</title>
			<path d="M0 128.22 L7.87 128.22" class="st2"/>
		</g>
		<g id="shape42-115" v:mID="42" v:groupContext="shape" transform="translate(195.75,185.19) rotate(180)">
			<title>Sheet.42</title>
			<path d="M0 128.22 L15.75 128.22" class="st2"/>
		</g>
		<g id="shape25-118" v:mID="25" v:groupContext="shape" transform="translate(181.125,-64.5002)">
			<title>Sheet.25</title>
			<path d="M25.87 128.22 L0 128.22" class="st4"/>
		</g>
		<g id="shape43-121" v:mID="43" v:groupContext="shape" transform="translate(317.22,23.22) rotate(90)">
			<title>Sheet.43</title>
			<path d="M0 128.22 L27 128.22" class="st2"/>
		</g>
		<g id="shape44-124" v:mID="44" v:groupContext="shape" transform="translate(323.97,50.22) rotate(90)">
			<title>Sheet.44</title>
			<path d="M0 128.22 L6.75 128.22" class="st2"/>
		</g>
		<g id="shape45-127" v:mID="45" v:groupContext="shape" transform="translate(96.75,-33.0002)">
			<title>Sheet.45</title>
			<desc>Communications channel</desc>
			<v:textBlock v:margins="rect(0,0,0,0)"/>
			<v:textRect cx="38.25" cy="112.47" width="76.5" height="31.5"/>
			<path d="M76.5 96.72 L0 96.72 L0 128.22 L76.5 128.22 L76.5 96.72" class="st5"/>
			<text x="1.01" y="109.47" class="st3" v:langID="1033"><v:paragraph v:horizAlign="1"/><v:tabList/>Communications <tspan
						x="20.74" dy="1.2em" class="st7">channel</tspan></text>		</g>
		<g id="shape23-132" v:mID="23" v:groupContext="shape" transform="translate(4.5,-109.5)">
			<title>Sheet.23</title>
			<desc>A</desc>
			<v:textBlock v:margins="rect(0,0,0,0)"/>
			<v:textRect cx="4.5" cy="124.845" width="9" height="6.75"/>
			<text x="2.33" y="127.85" class="st3" v:langID="1033"><v:paragraph v:horizAlign="2"/><v:tabList/>A</text>		</g>
		<g id="shape46-134" v:mID="46" v:groupContext="shape" transform="translate(4.5,-88.1252)">
			<title>Sheet.46</title>
			<desc>B</desc>
			<v:textBlock v:margins="rect(0,0,0,0)"/>
			<v:textRect cx="4.5" cy="124.845" width="9" height="6.75"/>
			<text x="2.33" y="127.85" class="st3" v:langID="1033"><v:paragraph v:horizAlign="2"/><v:tabList/>B</text>		</g>
		<g id="shape47-136" v:mID="47" v:groupContext="shape" transform="translate(4.5,-64.5002)">
			<title>Sheet.47</title>
			<desc>C</desc>
			<v:textBlock v:margins="rect(0,0,0,0)"/>
			<v:textRect cx="4.5" cy="124.845" width="9" height="6.75"/>
			<text x="1.78" y="127.85" class="st3" v:langID="1033"><v:paragraph v:horizAlign="2"/><v:tabList/>C</text>		</g>
		<g id="shape48-138" v:mID="48" v:groupContext="shape" transform="translate(4.5,-43.1252)">
			<title>Sheet.48</title>
			<desc>D</desc>
			<v:textBlock v:margins="rect(0,0,0,0)"/>
			<v:textRect cx="4.5" cy="124.845" width="9" height="6.75"/>
			<text x="1.78" y="127.85" class="st3" v:langID="1033"><v:paragraph v:horizAlign="2"/><v:tabList/>D</text>		</g>
		<g id="shape49-140" v:mID="49" v:groupContext="shape" transform="translate(263.25,-110.625)">
			<title>Sheet.49</title>
			<desc>A</desc>
			<v:textBlock v:margins="rect(0,0,0,0)"/>
			<v:textRect cx="4.5" cy="124.845" width="9" height="6.75"/>
			<text x="0" y="127.85" class="st3" v:langID="1033"><v:paragraph/><v:tabList/>A</text>		</g>
		<g id="shape50-142" v:mID="50" v:groupContext="shape" transform="translate(263.25,-88.1252)">
			<title>Sheet.50</title>
			<desc>B</desc>
			<v:textBlock v:margins="rect(0,0,0,0)"/>
			<v:textRect cx="4.5" cy="124.845" width="9" height="6.75"/>
			<text x="0" y="127.85" class="st3" v:langID="1033"><v:paragraph/><v:tabList/>B</text>		</g>
		<g id="shape51-144" v:mID="51" v:groupContext="shape" transform="translate(263.25,-64.5002)">
			<title>Sheet.51</title>
			<desc>C</desc>
			<v:textBlock v:margins="rect(0,0,0,0)"/>
			<v:textRect cx="4.5" cy="124.845" width="9" height="6.75"/>
			<text x="0" y="127.85" class="st3" v:langID="1033"><v:paragraph/><v:tabList/>C</text>		</g>
		<g id="shape52-146" v:mID="52" v:groupContext="shape" transform="translate(263.25,-42.0002)">
			<title>Sheet.52</title>
			<desc>D</desc>
			<v:textBlock v:margins="rect(0,0,0,0)"/>
			<v:textRect cx="4.5" cy="124.845" width="9" height="6.75"/>
			<text x="0" y="127.85" class="st3" v:langID="1033"><v:paragraph/><v:tabList/>D</text>		</g>
	</g>
</svg>
