<?xml version="1.0" encoding="UTF-8" standalone="no"?>
<!DOCTYPE svg PUBLIC "-//W3C//DTD SVG 1.1//EN" "http://www.w3.org/Graphics/SVG/1.1/DTD/svg11.dtd">
<!-- Generated by Microsoft Visio, SVG Export SlideSwitchCirc.svg Page-1 -->
<svg xmlns="http://www.w3.org/2000/svg" xmlns:xlink="http://www.w3.org/1999/xlink" xmlns:ev="http://www.w3.org/2001/xml-events"
		xmlns:v="http://schemas.microsoft.com/visio/2003/SVGExtensions/" width="1.70445in" height="0.919178in"
		viewBox="0 0 122.721 66.1808" xml:space="preserve" color-interpolation-filters="sRGB" class="st7">
	<v:documentProperties v:langID="1033" v:viewMarkup="false"/>

	<style type="text/css">
	<![CDATA[
		.st1 {stroke:#000000;stroke-linecap:round;stroke-linejoin:round;stroke-width:0.75}
		.st2 {fill:#ffffff;stroke:#000000;stroke-linecap:round;stroke-linejoin:round;stroke-width:0.75}
		.st3 {fill:#000000;font-family:Calibri;font-size:0.75em}
		.st4 {font-size:1em}
		.st5 {fill:none;stroke:none;stroke-width:0.75}
		.st6 {fill:#000000;font-family:Calibri;font-size:0.499992em}
		.st7 {fill:none;fill-rule:evenodd;font-size:12px;overflow:visible;stroke-linecap:square;stroke-miterlimit:3}
	]]>
	</style>

	<g v:mID="0" v:index="1" v:groupContext="foregroundPage">
		<title>Page-1</title>
		<v:pageProperties v:drawingScale="1" v:pageScale="1" v:drawingUnits="0" v:shadowOffsetX="9" v:shadowOffsetY="-9"/>
		<g id="shape1-1" v:mID="1" v:groupContext="shape" transform="translate(36.3487,-24.5172)">
			<title>Sheet.1</title>
			<path d="M0 61.5 L1.92 56.81 L5.88 66.18 L9.71 56.81 L13.67 66.18 L17.51 56.81 L21.46 66.18 L23.38 61.5" class="st1"/>
		</g>
		<g id="shape2-4" v:mID="2" v:groupContext="shape" transform="translate(59.7315,-29.2015)">
			<title>Sheet.2</title>
			<path d="M28.78 66.18 L0 66.18" class="st1"/>
		</g>
		<g id="shape3-7" v:mID="3" v:groupContext="shape" transform="translate(20.1605,-27.5199)">
			<title>Sheet.3</title>
			<path d="M0 64.5 L0.12 63.66 L0.72 63.06 L1.44 62.7 L2.16 62.7 L2.88 63.06 L3.36 63.66 L3.6 64.5 L3.36 65.22 L2.88 65.94
						 L2.16 66.18 L1.44 66.18 L0.72 65.94 L0.12 65.22 L0 64.5 Z" class="st2"/>
		</g>
		<g id="shape4-9" v:mID="4" v:groupContext="shape" transform="translate(23.7579,-29.2015)">
			<title>Sheet.4</title>
			<path d="M0 66.18 L12.59 66.18" class="st1"/>
		</g>
		<g id="shape5-12" v:mID="5" v:groupContext="shape" transform="translate(0.375,-52.623)">
			<title>Sheet.5</title>
			<path d="M14.39 66.18 L0 66.18" class="st1"/>
		</g>
		<g id="shape6-15" v:mID="6" v:groupContext="shape" transform="translate(7.56973,-46.3773)">
			<title>Sheet.6</title>
			<path d="M0 59.94 L0 66.18" class="st1"/>
		</g>
		<g id="shape7-18" v:mID="7" v:groupContext="shape" transform="translate(7.56973,-7.58162)">
			<title>Sheet.7</title>
			<path d="M0 58.97 L0 66.18" class="st1"/>
		</g>
		<g id="shape8-21" v:mID="8" v:groupContext="shape" transform="translate(2.17368,-7.58162)">
			<title>Sheet.8</title>
			<path d="M10.79 66.18 L0 66.18" class="st1"/>
		</g>
		<g id="shape9-24" v:mID="9" v:groupContext="shape" transform="translate(2.17368,-0.375)">
			<title>Sheet.9</title>
			<path d="M5.4 66.18 L0 58.97" class="st1"/>
		</g>
		<g id="shape10-27" v:mID="10" v:groupContext="shape" transform="translate(7.56973,-0.375)">
			<title>Sheet.10</title>
			<path d="M5.4 58.97 L0 66.18" class="st1"/>
		</g>
		<g id="shape11-30" v:mID="11" v:groupContext="shape" transform="translate(5.77105,-14.9084)">
			<title>Sheet.11</title>
			<path d="M0 64.5 L0.12 63.66 L0.72 63.06 L1.44 62.7 L2.16 62.7 L2.88 63.06 L3.36 63.66 L3.6 64.5 L3.36 65.22 L2.88 65.94
						 L2.16 66.18 L1.44 66.18 L0.72 65.94 L0.12 65.22 L0 64.5 Z" class="st2"/>
		</g>
		<g id="shape12-32" v:mID="12" v:groupContext="shape" transform="translate(5.77105,-42.774)">
			<title>Sheet.12</title>
			<path d="M0 64.38 L0.12 63.66 L0.72 63.06 L1.44 62.7 L2.16 62.7 L2.88 63.06 L3.36 63.66 L3.6 64.38 L3.36 65.22 L2.88
						 65.82 L2.16 66.18 L1.44 66.18 L0.72 65.82 L0.12 65.22 L0 64.38 Z" class="st2"/>
		</g>
		<g id="shape13-34" v:mID="13" v:groupContext="shape" transform="translate(0.375,-29.2015)">
			<title>Sheet.13</title>
			<path d="M0 58.97 L19.79 66.18" class="st1"/>
		</g>
		<g id="shape14-37" v:mID="14" v:groupContext="shape" transform="translate(15.876,-36.5873)">
			<title>Sheet.14</title>
			<desc>10KΩ</desc>
			<v:textBlock v:margins="rect(0,0,0,0)"/>
			<v:textRect cx="28.29" cy="60.1927" width="56.59" height="11.9762"/>
			<text x="18.4" y="62.89" class="st3" v:langID="1033"><v:paragraph v:horizAlign="1"/><v:tabList/>10KΩ</text>		</g>
		<g id="shape15-39" v:mID="15" v:groupContext="shape" transform="translate(89.0314,-27.6349)">
			<title>Sheet.15</title>
			<path d="M0 64.38 L0.24 63.54 L0.72 62.93 L1.44 62.57 L2.28 62.57 L3 62.93 L3.48 63.54 L3.6 64.38 L3.48 65.22 L3 65.82
						 L2.28 66.18 L1.44 66.18 L0.72 65.82 L0.24 65.22 L0 64.38 Z" class="st2"/>
		</g>
		<g id="shape16-41" v:mID="16" v:groupContext="shape" transform="translate(95.7207,-23.0873)">
			<title>Sheet.16</title>
			<desc>To FPGA</desc>
			<v:textBlock v:margins="rect(0,0,0,0)"/>
			<v:textRect cx="13.5" cy="60.1927" width="27" height="11.9762"/>
			<text x="8.93" y="57.49" class="st3" v:langID="1033"><v:paragraph v:horizAlign="1"/><v:tabList/>To<v:newlineChar/><tspan
						x="3.67" dy="1.2em" class="st4">FPGA</tspan></text>		</g>
		<g id="shape18-44" v:mID="18" v:groupContext="shape" transform="translate(1.43617,-54.2046)">
			<title>Sheet.18</title>
			<desc>V</desc>
			<v:textBlock v:margins="rect(0,0,0,0)"/>
			<v:textRect cx="3.65625" cy="60.1927" width="7.32" height="11.9762"/>
			<text x="1.1" y="62.89" class="st3" v:langID="1033"><v:paragraph v:horizAlign="1"/><v:tabList/>V</text>		</g>
		<g id="shape19-46" v:mID="19" v:groupContext="shape" transform="translate(1.43617,-51.4944)">
			<title>Sheet.19</title>
			<desc>DD</desc>
			<v:textBlock v:margins="rect(0,0,0,0)"/>
			<v:textRect cx="9" cy="60.1927" width="18" height="11.9762"/>
			<rect x="0" y="54.2046" width="18" height="11.9762" class="st5"/>
			<text x="5.31" y="61.99" class="st6" v:langID="1033"><v:paragraph v:horizAlign="1"/><v:tabList/>DD</text>		</g>
	</g>
</svg>
