<?xml version="1.0" encoding="UTF-8" standalone="no"?>
<!DOCTYPE svg PUBLIC "-//W3C//DTD SVG 1.1//EN" "http://www.w3.org/Graphics/SVG/1.1/DTD/svg11.dtd">
<!-- Generated by Microsoft Visio, SVG Export ExSM.svg Page-1 -->
<svg xmlns="http://www.w3.org/2000/svg" xmlns:xlink="http://www.w3.org/1999/xlink" xmlns:ev="http://www.w3.org/2001/xml-events"
		xmlns:v="http://schemas.microsoft.com/visio/2003/SVGExtensions/" width="7.09375in" height="3.06197in"
		viewBox="0 0 510.75 220.462" xml:space="preserve" color-interpolation-filters="sRGB" class="st15">
	<v:documentProperties v:langID="1033" v:viewMarkup="false"/>

	<style type="text/css">
	<![CDATA[
		.st1 {fill:#ffffff;stroke:#000000;stroke-linecap:round;stroke-linejoin:round;stroke-width:0.72}
		.st2 {fill:#000000;font-family:Arial;font-size:0.75em}
		.st3 {fill:#000000;font-family:Times New Roman;font-size:0.75em}
		.st4 {stroke:#000000;stroke-linecap:round;stroke-linejoin:round;stroke-width:0.72}
		.st5 {fill:#000000;font-family:Arial;font-size:1.00001em;font-weight:bold}
		.st6 {font-size:1em}
		.st7 {fill:#abe0ae;stroke:#000000;stroke-linecap:round;stroke-linejoin:round;stroke-width:0.24}
		.st8 {fill:#000000;font-family:Arial;font-size:1.00001em}
		.st9 {stroke:#4d4d4d;stroke-linecap:round;stroke-linejoin:round;stroke-width:1.2}
		.st10 {fill:#000000;stroke:none;stroke-linecap:round;stroke-linejoin:round;stroke-width:0.72}
		.st11 {fill:#000000;font-family:Arial;font-size:0.833336em}
		.st12 {marker-start:url(#mrkr4-262);stroke:#4d4d4d;stroke-linecap:round;stroke-linejoin:round;stroke-width:1.2}
		.st13 {fill:#4d4d4d;fill-opacity:1;stroke:#4d4d4d;stroke-opacity:1;stroke-width:0.4}
		.st14 {marker-end:url(#mrkr4-270);stroke:#4d4d4d;stroke-linecap:round;stroke-linejoin:round;stroke-width:1.2}
		.st15 {fill:none;fill-rule:evenodd;font-size:12px;overflow:visible;stroke-linecap:square;stroke-miterlimit:3}
	]]>
	</style>

	<defs id="Markers">
		<g id="lend4">
			<path d="M 2 1 L 0 0 L 2 -1 L 2 1 " style="stroke:none"/>
		</g>
		<marker id="mrkr4-262" class="st13" v:arrowType="4" v:arrowSize="1" v:setback="4.7" refX="4.7" orient="auto"
				markerUnits="strokeWidth" overflow="visible">
			<use xlink:href="#lend4" transform="scale(2.5) "/>
		</marker>
		<marker id="mrkr4-270" class="st13" v:arrowType="4" v:arrowSize="1" v:setback="4.7" refX="-4.7" orient="auto"
				markerUnits="strokeWidth" overflow="visible">
			<use xlink:href="#lend4" transform="scale(-2.5,-2.5) "/>
		</marker>
	</defs>
	<g v:mID="0" v:index="1" v:groupContext="foregroundPage">
		<title>Page-1</title>
		<v:pageProperties v:drawingScale="1" v:pageScale="1" v:drawingUnits="19" v:shadowOffsetX="9" v:shadowOffsetY="-9"/>
		<g id="shape2-1" v:mID="2" v:groupContext="shape" transform="translate(333,-161.962)">
			<title>Square</title>
			<desc>00</desc>
			<v:textBlock v:margins="rect(4,0,4,0)"/>
			<v:textRect cx="9" cy="211.462" width="18" height="18"/>
			<rect x="0" y="202.462" width="18" height="18" class="st1"/>
			<text x="3.99" y="214.16" class="st2" v:langID="1033"><v:paragraph v:horizAlign="1"/><v:tabList/>00</text>		</g>
		<g id="shape3-4" v:mID="3" v:groupContext="shape" transform="translate(333,-143.962)">
			<title>Square.196</title>
			<desc>01</desc>
			<v:textBlock v:margins="rect(4,0,4,0)"/>
			<v:textRect cx="9" cy="211.462" width="18" height="18"/>
			<rect x="0" y="202.462" width="18" height="18" class="st1"/>
			<text x="3.99" y="214.16" class="st2" v:langID="1033"><v:paragraph v:horizAlign="1"/><v:tabList/>01</text>		</g>
		<g id="shape4-7" v:mID="4" v:groupContext="shape" transform="translate(351,-161.962)">
			<title>Square.222</title>
			<desc>00</desc>
			<v:textBlock v:margins="rect(4,0,4,0)"/>
			<v:textRect cx="9" cy="211.462" width="18" height="18"/>
			<rect x="0" y="202.462" width="18" height="18" class="st1"/>
			<text x="3.99" y="214.16" class="st2" v:langID="1033"><v:paragraph v:horizAlign="1"/><v:tabList/>00</text>		</g>
		<g id="shape5-10" v:mID="5" v:groupContext="shape" transform="translate(351,-143.962)">
			<title>Square.223</title>
			<desc>01</desc>
			<v:textBlock v:margins="rect(4,0,4,0)"/>
			<v:textRect cx="9" cy="211.462" width="18" height="18"/>
			<rect x="0" y="202.462" width="18" height="18" class="st1"/>
			<text x="3.99" y="214.16" class="st2" v:langID="1033"><v:paragraph v:horizAlign="1"/><v:tabList/>01</text>		</g>
		<g id="shape6-13" v:mID="6" v:groupContext="shape" transform="translate(369,-161.962)">
			<title>Square.234</title>
			<desc>00</desc>
			<v:textBlock v:margins="rect(4,0,4,0)"/>
			<v:textRect cx="9" cy="211.462" width="18" height="18"/>
			<rect x="0" y="202.462" width="18" height="18" class="st1"/>
			<text x="3.99" y="214.16" class="st2" v:langID="1033"><v:paragraph v:horizAlign="1"/><v:tabList/>00</text>		</g>
		<g id="shape7-16" v:mID="7" v:groupContext="shape" transform="translate(369,-143.962)">
			<title>Square.235</title>
			<desc>01</desc>
			<v:textBlock v:margins="rect(4,0,4,0)"/>
			<v:textRect cx="9" cy="211.462" width="18" height="18"/>
			<rect x="0" y="202.462" width="18" height="18" class="st1"/>
			<text x="3.99" y="214.16" class="st2" v:langID="1033"><v:paragraph v:horizAlign="1"/><v:tabList/>01</text>		</g>
		<g id="shape8-19" v:mID="8" v:groupContext="shape" transform="translate(387,-161.962)">
			<title>Square.236</title>
			<desc>00</desc>
			<v:textBlock v:margins="rect(4,0,4,0)"/>
			<v:textRect cx="9" cy="211.462" width="18" height="18"/>
			<rect x="0" y="202.462" width="18" height="18" class="st1"/>
			<text x="3.99" y="214.16" class="st2" v:langID="1033"><v:paragraph v:horizAlign="1"/><v:tabList/>00</text>		</g>
		<g id="shape9-22" v:mID="9" v:groupContext="shape" transform="translate(387,-143.962)">
			<title>Square.237</title>
			<desc>01</desc>
			<v:textBlock v:margins="rect(4,0,4,0)"/>
			<v:textRect cx="9" cy="211.462" width="18" height="18"/>
			<rect x="0" y="202.462" width="18" height="18" class="st1"/>
			<text x="3.99" y="214.16" class="st2" v:langID="1033"><v:paragraph v:horizAlign="1"/><v:tabList/>01</text>		</g>
		<g id="shape10-25" v:mID="10" v:groupContext="shape" transform="translate(310.5,-179.962)">
			<title>Sheet.10</title>
			<desc>X</desc>
			<v:textBlock v:margins="rect(0,0,0,0)"/>
			<v:textRect cx="8.64" cy="216.005" width="17.28" height="8.91226"/>
			<text x="5.39" y="218.71" class="st3" v:langID="1033"><v:paragraph v:horizAlign="1"/><v:tabList/>X</text>		</g>
		<g id="shape11-27" v:mID="11" v:groupContext="shape" transform="translate(328.5,-189.049)">
			<title>Sheet.11</title>
			<desc>Y Z</desc>
			<v:textBlock v:margins="rect(0,0,0,0)"/>
			<v:textRect cx="8.64" cy="213.755" width="17.28" height="13.4123"/>
			<text x="1.64" y="216.46" class="st2" v:langID="1033"><v:paragraph v:horizAlign="1"/><v:tabList/>Y Z</text>		</g>
		<g id="shape12-29" v:mID="12" v:groupContext="shape" transform="translate(149.565,162.79) rotate(-123.69)">
			<title>Sheet.12</title>
			<path d="M0 220.46 L16.22 220.46" class="st4"/>
		</g>
		<g id="shape13-32" v:mID="13" v:groupContext="shape" transform="translate(333,-180.049)">
			<title>Sheet.13</title>
			<desc>00</desc>
			<v:textBlock v:margins="rect(0,0,0,0)"/>
			<v:textRect cx="9" cy="216.005" width="18" height="8.91226"/>
			<text x="3.99" y="218.71" class="st2" v:langID="1033"><v:paragraph v:horizAlign="1"/><v:tabList/>00</text>		</g>
		<g id="shape14-34" v:mID="14" v:groupContext="shape" transform="translate(351,-179.962)">
			<title>Sheet.14</title>
			<desc>01</desc>
			<v:textBlock v:margins="rect(0,0,0,0)"/>
			<v:textRect cx="9" cy="216.005" width="18" height="8.91226"/>
			<text x="3.99" y="218.71" class="st2" v:langID="1033"><v:paragraph v:horizAlign="1"/><v:tabList/>01</text>		</g>
		<g id="shape15-36" v:mID="15" v:groupContext="shape" transform="translate(369,-179.962)">
			<title>Sheet.15</title>
			<desc>11</desc>
			<v:textBlock v:margins="rect(0,0,0,0)"/>
			<v:textRect cx="9" cy="216.005" width="18" height="8.91226"/>
			<text x="3.99" y="218.71" class="st2" v:langID="1033"><v:paragraph v:horizAlign="1"/><v:tabList/>11</text>		</g>
		<g id="shape16-38" v:mID="16" v:groupContext="shape" transform="translate(387,-179.962)">
			<title>Sheet.16</title>
			<desc>10</desc>
			<v:textBlock v:margins="rect(0,0,0,0)"/>
			<v:textRect cx="9" cy="216.005" width="18" height="8.91226"/>
			<text x="3.99" y="218.71" class="st2" v:langID="1033"><v:paragraph v:horizAlign="1"/><v:tabList/>10</text>		</g>
		<g id="shape17-40" v:mID="17" v:groupContext="shape" transform="translate(319.5,-166.549)">
			<title>Sheet.17</title>
			<desc>0</desc>
			<v:textBlock v:margins="rect(0,0,0,0)"/>
			<v:textRect cx="6.75" cy="216.005" width="13.5" height="8.91226"/>
			<text x="4.25" y="218.71" class="st2" v:langID="1033"><v:paragraph v:horizAlign="1"/><v:tabList/>0</text>		</g>
		<g id="shape18-42" v:mID="18" v:groupContext="shape" transform="translate(319.5,-148.462)">
			<title>Sheet.18</title>
			<desc>1</desc>
			<v:textBlock v:margins="rect(0,0,0,0)"/>
			<v:textRect cx="6.75" cy="216.005" width="13.5" height="8.91226"/>
			<text x="4.25" y="218.71" class="st2" v:langID="1033"><v:paragraph v:horizAlign="1"/><v:tabList/>1</text>		</g>
		<g id="shape19-44" v:mID="19" v:groupContext="shape" transform="translate(333,-130.462)">
			<title>Sheet.19</title>
			<desc>Leaving State 00</desc>
			<v:textBlock v:margins="rect(0,0,0,0)"/>
			<v:textRect cx="38.25" cy="214.858" width="76.5" height="11.2061"/>
			<text x="4.47" y="217.56" class="st2" v:langID="1033"><v:paragraph v:horizAlign="1"/><v:tabList/>Leaving State 00</text>		</g>
		<g id="shape20-46" v:mID="20" v:groupContext="shape" transform="translate(434.25,-161.962)">
			<title>Square.248</title>
			<desc>01</desc>
			<v:textBlock v:margins="rect(4,0,4,0)"/>
			<v:textRect cx="9" cy="211.462" width="18" height="18"/>
			<rect x="0" y="202.462" width="18" height="18" class="st1"/>
			<text x="3.99" y="214.16" class="st2" v:langID="1033"><v:paragraph v:horizAlign="1"/><v:tabList/>01</text>		</g>
		<g id="shape21-49" v:mID="21" v:groupContext="shape" transform="translate(434.25,-143.962)">
			<title>Square.249</title>
			<desc>00</desc>
			<v:textBlock v:margins="rect(4,0,4,0)"/>
			<v:textRect cx="9" cy="211.462" width="18" height="18"/>
			<rect x="0" y="202.462" width="18" height="18" class="st1"/>
			<text x="3.99" y="214.16" class="st2" v:langID="1033"><v:paragraph v:horizAlign="1"/><v:tabList/>00</text>		</g>
		<g id="shape22-52" v:mID="22" v:groupContext="shape" transform="translate(452.25,-161.962)">
			<title>Square.250</title>
			<desc>11</desc>
			<v:textBlock v:margins="rect(4,0,4,0)"/>
			<v:textRect cx="9" cy="211.462" width="18" height="18"/>
			<rect x="0" y="202.462" width="18" height="18" class="st1"/>
			<text x="3.99" y="214.16" class="st2" v:langID="1033"><v:paragraph v:horizAlign="1"/><v:tabList/>11</text>		</g>
		<g id="shape23-55" v:mID="23" v:groupContext="shape" transform="translate(452.25,-143.962)">
			<title>Square.251</title>
			<desc>00</desc>
			<v:textBlock v:margins="rect(4,0,4,0)"/>
			<v:textRect cx="9" cy="211.462" width="18" height="18"/>
			<rect x="0" y="202.462" width="18" height="18" class="st1"/>
			<text x="3.99" y="214.16" class="st2" v:langID="1033"><v:paragraph v:horizAlign="1"/><v:tabList/>00</text>		</g>
		<g id="shape24-58" v:mID="24" v:groupContext="shape" transform="translate(470.25,-161.962)">
			<title>Square.252</title>
			<desc>00</desc>
			<v:textBlock v:margins="rect(4,0,4,0)"/>
			<v:textRect cx="9" cy="211.462" width="18" height="18"/>
			<rect x="0" y="202.462" width="18" height="18" class="st1"/>
			<text x="3.99" y="214.16" class="st2" v:langID="1033"><v:paragraph v:horizAlign="1"/><v:tabList/>00</text>		</g>
		<g id="shape25-61" v:mID="25" v:groupContext="shape" transform="translate(470.25,-143.962)">
			<title>Square.253</title>
			<desc>00</desc>
			<v:textBlock v:margins="rect(4,0,4,0)"/>
			<v:textRect cx="9" cy="211.462" width="18" height="18"/>
			<rect x="0" y="202.462" width="18" height="18" class="st1"/>
			<text x="3.99" y="214.16" class="st2" v:langID="1033"><v:paragraph v:horizAlign="1"/><v:tabList/>00</text>		</g>
		<g id="shape26-64" v:mID="26" v:groupContext="shape" transform="translate(488.25,-161.962)">
			<title>Square.254</title>
			<desc>00</desc>
			<v:textBlock v:margins="rect(4,0,4,0)"/>
			<v:textRect cx="9" cy="211.462" width="18" height="18"/>
			<rect x="0" y="202.462" width="18" height="18" class="st1"/>
			<text x="3.99" y="214.16" class="st2" v:langID="1033"><v:paragraph v:horizAlign="1"/><v:tabList/>00</text>		</g>
		<g id="shape27-67" v:mID="27" v:groupContext="shape" transform="translate(488.25,-143.962)">
			<title>Square.255</title>
			<desc>00</desc>
			<v:textBlock v:margins="rect(4,0,4,0)"/>
			<v:textRect cx="9" cy="211.462" width="18" height="18"/>
			<rect x="0" y="202.462" width="18" height="18" class="st1"/>
			<text x="3.99" y="214.16" class="st2" v:langID="1033"><v:paragraph v:horizAlign="1"/><v:tabList/>00</text>		</g>
		<g id="shape28-70" v:mID="28" v:groupContext="shape" transform="translate(411.75,-179.962)">
			<title>Sheet.28</title>
			<desc>X</desc>
			<v:textBlock v:margins="rect(0,0,0,0)"/>
			<v:textRect cx="8.64" cy="216.005" width="17.28" height="8.91226"/>
			<text x="5.64" y="218.71" class="st2" v:langID="1033"><v:paragraph v:horizAlign="1"/><v:tabList/>X</text>		</g>
		<g id="shape29-72" v:mID="29" v:groupContext="shape" transform="translate(429.75,-189.049)">
			<title>Sheet.29</title>
			<desc>Y Z</desc>
			<v:textBlock v:margins="rect(0,0,0,0)"/>
			<v:textRect cx="8.64" cy="213.755" width="17.28" height="13.4123"/>
			<text x="1.64" y="216.46" class="st2" v:langID="1033"><v:paragraph v:horizAlign="1"/><v:tabList/>Y Z</text>		</g>
		<g id="shape30-74" v:mID="30" v:groupContext="shape" transform="translate(250.815,162.79) rotate(-123.69)">
			<title>Sheet.30</title>
			<path d="M0 220.46 L16.22 220.46" class="st4"/>
		</g>
		<g id="shape31-77" v:mID="31" v:groupContext="shape" transform="translate(434.25,-180.049)">
			<title>Sheet.31</title>
			<desc>00</desc>
			<v:textBlock v:margins="rect(0,0,0,0)"/>
			<v:textRect cx="9" cy="216.005" width="18" height="8.91226"/>
			<text x="3.99" y="218.71" class="st2" v:langID="1033"><v:paragraph v:horizAlign="1"/><v:tabList/>00</text>		</g>
		<g id="shape32-79" v:mID="32" v:groupContext="shape" transform="translate(452.25,-179.962)">
			<title>Sheet.32</title>
			<desc>01</desc>
			<v:textBlock v:margins="rect(0,0,0,0)"/>
			<v:textRect cx="9" cy="216.005" width="18" height="8.91226"/>
			<text x="3.99" y="218.71" class="st2" v:langID="1033"><v:paragraph v:horizAlign="1"/><v:tabList/>01</text>		</g>
		<g id="shape33-81" v:mID="33" v:groupContext="shape" transform="translate(470.25,-179.962)">
			<title>Sheet.33</title>
			<desc>11</desc>
			<v:textBlock v:margins="rect(0,0,0,0)"/>
			<v:textRect cx="9" cy="216.005" width="18" height="8.91226"/>
			<text x="3.99" y="218.71" class="st2" v:langID="1033"><v:paragraph v:horizAlign="1"/><v:tabList/>11</text>		</g>
		<g id="shape34-83" v:mID="34" v:groupContext="shape" transform="translate(488.25,-179.962)">
			<title>Sheet.34</title>
			<desc>10</desc>
			<v:textBlock v:margins="rect(0,0,0,0)"/>
			<v:textRect cx="9" cy="216.005" width="18" height="8.91226"/>
			<text x="3.99" y="218.71" class="st2" v:langID="1033"><v:paragraph v:horizAlign="1"/><v:tabList/>10</text>		</g>
		<g id="shape35-85" v:mID="35" v:groupContext="shape" transform="translate(420.75,-166.549)">
			<title>Sheet.35</title>
			<desc>0</desc>
			<v:textBlock v:margins="rect(0,0,0,0)"/>
			<v:textRect cx="6.75" cy="216.005" width="13.5" height="8.91226"/>
			<text x="4.25" y="218.71" class="st2" v:langID="1033"><v:paragraph v:horizAlign="1"/><v:tabList/>0</text>		</g>
		<g id="shape36-87" v:mID="36" v:groupContext="shape" transform="translate(420.75,-148.462)">
			<title>Sheet.36</title>
			<desc>1</desc>
			<v:textBlock v:margins="rect(0,0,0,0)"/>
			<v:textRect cx="6.75" cy="216.005" width="13.5" height="8.91226"/>
			<text x="4.25" y="218.71" class="st2" v:langID="1033"><v:paragraph v:horizAlign="1"/><v:tabList/>1</text>		</g>
		<g id="shape37-89" v:mID="37" v:groupContext="shape" transform="translate(434.25,-130.462)">
			<title>Sheet.37</title>
			<desc>Leaving State 01</desc>
			<v:textBlock v:margins="rect(0,0,0,0)"/>
			<v:textRect cx="38.25" cy="214.858" width="76.5" height="11.2061"/>
			<text x="4.47" y="217.56" class="st2" v:langID="1033"><v:paragraph v:horizAlign="1"/><v:tabList/>Leaving State 01</text>		</g>
		<g id="shape38-91" v:mID="38" v:groupContext="shape" transform="translate(333,-85.4615)">
			<title>Square.266</title>
			<desc>00</desc>
			<v:textBlock v:margins="rect(4,0,4,0)"/>
			<v:textRect cx="9" cy="211.462" width="18" height="18"/>
			<rect x="0" y="202.462" width="18" height="18" class="st1"/>
			<text x="3.99" y="214.16" class="st2" v:langID="1033"><v:paragraph v:horizAlign="1"/><v:tabList/>00</text>		</g>
		<g id="shape39-94" v:mID="39" v:groupContext="shape" transform="translate(333,-67.4615)">
			<title>Square.267</title>
			<desc>00</desc>
			<v:textBlock v:margins="rect(4,0,4,0)"/>
			<v:textRect cx="9" cy="211.462" width="18" height="18"/>
			<rect x="0" y="202.462" width="18" height="18" class="st1"/>
			<text x="3.99" y="214.16" class="st2" v:langID="1033"><v:paragraph v:horizAlign="1"/><v:tabList/>00</text>		</g>
		<g id="shape40-97" v:mID="40" v:groupContext="shape" transform="translate(351,-85.4615)">
			<title>Square.268</title>
			<desc>00</desc>
			<v:textBlock v:margins="rect(4,0,4,0)"/>
			<v:textRect cx="9" cy="211.462" width="18" height="18"/>
			<rect x="0" y="202.462" width="18" height="18" class="st1"/>
			<text x="3.99" y="214.16" class="st2" v:langID="1033"><v:paragraph v:horizAlign="1"/><v:tabList/>00</text>		</g>
		<g id="shape41-100" v:mID="41" v:groupContext="shape" transform="translate(351,-67.4615)">
			<title>Square.269</title>
			<desc>00</desc>
			<v:textBlock v:margins="rect(4,0,4,0)"/>
			<v:textRect cx="9" cy="211.462" width="18" height="18"/>
			<rect x="0" y="202.462" width="18" height="18" class="st1"/>
			<text x="3.99" y="214.16" class="st2" v:langID="1033"><v:paragraph v:horizAlign="1"/><v:tabList/>00</text>		</g>
		<g id="shape42-103" v:mID="42" v:groupContext="shape" transform="translate(369,-85.4615)">
			<title>Square.270</title>
			<desc>00</desc>
			<v:textBlock v:margins="rect(4,0,4,0)"/>
			<v:textRect cx="9" cy="211.462" width="18" height="18"/>
			<rect x="0" y="202.462" width="18" height="18" class="st1"/>
			<text x="3.99" y="214.16" class="st2" v:langID="1033"><v:paragraph v:horizAlign="1"/><v:tabList/>00</text>		</g>
		<g id="shape43-106" v:mID="43" v:groupContext="shape" transform="translate(369,-67.4615)">
			<title>Square.271</title>
			<desc>00</desc>
			<v:textBlock v:margins="rect(4,0,4,0)"/>
			<v:textRect cx="9" cy="211.462" width="18" height="18"/>
			<rect x="0" y="202.462" width="18" height="18" class="st1"/>
			<text x="3.99" y="214.16" class="st2" v:langID="1033"><v:paragraph v:horizAlign="1"/><v:tabList/>00</text>		</g>
		<g id="shape44-109" v:mID="44" v:groupContext="shape" transform="translate(387,-85.4615)">
			<title>Square.272</title>
			<desc>00</desc>
			<v:textBlock v:margins="rect(4,0,4,0)"/>
			<v:textRect cx="9" cy="211.462" width="18" height="18"/>
			<rect x="0" y="202.462" width="18" height="18" class="st1"/>
			<text x="3.99" y="214.16" class="st2" v:langID="1033"><v:paragraph v:horizAlign="1"/><v:tabList/>00</text>		</g>
		<g id="shape45-112" v:mID="45" v:groupContext="shape" transform="translate(387,-67.4615)">
			<title>Square.273</title>
			<desc>00</desc>
			<v:textBlock v:margins="rect(4,0,4,0)"/>
			<v:textRect cx="9" cy="211.462" width="18" height="18"/>
			<rect x="0" y="202.462" width="18" height="18" class="st1"/>
			<text x="3.99" y="214.16" class="st2" v:langID="1033"><v:paragraph v:horizAlign="1"/><v:tabList/>00</text>		</g>
		<g id="shape46-115" v:mID="46" v:groupContext="shape" transform="translate(310.5,-103.462)">
			<title>Sheet.46</title>
			<desc>X</desc>
			<v:textBlock v:margins="rect(0,0,0,0)"/>
			<v:textRect cx="8.64" cy="216.005" width="17.28" height="8.91226"/>
			<text x="5.39" y="218.71" class="st3" v:langID="1033"><v:paragraph v:horizAlign="1"/><v:tabList/>X</text>		</g>
		<g id="shape47-117" v:mID="47" v:groupContext="shape" transform="translate(328.5,-112.549)">
			<title>Sheet.47</title>
			<desc>Y Z</desc>
			<v:textBlock v:margins="rect(0,0,0,0)"/>
			<v:textRect cx="8.64" cy="213.755" width="17.28" height="13.4123"/>
			<text x="1.64" y="216.46" class="st2" v:langID="1033"><v:paragraph v:horizAlign="1"/><v:tabList/>Y Z</text>		</g>
		<g id="shape48-119" v:mID="48" v:groupContext="shape" transform="translate(149.565,239.29) rotate(-123.69)">
			<title>Sheet.48</title>
			<path d="M0 220.46 L16.22 220.46" class="st4"/>
		</g>
		<g id="shape49-122" v:mID="49" v:groupContext="shape" transform="translate(333,-103.549)">
			<title>Sheet.49</title>
			<desc>00</desc>
			<v:textBlock v:margins="rect(0,0,0,0)"/>
			<v:textRect cx="9" cy="216.005" width="18" height="8.91226"/>
			<text x="3.99" y="218.71" class="st2" v:langID="1033"><v:paragraph v:horizAlign="1"/><v:tabList/>00</text>		</g>
		<g id="shape50-124" v:mID="50" v:groupContext="shape" transform="translate(351,-103.462)">
			<title>Sheet.50</title>
			<desc>01</desc>
			<v:textBlock v:margins="rect(0,0,0,0)"/>
			<v:textRect cx="9" cy="216.005" width="18" height="8.91226"/>
			<text x="3.99" y="218.71" class="st2" v:langID="1033"><v:paragraph v:horizAlign="1"/><v:tabList/>01</text>		</g>
		<g id="shape51-126" v:mID="51" v:groupContext="shape" transform="translate(369,-103.462)">
			<title>Sheet.51</title>
			<desc>11</desc>
			<v:textBlock v:margins="rect(0,0,0,0)"/>
			<v:textRect cx="9" cy="216.005" width="18" height="8.91226"/>
			<text x="3.99" y="218.71" class="st2" v:langID="1033"><v:paragraph v:horizAlign="1"/><v:tabList/>11</text>		</g>
		<g id="shape52-128" v:mID="52" v:groupContext="shape" transform="translate(387,-103.462)">
			<title>Sheet.52</title>
			<desc>10</desc>
			<v:textBlock v:margins="rect(0,0,0,0)"/>
			<v:textRect cx="9" cy="216.005" width="18" height="8.91226"/>
			<text x="3.99" y="218.71" class="st2" v:langID="1033"><v:paragraph v:horizAlign="1"/><v:tabList/>10</text>		</g>
		<g id="shape53-130" v:mID="53" v:groupContext="shape" transform="translate(319.5,-90.0493)">
			<title>Sheet.53</title>
			<desc>0</desc>
			<v:textBlock v:margins="rect(0,0,0,0)"/>
			<v:textRect cx="6.75" cy="216.005" width="13.5" height="8.91226"/>
			<text x="4.25" y="218.71" class="st2" v:langID="1033"><v:paragraph v:horizAlign="1"/><v:tabList/>0</text>		</g>
		<g id="shape54-132" v:mID="54" v:groupContext="shape" transform="translate(319.5,-71.9615)">
			<title>Sheet.54</title>
			<desc>1</desc>
			<v:textBlock v:margins="rect(0,0,0,0)"/>
			<v:textRect cx="6.75" cy="216.005" width="13.5" height="8.91226"/>
			<text x="4.25" y="218.71" class="st2" v:langID="1033"><v:paragraph v:horizAlign="1"/><v:tabList/>1</text>		</g>
		<g id="shape55-134" v:mID="55" v:groupContext="shape" transform="translate(333,-53.9615)">
			<title>Sheet.55</title>
			<desc>Leaving State 10</desc>
			<v:textBlock v:margins="rect(0,0,0,0)"/>
			<v:textRect cx="38.25" cy="214.858" width="76.5" height="11.2061"/>
			<text x="4.47" y="217.56" class="st2" v:langID="1033"><v:paragraph v:horizAlign="1"/><v:tabList/>Leaving State 10</text>		</g>
		<g id="shape56-136" v:mID="56" v:groupContext="shape" transform="translate(434.25,-85.4615)">
			<title>Square.284</title>
			<desc>11</desc>
			<v:textBlock v:margins="rect(4,0,4,0)"/>
			<v:textRect cx="9" cy="211.462" width="18" height="18"/>
			<rect x="0" y="202.462" width="18" height="18" class="st1"/>
			<text x="3.99" y="214.16" class="st2" v:langID="1033"><v:paragraph v:horizAlign="1"/><v:tabList/>11</text>		</g>
		<g id="shape57-139" v:mID="57" v:groupContext="shape" transform="translate(434.25,-67.4615)">
			<title>Square.285</title>
			<desc>00</desc>
			<v:textBlock v:margins="rect(4,0,4,0)"/>
			<v:textRect cx="9" cy="211.462" width="18" height="18"/>
			<rect x="0" y="202.462" width="18" height="18" class="st1"/>
			<text x="3.99" y="214.16" class="st2" v:langID="1033"><v:paragraph v:horizAlign="1"/><v:tabList/>00</text>		</g>
		<g id="shape58-142" v:mID="58" v:groupContext="shape" transform="translate(452.25,-85.4615)">
			<title>Square.286</title>
			<desc>00</desc>
			<v:textBlock v:margins="rect(4,0,4,0)"/>
			<v:textRect cx="9" cy="211.462" width="18" height="18"/>
			<rect x="0" y="202.462" width="18" height="18" class="st1"/>
			<text x="3.99" y="214.16" class="st2" v:langID="1033"><v:paragraph v:horizAlign="1"/><v:tabList/>00</text>		</g>
		<g id="shape59-145" v:mID="59" v:groupContext="shape" transform="translate(452.25,-67.4615)">
			<title>Square.287</title>
			<desc>00</desc>
			<v:textBlock v:margins="rect(4,0,4,0)"/>
			<v:textRect cx="9" cy="211.462" width="18" height="18"/>
			<rect x="0" y="202.462" width="18" height="18" class="st1"/>
			<text x="3.99" y="214.16" class="st2" v:langID="1033"><v:paragraph v:horizAlign="1"/><v:tabList/>00</text>		</g>
		<g id="shape60-148" v:mID="60" v:groupContext="shape" transform="translate(470.25,-85.4615)">
			<title>Square.288</title>
			<desc>00</desc>
			<v:textBlock v:margins="rect(4,0,4,0)"/>
			<v:textRect cx="9" cy="211.462" width="18" height="18"/>
			<rect x="0" y="202.462" width="18" height="18" class="st1"/>
			<text x="3.99" y="214.16" class="st2" v:langID="1033"><v:paragraph v:horizAlign="1"/><v:tabList/>00</text>		</g>
		<g id="shape61-151" v:mID="61" v:groupContext="shape" transform="translate(470.25,-67.4615)">
			<title>Square.289</title>
			<desc>00</desc>
			<v:textBlock v:margins="rect(4,0,4,0)"/>
			<v:textRect cx="9" cy="211.462" width="18" height="18"/>
			<rect x="0" y="202.462" width="18" height="18" class="st1"/>
			<text x="3.99" y="214.16" class="st2" v:langID="1033"><v:paragraph v:horizAlign="1"/><v:tabList/>00</text>		</g>
		<g id="shape62-154" v:mID="62" v:groupContext="shape" transform="translate(488.25,-85.4615)">
			<title>Square.290</title>
			<desc>10</desc>
			<v:textBlock v:margins="rect(4,0,4,0)"/>
			<v:textRect cx="9" cy="211.462" width="18" height="18"/>
			<rect x="0" y="202.462" width="18" height="18" class="st1"/>
			<text x="3.99" y="214.16" class="st2" v:langID="1033"><v:paragraph v:horizAlign="1"/><v:tabList/>10</text>		</g>
		<g id="shape63-157" v:mID="63" v:groupContext="shape" transform="translate(488.25,-67.4615)">
			<title>Square.291</title>
			<desc>00</desc>
			<v:textBlock v:margins="rect(4,0,4,0)"/>
			<v:textRect cx="9" cy="211.462" width="18" height="18"/>
			<rect x="0" y="202.462" width="18" height="18" class="st1"/>
			<text x="3.99" y="214.16" class="st2" v:langID="1033"><v:paragraph v:horizAlign="1"/><v:tabList/>00</text>		</g>
		<g id="shape64-160" v:mID="64" v:groupContext="shape" transform="translate(411.75,-103.462)">
			<title>Sheet.64</title>
			<desc>X</desc>
			<v:textBlock v:margins="rect(0,0,0,0)"/>
			<v:textRect cx="8.64" cy="216.005" width="17.28" height="8.91226"/>
			<text x="5.64" y="218.71" class="st2" v:langID="1033"><v:paragraph v:horizAlign="1"/><v:tabList/>X</text>		</g>
		<g id="shape65-162" v:mID="65" v:groupContext="shape" transform="translate(429.75,-112.549)">
			<title>Sheet.65</title>
			<desc>Y Z</desc>
			<v:textBlock v:margins="rect(0,0,0,0)"/>
			<v:textRect cx="8.64" cy="213.755" width="17.28" height="13.4123"/>
			<text x="1.64" y="216.46" class="st2" v:langID="1033"><v:paragraph v:horizAlign="1"/><v:tabList/>Y Z</text>		</g>
		<g id="shape66-164" v:mID="66" v:groupContext="shape" transform="translate(250.815,239.29) rotate(-123.69)">
			<title>Sheet.66</title>
			<path d="M0 220.46 L16.22 220.46" class="st4"/>
		</g>
		<g id="shape67-167" v:mID="67" v:groupContext="shape" transform="translate(434.25,-103.549)">
			<title>Sheet.67</title>
			<desc>00</desc>
			<v:textBlock v:margins="rect(0,0,0,0)"/>
			<v:textRect cx="9" cy="216.005" width="18" height="8.91226"/>
			<text x="3.99" y="218.71" class="st2" v:langID="1033"><v:paragraph v:horizAlign="1"/><v:tabList/>00</text>		</g>
		<g id="shape68-169" v:mID="68" v:groupContext="shape" transform="translate(452.25,-103.462)">
			<title>Sheet.68</title>
			<desc>01</desc>
			<v:textBlock v:margins="rect(0,0,0,0)"/>
			<v:textRect cx="9" cy="216.005" width="18" height="8.91226"/>
			<text x="3.99" y="218.71" class="st2" v:langID="1033"><v:paragraph v:horizAlign="1"/><v:tabList/>01</text>		</g>
		<g id="shape69-171" v:mID="69" v:groupContext="shape" transform="translate(470.25,-103.462)">
			<title>Sheet.69</title>
			<desc>11</desc>
			<v:textBlock v:margins="rect(0,0,0,0)"/>
			<v:textRect cx="9" cy="216.005" width="18" height="8.91226"/>
			<text x="3.99" y="218.71" class="st2" v:langID="1033"><v:paragraph v:horizAlign="1"/><v:tabList/>11</text>		</g>
		<g id="shape70-173" v:mID="70" v:groupContext="shape" transform="translate(488.25,-103.462)">
			<title>Sheet.70</title>
			<desc>10</desc>
			<v:textBlock v:margins="rect(0,0,0,0)"/>
			<v:textRect cx="9" cy="216.005" width="18" height="8.91226"/>
			<text x="3.99" y="218.71" class="st2" v:langID="1033"><v:paragraph v:horizAlign="1"/><v:tabList/>10</text>		</g>
		<g id="shape71-175" v:mID="71" v:groupContext="shape" transform="translate(420.75,-90.0493)">
			<title>Sheet.71</title>
			<desc>0</desc>
			<v:textBlock v:margins="rect(0,0,0,0)"/>
			<v:textRect cx="6.75" cy="216.005" width="13.5" height="8.91226"/>
			<text x="4.25" y="218.71" class="st2" v:langID="1033"><v:paragraph v:horizAlign="1"/><v:tabList/>0</text>		</g>
		<g id="shape72-177" v:mID="72" v:groupContext="shape" transform="translate(420.75,-71.9615)">
			<title>Sheet.72</title>
			<desc>1</desc>
			<v:textBlock v:margins="rect(0,0,0,0)"/>
			<v:textRect cx="6.75" cy="216.005" width="13.5" height="8.91226"/>
			<text x="4.25" y="218.71" class="st2" v:langID="1033"><v:paragraph v:horizAlign="1"/><v:tabList/>1</text>		</g>
		<g id="shape73-179" v:mID="73" v:groupContext="shape" transform="translate(434.25,-53.9615)">
			<title>Sheet.73</title>
			<desc>Leaving State 11</desc>
			<v:textBlock v:margins="rect(0,0,0,0)"/>
			<v:textRect cx="38.25" cy="214.858" width="76.5" height="11.2061"/>
			<text x="4.47" y="217.56" class="st2" v:langID="1033"><v:paragraph v:horizAlign="1"/><v:tabList/>Leaving State 11</text>		</g>
		<g id="shape74-181" v:mID="74" v:groupContext="shape" transform="translate(337.5,-8.96151)">
			<title>Sheet.74</title>
			<desc>Logic graphs to check branch conditions</desc>
			<v:textBlock v:margins="rect(0,0,0,0)"/>
			<v:textRect cx="81" cy="200.233" width="162" height="40.4561"/>
			<text x="17.32" y="196.63" class="st5" v:langID="1033"><v:paragraph v:horizAlign="1"/><v:tabList/>Logic graphs to check<v:newlineChar/><tspan
						x="29" dy="1.2em" class="st6">branch conditions</tspan></text>		</g>
		<g id="shape75-184" v:mID="75" v:groupContext="shape" transform="translate(179.061,-146.585)">
			<title>Sheet.75</title>
			<desc>0 1</desc>
			<v:textBlock v:margins="rect(4,4,4,4)"/>
			<v:textRect cx="20.6372" cy="200.685" width="41.28" height="39.5527"/>
			<path d="M0 200.63 L0.24 197.64 L0.96 194.77 L2.03 192.02 L3.59 189.51 L5.5 187.12 L7.78 185.09 L10.29 183.42 L13.16
						 182.22 L16.03 181.27 L19.14 180.91 L22.13 180.91 L25.24 181.27 L28.11 182.22 L30.99 183.42 L33.5 185.09
						 L35.77 187.12 L37.69 189.51 L39.24 192.02 L40.32 194.77 L41.04 197.64 L41.27 200.63 L41.04 203.61 L40.32
						 206.48 L39.24 209.23 L37.69 211.86 L35.77 214.13 L33.5 216.16 L30.99 217.83 L28.11 219.15 L25.24 219.98
						 L22.13 220.46 L19.14 220.46 L16.03 219.98 L13.16 219.15 L10.29 217.83 L7.78 216.16 L5.5 214.13 L3.59 211.86
						 L2.03 209.23 L0.96 206.48 L0.24 203.61 L0 200.63 Z" class="st7"/>
			<text x="12.3" y="204.29" class="st8" v:langID="1033"><v:paragraph v:horizAlign="1"/><v:tabList/>0 1</text>		</g>
		<g id="shape76-187" v:mID="76" v:groupContext="shape" transform="translate(179.061,-27.5682)">
			<title>Sheet.76</title>
			<desc>1 1</desc>
			<v:textBlock v:margins="rect(4,4,4,4)"/>
			<v:textRect cx="20.6372" cy="200.685" width="41.28" height="39.5527"/>
			<path d="M0 200.74 L0.24 197.76 L0.96 194.89 L2.03 192.14 L3.59 189.51 L5.5 187.24 L7.78 185.21 L10.29 183.54 L13.16
						 182.22 L16.03 181.39 L19.14 180.91 L22.13 180.91 L25.24 181.39 L28.11 182.22 L30.99 183.54 L33.5 185.21
						 L35.77 187.24 L37.69 189.51 L39.24 192.14 L40.32 194.89 L41.04 197.76 L41.27 200.74 L41.04 203.73 L40.32
						 206.6 L39.24 209.35 L37.69 211.86 L35.77 214.25 L33.5 216.28 L30.99 217.95 L28.11 219.15 L25.24 220.1 L22.13
						 220.46 L19.14 220.46 L16.03 220.1 L13.16 219.15 L10.29 217.95 L7.78 216.28 L5.5 214.25 L3.59 211.86 L2.03
						 209.35 L0.96 206.6 L0.24 203.73 L0 200.74 Z" class="st7"/>
			<text x="12.3" y="204.29" class="st8" v:langID="1033"><v:paragraph v:horizAlign="1"/><v:tabList/>1 1</text>		</g>
		<g id="shape77-190" v:mID="77" v:groupContext="shape" transform="translate(55.4769,-27.5682)">
			<title>Sheet.77</title>
			<desc>1 0</desc>
			<v:textBlock v:margins="rect(4,4,4,4)"/>
			<v:textRect cx="20.5774" cy="200.685" width="41.16" height="39.5527"/>
			<path d="M0 200.74 L0.24 197.76 L0.96 194.89 L2.03 192.14 L3.59 189.51 L5.5 187.24 L7.78 185.21 L10.29 183.54 L13.04
						 182.22 L16.03 181.39 L19.02 180.91 L22.13 180.91 L25.24 181.39 L28.11 182.22 L30.87 183.54 L33.5 185.21
						 L35.77 187.24 L37.69 189.51 L39.12 192.14 L40.32 194.89 L41.04 197.76 L41.15 200.74 L41.04 203.73 L40.32
						 206.6 L39.12 209.35 L37.69 211.86 L35.77 214.25 L33.5 216.28 L30.87 217.95 L28.11 219.15 L25.24 220.1 L22.13
						 220.46 L19.02 220.46 L16.03 220.1 L13.04 219.15 L10.29 217.95 L7.78 216.28 L5.5 214.25 L3.59 211.86 L2.03
						 209.35 L0.96 206.6 L0.24 203.73 L0 200.74 Z" class="st7"/>
			<text x="12.24" y="204.29" class="st8" v:langID="1033"><v:paragraph v:horizAlign="1"/><v:tabList/>1 0</text>		</g>
		<g id="shape78-193" v:mID="78" v:groupContext="shape" transform="translate(52.3664,-59.2343)">
			<title>Sheet.78</title>
			<path d="M7.3 220.46 L5.98 214.96 L4.79 209.47 L3.71 203.73 L2.87 198.12 L2.03 192.38 L1.32 186.76 L0.84 181.15 L0.36
						 175.65 L0.12 170.27 L0 165.14 L0 160 L0.12 155.22 L0.36 150.56 L0.84 146.26 L1.32 142.19 L2.03 138.49 L2.87
						 135.14 L3.83 132.04 L4.79 129.41" class="st9"/>
		</g>
		<g id="shape79-196" v:mID="79" v:groupContext="shape" transform="translate(54.5199,-148.377)">
			<title>Sheet.79</title>
			<path d="M0 217.71 L5.14 214.37 L4.79 220.46 L0 217.71 Z" class="st10"/>
		</g>
		<g id="shape80-198" v:mID="80" v:groupContext="shape" transform="translate(102.987,-186.843)">
			<title>Sheet.80</title>
			<desc>X = &#39;1&#39;</desc>
			<v:textBlock v:margins="rect(0,0,0,0)"/>
			<v:textRect cx="17.1314" cy="211.505" width="34.27" height="17.9123"/>
			<text x="3.41" y="214.51" class="st11" v:langID="1033"><v:paragraph v:horizAlign="1"/><v:tabList/>X = &#39;1&#39;</text>		</g>
		<g id="shape81-200" v:mID="81" v:groupContext="shape" transform="translate(114.316,-132.148)">
			<title>Sheet.81</title>
			<desc>X=&#39;1&#39; or Y=&#39;1&#39;</desc>
			<v:textBlock v:margins="rect(0,0,0,0)"/>
			<v:textRect cx="31.9338" cy="214.511" width="63.87" height="11.9017"/>
			<text x="2.82" y="217.51" class="st11" v:langID="1033"><v:paragraph v:horizAlign="1"/><v:tabList/>X=&#39;1&#39; or Y=&#39;1&#39;</text>		</g>
		<g id="shape82-202" v:mID="82" v:groupContext="shape" transform="translate(55.4769,-146.585)">
			<title>Sheet.82</title>
			<desc>0 0</desc>
			<v:textBlock v:margins="rect(4,4,4,4)"/>
			<v:textRect cx="20.5774" cy="200.685" width="41.16" height="39.5527"/>
			<path d="M0 200.63 L0.24 197.64 L0.96 194.77 L2.03 192.02 L3.59 189.51 L5.5 187.12 L7.78 185.09 L10.29 183.42 L13.04
						 182.22 L16.03 181.27 L19.02 180.91 L22.13 180.91 L25.24 181.27 L28.11 182.22 L30.87 183.42 L33.5 185.09
						 L35.77 187.12 L37.69 189.51 L39.12 192.02 L40.32 194.77 L41.04 197.64 L41.15 200.63 L41.04 203.61 L40.32
						 206.48 L39.12 209.23 L37.69 211.86 L35.77 214.13 L33.5 216.16 L30.87 217.83 L28.11 219.15 L25.24 219.98
						 L22.13 220.46 L19.02 220.46 L16.03 219.98 L13.04 219.15 L10.29 217.83 L7.78 216.16 L5.5 214.13 L3.59 211.86
						 L2.03 209.23 L0.96 206.48 L0.24 203.61 L0 200.63 Z" class="st7"/>
			<text x="12.24" y="204.29" class="st8" v:langID="1033"><v:paragraph v:horizAlign="1"/><v:tabList/>0 0</text>		</g>
		<g id="shape83-205" v:mID="83" v:groupContext="shape" transform="translate(88.4965,-182.314)">
			<title>Sheet.83</title>
			<path d="M0 220.46 L5.26 218.79 L10.65 217.24 L15.91 215.92 L21.06 214.73 L26.32 213.77 L31.46 212.93 L36.49 212.34 L41.63
						 211.86 L46.66 211.62 L51.56 211.5 L56.47 211.62 L61.37 211.86 L66.16 212.34 L71.06 212.93 L75.73 213.77
						 L80.52 214.73 L85.18 215.92 L89.73 217.24 L94.39 218.79" class="st9"/>
		</g>
		<g id="shape84-208" v:mID="84" v:groupContext="shape" transform="translate(181.214,-181.597)">
			<title>Sheet.84</title>
			<path d="M1.91 215.32 L6.1 219.74 L0 220.46 L1.91 215.32 Z" class="st10"/>
		</g>
		<g id="shape85-210" v:mID="85" v:groupContext="shape" transform="translate(97.1103,-145.509)">
			<title>Sheet.85</title>
			<path d="M0 213.17 L4.55 214.73 L9.09 216.04 L13.52 217.24 L18.07 218.19 L22.61 219.03 L27.16 219.63 L31.7 220.1 L36.25
						 220.34 L40.8 220.46 L45.34 220.34 L49.89 220.1 L54.31 219.63 L58.86 219.03 L63.41 218.19 L67.95 217.24 L72.5
						 216.04 L77.05 214.73 L81.59 213.17 L86.14 211.5" class="st9"/>
		</g>
		<g id="shape86-213" v:mID="86" v:groupContext="shape" transform="translate(92.5641,-149.931)">
			<title>Sheet.86</title>
			<path d="M4.19 220.46 L0 215.92 L6.1 215.32 L4.19 220.46 Z" class="st10"/>
		</g>
		<g id="shape87-215" v:mID="87" v:groupContext="shape" transform="translate(212.081,-67.9574)">
			<title>Sheet.87</title>
			<path d="M0.84 220.46 L1.79 214.13 L2.75 207.91 L3.35 201.7 L3.95 195.49 L4.31 189.39 L4.43 183.42 L4.43 177.44 L4.31
						 171.59 L4.07 165.85 L3.59 160.12 L2.87 154.5 L2.03 148.88 L1.08 143.39 L0 137.89" class="st9"/>
		</g>
		<g id="shape88-218" v:mID="88" v:groupContext="shape" transform="translate(210.286,-63.1776)">
			<title>Sheet.88</title>
			<path d="M5.5 215.56 L1.79 220.46 L0 214.61 L5.5 215.56 Z" class="st10"/>
		</g>
		<g id="shape89-220" v:mID="89" v:groupContext="shape" transform="translate(97.1103,-26.4928)">
			<title>Sheet.89</title>
			<path d="M0 213.29 L4.55 214.73 L9.09 216.16 L13.52 217.24 L18.07 218.31 L22.61 219.03 L27.16 219.74 L31.7 220.1 L36.25
						 220.46 L40.8 220.46 L45.34 220.46 L49.89 220.1 L54.31 219.74 L58.86 219.03 L63.41 218.31 L67.95 217.24 L72.5
						 216.16 L77.05 214.73 L81.59 213.29 L86.14 211.5" class="st9"/>
		</g>
		<g id="shape90-223" v:mID="90" v:groupContext="shape" transform="translate(92.5641,-30.9141)">
			<title>Sheet.90</title>
			<path d="M4.19 220.46 L0 215.92 L6.1 215.32 L4.19 220.46 Z" class="st10"/>
		</g>
		<g id="shape91-225" v:mID="91" v:groupContext="shape" transform="translate(220.5,-109.973)">
			<title>Sheet.91</title>
			<desc>Z=&#39;1&#39; and (X=&#39;0&#39;)</desc>
			<v:textBlock v:margins="rect(0,0,0,0)"/>
			<v:textRect cx="37.14" cy="214.511" width="74.28" height="11.9017"/>
			<text x="1.08" y="217.51" class="st11" v:langID="1033"><v:paragraph v:horizAlign="1"/><v:tabList/>Z=&#39;1&#39; and (X=&#39;0&#39;)</text>		</g>
		<g id="shape92-227" v:mID="92" v:groupContext="shape" transform="translate(228.42,-98.7234)">
			<title>Sheet.92</title>
			<desc>and (Y=&#39;0&#39;)</desc>
			<v:textBlock v:margins="rect(0,0,0,0)"/>
			<v:textRect cx="28.08" cy="214.511" width="56.17" height="11.9017"/>
			<text x="4.07" y="217.51" class="st11" v:langID="1033"><v:paragraph v:horizAlign="1"/><v:tabList/>and (Y=&#39;0&#39;)</text>		</g>
		<g id="shape93-229" v:mID="93" v:groupContext="shape" transform="translate(15.72,-183.898)">
			<title>Sheet.93</title>
			<desc>X = &#39;0&#39;</desc>
			<v:textBlock v:margins="rect(0,0,0,0)"/>
			<v:textRect cx="14.64" cy="214.511" width="29.28" height="11.9017"/>
			<text x="0.92" y="217.51" class="st11" v:langID="1033"><v:paragraph v:horizAlign="1"/><v:tabList/>X = &#39;0&#39;</text>		</g>
		<g id="shape94-231" v:mID="94" v:groupContext="shape" transform="translate(218.25,-185.348)">
			<title>Sheet.94</title>
			<desc>(X=&#39;0&#39;) and (Y=&#39;0&#39;) and (Z=&#39;0&#39;)</desc>
			<v:textBlock v:margins="rect(0,0,0,0)"/>
			<v:textRect cx="40.515" cy="212.986" width="81.03" height="14.9508"/>
			<text x="0.84" y="209.99" class="st11" v:langID="1033"><v:paragraph v:horizAlign="1"/><v:tabList/>(X=&#39;0&#39;) and (Y=&#39;0&#39;) <tspan
						x="16.79" dy="1.2em" class="st6">and </tspan>(Z=&#39;0&#39;)</text>		</g>
		<g id="shape95-234" v:mID="95" v:groupContext="shape" transform="translate(214.86,-12.0984)">
			<title>Sheet.95</title>
			<desc>(X=&#39;0&#39;) and (Y=&#39;0&#39;) and (Z=&#39;0&#39;)</desc>
			<v:textBlock v:margins="rect(0,0,0,0)"/>
			<v:textRect cx="43.89" cy="214.511" width="87.78" height="11.9017"/>
			<text x="19.88" y="211.51" class="st11" v:langID="1033"><v:paragraph v:horizAlign="1"/><v:tabList/>(X=&#39;0&#39;) and<v:newlineChar/><tspan
						x="3.11" dy="1.2em" class="st6"> </tspan>(Y=&#39;0&#39;) and (Z=&#39;0&#39;)</text>		</g>
		<g id="shape96-237" v:mID="96" v:groupContext="shape" transform="translate(80.9594,-51.2282)">
			<title>Sheet.96</title>
			<path d="M0 129.88 L0.72 132.63 L1.67 135.5 L2.75 138.25 L4.07 141.12 L5.5 143.98 L7.18 146.85 L8.97 149.84 L11.01 152.71
						 L13.28 155.7 L15.67 158.68 L18.3 161.67 L21.18 164.78 L24.17 167.88 L27.4 170.99 L30.75 174.1 L34.34 177.2
						 L38.04 180.43 L41.99 183.54 L46.18 186.76 L50.49 189.99 L55.03 193.34 L59.82 196.56 L64.72 199.91 L69.75
						 203.25 L75.01 206.72 L80.52 210.07 L86.26 213.53 L92.12 217 L98.1 220.46" class="st9"/>
		</g>
		<g id="shape97-240" v:mID="97" v:groupContext="shape" transform="translate(78.3274,-140.73)">
			<title>Sheet.97</title>
			<path d="M0 220.46 L1.91 214.61 L5.5 219.63 L0 220.46 Z" class="st10"/>
		</g>
		<g id="shape98-242" v:mID="98" v:groupContext="shape" transform="translate(129.173,-84.1012)">
			<title>Sheet.98</title>
			<desc>X=&#39;1&#39; or Z=&#39;1&#39;</desc>
			<v:textBlock v:margins="rect(0,0,0,0)"/>
			<v:textRect cx="27.36" cy="214.511" width="54.72" height="11.9017"/>
			<text x="10.58" y="211.51" class="st11" v:langID="1033"><v:paragraph v:horizAlign="1"/><v:tabList/>X=&#39;1&#39; or <tspan
						x="16.7" dy="1.2em" class="st6">Z</tspan>=&#39;1&#39;</text>		</g>
		<g id="shape99-245" v:mID="99" v:groupContext="shape" transform="translate(2.4,-35.3976)">
			<title>Sheet.99</title>
			<desc>RED &#60;= &#39;1&#39;</desc>
			<v:textBlock v:margins="rect(0,0,0,0)"/>
			<v:textRect cx="25.8" cy="214.511" width="51.61" height="11.9017"/>
			<text x="1.94" y="217.51" class="st11" v:langID="1033"><v:paragraph v:horizAlign="1"/><v:tabList/>RED &#60;= &#39;1&#39;</text>		</g>
		<g id="shape100-247" v:mID="100" v:groupContext="shape" transform="translate(227.25,-55.6476)">
			<title>Sheet.100</title>
			<desc>RED &#60;= &#39;0&#39;</desc>
			<v:textBlock v:margins="rect(0,0,0,0)"/>
			<v:textRect cx="24.675" cy="214.511" width="49.36" height="11.9017"/>
			<text x="0" y="217.51" class="st11" v:langID="1033"><v:paragraph/><v:tabList/>RED &#60;= &#39;0&#39;</text>		</g>
		<g id="shape101-249" v:mID="101" v:groupContext="shape" transform="translate(223.95,-152.723)">
			<title>Sheet.101</title>
			<desc>RED &#60;= &#39;0&#39;</desc>
			<v:textBlock v:margins="rect(0,0,0,0)"/>
			<v:textRect cx="25.8" cy="214.511" width="51.61" height="11.9017"/>
			<text x="1.94" y="217.51" class="st11" v:langID="1033"><v:paragraph v:horizAlign="1"/><v:tabList/>RED &#60;= &#39;0&#39;</text>		</g>
		<g id="shape102-251" v:mID="102" v:groupContext="shape" transform="translate(0.15,-152.723)">
			<title>Sheet.102</title>
			<desc>RED &#60;= &#39;0&#39;</desc>
			<v:textBlock v:margins="rect(0,0,0,0)"/>
			<v:textRect cx="25.8" cy="214.511" width="51.61" height="11.9017"/>
			<text x="1.94" y="217.51" class="st11" v:langID="1033"><v:paragraph v:horizAlign="1"/><v:tabList/>RED &#60;= &#39;0&#39;</text>		</g>
		<g id="shape103-253" v:mID="103" v:groupContext="shape" transform="translate(104.647,-11.3289)">
			<title>Sheet.103</title>
			<desc>(Y=&#39;1&#39;) and (X=&#39;0&#39;)</desc>
			<v:textBlock v:margins="rect(0,0,0,0)"/>
			<v:textRect cx="42.1763" cy="214.511" width="84.36" height="11.9017"/>
			<text x="2.51" y="217.51" class="st11" v:langID="1033"><v:paragraph v:horizAlign="1"/><v:tabList/>(Y=&#39;1&#39;) and (X=&#39;0&#39;)</text>		</g>
		<g id="shape104-255" v:mID="104" v:groupContext="shape" transform="translate(118.189,-0.0492558)">
			<title>Sheet.104</title>
			<desc>and (Z=&#39;0&#39;)</desc>
			<v:textBlock v:margins="rect(0,0,0,0)"/>
			<v:textRect cx="25.2803" cy="214.511" width="50.57" height="11.9017"/>
			<text x="1.55" y="217.51" class="st11" v:langID="1033"><v:paragraph v:horizAlign="1"/><v:tabList/>and (Z=&#39;0&#39;)</text>		</g>
		<g id="shape105-257" v:mID="105" v:groupContext="shape" transform="translate(-143.923,73.4304) rotate(-100.095)">
			<title>Sheet.105</title>
			<path d="M5.64 220.46 L6 220.46 L19.43 220.46" class="st12"/>
		</g>
		<g id="shape106-263" v:mID="106" v:groupContext="shape" transform="translate(47.25,-202.549)">
			<title>Sheet.106</title>
			<desc>Reset</desc>
			<v:textBlock v:margins="rect(0,0,0,0)"/>
			<v:textRect cx="16.875" cy="211.505" width="33.75" height="17.9123"/>
			<text x="3.81" y="214.51" class="st11" v:langID="1033"><v:paragraph v:horizAlign="1"/><v:tabList/>Reset</text>		</g>
		<g id="shape107-265" v:mID="107" v:groupContext="shape" transform="translate(-124.359,-77.0141) rotate(-55.008)">
			<title>Sheet.107</title>
			<path d="M0 220.46 C-1.8 217.36 -2.33 213.45 -1.38 210.29 C-0.95 208.85 -0.21 207.56 1.24 206.51 C2.21 205.8 3.49 205.2
						 4.75 204.87 C7.29 204.2 9.74 204.63 11.63 205.79 C13.75 207.08 15.15 209.3 15.9 211.55 C16.28 212.7 16.5
						 213.86 16.38 215.08 L16.22 215.4" class="st14"/>
		</g>
		<g id="shape108-271" v:mID="108" v:groupContext="shape" transform="translate(400.547,-77.0141) rotate(55.008) scale(-1,1)">
			<title>Sheet.108</title>
			<path d="M0 220.46 C-1.8 217.36 -2.33 213.45 -1.38 210.29 C-0.95 208.85 -0.21 207.56 1.24 206.51 C2.21 205.8 3.49 205.2
						 4.75 204.87 C7.29 204.2 9.74 204.63 11.63 205.79 C13.75 207.08 15.15 209.3 15.9 211.55 C16.28 212.7 16.5
						 213.86 16.38 215.08 L16.22 215.4" class="st14"/>
		</g>
		<g id="shape109-276" v:mID="109" v:groupContext="shape" transform="translate(400.547,304.37) rotate(124.992)">
			<title>Sheet.109</title>
			<path d="M0 220.46 C-1.8 217.36 -2.33 213.45 -1.38 210.29 C-0.95 208.85 -0.21 207.56 1.24 206.51 C2.21 205.8 3.49 205.2
						 4.75 204.87 C7.29 204.2 9.74 204.63 11.63 205.79 C13.75 207.08 15.15 209.3 15.9 211.55 C16.28 212.7 16.5
						 213.86 16.38 215.08 L16.22 215.4" class="st14"/>
		</g>
		<g id="shape110-281" v:mID="110" v:groupContext="shape" transform="translate(0,-141.473)">
			<title>Sheet.110</title>
			<desc>GRN &#60;= &#39;1&#39;</desc>
			<v:textBlock v:margins="rect(0,0,0,0)"/>
			<v:textRect cx="25.8" cy="214.511" width="51.61" height="11.9017"/>
			<text x="1.38" y="217.51" class="st11" v:langID="1033"><v:paragraph v:horizAlign="1"/><v:tabList/>GRN &#60;= &#39;1&#39;</text>		</g>
		<g id="shape111-283" v:mID="111" v:groupContext="shape" transform="translate(2.4,-24.1476)">
			<title>Sheet.111</title>
			<desc>GRN &#60;= &#39;0&#39;</desc>
			<v:textBlock v:margins="rect(0,0,0,0)"/>
			<v:textRect cx="25.8" cy="214.511" width="51.61" height="11.9017"/>
			<text x="1.38" y="217.51" class="st11" v:langID="1033"><v:paragraph v:horizAlign="1"/><v:tabList/>GRN &#60;= &#39;0&#39;</text>		</g>
		<g id="shape112-285" v:mID="112" v:groupContext="shape" transform="translate(225,-141.473)">
			<title>Sheet.112</title>
			<desc>GRN &#60;= X</desc>
			<v:textBlock v:margins="rect(0,0,0,0)"/>
			<v:textRect cx="36.525" cy="214.511" width="73.06" height="11.9017"/>
			<text x="0" y="217.51" class="st11" v:langID="1033"><v:paragraph/><v:tabList/>GRN &#60;= X</text>		</g>
		<g id="shape113-287" v:mID="113" v:groupContext="shape" transform="translate(227.25,-43.9243)">
			<title>Sheet.113</title>
			<desc>GRN &#60;= X∙Y</desc>
			<v:textBlock v:margins="rect(0,0,0,0)"/>
			<v:textRect cx="45" cy="214.511" width="90" height="11.9017"/>
			<text x="0" y="217.51" class="st11" v:langID="1033"><v:paragraph/><v:tabList/>GRN &#60;= X∙Y</text>		</g>
	</g>
</svg>
