<?xml version="1.0" encoding="UTF-8" standalone="no"?>
<!DOCTYPE svg PUBLIC "-//W3C//DTD SVG 1.1//EN" "http://www.w3.org/Graphics/SVG/1.1/DTD/svg11.dtd">
<!-- Generated by Microsoft Visio, SVG Export timing.svg Page-1 -->
<svg xmlns="http://www.w3.org/2000/svg" xmlns:xlink="http://www.w3.org/1999/xlink" xmlns:ev="http://www.w3.org/2001/xml-events"
		xmlns:v="http://schemas.microsoft.com/visio/2003/SVGExtensions/" width="6.895in" height="1.31208in"
		viewBox="0 0 496.44 94.4699" xml:space="preserve" color-interpolation-filters="sRGB" class="st7">
	<v:documentProperties v:langID="1033" v:viewMarkup="false">
		<v:userDefs>
			<v:ud v:nameU="msvConvertTheme"/>
		</v:userDefs>
	</v:documentProperties>

	<style type="text/css">
	<![CDATA[
		.st1 {stroke:#000000;stroke-linecap:round;stroke-linejoin:round;stroke-width:0.72}
		.st2 {stroke:#000000;stroke-dasharray:0,3.6;stroke-linecap:round;stroke-linejoin:round;stroke-width:0.72}
		.st3 {fill:none;stroke:none;stroke-linecap:round;stroke-linejoin:round;stroke-width:0.72}
		.st4 {fill:#000000;font-family:Arial;font-size:0.833336em}
		.st5 {fill:#ffffff;stroke:#000000;stroke-linecap:round;stroke-linejoin:round;stroke-width:0.24}
		.st6 {font-size:1em}
		.st7 {fill:none;fill-rule:evenodd;font-size:12px;overflow:visible;stroke-linecap:square;stroke-miterlimit:3}
	]]>
	</style>

	<g v:mID="0" v:index="1" v:groupContext="foregroundPage">
		<title>Page-1</title>
		<v:pageProperties v:drawingScale="1" v:pageScale="1" v:drawingUnits="19" v:shadowOffsetX="9" v:shadowOffsetY="-9"/>
		<g id="shape83-1" v:mID="83" v:groupContext="shape" transform="translate(18.72,-56.97)">
			<title>Sheet.83</title>
			<path d="M0 94.47 L42.75 94.47 L42.75 80.97 L56.25 80.97 L56.25 94.47 L83.25 94.47 L83.25 80.97 L123.75 80.97"
					class="st1"/>
		</g>
		<g id="shape84-4" v:mID="84" v:groupContext="shape" transform="translate(142.47,-56.97)">
			<title>Sheet.84</title>
			<path d="M0 80.97 L0 94.47 L31.5 94.47 L31.5 80.97 L45 80.97 L45 94.47 L72 94.47" class="st1"/>
		</g>
		<g id="shape85-7" v:mID="85" v:groupContext="shape" transform="translate(128.94,14.9999) rotate(90)">
			<title>Sheet.85</title>
			<path d="M0 94.47 L69.75 94.47" class="st2"/>
		</g>
		<g id="shape86-10" v:mID="86" v:groupContext="shape" transform="translate(155.94,28.4999) rotate(90)">
			<title>Sheet.86</title>
			<path d="M0 94.47 L56.25 94.47" class="st2"/>
		</g>
		<g id="shape87-13" v:mID="87" v:groupContext="shape" transform="translate(236.94,28.4999) rotate(90)">
			<title>Sheet.87</title>
			<path d="M0 94.47 L56.25 94.47" class="st2"/>
		</g>
		<g id="shape88-16" v:mID="88" v:groupContext="shape" transform="translate(209.94,12.7499) rotate(90)">
			<title>Sheet.88</title>
			<path d="M0 94.47 L69.75 94.47" class="st2"/>
		</g>
		<g id="shape89-19" v:mID="89" v:groupContext="shape" transform="translate(223.44,14.9999) rotate(90)">
			<title>Sheet.89</title>
			<path d="M0 94.47 L69.75 94.47" class="st2"/>
		</g>
		<g id="shape90-22" v:mID="90" v:groupContext="shape" transform="translate(250.44,12.7499) rotate(90)">
			<title>Sheet.90</title>
			<path d="M0 94.47 L69.75 94.47" class="st2"/>
		</g>
		<g id="shape91-25" v:mID="91" v:groupContext="shape" transform="translate(0.72,-74.97)">
			<title>Sheet.91</title>
			<desc>G</desc>
			<v:textBlock v:margins="rect(4,4,4,4)"/>
			<v:textRect cx="7.3125" cy="85.4699" width="14.63" height="18"/>
			<rect x="0" y="76.4699" width="14.625" height="18" class="st3"/>
			<text x="4" y="88.47" class="st4" v:langID="1033"><v:paragraph v:horizAlign="1"/><v:tabList/>G</text>		</g>
		<g id="shape92-28" v:mID="92" v:groupContext="shape" transform="translate(0.72,-56.97)">
			<title>Sheet.92</title>
			<desc>D</desc>
			<v:textBlock v:margins="rect(4,4,4,4)"/>
			<v:textRect cx="7.3125" cy="87.7199" width="14.63" height="13.5"/>
			<rect x="0" y="80.9699" width="14.625" height="13.5" class="st3"/>
			<text x="4" y="90.72" class="st4" v:langID="1033"><v:paragraph v:horizAlign="1"/><v:tabList/>D</text>		</g>
		<g id="shape93-31" v:mID="93" v:groupContext="shape" transform="translate(0.72,-20.97)">
			<title>Sheet.93</title>
			<desc>Q</desc>
			<v:textBlock v:margins="rect(4,4,4,4)"/>
			<v:textRect cx="7.3125" cy="87.7199" width="14.63" height="13.5"/>
			<rect x="0" y="80.9699" width="14.625" height="13.5" class="st3"/>
			<text x="4" y="90.72" class="st4" v:langID="1033"><v:paragraph v:horizAlign="1"/><v:tabList/>Q</text>		</g>
		<g id="shape95-34" v:mID="95" v:groupContext="shape" transform="translate(18.72,95.9698) scale(1,-1)">
			<title>Sheet.95</title>
			<path d="M0 80.97 L15.75 80.97 L15.75 94.47" class="st1"/>
		</g>
		<g id="shape96-37" v:mID="96" v:groupContext="shape" transform="translate(34.47,95.9698) scale(1,-1)">
			<title>Sheet.96</title>
			<path d="M0 94.47 L13.5 94.47" class="st1"/>
		</g>
		<g id="shape97-40" v:mID="97" v:groupContext="shape" transform="translate(47.97,95.9698) scale(1,-1)">
			<title>Sheet.97</title>
			<path d="M0 94.47 L0 80.97 L67.5 80.97 L67.5 94.47 L81 94.47 L81 80.97 L108 80.97 L108 94.47 L126 94.47 L153 94.47 L153
						 80.97 L166.5 80.97" class="st1"/>
		</g>
		<g id="shape99-43" v:mID="99" v:groupContext="shape" transform="translate(20.97,-34.47)">
			<title>Sheet.99</title>
			<path d="M0 94.47 L13.5 94.47" class="st1"/>
		</g>
		<g id="shape100-46" v:mID="100" v:groupContext="shape" transform="translate(20.97,-20.97)">
			<title>Sheet.100</title>
			<path d="M0 94.47 L13.5 94.47" class="st1"/>
		</g>
		<g id="shape101-49" v:mID="101" v:groupContext="shape" transform="translate(128.94,59.9999) rotate(90)">
			<title>Sheet.101</title>
			<path d="M0 94.47 L13.5 94.47" class="st1"/>
		</g>
		<g id="shape102-52" v:mID="102" v:groupContext="shape" transform="translate(34.47,-20.97)">
			<title>Sheet.102</title>
			<path d="M0 94.47 L13.5 94.47 L27 94.47 L54 94.47 L81 94.47 L81 80.97 L121.5 80.97 L121.5 94.47 L139.5 94.47"
					class="st1"/>
		</g>
		<g id="shape103-55" v:mID="103" v:groupContext="shape" transform="translate(20.97,-20.97)">
			<title>Sheet.103</title>
			<path d="M0 80.97 L2.25 94.47 L4.5 80.97 L6.75 94.47 L9 80.97 L11.25 94.47 L13.5 80.97" class="st1"/>
		</g>
		<g id="shape104-58" v:mID="104" v:groupContext="shape" transform="translate(20.97,-20.97)">
			<title>Sheet.104</title>
			<path d="M0 94.47 L2.25 80.97 L4.5 94.47 L6.75 80.97 L9 94.47 L11.25 80.97 L13.5 94.47" class="st1"/>
		</g>
		<g id="shape94-61" v:mID="94" v:groupContext="shape" transform="translate(173.97,-20.97)">
			<title>Sheet.94</title>
			<path d="M0 94.47 L0 80.97 L13.5 80.97 L13.5 94.47 L40.5 94.47" class="st1"/>
		</g>
		<g id="shape229-64" v:mID="229" v:groupContext="shape" transform="translate(268.44,28.4999) rotate(90)">
			<title>Sheet.229</title>
			<path d="M0 94.47 L54 94.47" class="st2"/>
		</g>
		<g id="group230-67" transform="translate(28.845,-0.72)" v:mID="230" v:groupContext="group">
			<title>Sheet.230</title>
			<g id="shape231-68" v:mID="231" v:groupContext="shape">
				<title>Circle.96</title>
				<path d="M0 88.84 A5.625 5.625 0 0 1 11.25 88.84 A5.625 5.625 0 1 1 0 88.84 Z" class="st5"/>
			</g>
			<g id="shape232-70" v:mID="232" v:groupContext="shape">
				<title>Sheet.232</title>
				<desc>1</desc>
				<v:textBlock v:margins="rect(4,4,4,4)"/>
				<v:textRect cx="4.21875" cy="88.8449" width="8.44" height="11.25"/>
				<rect x="0" y="83.2199" width="8.4375" height="11.25" class="st3"/>
				<text x="4" y="91.84" class="st4" v:langID="1033"><v:paragraph v:horizAlign="1"/><v:tabList/>1</text>			</g>
		</g>
		<g id="group233-73" transform="translate(55.845,-0.72)" v:mID="233" v:groupContext="group">
			<title>Sheet.233</title>
			<g id="shape234-74" v:mID="234" v:groupContext="shape">
				<title>Circle.96</title>
				<path d="M0 88.84 A5.625 5.625 0 0 1 11.25 88.84 A5.625 5.625 0 1 1 0 88.84 Z" class="st5"/>
			</g>
			<g id="shape235-76" v:mID="235" v:groupContext="shape">
				<title>Sheet.235</title>
				<desc>2</desc>
				<v:textBlock v:margins="rect(4,4,4,4)"/>
				<v:textRect cx="4.21875" cy="88.8449" width="8.44" height="11.25"/>
				<rect x="0" y="83.2199" width="8.4375" height="11.25" class="st3"/>
				<text x="4" y="91.84" class="st4" v:langID="1033"><v:paragraph v:horizAlign="1"/><v:tabList/>2</text>			</g>
		</g>
		<g id="shape236-79" v:mID="236" v:groupContext="shape" transform="translate(109.845,-0.72)">
			<title>Circle.143</title>
			<path d="M0 88.84 A5.625 5.625 0 0 1 11.25 88.84 A5.625 5.625 0 1 1 0 88.84 Z" class="st5"/>
		</g>
		<g id="shape237-81" v:mID="237" v:groupContext="shape" transform="translate(109.845,-0.72)">
			<title>Sheet.237</title>
			<desc>3</desc>
			<v:textBlock v:margins="rect(4,4,4,4)"/>
			<v:textRect cx="5.0625" cy="88.8449" width="10.13" height="11.25"/>
			<rect x="0" y="83.2199" width="10.125" height="11.25" class="st3"/>
			<text x="4" y="91.84" class="st4" v:langID="1033"><v:paragraph v:horizAlign="1"/><v:tabList/>3</text>		</g>
		<g id="shape238-84" v:mID="238" v:groupContext="shape" transform="translate(123.345,-0.72)">
			<title>Circle.145</title>
			<path d="M0 88.84 A5.625 5.625 0 0 1 11.25 88.84 A5.625 5.625 0 1 1 0 88.84 Z" class="st5"/>
		</g>
		<g id="shape239-86" v:mID="239" v:groupContext="shape" transform="translate(123.345,-0.72)">
			<title>Sheet.239</title>
			<desc>4</desc>
			<v:textBlock v:margins="rect(4,4,4,4)"/>
			<v:textRect cx="4.21875" cy="88.8449" width="8.44" height="11.25"/>
			<rect x="0" y="83.2199" width="8.4375" height="11.25" class="st3"/>
			<text x="4" y="91.84" class="st4" v:langID="1033"><v:paragraph v:horizAlign="1"/><v:tabList/>4</text>		</g>
		<g id="shape240-89" v:mID="240" v:groupContext="shape" transform="translate(136.845,-0.72)">
			<title>Circle.147</title>
			<path d="M0 88.84 A5.625 5.625 0 0 1 11.25 88.84 A5.625 5.625 0 1 1 0 88.84 Z" class="st5"/>
		</g>
		<g id="shape241-91" v:mID="241" v:groupContext="shape" transform="translate(136.845,-0.72)">
			<title>Sheet.241</title>
			<desc>5</desc>
			<v:textBlock v:margins="rect(4,4,4,4)"/>
			<v:textRect cx="4.21875" cy="88.8449" width="8.44" height="11.25"/>
			<rect x="0" y="83.2199" width="8.4375" height="11.25" class="st3"/>
			<text x="4" y="91.84" class="st4" v:langID="1033"><v:paragraph v:horizAlign="1"/><v:tabList/>5</text>		</g>
		<g id="shape242-94" v:mID="242" v:groupContext="shape" transform="translate(150.345,-0.72)">
			<title>Circle.149</title>
			<path d="M0 88.84 A5.625 5.625 0 0 1 11.25 88.84 A5.625 5.625 0 1 1 0 88.84 Z" class="st5"/>
		</g>
		<g id="shape243-96" v:mID="243" v:groupContext="shape" transform="translate(150.345,-0.72)">
			<title>Sheet.243</title>
			<desc>6</desc>
			<v:textBlock v:margins="rect(4,4,4,4)"/>
			<v:textRect cx="4.21875" cy="88.8449" width="8.44" height="11.25"/>
			<rect x="0" y="83.2199" width="8.4375" height="11.25" class="st3"/>
			<text x="4" y="91.84" class="st4" v:langID="1033"><v:paragraph v:horizAlign="1"/><v:tabList/>6</text>		</g>
		<g id="shape244-99" v:mID="244" v:groupContext="shape" transform="translate(239.22,-29.97)">
			<title>Sheet.244</title>
			<desc>1. Q is undefined until G is asserted; Q gets D&#39;s value 2. D ...</desc>
			<v:textBlock v:margins="rect(4,4,4,4)"/>
			<v:textRect cx="128.25" cy="71.9699" width="256.5" height="45"/>
			<rect x="0" y="49.4699" width="256.5" height="45" class="st3"/>
			<text x="4" y="38.97" class="st4" v:langID="1033"><v:paragraph/><v:tabList/>1. Q is undefined until G is asserted; Q gets D&#39;s value<v:newlineChar/><tspan
						x="4" dy="1.2em" class="st6">2</tspan>. D is asserted but G is not; Q unchanged<v:newlineChar/><tspan x="4"
						dy="1.2em" class="st6">3</tspan>. D and G are asserted; Q gets D&#39;s value<v:newlineChar/><tspan x="4"
						dy="1.2em" class="st6">4</tspan>. G de-asserted; Q memorizes D&#39;s value<v:newlineChar/><tspan x="4"
						dy="1.2em" class="st6">5</tspan>. D de-asserted but G also de-asserted; Q unchanged<v:newlineChar/><tspan
						x="4" dy="1.2em" class="st6">6</tspan>. G asserted and Q gets D&#39;s value<v:newlineChar/><tspan x="4"
						dy="1.2em" class="st6">7</tspan>. Q follows D while G asserted  </text>		</g>
		<g id="shape245-108" v:mID="245" v:groupContext="shape" transform="translate(168.345,-0.72)">
			<title>Circle.245</title>
			<path d="M0 88.84 A5.625 5.625 0 0 1 11.25 88.84 A5.625 5.625 0 1 1 0 88.84 Z" class="st5"/>
		</g>
		<g id="shape246-110" v:mID="246" v:groupContext="shape" transform="translate(168.345,-0.72)">
			<title>Sheet.246</title>
			<desc>7</desc>
			<v:textBlock v:margins="rect(4,4,4,4)"/>
			<v:textRect cx="4.21875" cy="88.8449" width="8.44" height="11.25"/>
			<rect x="0" y="83.2199" width="8.4375" height="11.25" class="st3"/>
			<text x="4" y="91.84" class="st4" v:langID="1033"><v:paragraph v:horizAlign="1"/><v:tabList/>7</text>		</g>
	</g>
</svg>
