<?xml version="1.0" encoding="UTF-8" standalone="no"?>
<!DOCTYPE svg PUBLIC "-//W3C//DTD SVG 1.1//EN" "http://www.w3.org/Graphics/SVG/1.1/DTD/svg11.dtd">
<!-- Generated by Microsoft Visio, SVG Export loops.svg Page-1 -->
<svg xmlns="http://www.w3.org/2000/svg" xmlns:xlink="http://www.w3.org/1999/xlink" xmlns:ev="http://www.w3.org/2001/xml-events"
		xmlns:v="http://schemas.microsoft.com/visio/2003/SVGExtensions/" width="2.53125in" height="1.81144in"
		viewBox="0 0 182.25 130.424" xml:space="preserve" color-interpolation-filters="sRGB" class="st23">
	<v:documentProperties v:langID="1033" v:viewMarkup="false"/>

	<style type="text/css">
	<![CDATA[
		.st1 {fill:#ffffff;stroke:#000000;stroke-linecap:round;stroke-linejoin:round;stroke-width:0.72}
		.st2 {fill:#000000;font-family:Arial;font-size:0.75em}
		.st3 {stroke:none;stroke-linecap:round;stroke-linejoin:round;stroke-width:0.75}
		.st4 {fill:#000000;font-family:Arial;font-size:0.833336em}
		.st5 {stroke:#000000;stroke-linecap:round;stroke-linejoin:round;stroke-width:0.72}
		.st6 {fill:none;stroke:#ffc000;stroke-linecap:round;stroke-linejoin:round;stroke-width:1.2}
		.st7 {fill:none;stroke:#923931;stroke-linecap:round;stroke-linejoin:round;stroke-width:1.2}
		.st8 {fill:none;stroke:#d9958f;stroke-linecap:round;stroke-linejoin:round;stroke-width:1.2}
		.st9 {fill:none;stroke:#ff0000;stroke-linecap:round;stroke-linejoin:round;stroke-width:1.2}
		.st10 {fill:none;stroke:#612621;stroke-linecap:round;stroke-linejoin:round;stroke-width:1.2}
		.st11 {fill:none;stroke:none;stroke-linecap:round;stroke-linejoin:round;stroke-width:0.75}
		.st12 {fill:#000000;font-family:Arial;font-size:0.833336em;font-weight:bold}
		.st13 {marker-end:url(#mrkr5-112);stroke:#ffc000;stroke-linecap:round;stroke-linejoin:round;stroke-width:0.75}
		.st14 {fill:#ffc000;fill-opacity:1;stroke:#ffc000;stroke-opacity:1;stroke-width:0.22935779816514}
		.st15 {marker-end:url(#mrkr5-129);stroke:#612621;stroke-linecap:round;stroke-linejoin:round;stroke-width:0.75}
		.st16 {fill:#612621;fill-opacity:1;stroke:#612621;stroke-opacity:1;stroke-width:0.22935779816514}
		.st17 {marker-end:url(#mrkr5-138);stroke:#ff0000;stroke-linecap:round;stroke-linejoin:round;stroke-width:0.75}
		.st18 {fill:#ff0000;fill-opacity:1;stroke:#ff0000;stroke-opacity:1;stroke-width:0.22935779816514}
		.st19 {marker-end:url(#mrkr5-147);stroke:#d9958f;stroke-linecap:round;stroke-linejoin:round;stroke-width:0.75}
		.st20 {fill:#d9958f;fill-opacity:1;stroke:#d9958f;stroke-opacity:1;stroke-width:0.22935779816514}
		.st21 {marker-end:url(#mrkr5-156);stroke:#923931;stroke-linecap:round;stroke-linejoin:round;stroke-width:0.75}
		.st22 {fill:#923931;fill-opacity:1;stroke:#923931;stroke-opacity:1;stroke-width:0.22935779816514}
		.st23 {fill:none;fill-rule:evenodd;font-size:12px;overflow:visible;stroke-linecap:square;stroke-miterlimit:3}
	]]>
	</style>

	<defs id="Markers">
		<g id="lend5">
			<path d="M 2 1 L 0 0 L 1.98117 -0.993387 C 1.67173 -0.364515 1.67301 0.372641 1.98465 1.00043 " style="stroke:none"/>
		</g>
		<marker id="mrkr5-112" class="st14" v:arrowType="5" v:arrowSize="2" v:setback="7.15" refX="-7.15" orient="auto"
				markerUnits="strokeWidth" overflow="visible">
			<use xlink:href="#lend5" transform="scale(-4.36,-4.36) "/>
		</marker>
		<marker id="mrkr5-129" class="st16" v:arrowType="5" v:arrowSize="2" v:setback="7.15" refX="-7.15" orient="auto"
				markerUnits="strokeWidth" overflow="visible">
			<use xlink:href="#lend5" transform="scale(-4.36,-4.36) "/>
		</marker>
		<marker id="mrkr5-138" class="st18" v:arrowType="5" v:arrowSize="2" v:setback="7.15" refX="-7.15" orient="auto"
				markerUnits="strokeWidth" overflow="visible">
			<use xlink:href="#lend5" transform="scale(-4.36,-4.36) "/>
		</marker>
		<marker id="mrkr5-147" class="st20" v:arrowType="5" v:arrowSize="2" v:setback="7.15" refX="-7.15" orient="auto"
				markerUnits="strokeWidth" overflow="visible">
			<use xlink:href="#lend5" transform="scale(-4.36,-4.36) "/>
		</marker>
		<marker id="mrkr5-156" class="st22" v:arrowType="5" v:arrowSize="2" v:setback="7.15" refX="-7.15" orient="auto"
				markerUnits="strokeWidth" overflow="visible">
			<use xlink:href="#lend5" transform="scale(-4.36,-4.36) "/>
		</marker>
	</defs>
	<g v:mID="0" v:index="1" v:groupContext="foregroundPage">
		<title>Page-1</title>
		<v:pageProperties v:drawingScale="1" v:pageScale="1" v:drawingUnits="19" v:shadowOffsetX="9" v:shadowOffsetY="-9"/>
		<g id="shape62-1" v:mID="62" v:groupContext="shape" transform="translate(76.5,-82.6493)">
			<title>Rectangle.62</title>
			<desc>0</desc>
			<v:userDefs>
				<v:ud v:nameU="visVersion" v:val="VT0(11):26"/>
			</v:userDefs>
			<v:textBlock v:margins="rect(4,4,4,4)"/>
			<v:textRect cx="11.25" cy="119.174" width="22.5" height="22.5"/>
			<rect x="0" y="107.924" width="22.5" height="22.5" class="st1"/>
			<text x="8.75" y="121.87" class="st2" v:langID="1033"><v:paragraph v:horizAlign="1"/><v:tabList/>0</text>		</g>
		<g id="shape63-4" v:mID="63" v:groupContext="shape" transform="translate(54,-82.6493)">
			<title>Rectangle.63</title>
			<desc>0</desc>
			<v:userDefs>
				<v:ud v:nameU="visVersion" v:val="VT0(11):26"/>
			</v:userDefs>
			<v:textBlock v:margins="rect(4,4,4,4)"/>
			<v:textRect cx="11.25" cy="119.174" width="22.5" height="22.5"/>
			<rect x="0" y="107.924" width="22.5" height="22.5" class="st1"/>
			<text x="8.75" y="121.87" class="st2" v:langID="1033"><v:paragraph v:horizAlign="1"/><v:tabList/>0</text>		</g>
		<g id="shape64-7" v:mID="64" v:groupContext="shape" transform="translate(121.5,-82.6493)">
			<title>Rectangle.64</title>
			<desc>0</desc>
			<v:userDefs>
				<v:ud v:nameU="visVersion" v:val="VT0(11):26"/>
			</v:userDefs>
			<v:textBlock v:margins="rect(4,4,4,4)"/>
			<v:textRect cx="11.25" cy="119.174" width="22.5" height="22.5"/>
			<rect x="0" y="107.924" width="22.5" height="22.5" class="st1"/>
			<text x="8.75" y="121.87" class="st2" v:langID="1033"><v:paragraph v:horizAlign="1"/><v:tabList/>0</text>		</g>
		<g id="shape65-10" v:mID="65" v:groupContext="shape" transform="translate(99,-82.6493)">
			<title>Rectangle.65</title>
			<desc>E</desc>
			<v:userDefs>
				<v:ud v:nameU="visVersion" v:val="VT0(11):26"/>
			</v:userDefs>
			<v:textBlock v:margins="rect(4,4,4,4)"/>
			<v:textRect cx="11.25" cy="119.174" width="22.5" height="22.5"/>
			<rect x="0" y="107.924" width="22.5" height="22.5" class="st1"/>
			<text x="8.25" y="121.87" class="st2" v:langID="1033"><v:paragraph v:horizAlign="1"/><v:tabList/>E</text>		</g>
		<g id="shape66-13" v:mID="66" v:groupContext="shape" transform="translate(76.5,-60.1493)">
			<title>Rectangle.66</title>
			<desc>E</desc>
			<v:userDefs>
				<v:ud v:nameU="visVersion" v:val="VT0(11):26"/>
			</v:userDefs>
			<v:textBlock v:margins="rect(4,4,4,4)"/>
			<v:textRect cx="11.25" cy="119.174" width="22.5" height="22.5"/>
			<rect x="0" y="107.924" width="22.5" height="22.5" class="st1"/>
			<text x="8.25" y="121.87" class="st2" v:langID="1033"><v:paragraph v:horizAlign="1"/><v:tabList/>E</text>		</g>
		<g id="shape67-16" v:mID="67" v:groupContext="shape" transform="translate(54,-60.1493)">
			<title>Rectangle.67</title>
			<desc>0</desc>
			<v:userDefs>
				<v:ud v:nameU="visVersion" v:val="VT0(11):26"/>
			</v:userDefs>
			<v:textBlock v:margins="rect(4,4,4,4)"/>
			<v:textRect cx="11.25" cy="119.174" width="22.5" height="22.5"/>
			<rect x="0" y="107.924" width="22.5" height="22.5" class="st1"/>
			<text x="8.75" y="121.87" class="st2" v:langID="1033"><v:paragraph v:horizAlign="1"/><v:tabList/>0</text>		</g>
		<g id="shape68-19" v:mID="68" v:groupContext="shape" transform="translate(121.5,-60.1493)">
			<title>Rectangle.68</title>
			<desc>E</desc>
			<v:userDefs>
				<v:ud v:nameU="visVersion" v:val="VT0(11):26"/>
			</v:userDefs>
			<v:textBlock v:margins="rect(4,4,4,4)"/>
			<v:textRect cx="11.25" cy="119.174" width="22.5" height="22.5"/>
			<rect x="0" y="107.924" width="22.5" height="22.5" class="st1"/>
			<text x="8.25" y="121.87" class="st2" v:langID="1033"><v:paragraph v:horizAlign="1"/><v:tabList/>E</text>		</g>
		<g id="shape69-22" v:mID="69" v:groupContext="shape" transform="translate(99,-60.1493)">
			<title>Rectangle.69</title>
			<desc>1</desc>
			<v:userDefs>
				<v:ud v:nameU="visVersion" v:val="VT0(11):26"/>
			</v:userDefs>
			<v:textBlock v:margins="rect(4,4,4,4)"/>
			<v:textRect cx="11.25" cy="119.174" width="22.5" height="22.5"/>
			<rect x="0" y="107.924" width="22.5" height="22.5" class="st1"/>
			<text x="8.75" y="121.87" class="st2" v:langID="1033"><v:paragraph v:horizAlign="1"/><v:tabList/>1</text>		</g>
		<g id="shape70-25" v:mID="70" v:groupContext="shape" transform="translate(76.5,-37.6493)">
			<title>Rectangle.70</title>
			<desc>1</desc>
			<v:userDefs>
				<v:ud v:nameU="visVersion" v:val="VT0(11):26"/>
			</v:userDefs>
			<v:textBlock v:margins="rect(4,4,4,4)"/>
			<v:textRect cx="11.25" cy="119.174" width="22.5" height="22.5"/>
			<rect x="0" y="107.924" width="22.5" height="22.5" class="st1"/>
			<text x="8.75" y="121.87" class="st2" v:langID="1033"><v:paragraph v:horizAlign="1"/><v:tabList/>1</text>		</g>
		<g id="shape71-28" v:mID="71" v:groupContext="shape" transform="translate(54,-37.6493)">
			<title>Rectangle.71</title>
			<desc>E</desc>
			<v:userDefs>
				<v:ud v:nameU="visVersion" v:val="VT0(11):26"/>
			</v:userDefs>
			<v:textBlock v:margins="rect(4,4,4,4)"/>
			<v:textRect cx="11.25" cy="119.174" width="22.5" height="22.5"/>
			<rect x="0" y="107.924" width="22.5" height="22.5" class="st1"/>
			<text x="8.25" y="121.87" class="st2" v:langID="1033"><v:paragraph v:horizAlign="1"/><v:tabList/>E</text>		</g>
		<g id="shape72-31" v:mID="72" v:groupContext="shape" transform="translate(121.5,-37.6493)">
			<title>Rectangle.72</title>
			<desc>1</desc>
			<v:userDefs>
				<v:ud v:nameU="visVersion" v:val="VT0(11):26"/>
			</v:userDefs>
			<v:textBlock v:margins="rect(4,4,4,4)"/>
			<v:textRect cx="11.25" cy="119.174" width="22.5" height="22.5"/>
			<rect x="0" y="107.924" width="22.5" height="22.5" class="st1"/>
			<text x="8.75" y="121.87" class="st2" v:langID="1033"><v:paragraph v:horizAlign="1"/><v:tabList/>1</text>		</g>
		<g id="shape73-34" v:mID="73" v:groupContext="shape" transform="translate(99,-37.6493)">
			<title>Rectangle.73</title>
			<desc>1</desc>
			<v:userDefs>
				<v:ud v:nameU="visVersion" v:val="VT0(11):26"/>
			</v:userDefs>
			<v:textBlock v:margins="rect(4,4,4,4)"/>
			<v:textRect cx="11.25" cy="119.174" width="22.5" height="22.5"/>
			<rect x="0" y="107.924" width="22.5" height="22.5" class="st1"/>
			<text x="8.75" y="121.87" class="st2" v:langID="1033"><v:paragraph v:horizAlign="1"/><v:tabList/>1</text>		</g>
		<g id="shape74-37" v:mID="74" v:groupContext="shape" transform="translate(76.5,-15.1493)">
			<title>Rectangle.74</title>
			<desc>E</desc>
			<v:userDefs>
				<v:ud v:nameU="visVersion" v:val="VT0(11):26"/>
			</v:userDefs>
			<v:textBlock v:margins="rect(4,4,4,4)"/>
			<v:textRect cx="11.25" cy="119.174" width="22.5" height="22.5"/>
			<rect x="0" y="107.924" width="22.5" height="22.5" class="st1"/>
			<text x="8.25" y="121.87" class="st2" v:langID="1033"><v:paragraph v:horizAlign="1"/><v:tabList/>E</text>		</g>
		<g id="shape75-40" v:mID="75" v:groupContext="shape" transform="translate(54,-15.1493)">
			<title>Rectangle.75</title>
			<desc>0</desc>
			<v:userDefs>
				<v:ud v:nameU="visVersion" v:val="VT0(11):26"/>
			</v:userDefs>
			<v:textBlock v:margins="rect(4,4,4,4)"/>
			<v:textRect cx="11.25" cy="119.174" width="22.5" height="22.5"/>
			<rect x="0" y="107.924" width="22.5" height="22.5" class="st1"/>
			<text x="8.75" y="121.87" class="st2" v:langID="1033"><v:paragraph v:horizAlign="1"/><v:tabList/>0</text>		</g>
		<g id="shape76-43" v:mID="76" v:groupContext="shape" transform="translate(121.5,-15.1493)">
			<title>Rectangle.76</title>
			<desc>E</desc>
			<v:userDefs>
				<v:ud v:nameU="visVersion" v:val="VT0(11):26"/>
			</v:userDefs>
			<v:textBlock v:margins="rect(4,4,4,4)"/>
			<v:textRect cx="11.25" cy="119.174" width="22.5" height="22.5"/>
			<rect x="0" y="107.924" width="22.5" height="22.5" class="st1"/>
			<text x="8.25" y="121.87" class="st2" v:langID="1033"><v:paragraph v:horizAlign="1"/><v:tabList/>E</text>		</g>
		<g id="shape77-46" v:mID="77" v:groupContext="shape" transform="translate(99,-15.1493)">
			<title>Rectangle.77</title>
			<desc>1</desc>
			<v:userDefs>
				<v:ud v:nameU="visVersion" v:val="VT0(11):26"/>
			</v:userDefs>
			<v:textBlock v:margins="rect(4,4,4,4)"/>
			<v:textRect cx="11.25" cy="119.174" width="22.5" height="22.5"/>
			<rect x="0" y="107.924" width="22.5" height="22.5" class="st1"/>
			<text x="8.75" y="121.87" class="st2" v:langID="1033"><v:paragraph v:horizAlign="1"/><v:tabList/>1</text>		</g>
		<g id="shape78-49" v:mID="78" v:groupContext="shape" transform="translate(34.521,-118.913)">
			<title>Sheet.78</title>
			<desc>C D</desc>
			<v:textBlock v:margins="rect(0,0,0,0)"/>
			<v:textRect cx="16.104" cy="125.493" width="32.21" height="9.86119"/>
			<path d="M32.21 120.56 L0 120.56 L0 130.42 L32.21 130.42 L32.21 120.56" class="st3"/>
			<text x="8.88" y="128.49" class="st4" v:langID="1033"><v:paragraph v:horizAlign="1"/><v:tabList/>C D</text>		</g>
		<g id="shape79-53" v:mID="79" v:groupContext="shape" transform="translate(54,-105.149)">
			<title>Sheet.79</title>
			<desc>0 0</desc>
			<v:textBlock v:margins="rect(0,0,0,0)"/>
			<v:textRect cx="11.25" cy="123.674" width="22.5" height="13.5"/>
			<path d="M22.5 116.92 L0 116.92 L0 130.42 L22.5 130.42 L22.5 116.92" class="st3"/>
			<text x="6.24" y="126.37" class="st2" v:langID="1033"><v:paragraph v:horizAlign="1"/><v:tabList/>0 0</text>		</g>
		<g id="shape80-57" v:mID="80" v:groupContext="shape" transform="translate(76.5,-105.149)">
			<title>Sheet.80</title>
			<desc>0 1</desc>
			<v:textBlock v:margins="rect(0,0,0,0)"/>
			<v:textRect cx="11.25" cy="123.674" width="22.5" height="13.5"/>
			<path d="M22.5 116.92 L0 116.92 L0 130.42 L22.5 130.42 L22.5 116.92" class="st3"/>
			<text x="6.24" y="126.37" class="st2" v:langID="1033"><v:paragraph v:horizAlign="1"/><v:tabList/>0 1</text>		</g>
		<g id="shape81-61" v:mID="81" v:groupContext="shape" transform="translate(99,-105.149)">
			<title>Sheet.81</title>
			<desc>1 1</desc>
			<v:textBlock v:margins="rect(0,0,0,0)"/>
			<v:textRect cx="11.25" cy="123.674" width="22.5" height="13.5"/>
			<path d="M22.5 116.92 L0 116.92 L0 130.42 L22.5 130.42 L22.5 116.92" class="st3"/>
			<text x="6.24" y="126.37" class="st2" v:langID="1033"><v:paragraph v:horizAlign="1"/><v:tabList/>1 1</text>		</g>
		<g id="shape82-65" v:mID="82" v:groupContext="shape" transform="translate(121.5,-105.149)">
			<title>Sheet.82</title>
			<desc>1 0</desc>
			<v:textBlock v:margins="rect(0,0,0,0)"/>
			<v:textRect cx="11.25" cy="123.674" width="22.5" height="13.5"/>
			<path d="M22.5 116.92 L0 116.92 L0 130.42 L22.5 130.42 L22.5 116.92" class="st3"/>
			<text x="6.24" y="126.37" class="st2" v:langID="1033"><v:paragraph v:horizAlign="1"/><v:tabList/>1 0</text>		</g>
		<g id="shape83-69" v:mID="83" v:groupContext="shape" transform="translate(30.878,-87.5859)">
			<title>Sheet.83</title>
			<desc>0 0</desc>
			<v:textBlock v:margins="rect(0,0,0,0)"/>
			<v:textRect cx="11.561" cy="124.455" width="23.13" height="11.9384"/>
			<path d="M23.12 118.49 L0 118.49 L0 130.42 L23.12 130.42 L23.12 118.49" class="st3"/>
			<text x="6.56" y="127.15" class="st2" v:langID="1033"><v:paragraph v:horizAlign="1"/><v:tabList/>0 0</text>		</g>
		<g id="shape84-73" v:mID="84" v:groupContext="shape" transform="translate(30.878,-65.2118)">
			<title>Sheet.84</title>
			<desc>0 1</desc>
			<v:textBlock v:margins="rect(0,0,0,0)"/>
			<v:textRect cx="11.561" cy="124.455" width="23.13" height="11.9384"/>
			<path d="M23.12 118.49 L0 118.49 L0 130.42 L23.12 130.42 L23.12 118.49" class="st3"/>
			<text x="6.56" y="127.15" class="st2" v:langID="1033"><v:paragraph v:horizAlign="1"/><v:tabList/>0 1</text>		</g>
		<g id="shape85-77" v:mID="85" v:groupContext="shape" transform="translate(30.878,-42.9301)">
			<title>Sheet.85</title>
			<desc>1 1</desc>
			<v:textBlock v:margins="rect(0,0,0,0)"/>
			<v:textRect cx="11.561" cy="124.455" width="23.13" height="11.9384"/>
			<path d="M23.12 118.49 L0 118.49 L0 130.42 L23.12 130.42 L23.12 118.49" class="st3"/>
			<text x="6.56" y="127.15" class="st2" v:langID="1033"><v:paragraph v:horizAlign="1"/><v:tabList/>1 1</text>		</g>
		<g id="shape86-81" v:mID="86" v:groupContext="shape" transform="translate(30.878,-20.4301)">
			<title>Sheet.86</title>
			<desc>1 0</desc>
			<v:textBlock v:margins="rect(0,0,0,0)"/>
			<v:textRect cx="11.561" cy="124.455" width="23.13" height="11.9384"/>
			<path d="M23.12 118.49 L0 118.49 L0 130.42 L23.12 130.42 L23.12 118.49" class="st3"/>
			<text x="6.56" y="127.15" class="st2" v:langID="1033"><v:paragraph v:horizAlign="1"/><v:tabList/>1 0</text>		</g>
		<g id="shape87-85" v:mID="87" v:groupContext="shape" transform="translate(-38.2235,117.498) rotate(-135)">
			<title>Sheet.87</title>
			<path d="M0 130.42 L25.46 130.42" class="st5"/>
		</g>
		<g id="shape88-88" v:mID="88" v:groupContext="shape" transform="translate(22.5,-102.038)">
			<title>Sheet.88</title>
			<desc>A B</desc>
			<v:textBlock v:margins="rect(0,0,0,0)"/>
			<v:textRect cx="11.25" cy="123.243" width="22.5" height="14.3612"/>
			<path d="M22.5 116.06 L0 116.06 L0 130.42 L22.5 130.42 L22.5 116.06" class="st3"/>
			<text x="4.58" y="126.24" class="st4" v:langID="1033"><v:paragraph v:horizAlign="1"/><v:tabList/>A B</text>		</g>
		<g id="shape89-92" v:mID="89" v:groupContext="shape" transform="translate(102.094,-19.6493)">
			<title>Rounded rectangle.335</title>
			<v:userDefs>
				<v:ud v:nameU="visVersion" v:val="VT0(11):26"/>
			</v:userDefs>
			<path d="M8.16 130.42 A8.15631 8.15631 -180 0 0 16.31 122.27 L16.31 55.33 A8.15631 8.15631 -180 0 0 8.16 47.17 A8.15631
						 8.15631 -180 0 0 -0 55.33 L0 122.27 A8.15631 8.15631 -180 0 0 8.16 130.42 Z" class="st6"/>
		</g>
		<g id="shape90-94" v:mID="90" v:groupContext="shape" transform="translate(9.07622,89.6807) rotate(-90)">
			<title>Rounded rectangle.90</title>
			<v:userDefs>
				<v:ud v:nameU="visVersion" v:val="VT0(11):26"/>
			</v:userDefs>
			<path d="M8.16 130.42 A8.15631 8.15631 -180 0 0 16.31 122.27 L16.31 57.58 A8.15631 8.15631 -180 0 0 8.16 49.42 A8.15631
						 8.15631 -180 0 0 -0 57.58 L0 122.27 A8.15631 8.15631 -180 0 0 8.16 130.42 Z" class="st6"/>
		</g>
		<g id="shape91-96" v:mID="91" v:groupContext="shape" transform="translate(81,-43.2743)">
			<title>Rounded rectangle.91</title>
			<v:userDefs>
				<v:ud v:nameU="visVersion" v:val="VT0(11):26"/>
			</v:userDefs>
			<path d="M25.87 130.42 A9.00007 9.00007 -180 0 0 34.87 121.42 L34.87 103.42 A9.00007 9.00007 -180 0 0 25.87 94.42 L9
						 94.42 A9.00007 9.00007 -180 0 0 0 103.42 L0 121.42 A9.00007 9.00007 -180 0 0 9 130.42 L25.87 130.42 Z"
					class="st7"/>
		</g>
		<g id="shape93-98" v:mID="93" v:groupContext="shape" transform="translate(104.063,-43.2743)">
			<title>Rounded rectangle.93</title>
			<v:userDefs>
				<v:ud v:nameU="visVersion" v:val="VT0(11):26"/>
			</v:userDefs>
			<path d="M25.87 130.42 A9.00007 9.00007 -180 0 0 34.87 121.42 L34.87 103.42 A9.00007 9.00007 -180 0 0 25.87 94.42 L9
						 94.42 A9.00007 9.00007 -180 0 0 0 103.42 L0 121.42 A9.00007 9.00007 -180 0 0 9 130.42 L25.87 130.42 Z"
					class="st8"/>
		</g>
		<g id="shape94-100" v:mID="94" v:groupContext="shape" transform="translate(81,-19.6493)">
			<title>Rounded rectangle.94</title>
			<v:userDefs>
				<v:ud v:nameU="visVersion" v:val="VT0(11):26"/>
			</v:userDefs>
			<path d="M25.87 130.42 A9.00007 9.00007 -180 0 0 34.87 121.42 L34.87 103.42 A9.00007 9.00007 -180 0 0 25.87 94.42 L9
						 94.42 A9.00007 9.00007 -180 0 0 0 103.42 L0 121.42 A9.00007 9.00007 -180 0 0 9 130.42 L25.87 130.42 Z"
					class="st9"/>
		</g>
		<g id="shape95-102" v:mID="95" v:groupContext="shape" transform="translate(105.75,-19.6493)">
			<title>Rounded rectangle.95</title>
			<v:userDefs>
				<v:ud v:nameU="visVersion" v:val="VT0(11):26"/>
			</v:userDefs>
			<path d="M25.87 130.42 A9.00007 9.00007 -180 0 0 34.87 121.42 L34.87 103.42 A9.00007 9.00007 -180 0 0 25.87 94.42 L9
						 94.42 A9.00007 9.00007 -180 0 0 0 103.42 L0 121.42 A9.00007 9.00007 -180 0 0 9 130.42 L25.87 130.42 Z"
					class="st10"/>
		</g>
		<g id="shape99-104" v:mID="99" v:groupContext="shape" transform="translate(2.8125,-34.2743)">
			<title>Sheet.99</title>
			<desc>A∙B∙E</desc>
			<v:textBlock v:margins="rect(0,0,0,0)"/>
			<v:textRect cx="17.4375" cy="125.774" width="34.88" height="9.29869"/>
			<rect x="0" y="121.125" width="34.875" height="9.29869" class="st11"/>
			<text x="4.1" y="128.77" class="st12" v:langID="1033"><v:paragraph v:horizAlign="1"/><v:tabList/>A∙B∙E</text>		</g>
		<g id="shape101-107" v:mID="101" v:groupContext="shape" transform="translate(33.75,-38.7743)">
			<title>Sheet.101</title>
			<path d="M0 130.42 L3.94 130.42 C8.2 130.62 15.22 129.25 20.73 126.96 L21.04 126.78" class="st13"/>
		</g>
		<g id="shape102-113" v:mID="102" v:groupContext="shape" transform="translate(93.375,-119.774)">
			<title>Sheet.102</title>
			<desc>C∙D∙E</desc>
			<v:textBlock v:margins="rect(0,0,0,0)"/>
			<v:textRect cx="17.4375" cy="125.774" width="34.88" height="9.29869"/>
			<rect x="0" y="121.125" width="34.875" height="9.29869" class="st11"/>
			<text x="4.1" y="128.77" class="st12" v:langID="1033"><v:paragraph v:horizAlign="1"/><v:tabList/>C∙D∙E</text>		</g>
		<g id="shape103-116" v:mID="103" v:groupContext="shape" transform="translate(229.424,11.4932) rotate(90)">
			<title>Sheet.103</title>
			<path d="M0 130.42 L2.49 130.42 C4.86 130.6 8.58 129.56 11.81 127.76 L12.09 127.54" class="st13"/>
		</g>
		<g id="shape104-121" v:mID="104" v:groupContext="shape" transform="translate(133.875,-1.35063)">
			<title>Sheet.104</title>
			<desc>A∙C∙E</desc>
			<v:textBlock v:margins="rect(0,0,0,0)"/>
			<v:textRect cx="17.4375" cy="125.774" width="34.88" height="9.29869"/>
			<rect x="0" y="121.125" width="34.875" height="9.29869" class="st11"/>
			<text x="4.1" y="128.77" class="st12" v:langID="1033"><v:paragraph v:horizAlign="1"/><v:tabList/>A∙C∙E</text>		</g>
		<g id="shape105-124" v:mID="105" v:groupContext="shape" transform="translate(24.8262,118.649) rotate(-90)">
			<title>Sheet.105</title>
			<path d="M0 130.42 L2.49 130.42 C5.34 130.88 10.14 127.53 13.7 122.01 L13.86 121.69" class="st15"/>
		</g>
		<g id="shape106-130" v:mID="106" v:groupContext="shape" transform="translate(70.875,-1.35063)">
			<title>Sheet.106</title>
			<desc>A∙D∙E</desc>
			<v:textBlock v:margins="rect(0,0,0,0)"/>
			<v:textRect cx="17.4375" cy="125.774" width="34.88" height="9.29869"/>
			<rect x="0" y="121.125" width="34.875" height="9.29869" class="st11"/>
			<text x="4.1" y="128.77" class="st12" v:langID="1033"><v:paragraph v:horizAlign="1"/><v:tabList/>A∙D∙E</text>		</g>
		<g id="shape107-133" v:mID="107" v:groupContext="shape" transform="translate(206.924,121.462) rotate(90) scale(-1,1)">
			<title>Sheet.107</title>
			<path d="M0 130.42 L2.49 130.42 C4.86 130.6 8.58 129.56 11.81 127.76 L12.09 127.54" class="st17"/>
		</g>
		<g id="shape108-139" v:mID="108" v:groupContext="shape" transform="translate(147.375,-88.2743)">
			<title>Sheet.108</title>
			<desc>B∙D∙E</desc>
			<v:textBlock v:margins="rect(0,0,0,0)"/>
			<v:textRect cx="17.4375" cy="125.774" width="34.88" height="9.29869"/>
			<rect x="0" y="121.125" width="34.875" height="9.29869" class="st11"/>
			<text x="4.1" y="128.77" class="st12" v:langID="1033"><v:paragraph v:horizAlign="1"/><v:tabList/>B∙D∙E</text>		</g>
		<g id="shape109-142" v:mID="109" v:groupContext="shape" transform="translate(24.8262,42.1495) rotate(-90) scale(-1,1)">
			<title>Sheet.109</title>
			<path d="M0 130.42 L2.49 130.42 C5.34 130.88 10.14 127.53 13.7 122.01 L13.86 121.69" class="st19"/>
		</g>
		<g id="shape110-148" v:mID="110" v:groupContext="shape" transform="translate(0,-79.2665)">
			<title>Sheet.110</title>
			<desc>B∙C∙E</desc>
			<v:textBlock v:margins="rect(0,0,0,0)"/>
			<v:textRect cx="17.4375" cy="125.774" width="34.88" height="9.29869"/>
			<rect x="0" y="121.125" width="34.875" height="9.29869" class="st11"/>
			<text x="4.1" y="128.77" class="st12" v:langID="1033"><v:paragraph v:horizAlign="1"/><v:tabList/>B∙C∙E</text>		</g>
		<g id="shape111-151" v:mID="111" v:groupContext="shape" transform="translate(32.1199,175.38) scale(1,-1)">
			<title>Sheet.111</title>
			<path d="M0 130.42 L8.5 130.42 C19.16 130.65 37.84 128.78 50.13 125.8 L50.47 125.7" class="st21"/>
		</g>
	</g>
</svg>
