<?xml version="1.0" encoding="UTF-8" standalone="no"?>
<!DOCTYPE svg PUBLIC "-//W3C//DTD SVG 1.1//EN" "http://www.w3.org/Graphics/SVG/1.1/DTD/svg11.dtd">
<!-- Generated by Microsoft Visio, SVG Export Demux.svg Page-1 -->
<svg xmlns="http://www.w3.org/2000/svg" xmlns:xlink="http://www.w3.org/1999/xlink" xmlns:ev="http://www.w3.org/2001/xml-events"
		xmlns:v="http://schemas.microsoft.com/visio/2003/SVGExtensions/" width="2.57266in" height="1.26031in"
		viewBox="0 0 185.231 90.7427" xml:space="preserve" color-interpolation-filters="sRGB" class="st7">
	<v:documentProperties v:langID="1033" v:viewMarkup="false"/>

	<style type="text/css">
	<![CDATA[
		.st1 {fill:none;stroke:none;stroke-linecap:round;stroke-linejoin:round;stroke-width:0.72}
		.st2 {fill:#000000;font-family:Arial;font-size:0.833336em}
		.st3 {fill:#000000;font-family:Symbol;font-size:0.75em}
		.st4 {stroke:#000000;stroke-linecap:round;stroke-linejoin:round;stroke-width:0.72}
		.st5 {stroke:#000000;stroke-linecap:round;stroke-linejoin:round;stroke-width:0.74268}
		.st6 {stroke:none;stroke-linecap:round;stroke-linejoin:round;stroke-width:0.75}
		.st7 {fill:none;fill-rule:evenodd;font-size:12px;overflow:visible;stroke-linecap:square;stroke-miterlimit:3}
	]]>
	</style>

	<g v:mID="0" v:index="1" v:groupContext="foregroundPage">
		<title>Page-1</title>
		<v:pageProperties v:drawingScale="1" v:pageScale="1" v:drawingUnits="19" v:shadowOffsetX="9" v:shadowOffsetY="-9"/>
		<g id="shape24-1" v:mID="24" v:groupContext="shape" transform="translate(0.36,-59.4414)">
			<title>Sheet.24</title>
			<desc>0</desc>
			<v:textBlock v:margins="rect(4,4,4,4)"/>
			<v:textRect cx="12.9911" cy="86.2427" width="25.99" height="9"/>
			<rect x="0" y="81.7427" width="25.9821" height="9" class="st1"/>
			<text x="10.21" y="89.24" class="st2" v:langID="1033"><v:paragraph v:horizAlign="1"/><v:tabList/>0</text>		</g>
		<g id="shape25-4" v:mID="25" v:groupContext="shape" transform="translate(29.1546,-61.1213)">
			<title>Sheet.25</title>
			<desc>f</desc>
			<v:textBlock v:margins="rect(4,4,4,4)"/>
			<v:textRect cx="8.4375" cy="86.2427" width="16.88" height="9"/>
			<rect x="0" y="81.7427" width="16.875" height="9" class="st1"/>
			<text x="6.09" y="89.24" class="st3" v:langID="1033"><v:paragraph v:horizAlign="1"/><v:tabList/>f</text>		</g>
		<g id="shape26-7" v:mID="26" v:groupContext="shape" transform="translate(48.8421,-61.1213)">
			<title>Sheet.26</title>
			<desc>f</desc>
			<v:textBlock v:margins="rect(4,4,4,4)"/>
			<v:textRect cx="8.4375" cy="86.2427" width="16.88" height="9"/>
			<rect x="0" y="81.7427" width="16.875" height="9" class="st1"/>
			<text x="6.09" y="89.24" class="st3" v:langID="1033"><v:paragraph v:horizAlign="1"/><v:tabList/>f</text>		</g>
		<g id="shape36-10" v:mID="36" v:groupContext="shape" transform="translate(0.36,-46.4963)">
			<title>Sheet.36</title>
			<desc>1</desc>
			<v:textBlock v:margins="rect(4,4,4,4)"/>
			<v:textRect cx="12.9911" cy="86.2427" width="25.99" height="9"/>
			<rect x="0" y="81.7427" width="25.9821" height="9" class="st1"/>
			<text x="10.21" y="89.24" class="st2" v:langID="1033"><v:paragraph v:horizAlign="1"/><v:tabList/>1</text>		</g>
		<g id="shape37-13" v:mID="37" v:groupContext="shape" transform="translate(29.1546,-46.4963)">
			<title>Sheet.37</title>
			<desc>0</desc>
			<v:textBlock v:margins="rect(4,4,4,4)"/>
			<v:textRect cx="8.4375" cy="86.2427" width="16.88" height="9"/>
			<rect x="0" y="81.7427" width="16.875" height="9" class="st1"/>
			<text x="5.66" y="89.24" class="st2" v:langID="1033"><v:paragraph v:horizAlign="1"/><v:tabList/>0</text>		</g>
		<g id="shape38-16" v:mID="38" v:groupContext="shape" transform="translate(48.8421,-46.4963)">
			<title>Sheet.38</title>
			<desc>0</desc>
			<v:textBlock v:margins="rect(4,4,4,4)"/>
			<v:textRect cx="8.4375" cy="86.2427" width="16.88" height="9"/>
			<rect x="0" y="81.7427" width="16.875" height="9" class="st1"/>
			<text x="5.66" y="89.24" class="st2" v:langID="1033"><v:paragraph v:horizAlign="1"/><v:tabList/>0</text>		</g>
		<g id="shape39-19" v:mID="39" v:groupContext="shape" transform="translate(0.36,-32.9963)">
			<title>Sheet.39</title>
			<desc>1</desc>
			<v:textBlock v:margins="rect(4,4,4,4)"/>
			<v:textRect cx="12.9911" cy="86.2427" width="25.99" height="9"/>
			<rect x="0" y="81.7427" width="25.9821" height="9" class="st1"/>
			<text x="10.21" y="89.24" class="st2" v:langID="1033"><v:paragraph v:horizAlign="1"/><v:tabList/>1</text>		</g>
		<g id="shape40-22" v:mID="40" v:groupContext="shape" transform="translate(29.1546,-32.9963)">
			<title>Sheet.40</title>
			<desc>0</desc>
			<v:textBlock v:margins="rect(4,4,4,4)"/>
			<v:textRect cx="8.4375" cy="86.2427" width="16.88" height="9"/>
			<rect x="0" y="81.7427" width="16.875" height="9" class="st1"/>
			<text x="5.66" y="89.24" class="st2" v:langID="1033"><v:paragraph v:horizAlign="1"/><v:tabList/>0</text>		</g>
		<g id="shape41-25" v:mID="41" v:groupContext="shape" transform="translate(48.8421,-32.9963)">
			<title>Sheet.41</title>
			<desc>1</desc>
			<v:textBlock v:margins="rect(4,4,4,4)"/>
			<v:textRect cx="8.4375" cy="86.2427" width="16.88" height="9"/>
			<rect x="0" y="81.7427" width="16.875" height="9" class="st1"/>
			<text x="5.66" y="89.24" class="st2" v:langID="1033"><v:paragraph v:horizAlign="1"/><v:tabList/>1</text>		</g>
		<g id="shape42-28" v:mID="42" v:groupContext="shape" transform="translate(0.36,-19.4963)">
			<title>Sheet.42</title>
			<desc>1</desc>
			<v:textBlock v:margins="rect(4,4,4,4)"/>
			<v:textRect cx="12.9911" cy="86.2427" width="25.99" height="9"/>
			<rect x="0" y="81.7427" width="25.9821" height="9" class="st1"/>
			<text x="10.21" y="89.24" class="st2" v:langID="1033"><v:paragraph v:horizAlign="1"/><v:tabList/>1</text>		</g>
		<g id="shape43-31" v:mID="43" v:groupContext="shape" transform="translate(29.1546,-19.4963)">
			<title>Sheet.43</title>
			<desc>1</desc>
			<v:textBlock v:margins="rect(4,4,4,4)"/>
			<v:textRect cx="8.4375" cy="86.2427" width="16.88" height="9"/>
			<rect x="0" y="81.7427" width="16.875" height="9" class="st1"/>
			<text x="5.66" y="89.24" class="st2" v:langID="1033"><v:paragraph v:horizAlign="1"/><v:tabList/>1</text>		</g>
		<g id="shape44-34" v:mID="44" v:groupContext="shape" transform="translate(48.8421,-19.4963)">
			<title>Sheet.44</title>
			<desc>0</desc>
			<v:textBlock v:margins="rect(4,4,4,4)"/>
			<v:textRect cx="8.4375" cy="86.2427" width="16.88" height="9"/>
			<rect x="0" y="81.7427" width="16.875" height="9" class="st1"/>
			<text x="5.66" y="89.24" class="st2" v:langID="1033"><v:paragraph v:horizAlign="1"/><v:tabList/>0</text>		</g>
		<g id="shape45-37" v:mID="45" v:groupContext="shape" transform="translate(0.36,-5.99634)">
			<title>Sheet.45</title>
			<desc>1</desc>
			<v:textBlock v:margins="rect(4,4,4,4)"/>
			<v:textRect cx="12.9911" cy="86.2427" width="25.99" height="9"/>
			<rect x="0" y="81.7427" width="25.9821" height="9" class="st1"/>
			<text x="10.21" y="89.24" class="st2" v:langID="1033"><v:paragraph v:horizAlign="1"/><v:tabList/>1</text>		</g>
		<g id="shape46-40" v:mID="46" v:groupContext="shape" transform="translate(29.1546,-5.99634)">
			<title>Sheet.46</title>
			<desc>1</desc>
			<v:textBlock v:margins="rect(4,4,4,4)"/>
			<v:textRect cx="8.4375" cy="86.2427" width="16.88" height="9"/>
			<rect x="0" y="81.7427" width="16.875" height="9" class="st1"/>
			<text x="5.66" y="89.24" class="st2" v:langID="1033"><v:paragraph v:horizAlign="1"/><v:tabList/>1</text>		</g>
		<g id="shape47-43" v:mID="47" v:groupContext="shape" transform="translate(48.8421,-5.99634)">
			<title>Sheet.47</title>
			<desc>1</desc>
			<v:textBlock v:margins="rect(4,4,4,4)"/>
			<v:textRect cx="8.4375" cy="86.2427" width="16.88" height="9"/>
			<rect x="0" y="81.7427" width="16.875" height="9" class="st1"/>
			<text x="5.66" y="89.24" class="st2" v:langID="1033"><v:paragraph v:horizAlign="1"/><v:tabList/>1</text>		</g>
		<g id="shape48-46" v:mID="48" v:groupContext="shape" transform="translate(0.36,-75.1914)">
			<title>Sheet.48</title>
			<desc>EN</desc>
			<v:textBlock v:margins="rect(4,4,4,4)"/>
			<v:textRect cx="12.9911" cy="86.2427" width="25.99" height="9"/>
			<rect x="0" y="81.7427" width="25.9821" height="9" class="st1"/>
			<text x="6.05" y="89.24" class="st2" v:langID="1033"><v:paragraph v:horizAlign="1"/><v:tabList/>EN</text>		</g>
		<g id="shape49-49" v:mID="49" v:groupContext="shape" transform="translate(29.1546,-75.1914)">
			<title>Sheet.49</title>
			<desc>I1</desc>
			<v:textBlock v:margins="rect(4,4,4,4)"/>
			<v:textRect cx="8.4375" cy="86.2427" width="16.88" height="9"/>
			<rect x="0" y="81.7427" width="16.875" height="9" class="st1"/>
			<text x="4.27" y="89.24" class="st2" v:langID="1033"><v:paragraph v:horizAlign="1"/><v:tabList/>I1</text>		</g>
		<g id="shape50-52" v:mID="50" v:groupContext="shape" transform="translate(48.8421,-75.1914)">
			<title>Sheet.50</title>
			<desc>I0</desc>
			<v:textBlock v:margins="rect(4,4,4,4)"/>
			<v:textRect cx="8.4375" cy="86.2427" width="16.88" height="9"/>
			<rect x="0" y="81.7427" width="16.875" height="9" class="st1"/>
			<text x="4.27" y="89.24" class="st2" v:langID="1033"><v:paragraph v:horizAlign="1"/><v:tabList/>I0</text>		</g>
		<g id="shape51-55" v:mID="51" v:groupContext="shape" transform="translate(70.2171,-75.1914)">
			<title>Sheet.51</title>
			<desc>Y[3:0]</desc>
			<v:textBlock v:margins="rect(4,4,4,4)"/>
			<v:textRect cx="19.0714" cy="86.2427" width="38.15" height="9"/>
			<rect x="0" y="81.7427" width="38.1429" height="9" class="st1"/>
			<text x="6.01" y="89.24" class="st2" v:langID="1033"><v:paragraph v:horizAlign="1"/><v:tabList/>Y[3:0]</text>		</g>
		<g id="shape52-58" v:mID="52" v:groupContext="shape" transform="translate(4.2975,-72.9414)">
			<title>Sheet.52</title>
			<path d="M0 90.74 L104.51 90.74" class="st4"/>
		</g>
		<g id="shape53-61" v:mID="53" v:groupContext="shape" transform="translate(158.71,4.30125) rotate(90)">
			<title>Sheet.53</title>
			<path d="M0 90.74 L83.82 90.74" class="st4"/>
		</g>
		<g id="shape54-64" v:mID="54" v:groupContext="shape" transform="translate(70.2171,-59.4414)">
			<title>Sheet.54</title>
			<desc>0000</desc>
			<v:textBlock v:margins="rect(4,4,4,4)"/>
			<v:textRect cx="19.0714" cy="86.2427" width="38.15" height="9"/>
			<rect x="0" y="81.7427" width="38.1429" height="9" class="st1"/>
			<text x="7.95" y="89.24" class="st2" v:langID="1033"><v:paragraph v:horizAlign="1"/><v:tabList/>0000</text>		</g>
		<g id="shape58-67" v:mID="58" v:groupContext="shape" transform="translate(70.2171,-46.4963)">
			<title>Sheet.58</title>
			<desc>0001</desc>
			<v:textBlock v:margins="rect(4,4,4,4)"/>
			<v:textRect cx="19.0714" cy="86.2427" width="38.15" height="9"/>
			<rect x="0" y="81.7427" width="38.1429" height="9" class="st1"/>
			<text x="7.95" y="89.24" class="st2" v:langID="1033"><v:paragraph v:horizAlign="1"/><v:tabList/>0001</text>		</g>
		<g id="shape59-70" v:mID="59" v:groupContext="shape" transform="translate(70.2171,-32.9963)">
			<title>Sheet.59</title>
			<desc>0010</desc>
			<v:textBlock v:margins="rect(4,4,4,4)"/>
			<v:textRect cx="19.0714" cy="86.2427" width="38.15" height="9"/>
			<rect x="0" y="81.7427" width="38.1429" height="9" class="st1"/>
			<text x="7.95" y="89.24" class="st2" v:langID="1033"><v:paragraph v:horizAlign="1"/><v:tabList/>0010</text>		</g>
		<g id="shape60-73" v:mID="60" v:groupContext="shape" transform="translate(70.2171,-19.4963)">
			<title>Sheet.60</title>
			<desc>0100</desc>
			<v:textBlock v:margins="rect(4,4,4,4)"/>
			<v:textRect cx="19.0714" cy="86.2427" width="38.15" height="9"/>
			<rect x="0" y="81.7427" width="38.1429" height="9" class="st1"/>
			<text x="7.95" y="89.24" class="st2" v:langID="1033"><v:paragraph v:horizAlign="1"/><v:tabList/>0100</text>		</g>
		<g id="shape61-76" v:mID="61" v:groupContext="shape" transform="translate(70.2171,-5.99634)">
			<title>Sheet.61</title>
			<desc>1000</desc>
			<v:textBlock v:margins="rect(4,4,4,4)"/>
			<v:textRect cx="19.0714" cy="86.2427" width="38.15" height="9"/>
			<rect x="0" y="81.7427" width="38.1429" height="9" class="st1"/>
			<text x="7.95" y="89.24" class="st2" v:langID="1033"><v:paragraph v:horizAlign="1"/><v:tabList/>1000</text>		</g>
		<g id="shape92-79" v:mID="92" v:groupContext="shape" transform="translate(133.11,-0.37134)">
			<title>Sheet.92</title>
			<path d="M0 90.74 L42.75 90.74 L42.75 0.74 L0 0.74 L0 90.74 L0 90.74" class="st5"/>
		</g>
		<g id="shape93-82" v:mID="93" v:groupContext="shape" transform="translate(121.86,-72.3713)">
			<title>Sheet.93</title>
			<path d="M11.25 90.74 L0 90.74" class="st5"/>
		</g>
		<g id="shape94-85" v:mID="94" v:groupContext="shape" transform="translate(135.36,-40.8713)">
			<title>Sheet.94</title>
			<desc>I1</desc>
			<v:textBlock v:margins="rect(0,0,0,0)"/>
			<v:textRect cx="9" cy="86.2427" width="18" height="9"/>
			<path d="M18 81.74 L0 81.74 L0 90.74 L18 90.74 L18 81.74" class="st6"/>
			<text x="0" y="89.24" class="st2" v:langID="1033"><v:paragraph/><v:tabList/>I1</text>		</g>
		<g id="shape95-89" v:mID="95" v:groupContext="shape" transform="translate(135.36,-27.3713)">
			<title>Sheet.95</title>
			<desc>I2</desc>
			<v:textBlock v:margins="rect(0,0,0,0)"/>
			<v:textRect cx="9" cy="86.2427" width="18" height="9"/>
			<path d="M18 81.74 L0 81.74 L0 90.74 L18 90.74 L18 81.74" class="st6"/>
			<text x="0" y="89.24" class="st2" v:langID="1033"><v:paragraph/><v:tabList/>I2</text>		</g>
		<g id="shape96-93" v:mID="96" v:groupContext="shape" transform="translate(155.61,-76.8713)">
			<title>Sheet.96</title>
			<desc>Y3</desc>
			<v:textBlock v:margins="rect(0,0,0,0)"/>
			<v:textRect cx="9" cy="86.2427" width="18" height="9"/>
			<path d="M18 81.74 L0 81.74 L0 90.74 L18 90.74 L18 81.74" class="st6"/>
			<text x="5.77" y="89.24" class="st2" v:langID="1033"><v:paragraph v:horizAlign="2"/><v:tabList/>Y3</text>		</g>
		<g id="shape97-97" v:mID="97" v:groupContext="shape" transform="translate(155.61,-54.3713)">
			<title>Sheet.97</title>
			<desc>Y2</desc>
			<v:textBlock v:margins="rect(0,0,0,0)"/>
			<v:textRect cx="9" cy="86.2427" width="18" height="9"/>
			<path d="M18 81.74 L0 81.74 L0 90.74 L18 90.74 L18 81.74" class="st6"/>
			<text x="5.77" y="89.24" class="st2" v:langID="1033"><v:paragraph v:horizAlign="2"/><v:tabList/>Y2</text>		</g>
		<g id="shape98-101" v:mID="98" v:groupContext="shape" transform="translate(121.86,-45.3713)">
			<title>Sheet.98</title>
			<path d="M11.25 90.74 L0 90.74" class="st5"/>
		</g>
		<g id="shape99-104" v:mID="99" v:groupContext="shape" transform="translate(175.86,-36.3713)">
			<title>Sheet.99</title>
			<path d="M9 90.74 L0 90.74" class="st5"/>
		</g>
		<g id="shape100-107" v:mID="100" v:groupContext="shape" transform="translate(175.86,-81.3713)">
			<title>Sheet.100</title>
			<path d="M9 90.74 L0 90.74" class="st5"/>
		</g>
		<g id="shape101-110" v:mID="101" v:groupContext="shape" transform="translate(175.86,-58.8713)">
			<title>Sheet.101</title>
			<path d="M9 90.74 L0 90.74" class="st5"/>
		</g>
		<g id="shape102-113" v:mID="102" v:groupContext="shape" transform="translate(135.36,-67.8928)">
			<title>Sheet.102</title>
			<desc>EN</desc>
			<v:textBlock v:margins="rect(0,0,0,0)"/>
			<v:textRect cx="9" cy="86.2427" width="18" height="9"/>
			<path d="M18 81.74 L0 81.74 L0 90.74 L18 90.74 L18 81.74" class="st6"/>
			<text x="0" y="89.24" class="st2" v:langID="1033"><v:paragraph/><v:tabList/>EN</text>		</g>
		<g id="shape103-117" v:mID="103" v:groupContext="shape" transform="translate(155.61,-29.6213)">
			<title>Sheet.103</title>
			<desc>Y1</desc>
			<v:textBlock v:margins="rect(0,0,0,0)"/>
			<v:textRect cx="9" cy="86.2427" width="18" height="9"/>
			<path d="M18 81.74 L0 81.74 L0 90.74 L18 90.74 L18 81.74" class="st6"/>
			<text x="5.77" y="89.24" class="st2" v:langID="1033"><v:paragraph v:horizAlign="2"/><v:tabList/>Y1</text>		</g>
		<g id="shape104-121" v:mID="104" v:groupContext="shape" transform="translate(175.86,-13.8713)">
			<title>Sheet.104</title>
			<path d="M9 90.74 L0 90.74" class="st5"/>
		</g>
		<g id="shape105-124" v:mID="105" v:groupContext="shape" transform="translate(155.61,-7.12134)">
			<title>Sheet.105</title>
			<desc>Y0</desc>
			<v:textBlock v:margins="rect(0,0,0,0)"/>
			<v:textRect cx="9" cy="86.2427" width="18" height="9"/>
			<path d="M18 81.74 L0 81.74 L0 90.74 L18 90.74 L18 81.74" class="st6"/>
			<text x="5.77" y="89.24" class="st2" v:langID="1033"><v:paragraph v:horizAlign="2"/><v:tabList/>Y0</text>		</g>
		<g id="shape106-128" v:mID="106" v:groupContext="shape" transform="translate(121.86,-31.8713)">
			<title>Sheet.106</title>
			<path d="M11.25 90.74 L0 90.74" class="st5"/>
		</g>
	</g>
</svg>
