<?xml version="1.0" encoding="UTF-8" standalone="no"?>
<!DOCTYPE svg PUBLIC "-//W3C//DTD SVG 1.1//EN" "http://www.w3.org/Graphics/SVG/1.1/DTD/svg11.dtd">
<!-- Generated by Microsoft Visio, SVG Export SerialAdder_SM1.svg Page-1 -->
<svg xmlns="http://www.w3.org/2000/svg" xmlns:xlink="http://www.w3.org/1999/xlink" xmlns:ev="http://www.w3.org/2001/xml-events"
		xmlns:v="http://schemas.microsoft.com/visio/2003/SVGExtensions/" width="1.08586in" height="1.06834in"
		viewBox="0 0 78.1818 76.9205" xml:space="preserve" color-interpolation-filters="sRGB" class="st6">
	<v:documentProperties v:langID="1033" v:viewMarkup="false"/>

	<style type="text/css">
	<![CDATA[
		.st1 {fill:#abe0ae;stroke:#000000;stroke-linecap:round;stroke-linejoin:round;stroke-width:0.24}
		.st2 {fill:#000000;font-family:Arial;font-size:0.833336em}
		.st3 {marker-start:url(#mrkr4-9);stroke:#4d4d4d;stroke-linecap:round;stroke-linejoin:round;stroke-width:1.2}
		.st4 {fill:#4d4d4d;fill-opacity:1;stroke:#4d4d4d;stroke-opacity:1;stroke-width:0.4}
		.st5 {font-size:1em}
		.st6 {fill:none;fill-rule:evenodd;font-size:12px;overflow:visible;stroke-linecap:square;stroke-miterlimit:3}
	]]>
	</style>

	<defs id="Markers">
		<g id="lend4">
			<path d="M 2 1 L 0 0 L 2 -1 L 2 1 " style="stroke:none"/>
		</g>
		<marker id="mrkr4-9" class="st4" v:arrowType="4" v:arrowSize="1" v:setback="4.7" refX="4.7" orient="auto"
				markerUnits="strokeWidth" overflow="visible">
			<use xlink:href="#lend4" transform="scale(2.5) "/>
		</marker>
	</defs>
	<g v:mID="0" v:index="1" v:groupContext="foregroundPage">
		<title>Page-1</title>
		<v:pageProperties v:drawingScale="1" v:pageScale="1" v:drawingUnits="19" v:shadowOffsetX="9" v:shadowOffsetY="-9"/>
		<g id="shape1-1" v:mID="1" v:groupContext="shape" transform="translate(36.9069,-3.04389)">
			<title>Sheet.1</title>
			<desc>S0</desc>
			<v:textBlock v:margins="rect(4,4,4,4)"/>
			<v:textRect cx="20.5774" cy="57.1441" width="41.16" height="39.5527"/>
			<path d="M0 57.08 L0.24 54.1 L0.96 51.23 L2.03 48.48 L3.59 45.97 L5.5 43.58 L7.78 41.55 L10.29 39.88 L13.04 38.68 L16.03
						 37.73 L19.02 37.37 L22.13 37.37 L25.24 37.73 L28.11 38.68 L30.87 39.88 L33.5 41.55 L35.77 43.58 L37.69 45.97
						 L39.12 48.48 L40.32 51.23 L41.04 54.1 L41.15 57.08 L41.04 60.07 L40.32 62.94 L39.12 65.69 L37.69 68.32 L35.77
						 70.59 L33.5 72.62 L30.87 74.29 L28.11 75.61 L25.24 76.44 L22.13 76.92 L19.02 76.92 L16.03 76.44 L13.04 75.61
						 L10.29 74.29 L7.78 72.62 L5.5 70.59 L3.59 68.32 L2.03 65.69 L0.96 62.94 L0.24 60.07 L0 57.08 Z"
					class="st1"/>
			<text x="14.46" y="60.14" class="st2" v:langID="1033"><v:paragraph v:horizAlign="1"/><v:tabList/>S0</text>		</g>
		<g id="shape2-4" v:mID="2" v:groupContext="shape" transform="translate(-21.1746,48.2701) rotate(-100.095)">
			<title>Sheet.2</title>
			<path d="M5.64 76.92 L6 76.92 L19.43 76.92" class="st3"/>
		</g>
		<g id="shape3-10" v:mID="3" v:groupContext="shape" transform="translate(28.68,-59.0082)">
			<title>Sheet.3</title>
			<desc>Rst</desc>
			<v:textBlock v:margins="rect(0,0,0,0)"/>
			<v:textRect cx="16.875" cy="67.9643" width="33.75" height="17.9123"/>
			<text x="9.37" y="70.96" class="st2" v:langID="1033"><v:paragraph v:horizAlign="1"/><v:tabList/>Rst</text>		</g>
		<g id="shape4-12" v:mID="4" v:groupContext="shape" transform="translate(0,-3.04389)">
			<title>Sheet.4</title>
			<desc>F=0 Cout=0</desc>
			<v:textBlock v:margins="rect(0,0,0,0)"/>
			<v:textRect cx="16.875" cy="67.9643" width="33.75" height="17.9123"/>
			<text x="16.24" y="64.96" class="st2" v:langID="1033"><v:paragraph v:horizAlign="2"/><v:tabList/>F=0<v:newlineChar/><tspan
						x="1.23" dy="1.2em" class="st5">Cout</tspan>=0</text>		</g>
	</g>
</svg>
