<?xml version="1.0" encoding="UTF-8" standalone="no"?>
<!DOCTYPE svg PUBLIC "-//W3C//DTD SVG 1.1//EN" "http://www.w3.org/Graphics/SVG/1.1/DTD/svg11.dtd">
<!-- Generated by Microsoft Visio, SVG Export BitSliceSubtractor.svg Page-1 -->
<svg xmlns="http://www.w3.org/2000/svg" xmlns:xlink="http://www.w3.org/1999/xlink" xmlns:ev="http://www.w3.org/2001/xml-events"
		xmlns:v="http://schemas.microsoft.com/visio/2003/SVGExtensions/" width="7.42188in" height="1.67167in"
		viewBox="0 0 534.375 120.36" xml:space="preserve" color-interpolation-filters="sRGB" class="st10">
	<v:documentProperties v:langID="1033" v:viewMarkup="false"/>

	<style type="text/css">
	<![CDATA[
		.st1 {stroke:#000000;stroke-linecap:round;stroke-linejoin:round;stroke-width:0.72}
		.st2 {fill:none;stroke:#000000;stroke-linecap:round;stroke-linejoin:round;stroke-width:0.72}
		.st3 {fill:#000000;stroke:#000000;stroke-linecap:round;stroke-linejoin:round;stroke-width:0.24}
		.st4 {stroke:none;stroke-linecap:round;stroke-linejoin:round;stroke-width:0.75}
		.st5 {fill:#000000;font-family:Arial;font-size:0.666664em}
		.st6 {fill:#ffffff;stroke:none;stroke-linecap:round;stroke-linejoin:round;stroke-width:0.75}
		.st7 {stroke:#000000;stroke-linecap:round;stroke-linejoin:round;stroke-width:0.748902}
		.st8 {fill:#000000;font-family:Arial;font-size:0.833336em}
		.st9 {font-size:1em}
		.st10 {fill:none;fill-rule:evenodd;font-size:12px;overflow:visible;stroke-linecap:square;stroke-miterlimit:3}
	]]>
	</style>

	<g v:mID="0" v:index="1" v:groupContext="foregroundPage">
		<title>Page-1</title>
		<v:pageProperties v:drawingScale="1" v:pageScale="1" v:drawingUnits="19" v:shadowOffsetX="9" v:shadowOffsetY="-9"/>
		<g id="shape1-1" v:mID="1" v:groupContext="shape" transform="translate(37.125,-102)">
			<title>Sheet.1</title>
			<path d="M0.13 102.36 L5.49 102.36 L6.9 102.66 L7.71 102.86 L8.7 103.16 L9.9 103.71 L10.97 104.26 L12.09 104.86 L13.2
						 105.66 L14.27 106.51 L15.34 107.51 L16.46 108.76 L17.49 110.36 L18 111.36 L17.49 112.31 L16.46 113.86 L15.34
						 115.21 L14.27 116.16 L13.11 117.01 L12.09 117.76 L10.97 118.36 L9.9 118.91 L8.74 119.46 L7.71 119.76 L6.6
						 120.06 L5.49 120.26 L4.46 120.36 L0 120.36 L0.9 118.66 L1.46 117.01 L1.8 115.86 L2.1 114.76 L2.36 113.66
						 L2.44 112.51 L2.53 111.36 L2.44 110.21 L2.4 109.16 L2.19 108.01 L1.89 106.86 L1.54 105.71 L1.11 104.61 L0.6
						 103.41 L0.13 102.36 L0.13 102.36" class="st1"/>
		</g>
		<g id="shape2-4" v:mID="2" v:groupContext="shape" transform="translate(34.4411,-111.002)">
			<title>Sheet.2</title>
			<path d="M0 111.36 L1.38 114.62 L1.77 115.91 L2.05 116.99 L2.27 118.13 L2.32 119.28 L2.4 120.36" class="st1"/>
		</g>
		<g id="shape3-7" v:mID="3" v:groupContext="shape" transform="translate(34.4439,129.72) scale(1,-1)">
			<title>Sheet.3</title>
			<path d="M0 111.36 L1.38 114.62 L1.77 115.91 L2.05 116.99 L2.27 118.13 L2.32 119.28 L2.4 120.36" class="st1"/>
		</g>
		<g id="shape4-10" v:mID="4" v:groupContext="shape" transform="translate(14.625,-115.5)">
			<title>Sheet.4</title>
			<path d="M21.57 120.36 L0 120.36" class="st1"/>
		</g>
		<g id="shape5-13" v:mID="5" v:groupContext="shape" transform="translate(14.625,-106.5)">
			<title>Sheet.5</title>
			<path d="M21.57 120.36 L0 120.36" class="st1"/>
		</g>
		<g id="shape6-16" v:mID="6" v:groupContext="shape" transform="translate(55.125,-111)">
			<title>Sheet.6</title>
			<path d="M9 120.36 L0 120.36" class="st1"/>
		</g>
		<g id="shape7-19" v:mID="7" v:groupContext="shape" transform="translate(73.125,-81.7501)">
			<title>Sheet.7</title>
			<path d="M0.13 102.36 L5.49 102.36 L6.9 102.66 L7.71 102.86 L8.7 103.16 L9.9 103.71 L10.97 104.26 L12.09 104.86 L13.2
						 105.66 L14.27 106.51 L15.34 107.51 L16.46 108.76 L17.49 110.36 L18 111.36 L17.49 112.31 L16.46 113.86 L15.34
						 115.21 L14.27 116.16 L13.11 117.01 L12.09 117.76 L10.97 118.36 L9.9 118.91 L8.74 119.46 L7.71 119.76 L6.6
						 120.06 L5.49 120.26 L4.46 120.36 L0 120.36 L0.9 118.66 L1.46 117.01 L1.8 115.86 L2.1 114.76 L2.36 113.66
						 L2.44 112.51 L2.53 111.36 L2.44 110.21 L2.4 109.16 L2.19 108.01 L1.89 106.86 L1.54 105.71 L1.11 104.61 L0.6
						 103.41 L0.13 102.36 L0.13 102.36" class="st1"/>
		</g>
		<g id="shape8-22" v:mID="8" v:groupContext="shape" transform="translate(70.4411,-90.7518)">
			<title>Sheet.8</title>
			<path d="M0 111.36 L1.38 114.62 L1.77 115.91 L2.05 116.99 L2.27 118.13 L2.32 119.28 L2.4 120.36" class="st1"/>
		</g>
		<g id="shape9-25" v:mID="9" v:groupContext="shape" transform="translate(70.4439,149.97) scale(1,-1)">
			<title>Sheet.9</title>
			<path d="M0 111.36 L1.38 114.62 L1.77 115.91 L2.05 116.99 L2.27 118.13 L2.32 119.28 L2.4 120.36" class="st1"/>
		</g>
		<g id="shape10-28" v:mID="10" v:groupContext="shape" transform="translate(64.125,-95.2501)">
			<title>Sheet.10</title>
			<path d="M8.07 120.36 L0 120.36" class="st1"/>
		</g>
		<g id="shape11-31" v:mID="11" v:groupContext="shape" transform="translate(64.125,-86.2501)">
			<title>Sheet.11</title>
			<path d="M8.07 120.36 L0 120.36" class="st1"/>
		</g>
		<g id="shape12-34" v:mID="12" v:groupContext="shape" transform="translate(91.125,-90.7501)">
			<title>Sheet.12</title>
			<path d="M45 120.36 L0 120.36" class="st1"/>
		</g>
		<g id="shape13-37" v:mID="13" v:groupContext="shape" transform="translate(184.485,9.36) rotate(90)">
			<title>Sheet.13</title>
			<path d="M0 120.36 L45 120.36" class="st1"/>
		</g>
		<g id="shape14-40" v:mID="14" v:groupContext="shape" transform="translate(14.625,-86.2501)">
			<title>Sheet.14</title>
			<path d="M0 120.36 L49.5 120.36" class="st1"/>
		</g>
		<g id="shape15-43" v:mID="15" v:groupContext="shape" transform="translate(73.125,-52.5001)">
			<title>Sheet.15</title>
			<path d="M0 102.36 L0 120.36 L9 120.36 A9 9 -180 0 0 18 111.36 A9 9 -180 0 0 9 102.36 L0 102.36 Z" class="st2"/>
		</g>
		<g id="shape16-45" v:mID="16" v:groupContext="shape" transform="translate(73.125,-30.0001)">
			<title>Sheet.16</title>
			<path d="M0 102.36 L0 120.36 L9 120.36 A9 9 -180 0 0 18 111.36 A9 9 -180 0 0 9 102.36 L0 102.36 Z" class="st2"/>
		</g>
		<g id="shape17-47" v:mID="17" v:groupContext="shape" transform="translate(109.125,-41.2501)">
			<title>Sheet.17</title>
			<path d="M0.13 102.36 L5.49 102.36 L6.9 102.66 L7.71 102.86 L8.7 103.16 L9.9 103.71 L10.97 104.26 L12.09 104.86 L13.2
						 105.66 L14.27 106.51 L15.34 107.51 L16.46 108.76 L17.49 110.36 L18 111.36 L17.49 112.31 L16.46 113.86 L15.34
						 115.21 L14.27 116.16 L13.11 117.01 L12.09 117.76 L10.97 118.36 L9.9 118.91 L8.74 119.46 L7.71 119.76 L6.6
						 120.06 L5.49 120.26 L4.46 120.36 L0 120.36 L0.9 118.66 L1.46 117.01 L1.8 115.86 L2.1 114.76 L2.36 113.66
						 L2.44 112.51 L2.53 111.36 L2.44 110.21 L2.4 109.16 L2.19 108.01 L1.89 106.86 L1.54 105.71 L1.11 104.61 L0.6
						 103.41 L0.13 102.36 L0.13 102.36" class="st1"/>
		</g>
		<g id="shape18-50" v:mID="18" v:groupContext="shape" transform="translate(91.125,-59.2501)">
			<title>Circle.276</title>
			<v:userDefs>
				<v:ud v:nameU="visVersion" v:val="VT0(11):26"/>
			</v:userDefs>
			<path d="M0 118.11 A2.25 2.25 0 0 1 4.5 118.11 A2.25 2.25 0 1 1 0 118.11 Z" class="st2"/>
		</g>
		<g id="shape19-52" v:mID="19" v:groupContext="shape" transform="translate(91.125,-36.7501)">
			<title>Circle.277</title>
			<v:userDefs>
				<v:ud v:nameU="visVersion" v:val="VT0(11):26"/>
			</v:userDefs>
			<path d="M0 118.11 A2.25 2.25 0 0 1 4.5 118.11 A2.25 2.25 0 1 1 0 118.11 Z" class="st2"/>
		</g>
		<g id="shape20-54" v:mID="20" v:groupContext="shape" transform="translate(106.313,-43.5001)">
			<title>Circle.278</title>
			<v:userDefs>
				<v:ud v:nameU="visVersion" v:val="VT0(11):26"/>
			</v:userDefs>
			<path d="M0 118.11 A2.25 2.25 0 0 1 4.5 118.11 A2.25 2.25 0 1 1 0 118.11 Z" class="st2"/>
		</g>
		<g id="shape21-56" v:mID="21" v:groupContext="shape" transform="translate(106.313,-52.5001)">
			<title>Circle.279</title>
			<v:userDefs>
				<v:ud v:nameU="visVersion" v:val="VT0(11):26"/>
			</v:userDefs>
			<path d="M0 118.11 A2.25 2.25 0 0 1 4.5 118.11 A2.25 2.25 0 1 1 0 118.11 Z" class="st2"/>
		</g>
		<g id="shape22-58" v:mID="22" v:groupContext="shape" transform="translate(30.375,-43.5001)">
			<title>Sheet.22</title>
			<path d="M42.75 120.36 L0 120.36" class="st1"/>
		</g>
		<g id="shape23-61" v:mID="23" v:groupContext="shape" transform="translate(150.735,13.86) rotate(90)">
			<title>Sheet.23</title>
			<path d="M0 120.36 L63 120.36" class="st1"/>
		</g>
		<g id="shape24-64" v:mID="24" v:groupContext="shape" transform="translate(64.125,-66.0001)">
			<title>Sheet.24</title>
			<path d="M9 120.36 L0 120.36" class="st1"/>
		</g>
		<g id="shape25-67" v:mID="25" v:groupContext="shape" transform="translate(57.375,-57.0001)">
			<title>Sheet.25</title>
			<path d="M15.75 120.36 L0 120.36" class="st1"/>
		</g>
		<g id="shape26-70" v:mID="26" v:groupContext="shape" transform="translate(177.735,34.11) rotate(90)">
			<title>Sheet.26</title>
			<path d="M0 120.36 L29.25 120.36" class="st1"/>
		</g>
		<g id="shape27-73" v:mID="27" v:groupContext="shape" transform="translate(143.985,4.86) rotate(90)">
			<title>Sheet.27</title>
			<path d="M0 120.36 L81 120.36" class="st1"/>
		</g>
		<g id="shape28-76" v:mID="28" v:groupContext="shape" transform="translate(95.625,-61.5001)">
			<title>Sheet.28</title>
			<path d="M4.5 120.36 L0 120.36" class="st1"/>
		</g>
		<g id="shape29-79" v:mID="29" v:groupContext="shape" transform="translate(95.625,-39.0001)">
			<title>Sheet.29</title>
			<path d="M4.5 120.36 L0 120.36" class="st1"/>
		</g>
		<g id="shape30-82" v:mID="30" v:groupContext="shape" transform="translate(100.125,-45.7501)">
			<title>Sheet.30</title>
			<path d="M6.19 120.36 L0 120.36" class="st1"/>
		</g>
		<g id="shape31-85" v:mID="31" v:groupContext="shape" transform="translate(100.125,-54.7501)">
			<title>Sheet.31</title>
			<path d="M6.19 120.36 L0 120.36" class="st1"/>
		</g>
		<g id="shape32-88" v:mID="32" v:groupContext="shape" transform="translate(23.625,-34.5001)">
			<title>Sheet.32</title>
			<path d="M49.5 120.36 L0 120.36" class="st1"/>
		</g>
		<g id="shape33-91" v:mID="33" v:groupContext="shape" transform="translate(23.0625,-114.938)">
			<title>Circle.292</title>
			<v:userDefs>
				<v:ud v:nameU="visVersion" v:val="VT0(11):26"/>
			</v:userDefs>
			<path d="M0 119.8 a0.5625 0.5625 0 0 1 1.125 0 a0.5625 0.5625 0 1 1 -1.125 0 Z" class="st3"/>
		</g>
		<g id="shape34-93" v:mID="34" v:groupContext="shape" transform="translate(29.8125,-105.938)">
			<title>Circle.293</title>
			<v:userDefs>
				<v:ud v:nameU="visVersion" v:val="VT0(11):26"/>
			</v:userDefs>
			<path d="M0 119.8 a0.5625 0.5625 0 0 1 1.125 0 a0.5625 0.5625 0 1 1 -1.125 0 Z" class="st3"/>
		</g>
		<g id="shape35-95" v:mID="35" v:groupContext="shape" transform="translate(63.5625,-94.6876)">
			<title>Circle.294</title>
			<v:userDefs>
				<v:ud v:nameU="visVersion" v:val="VT0(11):26"/>
			</v:userDefs>
			<path d="M0 119.8 a0.5625 0.5625 0 0 1 1.125 0 a0.5625 0.5625 0 1 1 -1.125 0 Z" class="st3"/>
		</g>
		<g id="shape36-97" v:mID="36" v:groupContext="shape" transform="translate(56.8125,-85.6876)">
			<title>Circle.295</title>
			<v:userDefs>
				<v:ud v:nameU="visVersion" v:val="VT0(11):26"/>
			</v:userDefs>
			<path d="M0 119.8 a0.5625 0.5625 0 0 1 1.125 0 a0.5625 0.5625 0 1 1 -1.125 0 Z" class="st3"/>
		</g>
		<g id="shape37-99" v:mID="37" v:groupContext="shape" transform="translate(100.125,-54.7501)">
			<title>Sheet.37</title>
			<path d="M6.19 120.36 L0 120.36" class="st1"/>
		</g>
		<g id="shape38-102" v:mID="38" v:groupContext="shape" transform="translate(100.125,-54.7501)">
			<title>Sheet.38</title>
			<path d="M0 113.61 L0 120.36" class="st1"/>
		</g>
		<g id="shape39-105" v:mID="39" v:groupContext="shape" transform="translate(100.125,-39.0001)">
			<title>Sheet.39</title>
			<path d="M0 113.61 L0 120.36" class="st1"/>
		</g>
		<g id="shape40-108" v:mID="40" v:groupContext="shape" transform="translate(127.125,-50.2501)">
			<title>Sheet.40</title>
			<path d="M9 120.36 L0 120.36" class="st1"/>
		</g>
		<g id="shape41-111" v:mID="41" v:groupContext="shape" transform="translate(4.5,-111)">
			<title>Sheet.41</title>
			<desc>A</desc>
			<v:textBlock v:margins="rect(0,0,0,0)"/>
			<v:textRect cx="3.9375" cy="115.86" width="7.88" height="9"/>
			<path d="M7.87 111.36 L0 111.36 L0 120.36 L7.87 120.36 L7.87 111.36" class="st4"/>
			<text x="2.54" y="118.26" class="st5" v:langID="1033"><v:paragraph v:horizAlign="2"/><v:tabList/>A</text>		</g>
		<g id="shape42-115" v:mID="42" v:groupContext="shape" transform="translate(4.5,-102)">
			<title>Sheet.42</title>
			<desc>B</desc>
			<v:textBlock v:margins="rect(0,0,0,0)"/>
			<v:textRect cx="3.9375" cy="115.86" width="7.88" height="9"/>
			<path d="M7.87 111.36 L0 111.36 L0 120.36 L7.87 120.36 L7.87 111.36" class="st4"/>
			<text x="2.54" y="118.26" class="st5" v:langID="1033"><v:paragraph v:horizAlign="2"/><v:tabList/>B</text>		</g>
		<g id="shape43-119" v:mID="43" v:groupContext="shape" transform="translate(0,-81.7501)">
			<title>Sheet.43</title>
			<desc>Cin</desc>
			<v:textBlock v:margins="rect(0,0,0,0)"/>
			<v:textRect cx="6.1875" cy="115.86" width="12.38" height="9"/>
			<path d="M12.37 111.36 L0 111.36 L0 120.36 L12.37 120.36 L12.37 111.36" class="st4"/>
			<text x="0.37" y="118.26" class="st5" v:langID="1033"><v:paragraph v:horizAlign="2"/><v:tabList/>Cin</text>		</g>
		<g id="shape44-123" v:mID="44" v:groupContext="shape" transform="translate(139.5,-86.2501)">
			<title>Sheet.44</title>
			<desc>S</desc>
			<v:textBlock v:margins="rect(0,0,0,0)"/>
			<v:textRect cx="3.9375" cy="115.86" width="7.88" height="9"/>
			<path d="M7.87 111.36 L0 111.36 L0 120.36 L7.87 120.36 L7.87 111.36" class="st4"/>
			<text x="0" y="118.26" class="st5" v:langID="1033"><v:paragraph/><v:tabList/>S</text>		</g>
		<g id="shape45-127" v:mID="45" v:groupContext="shape" transform="translate(139.5,-45.7501)">
			<title>Sheet.45</title>
			<desc>Cout</desc>
			<v:textBlock v:margins="rect(0,0,0,0)"/>
			<v:textRect cx="9" cy="115.86" width="18" height="9"/>
			<path d="M18 111.36 L0 111.36 L0 120.36 L18 120.36 L18 111.36" class="st4"/>
			<text x="0" y="118.26" class="st5" v:langID="1033"><v:paragraph/><v:tabList/>Cout</text>		</g>
		<g id="shape46-131" v:mID="46" v:groupContext="shape" transform="translate(217.125,-102)">
			<title>Sheet.46</title>
			<path d="M0.13 102.36 L5.49 102.36 L6.9 102.66 L7.71 102.86 L8.7 103.16 L9.9 103.71 L10.97 104.26 L12.09 104.86 L13.2
						 105.66 L14.27 106.51 L15.34 107.51 L16.46 108.76 L17.49 110.36 L18 111.36 L17.49 112.31 L16.46 113.86 L15.34
						 115.21 L14.27 116.16 L13.11 117.01 L12.09 117.76 L10.97 118.36 L9.9 118.91 L8.74 119.46 L7.71 119.76 L6.6
						 120.06 L5.49 120.26 L4.46 120.36 L0 120.36 L0.9 118.66 L1.46 117.01 L1.8 115.86 L2.1 114.76 L2.36 113.66
						 L2.44 112.51 L2.53 111.36 L2.44 110.21 L2.4 109.16 L2.19 108.01 L1.89 106.86 L1.54 105.71 L1.11 104.61 L0.6
						 103.41 L0.13 102.36 L0.13 102.36" class="st1"/>
		</g>
		<g id="shape47-134" v:mID="47" v:groupContext="shape" transform="translate(214.441,-111.002)">
			<title>Sheet.47</title>
			<path d="M0 111.36 L1.38 114.62 L1.77 115.91 L2.05 116.99 L2.27 118.13 L2.32 119.28 L2.4 120.36" class="st1"/>
		</g>
		<g id="shape48-137" v:mID="48" v:groupContext="shape" transform="translate(214.444,129.72) scale(1,-1)">
			<title>Sheet.48</title>
			<path d="M0 111.36 L1.38 114.62 L1.77 115.91 L2.05 116.99 L2.27 118.13 L2.32 119.28 L2.4 120.36" class="st1"/>
		</g>
		<g id="shape49-140" v:mID="49" v:groupContext="shape" transform="translate(194.625,-115.5)">
			<title>Sheet.49</title>
			<path d="M21.57 120.36 L0 120.36" class="st1"/>
		</g>
		<g id="shape50-143" v:mID="50" v:groupContext="shape" transform="translate(194.625,-106.5)">
			<title>Sheet.50</title>
			<path d="M21.57 120.36 L0 120.36" class="st1"/>
		</g>
		<g id="shape51-146" v:mID="51" v:groupContext="shape" transform="translate(235.125,-111)">
			<title>Sheet.51</title>
			<path d="M9 120.36 L0 120.36" class="st1"/>
		</g>
		<g id="shape52-149" v:mID="52" v:groupContext="shape" transform="translate(253.125,-81.7501)">
			<title>Sheet.52</title>
			<path d="M0.13 102.36 L5.49 102.36 L6.9 102.66 L7.71 102.86 L8.7 103.16 L9.9 103.71 L10.97 104.26 L12.09 104.86 L13.2
						 105.66 L14.27 106.51 L15.34 107.51 L16.46 108.76 L17.49 110.36 L18 111.36 L17.49 112.31 L16.46 113.86 L15.34
						 115.21 L14.27 116.16 L13.11 117.01 L12.09 117.76 L10.97 118.36 L9.9 118.91 L8.74 119.46 L7.71 119.76 L6.6
						 120.06 L5.49 120.26 L4.46 120.36 L0 120.36 L0.9 118.66 L1.46 117.01 L1.8 115.86 L2.1 114.76 L2.36 113.66
						 L2.44 112.51 L2.53 111.36 L2.44 110.21 L2.4 109.16 L2.19 108.01 L1.89 106.86 L1.54 105.71 L1.11 104.61 L0.6
						 103.41 L0.13 102.36 L0.13 102.36" class="st1"/>
		</g>
		<g id="shape53-152" v:mID="53" v:groupContext="shape" transform="translate(250.441,-90.7518)">
			<title>Sheet.53</title>
			<path d="M0 111.36 L1.38 114.62 L1.77 115.91 L2.05 116.99 L2.27 118.13 L2.32 119.28 L2.4 120.36" class="st1"/>
		</g>
		<g id="shape54-155" v:mID="54" v:groupContext="shape" transform="translate(250.444,149.97) scale(1,-1)">
			<title>Sheet.54</title>
			<path d="M0 111.36 L1.38 114.62 L1.77 115.91 L2.05 116.99 L2.27 118.13 L2.32 119.28 L2.4 120.36" class="st1"/>
		</g>
		<g id="shape55-158" v:mID="55" v:groupContext="shape" transform="translate(244.125,-95.2501)">
			<title>Sheet.55</title>
			<path d="M8.07 120.36 L0 120.36" class="st1"/>
		</g>
		<g id="shape56-161" v:mID="56" v:groupContext="shape" transform="translate(244.125,-86.2501)">
			<title>Sheet.56</title>
			<path d="M8.07 120.36 L0 120.36" class="st1"/>
		</g>
		<g id="shape57-164" v:mID="57" v:groupContext="shape" transform="translate(271.125,-90.7501)">
			<title>Sheet.57</title>
			<path d="M45 120.36 L0 120.36" class="st1"/>
		</g>
		<g id="shape58-167" v:mID="58" v:groupContext="shape" transform="translate(364.485,9.36) rotate(90)">
			<title>Sheet.58</title>
			<path d="M0 120.36 L45 120.36" class="st1"/>
		</g>
		<g id="shape59-170" v:mID="59" v:groupContext="shape" transform="translate(194.625,-86.2501)">
			<title>Sheet.59</title>
			<path d="M0 120.36 L49.5 120.36" class="st1"/>
		</g>
		<g id="shape60-173" v:mID="60" v:groupContext="shape" transform="translate(253.125,-52.5001)">
			<title>Sheet.60</title>
			<path d="M0 102.36 L0 120.36 L9 120.36 A9 9 -180 0 0 18 111.36 A9 9 -180 0 0 9 102.36 L0 102.36 Z" class="st2"/>
		</g>
		<g id="shape61-175" v:mID="61" v:groupContext="shape" transform="translate(253.125,-30.0001)">
			<title>Sheet.61</title>
			<path d="M0 102.36 L0 120.36 L9 120.36 A9 9 -180 0 0 18 111.36 A9 9 -180 0 0 9 102.36 L0 102.36 Z" class="st2"/>
		</g>
		<g id="shape62-177" v:mID="62" v:groupContext="shape" transform="translate(289.125,-41.2501)">
			<title>Sheet.62</title>
			<path d="M0.13 102.36 L5.49 102.36 L6.9 102.66 L7.71 102.86 L8.7 103.16 L9.9 103.71 L10.97 104.26 L12.09 104.86 L13.2
						 105.66 L14.27 106.51 L15.34 107.51 L16.46 108.76 L17.49 110.36 L18 111.36 L17.49 112.31 L16.46 113.86 L15.34
						 115.21 L14.27 116.16 L13.11 117.01 L12.09 117.76 L10.97 118.36 L9.9 118.91 L8.74 119.46 L7.71 119.76 L6.6
						 120.06 L5.49 120.26 L4.46 120.36 L0 120.36 L0.9 118.66 L1.46 117.01 L1.8 115.86 L2.1 114.76 L2.36 113.66
						 L2.44 112.51 L2.53 111.36 L2.44 110.21 L2.4 109.16 L2.19 108.01 L1.89 106.86 L1.54 105.71 L1.11 104.61 L0.6
						 103.41 L0.13 102.36 L0.13 102.36" class="st1"/>
		</g>
		<g id="shape63-180" v:mID="63" v:groupContext="shape" transform="translate(271.125,-59.2501)">
			<title>Circle.316</title>
			<v:userDefs>
				<v:ud v:nameU="visVersion" v:val="VT0(11):26"/>
			</v:userDefs>
			<path d="M0 118.11 A2.25 2.25 0 0 1 4.5 118.11 A2.25 2.25 0 1 1 0 118.11 Z" class="st2"/>
		</g>
		<g id="shape64-182" v:mID="64" v:groupContext="shape" transform="translate(271.125,-36.7501)">
			<title>Circle.317</title>
			<v:userDefs>
				<v:ud v:nameU="visVersion" v:val="VT0(11):26"/>
			</v:userDefs>
			<path d="M0 118.11 A2.25 2.25 0 0 1 4.5 118.11 A2.25 2.25 0 1 1 0 118.11 Z" class="st2"/>
		</g>
		<g id="shape65-184" v:mID="65" v:groupContext="shape" transform="translate(286.313,-43.5001)">
			<title>Circle.318</title>
			<v:userDefs>
				<v:ud v:nameU="visVersion" v:val="VT0(11):26"/>
			</v:userDefs>
			<path d="M0 118.11 A2.25 2.25 0 0 1 4.5 118.11 A2.25 2.25 0 1 1 0 118.11 Z" class="st2"/>
		</g>
		<g id="shape66-186" v:mID="66" v:groupContext="shape" transform="translate(286.313,-52.5001)">
			<title>Circle.319</title>
			<v:userDefs>
				<v:ud v:nameU="visVersion" v:val="VT0(11):26"/>
			</v:userDefs>
			<path d="M0 118.11 A2.25 2.25 0 0 1 4.5 118.11 A2.25 2.25 0 1 1 0 118.11 Z" class="st2"/>
		</g>
		<g id="shape67-188" v:mID="67" v:groupContext="shape" transform="translate(210.375,-43.5001)">
			<title>Sheet.67</title>
			<path d="M42.75 120.36 L0 120.36" class="st1"/>
		</g>
		<g id="shape68-191" v:mID="68" v:groupContext="shape" transform="translate(330.735,13.86) rotate(90)">
			<title>Sheet.68</title>
			<path d="M0 120.36 L63 120.36" class="st1"/>
		</g>
		<g id="shape69-194" v:mID="69" v:groupContext="shape" transform="translate(244.125,-66.0001)">
			<title>Sheet.69</title>
			<path d="M9 120.36 L0 120.36" class="st1"/>
		</g>
		<g id="shape70-197" v:mID="70" v:groupContext="shape" transform="translate(237.375,-57.0001)">
			<title>Sheet.70</title>
			<path d="M15.75 120.36 L0 120.36" class="st1"/>
		</g>
		<g id="shape71-200" v:mID="71" v:groupContext="shape" transform="translate(357.735,34.11) rotate(90)">
			<title>Sheet.71</title>
			<path d="M0 120.36 L29.25 120.36" class="st1"/>
		</g>
		<g id="shape72-203" v:mID="72" v:groupContext="shape" transform="translate(323.985,4.86) rotate(90)">
			<title>Sheet.72</title>
			<path d="M0 120.36 L81 120.36" class="st1"/>
		</g>
		<g id="shape73-206" v:mID="73" v:groupContext="shape" transform="translate(275.625,-61.5001)">
			<title>Sheet.73</title>
			<path d="M4.5 120.36 L0 120.36" class="st1"/>
		</g>
		<g id="shape74-209" v:mID="74" v:groupContext="shape" transform="translate(275.625,-39.0001)">
			<title>Sheet.74</title>
			<path d="M4.5 120.36 L0 120.36" class="st1"/>
		</g>
		<g id="shape75-212" v:mID="75" v:groupContext="shape" transform="translate(280.125,-45.7501)">
			<title>Sheet.75</title>
			<path d="M6.19 120.36 L0 120.36" class="st1"/>
		</g>
		<g id="shape76-215" v:mID="76" v:groupContext="shape" transform="translate(280.125,-54.7501)">
			<title>Sheet.76</title>
			<path d="M6.19 120.36 L0 120.36" class="st1"/>
		</g>
		<g id="shape77-218" v:mID="77" v:groupContext="shape" transform="translate(203.625,-34.5001)">
			<title>Sheet.77</title>
			<path d="M49.5 120.36 L0 120.36" class="st1"/>
		</g>
		<g id="shape78-221" v:mID="78" v:groupContext="shape" transform="translate(203.063,-114.938)">
			<title>Circle.331</title>
			<v:userDefs>
				<v:ud v:nameU="visVersion" v:val="VT0(11):26"/>
			</v:userDefs>
			<path d="M0 119.8 a0.5625 0.5625 0 0 1 1.125 0 a0.5625 0.5625 0 1 1 -1.125 0 Z" class="st3"/>
		</g>
		<g id="shape79-223" v:mID="79" v:groupContext="shape" transform="translate(209.813,-105.938)">
			<title>Circle.332</title>
			<v:userDefs>
				<v:ud v:nameU="visVersion" v:val="VT0(11):26"/>
			</v:userDefs>
			<path d="M0 119.8 a0.5625 0.5625 0 0 1 1.125 0 a0.5625 0.5625 0 1 1 -1.125 0 Z" class="st3"/>
		</g>
		<g id="shape80-225" v:mID="80" v:groupContext="shape" transform="translate(243.563,-94.6876)">
			<title>Circle.333</title>
			<v:userDefs>
				<v:ud v:nameU="visVersion" v:val="VT0(11):26"/>
			</v:userDefs>
			<path d="M0 119.8 a0.5625 0.5625 0 0 1 1.125 0 a0.5625 0.5625 0 1 1 -1.125 0 Z" class="st3"/>
		</g>
		<g id="shape81-227" v:mID="81" v:groupContext="shape" transform="translate(236.813,-85.6876)">
			<title>Circle.334</title>
			<v:userDefs>
				<v:ud v:nameU="visVersion" v:val="VT0(11):26"/>
			</v:userDefs>
			<path d="M0 119.8 a0.5625 0.5625 0 0 1 1.125 0 a0.5625 0.5625 0 1 1 -1.125 0 Z" class="st3"/>
		</g>
		<g id="shape82-229" v:mID="82" v:groupContext="shape" transform="translate(280.125,-54.7501)">
			<title>Sheet.82</title>
			<path d="M6.19 120.36 L0 120.36" class="st1"/>
		</g>
		<g id="shape83-232" v:mID="83" v:groupContext="shape" transform="translate(280.125,-54.7501)">
			<title>Sheet.83</title>
			<path d="M0 113.61 L0 120.36" class="st1"/>
		</g>
		<g id="shape84-235" v:mID="84" v:groupContext="shape" transform="translate(280.125,-39.0001)">
			<title>Sheet.84</title>
			<path d="M0 113.61 L0 120.36" class="st1"/>
		</g>
		<g id="shape85-238" v:mID="85" v:groupContext="shape" transform="translate(307.125,-50.2501)">
			<title>Sheet.85</title>
			<path d="M9 120.36 L0 120.36" class="st1"/>
		</g>
		<g id="shape86-241" v:mID="86" v:groupContext="shape" transform="translate(184.5,-111)">
			<title>Sheet.86</title>
			<desc>A</desc>
			<v:textBlock v:margins="rect(0,0,0,0)"/>
			<v:textRect cx="3.9375" cy="115.86" width="7.88" height="9"/>
			<path d="M7.87 111.36 L0 111.36 L0 120.36 L7.87 120.36 L7.87 111.36" class="st4"/>
			<text x="2.54" y="118.26" class="st5" v:langID="1033"><v:paragraph v:horizAlign="2"/><v:tabList/>A</text>		</g>
		<g id="shape87-245" v:mID="87" v:groupContext="shape" transform="translate(184.5,-102)">
			<title>Sheet.87</title>
			<desc>B</desc>
			<v:textBlock v:margins="rect(0,0,0,0)"/>
			<v:textRect cx="3.9375" cy="115.86" width="7.88" height="9"/>
			<path d="M7.87 111.36 L0 111.36 L0 120.36 L7.87 120.36 L7.87 111.36" class="st4"/>
			<text x="2.54" y="118.26" class="st5" v:langID="1033"><v:paragraph v:horizAlign="2"/><v:tabList/>B</text>		</g>
		<g id="shape88-249" v:mID="88" v:groupContext="shape" transform="translate(180,-81.7501)">
			<title>Sheet.88</title>
			<desc>Bin</desc>
			<v:textBlock v:margins="rect(0,0,0,0)"/>
			<v:textRect cx="6.1875" cy="115.86" width="12.38" height="9"/>
			<path d="M12.37 111.36 L0 111.36 L0 120.36 L12.37 120.36 L12.37 111.36" class="st4"/>
			<text x="0.81" y="118.26" class="st5" v:langID="1033"><v:paragraph v:horizAlign="2"/><v:tabList/>Bin</text>		</g>
		<g id="shape89-253" v:mID="89" v:groupContext="shape" transform="translate(319.5,-86.2501)">
			<title>Sheet.89</title>
			<desc>D</desc>
			<v:textBlock v:margins="rect(0,0,0,0)"/>
			<v:textRect cx="3.9375" cy="115.86" width="7.88" height="9"/>
			<path d="M7.87 111.36 L0 111.36 L0 120.36 L7.87 120.36 L7.87 111.36" class="st4"/>
			<text x="0" y="118.26" class="st5" v:langID="1033"><v:paragraph/><v:tabList/>D</text>		</g>
		<g id="shape90-257" v:mID="90" v:groupContext="shape" transform="translate(319.5,-45.7501)">
			<title>Sheet.90</title>
			<desc>Bout</desc>
			<v:textBlock v:margins="rect(0,0,0,0)"/>
			<v:textRect cx="9" cy="115.86" width="18" height="9"/>
			<path d="M18 111.36 L0 111.36 L0 120.36 L18 120.36 L18 111.36" class="st4"/>
			<text x="0" y="118.26" class="st5" v:langID="1033"><v:paragraph/><v:tabList/>Bout</text>		</g>
		<g id="shape91-261" v:mID="91" v:groupContext="shape" transform="translate(320.329,40.86) rotate(90)">
			<title>Sheet.91</title>
			<path d="M0 113.09 L0 120.36 L6.06 116.69 L0 113.09 L0 113.09 Z" class="st6"/>
		</g>
		<g id="shape92-263" v:mID="92" v:groupContext="shape" transform="translate(320.329,40.86) rotate(90)">
			<title>Sheet.92</title>
			<path d="M0 113.09 L0 120.36 L6.06 116.69 L0 113.09 L0 113.09" class="st7"/>
		</g>
		<g id="shape93-266" v:mID="93" v:groupContext="shape" transform="translate(323.101,46.9237) rotate(90)">
			<title>Sheet.93</title>
			<path d="M0 119.46 L0 119.31 L0.07 119.09 L0.15 118.94 L0.22 118.86 L0.37 118.71 L0.52 118.64 L0.75 118.56 L0.9 118.56
						 L1.05 118.56 L1.27 118.64 L1.42 118.71 L1.57 118.86 L1.65 118.94 L1.72 119.09 L1.8 119.31 L1.8 119.46 L1.8
						 119.46 L1.8 119.69 L1.72 119.84 L1.65 119.99 L1.57 120.14 L1.42 120.21 L1.27 120.29 L1.05 120.36 L0.9 120.36
						 L0.75 120.36 L0.52 120.29 L0.37 120.21 L0.22 120.14 L0.15 119.99 L0.07 119.84 L0 119.69 L0 119.46 L0 119.46
						 Z" class="st6"/>
		</g>
		<g id="shape94-268" v:mID="94" v:groupContext="shape" transform="translate(323.101,46.9237) rotate(90)">
			<title>Sheet.94</title>
			<path d="M0 119.46 L0 119.31 L0.07 119.09 L0.15 118.94 L0.22 118.86 L0.37 118.71 L0.52 118.64 L0.75 118.56 L0.9 118.56
						 L1.05 118.56 L1.27 118.64 L1.42 118.71 L1.57 118.86 L1.65 118.94 L1.72 119.09 L1.8 119.31 L1.8 119.46 L1.8
						 119.46 L1.8 119.69 L1.72 119.84 L1.65 119.99 L1.57 120.14 L1.42 120.21 L1.27 120.29 L1.05 120.36 L0.9 120.36
						 L0.75 120.36 L0.52 120.29 L0.37 120.21 L0.22 120.14 L0.15 119.99 L0.07 119.84 L0 119.69 L0 119.46"
					class="st7"/>
		</g>
		<g id="shape95-271" v:mID="95" v:groupContext="shape" transform="translate(360.548,40.8747) rotate(90)">
			<title>Sheet.95</title>
			<path d="M0 112.49 L0 120.36 L6.06 116.38 L0 112.49 L0 112.49 Z" class="st6"/>
		</g>
		<g id="shape96-273" v:mID="96" v:groupContext="shape" transform="translate(360.548,40.8747) rotate(90)">
			<title>Sheet.96</title>
			<path d="M0 112.49 L0 120.36 L6.06 116.38 L0 112.49 L0 112.49" class="st7"/>
		</g>
		<g id="shape97-276" v:mID="97" v:groupContext="shape" transform="translate(363.551,46.9384) rotate(90)">
			<title>Sheet.97</title>
			<path d="M0 119.39 L0 119.22 L0.07 118.98 L0.15 118.82 L0.22 118.74 L0.37 118.57 L0.52 118.49 L0.75 118.41 L0.9 118.41
						 L1.05 118.41 L1.27 118.49 L1.42 118.57 L1.57 118.74 L1.65 118.82 L1.72 118.98 L1.8 119.22 L1.8 119.39 L1.8
						 119.39 L1.8 119.63 L1.72 119.79 L1.65 119.95 L1.57 120.12 L1.42 120.2 L1.27 120.28 L1.05 120.36 L0.9 120.36
						 L0.75 120.36 L0.52 120.28 L0.37 120.2 L0.22 120.12 L0.15 119.95 L0.07 119.79 L0 119.63 L0 119.39 L0 119.39
						 Z" class="st6"/>
		</g>
		<g id="shape98-278" v:mID="98" v:groupContext="shape" transform="translate(363.551,46.9384) rotate(90)">
			<title>Sheet.98</title>
			<path d="M0 119.39 L0 119.22 L0.07 118.98 L0.15 118.82 L0.22 118.74 L0.37 118.57 L0.52 118.49 L0.75 118.41 L0.9 118.41
						 L1.05 118.41 L1.27 118.49 L1.42 118.57 L1.57 118.74 L1.65 118.82 L1.72 118.98 L1.8 119.22 L1.8 119.39 L1.8
						 119.39 L1.8 119.63 L1.72 119.79 L1.65 119.95 L1.57 120.12 L1.42 120.2 L1.27 120.28 L1.05 120.36 L0.9 120.36
						 L0.75 120.36 L0.52 120.28 L0.37 120.2 L0.22 120.12 L0.15 119.95 L0.07 119.79 L0 119.63 L0 119.39"
					class="st7"/>
		</g>
		<g id="shape99-281" v:mID="99" v:groupContext="shape" transform="translate(414.844,-102)">
			<title>Sheet.99</title>
			<path d="M0.13 102.36 L5.49 102.36 L6.9 102.66 L7.71 102.86 L8.7 103.16 L9.9 103.71 L10.97 104.26 L12.09 104.86 L13.2
						 105.66 L14.27 106.51 L15.34 107.51 L16.46 108.76 L17.49 110.36 L18 111.36 L17.49 112.31 L16.46 113.86 L15.34
						 115.21 L14.27 116.16 L13.11 117.01 L12.09 117.76 L10.97 118.36 L9.9 118.91 L8.74 119.46 L7.71 119.76 L6.6
						 120.06 L5.49 120.26 L4.46 120.36 L0 120.36 L0.9 118.66 L1.46 117.01 L1.8 115.86 L2.1 114.76 L2.36 113.66
						 L2.44 112.51 L2.53 111.36 L2.44 110.21 L2.4 109.16 L2.19 108.01 L1.89 106.86 L1.54 105.71 L1.11 104.61 L0.6
						 103.41 L0.13 102.36 L0.13 102.36" class="st1"/>
		</g>
		<g id="shape100-284" v:mID="100" v:groupContext="shape" transform="translate(412.16,-111.002)">
			<title>Sheet.100</title>
			<path d="M0 111.36 L1.38 114.62 L1.77 115.91 L2.05 116.99 L2.27 118.13 L2.32 119.28 L2.4 120.36" class="st1"/>
		</g>
		<g id="shape101-287" v:mID="101" v:groupContext="shape" transform="translate(412.163,129.72) scale(1,-1)">
			<title>Sheet.101</title>
			<path d="M0 111.36 L1.38 114.62 L1.77 115.91 L2.05 116.99 L2.27 118.13 L2.32 119.28 L2.4 120.36" class="st1"/>
		</g>
		<g id="shape102-290" v:mID="102" v:groupContext="shape" transform="translate(381.656,-115.5)">
			<title>Sheet.102</title>
			<path d="M32.26 120.36 L0 120.36" class="st1"/>
		</g>
		<g id="shape103-293" v:mID="103" v:groupContext="shape" transform="translate(381.656,-106.5)">
			<title>Sheet.103</title>
			<path d="M32.26 120.36 L0 120.36" class="st1"/>
		</g>
		<g id="shape104-296" v:mID="104" v:groupContext="shape" transform="translate(432.844,-111)">
			<title>Sheet.104</title>
			<path d="M9 120.36 L0 120.36" class="st1"/>
		</g>
		<g id="shape105-299" v:mID="105" v:groupContext="shape" transform="translate(450.844,-81.7501)">
			<title>Sheet.105</title>
			<path d="M0.13 102.36 L5.49 102.36 L6.9 102.66 L7.71 102.86 L8.7 103.16 L9.9 103.71 L10.97 104.26 L12.09 104.86 L13.2
						 105.66 L14.27 106.51 L15.34 107.51 L16.46 108.76 L17.49 110.36 L18 111.36 L17.49 112.31 L16.46 113.86 L15.34
						 115.21 L14.27 116.16 L13.11 117.01 L12.09 117.76 L10.97 118.36 L9.9 118.91 L8.74 119.46 L7.71 119.76 L6.6
						 120.06 L5.49 120.26 L4.46 120.36 L0 120.36 L0.9 118.66 L1.46 117.01 L1.8 115.86 L2.1 114.76 L2.36 113.66
						 L2.44 112.51 L2.53 111.36 L2.44 110.21 L2.4 109.16 L2.19 108.01 L1.89 106.86 L1.54 105.71 L1.11 104.61 L0.6
						 103.41 L0.13 102.36 L0.13 102.36" class="st1"/>
		</g>
		<g id="shape106-302" v:mID="106" v:groupContext="shape" transform="translate(448.16,-90.7518)">
			<title>Sheet.106</title>
			<path d="M0 111.36 L1.38 114.62 L1.77 115.91 L2.05 116.99 L2.27 118.13 L2.32 119.28 L2.4 120.36" class="st1"/>
		</g>
		<g id="shape107-305" v:mID="107" v:groupContext="shape" transform="translate(448.163,149.97) scale(1,-1)">
			<title>Sheet.107</title>
			<path d="M0 111.36 L1.38 114.62 L1.77 115.91 L2.05 116.99 L2.27 118.13 L2.32 119.28 L2.4 120.36" class="st1"/>
		</g>
		<g id="shape108-308" v:mID="108" v:groupContext="shape" transform="translate(441.844,-95.2501)">
			<title>Sheet.108</title>
			<path d="M8.07 120.36 L0 120.36" class="st1"/>
		</g>
		<g id="shape109-311" v:mID="109" v:groupContext="shape" transform="translate(441.844,-86.2501)">
			<title>Sheet.109</title>
			<path d="M8.07 120.36 L0 120.36" class="st1"/>
		</g>
		<g id="shape110-314" v:mID="110" v:groupContext="shape" transform="translate(468.844,-90.7501)">
			<title>Sheet.110</title>
			<path d="M45 120.36 L0 120.36" class="st1"/>
		</g>
		<g id="shape111-317" v:mID="111" v:groupContext="shape" transform="translate(562.204,9.36) rotate(90)">
			<title>Sheet.111</title>
			<path d="M0 120.36 L45 120.36" class="st1"/>
		</g>
		<g id="shape112-320" v:mID="112" v:groupContext="shape" transform="translate(381.375,-86.2501)">
			<title>Sheet.112</title>
			<path d="M0 120.36 L2.18 120.36 L60.47 120.36" class="st1"/>
		</g>
		<g id="shape113-323" v:mID="113" v:groupContext="shape" transform="translate(450.844,-52.5001)">
			<title>Sheet.113</title>
			<path d="M0 102.36 L0 120.36 L9 120.36 A9 9 -180 0 0 18 111.36 A9 9 -180 0 0 9 102.36 L0 102.36 Z" class="st2"/>
		</g>
		<g id="shape114-325" v:mID="114" v:groupContext="shape" transform="translate(450.844,-30.0001)">
			<title>Sheet.114</title>
			<path d="M0 102.36 L0 120.36 L9 120.36 A9 9 -180 0 0 18 111.36 A9 9 -180 0 0 9 102.36 L0 102.36 Z" class="st2"/>
		</g>
		<g id="shape115-327" v:mID="115" v:groupContext="shape" transform="translate(486.844,-41.2501)">
			<title>Sheet.115</title>
			<path d="M0.13 102.36 L5.49 102.36 L6.9 102.66 L7.71 102.86 L8.7 103.16 L9.9 103.71 L10.97 104.26 L12.09 104.86 L13.2
						 105.66 L14.27 106.51 L15.34 107.51 L16.46 108.76 L17.49 110.36 L18 111.36 L17.49 112.31 L16.46 113.86 L15.34
						 115.21 L14.27 116.16 L13.11 117.01 L12.09 117.76 L10.97 118.36 L9.9 118.91 L8.74 119.46 L7.71 119.76 L6.6
						 120.06 L5.49 120.26 L4.46 120.36 L0 120.36 L0.9 118.66 L1.46 117.01 L1.8 115.86 L2.1 114.76 L2.36 113.66
						 L2.44 112.51 L2.53 111.36 L2.44 110.21 L2.4 109.16 L2.19 108.01 L1.89 106.86 L1.54 105.71 L1.11 104.61 L0.6
						 103.41 L0.13 102.36 L0.13 102.36" class="st1"/>
		</g>
		<g id="shape116-330" v:mID="116" v:groupContext="shape" transform="translate(468.844,-59.2501)">
			<title>Circle.369</title>
			<v:userDefs>
				<v:ud v:nameU="visVersion" v:val="VT0(11):26"/>
			</v:userDefs>
			<path d="M0 118.11 A2.25 2.25 0 0 1 4.5 118.11 A2.25 2.25 0 1 1 0 118.11 Z" class="st2"/>
		</g>
		<g id="shape117-332" v:mID="117" v:groupContext="shape" transform="translate(468.844,-36.7501)">
			<title>Circle.370</title>
			<v:userDefs>
				<v:ud v:nameU="visVersion" v:val="VT0(11):26"/>
			</v:userDefs>
			<path d="M0 118.11 A2.25 2.25 0 0 1 4.5 118.11 A2.25 2.25 0 1 1 0 118.11 Z" class="st2"/>
		</g>
		<g id="shape118-334" v:mID="118" v:groupContext="shape" transform="translate(484.031,-43.5001)">
			<title>Circle.371</title>
			<v:userDefs>
				<v:ud v:nameU="visVersion" v:val="VT0(11):26"/>
			</v:userDefs>
			<path d="M0 118.11 A2.25 2.25 0 0 1 4.5 118.11 A2.25 2.25 0 1 1 0 118.11 Z" class="st2"/>
		</g>
		<g id="shape119-336" v:mID="119" v:groupContext="shape" transform="translate(484.031,-52.5001)">
			<title>Circle.372</title>
			<v:userDefs>
				<v:ud v:nameU="visVersion" v:val="VT0(11):26"/>
			</v:userDefs>
			<path d="M0 118.11 A2.25 2.25 0 0 1 4.5 118.11 A2.25 2.25 0 1 1 0 118.11 Z" class="st2"/>
		</g>
		<g id="shape120-338" v:mID="120" v:groupContext="shape" transform="translate(408.094,-43.5001)">
			<title>Sheet.120</title>
			<path d="M42.75 120.36 L0 120.36" class="st1"/>
		</g>
		<g id="shape121-341" v:mID="121" v:groupContext="shape" transform="translate(528.454,13.86) rotate(90)">
			<title>Sheet.121</title>
			<path d="M0 120.36 L63 120.36" class="st1"/>
		</g>
		<g id="shape122-344" v:mID="122" v:groupContext="shape" transform="translate(441.844,-66.0001)">
			<title>Sheet.122</title>
			<path d="M9 120.36 L0 120.36" class="st1"/>
		</g>
		<g id="shape123-347" v:mID="123" v:groupContext="shape" transform="translate(435.094,-57.0001)">
			<title>Sheet.123</title>
			<path d="M15.75 120.36 L0 120.36" class="st1"/>
		</g>
		<g id="shape124-350" v:mID="124" v:groupContext="shape" transform="translate(555.454,34.11) rotate(90)">
			<title>Sheet.124</title>
			<path d="M0 120.36 L29.25 120.36" class="st1"/>
		</g>
		<g id="shape125-353" v:mID="125" v:groupContext="shape" transform="translate(521.704,4.86) rotate(90)">
			<title>Sheet.125</title>
			<path d="M0 120.36 L81 120.36" class="st1"/>
		</g>
		<g id="shape126-356" v:mID="126" v:groupContext="shape" transform="translate(473.344,-61.5001)">
			<title>Sheet.126</title>
			<path d="M4.5 120.36 L0 120.36" class="st1"/>
		</g>
		<g id="shape127-359" v:mID="127" v:groupContext="shape" transform="translate(473.344,-39.0001)">
			<title>Sheet.127</title>
			<path d="M4.5 120.36 L0 120.36" class="st1"/>
		</g>
		<g id="shape128-362" v:mID="128" v:groupContext="shape" transform="translate(477.844,-45.7501)">
			<title>Sheet.128</title>
			<path d="M6.19 120.36 L0 120.36" class="st1"/>
		</g>
		<g id="shape129-365" v:mID="129" v:groupContext="shape" transform="translate(477.844,-54.7501)">
			<title>Sheet.129</title>
			<path d="M6.19 120.36 L0 120.36" class="st1"/>
		</g>
		<g id="shape130-368" v:mID="130" v:groupContext="shape" transform="translate(401.344,-34.5001)">
			<title>Sheet.130</title>
			<path d="M49.5 120.36 L0 120.36" class="st1"/>
		</g>
		<g id="shape131-371" v:mID="131" v:groupContext="shape" transform="translate(400.781,-114.938)">
			<title>Circle.384</title>
			<v:userDefs>
				<v:ud v:nameU="visVersion" v:val="VT0(11):26"/>
			</v:userDefs>
			<path d="M0 119.8 a0.5625 0.5625 0 0 1 1.125 0 a0.5625 0.5625 0 1 1 -1.125 0 Z" class="st3"/>
		</g>
		<g id="shape132-373" v:mID="132" v:groupContext="shape" transform="translate(407.531,-105.938)">
			<title>Circle.385</title>
			<v:userDefs>
				<v:ud v:nameU="visVersion" v:val="VT0(11):26"/>
			</v:userDefs>
			<path d="M0 119.8 a0.5625 0.5625 0 0 1 1.125 0 a0.5625 0.5625 0 1 1 -1.125 0 Z" class="st3"/>
		</g>
		<g id="shape133-375" v:mID="133" v:groupContext="shape" transform="translate(441.281,-94.6876)">
			<title>Circle.386</title>
			<v:userDefs>
				<v:ud v:nameU="visVersion" v:val="VT0(11):26"/>
			</v:userDefs>
			<path d="M0 119.8 a0.5625 0.5625 0 0 1 1.125 0 a0.5625 0.5625 0 1 1 -1.125 0 Z" class="st3"/>
		</g>
		<g id="shape134-377" v:mID="134" v:groupContext="shape" transform="translate(434.531,-85.6876)">
			<title>Circle.387</title>
			<v:userDefs>
				<v:ud v:nameU="visVersion" v:val="VT0(11):26"/>
			</v:userDefs>
			<path d="M0 119.8 a0.5625 0.5625 0 0 1 1.125 0 a0.5625 0.5625 0 1 1 -1.125 0 Z" class="st3"/>
		</g>
		<g id="shape135-379" v:mID="135" v:groupContext="shape" transform="translate(477.844,-54.7501)">
			<title>Sheet.135</title>
			<path d="M6.19 120.36 L0 120.36" class="st1"/>
		</g>
		<g id="shape136-382" v:mID="136" v:groupContext="shape" transform="translate(477.844,-54.7501)">
			<title>Sheet.136</title>
			<path d="M0 113.61 L0 120.36" class="st1"/>
		</g>
		<g id="shape137-385" v:mID="137" v:groupContext="shape" transform="translate(477.844,-39.0001)">
			<title>Sheet.137</title>
			<path d="M0 113.61 L0 120.36" class="st1"/>
		</g>
		<g id="shape138-388" v:mID="138" v:groupContext="shape" transform="translate(504.844,-50.2501)">
			<title>Sheet.138</title>
			<path d="M9 120.36 L0 120.36" class="st1"/>
		</g>
		<g id="shape139-391" v:mID="139" v:groupContext="shape" transform="translate(370.969,-111)">
			<title>Sheet.139</title>
			<desc>A</desc>
			<v:textBlock v:margins="rect(0,0,0,0)"/>
			<v:textRect cx="3.9375" cy="115.86" width="7.88" height="9"/>
			<path d="M7.87 111.36 L0 111.36 L0 120.36 L7.87 120.36 L7.87 111.36" class="st4"/>
			<text x="2.54" y="118.26" class="st5" v:langID="1033"><v:paragraph v:horizAlign="2"/><v:tabList/>A</text>		</g>
		<g id="shape140-395" v:mID="140" v:groupContext="shape" transform="translate(370.969,-102)">
			<title>Sheet.140</title>
			<desc>B</desc>
			<v:textBlock v:margins="rect(0,0,0,0)"/>
			<v:textRect cx="3.9375" cy="115.86" width="7.88" height="9"/>
			<path d="M7.87 111.36 L0 111.36 L0 120.36 L7.87 120.36 L7.87 111.36" class="st4"/>
			<text x="2.54" y="118.26" class="st5" v:langID="1033"><v:paragraph v:horizAlign="2"/><v:tabList/>B</text>		</g>
		<g id="shape141-399" v:mID="141" v:groupContext="shape" transform="translate(366.75,-81.7501)">
			<title>Sheet.141</title>
			<desc>Bin</desc>
			<v:textBlock v:margins="rect(0,0,0,0)"/>
			<v:textRect cx="6.1875" cy="115.86" width="12.38" height="9"/>
			<path d="M12.37 111.36 L0 111.36 L0 120.36 L12.37 120.36 L12.37 111.36" class="st4"/>
			<text x="0.81" y="118.26" class="st5" v:langID="1033"><v:paragraph v:horizAlign="2"/><v:tabList/>Bin</text>		</g>
		<g id="shape142-403" v:mID="142" v:groupContext="shape" transform="translate(516.375,-86.2501)">
			<title>Sheet.142</title>
			<desc>D</desc>
			<v:textBlock v:margins="rect(0,0,0,0)"/>
			<v:textRect cx="3.9375" cy="115.86" width="7.88" height="9"/>
			<path d="M7.87 111.36 L0 111.36 L0 120.36 L7.87 120.36 L7.87 111.36" class="st4"/>
			<text x="0" y="118.26" class="st5" v:langID="1033"><v:paragraph/><v:tabList/>D</text>		</g>
		<g id="shape143-407" v:mID="143" v:groupContext="shape" transform="translate(516.375,-45.7501)">
			<title>Sheet.143</title>
			<desc>Bout</desc>
			<v:textBlock v:margins="rect(0,0,0,0)"/>
			<v:textRect cx="9" cy="115.86" width="18" height="9"/>
			<path d="M18 111.36 L0 111.36 L0 120.36 L18 120.36 L18 111.36" class="st4"/>
			<text x="0" y="118.26" class="st5" v:langID="1033"><v:paragraph/><v:tabList/>Bout</text>		</g>
		<g id="shape144-411" v:mID="144" v:groupContext="shape" transform="translate(388.406,-111.866)">
			<title>Sheet.144</title>
			<path d="M0 113.09 L0 120.36 L6.06 116.69 L0 113.09 L0 113.09 Z" class="st6"/>
		</g>
		<g id="shape145-413" v:mID="145" v:groupContext="shape" transform="translate(388.406,-111.866)">
			<title>Sheet.145</title>
			<path d="M0 113.09 L0 120.36 L6.06 116.69 L0 113.09 L0 113.09" class="st7"/>
		</g>
		<g id="shape146-416" v:mID="146" v:groupContext="shape" transform="translate(394.47,-114.639)">
			<title>Sheet.146</title>
			<path d="M0 119.46 L0 119.31 L0.07 119.09 L0.15 118.94 L0.22 118.86 L0.37 118.71 L0.52 118.64 L0.75 118.56 L0.9 118.56
						 L1.05 118.56 L1.27 118.64 L1.42 118.71 L1.57 118.86 L1.65 118.94 L1.72 119.09 L1.8 119.31 L1.8 119.46 L1.8
						 119.46 L1.8 119.69 L1.72 119.84 L1.65 119.99 L1.57 120.14 L1.42 120.21 L1.27 120.29 L1.05 120.36 L0.9 120.36
						 L0.75 120.36 L0.52 120.29 L0.37 120.21 L0.22 120.14 L0.15 119.99 L0.07 119.84 L0 119.69 L0 119.46 L0 119.46
						 Z" class="st6"/>
		</g>
		<g id="shape147-418" v:mID="147" v:groupContext="shape" transform="translate(394.47,-114.639)">
			<title>Sheet.147</title>
			<path d="M0 119.46 L0 119.31 L0.07 119.09 L0.15 118.94 L0.22 118.86 L0.37 118.71 L0.52 118.64 L0.75 118.56 L0.9 118.56
						 L1.05 118.56 L1.27 118.64 L1.42 118.71 L1.57 118.86 L1.65 118.94 L1.72 119.09 L1.8 119.31 L1.8 119.46 L1.8
						 119.46 L1.8 119.69 L1.72 119.84 L1.65 119.99 L1.57 120.14 L1.42 120.21 L1.27 120.29 L1.05 120.36 L0.9 120.36
						 L0.75 120.36 L0.52 120.29 L0.37 120.21 L0.22 120.14 L0.15 119.99 L0.07 119.84 L0 119.69 L0 119.46"
					class="st7"/>
		</g>
		<g id="shape148-421" v:mID="148" v:groupContext="shape" transform="translate(23.625,-7.50009)">
			<title>Sheet.148</title>
			<desc>Full Adder</desc>
			<v:textBlock v:margins="rect(0,0,0,0)"/>
			<v:textRect cx="51.75" cy="115.86" width="103.5" height="9"/>
			<path d="M103.5 111.36 L0 111.36 L0 120.36 L103.5 120.36 L103.5 111.36" class="st4"/>
			<text x="28.96" y="118.86" class="st8" v:langID="1033"><v:paragraph v:horizAlign="1"/><v:tabList/>Full Adder</text>		</g>
		<g id="shape149-425" v:mID="149" v:groupContext="shape" transform="translate(388.969,-7.50009)">
			<title>Sheet.149</title>
			<desc>Full Adder configured for subtract</desc>
			<v:textBlock v:margins="rect(0,0,0,0)"/>
			<v:textRect cx="58.5" cy="115.86" width="117" height="9"/>
			<path d="M117 111.36 L0 111.36 L0 120.36 L117 120.36 L117 111.36" class="st4"/>
			<text x="35.71" y="112.86" class="st8" v:langID="1033"><v:paragraph v:horizAlign="1"/><v:tabList/>Full Adder<v:newlineChar/><tspan
						x="8.75" dy="1.2em" class="st9">configured for subtract</tspan></text>		</g>
		<g id="shape150-430" v:mID="150" v:groupContext="shape" transform="translate(203.625,-7.50009)">
			<title>Sheet.150</title>
			<desc>Full Subtractor</desc>
			<v:textBlock v:margins="rect(0,0,0,0)"/>
			<v:textRect cx="51.75" cy="115.86" width="103.5" height="9"/>
			<path d="M103.5 111.36 L0 111.36 L0 120.36 L103.5 120.36 L103.5 111.36" class="st4"/>
			<text x="19.24" y="118.86" class="st8" v:langID="1033"><v:paragraph v:horizAlign="1"/><v:tabList/>Full Subtractor</text>		</g>
	</g>
</svg>
