<?xml version="1.0" encoding="UTF-8" standalone="no"?>
<!DOCTYPE svg PUBLIC "-//W3C//DTD SVG 1.1//EN" "http://www.w3.org/Graphics/SVG/1.1/DTD/svg11.dtd">
<!-- Generated by Microsoft Visio, SVG Export Series circuit.svg Page-1 -->
<svg xmlns="http://www.w3.org/2000/svg" xmlns:xlink="http://www.w3.org/1999/xlink" xmlns:ev="http://www.w3.org/2001/xml-events"
		xmlns:v="http://schemas.microsoft.com/visio/2003/SVGExtensions/" width="1.27in" height="1.69792in"
		viewBox="0 0 91.44 122.25" xml:space="preserve" color-interpolation-filters="sRGB" class="st8">
	<v:documentProperties v:langID="1033" v:viewMarkup="false">
		<v:userDefs>
			<v:ud v:nameU="msvConvertTheme"/>
		</v:userDefs>
	</v:documentProperties>

	<style type="text/css">
	<![CDATA[
		.st1 {stroke:#000000;stroke-linecap:round;stroke-linejoin:round;stroke-width:0.72}
		.st2 {fill:#ffffff;stroke:#000000;stroke-linecap:round;stroke-linejoin:round;stroke-width:0.72}
		.st3 {fill:#000000;stroke:#000000;stroke-linecap:round;stroke-linejoin:round;stroke-width:0.72}
		.st4 {fill:none;stroke:none;stroke-linecap:round;stroke-linejoin:round;stroke-width:0.72}
		.st5 {fill:#000000;font-family:Arial;font-size:0.833336em}
		.st6 {marker-end:url(#mrkr4-91);stroke:#000000;stroke-linecap:round;stroke-linejoin:round;stroke-width:0.72}
		.st7 {fill:#000000;fill-opacity:1;stroke:#000000;stroke-opacity:1;stroke-width:0.28571428571429}
		.st8 {fill:none;fill-rule:evenodd;font-size:12px;overflow:visible;stroke-linecap:square;stroke-miterlimit:3}
	]]>
	</style>

	<defs id="Markers">
		<g id="lend4">
			<path d="M 2 1 L 0 0 L 2 -1 L 2 1 " style="stroke:none"/>
		</g>
		<marker id="mrkr4-91" class="st7" v:arrowType="4" v:arrowSize="1" v:setback="7" refX="-7" orient="auto"
				markerUnits="strokeWidth" overflow="visible">
			<use xlink:href="#lend4" transform="scale(-3.5,-3.5) "/>
		</marker>
	</defs>
	<g v:mID="0" v:index="1" v:groupContext="foregroundPage">
		<title>Page-1</title>
		<v:pageProperties v:drawingScale="1" v:pageScale="1" v:drawingUnits="19" v:shadowOffsetX="9" v:shadowOffsetY="-9"/>
		<g id="group224-1" transform="translate(33.345,-87.0002)" v:mID="224" v:groupContext="group">
			<title>Sheet.224</title>
			<g id="shape225-2" v:mID="225" v:groupContext="shape" transform="translate(-35.2839,6.27347) rotate(-18.4349)">
				<title>Sheet.225</title>
				<path d="M0 122.25 L3.56 122.25" class="st1"/>
			</g>
			<g id="shape226-5" v:mID="226" v:groupContext="shape" transform="translate(38.6589,2.89847) rotate(18.4349)">
				<title>Sheet.226</title>
				<path d="M0 122.25 L7.12 122.25" class="st1"/>
			</g>
			<g id="shape227-8" v:mID="227" v:groupContext="shape" transform="translate(-38.6589,2.89847) rotate(-18.4349)">
				<title>Sheet.227</title>
				<path d="M0 122.25 L7.12 122.25" class="st1"/>
			</g>
			<g id="shape228-11" v:mID="228" v:groupContext="shape" transform="translate(38.6589,-1.60153) rotate(18.4349)">
				<title>Sheet.228</title>
				<path d="M0 122.25 L7.12 122.25" class="st1"/>
			</g>
			<g id="shape229-14" v:mID="229" v:groupContext="shape" transform="translate(-38.6589,-1.60153) rotate(-18.4349)">
				<title>Sheet.229</title>
				<path d="M0 122.25 L7.12 122.25" class="st1"/>
			</g>
			<g id="shape230-17" v:mID="230" v:groupContext="shape" transform="translate(38.6589,-6.10153) rotate(18.4349)">
				<title>Sheet.230</title>
				<path d="M0 122.25 L7.12 122.25" class="st1"/>
			</g>
			<g id="shape231-20" v:mID="231" v:groupContext="shape" transform="translate(-38.6589,-6.10153) rotate(-18.4349)">
				<title>Sheet.231</title>
				<path d="M0 122.25 L3.56 122.25" class="st1"/>
			</g>
		</g>
		<g id="shape311-23" v:mID="311" v:groupContext="shape" transform="translate(-85.5301,53.2499) rotate(-90)">
			<title>Sheet.311</title>
			<path d="M0 122.25 L18 122.25" class="st1"/>
		</g>
		<g id="shape312-26" v:mID="312" v:groupContext="shape" transform="translate(34.47,-64.5002)">
			<title>Circle.312</title>
			<path d="M0 120 A2.25 2.25 0 0 1 4.5 120 A2.25 2.25 0 1 1 0 120 Z" class="st2"/>
		</g>
		<g id="shape313-28" v:mID="313" v:groupContext="shape" transform="translate(-44.2954,148.108) rotate(-131.31)">
			<title>Sheet.313</title>
			<path d="M0 122.25 L13.61 122.25" class="st1"/>
		</g>
		<g id="shape314-31" v:mID="314" v:groupContext="shape" transform="translate(108.658,173.279) rotate(150)">
			<title>Sheet.314</title>
			<path d="M0 122.25 L4 122.25" class="st1"/>
		</g>
		<g id="shape315-34" v:mID="315" v:groupContext="shape" transform="translate(-64.9667,14.1196) rotate(-63.1113)">
			<title>Sheet.315</title>
			<path d="M0 122.25 L4.23 122.25" class="st1"/>
		</g>
		<g id="shape316-37" v:mID="316" v:groupContext="shape" transform="translate(34.47,-48.7502)">
			<title>Circle.316</title>
			<path d="M0 120 A2.25 2.25 0 0 1 4.5 120 A2.25 2.25 0 1 1 0 120 Z" class="st2"/>
		</g>
		<g id="shape328-39" v:mID="328" v:groupContext="shape" transform="translate(-85.5301,21.7499) rotate(-90)">
			<title>Sheet.328</title>
			<path d="M0 122.25 L9 122.25" class="st1"/>
		</g>
		<g id="shape329-42" v:mID="329" v:groupContext="shape" transform="translate(18.72,-78.0002)">
			<title>Sheet.329</title>
			<path d="M0 122.25 L16.87 122.25" class="st1"/>
		</g>
		<g id="shape330-45" v:mID="330" v:groupContext="shape" transform="translate(35.595,-76.8752)">
			<title>Circle.330</title>
			<path d="M0 121.13 A1.125 1.125 0 0 1 2.25 121.13 A1.125 1.125 0 1 1 0 121.13 Z" class="st3"/>
		</g>
		<g id="shape331-47" v:mID="331" v:groupContext="shape" transform="translate(15.345,-76.3127)">
			<title>Circle.331</title>
			<path d="M0 120.56 A1.6875 1.6875 0 0 1 3.37 120.56 A1.6875 1.6875 0 1 1 0 120.56 Z" class="st2"/>
		</g>
		<g id="shape332-49" v:mID="332" v:groupContext="shape" transform="translate(43.47,135) rotate(180)">
			<title>Sheet.332</title>
			<path d="M0 122.25 L13.5 122.25" class="st1"/>
		</g>
		<g id="shape333-52" v:mID="333" v:groupContext="shape" transform="translate(34.47,-35.2502)">
			<title>Circle.333</title>
			<path d="M0 120 A2.25 2.25 0 0 1 4.5 120 A2.25 2.25 0 1 1 0 120 Z" class="st2"/>
		</g>
		<g id="shape337-54" v:mID="337" v:groupContext="shape" transform="translate(34.47,-19.5002)">
			<title>Circle.337</title>
			<path d="M0 120 A2.25 2.25 0 0 1 4.5 120 A2.25 2.25 0 1 1 0 120 Z" class="st2"/>
		</g>
		<g id="shape338-56" v:mID="338" v:groupContext="shape" transform="translate(-85.5301,82.4999) rotate(-90)">
			<title>Sheet.338</title>
			<path d="M0 122.25 L9 122.25" class="st1"/>
		</g>
		<g id="shape339-59" v:mID="339" v:groupContext="shape" transform="translate(-85.5301,111.75) rotate(-90)">
			<title>Sheet.339</title>
			<path d="M0 122.25 L9 122.25" class="st1"/>
		</g>
		<g id="shape340-62" v:mID="340" v:groupContext="shape" transform="translate(32.22,-10.5002)">
			<title>Sheet.340</title>
			<path d="M0 122.25 L9 122.25" class="st1"/>
		</g>
		<g id="shape341-65" v:mID="341" v:groupContext="shape" transform="translate(-64.9982,186.312) rotate(-123.69)">
			<title>Sheet.341</title>
			<path d="M0 122.25 L8.11 122.25" class="st1"/>
		</g>
		<g id="shape342-68" v:mID="342" v:groupContext="shape" transform="translate(-64.9982,50.6878) rotate(-56.3099)">
			<title>Sheet.342</title>
			<path d="M0 122.25 L8.11 122.25" class="st1"/>
		</g>
		<g id="shape343-71" v:mID="343" v:groupContext="shape" transform="translate(23.22,-111.75)">
			<title>Sheet.343</title>
			<desc>Vdd</desc>
			<v:textBlock v:margins="rect(4,4,4,4)" v:tabSpace="42.5197"/>
			<v:textRect cx="16.83" cy="117.75" width="33.66" height="9"/>
			<rect x="0" y="113.25" width="33.66" height="9" class="st4"/>
			<text x="4" y="120.75" class="st5" v:langID="1033"><v:paragraph/><v:tabList/>Vdd</text>		</g>
		<g id="shape344-74" v:mID="344" v:groupContext="shape" transform="translate(2.97,-1.50018)">
			<title>Sheet.344</title>
			<desc>GND</desc>
			<v:textBlock v:margins="rect(4,4,4,4)" v:tabSpace="42.5197"/>
			<v:textRect cx="16.875" cy="117.75" width="33.75" height="9"/>
			<rect x="0" y="113.25" width="33.75" height="9" class="st4"/>
			<text x="4" y="120.75" class="st5" v:langID="1033"><v:paragraph/><v:tabList/>GND</text>		</g>
		<g id="shape345-77" v:mID="345" v:groupContext="shape" transform="translate(0.72,-73.5002)">
			<title>Sheet.345</title>
			<desc>F</desc>
			<v:textBlock v:margins="rect(4,4,4,4)" v:tabSpace="42.5197"/>
			<v:textRect cx="15.1875" cy="117.75" width="30.38" height="9"/>
			<rect x="0" y="113.25" width="30.375" height="9" class="st4"/>
			<text x="4" y="120.75" class="st5" v:langID="1033"><v:paragraph/><v:tabList/>F</text>		</g>
		<g id="shape346-80" v:mID="346" v:groupContext="shape" transform="translate(56.97,-55.5002)">
			<title>Sheet.346</title>
			<desc>SW1</desc>
			<v:textBlock v:margins="rect(4,4,4,4)" v:tabSpace="42.5197"/>
			<v:textRect cx="16.875" cy="118.313" width="33.75" height="7.875"/>
			<rect x="0" y="114.375" width="33.75" height="7.875" class="st4"/>
			<text x="4" y="121.31" class="st5" v:langID="1033"><v:paragraph/><v:tabList/>SW1</text>		</g>
		<g id="shape347-83" v:mID="347" v:groupContext="shape" transform="translate(56.97,-26.2502)">
			<title>Sheet.347</title>
			<desc>SW2</desc>
			<v:textBlock v:margins="rect(4,4,4,4)" v:tabSpace="42.5197"/>
			<v:textRect cx="16.875" cy="118.313" width="33.75" height="7.875"/>
			<rect x="0" y="114.375" width="33.75" height="7.875" class="st4"/>
			<text x="4" y="121.31" class="st5" v:langID="1033"><v:paragraph/><v:tabList/>SW2</text>		</g>
		<g id="shape348-86" v:mID="348" v:groupContext="shape" transform="translate(59.22,-60.0002) scale(-1,1)">
			<title>Sheet.348</title>
			<path d="M0 122.25 L6.21 122.25" class="st6"/>
		</g>
		<g id="shape334-92" v:mID="334" v:groupContext="shape" transform="translate(-44.9831,177.435) rotate(-131.31)">
			<title>Sheet.334</title>
			<path d="M0 122.25 L13.61 122.25" class="st1"/>
		</g>
		<g id="shape335-95" v:mID="335" v:groupContext="shape" transform="translate(107.97,202.606) rotate(150)">
			<title>Sheet.335</title>
			<path d="M0 122.25 L4 122.25" class="st1"/>
		</g>
		<g id="shape336-98" v:mID="336" v:groupContext="shape" transform="translate(-65.6544,43.4467) rotate(-63.1113)">
			<title>Sheet.336</title>
			<path d="M0 122.25 L4.23 122.25" class="st1"/>
		</g>
		<g id="shape350-101" v:mID="350" v:groupContext="shape" transform="translate(59.22,-30.7502) scale(-1,1)">
			<title>Sheet.350</title>
			<path d="M0 122.25 L6.21 122.25" class="st6"/>
		</g>
	</g>
</svg>
