<?xml version="1.0" encoding="UTF-8" standalone="no"?>
<!DOCTYPE svg PUBLIC "-//W3C//DTD SVG 1.1//EN" "http://www.w3.org/Graphics/SVG/1.1/DTD/svg11.dtd">
<!-- Generated by Microsoft Visio, SVG Export LED_Current.svg Page-1 -->
<svg xmlns="http://www.w3.org/2000/svg" xmlns:xlink="http://www.w3.org/1999/xlink" xmlns:ev="http://www.w3.org/2001/xml-events"
		xmlns:v="http://schemas.microsoft.com/visio/2003/SVGExtensions/" width="1.71684in" height="0.957291in"
		viewBox="0 0 123.613 68.9249" xml:space="preserve" color-interpolation-filters="sRGB" class="st14">
	<v:documentProperties v:langID="1033" v:viewMarkup="false"/>

	<style type="text/css">
	<![CDATA[
		.st1 {stroke:#000000;stroke-linecap:round;stroke-linejoin:round;stroke-width:0.72}
		.st2 {fill:#ff0000;stroke:#000000;stroke-linecap:round;stroke-linejoin:round;stroke-width:0.24}
		.st3 {stroke:#000000;stroke-linecap:round;stroke-linejoin:round;stroke-width:0.719984}
		.st4 {stroke:#000000;stroke-linecap:round;stroke-linejoin:round;stroke-width:0.719492}
		.st5 {fill:#ffffff;stroke:none;stroke-linecap:round;stroke-linejoin:round;stroke-width:0.75}
		.st6 {stroke:#000000;stroke-linecap:round;stroke-linejoin:round;stroke-width:0.749044}
		.st7 {fill:none;stroke:#000000;stroke-linecap:round;stroke-linejoin:round;stroke-width:0.72}
		.st8 {stroke:none;stroke-linecap:round;stroke-linejoin:round;stroke-width:0.75}
		.st9 {fill:#000000;font-family:Arial;font-size:0.666664em}
		.st10 {marker-end:url(#mrkr4-72);stroke:#000000;stroke-linecap:round;stroke-linejoin:round;stroke-width:0.72}
		.st11 {fill:#000000;fill-opacity:1;stroke:#000000;stroke-opacity:1;stroke-width:0.33333333333333}
		.st12 {marker-end:url(#mrkr4-93);stroke:#000000;stroke-linecap:round;stroke-linejoin:round;stroke-width:0.72}
		.st13 {fill:#000000;stroke:#000000;stroke-linecap:round;stroke-linejoin:round;stroke-width:0.72}
		.st14 {fill:none;fill-rule:evenodd;font-size:12px;overflow:visible;stroke-linecap:square;stroke-miterlimit:3}
	]]>
	</style>

	<defs id="Markers">
		<g id="lend4">
			<path d="M 2 1 L 0 0 L 2 -1 L 2 1 " style="stroke:none"/>
		</g>
		<marker id="mrkr4-72" class="st11" v:arrowType="4" v:arrowSize="0" v:setback="6" refX="-6" orient="auto"
				markerUnits="strokeWidth" overflow="visible">
			<use xlink:href="#lend4" transform="scale(-3,-3) "/>
		</marker>
		<marker id="mrkr4-93" class="st11" v:arrowType="4" v:arrowSize="0" v:setback="5.5" refX="-5.5" orient="auto"
				markerUnits="strokeWidth" overflow="visible">
			<use xlink:href="#lend4" transform="scale(-3,-3) "/>
		</marker>
	</defs>
	<g v:mID="0" v:index="1" v:groupContext="foregroundPage">
		<title>Page-1</title>
		<v:pageProperties v:drawingScale="1" v:pageScale="1" v:drawingUnits="0" v:shadowOffsetX="9" v:shadowOffsetY="-9"/>
		<v:layer v:name="Connector" v:index="0"/>
		<g id="group32-1" transform="translate(145.699,53.1749) rotate(90) scale(-1,1)" v:mID="32" v:groupContext="group">
			<title>Sheet.32</title>
			<g id="shape33-2" v:mID="33" v:groupContext="shape" transform="translate(79.0383,55.2393) rotate(90)">
				<title>Sheet.33</title>
				<path d="M0 68.92 L13.69 68.92" class="st1"/>
			</g>
			<g id="group34-5" transform="translate(13.9361,117.537) rotate(180)" v:mID="34" v:groupContext="group">
				<title>Sheet.34</title>
				<g id="shape35-6" v:mID="35" v:groupContext="shape" transform="translate(-14.3944,-1.6579) rotate(-12.7761)">
					<title>Sheet.35</title>
					<path d="M0 68.92 L2.17 68.92" class="st1"/>
				</g>
				<g id="shape36-9" v:mID="36" v:groupContext="shape" transform="translate(17.6979,1.40271) rotate(13.4248)">
					<title>Sheet.36</title>
					<path d="M0 68.92 L2.07 68.92" class="st1"/>
				</g>
				<g id="shape37-12" v:mID="37" v:groupContext="shape" transform="translate(-65.1097,68.9249) rotate(-90)">
					<title>Sheet.37</title>
					<path d="M0 68.92 L2.4 68.92" class="st1"/>
				</g>
				<g id="shape38-15" v:mID="38" v:groupContext="shape" transform="translate(52.5393,19.9685) rotate(48.5876)">
					<title>Sheet.38</title>
					<path d="M0 68.92 L4.49 68.92" class="st1"/>
				</g>
				<g id="shape39-18" v:mID="39" v:groupContext="shape" transform="translate(51.6915,16.1235) rotate(48.5876)">
					<title>Sheet.39</title>
					<path d="M0 68.92 L4.49 68.92" class="st1"/>
				</g>
			</g>
			<g id="shape40-21" v:mID="40" v:groupContext="shape" transform="translate(9.83375,131.087) rotate(-179.717)">
				<title>Sheet.40</title>
				<path d="M0 68.92 L11.3 68.92" class="st1"/>
			</g>
			<g id="shape41-24" v:mID="41" v:groupContext="shape" transform="translate(34.875,131.088) rotate(180)">
				<title>Sheet.41</title>
				<path d="M0 68.92 L13.21 68.92" class="st1"/>
			</g>
			<g id="shape42-27" v:mID="42" v:groupContext="shape" transform="translate(-47.2583,68.2004) rotate(-90)">
				<title>Triangle</title>
				<path d="M13.36 68.92 L6.2 57.01 L-0.96 68.92 L13.36 68.92 Z" class="st2"/>
			</g>
		</g>
		<g id="shape43-29" v:mID="43" v:groupContext="shape" transform="translate(49.8071,-46.125)">
			<title>Sheet.43</title>
			<path d="M0 64.48 L1.92 59.92 L5.64 68.92 L9.36 59.92 L13.2 68.92 L16.92 59.92 L20.64 68.92 L22.56 64.48" class="st3"/>
		</g>
		<g id="shape44-32" v:mID="44" v:groupContext="shape" transform="translate(72.3369,-50.625)">
			<title>Sheet.44</title>
			<path d="M11.25 68.92 L0 68.92" class="st4"/>
		</g>
		<g id="shape45-35" v:mID="45" v:groupContext="shape" transform="translate(32.0625,-50.625)">
			<title>Sheet.45</title>
			<path d="M17.77 68.92 L0 68.92" class="st4"/>
		</g>
		<g id="shape46-38" v:mID="46" v:groupContext="shape" transform="translate(27.8771,-1.42109E-014)">
			<title>Sheet.46</title>
			<path d="M8.69 63.3 L4.31 68.92 L0 63.3 L8.69 63.3 L8.69 63.3 Z" class="st5"/>
		</g>
		<g id="shape47-40" v:mID="47" v:groupContext="shape" transform="translate(27.768,-1.125)">
			<title>Sheet.47</title>
			<path d="M8.69 63.3 L4.31 68.92 L0 63.3 L8.69 63.3 L8.69 63.3" class="st6"/>
		</g>
		<g id="shape48-43" v:mID="48" v:groupContext="shape" transform="translate(23.0625,-23.625)">
			<title>Circle.428</title>
			<path d="M0 59.92 A9 9 0 0 1 18 59.92 A9 9 0 1 1 0 59.92 Z" class="st7"/>
		</g>
		<g id="shape49-45" v:mID="49" v:groupContext="shape" transform="translate(29.2974,-32.625)">
			<title>Sheet.49</title>
			<desc>+</desc>
			<v:textBlock v:margins="rect(0,0,0,0)"/>
			<v:textRect cx="2.50753" cy="64.4249" width="5.02" height="9"/>
			<path d="M5.02 59.92 L0 59.92 L0 68.92 L5.02 68.92 L5.02 59.92" class="st8"/>
			<text x="0.34" y="66.82" class="st9" v:langID="1033"><v:paragraph v:horizAlign="2"/><v:tabList/>+</text>		</g>
		<g id="shape50-49" v:mID="50" v:groupContext="shape" transform="translate(28.43,-23.625)">
			<title>Sheet.50</title>
			<desc>-</desc>
			<v:textBlock v:margins="rect(0,0,0,0)"/>
			<v:textRect cx="2.50753" cy="64.4249" width="5.02" height="9"/>
			<path d="M5.02 59.92 L0 59.92 L0 68.92 L5.02 68.92 L5.02 59.92" class="st8"/>
			<text x="2.35" y="66.82" class="st9" v:langID="1033"><v:paragraph v:horizAlign="2"/><v:tabList/>-</text>		</g>
		<g id="shape51-53" v:mID="51" v:groupContext="shape" transform="translate(-36.8624,27.2999) rotate(-90)">
			<title>Sheet.51</title>
			<path d="M0 68.92 L9 68.92" class="st1"/>
		</g>
		<g id="shape52-56" v:mID="52" v:groupContext="shape" transform="translate(-36.8624,62.1749) rotate(-90)">
			<title>Sheet.52</title>
			<path d="M0 68.92 L16.87 68.92" class="st1"/>
		</g>
		<g id="shape53-59" v:mID="53" v:groupContext="shape" transform="translate(0,-27)">
			<title>Sheet.53</title>
			<desc>3.3V</desc>
			<v:textBlock v:margins="rect(0,0,0,0)"/>
			<v:textRect cx="9.5625" cy="64.4249" width="19.13" height="9"/>
			<path d="M19.12 59.92 L0 59.92 L0 68.92 L19.12 68.92 L19.12 59.92" class="st8"/>
			<text x="2.67" y="66.82" class="st9" v:langID="1033"><v:paragraph v:horizAlign="2"/><v:tabList/>3.3V</text>		</g>
		<g id="shape54-63" v:mID="54" v:groupContext="shape" transform="translate(43.9224,-3.375)">
			<title>Sheet.54</title>
			<desc>GND</desc>
			<v:textBlock v:margins="rect(0,0,0,0)"/>
			<v:textRect cx="9.82003" cy="64.4249" width="19.65" height="9"/>
			<path d="M19.64 59.92 L0 59.92 L0 68.92 L19.64 68.92 L19.64 59.92" class="st8"/>
			<text x="1.86" y="66.82" class="st9" v:langID="1033"><v:paragraph v:horizAlign="2"/><v:tabList/>GND</text>		</g>
		<g id="shape55-67" v:mID="55" v:groupContext="shape" transform="translate(32.0625,-57.375)">
			<title>Sheet.55</title>
			<path d="M0 68.92 L9.18 68.92" class="st10"/>
		</g>
		<g id="shape56-73" v:mID="56" v:groupContext="shape" transform="translate(23.0625,-59.625)">
			<title>Sheet.56</title>
			<desc>10mA</desc>
			<v:textBlock v:margins="rect(0,0,0,0)"/>
			<v:textRect cx="11.25" cy="64.4249" width="22.5" height="9"/>
			<path d="M22.5 59.92 L0 59.92 L0 68.92 L22.5 68.92 L22.5 59.92" class="st8"/>
			<text x="1.6" y="66.82" class="st9" v:langID="1033"><v:paragraph v:horizAlign="2"/><v:tabList/>10mA</text>		</g>
		<g id="shape57-77" v:mID="57" v:groupContext="shape" transform="translate(32.0625,-14.625)">
			<title>Sheet.57</title>
			<path d="M51.75 68.92 L0 68.92" class="st4"/>
		</g>
		<g id="shape58-80" v:mID="58" v:groupContext="shape" transform="translate(45.5625,-34.875)">
			<title>Sheet.58</title>
			<desc>130Ω</desc>
			<v:textBlock v:margins="rect(0,0,0,0)"/>
			<v:textRect cx="11.8125" cy="64.4249" width="23.63" height="9"/>
			<path d="M23.62 59.92 L0 59.92 L0 68.92 L23.62 68.92 L23.62 59.92" class="st8"/>
			<text x="4.3" y="66.82" class="st9" v:langID="1033"><v:paragraph v:horizAlign="2"/><v:tabList/>130Ω</text>		</g>
		<g id="shape59-84" v:mID="59" v:groupContext="shape" transform="translate(102.422,-28.125)">
			<title>Sheet.59</title>
			<desc>2V</desc>
			<v:textBlock v:margins="rect(0,0,0,0)"/>
			<v:textRect cx="7.57003" cy="64.4249" width="15.15" height="9"/>
			<path d="M15.14 59.92 L0 59.92 L0 68.92 L15.14 68.92 L15.14 59.92" class="st8"/>
			<text x="5.36" y="66.82" class="st9" v:langID="1033"><v:paragraph v:horizAlign="2"/><v:tabList/>2V</text>		</g>
		<g id="shape60-88" v:mID="60" v:groupContext="shape" v:layerMember="0"
				transform="translate(89.0165,94.9379) rotate(-161.565)">
			<title>Line-curve connector</title>
			<v:userDefs>
				<v:ud v:nameU="AntiScale" v:val="VT0(1):26"/>
				<v:ud v:nameU="Scale" v:val="VT0(1):26"/>
				<v:ud v:nameU="visVersion" v:val="VT0(11):26"/>
			</v:userDefs>
			<path d="M0 68.92 L3.14 70.84 L7.06 71.71 L11.77 71.54 L17.26 70.32 L17.6 70.2" class="st12"/>
		</g>
		<g id="shape61-94" v:mID="61" v:groupContext="shape" v:layerMember="0"
				transform="translate(89.0165,-22.338) rotate(-18.4349) scale(-1,1)">
			<title>Line-curve connector.462</title>
			<v:userDefs>
				<v:ud v:nameU="AntiScale" v:val="VT0(1):26"/>
				<v:ud v:nameU="Scale" v:val="VT0(1):26"/>
				<v:ud v:nameU="visVersion" v:val="VT0(11):26"/>
			</v:userDefs>
			<path d="M0 68.92 L3.14 70.84 L7.06 71.71 L11.77 71.54 L17.26 70.32 L17.6 70.2" class="st12"/>
		</g>
		<g id="shape62-99" v:mID="62" v:groupContext="shape" transform="translate(31.5,-14.0625)">
			<title>Circle.463</title>
			<path d="M0 68.36 a0.5625 0.5625 0 0 1 1.125 0 a0.5625 0.5625 0 1 1 -1.125 0 Z" class="st13"/>
		</g>
	</g>
</svg>
