<?xml version="1.0" encoding="UTF-8" standalone="no"?>
<!DOCTYPE svg PUBLIC "-//W3C//DTD SVG 1.1//EN" "http://www.w3.org/Graphics/SVG/1.1/DTD/svg11.dtd">
<!-- Generated by Microsoft Visio, SVG Export ControlledInv.svg Page-1 -->
<svg xmlns="http://www.w3.org/2000/svg" xmlns:xlink="http://www.w3.org/1999/xlink" xmlns:ev="http://www.w3.org/2001/xml-events"
		xmlns:v="http://schemas.microsoft.com/visio/2003/SVGExtensions/" width="3.26281in" height="0.963336in"
		viewBox="0 0 234.922 69.3602" xml:space="preserve" color-interpolation-filters="sRGB" class="st8">
	<v:documentProperties v:langID="1033" v:viewMarkup="false"/>

	<style type="text/css">
	<![CDATA[
		.st1 {stroke:#000000;stroke-linecap:round;stroke-linejoin:round;stroke-width:0.746481}
		.st2 {stroke:#000000;stroke-linecap:round;stroke-linejoin:round;stroke-width:0.72}
		.st3 {stroke:#000000;stroke-linecap:round;stroke-linejoin:round;stroke-width:0.748474}
		.st4 {stroke:none;stroke-linecap:round;stroke-linejoin:round;stroke-width:0.75}
		.st5 {fill:#000000;font-family:Arial;font-size:0.833336em}
		.st6 {fill:none;stroke:none;stroke-linecap:round;stroke-linejoin:round;stroke-width:0.72}
		.st7 {stroke:#000000;stroke-linecap:round;stroke-linejoin:round;stroke-width:0.24}
		.st8 {fill:none;fill-rule:evenodd;font-size:12px;overflow:visible;stroke-linecap:square;stroke-miterlimit:3}
	]]>
	</style>

	<g v:mID="0" v:index="1" v:groupContext="foregroundPage">
		<title>Page-1</title>
		<v:pageProperties v:drawingScale="1" v:pageScale="1" v:drawingUnits="19" v:shadowOffsetX="9" v:shadowOffsetY="-9"/>
		<g id="group1-1" transform="translate(60.75,-26.3177)" v:mID="1" v:groupContext="group">
			<title>Sheet.1</title>
			<g id="shape2-2" v:mID="2" v:groupContext="shape" transform="translate(2.7439,0)">
				<title>Sheet.2</title>
				<path d="M0.14 51.36 L6.02 51.36 L7.57 51.66 L8.47 51.86 L9.55 52.16 L10.87 52.71 L12.04 53.26 L13.26 53.86 L14.49
							 54.66 L15.66 55.51 L16.84 56.51 L18.06 57.76 L19.19 59.36 L19.76 60.36 L19.19 61.31 L18.06 62.86 L16.84
							 64.21 L15.66 65.16 L14.39 66.01 L13.26 66.76 L12.04 67.36 L10.87 67.91 L9.6 68.46 L8.47 68.76 L7.24
							 69.06 L6.02 69.26 L4.89 69.36 L0 69.36 L0.99 67.66 L1.6 66.01 L1.98 64.86 L2.3 63.76 L2.59 62.66 L2.68
							 61.51 L2.78 60.36 L2.68 59.21 L2.63 58.16 L2.4 57.01 L2.07 55.86 L1.69 54.71 L1.22 53.61 L0.66 52.41
							 L0.14 51.36 L0.14 51.36" class="st1"/>
			</g>
			<g id="group3-5" v:mID="3" v:groupContext="group">
				<title>Sheet.3</title>
				<g id="shape4-6" v:mID="4" v:groupContext="shape" transform="translate(7.49401E-016,-8.90961)">
					<title>Sheet.4</title>
					<path d="M0 60.27 L0.56 61.41 L1.13 62.61 L1.62 63.68 L2.01 64.81 L2.39 65.95 L2.6 67.09 L2.71 68.29 L2.74 69.36"
							class="st2"/>
				</g>
				<g id="shape5-9" v:mID="5" v:groupContext="shape" transform="translate(7.49401E-016,129.63) scale(1,-1)">
					<title>Sheet.5</title>
					<path d="M0 60.27 L0.56 61.41 L1.13 62.61 L1.62 63.68 L2.01 64.81 L2.39 65.95 L2.6 67.09 L2.71 68.29 L2.74 69.36"
							class="st2"/>
				</g>
			</g>
		</g>
		<g id="shape6-12" v:mID="6" v:groupContext="shape" transform="translate(54,-39.8177)">
			<title>Sheet.6</title>
			<path d="M0 69.36 L8.44 69.36" class="st3"/>
		</g>
		<g id="shape7-15" v:mID="7" v:groupContext="shape" transform="translate(54,-30.8177)">
			<title>Sheet.7</title>
			<path d="M0 69.36 L8.44 69.36" class="st3"/>
		</g>
		<g id="shape8-18" v:mID="8" v:groupContext="shape" transform="translate(83.25,-35.3177)">
			<title>Sheet.8</title>
			<path d="M0 69.36 L9 69.36" class="st3"/>
		</g>
		<g id="shape9-21" v:mID="9" v:groupContext="shape" transform="translate(40.5,-36.4427)">
			<title>Sheet.9</title>
			<desc>A</desc>
			<v:textBlock v:margins="rect(0,0,0,0)"/>
			<v:textRect cx="4.5" cy="64.8602" width="9" height="9"/>
			<path d="M9 60.36 L0 60.36 L0 69.36 L9 69.36 L9 60.36" class="st4"/>
			<text x="1.16" y="67.86" class="st5" v:langID="1033"><v:paragraph v:horizAlign="1"/><v:tabList/>A</text>		</g>
		<g id="shape10-25" v:mID="10" v:groupContext="shape" transform="translate(0,-24.0677)">
			<title>Sheet.10</title>
			<desc>Control</desc>
			<v:textBlock v:margins="rect(0,0,0,0)"/>
			<v:textRect cx="24.75" cy="64.8602" width="49.5" height="9"/>
			<path d="M49.5 60.36 L0 60.36 L0 69.36 L49.5 69.36 L49.5 60.36" class="st4"/>
			<text x="17.26" y="67.86" class="st5" v:langID="1033"><v:paragraph v:horizAlign="2"/><v:tabList/>Control</text>		</g>
		<g id="shape11-29" v:mID="11" v:groupContext="shape" transform="translate(94.5,-30.8177)">
			<title>Sheet.11</title>
			<desc>F</desc>
			<v:textBlock v:margins="rect(0,0,0,0)"/>
			<v:textRect cx="4.5" cy="64.8602" width="9" height="9"/>
			<path d="M9 60.36 L0 60.36 L0 69.36 L9 69.36 L9 60.36" class="st4"/>
			<text x="1.45" y="67.86" class="st5" v:langID="1033"><v:paragraph v:horizAlign="1"/><v:tabList/>F</text>		</g>
		<g id="shape12-33" v:mID="12" v:groupContext="shape" transform="translate(110.25,-42.0002)">
			<title>Sheet.12</title>
			<desc>0</desc>
			<v:textBlock v:margins="rect(4,4,4,4)"/>
			<v:textRect cx="20.25" cy="64.8602" width="40.5" height="9"/>
			<rect x="0" y="60.3602" width="40.5" height="9" class="st6"/>
			<text x="17.47" y="67.86" class="st5" v:langID="1033"><v:paragraph v:horizAlign="1"/><v:tabList/>0</text>		</g>
		<g id="shape13-36" v:mID="13" v:groupContext="shape" transform="translate(153,-42.0002)">
			<title>Sheet.13</title>
			<desc>0</desc>
			<v:textBlock v:margins="rect(4,4,4,4)"/>
			<v:textRect cx="6.75" cy="64.8602" width="13.5" height="9"/>
			<rect x="0" y="60.3602" width="13.5" height="9" class="st6"/>
			<text x="4" y="67.86" class="st5" v:langID="1033"><v:paragraph v:horizAlign="1"/><v:tabList/>0</text>		</g>
		<g id="shape14-39" v:mID="14" v:groupContext="shape" transform="translate(110.25,-28.5002)">
			<title>Sheet.14</title>
			<desc>0</desc>
			<v:textBlock v:margins="rect(4,4,4,4)"/>
			<v:textRect cx="20.25" cy="64.8602" width="40.5" height="9"/>
			<rect x="0" y="60.3602" width="40.5" height="9" class="st6"/>
			<text x="17.47" y="67.86" class="st5" v:langID="1033"><v:paragraph v:horizAlign="1"/><v:tabList/>0</text>		</g>
		<g id="shape15-42" v:mID="15" v:groupContext="shape" transform="translate(153,-28.5002)">
			<title>Sheet.15</title>
			<desc>1</desc>
			<v:textBlock v:margins="rect(4,4,4,4)"/>
			<v:textRect cx="6.75" cy="64.8602" width="13.5" height="9"/>
			<rect x="0" y="60.3602" width="13.5" height="9" class="st6"/>
			<text x="4" y="67.86" class="st5" v:langID="1033"><v:paragraph v:horizAlign="1"/><v:tabList/>1</text>		</g>
		<g id="shape16-45" v:mID="16" v:groupContext="shape" transform="translate(110.25,-15.0002)">
			<title>Sheet.16</title>
			<desc>1</desc>
			<v:textBlock v:margins="rect(4,4,4,4)"/>
			<v:textRect cx="20.25" cy="64.8602" width="40.5" height="9"/>
			<rect x="0" y="60.3602" width="40.5" height="9" class="st6"/>
			<text x="17.47" y="67.86" class="st5" v:langID="1033"><v:paragraph v:horizAlign="1"/><v:tabList/>1</text>		</g>
		<g id="shape17-48" v:mID="17" v:groupContext="shape" transform="translate(153,-15.0002)">
			<title>Sheet.17</title>
			<desc>0</desc>
			<v:textBlock v:margins="rect(4,4,4,4)"/>
			<v:textRect cx="6.75" cy="64.8602" width="13.5" height="9"/>
			<rect x="0" y="60.3602" width="13.5" height="9" class="st6"/>
			<text x="4" y="67.86" class="st5" v:langID="1033"><v:paragraph v:horizAlign="1"/><v:tabList/>0</text>		</g>
		<g id="shape18-51" v:mID="18" v:groupContext="shape" transform="translate(110.25,-1.50018)">
			<title>Sheet.18</title>
			<desc>1</desc>
			<v:textBlock v:margins="rect(4,4,4,4)"/>
			<v:textRect cx="20.25" cy="64.8602" width="40.5" height="9"/>
			<rect x="0" y="60.3602" width="40.5" height="9" class="st6"/>
			<text x="17.47" y="67.86" class="st5" v:langID="1033"><v:paragraph v:horizAlign="1"/><v:tabList/>1</text>		</g>
		<g id="shape19-54" v:mID="19" v:groupContext="shape" transform="translate(153,-1.50018)">
			<title>Sheet.19</title>
			<desc>1</desc>
			<v:textBlock v:margins="rect(4,4,4,4)"/>
			<v:textRect cx="6.75" cy="64.8602" width="13.5" height="9"/>
			<rect x="0" y="60.3602" width="13.5" height="9" class="st6"/>
			<text x="4" y="67.86" class="st5" v:langID="1033"><v:paragraph v:horizAlign="1"/><v:tabList/>1</text>		</g>
		<g id="shape20-57" v:mID="20" v:groupContext="shape" transform="translate(110.25,-57.7502)">
			<title>Sheet.20</title>
			<desc>Control</desc>
			<v:textBlock v:margins="rect(4,4,4,4)"/>
			<v:textRect cx="20.25" cy="64.8602" width="40.5" height="9"/>
			<rect x="0" y="60.3602" width="40.5" height="9" class="st6"/>
			<text x="4.13" y="67.86" class="st5" v:langID="1033"><v:paragraph v:horizAlign="1"/><v:tabList/>Control</text>		</g>
		<g id="shape21-60" v:mID="21" v:groupContext="shape" transform="translate(153,-57.7502)">
			<title>Sheet.21</title>
			<desc>A</desc>
			<v:textBlock v:margins="rect(4,4,4,4)"/>
			<v:textRect cx="6.75" cy="64.8602" width="13.5" height="9"/>
			<rect x="0" y="60.3602" width="13.5" height="9" class="st6"/>
			<text x="4" y="67.86" class="st5" v:langID="1033"><v:paragraph v:horizAlign="1"/><v:tabList/>A</text>		</g>
		<g id="shape22-63" v:mID="22" v:groupContext="shape" transform="translate(171,-57.7502)">
			<title>Sheet.22</title>
			<desc>F</desc>
			<v:textBlock v:margins="rect(4,4,4,4)"/>
			<v:textRect cx="6.75" cy="64.8602" width="13.5" height="9"/>
			<rect x="0" y="60.3602" width="13.5" height="9" class="st6"/>
			<text x="4" y="67.86" class="st5" v:langID="1033"><v:paragraph v:horizAlign="1"/><v:tabList/>F</text>		</g>
		<g id="shape23-66" v:mID="23" v:groupContext="shape" transform="translate(112.5,-55.5002)">
			<title>Sheet.23</title>
			<path d="M0 69.36 L69.75 69.36" class="st2"/>
		</g>
		<g id="shape24-69" v:mID="24" v:groupContext="shape" transform="translate(238.11,0.36) rotate(90)">
			<title>Sheet.24</title>
			<path d="M0 69.36 L68.49 69.36" class="st2"/>
		</g>
		<g id="shape25-72" v:mID="25" v:groupContext="shape" transform="translate(171,-42.0002)">
			<title>Sheet.25</title>
			<desc>0</desc>
			<v:textBlock v:margins="rect(4,4,4,4)"/>
			<v:textRect cx="6.75" cy="64.8602" width="13.5" height="9"/>
			<rect x="0" y="60.3602" width="13.5" height="9" class="st6"/>
			<text x="4" y="67.86" class="st5" v:langID="1033"><v:paragraph v:horizAlign="1"/><v:tabList/>0</text>		</g>
		<g id="shape26-75" v:mID="26" v:groupContext="shape" transform="translate(171,-28.5002)">
			<title>Sheet.26</title>
			<desc>1</desc>
			<v:textBlock v:margins="rect(4,4,4,4)"/>
			<v:textRect cx="6.75" cy="64.8602" width="13.5" height="9"/>
			<rect x="0" y="60.3602" width="13.5" height="9" class="st6"/>
			<text x="4" y="67.86" class="st5" v:langID="1033"><v:paragraph v:horizAlign="1"/><v:tabList/>1</text>		</g>
		<g id="shape27-78" v:mID="27" v:groupContext="shape" transform="translate(171,-15.0002)">
			<title>Sheet.27</title>
			<desc>1</desc>
			<v:textBlock v:margins="rect(4,4,4,4)"/>
			<v:textRect cx="6.75" cy="64.8602" width="13.5" height="9"/>
			<rect x="0" y="60.3602" width="13.5" height="9" class="st6"/>
			<text x="4" y="67.86" class="st5" v:langID="1033"><v:paragraph v:horizAlign="1"/><v:tabList/>1</text>		</g>
		<g id="shape28-81" v:mID="28" v:groupContext="shape" transform="translate(171,-1.50018)">
			<title>Sheet.28</title>
			<desc>0</desc>
			<v:textBlock v:margins="rect(4,4,4,4)"/>
			<v:textRect cx="6.75" cy="64.8602" width="13.5" height="9"/>
			<rect x="0" y="60.3602" width="13.5" height="9" class="st6"/>
			<text x="4" y="67.86" class="st5" v:langID="1033"><v:paragraph v:horizAlign="1"/><v:tabList/>0</text>		</g>
		<g id="shape29-84" v:mID="29" v:groupContext="shape" transform="translate(183.375,-31.3802)">
			<title>Right Brace</title>
			<v:userDefs>
				<v:ud v:nameU="visVersion" v:prompt="" v:val="VT0(15):26"/>
			</v:userDefs>
			<path d="M0 69.36 A12.0492 3.05937 -180 0 0 4.5 67.53 L4.5 60.22 L9 60.22 L4.5 60.22 L4.5 52.91 A12.0492 3.05937 -180
						 0 0 -0 51.08" class="st7"/>
		</g>
		<g id="shape30-87" v:mID="30" v:groupContext="shape" transform="translate(193.5,-36.0208)">
			<title>Sheet.30</title>
			<desc>Pass</desc>
			<v:textBlock v:margins="rect(4,4,4,4)"/>
			<v:textRect cx="20.25" cy="64.8602" width="40.5" height="9"/>
			<rect x="0" y="60.3602" width="40.5" height="9" class="st6"/>
			<text x="4" y="67.86" class="st5" v:langID="1033"><v:paragraph/><v:tabList/>Pass</text>		</g>
		<g id="shape31-90" v:mID="31" v:groupContext="shape" transform="translate(183.938,-4.23956)">
			<title>Right Brace.31</title>
			<v:userDefs>
				<v:ud v:nameU="visVersion" v:prompt="" v:val="VT0(15):26"/>
			</v:userDefs>
			<path d="M0 69.36 A12.0492 3.05937 -180 0 0 4.5 67.53 L4.5 60.22 L9 60.22 L4.5 60.22 L4.5 52.91 A12.0492 3.05937 -180
						 0 0 -0 51.08" class="st7"/>
		</g>
		<g id="shape32-93" v:mID="32" v:groupContext="shape" transform="translate(194.063,-8.88018)">
			<title>Sheet.32</title>
			<desc>Invert</desc>
			<v:textBlock v:margins="rect(4,4,4,4)"/>
			<v:textRect cx="20.25" cy="64.8602" width="40.5" height="9"/>
			<rect x="0" y="60.3602" width="40.5" height="9" class="st6"/>
			<text x="4" y="67.86" class="st5" v:langID="1033"><v:paragraph/><v:tabList/>Invert</text>		</g>
	</g>
</svg>
