<?xml version="1.0" encoding="UTF-8" standalone="no"?>
<!DOCTYPE svg PUBLIC "-//W3C//DTD SVG 1.1//EN" "http://www.w3.org/Graphics/SVG/1.1/DTD/svg11.dtd">
<!-- Generated by Microsoft Visio, SVG Export SerialAdder_SM3.svg Page-1 -->
<svg xmlns="http://www.w3.org/2000/svg" xmlns:xlink="http://www.w3.org/1999/xlink" xmlns:ev="http://www.w3.org/2001/xml-events"
		xmlns:v="http://schemas.microsoft.com/visio/2003/SVGExtensions/" width="2.90101in" height="2.28937in"
		viewBox="0 0 208.873 164.835" xml:space="preserve" color-interpolation-filters="sRGB" class="st15">
	<v:documentProperties v:langID="1033" v:viewMarkup="false"/>

	<style type="text/css">
	<![CDATA[
		.st1 {fill:#abe0ae;stroke:#000000;stroke-linecap:round;stroke-linejoin:round;stroke-width:0.24}
		.st2 {fill:#000000;font-family:Arial;font-size:0.833336em}
		.st3 {marker-start:url(#mrkr4-9);stroke:#4d4d4d;stroke-linecap:round;stroke-linejoin:round;stroke-width:1.2}
		.st4 {fill:#4d4d4d;fill-opacity:1;stroke:#4d4d4d;stroke-opacity:1;stroke-width:0.4}
		.st5 {font-size:1em}
		.st6 {fill:#c05046;font-family:Arial;font-size:0.833336em}
		.st7 {marker-end:url(#mrkr5-23);stroke:#c05046;stroke-linecap:round;stroke-linejoin:round;stroke-width:0.75}
		.st8 {fill:#c05046;fill-opacity:1;stroke:#c05046;stroke-opacity:1;stroke-width:0.22935779816514}
		.st9 {marker-end:url(#mrkr5-32);stroke:#000000;stroke-linecap:round;stroke-linejoin:round;stroke-width:0.75}
		.st10 {fill:#000000;fill-opacity:1;stroke:#000000;stroke-opacity:1;stroke-width:0.22935779816514}
		.st11 {stroke:#000000;stroke-linecap:round;stroke-linejoin:round;stroke-width:0.75}
		.st12 {fill:none;stroke:none;stroke-linecap:round;stroke-linejoin:round;stroke-width:0.75}
		.st13 {fill:#c05046;font-family:Arial Unicode MS;font-size:0.833336em}
		.st14 {fill:none;stroke:none;stroke-linecap:round;stroke-linejoin:round;stroke-width:0.72}
		.st15 {fill:none;fill-rule:evenodd;font-size:12px;overflow:visible;stroke-linecap:square;stroke-miterlimit:3}
	]]>
	</style>

	<defs id="Markers">
		<g id="lend4">
			<path d="M 2 1 L 0 0 L 2 -1 L 2 1 " style="stroke:none"/>
		</g>
		<marker id="mrkr4-9" class="st4" v:arrowType="4" v:arrowSize="1" v:setback="4.7" refX="4.7" orient="auto"
				markerUnits="strokeWidth" overflow="visible">
			<use xlink:href="#lend4" transform="scale(2.5) "/>
		</marker>
		<g id="lend5">
			<path d="M 2 1 L 0 0 L 1.98117 -0.993387 C 1.67173 -0.364515 1.67301 0.372641 1.98465 1.00043 " style="stroke:none"/>
		</g>
		<marker id="mrkr5-23" class="st8" v:arrowType="5" v:arrowSize="2" v:setback="7.15" refX="-7.15" orient="auto"
				markerUnits="strokeWidth" overflow="visible">
			<use xlink:href="#lend5" transform="scale(-4.36,-4.36) "/>
		</marker>
		<marker id="mrkr5-32" class="st10" v:arrowType="5" v:arrowSize="2" v:setback="7.15" refX="-7.15" orient="auto"
				markerUnits="strokeWidth" overflow="visible">
			<use xlink:href="#lend5" transform="scale(-4.36,-4.36) "/>
		</marker>
	</defs>
	<g v:mID="0" v:index="1" v:groupContext="foregroundPage">
		<title>Page-1</title>
		<v:pageProperties v:drawingScale="1" v:pageScale="1" v:drawingUnits="19" v:shadowOffsetX="9" v:shadowOffsetY="-9"/>
		<g id="shape13-1" v:mID="13" v:groupContext="shape" transform="translate(132.817,-90.9581)">
			<title>Sheet.13</title>
			<desc>S0</desc>
			<v:textBlock v:margins="rect(4,4,4,4)"/>
			<v:textRect cx="20.5774" cy="145.058" width="41.16" height="39.5527"/>
			<path d="M0 145 L0.24 142.01 L0.96 139.14 L2.03 136.39 L3.59 133.89 L5.5 131.5 L7.78 129.46 L10.29 127.79 L13.04 126.6
						 L16.03 125.64 L19.02 125.28 L22.13 125.28 L25.24 125.64 L28.11 126.6 L30.87 127.79 L33.5 129.46 L35.77 131.5
						 L37.69 133.89 L39.12 136.39 L40.32 139.14 L41.04 142.01 L41.15 145 L41.04 147.99 L40.32 150.85 L39.12 153.6
						 L37.69 156.23 L35.77 158.5 L33.5 160.53 L30.87 162.21 L28.11 163.52 L25.24 164.36 L22.13 164.83 L19.02 164.83
						 L16.03 164.36 L13.04 163.52 L10.29 162.21 L7.78 160.53 L5.5 158.5 L3.59 156.23 L2.03 153.6 L0.96 150.85
						 L0.24 147.99 L0 145 Z" class="st1"/>
			<text x="14.46" y="148.06" class="st2" v:langID="1033"><v:paragraph v:horizAlign="1"/><v:tabList/>S0</text>		</g>
		<g id="shape14-4" v:mID="14" v:groupContext="shape" transform="translate(-11.8177,63.6799) rotate(-100.095)">
			<title>Sheet.14</title>
			<path d="M5.64 164.83 L6 164.83 L19.43 164.83" class="st3"/>
		</g>
		<g id="shape15-10" v:mID="15" v:groupContext="shape" transform="translate(124.59,-146.922)">
			<title>Sheet.15</title>
			<desc>Rst</desc>
			<v:textBlock v:margins="rect(0,0,0,0)"/>
			<v:textRect cx="16.875" cy="155.879" width="33.75" height="17.9123"/>
			<text x="9.37" y="158.88" class="st2" v:langID="1033"><v:paragraph v:horizAlign="1"/><v:tabList/>Rst</text>		</g>
		<g id="shape16-12" v:mID="16" v:groupContext="shape" transform="translate(101.25,-118.984)">
			<title>Sheet.16</title>
			<desc>F=0 Cout=0</desc>
			<v:textBlock v:margins="rect(0,0,0,0)"/>
			<v:textRect cx="16.875" cy="155.879" width="33.75" height="17.9123"/>
			<text x="16.24" y="152.88" class="st2" v:langID="1033"><v:paragraph v:horizAlign="2"/><v:tabList/>F=0<v:newlineChar/><tspan
						x="1.23" dy="1.2em" class="st5">Cout</tspan>=0</text>		</g>
		<g id="shape17-15" v:mID="17" v:groupContext="shape" transform="translate(35.6726,-0.12)">
			<title>Sheet.17</title>
			<desc>S1</desc>
			<v:textBlock v:margins="rect(4,4,4,4)"/>
			<v:textRect cx="20.5774" cy="145.058" width="41.16" height="39.5527"/>
			<path d="M0 145 L0.24 142.01 L0.96 139.14 L2.03 136.39 L3.59 133.89 L5.5 131.5 L7.78 129.46 L10.29 127.79 L13.04 126.6
						 L16.03 125.64 L19.02 125.28 L22.13 125.28 L25.24 125.64 L28.11 126.6 L30.87 127.79 L33.5 129.46 L35.77 131.5
						 L37.69 133.89 L39.12 136.39 L40.32 139.14 L41.04 142.01 L41.15 145 L41.04 147.99 L40.32 150.85 L39.12 153.6
						 L37.69 156.23 L35.77 158.5 L33.5 160.53 L30.87 162.21 L28.11 163.52 L25.24 164.36 L22.13 164.83 L19.02 164.83
						 L16.03 164.36 L13.04 163.52 L10.29 162.21 L7.78 160.53 L5.5 158.5 L3.59 156.23 L2.03 153.6 L0.96 150.85
						 L0.24 147.99 L0 145 Z" class="st1"/>
			<text x="14.46" y="148.06" class="st6" v:langID="1033"><v:paragraph v:horizAlign="1"/><v:tabList/>S1</text>		</g>
		<g id="shape18-18" v:mID="18" v:groupContext="shape" transform="translate(238.948,162.646) rotate(134.926)">
			<title>Sheet.18</title>
			<path d="M0 149.56 C12.7 160.24 28.85 164.3 44.06 164.83 C61.45 165.45 77.62 161.45 93.2 152.53 L93.51 152.35"
					class="st7"/>
		</g>
		<g id="shape19-24" v:mID="19" v:groupContext="shape" transform="translate(0,-10.9402)">
			<title>Sheet.19</title>
			<desc>F=1 Cout=0</desc>
			<v:textBlock v:margins="rect(0,0,0,0)"/>
			<v:textRect cx="16.875" cy="155.879" width="33.75" height="17.9123"/>
			<text x="16.24" y="152.88" class="st6" v:langID="1033"><v:paragraph v:horizAlign="2"/><v:tabList/>F=1<v:newlineChar/><tspan
						x="1.23" dy="1.2em" class="st5">Cout</tspan>=0</text>		</g>
		<g id="shape20-27" v:mID="20" v:groupContext="shape" transform="translate(72.1153,136.329) rotate(-129.97)">
			<title>Sheet.20</title>
			<path d="M0 132.75 C-9.14 136.64 -14.48 151.47 -10.81 158.86 C-3.07 174.46 44.74 157.04 24.48 136.45 L24.2 136.22"
					class="st9"/>
		</g>
		<g id="shape21-33" v:mID="21" v:groupContext="shape" transform="translate(300.007,-95.0007) rotate(45)">
			<title>Sheet.21</title>
			<desc>A∙B</desc>
			<v:textBlock v:margins="rect(0,0,0,0)"/>
			<v:textRect cx="8.4375" cy="155.879" width="16.88" height="17.9123"/>
			<text x="-0" y="158.88" class="st2" v:langID="1033"><v:paragraph/><v:tabList/>A∙B</text>		</g>
		<g id="shape22-35" v:mID="22" v:groupContext="shape" transform="translate(309.977,-105.589) rotate(45)">
			<title>Sheet.22</title>
			<path d="M0 164.83 L6.5 164.83" class="st11"/>
		</g>
		<g id="shape23-38" v:mID="23" v:groupContext="shape" transform="translate(316.694,-98.8719) rotate(45)">
			<title>Sheet.23</title>
			<path d="M0 164.83 L6.13 164.83" class="st11"/>
		</g>
		<g id="group24-41" transform="translate(-40.3287,-26.7425) rotate(-45)" v:mID="24" v:groupContext="group">
			<title>Sheet.24</title>
			<g id="shape25-42" v:mID="25" v:groupContext="shape">
				<title>Sheet.25</title>
				<desc>A</desc>
				<v:textBlock v:margins="rect(0,0,0,0)"/>
				<v:textRect cx="4.5" cy="159.237" width="9.01" height="11.1952"/>
				<text x="0" y="162.24" class="st6" v:langID="1033"><v:paragraph/><v:tabList/>A</text>			</g>
			<g id="shape26-44" v:mID="26" v:groupContext="shape" transform="translate(6.75,-4.5)">
				<title>Sheet.26</title>
				<desc>⊕</desc>
				<v:textBlock v:margins="rect(0,0,0,0)"/>
				<v:textRect cx="4.5" cy="162.585" width="9" height="4.5"/>
				<rect x="0" y="160.335" width="9" height="4.5" class="st12"/>
				<text x="0.5" y="165.59" class="st13" v:langID="1033"><v:paragraph v:horizAlign="1"/><v:tabList/>⊕</text>			</g>
			<g id="shape27-47" v:mID="27" v:groupContext="shape" transform="translate(15.75,-0.0548405)">
				<title>Sheet.27</title>
				<desc>B</desc>
				<v:textBlock v:margins="rect(0,0,0,0)"/>
				<v:textRect cx="4.5" cy="159.237" width="9" height="11.1952"/>
				<rect x="0" y="153.639" width="9" height="11.1952" class="st14"/>
				<text x="0" y="162.24" class="st6" v:langID="1033"><v:paragraph/><v:tabList/>B</text>			</g>
		</g>
	</g>
</svg>
