<?xml version="1.0" encoding="UTF-8" standalone="no"?>
<!DOCTYPE svg PUBLIC "-//W3C//DTD SVG 1.1//EN" "http://www.w3.org/Graphics/SVG/1.1/DTD/svg11.dtd">
<!-- Generated by Microsoft Visio, SVG Export LED_Circ.svg Page-1 -->
<svg xmlns="http://www.w3.org/2000/svg" xmlns:xlink="http://www.w3.org/1999/xlink" xmlns:ev="http://www.w3.org/2001/xml-events"
		xmlns:v="http://schemas.microsoft.com/visio/2003/SVGExtensions/" width="1.36438in" height="0.739063in"
		viewBox="0 0 98.235 53.2126" xml:space="preserve" color-interpolation-filters="sRGB" class="st9">
	<v:documentProperties v:langID="1033" v:viewMarkup="false"/>

	<style type="text/css">
	<![CDATA[
		.st1 {stroke:#000000;stroke-linecap:round;stroke-linejoin:round;stroke-width:0.72}
		.st2 {fill:#ff0000;stroke:#000000;stroke-linecap:round;stroke-linejoin:round;stroke-width:0.24}
		.st3 {stroke:#000000;stroke-linecap:round;stroke-linejoin:round;stroke-width:0.719473}
		.st4 {stroke:#000000;stroke-linecap:round;stroke-linejoin:round;stroke-width:0.719984}
		.st5 {stroke:#000000;stroke-linecap:round;stroke-linejoin:round;stroke-width:0.719492}
		.st6 {fill:#ffffff;stroke:#000000;stroke-linecap:round;stroke-linejoin:round;stroke-width:0.719492}
		.st7 {fill:#000000;font-family:Arial;font-size:0.75em}
		.st8 {font-size:1em}
		.st9 {fill:none;fill-rule:evenodd;font-size:12px;overflow:visible;stroke-linecap:square;stroke-miterlimit:3}
	]]>
	</style>

	<g v:mID="0" v:index="1" v:groupContext="foregroundPage">
		<title>Page-1</title>
		<v:pageProperties v:drawingScale="1" v:pageScale="1" v:drawingUnits="0" v:shadowOffsetX="9" v:shadowOffsetY="-9"/>
		<g id="group1-1" transform="translate(130.775,45.312) rotate(90) scale(-1,1)" v:mID="1" v:groupContext="group">
			<title>Sheet.1</title>
			<g id="shape2-2" v:mID="2" v:groupContext="shape" transform="translate(63.3259,39.527) rotate(90)">
				<title>Sheet.2</title>
				<path d="M0 53.21 L13.69 53.21" class="st1"/>
			</g>
			<g id="group3-5" transform="translate(13.9361,86.1126) rotate(180)" v:mID="3" v:groupContext="group">
				<title>Sheet.3</title>
				<g id="shape4-6" v:mID="4" v:groupContext="shape" transform="translate(-10.9197,-2.04691) rotate(-12.7761)">
					<title>Sheet.4</title>
					<path d="M0 53.21 L2.17 53.21" class="st1"/>
				</g>
				<g id="shape5-9" v:mID="5" v:groupContext="shape" transform="translate(14.0499,0.97338) rotate(13.4248)">
					<title>Sheet.5</title>
					<path d="M0 53.21 L2.07 53.21" class="st1"/>
				</g>
				<g id="shape6-12" v:mID="6" v:groupContext="shape" transform="translate(-49.3973,53.2126) rotate(-90)">
					<title>Sheet.6</title>
					<path d="M0 53.21 L2.4 53.21" class="st1"/>
				</g>
				<g id="shape7-15" v:mID="7" v:groupContext="shape" transform="translate(40.7555,14.6494) rotate(48.5876)">
					<title>Sheet.7</title>
					<path d="M0 53.21 L4.49 53.21" class="st1"/>
				</g>
				<g id="shape8-18" v:mID="8" v:groupContext="shape" transform="translate(39.9077,10.8044) rotate(48.5876)">
					<title>Sheet.8</title>
					<path d="M0 53.21 L4.49 53.21" class="st1"/>
				</g>
			</g>
			<g id="shape9-21" v:mID="9" v:groupContext="shape" transform="translate(9.91129,99.6622) rotate(-179.717)">
				<title>Sheet.9</title>
				<path d="M0 53.21 L10.17 53.21" class="st1"/>
			</g>
			<g id="shape10-24" v:mID="10" v:groupContext="shape" transform="translate(34.875,99.6628) rotate(180)">
				<title>Sheet.10</title>
				<path d="M0 53.21 L13.21 53.21" class="st1"/>
			</g>
			<g id="shape11-27" v:mID="11" v:groupContext="shape" transform="translate(-31.5459,52.488) rotate(-90)">
				<title>Triangle</title>
				<path d="M13.36 53.21 L6.2 41.3 L-0.96 53.21 L13.36 53.21 Z" class="st2"/>
			</g>
		</g>
		<g id="shape12-29" v:mID="12" v:groupContext="shape" transform="translate(79.5415,-7.56636)">
			<title>Sheet.12</title>
			<path d="M9.67 53.21 L0 53.21" class="st3"/>
		</g>
		<g id="shape13-32" v:mID="13" v:groupContext="shape" transform="translate(79.5415,-0.359737)">
			<title>Sheet.13</title>
			<path d="M4.83 53.21 L0 46.01" class="st3"/>
		</g>
		<g id="shape14-35" v:mID="14" v:groupContext="shape" transform="translate(84.375,-0.359737)">
			<title>Sheet.14</title>
			<path d="M4.83 46.01 L0 53.21" class="st3"/>
		</g>
		<g id="shape15-38" v:mID="15" v:groupContext="shape" transform="translate(50.5952,-38.2755)">
			<title>Sheet.15</title>
			<path d="M0 48.77 L1.92 44.21 L5.64 53.21 L9.36 44.21 L13.2 53.21 L16.92 44.21 L20.64 53.21 L22.56 48.77" class="st4"/>
		</g>
		<g id="shape16-41" v:mID="16" v:groupContext="shape" transform="translate(73.125,-42.7755)">
			<title>Sheet.16</title>
			<path d="M11.25 53.21 L0 53.21" class="st5"/>
		</g>
		<g id="shape17-44" v:mID="17" v:groupContext="shape" transform="translate(34.875,-42.7755)">
			<title>Sheet.17</title>
			<path d="M15.75 53.21 L0 53.21" class="st5"/>
		</g>
		<g id="shape18-47" v:mID="18" v:groupContext="shape" transform="translate(30.8263,-40.9719)">
			<title>Sheet.18</title>
			<path d="M0 51.41 L0.24 50.57 L0.72 49.97 L1.44 49.61 L2.28 49.61 L3 49.97 L3.48 50.57 L3.6 51.41 L3.48 52.25 L3 52.85
						 L2.28 53.21 L1.44 53.21 L0.72 52.85 L0.24 52.25 L0 51.41 Z" class="st6"/>
		</g>
		<g id="shape19-49" v:mID="19" v:groupContext="shape" transform="translate(6.39488E-014,-36.4243)">
			<title>Sheet.19</title>
			<desc>From FPGA</desc>
			<v:textBlock v:margins="rect(0,0,0,0)"/>
			<v:textRect cx="13.5" cy="47.2244" width="27" height="11.9762"/>
			<text x="3" y="44.52" class="st7" v:langID="1033"><v:paragraph v:horizAlign="1"/><v:tabList/>From<v:newlineChar/><tspan
						x="1.25" dy="1.2em" class="st8">FPGA</tspan></text>		</g>
	</g>
</svg>
