<?xml version="1.0" encoding="UTF-8" standalone="no"?>
<!DOCTYPE svg PUBLIC "-//W3C//DTD SVG 1.1//EN" "http://www.w3.org/Graphics/SVG/1.1/DTD/svg11.dtd">
<!-- Generated by Microsoft Visio, SVG Export InversionBubble.svg Page-1 -->
<svg xmlns="http://www.w3.org/2000/svg" xmlns:xlink="http://www.w3.org/1999/xlink" xmlns:ev="http://www.w3.org/2001/xml-events"
		xmlns:v="http://schemas.microsoft.com/visio/2003/SVGExtensions/" width="3.7793in" height="0.682293in"
		viewBox="0 0 272.109 49.1251" xml:space="preserve" color-interpolation-filters="sRGB" class="st8">
	<v:documentProperties v:langID="1033" v:viewMarkup="false"/>

	<style type="text/css">
	<![CDATA[
		.st1 {fill:none;stroke:#000000;stroke-linecap:round;stroke-linejoin:round;stroke-width:0.72}
		.st2 {stroke:#000000;stroke-linecap:round;stroke-linejoin:round;stroke-width:0.748474}
		.st3 {stroke:#000000;stroke-linecap:round;stroke-linejoin:round;stroke-width:0.748902}
		.st4 {fill:#000000;stroke:#000000;stroke-linecap:round;stroke-linejoin:round;stroke-width:0.24}
		.st5 {fill:#ffffff;stroke:none;stroke-linecap:round;stroke-linejoin:round;stroke-width:0.75}
		.st6 {stroke:none;stroke-linecap:round;stroke-linejoin:round;stroke-width:0.75}
		.st7 {fill:#000000;font-family:Arial;font-size:0.833336em}
		.st8 {fill:none;fill-rule:evenodd;font-size:12px;overflow:visible;stroke-linecap:square;stroke-miterlimit:3}
	]]>
	</style>

	<g v:mID="0" v:index="1" v:groupContext="foregroundPage">
		<title>Page-1</title>
		<v:pageProperties v:drawingScale="1" v:pageScale="1" v:drawingUnits="19" v:shadowOffsetX="9" v:shadowOffsetY="-9"/>
		<g id="shape1-1" v:mID="1" v:groupContext="shape" transform="translate(42.75,-29.6252)">
			<title>Sheet.1</title>
			<path d="M0 31.13 L0 49.13 L10.12 49.13 A10.125 9 -180 0 0 20.25 40.13 A10.125 9 -180 0 0 10.12 31.13 L0 31.13 Z"
					class="st1"/>
		</g>
		<g id="shape2-3" v:mID="2" v:groupContext="shape" transform="translate(67.5,-11.6252)">
			<title>Sheet.2</title>
			<path d="M0 49.13 L24.75 49.13" class="st2"/>
		</g>
		<g id="shape3-6" v:mID="3" v:groupContext="shape" transform="translate(11.25,-43.1252)">
			<title>Sheet.3</title>
			<path d="M31.5 49.13 L0 49.13" class="st2"/>
		</g>
		<g id="shape4-9" v:mID="4" v:groupContext="shape" transform="translate(36,-16.1252)">
			<title>Sheet.4</title>
			<path d="M0 31.08 L0 49.13" class="st2"/>
		</g>
		<g id="shape5-12" v:mID="5" v:groupContext="shape" transform="translate(42.75,-2.62518)">
			<title>Sheet.5</title>
			<path d="M0 31.13 L0 49.13 L10.12 49.13 A10.125 9 -180 0 0 20.25 40.13 A10.125 9 -180 0 0 10.12 31.13 L0 31.13 Z"
					class="st1"/>
		</g>
		<g id="group6-14" transform="translate(99.2813,-16.1252)" v:mID="6" v:groupContext="group">
			<title>Sheet.6</title>
			<g id="shape7-15" v:mID="7" v:groupContext="shape">
				<title>Sheet.7</title>
				<path d="M2.1 40.13 L2.02 41.61 L1.85 44.3 L1.51 46.43 L1.01 47.92 L0 49.13 L8.57 49.13 L11.84 48.66 L13.27 48.2
							 L14.45 47.64 L16.04 46.62 L17.05 45.6 L18.39 43.56 L20.24 40.13" class="st3"/>
			</g>
			<g id="shape8-18" v:mID="8" v:groupContext="shape" transform="translate(0.00754234,-9.00045)">
				<title>Sheet.8</title>
				<path d="M2.1 49.13 L2.02 47.64 L1.85 45.04 L1.51 42.91 L1.01 41.42 L0 40.13 L8.57 40.13 L11.84 40.59 L13.27 41.15
							 L14.45 41.7 L16.04 42.72 L17.05 43.74 L18.39 45.79 L20.24 49.13" class="st3"/>
			</g>
		</g>
		<g id="shape9-21" v:mID="9" v:groupContext="shape" transform="translate(11.25,-34.1252)">
			<title>Sheet.9</title>
			<path d="M31.5 49.13 L0 49.13" class="st2"/>
		</g>
		<g id="shape10-24" v:mID="10" v:groupContext="shape" transform="translate(36,-16.1252)">
			<title>Sheet.10</title>
			<path d="M6.75 49.13 L0 49.13" class="st2"/>
		</g>
		<g id="shape11-27" v:mID="11" v:groupContext="shape" transform="translate(33.75,-7.12518)">
			<title>Sheet.11</title>
			<path d="M9 49.13 L0 49.13" class="st2"/>
		</g>
		<g id="shape12-30" v:mID="12" v:groupContext="shape" transform="translate(63,-38.6252)">
			<title>Sheet.12</title>
			<path d="M0 49.13 L9 49.13" class="st2"/>
		</g>
		<g id="shape13-33" v:mID="13" v:groupContext="shape" transform="translate(92.25,-29.5793)">
			<title>Sheet.13</title>
			<path d="M0 40.08 L0 49.13" class="st2"/>
		</g>
		<g id="shape14-36" v:mID="14" v:groupContext="shape" transform="translate(92.5313,-29.6252)">
			<title>Sheet.14</title>
			<path d="M0 49.13 L8.44 49.13" class="st2"/>
		</g>
		<g id="shape15-39" v:mID="15" v:groupContext="shape" transform="translate(92.5313,-11.6252)">
			<title>Sheet.15</title>
			<path d="M0 40.08 L0 49.13" class="st2"/>
		</g>
		<g id="shape16-42" v:mID="16" v:groupContext="shape" transform="translate(92.5313,-20.6252)">
			<title>Sheet.16</title>
			<path d="M0 49.13 L8.44 49.13" class="st2"/>
		</g>
		<g id="shape17-45" v:mID="17" v:groupContext="shape" transform="translate(119.531,-25.1252)">
			<title>Sheet.17</title>
			<path d="M0 49.13 L8.44 49.13" class="st2"/>
		</g>
		<g id="shape18-48" v:mID="18" v:groupContext="shape" transform="translate(34.9917,-33.1169)">
			<title>Circle.117</title>
			<v:userDefs>
				<v:ud v:nameU="visVersion" v:val="VT0(11):26"/>
			</v:userDefs>
			<path d="M0 48.12 A1.00825 1.00825 0 1 1 2.02 48.12 A1.00825 1.00825 0 1 1 -0 48.12 Z" class="st4"/>
		</g>
		<g id="group19-50" transform="translate(72,-32.4424)" v:mID="19" v:groupContext="group">
			<title>Sheet.19</title>
			<g id="shape20-51" v:mID="20" v:groupContext="shape">
				<title>Sheet.20</title>
				<path d="M0 36.76 L0 49.13 L10.38 42.88 L0 36.76 L0 36.76 Z" class="st5"/>
			</g>
			<g id="shape21-53" v:mID="21" v:groupContext="shape">
				<title>Sheet.21</title>
				<path d="M0 36.76 L0 49.13 L10.38 42.88 L0 36.76 L0 36.76" class="st3"/>
			</g>
			<g id="shape22-56" v:mID="22" v:groupContext="shape" transform="translate(10.3846,-4.71674)">
				<title>Sheet.22</title>
				<path d="M0 47.6 L0 47.34 L0.13 46.96 L0.26 46.7 L0.52 46.58 L0.65 46.32 L1.04 46.19 L1.3 46.07 L1.56 46.07 L1.95
							 46.07 L2.21 46.19 L2.47 46.32 L2.73 46.58 L2.86 46.7 L2.99 46.96 L3.12 47.34 L3.12 47.6 L3.12 47.6 L3.12
							 47.98 L2.99 48.23 L2.86 48.49 L2.73 48.74 L2.47 48.87 L2.21 49 L1.95 49.13 L1.56 49.13 L1.3 49.13 L1.04
							 49 L0.65 48.87 L0.52 48.74 L0.26 48.49 L0.13 48.23 L0 47.98 L0 47.6 L0 47.6 Z" class="st5"/>
			</g>
			<g id="shape23-58" v:mID="23" v:groupContext="shape" transform="translate(10.3846,-4.71674)">
				<title>Sheet.23</title>
				<path d="M0 47.6 L0 47.34 L0.13 46.96 L0.26 46.7 L0.52 46.58 L0.65 46.32 L1.04 46.19 L1.3 46.07 L1.56 46.07 L1.95
							 46.07 L2.21 46.19 L2.47 46.32 L2.73 46.58 L2.86 46.7 L2.99 46.96 L3.12 47.34 L3.12 47.6 L3.12 47.6 L3.12
							 47.98 L2.99 48.23 L2.86 48.49 L2.73 48.74 L2.47 48.87 L2.21 49 L1.95 49.13 L1.56 49.13 L1.3 49.13 L1.04
							 49 L0.65 48.87 L0.52 48.74 L0.26 48.49 L0.13 48.23 L0 47.98 L0 47.6" class="st3"/>
			</g>
		</g>
		<g id="shape24-61" v:mID="24" v:groupContext="shape" transform="translate(85.5,-38.6252)">
			<title>Sheet.24</title>
			<path d="M0 49.13 L6.75 49.13" class="st2"/>
		</g>
		<g id="group25-64" transform="translate(20.3629,-0.942428)" v:mID="25" v:groupContext="group">
			<title>Sheet.25</title>
			<g id="shape26-65" v:mID="26" v:groupContext="shape">
				<title>Sheet.26</title>
				<path d="M0 36.76 L0 49.13 L10.3 42.88 L0 36.76 L0 36.76 Z" class="st5"/>
			</g>
			<g id="shape27-67" v:mID="27" v:groupContext="shape">
				<title>Sheet.27</title>
				<path d="M0 36.76 L0 49.13 L10.3 42.88 L0 36.76 L0 36.76" class="st3"/>
			</g>
			<g id="shape28-70" v:mID="28" v:groupContext="shape" transform="translate(10.2977,-4.71674)">
				<title>Sheet.28</title>
				<path d="M0 47.6 L0 47.34 L0.13 46.96 L0.26 46.7 L0.51 46.58 L0.64 46.32 L1.03 46.19 L1.29 46.07 L1.54 46.07 L1.93
							 46.07 L2.19 46.19 L2.45 46.32 L2.7 46.58 L2.83 46.7 L2.96 46.96 L3.09 47.34 L3.09 47.6 L3.09 47.6 L3.09
							 47.98 L2.96 48.23 L2.83 48.49 L2.7 48.74 L2.45 48.87 L2.19 49 L1.93 49.13 L1.54 49.13 L1.29 49.13 L1.03
							 49 L0.64 48.87 L0.51 48.74 L0.26 48.49 L0.13 48.23 L0 47.98 L0 47.6 L0 47.6 Z" class="st5"/>
			</g>
			<g id="shape29-72" v:mID="29" v:groupContext="shape" transform="translate(10.2977,-4.71674)">
				<title>Sheet.29</title>
				<path d="M0 47.6 L0 47.34 L0.13 46.96 L0.26 46.7 L0.51 46.58 L0.64 46.32 L1.03 46.19 L1.29 46.07 L1.54 46.07 L1.93
							 46.07 L2.19 46.19 L2.45 46.32 L2.7 46.58 L2.83 46.7 L2.96 46.96 L3.09 47.34 L3.09 47.6 L3.09 47.6 L3.09
							 47.98 L2.96 48.23 L2.83 48.49 L2.7 48.74 L2.45 48.87 L2.19 49 L1.93 49.13 L1.54 49.13 L1.29 49.13 L1.03
							 49 L0.64 48.87 L0.51 48.74 L0.26 48.49 L0.13 48.23 L0 47.98 L0 47.6" class="st3"/>
			</g>
		</g>
		<g id="shape30-75" v:mID="30" v:groupContext="shape" transform="translate(11.25,-7.12518)">
			<title>Sheet.30</title>
			<path d="M9 49.13 L0 49.13" class="st2"/>
		</g>
		<g id="shape31-78" v:mID="31" v:groupContext="shape" transform="translate(0,-38.6252)">
			<title>Sheet.31</title>
			<desc>A</desc>
			<v:textBlock v:margins="rect(0,0,0,0)"/>
			<v:textRect cx="4.5" cy="44.6251" width="9" height="9"/>
			<path d="M9 40.13 L0 40.13 L0 49.13 L9 49.13 L9 40.13" class="st6"/>
			<text x="1.16" y="47.63" class="st7" v:langID="1033"><v:paragraph v:horizAlign="1"/><v:tabList/>A</text>		</g>
		<g id="shape32-82" v:mID="32" v:groupContext="shape" transform="translate(0,-27.3752)">
			<title>Sheet.32</title>
			<desc>B</desc>
			<v:textBlock v:margins="rect(0,0,0,0)"/>
			<v:textRect cx="4.5" cy="44.6251" width="9" height="9"/>
			<path d="M9 40.13 L0 40.13 L0 49.13 L9 49.13 L9 40.13" class="st6"/>
			<text x="1.16" y="47.63" class="st7" v:langID="1033"><v:paragraph v:horizAlign="1"/><v:tabList/>B</text>		</g>
		<g id="shape33-86" v:mID="33" v:groupContext="shape" transform="translate(0,-1.50018)">
			<title>Sheet.33</title>
			<desc>C</desc>
			<v:textBlock v:margins="rect(0,0,0,0)"/>
			<v:textRect cx="4.5" cy="44.6251" width="9" height="9"/>
			<path d="M9 40.13 L0 40.13 L0 49.13 L9 49.13 L9 40.13" class="st6"/>
			<text x="0.89" y="47.63" class="st7" v:langID="1033"><v:paragraph v:horizAlign="1"/><v:tabList/>C</text>		</g>
		<g id="shape34-90" v:mID="34" v:groupContext="shape" transform="translate(130.5,-20.6252)">
			<title>Sheet.34</title>
			<desc>F</desc>
			<v:textBlock v:margins="rect(0,0,0,0)"/>
			<v:textRect cx="4.5" cy="44.6251" width="9" height="9"/>
			<path d="M9 40.13 L0 40.13 L0 49.13 L9 49.13 L9 40.13" class="st6"/>
			<text x="1.45" y="47.63" class="st7" v:langID="1033"><v:paragraph v:horizAlign="1"/><v:tabList/>F</text>		</g>
		<g id="shape35-94" v:mID="35" v:groupContext="shape" transform="translate(193.5,-29.6252)">
			<title>Sheet.35</title>
			<path d="M0 31.13 L0 49.13 L10.12 49.13 A10.125 9 -180 0 0 20.25 40.13 A10.125 9 -180 0 0 10.12 31.13 L0 31.13 Z"
					class="st1"/>
		</g>
		<g id="shape36-96" v:mID="36" v:groupContext="shape" transform="translate(213.75,-11.6252)">
			<title>Sheet.36</title>
			<path d="M0 49.13 L11.25 49.13" class="st2"/>
		</g>
		<g id="shape37-99" v:mID="37" v:groupContext="shape" transform="translate(175.5,-43.1252)">
			<title>Sheet.37</title>
			<path d="M18 49.13 L0 49.13" class="st2"/>
		</g>
		<g id="shape38-102" v:mID="38" v:groupContext="shape" transform="translate(186.75,-16.1252)">
			<title>Sheet.38</title>
			<path d="M0 31.08 L0 49.13" class="st2"/>
		</g>
		<g id="shape39-105" v:mID="39" v:groupContext="shape" transform="translate(193.5,-2.62518)">
			<title>Sheet.39</title>
			<path d="M0 31.13 L0 49.13 L10.12 49.13 A10.125 9 -180 0 0 20.25 40.13 A10.125 9 -180 0 0 10.12 31.13 L0 31.13 Z"
					class="st1"/>
		</g>
		<g id="group40-107" transform="translate(231.891,-16.1252)" v:mID="40" v:groupContext="group">
			<title>Sheet.40</title>
			<g id="shape41-108" v:mID="41" v:groupContext="shape">
				<title>Sheet.41</title>
				<path d="M2.1 40.13 L2.02 41.61 L1.85 44.3 L1.51 46.43 L1.01 47.92 L0 49.13 L8.57 49.13 L11.84 48.66 L13.27 48.2
							 L14.45 47.64 L16.04 46.62 L17.05 45.6 L18.39 43.56 L20.24 40.13" class="st3"/>
			</g>
			<g id="shape42-111" v:mID="42" v:groupContext="shape" transform="translate(0.00754234,-9.00045)">
				<title>Sheet.42</title>
				<path d="M2.1 49.13 L2.02 47.64 L1.85 45.04 L1.51 42.91 L1.01 41.42 L0 40.13 L8.57 40.13 L11.84 40.59 L13.27 41.15
							 L14.45 41.7 L16.04 42.72 L17.05 43.74 L18.39 45.79 L20.24 49.13" class="st3"/>
			</g>
		</g>
		<g id="shape43-114" v:mID="43" v:groupContext="shape" transform="translate(175.5,-34.1252)">
			<title>Sheet.43</title>
			<path d="M18 49.13 L0 49.13" class="st2"/>
		</g>
		<g id="shape44-117" v:mID="44" v:groupContext="shape" transform="translate(186.75,-16.1252)">
			<title>Sheet.44</title>
			<path d="M6.75 49.13 L0 49.13" class="st2"/>
		</g>
		<g id="shape45-120" v:mID="45" v:groupContext="shape" transform="translate(225,-29.6252)">
			<title>Sheet.45</title>
			<path d="M0 40.08 L0 49.13" class="st2"/>
		</g>
		<g id="shape46-123" v:mID="46" v:groupContext="shape" transform="translate(225.141,-29.6252)">
			<title>Sheet.46</title>
			<path d="M0 49.13 L8.44 49.13" class="st2"/>
		</g>
		<g id="shape47-126" v:mID="47" v:groupContext="shape" transform="translate(225,-11.6252)">
			<title>Sheet.47</title>
			<path d="M0 40.08 L0 49.13" class="st2"/>
		</g>
		<g id="shape48-129" v:mID="48" v:groupContext="shape" transform="translate(225.141,-20.6252)">
			<title>Sheet.48</title>
			<path d="M0 49.13 L8.44 49.13" class="st2"/>
		</g>
		<g id="shape49-132" v:mID="49" v:groupContext="shape" transform="translate(252.141,-25.1252)">
			<title>Sheet.49</title>
			<path d="M0 49.13 L8.44 49.13" class="st2"/>
		</g>
		<g id="shape50-135" v:mID="50" v:groupContext="shape" transform="translate(185.742,-33.1169)">
			<title>Circle.238</title>
			<v:userDefs>
				<v:ud v:nameU="visVersion" v:val="VT0(11):26"/>
			</v:userDefs>
			<path d="M0 48.12 A1.00825 1.00825 0 1 1 2.02 48.12 A1.00825 1.00825 0 1 1 -0 48.12 Z" class="st4"/>
		</g>
		<g id="shape51-137" v:mID="51" v:groupContext="shape" transform="translate(218.25,-38.6252)">
			<title>Sheet.51</title>
			<path d="M0 49.13 L6.75 49.13" class="st2"/>
		</g>
		<g id="shape52-140" v:mID="52" v:groupContext="shape" transform="translate(175.5,-7.12518)">
			<title>Sheet.52</title>
			<path d="M13.5 49.13 L0 49.13" class="st2"/>
		</g>
		<g id="shape53-143" v:mID="53" v:groupContext="shape" transform="translate(164.25,-38.6252)">
			<title>Sheet.53</title>
			<desc>A</desc>
			<v:textBlock v:margins="rect(0,0,0,0)"/>
			<v:textRect cx="4.5" cy="44.6251" width="9" height="9"/>
			<path d="M9 40.13 L0 40.13 L0 49.13 L9 49.13 L9 40.13" class="st6"/>
			<text x="1.16" y="47.63" class="st7" v:langID="1033"><v:paragraph v:horizAlign="1"/><v:tabList/>A</text>		</g>
		<g id="shape54-147" v:mID="54" v:groupContext="shape" transform="translate(164.25,-27.3752)">
			<title>Sheet.54</title>
			<desc>B</desc>
			<v:textBlock v:margins="rect(0,0,0,0)"/>
			<v:textRect cx="4.5" cy="44.6251" width="9" height="9"/>
			<path d="M9 40.13 L0 40.13 L0 49.13 L9 49.13 L9 40.13" class="st6"/>
			<text x="1.16" y="47.63" class="st7" v:langID="1033"><v:paragraph v:horizAlign="1"/><v:tabList/>B</text>		</g>
		<g id="shape55-151" v:mID="55" v:groupContext="shape" transform="translate(164.25,-1.50018)">
			<title>Sheet.55</title>
			<desc>C</desc>
			<v:textBlock v:margins="rect(0,0,0,0)"/>
			<v:textRect cx="4.5" cy="44.6251" width="9" height="9"/>
			<path d="M9 40.13 L0 40.13 L0 49.13 L9 49.13 L9 40.13" class="st6"/>
			<text x="0.89" y="47.63" class="st7" v:langID="1033"><v:paragraph v:horizAlign="1"/><v:tabList/>C</text>		</g>
		<g id="shape56-155" v:mID="56" v:groupContext="shape" transform="translate(263.109,-20.6252)">
			<title>Sheet.56</title>
			<desc>F</desc>
			<v:textBlock v:margins="rect(0,0,0,0)"/>
			<v:textRect cx="4.5" cy="44.6251" width="9" height="9"/>
			<path d="M9 40.13 L0 40.13 L0 49.13 L9 49.13 L9 40.13" class="st6"/>
			<text x="1.45" y="47.63" class="st7" v:langID="1033"><v:paragraph v:horizAlign="1"/><v:tabList/>F</text>		</g>
		<g id="shape57-159" v:mID="57" v:groupContext="shape" transform="translate(213.75,-36.3752)">
			<title>Circle.255</title>
			<v:userDefs>
				<v:ud v:nameU="visVersion" v:val="VT0(11):26"/>
			</v:userDefs>
			<path d="M0 46.88 A2.25 2.25 0 0 1 4.5 46.88 A2.25 2.25 0 1 1 0 46.88 Z" class="st1"/>
		</g>
		<g id="shape58-161" v:mID="58" v:groupContext="shape" transform="translate(189,-4.87518)">
			<title>Circle.542</title>
			<v:userDefs>
				<v:ud v:nameU="visVersion" v:val="VT0(11):26"/>
			</v:userDefs>
			<path d="M0 46.88 A2.25 2.25 0 0 1 4.5 46.88 A2.25 2.25 0 1 1 0 46.88 Z" class="st1"/>
		</g>
		<g id="shape59-163" v:mID="59" v:groupContext="shape" transform="translate(63,-9.37518)">
			<title>Circle.231</title>
			<v:userDefs>
				<v:ud v:nameU="visVersion" v:val="VT0(11):26"/>
			</v:userDefs>
			<path d="M0 46.88 A2.25 2.25 0 0 1 4.5 46.88 A2.25 2.25 0 1 1 0 46.88 Z" class="st1"/>
		</g>
		<g id="group60-165" transform="translate(72,-5.44243)" v:mID="60" v:groupContext="group">
			<title>Sheet.60</title>
			<g id="shape61-166" v:mID="61" v:groupContext="shape">
				<title>Sheet.61</title>
				<path d="M0 36.76 L0 49.13 L10.38 42.88 L0 36.76 L0 36.76 Z" class="st5"/>
			</g>
			<g id="shape62-168" v:mID="62" v:groupContext="shape">
				<title>Sheet.62</title>
				<path d="M0 36.76 L0 49.13 L10.38 42.88 L0 36.76 L0 36.76" class="st3"/>
			</g>
			<g id="shape63-171" v:mID="63" v:groupContext="shape" transform="translate(10.3846,-4.71674)">
				<title>Sheet.63</title>
				<path d="M0 47.6 L0 47.34 L0.13 46.96 L0.26 46.7 L0.52 46.58 L0.65 46.32 L1.04 46.19 L1.3 46.07 L1.56 46.07 L1.95
							 46.07 L2.21 46.19 L2.47 46.32 L2.73 46.58 L2.86 46.7 L2.99 46.96 L3.12 47.34 L3.12 47.6 L3.12 47.6 L3.12
							 47.98 L2.99 48.23 L2.86 48.49 L2.73 48.74 L2.47 48.87 L2.21 49 L1.95 49.13 L1.56 49.13 L1.3 49.13 L1.04
							 49 L0.65 48.87 L0.52 48.74 L0.26 48.49 L0.13 48.23 L0 47.98 L0 47.6 L0 47.6 Z" class="st5"/>
			</g>
			<g id="shape64-173" v:mID="64" v:groupContext="shape" transform="translate(10.3846,-4.71674)">
				<title>Sheet.64</title>
				<path d="M0 47.6 L0 47.34 L0.13 46.96 L0.26 46.7 L0.52 46.58 L0.65 46.32 L1.04 46.19 L1.3 46.07 L1.56 46.07 L1.95
							 46.07 L2.21 46.19 L2.47 46.32 L2.73 46.58 L2.86 46.7 L2.99 46.96 L3.12 47.34 L3.12 47.6 L3.12 47.6 L3.12
							 47.98 L2.99 48.23 L2.86 48.49 L2.73 48.74 L2.47 48.87 L2.21 49 L1.95 49.13 L1.56 49.13 L1.3 49.13 L1.04
							 49 L0.65 48.87 L0.52 48.74 L0.26 48.49 L0.13 48.23 L0 47.98 L0 47.6" class="st3"/>
			</g>
		</g>
	</g>
</svg>
