<?xml version="1.0" encoding="UTF-8" standalone="no"?>
<!DOCTYPE svg PUBLIC "-//W3C//DTD SVG 1.1//EN" "http://www.w3.org/Graphics/SVG/1.1/DTD/svg11.dtd">
<!-- Generated by Microsoft Visio, SVG Export NAND_NOR_Conj.svg Page-1 -->
<svg xmlns="http://www.w3.org/2000/svg" xmlns:xlink="http://www.w3.org/1999/xlink" xmlns:ev="http://www.w3.org/2001/xml-events"
		xmlns:v="http://schemas.microsoft.com/visio/2003/SVGExtensions/" width="3in" height="0.510395in" viewBox="0 0 216 36.7484"
		xml:space="preserve" color-interpolation-filters="sRGB" class="st7">
	<v:documentProperties v:langID="1033" v:viewMarkup="false"/>

	<style type="text/css">
	<![CDATA[
		.st1 {stroke:#000000;stroke-linecap:round;stroke-linejoin:round;stroke-width:0.746481}
		.st2 {stroke:#000000;stroke-linecap:round;stroke-linejoin:round;stroke-width:0.74801}
		.st3 {stroke:#000000;stroke-linecap:round;stroke-linejoin:round;stroke-width:0.72}
		.st4 {fill:none;stroke:#000000;stroke-linecap:round;stroke-linejoin:round;stroke-width:0.72}
		.st5 {stroke:none;stroke-linecap:round;stroke-linejoin:round;stroke-width:0.75}
		.st6 {fill:#000000;font-family:Arial;font-size:0.833336em;font-weight:bold}
		.st7 {fill:none;fill-rule:evenodd;font-size:12px;overflow:visible;stroke-linecap:square;stroke-miterlimit:3}
	]]>
	</style>

	<g v:mID="0" v:index="1" v:groupContext="foregroundPage">
		<title>Page-1</title>
		<v:pageProperties v:drawingScale="1" v:pageScale="1" v:drawingUnits="19" v:shadowOffsetX="9" v:shadowOffsetY="-9"/>
		<g id="shape4-1" v:mID="4" v:groupContext="shape" transform="translate(16.9743,-18.3752)">
			<title>Sheet.4</title>
			<path d="M0.14 18.75 L6.17 18.75 L7.76 19.05 L8.68 19.25 L9.79 19.55 L11.14 20.1 L12.34 20.65 L13.6 21.25 L14.85 22.05
						 L16.06 22.9 L17.26 23.9 L18.51 25.15 L19.67 26.75 L20.25 27.75 L19.67 28.7 L18.51 30.25 L17.26 31.6 L16.06
						 32.55 L14.75 33.4 L13.6 34.15 L12.34 34.75 L11.14 35.3 L9.84 35.85 L8.68 36.15 L7.43 36.45 L6.17 36.65 L5.01
						 36.75 L0 36.75 L1.01 35.05 L1.64 33.4 L2.02 32.25 L2.36 31.15 L2.65 30.05 L2.75 28.9 L2.84 27.75 L2.75 26.6
						 L2.7 25.55 L2.46 24.4 L2.12 23.25 L1.74 22.1 L1.25 21 L0.67 19.8 L0.14 18.75 L0.14 18.75" class="st1"/>
		</g>
		<g id="shape5-4" v:mID="5" v:groupContext="shape" transform="translate(7.41176,-31.8752)">
			<title>Sheet.5</title>
			<path d="M6.75 36.75 L0 36.75" class="st2"/>
		</g>
		<g id="shape6-7" v:mID="6" v:groupContext="shape" transform="translate(7.41176,-22.8752)">
			<title>Sheet.6</title>
			<path d="M6.75 36.75 L0 36.75" class="st2"/>
		</g>
		<g id="shape7-10" v:mID="7" v:groupContext="shape" transform="translate(44.1909,46.1335) rotate(-179.899)">
			<title>Sheet.7</title>
			<path d="M0 36.75 L6.75 36.75" class="st3"/>
		</g>
		<g id="shape8-13" v:mID="8" v:groupContext="shape" transform="translate(14.1618,-20.4846)">
			<title>Circle.365</title>
			<v:userDefs>
				<v:ud v:nameU="visVersion" v:val="VT0(11):26"/>
			</v:userDefs>
			<path d="M0 34.5 A2.25 2.25 0 0 1 4.5 34.5 A2.25 2.25 0 1 1 0 34.5 Z" class="st4"/>
		</g>
		<g id="shape9-15" v:mID="9" v:groupContext="shape" transform="translate(14.443,-29.4846)">
			<title>Circle.366</title>
			<v:userDefs>
				<v:ud v:nameU="visVersion" v:val="VT0(11):26"/>
			</v:userDefs>
			<path d="M0 34.5 A2.25 2.25 0 0 1 4.5 34.5 A2.25 2.25 0 1 1 0 34.5 Z" class="st4"/>
		</g>
		<g id="shape12-17" v:mID="12" v:groupContext="shape" transform="translate(65.25,-18.3752)">
			<title>Sheet.12</title>
			<path d="M0 18.75 L0 36.75 L10.12 36.75 A10.125 9 -180 0 0 20.25 27.75 A10.125 9 -180 0 0 10.12 18.75 L0 18.75 Z"
					class="st4"/>
		</g>
		<g id="shape13-19" v:mID="13" v:groupContext="shape" transform="translate(85.5,-25.2658)">
			<title>Circle.364</title>
			<v:userDefs>
				<v:ud v:nameU="visVersion" v:val="VT0(11):26"/>
			</v:userDefs>
			<path d="M0 34.5 A2.25 2.25 0 0 1 4.5 34.5 A2.25 2.25 0 1 1 0 34.5 Z" class="st4"/>
		</g>
		<g id="shape14-21" v:mID="14" v:groupContext="shape" transform="translate(58.5,-31.8752)">
			<title>Sheet.14</title>
			<path d="M6.75 36.75 L0 36.75" class="st2"/>
		</g>
		<g id="shape15-24" v:mID="15" v:groupContext="shape" transform="translate(58.5,-22.8752)">
			<title>Sheet.15</title>
			<path d="M6.75 36.75 L0 36.75" class="st2"/>
		</g>
		<g id="shape16-27" v:mID="16" v:groupContext="shape" transform="translate(96.6853,45.8522) rotate(-179.899)">
			<title>Sheet.16</title>
			<path d="M0 36.75 L6.75 36.75" class="st3"/>
		</g>
		<g id="shape17-30" v:mID="17" v:groupContext="shape" transform="translate(176.956,-18.3752)">
			<title>Sheet.17</title>
			<path d="M0.14 18.75 L6.17 18.75 L7.76 19.05 L8.68 19.25 L9.79 19.55 L11.14 20.1 L12.34 20.65 L13.6 21.25 L14.85 22.05
						 L16.06 22.9 L17.26 23.9 L18.51 25.15 L19.67 26.75 L20.25 27.75 L19.67 28.7 L18.51 30.25 L17.26 31.6 L16.06
						 32.55 L14.75 33.4 L13.6 34.15 L12.34 34.75 L11.14 35.3 L9.84 35.85 L8.68 36.15 L7.43 36.45 L6.17 36.65 L5.01
						 36.75 L0 36.75 L1.01 35.05 L1.64 33.4 L2.02 32.25 L2.36 31.15 L2.65 30.05 L2.75 28.9 L2.84 27.75 L2.75 26.6
						 L2.7 25.55 L2.46 24.4 L2.12 23.25 L1.74 22.1 L1.25 21 L0.67 19.8 L0.14 18.75 L0.14 18.75" class="st1"/>
		</g>
		<g id="shape18-33" v:mID="18" v:groupContext="shape" transform="translate(119.581,-31.7346)">
			<title>Sheet.18</title>
			<path d="M6.75 36.75 L0 36.75" class="st2"/>
		</g>
		<g id="shape19-36" v:mID="19" v:groupContext="shape" transform="translate(120.143,-22.7346)">
			<title>Sheet.19</title>
			<path d="M6.75 36.75 L0 36.75" class="st2"/>
		</g>
		<g id="shape20-39" v:mID="20" v:groupContext="shape" transform="translate(158.327,46.2741) rotate(-179.899)">
			<title>Sheet.20</title>
			<path d="M0 36.75 L6.75 36.75" class="st3"/>
		</g>
		<g id="shape21-42" v:mID="21" v:groupContext="shape" transform="translate(126.893,-20.3439)">
			<title>Circle.21</title>
			<v:userDefs>
				<v:ud v:nameU="visVersion" v:val="VT0(11):26"/>
			</v:userDefs>
			<path d="M0 34.5 A2.25 2.25 0 0 1 4.5 34.5 A2.25 2.25 0 1 1 0 34.5 Z" class="st4"/>
		</g>
		<g id="shape22-44" v:mID="22" v:groupContext="shape" transform="translate(126.612,-29.3439)">
			<title>Circle.22</title>
			<v:userDefs>
				<v:ud v:nameU="visVersion" v:val="VT0(11):26"/>
			</v:userDefs>
			<path d="M0 34.5 A2.25 2.25 0 0 1 4.5 34.5 A2.25 2.25 0 1 1 0 34.5 Z" class="st4"/>
		</g>
		<g id="shape23-46" v:mID="23" v:groupContext="shape" transform="translate(131.393,-18.3752)">
			<title>Sheet.23</title>
			<path d="M0 18.75 L0 36.75 L10.12 36.75 A10.125 9 -180 0 0 20.25 27.75 A10.125 9 -180 0 0 10.12 18.75 L0 18.75 Z"
					class="st4"/>
		</g>
		<g id="shape24-48" v:mID="24" v:groupContext="shape" transform="translate(197.669,-25.1252)">
			<title>Circle.24</title>
			<v:userDefs>
				<v:ud v:nameU="visVersion" v:val="VT0(11):26"/>
			</v:userDefs>
			<path d="M0 34.5 A2.25 2.25 0 0 1 4.5 34.5 A2.25 2.25 0 1 1 0 34.5 Z" class="st4"/>
		</g>
		<g id="shape25-50" v:mID="25" v:groupContext="shape" transform="translate(171.893,-31.7346)">
			<title>Sheet.25</title>
			<path d="M6.75 36.75 L0 36.75" class="st2"/>
		</g>
		<g id="shape26-53" v:mID="26" v:groupContext="shape" transform="translate(171.893,-22.7346)">
			<title>Sheet.26</title>
			<path d="M6.75 36.75 L0 36.75" class="st2"/>
		</g>
		<g id="shape27-56" v:mID="27" v:groupContext="shape" transform="translate(208.854,45.9929) rotate(-179.899)">
			<title>Sheet.27</title>
			<path d="M0 36.75 L6.75 36.75" class="st3"/>
		</g>
		<g id="shape28-59" v:mID="28" v:groupContext="shape" transform="translate(0,-0.375183)">
			<title>Sheet.28</title>
			<desc>NAND Conjugates</desc>
			<v:textBlock v:margins="rect(0,0,0,0)"/>
			<v:textRect cx="54" cy="31.1234" width="108" height="11.25"/>
			<path d="M108 25.5 L0 25.5 L0 36.75 L108 36.75 L108 25.5" class="st5"/>
			<text x="10.94" y="34.12" class="st6" v:langID="1033"><v:paragraph v:horizAlign="1"/><v:tabList/>NAND Conjugates</text>		</g>
		<g id="shape29-63" v:mID="29" v:groupContext="shape" transform="translate(108,-0.375183)">
			<title>Sheet.29</title>
			<desc>NOR Conjugates</desc>
			<v:textBlock v:margins="rect(0,0,0,0)"/>
			<v:textRect cx="54" cy="31.1234" width="108" height="11.25"/>
			<path d="M108 25.5 L0 25.5 L0 36.75 L108 36.75 L108 25.5" class="st5"/>
			<text x="14.28" y="34.12" class="st6" v:langID="1033"><v:paragraph v:horizAlign="1"/><v:tabList/>NOR Conjugates</text>		</g>
	</g>
</svg>
